<?xml version="1.0" encoding="UTF-8" standalone="no"?>
<!DOCTYPE svg PUBLIC "-//W3C//DTD SVG 1.1//EN"
 "http://www.w3.org/Graphics/SVG/1.1/DTD/svg11.dtd">
<!-- Generated by graphviz version 2.38.0 (20140413.2041)
 -->
<!-- Title: mappel::Gauss2DMAP::operator= Pages: 1 -->
<svg width="635pt" height="225pt"
 viewBox="0.00 0.00 635.00 225.00" xmlns="http://www.w3.org/2000/svg" xmlns:xlink="http://www.w3.org/1999/xlink">
<g id="graph0" class="graph" transform="scale(1 1) rotate(0) translate(4 221)">
<title>mappel::Gauss2DMAP::operator=</title>
<polygon fill="white" stroke="none" points="-4,4 -4,-221 631,-221 631,4 -4,4"/>
<!-- Node1 -->
<g id="node1" class="node"><title>Node1</title>
<polygon fill="#bfbfbf" stroke="black" points="0,-94.5 0,-122.5 110,-122.5 110,-94.5 0,-94.5"/>
<text text-anchor="start" x="8" y="-111.3" font-family="Helvetica,sans-Serif" font-size="9.00">mappel::Gauss2DMAP</text>
<text text-anchor="middle" x="55" y="-101.3" font-family="Helvetica,sans-Serif" font-size="9.00">::operator=</text>
</g>
<!-- Node2 -->
<g id="node2" class="node"><title>Node2</title>
<g id="a_node2"><a xlink:href="classmappel_1_1MAPEstimator.html#ace0b9fc97cf5455fc48cb931feb4bbf7" target="_top" xlink:title="mappel::MAPEstimator\l::operator=">
<polygon fill="white" stroke="black" points="170.5,-188.5 170.5,-216.5 280.5,-216.5 280.5,-188.5 170.5,-188.5"/>
<text text-anchor="start" x="178.5" y="-205.3" font-family="Helvetica,sans-Serif" font-size="9.00">mappel::MAPEstimator</text>
<text text-anchor="middle" x="225.5" y="-195.3" font-family="Helvetica,sans-Serif" font-size="9.00">::operator=</text>
</a>
</g>
</g>
<!-- Node1&#45;&gt;Node2 -->
<g id="edge1" class="edge"><title>Node1&#45;&gt;Node2</title>
<path fill="none" stroke="midnightblue" d="M70.3611,-122.75C87.1649,-138.687 116.466,-164.256 146,-179.5 150.614,-181.881 155.511,-184.052 160.517,-186.023"/>
<polygon fill="midnightblue" stroke="midnightblue" points="159.637,-189.427 170.23,-189.571 162.038,-182.852 159.637,-189.427"/>
</g>
<!-- Node3 -->
<g id="node3" class="node"><title>Node3</title>
<g id="a_node3"><a xlink:href="classmappel_1_1PoissonNoise2DObjective.html#abdfcdfc3fb1a1da2a0b7c3898532175e" target="_top" xlink:title="mappel::PoissonNoise2DObjective\l::operator=">
<polygon fill="white" stroke="black" points="146,-141.5 146,-169.5 305,-169.5 305,-141.5 146,-141.5"/>
<text text-anchor="start" x="154" y="-158.3" font-family="Helvetica,sans-Serif" font-size="9.00">mappel::PoissonNoise2DObjective</text>
<text text-anchor="middle" x="225.5" y="-148.3" font-family="Helvetica,sans-Serif" font-size="9.00">::operator=</text>
</a>
</g>
</g>
<!-- Node1&#45;&gt;Node3 -->
<g id="edge2" class="edge"><title>Node1&#45;&gt;Node3</title>
<path fill="none" stroke="midnightblue" d="M106.556,-122.602C124.799,-127.69 145.566,-133.483 164.537,-138.774"/>
<polygon fill="midnightblue" stroke="midnightblue" points="163.698,-142.174 174.271,-141.489 165.579,-135.431 163.698,-142.174"/>
</g>
<!-- Node4 -->
<g id="node4" class="node"><title>Node4</title>
<g id="a_node4"><a xlink:href="classmappel_1_1ImageFormat2DBase.html#af7abdfaf54b018bc3a4b2a2a4e37b451" target="_top" xlink:title="mappel::ImageFormat2DBase\l::operator=">
<polygon fill="white" stroke="black" points="156,-94.5 156,-122.5 295,-122.5 295,-94.5 156,-94.5"/>
<text text-anchor="start" x="164" y="-111.3" font-family="Helvetica,sans-Serif" font-size="9.00">mappel::ImageFormat2DBase</text>
<text text-anchor="middle" x="225.5" y="-101.3" font-family="Helvetica,sans-Serif" font-size="9.00">::operator=</text>
</a>
</g>
</g>
<!-- Node1&#45;&gt;Node4 -->
<g id="edge3" class="edge"><title>Node1&#45;&gt;Node4</title>
<path fill="none" stroke="midnightblue" d="M110.242,-108.5C121.591,-108.5 133.776,-108.5 145.81,-108.5"/>
<polygon fill="midnightblue" stroke="midnightblue" points="145.86,-112 155.86,-108.5 145.86,-105 145.86,-112"/>
</g>
<!-- Node5 -->
<g id="node5" class="node"><title>Node5</title>
<g id="a_node5"><a xlink:href="classmappel_1_1Gauss2DModel.html#ac71b6bde6695ad5c3b58c366bc48600d" target="_top" xlink:title="mappel::Gauss2DModel\l::operator=">
<polygon fill="white" stroke="black" points="167.5,-47.5 167.5,-75.5 283.5,-75.5 283.5,-47.5 167.5,-47.5"/>
<text text-anchor="start" x="175.5" y="-64.3" font-family="Helvetica,sans-Serif" font-size="9.00">mappel::Gauss2DModel</text>
<text text-anchor="middle" x="225.5" y="-54.3" font-family="Helvetica,sans-Serif" font-size="9.00">::operator=</text>
</a>
</g>
</g>
<!-- Node1&#45;&gt;Node5 -->
<g id="edge4" class="edge"><title>Node1&#45;&gt;Node5</title>
<path fill="none" stroke="midnightblue" d="M106.556,-94.3985C124.799,-89.3098 145.566,-83.5172 164.537,-78.2256"/>
<polygon fill="midnightblue" stroke="midnightblue" points="165.579,-81.5687 174.271,-75.5106 163.698,-74.8261 165.579,-81.5687"/>
</g>
<!-- Node8 -->
<g id="node8" class="node"><title>Node8</title>
<g id="a_node8"><a xlink:href="classmappel_1_1PointEmitterModel.html#aa84b896a736bca3cab2f07e2ccda5489" target="_top" xlink:title="mappel::PointEmitterModel\l::operator=">
<polygon fill="white" stroke="black" points="162,-0.5 162,-28.5 289,-28.5 289,-0.5 162,-0.5"/>
<text text-anchor="start" x="170" y="-17.3" font-family="Helvetica,sans-Serif" font-size="9.00">mappel::PointEmitterModel</text>
<text text-anchor="middle" x="225.5" y="-7.3" font-family="Helvetica,sans-Serif" font-size="9.00">::operator=</text>
</a>
</g>
</g>
<!-- Node1&#45;&gt;Node8 -->
<g id="edge7" class="edge"><title>Node1&#45;&gt;Node8</title>
<path fill="none" stroke="midnightblue" d="M70.7363,-94.2421C87.6524,-78.5789 116.837,-53.6409 146,-38.5 150.47,-36.1791 155.203,-34.0416 160.039,-32.081"/>
<polygon fill="midnightblue" stroke="midnightblue" points="161.314,-35.3408 169.428,-28.5273 158.836,-28.7941 161.314,-35.3408"/>
</g>
<!-- Node6 -->
<g id="node6" class="node"><title>Node6</title>
<g id="a_node6"><a xlink:href="classmappel_1_1MCMCAdaptor2D.html#aeddb1b66ab86ef64421b9a7d6a208769" target="_top" xlink:title="mappel::MCMCAdaptor2D\l::operator=">
<polygon fill="white" stroke="black" points="341,-47.5 341,-75.5 466,-75.5 466,-47.5 341,-47.5"/>
<text text-anchor="start" x="349" y="-64.3" font-family="Helvetica,sans-Serif" font-size="9.00">mappel::MCMCAdaptor2D</text>
<text text-anchor="middle" x="403.5" y="-54.3" font-family="Helvetica,sans-Serif" font-size="9.00">::operator=</text>
</a>
</g>
</g>
<!-- Node5&#45;&gt;Node6 -->
<g id="edge5" class="edge"><title>Node5&#45;&gt;Node6</title>
<path fill="none" stroke="midnightblue" d="M283.642,-61.5C298.627,-61.5 314.98,-61.5 330.628,-61.5"/>
<polygon fill="midnightblue" stroke="midnightblue" points="330.787,-65.0001 340.787,-61.5 330.787,-58.0001 330.787,-65.0001"/>
</g>
<!-- Node7 -->
<g id="node7" class="node"><title>Node7</title>
<g id="a_node7"><a xlink:href="classmappel_1_1MCMCAdaptor1D.html#a669bba7517087d842f941957cbbf5fb5" target="_top" xlink:title="mappel::MCMCAdaptor1D\l::operator=">
<polygon fill="white" stroke="black" points="502,-47.5 502,-75.5 627,-75.5 627,-47.5 502,-47.5"/>
<text text-anchor="start" x="510" y="-64.3" font-family="Helvetica,sans-Serif" font-size="9.00">mappel::MCMCAdaptor1D</text>
<text text-anchor="middle" x="564.5" y="-54.3" font-family="Helvetica,sans-Serif" font-size="9.00">::operator=</text>
</a>
</g>
</g>
<!-- Node6&#45;&gt;Node7 -->
<g id="edge6" class="edge"><title>Node6&#45;&gt;Node7</title>
<path fill="none" stroke="midnightblue" d="M466.429,-61.5C474.674,-61.5 483.184,-61.5 491.58,-61.5"/>
<polygon fill="midnightblue" stroke="midnightblue" points="491.74,-65.0001 501.74,-61.5 491.74,-58.0001 491.74,-65.0001"/>
</g>
</g>
</svg>
