<?xml version="1.0" encoding="UTF-8" standalone="no"?>
<!DOCTYPE svg PUBLIC "-//W3C//DTD SVG 1.1//EN"
 "http://www.w3.org/Graphics/SVG/1.1/DTD/svg11.dtd">
<!-- Generated by graphviz version 2.38.0 (20140413.2041)
 -->
<!-- Title: mappel::IterativeMaximizer::MaximizerData::get_backtrack_idxs Pages: 1 -->
<svg width="500pt" height="131pt"
 viewBox="0.00 0.00 500.00 131.00" xmlns="http://www.w3.org/2000/svg" xmlns:xlink="http://www.w3.org/1999/xlink">
<g id="graph0" class="graph" transform="scale(1 1) rotate(0) translate(4 127)">
<title>mappel::IterativeMaximizer::MaximizerData::get_backtrack_idxs</title>
<polygon fill="white" stroke="none" points="-4,4 -4,-127 496,-127 496,4 -4,4"/>
<!-- Node1 -->
<g id="node1" class="node"><title>Node1</title>
<polygon fill="#bfbfbf" stroke="black" points="0,-47.5 0,-75.5 166,-75.5 166,-47.5 0,-47.5"/>
<text text-anchor="start" x="8" y="-64.3" font-family="Helvetica,sans-Serif" font-size="9.00">mappel::IterativeMaximizer</text>
<text text-anchor="middle" x="83" y="-54.3" font-family="Helvetica,sans-Serif" font-size="9.00">::MaximizerData::get_backtrack_idxs</text>
</g>
<!-- Node2 -->
<g id="node2" class="node"><title>Node2</title>
<g id="a_node2"><a xlink:href="classmappel_1_1IterativeMaximizer.html#af5614c292f139b5032b733a8d6fdf73e" target="_top" xlink:title="mappel::IterativeMaximizer\l::record_run_statistics">
<polygon fill="white" stroke="black" points="202,-47.5 202,-75.5 328,-75.5 328,-47.5 202,-47.5"/>
<text text-anchor="start" x="210" y="-64.3" font-family="Helvetica,sans-Serif" font-size="9.00">mappel::IterativeMaximizer</text>
<text text-anchor="middle" x="265" y="-54.3" font-family="Helvetica,sans-Serif" font-size="9.00">::record_run_statistics</text>
</a>
</g>
</g>
<!-- Node1&#45;&gt;Node2 -->
<g id="edge1" class="edge"><title>Node1&#45;&gt;Node2</title>
<path fill="none" stroke="midnightblue" d="M176.295,-61.5C184.986,-61.5 193.648,-61.5 201.958,-61.5"/>
<polygon fill="midnightblue" stroke="midnightblue" points="176.099,-58.0001 166.099,-61.5 176.099,-65.0001 176.099,-58.0001"/>
</g>
<!-- Node3 -->
<g id="node3" class="node"><title>Node3</title>
<g id="a_node3"><a xlink:href="classmappel_1_1IterativeMaximizer.html#ad83f7b0a5b4d412f419b6089e73a66e0" target="_top" xlink:title="mappel::IterativeMaximizer\l::compute_estimate">
<polygon fill="white" stroke="black" points="365,-94.5 365,-122.5 491,-122.5 491,-94.5 365,-94.5"/>
<text text-anchor="start" x="373" y="-111.3" font-family="Helvetica,sans-Serif" font-size="9.00">mappel::IterativeMaximizer</text>
<text text-anchor="middle" x="428" y="-101.3" font-family="Helvetica,sans-Serif" font-size="9.00">::compute_estimate</text>
</a>
</g>
</g>
<!-- Node2&#45;&gt;Node3 -->
<g id="edge2" class="edge"><title>Node2&#45;&gt;Node3</title>
<path fill="none" stroke="midnightblue" d="M324.119,-78.4663C342.129,-83.7241 361.764,-89.4558 379.006,-94.4894"/>
<polygon fill="midnightblue" stroke="midnightblue" points="324.885,-75.0441 314.305,-75.6015 322.924,-81.7637 324.885,-75.0441"/>
</g>
<!-- Node4 -->
<g id="node4" class="node"><title>Node4</title>
<g id="a_node4"><a xlink:href="classmappel_1_1IterativeMaximizer.html#aa45c11a399f29985fc9bd3365e809335" target="_top" xlink:title="mappel::IterativeMaximizer\l::compute_estimate_debug">
<polygon fill="white" stroke="black" points="364,-47.5 364,-75.5 492,-75.5 492,-47.5 364,-47.5"/>
<text text-anchor="start" x="372" y="-64.3" font-family="Helvetica,sans-Serif" font-size="9.00">mappel::IterativeMaximizer</text>
<text text-anchor="middle" x="428" y="-54.3" font-family="Helvetica,sans-Serif" font-size="9.00">::compute_estimate_debug</text>
</a>
</g>
</g>
<!-- Node2&#45;&gt;Node4 -->
<g id="edge3" class="edge"><title>Node2&#45;&gt;Node4</title>
<path fill="none" stroke="midnightblue" d="M338.486,-61.5C346.95,-61.5 355.533,-61.5 363.856,-61.5"/>
<polygon fill="midnightblue" stroke="midnightblue" points="338.247,-58.0001 328.247,-61.5 338.247,-65.0001 338.247,-58.0001"/>
</g>
<!-- Node5 -->
<g id="node5" class="node"><title>Node5</title>
<g id="a_node5"><a xlink:href="classmappel_1_1IterativeMaximizer.html#a1999fd1fa63c803b3aad87695fc82843" target="_top" xlink:title="mappel::IterativeMaximizer\l::compute_profile_estimate">
<polygon fill="white" stroke="black" points="364.5,-0.5 364.5,-28.5 491.5,-28.5 491.5,-0.5 364.5,-0.5"/>
<text text-anchor="start" x="372.5" y="-17.3" font-family="Helvetica,sans-Serif" font-size="9.00">mappel::IterativeMaximizer</text>
<text text-anchor="middle" x="428" y="-7.3" font-family="Helvetica,sans-Serif" font-size="9.00">::compute_profile_estimate</text>
</a>
</g>
</g>
<!-- Node2&#45;&gt;Node5 -->
<g id="edge4" class="edge"><title>Node2&#45;&gt;Node5</title>
<path fill="none" stroke="midnightblue" d="M324.119,-44.5337C342.129,-39.2759 361.764,-33.5442 379.006,-28.5106"/>
<polygon fill="midnightblue" stroke="midnightblue" points="322.924,-41.2363 314.305,-47.3985 324.885,-47.9559 322.924,-41.2363"/>
</g>
</g>
</svg>
