<?xml version="1.0" encoding="UTF-8" standalone="no"?>
<!DOCTYPE svg PUBLIC "-//W3C//DTD SVG 1.1//EN"
 "http://www.w3.org/Graphics/SVG/1.1/DTD/svg11.dtd">
<!-- Generated by graphviz version 2.38.0 (20140413.2041)
 -->
<!-- Title: mappel::IterativeMaximizer::maximize Pages: 1 -->
<svg width="469pt" height="178pt"
 viewBox="0.00 0.00 469.00 178.00" xmlns="http://www.w3.org/2000/svg" xmlns:xlink="http://www.w3.org/1999/xlink">
<g id="graph0" class="graph" transform="scale(1 1) rotate(0) translate(4 174)">
<title>mappel::IterativeMaximizer::maximize</title>
<polygon fill="white" stroke="none" points="-4,4 -4,-174 465,-174 465,4 -4,4"/>
<!-- Node1 -->
<g id="node1" class="node"><title>Node1</title>
<polygon fill="#bfbfbf" stroke="black" points="0,-70.5 0,-98.5 126,-98.5 126,-70.5 0,-70.5"/>
<text text-anchor="start" x="8" y="-87.3" font-family="Helvetica,sans-Serif" font-size="9.00">mappel::IterativeMaximizer</text>
<text text-anchor="middle" x="63" y="-77.3" font-family="Helvetica,sans-Serif" font-size="9.00">::maximize</text>
</g>
<!-- Node2 -->
<g id="node2" class="node"><title>Node2</title>
<g id="a_node2"><a xlink:href="classmappel_1_1IterativeMaximizer.html#ad83f7b0a5b4d412f419b6089e73a66e0" target="_top" xlink:title="mappel::IterativeMaximizer\l::compute_estimate">
<polygon fill="white" stroke="black" points="163,-141.5 163,-169.5 289,-169.5 289,-141.5 163,-141.5"/>
<text text-anchor="start" x="171" y="-158.3" font-family="Helvetica,sans-Serif" font-size="9.00">mappel::IterativeMaximizer</text>
<text text-anchor="middle" x="226" y="-148.3" font-family="Helvetica,sans-Serif" font-size="9.00">::compute_estimate</text>
</a>
</g>
</g>
<!-- Node1&#45;&gt;Node2 -->
<g id="edge1" class="edge"><title>Node1&#45;&gt;Node2</title>
<path fill="none" stroke="midnightblue" d="M99.5946,-103.059C118.008,-112.371 140.977,-123.543 162,-132.5 169.177,-135.558 176.913,-138.59 184.423,-141.401"/>
<polygon fill="midnightblue" stroke="midnightblue" points="101.182,-99.9395 90.6832,-98.5179 98.0041,-106.176 101.182,-99.9395"/>
</g>
<!-- Node3 -->
<g id="node3" class="node"><title>Node3</title>
<g id="a_node3"><a xlink:href="classmappel_1_1IterativeMaximizer.html#aa45c11a399f29985fc9bd3365e809335" target="_top" xlink:title="mappel::IterativeMaximizer\l::compute_estimate_debug">
<polygon fill="white" stroke="black" points="162,-94.5 162,-122.5 290,-122.5 290,-94.5 162,-94.5"/>
<text text-anchor="start" x="170" y="-111.3" font-family="Helvetica,sans-Serif" font-size="9.00">mappel::IterativeMaximizer</text>
<text text-anchor="middle" x="226" y="-101.3" font-family="Helvetica,sans-Serif" font-size="9.00">::compute_estimate_debug</text>
</a>
</g>
</g>
<!-- Node1&#45;&gt;Node3 -->
<g id="edge2" class="edge"><title>Node1&#45;&gt;Node3</title>
<path fill="none" stroke="midnightblue" d="M136.207,-95.2638C144.761,-96.5389 153.441,-97.8329 161.856,-99.0872"/>
<polygon fill="midnightblue" stroke="midnightblue" points="136.654,-91.7918 126.247,-93.779 135.621,-98.7153 136.654,-91.7918"/>
</g>
<!-- Node4 -->
<g id="node4" class="node"><title>Node4</title>
<g id="a_node4"><a xlink:href="classmappel_1_1IterativeMaximizer.html#a1999fd1fa63c803b3aad87695fc82843" target="_top" xlink:title="mappel::IterativeMaximizer\l::compute_profile_estimate">
<polygon fill="white" stroke="black" points="162.5,-47.5 162.5,-75.5 289.5,-75.5 289.5,-47.5 162.5,-47.5"/>
<text text-anchor="start" x="170.5" y="-64.3" font-family="Helvetica,sans-Serif" font-size="9.00">mappel::IterativeMaximizer</text>
<text text-anchor="middle" x="226" y="-54.3" font-family="Helvetica,sans-Serif" font-size="9.00">::compute_profile_estimate</text>
</a>
</g>
</g>
<!-- Node1&#45;&gt;Node4 -->
<g id="edge3" class="edge"><title>Node1&#45;&gt;Node4</title>
<path fill="none" stroke="midnightblue" d="M136.359,-74.163C145.044,-72.9222 153.857,-71.6633 162.388,-70.4446"/>
<polygon fill="midnightblue" stroke="midnightblue" points="135.651,-70.7285 126.247,-75.6076 136.641,-77.6581 135.651,-70.7285"/>
</g>
<!-- Node5 -->
<g id="node5" class="node"><title>Node5</title>
<g id="a_node5"><a xlink:href="classmappel_1_1IterativeMaximizer.html#a452cb0415d5b30de4176fcb63bf4c58b" target="_top" xlink:title="Perform a local maximization to finish off a simulated annealing run. ">
<polygon fill="white" stroke="black" points="163,-0.5 163,-28.5 289,-28.5 289,-0.5 163,-0.5"/>
<text text-anchor="start" x="171" y="-17.3" font-family="Helvetica,sans-Serif" font-size="9.00">mappel::IterativeMaximizer</text>
<text text-anchor="middle" x="226" y="-7.3" font-family="Helvetica,sans-Serif" font-size="9.00">::local_maximize</text>
</a>
</g>
</g>
<!-- Node1&#45;&gt;Node5 -->
<g id="edge4" class="edge"><title>Node1&#45;&gt;Node5</title>
<path fill="none" stroke="midnightblue" d="M101.554,-66.0667C119.676,-57.3794 141.816,-47.0674 162,-38.5 169.973,-35.1159 178.6,-31.6828 186.838,-28.5119"/>
<polygon fill="midnightblue" stroke="midnightblue" points="99.9636,-62.948 92.4758,-70.4436 103.004,-69.2534 99.9636,-62.948"/>
</g>
<!-- Node6 -->
<g id="node6" class="node"><title>Node6</title>
<g id="a_node6"><a xlink:href="classmappel_1_1SimulatedAnnealingMaximizer.html#a90132981350dc35facb8c292493ada74" target="_top" xlink:title="mappel::SimulatedAnnealing\lMaximizer::anneal">
<polygon fill="white" stroke="black" points="326,-0.5 326,-28.5 461,-28.5 461,-0.5 326,-0.5"/>
<text text-anchor="start" x="334" y="-17.3" font-family="Helvetica,sans-Serif" font-size="9.00">mappel::SimulatedAnnealing</text>
<text text-anchor="middle" x="393.5" y="-7.3" font-family="Helvetica,sans-Serif" font-size="9.00">Maximizer::anneal</text>
</a>
</g>
</g>
<!-- Node5&#45;&gt;Node6 -->
<g id="edge5" class="edge"><title>Node5&#45;&gt;Node6</title>
<path fill="none" stroke="midnightblue" d="M299.358,-14.5C308.182,-14.5 317.166,-14.5 325.901,-14.5"/>
<polygon fill="midnightblue" stroke="midnightblue" points="299.097,-11.0001 289.097,-14.5 299.097,-18.0001 299.097,-11.0001"/>
</g>
</g>
</svg>
