<?xml version="1.0" encoding="UTF-8" standalone="no"?>
<!DOCTYPE svg PUBLIC "-//W3C//DTD SVG 1.1//EN"
 "http://www.w3.org/Graphics/SVG/1.1/DTD/svg11.dtd">
<!-- Generated by graphviz version 2.38.0 (20140413.2041)
 -->
<!-- Title: mappel::Estimator::name Pages: 1 -->
<svg width="415pt" height="59pt"
 viewBox="0.00 0.00 415.00 59.00" xmlns="http://www.w3.org/2000/svg" xmlns:xlink="http://www.w3.org/1999/xlink">
<g id="graph0" class="graph" transform="scale(1 1) rotate(0) translate(4 55)">
<title>mappel::Estimator::name</title>
<polygon fill="white" stroke="none" points="-4,4 -4,-55 411,-55 411,4 -4,4"/>
<!-- Node1 -->
<g id="node1" class="node"><title>Node1</title>
<polygon fill="#bfbfbf" stroke="black" points="0,-5.5 0,-23.5 118,-23.5 118,-5.5 0,-5.5"/>
<text text-anchor="middle" x="59" y="-12.3" font-family="Helvetica,sans-Serif" font-size="9.00">mappel::Estimator::name</text>
</g>
<!-- Node2 -->
<g id="node2" class="node"><title>Node2</title>
<g id="a_node2"><a xlink:href="classmappel_1_1Estimator.html#a273f65624e06688cd4b1126e3e7556ae" target="_top" xlink:title="mappel::Estimator::\lcompute_profile_estimate">
<polygon fill="white" stroke="black" points="154,-22.5 154,-50.5 276,-50.5 276,-22.5 154,-22.5"/>
<text text-anchor="start" x="162" y="-39.3" font-family="Helvetica,sans-Serif" font-size="9.00">mappel::Estimator::</text>
<text text-anchor="middle" x="215" y="-29.3" font-family="Helvetica,sans-Serif" font-size="9.00">compute_profile_estimate</text>
</a>
</g>
</g>
<!-- Node1&#45;&gt;Node2 -->
<g id="edge1" class="edge"><title>Node1&#45;&gt;Node2</title>
<path fill="none" stroke="midnightblue" d="M128.186,-24.2409C136.755,-25.465 145.471,-26.7102 153.903,-27.9147"/>
<polygon fill="midnightblue" stroke="midnightblue" points="128.615,-20.7667 118.221,-22.8173 127.625,-27.6964 128.615,-20.7667"/>
</g>
<!-- Node3 -->
<g id="node3" class="node"><title>Node3</title>
<g id="a_node3"><a xlink:href="classmappel_1_1Estimator.html#a629823fa91d4b461b2b1f607d588e558" target="_top" xlink:title="mappel::Estimator::\l~Estimator">
<polygon fill="white" stroke="black" points="312,-0.5 312,-28.5 407,-28.5 407,-0.5 312,-0.5"/>
<text text-anchor="start" x="320" y="-17.3" font-family="Helvetica,sans-Serif" font-size="9.00">mappel::Estimator::</text>
<text text-anchor="middle" x="359.5" y="-7.3" font-family="Helvetica,sans-Serif" font-size="9.00">~Estimator</text>
</a>
</g>
</g>
<!-- Node1&#45;&gt;Node3 -->
<g id="edge3" class="edge"><title>Node1&#45;&gt;Node3</title>
<path fill="none" stroke="midnightblue" d="M128.267,-13.6886C136.928,-13.6107 145.672,-13.5443 154,-13.5 208.221,-13.2116 221.779,-13.1714 276,-13.5 287.602,-13.5703 300.122,-13.6962 311.816,-13.8356"/>
<polygon fill="midnightblue" stroke="midnightblue" points="128.132,-10.1896 118.166,-13.7847 128.198,-17.1893 128.132,-10.1896"/>
</g>
<!-- Node2&#45;&gt;Node3 -->
<g id="edge2" class="edge"><title>Node2&#45;&gt;Node3</title>
<path fill="none" stroke="midnightblue" d="M285.947,-25.7011C294.776,-24.3381 303.632,-22.9709 311.971,-21.6834"/>
<polygon fill="midnightblue" stroke="midnightblue" points="285.369,-22.2489 276.02,-27.2338 286.437,-29.1669 285.369,-22.2489"/>
</g>
</g>
</svg>
