<?xml version="1.0" encoding="UTF-8" standalone="no"?>
<!DOCTYPE svg PUBLIC "-//W3C//DTD SVG 1.1//EN"
 "http://www.w3.org/Graphics/SVG/1.1/DTD/svg11.dtd">
<!-- Generated by graphviz version 2.38.0 (20140413.2041)
 -->
<!-- Title: mappel::Gauss1DsModel::make_stencil Pages: 1 -->
<svg width="911pt" height="222pt"
 viewBox="0.00 0.00 911.00 222.00" xmlns="http://www.w3.org/2000/svg" xmlns:xlink="http://www.w3.org/1999/xlink">
<g id="graph0" class="graph" transform="scale(1 1) rotate(0) translate(4 218)">
<title>mappel::Gauss1DsModel::make_stencil</title>
<polygon fill="white" stroke="none" points="-4,4 -4,-218 907,-218 907,4 -4,4"/>
<!-- Node1 -->
<g id="node1" class="node"><title>Node1</title>
<polygon fill="#bfbfbf" stroke="black" points="0,-63.5 0,-91.5 120,-91.5 120,-63.5 0,-63.5"/>
<text text-anchor="start" x="8" y="-80.3" font-family="Helvetica,sans-Serif" font-size="9.00">mappel::Gauss1DsModel</text>
<text text-anchor="middle" x="60" y="-70.3" font-family="Helvetica,sans-Serif" font-size="9.00">::make_stencil</text>
</g>
<!-- Node2 -->
<g id="node2" class="node"><title>Node2</title>
<g id="a_node2"><a xlink:href="classmappel_1_1Gauss1DsModel_1_1Stencil.html#a7d151d646b8286c83a3c6e5b49b1a66d" target="_top" xlink:title="mappel::Gauss1DsModel\l::Stencil::Stencil">
<polygon fill="white" stroke="black" points="159.5,-87.5 159.5,-115.5 279.5,-115.5 279.5,-87.5 159.5,-87.5"/>
<text text-anchor="start" x="167.5" y="-104.3" font-family="Helvetica,sans-Serif" font-size="9.00">mappel::Gauss1DsModel</text>
<text text-anchor="middle" x="219.5" y="-94.3" font-family="Helvetica,sans-Serif" font-size="9.00">::Stencil::Stencil</text>
</a>
</g>
</g>
<!-- Node1&#45;&gt;Node2 -->
<g id="edge1" class="edge"><title>Node1&#45;&gt;Node2</title>
<path fill="none" stroke="midnightblue" d="M120.095,-86.505C129.619,-87.9562 139.551,-89.4697 149.287,-90.9532"/>
<polygon fill="midnightblue" stroke="midnightblue" points="148.922,-94.438 159.336,-92.4845 149.977,-87.5179 148.922,-94.438"/>
</g>
<!-- Node16 -->
<g id="node16" class="node"><title>Node16</title>
<g id="a_node16"><a xlink:href="classmappel_1_1PointEmitterModel.html#ad50dfc29b6e7167fb4caf8683353079d" target="_top" xlink:title="mappel::PointEmitterModel\l::theta_in_bounds">
<polygon fill="white" stroke="black" points="156,-40.5 156,-68.5 283,-68.5 283,-40.5 156,-40.5"/>
<text text-anchor="start" x="164" y="-57.3" font-family="Helvetica,sans-Serif" font-size="9.00">mappel::PointEmitterModel</text>
<text text-anchor="middle" x="219.5" y="-47.3" font-family="Helvetica,sans-Serif" font-size="9.00">::theta_in_bounds</text>
</a>
</g>
</g>
<!-- Node1&#45;&gt;Node16 -->
<g id="edge16" class="edge"><title>Node1&#45;&gt;Node16</title>
<path fill="none" stroke="midnightblue" d="M120.095,-68.8702C128.502,-67.6425 137.228,-66.3682 145.856,-65.1083"/>
<polygon fill="midnightblue" stroke="midnightblue" points="146.525,-68.5479 155.914,-63.6395 145.513,-61.6213 146.525,-68.5479"/>
</g>
<!-- Node3 -->
<g id="node3" class="node"><title>Node3</title>
<g id="a_node3"><a xlink:href="classmappel_1_1Gauss1DsModel_1_1Stencil.html#a9e8b6059b84e28bea0ba3496bc95e7ce" target="_top" xlink:title="mappel::Gauss1DsModel\l::Stencil::compute_derivatives">
<polygon fill="white" stroke="black" points="319,-87.5 319,-115.5 457,-115.5 457,-87.5 319,-87.5"/>
<text text-anchor="start" x="327" y="-104.3" font-family="Helvetica,sans-Serif" font-size="9.00">mappel::Gauss1DsModel</text>
<text text-anchor="middle" x="388" y="-94.3" font-family="Helvetica,sans-Serif" font-size="9.00">::Stencil::compute_derivatives</text>
</a>
</g>
</g>
<!-- Node2&#45;&gt;Node3 -->
<g id="edge2" class="edge"><title>Node2&#45;&gt;Node3</title>
<path fill="none" stroke="midnightblue" d="M279.67,-101.5C289.105,-101.5 298.991,-101.5 308.784,-101.5"/>
<polygon fill="midnightblue" stroke="midnightblue" points="308.933,-105 318.933,-101.5 308.933,-98.0001 308.933,-105"/>
</g>
<!-- Node4 -->
<g id="node4" class="node"><title>Node4</title>
<g id="a_node4"><a xlink:href="namespacemappel.html#aa5c2f294298c875605ee1e9876b7d116" target="_top" xlink:title="mappel::make_G_stencil">
<polygon fill="white" stroke="black" points="502,-195.5 502,-213.5 620,-213.5 620,-195.5 502,-195.5"/>
<text text-anchor="middle" x="561" y="-202.3" font-family="Helvetica,sans-Serif" font-size="9.00">mappel::make_G_stencil</text>
</a>
</g>
</g>
<!-- Node3&#45;&gt;Node4 -->
<g id="edge3" class="edge"><title>Node3&#45;&gt;Node4</title>
<path fill="none" stroke="midnightblue" d="M402.422,-115.728C421.019,-134.62 456.48,-167.773 493,-186.5 497.2,-188.654 501.684,-190.57 506.267,-192.271"/>
<polygon fill="midnightblue" stroke="midnightblue" points="505.159,-195.591 515.753,-195.466 507.394,-188.957 505.159,-195.591"/>
</g>
<!-- Node7 -->
<g id="node7" class="node"><title>Node7</title>
<g id="a_node7"><a xlink:href="classmappel_1_1Gauss1DsModel_1_1Stencil.html#a91366bc87b44318c0ded04ac99760c27" target="_top" xlink:title="mappel::Gauss1DsModel\l::Stencil::sigma">
<polygon fill="white" stroke="black" points="501,-148.5 501,-176.5 621,-176.5 621,-148.5 501,-148.5"/>
<text text-anchor="start" x="509" y="-165.3" font-family="Helvetica,sans-Serif" font-size="9.00">mappel::Gauss1DsModel</text>
<text text-anchor="middle" x="561" y="-155.3" font-family="Helvetica,sans-Serif" font-size="9.00">::Stencil::sigma</text>
</a>
</g>
</g>
<!-- Node3&#45;&gt;Node7 -->
<g id="edge6" class="edge"><title>Node3&#45;&gt;Node7</title>
<path fill="none" stroke="midnightblue" d="M426.97,-115.577C446.642,-122.818 471.075,-131.732 493,-139.5 498.144,-141.323 503.518,-143.204 508.887,-145.07"/>
<polygon fill="midnightblue" stroke="midnightblue" points="507.902,-148.433 518.497,-148.395 510.191,-141.817 507.902,-148.433"/>
</g>
<!-- Node8 -->
<g id="node8" class="node"><title>Node8</title>
<g id="a_node8"><a xlink:href="namespacemappel.html#a8da88490d6ff7d5886b96b66c1bab369" target="_top" xlink:title="mappel::make_DX_stencil">
<polygon fill="white" stroke="black" points="499,-111.5 499,-129.5 623,-129.5 623,-111.5 499,-111.5"/>
<text text-anchor="middle" x="561" y="-118.3" font-family="Helvetica,sans-Serif" font-size="9.00">mappel::make_DX_stencil</text>
</a>
</g>
</g>
<!-- Node3&#45;&gt;Node8 -->
<g id="edge7" class="edge"><title>Node3&#45;&gt;Node8</title>
<path fill="none" stroke="midnightblue" d="M457.075,-109.064C467.521,-110.225 478.329,-111.425 488.84,-112.593"/>
<polygon fill="midnightblue" stroke="midnightblue" points="488.479,-116.075 498.805,-113.701 489.252,-109.118 488.479,-116.075"/>
</g>
<!-- Node10 -->
<g id="node10" class="node"><title>Node10</title>
<g id="a_node10"><a xlink:href="namespacemappel.html#af7636db506977133c8b30d108fede711" target="_top" xlink:title="mappel::make_DXS_stencil">
<polygon fill="white" stroke="black" points="496,-74.5 496,-92.5 626,-92.5 626,-74.5 496,-74.5"/>
<text text-anchor="middle" x="561" y="-81.3" font-family="Helvetica,sans-Serif" font-size="9.00">mappel::make_DXS_stencil</text>
</a>
</g>
</g>
<!-- Node3&#45;&gt;Node10 -->
<g id="edge9" class="edge"><title>Node3&#45;&gt;Node10</title>
<path fill="none" stroke="midnightblue" d="M457.075,-94.3342C466.446,-93.3478 476.108,-92.3308 485.585,-91.3332"/>
<polygon fill="midnightblue" stroke="midnightblue" points="486.195,-94.7884 495.774,-90.2607 485.462,-87.8268 486.195,-94.7884"/>
</g>
<!-- Node12 -->
<g id="node12" class="node"><title>Node12</title>
<g id="a_node12"><a xlink:href="namespacemappel.html#aef14b765af6f9b85d93f42ab8b84311b" target="_top" xlink:title="mappel::make_DXS2_stencil">
<polygon fill="white" stroke="black" points="493.5,-37.5 493.5,-55.5 628.5,-55.5 628.5,-37.5 493.5,-37.5"/>
<text text-anchor="middle" x="561" y="-44.3" font-family="Helvetica,sans-Serif" font-size="9.00">mappel::make_DXS2_stencil</text>
</a>
</g>
</g>
<!-- Node3&#45;&gt;Node12 -->
<g id="edge12" class="edge"><title>Node3&#45;&gt;Node12</title>
<path fill="none" stroke="midnightblue" d="M428.929,-87.4616C438.152,-84.2039 447.921,-80.7412 457,-77.5 473.021,-71.7802 476.771,-69.6002 493,-64.5 499.873,-62.3401 507.191,-60.2069 514.372,-58.2058"/>
<polygon fill="midnightblue" stroke="midnightblue" points="515.3,-61.5806 524.024,-55.5689 513.456,-54.8281 515.3,-61.5806"/>
</g>
<!-- Node14 -->
<g id="node14" class="node"><title>Node14</title>
<g id="a_node14"><a xlink:href="namespacemappel.html#abccec04f04b0b10940779c9bbae0e570" target="_top" xlink:title="mappel::make_DXSX_stencil">
<polygon fill="white" stroke="black" points="493,-0.5 493,-18.5 629,-18.5 629,-0.5 493,-0.5"/>
<text text-anchor="middle" x="561" y="-7.3" font-family="Helvetica,sans-Serif" font-size="9.00">mappel::make_DXSX_stencil</text>
</a>
</g>
</g>
<!-- Node3&#45;&gt;Node14 -->
<g id="edge14" class="edge"><title>Node3&#45;&gt;Node14</title>
<path fill="none" stroke="midnightblue" d="M440.149,-87.3431C446.118,-84.5841 451.89,-81.3285 457,-77.5 478.914,-61.0805 470.471,-43.0658 493,-27.5 495.675,-25.6514 498.532,-23.9925 501.501,-22.5039"/>
<polygon fill="midnightblue" stroke="midnightblue" points="502.895,-25.7147 510.681,-18.5294 500.113,-19.291 502.895,-25.7147"/>
</g>
<!-- Node5 -->
<g id="node5" class="node"><title>Node5</title>
<g id="a_node5"><a xlink:href="namespacemappel.html#a5ca82edc201e8605107a991493ad0d5e" target="_top" xlink:title="mappel::fill_G_stencil">
<polygon fill="white" stroke="black" points="674,-171.5 674,-189.5 778,-189.5 778,-171.5 674,-171.5"/>
<text text-anchor="middle" x="726" y="-178.3" font-family="Helvetica,sans-Serif" font-size="9.00">mappel::fill_G_stencil</text>
</a>
</g>
</g>
<!-- Node4&#45;&gt;Node5 -->
<g id="edge4" class="edge"><title>Node4&#45;&gt;Node5</title>
<path fill="none" stroke="midnightblue" d="M620.386,-195.903C634.426,-193.836 649.464,-191.622 663.635,-189.535"/>
<polygon fill="midnightblue" stroke="midnightblue" points="664.391,-192.962 673.774,-188.042 663.371,-186.037 664.391,-192.962"/>
</g>
<!-- Node6 -->
<g id="node6" class="node"><title>Node6</title>
<g id="a_node6"><a xlink:href="namespacemappel.html#a8475cdb3edacceb0ae215c3ebd1f33c1" target="_top" xlink:title="mappel::square">
<polygon fill="white" stroke="black" points="823,-122.5 823,-140.5 903,-140.5 903,-122.5 823,-122.5"/>
<text text-anchor="middle" x="863" y="-129.3" font-family="Helvetica,sans-Serif" font-size="9.00">mappel::square</text>
</a>
</g>
</g>
<!-- Node5&#45;&gt;Node6 -->
<g id="edge5" class="edge"><title>Node5&#45;&gt;Node6</title>
<path fill="none" stroke="midnightblue" d="M752.076,-171.398C773.293,-163.697 803.915,-152.583 827.452,-144.04"/>
<polygon fill="midnightblue" stroke="midnightblue" points="828.852,-147.255 837.058,-140.553 826.464,-140.675 828.852,-147.255"/>
</g>
<!-- Node9 -->
<g id="node9" class="node"><title>Node9</title>
<g id="a_node9"><a xlink:href="namespacemappel.html#ad2dd4330fc626fa673a3acf691d6b9a7" target="_top" xlink:title="mappel::fill_DX_stencil">
<polygon fill="white" stroke="black" points="671,-111.5 671,-129.5 781,-129.5 781,-111.5 671,-111.5"/>
<text text-anchor="middle" x="726" y="-118.3" font-family="Helvetica,sans-Serif" font-size="9.00">mappel::fill_DX_stencil</text>
</a>
</g>
</g>
<!-- Node8&#45;&gt;Node9 -->
<g id="edge8" class="edge"><title>Node8&#45;&gt;Node9</title>
<path fill="none" stroke="midnightblue" d="M623.159,-120.5C635.368,-120.5 648.228,-120.5 660.545,-120.5"/>
<polygon fill="midnightblue" stroke="midnightblue" points="660.737,-124 670.737,-120.5 660.737,-117 660.737,-124"/>
</g>
<!-- Node11 -->
<g id="node11" class="node"><title>Node11</title>
<g id="a_node11"><a xlink:href="namespacemappel.html#ab0cb62f6dcecae5ff19468d87a283e7a" target="_top" xlink:title="mappel::fill_DXS_stencil">
<polygon fill="white" stroke="black" points="668,-74.5 668,-92.5 784,-92.5 784,-74.5 668,-74.5"/>
<text text-anchor="middle" x="726" y="-81.3" font-family="Helvetica,sans-Serif" font-size="9.00">mappel::fill_DXS_stencil</text>
</a>
</g>
</g>
<!-- Node10&#45;&gt;Node11 -->
<g id="edge10" class="edge"><title>Node10&#45;&gt;Node11</title>
<path fill="none" stroke="midnightblue" d="M626.422,-83.5C636.7,-83.5 647.357,-83.5 657.7,-83.5"/>
<polygon fill="midnightblue" stroke="midnightblue" points="657.912,-87.0001 667.912,-83.5 657.912,-80.0001 657.912,-87.0001"/>
</g>
<!-- Node11&#45;&gt;Node6 -->
<g id="edge11" class="edge"><title>Node11&#45;&gt;Node6</title>
<path fill="none" stroke="midnightblue" d="M758.931,-92.5048C768.051,-95.2317 777.965,-98.3447 787,-101.5 801.809,-106.672 817.995,-113.051 831.527,-118.596"/>
<polygon fill="midnightblue" stroke="midnightblue" points="830.276,-121.866 840.854,-122.456 832.953,-115.398 830.276,-121.866"/>
</g>
<!-- Node13 -->
<g id="node13" class="node"><title>Node13</title>
<g id="a_node13"><a xlink:href="namespacemappel.html#a445e83c8273da9b3a50cc10d038ed612" target="_top" xlink:title="mappel::fill_DXS2_stencil">
<polygon fill="white" stroke="black" points="665,-37.5 665,-55.5 787,-55.5 787,-37.5 665,-37.5"/>
<text text-anchor="middle" x="726" y="-44.3" font-family="Helvetica,sans-Serif" font-size="9.00">mappel::fill_DXS2_stencil</text>
</a>
</g>
</g>
<!-- Node12&#45;&gt;Node13 -->
<g id="edge13" class="edge"><title>Node12&#45;&gt;Node13</title>
<path fill="none" stroke="midnightblue" d="M628.769,-46.5C637.363,-46.5 646.183,-46.5 654.83,-46.5"/>
<polygon fill="midnightblue" stroke="midnightblue" points="654.876,-50.0001 664.876,-46.5 654.876,-43.0001 654.876,-50.0001"/>
</g>
<!-- Node15 -->
<g id="node15" class="node"><title>Node15</title>
<g id="a_node15"><a xlink:href="namespacemappel.html#ad3a6553e54dc90232fc04c93731fc69c" target="_top" xlink:title="mappel::fill_DXSX_stencil">
<polygon fill="white" stroke="black" points="665,-0.5 665,-18.5 787,-18.5 787,-0.5 665,-0.5"/>
<text text-anchor="middle" x="726" y="-7.3" font-family="Helvetica,sans-Serif" font-size="9.00">mappel::fill_DXSX_stencil</text>
</a>
</g>
</g>
<!-- Node14&#45;&gt;Node15 -->
<g id="edge15" class="edge"><title>Node14&#45;&gt;Node15</title>
<path fill="none" stroke="midnightblue" d="M629.239,-9.5C637.656,-9.5 646.282,-9.5 654.744,-9.5"/>
<polygon fill="midnightblue" stroke="midnightblue" points="654.958,-13.0001 664.958,-9.5 654.958,-6.0001 654.958,-13.0001"/>
</g>
<!-- Node17 -->
<g id="node17" class="node"><title>Node17</title>
<g id="a_node17"><a xlink:href="classmappel_1_1PointEmitterModel.html#a97a868e842302f670ed9f9bd49416771" target="_top" xlink:title="mappel::PointEmitterModel\l::check_param_shape">
<polygon fill="white" stroke="black" points="324.5,-40.5 324.5,-68.5 451.5,-68.5 451.5,-40.5 324.5,-40.5"/>
<text text-anchor="start" x="332.5" y="-57.3" font-family="Helvetica,sans-Serif" font-size="9.00">mappel::PointEmitterModel</text>
<text text-anchor="middle" x="388" y="-47.3" font-family="Helvetica,sans-Serif" font-size="9.00">::check_param_shape</text>
</a>
</g>
</g>
<!-- Node16&#45;&gt;Node17 -->
<g id="edge17" class="edge"><title>Node16&#45;&gt;Node17</title>
<path fill="none" stroke="midnightblue" d="M283.447,-54.5C293.461,-54.5 303.893,-54.5 314.114,-54.5"/>
<polygon fill="midnightblue" stroke="midnightblue" points="314.241,-58.0001 324.241,-54.5 314.241,-51.0001 314.241,-58.0001"/>
</g>
</g>
</svg>
