<?xml version="1.0" encoding="UTF-8" standalone="no"?>
<!DOCTYPE svg PUBLIC "-//W3C//DTD SVG 1.1//EN"
 "http://www.w3.org/Graphics/SVG/1.1/DTD/svg11.dtd">
<!-- Generated by graphviz version 2.38.0 (20140413.2041)
 -->
<!-- Title: mappel::PointEmitterModel::get_hyperparam_value Pages: 1 -->
<svg width="457pt" height="104pt"
 viewBox="0.00 0.00 457.00 104.00" xmlns="http://www.w3.org/2000/svg" xmlns:xlink="http://www.w3.org/1999/xlink">
<g id="graph0" class="graph" transform="scale(1 1) rotate(0) translate(4 100)">
<title>mappel::PointEmitterModel::get_hyperparam_value</title>
<polygon fill="white" stroke="none" points="-4,4 -4,-100 453,-100 453,4 -4,4"/>
<!-- Node1 -->
<g id="node1" class="node"><title>Node1</title>
<polygon fill="#bfbfbf" stroke="black" points="0,-33.5 0,-61.5 127,-61.5 127,-33.5 0,-33.5"/>
<text text-anchor="start" x="8" y="-50.3" font-family="Helvetica,sans-Serif" font-size="9.00">mappel::PointEmitterModel</text>
<text text-anchor="middle" x="63.5" y="-40.3" font-family="Helvetica,sans-Serif" font-size="9.00">::get_hyperparam_value</text>
</g>
<!-- Node2 -->
<g id="node2" class="node"><title>Node2</title>
<g id="a_node2"><a xlink:href="classmappel_1_1MCMCAdaptor1D.html#ae79ee3845fbdd0e378f00eeebf8ccef1" target="_top" xlink:title="mappel::MCMCAdaptor1D\l::set_background_mcmc\l_sampling">
<polygon fill="white" stroke="black" points="163,-57.5 163,-95.5 288,-95.5 288,-57.5 163,-57.5"/>
<text text-anchor="start" x="171" y="-84.3" font-family="Helvetica,sans-Serif" font-size="9.00">mappel::MCMCAdaptor1D</text>
<text text-anchor="start" x="171" y="-74.3" font-family="Helvetica,sans-Serif" font-size="9.00">::set_background_mcmc</text>
<text text-anchor="middle" x="225.5" y="-64.3" font-family="Helvetica,sans-Serif" font-size="9.00">_sampling</text>
</a>
</g>
</g>
<!-- Node1&#45;&gt;Node2 -->
<g id="edge1" class="edge"><title>Node1&#45;&gt;Node2</title>
<path fill="none" stroke="midnightblue" d="M137.275,-60.6904C145.855,-62.2456 154.548,-63.8211 162.953,-65.3445"/>
<polygon fill="midnightblue" stroke="midnightblue" points="137.741,-57.218 127.277,-58.8783 136.492,-64.1057 137.741,-57.218"/>
</g>
<!-- Node4 -->
<g id="node4" class="node"><title>Node4</title>
<g id="a_node4"><a xlink:href="classmappel_1_1MCMCAdaptor1D.html#ac70f768928859b1e9449b0ec1a141c4c" target="_top" xlink:title="mappel::MCMCAdaptor1D\l::set_intensity_mcmc\l_sampling">
<polygon fill="white" stroke="black" points="163,-0.5 163,-38.5 288,-38.5 288,-0.5 163,-0.5"/>
<text text-anchor="start" x="171" y="-27.3" font-family="Helvetica,sans-Serif" font-size="9.00">mappel::MCMCAdaptor1D</text>
<text text-anchor="start" x="171" y="-17.3" font-family="Helvetica,sans-Serif" font-size="9.00">::set_intensity_mcmc</text>
<text text-anchor="middle" x="225.5" y="-7.3" font-family="Helvetica,sans-Serif" font-size="9.00">_sampling</text>
</a>
</g>
</g>
<!-- Node1&#45;&gt;Node4 -->
<g id="edge3" class="edge"><title>Node1&#45;&gt;Node4</title>
<path fill="none" stroke="midnightblue" d="M137.275,-34.7644C145.855,-33.2628 154.548,-31.7417 162.953,-30.2708"/>
<polygon fill="midnightblue" stroke="midnightblue" points="136.524,-31.3425 127.277,-36.514 137.731,-38.2377 136.524,-31.3425"/>
</g>
<!-- Node3 -->
<g id="node3" class="node"><title>Node3</title>
<g id="a_node3"><a xlink:href="classmappel_1_1MCMCAdaptor1D.html#ad4dce0f73f10af2b3cd3d3a09813dc19" target="_top" xlink:title="mappel::MCMCAdaptor1D\l::MCMCAdaptor1D">
<polygon fill="white" stroke="black" points="324,-33.5 324,-61.5 449,-61.5 449,-33.5 324,-33.5"/>
<text text-anchor="start" x="332" y="-50.3" font-family="Helvetica,sans-Serif" font-size="9.00">mappel::MCMCAdaptor1D</text>
<text text-anchor="middle" x="386.5" y="-40.3" font-family="Helvetica,sans-Serif" font-size="9.00">::MCMCAdaptor1D</text>
</a>
</g>
</g>
<!-- Node2&#45;&gt;Node3 -->
<g id="edge2" class="edge"><title>Node2&#45;&gt;Node3</title>
<path fill="none" stroke="midnightblue" d="M298.315,-63.4017C306.803,-61.8536 315.408,-60.284 323.74,-58.7644"/>
<polygon fill="midnightblue" stroke="midnightblue" points="297.639,-59.9672 288.429,-65.2048 298.895,-66.8536 297.639,-59.9672"/>
</g>
<!-- Node4&#45;&gt;Node3 -->
<g id="edge4" class="edge"><title>Node4&#45;&gt;Node3</title>
<path fill="none" stroke="midnightblue" d="M298.315,-32.1467C306.803,-33.6414 315.408,-35.1568 323.74,-36.6241"/>
<polygon fill="midnightblue" stroke="midnightblue" points="298.884,-28.6931 288.429,-30.4057 297.67,-35.5871 298.884,-28.6931"/>
</g>
</g>
</svg>
