<?xml version="1.0" encoding="UTF-8" standalone="no"?>
<!DOCTYPE svg PUBLIC "-//W3C//DTD SVG 1.1//EN"
 "http://www.w3.org/Graphics/SVG/1.1/DTD/svg11.dtd">
<!-- Generated by graphviz version 2.38.0 (20140413.2041)
 -->
<!-- Title: mappel::Gauss1DModel::operator= Pages: 1 -->
<svg width="270pt" height="84pt"
 viewBox="0.00 0.00 270.00 84.00" xmlns="http://www.w3.org/2000/svg" xmlns:xlink="http://www.w3.org/1999/xlink">
<g id="graph0" class="graph" transform="scale(1 1) rotate(0) translate(4 80)">
<title>mappel::Gauss1DModel::operator=</title>
<polygon fill="white" stroke="none" points="-4,4 -4,-80 266,-80 266,4 -4,4"/>
<!-- Node1 -->
<g id="node1" class="node"><title>Node1</title>
<polygon fill="#bfbfbf" stroke="black" points="0,-23.5 0,-51.5 116,-51.5 116,-23.5 0,-23.5"/>
<text text-anchor="start" x="8" y="-40.3" font-family="Helvetica,sans-Serif" font-size="9.00">mappel::Gauss1DModel</text>
<text text-anchor="middle" x="58" y="-30.3" font-family="Helvetica,sans-Serif" font-size="9.00">::operator=</text>
</g>
<!-- Node2 -->
<g id="node2" class="node"><title>Node2</title>
<g id="a_node2"><a xlink:href="classmappel_1_1Gauss1DMAP.html#afec3cf3e6adcd8b73100e9dc121198b7" target="_top" xlink:title="mappel::Gauss1DMAP\l::operator=">
<polygon fill="white" stroke="black" points="152,-47.5 152,-75.5 262,-75.5 262,-47.5 152,-47.5"/>
<text text-anchor="start" x="160" y="-64.3" font-family="Helvetica,sans-Serif" font-size="9.00">mappel::Gauss1DMAP</text>
<text text-anchor="middle" x="207" y="-54.3" font-family="Helvetica,sans-Serif" font-size="9.00">::operator=</text>
</a>
</g>
</g>
<!-- Node1&#45;&gt;Node2 -->
<g id="edge1" class="edge"><title>Node1&#45;&gt;Node2</title>
<path fill="none" stroke="midnightblue" d="M126.157,-48.4644C134.661,-49.8528 143.278,-51.2597 151.55,-52.6102"/>
<polygon fill="midnightblue" stroke="midnightblue" points="126.688,-45.0049 116.255,-46.8477 125.56,-51.9134 126.688,-45.0049"/>
</g>
<!-- Node3 -->
<g id="node3" class="node"><title>Node3</title>
<g id="a_node3"><a xlink:href="classmappel_1_1Gauss1DMLE.html#abdf5e62ce76f3df65b1aab2033a06841" target="_top" xlink:title="mappel::Gauss1DMLE\l::operator=">
<polygon fill="white" stroke="black" points="152.5,-0.5 152.5,-28.5 261.5,-28.5 261.5,-0.5 152.5,-0.5"/>
<text text-anchor="start" x="160.5" y="-17.3" font-family="Helvetica,sans-Serif" font-size="9.00">mappel::Gauss1DMLE</text>
<text text-anchor="middle" x="207" y="-7.3" font-family="Helvetica,sans-Serif" font-size="9.00">::operator=</text>
</a>
</g>
</g>
<!-- Node1&#45;&gt;Node3 -->
<g id="edge2" class="edge"><title>Node1&#45;&gt;Node3</title>
<path fill="none" stroke="midnightblue" d="M126.296,-26.9707C134.919,-25.6216 143.656,-24.2545 152.029,-22.9444"/>
<polygon fill="midnightblue" stroke="midnightblue" points="125.594,-23.5379 116.255,-28.5417 126.676,-30.4538 125.594,-23.5379"/>
</g>
</g>
</svg>
