<?xml version="1.0" encoding="UTF-8" standalone="no"?>
<!DOCTYPE svg PUBLIC "-//W3C//DTD SVG 1.1//EN"
 "http://www.w3.org/Graphics/SVG/1.1/DTD/svg11.dtd">
<!-- Generated by graphviz version 2.38.0 (20140413.2041)
 -->
<!-- Title: mappel::Gauss2DsMLE Pages: 1 -->
<svg width="464pt" height="302pt"
 viewBox="0.00 0.00 464.00 302.00" xmlns="http://www.w3.org/2000/svg" xmlns:xlink="http://www.w3.org/1999/xlink">
<g id="graph0" class="graph" transform="scale(1 1) rotate(0) translate(4 298)">
<title>mappel::Gauss2DsMLE</title>
<polygon fill="white" stroke="none" points="-4,4 -4,-298 460,-298 460,4 -4,4"/>
<!-- Node1 -->
<g id="node1" class="node"><title>Node1</title>
<polygon fill="#bfbfbf" stroke="black" points="163,-0.5 163,-18.5 276,-18.5 276,-0.5 163,-0.5"/>
<text text-anchor="middle" x="219.5" y="-7.3" font-family="Helvetica,sans-Serif" font-size="9.00">mappel::Gauss2DsMLE</text>
</g>
<!-- Node2 -->
<g id="node2" class="node"><title>Node2</title>
<g id="a_node2"><a xlink:href="classmappel_1_1Gauss2DsModel.html" target="_top" xlink:title="A base class for 2D Gaussian PSF where the gaussian sigma is controlled by a single scalar parameter ...">
<polygon fill="white" stroke="black" points="159.5,-55.5 159.5,-73.5 279.5,-73.5 279.5,-55.5 159.5,-55.5"/>
<text text-anchor="middle" x="219.5" y="-62.3" font-family="Helvetica,sans-Serif" font-size="9.00">mappel::Gauss2DsModel</text>
</a>
</g>
</g>
<!-- Node2&#45;&gt;Node1 -->
<g id="edge1" class="edge"><title>Node2&#45;&gt;Node1</title>
<path fill="none" stroke="midnightblue" d="M219.5,-45.1746C219.5,-36.0945 219.5,-25.5949 219.5,-18.5496"/>
<polygon fill="midnightblue" stroke="midnightblue" points="216,-45.2187 219.5,-55.2188 223,-45.2188 216,-45.2187"/>
</g>
<!-- Node3 -->
<g id="node3" class="node"><title>Node3</title>
<g id="a_node3"><a xlink:href="classmappel_1_1PointEmitterModel.html" target="_top" xlink:title="A virtual Base type for point emitter localization models. ">
<polygon fill="white" stroke="black" points="44,-275.5 44,-293.5 171,-293.5 171,-275.5 44,-275.5"/>
<text text-anchor="middle" x="107.5" y="-282.3" font-family="Helvetica,sans-Serif" font-size="9.00">mappel::PointEmitterModel</text>
</a>
</g>
</g>
<!-- Node3&#45;&gt;Node2 -->
<g id="edge2" class="edge"><title>Node3&#45;&gt;Node2</title>
<path fill="none" stroke="midnightblue" d="M107.735,-265.179C109.032,-231.397 115.96,-158.333 150.5,-110 162.683,-92.9518 183.626,-80.8095 199.251,-73.5603"/>
<polygon fill="midnightblue" stroke="midnightblue" points="104.231,-265.299 107.475,-275.385 111.228,-265.478 104.231,-265.299"/>
</g>
<!-- Node7 -->
<g id="node7" class="node"><title>Node7</title>
<g id="a_node7"><a xlink:href="classmappel_1_1MCMCAdaptor1D.html" target="_top" xlink:title="mappel::MCMCAdaptor1D">
<polygon fill="white" stroke="black" points="162,-220.5 162,-238.5 287,-238.5 287,-220.5 162,-220.5"/>
<text text-anchor="middle" x="224.5" y="-227.3" font-family="Helvetica,sans-Serif" font-size="9.00">mappel::MCMCAdaptor1D</text>
</a>
</g>
</g>
<!-- Node3&#45;&gt;Node7 -->
<g id="edge7" class="edge"><title>Node3&#45;&gt;Node7</title>
<path fill="none" stroke="midnightblue" d="M134.469,-271.283C156.608,-261.254 187.34,-247.333 206.563,-238.625"/>
<polygon fill="midnightblue" stroke="midnightblue" points="132.935,-268.136 125.27,-275.45 135.823,-274.512 132.935,-268.136"/>
</g>
<!-- Node10 -->
<g id="node10" class="node"><title>Node10</title>
<g id="a_node10"><a xlink:href="classmappel_1_1MLEstimator.html" target="_top" xlink:title="A Mixin class to configure a for MLE estimation (null prior). ">
<polygon fill="white" stroke="black" points="0,-165.5 0,-183.5 103,-183.5 103,-165.5 0,-165.5"/>
<text text-anchor="middle" x="51.5" y="-172.3" font-family="Helvetica,sans-Serif" font-size="9.00">mappel::MLEstimator</text>
</a>
</g>
</g>
<!-- Node3&#45;&gt;Node10 -->
<g id="edge12" class="edge"><title>Node3&#45;&gt;Node10</title>
<path fill="none" stroke="midnightblue" d="M98.5325,-266.206C86.2934,-242.602 64.8427,-201.232 55.7579,-183.712"/>
<polygon fill="midnightblue" stroke="midnightblue" points="95.5805,-268.116 103.291,-275.382 101.795,-264.894 95.5805,-268.116"/>
</g>
<!-- Node4 -->
<g id="node4" class="node"><title>Node4</title>
<g id="a_node4"><a xlink:href="classmappel_1_1ImageFormat2DBase.html" target="_top" xlink:title="A virtual base class for 2D image localization objectives. ">
<polygon fill="white" stroke="black" points="307,-110.5 307,-128.5 446,-128.5 446,-110.5 307,-110.5"/>
<text text-anchor="middle" x="376.5" y="-117.3" font-family="Helvetica,sans-Serif" font-size="9.00">mappel::ImageFormat2DBase</text>
</a>
</g>
</g>
<!-- Node4&#45;&gt;Node2 -->
<g id="edge3" class="edge"><title>Node4&#45;&gt;Node2</title>
<path fill="none" stroke="midnightblue" d="M343.044,-107.206C313.082,-97.0914 269.887,-82.5095 243.312,-73.5383"/>
<polygon fill="midnightblue" stroke="midnightblue" points="342.061,-110.568 352.655,-110.45 344.3,-103.936 342.061,-110.568"/>
</g>
<!-- Node9 -->
<g id="node9" class="node"><title>Node9</title>
<g id="a_node9"><a xlink:href="classmappel_1_1PoissonNoise2DObjective.html" target="_top" xlink:title="A base class for 2D objectives with Poisson read noise. This objective function and its subclasses ar...">
<polygon fill="white" stroke="black" points="297,-55.5 297,-73.5 456,-73.5 456,-55.5 297,-55.5"/>
<text text-anchor="middle" x="376.5" y="-62.3" font-family="Helvetica,sans-Serif" font-size="9.00">mappel::PoissonNoise2DObjective</text>
</a>
</g>
</g>
<!-- Node4&#45;&gt;Node9 -->
<g id="edge10" class="edge"><title>Node4&#45;&gt;Node9</title>
<path fill="none" stroke="midnightblue" d="M376.5,-100.175C376.5,-91.0945 376.5,-80.5949 376.5,-73.5496"/>
<polygon fill="midnightblue" stroke="midnightblue" points="373,-100.219 376.5,-110.219 380,-100.219 373,-100.219"/>
</g>
<!-- Node5 -->
<g id="node5" class="node"><title>Node5</title>
<g id="a_node5"><a xlink:href="classmappel_1_1MCMCAdaptor2Ds.html" target="_top" xlink:title="mappel::MCMCAdaptor2Ds">
<polygon fill="white" stroke="black" points="160,-110.5 160,-128.5 289,-128.5 289,-110.5 160,-110.5"/>
<text text-anchor="middle" x="224.5" y="-117.3" font-family="Helvetica,sans-Serif" font-size="9.00">mappel::MCMCAdaptor2Ds</text>
</a>
</g>
</g>
<!-- Node5&#45;&gt;Node2 -->
<g id="edge4" class="edge"><title>Node5&#45;&gt;Node2</title>
<path fill="none" stroke="midnightblue" d="M222.771,-100.175C221.915,-91.0945 220.924,-80.5949 220.259,-73.5496"/>
<polygon fill="midnightblue" stroke="midnightblue" points="219.295,-100.592 223.719,-110.219 226.264,-99.9342 219.295,-100.592"/>
</g>
<!-- Node6 -->
<g id="node6" class="node"><title>Node6</title>
<g id="a_node6"><a xlink:href="classmappel_1_1MCMCAdaptor2D.html" target="_top" xlink:title="mappel::MCMCAdaptor2D">
<polygon fill="white" stroke="black" points="162,-165.5 162,-183.5 287,-183.5 287,-165.5 162,-165.5"/>
<text text-anchor="middle" x="224.5" y="-172.3" font-family="Helvetica,sans-Serif" font-size="9.00">mappel::MCMCAdaptor2D</text>
</a>
</g>
</g>
<!-- Node6&#45;&gt;Node5 -->
<g id="edge5" class="edge"><title>Node6&#45;&gt;Node5</title>
<path fill="none" stroke="midnightblue" d="M224.5,-155.175C224.5,-146.094 224.5,-135.595 224.5,-128.55"/>
<polygon fill="midnightblue" stroke="midnightblue" points="221,-155.219 224.5,-165.219 228,-155.219 221,-155.219"/>
</g>
<!-- Node7&#45;&gt;Node6 -->
<g id="edge6" class="edge"><title>Node7&#45;&gt;Node6</title>
<path fill="none" stroke="midnightblue" d="M224.5,-210.175C224.5,-201.094 224.5,-190.595 224.5,-183.55"/>
<polygon fill="midnightblue" stroke="midnightblue" points="221,-210.219 224.5,-220.219 228,-210.219 221,-210.219"/>
</g>
<!-- Node8 -->
<g id="node8" class="node"><title>Node8</title>
<g id="a_node8"><a xlink:href="classmappel_1_1MCMCAdaptorBase.html" target="_top" xlink:title="mappel::MCMCAdaptorBase">
<polygon fill="white" stroke="black" points="189.5,-275.5 189.5,-293.5 323.5,-293.5 323.5,-275.5 189.5,-275.5"/>
<text text-anchor="middle" x="256.5" y="-282.3" font-family="Helvetica,sans-Serif" font-size="9.00">mappel::MCMCAdaptorBase</text>
</a>
</g>
</g>
<!-- Node8&#45;&gt;Node7 -->
<g id="edge8" class="edge"><title>Node8&#45;&gt;Node7</title>
<path fill="none" stroke="midnightblue" d="M246.331,-266.658C240.656,-257.259 233.848,-245.982 229.36,-238.55"/>
<polygon fill="midnightblue" stroke="midnightblue" points="243.335,-268.467 251.5,-275.219 249.327,-264.849 243.335,-268.467"/>
</g>
<!-- Node9&#45;&gt;Node1 -->
<g id="edge9" class="edge"><title>Node9&#45;&gt;Node1</title>
<path fill="none" stroke="midnightblue" d="M343.044,-52.2061C313.082,-42.0914 269.887,-27.5095 243.312,-18.5383"/>
<polygon fill="midnightblue" stroke="midnightblue" points="342.061,-55.5681 352.655,-55.4504 344.3,-48.9358 342.061,-55.5681"/>
</g>
<!-- Node10&#45;&gt;Node1 -->
<g id="edge11" class="edge"><title>Node10&#45;&gt;Node1</title>
<path fill="none" stroke="midnightblue" d="M62.9087,-156.856C80.0525,-132.606 114.325,-86.9725 150.5,-55 167.375,-40.085 189.704,-26.6298 204.326,-18.5138"/>
<polygon fill="midnightblue" stroke="midnightblue" points="59.8694,-155.096 57.0226,-165.301 65.6121,-159.099 59.8694,-155.096"/>
</g>
</g>
</svg>
