<?xml version="1.0" encoding="UTF-8" standalone="no"?>
<!DOCTYPE svg PUBLIC "-//W3C//DTD SVG 1.1//EN"
 "http://www.w3.org/Graphics/SVG/1.1/DTD/svg11.dtd">
<!-- Generated by graphviz version 2.38.0 (20140413.2041)
 -->
<!-- Title: mappel::Gauss1DModel Pages: 1 -->
<svg width="411pt" height="192pt"
 viewBox="0.00 0.00 410.50 192.00" xmlns="http://www.w3.org/2000/svg" xmlns:xlink="http://www.w3.org/1999/xlink">
<g id="graph0" class="graph" transform="scale(1 1) rotate(0) translate(4 188)">
<title>mappel::Gauss1DModel</title>
<polygon fill="white" stroke="none" points="-4,4 -4,-188 406.5,-188 406.5,4 -4,4"/>
<!-- Node1 -->
<g id="node1" class="node"><title>Node1</title>
<polygon fill="#bfbfbf" stroke="black" points="125,-55.5 125,-73.5 241,-73.5 241,-55.5 125,-55.5"/>
<text text-anchor="middle" x="183" y="-62.3" font-family="Helvetica,sans-Serif" font-size="9.00">mappel::Gauss1DModel</text>
</g>
<!-- Node6 -->
<g id="node6" class="node"><title>Node6</title>
<g id="a_node6"><a xlink:href="classmappel_1_1Gauss1DMAP.html" target="_top" xlink:title="A 1D Gaussian with fixed PSF under an Poisson Read Noise assumption and MAP Objective. ">
<polygon fill="white" stroke="black" points="0,-0.5 0,-18.5 110,-18.5 110,-0.5 0,-0.5"/>
<text text-anchor="middle" x="55" y="-7.3" font-family="Helvetica,sans-Serif" font-size="9.00">mappel::Gauss1DMAP</text>
</a>
</g>
</g>
<!-- Node1&#45;&gt;Node6 -->
<g id="edge6" class="edge"><title>Node1&#45;&gt;Node6</title>
<path fill="none" stroke="midnightblue" d="M154.145,-51.5523C129.879,-41.5046 95.8423,-27.4113 74.6234,-18.6253"/>
<polygon fill="midnightblue" stroke="midnightblue" points="152.981,-54.8585 163.56,-55.4504 155.659,-48.391 152.981,-54.8585"/>
</g>
<!-- Node7 -->
<g id="node7" class="node"><title>Node7</title>
<g id="a_node7"><a xlink:href="classmappel_1_1Gauss1DMLE.html" target="_top" xlink:title="A 1D Gaussian with fixed PSF under an Poisson noise assumption and maximum&#45;likelihood objective...">
<polygon fill="white" stroke="black" points="128.5,-0.5 128.5,-18.5 237.5,-18.5 237.5,-0.5 128.5,-0.5"/>
<text text-anchor="middle" x="183" y="-7.3" font-family="Helvetica,sans-Serif" font-size="9.00">mappel::Gauss1DMLE</text>
</a>
</g>
</g>
<!-- Node1&#45;&gt;Node7 -->
<g id="edge7" class="edge"><title>Node1&#45;&gt;Node7</title>
<path fill="none" stroke="midnightblue" d="M183,-45.1746C183,-36.0945 183,-25.5949 183,-18.5496"/>
<polygon fill="midnightblue" stroke="midnightblue" points="179.5,-45.2187 183,-55.2188 186.5,-45.2188 179.5,-45.2187"/>
</g>
<!-- Node8 -->
<g id="node8" class="node"><title>Node8</title>
<g id="a_node8"><a xlink:href="classmappel_1_1Gauss2DsxyMAP.html" target="_top" xlink:title="A 1D Gaussian with fixed PSF under an Poisson Read Noise assumption and MAP Objective. ">
<polygon fill="white" stroke="black" points="255.5,-0.5 255.5,-18.5 378.5,-18.5 378.5,-0.5 255.5,-0.5"/>
<text text-anchor="middle" x="317" y="-7.3" font-family="Helvetica,sans-Serif" font-size="9.00">mappel::Gauss2DsxyMAP</text>
</a>
</g>
</g>
<!-- Node1&#45;&gt;Node8 -->
<g id="edge8" class="edge"><title>Node1&#45;&gt;Node8</title>
<path fill="none" stroke="midnightblue" d="M212.869,-51.686C238.294,-41.63 274.144,-27.4503 296.457,-18.6253"/>
<polygon fill="midnightblue" stroke="midnightblue" points="211.363,-48.5177 203.352,-55.4504 213.938,-55.0271 211.363,-48.5177"/>
</g>
<!-- Node2 -->
<g id="node2" class="node"><title>Node2</title>
<g id="a_node2"><a xlink:href="classmappel_1_1PointEmitterModel.html" target="_top" xlink:title="A virtual Base type for point emitter localization models. ">
<polygon fill="white" stroke="black" points="28.5,-165.5 28.5,-183.5 155.5,-183.5 155.5,-165.5 28.5,-165.5"/>
<text text-anchor="middle" x="92" y="-172.3" font-family="Helvetica,sans-Serif" font-size="9.00">mappel::PointEmitterModel</text>
</a>
</g>
</g>
<!-- Node2&#45;&gt;Node1 -->
<g id="edge1" class="edge"><title>Node2&#45;&gt;Node1</title>
<path fill="none" stroke="midnightblue" d="M93.9513,-155.153C96.1844,-141.535 100.937,-123.129 111,-110 124.141,-92.8556 145.931,-80.7276 162.104,-73.508"/>
<polygon fill="midnightblue" stroke="midnightblue" points="90.4581,-154.87 92.6068,-165.244 97.3968,-155.794 90.4581,-154.87"/>
</g>
<!-- Node4 -->
<g id="node4" class="node"><title>Node4</title>
<g id="a_node4"><a xlink:href="classmappel_1_1MCMCAdaptor1D.html" target="_top" xlink:title="mappel::MCMCAdaptor1D">
<polygon fill="white" stroke="black" points="120.5,-110.5 120.5,-128.5 245.5,-128.5 245.5,-110.5 120.5,-110.5"/>
<text text-anchor="middle" x="183" y="-117.3" font-family="Helvetica,sans-Serif" font-size="9.00">mappel::MCMCAdaptor1D</text>
</a>
</g>
</g>
<!-- Node2&#45;&gt;Node4 -->
<g id="edge4" class="edge"><title>Node2&#45;&gt;Node4</title>
<path fill="none" stroke="midnightblue" d="M114.617,-160.328C131.687,-150.386 154.567,-137.06 169.049,-128.625"/>
<polygon fill="midnightblue" stroke="midnightblue" points="112.701,-157.393 105.821,-165.45 116.224,-163.442 112.701,-157.393"/>
</g>
<!-- Node3 -->
<g id="node3" class="node"><title>Node3</title>
<g id="a_node3"><a xlink:href="classmappel_1_1ImageFormat1DBase.html" target="_top" xlink:title="A virtual base class for 2D image localization objectives. ">
<polygon fill="white" stroke="black" points="263.5,-110.5 263.5,-128.5 402.5,-128.5 402.5,-110.5 263.5,-110.5"/>
<text text-anchor="middle" x="333" y="-117.3" font-family="Helvetica,sans-Serif" font-size="9.00">mappel::ImageFormat1DBase</text>
</a>
</g>
</g>
<!-- Node3&#45;&gt;Node1 -->
<g id="edge2" class="edge"><title>Node3&#45;&gt;Node1</title>
<path fill="none" stroke="midnightblue" d="M300.691,-107.084C272.172,-97.0074 231.304,-82.5675 205.996,-73.6253"/>
<polygon fill="midnightblue" stroke="midnightblue" points="299.623,-110.419 310.218,-110.45 301.956,-103.819 299.623,-110.419"/>
</g>
<!-- Node4&#45;&gt;Node1 -->
<g id="edge3" class="edge"><title>Node4&#45;&gt;Node1</title>
<path fill="none" stroke="midnightblue" d="M183,-100.175C183,-91.0945 183,-80.5949 183,-73.5496"/>
<polygon fill="midnightblue" stroke="midnightblue" points="179.5,-100.219 183,-110.219 186.5,-100.219 179.5,-100.219"/>
</g>
<!-- Node5 -->
<g id="node5" class="node"><title>Node5</title>
<g id="a_node5"><a xlink:href="classmappel_1_1MCMCAdaptorBase.html" target="_top" xlink:title="mappel::MCMCAdaptorBase">
<polygon fill="white" stroke="black" points="174,-165.5 174,-183.5 308,-183.5 308,-165.5 174,-165.5"/>
<text text-anchor="middle" x="241" y="-172.3" font-family="Helvetica,sans-Serif" font-size="9.00">mappel::MCMCAdaptorBase</text>
</a>
</g>
</g>
<!-- Node5&#45;&gt;Node4 -->
<g id="edge5" class="edge"><title>Node5&#45;&gt;Node4</title>
<path fill="none" stroke="midnightblue" d="M224.472,-158.397C213.842,-148.683 200.451,-136.447 191.809,-128.55"/>
<polygon fill="midnightblue" stroke="midnightblue" points="222.194,-161.057 231.938,-165.219 226.916,-155.889 222.194,-161.057"/>
</g>
</g>
</svg>
