<?xml version="1.0" encoding="UTF-8" standalone="no"?>
<!DOCTYPE svg PUBLIC "-//W3C//DTD SVG 1.1//EN"
 "http://www.w3.org/Graphics/SVG/1.1/DTD/svg11.dtd">
<!-- Generated by graphviz version 2.38.0 (20140413.2041)
 -->
<!-- Title: mappel::Estimator::compute_estimate_debug Pages: 1 -->
<svg width="355pt" height="121pt"
 viewBox="0.00 0.00 355.00 121.00" xmlns="http://www.w3.org/2000/svg" xmlns:xlink="http://www.w3.org/1999/xlink">
<g id="graph0" class="graph" transform="scale(1 1) rotate(0) translate(4 117)">
<title>mappel::Estimator::compute_estimate_debug</title>
<polygon fill="white" stroke="none" points="-4,4 -4,-117 351,-117 351,4 -4,4"/>
<!-- Node1 -->
<g id="node1" class="node"><title>Node1</title>
<polygon fill="#bfbfbf" stroke="black" points="0,-47.5 0,-75.5 123,-75.5 123,-47.5 0,-47.5"/>
<text text-anchor="start" x="8" y="-64.3" font-family="Helvetica,sans-Serif" font-size="9.00">mappel::Estimator::</text>
<text text-anchor="middle" x="61.5" y="-54.3" font-family="Helvetica,sans-Serif" font-size="9.00">compute_estimate_debug</text>
</g>
<!-- Node2 -->
<g id="node2" class="node"><title>Node2</title>
<g id="a_node2"><a xlink:href="classmappel_1_1CGaussMLE.html#af18f123ff581a8ef7332c38d66c6bd42" target="_top" xlink:title="mappel::CGaussMLE::name">
<polygon fill="white" stroke="black" points="187.5,-94.5 187.5,-112.5 318.5,-112.5 318.5,-94.5 187.5,-94.5"/>
<text text-anchor="middle" x="253" y="-101.3" font-family="Helvetica,sans-Serif" font-size="9.00">mappel::CGaussMLE::name</text>
</a>
</g>
</g>
<!-- Node1&#45;&gt;Node2 -->
<g id="edge1" class="edge"><title>Node1&#45;&gt;Node2</title>
<path fill="none" stroke="midnightblue" d="M126.548,-77.9296C137.357,-80.5587 148.481,-83.1757 159,-85.5 173.131,-88.6225 188.536,-91.7252 202.67,-94.4528"/>
<polygon fill="midnightblue" stroke="midnightblue" points="127.282,-74.5059 116.736,-75.5198 125.612,-81.3039 127.282,-74.5059"/>
</g>
<!-- Node3 -->
<g id="node3" class="node"><title>Node3</title>
<g id="a_node3"><a xlink:href="classmappel_1_1SimulatedAnnealingMaximizer.html#a76e0c1b5ca19fc31d10dded7b992e0cb" target="_top" xlink:title="mappel::SimulatedAnnealing\lMaximizer::SimulatedAnnealingMaximizer">
<polygon fill="white" stroke="black" points="159,-47.5 159,-75.5 347,-75.5 347,-47.5 159,-47.5"/>
<text text-anchor="start" x="167" y="-64.3" font-family="Helvetica,sans-Serif" font-size="9.00">mappel::SimulatedAnnealing</text>
<text text-anchor="middle" x="253" y="-54.3" font-family="Helvetica,sans-Serif" font-size="9.00">Maximizer::SimulatedAnnealingMaximizer</text>
</a>
</g>
</g>
<!-- Node1&#45;&gt;Node3 -->
<g id="edge2" class="edge"><title>Node1&#45;&gt;Node3</title>
<path fill="none" stroke="midnightblue" d="M133.268,-61.5C141.612,-61.5 150.222,-61.5 158.814,-61.5"/>
<polygon fill="midnightblue" stroke="midnightblue" points="133.241,-58.0001 123.241,-61.5 133.241,-65.0001 133.241,-58.0001"/>
</g>
<!-- Node4 -->
<g id="node4" class="node"><title>Node4</title>
<g id="a_node4"><a xlink:href="classmappel_1_1Estimator.html#a629823fa91d4b461b2b1f607d588e558" target="_top" xlink:title="mappel::Estimator::\l~Estimator">
<polygon fill="white" stroke="black" points="205.5,-0.5 205.5,-28.5 300.5,-28.5 300.5,-0.5 205.5,-0.5"/>
<text text-anchor="start" x="213.5" y="-17.3" font-family="Helvetica,sans-Serif" font-size="9.00">mappel::Estimator::</text>
<text text-anchor="middle" x="253" y="-7.3" font-family="Helvetica,sans-Serif" font-size="9.00">~Estimator</text>
</a>
</g>
</g>
<!-- Node1&#45;&gt;Node4 -->
<g id="edge3" class="edge"><title>Node1&#45;&gt;Node4</title>
<path fill="none" stroke="midnightblue" d="M128.955,-45.0178C154.139,-38.7716 182.26,-31.7971 205.254,-26.0939"/>
<polygon fill="midnightblue" stroke="midnightblue" points="127.963,-41.6577 119.1,-47.4621 129.648,-48.4518 127.963,-41.6577"/>
</g>
</g>
</svg>
