<?xml version="1.0" encoding="UTF-8" standalone="no"?>
<!DOCTYPE svg PUBLIC "-//W3C//DTD SVG 1.1//EN"
 "http://www.w3.org/Graphics/SVG/1.1/DTD/svg11.dtd">
<!-- Generated by graphviz version 2.38.0 (20140413.2041)
 -->
<!-- Title: mappel::IterativeMaximizer::MaximizerData::save_stencil Pages: 1 -->
<svg width="507pt" height="131pt"
 viewBox="0.00 0.00 507.00 131.00" xmlns="http://www.w3.org/2000/svg" xmlns:xlink="http://www.w3.org/1999/xlink">
<g id="graph0" class="graph" transform="scale(1 1) rotate(0) translate(4 127)">
<title>mappel::IterativeMaximizer::MaximizerData::save_stencil</title>
<polygon fill="white" stroke="none" points="-4,4 -4,-127 503,-127 503,4 -4,4"/>
<!-- Node1 -->
<g id="node1" class="node"><title>Node1</title>
<polygon fill="#bfbfbf" stroke="black" points="0,-47.5 0,-75.5 138,-75.5 138,-47.5 0,-47.5"/>
<text text-anchor="start" x="8" y="-64.3" font-family="Helvetica,sans-Serif" font-size="9.00">mappel::IterativeMaximizer</text>
<text text-anchor="middle" x="69" y="-54.3" font-family="Helvetica,sans-Serif" font-size="9.00">::MaximizerData::save_stencil</text>
</g>
<!-- Node2 -->
<g id="node2" class="node"><title>Node2</title>
<g id="a_node2"><a xlink:href="classmappel_1_1IterativeMaximizer.html#ac033d2b23a6a861e6d7adbe35f17624e" target="_top" xlink:title="mappel::IterativeMaximizer\l::backtrack">
<polygon fill="white" stroke="black" points="174,-47.5 174,-75.5 300,-75.5 300,-47.5 174,-47.5"/>
<text text-anchor="start" x="182" y="-64.3" font-family="Helvetica,sans-Serif" font-size="9.00">mappel::IterativeMaximizer</text>
<text text-anchor="middle" x="237" y="-54.3" font-family="Helvetica,sans-Serif" font-size="9.00">::backtrack</text>
</a>
</g>
</g>
<!-- Node1&#45;&gt;Node2 -->
<g id="edge1" class="edge"><title>Node1&#45;&gt;Node2</title>
<path fill="none" stroke="midnightblue" d="M148.699,-61.5C157.122,-61.5 165.605,-61.5 173.799,-61.5"/>
<polygon fill="midnightblue" stroke="midnightblue" points="148.477,-58.0001 138.477,-61.5 148.477,-65.0001 148.477,-58.0001"/>
</g>
<!-- Node3 -->
<g id="node3" class="node"><title>Node3</title>
<g id="a_node3"><a xlink:href="classmappel_1_1NewtonDiagonalMaximizer.html#ac445064041b5c7f3c147c08a0065cd68" target="_top" xlink:title="mappel::NewtonDiagonalMaximizer\l::maximize">
<polygon fill="white" stroke="black" points="336,-94.5 336,-122.5 499,-122.5 499,-94.5 336,-94.5"/>
<text text-anchor="start" x="344" y="-111.3" font-family="Helvetica,sans-Serif" font-size="9.00">mappel::NewtonDiagonalMaximizer</text>
<text text-anchor="middle" x="417.5" y="-101.3" font-family="Helvetica,sans-Serif" font-size="9.00">::maximize</text>
</a>
</g>
</g>
<!-- Node2&#45;&gt;Node3 -->
<g id="edge2" class="edge"><title>Node2&#45;&gt;Node3</title>
<path fill="none" stroke="midnightblue" d="M301.328,-78.1747C321.597,-83.5115 343.819,-89.3626 363.29,-94.4894"/>
<polygon fill="midnightblue" stroke="midnightblue" points="302.118,-74.7633 291.556,-75.6015 300.335,-81.5325 302.118,-74.7633"/>
</g>
<!-- Node4 -->
<g id="node4" class="node"><title>Node4</title>
<g id="a_node4"><a xlink:href="classmappel_1_1NewtonMaximizer.html#aca7e3071f17ef6f381878eb6151c86d7" target="_top" xlink:title="mappel::NewtonMaximizer\l::maximize">
<polygon fill="white" stroke="black" points="355,-47.5 355,-75.5 480,-75.5 480,-47.5 355,-47.5"/>
<text text-anchor="start" x="363" y="-64.3" font-family="Helvetica,sans-Serif" font-size="9.00">mappel::NewtonMaximizer</text>
<text text-anchor="middle" x="417.5" y="-54.3" font-family="Helvetica,sans-Serif" font-size="9.00">::maximize</text>
</a>
</g>
</g>
<!-- Node2&#45;&gt;Node4 -->
<g id="edge3" class="edge"><title>Node2&#45;&gt;Node4</title>
<path fill="none" stroke="midnightblue" d="M310.286,-61.5C325.062,-61.5 340.481,-61.5 354.844,-61.5"/>
<polygon fill="midnightblue" stroke="midnightblue" points="310.18,-58.0001 300.18,-61.5 310.18,-65.0001 310.18,-58.0001"/>
</g>
<!-- Node5 -->
<g id="node5" class="node"><title>Node5</title>
<g id="a_node5"><a xlink:href="classmappel_1_1QuasiNewtonMaximizer.html#ab4d32d8ba90d4355262a228753619b9f" target="_top" xlink:title="mappel::QuasiNewtonMaximizer\l::maximize">
<polygon fill="white" stroke="black" points="343,-0.5 343,-28.5 492,-28.5 492,-0.5 343,-0.5"/>
<text text-anchor="start" x="351" y="-17.3" font-family="Helvetica,sans-Serif" font-size="9.00">mappel::QuasiNewtonMaximizer</text>
<text text-anchor="middle" x="417.5" y="-7.3" font-family="Helvetica,sans-Serif" font-size="9.00">::maximize</text>
</a>
</g>
</g>
<!-- Node2&#45;&gt;Node5 -->
<g id="edge4" class="edge"><title>Node2&#45;&gt;Node5</title>
<path fill="none" stroke="midnightblue" d="M301.328,-44.8253C321.597,-39.4885 343.819,-33.6374 363.29,-28.5106"/>
<polygon fill="midnightblue" stroke="midnightblue" points="300.335,-41.4675 291.556,-47.3985 302.118,-48.2367 300.335,-41.4675"/>
</g>
</g>
</svg>
