<?xml version="1.0" encoding="UTF-8" standalone="no"?>
<!DOCTYPE svg PUBLIC "-//W3C//DTD SVG 1.1//EN"
 "http://www.w3.org/Graphics/SVG/1.1/DTD/svg11.dtd">
<!-- Generated by graphviz version 2.38.0 (20140413.2041)
 -->
<!-- Title: mappel::Gauss2DsModel::initial_theta_estimate Pages: 1 -->
<svg width="1096pt" height="298pt"
 viewBox="0.00 0.00 1096.00 297.50" xmlns="http://www.w3.org/2000/svg" xmlns:xlink="http://www.w3.org/1999/xlink">
<g id="graph0" class="graph" transform="scale(1 1) rotate(0) translate(4 293.5)">
<title>mappel::Gauss2DsModel::initial_theta_estimate</title>
<polygon fill="white" stroke="none" points="-4,4 -4,-293.5 1092,-293.5 1092,4 -4,4"/>
<!-- Node1 -->
<g id="node1" class="node"><title>Node1</title>
<polygon fill="#bfbfbf" stroke="black" points="0,-123 0,-151 120,-151 120,-123 0,-123"/>
<text text-anchor="start" x="8" y="-139.8" font-family="Helvetica,sans-Serif" font-size="9.00">mappel::Gauss2DsModel</text>
<text text-anchor="middle" x="60" y="-129.8" font-family="Helvetica,sans-Serif" font-size="9.00">::initial_theta_estimate</text>
</g>
<!-- Node2 -->
<g id="node2" class="node"><title>Node2</title>
<g id="a_node2"><a xlink:href="classmappel_1_1Gauss2DsModel_1_1Stencil.html#a2324f8759376c5ead66ab1fb64e72e55" target="_top" xlink:title="mappel::Gauss2DsModel\l::Stencil::bg">
<polygon fill="white" stroke="black" points="170.5,-231 170.5,-259 290.5,-259 290.5,-231 170.5,-231"/>
<text text-anchor="start" x="178.5" y="-247.8" font-family="Helvetica,sans-Serif" font-size="9.00">mappel::Gauss2DsModel</text>
<text text-anchor="middle" x="230.5" y="-237.8" font-family="Helvetica,sans-Serif" font-size="9.00">::Stencil::bg</text>
</a>
</g>
</g>
<!-- Node1&#45;&gt;Node2 -->
<g id="edge1" class="edge"><title>Node1&#45;&gt;Node2</title>
<path fill="none" stroke="midnightblue" d="M73.4708,-151.159C90.4462,-169.636 122.562,-201.862 156,-221 159.839,-223.197 163.908,-225.226 168.083,-227.095"/>
<polygon fill="midnightblue" stroke="midnightblue" points="166.769,-230.338 177.347,-230.929 169.446,-223.871 166.769,-230.338"/>
</g>
<!-- Node3 -->
<g id="node3" class="node"><title>Node3</title>
<g id="a_node3"><a xlink:href="namespacemappel_1_1methods.html#a7f4a5561497c243edaa6f55fddf0ec4e" target="_top" xlink:title="mappel::methods::estimate_max">
<polygon fill="white" stroke="black" points="156,-194 156,-212 305,-212 305,-194 156,-194"/>
<text text-anchor="middle" x="230.5" y="-200.8" font-family="Helvetica,sans-Serif" font-size="9.00">mappel::methods::estimate_max</text>
</a>
</g>
</g>
<!-- Node1&#45;&gt;Node3 -->
<g id="edge2" class="edge"><title>Node1&#45;&gt;Node3</title>
<path fill="none" stroke="midnightblue" d="M85.7733,-151.025C104.586,-161.234 131.338,-174.824 156,-184 163.129,-186.652 170.779,-189.074 178.353,-191.235"/>
<polygon fill="midnightblue" stroke="midnightblue" points="177.647,-194.671 188.215,-193.923 179.487,-187.917 177.647,-194.671"/>
</g>
<!-- Node6 -->
<g id="node6" class="node"><title>Node6</title>
<g id="a_node6"><a xlink:href="classmappel_1_1Gauss2DsModel_1_1Stencil.html#ac3c9d93e5830a73edf06e203c6beabb9" target="_top" xlink:title="mappel::Gauss2DsModel\l::Stencil::I">
<polygon fill="white" stroke="black" points="170.5,-147 170.5,-175 290.5,-175 290.5,-147 170.5,-147"/>
<text text-anchor="start" x="178.5" y="-163.8" font-family="Helvetica,sans-Serif" font-size="9.00">mappel::Gauss2DsModel</text>
<text text-anchor="middle" x="230.5" y="-153.8" font-family="Helvetica,sans-Serif" font-size="9.00">::Stencil::I</text>
</a>
</g>
</g>
<!-- Node1&#45;&gt;Node6 -->
<g id="edge5" class="edge"><title>Node1&#45;&gt;Node6</title>
<path fill="none" stroke="midnightblue" d="M120.407,-145.462C133.318,-147.3 147.084,-149.261 160.335,-151.149"/>
<polygon fill="midnightblue" stroke="midnightblue" points="159.952,-154.629 170.346,-152.574 160.939,-147.699 159.952,-154.629"/>
</g>
<!-- Node7 -->
<g id="node7" class="node"><title>Node7</title>
<g id="a_node7"><a xlink:href="classmappel_1_1Gauss2DsModel.html#a797aeb7c17a24a7df89597789a0eacb4" target="_top" xlink:title="Make a new Model::Stencil object at theta. ">
<polygon fill="white" stroke="black" points="170.5,-100 170.5,-128 290.5,-128 290.5,-100 170.5,-100"/>
<text text-anchor="start" x="178.5" y="-116.8" font-family="Helvetica,sans-Serif" font-size="9.00">mappel::Gauss2DsModel</text>
<text text-anchor="middle" x="230.5" y="-106.8" font-family="Helvetica,sans-Serif" font-size="9.00">::make_stencil</text>
</a>
</g>
</g>
<!-- Node1&#45;&gt;Node7 -->
<g id="edge6" class="edge"><title>Node1&#45;&gt;Node7</title>
<path fill="none" stroke="midnightblue" d="M120.407,-128.891C133.318,-127.129 147.084,-125.25 160.335,-123.441"/>
<polygon fill="midnightblue" stroke="midnightblue" points="160.911,-126.895 170.346,-122.074 159.964,-119.959 160.911,-126.895"/>
</g>
<!-- Node14 -->
<g id="node14" class="node"><title>Node14</title>
<g id="a_node14"><a xlink:href="classmappel_1_1Gauss2DsModel_1_1Stencil.html#a98f618270de5ff947a1ed9800dffd977" target="_top" xlink:title="mappel::Gauss2DsModel\l::Stencil::sigma_ratio">
<polygon fill="white" stroke="black" points="851,-29 851,-57 971,-57 971,-29 851,-29"/>
<text text-anchor="start" x="859" y="-45.8" font-family="Helvetica,sans-Serif" font-size="9.00">mappel::Gauss2DsModel</text>
<text text-anchor="middle" x="911" y="-35.8" font-family="Helvetica,sans-Serif" font-size="9.00">::Stencil::sigma_ratio</text>
</a>
</g>
</g>
<!-- Node1&#45;&gt;Node14 -->
<g id="edge27" class="edge"><title>Node1&#45;&gt;Node14</title>
<path fill="none" stroke="midnightblue" d="M78.1806,-122.741C96.4627,-108.19 126.731,-85.8356 156,-72 259.571,-23.0414 288.94,-0 403.5,-0 403.5,-0 403.5,-0 574,-0 681,-0 708.4,-1.74268 814,-19 825.921,-20.9482 838.536,-23.6367 850.564,-26.5119"/>
<polygon fill="midnightblue" stroke="midnightblue" points="849.954,-29.9663 860.501,-28.9588 851.628,-23.1693 849.954,-29.9663"/>
</g>
<!-- Node24 -->
<g id="node24" class="node"><title>Node24</title>
<g id="a_node24"><a xlink:href="classmappel_1_1PointEmitterModel.html#ad50dfc29b6e7167fb4caf8683353079d" target="_top" xlink:title="mappel::PointEmitterModel\l::theta_in_bounds">
<polygon fill="white" stroke="black" points="341,-68 341,-96 468,-96 468,-68 341,-68"/>
<text text-anchor="start" x="349" y="-84.8" font-family="Helvetica,sans-Serif" font-size="9.00">mappel::PointEmitterModel</text>
<text text-anchor="middle" x="404.5" y="-74.8" font-family="Helvetica,sans-Serif" font-size="9.00">::theta_in_bounds</text>
</a>
</g>
</g>
<!-- Node1&#45;&gt;Node24 -->
<g id="edge28" class="edge"><title>Node1&#45;&gt;Node24</title>
<path fill="none" stroke="midnightblue" d="M82.6047,-122.954C101.214,-111.7 129.228,-96.7183 156,-90 213.541,-75.5603 280.962,-74.3632 330.893,-76.3277"/>
<polygon fill="midnightblue" stroke="midnightblue" points="330.809,-79.8274 340.954,-76.7755 331.12,-72.8343 330.809,-79.8274"/>
</g>
<!-- Node4 -->
<g id="node4" class="node"><title>Node4</title>
<g id="a_node4"><a xlink:href="namespacemappel_1_1methods.html#a0f47a66f366b6e5841f1224e839ed828" target="_top" xlink:title="mappel::methods::make\l_estimator">
<polygon fill="white" stroke="black" points="347.5,-189 347.5,-217 461.5,-217 461.5,-189 347.5,-189"/>
<text text-anchor="start" x="355.5" y="-205.8" font-family="Helvetica,sans-Serif" font-size="9.00">mappel::methods::make</text>
<text text-anchor="middle" x="404.5" y="-195.8" font-family="Helvetica,sans-Serif" font-size="9.00">_estimator</text>
</a>
</g>
</g>
<!-- Node3&#45;&gt;Node4 -->
<g id="edge3" class="edge"><title>Node3&#45;&gt;Node4</title>
<path fill="none" stroke="midnightblue" d="M305.442,-203C315.958,-203 326.72,-203 337.081,-203"/>
<polygon fill="midnightblue" stroke="midnightblue" points="337.285,-206.5 347.285,-203 337.285,-199.5 337.285,-206.5"/>
</g>
<!-- Node5 -->
<g id="node5" class="node"><title>Node5</title>
<g id="a_node5"><a xlink:href="namespacemappel.html#a610296a93ba507763bc770d39049f323" target="_top" xlink:title="mappel::istarts_with">
<polygon fill="white" stroke="black" points="524,-194 524,-212 622,-212 622,-194 524,-194"/>
<text text-anchor="middle" x="573" y="-200.8" font-family="Helvetica,sans-Serif" font-size="9.00">mappel::istarts_with</text>
</a>
</g>
</g>
<!-- Node4&#45;&gt;Node5 -->
<g id="edge4" class="edge"><title>Node4&#45;&gt;Node5</title>
<path fill="none" stroke="midnightblue" d="M461.869,-203C478.51,-203 496.757,-203 513.527,-203"/>
<polygon fill="midnightblue" stroke="midnightblue" points="513.751,-206.5 523.75,-203 513.75,-199.5 513.751,-206.5"/>
</g>
<!-- Node8 -->
<g id="node8" class="node"><title>Node8</title>
<g id="a_node8"><a xlink:href="classmappel_1_1Gauss2DsModel_1_1Stencil.html#a5da67675e94a28486035ff4168e56232" target="_top" xlink:title="mappel::Gauss2DsModel\l::Stencil::Stencil">
<polygon fill="white" stroke="black" points="344.5,-124 344.5,-152 464.5,-152 464.5,-124 344.5,-124"/>
<text text-anchor="start" x="352.5" y="-140.8" font-family="Helvetica,sans-Serif" font-size="9.00">mappel::Gauss2DsModel</text>
<text text-anchor="middle" x="404.5" y="-130.8" font-family="Helvetica,sans-Serif" font-size="9.00">::Stencil::Stencil</text>
</a>
</g>
</g>
<!-- Node7&#45;&gt;Node8 -->
<g id="edge7" class="edge"><title>Node7&#45;&gt;Node8</title>
<path fill="none" stroke="midnightblue" d="M290.693,-122.259C304.825,-124.231 320.032,-126.353 334.561,-128.381"/>
<polygon fill="midnightblue" stroke="midnightblue" points="334.102,-131.85 344.49,-129.766 335.069,-124.918 334.102,-131.85"/>
</g>
<!-- Node7&#45;&gt;Node24 -->
<g id="edge25" class="edge"><title>Node7&#45;&gt;Node24</title>
<path fill="none" stroke="midnightblue" d="M290.693,-102.987C303.624,-100.581 317.455,-98.0084 330.843,-95.5176"/>
<polygon fill="midnightblue" stroke="midnightblue" points="331.782,-98.9031 340.973,-93.633 330.501,-92.0212 331.782,-98.9031"/>
</g>
<!-- Node9 -->
<g id="node9" class="node"><title>Node9</title>
<g id="a_node9"><a xlink:href="classmappel_1_1Gauss2DsModel_1_1Stencil.html#ab11c806f8335bbafeb3db7476526680d" target="_top" xlink:title="mappel::Gauss2DsModel\l::Stencil::compute_derivatives">
<polygon fill="white" stroke="black" points="504,-136 504,-164 642,-164 642,-136 504,-136"/>
<text text-anchor="start" x="512" y="-152.8" font-family="Helvetica,sans-Serif" font-size="9.00">mappel::Gauss2DsModel</text>
<text text-anchor="middle" x="573" y="-142.8" font-family="Helvetica,sans-Serif" font-size="9.00">::Stencil::compute_derivatives</text>
</a>
</g>
</g>
<!-- Node8&#45;&gt;Node9 -->
<g id="edge8" class="edge"><title>Node8&#45;&gt;Node9</title>
<path fill="none" stroke="midnightblue" d="M464.67,-142.265C474.105,-142.945 483.991,-143.657 493.784,-144.363"/>
<polygon fill="midnightblue" stroke="midnightblue" points="493.707,-147.866 503.933,-145.094 494.21,-140.884 493.707,-147.866"/>
</g>
<!-- Node10 -->
<g id="node10" class="node"><title>Node10</title>
<g id="a_node10"><a xlink:href="namespacemappel.html#aa5c2f294298c875605ee1e9876b7d116" target="_top" xlink:title="mappel::make_G_stencil">
<polygon fill="white" stroke="black" points="687,-123 687,-141 805,-141 805,-123 687,-123"/>
<text text-anchor="middle" x="746" y="-129.8" font-family="Helvetica,sans-Serif" font-size="9.00">mappel::make_G_stencil</text>
</a>
</g>
</g>
<!-- Node9&#45;&gt;Node10 -->
<g id="edge9" class="edge"><title>Node9&#45;&gt;Node10</title>
<path fill="none" stroke="midnightblue" d="M642.075,-142.834C653.413,-141.641 665.178,-140.402 676.526,-139.208"/>
<polygon fill="midnightblue" stroke="midnightblue" points="677.227,-142.653 686.806,-138.126 676.495,-135.692 677.227,-142.653"/>
</g>
<!-- Node13 -->
<g id="node13" class="node"><title>Node13</title>
<g id="a_node13"><a xlink:href="classmappel_1_1Gauss2DsModel_1_1Stencil.html#adab71d870d1b32f78e85d273dd7bd006" target="_top" xlink:title="mappel::Gauss2DsModel\l::Stencil::sigmaX">
<polygon fill="white" stroke="black" points="686,-29 686,-57 806,-57 806,-29 686,-29"/>
<text text-anchor="start" x="694" y="-45.8" font-family="Helvetica,sans-Serif" font-size="9.00">mappel::Gauss2DsModel</text>
<text text-anchor="middle" x="746" y="-35.8" font-family="Helvetica,sans-Serif" font-size="9.00">::Stencil::sigmaX</text>
</a>
</g>
</g>
<!-- Node9&#45;&gt;Node13 -->
<g id="edge12" class="edge"><title>Node9&#45;&gt;Node13</title>
<path fill="none" stroke="midnightblue" d="M598.287,-135.915C611.73,-127.641 628.415,-116.559 642,-105 659.966,-89.7137 658.243,-78.8884 678,-66 680.544,-64.3401 683.222,-62.7864 685.983,-61.3338"/>
<polygon fill="midnightblue" stroke="midnightblue" points="687.497,-64.4893 695.024,-57.0327 684.49,-58.1681 687.497,-64.4893"/>
</g>
<!-- Node15 -->
<g id="node15" class="node"><title>Node15</title>
<g id="a_node15"><a xlink:href="classmappel_1_1Gauss2DsModel_1_1Stencil.html#abc29f317d508c398a3fcc337a1fb8d1f" target="_top" xlink:title="mappel::Gauss2DsModel\l::Stencil::sigmaY">
<polygon fill="white" stroke="black" points="686,-76 686,-104 806,-104 806,-76 686,-76"/>
<text text-anchor="start" x="694" y="-92.8" font-family="Helvetica,sans-Serif" font-size="9.00">mappel::Gauss2DsModel</text>
<text text-anchor="middle" x="746" y="-82.8" font-family="Helvetica,sans-Serif" font-size="9.00">::Stencil::sigmaY</text>
</a>
</g>
</g>
<!-- Node9&#45;&gt;Node15 -->
<g id="edge14" class="edge"><title>Node9&#45;&gt;Node15</title>
<path fill="none" stroke="midnightblue" d="M613.471,-135.841C632.889,-128.905 656.653,-120.461 678,-113 683.224,-111.174 688.682,-109.279 694.13,-107.396"/>
<polygon fill="midnightblue" stroke="midnightblue" points="695.56,-110.606 703.873,-104.038 693.278,-103.988 695.56,-110.606"/>
</g>
<!-- Node16 -->
<g id="node16" class="node"><title>Node16</title>
<g id="a_node16"><a xlink:href="namespacemappel.html#a8da88490d6ff7d5886b96b66c1bab369" target="_top" xlink:title="mappel::make_DX_stencil">
<polygon fill="white" stroke="black" points="684,-271 684,-289 808,-289 808,-271 684,-271"/>
<text text-anchor="middle" x="746" y="-277.8" font-family="Helvetica,sans-Serif" font-size="9.00">mappel::make_DX_stencil</text>
</a>
</g>
</g>
<!-- Node9&#45;&gt;Node16 -->
<g id="edge16" class="edge"><title>Node9&#45;&gt;Node16</title>
<path fill="none" stroke="midnightblue" d="M613.328,-164.108C623.594,-169.186 634.008,-175.754 642,-184 668.573,-211.416 648.808,-237.391 678,-262 679.758,-263.482 681.627,-264.844 683.58,-266.094"/>
<polygon fill="midnightblue" stroke="midnightblue" points="682.128,-269.286 692.6,-270.893 685.416,-263.106 682.128,-269.286"/>
</g>
<!-- Node18 -->
<g id="node18" class="node"><title>Node18</title>
<g id="a_node18"><a xlink:href="namespacemappel.html#af7636db506977133c8b30d108fede711" target="_top" xlink:title="mappel::make_DXS_stencil">
<polygon fill="white" stroke="black" points="681,-234 681,-252 811,-252 811,-234 681,-234"/>
<text text-anchor="middle" x="746" y="-240.8" font-family="Helvetica,sans-Serif" font-size="9.00">mappel::make_DXS_stencil</text>
</a>
</g>
</g>
<!-- Node9&#45;&gt;Node18 -->
<g id="edge18" class="edge"><title>Node9&#45;&gt;Node18</title>
<path fill="none" stroke="midnightblue" d="M608.377,-164.007C619.644,-169.406 631.862,-176.181 642,-184 661.202,-198.809 657.407,-212.194 678,-225 681.151,-226.96 684.515,-228.709 687.994,-230.269"/>
<polygon fill="midnightblue" stroke="midnightblue" points="686.818,-233.567 697.405,-233.974 689.382,-227.054 686.818,-233.567"/>
</g>
<!-- Node20 -->
<g id="node20" class="node"><title>Node20</title>
<g id="a_node20"><a xlink:href="namespacemappel.html#aef14b765af6f9b85d93f42ab8b84311b" target="_top" xlink:title="mappel::make_DXS2_stencil">
<polygon fill="white" stroke="black" points="678.5,-197 678.5,-215 813.5,-215 813.5,-197 678.5,-197"/>
<text text-anchor="middle" x="746" y="-203.8" font-family="Helvetica,sans-Serif" font-size="9.00">mappel::make_DXS2_stencil</text>
</a>
</g>
</g>
<!-- Node9&#45;&gt;Node20 -->
<g id="edge21" class="edge"><title>Node9&#45;&gt;Node20</title>
<path fill="none" stroke="midnightblue" d="M611.832,-164.132C631.468,-171.295 655.91,-179.947 678,-187 685.613,-189.431 693.76,-191.873 701.659,-194.158"/>
<polygon fill="midnightblue" stroke="midnightblue" points="700.896,-197.58 711.473,-196.957 702.816,-190.849 700.896,-197.58"/>
</g>
<!-- Node22 -->
<g id="node22" class="node"><title>Node22</title>
<g id="a_node22"><a xlink:href="namespacemappel.html#abccec04f04b0b10940779c9bbae0e570" target="_top" xlink:title="mappel::make_DXSX_stencil">
<polygon fill="white" stroke="black" points="678,-160 678,-178 814,-178 814,-160 678,-160"/>
<text text-anchor="middle" x="746" y="-166.8" font-family="Helvetica,sans-Serif" font-size="9.00">mappel::make_DXSX_stencil</text>
</a>
</g>
</g>
<!-- Node9&#45;&gt;Node22 -->
<g id="edge23" class="edge"><title>Node9&#45;&gt;Node22</title>
<path fill="none" stroke="midnightblue" d="M642.075,-157.564C650.577,-158.509 659.319,-159.48 667.945,-160.438"/>
<polygon fill="midnightblue" stroke="midnightblue" points="667.671,-163.929 677.996,-161.555 668.444,-156.972 667.671,-163.929"/>
</g>
<!-- Node11 -->
<g id="node11" class="node"><title>Node11</title>
<g id="a_node11"><a xlink:href="namespacemappel.html#a5ca82edc201e8605107a991493ad0d5e" target="_top" xlink:title="mappel::fill_G_stencil">
<polygon fill="white" stroke="black" points="859,-123 859,-141 963,-141 963,-123 859,-123"/>
<text text-anchor="middle" x="911" y="-129.8" font-family="Helvetica,sans-Serif" font-size="9.00">mappel::fill_G_stencil</text>
</a>
</g>
</g>
<!-- Node10&#45;&gt;Node11 -->
<g id="edge10" class="edge"><title>Node10&#45;&gt;Node11</title>
<path fill="none" stroke="midnightblue" d="M805.386,-132C819.426,-132 834.464,-132 848.635,-132"/>
<polygon fill="midnightblue" stroke="midnightblue" points="848.774,-135.5 858.774,-132 848.774,-128.5 848.774,-135.5"/>
</g>
<!-- Node12 -->
<g id="node12" class="node"><title>Node12</title>
<g id="a_node12"><a xlink:href="namespacemappel.html#a8475cdb3edacceb0ae215c3ebd1f33c1" target="_top" xlink:title="mappel::square">
<polygon fill="white" stroke="black" points="1008,-178 1008,-196 1088,-196 1088,-178 1008,-178"/>
<text text-anchor="middle" x="1048" y="-184.8" font-family="Helvetica,sans-Serif" font-size="9.00">mappel::square</text>
</a>
</g>
</g>
<!-- Node11&#45;&gt;Node12 -->
<g id="edge11" class="edge"><title>Node11&#45;&gt;Node12</title>
<path fill="none" stroke="midnightblue" d="M945.661,-141.022C954.34,-143.641 963.6,-146.695 972,-150 988.905,-156.652 1007.2,-165.641 1021.49,-173.092"/>
<polygon fill="midnightblue" stroke="midnightblue" points="1020.2,-176.37 1030.68,-177.958 1023.48,-170.185 1020.2,-176.37"/>
</g>
<!-- Node13&#45;&gt;Node14 -->
<g id="edge13" class="edge"><title>Node13&#45;&gt;Node14</title>
<path fill="none" stroke="midnightblue" d="M806.308,-43C817.389,-43 829.063,-43 840.42,-43"/>
<polygon fill="midnightblue" stroke="midnightblue" points="840.736,-46.5001 850.736,-43 840.736,-39.5001 840.736,-46.5001"/>
</g>
<!-- Node15&#45;&gt;Node14 -->
<g id="edge15" class="edge"><title>Node15&#45;&gt;Node14</title>
<path fill="none" stroke="midnightblue" d="M795.905,-75.8985C813.472,-70.8331 833.458,-65.0703 851.741,-59.7985"/>
<polygon fill="midnightblue" stroke="midnightblue" points="852.771,-63.1442 861.41,-57.0106 850.832,-56.4182 852.771,-63.1442"/>
</g>
<!-- Node17 -->
<g id="node17" class="node"><title>Node17</title>
<g id="a_node17"><a xlink:href="namespacemappel.html#ad2dd4330fc626fa673a3acf691d6b9a7" target="_top" xlink:title="mappel::fill_DX_stencil">
<polygon fill="white" stroke="black" points="856,-271 856,-289 966,-289 966,-271 856,-271"/>
<text text-anchor="middle" x="911" y="-277.8" font-family="Helvetica,sans-Serif" font-size="9.00">mappel::fill_DX_stencil</text>
</a>
</g>
</g>
<!-- Node16&#45;&gt;Node17 -->
<g id="edge17" class="edge"><title>Node16&#45;&gt;Node17</title>
<path fill="none" stroke="midnightblue" d="M808.159,-280C820.368,-280 833.228,-280 845.545,-280"/>
<polygon fill="midnightblue" stroke="midnightblue" points="845.737,-283.5 855.737,-280 845.737,-276.5 845.737,-283.5"/>
</g>
<!-- Node19 -->
<g id="node19" class="node"><title>Node19</title>
<g id="a_node19"><a xlink:href="namespacemappel.html#ab0cb62f6dcecae5ff19468d87a283e7a" target="_top" xlink:title="mappel::fill_DXS_stencil">
<polygon fill="white" stroke="black" points="853,-234 853,-252 969,-252 969,-234 853,-234"/>
<text text-anchor="middle" x="911" y="-240.8" font-family="Helvetica,sans-Serif" font-size="9.00">mappel::fill_DXS_stencil</text>
</a>
</g>
</g>
<!-- Node18&#45;&gt;Node19 -->
<g id="edge19" class="edge"><title>Node18&#45;&gt;Node19</title>
<path fill="none" stroke="midnightblue" d="M811.422,-243C821.7,-243 832.357,-243 842.7,-243"/>
<polygon fill="midnightblue" stroke="midnightblue" points="842.912,-246.5 852.912,-243 842.912,-239.5 842.912,-246.5"/>
</g>
<!-- Node19&#45;&gt;Node12 -->
<g id="edge20" class="edge"><title>Node19&#45;&gt;Node12</title>
<path fill="none" stroke="midnightblue" d="M945.999,-233.944C954.587,-231.346 963.719,-228.31 972,-225 989.234,-218.112 1007.85,-208.692 1022.22,-200.955"/>
<polygon fill="midnightblue" stroke="midnightblue" points="1023.9,-204.025 1031,-196.157 1020.55,-197.883 1023.9,-204.025"/>
</g>
<!-- Node21 -->
<g id="node21" class="node"><title>Node21</title>
<g id="a_node21"><a xlink:href="namespacemappel.html#a445e83c8273da9b3a50cc10d038ed612" target="_top" xlink:title="mappel::fill_DXS2_stencil">
<polygon fill="white" stroke="black" points="850,-197 850,-215 972,-215 972,-197 850,-197"/>
<text text-anchor="middle" x="911" y="-203.8" font-family="Helvetica,sans-Serif" font-size="9.00">mappel::fill_DXS2_stencil</text>
</a>
</g>
</g>
<!-- Node20&#45;&gt;Node21 -->
<g id="edge22" class="edge"><title>Node20&#45;&gt;Node21</title>
<path fill="none" stroke="midnightblue" d="M813.769,-206C822.363,-206 831.183,-206 839.83,-206"/>
<polygon fill="midnightblue" stroke="midnightblue" points="839.876,-209.5 849.876,-206 839.876,-202.5 839.876,-209.5"/>
</g>
<!-- Node23 -->
<g id="node23" class="node"><title>Node23</title>
<g id="a_node23"><a xlink:href="namespacemappel.html#ad3a6553e54dc90232fc04c93731fc69c" target="_top" xlink:title="mappel::fill_DXSX_stencil">
<polygon fill="white" stroke="black" points="850,-160 850,-178 972,-178 972,-160 850,-160"/>
<text text-anchor="middle" x="911" y="-166.8" font-family="Helvetica,sans-Serif" font-size="9.00">mappel::fill_DXSX_stencil</text>
</a>
</g>
</g>
<!-- Node22&#45;&gt;Node23 -->
<g id="edge24" class="edge"><title>Node22&#45;&gt;Node23</title>
<path fill="none" stroke="midnightblue" d="M814.239,-169C822.656,-169 831.282,-169 839.744,-169"/>
<polygon fill="midnightblue" stroke="midnightblue" points="839.958,-172.5 849.958,-169 839.958,-165.5 839.958,-172.5"/>
</g>
<!-- Node25 -->
<g id="node25" class="node"><title>Node25</title>
<g id="a_node25"><a xlink:href="classmappel_1_1PointEmitterModel.html#a97a868e842302f670ed9f9bd49416771" target="_top" xlink:title="mappel::PointEmitterModel\l::check_param_shape">
<polygon fill="white" stroke="black" points="509.5,-68 509.5,-96 636.5,-96 636.5,-68 509.5,-68"/>
<text text-anchor="start" x="517.5" y="-84.8" font-family="Helvetica,sans-Serif" font-size="9.00">mappel::PointEmitterModel</text>
<text text-anchor="middle" x="573" y="-74.8" font-family="Helvetica,sans-Serif" font-size="9.00">::check_param_shape</text>
</a>
</g>
</g>
<!-- Node24&#45;&gt;Node25 -->
<g id="edge26" class="edge"><title>Node24&#45;&gt;Node25</title>
<path fill="none" stroke="midnightblue" d="M468.447,-82C478.461,-82 488.893,-82 499.114,-82"/>
<polygon fill="midnightblue" stroke="midnightblue" points="499.241,-85.5001 509.241,-82 499.241,-78.5001 499.241,-85.5001"/>
</g>
</g>
</svg>
