<?xml version="1.0" encoding="UTF-8" standalone="no"?>
<!DOCTYPE svg PUBLIC "-//W3C//DTD SVG 1.1//EN"
 "http://www.w3.org/Graphics/SVG/1.1/DTD/svg11.dtd">
<!-- Generated by graphviz version 2.38.0 (20140413.2041)
 -->
<!-- Title: mappel::NewtonDiagonalMaximizer::maximize Pages: 1 -->
<svg width="682pt" height="510pt"
 viewBox="0.00 0.00 682.00 510.00" xmlns="http://www.w3.org/2000/svg" xmlns:xlink="http://www.w3.org/1999/xlink">
<g id="graph0" class="graph" transform="scale(1 1) rotate(0) translate(4 506)">
<title>mappel::NewtonDiagonalMaximizer::maximize</title>
<polygon fill="white" stroke="none" points="-4,4 -4,-506 678,-506 678,4 -4,4"/>
<!-- Node1 -->
<g id="node1" class="node"><title>Node1</title>
<polygon fill="#bfbfbf" stroke="black" points="0,-293.5 0,-321.5 163,-321.5 163,-293.5 0,-293.5"/>
<text text-anchor="start" x="8" y="-310.3" font-family="Helvetica,sans-Serif" font-size="9.00">mappel::NewtonDiagonalMaximizer</text>
<text text-anchor="middle" x="81.5" y="-300.3" font-family="Helvetica,sans-Serif" font-size="9.00">::maximize</text>
</g>
<!-- Node2 -->
<g id="node2" class="node"><title>Node2</title>
<g id="a_node2"><a xlink:href="classmappel_1_1IterativeMaximizer.html#ac033d2b23a6a861e6d7adbe35f17624e" target="_top" xlink:title="mappel::IterativeMaximizer\l::backtrack">
<polygon fill="white" stroke="black" points="200,-293.5 200,-321.5 326,-321.5 326,-293.5 200,-293.5"/>
<text text-anchor="start" x="208" y="-310.3" font-family="Helvetica,sans-Serif" font-size="9.00">mappel::IterativeMaximizer</text>
<text text-anchor="middle" x="263" y="-300.3" font-family="Helvetica,sans-Serif" font-size="9.00">::backtrack</text>
</a>
</g>
</g>
<!-- Node1&#45;&gt;Node2 -->
<g id="edge1" class="edge"><title>Node1&#45;&gt;Node2</title>
<path fill="none" stroke="midnightblue" d="M163.061,-307.5C171.971,-307.5 181.002,-307.5 189.8,-307.5"/>
<polygon fill="midnightblue" stroke="midnightblue" points="189.998,-311 199.998,-307.5 189.998,-304 189.998,-311"/>
</g>
<!-- Node3 -->
<g id="node3" class="node"><title>Node3</title>
<g id="a_node3"><a xlink:href="classmappel_1_1IterativeMaximizer.html#aef9b61d66d785a1a06dd2c75c3166435" target="_top" xlink:title="mappel::IterativeMaximizer\l::convergence_test">
<polygon fill="white" stroke="black" points="369,-473.5 369,-501.5 495,-501.5 495,-473.5 369,-473.5"/>
<text text-anchor="start" x="377" y="-490.3" font-family="Helvetica,sans-Serif" font-size="9.00">mappel::IterativeMaximizer</text>
<text text-anchor="middle" x="432" y="-480.3" font-family="Helvetica,sans-Serif" font-size="9.00">::convergence_test</text>
</a>
</g>
</g>
<!-- Node1&#45;&gt;Node3 -->
<g id="edge17" class="edge"><title>Node1&#45;&gt;Node3</title>
<path fill="none" stroke="midnightblue" d="M104.321,-321.559C150.586,-350.947 262.535,-419.85 363,-464.5 367.148,-466.343 371.492,-468.128 375.892,-469.833"/>
<polygon fill="midnightblue" stroke="midnightblue" points="374.969,-473.224 385.562,-473.43 377.41,-466.663 374.969,-473.224"/>
</g>
<!-- Node14 -->
<g id="node14" class="node"><title>Node14</title>
<g id="a_node14"><a xlink:href="namespacemappel_1_1methods_1_1objective.html#a165388f45fa850f2b12c22053296a0c2" target="_top" xlink:title="mappel::methods::objective\l::grad2">
<polygon fill="white" stroke="black" points="199,-246.5 199,-274.5 327,-274.5 327,-246.5 199,-246.5"/>
<text text-anchor="start" x="207" y="-263.3" font-family="Helvetica,sans-Serif" font-size="9.00">mappel::methods::objective</text>
<text text-anchor="middle" x="263" y="-253.3" font-family="Helvetica,sans-Serif" font-size="9.00">::grad2</text>
</a>
</g>
</g>
<!-- Node1&#45;&gt;Node14 -->
<g id="edge18" class="edge"><title>Node1&#45;&gt;Node14</title>
<path fill="none" stroke="midnightblue" d="M136.356,-293.398C155.969,-288.263 178.319,-282.411 198.678,-277.08"/>
<polygon fill="midnightblue" stroke="midnightblue" points="199.704,-280.429 208.492,-274.511 197.931,-273.658 199.704,-280.429"/>
</g>
<!-- Node2&#45;&gt;Node3 -->
<g id="edge2" class="edge"><title>Node2&#45;&gt;Node3</title>
<path fill="none" stroke="midnightblue" d="M273.34,-321.536C285.781,-340.31 308.387,-374.694 327,-404.5 343.472,-430.878 338.785,-444.987 363,-464.5 364.601,-465.79 366.278,-467.01 368.015,-468.162"/>
<polygon fill="midnightblue" stroke="midnightblue" points="366.704,-471.445 377.12,-473.383 370.187,-465.373 366.704,-471.445"/>
</g>
<!-- Node4 -->
<g id="node4" class="node"><title>Node4</title>
<g id="a_node4"><a xlink:href="classmappel_1_1IterativeMaximizer_1_1MaximizerData.html#af2e61c659a8cc78365bd801026c2f6a9" target="_top" xlink:title="mappel::IterativeMaximizer\l::MaximizerData::record_exit">
<polygon fill="white" stroke="black" points="539,-381.5 539,-409.5 672,-409.5 672,-381.5 539,-381.5"/>
<text text-anchor="start" x="547" y="-398.3" font-family="Helvetica,sans-Serif" font-size="9.00">mappel::IterativeMaximizer</text>
<text text-anchor="middle" x="605.5" y="-388.3" font-family="Helvetica,sans-Serif" font-size="9.00">::MaximizerData::record_exit</text>
</a>
</g>
</g>
<!-- Node2&#45;&gt;Node4 -->
<g id="edge8" class="edge"><title>Node2&#45;&gt;Node4</title>
<path fill="none" stroke="midnightblue" d="M318.33,-321.541C378.659,-337.133 475.97,-362.282 540.088,-378.853"/>
<polygon fill="midnightblue" stroke="midnightblue" points="539.525,-382.322 550.082,-381.436 541.276,-375.545 539.525,-382.322"/>
</g>
<!-- Node5 -->
<g id="node5" class="node"><title>Node5</title>
<g id="a_node5"><a xlink:href="classmappel_1_1IterativeMaximizer_1_1MaximizerData.html#aedc8670533fe0323a62e7def637875db" target="_top" xlink:title="Get the saved stencil&#39;s theta. ">
<polygon fill="white" stroke="black" points="537,-315.5 537,-343.5 674,-343.5 674,-315.5 537,-315.5"/>
<text text-anchor="start" x="545" y="-332.3" font-family="Helvetica,sans-Serif" font-size="9.00">mappel::IterativeMaximizer</text>
<text text-anchor="middle" x="605.5" y="-322.3" font-family="Helvetica,sans-Serif" font-size="9.00">::MaximizerData::saved_theta</text>
</a>
</g>
</g>
<!-- Node2&#45;&gt;Node5 -->
<g id="edge14" class="edge"><title>Node2&#45;&gt;Node5</title>
<path fill="none" stroke="midnightblue" d="M311.92,-293.454C328.006,-289.393 346.142,-285.514 363,-283.5 423.9,-276.224 441.003,-270.768 501,-283.5 525.742,-288.751 551.75,-300.338 571.506,-310.569"/>
<polygon fill="midnightblue" stroke="midnightblue" points="569.92,-313.689 580.392,-315.297 573.208,-307.51 569.92,-313.689"/>
</g>
<!-- Node7 -->
<g id="node7" class="node"><title>Node7</title>
<g id="a_node7"><a xlink:href="classmappel_1_1IterativeMaximizer_1_1MaximizerData.html#a8c82784b23315be8f74b968ee4188388" target="_top" xlink:title="Record a backtracked point (no derivative computations performed) Using the saved theta as the defaul...">
<polygon fill="white" stroke="black" points="369,-179.5 369,-217.5 495,-217.5 495,-179.5 369,-179.5"/>
<text text-anchor="start" x="377" y="-206.3" font-family="Helvetica,sans-Serif" font-size="9.00">mappel::IterativeMaximizer</text>
<text text-anchor="start" x="377" y="-196.3" font-family="Helvetica,sans-Serif" font-size="9.00">::MaximizerData::record</text>
<text text-anchor="middle" x="432" y="-186.3" font-family="Helvetica,sans-Serif" font-size="9.00">_backtrack</text>
</a>
</g>
</g>
<!-- Node2&#45;&gt;Node7 -->
<g id="edge6" class="edge"><title>Node2&#45;&gt;Node7</title>
<path fill="none" stroke="midnightblue" d="M307.398,-293.466C314.167,-290.575 320.924,-287.25 327,-283.5 345.47,-272.1 346.363,-264.44 363,-250.5 373.712,-241.525 385.729,-232.128 396.647,-223.829"/>
<polygon fill="midnightblue" stroke="midnightblue" points="398.867,-226.539 404.742,-217.722 394.651,-220.95 398.867,-226.539"/>
</g>
<!-- Node8 -->
<g id="node8" class="node"><title>Node8</title>
<g id="a_node8"><a xlink:href="classmappel_1_1IterativeMaximizer_1_1MaximizerData.html#a1096048bf29ccbc45e4a60dc6cbf7b2c" target="_top" xlink:title="Record an iteration point (derivatives computed) Using the saved theta as the default. ">
<polygon fill="white" stroke="black" points="369,-104.5 369,-142.5 495,-142.5 495,-104.5 369,-104.5"/>
<text text-anchor="start" x="377" y="-131.3" font-family="Helvetica,sans-Serif" font-size="9.00">mappel::IterativeMaximizer</text>
<text text-anchor="start" x="377" y="-121.3" font-family="Helvetica,sans-Serif" font-size="9.00">::MaximizerData::record</text>
<text text-anchor="middle" x="432" y="-111.3" font-family="Helvetica,sans-Serif" font-size="9.00">_iteration</text>
</a>
</g>
</g>
<!-- Node2&#45;&gt;Node8 -->
<g id="edge9" class="edge"><title>Node2&#45;&gt;Node8</title>
<path fill="none" stroke="midnightblue" d="M314.17,-293.452C318.904,-290.7 323.305,-287.416 327,-283.5 363.464,-244.854 331.228,-212.087 363,-169.5 369.009,-161.446 376.865,-154.339 385.095,-148.269"/>
<polygon fill="midnightblue" stroke="midnightblue" points="387.149,-151.105 393.396,-142.548 383.176,-145.341 387.149,-151.105"/>
</g>
<!-- Node9 -->
<g id="node9" class="node"><title>Node9</title>
<g id="a_node9"><a xlink:href="classmappel_1_1IterativeMaximizer_1_1MaximizerData.html#a5f65e52de343dbd012c3b3a7b463b792" target="_top" xlink:title="Restore the single reserved stencil to the current stencil spot. Overwrites any previously saved sten...">
<polygon fill="white" stroke="black" points="369,-47.5 369,-85.5 495,-85.5 495,-47.5 369,-47.5"/>
<text text-anchor="start" x="377" y="-74.3" font-family="Helvetica,sans-Serif" font-size="9.00">mappel::IterativeMaximizer</text>
<text text-anchor="start" x="377" y="-64.3" font-family="Helvetica,sans-Serif" font-size="9.00">::MaximizerData::restore</text>
<text text-anchor="middle" x="432" y="-54.3" font-family="Helvetica,sans-Serif" font-size="9.00">_stencil</text>
</a>
</g>
</g>
<!-- Node2&#45;&gt;Node9 -->
<g id="edge11" class="edge"><title>Node2&#45;&gt;Node9</title>
<path fill="none" stroke="midnightblue" d="M315.551,-293.315C319.843,-290.596 323.767,-287.357 327,-283.5 381.925,-217.962 308.953,-160.764 363,-94.5 363.6,-93.7642 364.223,-93.0475 364.866,-92.3494"/>
<polygon fill="midnightblue" stroke="midnightblue" points="367.341,-94.8316 372.47,-85.5606 362.679,-89.6101 367.341,-94.8316"/>
</g>
<!-- Node10 -->
<g id="node10" class="node"><title>Node10</title>
<g id="a_node10"><a xlink:href="namespacemappel_1_1methods_1_1objective.html#a293c23ed6a623e59477bb67b6e40f5ad" target="_top" xlink:title="mappel::methods::objective\l::rllh">
<polygon fill="white" stroke="black" points="368,-0.5 368,-28.5 496,-28.5 496,-0.5 368,-0.5"/>
<text text-anchor="start" x="376" y="-17.3" font-family="Helvetica,sans-Serif" font-size="9.00">mappel::methods::objective</text>
<text text-anchor="middle" x="432" y="-7.3" font-family="Helvetica,sans-Serif" font-size="9.00">::rllh</text>
</a>
</g>
</g>
<!-- Node2&#45;&gt;Node10 -->
<g id="edge12" class="edge"><title>Node2&#45;&gt;Node10</title>
<path fill="none" stroke="midnightblue" d="M315.724,-293.457C319.982,-290.71 323.851,-287.426 327,-283.5 396.142,-197.307 292.241,-122.37 363,-37.5 363.718,-36.6385 364.47,-35.8092 365.252,-35.0108"/>
<polygon fill="midnightblue" stroke="midnightblue" points="367.516,-37.6807 373.021,-28.6286 363.073,-32.2717 367.516,-37.6807"/>
</g>
<!-- Node11 -->
<g id="node11" class="node"><title>Node11</title>
<g id="a_node11"><a xlink:href="classmappel_1_1IterativeMaximizer_1_1MaximizerData.html#a0349ede0482bdc352643e1eba2ab3f11" target="_top" xlink:title="Save the current stencil to the single reserve spot. Overwrites any previously saved stencil...">
<polygon fill="white" stroke="black" points="363,-426.5 363,-454.5 501,-454.5 501,-426.5 363,-426.5"/>
<text text-anchor="start" x="371" y="-443.3" font-family="Helvetica,sans-Serif" font-size="9.00">mappel::IterativeMaximizer</text>
<text text-anchor="middle" x="432" y="-433.3" font-family="Helvetica,sans-Serif" font-size="9.00">::MaximizerData::save_stencil</text>
</a>
</g>
</g>
<!-- Node2&#45;&gt;Node11 -->
<g id="edge13" class="edge"><title>Node2&#45;&gt;Node11</title>
<path fill="none" stroke="midnightblue" d="M273.274,-321.591C289.079,-344.571 323.394,-390.189 363,-416.5 365.957,-418.465 369.094,-420.288 372.334,-421.979"/>
<polygon fill="midnightblue" stroke="midnightblue" points="371.138,-425.285 381.675,-426.394 374.129,-418.956 371.138,-425.285"/>
</g>
<!-- Node12 -->
<g id="node12" class="node"><title>Node12</title>
<g id="a_node12"><a xlink:href="classmappel_1_1IterativeMaximizer_1_1MaximizerData.html#a295d06c20f4d620602eece746f4c7d85" target="_top" xlink:title="mappel::IterativeMaximizer\l::MaximizerData::set_stencil">
<polygon fill="white" stroke="black" points="366.5,-379.5 366.5,-407.5 497.5,-407.5 497.5,-379.5 366.5,-379.5"/>
<text text-anchor="start" x="374.5" y="-396.3" font-family="Helvetica,sans-Serif" font-size="9.00">mappel::IterativeMaximizer</text>
<text text-anchor="middle" x="432" y="-386.3" font-family="Helvetica,sans-Serif" font-size="9.00">::MaximizerData::set_stencil</text>
</a>
</g>
</g>
<!-- Node2&#45;&gt;Node12 -->
<g id="edge15" class="edge"><title>Node2&#45;&gt;Node12</title>
<path fill="none" stroke="midnightblue" d="M286.777,-321.654C306.574,-333.702 336.202,-351.131 363,-364.5 370.43,-368.207 378.447,-371.892 386.281,-375.33"/>
<polygon fill="midnightblue" stroke="midnightblue" points="385.124,-378.643 395.693,-379.386 387.894,-372.214 385.124,-378.643"/>
</g>
<!-- Node13 -->
<g id="node13" class="node"><title>Node13</title>
<g id="a_node13"><a xlink:href="classmappel_1_1IterativeMaximizer_1_1MaximizerData.html#a29ccc1aa8e5ecf505f4ca76f6b8b214e" target="_top" xlink:title="Get the current stencil. ">
<polygon fill="white" stroke="black" points="369,-293.5 369,-321.5 495,-321.5 495,-293.5 369,-293.5"/>
<text text-anchor="start" x="377" y="-310.3" font-family="Helvetica,sans-Serif" font-size="9.00">mappel::IterativeMaximizer</text>
<text text-anchor="middle" x="432" y="-300.3" font-family="Helvetica,sans-Serif" font-size="9.00">::MaximizerData::stencil</text>
</a>
</g>
</g>
<!-- Node2&#45;&gt;Node13 -->
<g id="edge16" class="edge"><title>Node2&#45;&gt;Node13</title>
<path fill="none" stroke="midnightblue" d="M326.185,-307.5C336.726,-307.5 347.753,-307.5 358.531,-307.5"/>
<polygon fill="midnightblue" stroke="midnightblue" points="358.763,-311 368.763,-307.5 358.763,-304 358.763,-311"/>
</g>
<!-- Node3&#45;&gt;Node4 -->
<g id="edge3" class="edge"><title>Node3&#45;&gt;Node4</title>
<path fill="none" stroke="midnightblue" d="M480.107,-473.367C487.233,-470.716 494.402,-467.745 501,-464.5 528.809,-450.823 557.962,-430.799 578.215,-415.84"/>
<polygon fill="midnightblue" stroke="midnightblue" points="580.412,-418.568 586.32,-409.773 576.217,-412.964 580.412,-418.568"/>
</g>
<!-- Node3&#45;&gt;Node5 -->
<g id="edge4" class="edge"><title>Node3&#45;&gt;Node5</title>
<path fill="none" stroke="midnightblue" d="M488.849,-473.373C493.264,-470.88 497.4,-467.948 501,-464.5 533.01,-433.843 508.727,-405.633 537,-371.5 544.422,-362.539 554.277,-354.925 564.156,-348.743"/>
<polygon fill="midnightblue" stroke="midnightblue" points="565.93,-351.76 572.783,-343.681 562.387,-345.723 565.93,-351.76"/>
</g>
<!-- Node6 -->
<g id="node6" class="node"><title>Node6</title>
<g id="a_node6"><a xlink:href="classmappel_1_1IterativeMaximizer_1_1MaximizerData.html#ac6ed5231a1ac2f4bfdd51a2800212fea" target="_top" xlink:title="Get the current stencil&#39;s theta. ">
<polygon fill="white" stroke="black" points="542.5,-473.5 542.5,-501.5 668.5,-501.5 668.5,-473.5 542.5,-473.5"/>
<text text-anchor="start" x="550.5" y="-490.3" font-family="Helvetica,sans-Serif" font-size="9.00">mappel::IterativeMaximizer</text>
<text text-anchor="middle" x="605.5" y="-480.3" font-family="Helvetica,sans-Serif" font-size="9.00">::MaximizerData::theta</text>
</a>
</g>
</g>
<!-- Node3&#45;&gt;Node6 -->
<g id="edge5" class="edge"><title>Node3&#45;&gt;Node6</title>
<path fill="none" stroke="midnightblue" d="M495.401,-487.5C507.372,-487.5 520.001,-487.5 532.253,-487.5"/>
<polygon fill="midnightblue" stroke="midnightblue" points="532.433,-491 542.433,-487.5 532.433,-484 532.433,-491"/>
</g>
<!-- Node7&#45;&gt;Node7 -->
<g id="edge7" class="edge"><title>Node7&#45;&gt;Node7</title>
<path fill="none" stroke="midnightblue" d="M401.431,-217.795C397.201,-227.417 407.391,-236 432,-236 447.381,-236 457.129,-232.647 461.245,-227.783"/>
<polygon fill="midnightblue" stroke="midnightblue" points="464.724,-228.168 462.569,-217.795 457.785,-227.248 464.724,-228.168"/>
</g>
<!-- Node8&#45;&gt;Node8 -->
<g id="edge10" class="edge"><title>Node8&#45;&gt;Node8</title>
<path fill="none" stroke="midnightblue" d="M401.431,-142.795C397.201,-152.417 407.391,-161 432,-161 447.381,-161 457.129,-157.647 461.245,-152.783"/>
<polygon fill="midnightblue" stroke="midnightblue" points="464.724,-153.168 462.569,-142.795 457.785,-152.248 464.724,-153.168"/>
</g>
</g>
</svg>
