<?xml version="1.0" encoding="UTF-8" standalone="no"?>
<!DOCTYPE svg PUBLIC "-//W3C//DTD SVG 1.1//EN"
 "http://www.w3.org/Graphics/SVG/1.1/DTD/svg11.dtd">
<!-- Generated by graphviz version 2.38.0 (20140413.2041)
 -->
<!-- Title: mappel::Estimator::get_model Pages: 1 -->
<svg width="234pt" height="37pt"
 viewBox="0.00 0.00 234.00 37.00" xmlns="http://www.w3.org/2000/svg" xmlns:xlink="http://www.w3.org/1999/xlink">
<g id="graph0" class="graph" transform="scale(1 1) rotate(0) translate(4 33)">
<title>mappel::Estimator::get_model</title>
<polygon fill="white" stroke="none" points="-4,4 -4,-33 230,-33 230,4 -4,4"/>
<!-- Node1 -->
<g id="node1" class="node"><title>Node1</title>
<polygon fill="#bfbfbf" stroke="black" points="0,-0.5 0,-28.5 95,-28.5 95,-0.5 0,-0.5"/>
<text text-anchor="start" x="8" y="-17.3" font-family="Helvetica,sans-Serif" font-size="9.00">mappel::Estimator::</text>
<text text-anchor="middle" x="47.5" y="-7.3" font-family="Helvetica,sans-Serif" font-size="9.00">get_model</text>
</g>
<!-- Node2 -->
<g id="node2" class="node"><title>Node2</title>
<g id="a_node2"><a xlink:href="classmappel_1_1Estimator.html#a629823fa91d4b461b2b1f607d588e558" target="_top" xlink:title="mappel::Estimator::\l~Estimator">
<polygon fill="white" stroke="black" points="131,-0.5 131,-28.5 226,-28.5 226,-0.5 131,-0.5"/>
<text text-anchor="start" x="139" y="-17.3" font-family="Helvetica,sans-Serif" font-size="9.00">mappel::Estimator::</text>
<text text-anchor="middle" x="178.5" y="-7.3" font-family="Helvetica,sans-Serif" font-size="9.00">~Estimator</text>
</a>
</g>
</g>
<!-- Node1&#45;&gt;Node2 -->
<g id="edge1" class="edge"><title>Node1&#45;&gt;Node2</title>
<path fill="none" stroke="midnightblue" d="M105.101,-14.5C113.752,-14.5 122.596,-14.5 130.996,-14.5"/>
<polygon fill="midnightblue" stroke="midnightblue" points="105.072,-11.0001 95.072,-14.5 105.072,-18.0001 105.072,-11.0001"/>
</g>
</g>
</svg>
