<?xml version="1.0" encoding="UTF-8" standalone="no"?>
<!DOCTYPE svg PUBLIC "-//W3C//DTD SVG 1.1//EN"
 "http://www.w3.org/Graphics/SVG/1.1/DTD/svg11.dtd">
<!-- Generated by graphviz version 2.38.0 (20140413.2041)
 -->
<!-- Title: mappel::Gauss2DsModel::make_default_prior_normal_position Pages: 1 -->
<svg width="434pt" height="84pt"
 viewBox="0.00 0.00 434.00 84.00" xmlns="http://www.w3.org/2000/svg" xmlns:xlink="http://www.w3.org/1999/xlink">
<g id="graph0" class="graph" transform="scale(1 1) rotate(0) translate(4 80)">
<title>mappel::Gauss2DsModel::make_default_prior_normal_position</title>
<polygon fill="white" stroke="none" points="-4,4 -4,-80 430,-80 430,4 -4,4"/>
<!-- Node1 -->
<g id="node1" class="node"><title>Node1</title>
<polygon fill="#bfbfbf" stroke="black" points="0,-18.5 0,-56.5 120,-56.5 120,-18.5 0,-18.5"/>
<text text-anchor="start" x="8" y="-45.3" font-family="Helvetica,sans-Serif" font-size="9.00">mappel::Gauss2DsModel</text>
<text text-anchor="start" x="8" y="-35.3" font-family="Helvetica,sans-Serif" font-size="9.00">::make_default_prior</text>
<text text-anchor="middle" x="60" y="-25.3" font-family="Helvetica,sans-Serif" font-size="9.00">_normal_position</text>
</g>
<!-- Node2 -->
<g id="node2" class="node"><title>Node2</title>
<g id="a_node2"><a xlink:href="classmappel_1_1Gauss2DsModel.html#a5f730333cb51b9586892cfd5bb566bf1" target="_top" xlink:title="mappel::Gauss2DsModel\l::make_default_prior">
<polygon fill="white" stroke="black" points="156,-23.5 156,-51.5 276,-51.5 276,-23.5 156,-23.5"/>
<text text-anchor="start" x="164" y="-40.3" font-family="Helvetica,sans-Serif" font-size="9.00">mappel::Gauss2DsModel</text>
<text text-anchor="middle" x="216" y="-30.3" font-family="Helvetica,sans-Serif" font-size="9.00">::make_default_prior</text>
</a>
</g>
</g>
<!-- Node1&#45;&gt;Node2 -->
<g id="edge1" class="edge"><title>Node1&#45;&gt;Node2</title>
<path fill="none" stroke="midnightblue" d="M130.369,-37.5C138.862,-37.5 147.48,-37.5 155.804,-37.5"/>
<polygon fill="midnightblue" stroke="midnightblue" points="130.1,-34.0001 120.1,-37.5 130.1,-41.0001 130.1,-34.0001"/>
</g>
<!-- Node3 -->
<g id="node3" class="node"><title>Node3</title>
<g id="a_node3"><a xlink:href="classmappel_1_1Gauss2DsMAP.html#a3060b21e1ba0df3195cc8887919d44ac" target="_top" xlink:title="mappel::Gauss2DsMAP\l::Gauss2DsMAP">
<polygon fill="white" stroke="black" points="312,-47.5 312,-75.5 426,-75.5 426,-47.5 312,-47.5"/>
<text text-anchor="start" x="320" y="-64.3" font-family="Helvetica,sans-Serif" font-size="9.00">mappel::Gauss2DsMAP</text>
<text text-anchor="middle" x="369" y="-54.3" font-family="Helvetica,sans-Serif" font-size="9.00">::Gauss2DsMAP</text>
</a>
</g>
</g>
<!-- Node2&#45;&gt;Node3 -->
<g id="edge2" class="edge"><title>Node2&#45;&gt;Node3</title>
<path fill="none" stroke="midnightblue" d="M286.249,-48.5064C294.835,-49.8712 303.53,-51.2532 311.886,-52.5811"/>
<polygon fill="midnightblue" stroke="midnightblue" points="286.671,-45.0297 276.246,-46.9166 285.572,-51.9429 286.671,-45.0297"/>
</g>
<!-- Node4 -->
<g id="node4" class="node"><title>Node4</title>
<g id="a_node4"><a xlink:href="classmappel_1_1Gauss2DsMLE.html#a3151cb0e1936aaeacee80da0feb0231c" target="_top" xlink:title="mappel::Gauss2DsMLE\l::Gauss2DsMLE">
<polygon fill="white" stroke="black" points="312.5,-0.5 312.5,-28.5 425.5,-28.5 425.5,-0.5 312.5,-0.5"/>
<text text-anchor="start" x="320.5" y="-17.3" font-family="Helvetica,sans-Serif" font-size="9.00">mappel::Gauss2DsMLE</text>
<text text-anchor="middle" x="369" y="-7.3" font-family="Helvetica,sans-Serif" font-size="9.00">::Gauss2DsMLE</text>
</a>
</g>
</g>
<!-- Node2&#45;&gt;Node4 -->
<g id="edge3" class="edge"><title>Node2&#45;&gt;Node4</title>
<path fill="none" stroke="midnightblue" d="M286.391,-26.9305C295.099,-25.6041 303.917,-24.261 312.376,-22.9725"/>
<polygon fill="midnightblue" stroke="midnightblue" points="285.605,-23.5098 276.246,-28.4758 286.659,-30.43 285.605,-23.5098"/>
</g>
</g>
</svg>
