<?xml version="1.0" encoding="UTF-8" standalone="no"?>
<!DOCTYPE svg PUBLIC "-//W3C//DTD SVG 1.1//EN"
 "http://www.w3.org/Graphics/SVG/1.1/DTD/svg11.dtd">
<!-- Generated by graphviz version 2.38.0 (20140413.2041)
 -->
<!-- Title: mappel::Estimator::clear_stats Pages: 1 -->
<svg width="431pt" height="84pt"
 viewBox="0.00 0.00 431.00 84.00" xmlns="http://www.w3.org/2000/svg" xmlns:xlink="http://www.w3.org/1999/xlink">
<g id="graph0" class="graph" transform="scale(1 1) rotate(0) translate(4 80)">
<title>mappel::Estimator::clear_stats</title>
<polygon fill="white" stroke="none" points="-4,4 -4,-80 427,-80 427,4 -4,4"/>
<!-- Node1 -->
<g id="node1" class="node"><title>Node1</title>
<polygon fill="#bfbfbf" stroke="black" points="0,-23.5 0,-51.5 95,-51.5 95,-23.5 0,-23.5"/>
<text text-anchor="start" x="8" y="-40.3" font-family="Helvetica,sans-Serif" font-size="9.00">mappel::Estimator::</text>
<text text-anchor="middle" x="47.5" y="-30.3" font-family="Helvetica,sans-Serif" font-size="9.00">clear_stats</text>
</g>
<!-- Node2 -->
<g id="node2" class="node"><title>Node2</title>
<g id="a_node2"><a xlink:href="classmappel_1_1ThreadedEstimator.html#a8acce3a5a89128403c97b53bc3698d61" target="_top" xlink:title="mappel::ThreadedEstimator\l::clear_stats">
<polygon fill="white" stroke="black" points="131,-47.5 131,-75.5 261,-75.5 261,-47.5 131,-47.5"/>
<text text-anchor="start" x="139" y="-64.3" font-family="Helvetica,sans-Serif" font-size="9.00">mappel::ThreadedEstimator</text>
<text text-anchor="middle" x="196" y="-54.3" font-family="Helvetica,sans-Serif" font-size="9.00">::clear_stats</text>
</a>
</g>
</g>
<!-- Node1&#45;&gt;Node2 -->
<g id="edge1" class="edge"><title>Node1&#45;&gt;Node2</title>
<path fill="none" stroke="midnightblue" d="M105.272,-46.8006C113.632,-48.1701 122.294,-49.589 130.79,-50.981"/>
<polygon fill="midnightblue" stroke="midnightblue" points="105.691,-43.3225 95.2563,-45.1597 104.559,-50.2305 105.691,-43.3225"/>
</g>
<!-- Node4 -->
<g id="node4" class="node"><title>Node4</title>
<g id="a_node4"><a xlink:href="classmappel_1_1Estimator.html#a629823fa91d4b461b2b1f607d588e558" target="_top" xlink:title="mappel::Estimator::\l~Estimator">
<polygon fill="white" stroke="black" points="148.5,-0.5 148.5,-28.5 243.5,-28.5 243.5,-0.5 148.5,-0.5"/>
<text text-anchor="start" x="156.5" y="-17.3" font-family="Helvetica,sans-Serif" font-size="9.00">mappel::Estimator::</text>
<text text-anchor="middle" x="196" y="-7.3" font-family="Helvetica,sans-Serif" font-size="9.00">~Estimator</text>
</a>
</g>
</g>
<!-- Node1&#45;&gt;Node4 -->
<g id="edge3" class="edge"><title>Node1&#45;&gt;Node4</title>
<path fill="none" stroke="midnightblue" d="M105.436,-28.5613C119.67,-26.3265 134.771,-23.9557 148.437,-21.8103"/>
<polygon fill="midnightblue" stroke="midnightblue" points="104.592,-25.1507 95.2563,-30.1594 105.678,-32.066 104.592,-25.1507"/>
</g>
<!-- Node3 -->
<g id="node3" class="node"><title>Node3</title>
<g id="a_node3"><a xlink:href="classmappel_1_1IterativeMaximizer.html#af709331a98863a0d8a4003047f2b70a2" target="_top" xlink:title="mappel::IterativeMaximizer\l::clear_stats">
<polygon fill="white" stroke="black" points="297,-47.5 297,-75.5 423,-75.5 423,-47.5 297,-47.5"/>
<text text-anchor="start" x="305" y="-64.3" font-family="Helvetica,sans-Serif" font-size="9.00">mappel::IterativeMaximizer</text>
<text text-anchor="middle" x="360" y="-54.3" font-family="Helvetica,sans-Serif" font-size="9.00">::clear_stats</text>
</a>
</g>
</g>
<!-- Node2&#45;&gt;Node3 -->
<g id="edge2" class="edge"><title>Node2&#45;&gt;Node3</title>
<path fill="none" stroke="midnightblue" d="M271.047,-61.5C279.643,-61.5 288.345,-61.5 296.761,-61.5"/>
<polygon fill="midnightblue" stroke="midnightblue" points="271.027,-58.0001 261.027,-61.5 271.027,-65.0001 271.027,-58.0001"/>
</g>
</g>
</svg>
