<?xml version="1.0" encoding="UTF-8" standalone="no"?>
<!DOCTYPE svg PUBLIC "-//W3C//DTD SVG 1.1//EN"
 "http://www.w3.org/Graphics/SVG/1.1/DTD/svg11.dtd">
<!-- Generated by graphviz version 2.38.0 (20140413.2041)
 -->
<!-- Title: mappel::MCMCAdaptorBase::set_mcmc_num_phases Pages: 1 -->
<svg width="307pt" height="84pt"
 viewBox="0.00 0.00 307.00 84.00" xmlns="http://www.w3.org/2000/svg" xmlns:xlink="http://www.w3.org/1999/xlink">
<g id="graph0" class="graph" transform="scale(1 1) rotate(0) translate(4 80)">
<title>mappel::MCMCAdaptorBase::set_mcmc_num_phases</title>
<polygon fill="white" stroke="none" points="-4,4 -4,-80 303,-80 303,4 -4,4"/>
<!-- Node1 -->
<g id="node1" class="node"><title>Node1</title>
<polygon fill="#bfbfbf" stroke="black" points="0,-23.5 0,-51.5 134,-51.5 134,-23.5 0,-23.5"/>
<text text-anchor="start" x="8" y="-40.3" font-family="Helvetica,sans-Serif" font-size="9.00">mappel::MCMCAdaptorBase</text>
<text text-anchor="middle" x="67" y="-30.3" font-family="Helvetica,sans-Serif" font-size="9.00">::set_mcmc_num_phases</text>
</g>
<!-- Node2 -->
<g id="node2" class="node"><title>Node2</title>
<g id="a_node2"><a xlink:href="classmappel_1_1MCMCAdaptor1Ds.html#ac3613aae93c36f7dc524da639617f81e" target="_top" xlink:title="mappel::MCMCAdaptor1Ds\l::MCMCAdaptor1Ds">
<polygon fill="white" stroke="black" points="170,-47.5 170,-75.5 299,-75.5 299,-47.5 170,-47.5"/>
<text text-anchor="start" x="178" y="-64.3" font-family="Helvetica,sans-Serif" font-size="9.00">mappel::MCMCAdaptor1Ds</text>
<text text-anchor="middle" x="234.5" y="-54.3" font-family="Helvetica,sans-Serif" font-size="9.00">::MCMCAdaptor1Ds</text>
</a>
</g>
</g>
<!-- Node1&#45;&gt;Node2 -->
<g id="edge1" class="edge"><title>Node1&#45;&gt;Node2</title>
<path fill="none" stroke="midnightblue" d="M144.312,-48.5663C152.842,-49.8034 161.464,-51.0538 169.813,-52.2644"/>
<polygon fill="midnightblue" stroke="midnightblue" points="144.76,-45.0949 134.362,-47.1234 143.756,-52.0224 144.76,-45.0949"/>
</g>
<!-- Node3 -->
<g id="node3" class="node"><title>Node3</title>
<g id="a_node3"><a xlink:href="classmappel_1_1MCMCAdaptor2Ds.html#a0d18367ecbe399a7cbba834150b7debc" target="_top" xlink:title="mappel::MCMCAdaptor2Ds\l::MCMCAdaptor2Ds">
<polygon fill="white" stroke="black" points="170,-0.5 170,-28.5 299,-28.5 299,-0.5 170,-0.5"/>
<text text-anchor="start" x="178" y="-17.3" font-family="Helvetica,sans-Serif" font-size="9.00">mappel::MCMCAdaptor2Ds</text>
<text text-anchor="middle" x="234.5" y="-7.3" font-family="Helvetica,sans-Serif" font-size="9.00">::MCMCAdaptor2Ds</text>
</a>
</g>
</g>
<!-- Node1&#45;&gt;Node3 -->
<g id="edge2" class="edge"><title>Node1&#45;&gt;Node3</title>
<path fill="none" stroke="midnightblue" d="M144.312,-26.8948C152.842,-25.7093 161.464,-24.511 169.813,-23.3508"/>
<polygon fill="midnightblue" stroke="midnightblue" points="143.785,-23.4343 134.362,-28.2775 144.748,-30.3676 143.785,-23.4343"/>
</g>
</g>
</svg>
