<?xml version="1.0" encoding="UTF-8" standalone="no"?>
<!DOCTYPE svg PUBLIC "-//W3C//DTD SVG 1.1//EN"
 "http://www.w3.org/Graphics/SVG/1.1/DTD/svg11.dtd">
<!-- Generated by graphviz version 2.38.0 (20140413.2041)
 -->
<!-- Title: mappel::Gauss1DModel::Stencil::I Pages: 1 -->
<svg width="428pt" height="264pt"
 viewBox="0.00 0.00 428.00 264.00" xmlns="http://www.w3.org/2000/svg" xmlns:xlink="http://www.w3.org/1999/xlink">
<g id="graph0" class="graph" transform="scale(1 1) rotate(0) translate(4 260)">
<title>mappel::Gauss1DModel::Stencil::I</title>
<polygon fill="white" stroke="none" points="-4,4 -4,-260 424,-260 424,4 -4,4"/>
<!-- Node1 -->
<g id="node1" class="node"><title>Node1</title>
<polygon fill="#bfbfbf" stroke="black" points="0,-115.5 0,-143.5 116,-143.5 116,-115.5 0,-115.5"/>
<text text-anchor="start" x="8" y="-132.3" font-family="Helvetica,sans-Serif" font-size="9.00">mappel::Gauss1DModel</text>
<text text-anchor="middle" x="58" y="-122.3" font-family="Helvetica,sans-Serif" font-size="9.00">::Stencil::I</text>
</g>
<!-- Node2 -->
<g id="node2" class="node"><title>Node2</title>
<g id="a_node2"><a xlink:href="classmappel_1_1Gauss1DModel.html#a4c4e01a489a6d8f7b119dd50b51610c2" target="_top" xlink:title="mappel::Gauss1DModel\l::initial_theta_estimate">
<polygon fill="white" stroke="black" points="152,-227.5 152,-255.5 268,-255.5 268,-227.5 152,-227.5"/>
<text text-anchor="start" x="160" y="-244.3" font-family="Helvetica,sans-Serif" font-size="9.00">mappel::Gauss1DModel</text>
<text text-anchor="middle" x="210" y="-234.3" font-family="Helvetica,sans-Serif" font-size="9.00">::initial_theta_estimate</text>
</a>
</g>
</g>
<!-- Node1&#45;&gt;Node2 -->
<g id="edge1" class="edge"><title>Node1&#45;&gt;Node2</title>
<path fill="none" stroke="midnightblue" d="M77.2259,-151.137C94.7426,-170.834 122.796,-199.638 152,-218.5 157.109,-221.8 162.769,-224.771 168.481,-227.395"/>
<polygon fill="midnightblue" stroke="midnightblue" points="79.8252,-148.793 70.6103,-143.564 74.5534,-153.398 79.8252,-148.793"/>
</g>
<!-- Node3 -->
<g id="node3" class="node"><title>Node3</title>
<g id="a_node3"><a xlink:href="classmappel_1_1Gauss1DModel.html#ae17d888bf89ea80c39c9839144015b55" target="_top" xlink:title="mappel::Gauss1DModel\l::pixel_grad">
<polygon fill="white" stroke="black" points="152,-180.5 152,-208.5 268,-208.5 268,-180.5 152,-180.5"/>
<text text-anchor="start" x="160" y="-197.3" font-family="Helvetica,sans-Serif" font-size="9.00">mappel::Gauss1DModel</text>
<text text-anchor="middle" x="210" y="-187.3" font-family="Helvetica,sans-Serif" font-size="9.00">::pixel_grad</text>
</a>
</g>
</g>
<!-- Node1&#45;&gt;Node3 -->
<g id="edge2" class="edge"><title>Node1&#45;&gt;Node3</title>
<path fill="none" stroke="midnightblue" d="M100.754,-147.593C124.701,-157.971 154.318,-170.805 176.516,-180.423"/>
<polygon fill="midnightblue" stroke="midnightblue" points="102.115,-144.369 91.5478,-143.604 99.3317,-150.792 102.115,-144.369"/>
</g>
<!-- Node4 -->
<g id="node4" class="node"><title>Node4</title>
<g id="a_node4"><a xlink:href="classmappel_1_1Gauss1DModel.html#a6b0a57e7620ef80030c94903aae5954f" target="_top" xlink:title="pixel derivative inner loop calculations. ">
<polygon fill="white" stroke="black" points="304,-158.5 304,-186.5 420,-186.5 420,-158.5 304,-158.5"/>
<text text-anchor="start" x="312" y="-175.3" font-family="Helvetica,sans-Serif" font-size="9.00">mappel::Gauss1DModel</text>
<text text-anchor="middle" x="362" y="-165.3" font-family="Helvetica,sans-Serif" font-size="9.00">::pixel_hess_update</text>
</a>
</g>
</g>
<!-- Node1&#45;&gt;Node4 -->
<g id="edge6" class="edge"><title>Node1&#45;&gt;Node4</title>
<path fill="none" stroke="midnightblue" d="M126.205,-139.069C179.541,-146.663 253.288,-157.163 303.819,-164.358"/>
<polygon fill="midnightblue" stroke="midnightblue" points="126.552,-135.583 116.159,-137.639 125.566,-142.513 126.552,-135.583"/>
</g>
<!-- Node5 -->
<g id="node5" class="node"><title>Node5</title>
<g id="a_node5"><a xlink:href="classmappel_1_1Gauss1DModel.html#aeb6090ca6812629d8b719ed9a45cf7f3" target="_top" xlink:title="mappel::Gauss1DModel\l::pixel_grad2">
<polygon fill="white" stroke="black" points="152,-94.5 152,-122.5 268,-122.5 268,-94.5 152,-94.5"/>
<text text-anchor="start" x="160" y="-111.3" font-family="Helvetica,sans-Serif" font-size="9.00">mappel::Gauss1DModel</text>
<text text-anchor="middle" x="210" y="-101.3" font-family="Helvetica,sans-Serif" font-size="9.00">::pixel_grad2</text>
</a>
</g>
</g>
<!-- Node1&#45;&gt;Node5 -->
<g id="edge4" class="edge"><title>Node1&#45;&gt;Node5</title>
<path fill="none" stroke="midnightblue" d="M126.311,-120.077C134.728,-118.898 143.277,-117.701 151.525,-116.546"/>
<polygon fill="midnightblue" stroke="midnightblue" points="125.555,-116.648 116.136,-121.501 126.525,-123.581 125.555,-116.648"/>
</g>
<!-- Node6 -->
<g id="node6" class="node"><title>Node6</title>
<g id="a_node6"><a xlink:href="classmappel_1_1Gauss1DModel.html#a407773f7ffe464018fbaa18e8c8fe22a" target="_top" xlink:title="mappel::Gauss1DModel\l::pixel_hess">
<polygon fill="white" stroke="black" points="152,-47.5 152,-75.5 268,-75.5 268,-47.5 152,-47.5"/>
<text text-anchor="start" x="160" y="-64.3" font-family="Helvetica,sans-Serif" font-size="9.00">mappel::Gauss1DModel</text>
<text text-anchor="middle" x="210" y="-54.3" font-family="Helvetica,sans-Serif" font-size="9.00">::pixel_hess</text>
</a>
</g>
</g>
<!-- Node1&#45;&gt;Node6 -->
<g id="edge5" class="edge"><title>Node1&#45;&gt;Node6</title>
<path fill="none" stroke="midnightblue" d="M97.5843,-110.786C114.245,-102.824 134.005,-93.5406 152,-85.5 159.352,-82.2147 167.289,-78.7945 174.837,-75.6003"/>
<polygon fill="midnightblue" stroke="midnightblue" points="95.6727,-107.821 88.1696,-115.301 98.6998,-114.132 95.6727,-107.821"/>
</g>
<!-- Node7 -->
<g id="node7" class="node"><title>Node7</title>
<g id="a_node7"><a xlink:href="classmappel_1_1Gauss1DModel.html#af26feda273232841ae28b85b0dbab439" target="_top" xlink:title="mappel::Gauss1DModel\l::pixel_model_value">
<polygon fill="white" stroke="black" points="152,-0.5 152,-28.5 268,-28.5 268,-0.5 152,-0.5"/>
<text text-anchor="start" x="160" y="-17.3" font-family="Helvetica,sans-Serif" font-size="9.00">mappel::Gauss1DModel</text>
<text text-anchor="middle" x="210" y="-7.3" font-family="Helvetica,sans-Serif" font-size="9.00">::pixel_model_value</text>
</a>
</g>
</g>
<!-- Node1&#45;&gt;Node7 -->
<g id="edge7" class="edge"><title>Node1&#45;&gt;Node7</title>
<path fill="none" stroke="midnightblue" d="M77.1963,-107.452C94.6922,-87.3653 122.732,-57.9499 152,-38.5 157.544,-34.8155 163.747,-31.508 169.963,-28.6109"/>
<polygon fill="midnightblue" stroke="midnightblue" points="74.4318,-105.299 70.5894,-115.173 79.7504,-109.851 74.4318,-105.299"/>
</g>
<!-- Node3&#45;&gt;Node4 -->
<g id="edge3" class="edge"><title>Node3&#45;&gt;Node4</title>
<path fill="none" stroke="midnightblue" d="M278.033,-184.668C286.54,-183.421 295.186,-182.153 303.525,-180.93"/>
<polygon fill="midnightblue" stroke="midnightblue" points="277.523,-181.206 268.136,-186.12 278.539,-188.132 277.523,-181.206"/>
</g>
</g>
</svg>
