<?xml version="1.0" encoding="UTF-8" standalone="no"?>
<!DOCTYPE svg PUBLIC "-//W3C//DTD SVG 1.1//EN"
 "http://www.w3.org/Graphics/SVG/1.1/DTD/svg11.dtd">
<!-- Generated by graphviz version 2.38.0 (20140413.2041)
 -->
<!-- Title: mappel::Estimator::estimate_max_stack Pages: 1 -->
<svg width="553pt" height="37pt"
 viewBox="0.00 0.00 553.00 37.00" xmlns="http://www.w3.org/2000/svg" xmlns:xlink="http://www.w3.org/1999/xlink">
<g id="graph0" class="graph" transform="scale(1 1) rotate(0) translate(4 33)">
<title>mappel::Estimator::estimate_max_stack</title>
<polygon fill="white" stroke="none" points="-4,4 -4,-33 549,-33 549,4 -4,4"/>
<!-- Node1 -->
<g id="node1" class="node"><title>Node1</title>
<polygon fill="#bfbfbf" stroke="black" points="0,-0.5 0,-28.5 100,-28.5 100,-0.5 0,-0.5"/>
<text text-anchor="start" x="8" y="-17.3" font-family="Helvetica,sans-Serif" font-size="9.00">mappel::Estimator::</text>
<text text-anchor="middle" x="50" y="-7.3" font-family="Helvetica,sans-Serif" font-size="9.00">estimate_max_stack</text>
</g>
<!-- Node2 -->
<g id="node2" class="node"><title>Node2</title>
<g id="a_node2"><a xlink:href="namespacemappel_1_1methods_1_1openmp.html#aaf30517efe932ae2e79b740658c1e63e" target="_top" xlink:title="mappel::methods::openmp\l::estimate_max_stack">
<polygon fill="white" stroke="black" points="136,-0.5 136,-28.5 261,-28.5 261,-0.5 136,-0.5"/>
<text text-anchor="start" x="144" y="-17.3" font-family="Helvetica,sans-Serif" font-size="9.00">mappel::methods::openmp</text>
<text text-anchor="middle" x="198.5" y="-7.3" font-family="Helvetica,sans-Serif" font-size="9.00">::estimate_max_stack</text>
</a>
</g>
</g>
<!-- Node1&#45;&gt;Node2 -->
<g id="edge1" class="edge"><title>Node1&#45;&gt;Node2</title>
<path fill="none" stroke="midnightblue" d="M100.19,-14.5C108.435,-14.5 117.137,-14.5 125.811,-14.5"/>
<polygon fill="midnightblue" stroke="midnightblue" points="125.95,-18.0001 135.95,-14.5 125.95,-11.0001 125.95,-18.0001"/>
</g>
<!-- Node3 -->
<g id="node3" class="node"><title>Node3</title>
<g id="a_node3"><a xlink:href="namespacemappel_1_1methods.html#a0f47a66f366b6e5841f1224e839ed828" target="_top" xlink:title="mappel::methods::make\l_estimator">
<polygon fill="white" stroke="black" points="297,-0.5 297,-28.5 411,-28.5 411,-0.5 297,-0.5"/>
<text text-anchor="start" x="305" y="-17.3" font-family="Helvetica,sans-Serif" font-size="9.00">mappel::methods::make</text>
<text text-anchor="middle" x="354" y="-7.3" font-family="Helvetica,sans-Serif" font-size="9.00">_estimator</text>
</a>
</g>
</g>
<!-- Node2&#45;&gt;Node3 -->
<g id="edge2" class="edge"><title>Node2&#45;&gt;Node3</title>
<path fill="none" stroke="midnightblue" d="M261.05,-14.5C269.47,-14.5 278.145,-14.5 286.646,-14.5"/>
<polygon fill="midnightblue" stroke="midnightblue" points="286.901,-18.0001 296.901,-14.5 286.901,-11.0001 286.901,-18.0001"/>
</g>
<!-- Node4 -->
<g id="node4" class="node"><title>Node4</title>
<g id="a_node4"><a xlink:href="namespacemappel.html#a610296a93ba507763bc770d39049f323" target="_top" xlink:title="mappel::istarts_with">
<polygon fill="white" stroke="black" points="447,-5.5 447,-23.5 545,-23.5 545,-5.5 447,-5.5"/>
<text text-anchor="middle" x="496" y="-12.3" font-family="Helvetica,sans-Serif" font-size="9.00">mappel::istarts_with</text>
</a>
</g>
</g>
<!-- Node3&#45;&gt;Node4 -->
<g id="edge3" class="edge"><title>Node3&#45;&gt;Node4</title>
<path fill="none" stroke="midnightblue" d="M411.137,-14.5C419.574,-14.5 428.29,-14.5 436.77,-14.5"/>
<polygon fill="midnightblue" stroke="midnightblue" points="436.961,-18.0001 446.961,-14.5 436.961,-11.0001 436.961,-18.0001"/>
</g>
</g>
</svg>
