<?xml version="1.0" encoding="UTF-8" standalone="no"?>
<!DOCTYPE svg PUBLIC "-//W3C//DTD SVG 1.1//EN"
 "http://www.w3.org/Graphics/SVG/1.1/DTD/svg11.dtd">
<!-- Generated by graphviz version 2.38.0 (20140413.2041)
 -->
<!-- Title: mappel::Gauss2DsModel::get_stats Pages: 1 -->
<svg width="811pt" height="251pt"
 viewBox="0.00 0.00 811.00 251.00" xmlns="http://www.w3.org/2000/svg" xmlns:xlink="http://www.w3.org/1999/xlink">
<g id="graph0" class="graph" transform="scale(1 1) rotate(0) translate(4 247)">
<title>mappel::Gauss2DsModel::get_stats</title>
<polygon fill="white" stroke="none" points="-4,4 -4,-247 807,-247 807,4 -4,4"/>
<!-- Node1 -->
<g id="node1" class="node"><title>Node1</title>
<polygon fill="#bfbfbf" stroke="black" points="0,-115.5 0,-143.5 120,-143.5 120,-115.5 0,-115.5"/>
<text text-anchor="start" x="8" y="-132.3" font-family="Helvetica,sans-Serif" font-size="9.00">mappel::Gauss2DsModel</text>
<text text-anchor="middle" x="60" y="-122.3" font-family="Helvetica,sans-Serif" font-size="9.00">::get_stats</text>
</g>
<!-- Node2 -->
<g id="node2" class="node"><title>Node2</title>
<g id="a_node2"><a xlink:href="classmappel_1_1Gauss2DsModel.html#a11f03c648095b6d7dd5c38c3a5eca2dc" target="_top" xlink:title="mappel::Gauss2DsModel\l::get_max_sigma">
<polygon fill="white" stroke="black" points="165.5,-180.5 165.5,-208.5 285.5,-208.5 285.5,-180.5 165.5,-180.5"/>
<text text-anchor="start" x="173.5" y="-197.3" font-family="Helvetica,sans-Serif" font-size="9.00">mappel::Gauss2DsModel</text>
<text text-anchor="middle" x="225.5" y="-187.3" font-family="Helvetica,sans-Serif" font-size="9.00">::get_max_sigma</text>
</a>
</g>
</g>
<!-- Node1&#45;&gt;Node2 -->
<g id="edge1" class="edge"><title>Node1&#45;&gt;Node2</title>
<path fill="none" stroke="midnightblue" d="M96.4771,-143.604C120.902,-153.314 153.544,-166.291 179.754,-176.711"/>
<polygon fill="midnightblue" stroke="midnightblue" points="178.507,-179.982 189.092,-180.423 181.093,-173.477 178.507,-179.982"/>
</g>
<!-- Node3 -->
<g id="node3" class="node"><title>Node3</title>
<g id="a_node3"><a xlink:href="classmappel_1_1Gauss2DsModel.html#a46da2752c2d1ca376b72d910818e47ae" target="_top" xlink:title="mappel::Gauss2DsModel\l::get_max_sigma_ratio">
<polygon fill="white" stroke="black" points="340.5,-214.5 340.5,-242.5 460.5,-242.5 460.5,-214.5 340.5,-214.5"/>
<text text-anchor="start" x="348.5" y="-231.3" font-family="Helvetica,sans-Serif" font-size="9.00">mappel::Gauss2DsModel</text>
<text text-anchor="middle" x="400.5" y="-221.3" font-family="Helvetica,sans-Serif" font-size="9.00">::get_max_sigma_ratio</text>
</a>
</g>
</g>
<!-- Node1&#45;&gt;Node3 -->
<g id="edge5" class="edge"><title>Node1&#45;&gt;Node3</title>
<path fill="none" stroke="midnightblue" d="M70.7156,-143.525C86.0531,-164.324 118.066,-202.599 156,-218.5 211.306,-241.683 280.012,-242.26 330.327,-238.157"/>
<polygon fill="midnightblue" stroke="midnightblue" points="330.807,-241.628 340.454,-237.249 330.181,-234.657 330.807,-241.628"/>
</g>
<!-- Node5 -->
<g id="node5" class="node"><title>Node5</title>
<g id="a_node5"><a xlink:href="classmappel_1_1Gauss2DsModel.html#af93a5f984a97e23ae1d371c980e48a41" target="_top" xlink:title="mappel::Gauss2DsModel\l::get_min_sigma">
<polygon fill="white" stroke="black" points="340.5,-158.5 340.5,-186.5 460.5,-186.5 460.5,-158.5 340.5,-158.5"/>
<text text-anchor="start" x="348.5" y="-175.3" font-family="Helvetica,sans-Serif" font-size="9.00">mappel::Gauss2DsModel</text>
<text text-anchor="middle" x="400.5" y="-165.3" font-family="Helvetica,sans-Serif" font-size="9.00">::get_min_sigma</text>
</a>
</g>
</g>
<!-- Node1&#45;&gt;Node5 -->
<g id="edge6" class="edge"><title>Node1&#45;&gt;Node5</title>
<path fill="none" stroke="midnightblue" d="M120.35,-137.039C178.903,-144.477 268.374,-155.843 330.166,-163.692"/>
<polygon fill="midnightblue" stroke="midnightblue" points="329.857,-167.181 340.219,-164.969 330.739,-160.237 329.857,-167.181"/>
</g>
<!-- Node6 -->
<g id="node6" class="node"><title>Node6</title>
<g id="a_node6"><a xlink:href="classmappel_1_1MCMCAdaptor2Ds.html#adc76529ede19684c1deacbeb8205fd8a" target="_top" xlink:title="mappel::MCMCAdaptor2Ds\l::get_stats">
<polygon fill="white" stroke="black" points="161,-94.5 161,-122.5 290,-122.5 290,-94.5 161,-94.5"/>
<text text-anchor="start" x="169" y="-111.3" font-family="Helvetica,sans-Serif" font-size="9.00">mappel::MCMCAdaptor2Ds</text>
<text text-anchor="middle" x="225.5" y="-101.3" font-family="Helvetica,sans-Serif" font-size="9.00">::get_stats</text>
</a>
</g>
</g>
<!-- Node1&#45;&gt;Node6 -->
<g id="edge7" class="edge"><title>Node1&#45;&gt;Node6</title>
<path fill="none" stroke="midnightblue" d="M120.027,-121.919C129.975,-120.641 140.41,-119.301 150.676,-117.982"/>
<polygon fill="midnightblue" stroke="midnightblue" points="151.39,-121.419 160.862,-116.674 150.498,-114.476 151.39,-121.419"/>
</g>
<!-- Node10 -->
<g id="node10" class="node"><title>Node10</title>
<g id="a_node10"><a xlink:href="classmappel_1_1ImageFormat2DBase.html#a1a1e1178943bee139617b6c25e5104f1" target="_top" xlink:title="mappel::ImageFormat2DBase\l::get_stats">
<polygon fill="white" stroke="black" points="156,-47.5 156,-75.5 295,-75.5 295,-47.5 156,-47.5"/>
<text text-anchor="start" x="164" y="-64.3" font-family="Helvetica,sans-Serif" font-size="9.00">mappel::ImageFormat2DBase</text>
<text text-anchor="middle" x="225.5" y="-54.3" font-family="Helvetica,sans-Serif" font-size="9.00">::get_stats</text>
</a>
</g>
</g>
<!-- Node1&#45;&gt;Node10 -->
<g id="edge11" class="edge"><title>Node1&#45;&gt;Node10</title>
<path fill="none" stroke="midnightblue" d="M88.4663,-115.428C107.234,-106.078 132.811,-93.8471 156,-84.5 160.68,-82.6138 165.579,-80.7526 170.515,-78.955"/>
<polygon fill="midnightblue" stroke="midnightblue" points="171.749,-82.231 180.002,-75.5869 169.407,-75.6345 171.749,-82.231"/>
</g>
<!-- Node12 -->
<g id="node12" class="node"><title>Node12</title>
<g id="a_node12"><a xlink:href="classmappel_1_1PointEmitterModel.html#a7fd2b4b01b10bb6a493a39eb72d480cb" target="_top" xlink:title="mappel::PointEmitterModel\l::get_stats">
<polygon fill="white" stroke="black" points="162,-0.5 162,-28.5 289,-28.5 289,-0.5 162,-0.5"/>
<text text-anchor="start" x="170" y="-17.3" font-family="Helvetica,sans-Serif" font-size="9.00">mappel::PointEmitterModel</text>
<text text-anchor="middle" x="225.5" y="-7.3" font-family="Helvetica,sans-Serif" font-size="9.00">::get_stats</text>
</a>
</g>
</g>
<!-- Node1&#45;&gt;Node12 -->
<g id="edge13" class="edge"><title>Node1&#45;&gt;Node12</title>
<path fill="none" stroke="midnightblue" d="M72.0849,-115.336C88.434,-95.3309 120.892,-58.8634 156,-37.5 158.786,-35.8045 161.713,-34.2162 164.724,-32.7307"/>
<polygon fill="midnightblue" stroke="midnightblue" points="166.265,-35.8752 173.947,-28.5787 163.391,-29.4921 166.265,-35.8752"/>
</g>
<!-- Node2&#45;&gt;Node3 -->
<g id="edge2" class="edge"><title>Node2&#45;&gt;Node3</title>
<path fill="none" stroke="midnightblue" d="M285.553,-206.106C299.948,-208.935 315.475,-211.986 330.295,-214.899"/>
<polygon fill="midnightblue" stroke="midnightblue" points="329.932,-218.395 340.42,-216.889 331.282,-211.526 329.932,-218.395"/>
</g>
<!-- Node2&#45;&gt;Node5 -->
<g id="edge4" class="edge"><title>Node2&#45;&gt;Node5</title>
<path fill="none" stroke="midnightblue" d="M285.553,-186.99C299.948,-185.16 315.475,-183.185 330.295,-181.301"/>
<polygon fill="midnightblue" stroke="midnightblue" points="330.941,-184.747 340.42,-180.013 330.058,-177.803 330.941,-184.747"/>
</g>
<!-- Node4 -->
<g id="node4" class="node"><title>Node4</title>
<g id="a_node4"><a xlink:href="classmappel_1_1PointEmitterModel.html#a0dfb473c48d177a4540d328abb03cd55" target="_top" xlink:title="mappel::PointEmitterModel\l::get_ubound">
<polygon fill="white" stroke="black" points="506,-214.5 506,-242.5 633,-242.5 633,-214.5 506,-214.5"/>
<text text-anchor="start" x="514" y="-231.3" font-family="Helvetica,sans-Serif" font-size="9.00">mappel::PointEmitterModel</text>
<text text-anchor="middle" x="569.5" y="-221.3" font-family="Helvetica,sans-Serif" font-size="9.00">::get_ubound</text>
</a>
</g>
</g>
<!-- Node3&#45;&gt;Node4 -->
<g id="edge3" class="edge"><title>Node3&#45;&gt;Node4</title>
<path fill="none" stroke="midnightblue" d="M460.848,-228.5C472.16,-228.5 484.119,-228.5 495.791,-228.5"/>
<polygon fill="midnightblue" stroke="midnightblue" points="495.952,-232 505.952,-228.5 495.952,-225 495.952,-232"/>
</g>
<!-- Node7 -->
<g id="node7" class="node"><title>Node7</title>
<g id="a_node7"><a xlink:href="classmappel_1_1MCMCAdaptor2D.html#a69362d28411ba7a8ac8d4b9c95335e44" target="_top" xlink:title="mappel::MCMCAdaptor2D\l::get_stats">
<polygon fill="white" stroke="black" points="338,-94.5 338,-122.5 463,-122.5 463,-94.5 338,-94.5"/>
<text text-anchor="start" x="346" y="-111.3" font-family="Helvetica,sans-Serif" font-size="9.00">mappel::MCMCAdaptor2D</text>
<text text-anchor="middle" x="400.5" y="-101.3" font-family="Helvetica,sans-Serif" font-size="9.00">::get_stats</text>
</a>
</g>
</g>
<!-- Node6&#45;&gt;Node7 -->
<g id="edge8" class="edge"><title>Node6&#45;&gt;Node7</title>
<path fill="none" stroke="midnightblue" d="M290.427,-108.5C302.534,-108.5 315.275,-108.5 327.608,-108.5"/>
<polygon fill="midnightblue" stroke="midnightblue" points="327.849,-112 337.849,-108.5 327.849,-105 327.849,-112"/>
</g>
<!-- Node8 -->
<g id="node8" class="node"><title>Node8</title>
<g id="a_node8"><a xlink:href="classmappel_1_1MCMCAdaptor1D.html#ad1cb677abb1a3e214c2f6fc1e1c3cb86" target="_top" xlink:title="mappel::MCMCAdaptor1D\l::get_stats">
<polygon fill="white" stroke="black" points="507,-94.5 507,-122.5 632,-122.5 632,-94.5 507,-94.5"/>
<text text-anchor="start" x="515" y="-111.3" font-family="Helvetica,sans-Serif" font-size="9.00">mappel::MCMCAdaptor1D</text>
<text text-anchor="middle" x="569.5" y="-101.3" font-family="Helvetica,sans-Serif" font-size="9.00">::get_stats</text>
</a>
</g>
</g>
<!-- Node7&#45;&gt;Node8 -->
<g id="edge9" class="edge"><title>Node7&#45;&gt;Node8</title>
<path fill="none" stroke="midnightblue" d="M463.21,-108.5C474.094,-108.5 485.509,-108.5 496.643,-108.5"/>
<polygon fill="midnightblue" stroke="midnightblue" points="496.765,-112 506.765,-108.5 496.765,-105 496.765,-112"/>
</g>
<!-- Node9 -->
<g id="node9" class="node"><title>Node9</title>
<g id="a_node9"><a xlink:href="classmappel_1_1MCMCAdaptorBase.html#ad6054973528dfad89976882cdb50aba5" target="_top" xlink:title="mappel::MCMCAdaptorBase\l::get_stats">
<polygon fill="white" stroke="black" points="669,-94.5 669,-122.5 803,-122.5 803,-94.5 669,-94.5"/>
<text text-anchor="start" x="677" y="-111.3" font-family="Helvetica,sans-Serif" font-size="9.00">mappel::MCMCAdaptorBase</text>
<text text-anchor="middle" x="736" y="-101.3" font-family="Helvetica,sans-Serif" font-size="9.00">::get_stats</text>
</a>
</g>
</g>
<!-- Node8&#45;&gt;Node9 -->
<g id="edge10" class="edge"><title>Node8&#45;&gt;Node9</title>
<path fill="none" stroke="midnightblue" d="M632.222,-108.5C640.806,-108.5 649.708,-108.5 658.522,-108.5"/>
<polygon fill="midnightblue" stroke="midnightblue" points="658.804,-112 668.804,-108.5 658.804,-105 658.804,-112"/>
</g>
<!-- Node11 -->
<g id="node11" class="node"><title>Node11</title>
<g id="a_node11"><a xlink:href="classmappel_1_1ImageFormat2DBase.html#a4f9e0d332462ff53678c03700666a564" target="_top" xlink:title="mappel::ImageFormat2DBase\l::get_num_pixels">
<polygon fill="white" stroke="black" points="331,-47.5 331,-75.5 470,-75.5 470,-47.5 331,-47.5"/>
<text text-anchor="start" x="339" y="-64.3" font-family="Helvetica,sans-Serif" font-size="9.00">mappel::ImageFormat2DBase</text>
<text text-anchor="middle" x="400.5" y="-54.3" font-family="Helvetica,sans-Serif" font-size="9.00">::get_num_pixels</text>
</a>
</g>
</g>
<!-- Node10&#45;&gt;Node11 -->
<g id="edge12" class="edge"><title>Node10&#45;&gt;Node11</title>
<path fill="none" stroke="midnightblue" d="M295.371,-61.5C303.678,-61.5 312.211,-61.5 320.647,-61.5"/>
<polygon fill="midnightblue" stroke="midnightblue" points="320.866,-65.0001 330.866,-61.5 320.866,-58.0001 320.866,-65.0001"/>
</g>
</g>
</svg>
