<?xml version="1.0" encoding="UTF-8" standalone="no"?>
<!DOCTYPE svg PUBLIC "-//W3C//DTD SVG 1.1//EN"
 "http://www.w3.org/Graphics/SVG/1.1/DTD/svg11.dtd">
<!-- Generated by graphviz version 2.38.0 (20140413.2041)
 -->
<!-- Title: mappel::IterativeMaximizer::record_run_statistics Pages: 1 -->
<svg width="298pt" height="131pt"
 viewBox="0.00 0.00 298.00 131.00" xmlns="http://www.w3.org/2000/svg" xmlns:xlink="http://www.w3.org/1999/xlink">
<g id="graph0" class="graph" transform="scale(1 1) rotate(0) translate(4 127)">
<title>mappel::IterativeMaximizer::record_run_statistics</title>
<polygon fill="white" stroke="none" points="-4,4 -4,-127 294,-127 294,4 -4,4"/>
<!-- Node1 -->
<g id="node1" class="node"><title>Node1</title>
<polygon fill="#bfbfbf" stroke="black" points="0,-47.5 0,-75.5 126,-75.5 126,-47.5 0,-47.5"/>
<text text-anchor="start" x="8" y="-64.3" font-family="Helvetica,sans-Serif" font-size="9.00">mappel::IterativeMaximizer</text>
<text text-anchor="middle" x="63" y="-54.3" font-family="Helvetica,sans-Serif" font-size="9.00">::record_run_statistics</text>
</g>
<!-- Node2 -->
<g id="node2" class="node"><title>Node2</title>
<g id="a_node2"><a xlink:href="classmappel_1_1IterativeMaximizer.html#ad83f7b0a5b4d412f419b6089e73a66e0" target="_top" xlink:title="mappel::IterativeMaximizer\l::compute_estimate">
<polygon fill="white" stroke="black" points="163,-94.5 163,-122.5 289,-122.5 289,-94.5 163,-94.5"/>
<text text-anchor="start" x="171" y="-111.3" font-family="Helvetica,sans-Serif" font-size="9.00">mappel::IterativeMaximizer</text>
<text text-anchor="middle" x="226" y="-101.3" font-family="Helvetica,sans-Serif" font-size="9.00">::compute_estimate</text>
</a>
</g>
</g>
<!-- Node1&#45;&gt;Node2 -->
<g id="edge1" class="edge"><title>Node1&#45;&gt;Node2</title>
<path fill="none" stroke="midnightblue" d="M122.119,-78.4663C140.129,-83.7241 159.764,-89.4558 177.006,-94.4894"/>
<polygon fill="midnightblue" stroke="midnightblue" points="122.885,-75.0441 112.305,-75.6015 120.924,-81.7637 122.885,-75.0441"/>
</g>
<!-- Node3 -->
<g id="node3" class="node"><title>Node3</title>
<g id="a_node3"><a xlink:href="classmappel_1_1IterativeMaximizer.html#aa45c11a399f29985fc9bd3365e809335" target="_top" xlink:title="mappel::IterativeMaximizer\l::compute_estimate_debug">
<polygon fill="white" stroke="black" points="162,-47.5 162,-75.5 290,-75.5 290,-47.5 162,-47.5"/>
<text text-anchor="start" x="170" y="-64.3" font-family="Helvetica,sans-Serif" font-size="9.00">mappel::IterativeMaximizer</text>
<text text-anchor="middle" x="226" y="-54.3" font-family="Helvetica,sans-Serif" font-size="9.00">::compute_estimate_debug</text>
</a>
</g>
</g>
<!-- Node1&#45;&gt;Node3 -->
<g id="edge2" class="edge"><title>Node1&#45;&gt;Node3</title>
<path fill="none" stroke="midnightblue" d="M136.486,-61.5C144.95,-61.5 153.533,-61.5 161.856,-61.5"/>
<polygon fill="midnightblue" stroke="midnightblue" points="136.247,-58.0001 126.247,-61.5 136.247,-65.0001 136.247,-58.0001"/>
</g>
<!-- Node4 -->
<g id="node4" class="node"><title>Node4</title>
<g id="a_node4"><a xlink:href="classmappel_1_1IterativeMaximizer.html#a1999fd1fa63c803b3aad87695fc82843" target="_top" xlink:title="mappel::IterativeMaximizer\l::compute_profile_estimate">
<polygon fill="white" stroke="black" points="162.5,-0.5 162.5,-28.5 289.5,-28.5 289.5,-0.5 162.5,-0.5"/>
<text text-anchor="start" x="170.5" y="-17.3" font-family="Helvetica,sans-Serif" font-size="9.00">mappel::IterativeMaximizer</text>
<text text-anchor="middle" x="226" y="-7.3" font-family="Helvetica,sans-Serif" font-size="9.00">::compute_profile_estimate</text>
</a>
</g>
</g>
<!-- Node1&#45;&gt;Node4 -->
<g id="edge3" class="edge"><title>Node1&#45;&gt;Node4</title>
<path fill="none" stroke="midnightblue" d="M122.119,-44.5337C140.129,-39.2759 159.764,-33.5442 177.006,-28.5106"/>
<polygon fill="midnightblue" stroke="midnightblue" points="120.924,-41.2363 112.305,-47.3985 122.885,-47.9559 120.924,-41.2363"/>
</g>
</g>
</svg>
