<?xml version="1.0" encoding="UTF-8" standalone="no"?>
<!DOCTYPE svg PUBLIC "-//W3C//DTD SVG 1.1//EN"
 "http://www.w3.org/Graphics/SVG/1.1/DTD/svg11.dtd">
<!-- Generated by graphviz version 2.38.0 (20140413.2041)
 -->
<!-- Title: mappel::IterativeMaximizer::compute_estimate Pages: 1 -->
<!--zoomable 319 -->
<svg id="main" version="1.1" xmlns="http://www.w3.org/2000/svg" xmlns:xlink="http://www.w3.org/1999/xlink" xml:space="preserve" onload="init(evt)">
<style type="text/css"><![CDATA[
.edge:hover path { stroke: red; }
.edge:hover polygon { stroke: red; fill: red; }
]]></style>
<script type="text/javascript"><![CDATA[
var edges = document.getElementsByTagName('g');
if (edges && edges.length) {
  for (var i=0;i<edges.length;i++) {
    if (edges[i].id.substr(0,4)=='edge') {
      edges[i].setAttribute('class','edge');
    }
  }
}
]]></script>
        <defs>
                <circle id="rim" cx="0" cy="0" r="7"/>
                <circle id="rim2" cx="0" cy="0" r="3.5"/>
                <g id="zoomPlus">
                        <use xlink:href="#rim" fill="#404040">
                                <set attributeName="fill" to="#808080" begin="zoomplus.mouseover" end="zoomplus.mouseout"/>
                        </use>
                        <path d="M-4,0h8M0,-4v8" fill="none" stroke="white" stroke-width="1.5" pointer-events="none"/>
                </g>
                <g id="zoomMin">
                        <use xlink:href="#rim" fill="#404040">
                                <set attributeName="fill" to="#808080" begin="zoomminus.mouseover" end="zoomminus.mouseout"/>
                        </use>
                        <path d="M-4,0h8" fill="none" stroke="white" stroke-width="1.5" pointer-events="none"/>
                </g>
                <g id="dirArrow">
                        <path fill="none" stroke="white" stroke-width="1.5" d="M0,-3.0v7 M-2.5,-0.5L0,-3.0L2.5,-0.5"/>
                </g>
               <g id="resetDef">
                       <use xlink:href="#rim2" fill="#404040">
                               <set attributeName="fill" to="#808080" begin="reset.mouseover" end="reset.mouseout"/>
                       </use>
               </g>
        </defs>

<script type="text/javascript">
var viewWidth = 652;
var viewHeight = 319;
var sectionId = 'dynsection-6';
</script>
<script xlink:href="svgpan.js"/>
<svg id="graph" class="graph">
<g id="viewport">
<title>mappel::IterativeMaximizer::compute_estimate</title>
<polygon fill="white" stroke="none" points="-4,4 -4,-315 648,-315 648,4 -4,4"/>
<!-- Node1 -->
<g id="node1" class="node"><title>Node1</title>
<polygon fill="#bfbfbf" stroke="black" points="0,-141.5 0,-169.5 126,-169.5 126,-141.5 0,-141.5"/>
<text text-anchor="start" x="8" y="-158.3" font-family="Helvetica,sans-Serif" font-size="9.00">mappel::IterativeMaximizer</text>
<text text-anchor="middle" x="63" y="-148.3" font-family="Helvetica,sans-Serif" font-size="9.00">::compute_estimate</text>
</g>
<!-- Node2 -->
<g id="node2" class="node"><title>Node2</title>
<g id="a_node2"><a xlink:href="classmappel_1_1IterativeMaximizer_1_1MaximizerData.html#aade1d8879a22dff77c2707b379b2203e" target="_top" xlink:title="Return the saved theta sequence. ">
<polygon fill="white" stroke="black" points="165.5,-272.5 165.5,-310.5 291.5,-310.5 291.5,-272.5 165.5,-272.5"/>
<text text-anchor="start" x="173.5" y="-299.3" font-family="Helvetica,sans-Serif" font-size="9.00">mappel::IterativeMaximizer</text>
<text text-anchor="start" x="173.5" y="-289.3" font-family="Helvetica,sans-Serif" font-size="9.00">::MaximizerData::get_theta</text>
<text text-anchor="middle" x="228.5" y="-279.3" font-family="Helvetica,sans-Serif" font-size="9.00">_sequence</text>
</a>
</g>
</g>
<!-- Node1&#45;&gt;Node2 -->
<g id="edge1" class="edge"><title>Node1&#45;&gt;Node2</title>
<path fill="none" stroke="midnightblue" d="M73.6295,-169.543C89.6596,-192.025 123.849,-236.325 162,-263.5 163.841,-264.812 165.754,-266.079 167.718,-267.301"/>
<polygon fill="midnightblue" stroke="midnightblue" points="166.178,-270.452 176.598,-272.372 169.649,-264.374 166.178,-270.452"/>
</g>
<!-- Node3 -->
<g id="node3" class="node"><title>Node3</title>
<g id="a_node3"><a xlink:href="classmappel_1_1IterativeMaximizer.html#a4d05ed89de53e6e73f2f13bef30862ec" target="_top" xlink:title="mappel::IterativeMaximizer\l::maximize">
<polygon fill="white" stroke="black" points="165.5,-225.5 165.5,-253.5 291.5,-253.5 291.5,-225.5 165.5,-225.5"/>
<text text-anchor="start" x="173.5" y="-242.3" font-family="Helvetica,sans-Serif" font-size="9.00">mappel::IterativeMaximizer</text>
<text text-anchor="middle" x="228.5" y="-232.3" font-family="Helvetica,sans-Serif" font-size="9.00">::maximize</text>
</a>
</g>
</g>
<!-- Node1&#45;&gt;Node3 -->
<g id="edge2" class="edge"><title>Node1&#45;&gt;Node3</title>
<path fill="none" stroke="midnightblue" d="M83.9046,-169.707C103.199,-183.033 133.631,-202.893 162,-216.5 165.79,-218.318 169.763,-220.067 173.798,-221.733"/>
<polygon fill="midnightblue" stroke="midnightblue" points="172.685,-225.056 183.272,-225.461 175.249,-218.542 172.685,-225.056"/>
</g>
<!-- Node4 -->
<g id="node4" class="node"><title>Node4</title>
<g id="a_node4"><a xlink:href="namespacemappel.html#a846ffe01da2a5333d847cbb7845861e8" target="_top" xlink:title="mappel::print_image">
<polygon fill="white" stroke="black" points="178,-188.5 178,-206.5 279,-206.5 279,-188.5 178,-188.5"/>
<text text-anchor="middle" x="228.5" y="-195.3" font-family="Helvetica,sans-Serif" font-size="9.00">mappel::print_image</text>
</a>
</g>
</g>
<!-- Node1&#45;&gt;Node4 -->
<g id="edge3" class="edge"><title>Node1&#45;&gt;Node4</title>
<path fill="none" stroke="midnightblue" d="M118.898,-169.602C139.438,-174.879 162.522,-180.808 182.109,-185.84"/>
<polygon fill="midnightblue" stroke="midnightblue" points="181.445,-189.283 192.001,-188.381 183.186,-182.503 181.445,-189.283"/>
</g>
<!-- Node7 -->
<g id="node7" class="node"><title>Node7</title>
<g id="a_node7"><a xlink:href="classmappel_1_1IterativeMaximizer_1_1MaximizerData.html#af2e61c659a8cc78365bd801026c2f6a9" target="_top" xlink:title="mappel::IterativeMaximizer\l::MaximizerData::record_exit">
<polygon fill="white" stroke="black" points="162,-141.5 162,-169.5 295,-169.5 295,-141.5 162,-141.5"/>
<text text-anchor="start" x="170" y="-158.3" font-family="Helvetica,sans-Serif" font-size="9.00">mappel::IterativeMaximizer</text>
<text text-anchor="middle" x="228.5" y="-148.3" font-family="Helvetica,sans-Serif" font-size="9.00">::MaximizerData::record_exit</text>
</a>
</g>
</g>
<!-- Node1&#45;&gt;Node7 -->
<g id="edge6" class="edge"><title>Node1&#45;&gt;Node7</title>
<path fill="none" stroke="midnightblue" d="M126.279,-155.5C134.555,-155.5 143.114,-155.5 151.589,-155.5"/>
<polygon fill="midnightblue" stroke="midnightblue" points="151.86,-159 161.86,-155.5 151.86,-152 151.86,-159"/>
</g>
<!-- Node8 -->
<g id="node8" class="node"><title>Node8</title>
<g id="a_node8"><a xlink:href="classmappel_1_1IterativeMaximizer.html#af5614c292f139b5032b733a8d6fdf73e" target="_top" xlink:title="mappel::IterativeMaximizer\l::record_run_statistics">
<polygon fill="white" stroke="black" points="165.5,-94.5 165.5,-122.5 291.5,-122.5 291.5,-94.5 165.5,-94.5"/>
<text text-anchor="start" x="173.5" y="-111.3" font-family="Helvetica,sans-Serif" font-size="9.00">mappel::IterativeMaximizer</text>
<text text-anchor="middle" x="228.5" y="-101.3" font-family="Helvetica,sans-Serif" font-size="9.00">::record_run_statistics</text>
</a>
</g>
</g>
<!-- Node1&#45;&gt;Node8 -->
<g id="edge7" class="edge"><title>Node1&#45;&gt;Node8</title>
<path fill="none" stroke="midnightblue" d="M113.055,-141.398C130.676,-136.333 150.724,-130.57 169.063,-125.298"/>
<polygon fill="midnightblue" stroke="midnightblue" points="170.117,-128.637 178.761,-122.511 168.183,-121.91 170.117,-128.637"/>
</g>
<!-- Node10 -->
<g id="node10" class="node"><title>Node10</title>
<g id="a_node10"><a xlink:href="classmappel_1_1IterativeMaximizer_1_1MaximizerData.html#a29ccc1aa8e5ecf505f4ca76f6b8b214e" target="_top" xlink:title="Get the current stencil. ">
<polygon fill="white" stroke="black" points="165.5,-47.5 165.5,-75.5 291.5,-75.5 291.5,-47.5 165.5,-47.5"/>
<text text-anchor="start" x="173.5" y="-64.3" font-family="Helvetica,sans-Serif" font-size="9.00">mappel::IterativeMaximizer</text>
<text text-anchor="middle" x="228.5" y="-54.3" font-family="Helvetica,sans-Serif" font-size="9.00">::MaximizerData::stencil</text>
</a>
</g>
</g>
<!-- Node1&#45;&gt;Node10 -->
<g id="edge9" class="edge"><title>Node1&#45;&gt;Node10</title>
<path fill="none" stroke="midnightblue" d="M80.7807,-141.359C99.5992,-126.03 131.492,-101.606 162,-85.5 166.025,-83.3753 170.279,-81.3573 174.609,-79.4603"/>
<polygon fill="midnightblue" stroke="midnightblue" points="176.251,-82.5685 184.149,-75.5066 173.571,-76.1019 176.251,-82.5685"/>
</g>
<!-- Node11 -->
<g id="node11" class="node"><title>Node11</title>
<g id="a_node11"><a xlink:href="classmappel_1_1IterativeMaximizer_1_1MaximizerData.html#ac6ed5231a1ac2f4bfdd51a2800212fea" target="_top" xlink:title="Get the current stencil&#39;s theta. ">
<polygon fill="white" stroke="black" points="165.5,-0.5 165.5,-28.5 291.5,-28.5 291.5,-0.5 165.5,-0.5"/>
<text text-anchor="start" x="173.5" y="-17.3" font-family="Helvetica,sans-Serif" font-size="9.00">mappel::IterativeMaximizer</text>
<text text-anchor="middle" x="228.5" y="-7.3" font-family="Helvetica,sans-Serif" font-size="9.00">::MaximizerData::theta</text>
</a>
</g>
</g>
<!-- Node1&#45;&gt;Node11 -->
<g id="edge10" class="edge"><title>Node1&#45;&gt;Node11</title>
<path fill="none" stroke="midnightblue" d="M72.4423,-141.181C87.4934,-116.811 121.238,-67.1337 162,-38.5 164.725,-36.5856 167.621,-34.8055 170.619,-33.153"/>
<polygon fill="midnightblue" stroke="midnightblue" points="172.449,-36.1519 179.851,-28.5715 169.338,-29.8815 172.449,-36.1519"/>
</g>
<!-- Node5 -->
<g id="node5" class="node"><title>Node5</title>
<g id="a_node5"><a xlink:href="namespacemappel.html#ab2dadb64b79f80c01086ce2c3d42e642" target="_top" xlink:title="mappel::print_labeled\l_image">
<polygon fill="white" stroke="black" points="361,-183.5 361,-211.5 467,-211.5 467,-183.5 361,-183.5"/>
<text text-anchor="start" x="369" y="-200.3" font-family="Helvetica,sans-Serif" font-size="9.00">mappel::print_labeled</text>
<text text-anchor="middle" x="414" y="-190.3" font-family="Helvetica,sans-Serif" font-size="9.00">_image</text>
</a>
</g>
</g>
<!-- Node4&#45;&gt;Node5 -->
<g id="edge4" class="edge"><title>Node4&#45;&gt;Node5</title>
<path fill="none" stroke="midnightblue" d="M279.158,-197.5C301.163,-197.5 327.292,-197.5 350.598,-197.5"/>
<polygon fill="midnightblue" stroke="midnightblue" points="350.737,-201 360.737,-197.5 350.737,-194 350.737,-201"/>
</g>
<!-- Node6 -->
<g id="node6" class="node"><title>Node6</title>
<g id="a_node6"><a xlink:href="namespacemappel.html#a88fc8fe46dcf69cc0e0861d2f6f28a4e" target="_top" xlink:title="mappel::print_centered\l_title">
<polygon fill="white" stroke="black" points="533,-183.5 533,-211.5 644,-211.5 644,-183.5 533,-183.5"/>
<text text-anchor="start" x="541" y="-200.3" font-family="Helvetica,sans-Serif" font-size="9.00">mappel::print_centered</text>
<text text-anchor="middle" x="588.5" y="-190.3" font-family="Helvetica,sans-Serif" font-size="9.00">_title</text>
</a>
</g>
</g>
<!-- Node5&#45;&gt;Node6 -->
<g id="edge5" class="edge"><title>Node5&#45;&gt;Node6</title>
<path fill="none" stroke="midnightblue" d="M467.224,-197.5C484.711,-197.5 504.42,-197.5 522.746,-197.5"/>
<polygon fill="midnightblue" stroke="midnightblue" points="522.762,-201 532.762,-197.5 522.762,-194 522.762,-201"/>
</g>
<!-- Node9 -->
<g id="node9" class="node"><title>Node9</title>
<g id="a_node9"><a xlink:href="classmappel_1_1IterativeMaximizer_1_1MaximizerData.html#ac9d06c390f911f733c3912dbdcbae954" target="_top" xlink:title="mappel::IterativeMaximizer\l::MaximizerData::get_backtrack_idxs">
<polygon fill="white" stroke="black" points="331,-94.5 331,-122.5 497,-122.5 497,-94.5 331,-94.5"/>
<text text-anchor="start" x="339" y="-111.3" font-family="Helvetica,sans-Serif" font-size="9.00">mappel::IterativeMaximizer</text>
<text text-anchor="middle" x="414" y="-101.3" font-family="Helvetica,sans-Serif" font-size="9.00">::MaximizerData::get_backtrack_idxs</text>
</a>
</g>
</g>
<!-- Node8&#45;&gt;Node9 -->
<g id="edge8" class="edge"><title>Node8&#45;&gt;Node9</title>
<path fill="none" stroke="midnightblue" d="M291.625,-108.5C300.962,-108.5 310.758,-108.5 320.564,-108.5"/>
<polygon fill="midnightblue" stroke="midnightblue" points="320.769,-112 330.769,-108.5 320.769,-105 320.769,-112"/>
</g>
</g>
</svg>
        <g id="navigator" transform="translate(0 0)" fill="#404254">
                <rect fill="#f2f5e9" fill-opacity="0.5" stroke="#606060" stroke-width=".5" x="0" y="0" width="60" height="60"/>
                <use id="zoomplus" xlink:href="#zoomPlus" x="17" y="9" onmousedown="handleZoom(evt,'in')"/>
                <use id="zoomminus" xlink:href="#zoomMin" x="42" y="9" onmousedown="handleZoom(evt,'out')"/>
                <use id="reset" xlink:href="#resetDef" x="30" y="36" onmousedown="handleReset()"/>
                <g id="arrowUp" xlink:href="#dirArrow" transform="translate(30 24)" onmousedown="handlePan(0,-1)">
                  <use xlink:href="#rim" fill="#404040">
                        <set attributeName="fill" to="#808080" begin="arrowUp.mouseover" end="arrowUp.mouseout"/>
                  </use>
                  <path fill="none" stroke="white" stroke-width="1.5" d="M0,-3.0v7 M-2.5,-0.5L0,-3.0L2.5,-0.5"/>
                </g>
                <g id="arrowRight" xlink:href="#dirArrow" transform="rotate(90) translate(36 -43)" onmousedown="handlePan(1,0)">
                  <use xlink:href="#rim" fill="#404040">
                        <set attributeName="fill" to="#808080" begin="arrowRight.mouseover" end="arrowRight.mouseout"/>
                  </use>
                  <path fill="none" stroke="white" stroke-width="1.5" d="M0,-3.0v7 M-2.5,-0.5L0,-3.0L2.5,-0.5"/>
                </g>
                <g id="arrowDown" xlink:href="#dirArrow" transform="rotate(180) translate(-30 -48)" onmousedown="handlePan(0,1)">
                  <use xlink:href="#rim" fill="#404040">
                        <set attributeName="fill" to="#808080" begin="arrowDown.mouseover" end="arrowDown.mouseout"/>
                  </use>
                  <path fill="none" stroke="white" stroke-width="1.5" d="M0,-3.0v7 M-2.5,-0.5L0,-3.0L2.5,-0.5"/>
                </g>
                <g id="arrowLeft" xlink:href="#dirArrow" transform="rotate(270) translate(-36 17)" onmousedown="handlePan(-1,0)">
                  <use xlink:href="#rim" fill="#404040">
                        <set attributeName="fill" to="#808080" begin="arrowLeft.mouseover" end="arrowLeft.mouseout"/>
                  </use>
                  <path fill="none" stroke="white" stroke-width="1.5" d="M0,-3.0v7 M-2.5,-0.5L0,-3.0L2.5,-0.5"/>
                </g>
        </g>
        <svg viewBox="0 0 15 15" width="100%" height="30px" preserveAspectRatio="xMaxYMin meet">
         <g id="arrow_out" transform="scale(0.3 0.3)">
          <a xlink:href="classmappel_1_1IterativeMaximizer_ad83f7b0a5b4d412f419b6089e73a66e0_cgraph_org.svg" target="_base">
           <rect id="button" ry="5" rx="5" y="6" x="6" height="38" width="38"
                fill="#f2f5e9" fill-opacity="0.5" stroke="#606060" stroke-width="1.0"/>
           <path id="arrow"
             d="M 11.500037,31.436501 C 11.940474,20.09759 22.043105,11.32322 32.158766,21.979434 L 37.068811,17.246167 C 37.068811,17.246167 37.088388,32 37.088388,32 L 22.160133,31.978069 C 22.160133,31.978069 26.997745,27.140456 26.997745,27.140456 C 18.528582,18.264221 13.291696,25.230495 11.500037,31.436501 z"
             style="fill:#404040;"/>
          </a>
         </g>
        </svg>
</svg>
