<?xml version="1.0" encoding="UTF-8" standalone="no"?>
<!DOCTYPE svg PUBLIC "-//W3C//DTD SVG 1.1//EN"
 "http://www.w3.org/Graphics/SVG/1.1/DTD/svg11.dtd">
<!-- Generated by graphviz version 2.38.0 (20140413.2041)
 -->
<!-- Title: mappel::Estimator::get_stats Pages: 1 -->
<!--zoomable 168 -->
<svg id="main" version="1.1" xmlns="http://www.w3.org/2000/svg" xmlns:xlink="http://www.w3.org/1999/xlink" xml:space="preserve" onload="init(evt)">
<style type="text/css"><![CDATA[
.edge:hover path { stroke: red; }
.edge:hover polygon { stroke: red; fill: red; }
]]></style>
<script type="text/javascript"><![CDATA[
var edges = document.getElementsByTagName('g');
if (edges && edges.length) {
  for (var i=0;i<edges.length;i++) {
    if (edges[i].id.substr(0,4)=='edge') {
      edges[i].setAttribute('class','edge');
    }
  }
}
]]></script>
        <defs>
                <circle id="rim" cx="0" cy="0" r="7"/>
                <circle id="rim2" cx="0" cy="0" r="3.5"/>
                <g id="zoomPlus">
                        <use xlink:href="#rim" fill="#404040">
                                <set attributeName="fill" to="#808080" begin="zoomplus.mouseover" end="zoomplus.mouseout"/>
                        </use>
                        <path d="M-4,0h8M0,-4v8" fill="none" stroke="white" stroke-width="1.5" pointer-events="none"/>
                </g>
                <g id="zoomMin">
                        <use xlink:href="#rim" fill="#404040">
                                <set attributeName="fill" to="#808080" begin="zoomminus.mouseover" end="zoomminus.mouseout"/>
                        </use>
                        <path d="M-4,0h8" fill="none" stroke="white" stroke-width="1.5" pointer-events="none"/>
                </g>
                <g id="dirArrow">
                        <path fill="none" stroke="white" stroke-width="1.5" d="M0,-3.0v7 M-2.5,-0.5L0,-3.0L2.5,-0.5"/>
                </g>
               <g id="resetDef">
                       <use xlink:href="#rim2" fill="#404040">
                               <set attributeName="fill" to="#808080" begin="reset.mouseover" end="reset.mouseout"/>
                       </use>
               </g>
        </defs>

<script type="text/javascript">
var viewWidth = 597;
var viewHeight = 168;
var sectionId = 'dynsection-20';
</script>
<script xlink:href="svgpan.js"/>
<svg id="graph" class="graph">
<g id="viewport">
<title>mappel::Estimator::get_stats</title>
<polygon fill="white" stroke="none" points="-4,4 -4,-164 593,-164 593,4 -4,4"/>
<!-- Node1 -->
<g id="node1" class="node"><title>Node1</title>
<polygon fill="#bfbfbf" stroke="black" points="0,-63.5 0,-91.5 95,-91.5 95,-63.5 0,-63.5"/>
<text text-anchor="start" x="8" y="-80.3" font-family="Helvetica,sans-Serif" font-size="9.00">mappel::Estimator::</text>
<text text-anchor="middle" x="47.5" y="-70.3" font-family="Helvetica,sans-Serif" font-size="9.00">get_stats</text>
</g>
<!-- Node2 -->
<g id="node2" class="node"><title>Node2</title>
<g id="a_node2"><a xlink:href="classmappel_1_1CGaussMLE.html#a97e3a62d35af1279dc29a8b2bfbf8b32" target="_top" xlink:title="mappel::CGaussMLE::\lCGaussMLE">
<polygon fill="white" stroke="black" points="142,-131.5 142,-159.5 250,-159.5 250,-131.5 142,-131.5"/>
<text text-anchor="start" x="150" y="-148.3" font-family="Helvetica,sans-Serif" font-size="9.00">mappel::CGaussMLE::</text>
<text text-anchor="middle" x="196" y="-138.3" font-family="Helvetica,sans-Serif" font-size="9.00">CGaussMLE</text>
</a>
</g>
</g>
<!-- Node1&#45;&gt;Node2 -->
<g id="edge1" class="edge"><title>Node1&#45;&gt;Node2</title>
<path fill="none" stroke="midnightblue" d="M81.0462,-96.7644C95.9929,-105.215 114.115,-114.916 131,-122.5 138.001,-125.645 145.572,-128.675 152.974,-131.447"/>
<polygon fill="midnightblue" stroke="midnightblue" points="82.6069,-93.625 72.1895,-91.694 79.129,-99.6999 82.6069,-93.625"/>
</g>
<!-- Node3 -->
<g id="node3" class="node"><title>Node3</title>
<g id="a_node3"><a xlink:href="classmappel_1_1ThreadedEstimator.html#ab216e13ec19785839bc73caf7fac1c91" target="_top" xlink:title="mappel::ThreadedEstimator\l::get_stats">
<polygon fill="white" stroke="black" points="131,-84.5 131,-112.5 261,-112.5 261,-84.5 131,-84.5"/>
<text text-anchor="start" x="139" y="-101.3" font-family="Helvetica,sans-Serif" font-size="9.00">mappel::ThreadedEstimator</text>
<text text-anchor="middle" x="196" y="-91.3" font-family="Helvetica,sans-Serif" font-size="9.00">::get_stats</text>
</a>
</g>
</g>
<!-- Node1&#45;&gt;Node3 -->
<g id="edge2" class="edge"><title>Node1&#45;&gt;Node3</title>
<path fill="none" stroke="midnightblue" d="M105.272,-85.638C113.632,-86.8363 122.294,-88.0779 130.79,-89.2959"/>
<polygon fill="midnightblue" stroke="midnightblue" points="105.652,-82.1567 95.2563,-84.2023 104.658,-89.0859 105.652,-82.1567"/>
</g>
<!-- Node9 -->
<g id="node9" class="node"><title>Node9</title>
<g id="a_node9"><a xlink:href="namespacemappel.html#a4d47cff4f8160c609b643f7a0b021ddd" target="_top" xlink:title="mappel::operator\&lt;\&lt;">
<polygon fill="white" stroke="black" points="147.5,-47.5 147.5,-65.5 244.5,-65.5 244.5,-47.5 147.5,-47.5"/>
<text text-anchor="middle" x="196" y="-54.3" font-family="Helvetica,sans-Serif" font-size="9.00">mappel::operator&lt;&lt;</text>
</a>
</g>
</g>
<!-- Node1&#45;&gt;Node9 -->
<g id="edge8" class="edge"><title>Node1&#45;&gt;Node9</title>
<path fill="none" stroke="midnightblue" d="M105.231,-69.3679C119.177,-67.3688 133.966,-65.2488 147.43,-63.3189"/>
<polygon fill="midnightblue" stroke="midnightblue" points="104.658,-65.9141 95.2563,-70.7977 105.652,-72.8433 104.658,-65.9141"/>
</g>
<!-- Node10 -->
<g id="node10" class="node"><title>Node10</title>
<g id="a_node10"><a xlink:href="classmappel_1_1Estimator.html#a629823fa91d4b461b2b1f607d588e558" target="_top" xlink:title="mappel::Estimator::\l~Estimator">
<polygon fill="white" stroke="black" points="148.5,-0.5 148.5,-28.5 243.5,-28.5 243.5,-0.5 148.5,-0.5"/>
<text text-anchor="start" x="156.5" y="-17.3" font-family="Helvetica,sans-Serif" font-size="9.00">mappel::Estimator::</text>
<text text-anchor="middle" x="196" y="-7.3" font-family="Helvetica,sans-Serif" font-size="9.00">~Estimator</text>
</a>
</g>
</g>
<!-- Node1&#45;&gt;Node10 -->
<g id="edge9" class="edge"><title>Node1&#45;&gt;Node10</title>
<path fill="none" stroke="midnightblue" d="M84.6689,-58.9322C98.9473,-51.875 115.594,-43.9813 131,-37.5 138.292,-34.4324 146.15,-31.3951 153.78,-28.5823"/>
<polygon fill="midnightblue" stroke="midnightblue" points="83.0496,-55.8286 75.6648,-63.4257 86.1754,-62.092 83.0496,-55.8286"/>
</g>
<!-- Node4 -->
<g id="node4" class="node"><title>Node4</title>
<g id="a_node4"><a xlink:href="classmappel_1_1ThreadedEstimator.html#ab281b131d160352ee949dd33d49cf55e" target="_top" xlink:title="mappel::ThreadedEstimator\l::get_debug_stats">
<polygon fill="white" stroke="black" points="297,-131.5 297,-159.5 427,-159.5 427,-131.5 297,-131.5"/>
<text text-anchor="start" x="305" y="-148.3" font-family="Helvetica,sans-Serif" font-size="9.00">mappel::ThreadedEstimator</text>
<text text-anchor="middle" x="362" y="-138.3" font-family="Helvetica,sans-Serif" font-size="9.00">::get_debug_stats</text>
</a>
</g>
</g>
<!-- Node3&#45;&gt;Node4 -->
<g id="edge3" class="edge"><title>Node3&#45;&gt;Node4</title>
<path fill="none" stroke="midnightblue" d="M255.947,-115.393C274.363,-120.671 294.467,-126.433 312.112,-131.489"/>
<polygon fill="midnightblue" stroke="midnightblue" points="256.783,-111.992 246.205,-112.602 254.854,-118.721 256.783,-111.992"/>
</g>
<!-- Node5 -->
<g id="node5" class="node"><title>Node5</title>
<g id="a_node5"><a xlink:href="classmappel_1_1CGaussMLE.html#aafbdebb21652be135801911007d3568b" target="_top" xlink:title="mappel::CGaussMLE::\lget_stats">
<polygon fill="white" stroke="black" points="308,-84.5 308,-112.5 416,-112.5 416,-84.5 308,-84.5"/>
<text text-anchor="start" x="316" y="-101.3" font-family="Helvetica,sans-Serif" font-size="9.00">mappel::CGaussMLE::</text>
<text text-anchor="middle" x="362" y="-91.3" font-family="Helvetica,sans-Serif" font-size="9.00">get_stats</text>
</a>
</g>
</g>
<!-- Node3&#45;&gt;Node5 -->
<g id="edge4" class="edge"><title>Node3&#45;&gt;Node5</title>
<path fill="none" stroke="midnightblue" d="M271.577,-98.5C283.848,-98.5 296.342,-98.5 307.949,-98.5"/>
<polygon fill="midnightblue" stroke="midnightblue" points="271.346,-95.0001 261.346,-98.5 271.346,-102 271.346,-95.0001"/>
</g>
<!-- Node7 -->
<g id="node7" class="node"><title>Node7</title>
<g id="a_node7"><a xlink:href="classmappel_1_1IterativeMaximizer.html#a22783dc49fb4fd6e754b0d0ee161c543" target="_top" xlink:title="mappel::IterativeMaximizer\l::get_stats">
<polygon fill="white" stroke="black" points="299,-37.5 299,-65.5 425,-65.5 425,-37.5 299,-37.5"/>
<text text-anchor="start" x="307" y="-54.3" font-family="Helvetica,sans-Serif" font-size="9.00">mappel::IterativeMaximizer</text>
<text text-anchor="middle" x="362" y="-44.3" font-family="Helvetica,sans-Serif" font-size="9.00">::get_stats</text>
</a>
</g>
</g>
<!-- Node3&#45;&gt;Node7 -->
<g id="edge6" class="edge"><title>Node3&#45;&gt;Node7</title>
<path fill="none" stroke="midnightblue" d="M255.947,-81.6067C274.363,-76.329 294.467,-70.5675 312.112,-65.5106"/>
<polygon fill="midnightblue" stroke="midnightblue" points="254.854,-78.2789 246.205,-84.3985 256.783,-85.008 254.854,-78.2789"/>
</g>
<!-- Node6 -->
<g id="node6" class="node"><title>Node6</title>
<g id="a_node6"><a xlink:href="classmappel_1_1CGaussMLE.html#aaff3681877cb75e6776be5325adcfea0" target="_top" xlink:title="mappel::CGaussMLE::\lget_debug_stats">
<polygon fill="white" stroke="black" points="472,-84.5 472,-112.5 580,-112.5 580,-84.5 472,-84.5"/>
<text text-anchor="start" x="480" y="-101.3" font-family="Helvetica,sans-Serif" font-size="9.00">mappel::CGaussMLE::</text>
<text text-anchor="middle" x="526" y="-91.3" font-family="Helvetica,sans-Serif" font-size="9.00">get_debug_stats</text>
</a>
</g>
</g>
<!-- Node5&#45;&gt;Node6 -->
<g id="edge5" class="edge"><title>Node5&#45;&gt;Node6</title>
<path fill="none" stroke="midnightblue" d="M426.306,-98.5C441.366,-98.5 457.283,-98.5 471.836,-98.5"/>
<polygon fill="midnightblue" stroke="midnightblue" points="426.045,-95.0001 416.045,-98.5 426.045,-102 426.045,-95.0001"/>
</g>
<!-- Node8 -->
<g id="node8" class="node"><title>Node8</title>
<g id="a_node8"><a xlink:href="classmappel_1_1IterativeMaximizer.html#a1d9c29b69f468200a90bcd68adfb5643" target="_top" xlink:title="mappel::IterativeMaximizer\l::get_debug_stats">
<polygon fill="white" stroke="black" points="463,-37.5 463,-65.5 589,-65.5 589,-37.5 463,-37.5"/>
<text text-anchor="start" x="471" y="-54.3" font-family="Helvetica,sans-Serif" font-size="9.00">mappel::IterativeMaximizer</text>
<text text-anchor="middle" x="526" y="-44.3" font-family="Helvetica,sans-Serif" font-size="9.00">::get_debug_stats</text>
</a>
</g>
</g>
<!-- Node7&#45;&gt;Node8 -->
<g id="edge7" class="edge"><title>Node7&#45;&gt;Node8</title>
<path fill="none" stroke="midnightblue" d="M435.458,-51.5C444.65,-51.5 453.989,-51.5 462.996,-51.5"/>
<polygon fill="midnightblue" stroke="midnightblue" points="435.17,-48.0001 425.17,-51.5 435.17,-55.0001 435.17,-48.0001"/>
</g>
</g>
</svg>
        <g id="navigator" transform="translate(0 0)" fill="#404254">
                <rect fill="#f2f5e9" fill-opacity="0.5" stroke="#606060" stroke-width=".5" x="0" y="0" width="60" height="60"/>
                <use id="zoomplus" xlink:href="#zoomPlus" x="17" y="9" onmousedown="handleZoom(evt,'in')"/>
                <use id="zoomminus" xlink:href="#zoomMin" x="42" y="9" onmousedown="handleZoom(evt,'out')"/>
                <use id="reset" xlink:href="#resetDef" x="30" y="36" onmousedown="handleReset()"/>
                <g id="arrowUp" xlink:href="#dirArrow" transform="translate(30 24)" onmousedown="handlePan(0,-1)">
                  <use xlink:href="#rim" fill="#404040">
                        <set attributeName="fill" to="#808080" begin="arrowUp.mouseover" end="arrowUp.mouseout"/>
                  </use>
                  <path fill="none" stroke="white" stroke-width="1.5" d="M0,-3.0v7 M-2.5,-0.5L0,-3.0L2.5,-0.5"/>
                </g>
                <g id="arrowRight" xlink:href="#dirArrow" transform="rotate(90) translate(36 -43)" onmousedown="handlePan(1,0)">
                  <use xlink:href="#rim" fill="#404040">
                        <set attributeName="fill" to="#808080" begin="arrowRight.mouseover" end="arrowRight.mouseout"/>
                  </use>
                  <path fill="none" stroke="white" stroke-width="1.5" d="M0,-3.0v7 M-2.5,-0.5L0,-3.0L2.5,-0.5"/>
                </g>
                <g id="arrowDown" xlink:href="#dirArrow" transform="rotate(180) translate(-30 -48)" onmousedown="handlePan(0,1)">
                  <use xlink:href="#rim" fill="#404040">
                        <set attributeName="fill" to="#808080" begin="arrowDown.mouseover" end="arrowDown.mouseout"/>
                  </use>
                  <path fill="none" stroke="white" stroke-width="1.5" d="M0,-3.0v7 M-2.5,-0.5L0,-3.0L2.5,-0.5"/>
                </g>
                <g id="arrowLeft" xlink:href="#dirArrow" transform="rotate(270) translate(-36 17)" onmousedown="handlePan(-1,0)">
                  <use xlink:href="#rim" fill="#404040">
                        <set attributeName="fill" to="#808080" begin="arrowLeft.mouseover" end="arrowLeft.mouseout"/>
                  </use>
                  <path fill="none" stroke="white" stroke-width="1.5" d="M0,-3.0v7 M-2.5,-0.5L0,-3.0L2.5,-0.5"/>
                </g>
        </g>
        <svg viewBox="0 0 15 15" width="100%" height="30px" preserveAspectRatio="xMaxYMin meet">
         <g id="arrow_out" transform="scale(0.3 0.3)">
          <a xlink:href="classmappel_1_1Estimator_a876af9a1a1a6bf174c63716f3348d735_icgraph_org.svg" target="_base">
           <rect id="button" ry="5" rx="5" y="6" x="6" height="38" width="38"
                fill="#f2f5e9" fill-opacity="0.5" stroke="#606060" stroke-width="1.0"/>
           <path id="arrow"
             d="M 11.500037,31.436501 C 11.940474,20.09759 22.043105,11.32322 32.158766,21.979434 L 37.068811,17.246167 C 37.068811,17.246167 37.088388,32 37.088388,32 L 22.160133,31.978069 C 22.160133,31.978069 26.997745,27.140456 26.997745,27.140456 C 18.528582,18.264221 13.291696,25.230495 11.500037,31.436501 z"
             style="fill:#404040;"/>
          </a>
         </g>
        </svg>
</svg>
