<?xml version="1.0" encoding="UTF-8" standalone="no"?>
<!DOCTYPE svg PUBLIC "-//W3C//DTD SVG 1.1//EN"
 "http://www.w3.org/Graphics/SVG/1.1/DTD/svg11.dtd">
<!-- Generated by graphviz version 2.38.0 (20140413.2041)
 -->
<!-- Title: mappel::Gauss2DModel::Stencil::Stencil Pages: 1 -->
<svg width="732pt" height="269pt"
 viewBox="0.00 0.00 732.00 269.00" xmlns="http://www.w3.org/2000/svg" xmlns:xlink="http://www.w3.org/1999/xlink">
<g id="graph0" class="graph" transform="scale(1 1) rotate(0) translate(4 265)">
<title>mappel::Gauss2DModel::Stencil::Stencil</title>
<polygon fill="white" stroke="none" points="-4,4 -4,-265 728,-265 728,4 -4,4"/>
<!-- Node1 -->
<g id="node1" class="node"><title>Node1</title>
<polygon fill="#bfbfbf" stroke="black" points="0,-89.5 0,-117.5 116,-117.5 116,-89.5 0,-89.5"/>
<text text-anchor="start" x="8" y="-106.3" font-family="Helvetica,sans-Serif" font-size="9.00">mappel::Gauss2DModel</text>
<text text-anchor="middle" x="58" y="-96.3" font-family="Helvetica,sans-Serif" font-size="9.00">::Stencil::Stencil</text>
</g>
<!-- Node2 -->
<g id="node2" class="node"><title>Node2</title>
<g id="a_node2"><a xlink:href="classmappel_1_1Gauss2DModel_1_1Stencil.html#aa454ad18859be0dcc48f5de8982c7ba7" target="_top" xlink:title="mappel::Gauss2DModel\l::Stencil::compute_derivatives">
<polygon fill="white" stroke="black" points="152,-184.5 152,-212.5 290,-212.5 290,-184.5 152,-184.5"/>
<text text-anchor="start" x="160" y="-201.3" font-family="Helvetica,sans-Serif" font-size="9.00">mappel::Gauss2DModel</text>
<text text-anchor="middle" x="221" y="-191.3" font-family="Helvetica,sans-Serif" font-size="9.00">::Stencil::compute_derivatives</text>
</a>
</g>
</g>
<!-- Node1&#45;&gt;Node2 -->
<g id="edge1" class="edge"><title>Node1&#45;&gt;Node2</title>
<path fill="none" stroke="midnightblue" d="M82.6901,-117.531C101.479,-128.654 128.411,-144.587 152,-158.5 163.543,-165.308 176.196,-172.755 187.424,-179.358"/>
<polygon fill="midnightblue" stroke="midnightblue" points="185.68,-182.393 196.075,-184.445 189.228,-176.359 185.68,-182.393"/>
</g>
<!-- Node10 -->
<g id="node10" class="node"><title>Node10</title>
<g id="a_node10"><a xlink:href="namespacemappel.html#ac9d449b0121b33962da2c9c13cbb593c" target="_top" xlink:title="mappel::make_d_stencil">
<polygon fill="white" stroke="black" points="163,-131.5 163,-149.5 279,-149.5 279,-131.5 163,-131.5"/>
<text text-anchor="middle" x="221" y="-138.3" font-family="Helvetica,sans-Serif" font-size="9.00">mappel::make_d_stencil</text>
</a>
</g>
</g>
<!-- Node1&#45;&gt;Node10 -->
<g id="edge10" class="edge"><title>Node1&#45;&gt;Node10</title>
<path fill="none" stroke="midnightblue" d="M116.216,-116.649C134.047,-120.747 153.545,-125.228 170.779,-129.188"/>
<polygon fill="midnightblue" stroke="midnightblue" points="170.104,-132.624 180.634,-131.453 171.672,-125.802 170.104,-132.624"/>
</g>
<!-- Node12 -->
<g id="node12" class="node"><title>Node12</title>
<g id="a_node12"><a xlink:href="namespacemappel.html#a7b50d0a17c085d9b25b91c2b17ecb1cc" target="_top" xlink:title="mappel::make_X_stencil">
<polygon fill="white" stroke="black" points="162.5,-94.5 162.5,-112.5 279.5,-112.5 279.5,-94.5 162.5,-94.5"/>
<text text-anchor="middle" x="221" y="-101.3" font-family="Helvetica,sans-Serif" font-size="9.00">mappel::make_X_stencil</text>
</a>
</g>
</g>
<!-- Node1&#45;&gt;Node12 -->
<g id="edge12" class="edge"><title>Node1&#45;&gt;Node12</title>
<path fill="none" stroke="midnightblue" d="M116.216,-103.5C127.937,-103.5 140.38,-103.5 152.425,-103.5"/>
<polygon fill="midnightblue" stroke="midnightblue" points="152.426,-107 162.426,-103.5 152.426,-100 152.426,-107"/>
</g>
<!-- Node14 -->
<g id="node14" class="node"><title>Node14</title>
<g id="a_node14"><a xlink:href="classmappel_1_1Gauss2DModel_1_1Stencil.html#a01755bf64c87675ddd69958e65eb0bc3" target="_top" xlink:title="mappel::Gauss2DModel\l::Stencil::x">
<polygon fill="white" stroke="black" points="163,-47.5 163,-75.5 279,-75.5 279,-47.5 163,-47.5"/>
<text text-anchor="start" x="171" y="-64.3" font-family="Helvetica,sans-Serif" font-size="9.00">mappel::Gauss2DModel</text>
<text text-anchor="middle" x="221" y="-54.3" font-family="Helvetica,sans-Serif" font-size="9.00">::Stencil::x</text>
</a>
</g>
</g>
<!-- Node1&#45;&gt;Node14 -->
<g id="edge14" class="edge"><title>Node1&#45;&gt;Node14</title>
<path fill="none" stroke="midnightblue" d="M113.059,-89.3978C126.938,-85.777 141.998,-81.8484 156.315,-78.1135"/>
<polygon fill="midnightblue" stroke="midnightblue" points="157.291,-81.476 166.084,-75.565 155.524,-74.7026 157.291,-81.476"/>
</g>
<!-- Node15 -->
<g id="node15" class="node"><title>Node15</title>
<g id="a_node15"><a xlink:href="classmappel_1_1Gauss2DModel_1_1Stencil.html#a3c130702adb8ce884c35eef9bb4d510f" target="_top" xlink:title="mappel::Gauss2DModel\l::Stencil::y">
<polygon fill="white" stroke="black" points="163,-0.5 163,-28.5 279,-28.5 279,-0.5 163,-0.5"/>
<text text-anchor="start" x="171" y="-17.3" font-family="Helvetica,sans-Serif" font-size="9.00">mappel::Gauss2DModel</text>
<text text-anchor="middle" x="221" y="-7.3" font-family="Helvetica,sans-Serif" font-size="9.00">::Stencil::y</text>
</a>
</g>
</g>
<!-- Node1&#45;&gt;Node15 -->
<g id="edge15" class="edge"><title>Node1&#45;&gt;Node15</title>
<path fill="none" stroke="midnightblue" d="M75.8518,-89.2339C93.7758,-74.6322 123.429,-52.0735 152,-37.5 155.521,-35.7039 159.214,-33.9997 162.981,-32.3924"/>
<polygon fill="midnightblue" stroke="midnightblue" points="164.465,-35.5683 172.445,-28.599 161.861,-29.0708 164.465,-35.5683"/>
</g>
<!-- Node3 -->
<g id="node3" class="node"><title>Node3</title>
<g id="a_node3"><a xlink:href="namespacemappel.html#aa5c2f294298c875605ee1e9876b7d116" target="_top" xlink:title="mappel::make_G_stencil">
<polygon fill="white" stroke="black" points="332,-242.5 332,-260.5 450,-260.5 450,-242.5 332,-242.5"/>
<text text-anchor="middle" x="391" y="-249.3" font-family="Helvetica,sans-Serif" font-size="9.00">mappel::make_G_stencil</text>
</a>
</g>
</g>
<!-- Node2&#45;&gt;Node3 -->
<g id="edge2" class="edge"><title>Node2&#45;&gt;Node3</title>
<path fill="none" stroke="midnightblue" d="M262.346,-212.606C281.551,-219.185 304.884,-226.982 326,-233.5 332.669,-235.559 339.758,-237.649 346.697,-239.641"/>
<polygon fill="midnightblue" stroke="midnightblue" points="346.114,-243.114 356.689,-242.475 348.024,-236.379 346.114,-243.114"/>
</g>
<!-- Node6 -->
<g id="node6" class="node"><title>Node6</title>
<g id="a_node6"><a xlink:href="namespacemappel.html#a8da88490d6ff7d5886b96b66c1bab369" target="_top" xlink:title="mappel::make_DX_stencil">
<polygon fill="white" stroke="black" points="329,-205.5 329,-223.5 453,-223.5 453,-205.5 329,-205.5"/>
<text text-anchor="middle" x="391" y="-212.3" font-family="Helvetica,sans-Serif" font-size="9.00">mappel::make_DX_stencil</text>
</a>
</g>
</g>
<!-- Node2&#45;&gt;Node6 -->
<g id="edge5" class="edge"><title>Node2&#45;&gt;Node6</title>
<path fill="none" stroke="midnightblue" d="M290.332,-205.008C299.672,-205.897 309.28,-206.812 318.671,-207.707"/>
<polygon fill="midnightblue" stroke="midnightblue" points="318.467,-211.203 328.754,-208.667 319.131,-204.235 318.467,-211.203"/>
</g>
<!-- Node8 -->
<g id="node8" class="node"><title>Node8</title>
<g id="a_node8"><a xlink:href="namespacemappel.html#af7636db506977133c8b30d108fede711" target="_top" xlink:title="mappel::make_DXS_stencil">
<polygon fill="white" stroke="black" points="326,-168.5 326,-186.5 456,-186.5 456,-168.5 326,-168.5"/>
<text text-anchor="middle" x="391" y="-175.3" font-family="Helvetica,sans-Serif" font-size="9.00">mappel::make_DXS_stencil</text>
</a>
</g>
</g>
<!-- Node2&#45;&gt;Node8 -->
<g id="edge7" class="edge"><title>Node2&#45;&gt;Node8</title>
<path fill="none" stroke="midnightblue" d="M290.332,-189.958C298.663,-188.917 307.208,-187.849 315.622,-186.797"/>
<polygon fill="midnightblue" stroke="midnightblue" points="316.309,-190.239 325.797,-185.525 315.44,-183.293 316.309,-190.239"/>
</g>
<!-- Node4 -->
<g id="node4" class="node"><title>Node4</title>
<g id="a_node4"><a xlink:href="namespacemappel.html#a5ca82edc201e8605107a991493ad0d5e" target="_top" xlink:title="mappel::fill_G_stencil">
<polygon fill="white" stroke="black" points="498,-242.5 498,-260.5 602,-260.5 602,-242.5 498,-242.5"/>
<text text-anchor="middle" x="550" y="-249.3" font-family="Helvetica,sans-Serif" font-size="9.00">mappel::fill_G_stencil</text>
</a>
</g>
</g>
<!-- Node3&#45;&gt;Node4 -->
<g id="edge3" class="edge"><title>Node3&#45;&gt;Node4</title>
<path fill="none" stroke="midnightblue" d="M450.015,-251.5C462.299,-251.5 475.302,-251.5 487.703,-251.5"/>
<polygon fill="midnightblue" stroke="midnightblue" points="487.949,-255 497.949,-251.5 487.949,-248 487.949,-255"/>
</g>
<!-- Node5 -->
<g id="node5" class="node"><title>Node5</title>
<g id="a_node5"><a xlink:href="namespacemappel.html#a8475cdb3edacceb0ae215c3ebd1f33c1" target="_top" xlink:title="mappel::square">
<polygon fill="white" stroke="black" points="644,-205.5 644,-223.5 724,-223.5 724,-205.5 644,-205.5"/>
<text text-anchor="middle" x="684" y="-212.3" font-family="Helvetica,sans-Serif" font-size="9.00">mappel::square</text>
</a>
</g>
</g>
<!-- Node4&#45;&gt;Node5 -->
<g id="edge4" class="edge"><title>Node4&#45;&gt;Node5</title>
<path fill="none" stroke="midnightblue" d="M583.291,-242.449C600.63,-237.589 622.212,-231.539 640.858,-226.313"/>
<polygon fill="midnightblue" stroke="midnightblue" points="641.901,-229.655 650.585,-223.586 640.011,-222.915 641.901,-229.655"/>
</g>
<!-- Node7 -->
<g id="node7" class="node"><title>Node7</title>
<g id="a_node7"><a xlink:href="namespacemappel.html#ad2dd4330fc626fa673a3acf691d6b9a7" target="_top" xlink:title="mappel::fill_DX_stencil">
<polygon fill="white" stroke="black" points="495,-205.5 495,-223.5 605,-223.5 605,-205.5 495,-205.5"/>
<text text-anchor="middle" x="550" y="-212.3" font-family="Helvetica,sans-Serif" font-size="9.00">mappel::fill_DX_stencil</text>
</a>
</g>
</g>
<!-- Node6&#45;&gt;Node7 -->
<g id="edge6" class="edge"><title>Node6&#45;&gt;Node7</title>
<path fill="none" stroke="midnightblue" d="M453.15,-214.5C463.482,-214.5 474.236,-214.5 484.647,-214.5"/>
<polygon fill="midnightblue" stroke="midnightblue" points="484.915,-218 494.915,-214.5 484.915,-211 484.915,-218"/>
</g>
<!-- Node9 -->
<g id="node9" class="node"><title>Node9</title>
<g id="a_node9"><a xlink:href="namespacemappel.html#ab0cb62f6dcecae5ff19468d87a283e7a" target="_top" xlink:title="mappel::fill_DXS_stencil">
<polygon fill="white" stroke="black" points="492,-168.5 492,-186.5 608,-186.5 608,-168.5 492,-168.5"/>
<text text-anchor="middle" x="550" y="-175.3" font-family="Helvetica,sans-Serif" font-size="9.00">mappel::fill_DXS_stencil</text>
</a>
</g>
</g>
<!-- Node8&#45;&gt;Node9 -->
<g id="edge8" class="edge"><title>Node8&#45;&gt;Node9</title>
<path fill="none" stroke="midnightblue" d="M456.311,-177.5C464.619,-177.5 473.147,-177.5 481.504,-177.5"/>
<polygon fill="midnightblue" stroke="midnightblue" points="481.589,-181 491.589,-177.5 481.589,-174 481.589,-181"/>
</g>
<!-- Node9&#45;&gt;Node5 -->
<g id="edge9" class="edge"><title>Node9&#45;&gt;Node5</title>
<path fill="none" stroke="midnightblue" d="M583.291,-186.551C600.63,-191.411 622.212,-197.461 640.858,-202.687"/>
<polygon fill="midnightblue" stroke="midnightblue" points="640.011,-206.085 650.585,-205.414 641.901,-199.345 640.011,-206.085"/>
</g>
<!-- Node11 -->
<g id="node11" class="node"><title>Node11</title>
<g id="a_node11"><a xlink:href="namespacemappel.html#a0bd2fc62ed44e755a6777d1209fe6bac" target="_top" xlink:title="mappel::fill_d_stencil">
<polygon fill="white" stroke="black" points="339.5,-131.5 339.5,-149.5 442.5,-149.5 442.5,-131.5 339.5,-131.5"/>
<text text-anchor="middle" x="391" y="-138.3" font-family="Helvetica,sans-Serif" font-size="9.00">mappel::fill_d_stencil</text>
</a>
</g>
</g>
<!-- Node10&#45;&gt;Node11 -->
<g id="edge11" class="edge"><title>Node10&#45;&gt;Node11</title>
<path fill="none" stroke="midnightblue" d="M279.346,-140.5C295.331,-140.5 312.753,-140.5 328.943,-140.5"/>
<polygon fill="midnightblue" stroke="midnightblue" points="329.376,-144 339.376,-140.5 329.376,-137 329.376,-144"/>
</g>
<!-- Node13 -->
<g id="node13" class="node"><title>Node13</title>
<g id="a_node13"><a xlink:href="namespacemappel.html#ab6a11cd06ff348138cb04635b03a6de2" target="_top" xlink:title="mappel::fill_X_stencil">
<polygon fill="white" stroke="black" points="339,-94.5 339,-112.5 443,-112.5 443,-94.5 339,-94.5"/>
<text text-anchor="middle" x="391" y="-101.3" font-family="Helvetica,sans-Serif" font-size="9.00">mappel::fill_X_stencil</text>
</a>
</g>
</g>
<!-- Node12&#45;&gt;Node13 -->
<g id="edge13" class="edge"><title>Node12&#45;&gt;Node13</title>
<path fill="none" stroke="midnightblue" d="M279.816,-103.5C295.544,-103.5 312.632,-103.5 328.553,-103.5"/>
<polygon fill="midnightblue" stroke="midnightblue" points="328.821,-107 338.821,-103.5 328.821,-100 328.821,-107"/>
</g>
</g>
</svg>
