<?xml version="1.0" encoding="UTF-8" standalone="no"?>
<!DOCTYPE svg PUBLIC "-//W3C//DTD SVG 1.1//EN"
 "http://www.w3.org/Graphics/SVG/1.1/DTD/svg11.dtd">
<!-- Generated by graphviz version 2.38.0 (20140413.2041)
 -->
<!-- Title: mappel::MCMCAdaptor2Ds::MCMCAdaptor2Ds Pages: 1 -->
<svg width="307pt" height="37pt"
 viewBox="0.00 0.00 307.00 37.00" xmlns="http://www.w3.org/2000/svg" xmlns:xlink="http://www.w3.org/1999/xlink">
<g id="graph0" class="graph" transform="scale(1 1) rotate(0) translate(4 33)">
<title>mappel::MCMCAdaptor2Ds::MCMCAdaptor2Ds</title>
<polygon fill="white" stroke="none" points="-4,4 -4,-33 303,-33 303,4 -4,4"/>
<!-- Node1 -->
<g id="node1" class="node"><title>Node1</title>
<polygon fill="#bfbfbf" stroke="black" points="0,-0.5 0,-28.5 129,-28.5 129,-0.5 0,-0.5"/>
<text text-anchor="start" x="8" y="-17.3" font-family="Helvetica,sans-Serif" font-size="9.00">mappel::MCMCAdaptor2Ds</text>
<text text-anchor="middle" x="64.5" y="-7.3" font-family="Helvetica,sans-Serif" font-size="9.00">::MCMCAdaptor2Ds</text>
</g>
<!-- Node2 -->
<g id="node2" class="node"><title>Node2</title>
<g id="a_node2"><a xlink:href="classmappel_1_1MCMCAdaptorBase.html#ad6c75e327e8732abc2654492f372563a" target="_top" xlink:title="mappel::MCMCAdaptorBase\l::set_mcmc_num_phases">
<polygon fill="white" stroke="black" points="165,-0.5 165,-28.5 299,-28.5 299,-0.5 165,-0.5"/>
<text text-anchor="start" x="173" y="-17.3" font-family="Helvetica,sans-Serif" font-size="9.00">mappel::MCMCAdaptorBase</text>
<text text-anchor="middle" x="232" y="-7.3" font-family="Helvetica,sans-Serif" font-size="9.00">::set_mcmc_num_phases</text>
</a>
</g>
</g>
<!-- Node1&#45;&gt;Node2 -->
<g id="edge1" class="edge"><title>Node1&#45;&gt;Node2</title>
<path fill="none" stroke="midnightblue" d="M129.013,-14.5C137.465,-14.5 146.2,-14.5 154.839,-14.5"/>
<polygon fill="midnightblue" stroke="midnightblue" points="154.914,-18.0001 164.914,-14.5 154.914,-11.0001 154.914,-18.0001"/>
</g>
</g>
</svg>
