<?xml version="1.0" encoding="UTF-8" standalone="no"?>
<!DOCTYPE svg PUBLIC "-//W3C//DTD SVG 1.1//EN"
 "http://www.w3.org/Graphics/SVG/1.1/DTD/svg11.dtd">
<!-- Generated by graphviz version 2.38.0 (20140413.2041)
 -->
<!-- Title: mappel::Gauss1DMLE Pages: 1 -->
<svg width="422pt" height="192pt"
 viewBox="0.00 0.00 422.00 192.00" xmlns="http://www.w3.org/2000/svg" xmlns:xlink="http://www.w3.org/1999/xlink">
<g id="graph0" class="graph" transform="scale(1 1) rotate(0) translate(4 188)">
<title>mappel::Gauss1DMLE</title>
<polygon fill="white" stroke="none" points="-4,4 -4,-188 418,-188 418,4 -4,4"/>
<!-- Node1 -->
<g id="node1" class="node"><title>Node1</title>
<polygon fill="#bfbfbf" stroke="black" points="125,-0.5 125,-18.5 234,-18.5 234,-0.5 125,-0.5"/>
<text text-anchor="middle" x="179.5" y="-7.3" font-family="Helvetica,sans-Serif" font-size="9.00">mappel::Gauss1DMLE</text>
</g>
<!-- Node2 -->
<g id="node2" class="node"><title>Node2</title>
<g id="a_node2"><a xlink:href="classmappel_1_1Gauss1DModel.html" target="_top" xlink:title="A base class for 1D Gaussian PSF with a fixed sigma (standard dev.) ">
<polygon fill="white" stroke="black" points="121.5,-55.5 121.5,-73.5 237.5,-73.5 237.5,-55.5 121.5,-55.5"/>
<text text-anchor="middle" x="179.5" y="-62.3" font-family="Helvetica,sans-Serif" font-size="9.00">mappel::Gauss1DModel</text>
</a>
</g>
</g>
<!-- Node2&#45;&gt;Node1 -->
<g id="edge1" class="edge"><title>Node2&#45;&gt;Node1</title>
<path fill="none" stroke="midnightblue" d="M179.5,-45.1746C179.5,-36.0945 179.5,-25.5949 179.5,-18.5496"/>
<polygon fill="midnightblue" stroke="midnightblue" points="176,-45.2187 179.5,-55.2188 183,-45.2188 176,-45.2187"/>
</g>
<!-- Node3 -->
<g id="node3" class="node"><title>Node3</title>
<g id="a_node3"><a xlink:href="classmappel_1_1PointEmitterModel.html" target="_top" xlink:title="A virtual Base type for point emitter localization models. ">
<polygon fill="white" stroke="black" points="7,-165.5 7,-183.5 134,-183.5 134,-165.5 7,-165.5"/>
<text text-anchor="middle" x="70.5" y="-172.3" font-family="Helvetica,sans-Serif" font-size="9.00">mappel::PointEmitterModel</text>
</a>
</g>
</g>
<!-- Node3&#45;&gt;Node2 -->
<g id="edge2" class="edge"><title>Node3&#45;&gt;Node2</title>
<path fill="none" stroke="midnightblue" d="M78.1634,-156C84.77,-142.33 95.3177,-123.457 108.5,-110 124.075,-94.1003 146.394,-81.3106 161.832,-73.5928"/>
<polygon fill="midnightblue" stroke="midnightblue" points="74.9014,-154.716 73.9012,-165.264 81.2606,-157.642 74.9014,-154.716"/>
</g>
<!-- Node5 -->
<g id="node5" class="node"><title>Node5</title>
<g id="a_node5"><a xlink:href="classmappel_1_1MCMCAdaptor1D.html" target="_top" xlink:title="mappel::MCMCAdaptor1D">
<polygon fill="white" stroke="black" points="118,-110.5 118,-128.5 243,-128.5 243,-110.5 118,-110.5"/>
<text text-anchor="middle" x="180.5" y="-117.3" font-family="Helvetica,sans-Serif" font-size="9.00">mappel::MCMCAdaptor1D</text>
</a>
</g>
</g>
<!-- Node3&#45;&gt;Node5 -->
<g id="edge5" class="edge"><title>Node3&#45;&gt;Node5</title>
<path fill="none" stroke="midnightblue" d="M96.4172,-161.013C117.187,-151.005 145.725,-137.255 163.636,-128.625"/>
<polygon fill="midnightblue" stroke="midnightblue" points="94.6962,-157.957 87.2066,-165.45 97.7347,-164.263 94.6962,-157.957"/>
</g>
<!-- Node8 -->
<g id="node8" class="node"><title>Node8</title>
<g id="a_node8"><a xlink:href="classmappel_1_1MLEstimator.html" target="_top" xlink:title="A Mixin class to configure a for MLE estimation (null prior). ">
<polygon fill="white" stroke="black" points="0,-55.5 0,-73.5 103,-73.5 103,-55.5 0,-55.5"/>
<text text-anchor="middle" x="51.5" y="-62.3" font-family="Helvetica,sans-Serif" font-size="9.00">mappel::MLEstimator</text>
</a>
</g>
</g>
<!-- Node3&#45;&gt;Node8 -->
<g id="edge10" class="edge"><title>Node3&#45;&gt;Node8</title>
<path fill="none" stroke="midnightblue" d="M67.2882,-155.243C63.1098,-131.493 55.9855,-90.9967 52.9447,-73.7118"/>
<polygon fill="midnightblue" stroke="midnightblue" points="63.8921,-156.14 69.0719,-165.382 70.7862,-154.927 63.8921,-156.14"/>
</g>
<!-- Node4 -->
<g id="node4" class="node"><title>Node4</title>
<g id="a_node4"><a xlink:href="classmappel_1_1ImageFormat1DBase.html" target="_top" xlink:title="A virtual base class for 2D image localization objectives. ">
<polygon fill="white" stroke="black" points="263,-110.5 263,-128.5 402,-128.5 402,-110.5 263,-110.5"/>
<text text-anchor="middle" x="332.5" y="-117.3" font-family="Helvetica,sans-Serif" font-size="9.00">mappel::ImageFormat1DBase</text>
</a>
</g>
</g>
<!-- Node4&#45;&gt;Node2 -->
<g id="edge3" class="edge"><title>Node4&#45;&gt;Node2</title>
<path fill="none" stroke="midnightblue" d="M299.545,-107.084C270.455,-97.0074 228.77,-82.5675 202.956,-73.6253"/>
<polygon fill="midnightblue" stroke="midnightblue" points="298.668,-110.484 309.263,-110.45 300.959,-103.87 298.668,-110.484"/>
</g>
<!-- Node7 -->
<g id="node7" class="node"><title>Node7</title>
<g id="a_node7"><a xlink:href="classmappel_1_1PoissonNoise1DObjective.html" target="_top" xlink:title="A base class for 1D objectives with Poisson read noise. This objective function and its subclasses ar...">
<polygon fill="white" stroke="black" points="255,-55.5 255,-73.5 414,-73.5 414,-55.5 255,-55.5"/>
<text text-anchor="middle" x="334.5" y="-62.3" font-family="Helvetica,sans-Serif" font-size="9.00">mappel::PoissonNoise1DObjective</text>
</a>
</g>
</g>
<!-- Node4&#45;&gt;Node7 -->
<g id="edge8" class="edge"><title>Node4&#45;&gt;Node7</title>
<path fill="none" stroke="midnightblue" d="M333.192,-100.175C333.534,-91.0945 333.93,-80.5949 334.196,-73.5496"/>
<polygon fill="midnightblue" stroke="midnightblue" points="329.692,-100.094 332.812,-110.219 336.687,-100.358 329.692,-100.094"/>
</g>
<!-- Node5&#45;&gt;Node2 -->
<g id="edge4" class="edge"><title>Node5&#45;&gt;Node2</title>
<path fill="none" stroke="midnightblue" d="M180.154,-100.175C179.983,-91.0945 179.785,-80.5949 179.652,-73.5496"/>
<polygon fill="midnightblue" stroke="midnightblue" points="176.656,-100.287 180.344,-110.219 183.654,-100.154 176.656,-100.287"/>
</g>
<!-- Node6 -->
<g id="node6" class="node"><title>Node6</title>
<g id="a_node6"><a xlink:href="classmappel_1_1MCMCAdaptorBase.html" target="_top" xlink:title="mappel::MCMCAdaptorBase">
<polygon fill="white" stroke="black" points="152.5,-165.5 152.5,-183.5 286.5,-183.5 286.5,-165.5 152.5,-165.5"/>
<text text-anchor="middle" x="219.5" y="-172.3" font-family="Helvetica,sans-Serif" font-size="9.00">mappel::MCMCAdaptorBase</text>
</a>
</g>
</g>
<!-- Node6&#45;&gt;Node5 -->
<g id="edge6" class="edge"><title>Node6&#45;&gt;Node5</title>
<path fill="none" stroke="midnightblue" d="M207.322,-156.951C200.364,-147.494 191.949,-136.059 186.423,-128.55"/>
<polygon fill="midnightblue" stroke="midnightblue" points="204.66,-159.239 213.406,-165.219 210.298,-155.09 204.66,-159.239"/>
</g>
<!-- Node7&#45;&gt;Node1 -->
<g id="edge7" class="edge"><title>Node7&#45;&gt;Node1</title>
<path fill="none" stroke="midnightblue" d="M301.471,-52.2061C271.89,-42.0914 229.245,-27.5095 203.008,-18.5383"/>
<polygon fill="midnightblue" stroke="midnightblue" points="300.364,-55.5267 310.959,-55.4504 302.629,-48.9032 300.364,-55.5267"/>
</g>
<!-- Node8&#45;&gt;Node1 -->
<g id="edge9" class="edge"><title>Node8&#45;&gt;Node1</title>
<path fill="none" stroke="midnightblue" d="M80.3549,-51.5523C104.621,-41.5046 138.658,-27.4113 159.877,-18.6253"/>
<polygon fill="midnightblue" stroke="midnightblue" points="78.8407,-48.391 70.9404,-55.4504 81.5187,-54.8585 78.8407,-48.391"/>
</g>
</g>
</svg>
