<?xml version="1.0" encoding="UTF-8" standalone="no"?>
<!DOCTYPE svg PUBLIC "-//W3C//DTD SVG 1.1//EN"
 "http://www.w3.org/Graphics/SVG/1.1/DTD/svg11.dtd">
<!-- Generated by graphviz version 2.38.0 (20140413.2041)
 -->
<!-- Title: mappel::Gauss1DMAP Pages: 1 -->
<svg width="429pt" height="192pt"
 viewBox="0.00 0.00 428.50 192.00" xmlns="http://www.w3.org/2000/svg" xmlns:xlink="http://www.w3.org/1999/xlink">
<g id="graph0" class="graph" transform="scale(1 1) rotate(0) translate(4 188)">
<title>mappel::Gauss1DMAP</title>
<polygon fill="white" stroke="none" points="-4,4 -4,-188 424.5,-188 424.5,4 -4,4"/>
<!-- Node1 -->
<g id="node1" class="node"><title>Node1</title>
<polygon fill="#bfbfbf" stroke="black" points="131,-0.5 131,-18.5 241,-18.5 241,-0.5 131,-0.5"/>
<text text-anchor="middle" x="186" y="-7.3" font-family="Helvetica,sans-Serif" font-size="9.00">mappel::Gauss1DMAP</text>
</g>
<!-- Node2 -->
<g id="node2" class="node"><title>Node2</title>
<g id="a_node2"><a xlink:href="classmappel_1_1Gauss1DModel.html" target="_top" xlink:title="A base class for 1D Gaussian PSF with a fixed sigma (standard dev.) ">
<polygon fill="white" stroke="black" points="128,-55.5 128,-73.5 244,-73.5 244,-55.5 128,-55.5"/>
<text text-anchor="middle" x="186" y="-62.3" font-family="Helvetica,sans-Serif" font-size="9.00">mappel::Gauss1DModel</text>
</a>
</g>
</g>
<!-- Node2&#45;&gt;Node1 -->
<g id="edge1" class="edge"><title>Node2&#45;&gt;Node1</title>
<path fill="none" stroke="midnightblue" d="M186,-45.1746C186,-36.0945 186,-25.5949 186,-18.5496"/>
<polygon fill="midnightblue" stroke="midnightblue" points="182.5,-45.2187 186,-55.2188 189.5,-45.2188 182.5,-45.2187"/>
</g>
<!-- Node3 -->
<g id="node3" class="node"><title>Node3</title>
<g id="a_node3"><a xlink:href="classmappel_1_1PointEmitterModel.html" target="_top" xlink:title="A virtual Base type for point emitter localization models. ">
<polygon fill="white" stroke="black" points="11.5,-165.5 11.5,-183.5 138.5,-183.5 138.5,-165.5 11.5,-165.5"/>
<text text-anchor="middle" x="75" y="-172.3" font-family="Helvetica,sans-Serif" font-size="9.00">mappel::PointEmitterModel</text>
</a>
</g>
</g>
<!-- Node3&#45;&gt;Node2 -->
<g id="edge2" class="edge"><title>Node3&#45;&gt;Node2</title>
<path fill="none" stroke="midnightblue" d="M82.9388,-155.987C89.7605,-142.309 100.605,-123.432 114,-110 129.875,-94.0798 152.493,-81.2941 168.123,-73.5828"/>
<polygon fill="midnightblue" stroke="midnightblue" points="79.6644,-154.723 78.5307,-165.257 85.986,-157.729 79.6644,-154.723"/>
</g>
<!-- Node5 -->
<g id="node5" class="node"><title>Node5</title>
<g id="a_node5"><a xlink:href="classmappel_1_1MCMCAdaptor1D.html" target="_top" xlink:title="mappel::MCMCAdaptor1D">
<polygon fill="white" stroke="black" points="123.5,-110.5 123.5,-128.5 248.5,-128.5 248.5,-110.5 123.5,-110.5"/>
<text text-anchor="middle" x="186" y="-117.3" font-family="Helvetica,sans-Serif" font-size="9.00">mappel::MCMCAdaptor1D</text>
</a>
</g>
</g>
<!-- Node3&#45;&gt;Node5 -->
<g id="edge5" class="edge"><title>Node3&#45;&gt;Node5</title>
<path fill="none" stroke="midnightblue" d="M101.153,-161.013C122.112,-151.005 150.909,-137.255 168.983,-128.625"/>
<polygon fill="midnightblue" stroke="midnightblue" points="99.3745,-157.983 91.8585,-165.45 102.391,-164.3 99.3745,-157.983"/>
</g>
<!-- Node8 -->
<g id="node8" class="node"><title>Node8</title>
<g id="a_node8"><a xlink:href="classmappel_1_1MAPEstimator.html" target="_top" xlink:title="A Mixin class to configure a for MLE estimation (null prior). ">
<polygon fill="white" stroke="black" points="0,-55.5 0,-73.5 110,-73.5 110,-55.5 0,-55.5"/>
<text text-anchor="middle" x="55" y="-62.3" font-family="Helvetica,sans-Serif" font-size="9.00">mappel::MAPEstimator</text>
</a>
</g>
</g>
<!-- Node3&#45;&gt;Node8 -->
<g id="edge10" class="edge"><title>Node3&#45;&gt;Node8</title>
<path fill="none" stroke="midnightblue" d="M71.6191,-155.243C67.2209,-131.493 59.7216,-90.9967 56.5207,-73.7118"/>
<polygon fill="midnightblue" stroke="midnightblue" points="68.2343,-156.187 73.4967,-165.382 75.1173,-154.912 68.2343,-156.187"/>
</g>
<!-- Node4 -->
<g id="node4" class="node"><title>Node4</title>
<g id="a_node4"><a xlink:href="classmappel_1_1ImageFormat1DBase.html" target="_top" xlink:title="A virtual base class for 2D image localization objectives. ">
<polygon fill="white" stroke="black" points="268.5,-110.5 268.5,-128.5 407.5,-128.5 407.5,-110.5 268.5,-110.5"/>
<text text-anchor="middle" x="338" y="-117.3" font-family="Helvetica,sans-Serif" font-size="9.00">mappel::ImageFormat1DBase</text>
</a>
</g>
</g>
<!-- Node4&#45;&gt;Node2 -->
<g id="edge3" class="edge"><title>Node4&#45;&gt;Node2</title>
<path fill="none" stroke="midnightblue" d="M305.26,-107.084C276.361,-97.0074 234.948,-82.5675 209.303,-73.6253"/>
<polygon fill="midnightblue" stroke="midnightblue" points="304.32,-110.463 314.914,-110.45 306.624,-103.853 304.32,-110.463"/>
</g>
<!-- Node7 -->
<g id="node7" class="node"><title>Node7</title>
<g id="a_node7"><a xlink:href="classmappel_1_1PoissonNoise1DObjective.html" target="_top" xlink:title="A base class for 1D objectives with Poisson read noise. This objective function and its subclasses ar...">
<polygon fill="white" stroke="black" points="261.5,-55.5 261.5,-73.5 420.5,-73.5 420.5,-55.5 261.5,-55.5"/>
<text text-anchor="middle" x="341" y="-62.3" font-family="Helvetica,sans-Serif" font-size="9.00">mappel::PoissonNoise1DObjective</text>
</a>
</g>
</g>
<!-- Node4&#45;&gt;Node7 -->
<g id="edge8" class="edge"><title>Node4&#45;&gt;Node7</title>
<path fill="none" stroke="midnightblue" d="M339.037,-100.175C339.551,-91.0945 340.146,-80.5949 340.544,-73.5496"/>
<polygon fill="midnightblue" stroke="midnightblue" points="335.54,-100.037 338.469,-110.219 342.528,-100.433 335.54,-100.037"/>
</g>
<!-- Node5&#45;&gt;Node2 -->
<g id="edge4" class="edge"><title>Node5&#45;&gt;Node2</title>
<path fill="none" stroke="midnightblue" d="M186,-100.175C186,-91.0945 186,-80.5949 186,-73.5496"/>
<polygon fill="midnightblue" stroke="midnightblue" points="182.5,-100.219 186,-110.219 189.5,-100.219 182.5,-100.219"/>
</g>
<!-- Node6 -->
<g id="node6" class="node"><title>Node6</title>
<g id="a_node6"><a xlink:href="classmappel_1_1MCMCAdaptorBase.html" target="_top" xlink:title="mappel::MCMCAdaptorBase">
<polygon fill="white" stroke="black" points="157,-165.5 157,-183.5 291,-183.5 291,-165.5 157,-165.5"/>
<text text-anchor="middle" x="224" y="-172.3" font-family="Helvetica,sans-Serif" font-size="9.00">mappel::MCMCAdaptorBase</text>
</a>
</g>
</g>
<!-- Node6&#45;&gt;Node5 -->
<g id="edge6" class="edge"><title>Node6&#45;&gt;Node5</title>
<path fill="none" stroke="midnightblue" d="M212.134,-156.951C205.354,-147.494 197.156,-136.059 191.771,-128.55"/>
<polygon fill="midnightblue" stroke="midnightblue" points="209.391,-159.131 218.062,-165.219 215.08,-155.052 209.391,-159.131"/>
</g>
<!-- Node7&#45;&gt;Node1 -->
<g id="edge7" class="edge"><title>Node7&#45;&gt;Node1</title>
<path fill="none" stroke="midnightblue" d="M307.971,-52.2061C278.39,-42.0914 235.745,-27.5095 209.508,-18.5383"/>
<polygon fill="midnightblue" stroke="midnightblue" points="306.864,-55.5267 317.459,-55.4504 309.129,-48.9032 306.864,-55.5267"/>
</g>
<!-- Node8&#45;&gt;Node1 -->
<g id="edge9" class="edge"><title>Node8&#45;&gt;Node1</title>
<path fill="none" stroke="midnightblue" d="M84.2007,-51.686C109.056,-41.63 144.104,-27.4503 165.917,-18.6253"/>
<polygon fill="midnightblue" stroke="midnightblue" points="82.8535,-48.4554 74.8961,-55.4504 85.4788,-54.9444 82.8535,-48.4554"/>
</g>
</g>
</svg>
