<?xml version="1.0" encoding="UTF-8" standalone="no"?>
<!DOCTYPE svg PUBLIC "-//W3C//DTD SVG 1.1//EN"
 "http://www.w3.org/Graphics/SVG/1.1/DTD/svg11.dtd">
<!-- Generated by graphviz version 2.38.0 (20140413.2041)
 -->
<!-- Title: mappel::Gauss2DModel::make_stencil Pages: 1 -->
<svg width="895pt" height="116pt"
 viewBox="0.00 0.00 895.00 116.00" xmlns="http://www.w3.org/2000/svg" xmlns:xlink="http://www.w3.org/1999/xlink">
<g id="graph0" class="graph" transform="scale(1 1) rotate(0) translate(4 112)">
<title>mappel::Gauss2DModel::make_stencil</title>
<polygon fill="white" stroke="none" points="-4,4 -4,-112 891,-112 891,4 -4,4"/>
<!-- Node1 -->
<g id="node1" class="node"><title>Node1</title>
<polygon fill="#bfbfbf" stroke="black" points="0,-23.5 0,-51.5 116,-51.5 116,-23.5 0,-23.5"/>
<text text-anchor="start" x="8" y="-40.3" font-family="Helvetica,sans-Serif" font-size="9.00">mappel::Gauss2DModel</text>
<text text-anchor="middle" x="58" y="-30.3" font-family="Helvetica,sans-Serif" font-size="9.00">::make_stencil</text>
</g>
<!-- Node2 -->
<g id="node2" class="node"><title>Node2</title>
<g id="a_node2"><a xlink:href="classmappel_1_1Gauss2DModel_1_1Stencil.html#a75a827ef8312a7ce445c83aebf93204f" target="_top" xlink:title="mappel::Gauss2DModel\l::Stencil::Stencil">
<polygon fill="white" stroke="black" points="157.5,-47.5 157.5,-75.5 273.5,-75.5 273.5,-47.5 157.5,-47.5"/>
<text text-anchor="start" x="165.5" y="-64.3" font-family="Helvetica,sans-Serif" font-size="9.00">mappel::Gauss2DModel</text>
<text text-anchor="middle" x="215.5" y="-54.3" font-family="Helvetica,sans-Serif" font-size="9.00">::Stencil::Stencil</text>
</a>
</g>
</g>
<!-- Node1&#45;&gt;Node2 -->
<g id="edge1" class="edge"><title>Node1&#45;&gt;Node2</title>
<path fill="none" stroke="midnightblue" d="M116.019,-46.3004C126.267,-47.882 137.032,-49.5435 147.53,-51.1638"/>
<polygon fill="midnightblue" stroke="midnightblue" points="147.071,-54.6342 157.487,-52.7006 148.138,-47.7162 147.071,-54.6342"/>
</g>
<!-- Node11 -->
<g id="node11" class="node"><title>Node11</title>
<g id="a_node11"><a xlink:href="classmappel_1_1PointEmitterModel.html#ad50dfc29b6e7167fb4caf8683353079d" target="_top" xlink:title="mappel::PointEmitterModel\l::theta_in_bounds">
<polygon fill="white" stroke="black" points="152,-0.5 152,-28.5 279,-28.5 279,-0.5 152,-0.5"/>
<text text-anchor="start" x="160" y="-17.3" font-family="Helvetica,sans-Serif" font-size="9.00">mappel::PointEmitterModel</text>
<text text-anchor="middle" x="215.5" y="-7.3" font-family="Helvetica,sans-Serif" font-size="9.00">::theta_in_bounds</text>
</a>
</g>
</g>
<!-- Node1&#45;&gt;Node11 -->
<g id="edge11" class="edge"><title>Node1&#45;&gt;Node11</title>
<path fill="none" stroke="midnightblue" d="M116.019,-29.0662C124.43,-27.8222 133.19,-26.5266 141.864,-25.2436"/>
<polygon fill="midnightblue" stroke="midnightblue" points="142.602,-28.6726 151.982,-23.747 141.578,-21.748 142.602,-28.6726"/>
</g>
<!-- Node3 -->
<g id="node3" class="node"><title>Node3</title>
<g id="a_node3"><a xlink:href="classmappel_1_1Gauss2DModel_1_1Stencil.html#aa454ad18859be0dcc48f5de8982c7ba7" target="_top" xlink:title="mappel::Gauss2DModel\l::Stencil::compute_derivatives">
<polygon fill="white" stroke="black" points="315,-47.5 315,-75.5 453,-75.5 453,-47.5 315,-47.5"/>
<text text-anchor="start" x="323" y="-64.3" font-family="Helvetica,sans-Serif" font-size="9.00">mappel::Gauss2DModel</text>
<text text-anchor="middle" x="384" y="-54.3" font-family="Helvetica,sans-Serif" font-size="9.00">::Stencil::compute_derivatives</text>
</a>
</g>
</g>
<!-- Node2&#45;&gt;Node3 -->
<g id="edge2" class="edge"><title>Node2&#45;&gt;Node3</title>
<path fill="none" stroke="midnightblue" d="M273.8,-61.5C283.851,-61.5 294.463,-61.5 304.964,-61.5"/>
<polygon fill="midnightblue" stroke="midnightblue" points="304.976,-65.0001 314.976,-61.5 304.976,-58.0001 304.976,-65.0001"/>
</g>
<!-- Node4 -->
<g id="node4" class="node"><title>Node4</title>
<g id="a_node4"><a xlink:href="namespacemappel.html#aa5c2f294298c875605ee1e9876b7d116" target="_top" xlink:title="mappel::make_G_stencil">
<polygon fill="white" stroke="black" points="495,-89.5 495,-107.5 613,-107.5 613,-89.5 495,-89.5"/>
<text text-anchor="middle" x="554" y="-96.3" font-family="Helvetica,sans-Serif" font-size="9.00">mappel::make_G_stencil</text>
</a>
</g>
</g>
<!-- Node3&#45;&gt;Node4 -->
<g id="edge3" class="edge"><title>Node3&#45;&gt;Node4</title>
<path fill="none" stroke="midnightblue" d="M448.993,-75.5937C466.501,-79.4496 485.241,-83.5768 501.922,-87.2507"/>
<polygon fill="midnightblue" stroke="midnightblue" points="501.495,-90.7404 512.013,-89.4732 503,-83.9042 501.495,-90.7404"/>
</g>
<!-- Node7 -->
<g id="node7" class="node"><title>Node7</title>
<g id="a_node7"><a xlink:href="namespacemappel.html#a8da88490d6ff7d5886b96b66c1bab369" target="_top" xlink:title="mappel::make_DX_stencil">
<polygon fill="white" stroke="black" points="492,-52.5 492,-70.5 616,-70.5 616,-52.5 492,-52.5"/>
<text text-anchor="middle" x="554" y="-59.3" font-family="Helvetica,sans-Serif" font-size="9.00">mappel::make_DX_stencil</text>
</a>
</g>
</g>
<!-- Node3&#45;&gt;Node7 -->
<g id="edge6" class="edge"><title>Node3&#45;&gt;Node7</title>
<path fill="none" stroke="midnightblue" d="M453.332,-61.5C462.672,-61.5 472.28,-61.5 481.671,-61.5"/>
<polygon fill="midnightblue" stroke="midnightblue" points="481.754,-65.0001 491.754,-61.5 481.754,-58.0001 481.754,-65.0001"/>
</g>
<!-- Node9 -->
<g id="node9" class="node"><title>Node9</title>
<g id="a_node9"><a xlink:href="namespacemappel.html#af7636db506977133c8b30d108fede711" target="_top" xlink:title="mappel::make_DXS_stencil">
<polygon fill="white" stroke="black" points="489,-15.5 489,-33.5 619,-33.5 619,-15.5 489,-15.5"/>
<text text-anchor="middle" x="554" y="-22.3" font-family="Helvetica,sans-Serif" font-size="9.00">mappel::make_DXS_stencil</text>
</a>
</g>
</g>
<!-- Node3&#45;&gt;Node9 -->
<g id="edge8" class="edge"><title>Node3&#45;&gt;Node9</title>
<path fill="none" stroke="midnightblue" d="M448.993,-47.4063C466.501,-43.5504 485.241,-39.4232 501.922,-35.7493"/>
<polygon fill="midnightblue" stroke="midnightblue" points="503,-39.0958 512.013,-33.5268 501.495,-32.2596 503,-39.0958"/>
</g>
<!-- Node5 -->
<g id="node5" class="node"><title>Node5</title>
<g id="a_node5"><a xlink:href="namespacemappel.html#a5ca82edc201e8605107a991493ad0d5e" target="_top" xlink:title="mappel::fill_G_stencil">
<polygon fill="white" stroke="black" points="661,-89.5 661,-107.5 765,-107.5 765,-89.5 661,-89.5"/>
<text text-anchor="middle" x="713" y="-96.3" font-family="Helvetica,sans-Serif" font-size="9.00">mappel::fill_G_stencil</text>
</a>
</g>
</g>
<!-- Node4&#45;&gt;Node5 -->
<g id="edge4" class="edge"><title>Node4&#45;&gt;Node5</title>
<path fill="none" stroke="midnightblue" d="M613.015,-98.5C625.299,-98.5 638.302,-98.5 650.703,-98.5"/>
<polygon fill="midnightblue" stroke="midnightblue" points="650.949,-102 660.949,-98.5 650.949,-95.0001 650.949,-102"/>
</g>
<!-- Node6 -->
<g id="node6" class="node"><title>Node6</title>
<g id="a_node6"><a xlink:href="namespacemappel.html#a8475cdb3edacceb0ae215c3ebd1f33c1" target="_top" xlink:title="mappel::square">
<polygon fill="white" stroke="black" points="807,-52.5 807,-70.5 887,-70.5 887,-52.5 807,-52.5"/>
<text text-anchor="middle" x="847" y="-59.3" font-family="Helvetica,sans-Serif" font-size="9.00">mappel::square</text>
</a>
</g>
</g>
<!-- Node5&#45;&gt;Node6 -->
<g id="edge5" class="edge"><title>Node5&#45;&gt;Node6</title>
<path fill="none" stroke="midnightblue" d="M746.291,-89.4488C763.63,-84.5886 785.212,-78.5392 803.858,-73.3126"/>
<polygon fill="midnightblue" stroke="midnightblue" points="804.901,-76.6552 813.585,-70.586 803.011,-69.915 804.901,-76.6552"/>
</g>
<!-- Node8 -->
<g id="node8" class="node"><title>Node8</title>
<g id="a_node8"><a xlink:href="namespacemappel.html#ad2dd4330fc626fa673a3acf691d6b9a7" target="_top" xlink:title="mappel::fill_DX_stencil">
<polygon fill="white" stroke="black" points="658,-52.5 658,-70.5 768,-70.5 768,-52.5 658,-52.5"/>
<text text-anchor="middle" x="713" y="-59.3" font-family="Helvetica,sans-Serif" font-size="9.00">mappel::fill_DX_stencil</text>
</a>
</g>
</g>
<!-- Node7&#45;&gt;Node8 -->
<g id="edge7" class="edge"><title>Node7&#45;&gt;Node8</title>
<path fill="none" stroke="midnightblue" d="M616.15,-61.5C626.482,-61.5 637.236,-61.5 647.647,-61.5"/>
<polygon fill="midnightblue" stroke="midnightblue" points="647.915,-65.0001 657.915,-61.5 647.915,-58.0001 647.915,-65.0001"/>
</g>
<!-- Node10 -->
<g id="node10" class="node"><title>Node10</title>
<g id="a_node10"><a xlink:href="namespacemappel.html#ab0cb62f6dcecae5ff19468d87a283e7a" target="_top" xlink:title="mappel::fill_DXS_stencil">
<polygon fill="white" stroke="black" points="655,-15.5 655,-33.5 771,-33.5 771,-15.5 655,-15.5"/>
<text text-anchor="middle" x="713" y="-22.3" font-family="Helvetica,sans-Serif" font-size="9.00">mappel::fill_DXS_stencil</text>
</a>
</g>
</g>
<!-- Node9&#45;&gt;Node10 -->
<g id="edge9" class="edge"><title>Node9&#45;&gt;Node10</title>
<path fill="none" stroke="midnightblue" d="M619.311,-24.5C627.619,-24.5 636.147,-24.5 644.504,-24.5"/>
<polygon fill="midnightblue" stroke="midnightblue" points="644.589,-28.0001 654.589,-24.5 644.589,-21.0001 644.589,-28.0001"/>
</g>
<!-- Node10&#45;&gt;Node6 -->
<g id="edge10" class="edge"><title>Node10&#45;&gt;Node6</title>
<path fill="none" stroke="midnightblue" d="M746.291,-33.5512C763.63,-38.4114 785.212,-44.4608 803.858,-49.6874"/>
<polygon fill="midnightblue" stroke="midnightblue" points="803.011,-53.085 813.585,-52.414 804.901,-46.3448 803.011,-53.085"/>
</g>
<!-- Node12 -->
<g id="node12" class="node"><title>Node12</title>
<g id="a_node12"><a xlink:href="classmappel_1_1PointEmitterModel.html#a97a868e842302f670ed9f9bd49416771" target="_top" xlink:title="mappel::PointEmitterModel\l::check_param_shape">
<polygon fill="white" stroke="black" points="320.5,-0.5 320.5,-28.5 447.5,-28.5 447.5,-0.5 320.5,-0.5"/>
<text text-anchor="start" x="328.5" y="-17.3" font-family="Helvetica,sans-Serif" font-size="9.00">mappel::PointEmitterModel</text>
<text text-anchor="middle" x="384" y="-7.3" font-family="Helvetica,sans-Serif" font-size="9.00">::check_param_shape</text>
</a>
</g>
</g>
<!-- Node11&#45;&gt;Node12 -->
<g id="edge12" class="edge"><title>Node11&#45;&gt;Node12</title>
<path fill="none" stroke="midnightblue" d="M279.447,-14.5C289.461,-14.5 299.893,-14.5 310.114,-14.5"/>
<polygon fill="midnightblue" stroke="midnightblue" points="310.241,-18.0001 320.241,-14.5 310.241,-11.0001 310.241,-18.0001"/>
</g>
</g>
</svg>
