<?xml version="1.0" encoding="UTF-8" standalone="no"?>
<!DOCTYPE svg PUBLIC "-//W3C//DTD SVG 1.1//EN"
 "http://www.w3.org/Graphics/SVG/1.1/DTD/svg11.dtd">
<!-- Generated by graphviz version 2.38.0 (20140413.2041)
 -->
<!-- Title: mappel::Gauss1DsModel::operator= Pages: 1 -->
<svg width="278pt" height="84pt"
 viewBox="0.00 0.00 278.00 84.00" xmlns="http://www.w3.org/2000/svg" xmlns:xlink="http://www.w3.org/1999/xlink">
<g id="graph0" class="graph" transform="scale(1 1) rotate(0) translate(4 80)">
<title>mappel::Gauss1DsModel::operator=</title>
<polygon fill="white" stroke="none" points="-4,4 -4,-80 274,-80 274,4 -4,4"/>
<!-- Node1 -->
<g id="node1" class="node"><title>Node1</title>
<polygon fill="#bfbfbf" stroke="black" points="0,-23.5 0,-51.5 120,-51.5 120,-23.5 0,-23.5"/>
<text text-anchor="start" x="8" y="-40.3" font-family="Helvetica,sans-Serif" font-size="9.00">mappel::Gauss1DsModel</text>
<text text-anchor="middle" x="60" y="-30.3" font-family="Helvetica,sans-Serif" font-size="9.00">::operator=</text>
</g>
<!-- Node2 -->
<g id="node2" class="node"><title>Node2</title>
<g id="a_node2"><a xlink:href="classmappel_1_1Gauss1DsMAP.html#afb1fe11ca22dd139f873256f7fb6c960" target="_top" xlink:title="mappel::Gauss1DsMAP\l::operator=">
<polygon fill="white" stroke="black" points="156,-47.5 156,-75.5 270,-75.5 270,-47.5 156,-47.5"/>
<text text-anchor="start" x="164" y="-64.3" font-family="Helvetica,sans-Serif" font-size="9.00">mappel::Gauss1DsMAP</text>
<text text-anchor="middle" x="213" y="-54.3" font-family="Helvetica,sans-Serif" font-size="9.00">::operator=</text>
</a>
</g>
</g>
<!-- Node1&#45;&gt;Node2 -->
<g id="edge1" class="edge"><title>Node1&#45;&gt;Node2</title>
<path fill="none" stroke="midnightblue" d="M130.249,-48.5064C138.835,-49.8712 147.53,-51.2532 155.886,-52.5811"/>
<polygon fill="midnightblue" stroke="midnightblue" points="130.671,-45.0297 120.246,-46.9166 129.572,-51.9429 130.671,-45.0297"/>
</g>
<!-- Node3 -->
<g id="node3" class="node"><title>Node3</title>
<g id="a_node3"><a xlink:href="classmappel_1_1Gauss1DsMLE.html#ac7cb6d3c242f1df583c0f894c3e3febb" target="_top" xlink:title="mappel::Gauss1DsMLE\l::operator=">
<polygon fill="white" stroke="black" points="156.5,-0.5 156.5,-28.5 269.5,-28.5 269.5,-0.5 156.5,-0.5"/>
<text text-anchor="start" x="164.5" y="-17.3" font-family="Helvetica,sans-Serif" font-size="9.00">mappel::Gauss1DsMLE</text>
<text text-anchor="middle" x="213" y="-7.3" font-family="Helvetica,sans-Serif" font-size="9.00">::operator=</text>
</a>
</g>
</g>
<!-- Node1&#45;&gt;Node3 -->
<g id="edge2" class="edge"><title>Node1&#45;&gt;Node3</title>
<path fill="none" stroke="midnightblue" d="M130.391,-26.9305C139.099,-25.6041 147.917,-24.261 156.376,-22.9725"/>
<polygon fill="midnightblue" stroke="midnightblue" points="129.605,-23.5098 120.246,-28.4758 130.659,-30.43 129.605,-23.5098"/>
</g>
</g>
</svg>
