<?xml version="1.0" encoding="UTF-8" standalone="no"?>
<!DOCTYPE svg PUBLIC "-//W3C//DTD SVG 1.1//EN"
 "http://www.w3.org/Graphics/SVG/1.1/DTD/svg11.dtd">
<!-- Generated by graphviz version 2.38.0 (20140413.2041)
 -->
<!-- Title: mappel::NewtonMaximizer::maximize Pages: 1 -->
<!--zoomable 510 -->
<svg id="main" version="1.1" xmlns="http://www.w3.org/2000/svg" xmlns:xlink="http://www.w3.org/1999/xlink" xml:space="preserve" onload="init(evt)">
<style type="text/css"><![CDATA[
.edge:hover path { stroke: red; }
.edge:hover polygon { stroke: red; fill: red; }
]]></style>
<script type="text/javascript"><![CDATA[
var edges = document.getElementsByTagName('g');
if (edges && edges.length) {
  for (var i=0;i<edges.length;i++) {
    if (edges[i].id.substr(0,4)=='edge') {
      edges[i].setAttribute('class','edge');
    }
  }
}
]]></script>
        <defs>
                <circle id="rim" cx="0" cy="0" r="7"/>
                <circle id="rim2" cx="0" cy="0" r="3.5"/>
                <g id="zoomPlus">
                        <use xlink:href="#rim" fill="#404040">
                                <set attributeName="fill" to="#808080" begin="zoomplus.mouseover" end="zoomplus.mouseout"/>
                        </use>
                        <path d="M-4,0h8M0,-4v8" fill="none" stroke="white" stroke-width="1.5" pointer-events="none"/>
                </g>
                <g id="zoomMin">
                        <use xlink:href="#rim" fill="#404040">
                                <set attributeName="fill" to="#808080" begin="zoomminus.mouseover" end="zoomminus.mouseout"/>
                        </use>
                        <path d="M-4,0h8" fill="none" stroke="white" stroke-width="1.5" pointer-events="none"/>
                </g>
                <g id="dirArrow">
                        <path fill="none" stroke="white" stroke-width="1.5" d="M0,-3.0v7 M-2.5,-0.5L0,-3.0L2.5,-0.5"/>
                </g>
               <g id="resetDef">
                       <use xlink:href="#rim2" fill="#404040">
                               <set attributeName="fill" to="#808080" begin="reset.mouseover" end="reset.mouseout"/>
                       </use>
               </g>
        </defs>

<script type="text/javascript">
var viewWidth = 644;
var viewHeight = 510;
var sectionId = 'dynsection-28';
</script>
<script xlink:href="svgpan.js"/>
<svg id="graph" class="graph">
<g id="viewport">
<title>mappel::NewtonMaximizer::maximize</title>
<polygon fill="white" stroke="none" points="-4,4 -4,-506 640,-506 640,4 -4,4"/>
<!-- Node1 -->
<g id="node1" class="node"><title>Node1</title>
<polygon fill="#bfbfbf" stroke="black" points="0,-293.5 0,-321.5 125,-321.5 125,-293.5 0,-293.5"/>
<text text-anchor="start" x="8" y="-310.3" font-family="Helvetica,sans-Serif" font-size="9.00">mappel::NewtonMaximizer</text>
<text text-anchor="middle" x="62.5" y="-300.3" font-family="Helvetica,sans-Serif" font-size="9.00">::maximize</text>
</g>
<!-- Node2 -->
<g id="node2" class="node"><title>Node2</title>
<g id="a_node2"><a xlink:href="classmappel_1_1IterativeMaximizer.html#ac033d2b23a6a861e6d7adbe35f17624e" target="_top" xlink:title="mappel::IterativeMaximizer\l::backtrack">
<polygon fill="white" stroke="black" points="162,-293.5 162,-321.5 288,-321.5 288,-293.5 162,-293.5"/>
<text text-anchor="start" x="170" y="-310.3" font-family="Helvetica,sans-Serif" font-size="9.00">mappel::IterativeMaximizer</text>
<text text-anchor="middle" x="225" y="-300.3" font-family="Helvetica,sans-Serif" font-size="9.00">::backtrack</text>
</a>
</g>
</g>
<!-- Node1&#45;&gt;Node2 -->
<g id="edge1" class="edge"><title>Node1&#45;&gt;Node2</title>
<path fill="none" stroke="midnightblue" d="M125.094,-307.5C133.736,-307.5 142.683,-307.5 151.503,-307.5"/>
<polygon fill="midnightblue" stroke="midnightblue" points="151.774,-311 161.774,-307.5 151.774,-304 151.774,-311"/>
</g>
<!-- Node3 -->
<g id="node3" class="node"><title>Node3</title>
<g id="a_node3"><a xlink:href="classmappel_1_1IterativeMaximizer.html#aef9b61d66d785a1a06dd2c75c3166435" target="_top" xlink:title="mappel::IterativeMaximizer\l::convergence_test">
<polygon fill="white" stroke="black" points="331,-473.5 331,-501.5 457,-501.5 457,-473.5 331,-473.5"/>
<text text-anchor="start" x="339" y="-490.3" font-family="Helvetica,sans-Serif" font-size="9.00">mappel::IterativeMaximizer</text>
<text text-anchor="middle" x="394" y="-480.3" font-family="Helvetica,sans-Serif" font-size="9.00">::convergence_test</text>
</a>
</g>
</g>
<!-- Node1&#45;&gt;Node3 -->
<g id="edge17" class="edge"><title>Node1&#45;&gt;Node3</title>
<path fill="none" stroke="midnightblue" d="M83.6814,-321.692C126.508,-351.333 230.328,-420.688 325,-464.5 329.054,-466.376 333.306,-468.178 337.621,-469.889"/>
<polygon fill="midnightblue" stroke="midnightblue" points="336.523,-473.216 347.115,-473.485 339.003,-466.67 336.523,-473.216"/>
</g>
<!-- Node14 -->
<g id="node14" class="node"><title>Node14</title>
<g id="a_node14"><a xlink:href="namespacemappel_1_1methods_1_1objective.html#afbf93fa446606620d01747af3684f62d" target="_top" xlink:title="mappel::methods::objective\l::hessian">
<polygon fill="white" stroke="black" points="161,-246.5 161,-274.5 289,-274.5 289,-246.5 161,-246.5"/>
<text text-anchor="start" x="169" y="-263.3" font-family="Helvetica,sans-Serif" font-size="9.00">mappel::methods::objective</text>
<text text-anchor="middle" x="225" y="-253.3" font-family="Helvetica,sans-Serif" font-size="9.00">::hessian</text>
</a>
</g>
</g>
<!-- Node1&#45;&gt;Node14 -->
<g id="edge18" class="edge"><title>Node1&#45;&gt;Node14</title>
<path fill="none" stroke="midnightblue" d="M111.655,-293.398C128.873,-288.356 148.451,-282.623 166.386,-277.371"/>
<polygon fill="midnightblue" stroke="midnightblue" points="167.542,-280.68 176.155,-274.511 165.575,-273.962 167.542,-280.68"/>
</g>
<!-- Node2&#45;&gt;Node3 -->
<g id="edge2" class="edge"><title>Node2&#45;&gt;Node3</title>
<path fill="none" stroke="midnightblue" d="M235.34,-321.536C247.781,-340.31 270.387,-374.694 289,-404.5 305.472,-430.878 300.785,-444.987 325,-464.5 326.601,-465.79 328.278,-467.01 330.015,-468.162"/>
<polygon fill="midnightblue" stroke="midnightblue" points="328.704,-471.445 339.12,-473.383 332.187,-465.373 328.704,-471.445"/>
</g>
<!-- Node4 -->
<g id="node4" class="node"><title>Node4</title>
<g id="a_node4"><a xlink:href="classmappel_1_1IterativeMaximizer_1_1MaximizerData.html#af2e61c659a8cc78365bd801026c2f6a9" target="_top" xlink:title="mappel::IterativeMaximizer\l::MaximizerData::record_exit">
<polygon fill="white" stroke="black" points="501,-381.5 501,-409.5 634,-409.5 634,-381.5 501,-381.5"/>
<text text-anchor="start" x="509" y="-398.3" font-family="Helvetica,sans-Serif" font-size="9.00">mappel::IterativeMaximizer</text>
<text text-anchor="middle" x="567.5" y="-388.3" font-family="Helvetica,sans-Serif" font-size="9.00">::MaximizerData::record_exit</text>
</a>
</g>
</g>
<!-- Node2&#45;&gt;Node4 -->
<g id="edge8" class="edge"><title>Node2&#45;&gt;Node4</title>
<path fill="none" stroke="midnightblue" d="M280.33,-321.541C340.659,-337.133 437.97,-362.282 502.088,-378.853"/>
<polygon fill="midnightblue" stroke="midnightblue" points="501.525,-382.322 512.082,-381.436 503.276,-375.545 501.525,-382.322"/>
</g>
<!-- Node5 -->
<g id="node5" class="node"><title>Node5</title>
<g id="a_node5"><a xlink:href="classmappel_1_1IterativeMaximizer_1_1MaximizerData.html#aedc8670533fe0323a62e7def637875db" target="_top" xlink:title="Get the saved stencil&#39;s theta. ">
<polygon fill="white" stroke="black" points="499,-315.5 499,-343.5 636,-343.5 636,-315.5 499,-315.5"/>
<text text-anchor="start" x="507" y="-332.3" font-family="Helvetica,sans-Serif" font-size="9.00">mappel::IterativeMaximizer</text>
<text text-anchor="middle" x="567.5" y="-322.3" font-family="Helvetica,sans-Serif" font-size="9.00">::MaximizerData::saved_theta</text>
</a>
</g>
</g>
<!-- Node2&#45;&gt;Node5 -->
<g id="edge14" class="edge"><title>Node2&#45;&gt;Node5</title>
<path fill="none" stroke="midnightblue" d="M273.92,-293.454C290.006,-289.393 308.142,-285.514 325,-283.5 385.9,-276.224 403.003,-270.768 463,-283.5 487.742,-288.751 513.75,-300.338 533.506,-310.569"/>
<polygon fill="midnightblue" stroke="midnightblue" points="531.92,-313.689 542.392,-315.297 535.208,-307.51 531.92,-313.689"/>
</g>
<!-- Node7 -->
<g id="node7" class="node"><title>Node7</title>
<g id="a_node7"><a xlink:href="classmappel_1_1IterativeMaximizer_1_1MaximizerData.html#a8c82784b23315be8f74b968ee4188388" target="_top" xlink:title="Record a backtracked point (no derivative computations performed) Using the saved theta as the defaul...">
<polygon fill="white" stroke="black" points="331,-179.5 331,-217.5 457,-217.5 457,-179.5 331,-179.5"/>
<text text-anchor="start" x="339" y="-206.3" font-family="Helvetica,sans-Serif" font-size="9.00">mappel::IterativeMaximizer</text>
<text text-anchor="start" x="339" y="-196.3" font-family="Helvetica,sans-Serif" font-size="9.00">::MaximizerData::record</text>
<text text-anchor="middle" x="394" y="-186.3" font-family="Helvetica,sans-Serif" font-size="9.00">_backtrack</text>
</a>
</g>
</g>
<!-- Node2&#45;&gt;Node7 -->
<g id="edge6" class="edge"><title>Node2&#45;&gt;Node7</title>
<path fill="none" stroke="midnightblue" d="M269.398,-293.466C276.167,-290.575 282.924,-287.25 289,-283.5 307.47,-272.1 308.363,-264.44 325,-250.5 335.712,-241.525 347.729,-232.128 358.647,-223.829"/>
<polygon fill="midnightblue" stroke="midnightblue" points="360.867,-226.539 366.742,-217.722 356.651,-220.95 360.867,-226.539"/>
</g>
<!-- Node8 -->
<g id="node8" class="node"><title>Node8</title>
<g id="a_node8"><a xlink:href="classmappel_1_1IterativeMaximizer_1_1MaximizerData.html#a1096048bf29ccbc45e4a60dc6cbf7b2c" target="_top" xlink:title="Record an iteration point (derivatives computed) Using the saved theta as the default. ">
<polygon fill="white" stroke="black" points="331,-104.5 331,-142.5 457,-142.5 457,-104.5 331,-104.5"/>
<text text-anchor="start" x="339" y="-131.3" font-family="Helvetica,sans-Serif" font-size="9.00">mappel::IterativeMaximizer</text>
<text text-anchor="start" x="339" y="-121.3" font-family="Helvetica,sans-Serif" font-size="9.00">::MaximizerData::record</text>
<text text-anchor="middle" x="394" y="-111.3" font-family="Helvetica,sans-Serif" font-size="9.00">_iteration</text>
</a>
</g>
</g>
<!-- Node2&#45;&gt;Node8 -->
<g id="edge9" class="edge"><title>Node2&#45;&gt;Node8</title>
<path fill="none" stroke="midnightblue" d="M276.17,-293.452C280.904,-290.7 285.305,-287.416 289,-283.5 325.464,-244.854 293.228,-212.087 325,-169.5 331.009,-161.446 338.865,-154.339 347.095,-148.269"/>
<polygon fill="midnightblue" stroke="midnightblue" points="349.149,-151.105 355.396,-142.548 345.176,-145.341 349.149,-151.105"/>
</g>
<!-- Node9 -->
<g id="node9" class="node"><title>Node9</title>
<g id="a_node9"><a xlink:href="classmappel_1_1IterativeMaximizer_1_1MaximizerData.html#a5f65e52de343dbd012c3b3a7b463b792" target="_top" xlink:title="Restore the single reserved stencil to the current stencil spot. Overwrites any previously saved sten...">
<polygon fill="white" stroke="black" points="331,-47.5 331,-85.5 457,-85.5 457,-47.5 331,-47.5"/>
<text text-anchor="start" x="339" y="-74.3" font-family="Helvetica,sans-Serif" font-size="9.00">mappel::IterativeMaximizer</text>
<text text-anchor="start" x="339" y="-64.3" font-family="Helvetica,sans-Serif" font-size="9.00">::MaximizerData::restore</text>
<text text-anchor="middle" x="394" y="-54.3" font-family="Helvetica,sans-Serif" font-size="9.00">_stencil</text>
</a>
</g>
</g>
<!-- Node2&#45;&gt;Node9 -->
<g id="edge11" class="edge"><title>Node2&#45;&gt;Node9</title>
<path fill="none" stroke="midnightblue" d="M277.551,-293.315C281.843,-290.596 285.767,-287.357 289,-283.5 343.925,-217.962 270.953,-160.764 325,-94.5 325.6,-93.7642 326.223,-93.0475 326.866,-92.3494"/>
<polygon fill="midnightblue" stroke="midnightblue" points="329.341,-94.8316 334.47,-85.5606 324.679,-89.6101 329.341,-94.8316"/>
</g>
<!-- Node10 -->
<g id="node10" class="node"><title>Node10</title>
<g id="a_node10"><a xlink:href="namespacemappel_1_1methods_1_1objective.html#a293c23ed6a623e59477bb67b6e40f5ad" target="_top" xlink:title="mappel::methods::objective\l::rllh">
<polygon fill="white" stroke="black" points="330,-0.5 330,-28.5 458,-28.5 458,-0.5 330,-0.5"/>
<text text-anchor="start" x="338" y="-17.3" font-family="Helvetica,sans-Serif" font-size="9.00">mappel::methods::objective</text>
<text text-anchor="middle" x="394" y="-7.3" font-family="Helvetica,sans-Serif" font-size="9.00">::rllh</text>
</a>
</g>
</g>
<!-- Node2&#45;&gt;Node10 -->
<g id="edge12" class="edge"><title>Node2&#45;&gt;Node10</title>
<path fill="none" stroke="midnightblue" d="M277.724,-293.457C281.982,-290.71 285.851,-287.426 289,-283.5 358.142,-197.307 254.241,-122.37 325,-37.5 325.718,-36.6385 326.47,-35.8092 327.252,-35.0108"/>
<polygon fill="midnightblue" stroke="midnightblue" points="329.516,-37.6807 335.021,-28.6286 325.073,-32.2717 329.516,-37.6807"/>
</g>
<!-- Node11 -->
<g id="node11" class="node"><title>Node11</title>
<g id="a_node11"><a xlink:href="classmappel_1_1IterativeMaximizer_1_1MaximizerData.html#a0349ede0482bdc352643e1eba2ab3f11" target="_top" xlink:title="Save the current stencil to the single reserve spot. Overwrites any previously saved stencil...">
<polygon fill="white" stroke="black" points="325,-426.5 325,-454.5 463,-454.5 463,-426.5 325,-426.5"/>
<text text-anchor="start" x="333" y="-443.3" font-family="Helvetica,sans-Serif" font-size="9.00">mappel::IterativeMaximizer</text>
<text text-anchor="middle" x="394" y="-433.3" font-family="Helvetica,sans-Serif" font-size="9.00">::MaximizerData::save_stencil</text>
</a>
</g>
</g>
<!-- Node2&#45;&gt;Node11 -->
<g id="edge13" class="edge"><title>Node2&#45;&gt;Node11</title>
<path fill="none" stroke="midnightblue" d="M235.274,-321.591C251.079,-344.571 285.394,-390.189 325,-416.5 327.957,-418.465 331.094,-420.288 334.334,-421.979"/>
<polygon fill="midnightblue" stroke="midnightblue" points="333.138,-425.285 343.675,-426.394 336.129,-418.956 333.138,-425.285"/>
</g>
<!-- Node12 -->
<g id="node12" class="node"><title>Node12</title>
<g id="a_node12"><a xlink:href="classmappel_1_1IterativeMaximizer_1_1MaximizerData.html#a295d06c20f4d620602eece746f4c7d85" target="_top" xlink:title="mappel::IterativeMaximizer\l::MaximizerData::set_stencil">
<polygon fill="white" stroke="black" points="328.5,-379.5 328.5,-407.5 459.5,-407.5 459.5,-379.5 328.5,-379.5"/>
<text text-anchor="start" x="336.5" y="-396.3" font-family="Helvetica,sans-Serif" font-size="9.00">mappel::IterativeMaximizer</text>
<text text-anchor="middle" x="394" y="-386.3" font-family="Helvetica,sans-Serif" font-size="9.00">::MaximizerData::set_stencil</text>
</a>
</g>
</g>
<!-- Node2&#45;&gt;Node12 -->
<g id="edge15" class="edge"><title>Node2&#45;&gt;Node12</title>
<path fill="none" stroke="midnightblue" d="M248.777,-321.654C268.574,-333.702 298.202,-351.131 325,-364.5 332.43,-368.207 340.447,-371.892 348.281,-375.33"/>
<polygon fill="midnightblue" stroke="midnightblue" points="347.124,-378.643 357.693,-379.386 349.894,-372.214 347.124,-378.643"/>
</g>
<!-- Node13 -->
<g id="node13" class="node"><title>Node13</title>
<g id="a_node13"><a xlink:href="classmappel_1_1IterativeMaximizer_1_1MaximizerData.html#a29ccc1aa8e5ecf505f4ca76f6b8b214e" target="_top" xlink:title="Get the current stencil. ">
<polygon fill="white" stroke="black" points="331,-293.5 331,-321.5 457,-321.5 457,-293.5 331,-293.5"/>
<text text-anchor="start" x="339" y="-310.3" font-family="Helvetica,sans-Serif" font-size="9.00">mappel::IterativeMaximizer</text>
<text text-anchor="middle" x="394" y="-300.3" font-family="Helvetica,sans-Serif" font-size="9.00">::MaximizerData::stencil</text>
</a>
</g>
</g>
<!-- Node2&#45;&gt;Node13 -->
<g id="edge16" class="edge"><title>Node2&#45;&gt;Node13</title>
<path fill="none" stroke="midnightblue" d="M288.185,-307.5C298.726,-307.5 309.753,-307.5 320.531,-307.5"/>
<polygon fill="midnightblue" stroke="midnightblue" points="320.763,-311 330.763,-307.5 320.763,-304 320.763,-311"/>
</g>
<!-- Node3&#45;&gt;Node4 -->
<g id="edge3" class="edge"><title>Node3&#45;&gt;Node4</title>
<path fill="none" stroke="midnightblue" d="M442.107,-473.367C449.233,-470.716 456.402,-467.745 463,-464.5 490.809,-450.823 519.962,-430.799 540.215,-415.84"/>
<polygon fill="midnightblue" stroke="midnightblue" points="542.412,-418.568 548.32,-409.773 538.217,-412.964 542.412,-418.568"/>
</g>
<!-- Node3&#45;&gt;Node5 -->
<g id="edge4" class="edge"><title>Node3&#45;&gt;Node5</title>
<path fill="none" stroke="midnightblue" d="M450.849,-473.373C455.264,-470.88 459.4,-467.948 463,-464.5 495.01,-433.843 470.727,-405.633 499,-371.5 506.422,-362.539 516.277,-354.925 526.156,-348.743"/>
<polygon fill="midnightblue" stroke="midnightblue" points="527.93,-351.76 534.783,-343.681 524.387,-345.723 527.93,-351.76"/>
</g>
<!-- Node6 -->
<g id="node6" class="node"><title>Node6</title>
<g id="a_node6"><a xlink:href="classmappel_1_1IterativeMaximizer_1_1MaximizerData.html#ac6ed5231a1ac2f4bfdd51a2800212fea" target="_top" xlink:title="Get the current stencil&#39;s theta. ">
<polygon fill="white" stroke="black" points="504.5,-473.5 504.5,-501.5 630.5,-501.5 630.5,-473.5 504.5,-473.5"/>
<text text-anchor="start" x="512.5" y="-490.3" font-family="Helvetica,sans-Serif" font-size="9.00">mappel::IterativeMaximizer</text>
<text text-anchor="middle" x="567.5" y="-480.3" font-family="Helvetica,sans-Serif" font-size="9.00">::MaximizerData::theta</text>
</a>
</g>
</g>
<!-- Node3&#45;&gt;Node6 -->
<g id="edge5" class="edge"><title>Node3&#45;&gt;Node6</title>
<path fill="none" stroke="midnightblue" d="M457.401,-487.5C469.372,-487.5 482.001,-487.5 494.253,-487.5"/>
<polygon fill="midnightblue" stroke="midnightblue" points="494.433,-491 504.433,-487.5 494.433,-484 494.433,-491"/>
</g>
<!-- Node7&#45;&gt;Node7 -->
<g id="edge7" class="edge"><title>Node7&#45;&gt;Node7</title>
<path fill="none" stroke="midnightblue" d="M363.431,-217.795C359.201,-227.417 369.391,-236 394,-236 409.381,-236 419.129,-232.647 423.245,-227.783"/>
<polygon fill="midnightblue" stroke="midnightblue" points="426.724,-228.168 424.569,-217.795 419.785,-227.248 426.724,-228.168"/>
</g>
<!-- Node8&#45;&gt;Node8 -->
<g id="edge10" class="edge"><title>Node8&#45;&gt;Node8</title>
<path fill="none" stroke="midnightblue" d="M363.431,-142.795C359.201,-152.417 369.391,-161 394,-161 409.381,-161 419.129,-157.647 423.245,-152.783"/>
<polygon fill="midnightblue" stroke="midnightblue" points="426.724,-153.168 424.569,-142.795 419.785,-152.248 426.724,-153.168"/>
</g>
</g>
</svg>
        <g id="navigator" transform="translate(0 0)" fill="#404254">
                <rect fill="#f2f5e9" fill-opacity="0.5" stroke="#606060" stroke-width=".5" x="0" y="0" width="60" height="60"/>
                <use id="zoomplus" xlink:href="#zoomPlus" x="17" y="9" onmousedown="handleZoom(evt,'in')"/>
                <use id="zoomminus" xlink:href="#zoomMin" x="42" y="9" onmousedown="handleZoom(evt,'out')"/>
                <use id="reset" xlink:href="#resetDef" x="30" y="36" onmousedown="handleReset()"/>
                <g id="arrowUp" xlink:href="#dirArrow" transform="translate(30 24)" onmousedown="handlePan(0,-1)">
                  <use xlink:href="#rim" fill="#404040">
                        <set attributeName="fill" to="#808080" begin="arrowUp.mouseover" end="arrowUp.mouseout"/>
                  </use>
                  <path fill="none" stroke="white" stroke-width="1.5" d="M0,-3.0v7 M-2.5,-0.5L0,-3.0L2.5,-0.5"/>
                </g>
                <g id="arrowRight" xlink:href="#dirArrow" transform="rotate(90) translate(36 -43)" onmousedown="handlePan(1,0)">
                  <use xlink:href="#rim" fill="#404040">
                        <set attributeName="fill" to="#808080" begin="arrowRight.mouseover" end="arrowRight.mouseout"/>
                  </use>
                  <path fill="none" stroke="white" stroke-width="1.5" d="M0,-3.0v7 M-2.5,-0.5L0,-3.0L2.5,-0.5"/>
                </g>
                <g id="arrowDown" xlink:href="#dirArrow" transform="rotate(180) translate(-30 -48)" onmousedown="handlePan(0,1)">
                  <use xlink:href="#rim" fill="#404040">
                        <set attributeName="fill" to="#808080" begin="arrowDown.mouseover" end="arrowDown.mouseout"/>
                  </use>
                  <path fill="none" stroke="white" stroke-width="1.5" d="M0,-3.0v7 M-2.5,-0.5L0,-3.0L2.5,-0.5"/>
                </g>
                <g id="arrowLeft" xlink:href="#dirArrow" transform="rotate(270) translate(-36 17)" onmousedown="handlePan(-1,0)">
                  <use xlink:href="#rim" fill="#404040">
                        <set attributeName="fill" to="#808080" begin="arrowLeft.mouseover" end="arrowLeft.mouseout"/>
                  </use>
                  <path fill="none" stroke="white" stroke-width="1.5" d="M0,-3.0v7 M-2.5,-0.5L0,-3.0L2.5,-0.5"/>
                </g>
        </g>
        <svg viewBox="0 0 15 15" width="100%" height="30px" preserveAspectRatio="xMaxYMin meet">
         <g id="arrow_out" transform="scale(0.3 0.3)">
          <a xlink:href="classmappel_1_1NewtonMaximizer_aca7e3071f17ef6f381878eb6151c86d7_cgraph_org.svg" target="_base">
           <rect id="button" ry="5" rx="5" y="6" x="6" height="38" width="38"
                fill="#f2f5e9" fill-opacity="0.5" stroke="#606060" stroke-width="1.0"/>
           <path id="arrow"
             d="M 11.500037,31.436501 C 11.940474,20.09759 22.043105,11.32322 32.158766,21.979434 L 37.068811,17.246167 C 37.068811,17.246167 37.088388,32 37.088388,32 L 22.160133,31.978069 C 22.160133,31.978069 26.997745,27.140456 26.997745,27.140456 C 18.528582,18.264221 13.291696,25.230495 11.500037,31.436501 z"
             style="fill:#404040;"/>
          </a>
         </g>
        </svg>
</svg>
