<?xml version="1.0" encoding="UTF-8" standalone="no"?>
<!DOCTYPE svg PUBLIC "-//W3C//DTD SVG 1.1//EN"
 "http://www.w3.org/Graphics/SVG/1.1/DTD/svg11.dtd">
<!-- Generated by graphviz version 2.38.0 (20140413.2041)
 -->
<!-- Title: mappel::MLEstimator Pages: 1 -->
<svg width="506pt" height="137pt"
 viewBox="0.00 0.00 506.00 137.00" xmlns="http://www.w3.org/2000/svg" xmlns:xlink="http://www.w3.org/1999/xlink">
<g id="graph0" class="graph" transform="scale(1 1) rotate(0) translate(4 133)">
<title>mappel::MLEstimator</title>
<polygon fill="white" stroke="none" points="-4,4 -4,-133 502,-133 502,4 -4,4"/>
<!-- Node1 -->
<g id="node1" class="node"><title>Node1</title>
<polygon fill="#bfbfbf" stroke="black" points="196,-55.5 196,-73.5 299,-73.5 299,-55.5 196,-55.5"/>
<text text-anchor="middle" x="247.5" y="-62.3" font-family="Helvetica,sans-Serif" font-size="9.00">mappel::MLEstimator</text>
</g>
<!-- Node3 -->
<g id="node3" class="node"><title>Node3</title>
<g id="a_node3"><a xlink:href="classmappel_1_1Gauss1DMLE.html" target="_top" xlink:title="A 1D Gaussian with fixed PSF under an Poisson noise assumption and maximum&#45;likelihood objective...">
<polygon fill="white" stroke="black" points="0,-0.5 0,-18.5 109,-18.5 109,-0.5 0,-0.5"/>
<text text-anchor="middle" x="54.5" y="-7.3" font-family="Helvetica,sans-Serif" font-size="9.00">mappel::Gauss1DMLE</text>
</a>
</g>
</g>
<!-- Node1&#45;&gt;Node3 -->
<g id="edge2" class="edge"><title>Node1&#45;&gt;Node3</title>
<path fill="none" stroke="midnightblue" d="M208.28,-52.7297C171.394,-42.6003 117.008,-27.6655 83.7716,-18.5383"/>
<polygon fill="midnightblue" stroke="midnightblue" points="207.618,-56.1773 218.187,-55.4504 209.471,-49.4272 207.618,-56.1773"/>
</g>
<!-- Node4 -->
<g id="node4" class="node"><title>Node4</title>
<g id="a_node4"><a xlink:href="classmappel_1_1Gauss1DsMLE.html" target="_top" xlink:title="A 1D Gaussian with variable PSF under an Poisson noise assumption and maximum&#45;likelihood estimator...">
<polygon fill="white" stroke="black" points="127,-0.5 127,-18.5 240,-18.5 240,-0.5 127,-0.5"/>
<text text-anchor="middle" x="183.5" y="-7.3" font-family="Helvetica,sans-Serif" font-size="9.00">mappel::Gauss1DsMLE</text>
</a>
</g>
</g>
<!-- Node1&#45;&gt;Node4 -->
<g id="edge3" class="edge"><title>Node1&#45;&gt;Node4</title>
<path fill="none" stroke="midnightblue" d="M229.901,-48.9259C218.111,-39.1622 203.025,-26.6693 193.312,-18.6253"/>
<polygon fill="midnightblue" stroke="midnightblue" points="227.845,-51.7679 237.78,-55.4504 232.31,-46.3766 227.845,-51.7679"/>
</g>
<!-- Node5 -->
<g id="node5" class="node"><title>Node5</title>
<g id="a_node5"><a xlink:href="classmappel_1_1Gauss2DMLE.html" target="_top" xlink:title="A 2D Gaussian with fixed PSF under an Poisson noise assumption and maximum&#45;likelihood objective...">
<polygon fill="white" stroke="black" points="258,-0.5 258,-18.5 367,-18.5 367,-0.5 258,-0.5"/>
<text text-anchor="middle" x="312.5" y="-7.3" font-family="Helvetica,sans-Serif" font-size="9.00">mappel::Gauss2DMLE</text>
</a>
</g>
</g>
<!-- Node1&#45;&gt;Node5 -->
<g id="edge4" class="edge"><title>Node1&#45;&gt;Node5</title>
<path fill="none" stroke="midnightblue" d="M265.374,-48.9259C277.348,-39.1622 292.67,-26.6693 302.535,-18.6253"/>
<polygon fill="midnightblue" stroke="midnightblue" points="262.911,-46.4184 257.372,-55.4504 267.334,-51.8436 262.911,-46.4184"/>
</g>
<!-- Node6 -->
<g id="node6" class="node"><title>Node6</title>
<g id="a_node6"><a xlink:href="classmappel_1_1Gauss2DsMLE.html" target="_top" xlink:title="A 2D Gaussian with a variable scalar PSF sigma under a Poisson noise assumption using a maximum&#45;likel...">
<polygon fill="white" stroke="black" points="385,-0.5 385,-18.5 498,-18.5 498,-0.5 385,-0.5"/>
<text text-anchor="middle" x="441.5" y="-7.3" font-family="Helvetica,sans-Serif" font-size="9.00">mappel::Gauss2DsMLE</text>
</a>
</g>
</g>
<!-- Node1&#45;&gt;Node6 -->
<g id="edge5" class="edge"><title>Node1&#45;&gt;Node6</title>
<path fill="none" stroke="midnightblue" d="M286.923,-52.7297C324.001,-42.6003 378.668,-27.6655 412.077,-18.5383"/>
<polygon fill="midnightblue" stroke="midnightblue" points="285.689,-49.4387 276.964,-55.4504 287.533,-56.1913 285.689,-49.4387"/>
</g>
<!-- Node2 -->
<g id="node2" class="node"><title>Node2</title>
<g id="a_node2"><a xlink:href="classmappel_1_1PointEmitterModel.html" target="_top" xlink:title="A virtual Base type for point emitter localization models. ">
<polygon fill="white" stroke="black" points="184,-110.5 184,-128.5 311,-128.5 311,-110.5 184,-110.5"/>
<text text-anchor="middle" x="247.5" y="-117.3" font-family="Helvetica,sans-Serif" font-size="9.00">mappel::PointEmitterModel</text>
</a>
</g>
</g>
<!-- Node2&#45;&gt;Node1 -->
<g id="edge1" class="edge"><title>Node2&#45;&gt;Node1</title>
<path fill="none" stroke="midnightblue" d="M247.5,-100.175C247.5,-91.0945 247.5,-80.5949 247.5,-73.5496"/>
<polygon fill="midnightblue" stroke="midnightblue" points="244,-100.219 247.5,-110.219 251,-100.219 244,-100.219"/>
</g>
</g>
</svg>
