<?xml version="1.0" encoding="UTF-8" standalone="no"?>
<!DOCTYPE svg PUBLIC "-//W3C//DTD SVG 1.1//EN"
 "http://www.w3.org/Graphics/SVG/1.1/DTD/svg11.dtd">
<!-- Generated by graphviz version 2.38.0 (20140413.2041)
 -->
<!-- Title: mappel::Gauss2DMLE Pages: 1 -->
<svg width="460pt" height="247pt"
 viewBox="0.00 0.00 460.00 247.00" xmlns="http://www.w3.org/2000/svg" xmlns:xlink="http://www.w3.org/1999/xlink">
<g id="graph0" class="graph" transform="scale(1 1) rotate(0) translate(4 243)">
<title>mappel::Gauss2DMLE</title>
<polygon fill="white" stroke="none" points="-4,4 -4,-243 456,-243 456,4 -4,4"/>
<!-- Node1 -->
<g id="node1" class="node"><title>Node1</title>
<polygon fill="#bfbfbf" stroke="black" points="163,-0.5 163,-18.5 272,-18.5 272,-0.5 163,-0.5"/>
<text text-anchor="middle" x="217.5" y="-7.3" font-family="Helvetica,sans-Serif" font-size="9.00">mappel::Gauss2DMLE</text>
</g>
<!-- Node2 -->
<g id="node2" class="node"><title>Node2</title>
<g id="a_node2"><a xlink:href="classmappel_1_1Gauss2DModel.html" target="_top" xlink:title="A base class for 2D Gaussian PSF with fixed but possibly asymmetric sigma. ">
<polygon fill="white" stroke="black" points="159.5,-55.5 159.5,-73.5 275.5,-73.5 275.5,-55.5 159.5,-55.5"/>
<text text-anchor="middle" x="217.5" y="-62.3" font-family="Helvetica,sans-Serif" font-size="9.00">mappel::Gauss2DModel</text>
</a>
</g>
</g>
<!-- Node2&#45;&gt;Node1 -->
<g id="edge1" class="edge"><title>Node2&#45;&gt;Node1</title>
<path fill="none" stroke="midnightblue" d="M217.5,-45.1746C217.5,-36.0945 217.5,-25.5949 217.5,-18.5496"/>
<polygon fill="midnightblue" stroke="midnightblue" points="214,-45.2187 217.5,-55.2188 221,-45.2188 214,-45.2187"/>
</g>
<!-- Node3 -->
<g id="node3" class="node"><title>Node3</title>
<g id="a_node3"><a xlink:href="classmappel_1_1PointEmitterModel.html" target="_top" xlink:title="A virtual Base type for point emitter localization models. ">
<polygon fill="white" stroke="black" points="39,-220.5 39,-238.5 166,-238.5 166,-220.5 39,-220.5"/>
<text text-anchor="middle" x="102.5" y="-227.3" font-family="Helvetica,sans-Serif" font-size="9.00">mappel::PointEmitterModel</text>
</a>
</g>
</g>
<!-- Node3&#45;&gt;Node2 -->
<g id="edge2" class="edge"><title>Node3&#45;&gt;Node2</title>
<path fill="none" stroke="midnightblue" d="M106.216,-210.63C112.101,-185.824 125.544,-140.566 150.5,-110 163.835,-93.667 184.749,-81.1196 199.662,-73.5744"/>
<polygon fill="midnightblue" stroke="midnightblue" points="102.784,-209.94 104.03,-220.461 109.617,-211.46 102.784,-209.94"/>
</g>
<!-- Node6 -->
<g id="node6" class="node"><title>Node6</title>
<g id="a_node6"><a xlink:href="classmappel_1_1MCMCAdaptor1D.html" target="_top" xlink:title="mappel::MCMCAdaptor1D">
<polygon fill="white" stroke="black" points="160,-165.5 160,-183.5 285,-183.5 285,-165.5 160,-165.5"/>
<text text-anchor="middle" x="222.5" y="-172.3" font-family="Helvetica,sans-Serif" font-size="9.00">mappel::MCMCAdaptor1D</text>
</a>
</g>
</g>
<!-- Node3&#45;&gt;Node6 -->
<g id="edge6" class="edge"><title>Node3&#45;&gt;Node6</title>
<path fill="none" stroke="midnightblue" d="M130.16,-216.283C152.867,-206.254 184.387,-192.333 204.103,-183.625"/>
<polygon fill="midnightblue" stroke="midnightblue" points="128.459,-213.209 120.725,-220.45 131.287,-219.612 128.459,-213.209"/>
</g>
<!-- Node9 -->
<g id="node9" class="node"><title>Node9</title>
<g id="a_node9"><a xlink:href="classmappel_1_1MLEstimator.html" target="_top" xlink:title="A Mixin class to configure a for MLE estimation (null prior). ">
<polygon fill="white" stroke="black" points="0,-165.5 0,-183.5 103,-183.5 103,-165.5 0,-165.5"/>
<text text-anchor="middle" x="51.5" y="-172.3" font-family="Helvetica,sans-Serif" font-size="9.00">mappel::MLEstimator</text>
</a>
</g>
</g>
<!-- Node3&#45;&gt;Node9 -->
<g id="edge11" class="edge"><title>Node3&#45;&gt;Node9</title>
<path fill="none" stroke="midnightblue" d="M87.4139,-212.822C78.1596,-203.205 66.6958,-191.292 59.2458,-183.55"/>
<polygon fill="midnightblue" stroke="midnightblue" points="85.0754,-215.44 94.5312,-220.219 90.1194,-210.586 85.0754,-215.44"/>
</g>
<!-- Node4 -->
<g id="node4" class="node"><title>Node4</title>
<g id="a_node4"><a xlink:href="classmappel_1_1ImageFormat2DBase.html" target="_top" xlink:title="A virtual base class for 2D image localization objectives. ">
<polygon fill="white" stroke="black" points="303,-110.5 303,-128.5 442,-128.5 442,-110.5 303,-110.5"/>
<text text-anchor="middle" x="372.5" y="-117.3" font-family="Helvetica,sans-Serif" font-size="9.00">mappel::ImageFormat2DBase</text>
</a>
</g>
</g>
<!-- Node4&#45;&gt;Node2 -->
<g id="edge3" class="edge"><title>Node4&#45;&gt;Node2</title>
<path fill="none" stroke="midnightblue" d="M339.471,-107.206C309.89,-97.0914 267.245,-82.5095 241.008,-73.5383"/>
<polygon fill="midnightblue" stroke="midnightblue" points="338.364,-110.527 348.959,-110.45 340.629,-103.903 338.364,-110.527"/>
</g>
<!-- Node8 -->
<g id="node8" class="node"><title>Node8</title>
<g id="a_node8"><a xlink:href="classmappel_1_1PoissonNoise2DObjective.html" target="_top" xlink:title="A base class for 2D objectives with Poisson read noise. This objective function and its subclasses ar...">
<polygon fill="white" stroke="black" points="293,-55.5 293,-73.5 452,-73.5 452,-55.5 293,-55.5"/>
<text text-anchor="middle" x="372.5" y="-62.3" font-family="Helvetica,sans-Serif" font-size="9.00">mappel::PoissonNoise2DObjective</text>
</a>
</g>
</g>
<!-- Node4&#45;&gt;Node8 -->
<g id="edge9" class="edge"><title>Node4&#45;&gt;Node8</title>
<path fill="none" stroke="midnightblue" d="M372.5,-100.175C372.5,-91.0945 372.5,-80.5949 372.5,-73.5496"/>
<polygon fill="midnightblue" stroke="midnightblue" points="369,-100.219 372.5,-110.219 376,-100.219 369,-100.219"/>
</g>
<!-- Node5 -->
<g id="node5" class="node"><title>Node5</title>
<g id="a_node5"><a xlink:href="classmappel_1_1MCMCAdaptor2D.html" target="_top" xlink:title="mappel::MCMCAdaptor2D">
<polygon fill="white" stroke="black" points="160,-110.5 160,-128.5 285,-128.5 285,-110.5 160,-110.5"/>
<text text-anchor="middle" x="222.5" y="-117.3" font-family="Helvetica,sans-Serif" font-size="9.00">mappel::MCMCAdaptor2D</text>
</a>
</g>
</g>
<!-- Node5&#45;&gt;Node2 -->
<g id="edge4" class="edge"><title>Node5&#45;&gt;Node2</title>
<path fill="none" stroke="midnightblue" d="M220.771,-100.175C219.915,-91.0945 218.924,-80.5949 218.259,-73.5496"/>
<polygon fill="midnightblue" stroke="midnightblue" points="217.295,-100.592 221.719,-110.219 224.264,-99.9342 217.295,-100.592"/>
</g>
<!-- Node6&#45;&gt;Node5 -->
<g id="edge5" class="edge"><title>Node6&#45;&gt;Node5</title>
<path fill="none" stroke="midnightblue" d="M222.5,-155.175C222.5,-146.094 222.5,-135.595 222.5,-128.55"/>
<polygon fill="midnightblue" stroke="midnightblue" points="219,-155.219 222.5,-165.219 226,-155.219 219,-155.219"/>
</g>
<!-- Node7 -->
<g id="node7" class="node"><title>Node7</title>
<g id="a_node7"><a xlink:href="classmappel_1_1MCMCAdaptorBase.html" target="_top" xlink:title="mappel::MCMCAdaptorBase">
<polygon fill="white" stroke="black" points="184.5,-220.5 184.5,-238.5 318.5,-238.5 318.5,-220.5 184.5,-220.5"/>
<text text-anchor="middle" x="251.5" y="-227.3" font-family="Helvetica,sans-Serif" font-size="9.00">mappel::MCMCAdaptorBase</text>
</a>
</g>
</g>
<!-- Node7&#45;&gt;Node6 -->
<g id="edge7" class="edge"><title>Node7&#45;&gt;Node6</title>
<path fill="none" stroke="midnightblue" d="M242.123,-211.363C237.013,-202.024 230.929,-190.905 226.904,-183.55"/>
<polygon fill="midnightblue" stroke="midnightblue" points="239.098,-213.126 246.969,-220.219 245.239,-209.766 239.098,-213.126"/>
</g>
<!-- Node8&#45;&gt;Node1 -->
<g id="edge8" class="edge"><title>Node8&#45;&gt;Node1</title>
<path fill="none" stroke="midnightblue" d="M339.471,-52.2061C309.89,-42.0914 267.245,-27.5095 241.008,-18.5383"/>
<polygon fill="midnightblue" stroke="midnightblue" points="338.364,-55.5267 348.959,-55.4504 340.629,-48.9032 338.364,-55.5267"/>
</g>
<!-- Node9&#45;&gt;Node1 -->
<g id="edge10" class="edge"><title>Node9&#45;&gt;Node1</title>
<path fill="none" stroke="midnightblue" d="M62.9658,-156.92C80.1808,-132.75 114.541,-87.2155 150.5,-55 166.933,-40.278 188.603,-26.7775 202.786,-18.5986"/>
<polygon fill="midnightblue" stroke="midnightblue" points="59.9385,-155.141 57.053,-165.335 65.6659,-159.165 59.9385,-155.141"/>
</g>
</g>
</svg>
