<?xml version="1.0" encoding="UTF-8" standalone="no"?>
<!DOCTYPE svg PUBLIC "-//W3C//DTD SVG 1.1//EN"
 "http://www.w3.org/Graphics/SVG/1.1/DTD/svg11.dtd">
<!-- Generated by graphviz version 2.38.0 (20140413.2041)
 -->
<!-- Title: mappel::PointEmitterModel::make_prior_component_position_beta Pages: 1 -->
<!--zoomable 525 -->
<svg id="main" version="1.1" xmlns="http://www.w3.org/2000/svg" xmlns:xlink="http://www.w3.org/1999/xlink" xml:space="preserve" onload="init(evt)">
<style type="text/css"><![CDATA[
.edge:hover path { stroke: red; }
.edge:hover polygon { stroke: red; fill: red; }
]]></style>
<script type="text/javascript"><![CDATA[
var edges = document.getElementsByTagName('g');
if (edges && edges.length) {
  for (var i=0;i<edges.length;i++) {
    if (edges[i].id.substr(0,4)=='edge') {
      edges[i].setAttribute('class','edge');
    }
  }
}
]]></script>
        <defs>
                <circle id="rim" cx="0" cy="0" r="7"/>
                <circle id="rim2" cx="0" cy="0" r="3.5"/>
                <g id="zoomPlus">
                        <use xlink:href="#rim" target="_top" fill="#404040">
                                <set attributeName="fill" to="#808080" begin="zoomplus.mouseover" end="zoomplus.mouseout"/>
                        </use>
                        <path d="M-4,0h8M0,-4v8" fill="none" stroke="white" stroke-width="1.5" pointer-events="none"/>
                </g>
                <g id="zoomMin">
                        <use xlink:href="#rim" target="_top" fill="#404040">
                                <set attributeName="fill" to="#808080" begin="zoomminus.mouseover" end="zoomminus.mouseout"/>
                        </use>
                        <path d="M-4,0h8" fill="none" stroke="white" stroke-width="1.5" pointer-events="none"/>
                </g>
                <g id="dirArrow">
                        <path fill="none" stroke="white" stroke-width="1.5" d="M0,-3.0v7 M-2.5,-0.5L0,-3.0L2.5,-0.5"/>
                </g>
               <g id="resetDef">
                       <use xlink:href="#rim2" target="_top" fill="#404040">
                               <set attributeName="fill" to="#808080" begin="reset.mouseover" end="reset.mouseout"/>
                       </use>
               </g>
        </defs>

<script type="text/javascript">
var viewWidth = 767;
var viewHeight = 525;
var sectionId = 'dynsection-28';
</script>
<script xlink:href="svgpan.js" target="_top"/>
<svg id="graph" class="graph">
<g id="viewport">
<title>mappel::PointEmitterModel::make_prior_component_position_beta</title>
<polygon fill="white" stroke="none" points="-4,4 -4,-521 763,-521 763,4 -4,4"/>
<!-- Node1 -->
<g id="node1" class="node"><title>Node1</title>
<polygon fill="#bfbfbf" stroke="black" points="0,-281.5 0,-319.5 127,-319.5 127,-281.5 0,-281.5"/>
<text text-anchor="start" x="8" y="-308.3" font-family="Helvetica,sans-Serif" font-size="9.00">mappel::PointEmitterModel</text>
<text text-anchor="start" x="8" y="-298.3" font-family="Helvetica,sans-Serif" font-size="9.00">::make_prior_component</text>
<text text-anchor="middle" x="63.5" y="-288.3" font-family="Helvetica,sans-Serif" font-size="9.00">_position_beta</text>
</g>
<!-- Node2 -->
<g id="node2" class="node"><title>Node2</title>
<g id="a_node2"><a xlink:href="classmappel_1_1Gauss1DsModel.html#ad0bdb31a8bcc5a83e9f8653d0ad238ff" target="_top" target="_top" xlink:title="mappel::Gauss1DsModel\l::make_default_prior\l_beta_position">
<polygon fill="white" stroke="black" points="167,-478.5 167,-516.5 287,-516.5 287,-478.5 167,-478.5"/>
<text text-anchor="start" x="175" y="-505.3" font-family="Helvetica,sans-Serif" font-size="9.00">mappel::Gauss1DsModel</text>
<text text-anchor="start" x="175" y="-495.3" font-family="Helvetica,sans-Serif" font-size="9.00">::make_default_prior</text>
<text text-anchor="middle" x="227" y="-485.3" font-family="Helvetica,sans-Serif" font-size="9.00">_beta_position</text>
</a>
</g>
</g>
<!-- Node1&#45;&gt;Node2 -->
<g id="edge1" class="edge"><title>Node1&#45;&gt;Node2</title>
<path fill="none" stroke="midnightblue" d="M74.7666,-329.19C89.2596,-366.069 118.961,-430.036 163,-469.5 166.655,-472.775 170.755,-475.719 175.064,-478.354"/>
<polygon fill="midnightblue" stroke="midnightblue" points="77.9218,-327.642 71.0828,-319.55 71.3829,-330.14 77.9218,-327.642"/>
</g>
<!-- Node4 -->
<g id="node4" class="node"><title>Node4</title>
<g id="a_node4"><a xlink:href="classmappel_1_1Gauss2DModel.html#a47208116565b1960bc0bd84ee91dee1d" target="_top" target="_top" xlink:title="mappel::Gauss2DModel\l::make_default_prior\l_beta_position">
<polygon fill="white" stroke="black" points="169,-421.5 169,-459.5 285,-459.5 285,-421.5 169,-421.5"/>
<text text-anchor="start" x="177" y="-448.3" font-family="Helvetica,sans-Serif" font-size="9.00">mappel::Gauss2DModel</text>
<text text-anchor="start" x="177" y="-438.3" font-family="Helvetica,sans-Serif" font-size="9.00">::make_default_prior</text>
<text text-anchor="middle" x="227" y="-428.3" font-family="Helvetica,sans-Serif" font-size="9.00">_beta_position</text>
</a>
</g>
</g>
<!-- Node1&#45;&gt;Node4 -->
<g id="edge3" class="edge"><title>Node1&#45;&gt;Node4</title>
<path fill="none" stroke="midnightblue" d="M83.3825,-328.062C101.465,-352.8 130.711,-388.767 163,-412.5 167.436,-415.761 172.313,-418.754 177.327,-421.47"/>
<polygon fill="midnightblue" stroke="midnightblue" points="86.1401,-325.902 77.4653,-319.819 80.4534,-329.984 86.1401,-325.902"/>
</g>
<!-- Node6 -->
<g id="node6" class="node"><title>Node6</title>
<g id="a_node6"><a xlink:href="classmappel_1_1Gauss1DModel.html#a539665592706f1d18966ce7fff974f92" target="_top" target="_top" xlink:title="mappel::Gauss1DModel\l::make_default_prior\l_beta_position">
<polygon fill="white" stroke="black" points="169,-364.5 169,-402.5 285,-402.5 285,-364.5 169,-364.5"/>
<text text-anchor="start" x="177" y="-391.3" font-family="Helvetica,sans-Serif" font-size="9.00">mappel::Gauss1DModel</text>
<text text-anchor="start" x="177" y="-381.3" font-family="Helvetica,sans-Serif" font-size="9.00">::make_default_prior</text>
<text text-anchor="middle" x="227" y="-371.3" font-family="Helvetica,sans-Serif" font-size="9.00">_beta_position</text>
</a>
</g>
</g>
<!-- Node1&#45;&gt;Node6 -->
<g id="edge5" class="edge"><title>Node1&#45;&gt;Node6</title>
<path fill="none" stroke="midnightblue" d="M105.748,-324.632C123.215,-334.562 143.906,-345.951 163,-355.5 168.995,-358.498 175.382,-361.524 181.702,-364.423"/>
<polygon fill="midnightblue" stroke="midnightblue" points="107.351,-321.517 96.9333,-319.59 103.875,-327.593 107.351,-321.517"/>
</g>
<!-- Node8 -->
<g id="node8" class="node"><title>Node8</title>
<g id="a_node8"><a xlink:href="classmappel_1_1Gauss2DsModel.html#aaad8b5a9355f37ecac6763acbf60bfe3" target="_top" target="_top" xlink:title="mappel::Gauss2DsModel\l::make_default_prior\l_beta_position">
<polygon fill="white" stroke="black" points="167,-307.5 167,-345.5 287,-345.5 287,-307.5 167,-307.5"/>
<text text-anchor="start" x="175" y="-334.3" font-family="Helvetica,sans-Serif" font-size="9.00">mappel::Gauss2DsModel</text>
<text text-anchor="start" x="175" y="-324.3" font-family="Helvetica,sans-Serif" font-size="9.00">::make_default_prior</text>
<text text-anchor="middle" x="227" y="-314.3" font-family="Helvetica,sans-Serif" font-size="9.00">_beta_position</text>
</a>
</g>
</g>
<!-- Node1&#45;&gt;Node8 -->
<g id="edge7" class="edge"><title>Node1&#45;&gt;Node8</title>
<path fill="none" stroke="midnightblue" d="M137.577,-312.265C147.418,-313.849 157.412,-315.458 166.968,-316.996"/>
<polygon fill="midnightblue" stroke="midnightblue" points="137.832,-308.761 127.403,-310.627 136.719,-315.672 137.832,-308.761"/>
</g>
<!-- Node12 -->
<g id="node12" class="node"><title>Node12</title>
<g id="a_node12"><a xlink:href="classmappel_1_1Gauss1DsModel.html#a2022044169be5c62bba0db37c2352792" target="_top" target="_top" xlink:title="mappel::Gauss1DsModel\l::make_prior_beta_position">
<polygon fill="white" stroke="black" points="163,-260.5 163,-288.5 291,-288.5 291,-260.5 163,-260.5"/>
<text text-anchor="start" x="171" y="-277.3" font-family="Helvetica,sans-Serif" font-size="9.00">mappel::Gauss1DsModel</text>
<text text-anchor="middle" x="227" y="-267.3" font-family="Helvetica,sans-Serif" font-size="9.00">::make_prior_beta_position</text>
</a>
</g>
</g>
<!-- Node1&#45;&gt;Node12 -->
<g id="edge11" class="edge"><title>Node1&#45;&gt;Node12</title>
<path fill="none" stroke="midnightblue" d="M137.292,-288.781C145.782,-287.414 154.391,-286.028 162.738,-284.685"/>
<polygon fill="midnightblue" stroke="midnightblue" points="136.719,-285.328 127.403,-290.373 137.832,-292.239 136.719,-285.328"/>
</g>
<!-- Node19 -->
<g id="node19" class="node"><title>Node19</title>
<g id="a_node19"><a xlink:href="classmappel_1_1Gauss2DModel.html#a78470247a902315915ad8af1770ea466" target="_top" target="_top" xlink:title="mappel::Gauss2DModel\l::make_prior_beta_position">
<polygon fill="white" stroke="black" points="163,-213.5 163,-241.5 291,-241.5 291,-213.5 163,-213.5"/>
<text text-anchor="start" x="171" y="-230.3" font-family="Helvetica,sans-Serif" font-size="9.00">mappel::Gauss2DModel</text>
<text text-anchor="middle" x="227" y="-220.3" font-family="Helvetica,sans-Serif" font-size="9.00">::make_prior_beta_position</text>
</a>
</g>
</g>
<!-- Node1&#45;&gt;Node19 -->
<g id="edge20" class="edge"><title>Node1&#45;&gt;Node19</title>
<path fill="none" stroke="midnightblue" d="M109.545,-276.936C126.176,-268.544 145.286,-259.258 163,-251.5 170.826,-248.072 179.312,-244.648 187.445,-241.504"/>
<polygon fill="midnightblue" stroke="midnightblue" points="107.914,-273.839 100.586,-281.491 111.086,-280.079 107.914,-273.839"/>
</g>
<!-- Node20 -->
<g id="node20" class="node"><title>Node20</title>
<g id="a_node20"><a xlink:href="classmappel_1_1Gauss1DModel.html#a808fde22a0fb00140b4ba60e7df685eb" target="_top" target="_top" xlink:title="mappel::Gauss1DModel\l::make_prior_beta_position">
<polygon fill="white" stroke="black" points="163,-166.5 163,-194.5 291,-194.5 291,-166.5 163,-166.5"/>
<text text-anchor="start" x="171" y="-183.3" font-family="Helvetica,sans-Serif" font-size="9.00">mappel::Gauss1DModel</text>
<text text-anchor="middle" x="227" y="-173.3" font-family="Helvetica,sans-Serif" font-size="9.00">::make_prior_beta_position</text>
</a>
</g>
</g>
<!-- Node1&#45;&gt;Node20 -->
<g id="edge21" class="edge"><title>Node1&#45;&gt;Node20</title>
<path fill="none" stroke="midnightblue" d="M86.2406,-273.447C104.716,-251.971 132.962,-222.496 163,-203.5 168.314,-200.139 174.19,-197.173 180.153,-194.585"/>
<polygon fill="midnightblue" stroke="midnightblue" points="83.4315,-271.349 79.6545,-281.248 88.7801,-275.865 83.4315,-271.349"/>
</g>
<!-- Node27 -->
<g id="node27" class="node"><title>Node27</title>
<g id="a_node27"><a xlink:href="classmappel_1_1Gauss2DsModel.html#a027a8dd814e5e3a6588cc1e5f5225059" target="_top" target="_top" xlink:title="mappel::Gauss2DsModel\l::make_prior_beta_position">
<polygon fill="white" stroke="black" points="163,-119.5 163,-147.5 291,-147.5 291,-119.5 163,-119.5"/>
<text text-anchor="start" x="171" y="-136.3" font-family="Helvetica,sans-Serif" font-size="9.00">mappel::Gauss2DsModel</text>
<text text-anchor="middle" x="227" y="-126.3" font-family="Helvetica,sans-Serif" font-size="9.00">::make_prior_beta_position</text>
</a>
</g>
</g>
<!-- Node1&#45;&gt;Node27 -->
<g id="edge30" class="edge"><title>Node1&#45;&gt;Node27</title>
<path fill="none" stroke="midnightblue" d="M77.2673,-272.02C93.0746,-239.764 122.897,-187.653 163,-156.5 167.414,-153.071 172.387,-150.12 177.555,-147.587"/>
<polygon fill="midnightblue" stroke="midnightblue" points="73.9641,-270.815 72.8157,-281.347 80.2815,-273.83 73.9641,-270.815"/>
</g>
<!-- Node3 -->
<g id="node3" class="node"><title>Node3</title>
<g id="a_node3"><a xlink:href="classmappel_1_1Gauss1DsModel.html#a35300bd3e01596220b5630853da3d9ce" target="_top" target="_top" xlink:title="mappel::Gauss1DsModel\l::make_default_prior">
<polygon fill="white" stroke="black" points="327,-483.5 327,-511.5 447,-511.5 447,-483.5 327,-483.5"/>
<text text-anchor="start" x="335" y="-500.3" font-family="Helvetica,sans-Serif" font-size="9.00">mappel::Gauss1DsModel</text>
<text text-anchor="middle" x="387" y="-490.3" font-family="Helvetica,sans-Serif" font-size="9.00">::make_default_prior</text>
</a>
</g>
</g>
<!-- Node2&#45;&gt;Node3 -->
<g id="edge2" class="edge"><title>Node2&#45;&gt;Node3</title>
<path fill="none" stroke="midnightblue" d="M297.431,-497.5C307.264,-497.5 317.298,-497.5 326.91,-497.5"/>
<polygon fill="midnightblue" stroke="midnightblue" points="297.283,-494 287.283,-497.5 297.283,-501 297.283,-494"/>
</g>
<!-- Node5 -->
<g id="node5" class="node"><title>Node5</title>
<g id="a_node5"><a xlink:href="classmappel_1_1Gauss2DModel.html#a47f4b70d887066e1d73c0544e0a9690c" target="_top" target="_top" xlink:title="mappel::Gauss2DModel\l::make_default_prior">
<polygon fill="white" stroke="black" points="329,-426.5 329,-454.5 445,-454.5 445,-426.5 329,-426.5"/>
<text text-anchor="start" x="337" y="-443.3" font-family="Helvetica,sans-Serif" font-size="9.00">mappel::Gauss2DModel</text>
<text text-anchor="middle" x="387" y="-433.3" font-family="Helvetica,sans-Serif" font-size="9.00">::make_default_prior</text>
</a>
</g>
</g>
<!-- Node4&#45;&gt;Node5 -->
<g id="edge4" class="edge"><title>Node4&#45;&gt;Node5</title>
<path fill="none" stroke="midnightblue" d="M295.192,-440.5C306.372,-440.5 317.874,-440.5 328.777,-440.5"/>
<polygon fill="midnightblue" stroke="midnightblue" points="295.042,-437 285.042,-440.5 295.042,-444 295.042,-437"/>
</g>
<!-- Node7 -->
<g id="node7" class="node"><title>Node7</title>
<g id="a_node7"><a xlink:href="classmappel_1_1Gauss1DModel.html#ab9aeff0d5e4f065e81b1d49183ca3fcb" target="_top" target="_top" xlink:title="mappel::Gauss1DModel\l::make_default_prior">
<polygon fill="white" stroke="black" points="329,-374.5 329,-402.5 445,-402.5 445,-374.5 329,-374.5"/>
<text text-anchor="start" x="337" y="-391.3" font-family="Helvetica,sans-Serif" font-size="9.00">mappel::Gauss1DModel</text>
<text text-anchor="middle" x="387" y="-381.3" font-family="Helvetica,sans-Serif" font-size="9.00">::make_default_prior</text>
</a>
</g>
</g>
<!-- Node6&#45;&gt;Node7 -->
<g id="edge6" class="edge"><title>Node6&#45;&gt;Node7</title>
<path fill="none" stroke="midnightblue" d="M295.192,-385.626C306.372,-385.98 317.874,-386.344 328.777,-386.689"/>
<polygon fill="midnightblue" stroke="midnightblue" points="295.147,-382.123 285.042,-385.305 294.926,-389.12 295.147,-382.123"/>
</g>
<!-- Node9 -->
<g id="node9" class="node"><title>Node9</title>
<g id="a_node9"><a xlink:href="classmappel_1_1Gauss2DsModel.html#a5f730333cb51b9586892cfd5bb566bf1" target="_top" target="_top" xlink:title="mappel::Gauss2DsModel\l::make_default_prior">
<polygon fill="white" stroke="black" points="327,-327.5 327,-355.5 447,-355.5 447,-327.5 327,-327.5"/>
<text text-anchor="start" x="335" y="-344.3" font-family="Helvetica,sans-Serif" font-size="9.00">mappel::Gauss2DsModel</text>
<text text-anchor="middle" x="387" y="-334.3" font-family="Helvetica,sans-Serif" font-size="9.00">::make_default_prior</text>
</a>
</g>
</g>
<!-- Node8&#45;&gt;Node9 -->
<g id="edge8" class="edge"><title>Node8&#45;&gt;Node9</title>
<path fill="none" stroke="midnightblue" d="M297.431,-333.092C307.264,-334.025 317.298,-334.978 326.91,-335.89"/>
<polygon fill="midnightblue" stroke="midnightblue" points="297.569,-329.589 287.283,-332.128 296.907,-336.558 297.569,-329.589"/>
</g>
<!-- Node10 -->
<g id="node10" class="node"><title>Node10</title>
<g id="a_node10"><a xlink:href="classmappel_1_1Gauss2DsMAP.html#a3060b21e1ba0df3195cc8887919d44ac" target="_top" target="_top" xlink:title="mappel::Gauss2DsMAP\l::Gauss2DsMAP">
<polygon fill="white" stroke="black" points="486,-379.5 486,-407.5 600,-407.5 600,-379.5 486,-379.5"/>
<text text-anchor="start" x="494" y="-396.3" font-family="Helvetica,sans-Serif" font-size="9.00">mappel::Gauss2DsMAP</text>
<text text-anchor="middle" x="543" y="-386.3" font-family="Helvetica,sans-Serif" font-size="9.00">::Gauss2DsMAP</text>
</a>
</g>
</g>
<!-- Node9&#45;&gt;Node10 -->
<g id="edge9" class="edge"><title>Node9&#45;&gt;Node10</title>
<path fill="none" stroke="midnightblue" d="M439.181,-358.782C459.025,-365.483 481.456,-373.057 500.292,-379.417"/>
<polygon fill="midnightblue" stroke="midnightblue" points="440.269,-355.455 429.675,-355.572 438.029,-362.087 440.269,-355.455"/>
</g>
<!-- Node11 -->
<g id="node11" class="node"><title>Node11</title>
<g id="a_node11"><a xlink:href="classmappel_1_1Gauss2DsMLE.html#a3151cb0e1936aaeacee80da0feb0231c" target="_top" target="_top" xlink:title="mappel::Gauss2DsMLE\l::Gauss2DsMLE">
<polygon fill="white" stroke="black" points="486.5,-332.5 486.5,-360.5 599.5,-360.5 599.5,-332.5 486.5,-332.5"/>
<text text-anchor="start" x="494.5" y="-349.3" font-family="Helvetica,sans-Serif" font-size="9.00">mappel::Gauss2DsMLE</text>
<text text-anchor="middle" x="543" y="-339.3" font-family="Helvetica,sans-Serif" font-size="9.00">::Gauss2DsMLE</text>
</a>
</g>
</g>
<!-- Node9&#45;&gt;Node11 -->
<g id="edge10" class="edge"><title>Node9&#45;&gt;Node11</title>
<path fill="none" stroke="midnightblue" d="M457.187,-343.746C466.95,-344.063 476.883,-344.386 486.348,-344.693"/>
<polygon fill="midnightblue" stroke="midnightblue" points="457.208,-340.245 447.1,-343.419 456.981,-347.242 457.208,-340.245"/>
</g>
<!-- Node13 -->
<g id="node13" class="node"><title>Node13</title>
<g id="a_node13"><a xlink:href="classmappel_1_1Gauss2DsModel.html#a199ce5ccefd43d8bf4b6d0b076fca918" target="_top" target="_top" xlink:title="mappel::Gauss2DsModel\l::make_internal_1Dsum\l_estimator">
<polygon fill="white" stroke="black" points="327,-246.5 327,-284.5 447,-284.5 447,-246.5 327,-246.5"/>
<text text-anchor="start" x="335" y="-273.3" font-family="Helvetica,sans-Serif" font-size="9.00">mappel::Gauss2DsModel</text>
<text text-anchor="start" x="335" y="-263.3" font-family="Helvetica,sans-Serif" font-size="9.00">::make_internal_1Dsum</text>
<text text-anchor="middle" x="387" y="-253.3" font-family="Helvetica,sans-Serif" font-size="9.00">_estimator</text>
</a>
</g>
</g>
<!-- Node12&#45;&gt;Node13 -->
<g id="edge12" class="edge"><title>Node12&#45;&gt;Node13</title>
<path fill="none" stroke="midnightblue" d="M301.368,-270.321C309.954,-269.832 318.63,-269.338 326.986,-268.862"/>
<polygon fill="midnightblue" stroke="midnightblue" points="301.139,-266.828 291.354,-270.891 301.537,-273.817 301.139,-266.828"/>
</g>
<!-- Node14 -->
<g id="node14" class="node"><title>Node14</title>
<g id="a_node14"><a xlink:href="classmappel_1_1Gauss2DsModel.html#a2ce4737beb88367daeb480bf471ad2cf" target="_top" target="_top" xlink:title="mappel::Gauss2DsModel\l::debug_internal_sum\l_model_y">
<polygon fill="white" stroke="black" points="639,-245.5 639,-283.5 759,-283.5 759,-245.5 639,-245.5"/>
<text text-anchor="start" x="647" y="-272.3" font-family="Helvetica,sans-Serif" font-size="9.00">mappel::Gauss2DsModel</text>
<text text-anchor="start" x="647" y="-262.3" font-family="Helvetica,sans-Serif" font-size="9.00">::debug_internal_sum</text>
<text text-anchor="middle" x="699" y="-252.3" font-family="Helvetica,sans-Serif" font-size="9.00">_model_y</text>
</a>
</g>
</g>
<!-- Node13&#45;&gt;Node14 -->
<g id="edge13" class="edge"><title>Node13&#45;&gt;Node14</title>
<path fill="none" stroke="midnightblue" d="M457.125,-280.972C465.798,-282.426 474.579,-283.666 483,-284.5 536.074,-289.755 549.953,-290.023 603,-284.5 614.651,-283.287 626.978,-281.258 638.754,-278.947"/>
<polygon fill="midnightblue" stroke="midnightblue" points="457.478,-277.48 447.02,-279.178 456.254,-284.372 457.478,-277.48"/>
</g>
<!-- Node15 -->
<g id="node15" class="node"><title>Node15</title>
<g id="a_node15"><a xlink:href="classmappel_1_1Gauss2DsModel.html#ab884d4d8ab54ec53cf0116aa9a5b1d81" target="_top" target="_top" xlink:title="mappel::Gauss2DsModel\l::Gauss2DsModel">
<polygon fill="white" stroke="black" points="483,-246.5 483,-274.5 603,-274.5 603,-246.5 483,-246.5"/>
<text text-anchor="start" x="491" y="-263.3" font-family="Helvetica,sans-Serif" font-size="9.00">mappel::Gauss2DsModel</text>
<text text-anchor="middle" x="543" y="-253.3" font-family="Helvetica,sans-Serif" font-size="9.00">::Gauss2DsModel</text>
</a>
</g>
</g>
<!-- Node13&#45;&gt;Node15 -->
<g id="edge14" class="edge"><title>Node13&#45;&gt;Node15</title>
<path fill="none" stroke="midnightblue" d="M457.369,-263.248C465.862,-262.972 474.48,-262.692 482.804,-262.422"/>
<polygon fill="midnightblue" stroke="midnightblue" points="456.981,-259.758 447.1,-263.581 457.208,-266.755 456.981,-259.758"/>
</g>
<!-- Node16 -->
<g id="node16" class="node"><title>Node16</title>
<g id="a_node16"><a xlink:href="classmappel_1_1Gauss2DsModel.html#a6ce7054c0fcdb72394839a0abb2616cb" target="_top" target="_top" xlink:title="mappel::Gauss2DsModel\l::update_internal_1Dsum\l_estimators">
<polygon fill="white" stroke="black" points="483,-189.5 483,-227.5 603,-227.5 603,-189.5 483,-189.5"/>
<text text-anchor="start" x="491" y="-216.3" font-family="Helvetica,sans-Serif" font-size="9.00">mappel::Gauss2DsModel</text>
<text text-anchor="start" x="491" y="-206.3" font-family="Helvetica,sans-Serif" font-size="9.00">::update_internal_1Dsum</text>
<text text-anchor="middle" x="543" y="-196.3" font-family="Helvetica,sans-Serif" font-size="9.00">_estimators</text>
</a>
</g>
</g>
<!-- Node13&#45;&gt;Node16 -->
<g id="edge16" class="edge"><title>Node13&#45;&gt;Node16</title>
<path fill="none" stroke="midnightblue" d="M449.453,-242.755C463.033,-237.728 477.287,-232.452 490.428,-227.588"/>
<polygon fill="midnightblue" stroke="midnightblue" points="447.871,-239.608 439.708,-246.361 450.301,-246.172 447.871,-239.608"/>
</g>
<!-- Node15&#45;&gt;Node14 -->
<g id="edge15" class="edge"><title>Node15&#45;&gt;Node14</title>
<path fill="none" stroke="midnightblue" d="M613.369,-262.302C621.862,-262.522 630.48,-262.746 638.804,-262.962"/>
<polygon fill="midnightblue" stroke="midnightblue" points="613.188,-258.796 603.1,-262.035 613.006,-265.794 613.188,-258.796"/>
</g>
<!-- Node16&#45;&gt;Node14 -->
<g id="edge17" class="edge"><title>Node16&#45;&gt;Node14</title>
<path fill="none" stroke="midnightblue" d="M606.013,-231.05C619.164,-235.832 632.921,-240.835 645.67,-245.471"/>
<polygon fill="midnightblue" stroke="midnightblue" points="607.161,-227.744 596.567,-227.615 604.769,-234.322 607.161,-227.744"/>
</g>
<!-- Node17 -->
<g id="node17" class="node"><title>Node17</title>
<g id="a_node17"><a xlink:href="classmappel_1_1Gauss2DsModel.html#a615788e50f97d8c863ec60a5dfee07e3" target="_top" target="_top" xlink:title="mappel::Gauss2DsModel\l::set_hyperparams">
<polygon fill="white" stroke="black" points="639,-198.5 639,-226.5 759,-226.5 759,-198.5 639,-198.5"/>
<text text-anchor="start" x="647" y="-215.3" font-family="Helvetica,sans-Serif" font-size="9.00">mappel::Gauss2DsModel</text>
<text text-anchor="middle" x="699" y="-205.3" font-family="Helvetica,sans-Serif" font-size="9.00">::set_hyperparams</text>
</a>
</g>
</g>
<!-- Node16&#45;&gt;Node17 -->
<g id="edge18" class="edge"><title>Node16&#45;&gt;Node17</title>
<path fill="none" stroke="midnightblue" d="M613.369,-210.302C621.862,-210.522 630.48,-210.746 638.804,-210.962"/>
<polygon fill="midnightblue" stroke="midnightblue" points="613.188,-206.796 603.1,-210.035 613.006,-213.794 613.188,-206.796"/>
</g>
<!-- Node18 -->
<g id="node18" class="node"><title>Node18</title>
<g id="a_node18"><a xlink:href="classmappel_1_1Gauss2DsModel.html#a895bee95db23557189b58f9b1d5e2453" target="_top" target="_top" xlink:title="mappel::Gauss2DsModel\l::set_prior">
<polygon fill="white" stroke="black" points="639,-151.5 639,-179.5 759,-179.5 759,-151.5 639,-151.5"/>
<text text-anchor="start" x="647" y="-168.3" font-family="Helvetica,sans-Serif" font-size="9.00">mappel::Gauss2DsModel</text>
<text text-anchor="middle" x="699" y="-158.3" font-family="Helvetica,sans-Serif" font-size="9.00">::set_prior</text>
</a>
</g>
</g>
<!-- Node16&#45;&gt;Node18 -->
<g id="edge19" class="edge"><title>Node16&#45;&gt;Node18</title>
<path fill="none" stroke="midnightblue" d="M612.894,-189.263C624.655,-185.979 636.671,-182.624 647.828,-179.509"/>
<polygon fill="midnightblue" stroke="midnightblue" points="611.79,-185.938 603.1,-191.998 613.673,-192.68 611.79,-185.938"/>
</g>
<!-- Node21 -->
<g id="node21" class="node"><title>Node21</title>
<g id="a_node21"><a xlink:href="classmappel_1_1Gauss2DModel.html#a0981f99341c0f6f63554680ce165df66" target="_top" target="_top" xlink:title="mappel::Gauss2DModel\l::make_internal_1Dsum\l_estimator">
<polygon fill="white" stroke="black" points="329,-115.5 329,-153.5 445,-153.5 445,-115.5 329,-115.5"/>
<text text-anchor="start" x="337" y="-142.3" font-family="Helvetica,sans-Serif" font-size="9.00">mappel::Gauss2DModel</text>
<text text-anchor="start" x="337" y="-132.3" font-family="Helvetica,sans-Serif" font-size="9.00">::make_internal_1Dsum</text>
<text text-anchor="middle" x="387" y="-122.3" font-family="Helvetica,sans-Serif" font-size="9.00">_estimator</text>
</a>
</g>
</g>
<!-- Node20&#45;&gt;Node21 -->
<g id="edge22" class="edge"><title>Node20&#45;&gt;Node21</title>
<path fill="none" stroke="midnightblue" d="M286.213,-163.552C300.14,-159.497 314.994,-155.173 328.871,-151.132"/>
<polygon fill="midnightblue" stroke="midnightblue" points="284.887,-160.293 276.264,-166.449 286.843,-167.014 284.887,-160.293"/>
</g>
<!-- Node22 -->
<g id="node22" class="node"><title>Node22</title>
<g id="a_node22"><a xlink:href="classmappel_1_1Gauss2DModel.html#a07e9c13f8a164f26f337fcc0c2f70374" target="_top" target="_top" xlink:title="mappel::Gauss2DModel\l::debug_internal_sum\l_model_y">
<polygon fill="white" stroke="black" points="641,-94.5 641,-132.5 757,-132.5 757,-94.5 641,-94.5"/>
<text text-anchor="start" x="649" y="-121.3" font-family="Helvetica,sans-Serif" font-size="9.00">mappel::Gauss2DModel</text>
<text text-anchor="start" x="649" y="-111.3" font-family="Helvetica,sans-Serif" font-size="9.00">::debug_internal_sum</text>
<text text-anchor="middle" x="699" y="-101.3" font-family="Helvetica,sans-Serif" font-size="9.00">_model_y</text>
</a>
</g>
</g>
<!-- Node21&#45;&gt;Node22 -->
<g id="edge23" class="edge"><title>Node21&#45;&gt;Node22</title>
<path fill="none" stroke="midnightblue" d="M455.478,-139.536C497.961,-141.618 553.863,-142.363 603,-136.5 615.385,-135.022 628.489,-132.497 640.879,-129.648"/>
<polygon fill="midnightblue" stroke="midnightblue" points="455.425,-136.028 445.254,-138.996 455.056,-143.018 455.425,-136.028"/>
</g>
<!-- Node23 -->
<g id="node23" class="node"><title>Node23</title>
<g id="a_node23"><a xlink:href="classmappel_1_1Gauss2DModel.html#aa2247488bb3d360e323b9819ccef3429" target="_top" target="_top" xlink:title="mappel::Gauss2DModel\l::Gauss2DModel">
<polygon fill="white" stroke="black" points="485,-99.5 485,-127.5 601,-127.5 601,-99.5 485,-99.5"/>
<text text-anchor="start" x="493" y="-116.3" font-family="Helvetica,sans-Serif" font-size="9.00">mappel::Gauss2DModel</text>
<text text-anchor="middle" x="543" y="-106.3" font-family="Helvetica,sans-Serif" font-size="9.00">::Gauss2DModel</text>
</a>
</g>
</g>
<!-- Node21&#45;&gt;Node23 -->
<g id="edge24" class="edge"><title>Node21&#45;&gt;Node23</title>
<path fill="none" stroke="midnightblue" d="M455.462,-125.301C465.27,-123.963 475.287,-122.597 484.865,-121.291"/>
<polygon fill="midnightblue" stroke="midnightblue" points="454.779,-121.861 445.344,-126.68 455.725,-128.797 454.779,-121.861"/>
</g>
<!-- Node24 -->
<g id="node24" class="node"><title>Node24</title>
<g id="a_node24"><a xlink:href="classmappel_1_1Gauss2DModel.html#a221f765c48f478177f150c08733e9d29" target="_top" target="_top" xlink:title="mappel::Gauss2DModel\l::update_internal_1Dsum\l_estimators">
<polygon fill="white" stroke="black" points="483,-42.5 483,-80.5 603,-80.5 603,-42.5 483,-42.5"/>
<text text-anchor="start" x="491" y="-69.3" font-family="Helvetica,sans-Serif" font-size="9.00">mappel::Gauss2DModel</text>
<text text-anchor="start" x="491" y="-59.3" font-family="Helvetica,sans-Serif" font-size="9.00">::update_internal_1Dsum</text>
<text text-anchor="middle" x="543" y="-49.3" font-family="Helvetica,sans-Serif" font-size="9.00">_estimators</text>
</a>
</g>
</g>
<!-- Node21&#45;&gt;Node24 -->
<g id="edge26" class="edge"><title>Node21&#45;&gt;Node24</title>
<path fill="none" stroke="midnightblue" d="M437.745,-110.92C458.469,-101.096 482.217,-89.8385 501.809,-80.5518"/>
<polygon fill="midnightblue" stroke="midnightblue" points="435.999,-107.874 428.462,-115.32 438.997,-114.199 435.999,-107.874"/>
</g>
<!-- Node23&#45;&gt;Node22 -->
<g id="edge25" class="edge"><title>Node23&#45;&gt;Node22</title>
<path fill="none" stroke="midnightblue" d="M611.462,-113.5C621.27,-113.5 631.287,-113.5 640.865,-113.5"/>
<polygon fill="midnightblue" stroke="midnightblue" points="611.344,-110 601.344,-113.5 611.344,-117 611.344,-110"/>
</g>
<!-- Node24&#45;&gt;Node22 -->
<g id="edge27" class="edge"><title>Node24&#45;&gt;Node22</title>
<path fill="none" stroke="midnightblue" d="M610.01,-83.789C620.508,-87.3339 631.285,-90.9728 641.537,-94.4347"/>
<polygon fill="midnightblue" stroke="midnightblue" points="611.064,-80.4508 600.469,-80.5676 608.824,-87.0829 611.064,-80.4508"/>
</g>
<!-- Node25 -->
<g id="node25" class="node"><title>Node25</title>
<g id="a_node25"><a xlink:href="classmappel_1_1Gauss2DModel.html#a7041d1f38f1141773b046489ce6e6b11" target="_top" target="_top" xlink:title="mappel::Gauss2DModel\l::set_hyperparams">
<polygon fill="white" stroke="black" points="641,-47.5 641,-75.5 757,-75.5 757,-47.5 641,-47.5"/>
<text text-anchor="start" x="649" y="-64.3" font-family="Helvetica,sans-Serif" font-size="9.00">mappel::Gauss2DModel</text>
<text text-anchor="middle" x="699" y="-54.3" font-family="Helvetica,sans-Serif" font-size="9.00">::set_hyperparams</text>
</a>
</g>
</g>
<!-- Node24&#45;&gt;Node25 -->
<g id="edge28" class="edge"><title>Node24&#45;&gt;Node25</title>
<path fill="none" stroke="midnightblue" d="M613.377,-61.5C622.56,-61.5 631.888,-61.5 640.834,-61.5"/>
<polygon fill="midnightblue" stroke="midnightblue" points="613.1,-58.0001 603.1,-61.5 613.1,-65.0001 613.1,-58.0001"/>
</g>
<!-- Node26 -->
<g id="node26" class="node"><title>Node26</title>
<g id="a_node26"><a xlink:href="classmappel_1_1Gauss2DModel.html#a41a5b18b3f3779562c0dbd19e1b6e29b" target="_top" target="_top" xlink:title="mappel::Gauss2DModel\l::set_prior">
<polygon fill="white" stroke="black" points="641,-0.5 641,-28.5 757,-28.5 757,-0.5 641,-0.5"/>
<text text-anchor="start" x="649" y="-17.3" font-family="Helvetica,sans-Serif" font-size="9.00">mappel::Gauss2DModel</text>
<text text-anchor="middle" x="699" y="-7.3" font-family="Helvetica,sans-Serif" font-size="9.00">::set_prior</text>
</a>
</g>
</g>
<!-- Node24&#45;&gt;Node26 -->
<g id="edge29" class="edge"><title>Node24&#45;&gt;Node26</title>
<path fill="none" stroke="midnightblue" d="M613.032,-40.4317C626.133,-36.4333 639.546,-32.34 651.73,-28.6215"/>
<polygon fill="midnightblue" stroke="midnightblue" points="611.643,-37.1963 603.1,-43.463 613.686,-43.8915 611.643,-37.1963"/>
</g>
</g>
</svg>
        <g id="navigator" transform="translate(0 0)" fill="#404254">
                <rect fill="#f2f5e9" fill-opacity="0.5" stroke="#606060" stroke-width=".5" x="0" y="0" width="60" height="60"/>
                <use id="zoomplus" xlink:href="#zoomPlus" target="_top" x="17" y="9" onmousedown="handleZoom(evt,'in')"/>
                <use id="zoomminus" xlink:href="#zoomMin" target="_top" x="42" y="9" onmousedown="handleZoom(evt,'out')"/>
                <use id="reset" xlink:href="#resetDef" target="_top" x="30" y="36" onmousedown="handleReset()"/>
                <g id="arrowUp" xlink:href="#dirArrow" target="_top" transform="translate(30 24)" onmousedown="handlePan(0,-1)">
                  <use xlink:href="#rim" target="_top" fill="#404040">
                        <set attributeName="fill" to="#808080" begin="arrowUp.mouseover" end="arrowUp.mouseout"/>
                  </use>
                  <path fill="none" stroke="white" stroke-width="1.5" d="M0,-3.0v7 M-2.5,-0.5L0,-3.0L2.5,-0.5"/>
                </g>
                <g id="arrowRight" xlink:href="#dirArrow" target="_top" transform="rotate(90) translate(36 -43)" onmousedown="handlePan(1,0)">
                  <use xlink:href="#rim" target="_top" fill="#404040">
                        <set attributeName="fill" to="#808080" begin="arrowRight.mouseover" end="arrowRight.mouseout"/>
                  </use>
                  <path fill="none" stroke="white" stroke-width="1.5" d="M0,-3.0v7 M-2.5,-0.5L0,-3.0L2.5,-0.5"/>
                </g>
                <g id="arrowDown" xlink:href="#dirArrow" target="_top" transform="rotate(180) translate(-30 -48)" onmousedown="handlePan(0,1)">
                  <use xlink:href="#rim" target="_top" fill="#404040">
                        <set attributeName="fill" to="#808080" begin="arrowDown.mouseover" end="arrowDown.mouseout"/>
                  </use>
                  <path fill="none" stroke="white" stroke-width="1.5" d="M0,-3.0v7 M-2.5,-0.5L0,-3.0L2.5,-0.5"/>
                </g>
                <g id="arrowLeft" xlink:href="#dirArrow" target="_top" transform="rotate(270) translate(-36 17)" onmousedown="handlePan(-1,0)">
                  <use xlink:href="#rim" target="_top" fill="#404040">
                        <set attributeName="fill" to="#808080" begin="arrowLeft.mouseover" end="arrowLeft.mouseout"/>
                  </use>
                  <path fill="none" stroke="white" stroke-width="1.5" d="M0,-3.0v7 M-2.5,-0.5L0,-3.0L2.5,-0.5"/>
                </g>
        </g>
        <svg viewBox="0 0 15 15" width="100%" height="30px" preserveAspectRatio="xMaxYMin meet">
         <g id="arrow_out" transform="scale(0.3 0.3)">
          <a xlink:href="classmappel_1_1PointEmitterModel_ad4d563dd11df8c3daf83890374807185_icgraph_org.svg" target="_top" target="_base">
           <rect id="button" ry="5" rx="5" y="6" x="6" height="38" width="38"
                fill="#f2f5e9" fill-opacity="0.5" stroke="#606060" stroke-width="1.0"/>
           <path id="arrow"
             d="M 11.500037,31.436501 C 11.940474,20.09759 22.043105,11.32322 32.158766,21.979434 L 37.068811,17.246167 C 37.068811,17.246167 37.088388,32 37.088388,32 L 22.160133,31.978069 C 22.160133,31.978069 26.997745,27.140456 26.997745,27.140456 C 18.528582,18.264221 13.291696,25.230495 11.500037,31.436501 z"
             style="fill:#404040;"/>
          </a>
         </g>
        </svg>
</svg>
