<?xml version="1.0" encoding="UTF-8" standalone="no"?>
<!DOCTYPE svg PUBLIC "-//W3C//DTD SVG 1.1//EN"
 "http://www.w3.org/Graphics/SVG/1.1/DTD/svg11.dtd">
<!-- Generated by graphviz version 2.38.0 (20140413.2041)
 -->
<!-- Title: mappel::CGaussMLE::name Pages: 1 -->
<svg width="303pt" height="131pt"
 viewBox="0.00 0.00 303.00 131.00" xmlns="http://www.w3.org/2000/svg" xmlns:xlink="http://www.w3.org/1999/xlink">
<g id="graph0" class="graph" transform="scale(1 1) rotate(0) translate(4 127)">
<title>mappel::CGaussMLE::name</title>
<polygon fill="white" stroke="none" points="-4,4 -4,-127 299,-127 299,4 -4,4"/>
<!-- Node1 -->
<g id="node1" class="node"><title>Node1</title>
<polygon fill="#bfbfbf" stroke="black" points="0,-52.5 0,-70.5 131,-70.5 131,-52.5 0,-52.5"/>
<text text-anchor="middle" x="65.5" y="-59.3" font-family="Helvetica,sans-Serif" font-size="9.00">mappel::CGaussMLE::name</text>
</g>
<!-- Node2 -->
<g id="node2" class="node"><title>Node2</title>
<g id="a_node2"><a xlink:href="classmappel_1_1Estimator.html#aa8b8c7f835056c94de1f21bff2ef205b" target="_top" xlink:title="mappel::Estimator::\lcompute_estimate">
<polygon fill="white" stroke="black" points="183.5,-94.5 183.5,-122.5 278.5,-122.5 278.5,-94.5 183.5,-94.5"/>
<text text-anchor="start" x="191.5" y="-111.3" font-family="Helvetica,sans-Serif" font-size="9.00">mappel::Estimator::</text>
<text text-anchor="middle" x="231" y="-101.3" font-family="Helvetica,sans-Serif" font-size="9.00">compute_estimate</text>
</a>
</g>
</g>
<!-- Node1&#45;&gt;Node2 -->
<g id="edge1" class="edge"><title>Node1&#45;&gt;Node2</title>
<path fill="none" stroke="midnightblue" d="M98.0244,-70.5621C119.406,-76.7084 148.271,-85.0061 173.554,-92.274"/>
<polygon fill="midnightblue" stroke="midnightblue" points="172.829,-95.7073 183.407,-95.1064 174.763,-88.9798 172.829,-95.7073"/>
</g>
<!-- Node3 -->
<g id="node3" class="node"><title>Node3</title>
<g id="a_node3"><a xlink:href="classmappel_1_1Estimator.html#a29c41d423941e8b86add3e493cb1375e" target="_top" xlink:title="mappel::Estimator::\lcompute_estimate_debug">
<polygon fill="white" stroke="black" points="169.5,-47.5 169.5,-75.5 292.5,-75.5 292.5,-47.5 169.5,-47.5"/>
<text text-anchor="start" x="177.5" y="-64.3" font-family="Helvetica,sans-Serif" font-size="9.00">mappel::Estimator::</text>
<text text-anchor="middle" x="231" y="-54.3" font-family="Helvetica,sans-Serif" font-size="9.00">compute_estimate_debug</text>
</a>
</g>
</g>
<!-- Node1&#45;&gt;Node3 -->
<g id="edge2" class="edge"><title>Node1&#45;&gt;Node3</title>
<path fill="none" stroke="midnightblue" d="M131.12,-61.5C140.362,-61.5 149.911,-61.5 159.263,-61.5"/>
<polygon fill="midnightblue" stroke="midnightblue" points="159.311,-65.0001 169.311,-61.5 159.311,-58.0001 159.311,-65.0001"/>
</g>
<!-- Node4 -->
<g id="node4" class="node"><title>Node4</title>
<g id="a_node4"><a xlink:href="namespacemappel_1_1methods_1_1objective.html#a293c23ed6a623e59477bb67b6e40f5ad" target="_top" xlink:title="mappel::methods::objective\l::rllh">
<polygon fill="white" stroke="black" points="167,-0.5 167,-28.5 295,-28.5 295,-0.5 167,-0.5"/>
<text text-anchor="start" x="175" y="-17.3" font-family="Helvetica,sans-Serif" font-size="9.00">mappel::methods::objective</text>
<text text-anchor="middle" x="231" y="-7.3" font-family="Helvetica,sans-Serif" font-size="9.00">::rllh</text>
</a>
</g>
</g>
<!-- Node1&#45;&gt;Node4 -->
<g id="edge3" class="edge"><title>Node1&#45;&gt;Node4</title>
<path fill="none" stroke="midnightblue" d="M98.0244,-52.4379C118.832,-46.4565 146.728,-38.4375 171.512,-31.313"/>
<polygon fill="midnightblue" stroke="midnightblue" points="172.55,-34.6565 181.194,-28.5299 170.616,-27.929 172.55,-34.6565"/>
</g>
</g>
</svg>
