<?xml version="1.0" encoding="UTF-8" standalone="no"?>
<!DOCTYPE svg PUBLIC "-//W3C//DTD SVG 1.1//EN"
 "http://www.w3.org/Graphics/SVG/1.1/DTD/svg11.dtd">
<!-- Generated by graphviz version 2.38.0 (20140413.2041)
 -->
<!-- Title: mappel::MCMCAdaptor1D::get_stats Pages: 1 -->
<svg width="619pt" height="131pt"
 viewBox="0.00 0.00 619.00 131.00" xmlns="http://www.w3.org/2000/svg" xmlns:xlink="http://www.w3.org/1999/xlink">
<g id="graph0" class="graph" transform="scale(1 1) rotate(0) translate(4 127)">
<title>mappel::MCMCAdaptor1D::get_stats</title>
<polygon fill="white" stroke="none" points="-4,4 -4,-127 615,-127 615,4 -4,4"/>
<!-- Node1 -->
<g id="node1" class="node"><title>Node1</title>
<polygon fill="#bfbfbf" stroke="black" points="0,-47.5 0,-75.5 125,-75.5 125,-47.5 0,-47.5"/>
<text text-anchor="start" x="8" y="-64.3" font-family="Helvetica,sans-Serif" font-size="9.00">mappel::MCMCAdaptor1D</text>
<text text-anchor="middle" x="62.5" y="-54.3" font-family="Helvetica,sans-Serif" font-size="9.00">::get_stats</text>
</g>
<!-- Node2 -->
<g id="node2" class="node"><title>Node2</title>
<g id="a_node2"><a xlink:href="classmappel_1_1MCMCAdaptor1Ds.html#aff41401113d81b876c5bfae158541ba3" target="_top" xlink:title="mappel::MCMCAdaptor1Ds\l::get_stats">
<polygon fill="white" stroke="black" points="161,-94.5 161,-122.5 290,-122.5 290,-94.5 161,-94.5"/>
<text text-anchor="start" x="169" y="-111.3" font-family="Helvetica,sans-Serif" font-size="9.00">mappel::MCMCAdaptor1Ds</text>
<text text-anchor="middle" x="225.5" y="-101.3" font-family="Helvetica,sans-Serif" font-size="9.00">::get_stats</text>
</a>
</g>
</g>
<!-- Node1&#45;&gt;Node2 -->
<g id="edge1" class="edge"><title>Node1&#45;&gt;Node2</title>
<path fill="none" stroke="midnightblue" d="M121.619,-78.4663C139.629,-83.7241 159.264,-89.4558 176.506,-94.4894"/>
<polygon fill="midnightblue" stroke="midnightblue" points="122.385,-75.0441 111.805,-75.6015 120.424,-81.7637 122.385,-75.0441"/>
</g>
<!-- Node4 -->
<g id="node4" class="node"><title>Node4</title>
<g id="a_node4"><a xlink:href="classmappel_1_1MCMCAdaptor2D.html#a69362d28411ba7a8ac8d4b9c95335e44" target="_top" xlink:title="mappel::MCMCAdaptor2D\l::get_stats">
<polygon fill="white" stroke="black" points="163,-47.5 163,-75.5 288,-75.5 288,-47.5 163,-47.5"/>
<text text-anchor="start" x="171" y="-64.3" font-family="Helvetica,sans-Serif" font-size="9.00">mappel::MCMCAdaptor2D</text>
<text text-anchor="middle" x="225.5" y="-54.3" font-family="Helvetica,sans-Serif" font-size="9.00">::get_stats</text>
</a>
</g>
</g>
<!-- Node1&#45;&gt;Node4 -->
<g id="edge3" class="edge"><title>Node1&#45;&gt;Node4</title>
<path fill="none" stroke="midnightblue" d="M135.511,-61.5C144.646,-61.5 153.927,-61.5 162.879,-61.5"/>
<polygon fill="midnightblue" stroke="midnightblue" points="135.286,-58.0001 125.286,-61.5 135.286,-65.0001 135.286,-58.0001"/>
</g>
<!-- Node8 -->
<g id="node8" class="node"><title>Node8</title>
<g id="a_node8"><a xlink:href="classmappel_1_1Gauss1DModel.html#a61904b6e14e7429ee58175cb54259ed9" target="_top" xlink:title="mappel::Gauss1DModel\l::get_stats">
<polygon fill="white" stroke="black" points="167.5,-0.5 167.5,-28.5 283.5,-28.5 283.5,-0.5 167.5,-0.5"/>
<text text-anchor="start" x="175.5" y="-17.3" font-family="Helvetica,sans-Serif" font-size="9.00">mappel::Gauss1DModel</text>
<text text-anchor="middle" x="225.5" y="-7.3" font-family="Helvetica,sans-Serif" font-size="9.00">::get_stats</text>
</a>
</g>
</g>
<!-- Node1&#45;&gt;Node8 -->
<g id="edge7" class="edge"><title>Node1&#45;&gt;Node8</title>
<path fill="none" stroke="midnightblue" d="M121.619,-44.5337C139.629,-39.2759 159.264,-33.5442 176.506,-28.5106"/>
<polygon fill="midnightblue" stroke="midnightblue" points="120.424,-41.2363 111.805,-47.3985 122.385,-47.9559 120.424,-41.2363"/>
</g>
<!-- Node3 -->
<g id="node3" class="node"><title>Node3</title>
<g id="a_node3"><a xlink:href="classmappel_1_1Gauss1DsModel.html#a3332a06f7288311ec560427e360c00be" target="_top" xlink:title="mappel::Gauss1DsModel\l::get_stats">
<polygon fill="white" stroke="black" points="330.5,-94.5 330.5,-122.5 450.5,-122.5 450.5,-94.5 330.5,-94.5"/>
<text text-anchor="start" x="338.5" y="-111.3" font-family="Helvetica,sans-Serif" font-size="9.00">mappel::Gauss1DsModel</text>
<text text-anchor="middle" x="390.5" y="-101.3" font-family="Helvetica,sans-Serif" font-size="9.00">::get_stats</text>
</a>
</g>
</g>
<!-- Node2&#45;&gt;Node3 -->
<g id="edge2" class="edge"><title>Node2&#45;&gt;Node3</title>
<path fill="none" stroke="midnightblue" d="M300.697,-108.5C310.599,-108.5 320.647,-108.5 330.249,-108.5"/>
<polygon fill="midnightblue" stroke="midnightblue" points="300.454,-105 290.454,-108.5 300.454,-112 300.454,-105"/>
</g>
<!-- Node5 -->
<g id="node5" class="node"><title>Node5</title>
<g id="a_node5"><a xlink:href="classmappel_1_1Gauss2DModel.html#a8aecb8960e94b03499110e08f5d18c7f" target="_top" xlink:title="mappel::Gauss2DModel\l::get_stats">
<polygon fill="white" stroke="black" points="332.5,-47.5 332.5,-75.5 448.5,-75.5 448.5,-47.5 332.5,-47.5"/>
<text text-anchor="start" x="340.5" y="-64.3" font-family="Helvetica,sans-Serif" font-size="9.00">mappel::Gauss2DModel</text>
<text text-anchor="middle" x="390.5" y="-54.3" font-family="Helvetica,sans-Serif" font-size="9.00">::get_stats</text>
</a>
</g>
</g>
<!-- Node4&#45;&gt;Node5 -->
<g id="edge4" class="edge"><title>Node4&#45;&gt;Node5</title>
<path fill="none" stroke="midnightblue" d="M298.451,-61.5C309.801,-61.5 321.402,-61.5 332.356,-61.5"/>
<polygon fill="midnightblue" stroke="midnightblue" points="298.123,-58.0001 288.123,-61.5 298.123,-65.0001 298.123,-58.0001"/>
</g>
<!-- Node6 -->
<g id="node6" class="node"><title>Node6</title>
<g id="a_node6"><a xlink:href="classmappel_1_1MCMCAdaptor2Ds.html#adc76529ede19684c1deacbeb8205fd8a" target="_top" xlink:title="mappel::MCMCAdaptor2Ds\l::get_stats">
<polygon fill="white" stroke="black" points="326,-0.5 326,-28.5 455,-28.5 455,-0.5 326,-0.5"/>
<text text-anchor="start" x="334" y="-17.3" font-family="Helvetica,sans-Serif" font-size="9.00">mappel::MCMCAdaptor2Ds</text>
<text text-anchor="middle" x="390.5" y="-7.3" font-family="Helvetica,sans-Serif" font-size="9.00">::get_stats</text>
</a>
</g>
</g>
<!-- Node4&#45;&gt;Node6 -->
<g id="edge5" class="edge"><title>Node4&#45;&gt;Node6</title>
<path fill="none" stroke="midnightblue" d="M285.087,-44.6067C303.391,-39.329 323.372,-33.5675 340.91,-28.5106"/>
<polygon fill="midnightblue" stroke="midnightblue" points="284.044,-41.2648 275.405,-47.3985 285.984,-47.9908 284.044,-41.2648"/>
</g>
<!-- Node7 -->
<g id="node7" class="node"><title>Node7</title>
<g id="a_node7"><a xlink:href="classmappel_1_1Gauss2DsModel.html#a9c59a143645ffdacd13b1dc332828cfb" target="_top" xlink:title="mappel::Gauss2DsModel\l::get_stats">
<polygon fill="white" stroke="black" points="491,-0.5 491,-28.5 611,-28.5 611,-0.5 491,-0.5"/>
<text text-anchor="start" x="499" y="-17.3" font-family="Helvetica,sans-Serif" font-size="9.00">mappel::Gauss2DsModel</text>
<text text-anchor="middle" x="551" y="-7.3" font-family="Helvetica,sans-Serif" font-size="9.00">::get_stats</text>
</a>
</g>
</g>
<!-- Node6&#45;&gt;Node7 -->
<g id="edge6" class="edge"><title>Node6&#45;&gt;Node7</title>
<path fill="none" stroke="midnightblue" d="M465.1,-14.5C473.714,-14.5 482.417,-14.5 490.799,-14.5"/>
<polygon fill="midnightblue" stroke="midnightblue" points="465.055,-11.0001 455.055,-14.5 465.055,-18.0001 465.055,-11.0001"/>
</g>
</g>
</svg>
