<?xml version="1.0" encoding="UTF-8" standalone="no"?>
<!DOCTYPE svg PUBLIC "-//W3C//DTD SVG 1.1//EN"
 "http://www.w3.org/Graphics/SVG/1.1/DTD/svg11.dtd">
<!-- Generated by graphviz version 2.38.0 (20140413.2041)
 -->
<!-- Title: mappel::Gauss2DsMAP Pages: 1 -->
<svg width="471pt" height="302pt"
 viewBox="0.00 0.00 470.50 302.00" xmlns="http://www.w3.org/2000/svg" xmlns:xlink="http://www.w3.org/1999/xlink">
<g id="graph0" class="graph" transform="scale(1 1) rotate(0) translate(4 298)">
<title>mappel::Gauss2DsMAP</title>
<polygon fill="white" stroke="none" points="-4,4 -4,-298 466.5,-298 466.5,4 -4,4"/>
<!-- Node1 -->
<g id="node1" class="node"><title>Node1</title>
<polygon fill="#bfbfbf" stroke="black" points="169,-0.5 169,-18.5 283,-18.5 283,-0.5 169,-0.5"/>
<text text-anchor="middle" x="226" y="-7.3" font-family="Helvetica,sans-Serif" font-size="9.00">mappel::Gauss2DsMAP</text>
</g>
<!-- Node2 -->
<g id="node2" class="node"><title>Node2</title>
<g id="a_node2"><a xlink:href="classmappel_1_1Gauss2DsModel.html" target="_top" xlink:title="A base class for 2D Gaussian PSF where the gaussian sigma is controlled by a single scalar parameter ...">
<polygon fill="white" stroke="black" points="166,-55.5 166,-73.5 286,-73.5 286,-55.5 166,-55.5"/>
<text text-anchor="middle" x="226" y="-62.3" font-family="Helvetica,sans-Serif" font-size="9.00">mappel::Gauss2DsModel</text>
</a>
</g>
</g>
<!-- Node2&#45;&gt;Node1 -->
<g id="edge1" class="edge"><title>Node2&#45;&gt;Node1</title>
<path fill="none" stroke="midnightblue" d="M226,-45.1746C226,-36.0945 226,-25.5949 226,-18.5496"/>
<polygon fill="midnightblue" stroke="midnightblue" points="222.5,-45.2187 226,-55.2188 229.5,-45.2188 222.5,-45.2187"/>
</g>
<!-- Node3 -->
<g id="node3" class="node"><title>Node3</title>
<g id="a_node3"><a xlink:href="classmappel_1_1PointEmitterModel.html" target="_top" xlink:title="A virtual Base type for point emitter localization models. ">
<polygon fill="white" stroke="black" points="50.5,-275.5 50.5,-293.5 177.5,-293.5 177.5,-275.5 50.5,-275.5"/>
<text text-anchor="middle" x="114" y="-282.3" font-family="Helvetica,sans-Serif" font-size="9.00">mappel::PointEmitterModel</text>
</a>
</g>
</g>
<!-- Node3&#45;&gt;Node2 -->
<g id="edge2" class="edge"><title>Node3&#45;&gt;Node2</title>
<path fill="none" stroke="midnightblue" d="M114.235,-265.179C115.532,-231.397 122.46,-158.333 157,-110 169.183,-92.9518 190.126,-80.8095 205.751,-73.5603"/>
<polygon fill="midnightblue" stroke="midnightblue" points="110.731,-265.299 113.975,-275.385 117.728,-265.478 110.731,-265.299"/>
</g>
<!-- Node7 -->
<g id="node7" class="node"><title>Node7</title>
<g id="a_node7"><a xlink:href="classmappel_1_1MCMCAdaptor1D.html" target="_top" xlink:title="mappel::MCMCAdaptor1D">
<polygon fill="white" stroke="black" points="168.5,-220.5 168.5,-238.5 293.5,-238.5 293.5,-220.5 168.5,-220.5"/>
<text text-anchor="middle" x="231" y="-227.3" font-family="Helvetica,sans-Serif" font-size="9.00">mappel::MCMCAdaptor1D</text>
</a>
</g>
</g>
<!-- Node3&#45;&gt;Node7 -->
<g id="edge7" class="edge"><title>Node3&#45;&gt;Node7</title>
<path fill="none" stroke="midnightblue" d="M140.969,-271.283C163.108,-261.254 193.84,-247.333 213.063,-238.625"/>
<polygon fill="midnightblue" stroke="midnightblue" points="139.435,-268.136 131.77,-275.45 142.323,-274.512 139.435,-268.136"/>
</g>
<!-- Node10 -->
<g id="node10" class="node"><title>Node10</title>
<g id="a_node10"><a xlink:href="classmappel_1_1MAPEstimator.html" target="_top" xlink:title="A Mixin class to configure a for MLE estimation (null prior). ">
<polygon fill="white" stroke="black" points="0,-165.5 0,-183.5 110,-183.5 110,-165.5 0,-165.5"/>
<text text-anchor="middle" x="55" y="-172.3" font-family="Helvetica,sans-Serif" font-size="9.00">mappel::MAPEstimator</text>
</a>
</g>
</g>
<!-- Node3&#45;&gt;Node10 -->
<g id="edge12" class="edge"><title>Node3&#45;&gt;Node10</title>
<path fill="none" stroke="midnightblue" d="M104.725,-266.522C91.8603,-242.973 69.1004,-201.311 59.486,-183.712"/>
<polygon fill="midnightblue" stroke="midnightblue" points="101.7,-268.285 109.565,-275.382 107.843,-264.929 101.7,-268.285"/>
</g>
<!-- Node4 -->
<g id="node4" class="node"><title>Node4</title>
<g id="a_node4"><a xlink:href="classmappel_1_1ImageFormat2DBase.html" target="_top" xlink:title="A virtual base class for 2D image localization objectives. ">
<polygon fill="white" stroke="black" points="313.5,-110.5 313.5,-128.5 452.5,-128.5 452.5,-110.5 313.5,-110.5"/>
<text text-anchor="middle" x="383" y="-117.3" font-family="Helvetica,sans-Serif" font-size="9.00">mappel::ImageFormat2DBase</text>
</a>
</g>
</g>
<!-- Node4&#45;&gt;Node2 -->
<g id="edge3" class="edge"><title>Node4&#45;&gt;Node2</title>
<path fill="none" stroke="midnightblue" d="M349.544,-107.206C319.582,-97.0914 276.387,-82.5095 249.812,-73.5383"/>
<polygon fill="midnightblue" stroke="midnightblue" points="348.561,-110.568 359.155,-110.45 350.8,-103.936 348.561,-110.568"/>
</g>
<!-- Node9 -->
<g id="node9" class="node"><title>Node9</title>
<g id="a_node9"><a xlink:href="classmappel_1_1PoissonNoise2DObjective.html" target="_top" xlink:title="A base class for 2D objectives with Poisson read noise. This objective function and its subclasses ar...">
<polygon fill="white" stroke="black" points="303.5,-55.5 303.5,-73.5 462.5,-73.5 462.5,-55.5 303.5,-55.5"/>
<text text-anchor="middle" x="383" y="-62.3" font-family="Helvetica,sans-Serif" font-size="9.00">mappel::PoissonNoise2DObjective</text>
</a>
</g>
</g>
<!-- Node4&#45;&gt;Node9 -->
<g id="edge10" class="edge"><title>Node4&#45;&gt;Node9</title>
<path fill="none" stroke="midnightblue" d="M383,-100.175C383,-91.0945 383,-80.5949 383,-73.5496"/>
<polygon fill="midnightblue" stroke="midnightblue" points="379.5,-100.219 383,-110.219 386.5,-100.219 379.5,-100.219"/>
</g>
<!-- Node5 -->
<g id="node5" class="node"><title>Node5</title>
<g id="a_node5"><a xlink:href="classmappel_1_1MCMCAdaptor2Ds.html" target="_top" xlink:title="mappel::MCMCAdaptor2Ds">
<polygon fill="white" stroke="black" points="166.5,-110.5 166.5,-128.5 295.5,-128.5 295.5,-110.5 166.5,-110.5"/>
<text text-anchor="middle" x="231" y="-117.3" font-family="Helvetica,sans-Serif" font-size="9.00">mappel::MCMCAdaptor2Ds</text>
</a>
</g>
</g>
<!-- Node5&#45;&gt;Node2 -->
<g id="edge4" class="edge"><title>Node5&#45;&gt;Node2</title>
<path fill="none" stroke="midnightblue" d="M229.271,-100.175C228.415,-91.0945 227.424,-80.5949 226.759,-73.5496"/>
<polygon fill="midnightblue" stroke="midnightblue" points="225.795,-100.592 230.219,-110.219 232.764,-99.9342 225.795,-100.592"/>
</g>
<!-- Node6 -->
<g id="node6" class="node"><title>Node6</title>
<g id="a_node6"><a xlink:href="classmappel_1_1MCMCAdaptor2D.html" target="_top" xlink:title="mappel::MCMCAdaptor2D">
<polygon fill="white" stroke="black" points="168.5,-165.5 168.5,-183.5 293.5,-183.5 293.5,-165.5 168.5,-165.5"/>
<text text-anchor="middle" x="231" y="-172.3" font-family="Helvetica,sans-Serif" font-size="9.00">mappel::MCMCAdaptor2D</text>
</a>
</g>
</g>
<!-- Node6&#45;&gt;Node5 -->
<g id="edge5" class="edge"><title>Node6&#45;&gt;Node5</title>
<path fill="none" stroke="midnightblue" d="M231,-155.175C231,-146.094 231,-135.595 231,-128.55"/>
<polygon fill="midnightblue" stroke="midnightblue" points="227.5,-155.219 231,-165.219 234.5,-155.219 227.5,-155.219"/>
</g>
<!-- Node7&#45;&gt;Node6 -->
<g id="edge6" class="edge"><title>Node7&#45;&gt;Node6</title>
<path fill="none" stroke="midnightblue" d="M231,-210.175C231,-201.094 231,-190.595 231,-183.55"/>
<polygon fill="midnightblue" stroke="midnightblue" points="227.5,-210.219 231,-220.219 234.5,-210.219 227.5,-210.219"/>
</g>
<!-- Node8 -->
<g id="node8" class="node"><title>Node8</title>
<g id="a_node8"><a xlink:href="classmappel_1_1MCMCAdaptorBase.html" target="_top" xlink:title="mappel::MCMCAdaptorBase">
<polygon fill="white" stroke="black" points="196,-275.5 196,-293.5 330,-293.5 330,-275.5 196,-275.5"/>
<text text-anchor="middle" x="263" y="-282.3" font-family="Helvetica,sans-Serif" font-size="9.00">mappel::MCMCAdaptorBase</text>
</a>
</g>
</g>
<!-- Node8&#45;&gt;Node7 -->
<g id="edge8" class="edge"><title>Node8&#45;&gt;Node7</title>
<path fill="none" stroke="midnightblue" d="M252.831,-266.658C247.156,-257.259 240.348,-245.982 235.86,-238.55"/>
<polygon fill="midnightblue" stroke="midnightblue" points="249.835,-268.467 258,-275.219 255.827,-264.849 249.835,-268.467"/>
</g>
<!-- Node9&#45;&gt;Node1 -->
<g id="edge9" class="edge"><title>Node9&#45;&gt;Node1</title>
<path fill="none" stroke="midnightblue" d="M349.544,-52.2061C319.582,-42.0914 276.387,-27.5095 249.812,-18.5383"/>
<polygon fill="midnightblue" stroke="midnightblue" points="348.561,-55.5681 359.155,-55.4504 350.8,-48.9358 348.561,-55.5681"/>
</g>
<!-- Node10&#45;&gt;Node1 -->
<g id="edge11" class="edge"><title>Node10&#45;&gt;Node1</title>
<path fill="none" stroke="midnightblue" d="M66.6259,-157.211C84.3435,-133.087 119.97,-87.2457 157,-55 173.985,-40.2097 196.287,-26.7252 210.874,-18.5686"/>
<polygon fill="midnightblue" stroke="midnightblue" points="63.7831,-155.169 60.7467,-165.32 69.4502,-159.278 63.7831,-155.169"/>
</g>
</g>
</svg>
