<?xml version="1.0" encoding="UTF-8" standalone="no"?>
<!DOCTYPE svg PUBLIC "-//W3C//DTD SVG 1.1//EN"
 "http://www.w3.org/Graphics/SVG/1.1/DTD/svg11.dtd">
<!-- Generated by graphviz version 2.38.0 (20140413.2041)
 -->
<!-- Title: mappel::Gauss1DModel::make_prior_beta_position Pages: 1 -->
<svg width="596pt" height="151pt"
 viewBox="0.00 0.00 596.00 150.54" xmlns="http://www.w3.org/2000/svg" xmlns:xlink="http://www.w3.org/1999/xlink">
<g id="graph0" class="graph" transform="scale(1 1) rotate(0) translate(4 146.538)">
<title>mappel::Gauss1DModel::make_prior_beta_position</title>
<polygon fill="white" stroke="none" points="-4,4 -4,-146.538 592,-146.538 592,4 -4,4"/>
<!-- Node1 -->
<g id="node1" class="node"><title>Node1</title>
<polygon fill="#bfbfbf" stroke="black" points="0,-99.5 0,-127.5 128,-127.5 128,-99.5 0,-99.5"/>
<text text-anchor="start" x="8" y="-116.3" font-family="Helvetica,sans-Serif" font-size="9.00">mappel::Gauss1DModel</text>
<text text-anchor="middle" x="64" y="-106.3" font-family="Helvetica,sans-Serif" font-size="9.00">::make_prior_beta_position</text>
</g>
<!-- Node2 -->
<g id="node2" class="node"><title>Node2</title>
<g id="a_node2"><a xlink:href="classmappel_1_1Gauss2DModel.html#a0981f99341c0f6f63554680ce165df66" target="_top" xlink:title="mappel::Gauss2DModel\l::make_internal_1Dsum\l_estimator">
<polygon fill="white" stroke="black" points="164,-94.5 164,-132.5 280,-132.5 280,-94.5 164,-94.5"/>
<text text-anchor="start" x="172" y="-121.3" font-family="Helvetica,sans-Serif" font-size="9.00">mappel::Gauss2DModel</text>
<text text-anchor="start" x="172" y="-111.3" font-family="Helvetica,sans-Serif" font-size="9.00">::make_internal_1Dsum</text>
<text text-anchor="middle" x="222" y="-101.3" font-family="Helvetica,sans-Serif" font-size="9.00">_estimator</text>
</a>
</g>
</g>
<!-- Node1&#45;&gt;Node2 -->
<g id="edge1" class="edge"><title>Node1&#45;&gt;Node2</title>
<path fill="none" stroke="midnightblue" d="M138.079,-113.5C146.716,-113.5 155.434,-113.5 163.808,-113.5"/>
<polygon fill="midnightblue" stroke="midnightblue" points="138.002,-110 128.002,-113.5 138.001,-117 138.002,-110"/>
</g>
<!-- Node3 -->
<g id="node3" class="node"><title>Node3</title>
<g id="a_node3"><a xlink:href="classmappel_1_1Gauss2DModel.html#a07e9c13f8a164f26f337fcc0c2f70374" target="_top" xlink:title="mappel::Gauss2DModel\l::debug_internal_sum\l_model_y">
<polygon fill="white" stroke="black" points="472,-94.5 472,-132.5 588,-132.5 588,-94.5 472,-94.5"/>
<text text-anchor="start" x="480" y="-121.3" font-family="Helvetica,sans-Serif" font-size="9.00">mappel::Gauss2DModel</text>
<text text-anchor="start" x="480" y="-111.3" font-family="Helvetica,sans-Serif" font-size="9.00">::debug_internal_sum</text>
<text text-anchor="middle" x="530" y="-101.3" font-family="Helvetica,sans-Serif" font-size="9.00">_model_y</text>
</a>
</g>
</g>
<!-- Node2&#45;&gt;Node3 -->
<g id="edge2" class="edge"><title>Node2&#45;&gt;Node3</title>
<path fill="none" stroke="midnightblue" d="M289.871,-132.897C298.596,-134.795 307.467,-136.417 316,-137.5 368.909,-144.217 383.091,-144.217 436,-137.5 447.745,-136.009 460.128,-133.499 471.893,-130.65"/>
<polygon fill="midnightblue" stroke="midnightblue" points="290.637,-129.482 280.107,-130.65 289.067,-136.304 290.637,-129.482"/>
</g>
<!-- Node4 -->
<g id="node4" class="node"><title>Node4</title>
<g id="a_node4"><a xlink:href="classmappel_1_1Gauss2DModel.html#aa2247488bb3d360e323b9819ccef3429" target="_top" xlink:title="mappel::Gauss2DModel\l::Gauss2DModel">
<polygon fill="white" stroke="black" points="318,-99.5 318,-127.5 434,-127.5 434,-99.5 318,-99.5"/>
<text text-anchor="start" x="326" y="-116.3" font-family="Helvetica,sans-Serif" font-size="9.00">mappel::Gauss2DModel</text>
<text text-anchor="middle" x="376" y="-106.3" font-family="Helvetica,sans-Serif" font-size="9.00">::Gauss2DModel</text>
</a>
</g>
</g>
<!-- Node2&#45;&gt;Node4 -->
<g id="edge3" class="edge"><title>Node2&#45;&gt;Node4</title>
<path fill="none" stroke="midnightblue" d="M290.321,-113.5C299.526,-113.5 308.903,-113.5 317.902,-113.5"/>
<polygon fill="midnightblue" stroke="midnightblue" points="290.032,-110 280.032,-113.5 290.032,-117 290.032,-110"/>
</g>
<!-- Node5 -->
<g id="node5" class="node"><title>Node5</title>
<g id="a_node5"><a xlink:href="classmappel_1_1Gauss2DModel.html#a221f765c48f478177f150c08733e9d29" target="_top" xlink:title="mappel::Gauss2DModel\l::update_internal_1Dsum\l_estimators">
<polygon fill="white" stroke="black" points="316,-42.5 316,-80.5 436,-80.5 436,-42.5 316,-42.5"/>
<text text-anchor="start" x="324" y="-69.3" font-family="Helvetica,sans-Serif" font-size="9.00">mappel::Gauss2DModel</text>
<text text-anchor="start" x="324" y="-59.3" font-family="Helvetica,sans-Serif" font-size="9.00">::update_internal_1Dsum</text>
<text text-anchor="middle" x="376" y="-49.3" font-family="Helvetica,sans-Serif" font-size="9.00">_estimators</text>
</a>
</g>
</g>
<!-- Node2&#45;&gt;Node5 -->
<g id="edge5" class="edge"><title>Node2&#45;&gt;Node5</title>
<path fill="none" stroke="midnightblue" d="M288.47,-91.1025C298.731,-87.5919 309.254,-83.9919 319.271,-80.5653"/>
<polygon fill="midnightblue" stroke="midnightblue" points="287.065,-87.8839 278.736,-94.4324 289.331,-94.507 287.065,-87.8839"/>
</g>
<!-- Node4&#45;&gt;Node3 -->
<g id="edge4" class="edge"><title>Node4&#45;&gt;Node3</title>
<path fill="none" stroke="midnightblue" d="M444.321,-113.5C453.526,-113.5 462.903,-113.5 471.902,-113.5"/>
<polygon fill="midnightblue" stroke="midnightblue" points="444.032,-110 434.032,-113.5 444.032,-117 444.032,-110"/>
</g>
<!-- Node5&#45;&gt;Node3 -->
<g id="edge6" class="edge"><title>Node5&#45;&gt;Node3</title>
<path fill="none" stroke="midnightblue" d="M442.47,-83.8975C452.731,-87.4081 463.254,-91.0081 473.271,-94.4347"/>
<polygon fill="midnightblue" stroke="midnightblue" points="443.331,-80.493 432.736,-80.5676 441.065,-87.1161 443.331,-80.493"/>
</g>
<!-- Node6 -->
<g id="node6" class="node"><title>Node6</title>
<g id="a_node6"><a xlink:href="classmappel_1_1Gauss2DModel.html#a7041d1f38f1141773b046489ce6e6b11" target="_top" xlink:title="mappel::Gauss2DModel\l::set_hyperparams">
<polygon fill="white" stroke="black" points="472,-47.5 472,-75.5 588,-75.5 588,-47.5 472,-47.5"/>
<text text-anchor="start" x="480" y="-64.3" font-family="Helvetica,sans-Serif" font-size="9.00">mappel::Gauss2DModel</text>
<text text-anchor="middle" x="530" y="-54.3" font-family="Helvetica,sans-Serif" font-size="9.00">::set_hyperparams</text>
</a>
</g>
</g>
<!-- Node5&#45;&gt;Node6 -->
<g id="edge7" class="edge"><title>Node5&#45;&gt;Node6</title>
<path fill="none" stroke="midnightblue" d="M446.434,-61.5C454.889,-61.5 463.454,-61.5 471.705,-61.5"/>
<polygon fill="midnightblue" stroke="midnightblue" points="446.202,-58.0001 436.202,-61.5 446.202,-65.0001 446.202,-58.0001"/>
</g>
<!-- Node7 -->
<g id="node7" class="node"><title>Node7</title>
<g id="a_node7"><a xlink:href="classmappel_1_1Gauss2DModel.html#a41a5b18b3f3779562c0dbd19e1b6e29b" target="_top" xlink:title="mappel::Gauss2DModel\l::set_prior">
<polygon fill="white" stroke="black" points="472,-0.5 472,-28.5 588,-28.5 588,-0.5 472,-0.5"/>
<text text-anchor="start" x="480" y="-17.3" font-family="Helvetica,sans-Serif" font-size="9.00">mappel::Gauss2DModel</text>
<text text-anchor="middle" x="530" y="-7.3" font-family="Helvetica,sans-Serif" font-size="9.00">::set_prior</text>
</a>
</g>
</g>
<!-- Node5&#45;&gt;Node7 -->
<g id="edge8" class="edge"><title>Node5&#45;&gt;Node7</title>
<path fill="none" stroke="midnightblue" d="M445.852,-40.2101C458.571,-36.2773 471.56,-32.2611 483.376,-28.6075"/>
<polygon fill="midnightblue" stroke="midnightblue" points="444.722,-36.896 436.202,-43.194 446.79,-43.5836 444.722,-36.896"/>
</g>
</g>
</svg>
