<?xml version="1.0" encoding="UTF-8" standalone="no"?>
<!DOCTYPE svg PUBLIC "-//W3C//DTD SVG 1.1//EN"
 "http://www.w3.org/Graphics/SVG/1.1/DTD/svg11.dtd">
<!-- Generated by graphviz version 2.38.0 (20140413.2041)
 -->
<!-- Title: mappel::Gauss2DMLE::operator= Pages: 1 -->
<svg width="634pt" height="225pt"
 viewBox="0.00 0.00 634.00 225.00" xmlns="http://www.w3.org/2000/svg" xmlns:xlink="http://www.w3.org/1999/xlink">
<g id="graph0" class="graph" transform="scale(1 1) rotate(0) translate(4 221)">
<title>mappel::Gauss2DMLE::operator=</title>
<polygon fill="white" stroke="none" points="-4,4 -4,-221 630,-221 630,4 -4,4"/>
<!-- Node1 -->
<g id="node1" class="node"><title>Node1</title>
<polygon fill="#bfbfbf" stroke="black" points="0,-94.5 0,-122.5 109,-122.5 109,-94.5 0,-94.5"/>
<text text-anchor="start" x="8" y="-111.3" font-family="Helvetica,sans-Serif" font-size="9.00">mappel::Gauss2DMLE</text>
<text text-anchor="middle" x="54.5" y="-101.3" font-family="Helvetica,sans-Serif" font-size="9.00">::operator=</text>
</g>
<!-- Node2 -->
<g id="node2" class="node"><title>Node2</title>
<g id="a_node2"><a xlink:href="classmappel_1_1MLEstimator.html#ace25f714ea4c7918b71def996c638d0c" target="_top" xlink:title="mappel::MLEstimator\l::operator=">
<polygon fill="white" stroke="black" points="173,-188.5 173,-216.5 276,-216.5 276,-188.5 173,-188.5"/>
<text text-anchor="start" x="181" y="-205.3" font-family="Helvetica,sans-Serif" font-size="9.00">mappel::MLEstimator</text>
<text text-anchor="middle" x="224.5" y="-195.3" font-family="Helvetica,sans-Serif" font-size="9.00">::operator=</text>
</a>
</g>
</g>
<!-- Node1&#45;&gt;Node2 -->
<g id="edge1" class="edge"><title>Node1&#45;&gt;Node2</title>
<path fill="none" stroke="midnightblue" d="M69.766,-122.755C86.4622,-138.695 115.588,-164.269 145,-179.5 150.71,-182.457 156.857,-185.088 163.106,-187.415"/>
<polygon fill="midnightblue" stroke="midnightblue" points="162.368,-190.863 172.963,-190.825 164.657,-184.248 162.368,-190.863"/>
</g>
<!-- Node3 -->
<g id="node3" class="node"><title>Node3</title>
<g id="a_node3"><a xlink:href="classmappel_1_1PoissonNoise2DObjective.html#abdfcdfc3fb1a1da2a0b7c3898532175e" target="_top" xlink:title="mappel::PoissonNoise2DObjective\l::operator=">
<polygon fill="white" stroke="black" points="145,-141.5 145,-169.5 304,-169.5 304,-141.5 145,-141.5"/>
<text text-anchor="start" x="153" y="-158.3" font-family="Helvetica,sans-Serif" font-size="9.00">mappel::PoissonNoise2DObjective</text>
<text text-anchor="middle" x="224.5" y="-148.3" font-family="Helvetica,sans-Serif" font-size="9.00">::operator=</text>
</a>
</g>
</g>
<!-- Node1&#45;&gt;Node3 -->
<g id="edge2" class="edge"><title>Node1&#45;&gt;Node3</title>
<path fill="none" stroke="midnightblue" d="M105.906,-122.602C124.095,-127.69 144.8,-133.483 163.715,-138.774"/>
<polygon fill="midnightblue" stroke="midnightblue" points="162.846,-142.166 173.42,-141.489 164.732,-135.425 162.846,-142.166"/>
</g>
<!-- Node4 -->
<g id="node4" class="node"><title>Node4</title>
<g id="a_node4"><a xlink:href="classmappel_1_1ImageFormat2DBase.html#af7abdfaf54b018bc3a4b2a2a4e37b451" target="_top" xlink:title="mappel::ImageFormat2DBase\l::operator=">
<polygon fill="white" stroke="black" points="155,-94.5 155,-122.5 294,-122.5 294,-94.5 155,-94.5"/>
<text text-anchor="start" x="163" y="-111.3" font-family="Helvetica,sans-Serif" font-size="9.00">mappel::ImageFormat2DBase</text>
<text text-anchor="middle" x="224.5" y="-101.3" font-family="Helvetica,sans-Serif" font-size="9.00">::operator=</text>
</a>
</g>
</g>
<!-- Node1&#45;&gt;Node4 -->
<g id="edge3" class="edge"><title>Node1&#45;&gt;Node4</title>
<path fill="none" stroke="midnightblue" d="M109.118,-108.5C120.446,-108.5 132.627,-108.5 144.665,-108.5"/>
<polygon fill="midnightblue" stroke="midnightblue" points="144.722,-112 154.722,-108.5 144.722,-105 144.722,-112"/>
</g>
<!-- Node5 -->
<g id="node5" class="node"><title>Node5</title>
<g id="a_node5"><a xlink:href="classmappel_1_1Gauss2DModel.html#ac71b6bde6695ad5c3b58c366bc48600d" target="_top" xlink:title="mappel::Gauss2DModel\l::operator=">
<polygon fill="white" stroke="black" points="166.5,-47.5 166.5,-75.5 282.5,-75.5 282.5,-47.5 166.5,-47.5"/>
<text text-anchor="start" x="174.5" y="-64.3" font-family="Helvetica,sans-Serif" font-size="9.00">mappel::Gauss2DModel</text>
<text text-anchor="middle" x="224.5" y="-54.3" font-family="Helvetica,sans-Serif" font-size="9.00">::operator=</text>
</a>
</g>
</g>
<!-- Node1&#45;&gt;Node5 -->
<g id="edge4" class="edge"><title>Node1&#45;&gt;Node5</title>
<path fill="none" stroke="midnightblue" d="M105.906,-94.3985C124.095,-89.3098 144.8,-83.5172 163.715,-78.2256"/>
<polygon fill="midnightblue" stroke="midnightblue" points="164.732,-81.5754 173.42,-75.5106 162.846,-74.8342 164.732,-81.5754"/>
</g>
<!-- Node8 -->
<g id="node8" class="node"><title>Node8</title>
<g id="a_node8"><a xlink:href="classmappel_1_1PointEmitterModel.html#aa84b896a736bca3cab2f07e2ccda5489" target="_top" xlink:title="mappel::PointEmitterModel\l::operator=">
<polygon fill="white" stroke="black" points="161,-0.5 161,-28.5 288,-28.5 288,-0.5 161,-0.5"/>
<text text-anchor="start" x="169" y="-17.3" font-family="Helvetica,sans-Serif" font-size="9.00">mappel::PointEmitterModel</text>
<text text-anchor="middle" x="224.5" y="-7.3" font-family="Helvetica,sans-Serif" font-size="9.00">::operator=</text>
</a>
</g>
</g>
<!-- Node1&#45;&gt;Node8 -->
<g id="edge7" class="edge"><title>Node1&#45;&gt;Node8</title>
<path fill="none" stroke="midnightblue" d="M70.1394,-94.2373C86.9478,-78.5697 115.958,-53.6278 145,-38.5 149.467,-36.1731 154.197,-34.0312 159.032,-32.0676"/>
<polygon fill="midnightblue" stroke="midnightblue" points="160.308,-35.327 168.418,-28.5095 157.827,-28.7815 160.308,-35.327"/>
</g>
<!-- Node6 -->
<g id="node6" class="node"><title>Node6</title>
<g id="a_node6"><a xlink:href="classmappel_1_1MCMCAdaptor2D.html#aeddb1b66ab86ef64421b9a7d6a208769" target="_top" xlink:title="mappel::MCMCAdaptor2D\l::operator=">
<polygon fill="white" stroke="black" points="340,-47.5 340,-75.5 465,-75.5 465,-47.5 340,-47.5"/>
<text text-anchor="start" x="348" y="-64.3" font-family="Helvetica,sans-Serif" font-size="9.00">mappel::MCMCAdaptor2D</text>
<text text-anchor="middle" x="402.5" y="-54.3" font-family="Helvetica,sans-Serif" font-size="9.00">::operator=</text>
</a>
</g>
</g>
<!-- Node5&#45;&gt;Node6 -->
<g id="edge5" class="edge"><title>Node5&#45;&gt;Node6</title>
<path fill="none" stroke="midnightblue" d="M282.642,-61.5C297.627,-61.5 313.98,-61.5 329.628,-61.5"/>
<polygon fill="midnightblue" stroke="midnightblue" points="329.787,-65.0001 339.787,-61.5 329.787,-58.0001 329.787,-65.0001"/>
</g>
<!-- Node7 -->
<g id="node7" class="node"><title>Node7</title>
<g id="a_node7"><a xlink:href="classmappel_1_1MCMCAdaptor1D.html#a669bba7517087d842f941957cbbf5fb5" target="_top" xlink:title="mappel::MCMCAdaptor1D\l::operator=">
<polygon fill="white" stroke="black" points="501,-47.5 501,-75.5 626,-75.5 626,-47.5 501,-47.5"/>
<text text-anchor="start" x="509" y="-64.3" font-family="Helvetica,sans-Serif" font-size="9.00">mappel::MCMCAdaptor1D</text>
<text text-anchor="middle" x="563.5" y="-54.3" font-family="Helvetica,sans-Serif" font-size="9.00">::operator=</text>
</a>
</g>
</g>
<!-- Node6&#45;&gt;Node7 -->
<g id="edge6" class="edge"><title>Node6&#45;&gt;Node7</title>
<path fill="none" stroke="midnightblue" d="M465.429,-61.5C473.674,-61.5 482.184,-61.5 490.58,-61.5"/>
<polygon fill="midnightblue" stroke="midnightblue" points="490.74,-65.0001 500.74,-61.5 490.74,-58.0001 490.74,-65.0001"/>
</g>
</g>
</svg>
