<?xml version="1.0" encoding="UTF-8" standalone="no"?>
<!DOCTYPE svg PUBLIC "-//W3C//DTD SVG 1.1//EN"
 "http://www.w3.org/Graphics/SVG/1.1/DTD/svg11.dtd">
<!-- Generated by graphviz version 2.38.0 (20140413.2041)
 -->
<!-- Title: mappel::Estimator::record_walltime Pages: 1 -->
<svg width="269pt" height="84pt"
 viewBox="0.00 0.00 269.00 84.00" xmlns="http://www.w3.org/2000/svg" xmlns:xlink="http://www.w3.org/1999/xlink">
<g id="graph0" class="graph" transform="scale(1 1) rotate(0) translate(4 80)">
<title>mappel::Estimator::record_walltime</title>
<polygon fill="white" stroke="none" points="-4,4 -4,-80 265,-80 265,4 -4,4"/>
<!-- Node1 -->
<g id="node1" class="node"><title>Node1</title>
<polygon fill="#bfbfbf" stroke="black" points="0,-23.5 0,-51.5 95,-51.5 95,-23.5 0,-23.5"/>
<text text-anchor="start" x="8" y="-40.3" font-family="Helvetica,sans-Serif" font-size="9.00">mappel::Estimator::</text>
<text text-anchor="middle" x="47.5" y="-30.3" font-family="Helvetica,sans-Serif" font-size="9.00">record_walltime</text>
</g>
<!-- Node2 -->
<g id="node2" class="node"><title>Node2</title>
<g id="a_node2"><a xlink:href="classmappel_1_1ThreadedEstimator.html#afb7a2e27b4e8dcc2fa604f83344461fe" target="_top" xlink:title="mappel::ThreadedEstimator\l::estimate_max_stack">
<polygon fill="white" stroke="black" points="131,-47.5 131,-75.5 261,-75.5 261,-47.5 131,-47.5"/>
<text text-anchor="start" x="139" y="-64.3" font-family="Helvetica,sans-Serif" font-size="9.00">mappel::ThreadedEstimator</text>
<text text-anchor="middle" x="196" y="-54.3" font-family="Helvetica,sans-Serif" font-size="9.00">::estimate_max_stack</text>
</a>
</g>
</g>
<!-- Node1&#45;&gt;Node2 -->
<g id="edge1" class="edge"><title>Node1&#45;&gt;Node2</title>
<path fill="none" stroke="midnightblue" d="M105.272,-46.8006C113.632,-48.1701 122.294,-49.589 130.79,-50.981"/>
<polygon fill="midnightblue" stroke="midnightblue" points="105.691,-43.3225 95.2563,-45.1597 104.559,-50.2305 105.691,-43.3225"/>
</g>
<!-- Node3 -->
<g id="node3" class="node"><title>Node3</title>
<g id="a_node3"><a xlink:href="classmappel_1_1ThreadedEstimator.html#aebbf686f95be1331ff85cecd5a3c97db" target="_top" xlink:title="mappel::ThreadedEstimator\l::estimate_profile_stack">
<polygon fill="white" stroke="black" points="131,-0.5 131,-28.5 261,-28.5 261,-0.5 131,-0.5"/>
<text text-anchor="start" x="139" y="-17.3" font-family="Helvetica,sans-Serif" font-size="9.00">mappel::ThreadedEstimator</text>
<text text-anchor="middle" x="196" y="-7.3" font-family="Helvetica,sans-Serif" font-size="9.00">::estimate_profile_stack</text>
</a>
</g>
</g>
<!-- Node1&#45;&gt;Node3 -->
<g id="edge2" class="edge"><title>Node1&#45;&gt;Node3</title>
<path fill="none" stroke="midnightblue" d="M105.272,-28.587C113.632,-27.2745 122.294,-25.9147 130.79,-24.5807"/>
<polygon fill="midnightblue" stroke="midnightblue" points="104.592,-25.1507 95.2563,-30.1594 105.678,-32.066 104.592,-25.1507"/>
</g>
</g>
</svg>
