<?xml version="1.0" encoding="UTF-8" standalone="no"?>
<!DOCTYPE svg PUBLIC "-//W3C//DTD SVG 1.1//EN"
 "http://www.w3.org/Graphics/SVG/1.1/DTD/svg11.dtd">
<!-- Generated by graphviz version 2.38.0 (20140413.2041)
 -->
<!-- Title: mappel::Gauss2DsxyModel::initial_theta_estimate Pages: 1 -->
<svg width="465pt" height="37pt"
 viewBox="0.00 0.00 465.00 37.00" xmlns="http://www.w3.org/2000/svg" xmlns:xlink="http://www.w3.org/1999/xlink">
<g id="graph0" class="graph" transform="scale(1 1) rotate(0) translate(4 33)">
<title>mappel::Gauss2DsxyModel::initial_theta_estimate</title>
<polygon fill="white" stroke="none" points="-4,4 -4,-33 461,-33 461,4 -4,4"/>
<!-- Node1 -->
<g id="node1" class="node"><title>Node1</title>
<polygon fill="#bfbfbf" stroke="black" points="0,-0.5 0,-28.5 129,-28.5 129,-0.5 0,-0.5"/>
<text text-anchor="start" x="8" y="-17.3" font-family="Helvetica,sans-Serif" font-size="9.00">mappel::Gauss2DsxyModel</text>
<text text-anchor="middle" x="64.5" y="-7.3" font-family="Helvetica,sans-Serif" font-size="9.00">::initial_theta_estimate</text>
</g>
<!-- Node2 -->
<g id="node2" class="node"><title>Node2</title>
<g id="a_node2"><a xlink:href="classmappel_1_1Gauss2DsxyModel.html#ab8129a326be2ffaa51b1edbce903181c" target="_top" xlink:title="Fast, heuristic estimate of initial theta. ">
<polygon fill="white" stroke="black" points="165,-0.5 165,-28.5 294,-28.5 294,-0.5 165,-0.5"/>
<text text-anchor="start" x="173" y="-17.3" font-family="Helvetica,sans-Serif" font-size="9.00">mappel::Gauss2DsxyModel</text>
<text text-anchor="middle" x="229.5" y="-7.3" font-family="Helvetica,sans-Serif" font-size="9.00">::initial_theta_estimate</text>
</a>
</g>
</g>
<!-- Node1&#45;&gt;Node2 -->
<g id="edge1" class="edge"><title>Node1&#45;&gt;Node2</title>
<path fill="none" stroke="midnightblue" d="M129.454,-14.5C137.761,-14.5 146.322,-14.5 154.772,-14.5"/>
<polygon fill="midnightblue" stroke="midnightblue" points="154.998,-18.0001 164.998,-14.5 154.998,-11.0001 154.998,-18.0001"/>
</g>
<!-- Node3 -->
<g id="node3" class="node"><title>Node3</title>
<g id="a_node3"><a xlink:href="classmappel_1_1PointEmitterModel.html#a1cd8ff64ce4132b6eaa8655696885749" target="_top" xlink:title="mappel::PointEmitterModel\l::make_param">
<polygon fill="white" stroke="black" points="330,-0.5 330,-28.5 457,-28.5 457,-0.5 330,-0.5"/>
<text text-anchor="start" x="338" y="-17.3" font-family="Helvetica,sans-Serif" font-size="9.00">mappel::PointEmitterModel</text>
<text text-anchor="middle" x="393.5" y="-7.3" font-family="Helvetica,sans-Serif" font-size="9.00">::make_param</text>
</a>
</g>
</g>
<!-- Node2&#45;&gt;Node3 -->
<g id="edge2" class="edge"><title>Node2&#45;&gt;Node3</title>
<path fill="none" stroke="midnightblue" d="M294.062,-14.5C302.535,-14.5 311.276,-14.5 319.89,-14.5"/>
<polygon fill="midnightblue" stroke="midnightblue" points="319.918,-18.0001 329.918,-14.5 319.918,-11.0001 319.918,-18.0001"/>
</g>
</g>
</svg>
