<?xml version="1.0" encoding="UTF-8" standalone="no"?>
<!DOCTYPE svg PUBLIC "-//W3C//DTD SVG 1.1//EN"
 "http://www.w3.org/Graphics/SVG/1.1/DTD/svg11.dtd">
<!-- Generated by graphviz version 2.38.0 (20140413.2041)
 -->
<!-- Title: mappel::Gauss2DsxyModel::pixel_grad Pages: 1 -->
<svg width="302pt" height="37pt"
 viewBox="0.00 0.00 302.00 37.00" xmlns="http://www.w3.org/2000/svg" xmlns:xlink="http://www.w3.org/1999/xlink">
<g id="graph0" class="graph" transform="scale(1 1) rotate(0) translate(4 33)">
<title>mappel::Gauss2DsxyModel::pixel_grad</title>
<polygon fill="white" stroke="none" points="-4,4 -4,-33 298,-33 298,4 -4,4"/>
<!-- Node1 -->
<g id="node1" class="node"><title>Node1</title>
<polygon fill="#bfbfbf" stroke="black" points="0,-0.5 0,-28.5 129,-28.5 129,-0.5 0,-0.5"/>
<text text-anchor="start" x="8" y="-17.3" font-family="Helvetica,sans-Serif" font-size="9.00">mappel::Gauss2DsxyModel</text>
<text text-anchor="middle" x="64.5" y="-7.3" font-family="Helvetica,sans-Serif" font-size="9.00">::pixel_grad</text>
</g>
<!-- Node2 -->
<g id="node2" class="node"><title>Node2</title>
<g id="a_node2"><a xlink:href="classmappel_1_1Gauss2DsxyModel_1_1Stencil.html#a915d6c63d7373ed1fe51eb3be3f5fb0c" target="_top" xlink:title="mappel::Gauss2DsxyModel\l::Stencil::I">
<polygon fill="white" stroke="black" points="165,-0.5 165,-28.5 294,-28.5 294,-0.5 165,-0.5"/>
<text text-anchor="start" x="173" y="-17.3" font-family="Helvetica,sans-Serif" font-size="9.00">mappel::Gauss2DsxyModel</text>
<text text-anchor="middle" x="229.5" y="-7.3" font-family="Helvetica,sans-Serif" font-size="9.00">::Stencil::I</text>
</a>
</g>
</g>
<!-- Node1&#45;&gt;Node2 -->
<g id="edge1" class="edge"><title>Node1&#45;&gt;Node2</title>
<path fill="none" stroke="midnightblue" d="M129.454,-14.5C137.761,-14.5 146.322,-14.5 154.772,-14.5"/>
<polygon fill="midnightblue" stroke="midnightblue" points="154.998,-18.0001 164.998,-14.5 154.998,-11.0001 154.998,-18.0001"/>
</g>
</g>
</svg>
