<?xml version="1.0" encoding="UTF-8" standalone="no"?>
<!DOCTYPE svg PUBLIC "-//W3C//DTD SVG 1.1//EN"
 "http://www.w3.org/Graphics/SVG/1.1/DTD/svg11.dtd">
<!-- Generated by graphviz version 2.38.0 (20140413.2041)
 -->
<!-- Title: mappel::PointEmitterModel Pages: 1 -->
<!--zoomable 357 -->
<svg id="main" version="1.1" xmlns="http://www.w3.org/2000/svg" xmlns:xlink="http://www.w3.org/1999/xlink" xml:space="preserve" onload="init(evt)">
<style type="text/css"><![CDATA[
.edge:hover path { stroke: red; }
.edge:hover polygon { stroke: red; fill: red; }
]]></style>
<script type="text/javascript"><![CDATA[
var edges = document.getElementsByTagName('g');
if (edges && edges.length) {
  for (var i=0;i<edges.length;i++) {
    if (edges[i].id.substr(0,4)=='edge') {
      edges[i].setAttribute('class','edge');
    }
  }
}
]]></script>
        <defs>
                <circle id="rim" cx="0" cy="0" r="7"/>
                <circle id="rim2" cx="0" cy="0" r="3.5"/>
                <g id="zoomPlus">
                        <use xlink:href="#rim" fill="#404040">
                                <set attributeName="fill" to="#808080" begin="zoomplus.mouseover" end="zoomplus.mouseout"/>
                        </use>
                        <path d="M-4,0h8M0,-4v8" fill="none" stroke="white" stroke-width="1.5" pointer-events="none"/>
                </g>
                <g id="zoomMin">
                        <use xlink:href="#rim" fill="#404040">
                                <set attributeName="fill" to="#808080" begin="zoomminus.mouseover" end="zoomminus.mouseout"/>
                        </use>
                        <path d="M-4,0h8" fill="none" stroke="white" stroke-width="1.5" pointer-events="none"/>
                </g>
                <g id="dirArrow">
                        <path fill="none" stroke="white" stroke-width="1.5" d="M0,-3.0v7 M-2.5,-0.5L0,-3.0L2.5,-0.5"/>
                </g>
               <g id="resetDef">
                       <use xlink:href="#rim2" fill="#404040">
                               <set attributeName="fill" to="#808080" begin="reset.mouseover" end="reset.mouseout"/>
                       </use>
               </g>
        </defs>

<script type="text/javascript">
var viewWidth = 939;
var viewHeight = 357;
var sectionId = 'dynsection-0';
</script>
<script xlink:href="svgpan.js"/>
<svg id="graph" class="graph">
<g id="viewport">
<title>mappel::PointEmitterModel</title>
<polygon fill="white" stroke="none" points="-4,4 -4,-352.892 935,-352.892 935,4 -4,4"/>
<!-- Node1 -->
<g id="node1" class="node"><title>Node1</title>
<polygon fill="#bfbfbf" stroke="black" points="0,-142.5 0,-160.5 127,-160.5 127,-142.5 0,-142.5"/>
<text text-anchor="middle" x="63.5" y="-149.3" font-family="Helvetica,sans-Serif" font-size="9.00">mappel::PointEmitterModel</text>
</g>
<!-- Node2 -->
<g id="node2" class="node"><title>Node2</title>
<g id="a_node2"><a xlink:href="classmappel_1_1Gauss1DModel.html" target="_top" xlink:title="A base class for 1D Gaussian PSF with a fixed sigma (standard dev.) ">
<polygon fill="white" stroke="black" points="499.5,-265.5 499.5,-283.5 615.5,-283.5 615.5,-265.5 499.5,-265.5"/>
<text text-anchor="middle" x="557.5" y="-272.3" font-family="Helvetica,sans-Serif" font-size="9.00">mappel::Gauss1DModel</text>
</a>
</g>
</g>
<!-- Node1&#45;&gt;Node2 -->
<g id="edge1" class="edge"><title>Node1&#45;&gt;Node2</title>
<path fill="none" stroke="midnightblue" d="M80.6866,-167.911C98.9494,-185.333 130.384,-212.153 163,-225.5 275.776,-271.65 420.713,-277.408 499.428,-276.566"/>
<polygon fill="midnightblue" stroke="midnightblue" points="82.8611,-165.142 73.2655,-160.651 77.9656,-170.146 82.8611,-165.142"/>
</g>
<!-- Node6 -->
<g id="node6" class="node"><title>Node6</title>
<g id="a_node6"><a xlink:href="classmappel_1_1Gauss1DsModel.html" target="_top" xlink:title="Base class for 1D Gaussian PSF with variable Gaussian sigma (standard deviation) measured in units of...">
<polygon fill="white" stroke="black" points="497.5,-189.5 497.5,-207.5 617.5,-207.5 617.5,-189.5 497.5,-189.5"/>
<text text-anchor="middle" x="557.5" y="-196.3" font-family="Helvetica,sans-Serif" font-size="9.00">mappel::Gauss1DsModel</text>
</a>
</g>
</g>
<!-- Node1&#45;&gt;Node6 -->
<g id="edge5" class="edge"><title>Node1&#45;&gt;Node6</title>
<path fill="none" stroke="midnightblue" d="M88.3245,-165.631C107.745,-176.459 136.24,-190.807 163,-198.5 288.843,-234.677 326.643,-229.835 457,-217.5 477.485,-215.562 500.028,-211.426 518.47,-207.507"/>
<polygon fill="midnightblue" stroke="midnightblue" points="89.9889,-162.551 79.5673,-160.643 86.5243,-168.634 89.9889,-162.551"/>
</g>
<!-- Node9 -->
<g id="node9" class="node"><title>Node9</title>
<g id="a_node9"><a xlink:href="classmappel_1_1Gauss2DModel.html" target="_top" xlink:title="A base class for 2D Gaussian PSF with fixed but possibly asymmetric sigma. ">
<polygon fill="white" stroke="black" points="499.5,-115.5 499.5,-133.5 615.5,-133.5 615.5,-115.5 499.5,-115.5"/>
<text text-anchor="middle" x="557.5" y="-122.3" font-family="Helvetica,sans-Serif" font-size="9.00">mappel::Gauss2DModel</text>
</a>
</g>
</g>
<!-- Node1&#45;&gt;Node9 -->
<g id="edge8" class="edge"><title>Node1&#45;&gt;Node9</title>
<path fill="none" stroke="midnightblue" d="M137.231,-147.509C235.751,-142.102 409.588,-132.562 499.33,-127.637"/>
<polygon fill="midnightblue" stroke="midnightblue" points="136.855,-144.024 127.062,-148.067 137.239,-151.013 136.855,-144.024"/>
</g>
<!-- Node12 -->
<g id="node12" class="node"><title>Node12</title>
<g id="a_node12"><a xlink:href="classmappel_1_1Gauss2DsModel.html" target="_top" xlink:title="A base class for 2D Gaussian PSF where the gaussian sigma is controlled by a single scalar parameter ...">
<polygon fill="white" stroke="black" points="659.5,-117.5 659.5,-135.5 779.5,-135.5 779.5,-117.5 659.5,-117.5"/>
<text text-anchor="middle" x="719.5" y="-124.3" font-family="Helvetica,sans-Serif" font-size="9.00">mappel::Gauss2DsModel</text>
</a>
</g>
</g>
<!-- Node1&#45;&gt;Node12 -->
<g id="edge11" class="edge"><title>Node1&#45;&gt;Node12</title>
<path fill="none" stroke="midnightblue" d="M117.288,-140.489C216.363,-121.299 436.879,-85.5903 622,-105.5 643.309,-107.792 666.816,-112.852 685.294,-117.431"/>
<polygon fill="midnightblue" stroke="midnightblue" points="116.372,-137.101 107.233,-142.461 117.72,-143.971 116.372,-137.101"/>
</g>
<!-- Node15 -->
<g id="node15" class="node"><title>Node15</title>
<g id="a_node15"><a xlink:href="classmappel_1_1Gauss2DsxyModel.html" target="_top" xlink:title="A base class for 2D Gaussian PSF with axis&#45;aligned gaussian with free parameters for both sigma_x and...">
<polygon fill="white" stroke="black" points="163,-0.5 163,-18.5 292,-18.5 292,-0.5 163,-0.5"/>
<text text-anchor="middle" x="227.5" y="-7.3" font-family="Helvetica,sans-Serif" font-size="9.00">mappel::Gauss2DsxyModel</text>
</a>
</g>
</g>
<!-- Node1&#45;&gt;Node15 -->
<g id="edge14" class="edge"><title>Node1&#45;&gt;Node15</title>
<path fill="none" stroke="midnightblue" d="M75.0391,-133.839C91.0615,-108.371 123.858,-61.3431 163,-33.5 171.931,-27.1468 182.754,-22.2423 192.915,-18.5723"/>
<polygon fill="midnightblue" stroke="midnightblue" points="71.9956,-132.106 69.7414,-142.459 77.9593,-135.772 71.9956,-132.106"/>
</g>
<!-- Node16 -->
<g id="node16" class="node"><title>Node16</title>
<g id="a_node16"><a xlink:href="classmappel_1_1MAPEstimator.html" target="_top" xlink:title="A Mixin class to configure a for MLE estimation (null prior). ">
<polygon fill="white" stroke="black" points="502.5,-302.5 502.5,-320.5 612.5,-320.5 612.5,-302.5 502.5,-302.5"/>
<text text-anchor="middle" x="557.5" y="-309.3" font-family="Helvetica,sans-Serif" font-size="9.00">mappel::MAPEstimator</text>
</a>
</g>
</g>
<!-- Node1&#45;&gt;Node16 -->
<g id="edge15" class="edge"><title>Node1&#45;&gt;Node16</title>
<path fill="none" stroke="midnightblue" d="M75.6114,-169.134C91.732,-193.107 123.985,-235.406 163,-256.5 272.374,-315.635 422.808,-318.763 502.259,-315.436"/>
<polygon fill="midnightblue" stroke="midnightblue" points="78.4666,-167.105 70.0664,-160.648 72.6068,-170.934 78.4666,-167.105"/>
</g>
<!-- Node17 -->
<g id="node17" class="node"><title>Node17</title>
<g id="a_node17"><a xlink:href="classmappel_1_1MCMCAdaptor1D.html" target="_top" xlink:title="mappel::MCMCAdaptor1D">
<polygon fill="white" stroke="black" points="165,-170.5 165,-188.5 290,-188.5 290,-170.5 165,-170.5"/>
<text text-anchor="middle" x="227.5" y="-177.3" font-family="Helvetica,sans-Serif" font-size="9.00">mappel::MCMCAdaptor1D</text>
</a>
</g>
</g>
<!-- Node1&#45;&gt;Node17 -->
<g id="edge21" class="edge"><title>Node1&#45;&gt;Node17</title>
<path fill="none" stroke="midnightblue" d="M126.767,-162.262C142.419,-164.968 159.059,-167.844 174.171,-170.455"/>
<polygon fill="midnightblue" stroke="midnightblue" points="127.1,-158.768 116.65,-160.514 125.907,-165.666 127.1,-158.768"/>
</g>
<!-- Node21 -->
<g id="node21" class="node"><title>Node21</title>
<g id="a_node21"><a xlink:href="classmappel_1_1MLEstimator.html" target="_top" xlink:title="A Mixin class to configure a for MLE estimation (null prior). ">
<polygon fill="white" stroke="black" points="506,-38.5 506,-56.5 609,-56.5 609,-38.5 506,-38.5"/>
<text text-anchor="middle" x="557.5" y="-45.3" font-family="Helvetica,sans-Serif" font-size="9.00">mappel::MLEstimator</text>
</a>
</g>
</g>
<!-- Node1&#45;&gt;Node21 -->
<g id="edge29" class="edge"><title>Node1&#45;&gt;Node21</title>
<path fill="none" stroke="midnightblue" d="M78.8788,-134.742C96.4969,-115.548 128.31,-85.0155 163,-71.5 279.068,-26.2784 428.989,-33.2259 505.964,-41.021"/>
<polygon fill="midnightblue" stroke="midnightblue" points="76.0699,-132.633 72.0266,-142.426 81.2944,-137.292 76.0699,-132.633"/>
</g>
<!-- Node3 -->
<g id="node3" class="node"><title>Node3</title>
<g id="a_node3"><a xlink:href="classmappel_1_1Gauss1DMAP.html" target="_top" xlink:title="A 1D Gaussian with fixed PSF under an Poisson Read Noise assumption and MAP Objective. ">
<polygon fill="white" stroke="black" points="664.5,-265.5 664.5,-283.5 774.5,-283.5 774.5,-265.5 664.5,-265.5"/>
<text text-anchor="middle" x="719.5" y="-272.3" font-family="Helvetica,sans-Serif" font-size="9.00">mappel::Gauss1DMAP</text>
</a>
</g>
</g>
<!-- Node2&#45;&gt;Node3 -->
<g id="edge2" class="edge"><title>Node2&#45;&gt;Node3</title>
<path fill="none" stroke="midnightblue" d="M625.944,-274.5C638.728,-274.5 651.95,-274.5 664.262,-274.5"/>
<polygon fill="midnightblue" stroke="midnightblue" points="625.812,-271 615.812,-274.5 625.812,-278 625.812,-271"/>
</g>
<!-- Node4 -->
<g id="node4" class="node"><title>Node4</title>
<g id="a_node4"><a xlink:href="classmappel_1_1Gauss1DMLE.html" target="_top" xlink:title="A 1D Gaussian with fixed PSF under an Poisson noise assumption and maximum&#45;likelihood objective...">
<polygon fill="white" stroke="black" points="665,-154.5 665,-172.5 774,-172.5 774,-154.5 665,-154.5"/>
<text text-anchor="middle" x="719.5" y="-161.3" font-family="Helvetica,sans-Serif" font-size="9.00">mappel::Gauss1DMLE</text>
</a>
</g>
</g>
<!-- Node2&#45;&gt;Node4 -->
<g id="edge3" class="edge"><title>Node2&#45;&gt;Node4</title>
<path fill="none" stroke="midnightblue" d="M576.613,-258.584C589.412,-247.256 606.904,-231.603 622,-217.5 638.306,-202.266 638.835,-193.931 658,-182.5 664.808,-178.44 672.572,-175.16 680.216,-172.544"/>
<polygon fill="midnightblue" stroke="midnightblue" points="574.135,-256.103 568.953,-265.345 578.767,-261.352 574.135,-256.103"/>
</g>
<!-- Node5 -->
<g id="node5" class="node"><title>Node5</title>
<g id="a_node5"><a xlink:href="classmappel_1_1Gauss2DsxyMAP.html" target="_top" xlink:title="A 1D Gaussian with fixed PSF under an Poisson Read Noise assumption and MAP Objective. ">
<polygon fill="white" stroke="black" points="658,-302.5 658,-320.5 781,-320.5 781,-302.5 658,-302.5"/>
<text text-anchor="middle" x="719.5" y="-309.3" font-family="Helvetica,sans-Serif" font-size="9.00">mappel::Gauss2DsxyMAP</text>
</a>
</g>
</g>
<!-- Node2&#45;&gt;Node5 -->
<g id="edge4" class="edge"><title>Node2&#45;&gt;Node5</title>
<path fill="none" stroke="midnightblue" d="M607.593,-285.853C630.682,-291.192 657.83,-297.47 679.487,-302.478"/>
<polygon fill="midnightblue" stroke="midnightblue" points="608.172,-282.394 597.64,-283.551 606.595,-289.214 608.172,-282.394"/>
</g>
<!-- Node7 -->
<g id="node7" class="node"><title>Node7</title>
<g id="a_node7"><a xlink:href="classmappel_1_1Gauss1DsMAP.html" target="_top" xlink:title="A 1D Gaussian with variable PSF sigma under an Poisson read noise assumption and MAP Objective...">
<polygon fill="white" stroke="black" points="662.5,-228.5 662.5,-246.5 776.5,-246.5 776.5,-228.5 662.5,-228.5"/>
<text text-anchor="middle" x="719.5" y="-235.3" font-family="Helvetica,sans-Serif" font-size="9.00">mappel::Gauss1DsMAP</text>
</a>
</g>
</g>
<!-- Node6&#45;&gt;Node7 -->
<g id="edge6" class="edge"><title>Node6&#45;&gt;Node7</title>
<path fill="none" stroke="midnightblue" d="M605.63,-209.988C629.778,-215.874 658.764,-222.939 681.315,-228.436"/>
<polygon fill="midnightblue" stroke="midnightblue" points="606.154,-206.513 595.609,-207.545 604.496,-213.314 606.154,-206.513"/>
</g>
<!-- Node8 -->
<g id="node8" class="node"><title>Node8</title>
<g id="a_node8"><a xlink:href="classmappel_1_1Gauss1DsMLE.html" target="_top" xlink:title="A 1D Gaussian with variable PSF under an Poisson noise assumption and maximum&#45;likelihood estimator...">
<polygon fill="white" stroke="black" points="663,-80.5 663,-98.5 776,-98.5 776,-80.5 663,-80.5"/>
<text text-anchor="middle" x="719.5" y="-87.3" font-family="Helvetica,sans-Serif" font-size="9.00">mappel::Gauss1DsMLE</text>
</a>
</g>
</g>
<!-- Node6&#45;&gt;Node8 -->
<g id="edge7" class="edge"><title>Node6&#45;&gt;Node8</title>
<path fill="none" stroke="midnightblue" d="M616.316,-184.61C618.307,-183.356 620.211,-181.99 622,-180.5 649.798,-157.35 630.353,-130.83 658,-107.5 662.355,-103.825 667.437,-100.9 672.771,-98.5727"/>
<polygon fill="midnightblue" stroke="midnightblue" points="614.367,-181.679 607.127,-189.414 617.611,-187.882 614.367,-181.679"/>
</g>
<!-- Node10 -->
<g id="node10" class="node"><title>Node10</title>
<g id="a_node10"><a xlink:href="classmappel_1_1Gauss2DMAP.html" target="_top" xlink:title="A 2D Gaussian with fixed PSF under an Poisson Read Noise assumption and MAP Objective. ">
<polygon fill="white" stroke="black" points="664.5,-191.5 664.5,-209.5 774.5,-209.5 774.5,-191.5 664.5,-191.5"/>
<text text-anchor="middle" x="719.5" y="-198.3" font-family="Helvetica,sans-Serif" font-size="9.00">mappel::Gauss2DMAP</text>
</a>
</g>
</g>
<!-- Node9&#45;&gt;Node10 -->
<g id="edge9" class="edge"><title>Node9&#45;&gt;Node10</title>
<path fill="none" stroke="midnightblue" d="M609.908,-137.226C614.128,-139.059 618.219,-141.14 622,-143.5 642.01,-155.991 637.98,-170.024 658,-182.5 663.859,-186.151 670.499,-189.096 677.179,-191.46"/>
<polygon fill="midnightblue" stroke="midnightblue" points="611.123,-133.944 600.534,-133.601 608.598,-140.472 611.123,-133.944"/>
</g>
<!-- Node11 -->
<g id="node11" class="node"><title>Node11</title>
<g id="a_node11"><a xlink:href="classmappel_1_1Gauss2DMLE.html" target="_top" xlink:title="A 2D Gaussian with fixed PSF under an Poisson noise assumption and maximum&#45;likelihood objective...">
<polygon fill="white" stroke="black" points="665,-43.5 665,-61.5 774,-61.5 774,-43.5 665,-43.5"/>
<text text-anchor="middle" x="719.5" y="-50.3" font-family="Helvetica,sans-Serif" font-size="9.00">mappel::Gauss2DMLE</text>
</a>
</g>
</g>
<!-- Node9&#45;&gt;Node11 -->
<g id="edge10" class="edge"><title>Node9&#45;&gt;Node11</title>
<path fill="none" stroke="midnightblue" d="M581.46,-110.252C601.205,-98.4405 630.73,-81.8118 658,-70.5 666.098,-67.141 675.043,-64.1235 683.514,-61.5622"/>
<polygon fill="midnightblue" stroke="midnightblue" points="579.602,-107.286 572.863,-115.461 583.229,-113.273 579.602,-107.286"/>
</g>
<!-- Node13 -->
<g id="node13" class="node"><title>Node13</title>
<g id="a_node13"><a xlink:href="classmappel_1_1Gauss2DsMAP.html" target="_top" xlink:title="A 2D Gaussian with a variable scalar PSF sigma under a Poisson noise assumption using a maximum a&#45;pos...">
<polygon fill="white" stroke="black" points="817,-154.5 817,-172.5 931,-172.5 931,-154.5 817,-154.5"/>
<text text-anchor="middle" x="874" y="-161.3" font-family="Helvetica,sans-Serif" font-size="9.00">mappel::Gauss2DsMAP</text>
</a>
</g>
</g>
<!-- Node12&#45;&gt;Node13 -->
<g id="edge12" class="edge"><title>Node12&#45;&gt;Node13</title>
<path fill="none" stroke="midnightblue" d="M767.588,-137.925C789.53,-143.248 815.266,-149.492 835.815,-154.478"/>
<polygon fill="midnightblue" stroke="midnightblue" points="768.349,-134.508 757.806,-135.551 766.698,-141.31 768.349,-134.508"/>
</g>
<!-- Node14 -->
<g id="node14" class="node"><title>Node14</title>
<g id="a_node14"><a xlink:href="classmappel_1_1Gauss2DsMLE.html" target="_top" xlink:title="A 2D Gaussian with a variable scalar PSF sigma under a Poisson noise assumption using a maximum&#45;likel...">
<polygon fill="white" stroke="black" points="817.5,-80.5 817.5,-98.5 930.5,-98.5 930.5,-80.5 817.5,-80.5"/>
<text text-anchor="middle" x="874" y="-87.3" font-family="Helvetica,sans-Serif" font-size="9.00">mappel::Gauss2DsMLE</text>
</a>
</g>
</g>
<!-- Node12&#45;&gt;Node14 -->
<g id="edge13" class="edge"><title>Node12&#45;&gt;Node14</title>
<path fill="none" stroke="midnightblue" d="M767.588,-115.075C789.53,-109.752 815.266,-103.508 835.815,-98.5218"/>
<polygon fill="midnightblue" stroke="midnightblue" points="766.698,-111.69 757.806,-117.449 768.349,-118.492 766.698,-111.69"/>
</g>
<!-- Node16&#45;&gt;Node3 -->
<g id="edge16" class="edge"><title>Node16&#45;&gt;Node3</title>
<path fill="none" stroke="midnightblue" d="M607.593,-300.147C630.682,-294.808 657.83,-288.53 679.487,-283.522"/>
<polygon fill="midnightblue" stroke="midnightblue" points="606.595,-296.786 597.64,-302.449 608.172,-303.606 606.595,-296.786"/>
</g>
<!-- Node16&#45;&gt;Node5 -->
<g id="edge20" class="edge"><title>Node16&#45;&gt;Node5</title>
<path fill="none" stroke="midnightblue" d="M622.698,-311.5C634.274,-311.5 646.31,-311.5 657.783,-311.5"/>
<polygon fill="midnightblue" stroke="midnightblue" points="622.669,-308 612.669,-311.5 622.669,-315 622.669,-308"/>
</g>
<!-- Node16&#45;&gt;Node7 -->
<g id="edge17" class="edge"><title>Node16&#45;&gt;Node7</title>
<path fill="none" stroke="midnightblue" d="M611.733,-298.72C615.3,-297.166 618.758,-295.433 622,-293.5 641.707,-281.75 638.46,-268.526 658,-256.5 664.657,-252.403 672.275,-249.117 679.809,-246.508"/>
<polygon fill="midnightblue" stroke="midnightblue" points="610.191,-295.563 602.118,-302.424 612.707,-302.095 610.191,-295.563"/>
</g>
<!-- Node16&#45;&gt;Node10 -->
<g id="edge18" class="edge"><title>Node16&#45;&gt;Node10</title>
<path fill="none" stroke="midnightblue" d="M616.326,-297.622C618.314,-296.365 620.215,-294.994 622,-293.5 650.041,-270.019 630.291,-243.372 658,-219.5 662.838,-215.332 668.589,-212.078 674.591,-209.536"/>
<polygon fill="midnightblue" stroke="midnightblue" points="614.376,-294.692 607.146,-302.437 617.628,-300.891 614.376,-294.692"/>
</g>
<!-- Node16&#45;&gt;Node13 -->
<g id="edge19" class="edge"><title>Node16&#45;&gt;Node13</title>
<path fill="none" stroke="midnightblue" d="M588.136,-324.279C633.212,-341.587 720.178,-366.434 781,-330.5 841.988,-294.468 865.301,-201.979 871.308,-172.601"/>
<polygon fill="midnightblue" stroke="midnightblue" points="589.242,-320.953 578.656,-320.512 586.656,-327.458 589.242,-320.953"/>
</g>
<!-- Node17&#45;&gt;Node2 -->
<g id="edge22" class="edge"><title>Node17&#45;&gt;Node2</title>
<path fill="none" stroke="midnightblue" d="M259.266,-192.35C278.756,-200.215 304.61,-210.146 328,-217.5 391.965,-237.612 467.752,-255.349 513.962,-265.499"/>
<polygon fill="midnightblue" stroke="midnightblue" points="260.556,-189.096 249.975,-188.563 257.914,-195.579 260.556,-189.096"/>
</g>
<!-- Node18 -->
<g id="node18" class="node"><title>Node18</title>
<g id="a_node18"><a xlink:href="classmappel_1_1MCMCAdaptor1Ds.html" target="_top" xlink:title="mappel::MCMCAdaptor1Ds">
<polygon fill="white" stroke="black" points="328,-189.5 328,-207.5 457,-207.5 457,-189.5 328,-189.5"/>
<text text-anchor="middle" x="392.5" y="-196.3" font-family="Helvetica,sans-Serif" font-size="9.00">mappel::MCMCAdaptor1Ds</text>
</a>
</g>
</g>
<!-- Node17&#45;&gt;Node18 -->
<g id="edge23" class="edge"><title>Node17&#45;&gt;Node18</title>
<path fill="none" stroke="midnightblue" d="M300.08,-187.844C309.339,-188.923 318.772,-190.023 327.891,-191.085"/>
<polygon fill="midnightblue" stroke="midnightblue" points="300.461,-184.365 290.123,-186.683 299.651,-191.317 300.461,-184.365"/>
</g>
<!-- Node19 -->
<g id="node19" class="node"><title>Node19</title>
<g id="a_node19"><a xlink:href="classmappel_1_1MCMCAdaptor2D.html" target="_top" xlink:title="mappel::MCMCAdaptor2D">
<polygon fill="white" stroke="black" points="330,-152.5 330,-170.5 455,-170.5 455,-152.5 330,-152.5"/>
<text text-anchor="middle" x="392.5" y="-159.3" font-family="Helvetica,sans-Serif" font-size="9.00">mappel::MCMCAdaptor2D</text>
</a>
</g>
</g>
<!-- Node17&#45;&gt;Node19 -->
<g id="edge25" class="edge"><title>Node17&#45;&gt;Node19</title>
<path fill="none" stroke="midnightblue" d="M300.283,-171.573C310.121,-170.487 320.152,-169.379 329.79,-168.315"/>
<polygon fill="midnightblue" stroke="midnightblue" points="299.679,-168.118 290.123,-172.695 300.447,-175.076 299.679,-168.118"/>
</g>
<!-- Node18&#45;&gt;Node6 -->
<g id="edge24" class="edge"><title>Node18&#45;&gt;Node6</title>
<path fill="none" stroke="midnightblue" d="M467.697,-198.5C477.599,-198.5 487.647,-198.5 497.249,-198.5"/>
<polygon fill="midnightblue" stroke="midnightblue" points="467.454,-195 457.454,-198.5 467.454,-202 467.454,-195"/>
</g>
<!-- Node19&#45;&gt;Node9 -->
<g id="edge26" class="edge"><title>Node19&#45;&gt;Node9</title>
<path fill="none" stroke="midnightblue" d="M443.197,-150.219C466.787,-144.864 494.593,-138.552 516.755,-133.522"/>
<polygon fill="midnightblue" stroke="midnightblue" points="442.351,-146.822 433.374,-152.449 443.901,-153.648 442.351,-146.822"/>
</g>
<!-- Node20 -->
<g id="node20" class="node"><title>Node20</title>
<g id="a_node20"><a xlink:href="classmappel_1_1MCMCAdaptor2Ds.html" target="_top" xlink:title="mappel::MCMCAdaptor2Ds">
<polygon fill="white" stroke="black" points="493,-152.5 493,-170.5 622,-170.5 622,-152.5 493,-152.5"/>
<text text-anchor="middle" x="557.5" y="-159.3" font-family="Helvetica,sans-Serif" font-size="9.00">mappel::MCMCAdaptor2Ds</text>
</a>
</g>
</g>
<!-- Node19&#45;&gt;Node20 -->
<g id="edge27" class="edge"><title>Node19&#45;&gt;Node20</title>
<path fill="none" stroke="midnightblue" d="M465.375,-161.5C474.54,-161.5 483.869,-161.5 492.891,-161.5"/>
<polygon fill="midnightblue" stroke="midnightblue" points="465.123,-158 455.123,-161.5 465.123,-165 465.123,-158"/>
</g>
<!-- Node20&#45;&gt;Node12 -->
<g id="edge28" class="edge"><title>Node20&#45;&gt;Node12</title>
<path fill="none" stroke="midnightblue" d="M609.477,-150.349C631.32,-145.571 656.502,-140.062 677.158,-135.544"/>
<polygon fill="midnightblue" stroke="midnightblue" points="608.725,-146.93 599.704,-152.487 610.221,-153.769 608.725,-146.93"/>
</g>
<!-- Node21&#45;&gt;Node4 -->
<g id="edge30" class="edge"><title>Node21&#45;&gt;Node4</title>
<path fill="none" stroke="midnightblue" d="M576.879,-63.43C589.801,-74.8343 607.331,-90.723 622,-105.5 638.85,-122.474 637.781,-132.723 658,-145.5 663.744,-149.13 670.254,-152.057 676.822,-154.409"/>
<polygon fill="midnightblue" stroke="midnightblue" points="578.958,-60.5977 569.13,-56.64 574.345,-65.8626 578.958,-60.5977"/>
</g>
<!-- Node21&#45;&gt;Node8 -->
<g id="edge31" class="edge"><title>Node21&#45;&gt;Node8</title>
<path fill="none" stroke="midnightblue" d="M602.676,-59.0963C628.321,-65.8281 660.156,-74.1848 683.957,-80.4325"/>
<polygon fill="midnightblue" stroke="midnightblue" points="603.385,-55.6638 592.824,-56.5101 601.608,-62.4344 603.385,-55.6638"/>
</g>
<!-- Node21&#45;&gt;Node11 -->
<g id="edge32" class="edge"><title>Node21&#45;&gt;Node11</title>
<path fill="none" stroke="midnightblue" d="M619.324,-49.4008C634.317,-49.8693 650.265,-50.3677 664.889,-50.8246"/>
<polygon fill="midnightblue" stroke="midnightblue" points="619.229,-45.8962 609.125,-49.082 619.011,-52.8928 619.229,-45.8962"/>
</g>
<!-- Node21&#45;&gt;Node14 -->
<g id="edge33" class="edge"><title>Node21&#45;&gt;Node14</title>
<path fill="none" stroke="midnightblue" d="M602.638,-36.2501C648.193,-26.5869 720.887,-16.6435 781,-33.5 813.767,-42.6885 846.443,-67.1163 862.596,-80.4709"/>
<polygon fill="midnightblue" stroke="midnightblue" points="601.794,-32.852 592.784,-38.4261 603.304,-39.6873 601.794,-32.852"/>
</g>
</g>
</svg>
        <g id="navigator" transform="translate(0 0)" fill="#404254">
                <rect fill="#f2f5e9" fill-opacity="0.5" stroke="#606060" stroke-width=".5" x="0" y="0" width="60" height="60"/>
                <use id="zoomplus" xlink:href="#zoomPlus" x="17" y="9" onmousedown="handleZoom(evt,'in')"/>
                <use id="zoomminus" xlink:href="#zoomMin" x="42" y="9" onmousedown="handleZoom(evt,'out')"/>
                <use id="reset" xlink:href="#resetDef" x="30" y="36" onmousedown="handleReset()"/>
                <g id="arrowUp" xlink:href="#dirArrow" transform="translate(30 24)" onmousedown="handlePan(0,-1)">
                  <use xlink:href="#rim" fill="#404040">
                        <set attributeName="fill" to="#808080" begin="arrowUp.mouseover" end="arrowUp.mouseout"/>
                  </use>
                  <path fill="none" stroke="white" stroke-width="1.5" d="M0,-3.0v7 M-2.5,-0.5L0,-3.0L2.5,-0.5"/>
                </g>
                <g id="arrowRight" xlink:href="#dirArrow" transform="rotate(90) translate(36 -43)" onmousedown="handlePan(1,0)">
                  <use xlink:href="#rim" fill="#404040">
                        <set attributeName="fill" to="#808080" begin="arrowRight.mouseover" end="arrowRight.mouseout"/>
                  </use>
                  <path fill="none" stroke="white" stroke-width="1.5" d="M0,-3.0v7 M-2.5,-0.5L0,-3.0L2.5,-0.5"/>
                </g>
                <g id="arrowDown" xlink:href="#dirArrow" transform="rotate(180) translate(-30 -48)" onmousedown="handlePan(0,1)">
                  <use xlink:href="#rim" fill="#404040">
                        <set attributeName="fill" to="#808080" begin="arrowDown.mouseover" end="arrowDown.mouseout"/>
                  </use>
                  <path fill="none" stroke="white" stroke-width="1.5" d="M0,-3.0v7 M-2.5,-0.5L0,-3.0L2.5,-0.5"/>
                </g>
                <g id="arrowLeft" xlink:href="#dirArrow" transform="rotate(270) translate(-36 17)" onmousedown="handlePan(-1,0)">
                  <use xlink:href="#rim" fill="#404040">
                        <set attributeName="fill" to="#808080" begin="arrowLeft.mouseover" end="arrowLeft.mouseout"/>
                  </use>
                  <path fill="none" stroke="white" stroke-width="1.5" d="M0,-3.0v7 M-2.5,-0.5L0,-3.0L2.5,-0.5"/>
                </g>
        </g>
        <svg viewBox="0 0 15 15" width="100%" height="30px" preserveAspectRatio="xMaxYMin meet">
         <g id="arrow_out" transform="scale(0.3 0.3)">
          <a xlink:href="classmappel_1_1PointEmitterModel__inherit__graph_org.svg" target="_base">
           <rect id="button" ry="5" rx="5" y="6" x="6" height="38" width="38"
                fill="#f2f5e9" fill-opacity="0.5" stroke="#606060" stroke-width="1.0"/>
           <path id="arrow"
             d="M 11.500037,31.436501 C 11.940474,20.09759 22.043105,11.32322 32.158766,21.979434 L 37.068811,17.246167 C 37.068811,17.246167 37.088388,32 37.088388,32 L 22.160133,31.978069 C 22.160133,31.978069 26.997745,27.140456 26.997745,27.140456 C 18.528582,18.264221 13.291696,25.230495 11.500037,31.436501 z"
             style="fill:#404040;"/>
          </a>
         </g>
        </svg>
</svg>
