<?xml version="1.0" encoding="UTF-8" standalone="no"?>
<!DOCTYPE svg PUBLIC "-//W3C//DTD SVG 1.1//EN"
 "http://www.w3.org/Graphics/SVG/1.1/DTD/svg11.dtd">
<!-- Generated by graphviz version 2.38.0 (20140413.2041)
 -->
<!-- Title: mappel::PriorMAP1DObjective::prior_relative_log_likelihood Pages: 1 -->
<svg width="503pt" height="59pt"
 viewBox="0.00 0.00 503.00 59.00" xmlns="http://www.w3.org/2000/svg" xmlns:xlink="http://www.w3.org/1999/xlink">
<g id="graph0" class="graph" transform="scale(1 1) rotate(0) translate(4 55)">
<title>mappel::PriorMAP1DObjective::prior_relative_log_likelihood</title>
<polygon fill="white" stroke="none" points="-4,4 -4,-55 499,-55 499,4 -4,4"/>
<!-- Node1 -->
<g id="node1" class="node"><title>Node1</title>
<polygon fill="#bfbfbf" stroke="black" points="0,-0.5 0,-28.5 141,-28.5 141,-0.5 0,-0.5"/>
<text text-anchor="start" x="8" y="-17.3" font-family="Helvetica,sans-Serif" font-size="9.00">mappel::PriorMAP1DObjective</text>
<text text-anchor="middle" x="70.5" y="-7.3" font-family="Helvetica,sans-Serif" font-size="9.00">::prior_relative_log_likelihood</text>
</g>
<!-- Node2 -->
<g id="node2" class="node"><title>Node2</title>
<g id="a_node2"><a xlink:href="classmappel_1_1PriorMAP1DObjective.html#a3cb80b4c435d260e1a62ba666fbbb787" target="_top" xlink:title="mappel::PriorMAP1DObjective\l::prior_log_likelihood">
<polygon fill="white" stroke="black" points="177,-22.5 177,-50.5 318,-50.5 318,-22.5 177,-22.5"/>
<text text-anchor="start" x="185" y="-39.3" font-family="Helvetica,sans-Serif" font-size="9.00">mappel::PriorMAP1DObjective</text>
<text text-anchor="middle" x="247.5" y="-29.3" font-family="Helvetica,sans-Serif" font-size="9.00">::prior_log_likelihood</text>
</a>
</g>
</g>
<!-- Node1&#45;&gt;Node2 -->
<g id="edge1" class="edge"><title>Node1&#45;&gt;Node2</title>
<path fill="none" stroke="midnightblue" d="M151.146,-24.5126C159.702,-25.5882 168.359,-26.6766 176.786,-27.736"/>
<polygon fill="midnightblue" stroke="midnightblue" points="151.526,-21.0329 141.167,-23.2582 150.653,-27.9783 151.526,-21.0329"/>
</g>
<!-- Node3 -->
<g id="node3" class="node"><title>Node3</title>
<g id="a_node3"><a xlink:href="classmappel_1_1PriorMAP1DObjective.html#ac5b20bb93fe2f2eddd75d19bf34283c7" target="_top" xlink:title="mappel::PriorMAP1DObjective\l::set_hyperparameters">
<polygon fill="white" stroke="black" points="354,-0.5 354,-28.5 495,-28.5 495,-0.5 354,-0.5"/>
<text text-anchor="start" x="362" y="-17.3" font-family="Helvetica,sans-Serif" font-size="9.00">mappel::PriorMAP1DObjective</text>
<text text-anchor="middle" x="424.5" y="-7.3" font-family="Helvetica,sans-Serif" font-size="9.00">::set_hyperparameters</text>
</a>
</g>
</g>
<!-- Node1&#45;&gt;Node3 -->
<g id="edge3" class="edge"><title>Node1&#45;&gt;Node3</title>
<path fill="none" stroke="midnightblue" d="M151.202,-13.6643C159.908,-13.5969 168.64,-13.5396 177,-13.5 239.666,-13.203 255.334,-13.203 318,-13.5 329.631,-13.5551 341.983,-13.6444 353.983,-13.7476"/>
<polygon fill="midnightblue" stroke="midnightblue" points="150.988,-10.1658 141.017,-13.7476 151.045,-17.1656 150.988,-10.1658"/>
</g>
<!-- Node2&#45;&gt;Node3 -->
<g id="edge2" class="edge"><title>Node2&#45;&gt;Node3</title>
<path fill="none" stroke="midnightblue" d="M328.146,-26.4874C336.702,-25.4118 345.359,-24.3234 353.786,-23.264"/>
<polygon fill="midnightblue" stroke="midnightblue" points="327.653,-23.0217 318.167,-27.7418 328.526,-29.9671 327.653,-23.0217"/>
</g>
</g>
</svg>
