<?xml version="1.0" encoding="UTF-8" standalone="no"?>
<!DOCTYPE svg PUBLIC "-//W3C//DTD SVG 1.1//EN"
 "http://www.w3.org/Graphics/SVG/1.1/DTD/svg11.dtd">
<!-- Generated by graphviz version 2.38.0 (20140413.2041)
 -->
<!-- Title: mappel::PriorMAP1DObjective::prior_grad2_update Pages: 1 -->
<svg width="326pt" height="37pt"
 viewBox="0.00 0.00 326.00 37.00" xmlns="http://www.w3.org/2000/svg" xmlns:xlink="http://www.w3.org/1999/xlink">
<g id="graph0" class="graph" transform="scale(1 1) rotate(0) translate(4 33)">
<title>mappel::PriorMAP1DObjective::prior_grad2_update</title>
<polygon fill="white" stroke="none" points="-4,4 -4,-33 322,-33 322,4 -4,4"/>
<!-- Node1 -->
<g id="node1" class="node"><title>Node1</title>
<polygon fill="#bfbfbf" stroke="black" points="0,-0.5 0,-28.5 141,-28.5 141,-0.5 0,-0.5"/>
<text text-anchor="start" x="8" y="-17.3" font-family="Helvetica,sans-Serif" font-size="9.00">mappel::PriorMAP1DObjective</text>
<text text-anchor="middle" x="70.5" y="-7.3" font-family="Helvetica,sans-Serif" font-size="9.00">::prior_grad2_update</text>
</g>
<!-- Node2 -->
<g id="node2" class="node"><title>Node2</title>
<g id="a_node2"><a xlink:href="classmappel_1_1PriorMAP1DObjective.html#ac5b20bb93fe2f2eddd75d19bf34283c7" target="_top" xlink:title="mappel::PriorMAP1DObjective\l::set_hyperparameters">
<polygon fill="white" stroke="black" points="177,-0.5 177,-28.5 318,-28.5 318,-0.5 177,-0.5"/>
<text text-anchor="start" x="185" y="-17.3" font-family="Helvetica,sans-Serif" font-size="9.00">mappel::PriorMAP1DObjective</text>
<text text-anchor="middle" x="247.5" y="-7.3" font-family="Helvetica,sans-Serif" font-size="9.00">::set_hyperparameters</text>
</a>
</g>
</g>
<!-- Node1&#45;&gt;Node2 -->
<g id="edge1" class="edge"><title>Node1&#45;&gt;Node2</title>
<path fill="none" stroke="midnightblue" d="M151.425,-14.5C159.89,-14.5 168.451,-14.5 176.786,-14.5"/>
<polygon fill="midnightblue" stroke="midnightblue" points="151.168,-11.0001 141.167,-14.5 151.167,-18.0001 151.168,-11.0001"/>
</g>
</g>
</svg>
