<?xml version="1.0" encoding="UTF-8" standalone="no"?>
<!DOCTYPE svg PUBLIC "-//W3C//DTD SVG 1.1//EN"
 "http://www.w3.org/Graphics/SVG/1.1/DTD/svg11.dtd">
<!-- Generated by graphviz version 2.38.0 (20140413.2041)
 -->
<!-- Title: mappel::ImageFormat2DBase Pages: 1 -->
<svg width="492pt" height="156pt"
 viewBox="0.00 0.00 492.00 156.00" xmlns="http://www.w3.org/2000/svg" xmlns:xlink="http://www.w3.org/1999/xlink">
<g id="graph0" class="graph" transform="scale(1 1) rotate(0) translate(4 152)">
<title>mappel::ImageFormat2DBase</title>
<polygon fill="white" stroke="none" points="-4,4 -4,-152 488,-152 488,4 -4,4"/>
<!-- Node1 -->
<g id="node1" class="node"><title>Node1</title>
<polygon fill="#bfbfbf" stroke="black" points="0,-55.5 0,-73.5 139,-73.5 139,-55.5 0,-55.5"/>
<text text-anchor="middle" x="69.5" y="-62.3" font-family="Helvetica,sans-Serif" font-size="9.00">mappel::ImageFormat2DBase</text>
</g>
<!-- Node2 -->
<g id="node2" class="node"><title>Node2</title>
<g id="a_node2"><a xlink:href="classmappel_1_1Gauss2DModel.html" target="_top" xlink:title="A base class for 2D Gaussian PSF with fixed but possibly asymmetric sigma. ">
<polygon fill="white" stroke="black" points="196.5,-111.5 196.5,-129.5 312.5,-129.5 312.5,-111.5 196.5,-111.5"/>
<text text-anchor="middle" x="254.5" y="-118.3" font-family="Helvetica,sans-Serif" font-size="9.00">mappel::Gauss2DModel</text>
</a>
</g>
</g>
<!-- Node1&#45;&gt;Node2 -->
<g id="edge1" class="edge"><title>Node1&#45;&gt;Node2</title>
<path fill="none" stroke="midnightblue" d="M102.543,-77.3161C123.048,-85.2267 150.338,-95.2187 175,-102.5 186.13,-105.786 198.295,-108.834 209.653,-111.452"/>
<polygon fill="midnightblue" stroke="midnightblue" points="103.651,-73.9916 93.0622,-73.621 101.108,-80.5137 103.651,-73.9916"/>
</g>
<!-- Node5 -->
<g id="node5" class="node"><title>Node5</title>
<g id="a_node5"><a xlink:href="classmappel_1_1Gauss2DsModel.html" target="_top" xlink:title="A base class for 2D Gaussian PSF where the gaussian sigma is controlled by a single scalar parameter ...">
<polygon fill="white" stroke="black" points="194.5,-37.5 194.5,-55.5 314.5,-55.5 314.5,-37.5 194.5,-37.5"/>
<text text-anchor="middle" x="254.5" y="-44.3" font-family="Helvetica,sans-Serif" font-size="9.00">mappel::Gauss2DsModel</text>
</a>
</g>
</g>
<!-- Node1&#45;&gt;Node5 -->
<g id="edge4" class="edge"><title>Node1&#45;&gt;Node5</title>
<path fill="none" stroke="midnightblue" d="M149.489,-56.7305C164.541,-55.2501 180.053,-53.7243 194.355,-52.3176"/>
<polygon fill="midnightblue" stroke="midnightblue" points="148.772,-53.2841 139.163,-57.7463 149.458,-60.2505 148.772,-53.2841"/>
</g>
<!-- Node8 -->
<g id="node8" class="node"><title>Node8</title>
<g id="a_node8"><a xlink:href="classmappel_1_1Gauss2DsxyModel.html" target="_top" xlink:title="A base class for 2D Gaussian PSF with axis&#45;aligned gaussian with free parameters for both sigma_x and...">
<polygon fill="white" stroke="black" points="190,-0.5 190,-18.5 319,-18.5 319,-0.5 190,-0.5"/>
<text text-anchor="middle" x="254.5" y="-7.3" font-family="Helvetica,sans-Serif" font-size="9.00">mappel::Gauss2DsxyModel</text>
</a>
</g>
</g>
<!-- Node1&#45;&gt;Node8 -->
<g id="edge7" class="edge"><title>Node1&#45;&gt;Node8</title>
<path fill="none" stroke="midnightblue" d="M104.236,-51.9726C124.58,-44.6454 151.101,-35.4918 175,-28.5 187.247,-24.9171 200.706,-21.4806 212.968,-18.5392"/>
<polygon fill="midnightblue" stroke="midnightblue" points="102.988,-48.702 94.7836,-55.4054 105.378,-55.2816 102.988,-48.702"/>
</g>
<!-- Node9 -->
<g id="node9" class="node"><title>Node9</title>
<g id="a_node9"><a xlink:href="classmappel_1_1PoissonNoise2DObjective.html" target="_top" xlink:title="A base class for 2D objectives with Poisson read noise. This objective function and its subclasses ar...">
<polygon fill="white" stroke="black" points="175,-74.5 175,-92.5 334,-92.5 334,-74.5 175,-74.5"/>
<text text-anchor="middle" x="254.5" y="-81.3" font-family="Helvetica,sans-Serif" font-size="9.00">mappel::PoissonNoise2DObjective</text>
</a>
</g>
</g>
<!-- Node1&#45;&gt;Node9 -->
<g id="edge8" class="edge"><title>Node1&#45;&gt;Node9</title>
<path fill="none" stroke="midnightblue" d="M149.111,-72.6618C157.661,-73.5495 166.364,-74.4531 174.914,-75.3408"/>
<polygon fill="midnightblue" stroke="midnightblue" points="149.471,-69.1805 139.163,-71.629 148.748,-76.143 149.471,-69.1805"/>
</g>
<!-- Node3 -->
<g id="node3" class="node"><title>Node3</title>
<g id="a_node3"><a xlink:href="classmappel_1_1Gauss2DMAP.html" target="_top" xlink:title="A 2D Gaussian with fixed PSF under an Poisson Read Noise assumption and MAP Objective. ">
<polygon fill="white" stroke="black" points="372,-129.5 372,-147.5 482,-147.5 482,-129.5 372,-129.5"/>
<text text-anchor="middle" x="427" y="-136.3" font-family="Helvetica,sans-Serif" font-size="9.00">mappel::Gauss2DMAP</text>
</a>
</g>
</g>
<!-- Node2&#45;&gt;Node3 -->
<g id="edge2" class="edge"><title>Node2&#45;&gt;Node3</title>
<path fill="none" stroke="midnightblue" d="M322.739,-127.599C339.011,-129.316 356.2,-131.131 371.786,-132.777"/>
<polygon fill="midnightblue" stroke="midnightblue" points="323.061,-124.113 312.748,-126.544 322.326,-131.074 323.061,-124.113"/>
</g>
<!-- Node4 -->
<g id="node4" class="node"><title>Node4</title>
<g id="a_node4"><a xlink:href="classmappel_1_1Gauss2DMLE.html" target="_top" xlink:title="A 2D Gaussian with fixed PSF under an Poisson noise assumption and maximum&#45;likelihood objective...">
<polygon fill="white" stroke="black" points="372.5,-92.5 372.5,-110.5 481.5,-110.5 481.5,-92.5 372.5,-92.5"/>
<text text-anchor="middle" x="427" y="-99.3" font-family="Helvetica,sans-Serif" font-size="9.00">mappel::Gauss2DMLE</text>
</a>
</g>
</g>
<!-- Node2&#45;&gt;Node4 -->
<g id="edge3" class="edge"><title>Node2&#45;&gt;Node4</title>
<path fill="none" stroke="midnightblue" d="M322.842,-112.996C339.283,-111.164 356.654,-109.228 372.359,-107.478"/>
<polygon fill="midnightblue" stroke="midnightblue" points="322.299,-109.534 312.748,-114.12 323.074,-116.491 322.299,-109.534"/>
</g>
<!-- Node6 -->
<g id="node6" class="node"><title>Node6</title>
<g id="a_node6"><a xlink:href="classmappel_1_1Gauss2DsMAP.html" target="_top" xlink:title="A 2D Gaussian with a variable scalar PSF sigma under a Poisson noise assumption using a maximum a&#45;pos...">
<polygon fill="white" stroke="black" points="370,-55.5 370,-73.5 484,-73.5 484,-55.5 370,-55.5"/>
<text text-anchor="middle" x="427" y="-62.3" font-family="Helvetica,sans-Serif" font-size="9.00">mappel::Gauss2DsMAP</text>
</a>
</g>
</g>
<!-- Node5&#45;&gt;Node6 -->
<g id="edge5" class="edge"><title>Node5&#45;&gt;Node6</title>
<path fill="none" stroke="midnightblue" d="M324.872,-53.8238C339.822,-55.402 355.447,-57.0516 369.819,-58.5689"/>
<polygon fill="midnightblue" stroke="midnightblue" points="324.966,-50.3143 314.654,-52.745 324.231,-57.2756 324.966,-50.3143"/>
</g>
<!-- Node7 -->
<g id="node7" class="node"><title>Node7</title>
<g id="a_node7"><a xlink:href="classmappel_1_1Gauss2DsMLE.html" target="_top" xlink:title="A 2D Gaussian with a variable scalar PSF sigma under a Poisson noise assumption using a maximum&#45;likel...">
<polygon fill="white" stroke="black" points="370.5,-18.5 370.5,-36.5 483.5,-36.5 483.5,-18.5 370.5,-18.5"/>
<text text-anchor="middle" x="427" y="-25.3" font-family="Helvetica,sans-Serif" font-size="9.00">mappel::Gauss2DsMLE</text>
</a>
</g>
</g>
<!-- Node5&#45;&gt;Node7 -->
<g id="edge6" class="edge"><title>Node5&#45;&gt;Node7</title>
<path fill="none" stroke="midnightblue" d="M324.984,-38.757C340.097,-37.0727 355.896,-35.3122 370.389,-33.6971"/>
<polygon fill="midnightblue" stroke="midnightblue" points="324.205,-35.322 314.654,-39.908 324.98,-42.2789 324.205,-35.322"/>
</g>
<!-- Node9&#45;&gt;Node3 -->
<g id="edge9" class="edge"><title>Node9&#45;&gt;Node3</title>
<path fill="none" stroke="midnightblue" d="M310.204,-95.0509C318.272,-97.2401 326.416,-99.727 334,-102.5 350.801,-108.643 353.437,-113.743 370,-120.5 377.943,-123.74 386.702,-126.792 394.888,-129.43"/>
<polygon fill="midnightblue" stroke="midnightblue" points="311,-91.6417 300.442,-92.5291 309.249,-98.4192 311,-91.6417"/>
</g>
<!-- Node9&#45;&gt;Node4 -->
<g id="edge10" class="edge"><title>Node9&#45;&gt;Node4</title>
<path fill="none" stroke="midnightblue" d="M344.269,-92.8715C353.871,-93.8852 363.413,-94.8926 372.407,-95.8421"/>
<polygon fill="midnightblue" stroke="midnightblue" points="344.574,-89.3844 334.262,-91.815 343.839,-96.3457 344.574,-89.3844"/>
</g>
<!-- Node9&#45;&gt;Node6 -->
<g id="edge11" class="edge"><title>Node9&#45;&gt;Node6</title>
<path fill="none" stroke="midnightblue" d="M344.441,-73.5887C353.111,-72.6225 361.73,-71.6621 369.938,-70.7474"/>
<polygon fill="midnightblue" stroke="midnightblue" points="343.813,-70.1369 334.262,-74.723 344.588,-77.0939 343.813,-70.1369"/>
</g>
<!-- Node9&#45;&gt;Node7 -->
<g id="edge12" class="edge"><title>Node9&#45;&gt;Node7</title>
<path fill="none" stroke="midnightblue" d="M314.137,-71.8311C320.912,-69.9616 327.659,-67.8543 334,-65.5 350.96,-59.2028 353.382,-53.6511 370,-46.5 378.393,-42.8883 387.719,-39.4915 396.314,-36.5966"/>
<polygon fill="midnightblue" stroke="midnightblue" points="313.038,-68.5006 304.238,-74.4012 314.797,-75.276 313.038,-68.5006"/>
</g>
</g>
</svg>
