<?xml version="1.0" encoding="UTF-8" standalone="no"?>
<!DOCTYPE svg PUBLIC "-//W3C//DTD SVG 1.1//EN"
 "http://www.w3.org/Graphics/SVG/1.1/DTD/svg11.dtd">
<!-- Generated by graphviz version 2.38.0 (20140413.2041)
 -->
<!-- Title: mappel::CGaussMLE::CGaussMLE Pages: 1 -->
<svg width="247pt" height="84pt"
 viewBox="0.00 0.00 247.00 84.00" xmlns="http://www.w3.org/2000/svg" xmlns:xlink="http://www.w3.org/1999/xlink">
<g id="graph0" class="graph" transform="scale(1 1) rotate(0) translate(4 80)">
<title>mappel::CGaussMLE::CGaussMLE</title>
<polygon fill="white" stroke="none" points="-4,4 -4,-80 243,-80 243,4 -4,4"/>
<!-- Node1 -->
<g id="node1" class="node"><title>Node1</title>
<polygon fill="#bfbfbf" stroke="black" points="0,-23.5 0,-51.5 108,-51.5 108,-23.5 0,-23.5"/>
<text text-anchor="start" x="8" y="-40.3" font-family="Helvetica,sans-Serif" font-size="9.00">mappel::CGaussMLE::</text>
<text text-anchor="middle" x="54" y="-30.3" font-family="Helvetica,sans-Serif" font-size="9.00">CGaussMLE</text>
</g>
<!-- Node2 -->
<g id="node2" class="node"><title>Node2</title>
<g id="a_node2"><a xlink:href="classmappel_1_1Estimator.html#a64b26c846a0e995fe16cd56cbead9f99" target="_top" xlink:title="mappel::Estimator::\lget_debug_stats">
<polygon fill="white" stroke="black" points="144,-47.5 144,-75.5 239,-75.5 239,-47.5 144,-47.5"/>
<text text-anchor="start" x="152" y="-64.3" font-family="Helvetica,sans-Serif" font-size="9.00">mappel::Estimator::</text>
<text text-anchor="middle" x="191.5" y="-54.3" font-family="Helvetica,sans-Serif" font-size="9.00">get_debug_stats</text>
</a>
</g>
</g>
<!-- Node1&#45;&gt;Node2 -->
<g id="edge1" class="edge"><title>Node1&#45;&gt;Node2</title>
<path fill="none" stroke="midnightblue" d="M108.164,-46.9166C116.493,-48.3917 125.13,-49.9215 133.539,-51.411"/>
<polygon fill="midnightblue" stroke="midnightblue" points="133.191,-54.9036 143.648,-53.2014 134.411,-48.0109 133.191,-54.9036"/>
</g>
<!-- Node3 -->
<g id="node3" class="node"><title>Node3</title>
<g id="a_node3"><a xlink:href="classmappel_1_1Estimator.html#a876af9a1a1a6bf174c63716f3348d735" target="_top" xlink:title="mappel::Estimator::\lget_stats">
<polygon fill="white" stroke="black" points="144,-0.5 144,-28.5 239,-28.5 239,-0.5 144,-0.5"/>
<text text-anchor="start" x="152" y="-17.3" font-family="Helvetica,sans-Serif" font-size="9.00">mappel::Estimator::</text>
<text text-anchor="middle" x="191.5" y="-7.3" font-family="Helvetica,sans-Serif" font-size="9.00">get_stats</text>
</a>
</g>
</g>
<!-- Node1&#45;&gt;Node3 -->
<g id="edge2" class="edge"><title>Node1&#45;&gt;Node3</title>
<path fill="none" stroke="midnightblue" d="M108.164,-28.4758C116.493,-27.0621 125.13,-25.5961 133.539,-24.1687"/>
<polygon fill="midnightblue" stroke="midnightblue" points="134.374,-27.577 143.648,-22.4528 133.203,-20.6757 134.374,-27.577"/>
</g>
</g>
</svg>
