<?xml version="1.0" encoding="UTF-8" standalone="no"?>
<!DOCTYPE svg PUBLIC "-//W3C//DTD SVG 1.1//EN"
 "http://www.w3.org/Graphics/SVG/1.1/DTD/svg11.dtd">
<!-- Generated by graphviz version 2.38.0 (20140413.2041)
 -->
<!-- Title: mappel::IterativeMaximizer::compute_profile_estimate Pages: 1 -->
<!--zoomable 235 -->
<svg id="main" version="1.1" xmlns="http://www.w3.org/2000/svg" xmlns:xlink="http://www.w3.org/1999/xlink" xml:space="preserve" onload="init(evt)">
<style type="text/css"><![CDATA[
.edge:hover path { stroke: red; }
.edge:hover polygon { stroke: red; fill: red; }
]]></style>
<script type="text/javascript"><![CDATA[
var edges = document.getElementsByTagName('g');
if (edges && edges.length) {
  for (var i=0;i<edges.length;i++) {
    if (edges[i].id.substr(0,4)=='edge') {
      edges[i].setAttribute('class','edge');
    }
  }
}
]]></script>
        <defs>
                <circle id="rim" cx="0" cy="0" r="7"/>
                <circle id="rim2" cx="0" cy="0" r="3.5"/>
                <g id="zoomPlus">
                        <use xlink:href="#rim" fill="#404040">
                                <set attributeName="fill" to="#808080" begin="zoomplus.mouseover" end="zoomplus.mouseout"/>
                        </use>
                        <path d="M-4,0h8M0,-4v8" fill="none" stroke="white" stroke-width="1.5" pointer-events="none"/>
                </g>
                <g id="zoomMin">
                        <use xlink:href="#rim" fill="#404040">
                                <set attributeName="fill" to="#808080" begin="zoomminus.mouseover" end="zoomminus.mouseout"/>
                        </use>
                        <path d="M-4,0h8" fill="none" stroke="white" stroke-width="1.5" pointer-events="none"/>
                </g>
                <g id="dirArrow">
                        <path fill="none" stroke="white" stroke-width="1.5" d="M0,-3.0v7 M-2.5,-0.5L0,-3.0L2.5,-0.5"/>
                </g>
               <g id="resetDef">
                       <use xlink:href="#rim2" fill="#404040">
                               <set attributeName="fill" to="#808080" begin="reset.mouseover" end="reset.mouseout"/>
                       </use>
               </g>
        </defs>

<script type="text/javascript">
var viewWidth = 506;
var viewHeight = 235;
var sectionId = 'dynsection-8';
</script>
<script xlink:href="svgpan.js"/>
<svg id="graph" class="graph">
<g id="viewport">
<title>mappel::IterativeMaximizer::compute_profile_estimate</title>
<polygon fill="white" stroke="none" points="-4,4 -4,-231 502,-231 502,4 -4,4"/>
<!-- Node1 -->
<g id="node1" class="node"><title>Node1</title>
<polygon fill="#bfbfbf" stroke="black" points="0,-104.5 0,-132.5 127,-132.5 127,-104.5 0,-104.5"/>
<text text-anchor="start" x="8" y="-121.3" font-family="Helvetica,sans-Serif" font-size="9.00">mappel::IterativeMaximizer</text>
<text text-anchor="middle" x="63.5" y="-111.3" font-family="Helvetica,sans-Serif" font-size="9.00">::compute_profile_estimate</text>
</g>
<!-- Node2 -->
<g id="node2" class="node"><title>Node2</title>
<g id="a_node2"><a xlink:href="classmappel_1_1IterativeMaximizer.html#a4d05ed89de53e6e73f2f13bef30862ec" target="_top" xlink:title="mappel::IterativeMaximizer\l::maximize">
<polygon fill="white" stroke="black" points="166.5,-198.5 166.5,-226.5 292.5,-226.5 292.5,-198.5 166.5,-198.5"/>
<text text-anchor="start" x="174.5" y="-215.3" font-family="Helvetica,sans-Serif" font-size="9.00">mappel::IterativeMaximizer</text>
<text text-anchor="middle" x="229.5" y="-205.3" font-family="Helvetica,sans-Serif" font-size="9.00">::maximize</text>
</a>
</g>
</g>
<!-- Node1&#45;&gt;Node2 -->
<g id="edge1" class="edge"><title>Node1&#45;&gt;Node2</title>
<path fill="none" stroke="midnightblue" d="M80.9606,-132.651C99.7723,-148.26 131.98,-173.306 163,-189.5 166.447,-191.3 170.066,-193.011 173.758,-194.628"/>
<polygon fill="midnightblue" stroke="midnightblue" points="172.453,-197.875 183.032,-198.448 175.119,-191.403 172.453,-197.875"/>
</g>
<!-- Node3 -->
<g id="node3" class="node"><title>Node3</title>
<g id="a_node3"><a xlink:href="classmappel_1_1IterativeMaximizer_1_1MaximizerData.html#af2e61c659a8cc78365bd801026c2f6a9" target="_top" xlink:title="mappel::IterativeMaximizer\l::MaximizerData::record_exit">
<polygon fill="white" stroke="black" points="163,-151.5 163,-179.5 296,-179.5 296,-151.5 163,-151.5"/>
<text text-anchor="start" x="171" y="-168.3" font-family="Helvetica,sans-Serif" font-size="9.00">mappel::IterativeMaximizer</text>
<text text-anchor="middle" x="229.5" y="-158.3" font-family="Helvetica,sans-Serif" font-size="9.00">::MaximizerData::record_exit</text>
</a>
</g>
</g>
<!-- Node1&#45;&gt;Node3 -->
<g id="edge2" class="edge"><title>Node1&#45;&gt;Node3</title>
<path fill="none" stroke="midnightblue" d="M113.705,-132.602C131.38,-137.667 151.489,-143.43 169.884,-148.702"/>
<polygon fill="midnightblue" stroke="midnightblue" points="169.035,-152.099 179.612,-151.489 170.963,-145.37 169.035,-152.099"/>
</g>
<!-- Node4 -->
<g id="node4" class="node"><title>Node4</title>
<g id="a_node4"><a xlink:href="classmappel_1_1IterativeMaximizer.html#af5614c292f139b5032b733a8d6fdf73e" target="_top" xlink:title="mappel::IterativeMaximizer\l::record_run_statistics">
<polygon fill="white" stroke="black" points="166.5,-104.5 166.5,-132.5 292.5,-132.5 292.5,-104.5 166.5,-104.5"/>
<text text-anchor="start" x="174.5" y="-121.3" font-family="Helvetica,sans-Serif" font-size="9.00">mappel::IterativeMaximizer</text>
<text text-anchor="middle" x="229.5" y="-111.3" font-family="Helvetica,sans-Serif" font-size="9.00">::record_run_statistics</text>
</a>
</g>
</g>
<!-- Node1&#45;&gt;Node4 -->
<g id="edge3" class="edge"><title>Node1&#45;&gt;Node4</title>
<path fill="none" stroke="midnightblue" d="M127.438,-118.5C136.791,-118.5 146.495,-118.5 156.024,-118.5"/>
<polygon fill="midnightblue" stroke="midnightblue" points="156.272,-122 166.272,-118.5 156.272,-115 156.272,-122"/>
</g>
<!-- Node6 -->
<g id="node6" class="node"><title>Node6</title>
<g id="a_node6"><a xlink:href="classmappel_1_1IterativeMaximizer_1_1MaximizerData.html#aeff700342cb52da0b5b0d8edb3dac020" target="_top" xlink:title="mappel::IterativeMaximizer\l::MaximizerData::set_fixed\l_parameters">
<polygon fill="white" stroke="black" points="166.5,-47.5 166.5,-85.5 292.5,-85.5 292.5,-47.5 166.5,-47.5"/>
<text text-anchor="start" x="174.5" y="-74.3" font-family="Helvetica,sans-Serif" font-size="9.00">mappel::IterativeMaximizer</text>
<text text-anchor="start" x="174.5" y="-64.3" font-family="Helvetica,sans-Serif" font-size="9.00">::MaximizerData::set_fixed</text>
<text text-anchor="middle" x="229.5" y="-54.3" font-family="Helvetica,sans-Serif" font-size="9.00">_parameters</text>
</a>
</g>
</g>
<!-- Node1&#45;&gt;Node6 -->
<g id="edge5" class="edge"><title>Node1&#45;&gt;Node6</title>
<path fill="none" stroke="midnightblue" d="M108.881,-104.428C124.185,-99.5754 141.722,-94.0149 158.565,-88.6746"/>
<polygon fill="midnightblue" stroke="midnightblue" points="159.905,-91.9215 168.379,-85.5627 157.789,-85.2489 159.905,-91.9215"/>
</g>
<!-- Node7 -->
<g id="node7" class="node"><title>Node7</title>
<g id="a_node7"><a xlink:href="classmappel_1_1IterativeMaximizer_1_1MaximizerData.html#ac6ed5231a1ac2f4bfdd51a2800212fea" target="_top" xlink:title="Get the current stencil&#39;s theta. ">
<polygon fill="white" stroke="black" points="166.5,-0.5 166.5,-28.5 292.5,-28.5 292.5,-0.5 166.5,-0.5"/>
<text text-anchor="start" x="174.5" y="-17.3" font-family="Helvetica,sans-Serif" font-size="9.00">mappel::IterativeMaximizer</text>
<text text-anchor="middle" x="229.5" y="-7.3" font-family="Helvetica,sans-Serif" font-size="9.00">::MaximizerData::theta</text>
</a>
</g>
</g>
<!-- Node1&#45;&gt;Node7 -->
<g id="edge6" class="edge"><title>Node1&#45;&gt;Node7</title>
<path fill="none" stroke="midnightblue" d="M78.7142,-104.359C96.9147,-86.8972 130.054,-57.2183 163,-38.5 166.672,-36.4136 170.56,-34.4502 174.535,-32.615"/>
<polygon fill="midnightblue" stroke="midnightblue" points="176.118,-35.7442 183.912,-28.5683 173.344,-29.3172 176.118,-35.7442"/>
</g>
<!-- Node5 -->
<g id="node5" class="node"><title>Node5</title>
<g id="a_node5"><a xlink:href="classmappel_1_1IterativeMaximizer_1_1MaximizerData.html#ac9d06c390f911f733c3912dbdcbae954" target="_top" xlink:title="mappel::IterativeMaximizer\l::MaximizerData::get_backtrack_idxs">
<polygon fill="white" stroke="black" points="332,-104.5 332,-132.5 498,-132.5 498,-104.5 332,-104.5"/>
<text text-anchor="start" x="340" y="-121.3" font-family="Helvetica,sans-Serif" font-size="9.00">mappel::IterativeMaximizer</text>
<text text-anchor="middle" x="415" y="-111.3" font-family="Helvetica,sans-Serif" font-size="9.00">::MaximizerData::get_backtrack_idxs</text>
</a>
</g>
</g>
<!-- Node4&#45;&gt;Node5 -->
<g id="edge4" class="edge"><title>Node4&#45;&gt;Node5</title>
<path fill="none" stroke="midnightblue" d="M292.625,-118.5C301.962,-118.5 311.758,-118.5 321.564,-118.5"/>
<polygon fill="midnightblue" stroke="midnightblue" points="321.769,-122 331.769,-118.5 321.769,-115 321.769,-122"/>
</g>
</g>
</svg>
        <g id="navigator" transform="translate(0 0)" fill="#404254">
                <rect fill="#f2f5e9" fill-opacity="0.5" stroke="#606060" stroke-width=".5" x="0" y="0" width="60" height="60"/>
                <use id="zoomplus" xlink:href="#zoomPlus" x="17" y="9" onmousedown="handleZoom(evt,'in')"/>
                <use id="zoomminus" xlink:href="#zoomMin" x="42" y="9" onmousedown="handleZoom(evt,'out')"/>
                <use id="reset" xlink:href="#resetDef" x="30" y="36" onmousedown="handleReset()"/>
                <g id="arrowUp" xlink:href="#dirArrow" transform="translate(30 24)" onmousedown="handlePan(0,-1)">
                  <use xlink:href="#rim" fill="#404040">
                        <set attributeName="fill" to="#808080" begin="arrowUp.mouseover" end="arrowUp.mouseout"/>
                  </use>
                  <path fill="none" stroke="white" stroke-width="1.5" d="M0,-3.0v7 M-2.5,-0.5L0,-3.0L2.5,-0.5"/>
                </g>
                <g id="arrowRight" xlink:href="#dirArrow" transform="rotate(90) translate(36 -43)" onmousedown="handlePan(1,0)">
                  <use xlink:href="#rim" fill="#404040">
                        <set attributeName="fill" to="#808080" begin="arrowRight.mouseover" end="arrowRight.mouseout"/>
                  </use>
                  <path fill="none" stroke="white" stroke-width="1.5" d="M0,-3.0v7 M-2.5,-0.5L0,-3.0L2.5,-0.5"/>
                </g>
                <g id="arrowDown" xlink:href="#dirArrow" transform="rotate(180) translate(-30 -48)" onmousedown="handlePan(0,1)">
                  <use xlink:href="#rim" fill="#404040">
                        <set attributeName="fill" to="#808080" begin="arrowDown.mouseover" end="arrowDown.mouseout"/>
                  </use>
                  <path fill="none" stroke="white" stroke-width="1.5" d="M0,-3.0v7 M-2.5,-0.5L0,-3.0L2.5,-0.5"/>
                </g>
                <g id="arrowLeft" xlink:href="#dirArrow" transform="rotate(270) translate(-36 17)" onmousedown="handlePan(-1,0)">
                  <use xlink:href="#rim" fill="#404040">
                        <set attributeName="fill" to="#808080" begin="arrowLeft.mouseover" end="arrowLeft.mouseout"/>
                  </use>
                  <path fill="none" stroke="white" stroke-width="1.5" d="M0,-3.0v7 M-2.5,-0.5L0,-3.0L2.5,-0.5"/>
                </g>
        </g>
        <svg viewBox="0 0 15 15" width="100%" height="30px" preserveAspectRatio="xMaxYMin meet">
         <g id="arrow_out" transform="scale(0.3 0.3)">
          <a xlink:href="classmappel_1_1IterativeMaximizer_a1999fd1fa63c803b3aad87695fc82843_cgraph_org.svg" target="_base">
           <rect id="button" ry="5" rx="5" y="6" x="6" height="38" width="38"
                fill="#f2f5e9" fill-opacity="0.5" stroke="#606060" stroke-width="1.0"/>
           <path id="arrow"
             d="M 11.500037,31.436501 C 11.940474,20.09759 22.043105,11.32322 32.158766,21.979434 L 37.068811,17.246167 C 37.068811,17.246167 37.088388,32 37.088388,32 L 22.160133,31.978069 C 22.160133,31.978069 26.997745,27.140456 26.997745,27.140456 C 18.528582,18.264221 13.291696,25.230495 11.500037,31.436501 z"
             style="fill:#404040;"/>
          </a>
         </g>
        </svg>
</svg>
