<?xml version="1.0" encoding="UTF-8" standalone="no"?>
<!DOCTYPE svg PUBLIC "-//W3C//DTD SVG 1.1//EN"
 "http://www.w3.org/Graphics/SVG/1.1/DTD/svg11.dtd">
<!-- Generated by graphviz version 2.38.0 (20140413.2041)
 -->
<!-- Title: mappel::ImageFormat2DBase::set_size Pages: 1 -->
<svg width="322pt" height="37pt"
 viewBox="0.00 0.00 322.00 37.00" xmlns="http://www.w3.org/2000/svg" xmlns:xlink="http://www.w3.org/1999/xlink">
<g id="graph0" class="graph" transform="scale(1 1) rotate(0) translate(4 33)">
<title>mappel::ImageFormat2DBase::set_size</title>
<polygon fill="white" stroke="none" points="-4,4 -4,-33 318,-33 318,4 -4,4"/>
<!-- Node1 -->
<g id="node1" class="node"><title>Node1</title>
<polygon fill="#bfbfbf" stroke="black" points="0,-0.5 0,-28.5 139,-28.5 139,-0.5 0,-0.5"/>
<text text-anchor="start" x="8" y="-17.3" font-family="Helvetica,sans-Serif" font-size="9.00">mappel::ImageFormat2DBase</text>
<text text-anchor="middle" x="69.5" y="-7.3" font-family="Helvetica,sans-Serif" font-size="9.00">::set_size</text>
</g>
<!-- Node2 -->
<g id="node2" class="node"><title>Node2</title>
<g id="a_node2"><a xlink:href="classmappel_1_1ImageFormat2DBase.html#a9c90f6a165348629be4bcf956e3010f3" target="_top" xlink:title="Check the size argument for the model. ">
<polygon fill="white" stroke="black" points="175,-0.5 175,-28.5 314,-28.5 314,-0.5 175,-0.5"/>
<text text-anchor="start" x="183" y="-17.3" font-family="Helvetica,sans-Serif" font-size="9.00">mappel::ImageFormat2DBase</text>
<text text-anchor="middle" x="244.5" y="-7.3" font-family="Helvetica,sans-Serif" font-size="9.00">::check_size</text>
</a>
</g>
</g>
<!-- Node1&#45;&gt;Node2 -->
<g id="edge1" class="edge"><title>Node1&#45;&gt;Node2</title>
<path fill="none" stroke="midnightblue" d="M139.371,-14.5C147.678,-14.5 156.211,-14.5 164.647,-14.5"/>
<polygon fill="midnightblue" stroke="midnightblue" points="164.866,-18.0001 174.866,-14.5 164.866,-11.0001 164.866,-18.0001"/>
</g>
</g>
</svg>
