<?xml version="1.0" encoding="UTF-8" standalone="no"?>
<!DOCTYPE svg PUBLIC "-//W3C//DTD SVG 1.1//EN"
 "http://www.w3.org/Graphics/SVG/1.1/DTD/svg11.dtd">
<!-- Generated by graphviz version 2.38.0 (20140413.2041)
 -->
<!-- Title: mappel::Gauss2DModel::make_default_prior Pages: 1 -->
<svg width="439pt" height="169pt"
 viewBox="0.00 0.00 439.00 169.00" xmlns="http://www.w3.org/2000/svg" xmlns:xlink="http://www.w3.org/1999/xlink">
<g id="graph0" class="graph" transform="scale(1 1) rotate(0) translate(4 165)">
<title>mappel::Gauss2DModel::make_default_prior</title>
<polygon fill="white" stroke="none" points="-4,4 -4,-165 435,-165 435,4 -4,4"/>
<!-- Node1 -->
<g id="node1" class="node"><title>Node1</title>
<polygon fill="#bfbfbf" stroke="black" points="0,-90.5 0,-118.5 116,-118.5 116,-90.5 0,-90.5"/>
<text text-anchor="start" x="8" y="-107.3" font-family="Helvetica,sans-Serif" font-size="9.00">mappel::Gauss2DModel</text>
<text text-anchor="middle" x="58" y="-97.3" font-family="Helvetica,sans-Serif" font-size="9.00">::make_default_prior</text>
</g>
<!-- Node2 -->
<g id="node2" class="node"><title>Node2</title>
<g id="a_node2"><a xlink:href="namespacemappel.html#a610296a93ba507763bc770d39049f323" target="_top" target="_top" xlink:title="mappel::istarts_with">
<polygon fill="white" stroke="black" points="161,-142.5 161,-160.5 259,-160.5 259,-142.5 161,-142.5"/>
<text text-anchor="middle" x="210" y="-149.3" font-family="Helvetica,sans-Serif" font-size="9.00">mappel::istarts_with</text>
</a>
</g>
</g>
<!-- Node1&#45;&gt;Node2 -->
<g id="edge1" class="edge"><title>Node1&#45;&gt;Node2</title>
<path fill="none" stroke="midnightblue" d="M104.005,-118.602C125.215,-125.247 150.257,-133.094 170.564,-139.457"/>
<polygon fill="midnightblue" stroke="midnightblue" points="169.526,-142.799 180.115,-142.449 171.619,-136.119 169.526,-142.799"/>
</g>
<!-- Node3 -->
<g id="node3" class="node"><title>Node3</title>
<g id="a_node3"><a xlink:href="classmappel_1_1Gauss2DModel.html#a47208116565b1960bc0bd84ee91dee1d" target="_top" target="_top" xlink:title="mappel::Gauss2DModel\l::make_default_prior\l_beta_position">
<polygon fill="white" stroke="black" points="152,-85.5 152,-123.5 268,-123.5 268,-85.5 152,-85.5"/>
<text text-anchor="start" x="160" y="-112.3" font-family="Helvetica,sans-Serif" font-size="9.00">mappel::Gauss2DModel</text>
<text text-anchor="start" x="160" y="-102.3" font-family="Helvetica,sans-Serif" font-size="9.00">::make_default_prior</text>
<text text-anchor="middle" x="210" y="-92.3" font-family="Helvetica,sans-Serif" font-size="9.00">_beta_position</text>
</a>
</g>
</g>
<!-- Node1&#45;&gt;Node3 -->
<g id="edge2" class="edge"><title>Node1&#45;&gt;Node3</title>
<path fill="none" stroke="midnightblue" d="M116.136,-104.5C124.377,-104.5 132.923,-104.5 141.344,-104.5"/>
<polygon fill="midnightblue" stroke="midnightblue" points="141.526,-108 151.525,-104.5 141.525,-101 141.526,-108"/>
</g>
<!-- Node6 -->
<g id="node6" class="node"><title>Node6</title>
<g id="a_node6"><a xlink:href="classmappel_1_1Gauss2DModel.html#a22735422ebc24803eb51f2be72a67009" target="_top" target="_top" xlink:title="mappel::Gauss2DModel\l::make_default_prior\l_normal_position">
<polygon fill="white" stroke="black" points="152,-28.5 152,-66.5 268,-66.5 268,-28.5 152,-28.5"/>
<text text-anchor="start" x="160" y="-55.3" font-family="Helvetica,sans-Serif" font-size="9.00">mappel::Gauss2DModel</text>
<text text-anchor="start" x="160" y="-45.3" font-family="Helvetica,sans-Serif" font-size="9.00">::make_default_prior</text>
<text text-anchor="middle" x="210" y="-35.3" font-family="Helvetica,sans-Serif" font-size="9.00">_normal_position</text>
</a>
</g>
</g>
<!-- Node1&#45;&gt;Node6 -->
<g id="edge5" class="edge"><title>Node1&#45;&gt;Node6</title>
<path fill="none" stroke="midnightblue" d="M96.0787,-90.4101C112.036,-84.3462 131.102,-77.1011 148.984,-70.3062"/>
<polygon fill="midnightblue" stroke="midnightblue" points="150.664,-73.4119 158.769,-66.5879 148.178,-66.8684 150.664,-73.4119"/>
</g>
<!-- Node4 -->
<g id="node4" class="node"><title>Node4</title>
<g id="a_node4"><a xlink:href="classmappel_1_1PointEmitterModel.html#a4517e887a22007bd2e03650dcb853c92" target="_top" target="_top" xlink:title="mappel::PointEmitterModel\l::make_prior_component\l_intensity">
<polygon fill="white" stroke="black" points="304,-57.5 304,-95.5 431,-95.5 431,-57.5 304,-57.5"/>
<text text-anchor="start" x="312" y="-84.3" font-family="Helvetica,sans-Serif" font-size="9.00">mappel::PointEmitterModel</text>
<text text-anchor="start" x="312" y="-74.3" font-family="Helvetica,sans-Serif" font-size="9.00">::make_prior_component</text>
<text text-anchor="middle" x="367.5" y="-64.3" font-family="Helvetica,sans-Serif" font-size="9.00">_intensity</text>
</a>
</g>
</g>
<!-- Node3&#45;&gt;Node4 -->
<g id="edge3" class="edge"><title>Node3&#45;&gt;Node4</title>
<path fill="none" stroke="midnightblue" d="M268.019,-94.2328C276.43,-92.7184 285.19,-91.1411 293.864,-89.5791"/>
<polygon fill="midnightblue" stroke="midnightblue" points="294.761,-92.9741 303.982,-87.7572 293.52,-86.0849 294.761,-92.9741"/>
</g>
<!-- Node5 -->
<g id="node5" class="node"><title>Node5</title>
<g id="a_node5"><a xlink:href="classmappel_1_1PointEmitterModel.html#ad4d563dd11df8c3daf83890374807185" target="_top" target="_top" xlink:title="mappel::PointEmitterModel\l::make_prior_component\l_position_beta">
<polygon fill="white" stroke="black" points="304,-114.5 304,-152.5 431,-152.5 431,-114.5 304,-114.5"/>
<text text-anchor="start" x="312" y="-141.3" font-family="Helvetica,sans-Serif" font-size="9.00">mappel::PointEmitterModel</text>
<text text-anchor="start" x="312" y="-131.3" font-family="Helvetica,sans-Serif" font-size="9.00">::make_prior_component</text>
<text text-anchor="middle" x="367.5" y="-121.3" font-family="Helvetica,sans-Serif" font-size="9.00">_position_beta</text>
</a>
</g>
</g>
<!-- Node3&#45;&gt;Node5 -->
<g id="edge4" class="edge"><title>Node3&#45;&gt;Node5</title>
<path fill="none" stroke="midnightblue" d="M268.019,-115.134C276.521,-116.719 285.38,-118.372 294.147,-120.007"/>
<polygon fill="midnightblue" stroke="midnightblue" points="293.51,-123.448 303.982,-121.841 294.793,-116.567 293.51,-123.448"/>
</g>
<!-- Node6&#45;&gt;Node4 -->
<g id="edge6" class="edge"><title>Node6&#45;&gt;Node4</title>
<path fill="none" stroke="midnightblue" d="M268.019,-58.1339C276.521,-59.7194 285.38,-61.3716 294.147,-63.0065"/>
<polygon fill="midnightblue" stroke="midnightblue" points="293.51,-66.448 303.982,-64.8407 294.793,-59.5666 293.51,-66.448"/>
</g>
<!-- Node7 -->
<g id="node7" class="node"><title>Node7</title>
<g id="a_node7"><a xlink:href="classmappel_1_1PointEmitterModel.html#ab99350cf74097c558f7a93b79e7a44c3" target="_top" target="_top" xlink:title="mappel::PointEmitterModel\l::make_prior_component\l_position_normal">
<polygon fill="white" stroke="black" points="304,-0.5 304,-38.5 431,-38.5 431,-0.5 304,-0.5"/>
<text text-anchor="start" x="312" y="-27.3" font-family="Helvetica,sans-Serif" font-size="9.00">mappel::PointEmitterModel</text>
<text text-anchor="start" x="312" y="-17.3" font-family="Helvetica,sans-Serif" font-size="9.00">::make_prior_component</text>
<text text-anchor="middle" x="367.5" y="-7.3" font-family="Helvetica,sans-Serif" font-size="9.00">_position_normal</text>
</a>
</g>
</g>
<!-- Node6&#45;&gt;Node7 -->
<g id="edge7" class="edge"><title>Node6&#45;&gt;Node7</title>
<path fill="none" stroke="midnightblue" d="M268.019,-37.2328C276.43,-35.7184 285.19,-34.1411 293.864,-32.5791"/>
<polygon fill="midnightblue" stroke="midnightblue" points="294.761,-35.9741 303.982,-30.7572 293.52,-29.0849 294.761,-35.9741"/>
</g>
</g>
</svg>
