<?xml version="1.0" encoding="UTF-8" standalone="no"?>
<!DOCTYPE svg PUBLIC "-//W3C//DTD SVG 1.1//EN"
 "http://www.w3.org/Graphics/SVG/1.1/DTD/svg11.dtd">
<!-- Generated by graphviz version 2.38.0 (20140413.2041)
 -->
<!-- Title: mappel::PointEmitterModel::set_lbound Pages: 1 -->
<svg width="447pt" height="84pt"
 viewBox="0.00 0.00 447.00 84.00" xmlns="http://www.w3.org/2000/svg" xmlns:xlink="http://www.w3.org/1999/xlink">
<g id="graph0" class="graph" transform="scale(1 1) rotate(0) translate(4 80)">
<title>mappel::PointEmitterModel::set_lbound</title>
<polygon fill="white" stroke="none" points="-4,4 -4,-80 443,-80 443,4 -4,4"/>
<!-- Node1 -->
<g id="node1" class="node"><title>Node1</title>
<polygon fill="#bfbfbf" stroke="black" points="0,-23.5 0,-51.5 127,-51.5 127,-23.5 0,-23.5"/>
<text text-anchor="start" x="8" y="-40.3" font-family="Helvetica,sans-Serif" font-size="9.00">mappel::PointEmitterModel</text>
<text text-anchor="middle" x="63.5" y="-30.3" font-family="Helvetica,sans-Serif" font-size="9.00">::set_lbound</text>
</g>
<!-- Node2 -->
<g id="node2" class="node"><title>Node2</title>
<g id="a_node2"><a xlink:href="classmappel_1_1Gauss1DsModel.html#ab57025e678a631f4311f33aae1a1674b" target="_top" xlink:title="mappel::Gauss1DsModel\l::set_min_sigma">
<polygon fill="white" stroke="black" points="163,-23.5 163,-51.5 283,-51.5 283,-23.5 163,-23.5"/>
<text text-anchor="start" x="171" y="-40.3" font-family="Helvetica,sans-Serif" font-size="9.00">mappel::Gauss1DsModel</text>
<text text-anchor="middle" x="223" y="-30.3" font-family="Helvetica,sans-Serif" font-size="9.00">::set_min_sigma</text>
</a>
</g>
</g>
<!-- Node1&#45;&gt;Node2 -->
<g id="edge1" class="edge"><title>Node1&#45;&gt;Node2</title>
<path fill="none" stroke="midnightblue" d="M137.21,-37.5C145.796,-37.5 154.478,-37.5 162.844,-37.5"/>
<polygon fill="midnightblue" stroke="midnightblue" points="137.201,-34.0001 127.201,-37.5 137.201,-41.0001 137.201,-34.0001"/>
</g>
<!-- Node3 -->
<g id="node3" class="node"><title>Node3</title>
<g id="a_node3"><a xlink:href="classmappel_1_1Gauss1DsModel.html#a32cda067f5c42abf042ed749fc3104c5" target="_top" xlink:title="mappel::Gauss1DsModel\l::set_min_sigma">
<polygon fill="white" stroke="black" points="319,-47.5 319,-75.5 439,-75.5 439,-47.5 319,-47.5"/>
<text text-anchor="start" x="327" y="-64.3" font-family="Helvetica,sans-Serif" font-size="9.00">mappel::Gauss1DsModel</text>
<text text-anchor="middle" x="379" y="-54.3" font-family="Helvetica,sans-Serif" font-size="9.00">::set_min_sigma</text>
</a>
</g>
</g>
<!-- Node2&#45;&gt;Node3 -->
<g id="edge2" class="edge"><title>Node2&#45;&gt;Node3</title>
<path fill="none" stroke="midnightblue" d="M293.089,-48.2671C301.672,-49.6048 310.388,-50.9631 318.804,-52.2746"/>
<polygon fill="midnightblue" stroke="midnightblue" points="293.52,-44.7921 283.1,-46.7104 292.442,-51.7086 293.52,-44.7921"/>
</g>
<!-- Node4 -->
<g id="node4" class="node"><title>Node4</title>
<g id="a_node4"><a xlink:href="classmappel_1_1Gauss2DsModel.html#a63d3481174444ff7f7b603a47aa8dcc1" target="_top" xlink:title="mappel::Gauss2DsModel\l::set_min_sigma">
<polygon fill="white" stroke="black" points="319,-0.5 319,-28.5 439,-28.5 439,-0.5 319,-0.5"/>
<text text-anchor="start" x="327" y="-17.3" font-family="Helvetica,sans-Serif" font-size="9.00">mappel::Gauss2DsModel</text>
<text text-anchor="middle" x="379" y="-7.3" font-family="Helvetica,sans-Serif" font-size="9.00">::set_min_sigma</text>
</a>
</g>
</g>
<!-- Node2&#45;&gt;Node4 -->
<g id="edge3" class="edge"><title>Node2&#45;&gt;Node4</title>
<path fill="none" stroke="midnightblue" d="M293.089,-27.1815C301.672,-25.8996 310.388,-24.5979 318.804,-23.341"/>
<polygon fill="midnightblue" stroke="midnightblue" points="292.473,-23.7346 283.1,-28.6734 293.507,-30.6578 292.473,-23.7346"/>
</g>
</g>
</svg>
