<?xml version="1.0" encoding="UTF-8" standalone="no"?>
<!DOCTYPE svg PUBLIC "-//W3C//DTD SVG 1.1//EN"
 "http://www.w3.org/Graphics/SVG/1.1/DTD/svg11.dtd">
<!-- Generated by graphviz version 2.38.0 (20140413.2041)
 -->
<!-- Title: mappel::Gauss2DsModel::make_internal_1Dsum_estimator Pages: 1 -->
<svg width="440pt" height="150pt"
 viewBox="0.00 0.00 440.00 150.44" xmlns="http://www.w3.org/2000/svg" xmlns:xlink="http://www.w3.org/1999/xlink">
<g id="graph0" class="graph" transform="scale(1 1) rotate(0) translate(4 146.436)">
<title>mappel::Gauss2DsModel::make_internal_1Dsum_estimator</title>
<polygon fill="white" stroke="none" points="-4,4 -4,-146.436 436,-146.436 436,4 -4,4"/>
<!-- Node1 -->
<g id="node1" class="node"><title>Node1</title>
<polygon fill="#bfbfbf" stroke="black" points="0,-94.5 0,-132.5 120,-132.5 120,-94.5 0,-94.5"/>
<text text-anchor="start" x="8" y="-121.3" font-family="Helvetica,sans-Serif" font-size="9.00">mappel::Gauss2DsModel</text>
<text text-anchor="start" x="8" y="-111.3" font-family="Helvetica,sans-Serif" font-size="9.00">::make_internal_1Dsum</text>
<text text-anchor="middle" x="60" y="-101.3" font-family="Helvetica,sans-Serif" font-size="9.00">_estimator</text>
</g>
<!-- Node2 -->
<g id="node2" class="node"><title>Node2</title>
<g id="a_node2"><a xlink:href="classmappel_1_1Gauss2DsModel.html#a2ce4737beb88367daeb480bf471ad2cf" target="_top" target="_top" xlink:title="mappel::Gauss2DsModel\l::debug_internal_sum\l_model_y">
<polygon fill="white" stroke="black" points="312,-94.5 312,-132.5 432,-132.5 432,-94.5 312,-94.5"/>
<text text-anchor="start" x="320" y="-121.3" font-family="Helvetica,sans-Serif" font-size="9.00">mappel::Gauss2DsModel</text>
<text text-anchor="start" x="320" y="-111.3" font-family="Helvetica,sans-Serif" font-size="9.00">::debug_internal_sum</text>
<text text-anchor="middle" x="372" y="-101.3" font-family="Helvetica,sans-Serif" font-size="9.00">_model_y</text>
</a>
</g>
</g>
<!-- Node1&#45;&gt;Node2 -->
<g id="edge1" class="edge"><title>Node1&#45;&gt;Node2</title>
<path fill="none" stroke="midnightblue" d="M129.89,-133.018C138.618,-134.864 147.476,-136.44 156,-137.5 208.926,-144.082 223.074,-144.082 276,-137.5 287.732,-136.041 300.096,-133.605 311.884,-130.831"/>
<polygon fill="midnightblue" stroke="midnightblue" points="130.639,-129.599 120.116,-130.831 129.11,-136.43 130.639,-129.599"/>
</g>
<!-- Node3 -->
<g id="node3" class="node"><title>Node3</title>
<g id="a_node3"><a xlink:href="classmappel_1_1Gauss2DsModel.html#ab884d4d8ab54ec53cf0116aa9a5b1d81" target="_top" target="_top" xlink:title="mappel::Gauss2DsModel\l::Gauss2DsModel">
<polygon fill="white" stroke="black" points="156,-99.5 156,-127.5 276,-127.5 276,-99.5 156,-99.5"/>
<text text-anchor="start" x="164" y="-116.3" font-family="Helvetica,sans-Serif" font-size="9.00">mappel::Gauss2DsModel</text>
<text text-anchor="middle" x="216" y="-106.3" font-family="Helvetica,sans-Serif" font-size="9.00">::Gauss2DsModel</text>
</a>
</g>
</g>
<!-- Node1&#45;&gt;Node3 -->
<g id="edge2" class="edge"><title>Node1&#45;&gt;Node3</title>
<path fill="none" stroke="midnightblue" d="M130.369,-113.5C138.862,-113.5 147.48,-113.5 155.804,-113.5"/>
<polygon fill="midnightblue" stroke="midnightblue" points="130.1,-110 120.1,-113.5 130.1,-117 130.1,-110"/>
</g>
<!-- Node4 -->
<g id="node4" class="node"><title>Node4</title>
<g id="a_node4"><a xlink:href="classmappel_1_1Gauss2DsModel.html#a6ce7054c0fcdb72394839a0abb2616cb" target="_top" target="_top" xlink:title="mappel::Gauss2DsModel\l::update_internal_1Dsum\l_estimators">
<polygon fill="white" stroke="black" points="156,-42.5 156,-80.5 276,-80.5 276,-42.5 156,-42.5"/>
<text text-anchor="start" x="164" y="-69.3" font-family="Helvetica,sans-Serif" font-size="9.00">mappel::Gauss2DsModel</text>
<text text-anchor="start" x="164" y="-59.3" font-family="Helvetica,sans-Serif" font-size="9.00">::update_internal_1Dsum</text>
<text text-anchor="middle" x="216" y="-49.3" font-family="Helvetica,sans-Serif" font-size="9.00">_estimators</text>
</a>
</g>
</g>
<!-- Node1&#45;&gt;Node4 -->
<g id="edge4" class="edge"><title>Node1&#45;&gt;Node4</title>
<path fill="none" stroke="midnightblue" d="M127.01,-91.211C137.508,-87.6661 148.285,-84.0272 158.537,-80.5653"/>
<polygon fill="midnightblue" stroke="midnightblue" points="125.824,-87.9171 117.469,-94.4324 128.064,-94.5492 125.824,-87.9171"/>
</g>
<!-- Node3&#45;&gt;Node2 -->
<g id="edge3" class="edge"><title>Node3&#45;&gt;Node2</title>
<path fill="none" stroke="midnightblue" d="M286.369,-113.5C294.862,-113.5 303.48,-113.5 311.804,-113.5"/>
<polygon fill="midnightblue" stroke="midnightblue" points="286.1,-110 276.1,-113.5 286.1,-117 286.1,-110"/>
</g>
<!-- Node4&#45;&gt;Node2 -->
<g id="edge5" class="edge"><title>Node4&#45;&gt;Node2</title>
<path fill="none" stroke="midnightblue" d="M283.01,-83.789C293.508,-87.3339 304.285,-90.9728 314.537,-94.4347"/>
<polygon fill="midnightblue" stroke="midnightblue" points="284.064,-80.4508 273.469,-80.5676 281.824,-87.0829 284.064,-80.4508"/>
</g>
<!-- Node5 -->
<g id="node5" class="node"><title>Node5</title>
<g id="a_node5"><a xlink:href="classmappel_1_1Gauss2DsModel.html#a615788e50f97d8c863ec60a5dfee07e3" target="_top" target="_top" xlink:title="mappel::Gauss2DsModel\l::set_hyperparams">
<polygon fill="white" stroke="black" points="312,-47.5 312,-75.5 432,-75.5 432,-47.5 312,-47.5"/>
<text text-anchor="start" x="320" y="-64.3" font-family="Helvetica,sans-Serif" font-size="9.00">mappel::Gauss2DsModel</text>
<text text-anchor="middle" x="372" y="-54.3" font-family="Helvetica,sans-Serif" font-size="9.00">::set_hyperparams</text>
</a>
</g>
</g>
<!-- Node4&#45;&gt;Node5 -->
<g id="edge6" class="edge"><title>Node4&#45;&gt;Node5</title>
<path fill="none" stroke="midnightblue" d="M286.369,-61.5C294.862,-61.5 303.48,-61.5 311.804,-61.5"/>
<polygon fill="midnightblue" stroke="midnightblue" points="286.1,-58.0001 276.1,-61.5 286.1,-65.0001 286.1,-58.0001"/>
</g>
<!-- Node6 -->
<g id="node6" class="node"><title>Node6</title>
<g id="a_node6"><a xlink:href="classmappel_1_1Gauss2DsModel.html#a895bee95db23557189b58f9b1d5e2453" target="_top" target="_top" xlink:title="mappel::Gauss2DsModel\l::set_prior">
<polygon fill="white" stroke="black" points="312,-0.5 312,-28.5 432,-28.5 432,-0.5 312,-0.5"/>
<text text-anchor="start" x="320" y="-17.3" font-family="Helvetica,sans-Serif" font-size="9.00">mappel::Gauss2DsModel</text>
<text text-anchor="middle" x="372" y="-7.3" font-family="Helvetica,sans-Serif" font-size="9.00">::set_prior</text>
</a>
</g>
</g>
<!-- Node4&#45;&gt;Node6 -->
<g id="edge7" class="edge"><title>Node4&#45;&gt;Node6</title>
<path fill="none" stroke="midnightblue" d="M286.032,-40.4317C299.133,-36.4333 312.546,-32.34 324.73,-28.6215"/>
<polygon fill="midnightblue" stroke="midnightblue" points="284.643,-37.1963 276.1,-43.463 286.686,-43.8915 284.643,-37.1963"/>
</g>
</g>
</svg>
