<?xml version="1.0" encoding="UTF-8" standalone="no"?>
<!DOCTYPE svg PUBLIC "-//W3C//DTD SVG 1.1//EN"
 "http://www.w3.org/Graphics/SVG/1.1/DTD/svg11.dtd">
<!-- Generated by graphviz version 2.38.0 (20140413.2041)
 -->
<!-- Title: mappel::MCMCAdaptor1D::operator= Pages: 1 -->
<svg width="775pt" height="329pt"
 viewBox="0.00 0.00 775.00 329.00" xmlns="http://www.w3.org/2000/svg" xmlns:xlink="http://www.w3.org/1999/xlink">
<g id="graph0" class="graph" transform="scale(1 1) rotate(0) translate(4 325)">
<title>mappel::MCMCAdaptor1D::operator=</title>
<polygon fill="white" stroke="none" points="-4,4 -4,-325 771,-325 771,4 -4,4"/>
<!-- Node1 -->
<g id="node1" class="node"><title>Node1</title>
<polygon fill="#bfbfbf" stroke="black" points="0,-117.5 0,-145.5 125,-145.5 125,-117.5 0,-117.5"/>
<text text-anchor="start" x="8" y="-134.3" font-family="Helvetica,sans-Serif" font-size="9.00">mappel::MCMCAdaptor1D</text>
<text text-anchor="middle" x="62.5" y="-124.3" font-family="Helvetica,sans-Serif" font-size="9.00">::operator=</text>
</g>
<!-- Node2 -->
<g id="node2" class="node"><title>Node2</title>
<g id="a_node2"><a xlink:href="classmappel_1_1MCMCAdaptor1Ds.html#a1eedeee6319a2ea86ada3ecabb473f00" target="_top" xlink:title="mappel::MCMCAdaptor1Ds\l::operator=">
<polygon fill="white" stroke="black" points="161,-204.5 161,-232.5 290,-232.5 290,-204.5 161,-204.5"/>
<text text-anchor="start" x="169" y="-221.3" font-family="Helvetica,sans-Serif" font-size="9.00">mappel::MCMCAdaptor1Ds</text>
<text text-anchor="middle" x="225.5" y="-211.3" font-family="Helvetica,sans-Serif" font-size="9.00">::operator=</text>
</a>
</g>
</g>
<!-- Node1&#45;&gt;Node2 -->
<g id="edge1" class="edge"><title>Node1&#45;&gt;Node2</title>
<path fill="none" stroke="midnightblue" d="M98.6372,-150.487C128.753,-166.761 171.445,-189.831 198.552,-204.479"/>
<polygon fill="midnightblue" stroke="midnightblue" points="100.187,-147.347 89.7258,-145.672 96.8595,-153.505 100.187,-147.347"/>
</g>
<!-- Node6 -->
<g id="node6" class="node"><title>Node6</title>
<g id="a_node6"><a xlink:href="classmappel_1_1MCMCAdaptor2D.html#aeddb1b66ab86ef64421b9a7d6a208769" target="_top" xlink:title="mappel::MCMCAdaptor2D\l::operator=">
<polygon fill="white" stroke="black" points="163,-117.5 163,-145.5 288,-145.5 288,-117.5 163,-117.5"/>
<text text-anchor="start" x="171" y="-134.3" font-family="Helvetica,sans-Serif" font-size="9.00">mappel::MCMCAdaptor2D</text>
<text text-anchor="middle" x="225.5" y="-124.3" font-family="Helvetica,sans-Serif" font-size="9.00">::operator=</text>
</a>
</g>
</g>
<!-- Node1&#45;&gt;Node6 -->
<g id="edge5" class="edge"><title>Node1&#45;&gt;Node6</title>
<path fill="none" stroke="midnightblue" d="M135.511,-131.5C144.646,-131.5 153.927,-131.5 162.879,-131.5"/>
<polygon fill="midnightblue" stroke="midnightblue" points="135.286,-128 125.286,-131.5 135.286,-135 135.286,-128"/>
</g>
<!-- Node16 -->
<g id="node16" class="node"><title>Node16</title>
<g id="a_node16"><a xlink:href="classmappel_1_1Gauss1DModel.html#ae26f69421bc365c8b5928276508cc25d" target="_top" xlink:title="mappel::Gauss1DModel\l::operator=">
<polygon fill="white" stroke="black" points="167.5,-47.5 167.5,-75.5 283.5,-75.5 283.5,-47.5 167.5,-47.5"/>
<text text-anchor="start" x="175.5" y="-64.3" font-family="Helvetica,sans-Serif" font-size="9.00">mappel::Gauss1DModel</text>
<text text-anchor="middle" x="225.5" y="-54.3" font-family="Helvetica,sans-Serif" font-size="9.00">::operator=</text>
</a>
</g>
</g>
<!-- Node1&#45;&gt;Node16 -->
<g id="edge15" class="edge"><title>Node1&#45;&gt;Node16</title>
<path fill="none" stroke="midnightblue" d="M105.326,-113.315C132.45,-101.522 167.258,-86.3877 192.243,-75.5249"/>
<polygon fill="midnightblue" stroke="midnightblue" points="103.856,-110.137 96.0808,-117.334 106.647,-116.557 103.856,-110.137"/>
</g>
<!-- Node3 -->
<g id="node3" class="node"><title>Node3</title>
<g id="a_node3"><a xlink:href="classmappel_1_1Gauss1DsModel.html#ac0ca672043394ef61ed11792345cd052" target="_top" xlink:title="mappel::Gauss1DsModel\l::operator=">
<polygon fill="white" stroke="black" points="330.5,-245.5 330.5,-273.5 450.5,-273.5 450.5,-245.5 330.5,-245.5"/>
<text text-anchor="start" x="338.5" y="-262.3" font-family="Helvetica,sans-Serif" font-size="9.00">mappel::Gauss1DsModel</text>
<text text-anchor="middle" x="390.5" y="-252.3" font-family="Helvetica,sans-Serif" font-size="9.00">::operator=</text>
</a>
</g>
</g>
<!-- Node2&#45;&gt;Node3 -->
<g id="edge2" class="edge"><title>Node2&#45;&gt;Node3</title>
<path fill="none" stroke="midnightblue" d="M292.407,-235.078C306.061,-238.512 320.322,-242.099 333.577,-245.434"/>
<polygon fill="midnightblue" stroke="midnightblue" points="293.147,-231.655 282.595,-232.61 291.439,-238.444 293.147,-231.655"/>
</g>
<!-- Node4 -->
<g id="node4" class="node"><title>Node4</title>
<g id="a_node4"><a xlink:href="classmappel_1_1Gauss1DsMAP.html#afb1fe11ca22dd139f873256f7fb6c960" target="_top" xlink:title="mappel::Gauss1DsMAP\l::operator=">
<polygon fill="white" stroke="black" points="494,-292.5 494,-320.5 608,-320.5 608,-292.5 494,-292.5"/>
<text text-anchor="start" x="502" y="-309.3" font-family="Helvetica,sans-Serif" font-size="9.00">mappel::Gauss1DsMAP</text>
<text text-anchor="middle" x="551" y="-299.3" font-family="Helvetica,sans-Serif" font-size="9.00">::operator=</text>
</a>
</g>
</g>
<!-- Node3&#45;&gt;Node4 -->
<g id="edge3" class="edge"><title>Node3&#45;&gt;Node4</title>
<path fill="none" stroke="midnightblue" d="M448.716,-276.466C466.447,-281.724 485.777,-287.456 502.752,-292.489"/>
<polygon fill="midnightblue" stroke="midnightblue" points="449.638,-273.089 439.055,-273.602 447.648,-279.8 449.638,-273.089"/>
</g>
<!-- Node5 -->
<g id="node5" class="node"><title>Node5</title>
<g id="a_node5"><a xlink:href="classmappel_1_1Gauss1DsMLE.html#ac7cb6d3c242f1df583c0f894c3e3febb" target="_top" xlink:title="mappel::Gauss1DsMLE\l::operator=">
<polygon fill="white" stroke="black" points="494.5,-245.5 494.5,-273.5 607.5,-273.5 607.5,-245.5 494.5,-245.5"/>
<text text-anchor="start" x="502.5" y="-262.3" font-family="Helvetica,sans-Serif" font-size="9.00">mappel::Gauss1DsMLE</text>
<text text-anchor="middle" x="551" y="-252.3" font-family="Helvetica,sans-Serif" font-size="9.00">::operator=</text>
</a>
</g>
</g>
<!-- Node3&#45;&gt;Node5 -->
<g id="edge4" class="edge"><title>Node3&#45;&gt;Node5</title>
<path fill="none" stroke="midnightblue" d="M460.737,-259.5C471.974,-259.5 483.485,-259.5 494.345,-259.5"/>
<polygon fill="midnightblue" stroke="midnightblue" points="460.52,-256 450.52,-259.5 460.52,-263 460.52,-256"/>
</g>
<!-- Node7 -->
<g id="node7" class="node"><title>Node7</title>
<g id="a_node7"><a xlink:href="classmappel_1_1Gauss2DModel.html#ac71b6bde6695ad5c3b58c366bc48600d" target="_top" xlink:title="mappel::Gauss2DModel\l::operator=">
<polygon fill="white" stroke="black" points="332.5,-141.5 332.5,-169.5 448.5,-169.5 448.5,-141.5 332.5,-141.5"/>
<text text-anchor="start" x="340.5" y="-158.3" font-family="Helvetica,sans-Serif" font-size="9.00">mappel::Gauss2DModel</text>
<text text-anchor="middle" x="390.5" y="-148.3" font-family="Helvetica,sans-Serif" font-size="9.00">::operator=</text>
</a>
</g>
</g>
<!-- Node6&#45;&gt;Node7 -->
<g id="edge6" class="edge"><title>Node6&#45;&gt;Node7</title>
<path fill="none" stroke="midnightblue" d="M298.104,-142.043C309.564,-143.73 321.29,-145.457 332.356,-147.086"/>
<polygon fill="midnightblue" stroke="midnightblue" points="298.527,-138.567 288.123,-140.573 297.507,-145.493 298.527,-138.567"/>
</g>
<!-- Node11 -->
<g id="node11" class="node"><title>Node11</title>
<g id="a_node11"><a xlink:href="classmappel_1_1MCMCAdaptor2Ds.html#a271813db8cfbca730d2ebd60b335b33e" target="_top" xlink:title="mappel::MCMCAdaptor2Ds\l::operator=">
<polygon fill="white" stroke="black" points="326,-94.5 326,-122.5 455,-122.5 455,-94.5 326,-94.5"/>
<text text-anchor="start" x="334" y="-111.3" font-family="Helvetica,sans-Serif" font-size="9.00">mappel::MCMCAdaptor2Ds</text>
<text text-anchor="middle" x="390.5" y="-101.3" font-family="Helvetica,sans-Serif" font-size="9.00">::operator=</text>
</a>
</g>
</g>
<!-- Node6&#45;&gt;Node11 -->
<g id="edge10" class="edge"><title>Node6&#45;&gt;Node11</title>
<path fill="none" stroke="midnightblue" d="M298.08,-121.4C307.339,-120.093 316.772,-118.762 325.891,-117.476"/>
<polygon fill="midnightblue" stroke="midnightblue" points="297.536,-117.942 288.123,-122.805 298.514,-124.873 297.536,-117.942"/>
</g>
<!-- Node8 -->
<g id="node8" class="node"><title>Node8</title>
<g id="a_node8"><a xlink:href="classmappel_1_1Gauss2DModel.html#a07e9c13f8a164f26f337fcc0c2f70374" target="_top" xlink:title="mappel::Gauss2DModel\l::debug_internal_sum\l_model_y">
<polygon fill="white" stroke="black" points="493,-188.5 493,-226.5 609,-226.5 609,-188.5 493,-188.5"/>
<text text-anchor="start" x="501" y="-215.3" font-family="Helvetica,sans-Serif" font-size="9.00">mappel::Gauss2DModel</text>
<text text-anchor="start" x="501" y="-205.3" font-family="Helvetica,sans-Serif" font-size="9.00">::debug_internal_sum</text>
<text text-anchor="middle" x="551" y="-195.3" font-family="Helvetica,sans-Serif" font-size="9.00">_model_y</text>
</a>
</g>
</g>
<!-- Node7&#45;&gt;Node8 -->
<g id="edge7" class="edge"><title>Node7&#45;&gt;Node8</title>
<path fill="none" stroke="midnightblue" d="M443.914,-172.696C459.577,-177.835 476.827,-183.494 492.781,-188.728"/>
<polygon fill="midnightblue" stroke="midnightblue" points="444.985,-169.364 434.392,-169.572 442.803,-176.015 444.985,-169.364"/>
</g>
<!-- Node9 -->
<g id="node9" class="node"><title>Node9</title>
<g id="a_node9"><a xlink:href="classmappel_1_1Gauss2DMAP.html#a45164f58c91c8eefffc0df248a7e8b7e" target="_top" xlink:title="mappel::Gauss2DMAP\l::operator=">
<polygon fill="white" stroke="black" points="496,-141.5 496,-169.5 606,-169.5 606,-141.5 496,-141.5"/>
<text text-anchor="start" x="504" y="-158.3" font-family="Helvetica,sans-Serif" font-size="9.00">mappel::Gauss2DMAP</text>
<text text-anchor="middle" x="551" y="-148.3" font-family="Helvetica,sans-Serif" font-size="9.00">::operator=</text>
</a>
</g>
</g>
<!-- Node7&#45;&gt;Node9 -->
<g id="edge8" class="edge"><title>Node7&#45;&gt;Node9</title>
<path fill="none" stroke="midnightblue" d="M458.934,-155.5C471.232,-155.5 483.918,-155.5 495.772,-155.5"/>
<polygon fill="midnightblue" stroke="midnightblue" points="458.722,-152 448.722,-155.5 458.722,-159 458.722,-152"/>
</g>
<!-- Node10 -->
<g id="node10" class="node"><title>Node10</title>
<g id="a_node10"><a xlink:href="classmappel_1_1Gauss2DMLE.html#a31e347e3ff70644f76a5ffd69656a43f" target="_top" xlink:title="mappel::Gauss2DMLE\l::operator=">
<polygon fill="white" stroke="black" points="496.5,-94.5 496.5,-122.5 605.5,-122.5 605.5,-94.5 496.5,-94.5"/>
<text text-anchor="start" x="504.5" y="-111.3" font-family="Helvetica,sans-Serif" font-size="9.00">mappel::Gauss2DMLE</text>
<text text-anchor="middle" x="551" y="-101.3" font-family="Helvetica,sans-Serif" font-size="9.00">::operator=</text>
</a>
</g>
</g>
<!-- Node7&#45;&gt;Node10 -->
<g id="edge9" class="edge"><title>Node7&#45;&gt;Node10</title>
<path fill="none" stroke="midnightblue" d="M448.716,-138.534C466.447,-133.276 485.777,-127.544 502.752,-122.511"/>
<polygon fill="midnightblue" stroke="midnightblue" points="447.648,-135.2 439.055,-141.398 449.638,-141.911 447.648,-135.2"/>
</g>
<!-- Node12 -->
<g id="node12" class="node"><title>Node12</title>
<g id="a_node12"><a xlink:href="classmappel_1_1Gauss2DsModel.html#ab1b09eccafc20261b34a404fc8dede4e" target="_top" xlink:title="mappel::Gauss2DsModel\l::operator=">
<polygon fill="white" stroke="black" points="491,-47.5 491,-75.5 611,-75.5 611,-47.5 491,-47.5"/>
<text text-anchor="start" x="499" y="-64.3" font-family="Helvetica,sans-Serif" font-size="9.00">mappel::Gauss2DsModel</text>
<text text-anchor="middle" x="551" y="-54.3" font-family="Helvetica,sans-Serif" font-size="9.00">::operator=</text>
</a>
</g>
</g>
<!-- Node11&#45;&gt;Node12 -->
<g id="edge11" class="edge"><title>Node11&#45;&gt;Node12</title>
<path fill="none" stroke="midnightblue" d="M448.716,-91.5337C466.447,-86.2759 485.777,-80.5442 502.752,-75.5106"/>
<polygon fill="midnightblue" stroke="midnightblue" points="447.648,-88.1999 439.055,-94.3985 449.638,-94.911 447.648,-88.1999"/>
</g>
<!-- Node13 -->
<g id="node13" class="node"><title>Node13</title>
<g id="a_node13"><a xlink:href="classmappel_1_1Gauss2DsModel.html#a2ce4737beb88367daeb480bf471ad2cf" target="_top" xlink:title="mappel::Gauss2DsModel\l::debug_internal_sum\l_model_y">
<polygon fill="white" stroke="black" points="647,-94.5 647,-132.5 767,-132.5 767,-94.5 647,-94.5"/>
<text text-anchor="start" x="655" y="-121.3" font-family="Helvetica,sans-Serif" font-size="9.00">mappel::Gauss2DsModel</text>
<text text-anchor="start" x="655" y="-111.3" font-family="Helvetica,sans-Serif" font-size="9.00">::debug_internal_sum</text>
<text text-anchor="middle" x="707" y="-101.3" font-family="Helvetica,sans-Serif" font-size="9.00">_model_y</text>
</a>
</g>
</g>
<!-- Node12&#45;&gt;Node13 -->
<g id="edge12" class="edge"><title>Node12&#45;&gt;Node13</title>
<path fill="none" stroke="midnightblue" d="M603.205,-78.7901C618.068,-83.8086 634.38,-89.3166 649.545,-94.4373"/>
<polygon fill="midnightblue" stroke="midnightblue" points="604.269,-75.4551 593.675,-75.5719 602.029,-82.0872 604.269,-75.4551"/>
</g>
<!-- Node14 -->
<g id="node14" class="node"><title>Node14</title>
<g id="a_node14"><a xlink:href="classmappel_1_1Gauss2DsMAP.html#ae9a68cb6e29b130082f4e4cf93dfe734" target="_top" xlink:title="mappel::Gauss2DsMAP\l::operator=">
<polygon fill="white" stroke="black" points="650,-47.5 650,-75.5 764,-75.5 764,-47.5 650,-47.5"/>
<text text-anchor="start" x="658" y="-64.3" font-family="Helvetica,sans-Serif" font-size="9.00">mappel::Gauss2DsMAP</text>
<text text-anchor="middle" x="707" y="-54.3" font-family="Helvetica,sans-Serif" font-size="9.00">::operator=</text>
</a>
</g>
</g>
<!-- Node12&#45;&gt;Node14 -->
<g id="edge13" class="edge"><title>Node12&#45;&gt;Node14</title>
<path fill="none" stroke="midnightblue" d="M621.357,-61.5C630.892,-61.5 640.586,-61.5 649.844,-61.5"/>
<polygon fill="midnightblue" stroke="midnightblue" points="621.1,-58.0001 611.1,-61.5 621.1,-65.0001 621.1,-58.0001"/>
</g>
<!-- Node15 -->
<g id="node15" class="node"><title>Node15</title>
<g id="a_node15"><a xlink:href="classmappel_1_1Gauss2DsMLE.html#a3c3c72608a0aa4f7342119267888ac49" target="_top" xlink:title="mappel::Gauss2DsMLE\l::operator=">
<polygon fill="white" stroke="black" points="650.5,-0.5 650.5,-28.5 763.5,-28.5 763.5,-0.5 650.5,-0.5"/>
<text text-anchor="start" x="658.5" y="-17.3" font-family="Helvetica,sans-Serif" font-size="9.00">mappel::Gauss2DsMLE</text>
<text text-anchor="middle" x="707" y="-7.3" font-family="Helvetica,sans-Serif" font-size="9.00">::operator=</text>
</a>
</g>
</g>
<!-- Node12&#45;&gt;Node15 -->
<g id="edge14" class="edge"><title>Node12&#45;&gt;Node15</title>
<path fill="none" stroke="midnightblue" d="M608.071,-44.3875C625.167,-39.1699 643.753,-33.4976 660.093,-28.5106"/>
<polygon fill="midnightblue" stroke="midnightblue" points="606.748,-41.1318 598.205,-47.3985 608.791,-47.8269 606.748,-41.1318"/>
</g>
<!-- Node17 -->
<g id="node17" class="node"><title>Node17</title>
<g id="a_node17"><a xlink:href="classmappel_1_1Gauss1DMAP.html#afec3cf3e6adcd8b73100e9dc121198b7" target="_top" xlink:title="mappel::Gauss1DMAP\l::operator=">
<polygon fill="white" stroke="black" points="335.5,-47.5 335.5,-75.5 445.5,-75.5 445.5,-47.5 335.5,-47.5"/>
<text text-anchor="start" x="343.5" y="-64.3" font-family="Helvetica,sans-Serif" font-size="9.00">mappel::Gauss1DMAP</text>
<text text-anchor="middle" x="390.5" y="-54.3" font-family="Helvetica,sans-Serif" font-size="9.00">::operator=</text>
</a>
</g>
</g>
<!-- Node16&#45;&gt;Node17 -->
<g id="edge16" class="edge"><title>Node16&#45;&gt;Node17</title>
<path fill="none" stroke="midnightblue" d="M293.91,-61.5C307.686,-61.5 322.017,-61.5 335.262,-61.5"/>
<polygon fill="midnightblue" stroke="midnightblue" points="293.51,-58.0001 283.509,-61.5 293.509,-65.0001 293.51,-58.0001"/>
</g>
<!-- Node18 -->
<g id="node18" class="node"><title>Node18</title>
<g id="a_node18"><a xlink:href="classmappel_1_1Gauss1DMLE.html#abdf5e62ce76f3df65b1aab2033a06841" target="_top" xlink:title="mappel::Gauss1DMLE\l::operator=">
<polygon fill="white" stroke="black" points="336,-0.5 336,-28.5 445,-28.5 445,-0.5 336,-0.5"/>
<text text-anchor="start" x="344" y="-17.3" font-family="Helvetica,sans-Serif" font-size="9.00">mappel::Gauss1DMLE</text>
<text text-anchor="middle" x="390.5" y="-7.3" font-family="Helvetica,sans-Serif" font-size="9.00">::operator=</text>
</a>
</g>
</g>
<!-- Node16&#45;&gt;Node18 -->
<g id="edge17" class="edge"><title>Node16&#45;&gt;Node18</title>
<path fill="none" stroke="midnightblue" d="M285.087,-44.6067C303.391,-39.329 323.372,-33.5675 340.91,-28.5106"/>
<polygon fill="midnightblue" stroke="midnightblue" points="284.044,-41.2648 275.405,-47.3985 285.984,-47.9908 284.044,-41.2648"/>
</g>
</g>
</svg>
