<?xml version="1.0" encoding="UTF-8" standalone="no"?>
<!DOCTYPE svg PUBLIC "-//W3C//DTD SVG 1.1//EN"
 "http://www.w3.org/Graphics/SVG/1.1/DTD/svg11.dtd">
<!-- Generated by graphviz version 2.38.0 (20140413.2041)
 -->
<!-- Title: mappel::CGaussMLE::get_debug_stats Pages: 1 -->
<svg width="557pt" height="37pt"
 viewBox="0.00 0.00 557.00 37.00" xmlns="http://www.w3.org/2000/svg" xmlns:xlink="http://www.w3.org/1999/xlink">
<g id="graph0" class="graph" transform="scale(1 1) rotate(0) translate(4 33)">
<title>mappel::CGaussMLE::get_debug_stats</title>
<polygon fill="white" stroke="none" points="-4,4 -4,-33 553,-33 553,4 -4,4"/>
<!-- Node1 -->
<g id="node1" class="node"><title>Node1</title>
<polygon fill="#bfbfbf" stroke="black" points="0,-0.5 0,-28.5 108,-28.5 108,-0.5 0,-0.5"/>
<text text-anchor="start" x="8" y="-17.3" font-family="Helvetica,sans-Serif" font-size="9.00">mappel::CGaussMLE::</text>
<text text-anchor="middle" x="54" y="-7.3" font-family="Helvetica,sans-Serif" font-size="9.00">get_debug_stats</text>
</g>
<!-- Node2 -->
<g id="node2" class="node"><title>Node2</title>
<g id="a_node2"><a xlink:href="classmappel_1_1CGaussMLE.html#aafbdebb21652be135801911007d3568b" target="_top" xlink:title="mappel::CGaussMLE::\lget_stats">
<polygon fill="white" stroke="black" points="144,-0.5 144,-28.5 252,-28.5 252,-0.5 144,-0.5"/>
<text text-anchor="start" x="152" y="-17.3" font-family="Helvetica,sans-Serif" font-size="9.00">mappel::CGaussMLE::</text>
<text text-anchor="middle" x="198" y="-7.3" font-family="Helvetica,sans-Serif" font-size="9.00">get_stats</text>
</a>
</g>
</g>
<!-- Node1&#45;&gt;Node2 -->
<g id="edge1" class="edge"><title>Node1&#45;&gt;Node2</title>
<path fill="none" stroke="midnightblue" d="M108.28,-14.5C116.56,-14.5 125.184,-14.5 133.661,-14.5"/>
<polygon fill="midnightblue" stroke="midnightblue" points="133.894,-18.0001 143.894,-14.5 133.894,-11.0001 133.894,-18.0001"/>
</g>
<!-- Node3 -->
<g id="node3" class="node"><title>Node3</title>
<g id="a_node3"><a xlink:href="classmappel_1_1ThreadedEstimator.html#ab216e13ec19785839bc73caf7fac1c91" target="_top" xlink:title="mappel::ThreadedEstimator\l::get_stats">
<polygon fill="white" stroke="black" points="288,-0.5 288,-28.5 418,-28.5 418,-0.5 288,-0.5"/>
<text text-anchor="start" x="296" y="-17.3" font-family="Helvetica,sans-Serif" font-size="9.00">mappel::ThreadedEstimator</text>
<text text-anchor="middle" x="353" y="-7.3" font-family="Helvetica,sans-Serif" font-size="9.00">::get_stats</text>
</a>
</g>
</g>
<!-- Node2&#45;&gt;Node3 -->
<g id="edge2" class="edge"><title>Node2&#45;&gt;Node3</title>
<path fill="none" stroke="midnightblue" d="M252.083,-14.5C260.395,-14.5 269.116,-14.5 277.797,-14.5"/>
<polygon fill="midnightblue" stroke="midnightblue" points="277.944,-18.0001 287.944,-14.5 277.944,-11.0001 277.944,-18.0001"/>
</g>
<!-- Node4 -->
<g id="node4" class="node"><title>Node4</title>
<g id="a_node4"><a xlink:href="classmappel_1_1Estimator.html#a876af9a1a1a6bf174c63716f3348d735" target="_top" xlink:title="mappel::Estimator::\lget_stats">
<polygon fill="white" stroke="black" points="454,-0.5 454,-28.5 549,-28.5 549,-0.5 454,-0.5"/>
<text text-anchor="start" x="462" y="-17.3" font-family="Helvetica,sans-Serif" font-size="9.00">mappel::Estimator::</text>
<text text-anchor="middle" x="501.5" y="-7.3" font-family="Helvetica,sans-Serif" font-size="9.00">get_stats</text>
</a>
</g>
</g>
<!-- Node3&#45;&gt;Node4 -->
<g id="edge3" class="edge"><title>Node3&#45;&gt;Node4</title>
<path fill="none" stroke="midnightblue" d="M418.257,-14.5C426.784,-14.5 435.475,-14.5 443.86,-14.5"/>
<polygon fill="midnightblue" stroke="midnightblue" points="443.904,-18.0001 453.904,-14.5 443.904,-11.0001 443.904,-18.0001"/>
</g>
</g>
</svg>
