<?xml version="1.0" encoding="UTF-8" standalone="no"?>
<!DOCTYPE svg PUBLIC "-//W3C//DTD SVG 1.1//EN"
 "http://www.w3.org/Graphics/SVG/1.1/DTD/svg11.dtd">
<!-- Generated by graphviz version 2.38.0 (20140413.2041)
 -->
<!-- Title: mappel::Gauss2DModel::pixel_hess_update Pages: 1 -->
<svg width="439pt" height="99pt"
 viewBox="0.00 0.00 439.00 99.11" xmlns="http://www.w3.org/2000/svg" xmlns:xlink="http://www.w3.org/1999/xlink">
<g id="graph0" class="graph" transform="scale(1 1) rotate(0) translate(4 95.1121)">
<title>mappel::Gauss2DModel::pixel_hess_update</title>
<polygon fill="white" stroke="none" points="-4,4 -4,-95.1121 435,-95.1121 435,4 -4,4"/>
<!-- Node1 -->
<g id="node1" class="node"><title>Node1</title>
<polygon fill="#bfbfbf" stroke="black" points="0,-47.5 0,-75.5 116,-75.5 116,-47.5 0,-47.5"/>
<text text-anchor="start" x="8" y="-64.3" font-family="Helvetica,sans-Serif" font-size="9.00">mappel::Gauss2DModel</text>
<text text-anchor="middle" x="58" y="-54.3" font-family="Helvetica,sans-Serif" font-size="9.00">::pixel_hess_update</text>
</g>
<!-- Node2 -->
<g id="node2" class="node"><title>Node2</title>
<g id="a_node2"><a xlink:href="classmappel_1_1Gauss2DModel_1_1Stencil.html#aac7254dbe4ed3e2dd928ab29779f570d" target="_top" xlink:title="mappel::Gauss2DModel\l::Stencil::I">
<polygon fill="white" stroke="black" points="315,-45.5 315,-73.5 431,-73.5 431,-45.5 315,-45.5"/>
<text text-anchor="start" x="323" y="-62.3" font-family="Helvetica,sans-Serif" font-size="9.00">mappel::Gauss2DModel</text>
<text text-anchor="middle" x="373" y="-52.3" font-family="Helvetica,sans-Serif" font-size="9.00">::Stencil::I</text>
</a>
</g>
</g>
<!-- Node1&#45;&gt;Node2 -->
<g id="edge1" class="edge"><title>Node1&#45;&gt;Node2</title>
<path fill="none" stroke="midnightblue" d="M103.964,-75.5437C119.071,-79.6049 136.12,-83.4839 152,-85.5 207.995,-92.6087 223.079,-93.1699 279,-85.5 292.9,-83.5935 307.651,-80.155 321.21,-76.3898"/>
<polygon fill="midnightblue" stroke="midnightblue" points="322.208,-79.7449 330.844,-73.6077 320.266,-73.0197 322.208,-79.7449"/>
</g>
<!-- Node3 -->
<g id="node3" class="node"><title>Node3</title>
<g id="a_node3"><a xlink:href="classmappel_1_1PointEmitterModel.html#a1cd8ff64ce4132b6eaa8655696885749" target="_top" xlink:title="mappel::PointEmitterModel\l::make_param">
<polygon fill="white" stroke="black" points="152,-47.5 152,-75.5 279,-75.5 279,-47.5 152,-47.5"/>
<text text-anchor="start" x="160" y="-64.3" font-family="Helvetica,sans-Serif" font-size="9.00">mappel::PointEmitterModel</text>
<text text-anchor="middle" x="215.5" y="-54.3" font-family="Helvetica,sans-Serif" font-size="9.00">::make_param</text>
</a>
</g>
</g>
<!-- Node1&#45;&gt;Node3 -->
<g id="edge2" class="edge"><title>Node1&#45;&gt;Node3</title>
<path fill="none" stroke="midnightblue" d="M116.019,-61.5C124.43,-61.5 133.19,-61.5 141.864,-61.5"/>
<polygon fill="midnightblue" stroke="midnightblue" points="141.982,-65.0001 151.982,-61.5 141.982,-58.0001 141.982,-65.0001"/>
</g>
<!-- Node4 -->
<g id="node4" class="node"><title>Node4</title>
<g id="a_node4"><a xlink:href="classmappel_1_1Gauss2DModel.html#ae1c726836b5e437721a73183fbf349d7" target="_top" xlink:title="mappel::Gauss2DModel\l::pixel_grad">
<polygon fill="white" stroke="black" points="157.5,-0.5 157.5,-28.5 273.5,-28.5 273.5,-0.5 157.5,-0.5"/>
<text text-anchor="start" x="165.5" y="-17.3" font-family="Helvetica,sans-Serif" font-size="9.00">mappel::Gauss2DModel</text>
<text text-anchor="middle" x="215.5" y="-7.3" font-family="Helvetica,sans-Serif" font-size="9.00">::pixel_grad</text>
</a>
</g>
</g>
<!-- Node1&#45;&gt;Node4 -->
<g id="edge3" class="edge"><title>Node1&#45;&gt;Node4</title>
<path fill="none" stroke="midnightblue" d="M105.655,-47.3985C122.182,-42.4031 140.953,-36.7295 158.198,-31.5174"/>
<polygon fill="midnightblue" stroke="midnightblue" points="159.586,-34.7542 168.146,-28.5106 157.561,-28.0536 159.586,-34.7542"/>
</g>
<!-- Node4&#45;&gt;Node2 -->
<g id="edge4" class="edge"><title>Node4&#45;&gt;Node2</title>
<path fill="none" stroke="midnightblue" d="M265.275,-28.6148C280.617,-33.0546 297.715,-38.0028 313.652,-42.6147"/>
<polygon fill="midnightblue" stroke="midnightblue" points="312.82,-46.0174 323.399,-45.4353 314.766,-39.2933 312.82,-46.0174"/>
</g>
</g>
</svg>
