<?xml version="1.0" encoding="UTF-8" standalone="no"?>
<!DOCTYPE svg PUBLIC "-//W3C//DTD SVG 1.1//EN"
 "http://www.w3.org/Graphics/SVG/1.1/DTD/svg11.dtd">
<!-- Generated by graphviz version 2.38.0 (20140413.2041)
 -->
<!-- Title: mappel::PriorMAP1DObjective::prior_log_likelihood Pages: 1 -->
<svg width="474pt" height="100pt"
 viewBox="0.00 0.00 474.00 100.00" xmlns="http://www.w3.org/2000/svg" xmlns:xlink="http://www.w3.org/1999/xlink">
<g id="graph0" class="graph" transform="scale(1 1) rotate(0) translate(4 96)">
<title>mappel::PriorMAP1DObjective::prior_log_likelihood</title>
<polygon fill="white" stroke="none" points="-4,4 -4,-96 470,-96 470,4 -4,4"/>
<!-- Node1 -->
<g id="node1" class="node"><title>Node1</title>
<polygon fill="#bfbfbf" stroke="black" points="0,-23.5 0,-51.5 141,-51.5 141,-23.5 0,-23.5"/>
<text text-anchor="start" x="8" y="-40.3" font-family="Helvetica,sans-Serif" font-size="9.00">mappel::PriorMAP1DObjective</text>
<text text-anchor="middle" x="70.5" y="-30.3" font-family="Helvetica,sans-Serif" font-size="9.00">::prior_log_likelihood</text>
</g>
<!-- Node2 -->
<g id="node2" class="node"><title>Node2</title>
<g id="a_node2"><a xlink:href="classmappel_1_1PriorMAP1DObjective.html#a08683df7a96febdeca35291129291b6d" target="_top" xlink:title="mappel::PriorMAP1DObjective\l::prior_relative_log_likelihood">
<polygon fill="white" stroke="black" points="177,-47.5 177,-75.5 318,-75.5 318,-47.5 177,-47.5"/>
<text text-anchor="start" x="185" y="-64.3" font-family="Helvetica,sans-Serif" font-size="9.00">mappel::PriorMAP1DObjective</text>
<text text-anchor="middle" x="247.5" y="-54.3" font-family="Helvetica,sans-Serif" font-size="9.00">::prior_relative_log_likelihood</text>
</a>
</g>
</g>
<!-- Node1&#45;&gt;Node2 -->
<g id="edge1" class="edge"><title>Node1&#45;&gt;Node2</title>
<path fill="none" stroke="midnightblue" d="M141.167,-47.0544C149.594,-48.21 158.251,-49.3973 166.808,-50.5708"/>
<polygon fill="midnightblue" stroke="midnightblue" points="166.403,-54.048 176.786,-51.9393 167.355,-47.1129 166.403,-54.048"/>
</g>
<!-- Node5 -->
<g id="node5" class="node"><title>Node5</title>
<g id="a_node5"><a xlink:href="namespacemappel_1_1methods_1_1objective.html#a293c23ed6a623e59477bb67b6e40f5ad" target="_top" xlink:title="mappel::methods::objective\l::rllh">
<polygon fill="white" stroke="black" points="183.5,-0.5 183.5,-28.5 311.5,-28.5 311.5,-0.5 183.5,-0.5"/>
<text text-anchor="start" x="191.5" y="-17.3" font-family="Helvetica,sans-Serif" font-size="9.00">mappel::methods::objective</text>
<text text-anchor="middle" x="247.5" y="-7.3" font-family="Helvetica,sans-Serif" font-size="9.00">::rllh</text>
</a>
</g>
</g>
<!-- Node1&#45;&gt;Node5 -->
<g id="edge4" class="edge"><title>Node1&#45;&gt;Node5</title>
<path fill="none" stroke="midnightblue" d="M141.167,-28.3437C151.713,-26.9577 162.62,-25.5242 173.239,-24.1286"/>
<polygon fill="midnightblue" stroke="midnightblue" points="173.853,-27.5781 183.311,-22.8048 172.94,-20.6378 173.853,-27.5781"/>
</g>
<!-- Node3 -->
<g id="node3" class="node"><title>Node3</title>
<g id="a_node3"><a xlink:href="namespacemappel.html#aba911d3a1a1a486fd6f6dfdfad37d90a" target="_top" xlink:title="mappel::rllh_beta_prior">
<polygon fill="white" stroke="black" points="354,-73.5 354,-91.5 466,-91.5 466,-73.5 354,-73.5"/>
<text text-anchor="middle" x="410" y="-80.3" font-family="Helvetica,sans-Serif" font-size="9.00">mappel::rllh_beta_prior</text>
</a>
</g>
</g>
<!-- Node2&#45;&gt;Node3 -->
<g id="edge2" class="edge"><title>Node2&#45;&gt;Node3</title>
<path fill="none" stroke="midnightblue" d="M318.431,-70.6498C326.839,-71.7499 335.4,-72.8701 343.738,-73.9611"/>
<polygon fill="midnightblue" stroke="midnightblue" points="343.402,-77.4469 353.772,-75.2739 344.311,-70.506 343.402,-77.4469"/>
</g>
<!-- Node4 -->
<g id="node4" class="node"><title>Node4</title>
<g id="a_node4"><a xlink:href="namespacemappel.html#ac76807de851d24f1b720629ad9062cb2" target="_top" xlink:title="mappel::rllh_gamma\l_prior">
<polygon fill="white" stroke="black" points="359.5,-26.5 359.5,-54.5 460.5,-54.5 460.5,-26.5 359.5,-26.5"/>
<text text-anchor="start" x="367.5" y="-43.3" font-family="Helvetica,sans-Serif" font-size="9.00">mappel::rllh_gamma</text>
<text text-anchor="middle" x="410" y="-33.3" font-family="Helvetica,sans-Serif" font-size="9.00">_prior</text>
</a>
</g>
</g>
<!-- Node2&#45;&gt;Node4 -->
<g id="edge3" class="edge"><title>Node2&#45;&gt;Node4</title>
<path fill="none" stroke="midnightblue" d="M318.431,-52.3502C328.588,-51.0212 338.969,-49.663 348.909,-48.3624"/>
<polygon fill="midnightblue" stroke="midnightblue" points="349.618,-51.7995 359.079,-47.0317 348.71,-44.8587 349.618,-51.7995"/>
</g>
</g>
</svg>
