<?xml version="1.0" encoding="UTF-8" standalone="no"?>
<!DOCTYPE svg PUBLIC "-//W3C//DTD SVG 1.1//EN"
 "http://www.w3.org/Graphics/SVG/1.1/DTD/svg11.dtd">
<!-- Generated by graphviz version 2.38.0 (20140413.2041)
 -->
<!-- Title: mappel::MCMCAdaptor2D Pages: 1 -->
<svg width="451pt" height="302pt"
 viewBox="0.00 0.00 450.50 302.00" xmlns="http://www.w3.org/2000/svg" xmlns:xlink="http://www.w3.org/1999/xlink">
<g id="graph0" class="graph" transform="scale(1 1) rotate(0) translate(4 298)">
<title>mappel::MCMCAdaptor2D</title>
<polygon fill="white" stroke="none" points="-4,4 -4,-298 446.5,-298 446.5,4 -4,4"/>
<!-- Node1 -->
<g id="node1" class="node"><title>Node1</title>
<polygon fill="#bfbfbf" stroke="black" points="186.5,-165.5 186.5,-183.5 311.5,-183.5 311.5,-165.5 186.5,-165.5"/>
<text text-anchor="middle" x="249" y="-172.3" font-family="Helvetica,sans-Serif" font-size="9.00">mappel::MCMCAdaptor2D</text>
</g>
<!-- Node5 -->
<g id="node5" class="node"><title>Node5</title>
<g id="a_node5"><a xlink:href="classmappel_1_1Gauss2DModel.html" target="_top" xlink:title="A base class for 2D Gaussian PSF with fixed but possibly asymmetric sigma. ">
<polygon fill="white" stroke="black" points="121,-110.5 121,-128.5 237,-128.5 237,-110.5 121,-110.5"/>
<text text-anchor="middle" x="179" y="-117.3" font-family="Helvetica,sans-Serif" font-size="9.00">mappel::Gauss2DModel</text>
</a>
</g>
</g>
<!-- Node1&#45;&gt;Node5 -->
<g id="edge4" class="edge"><title>Node1&#45;&gt;Node5</title>
<path fill="none" stroke="midnightblue" d="M230.126,-159.21C217.177,-149.405 200.459,-136.747 189.732,-128.625"/>
<polygon fill="midnightblue" stroke="midnightblue" points="228.283,-162.204 238.369,-165.45 232.509,-156.624 228.283,-162.204"/>
</g>
<!-- Node8 -->
<g id="node8" class="node"><title>Node8</title>
<g id="a_node8"><a xlink:href="classmappel_1_1MCMCAdaptor2Ds.html" target="_top" xlink:title="mappel::MCMCAdaptor2Ds">
<polygon fill="white" stroke="black" points="255.5,-110.5 255.5,-128.5 384.5,-128.5 384.5,-110.5 255.5,-110.5"/>
<text text-anchor="middle" x="320" y="-117.3" font-family="Helvetica,sans-Serif" font-size="9.00">mappel::MCMCAdaptor2Ds</text>
</a>
</g>
</g>
<!-- Node1&#45;&gt;Node8 -->
<g id="edge7" class="edge"><title>Node1&#45;&gt;Node8</title>
<path fill="none" stroke="midnightblue" d="M268.144,-159.21C281.278,-149.405 298.235,-136.747 309.115,-128.625"/>
<polygon fill="midnightblue" stroke="midnightblue" points="265.703,-156.664 259.783,-165.45 269.891,-162.273 265.703,-156.664"/>
</g>
<!-- Node2 -->
<g id="node2" class="node"><title>Node2</title>
<g id="a_node2"><a xlink:href="classmappel_1_1MCMCAdaptor1D.html" target="_top" xlink:title="mappel::MCMCAdaptor1D">
<polygon fill="white" stroke="black" points="186.5,-220.5 186.5,-238.5 311.5,-238.5 311.5,-220.5 186.5,-220.5"/>
<text text-anchor="middle" x="249" y="-227.3" font-family="Helvetica,sans-Serif" font-size="9.00">mappel::MCMCAdaptor1D</text>
</a>
</g>
</g>
<!-- Node2&#45;&gt;Node1 -->
<g id="edge1" class="edge"><title>Node2&#45;&gt;Node1</title>
<path fill="none" stroke="midnightblue" d="M249,-210.175C249,-201.094 249,-190.595 249,-183.55"/>
<polygon fill="midnightblue" stroke="midnightblue" points="245.5,-210.219 249,-220.219 252.5,-210.219 245.5,-210.219"/>
</g>
<!-- Node3 -->
<g id="node3" class="node"><title>Node3</title>
<g id="a_node3"><a xlink:href="classmappel_1_1PointEmitterModel.html" target="_top" xlink:title="A virtual Base type for point emitter localization models. ">
<polygon fill="white" stroke="black" points="111.5,-275.5 111.5,-293.5 238.5,-293.5 238.5,-275.5 111.5,-275.5"/>
<text text-anchor="middle" x="175" y="-282.3" font-family="Helvetica,sans-Serif" font-size="9.00">mappel::PointEmitterModel</text>
</a>
</g>
</g>
<!-- Node3&#45;&gt;Node2 -->
<g id="edge2" class="edge"><title>Node3&#45;&gt;Node2</title>
<path fill="none" stroke="midnightblue" d="M194.559,-269.492C208.301,-259.649 226.206,-246.826 237.655,-238.625"/>
<polygon fill="midnightblue" stroke="midnightblue" points="192.331,-266.782 186.239,-275.45 196.407,-272.473 192.331,-266.782"/>
</g>
<!-- Node4 -->
<g id="node4" class="node"><title>Node4</title>
<g id="a_node4"><a xlink:href="classmappel_1_1MCMCAdaptorBase.html" target="_top" xlink:title="mappel::MCMCAdaptorBase">
<polygon fill="white" stroke="black" points="257,-275.5 257,-293.5 391,-293.5 391,-275.5 257,-275.5"/>
<text text-anchor="middle" x="324" y="-282.3" font-family="Helvetica,sans-Serif" font-size="9.00">mappel::MCMCAdaptorBase</text>
</a>
</g>
</g>
<!-- Node4&#45;&gt;Node2 -->
<g id="edge3" class="edge"><title>Node4&#45;&gt;Node2</title>
<path fill="none" stroke="midnightblue" d="M304.177,-269.492C290.249,-259.649 272.102,-246.826 260.498,-238.625"/>
<polygon fill="midnightblue" stroke="midnightblue" points="302.423,-272.538 312.609,-275.45 306.462,-266.821 302.423,-272.538"/>
</g>
<!-- Node6 -->
<g id="node6" class="node"><title>Node6</title>
<g id="a_node6"><a xlink:href="classmappel_1_1Gauss2DMAP.html" target="_top" xlink:title="A 2D Gaussian with fixed PSF under an Poisson Read Noise assumption and MAP Objective. ">
<polygon fill="white" stroke="black" points="0,-55.5 0,-73.5 110,-73.5 110,-55.5 0,-55.5"/>
<text text-anchor="middle" x="55" y="-62.3" font-family="Helvetica,sans-Serif" font-size="9.00">mappel::Gauss2DMAP</text>
</a>
</g>
</g>
<!-- Node5&#45;&gt;Node6 -->
<g id="edge5" class="edge"><title>Node5&#45;&gt;Node6</title>
<path fill="none" stroke="midnightblue" d="M150.733,-106.418C127.246,-96.3794 94.4746,-82.3722 74.0102,-73.6253"/>
<polygon fill="midnightblue" stroke="midnightblue" points="149.596,-109.738 160.167,-110.45 152.347,-103.302 149.596,-109.738"/>
</g>
<!-- Node7 -->
<g id="node7" class="node"><title>Node7</title>
<g id="a_node7"><a xlink:href="classmappel_1_1Gauss2DMLE.html" target="_top" xlink:title="A 2D Gaussian with fixed PSF under an Poisson noise assumption and maximum&#45;likelihood objective...">
<polygon fill="white" stroke="black" points="128.5,-55.5 128.5,-73.5 237.5,-73.5 237.5,-55.5 128.5,-55.5"/>
<text text-anchor="middle" x="183" y="-62.3" font-family="Helvetica,sans-Serif" font-size="9.00">mappel::Gauss2DMLE</text>
</a>
</g>
</g>
<!-- Node5&#45;&gt;Node7 -->
<g id="edge6" class="edge"><title>Node5&#45;&gt;Node7</title>
<path fill="none" stroke="midnightblue" d="M180.383,-100.175C181.068,-91.0945 181.861,-80.5949 182.392,-73.5496"/>
<polygon fill="midnightblue" stroke="midnightblue" points="176.888,-99.9837 179.625,-110.219 183.868,-100.511 176.888,-99.9837"/>
</g>
<!-- Node9 -->
<g id="node9" class="node"><title>Node9</title>
<g id="a_node9"><a xlink:href="classmappel_1_1Gauss2DsModel.html" target="_top" xlink:title="A base class for 2D Gaussian PSF where the gaussian sigma is controlled by a single scalar parameter ...">
<polygon fill="white" stroke="black" points="260,-55.5 260,-73.5 380,-73.5 380,-55.5 260,-55.5"/>
<text text-anchor="middle" x="320" y="-62.3" font-family="Helvetica,sans-Serif" font-size="9.00">mappel::Gauss2DsModel</text>
</a>
</g>
</g>
<!-- Node8&#45;&gt;Node9 -->
<g id="edge8" class="edge"><title>Node8&#45;&gt;Node9</title>
<path fill="none" stroke="midnightblue" d="M320,-100.175C320,-91.0945 320,-80.5949 320,-73.5496"/>
<polygon fill="midnightblue" stroke="midnightblue" points="316.5,-100.219 320,-110.219 323.5,-100.219 316.5,-100.219"/>
</g>
<!-- Node10 -->
<g id="node10" class="node"><title>Node10</title>
<g id="a_node10"><a xlink:href="classmappel_1_1Gauss2DsMAP.html" target="_top" xlink:title="A 2D Gaussian with a variable scalar PSF sigma under a Poisson noise assumption using a maximum a&#45;pos...">
<polygon fill="white" stroke="black" points="197,-0.5 197,-18.5 311,-18.5 311,-0.5 197,-0.5"/>
<text text-anchor="middle" x="254" y="-7.3" font-family="Helvetica,sans-Serif" font-size="9.00">mappel::Gauss2DsMAP</text>
</a>
</g>
</g>
<!-- Node9&#45;&gt;Node10 -->
<g id="edge9" class="edge"><title>Node9&#45;&gt;Node10</title>
<path fill="none" stroke="midnightblue" d="M301.851,-48.9259C289.693,-39.1622 274.135,-26.6693 264.118,-18.6253"/>
<polygon fill="midnightblue" stroke="midnightblue" points="299.987,-51.9181 309.976,-55.4504 304.37,-46.46 299.987,-51.9181"/>
</g>
<!-- Node11 -->
<g id="node11" class="node"><title>Node11</title>
<g id="a_node11"><a xlink:href="classmappel_1_1Gauss2DsMLE.html" target="_top" xlink:title="A 2D Gaussian with a variable scalar PSF sigma under a Poisson noise assumption using a maximum&#45;likel...">
<polygon fill="white" stroke="black" points="329.5,-0.5 329.5,-18.5 442.5,-18.5 442.5,-0.5 329.5,-0.5"/>
<text text-anchor="middle" x="386" y="-7.3" font-family="Helvetica,sans-Serif" font-size="9.00">mappel::Gauss2DsMLE</text>
</a>
</g>
</g>
<!-- Node9&#45;&gt;Node11 -->
<g id="edge10" class="edge"><title>Node9&#45;&gt;Node11</title>
<path fill="none" stroke="midnightblue" d="M338.149,-48.9259C350.307,-39.1622 365.865,-26.6693 375.882,-18.6253"/>
<polygon fill="midnightblue" stroke="midnightblue" points="335.63,-46.46 330.024,-55.4504 340.013,-51.9181 335.63,-46.46"/>
</g>
</g>
</svg>
