<?xml version="1.0" encoding="UTF-8" standalone="no"?>
<!DOCTYPE svg PUBLIC "-//W3C//DTD SVG 1.1//EN"
 "http://www.w3.org/Graphics/SVG/1.1/DTD/svg11.dtd">
<!-- Generated by graphviz version 2.38.0 (20140413.2041)
 -->
<!-- Title: mappel::TrustRegionMaximizer::solve_TR_subproblem Pages: 1 -->
<svg width="303pt" height="64pt"
 viewBox="0.00 0.00 303.00 64.00" xmlns="http://www.w3.org/2000/svg" xmlns:xlink="http://www.w3.org/1999/xlink">
<g id="graph0" class="graph" transform="scale(1 1) rotate(0) translate(4 60)">
<title>mappel::TrustRegionMaximizer::solve_TR_subproblem</title>
<polygon fill="white" stroke="none" points="-4,4 -4,-60 299,-60 299,4 -4,4"/>
<!-- Node1 -->
<g id="node1" class="node"><title>Node1</title>
<polygon fill="#bfbfbf" stroke="black" points="0,-13.5 0,-41.5 144,-41.5 144,-13.5 0,-13.5"/>
<text text-anchor="start" x="8" y="-30.3" font-family="Helvetica,sans-Serif" font-size="9.00">mappel::TrustRegionMaximizer</text>
<text text-anchor="middle" x="72" y="-20.3" font-family="Helvetica,sans-Serif" font-size="9.00">::solve_TR_subproblem</text>
</g>
<!-- Node2 -->
<g id="node2" class="node"><title>Node2</title>
<g id="a_node2"><a xlink:href="namespacemappel.html#abc3956f093388acda04ee4455d01b515" target="_top" xlink:title="mappel::cholesky">
<polygon fill="white" stroke="black" points="193.5,-37.5 193.5,-55.5 281.5,-55.5 281.5,-37.5 193.5,-37.5"/>
<text text-anchor="middle" x="237.5" y="-44.3" font-family="Helvetica,sans-Serif" font-size="9.00">mappel::cholesky</text>
</a>
</g>
</g>
<!-- Node1&#45;&gt;Node2 -->
<g id="edge1" class="edge"><title>Node1&#45;&gt;Node2</title>
<path fill="none" stroke="midnightblue" d="M144.238,-35.7784C157.28,-37.2941 170.686,-38.8519 183.097,-40.2941"/>
<polygon fill="midnightblue" stroke="midnightblue" points="182.921,-43.7972 193.258,-41.475 183.729,-36.844 182.921,-43.7972"/>
</g>
<!-- Node3 -->
<g id="node3" class="node"><title>Node3</title>
<g id="a_node3"><a xlink:href="namespacemappel.html#a83b18a0a288ca81106d44e26d830d6d5" target="_top" xlink:title="mappel::cholesky_solve">
<polygon fill="white" stroke="black" points="180,-0.5 180,-18.5 295,-18.5 295,-0.5 180,-0.5"/>
<text text-anchor="middle" x="237.5" y="-7.3" font-family="Helvetica,sans-Serif" font-size="9.00">mappel::cholesky_solve</text>
</a>
</g>
</g>
<!-- Node1&#45;&gt;Node3 -->
<g id="edge2" class="edge"><title>Node1&#45;&gt;Node3</title>
<path fill="none" stroke="midnightblue" d="M144.238,-19.6573C152.681,-18.7278 161.275,-17.7816 169.654,-16.8592"/>
<polygon fill="midnightblue" stroke="midnightblue" points="170.185,-20.3219 179.742,-15.7486 169.419,-13.364 170.185,-20.3219"/>
</g>
</g>
</svg>
