<?xml version="1.0" encoding="UTF-8" standalone="no"?>
<!DOCTYPE svg PUBLIC "-//W3C//DTD SVG 1.1//EN"
 "http://www.w3.org/Graphics/SVG/1.1/DTD/svg11.dtd">
<!-- Generated by graphviz version 2.38.0 (20140413.2041)
 -->
<!-- Title: mappel::Gauss1DsModel::get_max_sigma Pages: 1 -->
<svg width="440pt" height="107pt"
 viewBox="0.00 0.00 440.00 107.00" xmlns="http://www.w3.org/2000/svg" xmlns:xlink="http://www.w3.org/1999/xlink">
<g id="graph0" class="graph" transform="scale(1 1) rotate(0) translate(4 103)">
<title>mappel::Gauss1DsModel::get_max_sigma</title>
<polygon fill="white" stroke="none" points="-4,4 -4,-103 436,-103 436,4 -4,4"/>
<!-- Node1 -->
<g id="node1" class="node"><title>Node1</title>
<polygon fill="#bfbfbf" stroke="black" points="0,-46.5 0,-74.5 120,-74.5 120,-46.5 0,-46.5"/>
<text text-anchor="start" x="8" y="-63.3" font-family="Helvetica,sans-Serif" font-size="9.00">mappel::Gauss1DsModel</text>
<text text-anchor="middle" x="60" y="-53.3" font-family="Helvetica,sans-Serif" font-size="9.00">::get_max_sigma</text>
</g>
<!-- Node2 -->
<g id="node2" class="node"><title>Node2</title>
<g id="a_node2"><a xlink:href="classmappel_1_1Gauss1DsModel.html#a3332a06f7288311ec560427e360c00be" target="_top" xlink:title="mappel::Gauss1DsModel\l::get_stats">
<polygon fill="white" stroke="black" points="156,-70.5 156,-98.5 276,-98.5 276,-70.5 156,-70.5"/>
<text text-anchor="start" x="164" y="-87.3" font-family="Helvetica,sans-Serif" font-size="9.00">mappel::Gauss1DsModel</text>
<text text-anchor="middle" x="216" y="-77.3" font-family="Helvetica,sans-Serif" font-size="9.00">::get_stats</text>
</a>
</g>
</g>
<!-- Node1&#45;&gt;Node2 -->
<g id="edge1" class="edge"><title>Node1&#45;&gt;Node2</title>
<path fill="none" stroke="midnightblue" d="M130.089,-71.2671C138.672,-72.6048 147.388,-73.9631 155.804,-75.2746"/>
<polygon fill="midnightblue" stroke="midnightblue" points="130.52,-67.7921 120.1,-69.7104 129.442,-74.7086 130.52,-67.7921"/>
</g>
<!-- Node3 -->
<g id="node3" class="node"><title>Node3</title>
<g id="a_node3"><a xlink:href="classmappel_1_1Gauss1DsModel.html#ab57025e678a631f4311f33aae1a1674b" target="_top" xlink:title="mappel::Gauss1DsModel\l::set_min_sigma">
<polygon fill="white" stroke="black" points="156,-23.5 156,-51.5 276,-51.5 276,-23.5 156,-23.5"/>
<text text-anchor="start" x="164" y="-40.3" font-family="Helvetica,sans-Serif" font-size="9.00">mappel::Gauss1DsModel</text>
<text text-anchor="middle" x="216" y="-30.3" font-family="Helvetica,sans-Serif" font-size="9.00">::set_min_sigma</text>
</a>
</g>
</g>
<!-- Node1&#45;&gt;Node3 -->
<g id="edge2" class="edge"><title>Node1&#45;&gt;Node3</title>
<path fill="none" stroke="midnightblue" d="M130.089,-50.1815C138.672,-48.8996 147.388,-47.5979 155.804,-46.341"/>
<polygon fill="midnightblue" stroke="midnightblue" points="129.473,-46.7346 120.1,-51.6734 130.507,-53.6578 129.473,-46.7346"/>
</g>
<!-- Node4 -->
<g id="node4" class="node"><title>Node4</title>
<g id="a_node4"><a xlink:href="classmappel_1_1Gauss1DsModel.html#a32cda067f5c42abf042ed749fc3104c5" target="_top" xlink:title="mappel::Gauss1DsModel\l::set_min_sigma">
<polygon fill="white" stroke="black" points="312,-47.5 312,-75.5 432,-75.5 432,-47.5 312,-47.5"/>
<text text-anchor="start" x="320" y="-64.3" font-family="Helvetica,sans-Serif" font-size="9.00">mappel::Gauss1DsModel</text>
<text text-anchor="middle" x="372" y="-54.3" font-family="Helvetica,sans-Serif" font-size="9.00">::set_min_sigma</text>
</a>
</g>
</g>
<!-- Node3&#45;&gt;Node4 -->
<g id="edge3" class="edge"><title>Node3&#45;&gt;Node4</title>
<path fill="none" stroke="midnightblue" d="M286.089,-48.2671C294.672,-49.6048 303.388,-50.9631 311.804,-52.2746"/>
<polygon fill="midnightblue" stroke="midnightblue" points="286.52,-44.7921 276.1,-46.7104 285.442,-51.7086 286.52,-44.7921"/>
</g>
<!-- Node5 -->
<g id="node5" class="node"><title>Node5</title>
<g id="a_node5"><a xlink:href="classmappel_1_1Gauss2DsModel.html#a63d3481174444ff7f7b603a47aa8dcc1" target="_top" xlink:title="mappel::Gauss2DsModel\l::set_min_sigma">
<polygon fill="white" stroke="black" points="312,-0.5 312,-28.5 432,-28.5 432,-0.5 312,-0.5"/>
<text text-anchor="start" x="320" y="-17.3" font-family="Helvetica,sans-Serif" font-size="9.00">mappel::Gauss2DsModel</text>
<text text-anchor="middle" x="372" y="-7.3" font-family="Helvetica,sans-Serif" font-size="9.00">::set_min_sigma</text>
</a>
</g>
</g>
<!-- Node3&#45;&gt;Node5 -->
<g id="edge4" class="edge"><title>Node3&#45;&gt;Node5</title>
<path fill="none" stroke="midnightblue" d="M286.089,-27.1815C294.672,-25.8996 303.388,-24.5979 311.804,-23.341"/>
<polygon fill="midnightblue" stroke="midnightblue" points="285.473,-23.7346 276.1,-28.6734 286.507,-30.6578 285.473,-23.7346"/>
</g>
</g>
</svg>
