<?xml version="1.0" encoding="UTF-8" standalone="no"?>
<!DOCTYPE svg PUBLIC "-//W3C//DTD SVG 1.1//EN"
 "http://www.w3.org/Graphics/SVG/1.1/DTD/svg11.dtd">
<!-- Generated by graphviz version 2.38.0 (20140413.2041)
 -->
<!-- Title: mappel::Gauss1DsModel::Stencil::Stencil Pages: 1 -->
<!--zoomable 308 -->
<svg id="main" version="1.1" xmlns="http://www.w3.org/2000/svg" xmlns:xlink="http://www.w3.org/1999/xlink" xml:space="preserve" onload="init(evt)">
<style type="text/css"><![CDATA[
.edge:hover path { stroke: red; }
.edge:hover polygon { stroke: red; fill: red; }
]]></style>
<script type="text/javascript"><![CDATA[
var edges = document.getElementsByTagName('g');
if (edges && edges.length) {
  for (var i=0;i<edges.length;i++) {
    if (edges[i].id.substr(0,4)=='edge') {
      edges[i].setAttribute('class','edge');
    }
  }
}
]]></script>
        <defs>
                <circle id="rim" cx="0" cy="0" r="7"/>
                <circle id="rim2" cx="0" cy="0" r="3.5"/>
                <g id="zoomPlus">
                        <use xlink:href="#rim" fill="#404040">
                                <set attributeName="fill" to="#808080" begin="zoomplus.mouseover" end="zoomplus.mouseout"/>
                        </use>
                        <path d="M-4,0h8M0,-4v8" fill="none" stroke="white" stroke-width="1.5" pointer-events="none"/>
                </g>
                <g id="zoomMin">
                        <use xlink:href="#rim" fill="#404040">
                                <set attributeName="fill" to="#808080" begin="zoomminus.mouseover" end="zoomminus.mouseout"/>
                        </use>
                        <path d="M-4,0h8" fill="none" stroke="white" stroke-width="1.5" pointer-events="none"/>
                </g>
                <g id="dirArrow">
                        <path fill="none" stroke="white" stroke-width="1.5" d="M0,-3.0v7 M-2.5,-0.5L0,-3.0L2.5,-0.5"/>
                </g>
               <g id="resetDef">
                       <use xlink:href="#rim2" fill="#404040">
                               <set attributeName="fill" to="#808080" begin="reset.mouseover" end="reset.mouseout"/>
                       </use>
               </g>
        </defs>

<script type="text/javascript">
var viewWidth = 748;
var viewHeight = 308;
var sectionId = 'dynsection-3';
</script>
<script xlink:href="svgpan.js"/>
<svg id="graph" class="graph">
<g id="viewport">
<title>mappel::Gauss1DsModel::Stencil::Stencil</title>
<polygon fill="white" stroke="none" points="-4,4 -4,-304 744,-304 744,4 -4,4"/>
<!-- Node1 -->
<g id="node1" class="node"><title>Node1</title>
<polygon fill="#bfbfbf" stroke="black" points="0,-79.5 0,-107.5 120,-107.5 120,-79.5 0,-79.5"/>
<text text-anchor="start" x="8" y="-96.3" font-family="Helvetica,sans-Serif" font-size="9.00">mappel::Gauss1DsModel</text>
<text text-anchor="middle" x="60" y="-86.3" font-family="Helvetica,sans-Serif" font-size="9.00">::Stencil::Stencil</text>
</g>
<!-- Node2 -->
<g id="node2" class="node"><title>Node2</title>
<g id="a_node2"><a xlink:href="classmappel_1_1Gauss1DsModel_1_1Stencil.html#a9e8b6059b84e28bea0ba3496bc95e7ce" target="_top" xlink:title="mappel::Gauss1DsModel\l::Stencil::compute_derivatives">
<polygon fill="white" stroke="black" points="156,-155.5 156,-183.5 294,-183.5 294,-155.5 156,-155.5"/>
<text text-anchor="start" x="164" y="-172.3" font-family="Helvetica,sans-Serif" font-size="9.00">mappel::Gauss1DsModel</text>
<text text-anchor="middle" x="225" y="-162.3" font-family="Helvetica,sans-Serif" font-size="9.00">::Stencil::compute_derivatives</text>
</a>
</g>
</g>
<!-- Node1&#45;&gt;Node2 -->
<g id="edge1" class="edge"><title>Node1&#45;&gt;Node2</title>
<path fill="none" stroke="midnightblue" d="M91.277,-107.617C117.581,-119.881 155.856,-137.727 184.552,-151.107"/>
<polygon fill="midnightblue" stroke="midnightblue" points="183.343,-154.405 193.885,-155.459 186.301,-148.061 183.343,-154.405"/>
</g>
<!-- Node6 -->
<g id="node6" class="node"><title>Node6</title>
<g id="a_node6"><a xlink:href="classmappel_1_1Gauss1DsModel_1_1Stencil.html#a91366bc87b44318c0ded04ac99760c27" target="_top" xlink:title="mappel::Gauss1DsModel\l::Stencil::sigma">
<polygon fill="white" stroke="black" points="338,-271.5 338,-299.5 458,-299.5 458,-271.5 338,-271.5"/>
<text text-anchor="start" x="346" y="-288.3" font-family="Helvetica,sans-Serif" font-size="9.00">mappel::Gauss1DsModel</text>
<text text-anchor="middle" x="398" y="-278.3" font-family="Helvetica,sans-Serif" font-size="9.00">::Stencil::sigma</text>
</a>
</g>
</g>
<!-- Node1&#45;&gt;Node6 -->
<g id="edge19" class="edge"><title>Node1&#45;&gt;Node6</title>
<path fill="none" stroke="midnightblue" d="M71.1729,-107.62C87.1077,-128.849 119.89,-169.098 156,-193.5 209.225,-229.468 278.465,-254.013 329.064,-268.643"/>
<polygon fill="midnightblue" stroke="midnightblue" points="328.35,-272.078 338.925,-271.437 330.258,-265.344 328.35,-272.078"/>
</g>
<!-- Node15 -->
<g id="node15" class="node"><title>Node15</title>
<g id="a_node15"><a xlink:href="namespacemappel.html#ac9d449b0121b33962da2c9c13cbb593c" target="_top" xlink:title="mappel::make_d_stencil">
<polygon fill="white" stroke="black" points="167,-84.5 167,-102.5 283,-102.5 283,-84.5 167,-84.5"/>
<text text-anchor="middle" x="225" y="-91.3" font-family="Helvetica,sans-Serif" font-size="9.00">mappel::make_d_stencil</text>
</a>
</g>
</g>
<!-- Node1&#45;&gt;Node15 -->
<g id="edge15" class="edge"><title>Node1&#45;&gt;Node15</title>
<path fill="none" stroke="midnightblue" d="M120.308,-93.5C132.184,-93.5 144.741,-93.5 156.86,-93.5"/>
<polygon fill="midnightblue" stroke="midnightblue" points="156.913,-97.0001 166.913,-93.5 156.913,-90.0001 156.913,-97.0001"/>
</g>
<!-- Node17 -->
<g id="node17" class="node"><title>Node17</title>
<g id="a_node17"><a xlink:href="namespacemappel.html#a7b50d0a17c085d9b25b91c2b17ecb1cc" target="_top" xlink:title="mappel::make_X_stencil">
<polygon fill="white" stroke="black" points="166.5,-47.5 166.5,-65.5 283.5,-65.5 283.5,-47.5 166.5,-47.5"/>
<text text-anchor="middle" x="225" y="-54.3" font-family="Helvetica,sans-Serif" font-size="9.00">mappel::make_X_stencil</text>
</a>
</g>
</g>
<!-- Node1&#45;&gt;Node17 -->
<g id="edge17" class="edge"><title>Node1&#45;&gt;Node17</title>
<path fill="none" stroke="midnightblue" d="M120.308,-80.0375C138.114,-75.9957 157.449,-71.6067 174.546,-67.7257"/>
<polygon fill="midnightblue" stroke="midnightblue" points="175.349,-71.1326 184.326,-65.5058 173.799,-64.3063 175.349,-71.1326"/>
</g>
<!-- Node19 -->
<g id="node19" class="node"><title>Node19</title>
<g id="a_node19"><a xlink:href="classmappel_1_1Gauss1DsModel_1_1Stencil.html#a58c751f2db27f365454fda0db3bfcd1a" target="_top" xlink:title="mappel::Gauss1DsModel\l::Stencil::x">
<polygon fill="white" stroke="black" points="165,-0.5 165,-28.5 285,-28.5 285,-0.5 165,-0.5"/>
<text text-anchor="start" x="173" y="-17.3" font-family="Helvetica,sans-Serif" font-size="9.00">mappel::Gauss1DsModel</text>
<text text-anchor="middle" x="225" y="-7.3" font-family="Helvetica,sans-Serif" font-size="9.00">::Stencil::x</text>
</a>
</g>
</g>
<!-- Node1&#45;&gt;Node19 -->
<g id="edge20" class="edge"><title>Node1&#45;&gt;Node19</title>
<path fill="none" stroke="midnightblue" d="M82.1969,-79.2813C101.011,-67.086 129.541,-49.6154 156,-37.5 160.062,-35.6403 164.319,-33.8504 168.637,-32.1473"/>
<polygon fill="midnightblue" stroke="midnightblue" points="170.016,-35.3681 178.137,-28.5641 167.545,-28.8185 170.016,-35.3681"/>
</g>
<!-- Node3 -->
<g id="node3" class="node"><title>Node3</title>
<g id="a_node3"><a xlink:href="namespacemappel.html#aa5c2f294298c875605ee1e9876b7d116" target="_top" xlink:title="mappel::make_G_stencil">
<polygon fill="white" stroke="black" points="339,-234.5 339,-252.5 457,-252.5 457,-234.5 339,-234.5"/>
<text text-anchor="middle" x="398" y="-241.3" font-family="Helvetica,sans-Serif" font-size="9.00">mappel::make_G_stencil</text>
</a>
</g>
</g>
<!-- Node2&#45;&gt;Node3 -->
<g id="edge2" class="edge"><title>Node2&#45;&gt;Node3</title>
<path fill="none" stroke="midnightblue" d="M248.397,-183.532C268.978,-195.943 300.651,-213.839 330,-225.5 335.521,-227.694 341.403,-229.71 347.3,-231.537"/>
<polygon fill="midnightblue" stroke="midnightblue" points="346.599,-234.978 357.179,-234.428 348.565,-228.26 346.599,-234.978"/>
</g>
<!-- Node2&#45;&gt;Node6 -->
<g id="edge5" class="edge"><title>Node2&#45;&gt;Node6</title>
<path fill="none" stroke="midnightblue" d="M240.335,-183.631C263.975,-206.703 310.461,-251.048 330,-262.5 332.865,-264.179 335.87,-265.76 338.956,-267.244"/>
<polygon fill="midnightblue" stroke="midnightblue" points="337.826,-270.572 348.388,-271.411 340.655,-264.168 337.826,-270.572"/>
</g>
<!-- Node7 -->
<g id="node7" class="node"><title>Node7</title>
<g id="a_node7"><a xlink:href="namespacemappel.html#a8da88490d6ff7d5886b96b66c1bab369" target="_top" xlink:title="mappel::make_DX_stencil">
<polygon fill="white" stroke="black" points="336,-197.5 336,-215.5 460,-215.5 460,-197.5 336,-197.5"/>
<text text-anchor="middle" x="398" y="-204.3" font-family="Helvetica,sans-Serif" font-size="9.00">mappel::make_DX_stencil</text>
</a>
</g>
</g>
<!-- Node2&#45;&gt;Node7 -->
<g id="edge6" class="edge"><title>Node2&#45;&gt;Node7</title>
<path fill="none" stroke="midnightblue" d="M291.136,-183.594C309.125,-187.486 328.391,-191.655 345.49,-195.355"/>
<polygon fill="midnightblue" stroke="midnightblue" points="344.767,-198.779 355.281,-197.473 346.248,-191.937 344.767,-198.779"/>
</g>
<!-- Node9 -->
<g id="node9" class="node"><title>Node9</title>
<g id="a_node9"><a xlink:href="namespacemappel.html#af7636db506977133c8b30d108fede711" target="_top" xlink:title="mappel::make_DXS_stencil">
<polygon fill="white" stroke="black" points="333,-160.5 333,-178.5 463,-178.5 463,-160.5 333,-160.5"/>
<text text-anchor="middle" x="398" y="-167.3" font-family="Helvetica,sans-Serif" font-size="9.00">mappel::make_DXS_stencil</text>
</a>
</g>
</g>
<!-- Node2&#45;&gt;Node9 -->
<g id="edge8" class="edge"><title>Node2&#45;&gt;Node9</title>
<path fill="none" stroke="midnightblue" d="M294.075,-169.5C303.446,-169.5 313.108,-169.5 322.585,-169.5"/>
<polygon fill="midnightblue" stroke="midnightblue" points="322.774,-173 332.774,-169.5 322.774,-166 322.774,-173"/>
</g>
<!-- Node11 -->
<g id="node11" class="node"><title>Node11</title>
<g id="a_node11"><a xlink:href="namespacemappel.html#aef14b765af6f9b85d93f42ab8b84311b" target="_top" xlink:title="mappel::make_DXS2_stencil">
<polygon fill="white" stroke="black" points="330.5,-123.5 330.5,-141.5 465.5,-141.5 465.5,-123.5 330.5,-123.5"/>
<text text-anchor="middle" x="398" y="-130.3" font-family="Helvetica,sans-Serif" font-size="9.00">mappel::make_DXS2_stencil</text>
</a>
</g>
</g>
<!-- Node2&#45;&gt;Node11 -->
<g id="edge11" class="edge"><title>Node2&#45;&gt;Node11</title>
<path fill="none" stroke="midnightblue" d="M291.136,-155.406C309.125,-151.514 328.391,-147.345 345.49,-143.645"/>
<polygon fill="midnightblue" stroke="midnightblue" points="346.248,-147.063 355.281,-141.527 344.767,-140.221 346.248,-147.063"/>
</g>
<!-- Node13 -->
<g id="node13" class="node"><title>Node13</title>
<g id="a_node13"><a xlink:href="namespacemappel.html#abccec04f04b0b10940779c9bbae0e570" target="_top" xlink:title="mappel::make_DXSX_stencil">
<polygon fill="white" stroke="black" points="330,-86.5 330,-104.5 466,-104.5 466,-86.5 330,-86.5"/>
<text text-anchor="middle" x="398" y="-93.3" font-family="Helvetica,sans-Serif" font-size="9.00">mappel::make_DXSX_stencil</text>
</a>
</g>
</g>
<!-- Node2&#45;&gt;Node13 -->
<g id="edge13" class="edge"><title>Node2&#45;&gt;Node13</title>
<path fill="none" stroke="midnightblue" d="M248.397,-155.468C268.978,-143.057 300.651,-125.161 330,-113.5 335.521,-111.306 341.403,-109.29 347.3,-107.463"/>
<polygon fill="midnightblue" stroke="midnightblue" points="348.565,-110.74 357.179,-104.572 346.599,-104.022 348.565,-110.74"/>
</g>
<!-- Node4 -->
<g id="node4" class="node"><title>Node4</title>
<g id="a_node4"><a xlink:href="namespacemappel.html#a5ca82edc201e8605107a991493ad0d5e" target="_top" xlink:title="mappel::fill_G_stencil">
<polygon fill="white" stroke="black" points="511,-234.5 511,-252.5 615,-252.5 615,-234.5 511,-234.5"/>
<text text-anchor="middle" x="563" y="-241.3" font-family="Helvetica,sans-Serif" font-size="9.00">mappel::fill_G_stencil</text>
</a>
</g>
</g>
<!-- Node3&#45;&gt;Node4 -->
<g id="edge3" class="edge"><title>Node3&#45;&gt;Node4</title>
<path fill="none" stroke="midnightblue" d="M457.386,-243.5C471.426,-243.5 486.464,-243.5 500.635,-243.5"/>
<polygon fill="midnightblue" stroke="midnightblue" points="500.774,-247 510.774,-243.5 500.774,-240 500.774,-247"/>
</g>
<!-- Node5 -->
<g id="node5" class="node"><title>Node5</title>
<g id="a_node5"><a xlink:href="namespacemappel.html#a8475cdb3edacceb0ae215c3ebd1f33c1" target="_top" xlink:title="mappel::square">
<polygon fill="white" stroke="black" points="660,-197.5 660,-215.5 740,-215.5 740,-197.5 660,-197.5"/>
<text text-anchor="middle" x="700" y="-204.3" font-family="Helvetica,sans-Serif" font-size="9.00">mappel::square</text>
</a>
</g>
</g>
<!-- Node4&#45;&gt;Node5 -->
<g id="edge4" class="edge"><title>Node4&#45;&gt;Node5</title>
<path fill="none" stroke="midnightblue" d="M597.025,-234.449C614.839,-229.566 637.034,-223.483 656.163,-218.24"/>
<polygon fill="midnightblue" stroke="midnightblue" points="657.129,-221.605 665.848,-215.586 655.279,-214.854 657.129,-221.605"/>
</g>
<!-- Node8 -->
<g id="node8" class="node"><title>Node8</title>
<g id="a_node8"><a xlink:href="namespacemappel.html#ad2dd4330fc626fa673a3acf691d6b9a7" target="_top" xlink:title="mappel::fill_DX_stencil">
<polygon fill="white" stroke="black" points="508,-197.5 508,-215.5 618,-215.5 618,-197.5 508,-197.5"/>
<text text-anchor="middle" x="563" y="-204.3" font-family="Helvetica,sans-Serif" font-size="9.00">mappel::fill_DX_stencil</text>
</a>
</g>
</g>
<!-- Node7&#45;&gt;Node8 -->
<g id="edge7" class="edge"><title>Node7&#45;&gt;Node8</title>
<path fill="none" stroke="midnightblue" d="M460.159,-206.5C472.368,-206.5 485.228,-206.5 497.545,-206.5"/>
<polygon fill="midnightblue" stroke="midnightblue" points="497.737,-210 507.737,-206.5 497.737,-203 497.737,-210"/>
</g>
<!-- Node10 -->
<g id="node10" class="node"><title>Node10</title>
<g id="a_node10"><a xlink:href="namespacemappel.html#ab0cb62f6dcecae5ff19468d87a283e7a" target="_top" xlink:title="mappel::fill_DXS_stencil">
<polygon fill="white" stroke="black" points="505,-160.5 505,-178.5 621,-178.5 621,-160.5 505,-160.5"/>
<text text-anchor="middle" x="563" y="-167.3" font-family="Helvetica,sans-Serif" font-size="9.00">mappel::fill_DXS_stencil</text>
</a>
</g>
</g>
<!-- Node9&#45;&gt;Node10 -->
<g id="edge9" class="edge"><title>Node9&#45;&gt;Node10</title>
<path fill="none" stroke="midnightblue" d="M463.422,-169.5C473.7,-169.5 484.357,-169.5 494.7,-169.5"/>
<polygon fill="midnightblue" stroke="midnightblue" points="494.912,-173 504.912,-169.5 494.912,-166 494.912,-173"/>
</g>
<!-- Node10&#45;&gt;Node5 -->
<g id="edge10" class="edge"><title>Node10&#45;&gt;Node5</title>
<path fill="none" stroke="midnightblue" d="M597.025,-178.551C614.839,-183.434 637.034,-189.517 656.163,-194.76"/>
<polygon fill="midnightblue" stroke="midnightblue" points="655.279,-198.146 665.848,-197.414 657.129,-191.395 655.279,-198.146"/>
</g>
<!-- Node12 -->
<g id="node12" class="node"><title>Node12</title>
<g id="a_node12"><a xlink:href="namespacemappel.html#a445e83c8273da9b3a50cc10d038ed612" target="_top" xlink:title="mappel::fill_DXS2_stencil">
<polygon fill="white" stroke="black" points="502,-123.5 502,-141.5 624,-141.5 624,-123.5 502,-123.5"/>
<text text-anchor="middle" x="563" y="-130.3" font-family="Helvetica,sans-Serif" font-size="9.00">mappel::fill_DXS2_stencil</text>
</a>
</g>
</g>
<!-- Node11&#45;&gt;Node12 -->
<g id="edge12" class="edge"><title>Node11&#45;&gt;Node12</title>
<path fill="none" stroke="midnightblue" d="M465.769,-132.5C474.363,-132.5 483.183,-132.5 491.83,-132.5"/>
<polygon fill="midnightblue" stroke="midnightblue" points="491.876,-136 501.876,-132.5 491.876,-129 491.876,-136"/>
</g>
<!-- Node14 -->
<g id="node14" class="node"><title>Node14</title>
<g id="a_node14"><a xlink:href="namespacemappel.html#ad3a6553e54dc90232fc04c93731fc69c" target="_top" xlink:title="mappel::fill_DXSX_stencil">
<polygon fill="white" stroke="black" points="502,-86.5 502,-104.5 624,-104.5 624,-86.5 502,-86.5"/>
<text text-anchor="middle" x="563" y="-93.3" font-family="Helvetica,sans-Serif" font-size="9.00">mappel::fill_DXSX_stencil</text>
</a>
</g>
</g>
<!-- Node13&#45;&gt;Node14 -->
<g id="edge14" class="edge"><title>Node13&#45;&gt;Node14</title>
<path fill="none" stroke="midnightblue" d="M466.239,-95.5C474.656,-95.5 483.282,-95.5 491.744,-95.5"/>
<polygon fill="midnightblue" stroke="midnightblue" points="491.958,-99.0001 501.958,-95.5 491.958,-92.0001 491.958,-99.0001"/>
</g>
<!-- Node16 -->
<g id="node16" class="node"><title>Node16</title>
<g id="a_node16"><a xlink:href="namespacemappel.html#a0bd2fc62ed44e755a6777d1209fe6bac" target="_top" xlink:title="mappel::fill_d_stencil">
<polygon fill="white" stroke="black" points="346.5,-49.5 346.5,-67.5 449.5,-67.5 449.5,-49.5 346.5,-49.5"/>
<text text-anchor="middle" x="398" y="-56.3" font-family="Helvetica,sans-Serif" font-size="9.00">mappel::fill_d_stencil</text>
</a>
</g>
</g>
<!-- Node15&#45;&gt;Node16 -->
<g id="edge16" class="edge"><title>Node15&#45;&gt;Node16</title>
<path fill="none" stroke="midnightblue" d="M270.037,-84.4866C292.29,-79.9319 319.487,-74.3652 342.993,-69.5541"/>
<polygon fill="midnightblue" stroke="midnightblue" points="343.721,-72.9778 352.816,-67.5436 342.317,-66.12 343.721,-72.9778"/>
</g>
<!-- Node18 -->
<g id="node18" class="node"><title>Node18</title>
<g id="a_node18"><a xlink:href="namespacemappel.html#ab6a11cd06ff348138cb04635b03a6de2" target="_top" xlink:title="mappel::fill_X_stencil">
<polygon fill="white" stroke="black" points="346,-12.5 346,-30.5 450,-30.5 450,-12.5 346,-12.5"/>
<text text-anchor="middle" x="398" y="-19.3" font-family="Helvetica,sans-Serif" font-size="9.00">mappel::fill_X_stencil</text>
</a>
</g>
</g>
<!-- Node17&#45;&gt;Node18 -->
<g id="edge18" class="edge"><title>Node17&#45;&gt;Node18</title>
<path fill="none" stroke="midnightblue" d="M270.037,-47.4866C292.29,-42.9319 319.487,-37.3652 342.993,-32.5541"/>
<polygon fill="midnightblue" stroke="midnightblue" points="343.721,-35.9778 352.816,-30.5436 342.317,-29.12 343.721,-35.9778"/>
</g>
</g>
</svg>
        <g id="navigator" transform="translate(0 0)" fill="#404254">
                <rect fill="#f2f5e9" fill-opacity="0.5" stroke="#606060" stroke-width=".5" x="0" y="0" width="60" height="60"/>
                <use id="zoomplus" xlink:href="#zoomPlus" x="17" y="9" onmousedown="handleZoom(evt,'in')"/>
                <use id="zoomminus" xlink:href="#zoomMin" x="42" y="9" onmousedown="handleZoom(evt,'out')"/>
                <use id="reset" xlink:href="#resetDef" x="30" y="36" onmousedown="handleReset()"/>
                <g id="arrowUp" xlink:href="#dirArrow" transform="translate(30 24)" onmousedown="handlePan(0,-1)">
                  <use xlink:href="#rim" fill="#404040">
                        <set attributeName="fill" to="#808080" begin="arrowUp.mouseover" end="arrowUp.mouseout"/>
                  </use>
                  <path fill="none" stroke="white" stroke-width="1.5" d="M0,-3.0v7 M-2.5,-0.5L0,-3.0L2.5,-0.5"/>
                </g>
                <g id="arrowRight" xlink:href="#dirArrow" transform="rotate(90) translate(36 -43)" onmousedown="handlePan(1,0)">
                  <use xlink:href="#rim" fill="#404040">
                        <set attributeName="fill" to="#808080" begin="arrowRight.mouseover" end="arrowRight.mouseout"/>
                  </use>
                  <path fill="none" stroke="white" stroke-width="1.5" d="M0,-3.0v7 M-2.5,-0.5L0,-3.0L2.5,-0.5"/>
                </g>
                <g id="arrowDown" xlink:href="#dirArrow" transform="rotate(180) translate(-30 -48)" onmousedown="handlePan(0,1)">
                  <use xlink:href="#rim" fill="#404040">
                        <set attributeName="fill" to="#808080" begin="arrowDown.mouseover" end="arrowDown.mouseout"/>
                  </use>
                  <path fill="none" stroke="white" stroke-width="1.5" d="M0,-3.0v7 M-2.5,-0.5L0,-3.0L2.5,-0.5"/>
                </g>
                <g id="arrowLeft" xlink:href="#dirArrow" transform="rotate(270) translate(-36 17)" onmousedown="handlePan(-1,0)">
                  <use xlink:href="#rim" fill="#404040">
                        <set attributeName="fill" to="#808080" begin="arrowLeft.mouseover" end="arrowLeft.mouseout"/>
                  </use>
                  <path fill="none" stroke="white" stroke-width="1.5" d="M0,-3.0v7 M-2.5,-0.5L0,-3.0L2.5,-0.5"/>
                </g>
        </g>
        <svg viewBox="0 0 15 15" width="100%" height="30px" preserveAspectRatio="xMaxYMin meet">
         <g id="arrow_out" transform="scale(0.3 0.3)">
          <a xlink:href="classmappel_1_1Gauss1DsModel_1_1Stencil_ae4f12261a80d8ed1a2d3652c0e7b629b_cgraph_org.svg" target="_base">
           <rect id="button" ry="5" rx="5" y="6" x="6" height="38" width="38"
                fill="#f2f5e9" fill-opacity="0.5" stroke="#606060" stroke-width="1.0"/>
           <path id="arrow"
             d="M 11.500037,31.436501 C 11.940474,20.09759 22.043105,11.32322 32.158766,21.979434 L 37.068811,17.246167 C 37.068811,17.246167 37.088388,32 37.088388,32 L 22.160133,31.978069 C 22.160133,31.978069 26.997745,27.140456 26.997745,27.140456 C 18.528582,18.264221 13.291696,25.230495 11.500037,31.436501 z"
             style="fill:#404040;"/>
          </a>
         </g>
        </svg>
</svg>
