<?xml version="1.0" encoding="UTF-8" standalone="no"?>
<!DOCTYPE svg PUBLIC "-//W3C//DTD SVG 1.1//EN"
 "http://www.w3.org/Graphics/SVG/1.1/DTD/svg11.dtd">
<!-- Generated by graphviz version 2.38.0 (20140413.2041)
 -->
<!-- Title: mappel::IterativeMaximizer::get_stats Pages: 1 -->
<svg width="431pt" height="37pt"
 viewBox="0.00 0.00 431.00 37.00" xmlns="http://www.w3.org/2000/svg" xmlns:xlink="http://www.w3.org/1999/xlink">
<g id="graph0" class="graph" transform="scale(1 1) rotate(0) translate(4 33)">
<title>mappel::IterativeMaximizer::get_stats</title>
<polygon fill="white" stroke="none" points="-4,4 -4,-33 427,-33 427,4 -4,4"/>
<!-- Node1 -->
<g id="node1" class="node"><title>Node1</title>
<polygon fill="#bfbfbf" stroke="black" points="0,-0.5 0,-28.5 126,-28.5 126,-0.5 0,-0.5"/>
<text text-anchor="start" x="8" y="-17.3" font-family="Helvetica,sans-Serif" font-size="9.00">mappel::IterativeMaximizer</text>
<text text-anchor="middle" x="63" y="-7.3" font-family="Helvetica,sans-Serif" font-size="9.00">::get_stats</text>
</g>
<!-- Node2 -->
<g id="node2" class="node"><title>Node2</title>
<g id="a_node2"><a xlink:href="classmappel_1_1ThreadedEstimator.html#ab216e13ec19785839bc73caf7fac1c91" target="_top" xlink:title="mappel::ThreadedEstimator\l::get_stats">
<polygon fill="white" stroke="black" points="162,-0.5 162,-28.5 292,-28.5 292,-0.5 162,-0.5"/>
<text text-anchor="start" x="170" y="-17.3" font-family="Helvetica,sans-Serif" font-size="9.00">mappel::ThreadedEstimator</text>
<text text-anchor="middle" x="227" y="-7.3" font-family="Helvetica,sans-Serif" font-size="9.00">::get_stats</text>
</a>
</g>
</g>
<!-- Node1&#45;&gt;Node2 -->
<g id="edge1" class="edge"><title>Node1&#45;&gt;Node2</title>
<path fill="none" stroke="midnightblue" d="M126.17,-14.5C134.572,-14.5 143.259,-14.5 151.843,-14.5"/>
<polygon fill="midnightblue" stroke="midnightblue" points="151.85,-18.0001 161.85,-14.5 151.85,-11.0001 151.85,-18.0001"/>
</g>
<!-- Node3 -->
<g id="node3" class="node"><title>Node3</title>
<g id="a_node3"><a xlink:href="classmappel_1_1Estimator.html#a876af9a1a1a6bf174c63716f3348d735" target="_top" xlink:title="mappel::Estimator::\lget_stats">
<polygon fill="white" stroke="black" points="328,-0.5 328,-28.5 423,-28.5 423,-0.5 328,-0.5"/>
<text text-anchor="start" x="336" y="-17.3" font-family="Helvetica,sans-Serif" font-size="9.00">mappel::Estimator::</text>
<text text-anchor="middle" x="375.5" y="-7.3" font-family="Helvetica,sans-Serif" font-size="9.00">get_stats</text>
</a>
</g>
</g>
<!-- Node2&#45;&gt;Node3 -->
<g id="edge2" class="edge"><title>Node2&#45;&gt;Node3</title>
<path fill="none" stroke="midnightblue" d="M292.257,-14.5C300.784,-14.5 309.475,-14.5 317.86,-14.5"/>
<polygon fill="midnightblue" stroke="midnightblue" points="317.904,-18.0001 327.904,-14.5 317.904,-11.0001 317.904,-18.0001"/>
</g>
</g>
</svg>
