<?xml version="1.0" encoding="UTF-8" standalone="no"?>
<!DOCTYPE svg PUBLIC "-//W3C//DTD SVG 1.1//EN"
 "http://www.w3.org/Graphics/SVG/1.1/DTD/svg11.dtd">
<!-- Generated by graphviz version 2.38.0 (20140413.2041)
 -->
<!-- Title: mappel::IterativeMaximizer::MaximizerData::get_theta_sequence Pages: 1 -->
<svg width="298pt" height="84pt"
 viewBox="0.00 0.00 298.00 84.00" xmlns="http://www.w3.org/2000/svg" xmlns:xlink="http://www.w3.org/1999/xlink">
<g id="graph0" class="graph" transform="scale(1 1) rotate(0) translate(4 80)">
<title>mappel::IterativeMaximizer::MaximizerData::get_theta_sequence</title>
<polygon fill="white" stroke="none" points="-4,4 -4,-80 294,-80 294,4 -4,4"/>
<!-- Node1 -->
<g id="node1" class="node"><title>Node1</title>
<polygon fill="#bfbfbf" stroke="black" points="0,-18.5 0,-56.5 126,-56.5 126,-18.5 0,-18.5"/>
<text text-anchor="start" x="8" y="-45.3" font-family="Helvetica,sans-Serif" font-size="9.00">mappel::IterativeMaximizer</text>
<text text-anchor="start" x="8" y="-35.3" font-family="Helvetica,sans-Serif" font-size="9.00">::MaximizerData::get_theta</text>
<text text-anchor="middle" x="63" y="-25.3" font-family="Helvetica,sans-Serif" font-size="9.00">_sequence</text>
</g>
<!-- Node2 -->
<g id="node2" class="node"><title>Node2</title>
<g id="a_node2"><a xlink:href="classmappel_1_1IterativeMaximizer.html#ad83f7b0a5b4d412f419b6089e73a66e0" target="_top" xlink:title="mappel::IterativeMaximizer\l::compute_estimate">
<polygon fill="white" stroke="black" points="163,-47.5 163,-75.5 289,-75.5 289,-47.5 163,-47.5"/>
<text text-anchor="start" x="171" y="-64.3" font-family="Helvetica,sans-Serif" font-size="9.00">mappel::IterativeMaximizer</text>
<text text-anchor="middle" x="226" y="-54.3" font-family="Helvetica,sans-Serif" font-size="9.00">::compute_estimate</text>
</a>
</g>
</g>
<!-- Node1&#45;&gt;Node2 -->
<g id="edge1" class="edge"><title>Node1&#45;&gt;Node2</title>
<path fill="none" stroke="midnightblue" d="M136.224,-48.2663C145.133,-49.5944 154.179,-50.9428 162.919,-52.2457"/>
<polygon fill="midnightblue" stroke="midnightblue" points="136.654,-44.7918 126.247,-46.779 135.621,-51.7153 136.654,-44.7918"/>
</g>
<!-- Node3 -->
<g id="node3" class="node"><title>Node3</title>
<g id="a_node3"><a xlink:href="classmappel_1_1IterativeMaximizer.html#aa45c11a399f29985fc9bd3365e809335" target="_top" xlink:title="mappel::IterativeMaximizer\l::compute_estimate_debug">
<polygon fill="white" stroke="black" points="162,-0.5 162,-28.5 290,-28.5 290,-0.5 162,-0.5"/>
<text text-anchor="start" x="170" y="-17.3" font-family="Helvetica,sans-Serif" font-size="9.00">mappel::IterativeMaximizer</text>
<text text-anchor="middle" x="226" y="-7.3" font-family="Helvetica,sans-Serif" font-size="9.00">::compute_estimate_debug</text>
</a>
</g>
</g>
<!-- Node1&#45;&gt;Node3 -->
<g id="edge2" class="edge"><title>Node1&#45;&gt;Node3</title>
<path fill="none" stroke="midnightblue" d="M136.207,-27.1847C144.761,-25.9627 153.441,-24.7227 161.856,-23.5206"/>
<polygon fill="midnightblue" stroke="midnightblue" points="135.651,-23.7285 126.247,-28.6076 136.641,-30.6581 135.651,-23.7285"/>
</g>
</g>
</svg>
