<?xml version="1.0" encoding="UTF-8" standalone="no"?>
<!DOCTYPE svg PUBLIC "-//W3C//DTD SVG 1.1//EN"
 "http://www.w3.org/Graphics/SVG/1.1/DTD/svg11.dtd">
<!-- Generated by graphviz version 2.38.0 (20140413.2041)
 -->
<!-- Title: mappel::Gauss1DsModel::set_min_sigma Pages: 1 -->
<svg width="447pt" height="131pt"
 viewBox="0.00 0.00 447.00 131.00" xmlns="http://www.w3.org/2000/svg" xmlns:xlink="http://www.w3.org/1999/xlink">
<g id="graph0" class="graph" transform="scale(1 1) rotate(0) translate(4 127)">
<title>mappel::Gauss1DsModel::set_min_sigma</title>
<polygon fill="white" stroke="none" points="-4,4 -4,-127 443,-127 443,4 -4,4"/>
<!-- Node1 -->
<g id="node1" class="node"><title>Node1</title>
<polygon fill="#bfbfbf" stroke="black" points="0,-47.5 0,-75.5 120,-75.5 120,-47.5 0,-47.5"/>
<text text-anchor="start" x="8" y="-64.3" font-family="Helvetica,sans-Serif" font-size="9.00">mappel::Gauss1DsModel</text>
<text text-anchor="middle" x="60" y="-54.3" font-family="Helvetica,sans-Serif" font-size="9.00">::set_min_sigma</text>
</g>
<!-- Node2 -->
<g id="node2" class="node"><title>Node2</title>
<g id="a_node2"><a xlink:href="classmappel_1_1Gauss1DsModel.html#ab57025e678a631f4311f33aae1a1674b" target="_top" xlink:title="mappel::Gauss1DsModel\l::set_min_sigma">
<polygon fill="white" stroke="black" points="156,-47.5 156,-75.5 276,-75.5 276,-47.5 156,-47.5"/>
<text text-anchor="start" x="164" y="-64.3" font-family="Helvetica,sans-Serif" font-size="9.00">mappel::Gauss1DsModel</text>
<text text-anchor="middle" x="216" y="-54.3" font-family="Helvetica,sans-Serif" font-size="9.00">::set_min_sigma</text>
</a>
</g>
</g>
<!-- Node1&#45;&gt;Node2 -->
<g id="edge1" class="edge"><title>Node1&#45;&gt;Node2</title>
<path fill="none" stroke="midnightblue" d="M120.1,-61.5C128.422,-61.5 137.039,-61.5 145.533,-61.5"/>
<polygon fill="midnightblue" stroke="midnightblue" points="145.804,-65.0001 155.804,-61.5 145.804,-58.0001 145.804,-65.0001"/>
</g>
<!-- Node3 -->
<g id="node3" class="node"><title>Node3</title>
<g id="a_node3"><a xlink:href="classmappel_1_1PointEmitterModel.html#a01ce8d6358acbd2575be519dff1df89b" target="_top" xlink:title="mappel::PointEmitterModel\l::check_psf_sigma">
<polygon fill="white" stroke="black" points="312,-94.5 312,-122.5 439,-122.5 439,-94.5 312,-94.5"/>
<text text-anchor="start" x="320" y="-111.3" font-family="Helvetica,sans-Serif" font-size="9.00">mappel::PointEmitterModel</text>
<text text-anchor="middle" x="375.5" y="-101.3" font-family="Helvetica,sans-Serif" font-size="9.00">::check_psf_sigma</text>
</a>
</g>
</g>
<!-- Node2&#45;&gt;Node3 -->
<g id="edge2" class="edge"><title>Node2&#45;&gt;Node3</title>
<path fill="none" stroke="midnightblue" d="M264.255,-75.6015C281.151,-80.6435 300.363,-86.3766 317.963,-91.6286"/>
<polygon fill="midnightblue" stroke="midnightblue" points="316.966,-94.9837 327.55,-94.4894 318.968,-88.276 316.966,-94.9837"/>
</g>
<!-- Node4 -->
<g id="node4" class="node"><title>Node4</title>
<g id="a_node4"><a xlink:href="classmappel_1_1Gauss1DsModel.html#aac5607105b0014d286fd419d0f1741e6" target="_top" xlink:title="mappel::Gauss1DsModel\l::get_max_sigma">
<polygon fill="white" stroke="black" points="315.5,-47.5 315.5,-75.5 435.5,-75.5 435.5,-47.5 315.5,-47.5"/>
<text text-anchor="start" x="323.5" y="-64.3" font-family="Helvetica,sans-Serif" font-size="9.00">mappel::Gauss1DsModel</text>
<text text-anchor="middle" x="375.5" y="-54.3" font-family="Helvetica,sans-Serif" font-size="9.00">::get_max_sigma</text>
</a>
</g>
</g>
<!-- Node2&#45;&gt;Node4 -->
<g id="edge3" class="edge"><title>Node2&#45;&gt;Node4</title>
<path fill="none" stroke="midnightblue" d="M276.095,-61.5C285.619,-61.5 295.551,-61.5 305.287,-61.5"/>
<polygon fill="midnightblue" stroke="midnightblue" points="305.336,-65.0001 315.336,-61.5 305.335,-58.0001 305.336,-65.0001"/>
</g>
<!-- Node5 -->
<g id="node5" class="node"><title>Node5</title>
<g id="a_node5"><a xlink:href="classmappel_1_1PointEmitterModel.html#a737fa5857415b9830fa2e5ccdff48541" target="_top" xlink:title="mappel::PointEmitterModel\l::set_lbound">
<polygon fill="white" stroke="black" points="312,-0.5 312,-28.5 439,-28.5 439,-0.5 312,-0.5"/>
<text text-anchor="start" x="320" y="-17.3" font-family="Helvetica,sans-Serif" font-size="9.00">mappel::PointEmitterModel</text>
<text text-anchor="middle" x="375.5" y="-7.3" font-family="Helvetica,sans-Serif" font-size="9.00">::set_lbound</text>
</a>
</g>
</g>
<!-- Node2&#45;&gt;Node5 -->
<g id="edge4" class="edge"><title>Node2&#45;&gt;Node5</title>
<path fill="none" stroke="midnightblue" d="M264.255,-47.3985C281.151,-42.3565 300.363,-36.6234 317.963,-31.3714"/>
<polygon fill="midnightblue" stroke="midnightblue" points="318.968,-34.724 327.55,-28.5106 316.966,-28.0163 318.968,-34.724"/>
</g>
</g>
</svg>
