<?xml version="1.0" encoding="UTF-8" standalone="no"?>
<!DOCTYPE svg PUBLIC "-//W3C//DTD SVG 1.1//EN"
 "http://www.w3.org/Graphics/SVG/1.1/DTD/svg11.dtd">
<!-- Generated by graphviz version 2.38.0 (20140413.2041)
 -->
<!-- Title: mappel::Gauss1DMAP::operator= Pages: 1 -->
<svg width="474pt" height="178pt"
 viewBox="0.00 0.00 474.00 178.00" xmlns="http://www.w3.org/2000/svg" xmlns:xlink="http://www.w3.org/1999/xlink">
<g id="graph0" class="graph" transform="scale(1 1) rotate(0) translate(4 174)">
<title>mappel::Gauss1DMAP::operator=</title>
<polygon fill="white" stroke="none" points="-4,4 -4,-174 470,-174 470,4 -4,4"/>
<!-- Node1 -->
<g id="node1" class="node"><title>Node1</title>
<polygon fill="#bfbfbf" stroke="black" points="0,-70.5 0,-98.5 110,-98.5 110,-70.5 0,-70.5"/>
<text text-anchor="start" x="8" y="-87.3" font-family="Helvetica,sans-Serif" font-size="9.00">mappel::Gauss1DMAP</text>
<text text-anchor="middle" x="55" y="-77.3" font-family="Helvetica,sans-Serif" font-size="9.00">::operator=</text>
</g>
<!-- Node2 -->
<g id="node2" class="node"><title>Node2</title>
<g id="a_node2"><a xlink:href="classmappel_1_1MAPEstimator.html#ace0b9fc97cf5455fc48cb931feb4bbf7" target="_top" xlink:title="mappel::MAPEstimator\l::operator=">
<polygon fill="white" stroke="black" points="170.5,-141.5 170.5,-169.5 280.5,-169.5 280.5,-141.5 170.5,-141.5"/>
<text text-anchor="start" x="178.5" y="-158.3" font-family="Helvetica,sans-Serif" font-size="9.00">mappel::MAPEstimator</text>
<text text-anchor="middle" x="225.5" y="-148.3" font-family="Helvetica,sans-Serif" font-size="9.00">::operator=</text>
</a>
</g>
</g>
<!-- Node1&#45;&gt;Node2 -->
<g id="edge1" class="edge"><title>Node1&#45;&gt;Node2</title>
<path fill="none" stroke="midnightblue" d="M79.4217,-98.7075C97.2196,-109.075 122.554,-122.931 146,-132.5 151.013,-134.546 156.274,-136.492 161.597,-138.324"/>
<polygon fill="midnightblue" stroke="midnightblue" points="160.615,-141.685 171.208,-141.493 162.807,-135.037 160.615,-141.685"/>
</g>
<!-- Node3 -->
<g id="node3" class="node"><title>Node3</title>
<g id="a_node3"><a xlink:href="classmappel_1_1PoissonNoise1DObjective.html#ab41b3958b61d38ef779fa2b52352e9ff" target="_top" xlink:title="mappel::PoissonNoise1DObjective\l::operator=">
<polygon fill="white" stroke="black" points="146,-94.5 146,-122.5 305,-122.5 305,-94.5 146,-94.5"/>
<text text-anchor="start" x="154" y="-111.3" font-family="Helvetica,sans-Serif" font-size="9.00">mappel::PoissonNoise1DObjective</text>
<text text-anchor="middle" x="225.5" y="-101.3" font-family="Helvetica,sans-Serif" font-size="9.00">::operator=</text>
</a>
</g>
</g>
<!-- Node1&#45;&gt;Node3 -->
<g id="edge2" class="edge"><title>Node1&#45;&gt;Node3</title>
<path fill="none" stroke="midnightblue" d="M110.242,-92.2259C118.402,-93.388 126.993,-94.6118 135.649,-95.8447"/>
<polygon fill="midnightblue" stroke="midnightblue" points="135.426,-99.3481 145.819,-97.2932 136.413,-92.418 135.426,-99.3481"/>
</g>
<!-- Node4 -->
<g id="node4" class="node"><title>Node4</title>
<g id="a_node4"><a xlink:href="classmappel_1_1Gauss1DModel.html#ae26f69421bc365c8b5928276508cc25d" target="_top" xlink:title="mappel::Gauss1DModel\l::operator=">
<polygon fill="white" stroke="black" points="167.5,-47.5 167.5,-75.5 283.5,-75.5 283.5,-47.5 167.5,-47.5"/>
<text text-anchor="start" x="175.5" y="-64.3" font-family="Helvetica,sans-Serif" font-size="9.00">mappel::Gauss1DModel</text>
<text text-anchor="middle" x="225.5" y="-54.3" font-family="Helvetica,sans-Serif" font-size="9.00">::operator=</text>
</a>
</g>
</g>
<!-- Node1&#45;&gt;Node4 -->
<g id="edge3" class="edge"><title>Node1&#45;&gt;Node4</title>
<path fill="none" stroke="midnightblue" d="M110.242,-77.0961C125.237,-75.0493 141.69,-72.8034 157.325,-70.6693"/>
<polygon fill="midnightblue" stroke="midnightblue" points="158.023,-74.1066 167.457,-69.2862 157.076,-67.1709 158.023,-74.1066"/>
</g>
<!-- Node6 -->
<g id="node6" class="node"><title>Node6</title>
<g id="a_node6"><a xlink:href="classmappel_1_1PointEmitterModel.html#aa84b896a736bca3cab2f07e2ccda5489" target="_top" xlink:title="mappel::PointEmitterModel\l::operator=">
<polygon fill="white" stroke="black" points="162,-0.5 162,-28.5 289,-28.5 289,-0.5 162,-0.5"/>
<text text-anchor="start" x="170" y="-17.3" font-family="Helvetica,sans-Serif" font-size="9.00">mappel::PointEmitterModel</text>
<text text-anchor="middle" x="225.5" y="-7.3" font-family="Helvetica,sans-Serif" font-size="9.00">::operator=</text>
</a>
</g>
</g>
<!-- Node1&#45;&gt;Node6 -->
<g id="edge5" class="edge"><title>Node1&#45;&gt;Node6</title>
<path fill="none" stroke="midnightblue" d="M80.6636,-70.4024C98.4464,-60.6104 123.228,-47.7172 146,-38.5 151.808,-36.149 157.937,-33.8977 164.105,-31.781"/>
<polygon fill="midnightblue" stroke="midnightblue" points="165.398,-35.0397 173.789,-28.5708 163.196,-28.3952 165.398,-35.0397"/>
</g>
<!-- Node5 -->
<g id="node5" class="node"><title>Node5</title>
<g id="a_node5"><a xlink:href="classmappel_1_1MCMCAdaptor1D.html#a669bba7517087d842f941957cbbf5fb5" target="_top" xlink:title="mappel::MCMCAdaptor1D\l::operator=">
<polygon fill="white" stroke="black" points="341,-47.5 341,-75.5 466,-75.5 466,-47.5 341,-47.5"/>
<text text-anchor="start" x="349" y="-64.3" font-family="Helvetica,sans-Serif" font-size="9.00">mappel::MCMCAdaptor1D</text>
<text text-anchor="middle" x="403.5" y="-54.3" font-family="Helvetica,sans-Serif" font-size="9.00">::operator=</text>
</a>
</g>
</g>
<!-- Node4&#45;&gt;Node5 -->
<g id="edge4" class="edge"><title>Node4&#45;&gt;Node5</title>
<path fill="none" stroke="midnightblue" d="M283.642,-61.5C298.627,-61.5 314.98,-61.5 330.628,-61.5"/>
<polygon fill="midnightblue" stroke="midnightblue" points="330.787,-65.0001 340.787,-61.5 330.787,-58.0001 330.787,-65.0001"/>
</g>
</g>
</svg>
