<?xml version="1.0" encoding="UTF-8" standalone="no"?>
<!DOCTYPE svg PUBLIC "-//W3C//DTD SVG 1.1//EN"
 "http://www.w3.org/Graphics/SVG/1.1/DTD/svg11.dtd">
<!-- Generated by graphviz version 2.38.0 (20140413.2041)
 -->
<!-- Title: mappel::Gauss1DModel::make_prior_normal_position Pages: 1 -->
<svg width="310pt" height="104pt"
 viewBox="0.00 0.00 310.00 104.00" xmlns="http://www.w3.org/2000/svg" xmlns:xlink="http://www.w3.org/1999/xlink">
<g id="graph0" class="graph" transform="scale(1 1) rotate(0) translate(4 100)">
<title>mappel::Gauss1DModel::make_prior_normal_position</title>
<polygon fill="white" stroke="none" points="-4,4 -4,-100 306,-100 306,4 -4,4"/>
<!-- Node1 -->
<g id="node1" class="node"><title>Node1</title>
<polygon fill="#bfbfbf" stroke="black" points="0,-33.5 0,-61.5 139,-61.5 139,-33.5 0,-33.5"/>
<text text-anchor="start" x="8" y="-50.3" font-family="Helvetica,sans-Serif" font-size="9.00">mappel::Gauss1DModel</text>
<text text-anchor="middle" x="69.5" y="-40.3" font-family="Helvetica,sans-Serif" font-size="9.00">::make_prior_normal_position</text>
</g>
<!-- Node2 -->
<g id="node2" class="node"><title>Node2</title>
<g id="a_node2"><a xlink:href="classmappel_1_1PointEmitterModel.html#a4517e887a22007bd2e03650dcb853c92" target="_top" xlink:title="mappel::PointEmitterModel\l::make_prior_component\l_intensity">
<polygon fill="white" stroke="black" points="175,-57.5 175,-95.5 302,-95.5 302,-57.5 175,-57.5"/>
<text text-anchor="start" x="183" y="-84.3" font-family="Helvetica,sans-Serif" font-size="9.00">mappel::PointEmitterModel</text>
<text text-anchor="start" x="183" y="-74.3" font-family="Helvetica,sans-Serif" font-size="9.00">::make_prior_component</text>
<text text-anchor="middle" x="238.5" y="-64.3" font-family="Helvetica,sans-Serif" font-size="9.00">_intensity</text>
</a>
</g>
</g>
<!-- Node1&#45;&gt;Node2 -->
<g id="edge1" class="edge"><title>Node1&#45;&gt;Node2</title>
<path fill="none" stroke="midnightblue" d="M139.389,-59.4628C147.849,-60.9319 156.515,-62.4368 165.026,-63.9147"/>
<polygon fill="midnightblue" stroke="midnightblue" points="164.472,-67.3709 174.924,-65.6335 165.67,-60.4741 164.472,-67.3709"/>
</g>
<!-- Node3 -->
<g id="node3" class="node"><title>Node3</title>
<g id="a_node3"><a xlink:href="classmappel_1_1PointEmitterModel.html#ab99350cf74097c558f7a93b79e7a44c3" target="_top" xlink:title="mappel::PointEmitterModel\l::make_prior_component\l_position_normal">
<polygon fill="white" stroke="black" points="175,-0.5 175,-38.5 302,-38.5 302,-0.5 175,-0.5"/>
<text text-anchor="start" x="183" y="-27.3" font-family="Helvetica,sans-Serif" font-size="9.00">mappel::PointEmitterModel</text>
<text text-anchor="start" x="183" y="-17.3" font-family="Helvetica,sans-Serif" font-size="9.00">::make_prior_component</text>
<text text-anchor="middle" x="238.5" y="-7.3" font-family="Helvetica,sans-Serif" font-size="9.00">_position_normal</text>
</a>
</g>
</g>
<!-- Node1&#45;&gt;Node3 -->
<g id="edge2" class="edge"><title>Node1&#45;&gt;Node3</title>
<path fill="none" stroke="midnightblue" d="M139.389,-35.9497C147.849,-34.5313 156.515,-33.0783 165.026,-31.6513"/>
<polygon fill="midnightblue" stroke="midnightblue" points="165.64,-35.0973 174.924,-29.9918 164.483,-28.1936 165.64,-35.0973"/>
</g>
</g>
</svg>
