<?xml version="1.0" encoding="UTF-8" standalone="no"?>
<!DOCTYPE svg PUBLIC "-//W3C//DTD SVG 1.1//EN"
 "http://www.w3.org/Graphics/SVG/1.1/DTD/svg11.dtd">
<!-- Generated by graphviz version 2.38.0 (20140413.2041)
 -->
<!-- Title: mappel::Gauss2DsModel::operator= Pages: 1 -->
<svg width="284pt" height="141pt"
 viewBox="0.00 0.00 284.00 141.00" xmlns="http://www.w3.org/2000/svg" xmlns:xlink="http://www.w3.org/1999/xlink">
<g id="graph0" class="graph" transform="scale(1 1) rotate(0) translate(4 137)">
<title>mappel::Gauss2DsModel::operator=</title>
<polygon fill="white" stroke="none" points="-4,4 -4,-137 280,-137 280,4 -4,4"/>
<!-- Node1 -->
<g id="node1" class="node"><title>Node1</title>
<polygon fill="#bfbfbf" stroke="black" points="0,-47.5 0,-75.5 120,-75.5 120,-47.5 0,-47.5"/>
<text text-anchor="start" x="8" y="-64.3" font-family="Helvetica,sans-Serif" font-size="9.00">mappel::Gauss2DsModel</text>
<text text-anchor="middle" x="60" y="-54.3" font-family="Helvetica,sans-Serif" font-size="9.00">::operator=</text>
</g>
<!-- Node2 -->
<g id="node2" class="node"><title>Node2</title>
<g id="a_node2"><a xlink:href="classmappel_1_1Gauss2DsModel.html#a2ce4737beb88367daeb480bf471ad2cf" target="_top" xlink:title="mappel::Gauss2DsModel\l::debug_internal_sum\l_model_y">
<polygon fill="white" stroke="black" points="156,-94.5 156,-132.5 276,-132.5 276,-94.5 156,-94.5"/>
<text text-anchor="start" x="164" y="-121.3" font-family="Helvetica,sans-Serif" font-size="9.00">mappel::Gauss2DsModel</text>
<text text-anchor="start" x="164" y="-111.3" font-family="Helvetica,sans-Serif" font-size="9.00">::debug_internal_sum</text>
<text text-anchor="middle" x="216" y="-101.3" font-family="Helvetica,sans-Serif" font-size="9.00">_model_y</text>
</a>
</g>
</g>
<!-- Node1&#45;&gt;Node2 -->
<g id="edge1" class="edge"><title>Node1&#45;&gt;Node2</title>
<path fill="none" stroke="midnightblue" d="M112.205,-78.7901C127.068,-83.8086 143.38,-89.3166 158.545,-94.4373"/>
<polygon fill="midnightblue" stroke="midnightblue" points="113.269,-75.4551 102.675,-75.5719 111.029,-82.0872 113.269,-75.4551"/>
</g>
<!-- Node3 -->
<g id="node3" class="node"><title>Node3</title>
<g id="a_node3"><a xlink:href="classmappel_1_1Gauss2DsMAP.html#ae9a68cb6e29b130082f4e4cf93dfe734" target="_top" xlink:title="mappel::Gauss2DsMAP\l::operator=">
<polygon fill="white" stroke="black" points="159,-47.5 159,-75.5 273,-75.5 273,-47.5 159,-47.5"/>
<text text-anchor="start" x="167" y="-64.3" font-family="Helvetica,sans-Serif" font-size="9.00">mappel::Gauss2DsMAP</text>
<text text-anchor="middle" x="216" y="-54.3" font-family="Helvetica,sans-Serif" font-size="9.00">::operator=</text>
</a>
</g>
</g>
<!-- Node1&#45;&gt;Node3 -->
<g id="edge2" class="edge"><title>Node1&#45;&gt;Node3</title>
<path fill="none" stroke="midnightblue" d="M130.357,-61.5C139.892,-61.5 149.586,-61.5 158.844,-61.5"/>
<polygon fill="midnightblue" stroke="midnightblue" points="130.1,-58.0001 120.1,-61.5 130.1,-65.0001 130.1,-58.0001"/>
</g>
<!-- Node4 -->
<g id="node4" class="node"><title>Node4</title>
<g id="a_node4"><a xlink:href="classmappel_1_1Gauss2DsMLE.html#a3c3c72608a0aa4f7342119267888ac49" target="_top" xlink:title="mappel::Gauss2DsMLE\l::operator=">
<polygon fill="white" stroke="black" points="159.5,-0.5 159.5,-28.5 272.5,-28.5 272.5,-0.5 159.5,-0.5"/>
<text text-anchor="start" x="167.5" y="-17.3" font-family="Helvetica,sans-Serif" font-size="9.00">mappel::Gauss2DsMLE</text>
<text text-anchor="middle" x="216" y="-7.3" font-family="Helvetica,sans-Serif" font-size="9.00">::operator=</text>
</a>
</g>
</g>
<!-- Node1&#45;&gt;Node4 -->
<g id="edge3" class="edge"><title>Node1&#45;&gt;Node4</title>
<path fill="none" stroke="midnightblue" d="M117.071,-44.3875C134.167,-39.1699 152.753,-33.4976 169.093,-28.5106"/>
<polygon fill="midnightblue" stroke="midnightblue" points="115.748,-41.1318 107.205,-47.3985 117.791,-47.8269 115.748,-41.1318"/>
</g>
</g>
</svg>
