<?xml version="1.0" encoding="UTF-8" standalone="no"?>
<!DOCTYPE svg PUBLIC "-//W3C//DTD SVG 1.1//EN"
 "http://www.w3.org/Graphics/SVG/1.1/DTD/svg11.dtd">
<!-- Generated by graphviz version 2.38.0 (20140413.2041)
 -->
<!-- Title: mappel::Gauss1DsModel::Stencil::Stencil Pages: 1 -->
<!--zoomable 222 -->
<svg id="main" version="1.1" xmlns="http://www.w3.org/2000/svg" xmlns:xlink="http://www.w3.org/1999/xlink" xml:space="preserve" onload="init(evt)">
<style type="text/css"><![CDATA[
.edge:hover path { stroke: red; }
.edge:hover polygon { stroke: red; fill: red; }
]]></style>
<script type="text/javascript"><![CDATA[
var edges = document.getElementsByTagName('g');
if (edges && edges.length) {
  for (var i=0;i<edges.length;i++) {
    if (edges[i].id.substr(0,4)=='edge') {
      edges[i].setAttribute('class','edge');
    }
  }
}
]]></script>
        <defs>
                <circle id="rim" cx="0" cy="0" r="7"/>
                <circle id="rim2" cx="0" cy="0" r="3.5"/>
                <g id="zoomPlus">
                        <use xlink:href="#rim" fill="#404040">
                                <set attributeName="fill" to="#808080" begin="zoomplus.mouseover" end="zoomplus.mouseout"/>
                        </use>
                        <path d="M-4,0h8M0,-4v8" fill="none" stroke="white" stroke-width="1.5" pointer-events="none"/>
                </g>
                <g id="zoomMin">
                        <use xlink:href="#rim" fill="#404040">
                                <set attributeName="fill" to="#808080" begin="zoomminus.mouseover" end="zoomminus.mouseout"/>
                        </use>
                        <path d="M-4,0h8" fill="none" stroke="white" stroke-width="1.5" pointer-events="none"/>
                </g>
                <g id="dirArrow">
                        <path fill="none" stroke="white" stroke-width="1.5" d="M0,-3.0v7 M-2.5,-0.5L0,-3.0L2.5,-0.5"/>
                </g>
               <g id="resetDef">
                       <use xlink:href="#rim2" fill="#404040">
                               <set attributeName="fill" to="#808080" begin="reset.mouseover" end="reset.mouseout"/>
                       </use>
               </g>
        </defs>

<script type="text/javascript">
var viewWidth = 748;
var viewHeight = 222;
var sectionId = 'dynsection-1';
</script>
<script xlink:href="svgpan.js"/>
<svg id="graph" class="graph">
<g id="viewport">
<title>mappel::Gauss1DsModel::Stencil::Stencil</title>
<polygon fill="white" stroke="none" points="-4,4 -4,-218 744,-218 744,4 -4,4"/>
<!-- Node1 -->
<g id="node1" class="node"><title>Node1</title>
<polygon fill="#bfbfbf" stroke="black" points="0,-87.5 0,-115.5 120,-115.5 120,-87.5 0,-87.5"/>
<text text-anchor="start" x="8" y="-104.3" font-family="Helvetica,sans-Serif" font-size="9.00">mappel::Gauss1DsModel</text>
<text text-anchor="middle" x="60" y="-94.3" font-family="Helvetica,sans-Serif" font-size="9.00">::Stencil::Stencil</text>
</g>
<!-- Node2 -->
<g id="node2" class="node"><title>Node2</title>
<g id="a_node2"><a xlink:href="classmappel_1_1Gauss1DsModel_1_1Stencil.html#a9e8b6059b84e28bea0ba3496bc95e7ce" target="_top" xlink:title="mappel::Gauss1DsModel\l::Stencil::compute_derivatives">
<polygon fill="white" stroke="black" points="156,-87.5 156,-115.5 294,-115.5 294,-87.5 156,-87.5"/>
<text text-anchor="start" x="164" y="-104.3" font-family="Helvetica,sans-Serif" font-size="9.00">mappel::Gauss1DsModel</text>
<text text-anchor="middle" x="225" y="-94.3" font-family="Helvetica,sans-Serif" font-size="9.00">::Stencil::compute_derivatives</text>
</a>
</g>
</g>
<!-- Node1&#45;&gt;Node2 -->
<g id="edge1" class="edge"><title>Node1&#45;&gt;Node2</title>
<path fill="none" stroke="midnightblue" d="M120.308,-101.5C128.617,-101.5 137.259,-101.5 145.851,-101.5"/>
<polygon fill="midnightblue" stroke="midnightblue" points="145.892,-105 155.892,-101.5 145.892,-98.0001 145.892,-105"/>
</g>
<!-- Node3 -->
<g id="node3" class="node"><title>Node3</title>
<g id="a_node3"><a xlink:href="namespacemappel.html#aa5c2f294298c875605ee1e9876b7d116" target="_top" xlink:title="mappel::make_G_stencil">
<polygon fill="white" stroke="black" points="339,-195.5 339,-213.5 457,-213.5 457,-195.5 339,-195.5"/>
<text text-anchor="middle" x="398" y="-202.3" font-family="Helvetica,sans-Serif" font-size="9.00">mappel::make_G_stencil</text>
</a>
</g>
</g>
<!-- Node2&#45;&gt;Node3 -->
<g id="edge2" class="edge"><title>Node2&#45;&gt;Node3</title>
<path fill="none" stroke="midnightblue" d="M239.422,-115.728C258.019,-134.62 293.48,-167.773 330,-186.5 334.2,-188.654 338.684,-190.57 343.267,-192.271"/>
<polygon fill="midnightblue" stroke="midnightblue" points="342.159,-195.591 352.753,-195.466 344.394,-188.957 342.159,-195.591"/>
</g>
<!-- Node6 -->
<g id="node6" class="node"><title>Node6</title>
<g id="a_node6"><a xlink:href="classmappel_1_1Gauss1DsModel_1_1Stencil.html#a91366bc87b44318c0ded04ac99760c27" target="_top" xlink:title="mappel::Gauss1DsModel\l::Stencil::sigma">
<polygon fill="white" stroke="black" points="338,-148.5 338,-176.5 458,-176.5 458,-148.5 338,-148.5"/>
<text text-anchor="start" x="346" y="-165.3" font-family="Helvetica,sans-Serif" font-size="9.00">mappel::Gauss1DsModel</text>
<text text-anchor="middle" x="398" y="-155.3" font-family="Helvetica,sans-Serif" font-size="9.00">::Stencil::sigma</text>
</a>
</g>
</g>
<!-- Node2&#45;&gt;Node6 -->
<g id="edge5" class="edge"><title>Node2&#45;&gt;Node6</title>
<path fill="none" stroke="midnightblue" d="M263.97,-115.577C283.642,-122.818 308.075,-131.732 330,-139.5 335.144,-141.323 340.518,-143.204 345.887,-145.07"/>
<polygon fill="midnightblue" stroke="midnightblue" points="344.902,-148.433 355.497,-148.395 347.191,-141.817 344.902,-148.433"/>
</g>
<!-- Node7 -->
<g id="node7" class="node"><title>Node7</title>
<g id="a_node7"><a xlink:href="namespacemappel.html#a8da88490d6ff7d5886b96b66c1bab369" target="_top" xlink:title="mappel::make_DX_stencil">
<polygon fill="white" stroke="black" points="336,-111.5 336,-129.5 460,-129.5 460,-111.5 336,-111.5"/>
<text text-anchor="middle" x="398" y="-118.3" font-family="Helvetica,sans-Serif" font-size="9.00">mappel::make_DX_stencil</text>
</a>
</g>
</g>
<!-- Node2&#45;&gt;Node7 -->
<g id="edge6" class="edge"><title>Node2&#45;&gt;Node7</title>
<path fill="none" stroke="midnightblue" d="M294.075,-109.064C304.521,-110.225 315.329,-111.425 325.84,-112.593"/>
<polygon fill="midnightblue" stroke="midnightblue" points="325.479,-116.075 335.805,-113.701 326.252,-109.118 325.479,-116.075"/>
</g>
<!-- Node9 -->
<g id="node9" class="node"><title>Node9</title>
<g id="a_node9"><a xlink:href="namespacemappel.html#af7636db506977133c8b30d108fede711" target="_top" xlink:title="mappel::make_DXS_stencil">
<polygon fill="white" stroke="black" points="333,-74.5 333,-92.5 463,-92.5 463,-74.5 333,-74.5"/>
<text text-anchor="middle" x="398" y="-81.3" font-family="Helvetica,sans-Serif" font-size="9.00">mappel::make_DXS_stencil</text>
</a>
</g>
</g>
<!-- Node2&#45;&gt;Node9 -->
<g id="edge8" class="edge"><title>Node2&#45;&gt;Node9</title>
<path fill="none" stroke="midnightblue" d="M294.075,-94.3342C303.446,-93.3478 313.108,-92.3308 322.585,-91.3332"/>
<polygon fill="midnightblue" stroke="midnightblue" points="323.195,-94.7884 332.774,-90.2607 322.462,-87.8268 323.195,-94.7884"/>
</g>
<!-- Node11 -->
<g id="node11" class="node"><title>Node11</title>
<g id="a_node11"><a xlink:href="namespacemappel.html#aef14b765af6f9b85d93f42ab8b84311b" target="_top" xlink:title="mappel::make_DXS2_stencil">
<polygon fill="white" stroke="black" points="330.5,-37.5 330.5,-55.5 465.5,-55.5 465.5,-37.5 330.5,-37.5"/>
<text text-anchor="middle" x="398" y="-44.3" font-family="Helvetica,sans-Serif" font-size="9.00">mappel::make_DXS2_stencil</text>
</a>
</g>
</g>
<!-- Node2&#45;&gt;Node11 -->
<g id="edge11" class="edge"><title>Node2&#45;&gt;Node11</title>
<path fill="none" stroke="midnightblue" d="M263.306,-87.4185C283.013,-80.1862 307.679,-71.457 330,-64.5 336.957,-62.3317 344.367,-60.183 351.629,-58.1657"/>
<polygon fill="midnightblue" stroke="midnightblue" points="352.654,-61.5139 361.382,-55.5067 350.813,-54.7604 352.654,-61.5139"/>
</g>
<!-- Node13 -->
<g id="node13" class="node"><title>Node13</title>
<g id="a_node13"><a xlink:href="namespacemappel.html#abccec04f04b0b10940779c9bbae0e570" target="_top" xlink:title="mappel::make_DXSX_stencil">
<polygon fill="white" stroke="black" points="330,-0.5 330,-18.5 466,-18.5 466,-0.5 330,-0.5"/>
<text text-anchor="middle" x="398" y="-7.3" font-family="Helvetica,sans-Serif" font-size="9.00">mappel::make_DXSX_stencil</text>
</a>
</g>
</g>
<!-- Node2&#45;&gt;Node13 -->
<g id="edge13" class="edge"><title>Node2&#45;&gt;Node13</title>
<path fill="none" stroke="midnightblue" d="M241.788,-87.495C261.243,-70.9234 295.924,-43.5609 330,-27.5 334.647,-25.3096 339.606,-23.3494 344.644,-21.6035"/>
<polygon fill="midnightblue" stroke="midnightblue" points="345.901,-24.8763 354.367,-18.506 343.776,-18.2066 345.901,-24.8763"/>
</g>
<!-- Node4 -->
<g id="node4" class="node"><title>Node4</title>
<g id="a_node4"><a xlink:href="namespacemappel.html#a5ca82edc201e8605107a991493ad0d5e" target="_top" xlink:title="mappel::fill_G_stencil">
<polygon fill="white" stroke="black" points="511,-171.5 511,-189.5 615,-189.5 615,-171.5 511,-171.5"/>
<text text-anchor="middle" x="563" y="-178.3" font-family="Helvetica,sans-Serif" font-size="9.00">mappel::fill_G_stencil</text>
</a>
</g>
</g>
<!-- Node3&#45;&gt;Node4 -->
<g id="edge3" class="edge"><title>Node3&#45;&gt;Node4</title>
<path fill="none" stroke="midnightblue" d="M457.386,-195.903C471.426,-193.836 486.464,-191.622 500.635,-189.535"/>
<polygon fill="midnightblue" stroke="midnightblue" points="501.391,-192.962 510.774,-188.042 500.371,-186.037 501.391,-192.962"/>
</g>
<!-- Node5 -->
<g id="node5" class="node"><title>Node5</title>
<g id="a_node5"><a xlink:href="namespacemappel.html#a8475cdb3edacceb0ae215c3ebd1f33c1" target="_top" xlink:title="mappel::square">
<polygon fill="white" stroke="black" points="660,-122.5 660,-140.5 740,-140.5 740,-122.5 660,-122.5"/>
<text text-anchor="middle" x="700" y="-129.3" font-family="Helvetica,sans-Serif" font-size="9.00">mappel::square</text>
</a>
</g>
</g>
<!-- Node4&#45;&gt;Node5 -->
<g id="edge4" class="edge"><title>Node4&#45;&gt;Node5</title>
<path fill="none" stroke="midnightblue" d="M589.076,-171.398C610.293,-163.697 640.915,-152.583 664.452,-144.04"/>
<polygon fill="midnightblue" stroke="midnightblue" points="665.852,-147.255 674.058,-140.553 663.464,-140.675 665.852,-147.255"/>
</g>
<!-- Node8 -->
<g id="node8" class="node"><title>Node8</title>
<g id="a_node8"><a xlink:href="namespacemappel.html#ad2dd4330fc626fa673a3acf691d6b9a7" target="_top" xlink:title="mappel::fill_DX_stencil">
<polygon fill="white" stroke="black" points="508,-111.5 508,-129.5 618,-129.5 618,-111.5 508,-111.5"/>
<text text-anchor="middle" x="563" y="-118.3" font-family="Helvetica,sans-Serif" font-size="9.00">mappel::fill_DX_stencil</text>
</a>
</g>
</g>
<!-- Node7&#45;&gt;Node8 -->
<g id="edge7" class="edge"><title>Node7&#45;&gt;Node8</title>
<path fill="none" stroke="midnightblue" d="M460.159,-120.5C472.368,-120.5 485.228,-120.5 497.545,-120.5"/>
<polygon fill="midnightblue" stroke="midnightblue" points="497.737,-124 507.737,-120.5 497.737,-117 497.737,-124"/>
</g>
<!-- Node10 -->
<g id="node10" class="node"><title>Node10</title>
<g id="a_node10"><a xlink:href="namespacemappel.html#ab0cb62f6dcecae5ff19468d87a283e7a" target="_top" xlink:title="mappel::fill_DXS_stencil">
<polygon fill="white" stroke="black" points="505,-74.5 505,-92.5 621,-92.5 621,-74.5 505,-74.5"/>
<text text-anchor="middle" x="563" y="-81.3" font-family="Helvetica,sans-Serif" font-size="9.00">mappel::fill_DXS_stencil</text>
</a>
</g>
</g>
<!-- Node9&#45;&gt;Node10 -->
<g id="edge9" class="edge"><title>Node9&#45;&gt;Node10</title>
<path fill="none" stroke="midnightblue" d="M463.422,-83.5C473.7,-83.5 484.357,-83.5 494.7,-83.5"/>
<polygon fill="midnightblue" stroke="midnightblue" points="494.912,-87.0001 504.912,-83.5 494.912,-80.0001 494.912,-87.0001"/>
</g>
<!-- Node10&#45;&gt;Node5 -->
<g id="edge10" class="edge"><title>Node10&#45;&gt;Node5</title>
<path fill="none" stroke="midnightblue" d="M593.724,-92.5103C603.419,-95.5563 614.207,-99.0597 624,-102.5 638.169,-107.477 653.674,-113.393 666.89,-118.579"/>
<polygon fill="midnightblue" stroke="midnightblue" points="665.904,-121.952 676.49,-122.375 668.478,-115.443 665.904,-121.952"/>
</g>
<!-- Node12 -->
<g id="node12" class="node"><title>Node12</title>
<g id="a_node12"><a xlink:href="namespacemappel.html#a445e83c8273da9b3a50cc10d038ed612" target="_top" xlink:title="mappel::fill_DXS2_stencil">
<polygon fill="white" stroke="black" points="502,-37.5 502,-55.5 624,-55.5 624,-37.5 502,-37.5"/>
<text text-anchor="middle" x="563" y="-44.3" font-family="Helvetica,sans-Serif" font-size="9.00">mappel::fill_DXS2_stencil</text>
</a>
</g>
</g>
<!-- Node11&#45;&gt;Node12 -->
<g id="edge12" class="edge"><title>Node11&#45;&gt;Node12</title>
<path fill="none" stroke="midnightblue" d="M465.769,-46.5C474.363,-46.5 483.183,-46.5 491.83,-46.5"/>
<polygon fill="midnightblue" stroke="midnightblue" points="491.876,-50.0001 501.876,-46.5 491.876,-43.0001 491.876,-50.0001"/>
</g>
<!-- Node14 -->
<g id="node14" class="node"><title>Node14</title>
<g id="a_node14"><a xlink:href="namespacemappel.html#ad3a6553e54dc90232fc04c93731fc69c" target="_top" xlink:title="mappel::fill_DXSX_stencil">
<polygon fill="white" stroke="black" points="502,-0.5 502,-18.5 624,-18.5 624,-0.5 502,-0.5"/>
<text text-anchor="middle" x="563" y="-7.3" font-family="Helvetica,sans-Serif" font-size="9.00">mappel::fill_DXSX_stencil</text>
</a>
</g>
</g>
<!-- Node13&#45;&gt;Node14 -->
<g id="edge14" class="edge"><title>Node13&#45;&gt;Node14</title>
<path fill="none" stroke="midnightblue" d="M466.239,-9.5C474.656,-9.5 483.282,-9.5 491.744,-9.5"/>
<polygon fill="midnightblue" stroke="midnightblue" points="491.958,-13.0001 501.958,-9.5 491.958,-6.0001 491.958,-13.0001"/>
</g>
</g>
</svg>
        <g id="navigator" transform="translate(0 0)" fill="#404254">
                <rect fill="#f2f5e9" fill-opacity="0.5" stroke="#606060" stroke-width=".5" x="0" y="0" width="60" height="60"/>
                <use id="zoomplus" xlink:href="#zoomPlus" x="17" y="9" onmousedown="handleZoom(evt,'in')"/>
                <use id="zoomminus" xlink:href="#zoomMin" x="42" y="9" onmousedown="handleZoom(evt,'out')"/>
                <use id="reset" xlink:href="#resetDef" x="30" y="36" onmousedown="handleReset()"/>
                <g id="arrowUp" xlink:href="#dirArrow" transform="translate(30 24)" onmousedown="handlePan(0,-1)">
                  <use xlink:href="#rim" fill="#404040">
                        <set attributeName="fill" to="#808080" begin="arrowUp.mouseover" end="arrowUp.mouseout"/>
                  </use>
                  <path fill="none" stroke="white" stroke-width="1.5" d="M0,-3.0v7 M-2.5,-0.5L0,-3.0L2.5,-0.5"/>
                </g>
                <g id="arrowRight" xlink:href="#dirArrow" transform="rotate(90) translate(36 -43)" onmousedown="handlePan(1,0)">
                  <use xlink:href="#rim" fill="#404040">
                        <set attributeName="fill" to="#808080" begin="arrowRight.mouseover" end="arrowRight.mouseout"/>
                  </use>
                  <path fill="none" stroke="white" stroke-width="1.5" d="M0,-3.0v7 M-2.5,-0.5L0,-3.0L2.5,-0.5"/>
                </g>
                <g id="arrowDown" xlink:href="#dirArrow" transform="rotate(180) translate(-30 -48)" onmousedown="handlePan(0,1)">
                  <use xlink:href="#rim" fill="#404040">
                        <set attributeName="fill" to="#808080" begin="arrowDown.mouseover" end="arrowDown.mouseout"/>
                  </use>
                  <path fill="none" stroke="white" stroke-width="1.5" d="M0,-3.0v7 M-2.5,-0.5L0,-3.0L2.5,-0.5"/>
                </g>
                <g id="arrowLeft" xlink:href="#dirArrow" transform="rotate(270) translate(-36 17)" onmousedown="handlePan(-1,0)">
                  <use xlink:href="#rim" fill="#404040">
                        <set attributeName="fill" to="#808080" begin="arrowLeft.mouseover" end="arrowLeft.mouseout"/>
                  </use>
                  <path fill="none" stroke="white" stroke-width="1.5" d="M0,-3.0v7 M-2.5,-0.5L0,-3.0L2.5,-0.5"/>
                </g>
        </g>
        <svg viewBox="0 0 15 15" width="100%" height="30px" preserveAspectRatio="xMaxYMin meet">
         <g id="arrow_out" transform="scale(0.3 0.3)">
          <a xlink:href="classmappel_1_1Gauss1DsModel_1_1Stencil_a7d151d646b8286c83a3c6e5b49b1a66d_cgraph_org.svg" target="_base">
           <rect id="button" ry="5" rx="5" y="6" x="6" height="38" width="38"
                fill="#f2f5e9" fill-opacity="0.5" stroke="#606060" stroke-width="1.0"/>
           <path id="arrow"
             d="M 11.500037,31.436501 C 11.940474,20.09759 22.043105,11.32322 32.158766,21.979434 L 37.068811,17.246167 C 37.068811,17.246167 37.088388,32 37.088388,32 L 22.160133,31.978069 C 22.160133,31.978069 26.997745,27.140456 26.997745,27.140456 C 18.528582,18.264221 13.291696,25.230495 11.500037,31.436501 z"
             style="fill:#404040;"/>
          </a>
         </g>
        </svg>
</svg>
