<?xml version="1.0" encoding="UTF-8" standalone="no"?>
<!DOCTYPE svg PUBLIC "-//W3C//DTD SVG 1.1//EN"
 "http://www.w3.org/Graphics/SVG/1.1/DTD/svg11.dtd">
<!-- Generated by graphviz version 2.38.0 (20140413.2041)
 -->
<!-- Title: mappel::Gauss2DsModel::Stencil::sigma_ratio Pages: 1 -->
<svg width="614pt" height="232pt"
 viewBox="0.00 0.00 614.00 232.30" xmlns="http://www.w3.org/2000/svg" xmlns:xlink="http://www.w3.org/1999/xlink">
<g id="graph0" class="graph" transform="scale(1 1) rotate(0) translate(4 228.297)">
<title>mappel::Gauss2DsModel::Stencil::sigma_ratio</title>
<polygon fill="white" stroke="none" points="-4,4 -4,-228.297 610,-228.297 610,4 -4,4"/>
<!-- Node1 -->
<g id="node1" class="node"><title>Node1</title>
<polygon fill="#bfbfbf" stroke="black" points="0,-123.476 0,-151.476 120,-151.476 120,-123.476 0,-123.476"/>
<text text-anchor="start" x="8" y="-140.276" font-family="Helvetica,sans-Serif" font-size="9.00">mappel::Gauss2DsModel</text>
<text text-anchor="middle" x="60" y="-130.276" font-family="Helvetica,sans-Serif" font-size="9.00">::Stencil::sigma_ratio</text>
</g>
<!-- Node2 -->
<g id="node2" class="node"><title>Node2</title>
<g id="a_node2"><a xlink:href="classmappel_1_1Gauss2DsModel.html#a70e079fd6b31bc6af5b7c10d2a0d8fb5" target="_top" xlink:title="mappel::Gauss2DsModel\l::initial_theta_estimate">
<polygon fill="white" stroke="black" points="156,-170.476 156,-198.476 276,-198.476 276,-170.476 156,-170.476"/>
<text text-anchor="start" x="164" y="-187.276" font-family="Helvetica,sans-Serif" font-size="9.00">mappel::Gauss2DsModel</text>
<text text-anchor="middle" x="216" y="-177.276" font-family="Helvetica,sans-Serif" font-size="9.00">::initial_theta_estimate</text>
</a>
</g>
</g>
<!-- Node1&#45;&gt;Node2 -->
<g id="edge1" class="edge"><title>Node1&#45;&gt;Node2</title>
<path fill="none" stroke="midnightblue" d="M117.071,-154.589C134.167,-159.806 152.753,-165.479 169.093,-170.466"/>
<polygon fill="midnightblue" stroke="midnightblue" points="117.791,-151.149 107.205,-151.578 115.748,-157.844 117.791,-151.149"/>
</g>
<!-- Node3 -->
<g id="node3" class="node"><title>Node3</title>
<g id="a_node3"><a xlink:href="classmappel_1_1Gauss2DsModel_1_1Stencil.html#adab71d870d1b32f78e85d273dd7bd006" target="_top" xlink:title="mappel::Gauss2DsModel\l::Stencil::sigmaX">
<polygon fill="white" stroke="black" points="156,-123.476 156,-151.476 276,-151.476 276,-123.476 156,-123.476"/>
<text text-anchor="start" x="164" y="-140.276" font-family="Helvetica,sans-Serif" font-size="9.00">mappel::Gauss2DsModel</text>
<text text-anchor="middle" x="216" y="-130.276" font-family="Helvetica,sans-Serif" font-size="9.00">::Stencil::sigmaX</text>
</a>
</g>
</g>
<!-- Node1&#45;&gt;Node3 -->
<g id="edge2" class="edge"><title>Node1&#45;&gt;Node3</title>
<path fill="none" stroke="midnightblue" d="M130.369,-137.476C138.862,-137.476 147.48,-137.476 155.804,-137.476"/>
<polygon fill="midnightblue" stroke="midnightblue" points="130.1,-133.976 120.1,-137.476 130.1,-140.976 130.1,-133.976"/>
</g>
<!-- Node9 -->
<g id="node9" class="node"><title>Node9</title>
<g id="a_node9"><a xlink:href="classmappel_1_1Gauss2DsModel_1_1Stencil.html#abc29f317d508c398a3fcc337a1fb8d1f" target="_top" xlink:title="mappel::Gauss2DsModel\l::Stencil::sigmaY">
<polygon fill="white" stroke="black" points="156,-76.4763 156,-104.476 276,-104.476 276,-76.4763 156,-76.4763"/>
<text text-anchor="start" x="164" y="-93.2763" font-family="Helvetica,sans-Serif" font-size="9.00">mappel::Gauss2DsModel</text>
<text text-anchor="middle" x="216" y="-83.2763" font-family="Helvetica,sans-Serif" font-size="9.00">::Stencil::sigmaY</text>
</a>
</g>
</g>
<!-- Node1&#45;&gt;Node9 -->
<g id="edge9" class="edge"><title>Node1&#45;&gt;Node9</title>
<path fill="none" stroke="midnightblue" d="M117.071,-120.364C134.167,-115.146 152.753,-109.474 169.093,-104.487"/>
<polygon fill="midnightblue" stroke="midnightblue" points="115.748,-117.108 107.205,-123.375 117.791,-123.803 115.748,-117.108"/>
</g>
<!-- Node4 -->
<g id="node4" class="node"><title>Node4</title>
<g id="a_node4"><a xlink:href="classmappel_1_1Gauss2DsModel_1_1Stencil.html#a924f5f8d4524831f1ef50041b85a842f" target="_top" xlink:title="mappel::Gauss2DsModel\l::Stencil::Stencil">
<polygon fill="white" stroke="black" points="486,-170.476 486,-198.476 606,-198.476 606,-170.476 486,-170.476"/>
<text text-anchor="start" x="494" y="-187.276" font-family="Helvetica,sans-Serif" font-size="9.00">mappel::Gauss2DsModel</text>
<text text-anchor="middle" x="546" y="-177.276" font-family="Helvetica,sans-Serif" font-size="9.00">::Stencil::Stencil</text>
</a>
</g>
</g>
<!-- Node3&#45;&gt;Node4 -->
<g id="edge3" class="edge"><title>Node3&#45;&gt;Node4</title>
<path fill="none" stroke="midnightblue" d="M268.293,-156.277C270.983,-157.893 273.573,-159.624 276,-161.476 296.919,-177.437 288.406,-196.828 312,-208.476 377.088,-240.609 464.689,-216.263 511.763,-198.578"/>
<polygon fill="midnightblue" stroke="midnightblue" points="269.907,-153.171 259.443,-151.506 266.585,-159.332 269.907,-153.171"/>
</g>
<!-- Node5 -->
<g id="node5" class="node"><title>Node5</title>
<g id="a_node5"><a xlink:href="classmappel_1_1Gauss2DsModel_1_1Stencil.html#ab11c806f8335bbafeb3db7476526680d" target="_top" xlink:title="mappel::Gauss2DsModel\l::Stencil::compute_derivatives">
<polygon fill="white" stroke="black" points="312,-170.476 312,-198.476 450,-198.476 450,-170.476 312,-170.476"/>
<text text-anchor="start" x="320" y="-187.276" font-family="Helvetica,sans-Serif" font-size="9.00">mappel::Gauss2DsModel</text>
<text text-anchor="middle" x="381" y="-177.276" font-family="Helvetica,sans-Serif" font-size="9.00">::Stencil::compute_derivatives</text>
</a>
</g>
</g>
<!-- Node3&#45;&gt;Node5 -->
<g id="edge4" class="edge"><title>Node3&#45;&gt;Node5</title>
<path fill="none" stroke="midnightblue" d="M275.587,-154.37C293.891,-159.647 313.872,-165.409 331.41,-170.466"/>
<polygon fill="midnightblue" stroke="midnightblue" points="276.484,-150.985 265.905,-151.578 274.544,-157.711 276.484,-150.985"/>
</g>
<!-- Node6 -->
<g id="node6" class="node"><title>Node6</title>
<g id="a_node6"><a xlink:href="classmappel_1_1Gauss2DsModel.html#abc9ec137a0cf5238a34b9c041e3fc3a5" target="_top" xlink:title="pixel derivative inner loop calculations. ">
<polygon fill="white" stroke="black" points="321,-123.476 321,-151.476 441,-151.476 441,-123.476 321,-123.476"/>
<text text-anchor="start" x="329" y="-140.276" font-family="Helvetica,sans-Serif" font-size="9.00">mappel::Gauss2DsModel</text>
<text text-anchor="middle" x="381" y="-130.276" font-family="Helvetica,sans-Serif" font-size="9.00">::pixel_hess_update</text>
</a>
</g>
</g>
<!-- Node3&#45;&gt;Node6 -->
<g id="edge6" class="edge"><title>Node3&#45;&gt;Node6</title>
<path fill="none" stroke="midnightblue" d="M286.625,-137.476C297.984,-137.476 309.657,-137.476 320.736,-137.476"/>
<polygon fill="midnightblue" stroke="midnightblue" points="286.308,-133.976 276.308,-137.476 286.308,-140.976 286.308,-133.976"/>
</g>
<!-- Node7 -->
<g id="node7" class="node"><title>Node7</title>
<g id="a_node7"><a xlink:href="classmappel_1_1Gauss2DsModel.html#a3775c60f914e1873ecfcd67c64fbc1e8" target="_top" xlink:title="mappel::Gauss2DsModel\l::pixel_grad2">
<polygon fill="white" stroke="black" points="321,-76.4763 321,-104.476 441,-104.476 441,-76.4763 321,-76.4763"/>
<text text-anchor="start" x="329" y="-93.2763" font-family="Helvetica,sans-Serif" font-size="9.00">mappel::Gauss2DsModel</text>
<text text-anchor="middle" x="381" y="-83.2763" font-family="Helvetica,sans-Serif" font-size="9.00">::pixel_grad2</text>
</a>
</g>
</g>
<!-- Node3&#45;&gt;Node7 -->
<g id="edge7" class="edge"><title>Node3&#45;&gt;Node7</title>
<path fill="none" stroke="midnightblue" d="M275.587,-120.583C293.891,-115.305 313.872,-109.544 331.41,-104.487"/>
<polygon fill="midnightblue" stroke="midnightblue" points="274.544,-117.241 265.905,-123.375 276.484,-123.967 274.544,-117.241"/>
</g>
<!-- Node8 -->
<g id="node8" class="node"><title>Node8</title>
<g id="a_node8"><a xlink:href="classmappel_1_1Gauss2DsModel.html#a4f80f81e88e02ce3be7c6e5052236ae2" target="_top" xlink:title="mappel::Gauss2DsModel\l::pixel_hess">
<polygon fill="white" stroke="black" points="321,-29.4763 321,-57.4763 441,-57.4763 441,-29.4763 321,-29.4763"/>
<text text-anchor="start" x="329" y="-46.2763" font-family="Helvetica,sans-Serif" font-size="9.00">mappel::Gauss2DsModel</text>
<text text-anchor="middle" x="381" y="-36.2763" font-family="Helvetica,sans-Serif" font-size="9.00">::pixel_hess</text>
</a>
</g>
</g>
<!-- Node3&#45;&gt;Node8 -->
<g id="edge8" class="edge"><title>Node3&#45;&gt;Node8</title>
<path fill="none" stroke="midnightblue" d="M270.289,-118.371C272.266,-117.142 274.179,-115.845 276,-114.476 297.035,-98.6691 290.711,-82.9404 312,-67.4763 317.267,-63.6502 323.2,-60.3883 329.311,-57.6192"/>
<polygon fill="midnightblue" stroke="midnightblue" points="268.356,-115.44 261.285,-123.331 271.733,-121.572 268.356,-115.44"/>
</g>
<!-- Node5&#45;&gt;Node4 -->
<g id="edge5" class="edge"><title>Node5&#45;&gt;Node4</title>
<path fill="none" stroke="midnightblue" d="M460.262,-184.476C468.886,-184.476 477.56,-184.476 485.894,-184.476"/>
<polygon fill="midnightblue" stroke="midnightblue" points="460.182,-180.976 450.182,-184.476 460.182,-187.976 460.182,-180.976"/>
</g>
<!-- Node9&#45;&gt;Node4 -->
<g id="edge10" class="edge"><title>Node9&#45;&gt;Node4</title>
<path fill="none" stroke="midnightblue" d="M237.291,-69.0573C255.104,-51.927 282.687,-29.2199 312,-19.4763 370.202,-0.130016 396.902,11.2222 450,-19.4763 507.805,-52.8959 533.535,-136.307 541.818,-170.01"/>
<polygon fill="midnightblue" stroke="midnightblue" points="234.456,-66.9405 229.823,-76.469 239.387,-71.909 234.456,-66.9405"/>
</g>
<!-- Node9&#45;&gt;Node5 -->
<g id="edge11" class="edge"><title>Node9&#45;&gt;Node5</title>
<path fill="none" stroke="midnightblue" d="M268.293,-109.277C270.983,-110.893 273.573,-112.624 276,-114.476 296.919,-130.437 290.61,-146.152 312,-161.476 316.762,-164.888 322.067,-167.821 327.556,-170.338"/>
<polygon fill="midnightblue" stroke="midnightblue" points="269.907,-106.171 259.443,-104.506 266.585,-112.332 269.907,-106.171"/>
</g>
<!-- Node9&#45;&gt;Node6 -->
<g id="edge12" class="edge"><title>Node9&#45;&gt;Node6</title>
<path fill="none" stroke="midnightblue" d="M275.587,-107.37C293.891,-112.647 313.872,-118.409 331.41,-123.466"/>
<polygon fill="midnightblue" stroke="midnightblue" points="276.484,-103.985 265.905,-104.578 274.544,-110.711 276.484,-103.985"/>
</g>
<!-- Node9&#45;&gt;Node7 -->
<g id="edge13" class="edge"><title>Node9&#45;&gt;Node7</title>
<path fill="none" stroke="midnightblue" d="M286.625,-90.4763C297.984,-90.4763 309.657,-90.4763 320.736,-90.4763"/>
<polygon fill="midnightblue" stroke="midnightblue" points="286.308,-86.9763 276.308,-90.4763 286.308,-93.9763 286.308,-86.9763"/>
</g>
<!-- Node9&#45;&gt;Node8 -->
<g id="edge14" class="edge"><title>Node9&#45;&gt;Node8</title>
<path fill="none" stroke="midnightblue" d="M275.587,-73.5829C293.891,-68.3053 313.872,-62.5437 331.41,-57.4868"/>
<polygon fill="midnightblue" stroke="midnightblue" points="274.544,-70.2411 265.905,-76.3747 276.484,-76.9671 274.544,-70.2411"/>
</g>
</g>
</svg>
