<?xml version="1.0" encoding="UTF-8" standalone="no"?>
<!DOCTYPE svg PUBLIC "-//W3C//DTD SVG 1.1//EN"
 "http://www.w3.org/Graphics/SVG/1.1/DTD/svg11.dtd">
<!-- Generated by graphviz version 2.38.0 (20140413.2041)
 -->
<!-- Title: mappel::CGaussHeuristicEstimator::name Pages: 1 -->
<svg width="331pt" height="84pt"
 viewBox="0.00 0.00 331.00 84.00" xmlns="http://www.w3.org/2000/svg" xmlns:xlink="http://www.w3.org/1999/xlink">
<g id="graph0" class="graph" transform="scale(1 1) rotate(0) translate(4 80)">
<title>mappel::CGaussHeuristicEstimator::name</title>
<polygon fill="white" stroke="none" points="-4,4 -4,-80 327,-80 327,4 -4,4"/>
<!-- Node1 -->
<g id="node1" class="node"><title>Node1</title>
<polygon fill="#bfbfbf" stroke="black" points="0,-23.5 0,-51.5 159,-51.5 159,-23.5 0,-23.5"/>
<text text-anchor="start" x="8" y="-40.3" font-family="Helvetica,sans-Serif" font-size="9.00">mappel::CGaussHeuristicEstimator</text>
<text text-anchor="middle" x="79.5" y="-30.3" font-family="Helvetica,sans-Serif" font-size="9.00">::name</text>
</g>
<!-- Node2 -->
<g id="node2" class="node"><title>Node2</title>
<g id="a_node2"><a xlink:href="classmappel_1_1Estimator.html#aa8b8c7f835056c94de1f21bff2ef205b" target="_top" xlink:title="mappel::Estimator::\lcompute_estimate">
<polygon fill="white" stroke="black" points="211.5,-47.5 211.5,-75.5 306.5,-75.5 306.5,-47.5 211.5,-47.5"/>
<text text-anchor="start" x="219.5" y="-64.3" font-family="Helvetica,sans-Serif" font-size="9.00">mappel::Estimator::</text>
<text text-anchor="middle" x="259" y="-54.3" font-family="Helvetica,sans-Serif" font-size="9.00">compute_estimate</text>
</a>
</g>
</g>
<!-- Node1&#45;&gt;Node2 -->
<g id="edge1" class="edge"><title>Node1&#45;&gt;Node2</title>
<path fill="none" stroke="midnightblue" d="M159.129,-48.1316C173.317,-50.0499 187.854,-52.0155 201.265,-53.8288"/>
<polygon fill="midnightblue" stroke="midnightblue" points="200.898,-57.3109 211.277,-55.1825 201.836,-50.3741 200.898,-57.3109"/>
</g>
<!-- Node3 -->
<g id="node3" class="node"><title>Node3</title>
<g id="a_node3"><a xlink:href="namespacemappel_1_1methods_1_1objective.html#a293c23ed6a623e59477bb67b6e40f5ad" target="_top" xlink:title="mappel::methods::objective\l::rllh">
<polygon fill="white" stroke="black" points="195,-0.5 195,-28.5 323,-28.5 323,-0.5 195,-0.5"/>
<text text-anchor="start" x="203" y="-17.3" font-family="Helvetica,sans-Serif" font-size="9.00">mappel::methods::objective</text>
<text text-anchor="middle" x="259" y="-7.3" font-family="Helvetica,sans-Serif" font-size="9.00">::rllh</text>
</a>
</g>
</g>
<!-- Node1&#45;&gt;Node3 -->
<g id="edge2" class="edge"><title>Node1&#45;&gt;Node3</title>
<path fill="none" stroke="midnightblue" d="M159.129,-27.3114C167.634,-26.2094 176.264,-25.0912 184.701,-23.9978"/>
<polygon fill="midnightblue" stroke="midnightblue" points="185.41,-27.4354 194.877,-22.6793 184.51,-20.4935 185.41,-27.4354"/>
</g>
</g>
</svg>
