<?xml version="1.0" encoding="UTF-8" standalone="no"?>
<!DOCTYPE svg PUBLIC "-//W3C//DTD SVG 1.1//EN"
 "http://www.w3.org/Graphics/SVG/1.1/DTD/svg11.dtd">
<!-- Generated by graphviz version 2.38.0 (20140413.2041)
 -->
<!-- Title: mappel::MAPEstimator Pages: 1 -->
<svg width="233pt" height="214pt"
 viewBox="0.00 0.00 232.50 214.00" xmlns="http://www.w3.org/2000/svg" xmlns:xlink="http://www.w3.org/1999/xlink">
<g id="graph0" class="graph" transform="scale(1 1) rotate(0) translate(4 210)">
<title>mappel::MAPEstimator</title>
<polygon fill="white" stroke="none" points="-4,4 -4,-210 228.5,-210 228.5,4 -4,4"/>
<!-- Node1 -->
<g id="node1" class="node"><title>Node1</title>
<polygon fill="#bfbfbf" stroke="black" points="15.5,-0.5 15.5,-18.5 125.5,-18.5 125.5,-0.5 15.5,-0.5"/>
<text text-anchor="middle" x="70.5" y="-7.3" font-family="Helvetica,sans-Serif" font-size="9.00">mappel::MAPEstimator</text>
</g>
<!-- Node2 -->
<g id="node2" class="node"><title>Node2</title>
<g id="a_node2"><a xlink:href="classmappel_1_1PointEmitterModel.html" target="_top" xlink:title="A virtual Base type for point emitter localization models. ">
<polygon fill="white" stroke="black" points="7,-56.5 7,-74.5 134,-74.5 134,-56.5 7,-56.5"/>
<text text-anchor="middle" x="70.5" y="-63.3" font-family="Helvetica,sans-Serif" font-size="9.00">mappel::PointEmitterModel</text>
</a>
</g>
</g>
<!-- Node2&#45;&gt;Node1 -->
<g id="edge1" class="edge"><title>Node2&#45;&gt;Node1</title>
<path fill="none" stroke="midnightblue" d="M70.5,-45.8288C70.5,-36.5774 70.5,-25.8798 70.5,-18.7014"/>
<polygon fill="midnightblue" stroke="midnightblue" points="67.0001,-46.0625 70.5,-56.0625 74.0001,-46.0625 67.0001,-46.0625"/>
</g>
<!-- Node3 -->
<g id="node3" class="node"><title>Node3</title>
<polygon fill="white" stroke="#bfbfbf" points="0,-121.5 0,-139.5 77,-139.5 77,-121.5 0,-121.5"/>
<text text-anchor="middle" x="38.5" y="-128.3" font-family="Helvetica,sans-Serif" font-size="9.00">CompositeDist</text>
</g>
<!-- Node3&#45;&gt;Node2 -->
<g id="edge2" class="edge"><title>Node3&#45;&gt;Node2</title>
<path fill="none" stroke="#9a32cd" stroke-dasharray="5,2" d="M47.3785,-112.02C53.6069,-99.7582 61.6442,-83.9348 66.4167,-74.539"/>
<polygon fill="#9a32cd" stroke="#9a32cd" points="44.0916,-110.763 42.6834,-121.264 50.3327,-113.933 44.0916,-110.763"/>
<text text-anchor="middle" x="67.5" y="-95.8" font-family="Helvetica,sans-Serif" font-size="9.00"> prior</text>
</g>
<!-- Node4 -->
<g id="node4" class="node"><title>Node4</title>
<g id="a_node4"><a xlink:title="STL class. ">
<polygon fill="white" stroke="#bfbfbf" points="95.5,-121.5 95.5,-139.5 151.5,-139.5 151.5,-121.5 95.5,-121.5"/>
<text text-anchor="middle" x="123.5" y="-128.3" font-family="Helvetica,sans-Serif" font-size="9.00">std::string</text>
</a>
</g>
</g>
<!-- Node4&#45;&gt;Node2 -->
<g id="edge3" class="edge"><title>Node4&#45;&gt;Node2</title>
<path fill="none" stroke="#9a32cd" stroke-dasharray="5,2" d="M110.018,-113.474C99.5527,-101.034 85.4836,-84.3107 77.263,-74.539"/>
<polygon fill="#9a32cd" stroke="#9a32cd" points="107.455,-115.865 116.571,-121.264 112.812,-111.358 107.455,-115.865"/>
<text text-anchor="middle" x="162" y="-95.8" font-family="Helvetica,sans-Serif" font-size="9.00"> DefaultSeperableInitEstimator</text>
</g>
<!-- Node5 -->
<g id="node5" class="node"><title>Node5</title>
<g id="a_node5"><a xlink:title="STL class. ">
<polygon fill="white" stroke="#bfbfbf" points="79.5,-177.5 79.5,-205.5 167.5,-205.5 167.5,-177.5 79.5,-177.5"/>
<text text-anchor="start" x="87.5" y="-194.3" font-family="Helvetica,sans-Serif" font-size="9.00">std::basic_string&lt;</text>
<text text-anchor="middle" x="123.5" y="-184.3" font-family="Helvetica,sans-Serif" font-size="9.00"> char &gt;</text>
</a>
</g>
</g>
<!-- Node5&#45;&gt;Node4 -->
<g id="edge4" class="edge"><title>Node5&#45;&gt;Node4</title>
<path fill="none" stroke="midnightblue" d="M123.5,-167.386C123.5,-157.594 123.5,-146.816 123.5,-139.653"/>
<polygon fill="midnightblue" stroke="midnightblue" points="120,-167.406 123.5,-177.406 127,-167.406 120,-167.406"/>
</g>
</g>
</svg>
