<?xml version="1.0" encoding="UTF-8" standalone="no"?>
<!DOCTYPE svg PUBLIC "-//W3C//DTD SVG 1.1//EN"
 "http://www.w3.org/Graphics/SVG/1.1/DTD/svg11.dtd">
<!-- Generated by graphviz version 2.38.0 (20140413.2041)
 -->
<!-- Title: mappel::Gauss2DsModel::Stencil::Stencil Pages: 1 -->
<svg width="440pt" height="37pt"
 viewBox="0.00 0.00 440.00 37.00" xmlns="http://www.w3.org/2000/svg" xmlns:xlink="http://www.w3.org/1999/xlink">
<g id="graph0" class="graph" transform="scale(1 1) rotate(0) translate(4 33)">
<title>mappel::Gauss2DsModel::Stencil::Stencil</title>
<polygon fill="white" stroke="none" points="-4,4 -4,-33 436,-33 436,4 -4,4"/>
<!-- Node1 -->
<g id="node1" class="node"><title>Node1</title>
<polygon fill="#bfbfbf" stroke="black" points="0,-0.5 0,-28.5 120,-28.5 120,-0.5 0,-0.5"/>
<text text-anchor="start" x="8" y="-17.3" font-family="Helvetica,sans-Serif" font-size="9.00">mappel::Gauss2DsModel</text>
<text text-anchor="middle" x="60" y="-7.3" font-family="Helvetica,sans-Serif" font-size="9.00">::Stencil::Stencil</text>
</g>
<!-- Node2 -->
<g id="node2" class="node"><title>Node2</title>
<g id="a_node2"><a xlink:href="classmappel_1_1Gauss2DsModel.html#a797aeb7c17a24a7df89597789a0eacb4" target="_top" xlink:title="Make a new Model::Stencil object at theta. ">
<polygon fill="white" stroke="black" points="156,-0.5 156,-28.5 276,-28.5 276,-0.5 156,-0.5"/>
<text text-anchor="start" x="164" y="-17.3" font-family="Helvetica,sans-Serif" font-size="9.00">mappel::Gauss2DsModel</text>
<text text-anchor="middle" x="216" y="-7.3" font-family="Helvetica,sans-Serif" font-size="9.00">::make_stencil</text>
</a>
</g>
</g>
<!-- Node1&#45;&gt;Node2 -->
<g id="edge1" class="edge"><title>Node1&#45;&gt;Node2</title>
<path fill="none" stroke="midnightblue" d="M130.369,-14.5C138.862,-14.5 147.48,-14.5 155.804,-14.5"/>
<polygon fill="midnightblue" stroke="midnightblue" points="130.1,-11.0001 120.1,-14.5 130.1,-18.0001 130.1,-11.0001"/>
</g>
<!-- Node3 -->
<g id="node3" class="node"><title>Node3</title>
<g id="a_node3"><a xlink:href="classmappel_1_1Gauss2DsModel.html#a70e079fd6b31bc6af5b7c10d2a0d8fb5" target="_top" xlink:title="mappel::Gauss2DsModel\l::initial_theta_estimate">
<polygon fill="white" stroke="black" points="312,-0.5 312,-28.5 432,-28.5 432,-0.5 312,-0.5"/>
<text text-anchor="start" x="320" y="-17.3" font-family="Helvetica,sans-Serif" font-size="9.00">mappel::Gauss2DsModel</text>
<text text-anchor="middle" x="372" y="-7.3" font-family="Helvetica,sans-Serif" font-size="9.00">::initial_theta_estimate</text>
</a>
</g>
</g>
<!-- Node2&#45;&gt;Node3 -->
<g id="edge2" class="edge"><title>Node2&#45;&gt;Node3</title>
<path fill="none" stroke="midnightblue" d="M286.369,-14.5C294.862,-14.5 303.48,-14.5 311.804,-14.5"/>
<polygon fill="midnightblue" stroke="midnightblue" points="286.1,-11.0001 276.1,-14.5 286.1,-18.0001 286.1,-11.0001"/>
</g>
</g>
</svg>
