<?xml version="1.0" encoding="UTF-8" standalone="no"?>
<!DOCTYPE svg PUBLIC "-//W3C//DTD SVG 1.1//EN"
 "http://www.w3.org/Graphics/SVG/1.1/DTD/svg11.dtd">
<!-- Generated by graphviz version 2.38.0 (20140413.2041)
 -->
<!-- Title: mappel::Gauss2DsMLE Pages: 1 -->
<svg width="1976pt" height="552pt"
 viewBox="0.00 0.00 1976.00 552.38" xmlns="http://www.w3.org/2000/svg" xmlns:xlink="http://www.w3.org/1999/xlink">
<g id="graph0" class="graph" transform="scale(1 1) rotate(0) translate(4 548.382)">
<title>mappel::Gauss2DsMLE</title>
<polygon fill="white" stroke="none" points="-4,4 -4,-548.382 1972,-548.382 1972,4 -4,4"/>
<!-- Node1 -->
<g id="node1" class="node"><title>Node1</title>
<polygon fill="#bfbfbf" stroke="black" points="1855,-409.382 1855,-427.382 1968,-427.382 1968,-409.382 1855,-409.382"/>
<text text-anchor="middle" x="1911.5" y="-416.182" font-family="Helvetica,sans-Serif" font-size="9.00">mappel::Gauss2DsMLE</text>
</g>
<!-- Node2 -->
<g id="node2" class="node"><title>Node2</title>
<g id="a_node2"><a xlink:href="classmappel_1_1Gauss2DsModel.html" target="_top" xlink:title="A base class for 2D Gaussian PSF where the gaussian sigma is controlled by a single scalar parameter ...">
<polygon fill="white" stroke="black" points="1678.5,-373.382 1678.5,-391.382 1798.5,-391.382 1798.5,-373.382 1678.5,-373.382"/>
<text text-anchor="middle" x="1738.5" y="-380.182" font-family="Helvetica,sans-Serif" font-size="9.00">mappel::Gauss2DsModel</text>
</a>
</g>
</g>
<!-- Node2&#45;&gt;Node1 -->
<g id="edge1" class="edge"><title>Node2&#45;&gt;Node1</title>
<path fill="none" stroke="midnightblue" d="M1792.71,-393.584C1816.82,-398.659 1844.94,-404.58 1867.66,-409.363"/>
<polygon fill="midnightblue" stroke="midnightblue" points="1793.16,-390.102 1782.65,-391.466 1791.71,-396.952 1793.16,-390.102"/>
</g>
<!-- Node3 -->
<g id="node3" class="node"><title>Node3</title>
<g id="a_node3"><a xlink:href="classmappel_1_1PointEmitterModel.html" target="_top" xlink:title="A virtual Base type for point emitter localization models. ">
<polygon fill="white" stroke="black" points="366.5,-111.382 366.5,-129.382 493.5,-129.382 493.5,-111.382 366.5,-111.382"/>
<text text-anchor="middle" x="430" y="-118.182" font-family="Helvetica,sans-Serif" font-size="9.00">mappel::PointEmitterModel</text>
</a>
</g>
</g>
<!-- Node3&#45;&gt;Node2 -->
<g id="edge2" class="edge"><title>Node3&#45;&gt;Node2</title>
<path fill="none" stroke="midnightblue" d="M476.721,-109.016C517.754,-99.817 579.77,-88.3822 634.5,-88.3822 634.5,-88.3822 634.5,-88.3822 1516.5,-88.3822 1662.73,-88.3822 1724.19,-323.637 1735.52,-373.261"/>
<polygon fill="midnightblue" stroke="midnightblue" points="475.724,-105.653 466.758,-111.298 477.287,-112.477 475.724,-105.653"/>
</g>
<!-- Node10 -->
<g id="node10" class="node"><title>Node10</title>
<g id="a_node10"><a xlink:href="classmappel_1_1MCMCAdaptor1D.html" target="_top" xlink:title="mappel::MCMCAdaptor1D">
<polygon fill="white" stroke="black" points="573,-41.3822 573,-59.3822 698,-59.3822 698,-41.3822 573,-41.3822"/>
<text text-anchor="middle" x="635.5" y="-48.1822" font-family="Helvetica,sans-Serif" font-size="9.00">mappel::MCMCAdaptor1D</text>
</a>
</g>
</g>
<!-- Node3&#45;&gt;Node10 -->
<g id="edge10" class="edge"><title>Node3&#45;&gt;Node10</title>
<path fill="none" stroke="midnightblue" d="M454.865,-106.122C471.294,-96.8225 493.884,-85.0345 515,-77.3822 536.197,-69.7007 560.328,-63.7514 581.329,-59.4167"/>
<polygon fill="midnightblue" stroke="midnightblue" points="452.873,-103.23 445.961,-111.26 456.372,-109.293 452.873,-103.23"/>
</g>
<!-- Node13 -->
<g id="node13" class="node"><title>Node13</title>
<g id="a_node13"><a xlink:href="classmappel_1_1Gauss1DsModel.html" target="_top" xlink:title="Base class for 1D Gaussian PSF with variable Gaussian sigma (standard deviation) measured in units of...">
<polygon fill="white" stroke="black" points="1141.5,-251.382 1141.5,-269.382 1261.5,-269.382 1261.5,-251.382 1141.5,-251.382"/>
<text text-anchor="middle" x="1201.5" y="-258.182" font-family="Helvetica,sans-Serif" font-size="9.00">mappel::Gauss1DsModel</text>
</a>
</g>
</g>
<!-- Node3&#45;&gt;Node13 -->
<g id="edge15" class="edge"><title>Node3&#45;&gt;Node13</title>
<path fill="none" stroke="midnightblue" d="M466.732,-132.655C481.573,-137.547 499.028,-143.035 515,-147.382 540.49,-154.32 547.008,-155.66 573,-160.382 806.985,-202.894 872.359,-172.541 1104,-226.382 1130.47,-232.535 1159.77,-243.478 1179.06,-251.287"/>
<polygon fill="midnightblue" stroke="midnightblue" points="467.52,-129.229 456.926,-129.386 465.306,-135.869 467.52,-129.229"/>
</g>
<!-- Node20 -->
<g id="node20" class="node"><title>Node20</title>
<g id="a_node20"><a xlink:href="classmappel_1_1MAPEstimator.html" target="_top" xlink:title="A Mixin class to configure a for MLE estimation (null prior). ">
<polygon fill="white" stroke="black" points="716,-153.382 716,-171.382 826,-171.382 826,-153.382 716,-153.382"/>
<text text-anchor="middle" x="771" y="-160.182" font-family="Helvetica,sans-Serif" font-size="9.00">mappel::MAPEstimator</text>
</a>
</g>
</g>
<!-- Node3&#45;&gt;Node20 -->
<g id="edge28" class="edge"><title>Node3&#45;&gt;Node20</title>
<path fill="none" stroke="midnightblue" d="M503.548,-129.37C567.229,-137.26 658.418,-148.558 715.897,-155.679"/>
<polygon fill="midnightblue" stroke="midnightblue" points="503.927,-125.891 493.573,-128.135 503.067,-132.838 503.927,-125.891"/>
</g>
<!-- Node22 -->
<g id="node22" class="node"><title>Node22</title>
<g id="a_node22"><a xlink:href="classmappel_1_1MLEstimator.html" target="_top" xlink:title="A Mixin class to configure a for MLE estimation (null prior). ">
<polygon fill="white" stroke="black" points="1001,-3.38215 1001,-21.3822 1104,-21.3822 1104,-3.38215 1001,-3.38215"/>
<text text-anchor="middle" x="1052.5" y="-10.1822" font-family="Helvetica,sans-Serif" font-size="9.00">mappel::MLEstimator</text>
</a>
</g>
</g>
<!-- Node3&#45;&gt;Node22 -->
<g id="edge35" class="edge"><title>Node3&#45;&gt;Node22</title>
<path fill="none" stroke="midnightblue" d="M448.261,-104.7C473.458,-83.0187 522.801,-45.0197 573,-31.3822 724.234,9.70389 912.185,0.585719 1000.79,-7.07911"/>
<polygon fill="midnightblue" stroke="midnightblue" points="445.875,-102.137 440.674,-111.368 450.496,-107.394 445.875,-102.137"/>
</g>
<!-- Node4 -->
<g id="node4" class="node"><title>Node4</title>
<polygon fill="white" stroke="#bfbfbf" points="125,-111.382 125,-129.382 202,-129.382 202,-111.382 125,-111.382"/>
<text text-anchor="middle" x="163.5" y="-118.182" font-family="Helvetica,sans-Serif" font-size="9.00">CompositeDist</text>
</g>
<!-- Node4&#45;&gt;Node3 -->
<g id="edge3" class="edge"><title>Node4&#45;&gt;Node3</title>
<path fill="none" stroke="#9a32cd" stroke-dasharray="5,2" d="M212.337,-120.382C255.441,-120.382 319.098,-120.382 366.268,-120.382"/>
<polygon fill="#9a32cd" stroke="#9a32cd" points="212.116,-116.882 202.116,-120.382 212.115,-123.882 212.116,-116.882"/>
<text text-anchor="middle" x="282.5" y="-123.182" font-family="Helvetica,sans-Serif" font-size="9.00"> prior</text>
</g>
<!-- Node5 -->
<g id="node5" class="node"><title>Node5</title>
<g id="a_node5"><a xlink:title="STL class. ">
<polygon fill="white" stroke="#bfbfbf" points="135.5,-395.382 135.5,-413.382 191.5,-413.382 191.5,-395.382 135.5,-395.382"/>
<text text-anchor="middle" x="163.5" y="-402.182" font-family="Helvetica,sans-Serif" font-size="9.00">std::string</text>
</a>
</g>
</g>
<!-- Node5&#45;&gt;Node1 -->
<g id="edge36" class="edge"><title>Node5&#45;&gt;Node1</title>
<path fill="none" stroke="#9a32cd" stroke-dasharray="5,2" d="M174.453,-422.527C184.094,-438.453 200.15,-461.091 220,-474.382 300.303,-528.149 332.359,-534.382 429,-534.382 429,-534.382 429,-534.382 1739.5,-534.382 1815.55,-534.382 1882.91,-454.83 1903.82,-427.484"/>
<polygon fill="#9a32cd" stroke="#9a32cd" points="177.339,-420.525 169.303,-413.621 171.28,-424.03 177.339,-420.525"/>
<text text-anchor="middle" x="1052.5" y="-537.182" font-family="Helvetica,sans-Serif" font-size="9.00"> name</text>
</g>
<!-- Node5&#45;&gt;Node2 -->
<g id="edge12" class="edge"><title>Node5&#45;&gt;Node2</title>
<path fill="none" stroke="#9a32cd" stroke-dasharray="5,2" d="M188.1,-418.628C233.204,-444.459 335.497,-496.382 429,-496.382 429,-496.382 429,-496.382 1053.5,-496.382 1136.84,-496.382 1358.55,-522.451 1428,-476.382 1443.24,-466.274 1431.5,-450.53 1446,-439.382 1455.45,-432.113 1603.47,-405.583 1684.85,-391.426"/>
<polygon fill="#9a32cd" stroke="#9a32cd" points="189.769,-415.55 179.367,-413.54 186.245,-421.598 189.769,-415.55"/>
<text text-anchor="middle" x="913.5" y="-499.182" font-family="Helvetica,sans-Serif" font-size="9.00"> DefaultPriorType</text>
</g>
<!-- Node5&#45;&gt;Node3 -->
<g id="edge4" class="edge"><title>Node5&#45;&gt;Node3</title>
<path fill="none" stroke="#9a32cd" stroke-dasharray="5,2" d="M165.395,-384.984C168.044,-348.704 178.525,-269.875 220,-221.382 264.398,-169.471 341.627,-142.024 388.747,-129.403"/>
<polygon fill="#9a32cd" stroke="#9a32cd" points="161.889,-384.984 164.781,-395.176 168.876,-385.405 161.889,-384.984"/>
<text text-anchor="middle" x="282.5" y="-224.182" font-family="Helvetica,sans-Serif" font-size="9.00"> DefaultSeperableInitEstimator</text>
</g>
<!-- Node12 -->
<g id="node12" class="node"><title>Node12</title>
<g id="a_node12"><a xlink:href="classmappel_1_1Gauss1DsMAP.html" target="_top" xlink:title="A 1D Gaussian with variable PSF sigma under an Poisson read noise assumption and MAP Objective...">
<polygon fill="white" stroke="black" points="1458.5,-307.382 1458.5,-325.382 1572.5,-325.382 1572.5,-307.382 1458.5,-307.382"/>
<text text-anchor="middle" x="1515.5" y="-314.182" font-family="Helvetica,sans-Serif" font-size="9.00">mappel::Gauss1DsMAP</text>
</a>
</g>
</g>
<!-- Node5&#45;&gt;Node12 -->
<g id="edge29" class="edge"><title>Node5&#45;&gt;Node12</title>
<path fill="none" stroke="#9a32cd" stroke-dasharray="5,2" d="M201.787,-399.3C241.625,-394.05 306.661,-385.99 363,-381.382 835.299,-342.756 956.692,-379.649 1428,-330.382 1439.95,-329.133 1452.77,-327.321 1464.77,-325.413"/>
<polygon fill="#9a32cd" stroke="#9a32cd" points="201.186,-395.849 191.735,-400.636 202.109,-402.788 201.186,-395.849"/>
<text text-anchor="middle" x="771" y="-366.182" font-family="Helvetica,sans-Serif" font-size="9.00"> name</text>
</g>
<!-- Node5&#45;&gt;Node13 -->
<g id="edge19" class="edge"><title>Node5&#45;&gt;Node13</title>
<path fill="none" stroke="#9a32cd" stroke-dasharray="5,2" d="M174.126,-386.019C183.546,-370.051 199.461,-347.745 220,-336.382 525.4,-167.429 652.009,-258.827 1001,-254.382 1046.77,-253.799 1058.24,-252.961 1104,-254.382 1116.08,-254.757 1129,-255.396 1141.33,-256.12"/>
<polygon fill="#9a32cd" stroke="#9a32cd" points="170.937,-384.55 169.117,-394.987 177.049,-387.964 170.937,-384.55"/>
<text text-anchor="middle" x="635.5" y="-242.182" font-family="Helvetica,sans-Serif" font-size="9.00"> DefaultPriorType</text>
</g>
<!-- Node19 -->
<g id="node19" class="node"><title>Node19</title>
<polygon fill="white" stroke="#bfbfbf" points="857.5,-435.382 857.5,-453.382 969.5,-453.382 969.5,-435.382 857.5,-435.382"/>
<text text-anchor="middle" x="913.5" y="-442.182" font-family="Helvetica,sans-Serif" font-size="9.00">std::vector&lt; std::string &gt;</text>
</g>
<!-- Node5&#45;&gt;Node19 -->
<g id="edge25" class="edge"><title>Node5&#45;&gt;Node19</title>
<path fill="none" stroke="#9a32cd" stroke-dasharray="5,2" d="M201.847,-408.029C290.786,-416.509 522.175,-437.362 716,-444.382 763.729,-446.111 818.022,-445.949 857.425,-445.447"/>
<polygon fill="#9a32cd" stroke="#9a32cd" points="202.008,-404.529 191.719,-407.058 201.34,-411.497 202.008,-404.529"/>
<text text-anchor="middle" x="535" y="-439.182" font-family="Helvetica,sans-Serif" font-size="9.00"> elements</text>
</g>
<!-- Node6 -->
<g id="node6" class="node"><title>Node6</title>
<g id="a_node6"><a xlink:title="STL class. ">
<polygon fill="white" stroke="#bfbfbf" points="0,-390.382 0,-418.382 88,-418.382 88,-390.382 0,-390.382"/>
<text text-anchor="start" x="8" y="-407.182" font-family="Helvetica,sans-Serif" font-size="9.00">std::basic_string&lt;</text>
<text text-anchor="middle" x="44" y="-397.182" font-family="Helvetica,sans-Serif" font-size="9.00"> char &gt;</text>
</a>
</g>
</g>
<!-- Node6&#45;&gt;Node5 -->
<g id="edge5" class="edge"><title>Node6&#45;&gt;Node5</title>
<path fill="none" stroke="midnightblue" d="M98.287,-404.382C111.161,-404.382 124.389,-404.382 135.467,-404.382"/>
<polygon fill="midnightblue" stroke="midnightblue" points="98.0855,-400.882 88.0855,-404.382 98.0854,-407.882 98.0855,-400.882"/>
</g>
<!-- Node7 -->
<g id="node7" class="node"><title>Node7</title>
<g id="a_node7"><a xlink:href="classmappel_1_1ImageFormat2DBase.html" target="_top" xlink:title="A virtual base class for 2D image localization objectives. ">
<polygon fill="white" stroke="black" points="1446,-449.382 1446,-467.382 1585,-467.382 1585,-449.382 1446,-449.382"/>
<text text-anchor="middle" x="1515.5" y="-456.182" font-family="Helvetica,sans-Serif" font-size="9.00">mappel::ImageFormat2DBase</text>
</a>
</g>
</g>
<!-- Node7&#45;&gt;Node2 -->
<g id="edge6" class="edge"><title>Node7&#45;&gt;Node2</title>
<path fill="none" stroke="midnightblue" d="M1582.65,-447.322C1601.76,-443.25 1622.46,-437.977 1641,-431.382 1671.27,-420.616 1704.16,-402.37 1722.66,-391.44"/>
<polygon fill="midnightblue" stroke="midnightblue" points="1581.91,-443.901 1572.82,-449.343 1583.32,-450.758 1581.91,-443.901"/>
</g>
<!-- Node21 -->
<g id="node21" class="node"><title>Node21</title>
<g id="a_node21"><a xlink:href="classmappel_1_1PoissonNoise2DObjective.html" target="_top" xlink:title="A base class for 2D objectives with Poisson read noise. This objective function and its subclasses ar...">
<polygon fill="white" stroke="black" points="1659,-461.382 1659,-479.382 1818,-479.382 1818,-461.382 1659,-461.382"/>
<text text-anchor="middle" x="1738.5" y="-468.182" font-family="Helvetica,sans-Serif" font-size="9.00">mappel::PoissonNoise2DObjective</text>
</a>
</g>
</g>
<!-- Node7&#45;&gt;Node21 -->
<g id="edge32" class="edge"><title>Node7&#45;&gt;Node21</title>
<path fill="none" stroke="midnightblue" d="M1595.21,-462.656C1615.86,-463.777 1638.13,-464.987 1658.79,-466.108"/>
<polygon fill="midnightblue" stroke="midnightblue" points="1595.39,-459.161 1585.21,-462.113 1595.01,-466.15 1595.39,-459.161"/>
</g>
<!-- Node8 -->
<g id="node8" class="node"><title>Node8</title>
<g id="a_node8"><a xlink:href="classmappel_1_1MCMCAdaptor2Ds.html" target="_top" xlink:title="mappel::MCMCAdaptor2Ds">
<polygon fill="white" stroke="black" points="1299,-41.3822 1299,-59.3822 1428,-59.3822 1428,-41.3822 1299,-41.3822"/>
<text text-anchor="middle" x="1363.5" y="-48.1822" font-family="Helvetica,sans-Serif" font-size="9.00">mappel::MCMCAdaptor2Ds</text>
</a>
</g>
</g>
<!-- Node8&#45;&gt;Node2 -->
<g id="edge7" class="edge"><title>Node8&#45;&gt;Node2</title>
<path fill="none" stroke="midnightblue" d="M1413.85,-39.5957C1474.29,-29.4475 1576.56,-22.6 1641,-74.3822 1739.06,-153.178 1739.35,-330.64 1737.93,-373.119"/>
<polygon fill="midnightblue" stroke="midnightblue" points="1413.04,-36.1864 1403.8,-41.3794 1414.26,-43.0787 1413.04,-36.1864"/>
</g>
<!-- Node9 -->
<g id="node9" class="node"><title>Node9</title>
<g id="a_node9"><a xlink:href="classmappel_1_1MCMCAdaptor2D.html" target="_top" xlink:title="mappel::MCMCAdaptor2D">
<polygon fill="white" stroke="black" points="851,-41.3822 851,-59.3822 976,-59.3822 976,-41.3822 851,-41.3822"/>
<text text-anchor="middle" x="913.5" y="-48.1822" font-family="Helvetica,sans-Serif" font-size="9.00">mappel::MCMCAdaptor2D</text>
</a>
</g>
</g>
<!-- Node9&#45;&gt;Node8 -->
<g id="edge8" class="edge"><title>Node9&#45;&gt;Node8</title>
<path fill="none" stroke="midnightblue" d="M986.564,-50.3822C1072.93,-50.3822 1216.3,-50.3822 1298.78,-50.3822"/>
<polygon fill="midnightblue" stroke="midnightblue" points="986.322,-46.8822 976.322,-50.3822 986.322,-53.8822 986.322,-46.8822"/>
</g>
<!-- Node10&#45;&gt;Node9 -->
<g id="edge9" class="edge"><title>Node10&#45;&gt;Node9</title>
<path fill="none" stroke="midnightblue" d="M708.188,-50.3822C752.35,-50.3822 808.398,-50.3822 850.615,-50.3822"/>
<polygon fill="midnightblue" stroke="midnightblue" points="708.096,-46.8823 698.096,-50.3822 708.096,-53.8823 708.096,-46.8823"/>
</g>
<!-- Node15 -->
<g id="node15" class="node"><title>Node15</title>
<g id="a_node15"><a xlink:href="classmappel_1_1MCMCAdaptor1Ds.html" target="_top" xlink:title="mappel::MCMCAdaptor1Ds">
<polygon fill="white" stroke="black" points="849,-117.382 849,-135.382 978,-135.382 978,-117.382 849,-117.382"/>
<text text-anchor="middle" x="913.5" y="-124.182" font-family="Helvetica,sans-Serif" font-size="9.00">mappel::MCMCAdaptor1Ds</text>
</a>
</g>
</g>
<!-- Node10&#45;&gt;Node15 -->
<g id="edge18" class="edge"><title>Node10&#45;&gt;Node15</title>
<path fill="none" stroke="midnightblue" d="M679.089,-62.1095C734.415,-77.3443 829.818,-103.615 879.798,-117.377"/>
<polygon fill="midnightblue" stroke="midnightblue" points="679.815,-58.6793 669.245,-59.3988 677.957,-65.4281 679.815,-58.6793"/>
</g>
<!-- Node11 -->
<g id="node11" class="node"><title>Node11</title>
<g id="a_node11"><a xlink:href="classmappel_1_1MCMCAdaptorBase.html" target="_top" xlink:title="mappel::MCMCAdaptorBase">
<polygon fill="white" stroke="black" points="363,-29.3822 363,-47.3822 497,-47.3822 497,-29.3822 363,-29.3822"/>
<text text-anchor="middle" x="430" y="-36.1822" font-family="Helvetica,sans-Serif" font-size="9.00">mappel::MCMCAdaptorBase</text>
</a>
</g>
</g>
<!-- Node11&#45;&gt;Node10 -->
<g id="edge11" class="edge"><title>Node11&#45;&gt;Node10</title>
<path fill="none" stroke="midnightblue" d="M507.225,-42.877C528.895,-44.1549 552.217,-45.5301 572.902,-46.7498"/>
<polygon fill="midnightblue" stroke="midnightblue" points="507.259,-39.373 497.071,-42.2782 506.847,-46.3609 507.259,-39.373"/>
</g>
<!-- Node12&#45;&gt;Node2 -->
<g id="edge13" class="edge"><title>Node12&#45;&gt;Node2</title>
<path fill="none" stroke="#9a32cd" stroke-dasharray="5,2" d="M1565.08,-327.826C1588.21,-333.539 1616.17,-340.833 1641,-348.382 1665.98,-355.978 1694.09,-366.061 1713.5,-373.271"/>
<polygon fill="#9a32cd" stroke="#9a32cd" points="1565.7,-324.375 1555.16,-325.398 1564.04,-331.175 1565.7,-324.375"/>
<text text-anchor="middle" x="1622" y="-361.182" font-family="Helvetica,sans-Serif" font-size="9.00"> x_model</text>
<text text-anchor="middle" x="1622" y="-351.182" font-family="Helvetica,sans-Serif" font-size="9.00">y_model</text>
</g>
<!-- Node13&#45;&gt;Node12 -->
<g id="edge14" class="edge"><title>Node13&#45;&gt;Node12</title>
<path fill="none" stroke="midnightblue" d="M1262.84,-271.213C1321.47,-281.736 1409.46,-297.53 1464.36,-307.382"/>
<polygon fill="midnightblue" stroke="midnightblue" points="1263.44,-267.764 1252.97,-269.442 1262.2,-274.653 1263.44,-267.764"/>
</g>
<!-- Node14 -->
<g id="node14" class="node"><title>Node14</title>
<g id="a_node14"><a xlink:href="classmappel_1_1ImageFormat1DBase.html" target="_top" xlink:title="A virtual base class for 2D image localization objectives. ">
<polygon fill="white" stroke="black" points="844,-315.382 844,-333.382 983,-333.382 983,-315.382 844,-315.382"/>
<text text-anchor="middle" x="913.5" y="-322.182" font-family="Helvetica,sans-Serif" font-size="9.00">mappel::ImageFormat1DBase</text>
</a>
</g>
</g>
<!-- Node14&#45;&gt;Node13 -->
<g id="edge16" class="edge"><title>Node14&#45;&gt;Node13</title>
<path fill="none" stroke="midnightblue" d="M993.193,-317.179C1027.57,-313.007 1068.14,-306.686 1104,-297.382 1131.27,-290.308 1161.38,-277.995 1180.6,-269.529"/>
<polygon fill="midnightblue" stroke="midnightblue" points="992.729,-313.709 983.206,-318.352 993.546,-320.662 992.729,-313.709"/>
</g>
<!-- Node18 -->
<g id="node18" class="node"><title>Node18</title>
<g id="a_node18"><a xlink:href="classmappel_1_1PoissonNoise1DObjective.html" target="_top" xlink:title="A base class for 1D objectives with Poisson read noise. This objective function and its subclasses ar...">
<polygon fill="white" stroke="black" points="1122,-307.382 1122,-325.382 1281,-325.382 1281,-307.382 1122,-307.382"/>
<text text-anchor="middle" x="1201.5" y="-314.182" font-family="Helvetica,sans-Serif" font-size="9.00">mappel::PoissonNoise1DObjective</text>
</a>
</g>
</g>
<!-- Node14&#45;&gt;Node18 -->
<g id="edge23" class="edge"><title>Node14&#45;&gt;Node18</title>
<path fill="none" stroke="midnightblue" d="M993.712,-324.456C1027.68,-324.252 1067.8,-323.698 1104,-322.382 1109.79,-322.172 1115.77,-321.909 1121.78,-321.612"/>
<polygon fill="midnightblue" stroke="midnightblue" points="993.362,-320.957 983.379,-324.508 993.397,-327.957 993.362,-320.957"/>
</g>
<!-- Node15&#45;&gt;Node13 -->
<g id="edge17" class="edge"><title>Node15&#45;&gt;Node13</title>
<path fill="none" stroke="midnightblue" d="M964.332,-137.938C1003.61,-148.152 1059.06,-165.064 1104,-188.382 1138.51,-206.288 1173.81,-236.183 1190.54,-251.193"/>
<polygon fill="midnightblue" stroke="midnightblue" points="965.015,-134.5 954.46,-135.423 963.286,-141.284 965.015,-134.5"/>
</g>
<!-- Node16 -->
<g id="node16" class="node"><title>Node16</title>
<g id="a_node16"><a xlink:title="STL class. ">
<polygon fill="white" stroke="#bfbfbf" points="596.5,-391.382 596.5,-409.382 674.5,-409.382 674.5,-391.382 596.5,-391.382"/>
<text text-anchor="middle" x="635.5" y="-398.182" font-family="Helvetica,sans-Serif" font-size="9.00">std::vector&lt; T &gt;</text>
</a>
</g>
</g>
<!-- Node16&#45;&gt;Node2 -->
<g id="edge30" class="edge"><title>Node16&#45;&gt;Node2</title>
<path fill="none" stroke="#9a32cd" stroke-dasharray="5,2" d="M684.839,-399.592C863.109,-396.677 1483.45,-386.536 1678.39,-383.348"/>
<polygon fill="#9a32cd" stroke="#9a32cd" points="684.66,-396.094 674.719,-399.757 684.775,-403.093 684.66,-396.094"/>
<text text-anchor="middle" x="1201.5" y="-395.182" font-family="Helvetica,sans-Serif" font-size="9.00"> prior_types</text>
</g>
<!-- Node16&#45;&gt;Node13 -->
<g id="edge20" class="edge"><title>Node16&#45;&gt;Node13</title>
<path fill="none" stroke="#9a32cd" stroke-dasharray="5,2" d="M684.812,-393.12C737.492,-384.785 815.726,-371.026 826,-361.382 848.169,-340.574 820.769,-314.997 844,-295.382 887.597,-258.571 1051.86,-256.549 1141.41,-258.356"/>
<polygon fill="#9a32cd" stroke="#9a32cd" points="683.982,-389.707 674.644,-394.712 685.065,-396.623 683.982,-389.707"/>
<text text-anchor="middle" x="913.5" y="-298.182" font-family="Helvetica,sans-Serif" font-size="9.00"> prior_types</text>
</g>
<!-- Node16&#45;&gt;Node19 -->
<g id="edge26" class="edge"><title>Node16&#45;&gt;Node19</title>
<path fill="none" stroke="orange" stroke-dasharray="5,2" d="M684.762,-408.076C732.968,-415.761 806.969,-427.558 857.44,-435.605"/>
<polygon fill="orange" stroke="orange" points="685.013,-404.572 674.587,-406.454 683.911,-411.485 685.013,-404.572"/>
<text text-anchor="middle" x="771" y="-433.182" font-family="Helvetica,sans-Serif" font-size="9.00"> &lt; std::string &gt;</text>
</g>
<!-- Node17 -->
<g id="node17" class="node"><title>Node17</title>
<polygon fill="white" stroke="#bfbfbf" points="415.5,-391.382 415.5,-409.382 444.5,-409.382 444.5,-391.382 415.5,-391.382"/>
<text text-anchor="middle" x="430" y="-398.182" font-family="Helvetica,sans-Serif" font-size="9.00">T</text>
</g>
<!-- Node17&#45;&gt;Node16 -->
<g id="edge21" class="edge"><title>Node17&#45;&gt;Node16</title>
<path fill="none" stroke="#9a32cd" stroke-dasharray="5,2" d="M454.854,-400.382C489.725,-400.382 554.973,-400.382 596.499,-400.382"/>
<polygon fill="#9a32cd" stroke="#9a32cd" points="454.668,-396.882 444.668,-400.382 454.668,-403.882 454.668,-396.882"/>
<text text-anchor="middle" x="535" y="-403.182" font-family="Helvetica,sans-Serif" font-size="9.00"> elements</text>
</g>
<!-- Node18&#45;&gt;Node12 -->
<g id="edge22" class="edge"><title>Node18&#45;&gt;Node12</title>
<path fill="none" stroke="midnightblue" d="M1291.45,-316.382C1345.17,-316.382 1412,-316.382 1458.43,-316.382"/>
<polygon fill="midnightblue" stroke="midnightblue" points="1291.23,-312.882 1281.23,-316.382 1291.23,-319.882 1291.23,-312.882"/>
</g>
<!-- Node19&#45;&gt;Node18 -->
<g id="edge24" class="edge"><title>Node19&#45;&gt;Node18</title>
<path fill="none" stroke="#9a32cd" stroke-dasharray="5,2" d="M943.965,-431.195C1002.07,-405.188 1130.13,-347.877 1180.03,-325.544"/>
<polygon fill="#9a32cd" stroke="#9a32cd" points="942.309,-428.102 934.611,-435.381 945.168,-434.491 942.309,-428.102"/>
<text text-anchor="middle" x="1052.5" y="-406.182" font-family="Helvetica,sans-Serif" font-size="9.00"> estimator_names</text>
</g>
<!-- Node19&#45;&gt;Node21 -->
<g id="edge33" class="edge"><title>Node19&#45;&gt;Node21</title>
<path fill="none" stroke="#9a32cd" stroke-dasharray="5,2" d="M979.817,-449.315C1080.04,-456.657 1277.82,-470.251 1446,-476.382 1515.74,-478.924 1533.22,-477.938 1603,-478.382 1619.89,-478.49 1624.13,-479.08 1641,-478.382 1646.79,-478.142 1652.78,-477.822 1658.8,-477.447"/>
<polygon fill="#9a32cd" stroke="#9a32cd" points="979.779,-445.802 969.549,-448.559 979.265,-452.784 979.779,-445.802"/>
<text text-anchor="middle" x="1363.5" y="-479.182" font-family="Helvetica,sans-Serif" font-size="9.00"> estimator_names</text>
</g>
<!-- Node20&#45;&gt;Node12 -->
<g id="edge27" class="edge"><title>Node20&#45;&gt;Node12</title>
<path fill="none" stroke="midnightblue" d="M836.157,-163.909C903.346,-166.322 1011.73,-172.52 1104,-188.382 1250.95,-213.643 1288.07,-223.909 1428,-275.382 1452.96,-284.562 1480.51,-298.282 1497.66,-307.282"/>
<polygon fill="midnightblue" stroke="midnightblue" points="836.257,-160.41 826.143,-163.566 836.017,-167.406 836.257,-160.41"/>
</g>
<!-- Node21&#45;&gt;Node1 -->
<g id="edge31" class="edge"><title>Node21&#45;&gt;Node1</title>
<path fill="none" stroke="midnightblue" d="M1778.92,-458.393C1809.96,-448.955 1852.55,-436.003 1880.77,-427.423"/>
<polygon fill="midnightblue" stroke="midnightblue" points="1777.84,-455.066 1769.29,-461.324 1779.87,-461.764 1777.84,-455.066"/>
</g>
<!-- Node22&#45;&gt;Node1 -->
<g id="edge34" class="edge"><title>Node22&#45;&gt;Node1</title>
<path fill="none" stroke="midnightblue" d="M1114.13,-12.3822C1176.43,-12.3822 1276.24,-12.3822 1362.5,-12.3822 1362.5,-12.3822 1362.5,-12.3822 1739.5,-12.3822 1828.6,-12.3822 1897.16,-348.706 1908.76,-409.139"/>
<polygon fill="midnightblue" stroke="midnightblue" points="1114.08,-8.88225 1104.08,-12.3822 1114.08,-15.8823 1114.08,-8.88225"/>
</g>
</g>
</svg>
