<?xml version="1.0" encoding="UTF-8" standalone="no"?>
<!DOCTYPE svg PUBLIC "-//W3C//DTD SVG 1.1//EN"
 "http://www.w3.org/Graphics/SVG/1.1/DTD/svg11.dtd">
<!-- Generated by graphviz version 2.38.0 (20140413.2041)
 -->
<!-- Title: mappel::PointEmitterModel::set_ubound Pages: 1 -->
<svg width="603pt" height="131pt"
 viewBox="0.00 0.00 603.00 131.00" xmlns="http://www.w3.org/2000/svg" xmlns:xlink="http://www.w3.org/1999/xlink">
<g id="graph0" class="graph" transform="scale(1 1) rotate(0) translate(4 127)">
<title>mappel::PointEmitterModel::set_ubound</title>
<polygon fill="white" stroke="none" points="-4,4 -4,-127 599,-127 599,4 -4,4"/>
<!-- Node1 -->
<g id="node1" class="node"><title>Node1</title>
<polygon fill="#bfbfbf" stroke="black" points="0,-24.5 0,-52.5 127,-52.5 127,-24.5 0,-24.5"/>
<text text-anchor="start" x="8" y="-41.3" font-family="Helvetica,sans-Serif" font-size="9.00">mappel::PointEmitterModel</text>
<text text-anchor="middle" x="63.5" y="-31.3" font-family="Helvetica,sans-Serif" font-size="9.00">::set_ubound</text>
</g>
<!-- Node2 -->
<g id="node2" class="node"><title>Node2</title>
<g id="a_node2"><a xlink:href="classmappel_1_1Gauss1DsModel.html#abcaaecd43be1f8c005b65e74482a7d86" target="_top" xlink:title="mappel::Gauss1DsModel\l::set_max_sigma">
<polygon fill="white" stroke="black" points="163,-46.5 163,-74.5 283,-74.5 283,-46.5 163,-46.5"/>
<text text-anchor="start" x="171" y="-63.3" font-family="Helvetica,sans-Serif" font-size="9.00">mappel::Gauss1DsModel</text>
<text text-anchor="middle" x="223" y="-53.3" font-family="Helvetica,sans-Serif" font-size="9.00">::set_max_sigma</text>
</a>
</g>
</g>
<!-- Node1&#45;&gt;Node2 -->
<g id="edge1" class="edge"><title>Node1&#45;&gt;Node2</title>
<path fill="none" stroke="midnightblue" d="M137.21,-48.6564C145.796,-49.8556 154.478,-51.0683 162.844,-52.237"/>
<polygon fill="midnightblue" stroke="midnightblue" points="137.589,-45.1753 127.201,-47.2582 136.62,-52.108 137.589,-45.1753"/>
</g>
<!-- Node4 -->
<g id="node4" class="node"><title>Node4</title>
<g id="a_node4"><a xlink:href="classmappel_1_1Gauss2DsModel.html#a85925eaef6d69c5f6b3ceeae3364dd68" target="_top" xlink:title="mappel::Gauss2DsModel\l::set_max_sigma_ratio">
<polygon fill="white" stroke="black" points="319,-0.5 319,-28.5 439,-28.5 439,-0.5 319,-0.5"/>
<text text-anchor="start" x="327" y="-17.3" font-family="Helvetica,sans-Serif" font-size="9.00">mappel::Gauss2DsModel</text>
<text text-anchor="middle" x="379" y="-7.3" font-family="Helvetica,sans-Serif" font-size="9.00">::set_max_sigma_ratio</text>
</a>
</g>
</g>
<!-- Node1&#45;&gt;Node4 -->
<g id="edge6" class="edge"><title>Node1&#45;&gt;Node4</title>
<path fill="none" stroke="midnightblue" d="M137.253,-32.9304C192.442,-28.7054 267.345,-22.9712 318.87,-19.0267"/>
<polygon fill="midnightblue" stroke="midnightblue" points="136.892,-29.4477 127.188,-33.7009 137.426,-36.4273 136.892,-29.4477"/>
</g>
<!-- Node3 -->
<g id="node3" class="node"><title>Node3</title>
<g id="a_node3"><a xlink:href="classmappel_1_1Gauss1DsModel.html#a28c6e621043d53c5273e277266453de9" target="_top" xlink:title="mappel::Gauss1DsModel\l::set_max_sigma">
<polygon fill="white" stroke="black" points="319,-94.5 319,-122.5 439,-122.5 439,-94.5 319,-94.5"/>
<text text-anchor="start" x="327" y="-111.3" font-family="Helvetica,sans-Serif" font-size="9.00">mappel::Gauss1DsModel</text>
<text text-anchor="middle" x="379" y="-101.3" font-family="Helvetica,sans-Serif" font-size="9.00">::set_max_sigma</text>
</a>
</g>
</g>
<!-- Node2&#45;&gt;Node3 -->
<g id="edge2" class="edge"><title>Node2&#45;&gt;Node3</title>
<path fill="none" stroke="midnightblue" d="M278.638,-77.53C296.435,-83.0771 315.977,-89.1683 332.987,-94.47"/>
<polygon fill="midnightblue" stroke="midnightblue" points="279.546,-74.1469 268.957,-74.5126 277.463,-80.8298 279.546,-74.1469"/>
</g>
<!-- Node2&#45;&gt;Node4 -->
<g id="edge3" class="edge"><title>Node2&#45;&gt;Node4</title>
<path fill="none" stroke="midnightblue" d="M281.074,-43.4518C297.504,-38.5441 315.234,-33.2483 330.981,-28.5446"/>
<polygon fill="midnightblue" stroke="midnightblue" points="279.622,-40.2328 271.042,-46.4485 281.625,-46.94 279.622,-40.2328"/>
</g>
<!-- Node6 -->
<g id="node6" class="node"><title>Node6</title>
<g id="a_node6"><a xlink:href="classmappel_1_1Gauss2DsModel.html#a63d3481174444ff7f7b603a47aa8dcc1" target="_top" xlink:title="mappel::Gauss2DsModel\l::set_min_sigma">
<polygon fill="white" stroke="black" points="319,-47.5 319,-75.5 439,-75.5 439,-47.5 319,-47.5"/>
<text text-anchor="start" x="327" y="-64.3" font-family="Helvetica,sans-Serif" font-size="9.00">mappel::Gauss2DsModel</text>
<text text-anchor="middle" x="379" y="-54.3" font-family="Helvetica,sans-Serif" font-size="9.00">::set_min_sigma</text>
</a>
</g>
</g>
<!-- Node2&#45;&gt;Node6 -->
<g id="edge5" class="edge"><title>Node2&#45;&gt;Node6</title>
<path fill="none" stroke="midnightblue" d="M293.369,-60.9504C301.862,-61.0056 310.48,-61.0616 318.804,-61.1156"/>
<polygon fill="midnightblue" stroke="midnightblue" points="293.123,-57.4489 283.1,-60.8838 293.077,-64.4487 293.123,-57.4489"/>
</g>
<!-- Node5 -->
<g id="node5" class="node"><title>Node5</title>
<g id="a_node5"><a xlink:href="classmappel_1_1Gauss2DsModel.html#a8ef1bc0d4dc27247d88ff2c7300a149d" target="_top" xlink:title="mappel::Gauss2DsModel\l::set_max_sigma">
<polygon fill="white" stroke="black" points="475,-0.5 475,-28.5 595,-28.5 595,-0.5 475,-0.5"/>
<text text-anchor="start" x="483" y="-17.3" font-family="Helvetica,sans-Serif" font-size="9.00">mappel::Gauss2DsModel</text>
<text text-anchor="middle" x="535" y="-7.3" font-family="Helvetica,sans-Serif" font-size="9.00">::set_max_sigma</text>
</a>
</g>
</g>
<!-- Node4&#45;&gt;Node5 -->
<g id="edge4" class="edge"><title>Node4&#45;&gt;Node5</title>
<path fill="none" stroke="midnightblue" d="M449.369,-14.5C457.862,-14.5 466.48,-14.5 474.804,-14.5"/>
<polygon fill="midnightblue" stroke="midnightblue" points="449.1,-11.0001 439.1,-14.5 449.1,-18.0001 449.1,-11.0001"/>
</g>
</g>
</svg>
