<?xml version="1.0" encoding="UTF-8" standalone="no"?>
<!DOCTYPE svg PUBLIC "-//W3C//DTD SVG 1.1//EN"
 "http://www.w3.org/Graphics/SVG/1.1/DTD/svg11.dtd">
<!-- Generated by graphviz version 2.38.0 (20140413.2041)
 -->
<!-- Title: mappel::Gauss1DsModel::pixel_hess_update Pages: 1 -->
<svg width="447pt" height="149pt"
 viewBox="0.00 0.00 447.00 148.57" xmlns="http://www.w3.org/2000/svg" xmlns:xlink="http://www.w3.org/1999/xlink">
<g id="graph0" class="graph" transform="scale(1 1) rotate(0) translate(4 144.573)">
<title>mappel::Gauss1DsModel::pixel_hess_update</title>
<polygon fill="white" stroke="none" points="-4,4 -4,-144.573 443,-144.573 443,4 -4,4"/>
<!-- Node1 -->
<g id="node1" class="node"><title>Node1</title>
<polygon fill="#bfbfbf" stroke="black" points="0,-70.5 0,-98.5 120,-98.5 120,-70.5 0,-70.5"/>
<text text-anchor="start" x="8" y="-87.3" font-family="Helvetica,sans-Serif" font-size="9.00">mappel::Gauss1DsModel</text>
<text text-anchor="middle" x="60" y="-77.3" font-family="Helvetica,sans-Serif" font-size="9.00">::pixel_hess_update</text>
</g>
<!-- Node2 -->
<g id="node2" class="node"><title>Node2</title>
<g id="a_node2"><a xlink:href="classmappel_1_1Gauss1DsModel_1_1Stencil.html#a29ce270778228bbf34c3bb995f7fa3b6" target="_top" xlink:title="mappel::Gauss1DsModel\l::Stencil::I">
<polygon fill="white" stroke="black" points="319,-92.5 319,-120.5 439,-120.5 439,-92.5 319,-92.5"/>
<text text-anchor="start" x="327" y="-109.3" font-family="Helvetica,sans-Serif" font-size="9.00">mappel::Gauss1DsModel</text>
<text text-anchor="middle" x="379" y="-99.3" font-family="Helvetica,sans-Serif" font-size="9.00">::Stencil::I</text>
</a>
</g>
</g>
<!-- Node1&#45;&gt;Node2 -->
<g id="edge1" class="edge"><title>Node1&#45;&gt;Node2</title>
<path fill="none" stroke="midnightblue" d="M81.7692,-98.6056C100.309,-110.288 128.677,-125.989 156,-132.5 210.907,-145.584 227.058,-140.017 283,-132.5 297.183,-130.594 312.245,-127.156 326.096,-123.391"/>
<polygon fill="midnightblue" stroke="midnightblue" points="327.267,-126.697 335.938,-120.609 325.363,-119.961 327.267,-126.697"/>
</g>
<!-- Node3 -->
<g id="node3" class="node"><title>Node3</title>
<g id="a_node3"><a xlink:href="classmappel_1_1PointEmitterModel.html#a1cd8ff64ce4132b6eaa8655696885749" target="_top" xlink:title="mappel::PointEmitterModel\l::make_param">
<polygon fill="white" stroke="black" points="156,-94.5 156,-122.5 283,-122.5 283,-94.5 156,-94.5"/>
<text text-anchor="start" x="164" y="-111.3" font-family="Helvetica,sans-Serif" font-size="9.00">mappel::PointEmitterModel</text>
<text text-anchor="middle" x="219.5" y="-101.3" font-family="Helvetica,sans-Serif" font-size="9.00">::make_param</text>
</a>
</g>
</g>
<!-- Node1&#45;&gt;Node3 -->
<g id="edge2" class="edge"><title>Node1&#45;&gt;Node3</title>
<path fill="none" stroke="midnightblue" d="M120.095,-93.505C128.502,-94.786 137.228,-96.1157 145.856,-97.4305"/>
<polygon fill="midnightblue" stroke="midnightblue" points="145.501,-100.917 155.914,-98.9631 146.556,-93.9966 145.501,-100.917"/>
</g>
<!-- Node4 -->
<g id="node4" class="node"><title>Node4</title>
<g id="a_node4"><a xlink:href="classmappel_1_1Gauss1DsModel.html#a03b7f5f6e8511fa8f1947cb6e15f3a25" target="_top" xlink:title="mappel::Gauss1DsModel\l::pixel_grad">
<polygon fill="white" stroke="black" points="159.5,-47.5 159.5,-75.5 279.5,-75.5 279.5,-47.5 159.5,-47.5"/>
<text text-anchor="start" x="167.5" y="-64.3" font-family="Helvetica,sans-Serif" font-size="9.00">mappel::Gauss1DsModel</text>
<text text-anchor="middle" x="219.5" y="-54.3" font-family="Helvetica,sans-Serif" font-size="9.00">::pixel_grad</text>
</a>
</g>
</g>
<!-- Node1&#45;&gt;Node4 -->
<g id="edge3" class="edge"><title>Node1&#45;&gt;Node4</title>
<path fill="none" stroke="midnightblue" d="M120.095,-75.8702C129.619,-74.4795 139.551,-73.029 149.287,-71.6073"/>
<polygon fill="midnightblue" stroke="midnightblue" points="149.946,-75.0482 159.336,-70.1399 148.935,-68.1217 149.946,-75.0482"/>
</g>
<!-- Node5 -->
<g id="node5" class="node"><title>Node5</title>
<g id="a_node5"><a xlink:href="classmappel_1_1Gauss1DsModel_1_1Stencil.html#a91366bc87b44318c0ded04ac99760c27" target="_top" xlink:title="mappel::Gauss1DsModel\l::Stencil::sigma">
<polygon fill="white" stroke="black" points="159.5,-0.5 159.5,-28.5 279.5,-28.5 279.5,-0.5 159.5,-0.5"/>
<text text-anchor="start" x="167.5" y="-17.3" font-family="Helvetica,sans-Serif" font-size="9.00">mappel::Gauss1DsModel</text>
<text text-anchor="middle" x="219.5" y="-7.3" font-family="Helvetica,sans-Serif" font-size="9.00">::Stencil::sigma</text>
</a>
</g>
</g>
<!-- Node1&#45;&gt;Node5 -->
<g id="edge5" class="edge"><title>Node1&#45;&gt;Node5</title>
<path fill="none" stroke="midnightblue" d="M88.5654,-70.3907C107.376,-60.9515 132.964,-48.4792 156,-38.5 160.744,-36.4447 165.727,-34.3791 170.722,-32.3687"/>
<polygon fill="midnightblue" stroke="midnightblue" points="172.271,-35.5199 180.284,-28.588 169.697,-29.0104 172.271,-35.5199"/>
</g>
<!-- Node4&#45;&gt;Node2 -->
<g id="edge4" class="edge"><title>Node4&#45;&gt;Node2</title>
<path fill="none" stroke="midnightblue" d="M269.902,-75.6148C285.441,-80.0546 302.76,-85.0028 318.901,-89.6147"/>
<polygon fill="midnightblue" stroke="midnightblue" points="318.197,-93.0533 328.773,-92.4353 320.12,-86.3227 318.197,-93.0533"/>
</g>
</g>
</svg>
