<?xml version="1.0" encoding="UTF-8" standalone="no"?>
<!DOCTYPE svg PUBLIC "-//W3C//DTD SVG 1.1//EN"
 "http://www.w3.org/Graphics/SVG/1.1/DTD/svg11.dtd">
<!-- Generated by graphviz version 2.38.0 (20140413.2041)
 -->
<!-- Title: mappel::MCMCAdaptor1D Pages: 1 -->
<svg width="288pt" height="214pt"
 viewBox="0.00 0.00 287.50 214.00" xmlns="http://www.w3.org/2000/svg" xmlns:xlink="http://www.w3.org/1999/xlink">
<g id="graph0" class="graph" transform="scale(1 1) rotate(0) translate(4 210)">
<title>mappel::MCMCAdaptor1D</title>
<polygon fill="white" stroke="none" points="-4,4 -4,-210 283.5,-210 283.5,4 -4,4"/>
<!-- Node1 -->
<g id="node1" class="node"><title>Node1</title>
<polygon fill="#bfbfbf" stroke="black" points="112,-0.5 112,-18.5 237,-18.5 237,-0.5 112,-0.5"/>
<text text-anchor="middle" x="174.5" y="-7.3" font-family="Helvetica,sans-Serif" font-size="9.00">mappel::MCMCAdaptor1D</text>
</g>
<!-- Node2 -->
<g id="node2" class="node"><title>Node2</title>
<g id="a_node2"><a xlink:href="classmappel_1_1PointEmitterModel.html" target="_top" xlink:title="A virtual Base type for point emitter localization models. ">
<polygon fill="white" stroke="black" points="0,-56.5 0,-74.5 127,-74.5 127,-56.5 0,-56.5"/>
<text text-anchor="middle" x="63.5" y="-63.3" font-family="Helvetica,sans-Serif" font-size="9.00">mappel::PointEmitterModel</text>
</a>
</g>
</g>
<!-- Node2&#45;&gt;Node1 -->
<g id="edge1" class="edge"><title>Node2&#45;&gt;Node1</title>
<path fill="none" stroke="midnightblue" d="M89.4249,-51.8879C110.543,-41.614 139.732,-27.414 157.847,-18.6017"/>
<polygon fill="midnightblue" stroke="midnightblue" points="87.8197,-48.7765 80.3585,-56.2986 90.882,-55.0712 87.8197,-48.7765"/>
</g>
<!-- Node3 -->
<g id="node3" class="node"><title>Node3</title>
<polygon fill="white" stroke="#bfbfbf" points="3,-121.5 3,-139.5 80,-139.5 80,-121.5 3,-121.5"/>
<text text-anchor="middle" x="41.5" y="-128.3" font-family="Helvetica,sans-Serif" font-size="9.00">CompositeDist</text>
</g>
<!-- Node3&#45;&gt;Node2 -->
<g id="edge2" class="edge"><title>Node3&#45;&gt;Node2</title>
<path fill="none" stroke="#9a32cd" stroke-dasharray="5,2" d="M47.7328,-111.652C51.9963,-99.4424 57.4445,-83.8409 60.6927,-74.539"/>
<polygon fill="#9a32cd" stroke="#9a32cd" points="44.3687,-110.669 44.3761,-121.264 50.9773,-112.977 44.3687,-110.669"/>
<text text-anchor="middle" x="65.5" y="-95.8" font-family="Helvetica,sans-Serif" font-size="9.00"> prior</text>
</g>
<!-- Node4 -->
<g id="node4" class="node"><title>Node4</title>
<g id="a_node4"><a xlink:title="STL class. ">
<polygon fill="white" stroke="#bfbfbf" points="98.5,-121.5 98.5,-139.5 154.5,-139.5 154.5,-121.5 98.5,-121.5"/>
<text text-anchor="middle" x="126.5" y="-128.3" font-family="Helvetica,sans-Serif" font-size="9.00">std::string</text>
</a>
</g>
</g>
<!-- Node4&#45;&gt;Node2 -->
<g id="edge3" class="edge"><title>Node4&#45;&gt;Node2</title>
<path fill="none" stroke="#9a32cd" stroke-dasharray="5,2" d="M111.187,-114.187C98.6802,-101.68 81.4986,-84.4986 71.539,-74.539"/>
<polygon fill="#9a32cd" stroke="#9a32cd" points="108.718,-116.668 118.264,-121.264 113.668,-111.718 108.718,-116.668"/>
<text text-anchor="middle" x="162" y="-95.8" font-family="Helvetica,sans-Serif" font-size="9.00"> DefaultSeperableInitEstimator</text>
</g>
<!-- Node5 -->
<g id="node5" class="node"><title>Node5</title>
<g id="a_node5"><a xlink:title="STL class. ">
<polygon fill="white" stroke="#bfbfbf" points="82.5,-177.5 82.5,-205.5 170.5,-205.5 170.5,-177.5 82.5,-177.5"/>
<text text-anchor="start" x="90.5" y="-194.3" font-family="Helvetica,sans-Serif" font-size="9.00">std::basic_string&lt;</text>
<text text-anchor="middle" x="126.5" y="-184.3" font-family="Helvetica,sans-Serif" font-size="9.00"> char &gt;</text>
</a>
</g>
</g>
<!-- Node5&#45;&gt;Node4 -->
<g id="edge4" class="edge"><title>Node5&#45;&gt;Node4</title>
<path fill="none" stroke="midnightblue" d="M126.5,-167.386C126.5,-157.594 126.5,-146.816 126.5,-139.653"/>
<polygon fill="midnightblue" stroke="midnightblue" points="123,-167.406 126.5,-177.406 130,-167.406 123,-167.406"/>
</g>
<!-- Node6 -->
<g id="node6" class="node"><title>Node6</title>
<g id="a_node6"><a xlink:href="classmappel_1_1MCMCAdaptorBase.html" target="_top" xlink:title="mappel::MCMCAdaptorBase">
<polygon fill="white" stroke="black" points="145.5,-56.5 145.5,-74.5 279.5,-74.5 279.5,-56.5 145.5,-56.5"/>
<text text-anchor="middle" x="212.5" y="-63.3" font-family="Helvetica,sans-Serif" font-size="9.00">mappel::MCMCAdaptorBase</text>
</a>
</g>
</g>
<!-- Node6&#45;&gt;Node1 -->
<g id="edge5" class="edge"><title>Node6&#45;&gt;Node1</title>
<path fill="none" stroke="midnightblue" d="M200.634,-47.6385C193.854,-38.0034 185.656,-26.3531 180.271,-18.7014"/>
<polygon fill="midnightblue" stroke="midnightblue" points="197.945,-49.8987 206.562,-56.0625 203.67,-45.8702 197.945,-49.8987"/>
</g>
</g>
</svg>
