<?xml version="1.0" encoding="UTF-8" standalone="no"?>
<!DOCTYPE svg PUBLIC "-//W3C//DTD SVG 1.1//EN"
 "http://www.w3.org/Graphics/SVG/1.1/DTD/svg11.dtd">
<!-- Generated by graphviz version 2.38.0 (20140413.2041)
 -->
<!-- Title: mappel::Gauss1DsModel::make_prior_beta_position Pages: 1 -->
<!--zoomable 175 -->
<svg id="main" version="1.1" xmlns="http://www.w3.org/2000/svg" xmlns:xlink="http://www.w3.org/1999/xlink" xml:space="preserve" onload="init(evt)">
<style type="text/css"><![CDATA[
.edge:hover path { stroke: red; }
.edge:hover polygon { stroke: red; fill: red; }
]]></style>
<script type="text/javascript"><![CDATA[
var edges = document.getElementsByTagName('g');
if (edges && edges.length) {
  for (var i=0;i<edges.length;i++) {
    if (edges[i].id.substr(0,4)=='edge') {
      edges[i].setAttribute('class','edge');
    }
  }
}
]]></script>
        <defs>
                <circle id="rim" cx="0" cy="0" r="7"/>
                <circle id="rim2" cx="0" cy="0" r="3.5"/>
                <g id="zoomPlus">
                        <use xlink:href="#rim" fill="#404040">
                                <set attributeName="fill" to="#808080" begin="zoomplus.mouseover" end="zoomplus.mouseout"/>
                        </use>
                        <path d="M-4,0h8M0,-4v8" fill="none" stroke="white" stroke-width="1.5" pointer-events="none"/>
                </g>
                <g id="zoomMin">
                        <use xlink:href="#rim" fill="#404040">
                                <set attributeName="fill" to="#808080" begin="zoomminus.mouseover" end="zoomminus.mouseout"/>
                        </use>
                        <path d="M-4,0h8" fill="none" stroke="white" stroke-width="1.5" pointer-events="none"/>
                </g>
                <g id="dirArrow">
                        <path fill="none" stroke="white" stroke-width="1.5" d="M0,-3.0v7 M-2.5,-0.5L0,-3.0L2.5,-0.5"/>
                </g>
               <g id="resetDef">
                       <use xlink:href="#rim2" fill="#404040">
                               <set attributeName="fill" to="#808080" begin="reset.mouseover" end="reset.mouseout"/>
                       </use>
               </g>
        </defs>

<script type="text/javascript">
var viewWidth = 604;
var viewHeight = 175;
var sectionId = 'dynsection-27';
</script>
<script xlink:href="svgpan.js"/>
<svg id="graph" class="graph">
<g id="viewport">
<title>mappel::Gauss1DsModel::make_prior_beta_position</title>
<polygon fill="white" stroke="none" points="-4,4 -4,-171 600,-171 600,4 -4,4"/>
<!-- Node1 -->
<g id="node1" class="node"><title>Node1</title>
<polygon fill="#bfbfbf" stroke="black" points="0,-95.5 0,-123.5 128,-123.5 128,-95.5 0,-95.5"/>
<text text-anchor="start" x="8" y="-112.3" font-family="Helvetica,sans-Serif" font-size="9.00">mappel::Gauss1DsModel</text>
<text text-anchor="middle" x="64" y="-102.3" font-family="Helvetica,sans-Serif" font-size="9.00">::make_prior_beta_position</text>
</g>
<!-- Node2 -->
<g id="node2" class="node"><title>Node2</title>
<g id="a_node2"><a xlink:href="classmappel_1_1Gauss2DsModel.html#a199ce5ccefd43d8bf4b6d0b076fca918" target="_top" xlink:title="mappel::Gauss2DsModel\l::make_internal_1Dsum\l_estimator">
<polygon fill="white" stroke="black" points="164,-90.5 164,-128.5 284,-128.5 284,-90.5 164,-90.5"/>
<text text-anchor="start" x="172" y="-117.3" font-family="Helvetica,sans-Serif" font-size="9.00">mappel::Gauss2DsModel</text>
<text text-anchor="start" x="172" y="-107.3" font-family="Helvetica,sans-Serif" font-size="9.00">::make_internal_1Dsum</text>
<text text-anchor="middle" x="224" y="-97.3" font-family="Helvetica,sans-Serif" font-size="9.00">_estimator</text>
</a>
</g>
</g>
<!-- Node1&#45;&gt;Node2 -->
<g id="edge1" class="edge"><title>Node1&#45;&gt;Node2</title>
<path fill="none" stroke="midnightblue" d="M138.368,-109.5C146.954,-109.5 155.63,-109.5 163.986,-109.5"/>
<polygon fill="midnightblue" stroke="midnightblue" points="138.354,-106 128.354,-109.5 138.354,-113 138.354,-106"/>
</g>
<!-- Node3 -->
<g id="node3" class="node"><title>Node3</title>
<g id="a_node3"><a xlink:href="classmappel_1_1Gauss2DsModel.html#ab884d4d8ab54ec53cf0116aa9a5b1d81" target="_top" xlink:title="mappel::Gauss2DsModel\l::Gauss2DsModel">
<polygon fill="white" stroke="black" points="320,-138.5 320,-166.5 440,-166.5 440,-138.5 320,-138.5"/>
<text text-anchor="start" x="328" y="-155.3" font-family="Helvetica,sans-Serif" font-size="9.00">mappel::Gauss2DsModel</text>
<text text-anchor="middle" x="380" y="-145.3" font-family="Helvetica,sans-Serif" font-size="9.00">::Gauss2DsModel</text>
</a>
</g>
</g>
<!-- Node2&#45;&gt;Node3 -->
<g id="edge2" class="edge"><title>Node2&#45;&gt;Node3</title>
<path fill="none" stroke="midnightblue" d="M293.894,-128.737C305.655,-132.021 317.671,-135.376 328.828,-138.491"/>
<polygon fill="midnightblue" stroke="midnightblue" points="294.673,-125.32 284.1,-126.002 292.79,-132.062 294.673,-125.32"/>
</g>
<!-- Node4 -->
<g id="node4" class="node"><title>Node4</title>
<g id="a_node4"><a xlink:href="classmappel_1_1Gauss2DsModel.html#a2ce4737beb88367daeb480bf471ad2cf" target="_top" xlink:title="mappel::Gauss2DsModel\l::debug_internal_sum\l_model_y">
<polygon fill="white" stroke="black" points="476,-94.5 476,-132.5 596,-132.5 596,-94.5 476,-94.5"/>
<text text-anchor="start" x="484" y="-121.3" font-family="Helvetica,sans-Serif" font-size="9.00">mappel::Gauss2DsModel</text>
<text text-anchor="start" x="484" y="-111.3" font-family="Helvetica,sans-Serif" font-size="9.00">::debug_internal_sum</text>
<text text-anchor="middle" x="536" y="-101.3" font-family="Helvetica,sans-Serif" font-size="9.00">_model_y</text>
</a>
</g>
</g>
<!-- Node2&#45;&gt;Node4 -->
<g id="edge8" class="edge"><title>Node2&#45;&gt;Node4</title>
<path fill="none" stroke="midnightblue" d="M294.323,-110.394C348.909,-111.099 424.166,-112.07 475.918,-112.738"/>
<polygon fill="midnightblue" stroke="midnightblue" points="294.083,-106.891 284.038,-110.262 293.992,-113.891 294.083,-106.891"/>
</g>
<!-- Node5 -->
<g id="node5" class="node"><title>Node5</title>
<g id="a_node5"><a xlink:href="classmappel_1_1Gauss2DsModel.html#a6ce7054c0fcdb72394839a0abb2616cb" target="_top" xlink:title="mappel::Gauss2DsModel\l::update_internal_1Dsum\l_estimators">
<polygon fill="white" stroke="black" points="320,-42.5 320,-80.5 440,-80.5 440,-42.5 320,-42.5"/>
<text text-anchor="start" x="328" y="-69.3" font-family="Helvetica,sans-Serif" font-size="9.00">mappel::Gauss2DsModel</text>
<text text-anchor="start" x="328" y="-59.3" font-family="Helvetica,sans-Serif" font-size="9.00">::update_internal_1Dsum</text>
<text text-anchor="middle" x="380" y="-49.3" font-family="Helvetica,sans-Serif" font-size="9.00">_estimators</text>
</a>
</g>
</g>
<!-- Node2&#45;&gt;Node5 -->
<g id="edge4" class="edge"><title>Node2&#45;&gt;Node5</title>
<path fill="none" stroke="midnightblue" d="M293.809,-88.0529C302.483,-85.3495 311.297,-82.6023 319.804,-79.9508"/>
<polygon fill="midnightblue" stroke="midnightblue" points="292.605,-84.762 284.1,-91.0792 294.689,-91.4449 292.605,-84.762"/>
</g>
<!-- Node3&#45;&gt;Node4 -->
<g id="edge3" class="edge"><title>Node3&#45;&gt;Node4</title>
<path fill="none" stroke="midnightblue" d="M446.296,-135.964C456.105,-133.48 466.174,-130.93 475.845,-128.481"/>
<polygon fill="midnightblue" stroke="midnightblue" points="445.432,-132.572 436.598,-138.42 447.151,-139.358 445.432,-132.572"/>
</g>
<!-- Node5&#45;&gt;Node4 -->
<g id="edge7" class="edge"><title>Node5&#45;&gt;Node4</title>
<path fill="none" stroke="midnightblue" d="M447.01,-83.789C457.508,-87.3339 468.285,-90.9728 478.537,-94.4347"/>
<polygon fill="midnightblue" stroke="midnightblue" points="448.064,-80.4508 437.469,-80.5676 445.824,-87.0829 448.064,-80.4508"/>
</g>
<!-- Node6 -->
<g id="node6" class="node"><title>Node6</title>
<g id="a_node6"><a xlink:href="classmappel_1_1Gauss2DsModel.html#a895bee95db23557189b58f9b1d5e2453" target="_top" xlink:title="mappel::Gauss2DsModel\l::set_prior">
<polygon fill="white" stroke="black" points="476,-47.5 476,-75.5 596,-75.5 596,-47.5 476,-47.5"/>
<text text-anchor="start" x="484" y="-64.3" font-family="Helvetica,sans-Serif" font-size="9.00">mappel::Gauss2DsModel</text>
<text text-anchor="middle" x="536" y="-54.3" font-family="Helvetica,sans-Serif" font-size="9.00">::set_prior</text>
</a>
</g>
</g>
<!-- Node5&#45;&gt;Node6 -->
<g id="edge5" class="edge"><title>Node5&#45;&gt;Node6</title>
<path fill="none" stroke="midnightblue" d="M450.369,-61.5C458.862,-61.5 467.48,-61.5 475.804,-61.5"/>
<polygon fill="midnightblue" stroke="midnightblue" points="450.1,-58.0001 440.1,-61.5 450.1,-65.0001 450.1,-58.0001"/>
</g>
<!-- Node7 -->
<g id="node7" class="node"><title>Node7</title>
<g id="a_node7"><a xlink:href="classmappel_1_1Gauss2DsModel.html#a615788e50f97d8c863ec60a5dfee07e3" target="_top" xlink:title="mappel::Gauss2DsModel\l::set_hyperparams">
<polygon fill="white" stroke="black" points="476,-0.5 476,-28.5 596,-28.5 596,-0.5 476,-0.5"/>
<text text-anchor="start" x="484" y="-17.3" font-family="Helvetica,sans-Serif" font-size="9.00">mappel::Gauss2DsModel</text>
<text text-anchor="middle" x="536" y="-7.3" font-family="Helvetica,sans-Serif" font-size="9.00">::set_hyperparams</text>
</a>
</g>
</g>
<!-- Node5&#45;&gt;Node7 -->
<g id="edge6" class="edge"><title>Node5&#45;&gt;Node7</title>
<path fill="none" stroke="midnightblue" d="M450.032,-40.4317C463.133,-36.4333 476.546,-32.34 488.73,-28.6215"/>
<polygon fill="midnightblue" stroke="midnightblue" points="448.643,-37.1963 440.1,-43.463 450.686,-43.8915 448.643,-37.1963"/>
</g>
</g>
</svg>
        <g id="navigator" transform="translate(0 0)" fill="#404254">
                <rect fill="#f2f5e9" fill-opacity="0.5" stroke="#606060" stroke-width=".5" x="0" y="0" width="60" height="60"/>
                <use id="zoomplus" xlink:href="#zoomPlus" x="17" y="9" onmousedown="handleZoom(evt,'in')"/>
                <use id="zoomminus" xlink:href="#zoomMin" x="42" y="9" onmousedown="handleZoom(evt,'out')"/>
                <use id="reset" xlink:href="#resetDef" x="30" y="36" onmousedown="handleReset()"/>
                <g id="arrowUp" xlink:href="#dirArrow" transform="translate(30 24)" onmousedown="handlePan(0,-1)">
                  <use xlink:href="#rim" fill="#404040">
                        <set attributeName="fill" to="#808080" begin="arrowUp.mouseover" end="arrowUp.mouseout"/>
                  </use>
                  <path fill="none" stroke="white" stroke-width="1.5" d="M0,-3.0v7 M-2.5,-0.5L0,-3.0L2.5,-0.5"/>
                </g>
                <g id="arrowRight" xlink:href="#dirArrow" transform="rotate(90) translate(36 -43)" onmousedown="handlePan(1,0)">
                  <use xlink:href="#rim" fill="#404040">
                        <set attributeName="fill" to="#808080" begin="arrowRight.mouseover" end="arrowRight.mouseout"/>
                  </use>
                  <path fill="none" stroke="white" stroke-width="1.5" d="M0,-3.0v7 M-2.5,-0.5L0,-3.0L2.5,-0.5"/>
                </g>
                <g id="arrowDown" xlink:href="#dirArrow" transform="rotate(180) translate(-30 -48)" onmousedown="handlePan(0,1)">
                  <use xlink:href="#rim" fill="#404040">
                        <set attributeName="fill" to="#808080" begin="arrowDown.mouseover" end="arrowDown.mouseout"/>
                  </use>
                  <path fill="none" stroke="white" stroke-width="1.5" d="M0,-3.0v7 M-2.5,-0.5L0,-3.0L2.5,-0.5"/>
                </g>
                <g id="arrowLeft" xlink:href="#dirArrow" transform="rotate(270) translate(-36 17)" onmousedown="handlePan(-1,0)">
                  <use xlink:href="#rim" fill="#404040">
                        <set attributeName="fill" to="#808080" begin="arrowLeft.mouseover" end="arrowLeft.mouseout"/>
                  </use>
                  <path fill="none" stroke="white" stroke-width="1.5" d="M0,-3.0v7 M-2.5,-0.5L0,-3.0L2.5,-0.5"/>
                </g>
        </g>
        <svg viewBox="0 0 15 15" width="100%" height="30px" preserveAspectRatio="xMaxYMin meet">
         <g id="arrow_out" transform="scale(0.3 0.3)">
          <a xlink:href="classmappel_1_1Gauss1DsModel_a2022044169be5c62bba0db37c2352792_icgraph_org.svg" target="_base">
           <rect id="button" ry="5" rx="5" y="6" x="6" height="38" width="38"
                fill="#f2f5e9" fill-opacity="0.5" stroke="#606060" stroke-width="1.0"/>
           <path id="arrow"
             d="M 11.500037,31.436501 C 11.940474,20.09759 22.043105,11.32322 32.158766,21.979434 L 37.068811,17.246167 C 37.068811,17.246167 37.088388,32 37.088388,32 L 22.160133,31.978069 C 22.160133,31.978069 26.997745,27.140456 26.997745,27.140456 C 18.528582,18.264221 13.291696,25.230495 11.500037,31.436501 z"
             style="fill:#404040;"/>
          </a>
         </g>
        </svg>
</svg>
