<?xml version="1.0" encoding="UTF-8" standalone="no"?>
<!DOCTYPE svg PUBLIC "-//W3C//DTD SVG 1.1//EN"
 "http://www.w3.org/Graphics/SVG/1.1/DTD/svg11.dtd">
<!-- Generated by graphviz version 2.38.0 (20140413.2041)
 -->
<!-- Title: mappel::HeuristicEstimator&lt; Model &gt; Pages: 1 -->
<svg width="138pt" height="167pt"
 viewBox="0.00 0.00 138.00 167.00" xmlns="http://www.w3.org/2000/svg" xmlns:xlink="http://www.w3.org/1999/xlink">
<g id="graph0" class="graph" transform="scale(1 1) rotate(0) translate(4 163)">
<title>mappel::HeuristicEstimator&lt; Model &gt;</title>
<polygon fill="white" stroke="none" points="-4,4 -4,-163 134,-163 134,4 -4,4"/>
<!-- Node1 -->
<g id="node1" class="node"><title>Node1</title>
<polygon fill="#bfbfbf" stroke="black" points="2,-0.5 2,-28.5 128,-28.5 128,-0.5 2,-0.5"/>
<text text-anchor="start" x="10" y="-17.3" font-family="Helvetica,sans-Serif" font-size="9.00">mappel::HeuristicEstimator</text>
<text text-anchor="middle" x="65" y="-7.3" font-family="Helvetica,sans-Serif" font-size="9.00">&lt; Model &gt;</text>
</g>
<!-- Node2 -->
<g id="node2" class="node"><title>Node2</title>
<g id="a_node2"><a xlink:href="classmappel_1_1ThreadedEstimator.html" target="_top" xlink:title="mappel::ThreadedEstimator\l\&lt; Model \&gt;">
<polygon fill="white" stroke="black" points="0,-65.5 0,-93.5 130,-93.5 130,-65.5 0,-65.5"/>
<text text-anchor="start" x="8" y="-82.3" font-family="Helvetica,sans-Serif" font-size="9.00">mappel::ThreadedEstimator</text>
<text text-anchor="middle" x="65" y="-72.3" font-family="Helvetica,sans-Serif" font-size="9.00">&lt; Model &gt;</text>
</a>
</g>
</g>
<!-- Node2&#45;&gt;Node1 -->
<g id="edge1" class="edge"><title>Node2&#45;&gt;Node1</title>
<path fill="none" stroke="midnightblue" d="M65,-55.1641C65,-46.1693 65,-36.2205 65,-28.5369"/>
<polygon fill="midnightblue" stroke="midnightblue" points="61.5001,-55.4463 65,-65.4464 68.5001,-55.4464 61.5001,-55.4463"/>
</g>
<!-- Node3 -->
<g id="node3" class="node"><title>Node3</title>
<g id="a_node3"><a xlink:href="classmappel_1_1Estimator.html" target="_top" xlink:title="mappel::Estimator\&lt;\l Model \&gt;">
<polygon fill="white" stroke="black" points="17.5,-130.5 17.5,-158.5 112.5,-158.5 112.5,-130.5 17.5,-130.5"/>
<text text-anchor="start" x="25.5" y="-147.3" font-family="Helvetica,sans-Serif" font-size="9.00">mappel::Estimator&lt;</text>
<text text-anchor="middle" x="65" y="-137.3" font-family="Helvetica,sans-Serif" font-size="9.00"> Model &gt;</text>
</a>
</g>
</g>
<!-- Node3&#45;&gt;Node2 -->
<g id="edge2" class="edge"><title>Node3&#45;&gt;Node2</title>
<path fill="none" stroke="midnightblue" d="M65,-120.164C65,-111.169 65,-101.221 65,-93.5369"/>
<polygon fill="midnightblue" stroke="midnightblue" points="61.5001,-120.446 65,-130.446 68.5001,-120.446 61.5001,-120.446"/>
</g>
</g>
</svg>
