<?xml version="1.0" encoding="UTF-8" standalone="no"?>
<!DOCTYPE svg PUBLIC "-//W3C//DTD SVG 1.1//EN"
 "http://www.w3.org/Graphics/SVG/1.1/DTD/svg11.dtd">
<!-- Generated by graphviz version 2.38.0 (20140413.2041)
 -->
<!-- Title: mappel::Gauss2DsModel::Gauss2DsModel Pages: 1 -->
<svg width="651pt" height="208pt"
 viewBox="0.00 0.00 651.00 208.00" xmlns="http://www.w3.org/2000/svg" xmlns:xlink="http://www.w3.org/1999/xlink">
<g id="graph0" class="graph" transform="scale(1 1) rotate(0) translate(4 204)">
<title>mappel::Gauss2DsModel::Gauss2DsModel</title>
<polygon fill="white" stroke="none" points="-4,4 -4,-204 647,-204 647,4 -4,4"/>
<!-- Node1 -->
<g id="node1" class="node"><title>Node1</title>
<polygon fill="#bfbfbf" stroke="black" points="0,-108.5 0,-136.5 120,-136.5 120,-108.5 0,-108.5"/>
<text text-anchor="start" x="8" y="-125.3" font-family="Helvetica,sans-Serif" font-size="9.00">mappel::Gauss2DsModel</text>
<text text-anchor="middle" x="60" y="-115.3" font-family="Helvetica,sans-Serif" font-size="9.00">::Gauss2DsModel</text>
</g>
<!-- Node2 -->
<g id="node2" class="node"><title>Node2</title>
<g id="a_node2"><a xlink:href="classmappel_1_1PointEmitterModel.html#a01ce8d6358acbd2575be519dff1df89b" target="_top" xlink:title="mappel::PointEmitterModel\l::check_psf_sigma">
<polygon fill="white" stroke="black" points="156,-134.5 156,-162.5 283,-162.5 283,-134.5 156,-134.5"/>
<text text-anchor="start" x="164" y="-151.3" font-family="Helvetica,sans-Serif" font-size="9.00">mappel::PointEmitterModel</text>
<text text-anchor="middle" x="219.5" y="-141.3" font-family="Helvetica,sans-Serif" font-size="9.00">::check_psf_sigma</text>
</a>
</g>
</g>
<!-- Node1&#45;&gt;Node2 -->
<g id="edge1" class="edge"><title>Node1&#45;&gt;Node2</title>
<path fill="none" stroke="midnightblue" d="M120.095,-132.255C128.502,-133.643 137.228,-135.084 145.856,-136.508"/>
<polygon fill="midnightblue" stroke="midnightblue" points="145.478,-139.993 155.914,-138.168 146.618,-133.086 145.478,-139.993"/>
</g>
<!-- Node3 -->
<g id="node3" class="node"><title>Node3</title>
<g id="a_node3"><a xlink:href="classmappel_1_1Gauss2DsModel.html#a199ce5ccefd43d8bf4b6d0b076fca918" target="_top" xlink:title="mappel::Gauss2DsModel\l::make_internal_1Dsum\l_estimator">
<polygon fill="white" stroke="black" points="159.5,-77.5 159.5,-115.5 279.5,-115.5 279.5,-77.5 159.5,-77.5"/>
<text text-anchor="start" x="167.5" y="-104.3" font-family="Helvetica,sans-Serif" font-size="9.00">mappel::Gauss2DsModel</text>
<text text-anchor="start" x="167.5" y="-94.3" font-family="Helvetica,sans-Serif" font-size="9.00">::make_internal_1Dsum</text>
<text text-anchor="middle" x="219.5" y="-84.3" font-family="Helvetica,sans-Serif" font-size="9.00">_estimator</text>
</a>
</g>
</g>
<!-- Node1&#45;&gt;Node3 -->
<g id="edge2" class="edge"><title>Node1&#45;&gt;Node3</title>
<path fill="none" stroke="midnightblue" d="M120.095,-112.745C129.619,-111.173 139.551,-109.533 149.287,-107.926"/>
<polygon fill="midnightblue" stroke="midnightblue" points="150.039,-111.349 159.336,-106.267 148.899,-104.442 150.039,-111.349"/>
</g>
<!-- Node4 -->
<g id="node4" class="node"><title>Node4</title>
<g id="a_node4"><a xlink:href="classmappel_1_1Gauss1DsModel.html#a2022044169be5c62bba0db37c2352792" target="_top" xlink:title="mappel::Gauss1DsModel\l::make_prior_beta_position">
<polygon fill="white" stroke="black" points="324.5,-58.5 324.5,-86.5 452.5,-86.5 452.5,-58.5 324.5,-58.5"/>
<text text-anchor="start" x="332.5" y="-75.3" font-family="Helvetica,sans-Serif" font-size="9.00">mappel::Gauss1DsModel</text>
<text text-anchor="middle" x="388.5" y="-65.3" font-family="Helvetica,sans-Serif" font-size="9.00">::make_prior_beta_position</text>
</a>
</g>
</g>
<!-- Node3&#45;&gt;Node4 -->
<g id="edge3" class="edge"><title>Node3&#45;&gt;Node4</title>
<path fill="none" stroke="midnightblue" d="M279.848,-87.9709C291.015,-86.3661 302.812,-84.6707 314.342,-83.0137"/>
<polygon fill="midnightblue" stroke="midnightblue" points="314.983,-86.4577 324.383,-81.5707 313.987,-79.5289 314.983,-86.4577"/>
</g>
<!-- Node8 -->
<g id="node8" class="node"><title>Node8</title>
<g id="a_node8"><a xlink:href="classmappel_1_1Gauss1DsModel.html#a80bebfae37071515edfde5cd41ae375d" target="_top" xlink:title="mappel::Gauss1DsModel\l::make_prior_normal_position">
<polygon fill="white" stroke="black" points="319,-107.5 319,-135.5 458,-135.5 458,-107.5 319,-107.5"/>
<text text-anchor="start" x="327" y="-124.3" font-family="Helvetica,sans-Serif" font-size="9.00">mappel::Gauss1DsModel</text>
<text text-anchor="middle" x="388.5" y="-114.3" font-family="Helvetica,sans-Serif" font-size="9.00">::make_prior_normal_position</text>
</a>
</g>
</g>
<!-- Node3&#45;&gt;Node8 -->
<g id="edge7" class="edge"><title>Node3&#45;&gt;Node8</title>
<path fill="none" stroke="midnightblue" d="M279.848,-105.384C289.242,-106.791 299.081,-108.264 308.833,-109.723"/>
<polygon fill="midnightblue" stroke="midnightblue" points="308.532,-113.217 318.94,-111.237 309.569,-106.295 308.532,-113.217"/>
</g>
<!-- Node5 -->
<g id="node5" class="node"><title>Node5</title>
<g id="a_node5"><a xlink:href="classmappel_1_1PointEmitterModel.html#a4517e887a22007bd2e03650dcb853c92" target="_top" xlink:title="mappel::PointEmitterModel\l::make_prior_component\l_intensity">
<polygon fill="white" stroke="black" points="505,-104.5 505,-142.5 632,-142.5 632,-104.5 505,-104.5"/>
<text text-anchor="start" x="513" y="-131.3" font-family="Helvetica,sans-Serif" font-size="9.00">mappel::PointEmitterModel</text>
<text text-anchor="start" x="513" y="-121.3" font-family="Helvetica,sans-Serif" font-size="9.00">::make_prior_component</text>
<text text-anchor="middle" x="568.5" y="-111.3" font-family="Helvetica,sans-Serif" font-size="9.00">_intensity</text>
</a>
</g>
</g>
<!-- Node4&#45;&gt;Node5 -->
<g id="edge4" class="edge"><title>Node4&#45;&gt;Node5</title>
<path fill="none" stroke="midnightblue" d="M438.61,-86.571C456.049,-91.5673 476.063,-97.3018 495.038,-102.738"/>
<polygon fill="midnightblue" stroke="midnightblue" points="494.269,-106.159 504.847,-105.549 496.197,-99.4297 494.269,-106.159"/>
</g>
<!-- Node6 -->
<g id="node6" class="node"><title>Node6</title>
<g id="a_node6"><a xlink:href="classmappel_1_1PointEmitterModel.html#ad4d563dd11df8c3daf83890374807185" target="_top" xlink:title="mappel::PointEmitterModel\l::make_prior_component\l_position_beta">
<polygon fill="white" stroke="black" points="505,-0.5 505,-38.5 632,-38.5 632,-0.5 505,-0.5"/>
<text text-anchor="start" x="513" y="-27.3" font-family="Helvetica,sans-Serif" font-size="9.00">mappel::PointEmitterModel</text>
<text text-anchor="start" x="513" y="-17.3" font-family="Helvetica,sans-Serif" font-size="9.00">::make_prior_component</text>
<text text-anchor="middle" x="568.5" y="-7.3" font-family="Helvetica,sans-Serif" font-size="9.00">_position_beta</text>
</a>
</g>
</g>
<!-- Node4&#45;&gt;Node6 -->
<g id="edge5" class="edge"><title>Node4&#45;&gt;Node6</title>
<path fill="none" stroke="midnightblue" d="M436.733,-58.4361C454.701,-53.0862 475.606,-46.8616 495.361,-40.9796"/>
<polygon fill="midnightblue" stroke="midnightblue" points="496.363,-44.3332 504.948,-38.125 494.365,-37.6243 496.363,-44.3332"/>
</g>
<!-- Node7 -->
<g id="node7" class="node"><title>Node7</title>
<g id="a_node7"><a xlink:href="classmappel_1_1PointEmitterModel.html#a6fa9641db2d58329c5225e76427e3219" target="_top" xlink:title="mappel::PointEmitterModel\l::make_prior_component_sigma">
<polygon fill="white" stroke="black" points="494,-57.5 494,-85.5 643,-85.5 643,-57.5 494,-57.5"/>
<text text-anchor="start" x="502" y="-74.3" font-family="Helvetica,sans-Serif" font-size="9.00">mappel::PointEmitterModel</text>
<text text-anchor="middle" x="568.5" y="-64.3" font-family="Helvetica,sans-Serif" font-size="9.00">::make_prior_component_sigma</text>
</a>
</g>
</g>
<!-- Node4&#45;&gt;Node7 -->
<g id="edge6" class="edge"><title>Node4&#45;&gt;Node7</title>
<path fill="none" stroke="midnightblue" d="M452.507,-72.146C462.662,-72.089 473.313,-72.0291 483.863,-71.9699"/>
<polygon fill="midnightblue" stroke="midnightblue" points="483.947,-75.4696 493.927,-71.9133 483.908,-68.4697 483.947,-75.4696"/>
</g>
<!-- Node8&#45;&gt;Node5 -->
<g id="edge8" class="edge"><title>Node8&#45;&gt;Node5</title>
<path fill="none" stroke="midnightblue" d="M458.065,-122.27C470.077,-122.405 482.615,-122.546 494.736,-122.682"/>
<polygon fill="midnightblue" stroke="midnightblue" points="494.761,-126.183 504.8,-122.796 494.84,-119.183 494.761,-126.183"/>
</g>
<!-- Node8&#45;&gt;Node7 -->
<g id="edge10" class="edge"><title>Node8&#45;&gt;Node7</title>
<path fill="none" stroke="midnightblue" d="M439.557,-107.439C460.785,-101.476 485.696,-94.4786 507.868,-88.2504"/>
<polygon fill="midnightblue" stroke="midnightblue" points="508.83,-91.6158 517.511,-85.5419 506.937,-84.8767 508.83,-91.6158"/>
</g>
<!-- Node9 -->
<g id="node9" class="node"><title>Node9</title>
<g id="a_node9"><a xlink:href="classmappel_1_1PointEmitterModel.html#ab99350cf74097c558f7a93b79e7a44c3" target="_top" xlink:title="mappel::PointEmitterModel\l::make_prior_component\l_position_normal">
<polygon fill="white" stroke="black" points="505,-161.5 505,-199.5 632,-199.5 632,-161.5 505,-161.5"/>
<text text-anchor="start" x="513" y="-188.3" font-family="Helvetica,sans-Serif" font-size="9.00">mappel::PointEmitterModel</text>
<text text-anchor="start" x="513" y="-178.3" font-family="Helvetica,sans-Serif" font-size="9.00">::make_prior_component</text>
<text text-anchor="middle" x="568.5" y="-168.3" font-family="Helvetica,sans-Serif" font-size="9.00">_position_normal</text>
</a>
</g>
</g>
<!-- Node8&#45;&gt;Node9 -->
<g id="edge9" class="edge"><title>Node8&#45;&gt;Node9</title>
<path fill="none" stroke="midnightblue" d="M432.135,-135.632C452.564,-142.403 477.515,-150.673 500.404,-158.26"/>
<polygon fill="midnightblue" stroke="midnightblue" points="499.475,-161.64 510.068,-161.464 501.678,-154.995 499.475,-161.64"/>
</g>
</g>
</svg>
