<?xml version="1.0" encoding="UTF-8" standalone="no"?>
<!DOCTYPE svg PUBLIC "-//W3C//DTD SVG 1.1//EN"
 "http://www.w3.org/Graphics/SVG/1.1/DTD/svg11.dtd">
<!-- Generated by graphviz version 2.38.0 (20140413.2041)
 -->
<!-- Title: mappel::MCMCAdaptor1D Pages: 1 -->
<!--zoomable 267 -->
<svg id="main" version="1.1" xmlns="http://www.w3.org/2000/svg" xmlns:xlink="http://www.w3.org/1999/xlink" xml:space="preserve" onload="init(evt)">
<style type="text/css"><![CDATA[
.edge:hover path { stroke: red; }
.edge:hover polygon { stroke: red; fill: red; }
]]></style>
<script type="text/javascript"><![CDATA[
var edges = document.getElementsByTagName('g');
if (edges && edges.length) {
  for (var i=0;i<edges.length;i++) {
    if (edges[i].id.substr(0,4)=='edge') {
      edges[i].setAttribute('class','edge');
    }
  }
}
]]></script>
        <defs>
                <circle id="rim" cx="0" cy="0" r="7"/>
                <circle id="rim2" cx="0" cy="0" r="3.5"/>
                <g id="zoomPlus">
                        <use xlink:href="#rim" fill="#404040">
                                <set attributeName="fill" to="#808080" begin="zoomplus.mouseover" end="zoomplus.mouseout"/>
                        </use>
                        <path d="M-4,0h8M0,-4v8" fill="none" stroke="white" stroke-width="1.5" pointer-events="none"/>
                </g>
                <g id="zoomMin">
                        <use xlink:href="#rim" fill="#404040">
                                <set attributeName="fill" to="#808080" begin="zoomminus.mouseover" end="zoomminus.mouseout"/>
                        </use>
                        <path d="M-4,0h8" fill="none" stroke="white" stroke-width="1.5" pointer-events="none"/>
                </g>
                <g id="dirArrow">
                        <path fill="none" stroke="white" stroke-width="1.5" d="M0,-3.0v7 M-2.5,-0.5L0,-3.0L2.5,-0.5"/>
                </g>
               <g id="resetDef">
                       <use xlink:href="#rim2" fill="#404040">
                               <set attributeName="fill" to="#808080" begin="reset.mouseover" end="reset.mouseout"/>
                       </use>
               </g>
        </defs>

<script type="text/javascript">
var viewWidth = 939;
var viewHeight = 267;
var sectionId = 'dynsection-0';
</script>
<script xlink:href="svgpan.js"/>
<svg id="graph" class="graph">
<g id="viewport">
<title>mappel::MCMCAdaptor1D</title>
<polygon fill="white" stroke="none" points="-4,4 -4,-263 935,-263 935,4 -4,4"/>
<!-- Node1 -->
<g id="node1" class="node"><title>Node1</title>
<polygon fill="#bfbfbf" stroke="black" points="170,-129.5 170,-147.5 295,-147.5 295,-129.5 170,-129.5"/>
<text text-anchor="middle" x="232.5" y="-136.3" font-family="Helvetica,sans-Serif" font-size="9.00">mappel::MCMCAdaptor1D</text>
</g>
<!-- Node4 -->
<g id="node4" class="node"><title>Node4</title>
<g id="a_node4"><a xlink:href="classmappel_1_1Gauss1DModel.html" target="_top" xlink:title="A base class for 1D Gaussian PSF with a fixed sigma (standard dev.) ">
<polygon fill="white" stroke="black" points="337.5,-184.5 337.5,-202.5 453.5,-202.5 453.5,-184.5 337.5,-184.5"/>
<text text-anchor="middle" x="395.5" y="-191.3" font-family="Helvetica,sans-Serif" font-size="9.00">mappel::Gauss1DModel</text>
</a>
</g>
</g>
<!-- Node1&#45;&gt;Node4 -->
<g id="edge3" class="edge"><title>Node1&#45;&gt;Node4</title>
<path fill="none" stroke="midnightblue" d="M269.733,-150.878C299.628,-161.09 341.345,-175.342 368.142,-184.496"/>
<polygon fill="midnightblue" stroke="midnightblue" points="270.68,-147.503 260.086,-147.582 268.417,-154.127 270.68,-147.503"/>
</g>
<!-- Node8 -->
<g id="node8" class="node"><title>Node8</title>
<g id="a_node8"><a xlink:href="classmappel_1_1MCMCAdaptor1Ds.html" target="_top" xlink:title="mappel::MCMCAdaptor1Ds">
<polygon fill="white" stroke="black" points="331,-129.5 331,-147.5 460,-147.5 460,-129.5 331,-129.5"/>
<text text-anchor="middle" x="395.5" y="-136.3" font-family="Helvetica,sans-Serif" font-size="9.00">mappel::MCMCAdaptor1Ds</text>
</a>
</g>
</g>
<!-- Node1&#45;&gt;Node8 -->
<g id="edge7" class="edge"><title>Node1&#45;&gt;Node8</title>
<path fill="none" stroke="midnightblue" d="M305.473,-138.5C313.896,-138.5 322.445,-138.5 330.746,-138.5"/>
<polygon fill="midnightblue" stroke="midnightblue" points="305.286,-135 295.286,-138.5 305.286,-142 305.286,-135"/>
</g>
<!-- Node12 -->
<g id="node12" class="node"><title>Node12</title>
<g id="a_node12"><a xlink:href="classmappel_1_1MCMCAdaptor2D.html" target="_top" xlink:title="mappel::MCMCAdaptor2D">
<polygon fill="white" stroke="black" points="333,-73.5 333,-91.5 458,-91.5 458,-73.5 333,-73.5"/>
<text text-anchor="middle" x="395.5" y="-80.3" font-family="Helvetica,sans-Serif" font-size="9.00">mappel::MCMCAdaptor2D</text>
</a>
</g>
</g>
<!-- Node1&#45;&gt;Node12 -->
<g id="edge11" class="edge"><title>Node1&#45;&gt;Node12</title>
<path fill="none" stroke="midnightblue" d="M269.419,-126.006C299.488,-115.548 341.679,-100.873 368.552,-91.5253"/>
<polygon fill="midnightblue" stroke="midnightblue" points="268.021,-122.787 259.726,-129.378 270.321,-129.398 268.021,-122.787"/>
</g>
<!-- Node2 -->
<g id="node2" class="node"><title>Node2</title>
<g id="a_node2"><a xlink:href="classmappel_1_1PointEmitterModel.html" target="_top" xlink:title="A virtual Base type for point emitter localization models. ">
<polygon fill="white" stroke="black" points="3.5,-148.5 3.5,-166.5 130.5,-166.5 130.5,-148.5 3.5,-148.5"/>
<text text-anchor="middle" x="67" y="-155.3" font-family="Helvetica,sans-Serif" font-size="9.00">mappel::PointEmitterModel</text>
</a>
</g>
</g>
<!-- Node2&#45;&gt;Node1 -->
<g id="edge1" class="edge"><title>Node2&#45;&gt;Node1</title>
<path fill="none" stroke="midnightblue" d="M140.744,-149.047C150.42,-147.922 160.266,-146.778 169.731,-145.678"/>
<polygon fill="midnightblue" stroke="midnightblue" points="140.275,-145.577 130.746,-150.208 141.083,-152.531 140.275,-145.577"/>
</g>
<!-- Node3 -->
<g id="node3" class="node"><title>Node3</title>
<g id="a_node3"><a xlink:href="classmappel_1_1MCMCAdaptorBase.html" target="_top" xlink:title="mappel::MCMCAdaptorBase">
<polygon fill="white" stroke="black" points="0,-111.5 0,-129.5 134,-129.5 134,-111.5 0,-111.5"/>
<text text-anchor="middle" x="67" y="-118.3" font-family="Helvetica,sans-Serif" font-size="9.00">mappel::MCMCAdaptorBase</text>
</a>
</g>
</g>
<!-- Node3&#45;&gt;Node1 -->
<g id="edge2" class="edge"><title>Node3&#45;&gt;Node1</title>
<path fill="none" stroke="midnightblue" d="M144.137,-128.882C152.799,-129.836 161.545,-130.799 169.984,-131.728"/>
<polygon fill="midnightblue" stroke="midnightblue" points="144.353,-125.385 134.03,-127.769 143.587,-132.343 144.353,-125.385"/>
</g>
<!-- Node5 -->
<g id="node5" class="node"><title>Node5</title>
<g id="a_node5"><a xlink:href="classmappel_1_1Gauss1DMAP.html" target="_top" xlink:title="A 1D Gaussian with fixed PSF under an Poisson Read Noise assumption and MAP Objective. ">
<polygon fill="white" stroke="black" points="505.5,-240.5 505.5,-258.5 615.5,-258.5 615.5,-240.5 505.5,-240.5"/>
<text text-anchor="middle" x="560.5" y="-247.3" font-family="Helvetica,sans-Serif" font-size="9.00">mappel::Gauss1DMAP</text>
</a>
</g>
</g>
<!-- Node4&#45;&gt;Node5 -->
<g id="edge4" class="edge"><title>Node4&#45;&gt;Node5</title>
<path fill="none" stroke="midnightblue" d="M427.728,-206.242C447.205,-213.986 472.88,-223.825 496,-231.5 505.461,-234.641 515.826,-237.726 525.387,-240.43"/>
<polygon fill="midnightblue" stroke="midnightblue" points="429.013,-202.987 418.429,-202.518 426.41,-209.485 429.013,-202.987"/>
</g>
<!-- Node6 -->
<g id="node6" class="node"><title>Node6</title>
<g id="a_node6"><a xlink:href="classmappel_1_1Gauss1DMLE.html" target="_top" xlink:title="A 1D Gaussian with fixed PSF under an Poisson noise assumption and maximum&#45;likelihood objective...">
<polygon fill="white" stroke="black" points="506,-203.5 506,-221.5 615,-221.5 615,-203.5 506,-203.5"/>
<text text-anchor="middle" x="560.5" y="-210.3" font-family="Helvetica,sans-Serif" font-size="9.00">mappel::Gauss1DMLE</text>
</a>
</g>
</g>
<!-- Node4&#45;&gt;Node6 -->
<g id="edge5" class="edge"><title>Node4&#45;&gt;Node6</title>
<path fill="none" stroke="midnightblue" d="M463.615,-201.323C477.671,-202.962 492.316,-204.669 505.807,-206.241"/>
<polygon fill="midnightblue" stroke="midnightblue" points="463.848,-197.827 453.509,-200.145 463.037,-204.78 463.848,-197.827"/>
</g>
<!-- Node7 -->
<g id="node7" class="node"><title>Node7</title>
<g id="a_node7"><a xlink:href="classmappel_1_1Gauss2DsxyMAP.html" target="_top" xlink:title="A 1D Gaussian with fixed PSF under an Poisson Read Noise assumption and MAP Objective. ">
<polygon fill="white" stroke="black" points="499,-166.5 499,-184.5 622,-184.5 622,-166.5 499,-166.5"/>
<text text-anchor="middle" x="560.5" y="-173.3" font-family="Helvetica,sans-Serif" font-size="9.00">mappel::Gauss2DsxyMAP</text>
</a>
</g>
</g>
<!-- Node4&#45;&gt;Node7 -->
<g id="edge6" class="edge"><title>Node4&#45;&gt;Node7</title>
<path fill="none" stroke="midnightblue" d="M463.648,-186.085C475.333,-184.794 487.425,-183.459 498.921,-182.19"/>
<polygon fill="midnightblue" stroke="midnightblue" points="463.065,-182.628 453.509,-187.204 463.833,-189.586 463.065,-182.628"/>
</g>
<!-- Node9 -->
<g id="node9" class="node"><title>Node9</title>
<g id="a_node9"><a xlink:href="classmappel_1_1Gauss1DsModel.html" target="_top" xlink:title="Base class for 1D Gaussian PSF with variable Gaussian sigma (standard deviation) measured in units of...">
<polygon fill="white" stroke="black" points="500.5,-129.5 500.5,-147.5 620.5,-147.5 620.5,-129.5 500.5,-129.5"/>
<text text-anchor="middle" x="560.5" y="-136.3" font-family="Helvetica,sans-Serif" font-size="9.00">mappel::Gauss1DsModel</text>
</a>
</g>
</g>
<!-- Node8&#45;&gt;Node9 -->
<g id="edge8" class="edge"><title>Node8&#45;&gt;Node9</title>
<path fill="none" stroke="midnightblue" d="M470.697,-138.5C480.599,-138.5 490.647,-138.5 500.249,-138.5"/>
<polygon fill="midnightblue" stroke="midnightblue" points="470.454,-135 460.454,-138.5 470.454,-142 470.454,-135"/>
</g>
<!-- Node10 -->
<g id="node10" class="node"><title>Node10</title>
<g id="a_node10"><a xlink:href="classmappel_1_1Gauss1DsMAP.html" target="_top" xlink:title="A 1D Gaussian with variable PSF sigma under an Poisson read noise assumption and MAP Objective...">
<polygon fill="white" stroke="black" points="664,-166.5 664,-184.5 778,-184.5 778,-166.5 664,-166.5"/>
<text text-anchor="middle" x="721" y="-173.3" font-family="Helvetica,sans-Serif" font-size="9.00">mappel::Gauss1DsMAP</text>
</a>
</g>
</g>
<!-- Node9&#45;&gt;Node10 -->
<g id="edge9" class="edge"><title>Node9&#45;&gt;Node10</title>
<path fill="none" stroke="midnightblue" d="M610.133,-149.853C633.005,-155.192 659.898,-161.47 681.352,-166.478"/>
<polygon fill="midnightblue" stroke="midnightblue" points="610.807,-146.416 600.273,-147.551 609.216,-153.233 610.807,-146.416"/>
</g>
<!-- Node11 -->
<g id="node11" class="node"><title>Node11</title>
<g id="a_node11"><a xlink:href="classmappel_1_1Gauss1DsMLE.html" target="_top" xlink:title="A 1D Gaussian with variable PSF under an Poisson noise assumption and maximum&#45;likelihood estimator...">
<polygon fill="white" stroke="black" points="664.5,-129.5 664.5,-147.5 777.5,-147.5 777.5,-129.5 664.5,-129.5"/>
<text text-anchor="middle" x="721" y="-136.3" font-family="Helvetica,sans-Serif" font-size="9.00">mappel::Gauss1DsMLE</text>
</a>
</g>
</g>
<!-- Node9&#45;&gt;Node11 -->
<g id="edge10" class="edge"><title>Node9&#45;&gt;Node11</title>
<path fill="none" stroke="midnightblue" d="M630.737,-138.5C641.974,-138.5 653.485,-138.5 664.345,-138.5"/>
<polygon fill="midnightblue" stroke="midnightblue" points="630.52,-135 620.52,-138.5 630.52,-142 630.52,-135"/>
</g>
<!-- Node13 -->
<g id="node13" class="node"><title>Node13</title>
<g id="a_node13"><a xlink:href="classmappel_1_1Gauss2DModel.html" target="_top" xlink:title="A base class for 2D Gaussian PSF with fixed but possibly asymmetric sigma. ">
<polygon fill="white" stroke="black" points="502.5,-73.5 502.5,-91.5 618.5,-91.5 618.5,-73.5 502.5,-73.5"/>
<text text-anchor="middle" x="560.5" y="-80.3" font-family="Helvetica,sans-Serif" font-size="9.00">mappel::Gauss2DModel</text>
</a>
</g>
</g>
<!-- Node12&#45;&gt;Node13 -->
<g id="edge12" class="edge"><title>Node12&#45;&gt;Node13</title>
<path fill="none" stroke="midnightblue" d="M468.451,-82.5C479.801,-82.5 491.402,-82.5 502.356,-82.5"/>
<polygon fill="midnightblue" stroke="midnightblue" points="468.123,-79.0001 458.123,-82.5 468.123,-86.0001 468.123,-79.0001"/>
</g>
<!-- Node16 -->
<g id="node16" class="node"><title>Node16</title>
<g id="a_node16"><a xlink:href="classmappel_1_1MCMCAdaptor2Ds.html" target="_top" xlink:title="mappel::MCMCAdaptor2Ds">
<polygon fill="white" stroke="black" points="496,-36.5 496,-54.5 625,-54.5 625,-36.5 496,-36.5"/>
<text text-anchor="middle" x="560.5" y="-43.3" font-family="Helvetica,sans-Serif" font-size="9.00">mappel::MCMCAdaptor2Ds</text>
</a>
</g>
</g>
<!-- Node12&#45;&gt;Node16 -->
<g id="edge15" class="edge"><title>Node12&#45;&gt;Node16</title>
<path fill="none" stroke="midnightblue" d="M446.197,-71.219C469.787,-65.8643 497.593,-59.5525 519.755,-54.5218"/>
<polygon fill="midnightblue" stroke="midnightblue" points="445.351,-67.8219 436.374,-73.4488 446.901,-74.6483 445.351,-67.8219"/>
</g>
<!-- Node14 -->
<g id="node14" class="node"><title>Node14</title>
<g id="a_node14"><a xlink:href="classmappel_1_1Gauss2DMAP.html" target="_top" xlink:title="A 2D Gaussian with fixed PSF under an Poisson Read Noise assumption and MAP Objective. ">
<polygon fill="white" stroke="black" points="666,-92.5 666,-110.5 776,-110.5 776,-92.5 666,-92.5"/>
<text text-anchor="middle" x="721" y="-99.3" font-family="Helvetica,sans-Serif" font-size="9.00">mappel::Gauss2DMAP</text>
</a>
</g>
</g>
<!-- Node13&#45;&gt;Node14 -->
<g id="edge13" class="edge"><title>Node13&#45;&gt;Node14</title>
<path fill="none" stroke="midnightblue" d="M628.934,-90.5836C641.232,-92.0578 653.918,-93.5785 665.772,-94.9995"/>
<polygon fill="midnightblue" stroke="midnightblue" points="629.068,-87.0746 618.722,-89.3594 628.234,-94.0249 629.068,-87.0746"/>
</g>
<!-- Node15 -->
<g id="node15" class="node"><title>Node15</title>
<g id="a_node15"><a xlink:href="classmappel_1_1Gauss2DMLE.html" target="_top" xlink:title="A 2D Gaussian with fixed PSF under an Poisson noise assumption and maximum&#45;likelihood objective...">
<polygon fill="white" stroke="black" points="666.5,-55.5 666.5,-73.5 775.5,-73.5 775.5,-55.5 666.5,-55.5"/>
<text text-anchor="middle" x="721" y="-62.3" font-family="Helvetica,sans-Serif" font-size="9.00">mappel::Gauss2DMLE</text>
</a>
</g>
</g>
<!-- Node13&#45;&gt;Node15 -->
<g id="edge14" class="edge"><title>Node13&#45;&gt;Node15</title>
<path fill="none" stroke="midnightblue" d="M628.68,-74.8707C641.239,-73.4444 654.212,-71.9712 666.298,-70.5987"/>
<polygon fill="midnightblue" stroke="midnightblue" points="628.263,-71.3955 618.722,-76.0016 629.053,-78.3508 628.263,-71.3955"/>
</g>
<!-- Node17 -->
<g id="node17" class="node"><title>Node17</title>
<g id="a_node17"><a xlink:href="classmappel_1_1Gauss2DsModel.html" target="_top" xlink:title="A base class for 2D Gaussian PSF where the gaussian sigma is controlled by a single scalar parameter ...">
<polygon fill="white" stroke="black" points="661,-18.5 661,-36.5 781,-36.5 781,-18.5 661,-18.5"/>
<text text-anchor="middle" x="721" y="-25.3" font-family="Helvetica,sans-Serif" font-size="9.00">mappel::Gauss2DsModel</text>
</a>
</g>
</g>
<!-- Node16&#45;&gt;Node17 -->
<g id="edge16" class="edge"><title>Node16&#45;&gt;Node17</title>
<path fill="none" stroke="midnightblue" d="M635.1,-37.1416C643.714,-36.1634 652.417,-35.1751 660.799,-34.2231"/>
<polygon fill="midnightblue" stroke="midnightblue" points="634.596,-33.6763 625.055,-38.2824 635.386,-40.6316 634.596,-33.6763"/>
</g>
<!-- Node18 -->
<g id="node18" class="node"><title>Node18</title>
<g id="a_node18"><a xlink:href="classmappel_1_1Gauss2DsMAP.html" target="_top" xlink:title="A 2D Gaussian with a variable scalar PSF sigma under a Poisson noise assumption using a maximum a&#45;pos...">
<polygon fill="white" stroke="black" points="817,-37.5 817,-55.5 931,-55.5 931,-37.5 817,-37.5"/>
<text text-anchor="middle" x="874" y="-44.3" font-family="Helvetica,sans-Serif" font-size="9.00">mappel::Gauss2DsMAP</text>
</a>
</g>
</g>
<!-- Node17&#45;&gt;Node18 -->
<g id="edge17" class="edge"><title>Node17&#45;&gt;Node18</title>
<path fill="none" stroke="midnightblue" d="M791.249,-36.2134C799.835,-37.2938 808.53,-38.3879 816.886,-39.4392"/>
<polygon fill="midnightblue" stroke="midnightblue" points="791.605,-32.7307 781.246,-34.9548 790.731,-39.6759 791.605,-32.7307"/>
</g>
<!-- Node19 -->
<g id="node19" class="node"><title>Node19</title>
<g id="a_node19"><a xlink:href="classmappel_1_1Gauss2DsMLE.html" target="_top" xlink:title="A 2D Gaussian with a variable scalar PSF sigma under a Poisson noise assumption using a maximum&#45;likel...">
<polygon fill="white" stroke="black" points="817.5,-0.5 817.5,-18.5 930.5,-18.5 930.5,-0.5 817.5,-0.5"/>
<text text-anchor="middle" x="874" y="-7.3" font-family="Helvetica,sans-Serif" font-size="9.00">mappel::Gauss2DsMLE</text>
</a>
</g>
</g>
<!-- Node17&#45;&gt;Node19 -->
<g id="edge18" class="edge"><title>Node17&#45;&gt;Node19</title>
<path fill="none" stroke="midnightblue" d="M791.391,-19.2283C800.099,-18.1901 808.917,-17.139 817.376,-16.1306"/>
<polygon fill="midnightblue" stroke="midnightblue" points="790.761,-15.7784 781.246,-20.4376 791.59,-22.7292 790.761,-15.7784"/>
</g>
</g>
</svg>
        <g id="navigator" transform="translate(0 0)" fill="#404254">
                <rect fill="#f2f5e9" fill-opacity="0.5" stroke="#606060" stroke-width=".5" x="0" y="0" width="60" height="60"/>
                <use id="zoomplus" xlink:href="#zoomPlus" x="17" y="9" onmousedown="handleZoom(evt,'in')"/>
                <use id="zoomminus" xlink:href="#zoomMin" x="42" y="9" onmousedown="handleZoom(evt,'out')"/>
                <use id="reset" xlink:href="#resetDef" x="30" y="36" onmousedown="handleReset()"/>
                <g id="arrowUp" xlink:href="#dirArrow" transform="translate(30 24)" onmousedown="handlePan(0,-1)">
                  <use xlink:href="#rim" fill="#404040">
                        <set attributeName="fill" to="#808080" begin="arrowUp.mouseover" end="arrowUp.mouseout"/>
                  </use>
                  <path fill="none" stroke="white" stroke-width="1.5" d="M0,-3.0v7 M-2.5,-0.5L0,-3.0L2.5,-0.5"/>
                </g>
                <g id="arrowRight" xlink:href="#dirArrow" transform="rotate(90) translate(36 -43)" onmousedown="handlePan(1,0)">
                  <use xlink:href="#rim" fill="#404040">
                        <set attributeName="fill" to="#808080" begin="arrowRight.mouseover" end="arrowRight.mouseout"/>
                  </use>
                  <path fill="none" stroke="white" stroke-width="1.5" d="M0,-3.0v7 M-2.5,-0.5L0,-3.0L2.5,-0.5"/>
                </g>
                <g id="arrowDown" xlink:href="#dirArrow" transform="rotate(180) translate(-30 -48)" onmousedown="handlePan(0,1)">
                  <use xlink:href="#rim" fill="#404040">
                        <set attributeName="fill" to="#808080" begin="arrowDown.mouseover" end="arrowDown.mouseout"/>
                  </use>
                  <path fill="none" stroke="white" stroke-width="1.5" d="M0,-3.0v7 M-2.5,-0.5L0,-3.0L2.5,-0.5"/>
                </g>
                <g id="arrowLeft" xlink:href="#dirArrow" transform="rotate(270) translate(-36 17)" onmousedown="handlePan(-1,0)">
                  <use xlink:href="#rim" fill="#404040">
                        <set attributeName="fill" to="#808080" begin="arrowLeft.mouseover" end="arrowLeft.mouseout"/>
                  </use>
                  <path fill="none" stroke="white" stroke-width="1.5" d="M0,-3.0v7 M-2.5,-0.5L0,-3.0L2.5,-0.5"/>
                </g>
        </g>
        <svg viewBox="0 0 15 15" width="100%" height="30px" preserveAspectRatio="xMaxYMin meet">
         <g id="arrow_out" transform="scale(0.3 0.3)">
          <a xlink:href="classmappel_1_1MCMCAdaptor1D__inherit__graph_org.svg" target="_base">
           <rect id="button" ry="5" rx="5" y="6" x="6" height="38" width="38"
                fill="#f2f5e9" fill-opacity="0.5" stroke="#606060" stroke-width="1.0"/>
           <path id="arrow"
             d="M 11.500037,31.436501 C 11.940474,20.09759 22.043105,11.32322 32.158766,21.979434 L 37.068811,17.246167 C 37.068811,17.246167 37.088388,32 37.088388,32 L 22.160133,31.978069 C 22.160133,31.978069 26.997745,27.140456 26.997745,27.140456 C 18.528582,18.264221 13.291696,25.230495 11.500037,31.436501 z"
             style="fill:#404040;"/>
          </a>
         </g>
        </svg>
</svg>
