<?xml version="1.0" encoding="UTF-8" standalone="no"?>
<!DOCTYPE svg PUBLIC "-//W3C//DTD SVG 1.1//EN"
 "http://www.w3.org/Graphics/SVG/1.1/DTD/svg11.dtd">
<!-- Generated by graphviz version 2.38.0 (20140413.2041)
 -->
<!-- Title: mappel::CGaussMLE::compute_estimate Pages: 1 -->
<svg width="280pt" height="84pt"
 viewBox="0.00 0.00 280.00 84.00" xmlns="http://www.w3.org/2000/svg" xmlns:xlink="http://www.w3.org/1999/xlink">
<g id="graph0" class="graph" transform="scale(1 1) rotate(0) translate(4 80)">
<title>mappel::CGaussMLE::compute_estimate</title>
<polygon fill="white" stroke="none" points="-4,4 -4,-80 276,-80 276,4 -4,4"/>
<!-- Node1 -->
<g id="node1" class="node"><title>Node1</title>
<polygon fill="#bfbfbf" stroke="black" points="0,-23.5 0,-51.5 108,-51.5 108,-23.5 0,-23.5"/>
<text text-anchor="start" x="8" y="-40.3" font-family="Helvetica,sans-Serif" font-size="9.00">mappel::CGaussMLE::</text>
<text text-anchor="middle" x="54" y="-30.3" font-family="Helvetica,sans-Serif" font-size="9.00">compute_estimate</text>
</g>
<!-- Node2 -->
<g id="node2" class="node"><title>Node2</title>
<g id="a_node2"><a xlink:href="namespacemappel.html#a5dcd5454ad7d457abff33c2742bd087d" target="_top" xlink:title="mappel::cgauss_compute\l_estimate">
<polygon fill="white" stroke="black" points="147,-47.5 147,-75.5 269,-75.5 269,-47.5 147,-47.5"/>
<text text-anchor="start" x="155" y="-64.3" font-family="Helvetica,sans-Serif" font-size="9.00">mappel::cgauss_compute</text>
<text text-anchor="middle" x="208" y="-54.3" font-family="Helvetica,sans-Serif" font-size="9.00">_estimate</text>
</a>
</g>
</g>
<!-- Node1&#45;&gt;Node2 -->
<g id="edge1" class="edge"><title>Node1&#45;&gt;Node2</title>
<path fill="none" stroke="midnightblue" d="M108.162,-45.894C117.439,-47.3588 127.216,-48.9025 136.866,-50.4262"/>
<polygon fill="midnightblue" stroke="midnightblue" points="136.427,-53.9002 146.851,-52.0027 137.519,-46.9858 136.427,-53.9002"/>
</g>
<!-- Node3 -->
<g id="node3" class="node"><title>Node3</title>
<g id="a_node3"><a xlink:href="namespacemappel_1_1methods_1_1objective.html#a293c23ed6a623e59477bb67b6e40f5ad" target="_top" xlink:title="mappel::methods::objective\l::rllh">
<polygon fill="white" stroke="black" points="144,-0.5 144,-28.5 272,-28.5 272,-0.5 144,-0.5"/>
<text text-anchor="start" x="152" y="-17.3" font-family="Helvetica,sans-Serif" font-size="9.00">mappel::methods::objective</text>
<text text-anchor="middle" x="208" y="-7.3" font-family="Helvetica,sans-Serif" font-size="9.00">::rllh</text>
</a>
</g>
</g>
<!-- Node1&#45;&gt;Node3 -->
<g id="edge2" class="edge"><title>Node1&#45;&gt;Node3</title>
<path fill="none" stroke="midnightblue" d="M108.162,-29.4557C116.469,-28.1988 125.177,-26.8811 133.836,-25.5708"/>
<polygon fill="midnightblue" stroke="midnightblue" points="134.588,-28.997 143.952,-24.0402 133.54,-22.0758 134.588,-28.997"/>
</g>
</g>
</svg>
