<?xml version="1.0" encoding="UTF-8" standalone="no"?>
<!DOCTYPE svg PUBLIC "-//W3C//DTD SVG 1.1//EN"
 "http://www.w3.org/Graphics/SVG/1.1/DTD/svg11.dtd">
<!-- Generated by graphviz version 2.38.0 (20140413.2041)
 -->
<!-- Title: mappel::PriorMAP1DObjective::prior_grad_update Pages: 1 -->
<svg width="316pt" height="111pt"
 viewBox="0.00 0.00 316.00 111.00" xmlns="http://www.w3.org/2000/svg" xmlns:xlink="http://www.w3.org/1999/xlink">
<g id="graph0" class="graph" transform="scale(1 1) rotate(0) translate(4 107)">
<title>mappel::PriorMAP1DObjective::prior_grad_update</title>
<polygon fill="white" stroke="none" points="-4,4 -4,-107 312,-107 312,4 -4,4"/>
<!-- Node1 -->
<g id="node1" class="node"><title>Node1</title>
<polygon fill="#bfbfbf" stroke="black" points="0,-42.5 0,-70.5 141,-70.5 141,-42.5 0,-42.5"/>
<text text-anchor="start" x="8" y="-59.3" font-family="Helvetica,sans-Serif" font-size="9.00">mappel::PriorMAP1DObjective</text>
<text text-anchor="middle" x="70.5" y="-49.3" font-family="Helvetica,sans-Serif" font-size="9.00">::prior_grad_update</text>
</g>
<!-- Node2 -->
<g id="node2" class="node"><title>Node2</title>
<g id="a_node2"><a xlink:href="namespacemappel.html#a077bd23f694399652e8e3a3be5758688" target="_top" xlink:title="mappel::beta_prior_grad">
<polygon fill="white" stroke="black" points="183.5,-84.5 183.5,-102.5 301.5,-102.5 301.5,-84.5 183.5,-84.5"/>
<text text-anchor="middle" x="242.5" y="-91.3" font-family="Helvetica,sans-Serif" font-size="9.00">mappel::beta_prior_grad</text>
</a>
</g>
</g>
<!-- Node1&#45;&gt;Node2 -->
<g id="edge1" class="edge"><title>Node1&#45;&gt;Node2</title>
<path fill="none" stroke="midnightblue" d="M136.255,-70.5937C153.971,-74.4496 172.934,-78.5768 189.814,-82.2507"/>
<polygon fill="midnightblue" stroke="midnightblue" points="189.51,-85.7664 200.025,-84.4732 190.999,-78.9265 189.51,-85.7664"/>
</g>
<!-- Node3 -->
<g id="node3" class="node"><title>Node3</title>
<g id="a_node3"><a xlink:href="namespacemappel.html#a0f4c641d9784a4688faa26c126e28fa2" target="_top" xlink:title="mappel::gamma_prior_grad">
<polygon fill="white" stroke="black" points="177,-47.5 177,-65.5 308,-65.5 308,-47.5 177,-47.5"/>
<text text-anchor="middle" x="242.5" y="-54.3" font-family="Helvetica,sans-Serif" font-size="9.00">mappel::gamma_prior_grad</text>
</a>
</g>
</g>
<!-- Node1&#45;&gt;Node3 -->
<g id="edge2" class="edge"><title>Node1&#45;&gt;Node3</title>
<path fill="none" stroke="midnightblue" d="M141.136,-56.5C149.545,-56.5 158.162,-56.5 166.643,-56.5"/>
<polygon fill="midnightblue" stroke="midnightblue" points="166.896,-60.0001 176.896,-56.5 166.896,-53.0001 166.896,-60.0001"/>
</g>
<!-- Node4 -->
<g id="node4" class="node"><title>Node4</title>
<g id="a_node4"><a xlink:href="namespacemappel_1_1methods_1_1objective.html#a8e120e5a79029803453cea5f9f2d8f67" target="_top" xlink:title="mappel::methods::objective\l::grad">
<polygon fill="white" stroke="black" points="178.5,-0.5 178.5,-28.5 306.5,-28.5 306.5,-0.5 178.5,-0.5"/>
<text text-anchor="start" x="186.5" y="-17.3" font-family="Helvetica,sans-Serif" font-size="9.00">mappel::methods::objective</text>
<text text-anchor="middle" x="242.5" y="-7.3" font-family="Helvetica,sans-Serif" font-size="9.00">::grad</text>
</a>
</g>
</g>
<!-- Node1&#45;&gt;Node4 -->
<g id="edge3" class="edge"><title>Node1&#45;&gt;Node4</title>
<path fill="none" stroke="midnightblue" d="M128.58,-42.3978C143.377,-38.7421 159.443,-34.7728 174.691,-31.0059"/>
<polygon fill="midnightblue" stroke="midnightblue" points="175.702,-34.3614 184.57,-28.565 174.023,-27.5657 175.702,-34.3614"/>
</g>
</g>
</svg>
