<?xml version="1.0" encoding="UTF-8" standalone="no"?>
<!DOCTYPE svg PUBLIC "-//W3C//DTD SVG 1.1//EN"
 "http://www.w3.org/Graphics/SVG/1.1/DTD/svg11.dtd">
<!-- Generated by graphviz version 2.38.0 (20140413.2041)
 -->
<!-- Title: mappel::Gauss2DModel::Stencil::y Pages: 1 -->
<svg width="276pt" height="37pt"
 viewBox="0.00 0.00 276.00 37.00" xmlns="http://www.w3.org/2000/svg" xmlns:xlink="http://www.w3.org/1999/xlink">
<g id="graph0" class="graph" transform="scale(1 1) rotate(0) translate(4 33)">
<title>mappel::Gauss2DModel::Stencil::y</title>
<polygon fill="white" stroke="none" points="-4,4 -4,-33 272,-33 272,4 -4,4"/>
<!-- Node1 -->
<g id="node1" class="node"><title>Node1</title>
<polygon fill="#bfbfbf" stroke="black" points="0,-0.5 0,-28.5 116,-28.5 116,-0.5 0,-0.5"/>
<text text-anchor="start" x="8" y="-17.3" font-family="Helvetica,sans-Serif" font-size="9.00">mappel::Gauss2DModel</text>
<text text-anchor="middle" x="58" y="-7.3" font-family="Helvetica,sans-Serif" font-size="9.00">::Stencil::y</text>
</g>
<!-- Node2 -->
<g id="node2" class="node"><title>Node2</title>
<g id="a_node2"><a xlink:href="classmappel_1_1Gauss2DModel_1_1Stencil.html#a9e1f0ff585b5394d2d114a432b8c7d94" target="_top" xlink:title="mappel::Gauss2DModel\l::Stencil::Stencil">
<polygon fill="white" stroke="black" points="152,-0.5 152,-28.5 268,-28.5 268,-0.5 152,-0.5"/>
<text text-anchor="start" x="160" y="-17.3" font-family="Helvetica,sans-Serif" font-size="9.00">mappel::Gauss2DModel</text>
<text text-anchor="middle" x="210" y="-7.3" font-family="Helvetica,sans-Serif" font-size="9.00">::Stencil::Stencil</text>
</a>
</g>
</g>
<!-- Node1&#45;&gt;Node2 -->
<g id="edge1" class="edge"><title>Node1&#45;&gt;Node2</title>
<path fill="none" stroke="midnightblue" d="M126.311,-14.5C134.728,-14.5 143.277,-14.5 151.525,-14.5"/>
<polygon fill="midnightblue" stroke="midnightblue" points="126.137,-11.0001 116.136,-14.5 126.136,-18.0001 126.137,-11.0001"/>
</g>
</g>
</svg>
