<?xml version="1.0" encoding="UTF-8" standalone="no"?>
<!DOCTYPE svg PUBLIC "-//W3C//DTD SVG 1.1//EN"
 "http://www.w3.org/Graphics/SVG/1.1/DTD/svg11.dtd">
<!-- Generated by graphviz version 2.38.0 (20140413.2041)
 -->
<!-- Title: mappel::Gauss1DsModel::make_default_prior Pages: 1 -->
<svg width="469pt" height="208pt"
 viewBox="0.00 0.00 469.00 208.00" xmlns="http://www.w3.org/2000/svg" xmlns:xlink="http://www.w3.org/1999/xlink">
<g id="graph0" class="graph" transform="scale(1 1) rotate(0) translate(4 204)">
<title>mappel::Gauss1DsModel::make_default_prior</title>
<polygon fill="white" stroke="none" points="-4,4 -4,-204 465,-204 465,4 -4,4"/>
<!-- Node1 -->
<g id="node1" class="node"><title>Node1</title>
<polygon fill="#bfbfbf" stroke="black" points="0,-111.5 0,-139.5 120,-139.5 120,-111.5 0,-111.5"/>
<text text-anchor="start" x="8" y="-128.3" font-family="Helvetica,sans-Serif" font-size="9.00">mappel::Gauss1DsModel</text>
<text text-anchor="middle" x="60" y="-118.3" font-family="Helvetica,sans-Serif" font-size="9.00">::make_default_prior</text>
</g>
<!-- Node2 -->
<g id="node2" class="node"><title>Node2</title>
<g id="a_node2"><a xlink:href="namespacemappel.html#a610296a93ba507763bc770d39049f323" target="_top" target="_top" xlink:title="mappel::istarts_with">
<polygon fill="white" stroke="black" points="167,-163.5 167,-181.5 265,-181.5 265,-163.5 167,-163.5"/>
<text text-anchor="middle" x="216" y="-170.3" font-family="Helvetica,sans-Serif" font-size="9.00">mappel::istarts_with</text>
</a>
</g>
</g>
<!-- Node1&#45;&gt;Node2 -->
<g id="edge1" class="edge"><title>Node1&#45;&gt;Node2</title>
<path fill="none" stroke="midnightblue" d="M107.205,-139.602C128.981,-146.247 154.69,-154.094 175.539,-160.457"/>
<polygon fill="midnightblue" stroke="midnightblue" points="174.758,-163.878 185.344,-163.449 176.801,-157.183 174.758,-163.878"/>
</g>
<!-- Node3 -->
<g id="node3" class="node"><title>Node3</title>
<g id="a_node3"><a xlink:href="classmappel_1_1Gauss1DsModel.html#ad0bdb31a8bcc5a83e9f8653d0ad238ff" target="_top" target="_top" xlink:title="mappel::Gauss1DsModel\l::make_default_prior\l_beta_position">
<polygon fill="white" stroke="black" points="156,-49.5 156,-87.5 276,-87.5 276,-49.5 156,-49.5"/>
<text text-anchor="start" x="164" y="-76.3" font-family="Helvetica,sans-Serif" font-size="9.00">mappel::Gauss1DsModel</text>
<text text-anchor="start" x="164" y="-66.3" font-family="Helvetica,sans-Serif" font-size="9.00">::make_default_prior</text>
<text text-anchor="middle" x="216" y="-56.3" font-family="Helvetica,sans-Serif" font-size="9.00">_beta_position</text>
</a>
</g>
</g>
<!-- Node1&#45;&gt;Node3 -->
<g id="edge2" class="edge"><title>Node1&#45;&gt;Node3</title>
<path fill="none" stroke="midnightblue" d="M99.0674,-111.41C115.602,-105.29 135.388,-97.9668 153.893,-91.1176"/>
<polygon fill="midnightblue" stroke="midnightblue" points="155.266,-94.3415 163.429,-87.5879 152.836,-87.7768 155.266,-94.3415"/>
</g>
<!-- Node7 -->
<g id="node7" class="node"><title>Node7</title>
<g id="a_node7"><a xlink:href="classmappel_1_1Gauss1DsModel.html#ace3513b4d77a0e29488f8ff4a66f64cf" target="_top" target="_top" xlink:title="mappel::Gauss1DsModel\l::make_default_prior\l_normal_position">
<polygon fill="white" stroke="black" points="156,-106.5 156,-144.5 276,-144.5 276,-106.5 156,-106.5"/>
<text text-anchor="start" x="164" y="-133.3" font-family="Helvetica,sans-Serif" font-size="9.00">mappel::Gauss1DsModel</text>
<text text-anchor="start" x="164" y="-123.3" font-family="Helvetica,sans-Serif" font-size="9.00">::make_default_prior</text>
<text text-anchor="middle" x="216" y="-113.3" font-family="Helvetica,sans-Serif" font-size="9.00">_normal_position</text>
</a>
</g>
</g>
<!-- Node1&#45;&gt;Node7 -->
<g id="edge6" class="edge"><title>Node1&#45;&gt;Node7</title>
<path fill="none" stroke="midnightblue" d="M120.1,-125.5C128.422,-125.5 137.039,-125.5 145.533,-125.5"/>
<polygon fill="midnightblue" stroke="midnightblue" points="145.804,-129 155.804,-125.5 145.804,-122 145.804,-129"/>
</g>
<!-- Node4 -->
<g id="node4" class="node"><title>Node4</title>
<g id="a_node4"><a xlink:href="classmappel_1_1PointEmitterModel.html#a4517e887a22007bd2e03650dcb853c92" target="_top" target="_top" xlink:title="mappel::PointEmitterModel\l::make_prior_component\l_intensity">
<polygon fill="white" stroke="black" points="323,-104.5 323,-142.5 450,-142.5 450,-104.5 323,-104.5"/>
<text text-anchor="start" x="331" y="-131.3" font-family="Helvetica,sans-Serif" font-size="9.00">mappel::PointEmitterModel</text>
<text text-anchor="start" x="331" y="-121.3" font-family="Helvetica,sans-Serif" font-size="9.00">::make_prior_component</text>
<text text-anchor="middle" x="386.5" y="-111.3" font-family="Helvetica,sans-Serif" font-size="9.00">_intensity</text>
</a>
</g>
</g>
<!-- Node3&#45;&gt;Node4 -->
<g id="edge3" class="edge"><title>Node3&#45;&gt;Node4</title>
<path fill="none" stroke="midnightblue" d="M275.46,-87.582C289.053,-92.0187 303.636,-96.7789 317.597,-101.336"/>
<polygon fill="midnightblue" stroke="midnightblue" points="316.551,-104.676 327.143,-104.452 318.723,-98.0215 316.551,-104.676"/>
</g>
<!-- Node5 -->
<g id="node5" class="node"><title>Node5</title>
<g id="a_node5"><a xlink:href="classmappel_1_1PointEmitterModel.html#ad4d563dd11df8c3daf83890374807185" target="_top" target="_top" xlink:title="mappel::PointEmitterModel\l::make_prior_component\l_position_beta">
<polygon fill="white" stroke="black" points="323,-0.5 323,-38.5 450,-38.5 450,-0.5 323,-0.5"/>
<text text-anchor="start" x="331" y="-27.3" font-family="Helvetica,sans-Serif" font-size="9.00">mappel::PointEmitterModel</text>
<text text-anchor="start" x="331" y="-17.3" font-family="Helvetica,sans-Serif" font-size="9.00">::make_prior_component</text>
<text text-anchor="middle" x="386.5" y="-7.3" font-family="Helvetica,sans-Serif" font-size="9.00">_position_beta</text>
</a>
</g>
</g>
<!-- Node3&#45;&gt;Node5 -->
<g id="edge4" class="edge"><title>Node3&#45;&gt;Node5</title>
<path fill="none" stroke="midnightblue" d="M276.407,-51.2244C288.294,-47.7675 300.906,-44.0999 313.174,-40.5324"/>
<polygon fill="midnightblue" stroke="midnightblue" points="314.294,-43.8519 322.919,-37.6987 312.339,-37.1304 314.294,-43.8519"/>
</g>
<!-- Node6 -->
<g id="node6" class="node"><title>Node6</title>
<g id="a_node6"><a xlink:href="classmappel_1_1PointEmitterModel.html#a6fa9641db2d58329c5225e76427e3219" target="_top" target="_top" xlink:title="mappel::PointEmitterModel\l::make_prior_component_sigma">
<polygon fill="white" stroke="black" points="312,-57.5 312,-85.5 461,-85.5 461,-57.5 312,-57.5"/>
<text text-anchor="start" x="320" y="-74.3" font-family="Helvetica,sans-Serif" font-size="9.00">mappel::PointEmitterModel</text>
<text text-anchor="middle" x="386.5" y="-64.3" font-family="Helvetica,sans-Serif" font-size="9.00">::make_prior_component_sigma</text>
</a>
</g>
</g>
<!-- Node3&#45;&gt;Node6 -->
<g id="edge5" class="edge"><title>Node3&#45;&gt;Node6</title>
<path fill="none" stroke="midnightblue" d="M276.407,-69.5577C284.647,-69.7044 293.236,-69.8573 301.816,-70.0101"/>
<polygon fill="midnightblue" stroke="midnightblue" points="301.804,-73.5103 311.864,-70.189 301.928,-66.5114 301.804,-73.5103"/>
</g>
<!-- Node7&#45;&gt;Node4 -->
<g id="edge7" class="edge"><title>Node7&#45;&gt;Node4</title>
<path fill="none" stroke="midnightblue" d="M276.407,-124.795C288.177,-124.655 300.657,-124.507 312.81,-124.363"/>
<polygon fill="midnightblue" stroke="midnightblue" points="312.961,-127.861 322.919,-124.243 312.878,-120.862 312.961,-127.861"/>
</g>
<!-- Node7&#45;&gt;Node6 -->
<g id="edge9" class="edge"><title>Node7&#45;&gt;Node6</title>
<path fill="none" stroke="midnightblue" d="M276.407,-106.462C294.554,-100.646 314.391,-94.2886 332.113,-88.6091"/>
<polygon fill="midnightblue" stroke="midnightblue" points="333.263,-91.9162 341.717,-85.5312 331.126,-85.2501 333.263,-91.9162"/>
</g>
<!-- Node8 -->
<g id="node8" class="node"><title>Node8</title>
<g id="a_node8"><a xlink:href="classmappel_1_1PointEmitterModel.html#ab99350cf74097c558f7a93b79e7a44c3" target="_top" target="_top" xlink:title="mappel::PointEmitterModel\l::make_prior_component\l_position_normal">
<polygon fill="white" stroke="black" points="323,-161.5 323,-199.5 450,-199.5 450,-161.5 323,-161.5"/>
<text text-anchor="start" x="331" y="-188.3" font-family="Helvetica,sans-Serif" font-size="9.00">mappel::PointEmitterModel</text>
<text text-anchor="start" x="331" y="-178.3" font-family="Helvetica,sans-Serif" font-size="9.00">::make_prior_component</text>
<text text-anchor="middle" x="386.5" y="-168.3" font-family="Helvetica,sans-Serif" font-size="9.00">_position_normal</text>
</a>
</g>
</g>
<!-- Node7&#45;&gt;Node8 -->
<g id="edge8" class="edge"><title>Node7&#45;&gt;Node8</title>
<path fill="none" stroke="midnightblue" d="M275.46,-144.582C289.053,-149.019 303.636,-153.779 317.597,-158.336"/>
<polygon fill="midnightblue" stroke="midnightblue" points="316.551,-161.676 327.143,-161.452 318.723,-155.021 316.551,-161.676"/>
</g>
</g>
</svg>
