<?xml version="1.0" encoding="UTF-8" standalone="no"?>
<!DOCTYPE svg PUBLIC "-//W3C//DTD SVG 1.1//EN"
 "http://www.w3.org/Graphics/SVG/1.1/DTD/svg11.dtd">
<!-- Generated by graphviz version 2.38.0 (20140413.2041)
 -->
<!-- Title: mappel::Estimator::estimate_max Pages: 1 -->
<svg width="572pt" height="79pt"
 viewBox="0.00 0.00 572.00 79.00" xmlns="http://www.w3.org/2000/svg" xmlns:xlink="http://www.w3.org/1999/xlink">
<g id="graph0" class="graph" transform="scale(1 1) rotate(0) translate(4 75)">
<title>mappel::Estimator::estimate_max</title>
<polygon fill="white" stroke="none" points="-4,4 -4,-75 568,-75 568,4 -4,4"/>
<!-- Node1 -->
<g id="node1" class="node"><title>Node1</title>
<polygon fill="#bfbfbf" stroke="black" points="0,-21.5 0,-49.5 95,-49.5 95,-21.5 0,-21.5"/>
<text text-anchor="start" x="8" y="-38.3" font-family="Helvetica,sans-Serif" font-size="9.00">mappel::Estimator::</text>
<text text-anchor="middle" x="47.5" y="-28.3" font-family="Helvetica,sans-Serif" font-size="9.00">estimate_max</text>
</g>
<!-- Node2 -->
<g id="node2" class="node"><title>Node2</title>
<g id="a_node2"><a xlink:href="namespacemappel_1_1methods.html#a7f4a5561497c243edaa6f55fddf0ec4e" target="_top" xlink:title="mappel::methods::estimate_max">
<polygon fill="white" stroke="black" points="131,-47.5 131,-65.5 280,-65.5 280,-47.5 131,-47.5"/>
<text text-anchor="middle" x="205.5" y="-54.3" font-family="Helvetica,sans-Serif" font-size="9.00">mappel::methods::estimate_max</text>
</a>
</g>
</g>
<!-- Node1&#45;&gt;Node2 -->
<g id="edge1" class="edge"><title>Node1&#45;&gt;Node2</title>
<path fill="none" stroke="midnightblue" d="M95.3051,-41.8007C105.475,-43.1697 116.491,-44.6527 127.482,-46.1322"/>
<polygon fill="midnightblue" stroke="midnightblue" points="127.165,-49.621 137.543,-47.4865 128.099,-42.6836 127.165,-49.621"/>
</g>
<!-- Node5 -->
<g id="node5" class="node"><title>Node5</title>
<g id="a_node5"><a xlink:href="namespacemappel_1_1methods_1_1objective.html#a293c23ed6a623e59477bb67b6e40f5ad" target="_top" xlink:title="mappel::methods::objective\l::rllh">
<polygon fill="white" stroke="black" points="141.5,-0.5 141.5,-28.5 269.5,-28.5 269.5,-0.5 141.5,-0.5"/>
<text text-anchor="start" x="149.5" y="-17.3" font-family="Helvetica,sans-Serif" font-size="9.00">mappel::methods::objective</text>
<text text-anchor="middle" x="205.5" y="-7.3" font-family="Helvetica,sans-Serif" font-size="9.00">::rllh</text>
</a>
</g>
</g>
<!-- Node1&#45;&gt;Node5 -->
<g id="edge4" class="edge"><title>Node1&#45;&gt;Node5</title>
<path fill="none" stroke="midnightblue" d="M95.3051,-29.1993C106.594,-27.6797 118.926,-26.0196 131.108,-24.3797"/>
<polygon fill="midnightblue" stroke="midnightblue" points="131.835,-27.8134 141.279,-23.0105 130.901,-20.876 131.835,-27.8134"/>
</g>
<!-- Node3 -->
<g id="node3" class="node"><title>Node3</title>
<g id="a_node3"><a xlink:href="namespacemappel_1_1methods.html#a0f47a66f366b6e5841f1224e839ed828" target="_top" xlink:title="mappel::methods::make\l_estimator">
<polygon fill="white" stroke="black" points="316,-42.5 316,-70.5 430,-70.5 430,-42.5 316,-42.5"/>
<text text-anchor="start" x="324" y="-59.3" font-family="Helvetica,sans-Serif" font-size="9.00">mappel::methods::make</text>
<text text-anchor="middle" x="373" y="-49.3" font-family="Helvetica,sans-Serif" font-size="9.00">_estimator</text>
</a>
</g>
</g>
<!-- Node2&#45;&gt;Node3 -->
<g id="edge2" class="edge"><title>Node2&#45;&gt;Node3</title>
<path fill="none" stroke="midnightblue" d="M280.055,-56.5C288.524,-56.5 297.124,-56.5 305.493,-56.5"/>
<polygon fill="midnightblue" stroke="midnightblue" points="305.563,-60.0001 315.563,-56.5 305.563,-53.0001 305.563,-60.0001"/>
</g>
<!-- Node4 -->
<g id="node4" class="node"><title>Node4</title>
<g id="a_node4"><a xlink:href="namespacemappel.html#a610296a93ba507763bc770d39049f323" target="_top" xlink:title="mappel::istarts_with">
<polygon fill="white" stroke="black" points="466,-47.5 466,-65.5 564,-65.5 564,-47.5 466,-47.5"/>
<text text-anchor="middle" x="515" y="-54.3" font-family="Helvetica,sans-Serif" font-size="9.00">mappel::istarts_with</text>
</a>
</g>
</g>
<!-- Node3&#45;&gt;Node4 -->
<g id="edge3" class="edge"><title>Node3&#45;&gt;Node4</title>
<path fill="none" stroke="midnightblue" d="M430.137,-56.5C438.574,-56.5 447.29,-56.5 455.77,-56.5"/>
<polygon fill="midnightblue" stroke="midnightblue" points="455.961,-60.0001 465.961,-56.5 455.961,-53.0001 455.961,-60.0001"/>
</g>
</g>
</svg>
