<?xml version="1.0" encoding="UTF-8" standalone="no"?>
<!DOCTYPE svg PUBLIC "-//W3C//DTD SVG 1.1//EN"
 "http://www.w3.org/Graphics/SVG/1.1/DTD/svg11.dtd">
<!-- Generated by graphviz version 2.38.0 (20140413.2041)
 -->
<!-- Title: mappel::PointEmitterModel::set_prior Pages: 1 -->
<svg width="291pt" height="84pt"
 viewBox="0.00 0.00 291.00 84.00" xmlns="http://www.w3.org/2000/svg" xmlns:xlink="http://www.w3.org/1999/xlink">
<g id="graph0" class="graph" transform="scale(1 1) rotate(0) translate(4 80)">
<title>mappel::PointEmitterModel::set_prior</title>
<polygon fill="white" stroke="none" points="-4,4 -4,-80 287,-80 287,4 -4,4"/>
<!-- Node1 -->
<g id="node1" class="node"><title>Node1</title>
<polygon fill="#bfbfbf" stroke="black" points="0,-23.5 0,-51.5 127,-51.5 127,-23.5 0,-23.5"/>
<text text-anchor="start" x="8" y="-40.3" font-family="Helvetica,sans-Serif" font-size="9.00">mappel::PointEmitterModel</text>
<text text-anchor="middle" x="63.5" y="-30.3" font-family="Helvetica,sans-Serif" font-size="9.00">::set_prior</text>
</g>
<!-- Node2 -->
<g id="node2" class="node"><title>Node2</title>
<g id="a_node2"><a xlink:href="classmappel_1_1Gauss2DModel.html#a41a5b18b3f3779562c0dbd19e1b6e29b" target="_top" xlink:title="mappel::Gauss2DModel\l::set_prior">
<polygon fill="white" stroke="black" points="165,-47.5 165,-75.5 281,-75.5 281,-47.5 165,-47.5"/>
<text text-anchor="start" x="173" y="-64.3" font-family="Helvetica,sans-Serif" font-size="9.00">mappel::Gauss2DModel</text>
<text text-anchor="middle" x="223" y="-54.3" font-family="Helvetica,sans-Serif" font-size="9.00">::set_prior</text>
</a>
</g>
</g>
<!-- Node1&#45;&gt;Node2 -->
<g id="edge1" class="edge"><title>Node1&#45;&gt;Node2</title>
<path fill="none" stroke="midnightblue" d="M137.206,-48.5791C146.491,-49.9938 155.888,-51.4257 164.877,-52.7955"/>
<polygon fill="midnightblue" stroke="midnightblue" points="137.614,-45.1008 127.201,-47.0544 136.559,-52.021 137.614,-45.1008"/>
</g>
<!-- Node3 -->
<g id="node3" class="node"><title>Node3</title>
<g id="a_node3"><a xlink:href="classmappel_1_1Gauss2DsModel.html#a895bee95db23557189b58f9b1d5e2453" target="_top" xlink:title="mappel::Gauss2DsModel\l::set_prior">
<polygon fill="white" stroke="black" points="163,-0.5 163,-28.5 283,-28.5 283,-0.5 163,-0.5"/>
<text text-anchor="start" x="171" y="-17.3" font-family="Helvetica,sans-Serif" font-size="9.00">mappel::Gauss2DsModel</text>
<text text-anchor="middle" x="223" y="-7.3" font-family="Helvetica,sans-Serif" font-size="9.00">::set_prior</text>
</a>
</g>
</g>
<!-- Node1&#45;&gt;Node3 -->
<g id="edge2" class="edge"><title>Node1&#45;&gt;Node3</title>
<path fill="none" stroke="midnightblue" d="M137.21,-26.882C145.796,-25.6282 154.478,-24.3604 162.844,-23.1386"/>
<polygon fill="midnightblue" stroke="midnightblue" points="136.59,-23.4354 127.201,-28.3437 137.602,-30.3619 136.59,-23.4354"/>
</g>
</g>
</svg>
