<?xml version="1.0" encoding="UTF-8" standalone="no"?>
<!DOCTYPE svg PUBLIC "-//W3C//DTD SVG 1.1//EN"
 "http://www.w3.org/Graphics/SVG/1.1/DTD/svg11.dtd">
<!-- Generated by graphviz version 2.38.0 (20140413.2041)
 -->
<!-- Title: mappel::Gauss2DsMAP Pages: 1 -->
<!--zoomable 489 -->
<svg id="main" version="1.1" xmlns="http://www.w3.org/2000/svg" xmlns:xlink="http://www.w3.org/1999/xlink" xml:space="preserve" onload="init(evt)">
<style type="text/css"><![CDATA[
.edge:hover path { stroke: red; }
.edge:hover polygon { stroke: red; fill: red; }
]]></style>
<script type="text/javascript"><![CDATA[
var edges = document.getElementsByTagName('g');
if (edges && edges.length) {
  for (var i=0;i<edges.length;i++) {
    if (edges[i].id.substr(0,4)=='edge') {
      edges[i].setAttribute('class','edge');
    }
  }
}
]]></script>
        <defs>
                <circle id="rim" cx="0" cy="0" r="7"/>
                <circle id="rim2" cx="0" cy="0" r="3.5"/>
                <g id="zoomPlus">
                        <use xlink:href="#rim" fill="#404040">
                                <set attributeName="fill" to="#808080" begin="zoomplus.mouseover" end="zoomplus.mouseout"/>
                        </use>
                        <path d="M-4,0h8M0,-4v8" fill="none" stroke="white" stroke-width="1.5" pointer-events="none"/>
                </g>
                <g id="zoomMin">
                        <use xlink:href="#rim" fill="#404040">
                                <set attributeName="fill" to="#808080" begin="zoomminus.mouseover" end="zoomminus.mouseout"/>
                        </use>
                        <path d="M-4,0h8" fill="none" stroke="white" stroke-width="1.5" pointer-events="none"/>
                </g>
                <g id="dirArrow">
                        <path fill="none" stroke="white" stroke-width="1.5" d="M0,-3.0v7 M-2.5,-0.5L0,-3.0L2.5,-0.5"/>
                </g>
               <g id="resetDef">
                       <use xlink:href="#rim2" fill="#404040">
                               <set attributeName="fill" to="#808080" begin="reset.mouseover" end="reset.mouseout"/>
                       </use>
               </g>
        </defs>

<script type="text/javascript">
var viewWidth = 1894;
var viewHeight = 489;
var sectionId = 'dynsection-1';
</script>
<script xlink:href="svgpan.js"/>
<svg id="graph" class="graph">
<g id="viewport">
<title>mappel::Gauss2DsMAP</title>
<polygon fill="white" stroke="none" points="-4,4 -4,-485 1890,-485 1890,4 -4,4"/>
<!-- Node1 -->
<g id="node1" class="node"><title>Node1</title>
<polygon fill="#bfbfbf" stroke="black" points="1772,-346 1772,-364 1886,-364 1886,-346 1772,-346"/>
<text text-anchor="middle" x="1829" y="-352.8" font-family="Helvetica,sans-Serif" font-size="9.00">mappel::Gauss2DsMAP</text>
</g>
<!-- Node2 -->
<g id="node2" class="node"><title>Node2</title>
<g id="a_node2"><a xlink:href="classmappel_1_1Gauss2DsModel.html" target="_top" xlink:title="A base class for 2D Gaussian PSF where the gaussian sigma is controlled by a single scalar parameter ...">
<polygon fill="white" stroke="black" points="1595.5,-310 1595.5,-328 1715.5,-328 1715.5,-310 1595.5,-310"/>
<text text-anchor="middle" x="1655.5" y="-316.8" font-family="Helvetica,sans-Serif" font-size="9.00">mappel::Gauss2DsModel</text>
</a>
</g>
</g>
<!-- Node2&#45;&gt;Node1 -->
<g id="edge1" class="edge"><title>Node2&#45;&gt;Node1</title>
<path fill="none" stroke="midnightblue" d="M1709.86,-330.202C1734.04,-335.277 1762.25,-341.198 1785.03,-345.981"/>
<polygon fill="midnightblue" stroke="midnightblue" points="1710.28,-326.713 1699.78,-328.084 1708.84,-333.564 1710.28,-326.713"/>
</g>
<!-- Node3 -->
<g id="node3" class="node"><title>Node3</title>
<g id="a_node3"><a xlink:href="classmappel_1_1PointEmitterModel.html" target="_top" xlink:title="A virtual Base type for point emitter localization models. ">
<polygon fill="white" stroke="black" points="366.5,-96 366.5,-114 493.5,-114 493.5,-96 366.5,-96"/>
<text text-anchor="middle" x="430" y="-102.8" font-family="Helvetica,sans-Serif" font-size="9.00">mappel::PointEmitterModel</text>
</a>
</g>
</g>
<!-- Node3&#45;&gt;Node2 -->
<g id="edge2" class="edge"><title>Node3&#45;&gt;Node2</title>
<path fill="none" stroke="midnightblue" d="M448.136,-88.9027C481.332,-59.4766 557.902,-0 634.5,-0 634.5,-0 634.5,-0 1119.5,-0 1309.72,-0 1353.56,-73.0583 1502,-192 1556.04,-235.304 1619.23,-288.899 1643.89,-309.929"/>
<polygon fill="midnightblue" stroke="midnightblue" points="445.716,-86.3726 440.657,-95.682 450.417,-91.559 445.716,-86.3726"/>
</g>
<!-- Node10 -->
<g id="node10" class="node"><title>Node10</title>
<g id="a_node10"><a xlink:href="classmappel_1_1MCMCAdaptor1D.html" target="_top" xlink:title="mappel::MCMCAdaptor1D">
<polygon fill="white" stroke="black" points="573,-96 573,-114 698,-114 698,-96 573,-96"/>
<text text-anchor="middle" x="635.5" y="-102.8" font-family="Helvetica,sans-Serif" font-size="9.00">mappel::MCMCAdaptor1D</text>
</a>
</g>
</g>
<!-- Node3&#45;&gt;Node10 -->
<g id="edge10" class="edge"><title>Node3&#45;&gt;Node10</title>
<path fill="none" stroke="midnightblue" d="M503.901,-105C526.42,-105 550.994,-105 572.689,-105"/>
<polygon fill="midnightblue" stroke="midnightblue" points="503.717,-101.5 493.717,-105 503.717,-108.5 503.717,-101.5"/>
</g>
<!-- Node13 -->
<g id="node13" class="node"><title>Node13</title>
<g id="a_node13"><a xlink:href="classmappel_1_1Gauss1DsModel.html" target="_top" xlink:title="Base class for 1D Gaussian PSF with variable Gaussian sigma (standard deviation) measured in units of...">
<polygon fill="white" stroke="black" points="1058.5,-192 1058.5,-210 1178.5,-210 1178.5,-192 1058.5,-192"/>
<text text-anchor="middle" x="1118.5" y="-198.8" font-family="Helvetica,sans-Serif" font-size="9.00">mappel::Gauss1DsModel</text>
</a>
</g>
</g>
<!-- Node3&#45;&gt;Node13 -->
<g id="edge15" class="edge"><title>Node3&#45;&gt;Node13</title>
<path fill="none" stroke="midnightblue" d="M492.386,-115.631C499.992,-116.83 507.669,-117.984 515,-119 739.121,-150.055 798.67,-133.001 1021,-175 1044.02,-179.348 1069.59,-186.34 1088.63,-191.979"/>
<polygon fill="midnightblue" stroke="midnightblue" points="492.891,-112.167 482.463,-114.036 491.781,-119.079 492.891,-112.167"/>
</g>
<!-- Node20 -->
<g id="node20" class="node"><title>Node20</title>
<g id="a_node20"><a xlink:href="classmappel_1_1MAPEstimator.html" target="_top" xlink:title="A Mixin class to configure a for MLE estimation (null prior). ">
<polygon fill="white" stroke="black" points="1063.5,-29 1063.5,-47 1173.5,-47 1173.5,-29 1063.5,-29"/>
<text text-anchor="middle" x="1118.5" y="-35.8" font-family="Helvetica,sans-Serif" font-size="9.00">mappel::MAPEstimator</text>
</a>
</g>
</g>
<!-- Node3&#45;&gt;Node20 -->
<g id="edge28" class="edge"><title>Node3&#45;&gt;Node20</title>
<path fill="none" stroke="midnightblue" d="M503.611,-95.2736C525.875,-92.2943 550.444,-89.0093 573,-86 669.884,-73.0742 693.7,-66.29 791,-57 886.665,-47.8661 998.547,-42.5048 1063.39,-39.9201"/>
<polygon fill="midnightblue" stroke="midnightblue" points="503.007,-91.8232 493.56,-96.6189 503.935,-98.7613 503.007,-91.8232"/>
</g>
<!-- Node4 -->
<g id="node4" class="node"><title>Node4</title>
<polygon fill="white" stroke="#bfbfbf" points="125,-96 125,-114 202,-114 202,-96 125,-96"/>
<text text-anchor="middle" x="163.5" y="-102.8" font-family="Helvetica,sans-Serif" font-size="9.00">CompositeDist</text>
</g>
<!-- Node4&#45;&gt;Node3 -->
<g id="edge3" class="edge"><title>Node4&#45;&gt;Node3</title>
<path fill="none" stroke="#9a32cd" stroke-dasharray="5,2" d="M212.337,-105C255.441,-105 319.098,-105 366.268,-105"/>
<polygon fill="#9a32cd" stroke="#9a32cd" points="212.116,-101.5 202.116,-105 212.115,-108.5 212.116,-101.5"/>
<text text-anchor="middle" x="282.5" y="-107.8" font-family="Helvetica,sans-Serif" font-size="9.00"> prior</text>
</g>
<!-- Node5 -->
<g id="node5" class="node"><title>Node5</title>
<g id="a_node5"><a xlink:title="STL class. ">
<polygon fill="white" stroke="#bfbfbf" points="135.5,-302 135.5,-320 191.5,-320 191.5,-302 135.5,-302"/>
<text text-anchor="middle" x="163.5" y="-308.8" font-family="Helvetica,sans-Serif" font-size="9.00">std::string</text>
</a>
</g>
</g>
<!-- Node5&#45;&gt;Node1 -->
<g id="edge35" class="edge"><title>Node5&#45;&gt;Node1</title>
<path fill="none" stroke="#9a32cd" stroke-dasharray="5,2" d="M171.596,-329.593C180.166,-349.679 196.427,-381.311 220,-400 296.874,-460.947 330.898,-471 429,-471 429,-471 429,-471 1656.5,-471 1732.7,-471 1800.31,-391.448 1821.3,-364.102"/>
<polygon fill="#9a32cd" stroke="#9a32cd" points="174.818,-328.224 167.818,-320.27 168.331,-330.853 174.818,-328.224"/>
<text text-anchor="middle" x="984.5" y="-473.8" font-family="Helvetica,sans-Serif" font-size="9.00"> name</text>
</g>
<!-- Node5&#45;&gt;Node2 -->
<g id="edge12" class="edge"><title>Node5&#45;&gt;Node2</title>
<path fill="none" stroke="#9a32cd" stroke-dasharray="5,2" d="M183.122,-326.523C224.51,-359.387 328.44,-433 429,-433 429,-433 429,-433 861.5,-433 1008.76,-433 1454.96,-355.004 1604.81,-328.041"/>
<polygon fill="#9a32cd" stroke="#9a32cd" points="185.241,-323.735 175.264,-320.17 180.84,-329.178 185.241,-323.735"/>
<text text-anchor="middle" x="860.5" y="-435.8" font-family="Helvetica,sans-Serif" font-size="9.00"> DefaultPriorType</text>
</g>
<!-- Node5&#45;&gt;Node3 -->
<g id="edge4" class="edge"><title>Node5&#45;&gt;Node3</title>
<path fill="none" stroke="#9a32cd" stroke-dasharray="5,2" d="M166.343,-291.95C170.38,-260.836 182.846,-199.167 220,-165 243.133,-143.727 324.583,-124.745 378.708,-114.073"/>
<polygon fill="#9a32cd" stroke="#9a32cd" points="162.861,-291.591 165.207,-301.923 169.816,-292.383 162.861,-291.591"/>
<text text-anchor="middle" x="282.5" y="-167.8" font-family="Helvetica,sans-Serif" font-size="9.00"> DefaultSeperableInitEstimator</text>
</g>
<!-- Node12 -->
<g id="node12" class="node"><title>Node12</title>
<g id="a_node12"><a xlink:href="classmappel_1_1Gauss1DsMAP.html" target="_top" xlink:title="A 1D Gaussian with variable PSF sigma under an Poisson read noise assumption and MAP Objective...">
<polygon fill="white" stroke="black" points="1375.5,-255 1375.5,-273 1489.5,-273 1489.5,-255 1375.5,-255"/>
<text text-anchor="middle" x="1432.5" y="-261.8" font-family="Helvetica,sans-Serif" font-size="9.00">mappel::Gauss1DsMAP</text>
</a>
</g>
</g>
<!-- Node5&#45;&gt;Node12 -->
<g id="edge29" class="edge"><title>Node5&#45;&gt;Node12</title>
<path fill="none" stroke="#9a32cd" stroke-dasharray="5,2" d="M189.933,-297.124C236.115,-273.264 337.464,-227 429,-227 429,-227 429,-227 745.5,-227 867.827,-227 1234.55,-250.755 1375.48,-260.197"/>
<polygon fill="#9a32cd" stroke="#9a32cd" points="188.163,-294.1 180.939,-301.851 191.419,-300.297 188.163,-294.1"/>
<text text-anchor="middle" x="744.5" y="-229.8" font-family="Helvetica,sans-Serif" font-size="9.00"> name</text>
</g>
<!-- Node5&#45;&gt;Node13 -->
<g id="edge19" class="edge"><title>Node5&#45;&gt;Node13</title>
<path fill="none" stroke="#9a32cd" stroke-dasharray="5,2" d="M169.571,-291.874C176.722,-268.992 192.12,-231.462 220,-213 297.956,-161.376 335.501,-189 429,-189 429,-189 429,-189 861.5,-189 929.019,-189 1006.44,-193.217 1058.31,-196.651"/>
<polygon fill="#9a32cd" stroke="#9a32cd" points="166.121,-291.205 166.704,-301.783 172.845,-293.15 166.121,-291.205"/>
<text text-anchor="middle" x="635.5" y="-191.8" font-family="Helvetica,sans-Serif" font-size="9.00"> DefaultPriorType</text>
</g>
<!-- Node19 -->
<g id="node19" class="node"><title>Node19</title>
<polygon fill="white" stroke="#bfbfbf" points="804.5,-378 804.5,-396 916.5,-396 916.5,-378 804.5,-378"/>
<text text-anchor="middle" x="860.5" y="-384.8" font-family="Helvetica,sans-Serif" font-size="9.00">std::vector&lt; std::string &gt;</text>
</g>
<!-- Node5&#45;&gt;Node19 -->
<g id="edge25" class="edge"><title>Node5&#45;&gt;Node19</title>
<path fill="none" stroke="#9a32cd" stroke-dasharray="5,2" d="M201.31,-320.838C240.938,-331.033 305.975,-346.625 363,-355 518.644,-377.86 558.948,-371.935 716,-381 745.125,-382.681 777.602,-384.079 804.284,-385.101"/>
<polygon fill="#9a32cd" stroke="#9a32cd" points="202.12,-317.432 191.561,-318.306 200.36,-324.207 202.12,-317.432"/>
<text text-anchor="middle" x="535" y="-376.8" font-family="Helvetica,sans-Serif" font-size="9.00"> elements</text>
</g>
<!-- Node6 -->
<g id="node6" class="node"><title>Node6</title>
<g id="a_node6"><a xlink:title="STL class. ">
<polygon fill="white" stroke="#bfbfbf" points="0,-297 0,-325 88,-325 88,-297 0,-297"/>
<text text-anchor="start" x="8" y="-313.8" font-family="Helvetica,sans-Serif" font-size="9.00">std::basic_string&lt;</text>
<text text-anchor="middle" x="44" y="-303.8" font-family="Helvetica,sans-Serif" font-size="9.00"> char &gt;</text>
</a>
</g>
</g>
<!-- Node6&#45;&gt;Node5 -->
<g id="edge5" class="edge"><title>Node6&#45;&gt;Node5</title>
<path fill="none" stroke="midnightblue" d="M98.287,-311C111.161,-311 124.389,-311 135.467,-311"/>
<polygon fill="midnightblue" stroke="midnightblue" points="98.0855,-307.5 88.0855,-311 98.0854,-314.5 98.0855,-307.5"/>
</g>
<!-- Node7 -->
<g id="node7" class="node"><title>Node7</title>
<g id="a_node7"><a xlink:href="classmappel_1_1ImageFormat2DBase.html" target="_top" xlink:title="A virtual base class for 2D image localization objectives. ">
<polygon fill="white" stroke="black" points="1363,-386 1363,-404 1502,-404 1502,-386 1363,-386"/>
<text text-anchor="middle" x="1432.5" y="-392.8" font-family="Helvetica,sans-Serif" font-size="9.00">mappel::ImageFormat2DBase</text>
</a>
</g>
</g>
<!-- Node7&#45;&gt;Node2 -->
<g id="edge6" class="edge"><title>Node7&#45;&gt;Node2</title>
<path fill="none" stroke="midnightblue" d="M1499.65,-383.94C1518.76,-379.868 1539.46,-374.595 1558,-368 1588.27,-357.233 1621.16,-338.987 1639.66,-328.058"/>
<polygon fill="midnightblue" stroke="midnightblue" points="1498.91,-380.519 1489.82,-385.961 1500.32,-387.375 1498.91,-380.519"/>
</g>
<!-- Node21 -->
<g id="node21" class="node"><title>Node21</title>
<g id="a_node21"><a xlink:href="classmappel_1_1PoissonNoise2DObjective.html" target="_top" xlink:title="A base class for 2D objectives with Poisson read noise. This objective function and its subclasses ar...">
<polygon fill="white" stroke="black" points="1576,-398 1576,-416 1735,-416 1735,-398 1576,-398"/>
<text text-anchor="middle" x="1655.5" y="-404.8" font-family="Helvetica,sans-Serif" font-size="9.00">mappel::PoissonNoise2DObjective</text>
</a>
</g>
</g>
<!-- Node7&#45;&gt;Node21 -->
<g id="edge32" class="edge"><title>Node7&#45;&gt;Node21</title>
<path fill="none" stroke="midnightblue" d="M1512.21,-399.274C1532.86,-400.395 1555.13,-401.605 1575.79,-402.726"/>
<polygon fill="midnightblue" stroke="midnightblue" points="1512.39,-395.779 1502.21,-398.731 1512.01,-402.768 1512.39,-395.779"/>
</g>
<!-- Node8 -->
<g id="node8" class="node"><title>Node8</title>
<g id="a_node8"><a xlink:href="classmappel_1_1MCMCAdaptor2Ds.html" target="_top" xlink:title="mappel::MCMCAdaptor2Ds">
<polygon fill="white" stroke="black" points="1216,-161 1216,-179 1345,-179 1345,-161 1216,-161"/>
<text text-anchor="middle" x="1280.5" y="-167.8" font-family="Helvetica,sans-Serif" font-size="9.00">mappel::MCMCAdaptor2Ds</text>
</a>
</g>
</g>
<!-- Node8&#45;&gt;Node2 -->
<g id="edge7" class="edge"><title>Node8&#45;&gt;Node2</title>
<path fill="none" stroke="midnightblue" d="M1321.49,-181.961C1366.09,-195.678 1440.11,-219.571 1502,-245 1552.36,-265.689 1609.57,-295.121 1637.44,-309.855"/>
<polygon fill="midnightblue" stroke="midnightblue" points="1322.48,-178.604 1311.89,-179.027 1320.43,-185.298 1322.48,-178.604"/>
</g>
<!-- Node9 -->
<g id="node9" class="node"><title>Node9</title>
<g id="a_node9"><a xlink:href="classmappel_1_1MCMCAdaptor2D.html" target="_top" xlink:title="mappel::MCMCAdaptor2D">
<polygon fill="white" stroke="black" points="798,-67 798,-85 923,-85 923,-67 798,-67"/>
<text text-anchor="middle" x="860.5" y="-73.8" font-family="Helvetica,sans-Serif" font-size="9.00">mappel::MCMCAdaptor2D</text>
</a>
</g>
</g>
<!-- Node9&#45;&gt;Node8 -->
<g id="edge8" class="edge"><title>Node9&#45;&gt;Node8</title>
<path fill="none" stroke="midnightblue" d="M911.368,-87.2143C995.124,-106.05 1162.41,-143.669 1239.24,-160.945"/>
<polygon fill="midnightblue" stroke="midnightblue" points="912.104,-83.7925 901.58,-85.0131 910.568,-90.6219 912.104,-83.7925"/>
</g>
<!-- Node10&#45;&gt;Node9 -->
<g id="edge9" class="edge"><title>Node10&#45;&gt;Node9</title>
<path fill="none" stroke="midnightblue" d="M708.059,-95.6941C736.954,-91.9365 769.972,-87.6426 797.788,-84.0253"/>
<polygon fill="midnightblue" stroke="midnightblue" points="707.491,-92.2384 698.026,-96.9989 708.394,-99.18 707.491,-92.2384"/>
</g>
<!-- Node15 -->
<g id="node15" class="node"><title>Node15</title>
<g id="a_node15"><a xlink:href="classmappel_1_1MCMCAdaptor1Ds.html" target="_top" xlink:title="mappel::MCMCAdaptor1Ds">
<polygon fill="white" stroke="black" points="796,-104 796,-122 925,-122 925,-104 796,-104"/>
<text text-anchor="middle" x="860.5" y="-110.8" font-family="Helvetica,sans-Serif" font-size="9.00">mappel::MCMCAdaptor1Ds</text>
</a>
</g>
</g>
<!-- Node10&#45;&gt;Node15 -->
<g id="edge18" class="edge"><title>Node10&#45;&gt;Node15</title>
<path fill="none" stroke="midnightblue" d="M708.218,-107.573C736.404,-108.584 768.494,-109.735 795.844,-110.716"/>
<polygon fill="midnightblue" stroke="midnightblue" points="708.145,-104.068 698.026,-107.207 707.894,-111.064 708.145,-104.068"/>
</g>
<!-- Node11 -->
<g id="node11" class="node"><title>Node11</title>
<g id="a_node11"><a xlink:href="classmappel_1_1MCMCAdaptorBase.html" target="_top" xlink:title="mappel::MCMCAdaptorBase">
<polygon fill="white" stroke="black" points="363,-142 363,-160 497,-160 497,-142 363,-142"/>
<text text-anchor="middle" x="430" y="-148.8" font-family="Helvetica,sans-Serif" font-size="9.00">mappel::MCMCAdaptorBase</text>
</a>
</g>
</g>
<!-- Node11&#45;&gt;Node10 -->
<g id="edge11" class="edge"><title>Node11&#45;&gt;Node10</title>
<path fill="none" stroke="midnightblue" d="M481.189,-139.655C516.067,-131.771 561.93,-121.404 594.378,-114.069"/>
<polygon fill="midnightblue" stroke="midnightblue" points="480.187,-136.293 471.205,-141.912 481.731,-143.121 480.187,-136.293"/>
</g>
<!-- Node12&#45;&gt;Node2 -->
<g id="edge13" class="edge"><title>Node12&#45;&gt;Node2</title>
<path fill="none" stroke="#9a32cd" stroke-dasharray="5,2" d="M1499.75,-273.008C1518.7,-276.169 1539.29,-280.164 1558,-285 1583.97,-291.712 1612.88,-302.335 1632.22,-309.92"/>
<polygon fill="#9a32cd" stroke="#9a32cd" points="1500.14,-269.526 1489.71,-271.385 1499.02,-276.436 1500.14,-269.526"/>
<text text-anchor="middle" x="1539" y="-297.8" font-family="Helvetica,sans-Serif" font-size="9.00"> x_model</text>
<text text-anchor="middle" x="1539" y="-287.8" font-family="Helvetica,sans-Serif" font-size="9.00">y_model</text>
</g>
<!-- Node13&#45;&gt;Node12 -->
<g id="edge14" class="edge"><title>Node13&#45;&gt;Node12</title>
<path fill="none" stroke="midnightblue" d="M1174.32,-212.069C1234.76,-224.275 1330.85,-243.677 1386.88,-254.99"/>
<polygon fill="midnightblue" stroke="midnightblue" points="1174.7,-208.575 1164.2,-210.026 1173.31,-215.436 1174.7,-208.575"/>
</g>
<!-- Node14 -->
<g id="node14" class="node"><title>Node14</title>
<g id="a_node14"><a xlink:href="classmappel_1_1ImageFormat1DBase.html" target="_top" xlink:title="A virtual base class for 2D image localization objectives. ">
<polygon fill="white" stroke="black" points="791,-302 791,-320 930,-320 930,-302 791,-302"/>
<text text-anchor="middle" x="860.5" y="-308.8" font-family="Helvetica,sans-Serif" font-size="9.00">mappel::ImageFormat1DBase</text>
</a>
</g>
</g>
<!-- Node14&#45;&gt;Node13 -->
<g id="edge16" class="edge"><title>Node14&#45;&gt;Node13</title>
<path fill="none" stroke="midnightblue" d="M898.838,-298.624C909.016,-295.06 919.993,-291.038 930,-287 993.101,-261.539 1065.82,-226.499 1099.12,-210.124"/>
<polygon fill="midnightblue" stroke="midnightblue" points="897.693,-295.317 889.382,-301.888 899.977,-301.934 897.693,-295.317"/>
</g>
<!-- Node18 -->
<g id="node18" class="node"><title>Node18</title>
<g id="a_node18"><a xlink:href="classmappel_1_1PoissonNoise1DObjective.html" target="_top" xlink:title="A base class for 1D objectives with Poisson read noise. This objective function and its subclasses ar...">
<polygon fill="white" stroke="black" points="1039,-294 1039,-312 1198,-312 1198,-294 1039,-294"/>
<text text-anchor="middle" x="1118.5" y="-300.8" font-family="Helvetica,sans-Serif" font-size="9.00">mappel::PoissonNoise1DObjective</text>
</a>
</g>
</g>
<!-- Node14&#45;&gt;Node18 -->
<g id="edge23" class="edge"><title>Node14&#45;&gt;Node18</title>
<path fill="none" stroke="midnightblue" d="M940.504,-308.531C971.73,-307.555 1007.54,-306.436 1038.74,-305.461"/>
<polygon fill="midnightblue" stroke="midnightblue" points="939.989,-305.045 930.103,-308.856 940.208,-312.042 939.989,-305.045"/>
</g>
<!-- Node15&#45;&gt;Node13 -->
<g id="edge17" class="edge"><title>Node15&#45;&gt;Node13</title>
<path fill="none" stroke="midnightblue" d="M935.223,-117.337C962.817,-120.693 994.001,-126.606 1021,-137 1055.52,-150.289 1090.27,-177.538 1107.09,-191.814"/>
<polygon fill="midnightblue" stroke="midnightblue" points="935.562,-113.853 925.233,-116.212 934.779,-120.809 935.562,-113.853"/>
</g>
<!-- Node16 -->
<g id="node16" class="node"><title>Node16</title>
<g id="a_node16"><a xlink:title="STL class. ">
<polygon fill="white" stroke="#bfbfbf" points="596.5,-328 596.5,-346 674.5,-346 674.5,-328 596.5,-328"/>
<text text-anchor="middle" x="635.5" y="-334.8" font-family="Helvetica,sans-Serif" font-size="9.00">std::vector&lt; T &gt;</text>
</a>
</g>
</g>
<!-- Node16&#45;&gt;Node2 -->
<g id="edge30" class="edge"><title>Node16&#45;&gt;Node2</title>
<path fill="none" stroke="#9a32cd" stroke-dasharray="5,2" d="M684.56,-336.15C852.245,-333.185 1411.16,-323.303 1595.19,-320.049"/>
<polygon fill="#9a32cd" stroke="#9a32cd" points="684.485,-332.651 674.549,-336.327 684.609,-339.65 684.485,-332.651"/>
<text text-anchor="middle" x="1118.5" y="-332.8" font-family="Helvetica,sans-Serif" font-size="9.00"> prior_types</text>
</g>
<!-- Node16&#45;&gt;Node13 -->
<g id="edge20" class="edge"><title>Node16&#45;&gt;Node13</title>
<path fill="none" stroke="#9a32cd" stroke-dasharray="5,2" d="M669.007,-324.37C700.06,-312.558 748.32,-294.857 791,-282 891.936,-251.595 1012.85,-223.798 1075.39,-210.046"/>
<polygon fill="#9a32cd" stroke="#9a32cd" points="667.648,-321.143 659.558,-327.985 670.149,-327.681 667.648,-321.143"/>
<text text-anchor="middle" x="860.5" y="-284.8" font-family="Helvetica,sans-Serif" font-size="9.00"> prior_types</text>
</g>
<!-- Node16&#45;&gt;Node19 -->
<g id="edge26" class="edge"><title>Node16&#45;&gt;Node19</title>
<path fill="none" stroke="orange" stroke-dasharray="5,2" d="M684.428,-347.746C724.648,-356.764 781.441,-369.498 819.316,-377.99"/>
<polygon fill="orange" stroke="orange" points="685.105,-344.311 674.582,-345.538 683.574,-351.142 685.105,-344.311"/>
<text text-anchor="middle" x="744.5" y="-369.8" font-family="Helvetica,sans-Serif" font-size="9.00"> &lt; std::string &gt;</text>
</g>
<!-- Node17 -->
<g id="node17" class="node"><title>Node17</title>
<polygon fill="white" stroke="#bfbfbf" points="415.5,-328 415.5,-346 444.5,-346 444.5,-328 415.5,-328"/>
<text text-anchor="middle" x="430" y="-334.8" font-family="Helvetica,sans-Serif" font-size="9.00">T</text>
</g>
<!-- Node17&#45;&gt;Node16 -->
<g id="edge21" class="edge"><title>Node17&#45;&gt;Node16</title>
<path fill="none" stroke="#9a32cd" stroke-dasharray="5,2" d="M454.854,-337C489.725,-337 554.973,-337 596.499,-337"/>
<polygon fill="#9a32cd" stroke="#9a32cd" points="454.668,-333.5 444.668,-337 454.668,-340.5 454.668,-333.5"/>
<text text-anchor="middle" x="535" y="-339.8" font-family="Helvetica,sans-Serif" font-size="9.00"> elements</text>
</g>
<!-- Node18&#45;&gt;Node12 -->
<g id="edge22" class="edge"><title>Node18&#45;&gt;Node12</title>
<path fill="none" stroke="midnightblue" d="M1208.25,-294.197C1249.84,-289.807 1300.02,-284.129 1345,-278 1355.85,-276.521 1367.44,-274.767 1378.5,-273.009"/>
<polygon fill="midnightblue" stroke="midnightblue" points="1207.73,-290.732 1198.15,-295.256 1208.46,-297.694 1207.73,-290.732"/>
</g>
<!-- Node19&#45;&gt;Node18 -->
<g id="edge24" class="edge"><title>Node19&#45;&gt;Node18</title>
<path fill="none" stroke="#9a32cd" stroke-dasharray="5,2" d="M897.094,-374.627C932.859,-362.275 989.609,-342.894 1039,-327 1054.87,-321.892 1072.63,-316.44 1087.24,-312.026"/>
<polygon fill="#9a32cd" stroke="#9a32cd" points="895.893,-371.339 887.586,-377.916 898.181,-377.954 895.893,-371.339"/>
<text text-anchor="middle" x="984.5" y="-359.8" font-family="Helvetica,sans-Serif" font-size="9.00"> estimator_names</text>
</g>
<!-- Node19&#45;&gt;Node21 -->
<g id="edge33" class="edge"><title>Node19&#45;&gt;Node21</title>
<path fill="none" stroke="#9a32cd" stroke-dasharray="5,2" d="M926.859,-391.205C1022.55,-397.176 1206.41,-407.945 1363,-413 1432.75,-415.251 1450.22,-414.556 1520,-415 1536.89,-415.108 1541.13,-415.698 1558,-415 1563.79,-414.76 1569.78,-414.44 1575.8,-414.065"/>
<polygon fill="#9a32cd" stroke="#9a32cd" points="926.955,-387.704 916.756,-390.572 926.518,-394.69 926.955,-387.704"/>
<text text-anchor="middle" x="1280.5" y="-415.8" font-family="Helvetica,sans-Serif" font-size="9.00"> estimator_names</text>
</g>
<!-- Node20&#45;&gt;Node1 -->
<g id="edge34" class="edge"><title>Node20&#45;&gt;Node1</title>
<path fill="none" stroke="midnightblue" d="M1183.88,-40.8387C1229.86,-44.434 1292.6,-52.5749 1345,-71 1550.1,-143.119 1765.22,-305.779 1816.54,-345.917"/>
<polygon fill="midnightblue" stroke="midnightblue" points="1183.97,-37.3364 1173.74,-40.0985 1183.46,-44.3178 1183.97,-37.3364"/>
</g>
<!-- Node20&#45;&gt;Node12 -->
<g id="edge27" class="edge"><title>Node20&#45;&gt;Node12</title>
<path fill="none" stroke="midnightblue" d="M1157.33,-50.4824C1204.97,-67.5654 1287.54,-101.82 1345,-151 1382.54,-183.131 1414.22,-234.027 1426.28,-254.756"/>
<polygon fill="midnightblue" stroke="midnightblue" points="1158.31,-47.1169 1147.71,-47.0985 1155.98,-53.7199 1158.31,-47.1169"/>
</g>
<!-- Node21&#45;&gt;Node1 -->
<g id="edge31" class="edge"><title>Node21&#45;&gt;Node1</title>
<path fill="none" stroke="midnightblue" d="M1696.04,-395.011C1727.17,-385.573 1769.88,-372.621 1798.18,-364.041"/>
<polygon fill="midnightblue" stroke="midnightblue" points="1694.93,-391.691 1686.37,-397.942 1696.96,-398.39 1694.93,-391.691"/>
</g>
</g>
</svg>
        <g id="navigator" transform="translate(0 0)" fill="#404254">
                <rect fill="#f2f5e9" fill-opacity="0.5" stroke="#606060" stroke-width=".5" x="0" y="0" width="60" height="60"/>
                <use id="zoomplus" xlink:href="#zoomPlus" x="17" y="9" onmousedown="handleZoom(evt,'in')"/>
                <use id="zoomminus" xlink:href="#zoomMin" x="42" y="9" onmousedown="handleZoom(evt,'out')"/>
                <use id="reset" xlink:href="#resetDef" x="30" y="36" onmousedown="handleReset()"/>
                <g id="arrowUp" xlink:href="#dirArrow" transform="translate(30 24)" onmousedown="handlePan(0,-1)">
                  <use xlink:href="#rim" fill="#404040">
                        <set attributeName="fill" to="#808080" begin="arrowUp.mouseover" end="arrowUp.mouseout"/>
                  </use>
                  <path fill="none" stroke="white" stroke-width="1.5" d="M0,-3.0v7 M-2.5,-0.5L0,-3.0L2.5,-0.5"/>
                </g>
                <g id="arrowRight" xlink:href="#dirArrow" transform="rotate(90) translate(36 -43)" onmousedown="handlePan(1,0)">
                  <use xlink:href="#rim" fill="#404040">
                        <set attributeName="fill" to="#808080" begin="arrowRight.mouseover" end="arrowRight.mouseout"/>
                  </use>
                  <path fill="none" stroke="white" stroke-width="1.5" d="M0,-3.0v7 M-2.5,-0.5L0,-3.0L2.5,-0.5"/>
                </g>
                <g id="arrowDown" xlink:href="#dirArrow" transform="rotate(180) translate(-30 -48)" onmousedown="handlePan(0,1)">
                  <use xlink:href="#rim" fill="#404040">
                        <set attributeName="fill" to="#808080" begin="arrowDown.mouseover" end="arrowDown.mouseout"/>
                  </use>
                  <path fill="none" stroke="white" stroke-width="1.5" d="M0,-3.0v7 M-2.5,-0.5L0,-3.0L2.5,-0.5"/>
                </g>
                <g id="arrowLeft" xlink:href="#dirArrow" transform="rotate(270) translate(-36 17)" onmousedown="handlePan(-1,0)">
                  <use xlink:href="#rim" fill="#404040">
                        <set attributeName="fill" to="#808080" begin="arrowLeft.mouseover" end="arrowLeft.mouseout"/>
                  </use>
                  <path fill="none" stroke="white" stroke-width="1.5" d="M0,-3.0v7 M-2.5,-0.5L0,-3.0L2.5,-0.5"/>
                </g>
        </g>
        <svg viewBox="0 0 15 15" width="100%" height="30px" preserveAspectRatio="xMaxYMin meet">
         <g id="arrow_out" transform="scale(0.3 0.3)">
          <a xlink:href="classmappel_1_1Gauss2DsMAP__coll__graph_org.svg" target="_base">
           <rect id="button" ry="5" rx="5" y="6" x="6" height="38" width="38"
                fill="#f2f5e9" fill-opacity="0.5" stroke="#606060" stroke-width="1.0"/>
           <path id="arrow"
             d="M 11.500037,31.436501 C 11.940474,20.09759 22.043105,11.32322 32.158766,21.979434 L 37.068811,17.246167 C 37.068811,17.246167 37.088388,32 37.088388,32 L 22.160133,31.978069 C 22.160133,31.978069 26.997745,27.140456 26.997745,27.140456 C 18.528582,18.264221 13.291696,25.230495 11.500037,31.436501 z"
             style="fill:#404040;"/>
          </a>
         </g>
        </svg>
</svg>
