<?xml version="1.0" encoding="UTF-8" standalone="no"?>
<!DOCTYPE svg PUBLIC "-//W3C//DTD SVG 1.1//EN"
 "http://www.w3.org/Graphics/SVG/1.1/DTD/svg11.dtd">
<!-- Generated by graphviz version 2.38.0 (20140413.2041)
 -->
<!-- Title: mappel::MCMCAdaptor1D::set_background_mcmc_sampling Pages: 1 -->
<svg width="296pt" height="131pt"
 viewBox="0.00 0.00 296.00 131.00" xmlns="http://www.w3.org/2000/svg" xmlns:xlink="http://www.w3.org/1999/xlink">
<g id="graph0" class="graph" transform="scale(1 1) rotate(0) translate(4 127)">
<title>mappel::MCMCAdaptor1D::set_background_mcmc_sampling</title>
<polygon fill="white" stroke="none" points="-4,4 -4,-127 292,-127 292,4 -4,4"/>
<!-- Node1 -->
<g id="node1" class="node"><title>Node1</title>
<polygon fill="#bfbfbf" stroke="black" points="0,-42.5 0,-80.5 125,-80.5 125,-42.5 0,-42.5"/>
<text text-anchor="start" x="8" y="-69.3" font-family="Helvetica,sans-Serif" font-size="9.00">mappel::MCMCAdaptor1D</text>
<text text-anchor="start" x="8" y="-59.3" font-family="Helvetica,sans-Serif" font-size="9.00">::set_background_mcmc</text>
<text text-anchor="middle" x="62.5" y="-49.3" font-family="Helvetica,sans-Serif" font-size="9.00">_sampling</text>
</g>
<!-- Node2 -->
<g id="node2" class="node"><title>Node2</title>
<g id="a_node2"><a xlink:href="classmappel_1_1PointEmitterModel.html#a3282cc59d5c6010a51f671ba72997705" target="_top" xlink:title="mappel::PointEmitterModel\l::get_hyperparam_value">
<polygon fill="white" stroke="black" points="161,-94.5 161,-122.5 288,-122.5 288,-94.5 161,-94.5"/>
<text text-anchor="start" x="169" y="-111.3" font-family="Helvetica,sans-Serif" font-size="9.00">mappel::PointEmitterModel</text>
<text text-anchor="middle" x="224.5" y="-101.3" font-family="Helvetica,sans-Serif" font-size="9.00">::get_hyperparam_value</text>
</a>
</g>
</g>
<!-- Node1&#45;&gt;Node2 -->
<g id="edge1" class="edge"><title>Node1&#45;&gt;Node2</title>
<path fill="none" stroke="midnightblue" d="M125.36,-79.6714C138.674,-83.5825 152.696,-87.7014 165.843,-91.5633"/>
<polygon fill="midnightblue" stroke="midnightblue" points="165.119,-94.9983 175.7,-94.4586 167.091,-88.282 165.119,-94.9983"/>
</g>
<!-- Node3 -->
<g id="node3" class="node"><title>Node3</title>
<g id="a_node3"><a xlink:href="classmappel_1_1PointEmitterModel.html#aeb486e8f6f6fa694e3746e84eebcf848" target="_top" xlink:title="mappel::PointEmitterModel\l::get_lbound">
<polygon fill="white" stroke="black" points="161,-47.5 161,-75.5 288,-75.5 288,-47.5 161,-47.5"/>
<text text-anchor="start" x="169" y="-64.3" font-family="Helvetica,sans-Serif" font-size="9.00">mappel::PointEmitterModel</text>
<text text-anchor="middle" x="224.5" y="-54.3" font-family="Helvetica,sans-Serif" font-size="9.00">::get_lbound</text>
</a>
</g>
</g>
<!-- Node1&#45;&gt;Node3 -->
<g id="edge2" class="edge"><title>Node1&#45;&gt;Node3</title>
<path fill="none" stroke="midnightblue" d="M125.36,-61.5C133.613,-61.5 142.137,-61.5 150.556,-61.5"/>
<polygon fill="midnightblue" stroke="midnightblue" points="150.748,-65.0001 160.748,-61.5 150.748,-58.0001 150.748,-65.0001"/>
</g>
<!-- Node4 -->
<g id="node4" class="node"><title>Node4</title>
<g id="a_node4"><a xlink:href="classmappel_1_1PointEmitterModel.html#a0dfb473c48d177a4540d328abb03cd55" target="_top" xlink:title="mappel::PointEmitterModel\l::get_ubound">
<polygon fill="white" stroke="black" points="161,-0.5 161,-28.5 288,-28.5 288,-0.5 161,-0.5"/>
<text text-anchor="start" x="169" y="-17.3" font-family="Helvetica,sans-Serif" font-size="9.00">mappel::PointEmitterModel</text>
<text text-anchor="middle" x="224.5" y="-7.3" font-family="Helvetica,sans-Serif" font-size="9.00">::get_ubound</text>
</a>
</g>
</g>
<!-- Node1&#45;&gt;Node4 -->
<g id="edge3" class="edge"><title>Node1&#45;&gt;Node4</title>
<path fill="none" stroke="midnightblue" d="M125.36,-43.3286C138.674,-39.4175 152.696,-35.2986 165.843,-31.4367"/>
<polygon fill="midnightblue" stroke="midnightblue" points="167.091,-34.718 175.7,-28.5414 165.119,-28.0017 167.091,-34.718"/>
</g>
</g>
</svg>
