<?xml version="1.0" encoding="UTF-8" standalone="no"?>
<!DOCTYPE svg PUBLIC "-//W3C//DTD SVG 1.1//EN"
 "http://www.w3.org/Graphics/SVG/1.1/DTD/svg11.dtd">
<!-- Generated by graphviz version 2.38.0 (20140413.2041)
 -->
<!-- Title: mappel::PointEmitterModel::set_ubound Pages: 1 -->
<!--zoomable 131 -->
<svg id="main" version="1.1" xmlns="http://www.w3.org/2000/svg" xmlns:xlink="http://www.w3.org/1999/xlink" xml:space="preserve" onload="init(evt)">
<style type="text/css"><![CDATA[
.edge:hover path { stroke: red; }
.edge:hover polygon { stroke: red; fill: red; }
]]></style>
<script type="text/javascript"><![CDATA[
var edges = document.getElementsByTagName('g');
if (edges && edges.length) {
  for (var i=0;i<edges.length;i++) {
    if (edges[i].id.substr(0,4)=='edge') {
      edges[i].setAttribute('class','edge');
    }
  }
}
]]></script>
        <defs>
                <circle id="rim" cx="0" cy="0" r="7"/>
                <circle id="rim2" cx="0" cy="0" r="3.5"/>
                <g id="zoomPlus">
                        <use xlink:href="#rim" target="_top" fill="#404040">
                                <set attributeName="fill" to="#808080" begin="zoomplus.mouseover" end="zoomplus.mouseout"/>
                        </use>
                        <path d="M-4,0h8M0,-4v8" fill="none" stroke="white" stroke-width="1.5" pointer-events="none"/>
                </g>
                <g id="zoomMin">
                        <use xlink:href="#rim" target="_top" fill="#404040">
                                <set attributeName="fill" to="#808080" begin="zoomminus.mouseover" end="zoomminus.mouseout"/>
                        </use>
                        <path d="M-4,0h8" fill="none" stroke="white" stroke-width="1.5" pointer-events="none"/>
                </g>
                <g id="dirArrow">
                        <path fill="none" stroke="white" stroke-width="1.5" d="M0,-3.0v7 M-2.5,-0.5L0,-3.0L2.5,-0.5"/>
                </g>
               <g id="resetDef">
                       <use xlink:href="#rim2" target="_top" fill="#404040">
                               <set attributeName="fill" to="#808080" begin="reset.mouseover" end="reset.mouseout"/>
                       </use>
               </g>
        </defs>

<script type="text/javascript">
var viewWidth = 603;
var viewHeight = 131;
var sectionId = 'dynsection-58';
</script>
<script xlink:href="svgpan.js" target="_top"/>
<svg id="graph" class="graph">
<g id="viewport">
<title>mappel::PointEmitterModel::set_ubound</title>
<polygon fill="white" stroke="none" points="-4,4 -4,-127 599,-127 599,4 -4,4"/>
<!-- Node1 -->
<g id="node1" class="node"><title>Node1</title>
<polygon fill="#bfbfbf" stroke="black" points="0,-24.5 0,-52.5 127,-52.5 127,-24.5 0,-24.5"/>
<text text-anchor="start" x="8" y="-41.3" font-family="Helvetica,sans-Serif" font-size="9.00">mappel::PointEmitterModel</text>
<text text-anchor="middle" x="63.5" y="-31.3" font-family="Helvetica,sans-Serif" font-size="9.00">::set_ubound</text>
</g>
<!-- Node2 -->
<g id="node2" class="node"><title>Node2</title>
<g id="a_node2"><a xlink:href="classmappel_1_1Gauss1DsModel.html#abcaaecd43be1f8c005b65e74482a7d86" target="_top" target="_top" xlink:title="mappel::Gauss1DsModel\l::set_max_sigma">
<polygon fill="white" stroke="black" points="163,-46.5 163,-74.5 283,-74.5 283,-46.5 163,-46.5"/>
<text text-anchor="start" x="171" y="-63.3" font-family="Helvetica,sans-Serif" font-size="9.00">mappel::Gauss1DsModel</text>
<text text-anchor="middle" x="223" y="-53.3" font-family="Helvetica,sans-Serif" font-size="9.00">::set_max_sigma</text>
</a>
</g>
</g>
<!-- Node1&#45;&gt;Node2 -->
<g id="edge1" class="edge"><title>Node1&#45;&gt;Node2</title>
<path fill="none" stroke="midnightblue" d="M137.21,-48.6564C145.796,-49.8556 154.478,-51.0683 162.844,-52.237"/>
<polygon fill="midnightblue" stroke="midnightblue" points="137.589,-45.1753 127.201,-47.2582 136.62,-52.108 137.589,-45.1753"/>
</g>
<!-- Node4 -->
<g id="node4" class="node"><title>Node4</title>
<g id="a_node4"><a xlink:href="classmappel_1_1Gauss2DsModel.html#a85925eaef6d69c5f6b3ceeae3364dd68" target="_top" target="_top" xlink:title="mappel::Gauss2DsModel\l::set_max_sigma_ratio">
<polygon fill="white" stroke="black" points="319,-0.5 319,-28.5 439,-28.5 439,-0.5 319,-0.5"/>
<text text-anchor="start" x="327" y="-17.3" font-family="Helvetica,sans-Serif" font-size="9.00">mappel::Gauss2DsModel</text>
<text text-anchor="middle" x="379" y="-7.3" font-family="Helvetica,sans-Serif" font-size="9.00">::set_max_sigma_ratio</text>
</a>
</g>
</g>
<!-- Node1&#45;&gt;Node4 -->
<g id="edge6" class="edge"><title>Node1&#45;&gt;Node4</title>
<path fill="none" stroke="midnightblue" d="M137.253,-32.9304C192.442,-28.7054 267.345,-22.9712 318.87,-19.0267"/>
<polygon fill="midnightblue" stroke="midnightblue" points="136.892,-29.4477 127.188,-33.7009 137.426,-36.4273 136.892,-29.4477"/>
</g>
<!-- Node3 -->
<g id="node3" class="node"><title>Node3</title>
<g id="a_node3"><a xlink:href="classmappel_1_1Gauss1DsModel.html#a28c6e621043d53c5273e277266453de9" target="_top" target="_top" xlink:title="mappel::Gauss1DsModel\l::set_max_sigma">
<polygon fill="white" stroke="black" points="319,-94.5 319,-122.5 439,-122.5 439,-94.5 319,-94.5"/>
<text text-anchor="start" x="327" y="-111.3" font-family="Helvetica,sans-Serif" font-size="9.00">mappel::Gauss1DsModel</text>
<text text-anchor="middle" x="379" y="-101.3" font-family="Helvetica,sans-Serif" font-size="9.00">::set_max_sigma</text>
</a>
</g>
</g>
<!-- Node2&#45;&gt;Node3 -->
<g id="edge2" class="edge"><title>Node2&#45;&gt;Node3</title>
<path fill="none" stroke="midnightblue" d="M278.638,-77.53C296.435,-83.0771 315.977,-89.1683 332.987,-94.47"/>
<polygon fill="midnightblue" stroke="midnightblue" points="279.546,-74.1469 268.957,-74.5126 277.463,-80.8298 279.546,-74.1469"/>
</g>
<!-- Node2&#45;&gt;Node4 -->
<g id="edge3" class="edge"><title>Node2&#45;&gt;Node4</title>
<path fill="none" stroke="midnightblue" d="M281.074,-43.4518C297.504,-38.5441 315.234,-33.2483 330.981,-28.5446"/>
<polygon fill="midnightblue" stroke="midnightblue" points="279.622,-40.2328 271.042,-46.4485 281.625,-46.94 279.622,-40.2328"/>
</g>
<!-- Node6 -->
<g id="node6" class="node"><title>Node6</title>
<g id="a_node6"><a xlink:href="classmappel_1_1Gauss2DsModel.html#a63d3481174444ff7f7b603a47aa8dcc1" target="_top" target="_top" xlink:title="mappel::Gauss2DsModel\l::set_min_sigma">
<polygon fill="white" stroke="black" points="319,-47.5 319,-75.5 439,-75.5 439,-47.5 319,-47.5"/>
<text text-anchor="start" x="327" y="-64.3" font-family="Helvetica,sans-Serif" font-size="9.00">mappel::Gauss2DsModel</text>
<text text-anchor="middle" x="379" y="-54.3" font-family="Helvetica,sans-Serif" font-size="9.00">::set_min_sigma</text>
</a>
</g>
</g>
<!-- Node2&#45;&gt;Node6 -->
<g id="edge5" class="edge"><title>Node2&#45;&gt;Node6</title>
<path fill="none" stroke="midnightblue" d="M293.369,-60.9504C301.862,-61.0056 310.48,-61.0616 318.804,-61.1156"/>
<polygon fill="midnightblue" stroke="midnightblue" points="293.123,-57.4489 283.1,-60.8838 293.077,-64.4487 293.123,-57.4489"/>
</g>
<!-- Node5 -->
<g id="node5" class="node"><title>Node5</title>
<g id="a_node5"><a xlink:href="classmappel_1_1Gauss2DsModel.html#a8ef1bc0d4dc27247d88ff2c7300a149d" target="_top" target="_top" xlink:title="mappel::Gauss2DsModel\l::set_max_sigma">
<polygon fill="white" stroke="black" points="475,-0.5 475,-28.5 595,-28.5 595,-0.5 475,-0.5"/>
<text text-anchor="start" x="483" y="-17.3" font-family="Helvetica,sans-Serif" font-size="9.00">mappel::Gauss2DsModel</text>
<text text-anchor="middle" x="535" y="-7.3" font-family="Helvetica,sans-Serif" font-size="9.00">::set_max_sigma</text>
</a>
</g>
</g>
<!-- Node4&#45;&gt;Node5 -->
<g id="edge4" class="edge"><title>Node4&#45;&gt;Node5</title>
<path fill="none" stroke="midnightblue" d="M449.369,-14.5C457.862,-14.5 466.48,-14.5 474.804,-14.5"/>
<polygon fill="midnightblue" stroke="midnightblue" points="449.1,-11.0001 439.1,-14.5 449.1,-18.0001 449.1,-11.0001"/>
</g>
</g>
</svg>
        <g id="navigator" transform="translate(0 0)" fill="#404254">
                <rect fill="#f2f5e9" fill-opacity="0.5" stroke="#606060" stroke-width=".5" x="0" y="0" width="60" height="60"/>
                <use id="zoomplus" xlink:href="#zoomPlus" target="_top" x="17" y="9" onmousedown="handleZoom(evt,'in')"/>
                <use id="zoomminus" xlink:href="#zoomMin" target="_top" x="42" y="9" onmousedown="handleZoom(evt,'out')"/>
                <use id="reset" xlink:href="#resetDef" target="_top" x="30" y="36" onmousedown="handleReset()"/>
                <g id="arrowUp" xlink:href="#dirArrow" target="_top" transform="translate(30 24)" onmousedown="handlePan(0,-1)">
                  <use xlink:href="#rim" target="_top" fill="#404040">
                        <set attributeName="fill" to="#808080" begin="arrowUp.mouseover" end="arrowUp.mouseout"/>
                  </use>
                  <path fill="none" stroke="white" stroke-width="1.5" d="M0,-3.0v7 M-2.5,-0.5L0,-3.0L2.5,-0.5"/>
                </g>
                <g id="arrowRight" xlink:href="#dirArrow" target="_top" transform="rotate(90) translate(36 -43)" onmousedown="handlePan(1,0)">
                  <use xlink:href="#rim" target="_top" fill="#404040">
                        <set attributeName="fill" to="#808080" begin="arrowRight.mouseover" end="arrowRight.mouseout"/>
                  </use>
                  <path fill="none" stroke="white" stroke-width="1.5" d="M0,-3.0v7 M-2.5,-0.5L0,-3.0L2.5,-0.5"/>
                </g>
                <g id="arrowDown" xlink:href="#dirArrow" target="_top" transform="rotate(180) translate(-30 -48)" onmousedown="handlePan(0,1)">
                  <use xlink:href="#rim" target="_top" fill="#404040">
                        <set attributeName="fill" to="#808080" begin="arrowDown.mouseover" end="arrowDown.mouseout"/>
                  </use>
                  <path fill="none" stroke="white" stroke-width="1.5" d="M0,-3.0v7 M-2.5,-0.5L0,-3.0L2.5,-0.5"/>
                </g>
                <g id="arrowLeft" xlink:href="#dirArrow" target="_top" transform="rotate(270) translate(-36 17)" onmousedown="handlePan(-1,0)">
                  <use xlink:href="#rim" target="_top" fill="#404040">
                        <set attributeName="fill" to="#808080" begin="arrowLeft.mouseover" end="arrowLeft.mouseout"/>
                  </use>
                  <path fill="none" stroke="white" stroke-width="1.5" d="M0,-3.0v7 M-2.5,-0.5L0,-3.0L2.5,-0.5"/>
                </g>
        </g>
        <svg viewBox="0 0 15 15" width="100%" height="30px" preserveAspectRatio="xMaxYMin meet">
         <g id="arrow_out" transform="scale(0.3 0.3)">
          <a xlink:href="classmappel_1_1PointEmitterModel_a7363961cc405e585b39e81a7ad85c8d6_icgraph_org.svg" target="_top" target="_base">
           <rect id="button" ry="5" rx="5" y="6" x="6" height="38" width="38"
                fill="#f2f5e9" fill-opacity="0.5" stroke="#606060" stroke-width="1.0"/>
           <path id="arrow"
             d="M 11.500037,31.436501 C 11.940474,20.09759 22.043105,11.32322 32.158766,21.979434 L 37.068811,17.246167 C 37.068811,17.246167 37.088388,32 37.088388,32 L 22.160133,31.978069 C 22.160133,31.978069 26.997745,27.140456 26.997745,27.140456 C 18.528582,18.264221 13.291696,25.230495 11.500037,31.436501 z"
             style="fill:#404040;"/>
          </a>
         </g>
        </svg>
</svg>
