<?xml version="1.0" encoding="UTF-8" standalone="no"?>
<!DOCTYPE svg PUBLIC "-//W3C//DTD SVG 1.1//EN"
 "http://www.w3.org/Graphics/SVG/1.1/DTD/svg11.dtd">
<!-- Generated by graphviz version 2.38.0 (20140413.2041)
 -->
<!-- Title: mappel::MCMCAdaptor2D::operator= Pages: 1 -->
<svg width="610pt" height="245pt"
 viewBox="0.00 0.00 610.00 245.00" xmlns="http://www.w3.org/2000/svg" xmlns:xlink="http://www.w3.org/1999/xlink">
<g id="graph0" class="graph" transform="scale(1 1) rotate(0) translate(4 241)">
<title>mappel::MCMCAdaptor2D::operator=</title>
<polygon fill="white" stroke="none" points="-4,4 -4,-241 606,-241 606,4 -4,4"/>
<!-- Node1 -->
<g id="node1" class="node"><title>Node1</title>
<polygon fill="#bfbfbf" stroke="black" points="0,-98.5 0,-126.5 125,-126.5 125,-98.5 0,-98.5"/>
<text text-anchor="start" x="8" y="-115.3" font-family="Helvetica,sans-Serif" font-size="9.00">mappel::MCMCAdaptor2D</text>
<text text-anchor="middle" x="62.5" y="-105.3" font-family="Helvetica,sans-Serif" font-size="9.00">::operator=</text>
</g>
<!-- Node2 -->
<g id="node2" class="node"><title>Node2</title>
<g id="a_node2"><a xlink:href="classmappel_1_1MCMCAdaptor2Ds.html#a271813db8cfbca730d2ebd60b335b33e" target="_top" xlink:title="mappel::MCMCAdaptor2Ds\l::operator=">
<polygon fill="white" stroke="black" points="161,-136.5 161,-164.5 290,-164.5 290,-136.5 161,-136.5"/>
<text text-anchor="start" x="169" y="-153.3" font-family="Helvetica,sans-Serif" font-size="9.00">mappel::MCMCAdaptor2Ds</text>
<text text-anchor="middle" x="225.5" y="-143.3" font-family="Helvetica,sans-Serif" font-size="9.00">::operator=</text>
</a>
</g>
</g>
<!-- Node1&#45;&gt;Node2 -->
<g id="edge1" class="edge"><title>Node1&#45;&gt;Node2</title>
<path fill="none" stroke="midnightblue" d="M132.751,-128.845C143.484,-131.378 154.489,-133.976 164.983,-136.452"/>
<polygon fill="midnightblue" stroke="midnightblue" points="133.53,-125.433 122.993,-126.542 131.922,-132.245 133.53,-125.433"/>
</g>
<!-- Node7 -->
<g id="node7" class="node"><title>Node7</title>
<g id="a_node7"><a xlink:href="classmappel_1_1Gauss2DModel.html#ac71b6bde6695ad5c3b58c366bc48600d" target="_top" xlink:title="mappel::Gauss2DModel\l::operator=">
<polygon fill="white" stroke="black" points="167.5,-61.5 167.5,-89.5 283.5,-89.5 283.5,-61.5 167.5,-61.5"/>
<text text-anchor="start" x="175.5" y="-78.3" font-family="Helvetica,sans-Serif" font-size="9.00">mappel::Gauss2DModel</text>
<text text-anchor="middle" x="225.5" y="-68.3" font-family="Helvetica,sans-Serif" font-size="9.00">::operator=</text>
</a>
</g>
</g>
<!-- Node1&#45;&gt;Node7 -->
<g id="edge6" class="edge"><title>Node1&#45;&gt;Node7</title>
<path fill="none" stroke="midnightblue" d="M134.747,-96.1264C145.646,-93.6218 156.773,-91.0645 167.317,-88.6415"/>
<polygon fill="midnightblue" stroke="midnightblue" points="133.788,-92.7554 124.826,-98.4063 135.356,-99.5776 133.788,-92.7554"/>
</g>
<!-- Node3 -->
<g id="node3" class="node"><title>Node3</title>
<g id="a_node3"><a xlink:href="classmappel_1_1Gauss2DsModel.html#ab1b09eccafc20261b34a404fc8dede4e" target="_top" xlink:title="mappel::Gauss2DsModel\l::operator=">
<polygon fill="white" stroke="black" points="326,-151.5 326,-179.5 446,-179.5 446,-151.5 326,-151.5"/>
<text text-anchor="start" x="334" y="-168.3" font-family="Helvetica,sans-Serif" font-size="9.00">mappel::Gauss2DsModel</text>
<text text-anchor="middle" x="386" y="-158.3" font-family="Helvetica,sans-Serif" font-size="9.00">::operator=</text>
</a>
</g>
</g>
<!-- Node2&#45;&gt;Node3 -->
<g id="edge2" class="edge"><title>Node2&#45;&gt;Node3</title>
<path fill="none" stroke="midnightblue" d="M300.1,-157.465C308.714,-158.28 317.417,-159.104 325.799,-159.897"/>
<polygon fill="midnightblue" stroke="midnightblue" points="300.34,-153.972 290.055,-156.515 299.68,-160.941 300.34,-153.972"/>
</g>
<!-- Node4 -->
<g id="node4" class="node"><title>Node4</title>
<g id="a_node4"><a xlink:href="classmappel_1_1Gauss2DsModel.html#a2ce4737beb88367daeb480bf471ad2cf" target="_top" xlink:title="mappel::Gauss2DsModel\l::debug_internal_sum\l_model_y">
<polygon fill="white" stroke="black" points="482,-198.5 482,-236.5 602,-236.5 602,-198.5 482,-198.5"/>
<text text-anchor="start" x="490" y="-225.3" font-family="Helvetica,sans-Serif" font-size="9.00">mappel::Gauss2DsModel</text>
<text text-anchor="start" x="490" y="-215.3" font-family="Helvetica,sans-Serif" font-size="9.00">::debug_internal_sum</text>
<text text-anchor="middle" x="542" y="-205.3" font-family="Helvetica,sans-Serif" font-size="9.00">_model_y</text>
</a>
</g>
</g>
<!-- Node3&#45;&gt;Node4 -->
<g id="edge3" class="edge"><title>Node3&#45;&gt;Node4</title>
<path fill="none" stroke="midnightblue" d="M438.205,-182.79C453.068,-187.809 469.38,-193.317 484.545,-198.437"/>
<polygon fill="midnightblue" stroke="midnightblue" points="439.269,-179.455 428.675,-179.572 437.029,-186.087 439.269,-179.455"/>
</g>
<!-- Node5 -->
<g id="node5" class="node"><title>Node5</title>
<g id="a_node5"><a xlink:href="classmappel_1_1Gauss2DsMAP.html#ae9a68cb6e29b130082f4e4cf93dfe734" target="_top" xlink:title="mappel::Gauss2DsMAP\l::operator=">
<polygon fill="white" stroke="black" points="485,-151.5 485,-179.5 599,-179.5 599,-151.5 485,-151.5"/>
<text text-anchor="start" x="493" y="-168.3" font-family="Helvetica,sans-Serif" font-size="9.00">mappel::Gauss2DsMAP</text>
<text text-anchor="middle" x="542" y="-158.3" font-family="Helvetica,sans-Serif" font-size="9.00">::operator=</text>
</a>
</g>
</g>
<!-- Node3&#45;&gt;Node5 -->
<g id="edge4" class="edge"><title>Node3&#45;&gt;Node5</title>
<path fill="none" stroke="midnightblue" d="M456.357,-165.5C465.892,-165.5 475.586,-165.5 484.844,-165.5"/>
<polygon fill="midnightblue" stroke="midnightblue" points="456.1,-162 446.1,-165.5 456.1,-169 456.1,-162"/>
</g>
<!-- Node6 -->
<g id="node6" class="node"><title>Node6</title>
<g id="a_node6"><a xlink:href="classmappel_1_1Gauss2DsMLE.html#a3c3c72608a0aa4f7342119267888ac49" target="_top" xlink:title="mappel::Gauss2DsMLE\l::operator=">
<polygon fill="white" stroke="black" points="485.5,-104.5 485.5,-132.5 598.5,-132.5 598.5,-104.5 485.5,-104.5"/>
<text text-anchor="start" x="493.5" y="-121.3" font-family="Helvetica,sans-Serif" font-size="9.00">mappel::Gauss2DsMLE</text>
<text text-anchor="middle" x="542" y="-111.3" font-family="Helvetica,sans-Serif" font-size="9.00">::operator=</text>
</a>
</g>
</g>
<!-- Node3&#45;&gt;Node6 -->
<g id="edge5" class="edge"><title>Node3&#45;&gt;Node6</title>
<path fill="none" stroke="midnightblue" d="M443.071,-148.388C460.167,-143.17 478.753,-137.498 495.093,-132.511"/>
<polygon fill="midnightblue" stroke="midnightblue" points="441.748,-145.132 433.205,-151.398 443.791,-151.827 441.748,-145.132"/>
</g>
<!-- Node8 -->
<g id="node8" class="node"><title>Node8</title>
<g id="a_node8"><a xlink:href="classmappel_1_1Gauss2DModel.html#a07e9c13f8a164f26f337fcc0c2f70374" target="_top" xlink:title="mappel::Gauss2DModel\l::debug_internal_sum\l_model_y">
<polygon fill="white" stroke="black" points="328,-94.5 328,-132.5 444,-132.5 444,-94.5 328,-94.5"/>
<text text-anchor="start" x="336" y="-121.3" font-family="Helvetica,sans-Serif" font-size="9.00">mappel::Gauss2DModel</text>
<text text-anchor="start" x="336" y="-111.3" font-family="Helvetica,sans-Serif" font-size="9.00">::debug_internal_sum</text>
<text text-anchor="middle" x="386" y="-101.3" font-family="Helvetica,sans-Serif" font-size="9.00">_model_y</text>
</a>
</g>
</g>
<!-- Node7&#45;&gt;Node8 -->
<g id="edge7" class="edge"><title>Node7&#45;&gt;Node8</title>
<path fill="none" stroke="midnightblue" d="M293.623,-91.5926C305.017,-94.3244 316.755,-97.1383 327.862,-99.8013"/>
<polygon fill="midnightblue" stroke="midnightblue" points="294.263,-88.1468 283.722,-89.2189 292.631,-94.9539 294.263,-88.1468"/>
</g>
<!-- Node9 -->
<g id="node9" class="node"><title>Node9</title>
<g id="a_node9"><a xlink:href="classmappel_1_1Gauss2DMAP.html#a45164f58c91c8eefffc0df248a7e8b7e" target="_top" xlink:title="mappel::Gauss2DMAP\l::operator=">
<polygon fill="white" stroke="black" points="331,-47.5 331,-75.5 441,-75.5 441,-47.5 331,-47.5"/>
<text text-anchor="start" x="339" y="-64.3" font-family="Helvetica,sans-Serif" font-size="9.00">mappel::Gauss2DMAP</text>
<text text-anchor="middle" x="386" y="-54.3" font-family="Helvetica,sans-Serif" font-size="9.00">::operator=</text>
</a>
</g>
</g>
<!-- Node7&#45;&gt;Node9 -->
<g id="edge8" class="edge"><title>Node7&#45;&gt;Node9</title>
<path fill="none" stroke="midnightblue" d="M293.934,-69.5437C306.232,-68.4574 318.918,-67.3369 330.772,-66.2899"/>
<polygon fill="midnightblue" stroke="midnightblue" points="293.375,-66.0793 283.722,-70.4457 293.991,-73.0522 293.375,-66.0793"/>
</g>
<!-- Node10 -->
<g id="node10" class="node"><title>Node10</title>
<g id="a_node10"><a xlink:href="classmappel_1_1Gauss2DMLE.html#a31e347e3ff70644f76a5ffd69656a43f" target="_top" xlink:title="mappel::Gauss2DMLE\l::operator=">
<polygon fill="white" stroke="black" points="331.5,-0.5 331.5,-28.5 440.5,-28.5 440.5,-0.5 331.5,-0.5"/>
<text text-anchor="start" x="339.5" y="-17.3" font-family="Helvetica,sans-Serif" font-size="9.00">mappel::Gauss2DMLE</text>
<text text-anchor="middle" x="386" y="-7.3" font-family="Helvetica,sans-Serif" font-size="9.00">::operator=</text>
</a>
</g>
</g>
<!-- Node7&#45;&gt;Node10 -->
<g id="edge9" class="edge"><title>Node7&#45;&gt;Node10</title>
<path fill="none" stroke="midnightblue" d="M272.903,-57.6413C296.98,-48.3752 325.971,-37.2178 348.438,-28.5712"/>
<polygon fill="midnightblue" stroke="midnightblue" points="271.337,-54.4938 263.261,-61.3521 273.851,-61.0267 271.337,-54.4938"/>
</g>
</g>
</svg>
