<?xml version="1.0" encoding="UTF-8" standalone="no"?>
<!DOCTYPE svg PUBLIC "-//W3C//DTD SVG 1.1//EN"
 "http://www.w3.org/Graphics/SVG/1.1/DTD/svg11.dtd">
<!-- Generated by graphviz version 2.38.0 (20140413.2041)
 -->
<!-- Title: mappel::Gauss2DsModel::set_size Pages: 1 -->
<svg width="478pt" height="84pt"
 viewBox="0.00 0.00 478.00 84.00" xmlns="http://www.w3.org/2000/svg" xmlns:xlink="http://www.w3.org/1999/xlink">
<g id="graph0" class="graph" transform="scale(1 1) rotate(0) translate(4 80)">
<title>mappel::Gauss2DsModel::set_size</title>
<polygon fill="white" stroke="none" points="-4,4 -4,-80 474,-80 474,4 -4,4"/>
<!-- Node1 -->
<g id="node1" class="node"><title>Node1</title>
<polygon fill="#bfbfbf" stroke="black" points="0,-23.5 0,-51.5 120,-51.5 120,-23.5 0,-23.5"/>
<text text-anchor="start" x="8" y="-40.3" font-family="Helvetica,sans-Serif" font-size="9.00">mappel::Gauss2DsModel</text>
<text text-anchor="middle" x="60" y="-30.3" font-family="Helvetica,sans-Serif" font-size="9.00">::set_size</text>
</g>
<!-- Node2 -->
<g id="node2" class="node"><title>Node2</title>
<g id="a_node2"><a xlink:href="classmappel_1_1ImageFormat2DBase.html#afb0cba98e353625641646506aeb80372" target="_top" xlink:title="mappel::ImageFormat2DBase\l::set_size">
<polygon fill="white" stroke="black" points="156,-47.5 156,-75.5 295,-75.5 295,-47.5 156,-47.5"/>
<text text-anchor="start" x="164" y="-64.3" font-family="Helvetica,sans-Serif" font-size="9.00">mappel::ImageFormat2DBase</text>
<text text-anchor="middle" x="225.5" y="-54.3" font-family="Helvetica,sans-Serif" font-size="9.00">::set_size</text>
</a>
</g>
</g>
<!-- Node1&#45;&gt;Node2 -->
<g id="edge1" class="edge"><title>Node1&#45;&gt;Node2</title>
<path fill="none" stroke="midnightblue" d="M120.027,-46.1646C128.377,-47.3902 137.07,-48.6662 145.718,-49.9357"/>
<polygon fill="midnightblue" stroke="midnightblue" points="145.425,-53.4301 155.828,-51.4196 146.442,-46.5043 145.425,-53.4301"/>
</g>
<!-- Node4 -->
<g id="node4" class="node"><title>Node4</title>
<g id="a_node4"><a xlink:href="classmappel_1_1ImageFormat1DBase.html#ad169407f15bd43b0cec18fa2c88725b7" target="_top" xlink:title="mappel::ImageFormat1DBase\l::set_size">
<polygon fill="white" stroke="black" points="156,-0.5 156,-28.5 295,-28.5 295,-0.5 156,-0.5"/>
<text text-anchor="start" x="164" y="-17.3" font-family="Helvetica,sans-Serif" font-size="9.00">mappel::ImageFormat1DBase</text>
<text text-anchor="middle" x="225.5" y="-7.3" font-family="Helvetica,sans-Serif" font-size="9.00">::set_size</text>
</a>
</g>
</g>
<!-- Node1&#45;&gt;Node4 -->
<g id="edge3" class="edge"><title>Node1&#45;&gt;Node4</title>
<path fill="none" stroke="midnightblue" d="M120.027,-29.1965C128.377,-28.0219 137.07,-26.7991 145.718,-25.5824"/>
<polygon fill="midnightblue" stroke="midnightblue" points="146.413,-29.0193 155.828,-24.1603 145.437,-22.0876 146.413,-29.0193"/>
</g>
<!-- Node3 -->
<g id="node3" class="node"><title>Node3</title>
<g id="a_node3"><a xlink:href="classmappel_1_1ImageFormat2DBase.html#a9c90f6a165348629be4bcf956e3010f3" target="_top" xlink:title="Check the size argument for the model. ">
<polygon fill="white" stroke="black" points="331,-47.5 331,-75.5 470,-75.5 470,-47.5 331,-47.5"/>
<text text-anchor="start" x="339" y="-64.3" font-family="Helvetica,sans-Serif" font-size="9.00">mappel::ImageFormat2DBase</text>
<text text-anchor="middle" x="400.5" y="-54.3" font-family="Helvetica,sans-Serif" font-size="9.00">::check_size</text>
</a>
</g>
</g>
<!-- Node2&#45;&gt;Node3 -->
<g id="edge2" class="edge"><title>Node2&#45;&gt;Node3</title>
<path fill="none" stroke="midnightblue" d="M295.371,-61.5C303.678,-61.5 312.211,-61.5 320.647,-61.5"/>
<polygon fill="midnightblue" stroke="midnightblue" points="320.866,-65.0001 330.866,-61.5 320.866,-58.0001 320.866,-65.0001"/>
</g>
<!-- Node5 -->
<g id="node5" class="node"><title>Node5</title>
<g id="a_node5"><a xlink:href="classmappel_1_1ImageFormat1DBase.html#a2eb986335c4d1405de65217456735ba4" target="_top" xlink:title="Check the size argument for the model. ">
<polygon fill="white" stroke="black" points="331,-0.5 331,-28.5 470,-28.5 470,-0.5 331,-0.5"/>
<text text-anchor="start" x="339" y="-17.3" font-family="Helvetica,sans-Serif" font-size="9.00">mappel::ImageFormat1DBase</text>
<text text-anchor="middle" x="400.5" y="-7.3" font-family="Helvetica,sans-Serif" font-size="9.00">::check_size</text>
</a>
</g>
</g>
<!-- Node4&#45;&gt;Node5 -->
<g id="edge4" class="edge"><title>Node4&#45;&gt;Node5</title>
<path fill="none" stroke="midnightblue" d="M295.371,-14.5C303.678,-14.5 312.211,-14.5 320.647,-14.5"/>
<polygon fill="midnightblue" stroke="midnightblue" points="320.866,-18.0001 330.866,-14.5 320.866,-11.0001 320.866,-18.0001"/>
</g>
</g>
</svg>
