<?xml version="1.0" encoding="UTF-8" standalone="no"?>
<!DOCTYPE svg PUBLIC "-//W3C//DTD SVG 1.1//EN"
 "http://www.w3.org/Graphics/SVG/1.1/DTD/svg11.dtd">
<!-- Generated by graphviz version 2.38.0 (20140413.2041)
 -->
<!-- Title: mappel::Gauss1DsModel::Stencil Pages: 1 -->
<svg width="1271pt" height="190pt"
 viewBox="0.00 0.00 1271.00 190.00" xmlns="http://www.w3.org/2000/svg" xmlns:xlink="http://www.w3.org/1999/xlink">
<g id="graph0" class="graph" transform="scale(1 1) rotate(0) translate(4 186)">
<title>mappel::Gauss1DsModel::Stencil</title>
<polygon fill="white" stroke="none" points="-4,4 -4,-186 1267,-186 1267,4 -4,4"/>
<!-- Node1 -->
<g id="node1" class="node"><title>Node1</title>
<polygon fill="#bfbfbf" stroke="black" points="1143,-70.5 1143,-98.5 1263,-98.5 1263,-70.5 1143,-70.5"/>
<text text-anchor="start" x="1151" y="-87.3" font-family="Helvetica,sans-Serif" font-size="9.00">mappel::Gauss1DsModel</text>
<text text-anchor="middle" x="1203" y="-77.3" font-family="Helvetica,sans-Serif" font-size="9.00">::Stencil</text>
</g>
<!-- Node2 -->
<g id="node2" class="node"><title>Node2</title>
<g id="a_node2"><a xlink:href="classmappel_1_1Gauss1DsModel.html" target="_top" xlink:title="Base class for 1D Gaussian PSF with variable Gaussian sigma (standard deviation) measured in units of...">
<polygon fill="white" stroke="black" points="959,-75.5 959,-93.5 1079,-93.5 1079,-75.5 959,-75.5"/>
<text text-anchor="middle" x="1019" y="-82.3" font-family="Helvetica,sans-Serif" font-size="9.00">mappel::Gauss1DsModel</text>
</a>
</g>
</g>
<!-- Node2&#45;&gt;Node1 -->
<g id="edge1" class="edge"><title>Node2&#45;&gt;Node1</title>
<path fill="none" stroke="#9a32cd" stroke-dasharray="5,2" d="M1089.33,-84.5C1106.99,-84.5 1125.8,-84.5 1142.9,-84.5"/>
<polygon fill="#9a32cd" stroke="#9a32cd" points="1089.09,-81.0001 1079.09,-84.5 1089.09,-88.0001 1089.09,-81.0001"/>
<text text-anchor="middle" x="1111" y="-87.3" font-family="Helvetica,sans-Serif" font-size="9.00"> model</text>
</g>
<!-- Node3 -->
<g id="node3" class="node"><title>Node3</title>
<g id="a_node3"><a xlink:href="classmappel_1_1PointEmitterModel.html" target="_top" xlink:title="A virtual Base type for point emitter localization models. ">
<polygon fill="white" stroke="black" points="366.5,-119.5 366.5,-137.5 493.5,-137.5 493.5,-119.5 366.5,-119.5"/>
<text text-anchor="middle" x="430" y="-126.3" font-family="Helvetica,sans-Serif" font-size="9.00">mappel::PointEmitterModel</text>
</a>
</g>
</g>
<!-- Node3&#45;&gt;Node2 -->
<g id="edge2" class="edge"><title>Node3&#45;&gt;Node2</title>
<path fill="none" stroke="midnightblue" d="M503.843,-126.986C603.032,-124.294 785.989,-117.082 941,-98.5 951.523,-97.2386 962.781,-95.4462 973.351,-93.5634"/>
<polygon fill="midnightblue" stroke="midnightblue" points="503.536,-123.493 493.632,-127.255 503.721,-130.491 503.536,-123.493"/>
</g>
<!-- Node9 -->
<g id="node9" class="node"><title>Node9</title>
<g id="a_node9"><a xlink:href="classmappel_1_1MCMCAdaptor1D.html" target="_top" xlink:title="mappel::MCMCAdaptor1D">
<polygon fill="white" stroke="black" points="534,-151.5 534,-169.5 659,-169.5 659,-151.5 534,-151.5"/>
<text text-anchor="middle" x="596.5" y="-158.3" font-family="Helvetica,sans-Serif" font-size="9.00">mappel::MCMCAdaptor1D</text>
</a>
</g>
</g>
<!-- Node3&#45;&gt;Node9 -->
<g id="edge9" class="edge"><title>Node3&#45;&gt;Node9</title>
<path fill="none" stroke="midnightblue" d="M487.623,-139.515C507.633,-143.407 529.892,-147.737 548.969,-151.448"/>
<polygon fill="midnightblue" stroke="midnightblue" points="488.183,-136.058 477.699,-137.584 486.847,-142.929 488.183,-136.058"/>
</g>
<!-- Node4 -->
<g id="node4" class="node"><title>Node4</title>
<polygon fill="white" stroke="#bfbfbf" points="125,-141.5 125,-159.5 202,-159.5 202,-141.5 125,-141.5"/>
<text text-anchor="middle" x="163.5" y="-148.3" font-family="Helvetica,sans-Serif" font-size="9.00">CompositeDist</text>
</g>
<!-- Node4&#45;&gt;Node3 -->
<g id="edge3" class="edge"><title>Node4&#45;&gt;Node3</title>
<path fill="none" stroke="#9a32cd" stroke-dasharray="5,2" d="M212.337,-146.521C255.441,-142.936 319.098,-137.641 366.268,-133.718"/>
<polygon fill="#9a32cd" stroke="#9a32cd" points="211.791,-143.054 202.116,-147.371 212.371,-150.03 211.791,-143.054"/>
<text text-anchor="middle" x="282.5" y="-148.3" font-family="Helvetica,sans-Serif" font-size="9.00"> prior</text>
</g>
<!-- Node5 -->
<g id="node5" class="node"><title>Node5</title>
<g id="a_node5"><a xlink:title="STL class. ">
<polygon fill="white" stroke="#bfbfbf" points="135.5,-90.5 135.5,-108.5 191.5,-108.5 191.5,-90.5 135.5,-90.5"/>
<text text-anchor="middle" x="163.5" y="-97.3" font-family="Helvetica,sans-Serif" font-size="9.00">std::string</text>
</a>
</g>
</g>
<!-- Node5&#45;&gt;Node2 -->
<g id="edge11" class="edge"><title>Node5&#45;&gt;Node2</title>
<path fill="none" stroke="#9a32cd" stroke-dasharray="5,2" d="M201.739,-96.0549C252.906,-91.6261 347.844,-84.5 429,-84.5 429,-84.5 429,-84.5 805.5,-84.5 857.334,-84.5 916.279,-84.5 958.918,-84.5"/>
<polygon fill="#9a32cd" stroke="#9a32cd" points="201.161,-92.5922 191.506,-96.9555 201.774,-99.5652 201.161,-92.5922"/>
<text text-anchor="middle" x="596.5" y="-87.3" font-family="Helvetica,sans-Serif" font-size="9.00"> DefaultPriorType</text>
</g>
<!-- Node5&#45;&gt;Node3 -->
<g id="edge4" class="edge"><title>Node5&#45;&gt;Node3</title>
<path fill="none" stroke="#9a32cd" stroke-dasharray="5,2" d="M201.785,-103.588C244.526,-108.274 315.27,-116.031 366.479,-121.645"/>
<polygon fill="#9a32cd" stroke="#9a32cd" points="202.132,-100.105 191.81,-102.494 201.369,-107.063 202.132,-100.105"/>
<text text-anchor="middle" x="282.5" y="-122.3" font-family="Helvetica,sans-Serif" font-size="9.00"> DefaultSeperableInitEstimator</text>
</g>
<!-- Node6 -->
<g id="node6" class="node"><title>Node6</title>
<g id="a_node6"><a xlink:title="STL class. ">
<polygon fill="white" stroke="#bfbfbf" points="0,-85.5 0,-113.5 88,-113.5 88,-85.5 0,-85.5"/>
<text text-anchor="start" x="8" y="-102.3" font-family="Helvetica,sans-Serif" font-size="9.00">std::basic_string&lt;</text>
<text text-anchor="middle" x="44" y="-92.3" font-family="Helvetica,sans-Serif" font-size="9.00"> char &gt;</text>
</a>
</g>
</g>
<!-- Node6&#45;&gt;Node5 -->
<g id="edge5" class="edge"><title>Node6&#45;&gt;Node5</title>
<path fill="none" stroke="midnightblue" d="M98.287,-99.5C111.161,-99.5 124.389,-99.5 135.467,-99.5"/>
<polygon fill="midnightblue" stroke="midnightblue" points="98.0855,-96.0001 88.0855,-99.5 98.0854,-103 98.0855,-96.0001"/>
</g>
<!-- Node7 -->
<g id="node7" class="node"><title>Node7</title>
<g id="a_node7"><a xlink:href="classmappel_1_1ImageFormat1DBase.html" target="_top" xlink:title="A virtual base class for 2D image localization objectives. ">
<polygon fill="white" stroke="black" points="735,-37.5 735,-55.5 874,-55.5 874,-37.5 735,-37.5"/>
<text text-anchor="middle" x="804.5" y="-44.3" font-family="Helvetica,sans-Serif" font-size="9.00">mappel::ImageFormat1DBase</text>
</a>
</g>
</g>
<!-- Node7&#45;&gt;Node2 -->
<g id="edge6" class="edge"><title>Node7&#45;&gt;Node2</title>
<path fill="none" stroke="midnightblue" d="M866.741,-57.2862C889.998,-61.3985 916.727,-66.1437 941,-70.5 949.827,-72.0841 959.22,-73.7819 968.301,-75.4296"/>
<polygon fill="midnightblue" stroke="midnightblue" points="867.119,-53.7989 856.663,-55.5054 865.901,-60.6921 867.119,-53.7989"/>
</g>
<!-- Node8 -->
<g id="node8" class="node"><title>Node8</title>
<g id="a_node8"><a xlink:href="classmappel_1_1MCMCAdaptor1Ds.html" target="_top" xlink:title="mappel::MCMCAdaptor1Ds">
<polygon fill="white" stroke="black" points="740,-151.5 740,-169.5 869,-169.5 869,-151.5 740,-151.5"/>
<text text-anchor="middle" x="804.5" y="-158.3" font-family="Helvetica,sans-Serif" font-size="9.00">mappel::MCMCAdaptor1Ds</text>
</a>
</g>
</g>
<!-- Node8&#45;&gt;Node2 -->
<g id="edge7" class="edge"><title>Node8&#45;&gt;Node2</title>
<path fill="none" stroke="midnightblue" d="M879.038,-153.208C899.584,-149.648 921.589,-144.358 941,-136.5 967.017,-125.968 993.239,-105.73 1007.37,-93.8461"/>
<polygon fill="midnightblue" stroke="midnightblue" points="878.398,-149.766 869.087,-154.821 879.518,-156.676 878.398,-149.766"/>
</g>
<!-- Node9&#45;&gt;Node8 -->
<g id="edge8" class="edge"><title>Node9&#45;&gt;Node8</title>
<path fill="none" stroke="midnightblue" d="M669.071,-160.5C692.074,-160.5 717.39,-160.5 739.79,-160.5"/>
<polygon fill="midnightblue" stroke="midnightblue" points="669.028,-157 659.028,-160.5 669.028,-164 669.028,-157"/>
</g>
<!-- Node10 -->
<g id="node10" class="node"><title>Node10</title>
<g id="a_node10"><a xlink:href="classmappel_1_1MCMCAdaptorBase.html" target="_top" xlink:title="mappel::MCMCAdaptorBase">
<polygon fill="white" stroke="black" points="363,-163.5 363,-181.5 497,-181.5 497,-163.5 363,-163.5"/>
<text text-anchor="middle" x="430" y="-170.3" font-family="Helvetica,sans-Serif" font-size="9.00">mappel::MCMCAdaptorBase</text>
</a>
</g>
</g>
<!-- Node10&#45;&gt;Node9 -->
<g id="edge10" class="edge"><title>Node10&#45;&gt;Node9</title>
<path fill="none" stroke="midnightblue" d="M507.679,-166.906C516.459,-166.266 525.325,-165.619 533.872,-164.996"/>
<polygon fill="midnightblue" stroke="midnightblue" points="507.153,-163.435 497.434,-167.654 507.662,-170.417 507.153,-163.435"/>
</g>
<!-- Node11 -->
<g id="node11" class="node"><title>Node11</title>
<g id="a_node11"><a xlink:title="STL class. ">
<polygon fill="white" stroke="#bfbfbf" points="765.5,-0.5 765.5,-18.5 843.5,-18.5 843.5,-0.5 765.5,-0.5"/>
<text text-anchor="middle" x="804.5" y="-7.3" font-family="Helvetica,sans-Serif" font-size="9.00">std::vector&lt; T &gt;</text>
</a>
</g>
</g>
<!-- Node11&#45;&gt;Node2 -->
<g id="edge12" class="edge"><title>Node11&#45;&gt;Node2</title>
<path fill="none" stroke="#9a32cd" stroke-dasharray="5,2" d="M851.058,-21.153C858.733,-23.2072 866.606,-25.371 874,-27.5 903.988,-36.1345 911.912,-37.1998 941,-48.5 961.771,-56.569 984.828,-67.6441 1000.25,-75.3717"/>
<polygon fill="#9a32cd" stroke="#9a32cd" points="851.702,-17.7029 841.139,-18.5276 849.911,-24.4699 851.702,-17.7029"/>
<text text-anchor="middle" x="916.5" y="-51.3" font-family="Helvetica,sans-Serif" font-size="9.00"> prior_types</text>
</g>
<!-- Node12 -->
<g id="node12" class="node"><title>Node12</title>
<polygon fill="white" stroke="#bfbfbf" points="582,-0.5 582,-18.5 611,-18.5 611,-0.5 582,-0.5"/>
<text text-anchor="middle" x="596.5" y="-7.3" font-family="Helvetica,sans-Serif" font-size="9.00">T</text>
</g>
<!-- Node12&#45;&gt;Node11 -->
<g id="edge13" class="edge"><title>Node12&#45;&gt;Node11</title>
<path fill="none" stroke="#9a32cd" stroke-dasharray="5,2" d="M621.303,-9.5C656.585,-9.5 723.12,-9.5 765.281,-9.5"/>
<polygon fill="#9a32cd" stroke="#9a32cd" points="621.016,-6.0001 611.016,-9.5 621.016,-13.0001 621.016,-6.0001"/>
<text text-anchor="middle" x="697" y="-12.3" font-family="Helvetica,sans-Serif" font-size="9.00"> elements</text>
</g>
</g>
</svg>
