<?xml version="1.0" encoding="UTF-8" standalone="no"?>
<!DOCTYPE svg PUBLIC "-//W3C//DTD SVG 1.1//EN"
 "http://www.w3.org/Graphics/SVG/1.1/DTD/svg11.dtd">
<!-- Generated by graphviz version 2.38.0 (20140413.2041)
 -->
<!-- Title: mappel::Estimator::estimate_max Pages: 1 -->
<svg width="572pt" height="37pt"
 viewBox="0.00 0.00 572.00 37.00" xmlns="http://www.w3.org/2000/svg" xmlns:xlink="http://www.w3.org/1999/xlink">
<g id="graph0" class="graph" transform="scale(1 1) rotate(0) translate(4 33)">
<title>mappel::Estimator::estimate_max</title>
<polygon fill="white" stroke="none" points="-4,4 -4,-33 568,-33 568,4 -4,4"/>
<!-- Node1 -->
<g id="node1" class="node"><title>Node1</title>
<polygon fill="#bfbfbf" stroke="black" points="0,-0.5 0,-28.5 95,-28.5 95,-0.5 0,-0.5"/>
<text text-anchor="start" x="8" y="-17.3" font-family="Helvetica,sans-Serif" font-size="9.00">mappel::Estimator::</text>
<text text-anchor="middle" x="47.5" y="-7.3" font-family="Helvetica,sans-Serif" font-size="9.00">estimate_max</text>
</g>
<!-- Node2 -->
<g id="node2" class="node"><title>Node2</title>
<g id="a_node2"><a xlink:href="namespacemappel_1_1methods.html#a7f4a5561497c243edaa6f55fddf0ec4e" target="_top" xlink:title="mappel::methods::estimate_max">
<polygon fill="white" stroke="black" points="131,-5.5 131,-23.5 280,-23.5 280,-5.5 131,-5.5"/>
<text text-anchor="middle" x="205.5" y="-12.3" font-family="Helvetica,sans-Serif" font-size="9.00">mappel::methods::estimate_max</text>
</a>
</g>
</g>
<!-- Node1&#45;&gt;Node2 -->
<g id="edge1" class="edge"><title>Node1&#45;&gt;Node2</title>
<path fill="none" stroke="midnightblue" d="M95.3051,-14.5C103.368,-14.5 111.964,-14.5 120.657,-14.5"/>
<polygon fill="midnightblue" stroke="midnightblue" points="120.881,-18.0001 130.881,-14.5 120.881,-11.0001 120.881,-18.0001"/>
</g>
<!-- Node3 -->
<g id="node3" class="node"><title>Node3</title>
<g id="a_node3"><a xlink:href="namespacemappel_1_1methods.html#a0f47a66f366b6e5841f1224e839ed828" target="_top" xlink:title="mappel::methods::make\l_estimator">
<polygon fill="white" stroke="black" points="316,-0.5 316,-28.5 430,-28.5 430,-0.5 316,-0.5"/>
<text text-anchor="start" x="324" y="-17.3" font-family="Helvetica,sans-Serif" font-size="9.00">mappel::methods::make</text>
<text text-anchor="middle" x="373" y="-7.3" font-family="Helvetica,sans-Serif" font-size="9.00">_estimator</text>
</a>
</g>
</g>
<!-- Node2&#45;&gt;Node3 -->
<g id="edge2" class="edge"><title>Node2&#45;&gt;Node3</title>
<path fill="none" stroke="midnightblue" d="M280.055,-14.5C288.524,-14.5 297.124,-14.5 305.493,-14.5"/>
<polygon fill="midnightblue" stroke="midnightblue" points="305.563,-18.0001 315.563,-14.5 305.563,-11.0001 305.563,-18.0001"/>
</g>
<!-- Node4 -->
<g id="node4" class="node"><title>Node4</title>
<g id="a_node4"><a xlink:href="namespacemappel.html#a610296a93ba507763bc770d39049f323" target="_top" xlink:title="mappel::istarts_with">
<polygon fill="white" stroke="black" points="466,-5.5 466,-23.5 564,-23.5 564,-5.5 466,-5.5"/>
<text text-anchor="middle" x="515" y="-12.3" font-family="Helvetica,sans-Serif" font-size="9.00">mappel::istarts_with</text>
</a>
</g>
</g>
<!-- Node3&#45;&gt;Node4 -->
<g id="edge3" class="edge"><title>Node3&#45;&gt;Node4</title>
<path fill="none" stroke="midnightblue" d="M430.137,-14.5C438.574,-14.5 447.29,-14.5 455.77,-14.5"/>
<polygon fill="midnightblue" stroke="midnightblue" points="455.961,-18.0001 465.961,-14.5 455.961,-11.0001 455.961,-18.0001"/>
</g>
</g>
</svg>
