<?xml version="1.0" encoding="UTF-8" standalone="no"?>
<!DOCTYPE svg PUBLIC "-//W3C//DTD SVG 1.1//EN"
 "http://www.w3.org/Graphics/SVG/1.1/DTD/svg11.dtd">
<!-- Generated by graphviz version 2.38.0 (20140413.2041)
 -->
<!-- Title: mappel::Gauss2DModel::debug_internal_sum_model_y Pages: 1 -->
<svg width="781pt" height="199pt"
 viewBox="0.00 0.00 781.00 199.00" xmlns="http://www.w3.org/2000/svg" xmlns:xlink="http://www.w3.org/1999/xlink">
<g id="graph0" class="graph" transform="scale(1 1) rotate(0) translate(4 195)">
<title>mappel::Gauss2DModel::debug_internal_sum_model_y</title>
<polygon fill="white" stroke="none" points="-4,4 -4,-195 777,-195 777,4 -4,4"/>
<!-- Node1 -->
<g id="node1" class="node"><title>Node1</title>
<polygon fill="#bfbfbf" stroke="black" points="0,-71.5 0,-109.5 116,-109.5 116,-71.5 0,-71.5"/>
<text text-anchor="start" x="8" y="-98.3" font-family="Helvetica,sans-Serif" font-size="9.00">mappel::Gauss2DModel</text>
<text text-anchor="start" x="8" y="-88.3" font-family="Helvetica,sans-Serif" font-size="9.00">::debug_internal_sum</text>
<text text-anchor="middle" x="58" y="-78.3" font-family="Helvetica,sans-Serif" font-size="9.00">_model_y</text>
</g>
<!-- Node2 -->
<g id="node2" class="node"><title>Node2</title>
<g id="a_node2"><a xlink:href="classmappel_1_1Gauss2DModel.html#aa2247488bb3d360e323b9819ccef3429" target="_top" xlink:title="mappel::Gauss2DModel\l::Gauss2DModel">
<polygon fill="white" stroke="black" points="154,-143.5 154,-171.5 270,-171.5 270,-143.5 154,-143.5"/>
<text text-anchor="start" x="162" y="-160.3" font-family="Helvetica,sans-Serif" font-size="9.00">mappel::Gauss2DModel</text>
<text text-anchor="middle" x="212" y="-150.3" font-family="Helvetica,sans-Serif" font-size="9.00">::Gauss2DModel</text>
</a>
</g>
</g>
<!-- Node1&#45;&gt;Node2 -->
<g id="edge1" class="edge"><title>Node1&#45;&gt;Node2</title>
<path fill="none" stroke="midnightblue" d="M102.151,-109.52C123.31,-118.847 148.676,-130.028 169.596,-139.249"/>
<polygon fill="midnightblue" stroke="midnightblue" points="168.301,-142.504 178.863,-143.335 171.125,-136.098 168.301,-142.504"/>
</g>
<!-- Node4 -->
<g id="node4" class="node"><title>Node4</title>
<g id="a_node4"><a xlink:href="classmappel_1_1Gauss2DModel.html#a0981f99341c0f6f63554680ce165df66" target="_top" xlink:title="mappel::Gauss2DModel\l::make_internal_1Dsum\l_estimator">
<polygon fill="white" stroke="black" points="313.5,-95.5 313.5,-133.5 429.5,-133.5 429.5,-95.5 313.5,-95.5"/>
<text text-anchor="start" x="321.5" y="-122.3" font-family="Helvetica,sans-Serif" font-size="9.00">mappel::Gauss2DModel</text>
<text text-anchor="start" x="321.5" y="-112.3" font-family="Helvetica,sans-Serif" font-size="9.00">::make_internal_1Dsum</text>
<text text-anchor="middle" x="371.5" y="-102.3" font-family="Helvetica,sans-Serif" font-size="9.00">_estimator</text>
</a>
</g>
</g>
<!-- Node1&#45;&gt;Node4 -->
<g id="edge10" class="edge"><title>Node1&#45;&gt;Node4</title>
<path fill="none" stroke="midnightblue" d="M116.134,-94.902C168.963,-98.9722 247.506,-105.024 303.319,-109.324"/>
<polygon fill="midnightblue" stroke="midnightblue" points="303.226,-112.827 313.465,-110.106 303.764,-105.848 303.226,-112.827"/>
</g>
<!-- Node10 -->
<g id="node10" class="node"><title>Node10</title>
<g id="a_node10"><a xlink:href="classmappel_1_1Gauss2DModel.html#ac71b6bde6695ad5c3b58c366bc48600d" target="_top" xlink:title="mappel::Gauss2DModel\l::operator=">
<polygon fill="white" stroke="black" points="154,-0.5 154,-28.5 270,-28.5 270,-0.5 154,-0.5"/>
<text text-anchor="start" x="162" y="-17.3" font-family="Helvetica,sans-Serif" font-size="9.00">mappel::Gauss2DModel</text>
<text text-anchor="middle" x="212" y="-7.3" font-family="Helvetica,sans-Serif" font-size="9.00">::operator=</text>
</a>
</g>
</g>
<!-- Node1&#45;&gt;Node10 -->
<g id="edge11" class="edge"><title>Node1&#45;&gt;Node10</title>
<path fill="none" stroke="midnightblue" d="M89.816,-71.426C107.641,-60.7792 130.696,-47.6561 152,-37.5 155.582,-35.7924 159.327,-34.1092 163.117,-32.4773"/>
<polygon fill="midnightblue" stroke="midnightblue" points="164.68,-35.6177 172.566,-28.5422 161.989,-29.1556 164.68,-35.6177"/>
</g>
<!-- Node13 -->
<g id="node13" class="node"><title>Node13</title>
<g id="a_node13"><a xlink:href="classmappel_1_1Gauss2DModel.html#a221f765c48f478177f150c08733e9d29" target="_top" xlink:title="mappel::Gauss2DModel\l::update_internal_1Dsum\l_estimators">
<polygon fill="white" stroke="black" points="152,-47.5 152,-85.5 272,-85.5 272,-47.5 152,-47.5"/>
<text text-anchor="start" x="160" y="-74.3" font-family="Helvetica,sans-Serif" font-size="9.00">mappel::Gauss2DModel</text>
<text text-anchor="start" x="160" y="-64.3" font-family="Helvetica,sans-Serif" font-size="9.00">::update_internal_1Dsum</text>
<text text-anchor="middle" x="212" y="-54.3" font-family="Helvetica,sans-Serif" font-size="9.00">_estimators</text>
</a>
</g>
</g>
<!-- Node1&#45;&gt;Node13 -->
<g id="edge14" class="edge"><title>Node1&#45;&gt;Node13</title>
<path fill="none" stroke="midnightblue" d="M116.032,-81.495C124.448,-80.1662 133.195,-78.785 141.825,-77.4224"/>
<polygon fill="midnightblue" stroke="midnightblue" points="142.542,-80.8527 151.873,-75.8358 141.45,-73.9383 142.542,-80.8527"/>
</g>
<!-- Node3 -->
<g id="node3" class="node"><title>Node3</title>
<g id="a_node3"><a xlink:href="classmappel_1_1PointEmitterModel.html#a01ce8d6358acbd2575be519dff1df89b" target="_top" xlink:title="mappel::PointEmitterModel\l::check_psf_sigma">
<polygon fill="white" stroke="black" points="308,-152.5 308,-180.5 435,-180.5 435,-152.5 308,-152.5"/>
<text text-anchor="start" x="316" y="-169.3" font-family="Helvetica,sans-Serif" font-size="9.00">mappel::PointEmitterModel</text>
<text text-anchor="middle" x="371.5" y="-159.3" font-family="Helvetica,sans-Serif" font-size="9.00">::check_psf_sigma</text>
</a>
</g>
</g>
<!-- Node2&#45;&gt;Node3 -->
<g id="edge2" class="edge"><title>Node2&#45;&gt;Node3</title>
<path fill="none" stroke="midnightblue" d="M270.307,-160.775C279.285,-161.288 288.666,-161.824 297.932,-162.353"/>
<polygon fill="midnightblue" stroke="midnightblue" points="297.733,-165.848 307.917,-162.924 298.133,-158.859 297.733,-165.848"/>
</g>
<!-- Node2&#45;&gt;Node4 -->
<g id="edge3" class="edge"><title>Node2&#45;&gt;Node4</title>
<path fill="none" stroke="midnightblue" d="M264.571,-143.42C277.011,-140.024 290.481,-136.346 303.513,-132.789"/>
<polygon fill="midnightblue" stroke="midnightblue" points="304.642,-136.108 313.367,-130.098 302.799,-129.355 304.642,-136.108"/>
</g>
<!-- Node5 -->
<g id="node5" class="node"><title>Node5</title>
<g id="a_node5"><a xlink:href="classmappel_1_1Gauss1DModel.html#a808fde22a0fb00140b4ba60e7df685eb" target="_top" xlink:title="mappel::Gauss1DModel\l::make_prior_beta_position">
<polygon fill="white" stroke="black" points="476.5,-76.5 476.5,-104.5 604.5,-104.5 604.5,-76.5 476.5,-76.5"/>
<text text-anchor="start" x="484.5" y="-93.3" font-family="Helvetica,sans-Serif" font-size="9.00">mappel::Gauss1DModel</text>
<text text-anchor="middle" x="540.5" y="-83.3" font-family="Helvetica,sans-Serif" font-size="9.00">::make_prior_beta_position</text>
</a>
</g>
</g>
<!-- Node4&#45;&gt;Node5 -->
<g id="edge4" class="edge"><title>Node4&#45;&gt;Node5</title>
<path fill="none" stroke="midnightblue" d="M429.505,-106.308C441.316,-104.61 453.916,-102.799 466.216,-101.032"/>
<polygon fill="midnightblue" stroke="midnightblue" points="467.053,-104.448 476.454,-99.5605 466.058,-97.5187 467.053,-104.448"/>
</g>
<!-- Node8 -->
<g id="node8" class="node"><title>Node8</title>
<g id="a_node8"><a xlink:href="classmappel_1_1Gauss1DModel.html#ab4fc9aafd94b2dd6532ef71f2ea47619" target="_top" xlink:title="mappel::Gauss1DModel\l::make_prior_normal_position">
<polygon fill="white" stroke="black" points="471,-123.5 471,-151.5 610,-151.5 610,-123.5 471,-123.5"/>
<text text-anchor="start" x="479" y="-140.3" font-family="Helvetica,sans-Serif" font-size="9.00">mappel::Gauss1DModel</text>
<text text-anchor="middle" x="540.5" y="-130.3" font-family="Helvetica,sans-Serif" font-size="9.00">::make_prior_normal_position</text>
</a>
</g>
</g>
<!-- Node4&#45;&gt;Node8 -->
<g id="edge7" class="edge"><title>Node4&#45;&gt;Node8</title>
<path fill="none" stroke="midnightblue" d="M429.505,-122.351C439.601,-123.741 450.274,-125.211 460.843,-126.667"/>
<polygon fill="midnightblue" stroke="midnightblue" points="460.538,-130.158 470.922,-128.055 461.493,-123.223 460.538,-130.158"/>
</g>
<!-- Node6 -->
<g id="node6" class="node"><title>Node6</title>
<g id="a_node6"><a xlink:href="classmappel_1_1PointEmitterModel.html#a4517e887a22007bd2e03650dcb853c92" target="_top" xlink:title="mappel::PointEmitterModel\l::make_prior_component\l_intensity">
<polygon fill="white" stroke="black" points="646,-95.5 646,-133.5 773,-133.5 773,-95.5 646,-95.5"/>
<text text-anchor="start" x="654" y="-122.3" font-family="Helvetica,sans-Serif" font-size="9.00">mappel::PointEmitterModel</text>
<text text-anchor="start" x="654" y="-112.3" font-family="Helvetica,sans-Serif" font-size="9.00">::make_prior_component</text>
<text text-anchor="middle" x="709.5" y="-102.3" font-family="Helvetica,sans-Serif" font-size="9.00">_intensity</text>
</a>
</g>
</g>
<!-- Node5&#45;&gt;Node6 -->
<g id="edge5" class="edge"><title>Node5&#45;&gt;Node6</title>
<path fill="none" stroke="midnightblue" d="M604.636,-99.5734C614.855,-101.042 625.508,-102.573 635.93,-104.071"/>
<polygon fill="midnightblue" stroke="midnightblue" points="635.433,-107.535 645.829,-105.493 636.429,-100.606 635.433,-107.535"/>
</g>
<!-- Node7 -->
<g id="node7" class="node"><title>Node7</title>
<g id="a_node7"><a xlink:href="classmappel_1_1PointEmitterModel.html#ad4d563dd11df8c3daf83890374807185" target="_top" xlink:title="mappel::PointEmitterModel\l::make_prior_component\l_position_beta">
<polygon fill="white" stroke="black" points="646,-38.5 646,-76.5 773,-76.5 773,-38.5 646,-38.5"/>
<text text-anchor="start" x="654" y="-65.3" font-family="Helvetica,sans-Serif" font-size="9.00">mappel::PointEmitterModel</text>
<text text-anchor="start" x="654" y="-55.3" font-family="Helvetica,sans-Serif" font-size="9.00">::make_prior_component</text>
<text text-anchor="middle" x="709.5" y="-45.3" font-family="Helvetica,sans-Serif" font-size="9.00">_position_beta</text>
</a>
</g>
</g>
<!-- Node5&#45;&gt;Node7 -->
<g id="edge6" class="edge"><title>Node5&#45;&gt;Node7</title>
<path fill="none" stroke="midnightblue" d="M604.636,-78.0241C614.855,-76.0047 625.508,-73.8996 635.93,-71.8403"/>
<polygon fill="midnightblue" stroke="midnightblue" points="636.697,-75.2563 645.829,-69.8841 635.34,-68.3891 636.697,-75.2563"/>
</g>
<!-- Node8&#45;&gt;Node6 -->
<g id="edge8" class="edge"><title>Node8&#45;&gt;Node6</title>
<path fill="none" stroke="midnightblue" d="M610.389,-128.012C618.757,-126.86 627.327,-125.68 635.749,-124.52"/>
<polygon fill="midnightblue" stroke="midnightblue" points="636.495,-127.95 645.924,-123.118 635.54,-121.015 636.495,-127.95"/>
</g>
<!-- Node9 -->
<g id="node9" class="node"><title>Node9</title>
<g id="a_node9"><a xlink:href="classmappel_1_1PointEmitterModel.html#ab99350cf74097c558f7a93b79e7a44c3" target="_top" xlink:title="mappel::PointEmitterModel\l::make_prior_component\l_position_normal">
<polygon fill="white" stroke="black" points="646,-152.5 646,-190.5 773,-190.5 773,-152.5 646,-152.5"/>
<text text-anchor="start" x="654" y="-179.3" font-family="Helvetica,sans-Serif" font-size="9.00">mappel::PointEmitterModel</text>
<text text-anchor="start" x="654" y="-169.3" font-family="Helvetica,sans-Serif" font-size="9.00">::make_prior_component</text>
<text text-anchor="middle" x="709.5" y="-159.3" font-family="Helvetica,sans-Serif" font-size="9.00">_position_normal</text>
</a>
</g>
</g>
<!-- Node8&#45;&gt;Node9 -->
<g id="edge9" class="edge"><title>Node8&#45;&gt;Node9</title>
<path fill="none" stroke="midnightblue" d="M610.389,-151.525C618.849,-153.248 627.515,-155.012 636.026,-156.745"/>
<polygon fill="midnightblue" stroke="midnightblue" points="635.427,-160.194 645.924,-158.76 636.823,-153.335 635.427,-160.194"/>
</g>
<!-- Node11 -->
<g id="node11" class="node"><title>Node11</title>
<g id="a_node11"><a xlink:href="classmappel_1_1MCMCAdaptor2D.html#aeddb1b66ab86ef64421b9a7d6a208769" target="_top" xlink:title="mappel::MCMCAdaptor2D\l::operator=">
<polygon fill="white" stroke="black" points="309,-0.5 309,-28.5 434,-28.5 434,-0.5 309,-0.5"/>
<text text-anchor="start" x="317" y="-17.3" font-family="Helvetica,sans-Serif" font-size="9.00">mappel::MCMCAdaptor2D</text>
<text text-anchor="middle" x="371.5" y="-7.3" font-family="Helvetica,sans-Serif" font-size="9.00">::operator=</text>
</a>
</g>
</g>
<!-- Node10&#45;&gt;Node11 -->
<g id="edge12" class="edge"><title>Node10&#45;&gt;Node11</title>
<path fill="none" stroke="midnightblue" d="M270.307,-14.5C279.543,-14.5 289.206,-14.5 298.731,-14.5"/>
<polygon fill="midnightblue" stroke="midnightblue" points="298.987,-18.0001 308.987,-14.5 298.987,-11.0001 298.987,-18.0001"/>
</g>
<!-- Node12 -->
<g id="node12" class="node"><title>Node12</title>
<g id="a_node12"><a xlink:href="classmappel_1_1MCMCAdaptor1D.html#a669bba7517087d842f941957cbbf5fb5" target="_top" xlink:title="mappel::MCMCAdaptor1D\l::operator=">
<polygon fill="white" stroke="black" points="478,-0.5 478,-28.5 603,-28.5 603,-0.5 478,-0.5"/>
<text text-anchor="start" x="486" y="-17.3" font-family="Helvetica,sans-Serif" font-size="9.00">mappel::MCMCAdaptor1D</text>
<text text-anchor="middle" x="540.5" y="-7.3" font-family="Helvetica,sans-Serif" font-size="9.00">::operator=</text>
</a>
</g>
</g>
<!-- Node11&#45;&gt;Node12 -->
<g id="edge13" class="edge"><title>Node11&#45;&gt;Node12</title>
<path fill="none" stroke="midnightblue" d="M434.21,-14.5C445.094,-14.5 456.509,-14.5 467.643,-14.5"/>
<polygon fill="midnightblue" stroke="midnightblue" points="467.765,-18.0001 477.765,-14.5 467.765,-11.0001 467.765,-18.0001"/>
</g>
<!-- Node13&#45;&gt;Node4 -->
<g id="edge16" class="edge"><title>Node13&#45;&gt;Node4</title>
<path fill="none" stroke="midnightblue" d="M272.095,-84.51C282.454,-87.6669 293.297,-90.9715 303.844,-94.1858"/>
<polygon fill="midnightblue" stroke="midnightblue" points="302.838,-97.5381 313.424,-97.1054 304.879,-90.8421 302.838,-97.5381"/>
</g>
<!-- Node14 -->
<g id="node14" class="node"><title>Node14</title>
<g id="a_node14"><a xlink:href="classmappel_1_1PointEmitterModel.html#a2182c250c15d590b582e76594e5f06b9" target="_top" xlink:title="mappel::PointEmitterModel\l::get_prior">
<polygon fill="white" stroke="black" points="308,-48.5 308,-76.5 435,-76.5 435,-48.5 308,-48.5"/>
<text text-anchor="start" x="316" y="-65.3" font-family="Helvetica,sans-Serif" font-size="9.00">mappel::PointEmitterModel</text>
<text text-anchor="middle" x="371.5" y="-55.3" font-family="Helvetica,sans-Serif" font-size="9.00">::get_prior</text>
</a>
</g>
</g>
<!-- Node13&#45;&gt;Node14 -->
<g id="edge15" class="edge"><title>Node13&#45;&gt;Node14</title>
<path fill="none" stroke="midnightblue" d="M272.095,-64.9992C280.502,-64.7857 289.228,-64.564 297.856,-64.3449"/>
<polygon fill="midnightblue" stroke="midnightblue" points="298.006,-67.8423 307.914,-64.0895 297.829,-60.8446 298.006,-67.8423"/>
</g>
</g>
</svg>
