<?xml version="1.0" encoding="UTF-8" standalone="no"?>
<!DOCTYPE svg PUBLIC "-//W3C//DTD SVG 1.1//EN"
 "http://www.w3.org/Graphics/SVG/1.1/DTD/svg11.dtd">
<!-- Generated by graphviz version 2.38.0 (20140413.2041)
 -->
<!-- Title: mappel::PointEmitterModel::make_prior_component_intensity Pages: 1 -->
<!--zoomable 828 -->
<svg id="main" version="1.1" xmlns="http://www.w3.org/2000/svg" xmlns:xlink="http://www.w3.org/1999/xlink" xml:space="preserve" onload="init(evt)">
<style type="text/css"><![CDATA[
.edge:hover path { stroke: red; }
.edge:hover polygon { stroke: red; fill: red; }
]]></style>
<script type="text/javascript"><![CDATA[
var edges = document.getElementsByTagName('g');
if (edges && edges.length) {
  for (var i=0;i<edges.length;i++) {
    if (edges[i].id.substr(0,4)=='edge') {
      edges[i].setAttribute('class','edge');
    }
  }
}
]]></script>
        <defs>
                <circle id="rim" cx="0" cy="0" r="7"/>
                <circle id="rim2" cx="0" cy="0" r="3.5"/>
                <g id="zoomPlus">
                        <use xlink:href="#rim" target="_top" fill="#404040">
                                <set attributeName="fill" to="#808080" begin="zoomplus.mouseover" end="zoomplus.mouseout"/>
                        </use>
                        <path d="M-4,0h8M0,-4v8" fill="none" stroke="white" stroke-width="1.5" pointer-events="none"/>
                </g>
                <g id="zoomMin">
                        <use xlink:href="#rim" target="_top" fill="#404040">
                                <set attributeName="fill" to="#808080" begin="zoomminus.mouseover" end="zoomminus.mouseout"/>
                        </use>
                        <path d="M-4,0h8" fill="none" stroke="white" stroke-width="1.5" pointer-events="none"/>
                </g>
                <g id="dirArrow">
                        <path fill="none" stroke="white" stroke-width="1.5" d="M0,-3.0v7 M-2.5,-0.5L0,-3.0L2.5,-0.5"/>
                </g>
               <g id="resetDef">
                       <use xlink:href="#rim2" target="_top" fill="#404040">
                               <set attributeName="fill" to="#808080" begin="reset.mouseover" end="reset.mouseout"/>
                       </use>
               </g>
        </defs>

<script type="text/javascript">
var viewWidth = 778;
var viewHeight = 828;
var sectionId = 'dynsection-27';
</script>
<script xlink:href="svgpan.js" target="_top"/>
<svg id="graph" class="graph">
<g id="viewport">
<title>mappel::PointEmitterModel::make_prior_component_intensity</title>
<polygon fill="white" stroke="none" points="-4,4 -4,-824 774,-824 774,4 -4,4"/>
<!-- Node1 -->
<g id="node1" class="node"><title>Node1</title>
<polygon fill="#bfbfbf" stroke="black" points="0,-356.5 0,-394.5 127,-394.5 127,-356.5 0,-356.5"/>
<text text-anchor="start" x="8" y="-383.3" font-family="Helvetica,sans-Serif" font-size="9.00">mappel::PointEmitterModel</text>
<text text-anchor="start" x="8" y="-373.3" font-family="Helvetica,sans-Serif" font-size="9.00">::make_prior_component</text>
<text text-anchor="middle" x="63.5" y="-363.3" font-family="Helvetica,sans-Serif" font-size="9.00">_intensity</text>
</g>
<!-- Node2 -->
<g id="node2" class="node"><title>Node2</title>
<g id="a_node2"><a xlink:href="classmappel_1_1Gauss1DsModel.html#ad0bdb31a8bcc5a83e9f8653d0ad238ff" target="_top" target="_top" xlink:title="mappel::Gauss1DsModel\l::make_default_prior\l_beta_position">
<polygon fill="white" stroke="black" points="172.5,-781.5 172.5,-819.5 292.5,-819.5 292.5,-781.5 172.5,-781.5"/>
<text text-anchor="start" x="180.5" y="-808.3" font-family="Helvetica,sans-Serif" font-size="9.00">mappel::Gauss1DsModel</text>
<text text-anchor="start" x="180.5" y="-798.3" font-family="Helvetica,sans-Serif" font-size="9.00">::make_default_prior</text>
<text text-anchor="middle" x="232.5" y="-788.3" font-family="Helvetica,sans-Serif" font-size="9.00">_beta_position</text>
</a>
</g>
</g>
<!-- Node1&#45;&gt;Node2 -->
<g id="edge1" class="edge"><title>Node1&#45;&gt;Node2</title>
<path fill="none" stroke="midnightblue" d="M68.315,-404.924C79.4876,-487.037 114.435,-716.337 163,-772.5 165.857,-775.804 169.164,-778.725 172.75,-781.305"/>
<polygon fill="midnightblue" stroke="midnightblue" points="71.7533,-404.229 66.9549,-394.783 64.8154,-405.159 71.7533,-404.229"/>
</g>
<!-- Node4 -->
<g id="node4" class="node"><title>Node4</title>
<g id="a_node4"><a xlink:href="classmappel_1_1Gauss2DModel.html#a47208116565b1960bc0bd84ee91dee1d" target="_top" target="_top" xlink:title="mappel::Gauss2DModel\l::make_default_prior\l_beta_position">
<polygon fill="white" stroke="black" points="174.5,-667.5 174.5,-705.5 290.5,-705.5 290.5,-667.5 174.5,-667.5"/>
<text text-anchor="start" x="182.5" y="-694.3" font-family="Helvetica,sans-Serif" font-size="9.00">mappel::Gauss2DModel</text>
<text text-anchor="start" x="182.5" y="-684.3" font-family="Helvetica,sans-Serif" font-size="9.00">::make_default_prior</text>
<text text-anchor="middle" x="232.5" y="-674.3" font-family="Helvetica,sans-Serif" font-size="9.00">_beta_position</text>
</a>
</g>
</g>
<!-- Node1&#45;&gt;Node4 -->
<g id="edge3" class="edge"><title>Node1&#45;&gt;Node4</title>
<path fill="none" stroke="midnightblue" d="M66.8582,-404.783C72.8975,-461.114 93.7242,-585.445 163,-658.5 166.359,-662.043 170.231,-665.15 174.388,-667.874"/>
<polygon fill="midnightblue" stroke="midnightblue" points="70.3351,-404.376 65.8657,-394.77 63.3693,-405.067 70.3351,-404.376"/>
</g>
<!-- Node6 -->
<g id="node6" class="node"><title>Node6</title>
<g id="a_node6"><a xlink:href="classmappel_1_1Gauss1DModel.html#a539665592706f1d18966ce7fff974f92" target="_top" target="_top" xlink:title="mappel::Gauss1DModel\l::make_default_prior\l_beta_position">
<polygon fill="white" stroke="black" points="174.5,-553.5 174.5,-591.5 290.5,-591.5 290.5,-553.5 174.5,-553.5"/>
<text text-anchor="start" x="182.5" y="-580.3" font-family="Helvetica,sans-Serif" font-size="9.00">mappel::Gauss1DModel</text>
<text text-anchor="start" x="182.5" y="-570.3" font-family="Helvetica,sans-Serif" font-size="9.00">::make_default_prior</text>
<text text-anchor="middle" x="232.5" y="-560.3" font-family="Helvetica,sans-Serif" font-size="9.00">_beta_position</text>
</a>
</g>
</g>
<!-- Node1&#45;&gt;Node6 -->
<g id="edge5" class="edge"><title>Node1&#45;&gt;Node6</title>
<path fill="none" stroke="midnightblue" d="M74.5853,-404.396C88.8818,-441.497 118.37,-505.705 163,-544.5 166.782,-547.787 171.001,-550.723 175.436,-553.337"/>
<polygon fill="midnightblue" stroke="midnightblue" points="77.7379,-402.833 70.9559,-394.694 71.1816,-405.286 77.7379,-402.833"/>
</g>
<!-- Node8 -->
<g id="node8" class="node"><title>Node8</title>
<g id="a_node8"><a xlink:href="classmappel_1_1Gauss2DsModel.html#aaad8b5a9355f37ecac6763acbf60bfe3" target="_top" target="_top" xlink:title="mappel::Gauss2DsModel\l::make_default_prior\l_beta_position">
<polygon fill="white" stroke="black" points="172.5,-439.5 172.5,-477.5 292.5,-477.5 292.5,-439.5 172.5,-439.5"/>
<text text-anchor="start" x="180.5" y="-466.3" font-family="Helvetica,sans-Serif" font-size="9.00">mappel::Gauss2DsModel</text>
<text text-anchor="start" x="180.5" y="-456.3" font-family="Helvetica,sans-Serif" font-size="9.00">::make_default_prior</text>
<text text-anchor="middle" x="232.5" y="-446.3" font-family="Helvetica,sans-Serif" font-size="9.00">_beta_position</text>
</a>
</g>
</g>
<!-- Node1&#45;&gt;Node8 -->
<g id="edge7" class="edge"><title>Node1&#45;&gt;Node8</title>
<path fill="none" stroke="midnightblue" d="M105.199,-399.685C122.728,-409.717 143.614,-421.168 163,-430.5 169.367,-433.565 176.16,-436.605 182.902,-439.49"/>
<polygon fill="midnightblue" stroke="midnightblue" points="106.775,-396.553 96.3645,-394.586 103.276,-402.616 106.775,-396.553"/>
</g>
<!-- Node12 -->
<g id="node12" class="node"><title>Node12</title>
<g id="a_node12"><a xlink:href="classmappel_1_1Gauss2DModel.html#a22735422ebc24803eb51f2be72a67009" target="_top" target="_top" xlink:title="mappel::Gauss2DModel\l::make_default_prior\l_normal_position">
<polygon fill="white" stroke="black" points="174.5,-610.5 174.5,-648.5 290.5,-648.5 290.5,-610.5 174.5,-610.5"/>
<text text-anchor="start" x="182.5" y="-637.3" font-family="Helvetica,sans-Serif" font-size="9.00">mappel::Gauss2DModel</text>
<text text-anchor="start" x="182.5" y="-627.3" font-family="Helvetica,sans-Serif" font-size="9.00">::make_default_prior</text>
<text text-anchor="middle" x="232.5" y="-617.3" font-family="Helvetica,sans-Serif" font-size="9.00">_normal_position</text>
</a>
</g>
</g>
<!-- Node1&#45;&gt;Node12 -->
<g id="edge11" class="edge"><title>Node1&#45;&gt;Node12</title>
<path fill="none" stroke="midnightblue" d="M69.8057,-404.519C79.8835,-451.83 106.084,-545.877 163,-601.5 166.4,-604.822 170.248,-607.769 174.343,-610.38"/>
<polygon fill="midnightblue" stroke="midnightblue" points="73.2156,-403.723 67.7895,-394.623 66.3565,-405.121 73.2156,-403.723"/>
</g>
<!-- Node13 -->
<g id="node13" class="node"><title>Node13</title>
<g id="a_node13"><a xlink:href="classmappel_1_1Gauss1DsModel.html#ace3513b4d77a0e29488f8ff4a66f64cf" target="_top" target="_top" xlink:title="mappel::Gauss1DsModel\l::make_default_prior\l_normal_position">
<polygon fill="white" stroke="black" points="172.5,-724.5 172.5,-762.5 292.5,-762.5 292.5,-724.5 172.5,-724.5"/>
<text text-anchor="start" x="180.5" y="-751.3" font-family="Helvetica,sans-Serif" font-size="9.00">mappel::Gauss1DsModel</text>
<text text-anchor="start" x="180.5" y="-741.3" font-family="Helvetica,sans-Serif" font-size="9.00">::make_default_prior</text>
<text text-anchor="middle" x="232.5" y="-731.3" font-family="Helvetica,sans-Serif" font-size="9.00">_normal_position</text>
</a>
</g>
</g>
<!-- Node1&#45;&gt;Node13 -->
<g id="edge13" class="edge"><title>Node1&#45;&gt;Node13</title>
<path fill="none" stroke="midnightblue" d="M64.8139,-405.048C67.068,-469.573 81.2336,-624.568 163,-715.5 166.007,-718.844 169.472,-721.796 173.213,-724.403"/>
<polygon fill="midnightblue" stroke="midnightblue" points="68.3054,-404.687 64.5315,-394.787 61.308,-404.88 68.3054,-404.687"/>
</g>
<!-- Node14 -->
<g id="node14" class="node"><title>Node14</title>
<g id="a_node14"><a xlink:href="classmappel_1_1Gauss1DModel.html#a456b984f2309b0d5a72516361e4e18d0" target="_top" target="_top" xlink:title="mappel::Gauss1DModel\l::make_default_prior\l_normal_position">
<polygon fill="white" stroke="black" points="174.5,-496.5 174.5,-534.5 290.5,-534.5 290.5,-496.5 174.5,-496.5"/>
<text text-anchor="start" x="182.5" y="-523.3" font-family="Helvetica,sans-Serif" font-size="9.00">mappel::Gauss1DModel</text>
<text text-anchor="start" x="182.5" y="-513.3" font-family="Helvetica,sans-Serif" font-size="9.00">::make_default_prior</text>
<text text-anchor="middle" x="232.5" y="-503.3" font-family="Helvetica,sans-Serif" font-size="9.00">_normal_position</text>
</a>
</g>
</g>
<!-- Node1&#45;&gt;Node14 -->
<g id="edge15" class="edge"><title>Node1&#45;&gt;Node14</title>
<path fill="none" stroke="midnightblue" d="M82.9056,-402.861C100.848,-427.77 130.168,-464.123 163,-487.5 167.605,-490.779 172.65,-493.758 177.849,-496.443"/>
<polygon fill="midnightblue" stroke="midnightblue" points="85.6755,-400.716 77.0468,-394.568 79.9583,-404.755 85.6755,-400.716"/>
</g>
<!-- Node15 -->
<g id="node15" class="node"><title>Node15</title>
<g id="a_node15"><a xlink:href="classmappel_1_1Gauss2DsModel.html#a19b5d93feda4f83a9b1b8b6df0e2ebc5" target="_top" target="_top" xlink:title="mappel::Gauss2DsModel\l::make_default_prior\l_normal_position">
<polygon fill="white" stroke="black" points="172.5,-382.5 172.5,-420.5 292.5,-420.5 292.5,-382.5 172.5,-382.5"/>
<text text-anchor="start" x="180.5" y="-409.3" font-family="Helvetica,sans-Serif" font-size="9.00">mappel::Gauss2DsModel</text>
<text text-anchor="start" x="180.5" y="-399.3" font-family="Helvetica,sans-Serif" font-size="9.00">::make_default_prior</text>
<text text-anchor="middle" x="232.5" y="-389.3" font-family="Helvetica,sans-Serif" font-size="9.00">_normal_position</text>
</a>
</g>
</g>
<!-- Node1&#45;&gt;Node15 -->
<g id="edge17" class="edge"><title>Node1&#45;&gt;Node15</title>
<path fill="none" stroke="midnightblue" d="M137.345,-386.841C149.045,-388.663 161.029,-390.529 172.358,-392.292"/>
<polygon fill="midnightblue" stroke="midnightblue" points="137.579,-383.336 127.16,-385.255 136.502,-390.252 137.579,-383.336"/>
</g>
<!-- Node16 -->
<g id="node16" class="node"><title>Node16</title>
<g id="a_node16"><a xlink:href="classmappel_1_1Gauss2DModel.html#a78470247a902315915ad8af1770ea466" target="_top" target="_top" xlink:title="mappel::Gauss2DModel\l::make_prior_beta_position">
<polygon fill="white" stroke="black" points="168.5,-335.5 168.5,-363.5 296.5,-363.5 296.5,-335.5 168.5,-335.5"/>
<text text-anchor="start" x="176.5" y="-352.3" font-family="Helvetica,sans-Serif" font-size="9.00">mappel::Gauss2DModel</text>
<text text-anchor="middle" x="232.5" y="-342.3" font-family="Helvetica,sans-Serif" font-size="9.00">::make_prior_beta_position</text>
</a>
</g>
</g>
<!-- Node1&#45;&gt;Node16 -->
<g id="edge19" class="edge"><title>Node1&#45;&gt;Node16</title>
<path fill="none" stroke="midnightblue" d="M137.093,-364.198C147.55,-362.57 158.239,-360.906 168.489,-359.31"/>
<polygon fill="midnightblue" stroke="midnightblue" points="136.502,-360.748 127.16,-365.745 137.579,-367.664 136.502,-360.748"/>
</g>
<!-- Node17 -->
<g id="node17" class="node"><title>Node17</title>
<g id="a_node17"><a xlink:href="classmappel_1_1Gauss1DsModel.html#a2022044169be5c62bba0db37c2352792" target="_top" target="_top" xlink:title="mappel::Gauss1DsModel\l::make_prior_beta_position">
<polygon fill="white" stroke="black" points="168.5,-288.5 168.5,-316.5 296.5,-316.5 296.5,-288.5 168.5,-288.5"/>
<text text-anchor="start" x="176.5" y="-305.3" font-family="Helvetica,sans-Serif" font-size="9.00">mappel::Gauss1DsModel</text>
<text text-anchor="middle" x="232.5" y="-295.3" font-family="Helvetica,sans-Serif" font-size="9.00">::make_prior_beta_position</text>
</a>
</g>
</g>
<!-- Node1&#45;&gt;Node17 -->
<g id="edge20" class="edge"><title>Node1&#45;&gt;Node17</title>
<path fill="none" stroke="midnightblue" d="M108.091,-351.648C124.983,-342.865 144.644,-333.192 163,-325.5 170.52,-322.348 178.638,-319.315 186.565,-316.542"/>
<polygon fill="midnightblue" stroke="midnightblue" points="106.241,-348.667 99.018,-356.418 109.498,-354.863 106.241,-348.667"/>
</g>
<!-- Node24 -->
<g id="node24" class="node"><title>Node24</title>
<g id="a_node24"><a xlink:href="classmappel_1_1Gauss1DModel.html#a808fde22a0fb00140b4ba60e7df685eb" target="_top" target="_top" xlink:title="mappel::Gauss1DModel\l::make_prior_beta_position">
<polygon fill="white" stroke="black" points="168.5,-53.5 168.5,-81.5 296.5,-81.5 296.5,-53.5 168.5,-53.5"/>
<text text-anchor="start" x="176.5" y="-70.3" font-family="Helvetica,sans-Serif" font-size="9.00">mappel::Gauss1DModel</text>
<text text-anchor="middle" x="232.5" y="-60.3" font-family="Helvetica,sans-Serif" font-size="9.00">::make_prior_beta_position</text>
</a>
</g>
</g>
<!-- Node1&#45;&gt;Node24 -->
<g id="edge29" class="edge"><title>Node1&#45;&gt;Node24</title>
<path fill="none" stroke="midnightblue" d="M66.3419,-346.026C71.4958,-288.797 90.8706,-161.996 163,-90.5 166.475,-87.0558 170.481,-84.1272 174.775,-81.637"/>
<polygon fill="midnightblue" stroke="midnightblue" points="62.8374,-345.939 65.5122,-356.19 69.8142,-346.508 62.8374,-345.939"/>
</g>
<!-- Node31 -->
<g id="node31" class="node"><title>Node31</title>
<g id="a_node31"><a xlink:href="classmappel_1_1Gauss2DsModel.html#a027a8dd814e5e3a6588cc1e5f5225059" target="_top" target="_top" xlink:title="mappel::Gauss2DsModel\l::make_prior_beta_position">
<polygon fill="white" stroke="black" points="168.5,-194.5 168.5,-222.5 296.5,-222.5 296.5,-194.5 168.5,-194.5"/>
<text text-anchor="start" x="176.5" y="-211.3" font-family="Helvetica,sans-Serif" font-size="9.00">mappel::Gauss2DsModel</text>
<text text-anchor="middle" x="232.5" y="-201.3" font-family="Helvetica,sans-Serif" font-size="9.00">::make_prior_beta_position</text>
</a>
</g>
</g>
<!-- Node1&#45;&gt;Node31 -->
<g id="edge38" class="edge"><title>Node1&#45;&gt;Node31</title>
<path fill="none" stroke="midnightblue" d="M77.1232,-346.832C92.7963,-314.401 122.494,-262.127 163,-231.5 167.603,-228.02 172.763,-225.047 178.132,-222.513"/>
<polygon fill="midnightblue" stroke="midnightblue" points="73.7998,-345.674 72.713,-356.213 80.1348,-348.652 73.7998,-345.674"/>
</g>
<!-- Node32 -->
<g id="node32" class="node"><title>Node32</title>
<g id="a_node32"><a xlink:href="classmappel_1_1Gauss2DModel.html#af60537cc3f45472202602e95d1e75f65" target="_top" target="_top" xlink:title="mappel::Gauss2DModel\l::make_prior_normal_position">
<polygon fill="white" stroke="black" points="163,-147.5 163,-175.5 302,-175.5 302,-147.5 163,-147.5"/>
<text text-anchor="start" x="171" y="-164.3" font-family="Helvetica,sans-Serif" font-size="9.00">mappel::Gauss2DModel</text>
<text text-anchor="middle" x="232.5" y="-154.3" font-family="Helvetica,sans-Serif" font-size="9.00">::make_prior_normal_position</text>
</a>
</g>
</g>
<!-- Node1&#45;&gt;Node32 -->
<g id="edge39" class="edge"><title>Node1&#45;&gt;Node32</title>
<path fill="none" stroke="midnightblue" d="M71.8695,-346.716C83.9751,-305.091 111.976,-228.295 163,-184.5 166.998,-181.068 171.528,-178.144 176.308,-175.652"/>
<polygon fill="midnightblue" stroke="midnightblue" points="68.4562,-345.926 69.13,-356.499 75.1969,-347.813 68.4562,-345.926"/>
</g>
<!-- Node33 -->
<g id="node33" class="node"><title>Node33</title>
<g id="a_node33"><a xlink:href="classmappel_1_1Gauss1DsModel.html#a80bebfae37071515edfde5cd41ae375d" target="_top" target="_top" xlink:title="mappel::Gauss1DsModel\l::make_prior_normal_position">
<polygon fill="white" stroke="black" points="163,-241.5 163,-269.5 302,-269.5 302,-241.5 163,-241.5"/>
<text text-anchor="start" x="171" y="-258.3" font-family="Helvetica,sans-Serif" font-size="9.00">mappel::Gauss1DsModel</text>
<text text-anchor="middle" x="232.5" y="-248.3" font-family="Helvetica,sans-Serif" font-size="9.00">::make_prior_normal_position</text>
</a>
</g>
</g>
<!-- Node1&#45;&gt;Node33 -->
<g id="edge40" class="edge"><title>Node1&#45;&gt;Node33</title>
<path fill="none" stroke="midnightblue" d="M85.7803,-348.624C104.172,-326.994 132.535,-297.213 163,-278.5 168.558,-275.086 174.685,-272.11 180.92,-269.534"/>
<polygon fill="midnightblue" stroke="midnightblue" points="82.9504,-346.553 79.2362,-356.475 88.3275,-351.035 82.9504,-346.553"/>
</g>
<!-- Node34 -->
<g id="node34" class="node"><title>Node34</title>
<g id="a_node34"><a xlink:href="classmappel_1_1Gauss1DModel.html#ab4fc9aafd94b2dd6532ef71f2ea47619" target="_top" target="_top" xlink:title="mappel::Gauss1DModel\l::make_prior_normal_position">
<polygon fill="white" stroke="black" points="163,-100.5 163,-128.5 302,-128.5 302,-100.5 163,-100.5"/>
<text text-anchor="start" x="171" y="-117.3" font-family="Helvetica,sans-Serif" font-size="9.00">mappel::Gauss1DModel</text>
<text text-anchor="middle" x="232.5" y="-107.3" font-family="Helvetica,sans-Serif" font-size="9.00">::make_prior_normal_position</text>
</a>
</g>
</g>
<!-- Node1&#45;&gt;Node34 -->
<g id="edge42" class="edge"><title>Node1&#45;&gt;Node34</title>
<path fill="none" stroke="midnightblue" d="M68.6248,-346.341C77.1853,-296.543 101.491,-194.936 163,-137.5 166.668,-134.075 170.861,-131.159 175.327,-128.677"/>
<polygon fill="midnightblue" stroke="midnightblue" points="65.1351,-345.996 66.9863,-356.428 72.0445,-347.118 65.1351,-345.996"/>
</g>
<!-- Node35 -->
<g id="node35" class="node"><title>Node35</title>
<g id="a_node35"><a xlink:href="classmappel_1_1Gauss2DsModel.html#aa30152146e1a52b340950de7f6a058ba" target="_top" target="_top" xlink:title="mappel::Gauss2DsModel\l::make_prior_normal_position">
<polygon fill="white" stroke="black" points="163,-6.5 163,-34.5 302,-34.5 302,-6.5 163,-6.5"/>
<text text-anchor="start" x="171" y="-23.3" font-family="Helvetica,sans-Serif" font-size="9.00">mappel::Gauss2DsModel</text>
<text text-anchor="middle" x="232.5" y="-13.3" font-family="Helvetica,sans-Serif" font-size="9.00">::make_prior_normal_position</text>
</a>
</g>
</g>
<!-- Node1&#45;&gt;Node35 -->
<g id="edge44" class="edge"><title>Node1&#45;&gt;Node35</title>
<path fill="none" stroke="midnightblue" d="M64.6185,-346.245C66.4831,-282.434 79.9204,-129.585 163,-43.5 166.31,-40.0699 170.147,-37.1513 174.282,-34.6679"/>
<polygon fill="midnightblue" stroke="midnightblue" points="61.1161,-346.322 64.3998,-356.395 68.1145,-346.473 61.1161,-346.322"/>
</g>
<!-- Node3 -->
<g id="node3" class="node"><title>Node3</title>
<g id="a_node3"><a xlink:href="classmappel_1_1Gauss1DsModel.html#a35300bd3e01596220b5630853da3d9ce" target="_top" target="_top" xlink:title="mappel::Gauss1DsModel\l::make_default_prior">
<polygon fill="white" stroke="black" points="338,-757.5 338,-785.5 458,-785.5 458,-757.5 338,-757.5"/>
<text text-anchor="start" x="346" y="-774.3" font-family="Helvetica,sans-Serif" font-size="9.00">mappel::Gauss1DsModel</text>
<text text-anchor="middle" x="398" y="-764.3" font-family="Helvetica,sans-Serif" font-size="9.00">::make_default_prior</text>
</a>
</g>
</g>
<!-- Node2&#45;&gt;Node3 -->
<g id="edge2" class="edge"><title>Node2&#45;&gt;Node3</title>
<path fill="none" stroke="midnightblue" d="M302.677,-788.23C314.357,-786.158 326.388,-784.024 337.785,-782.003"/>
<polygon fill="midnightblue" stroke="midnightblue" points="301.762,-784.838 292.527,-790.03 302.985,-791.73 301.762,-784.838"/>
</g>
<!-- Node5 -->
<g id="node5" class="node"><title>Node5</title>
<g id="a_node5"><a xlink:href="classmappel_1_1Gauss2DModel.html#a47f4b70d887066e1d73c0544e0a9690c" target="_top" target="_top" xlink:title="mappel::Gauss2DModel\l::make_default_prior">
<polygon fill="white" stroke="black" points="340,-643.5 340,-671.5 456,-671.5 456,-643.5 340,-643.5"/>
<text text-anchor="start" x="348" y="-660.3" font-family="Helvetica,sans-Serif" font-size="9.00">mappel::Gauss2DModel</text>
<text text-anchor="middle" x="398" y="-650.3" font-family="Helvetica,sans-Serif" font-size="9.00">::make_default_prior</text>
</a>
</g>
</g>
<!-- Node4&#45;&gt;Node5 -->
<g id="edge4" class="edge"><title>Node4&#45;&gt;Node5</title>
<path fill="none" stroke="midnightblue" d="M300.539,-674.609C313.588,-672.295 327.154,-669.889 339.848,-667.637"/>
<polygon fill="midnightblue" stroke="midnightblue" points="299.919,-671.164 290.684,-676.357 301.142,-678.057 299.919,-671.164"/>
</g>
<!-- Node7 -->
<g id="node7" class="node"><title>Node7</title>
<g id="a_node7"><a xlink:href="classmappel_1_1Gauss1DModel.html#ab9aeff0d5e4f065e81b1d49183ca3fcb" target="_top" target="_top" xlink:title="mappel::Gauss1DModel\l::make_default_prior">
<polygon fill="white" stroke="black" points="340,-529.5 340,-557.5 456,-557.5 456,-529.5 340,-529.5"/>
<text text-anchor="start" x="348" y="-546.3" font-family="Helvetica,sans-Serif" font-size="9.00">mappel::Gauss1DModel</text>
<text text-anchor="middle" x="398" y="-536.3" font-family="Helvetica,sans-Serif" font-size="9.00">::make_default_prior</text>
</a>
</g>
</g>
<!-- Node6&#45;&gt;Node7 -->
<g id="edge6" class="edge"><title>Node6&#45;&gt;Node7</title>
<path fill="none" stroke="midnightblue" d="M300.539,-560.609C313.588,-558.295 327.154,-555.889 339.848,-553.637"/>
<polygon fill="midnightblue" stroke="midnightblue" points="299.919,-557.164 290.684,-562.357 301.142,-564.057 299.919,-557.164"/>
</g>
<!-- Node9 -->
<g id="node9" class="node"><title>Node9</title>
<g id="a_node9"><a xlink:href="classmappel_1_1Gauss2DsModel.html#a5f730333cb51b9586892cfd5bb566bf1" target="_top" target="_top" xlink:title="mappel::Gauss2DsModel\l::make_default_prior">
<polygon fill="white" stroke="black" points="338,-387.5 338,-415.5 458,-415.5 458,-387.5 338,-387.5"/>
<text text-anchor="start" x="346" y="-404.3" font-family="Helvetica,sans-Serif" font-size="9.00">mappel::Gauss2DsModel</text>
<text text-anchor="middle" x="398" y="-394.3" font-family="Helvetica,sans-Serif" font-size="9.00">::make_default_prior</text>
</a>
</g>
</g>
<!-- Node8&#45;&gt;Node9 -->
<g id="edge8" class="edge"><title>Node8&#45;&gt;Node9</title>
<path fill="none" stroke="midnightblue" d="M297.987,-436.018C317.797,-429.112 339.024,-421.712 356.723,-415.542"/>
<polygon fill="midnightblue" stroke="midnightblue" points="296.688,-432.764 288.398,-439.361 298.993,-439.374 296.688,-432.764"/>
</g>
<!-- Node10 -->
<g id="node10" class="node"><title>Node10</title>
<g id="a_node10"><a xlink:href="classmappel_1_1Gauss2DsMAP.html#a3060b21e1ba0df3195cc8887919d44ac" target="_top" target="_top" xlink:title="mappel::Gauss2DsMAP\l::Gauss2DsMAP">
<polygon fill="white" stroke="black" points="497,-420.5 497,-448.5 611,-448.5 611,-420.5 497,-420.5"/>
<text text-anchor="start" x="505" y="-437.3" font-family="Helvetica,sans-Serif" font-size="9.00">mappel::Gauss2DsMAP</text>
<text text-anchor="middle" x="554" y="-427.3" font-family="Helvetica,sans-Serif" font-size="9.00">::Gauss2DsMAP</text>
</a>
</g>
</g>
<!-- Node9&#45;&gt;Node10 -->
<g id="edge9" class="edge"><title>Node9&#45;&gt;Node10</title>
<path fill="none" stroke="midnightblue" d="M468.053,-416.297C477.686,-418.361 487.487,-420.462 496.844,-422.467"/>
<polygon fill="midnightblue" stroke="midnightblue" points="468.611,-412.837 458.1,-414.164 467.145,-419.682 468.611,-412.837"/>
</g>
<!-- Node11 -->
<g id="node11" class="node"><title>Node11</title>
<g id="a_node11"><a xlink:href="classmappel_1_1Gauss2DsMLE.html#a3151cb0e1936aaeacee80da0feb0231c" target="_top" target="_top" xlink:title="mappel::Gauss2DsMLE\l::Gauss2DsMLE">
<polygon fill="white" stroke="black" points="497.5,-373.5 497.5,-401.5 610.5,-401.5 610.5,-373.5 497.5,-373.5"/>
<text text-anchor="start" x="505.5" y="-390.3" font-family="Helvetica,sans-Serif" font-size="9.00">mappel::Gauss2DsMLE</text>
<text text-anchor="middle" x="554" y="-380.3" font-family="Helvetica,sans-Serif" font-size="9.00">::Gauss2DsMLE</text>
</a>
</g>
</g>
<!-- Node9&#45;&gt;Node11 -->
<g id="edge10" class="edge"><title>Node9&#45;&gt;Node11</title>
<path fill="none" stroke="midnightblue" d="M468.187,-395.21C477.95,-394.323 487.883,-393.42 497.348,-392.559"/>
<polygon fill="midnightblue" stroke="midnightblue" points="467.742,-391.736 458.1,-396.127 468.376,-398.707 467.742,-391.736"/>
</g>
<!-- Node12&#45;&gt;Node5 -->
<g id="edge12" class="edge"><title>Node12&#45;&gt;Node5</title>
<path fill="none" stroke="midnightblue" d="M300.923,-641.046C313.854,-643.261 327.279,-645.56 339.848,-647.712"/>
<polygon fill="midnightblue" stroke="midnightblue" points="301.132,-637.531 290.684,-639.293 299.95,-644.431 301.132,-637.531"/>
</g>
<!-- Node13&#45;&gt;Node3 -->
<g id="edge14" class="edge"><title>Node13&#45;&gt;Node3</title>
<path fill="none" stroke="midnightblue" d="M302.677,-755.347C314.357,-757.347 326.388,-759.407 337.785,-761.359"/>
<polygon fill="midnightblue" stroke="midnightblue" points="302.975,-751.847 292.527,-753.609 301.793,-758.746 302.975,-751.847"/>
</g>
<!-- Node14&#45;&gt;Node7 -->
<g id="edge16" class="edge"><title>Node14&#45;&gt;Node7</title>
<path fill="none" stroke="midnightblue" d="M300.923,-527.046C313.854,-529.261 327.279,-531.56 339.848,-533.712"/>
<polygon fill="midnightblue" stroke="midnightblue" points="301.132,-523.531 290.684,-525.293 299.95,-530.431 301.132,-523.531"/>
</g>
<!-- Node15&#45;&gt;Node9 -->
<g id="edge18" class="edge"><title>Node15&#45;&gt;Node9</title>
<path fill="none" stroke="midnightblue" d="M302.677,-401.5C314.357,-401.5 326.388,-401.5 337.785,-401.5"/>
<polygon fill="midnightblue" stroke="midnightblue" points="302.527,-398 292.527,-401.5 302.527,-405 302.527,-398"/>
</g>
<!-- Node18 -->
<g id="node18" class="node"><title>Node18</title>
<g id="a_node18"><a xlink:href="classmappel_1_1Gauss2DsModel.html#a199ce5ccefd43d8bf4b6d0b076fca918" target="_top" target="_top" xlink:title="mappel::Gauss2DsModel\l::make_internal_1Dsum\l_estimator">
<polygon fill="white" stroke="black" points="338,-255.5 338,-293.5 458,-293.5 458,-255.5 338,-255.5"/>
<text text-anchor="start" x="346" y="-282.3" font-family="Helvetica,sans-Serif" font-size="9.00">mappel::Gauss2DsModel</text>
<text text-anchor="start" x="346" y="-272.3" font-family="Helvetica,sans-Serif" font-size="9.00">::make_internal_1Dsum</text>
<text text-anchor="middle" x="398" y="-262.3" font-family="Helvetica,sans-Serif" font-size="9.00">_estimator</text>
</a>
</g>
</g>
<!-- Node17&#45;&gt;Node18 -->
<g id="edge21" class="edge"><title>Node17&#45;&gt;Node18</title>
<path fill="none" stroke="midnightblue" d="M306.676,-289.968C317.151,-288.174 327.817,-286.348 337.974,-284.608"/>
<polygon fill="midnightblue" stroke="midnightblue" points="305.979,-286.537 296.713,-291.674 307.161,-293.436 305.979,-286.537"/>
</g>
<!-- Node19 -->
<g id="node19" class="node"><title>Node19</title>
<g id="a_node19"><a xlink:href="classmappel_1_1Gauss2DsModel.html#a2ce4737beb88367daeb480bf471ad2cf" target="_top" target="_top" xlink:title="mappel::Gauss2DsModel\l::debug_internal_sum\l_model_y">
<polygon fill="white" stroke="black" points="650,-259.5 650,-297.5 770,-297.5 770,-259.5 650,-259.5"/>
<text text-anchor="start" x="658" y="-286.3" font-family="Helvetica,sans-Serif" font-size="9.00">mappel::Gauss2DsModel</text>
<text text-anchor="start" x="658" y="-276.3" font-family="Helvetica,sans-Serif" font-size="9.00">::debug_internal_sum</text>
<text text-anchor="middle" x="710" y="-266.3" font-family="Helvetica,sans-Serif" font-size="9.00">_model_y</text>
</a>
</g>
</g>
<!-- Node18&#45;&gt;Node19 -->
<g id="edge22" class="edge"><title>Node18&#45;&gt;Node19</title>
<path fill="none" stroke="midnightblue" d="M468.323,-275.394C522.909,-276.099 598.166,-277.07 649.918,-277.738"/>
<polygon fill="midnightblue" stroke="midnightblue" points="468.083,-271.891 458.038,-275.262 467.992,-278.891 468.083,-271.891"/>
</g>
<!-- Node20 -->
<g id="node20" class="node"><title>Node20</title>
<g id="a_node20"><a xlink:href="classmappel_1_1Gauss2DsModel.html#ab884d4d8ab54ec53cf0116aa9a5b1d81" target="_top" target="_top" xlink:title="mappel::Gauss2DsModel\l::Gauss2DsModel">
<polygon fill="white" stroke="black" points="494,-303.5 494,-331.5 614,-331.5 614,-303.5 494,-303.5"/>
<text text-anchor="start" x="502" y="-320.3" font-family="Helvetica,sans-Serif" font-size="9.00">mappel::Gauss2DsModel</text>
<text text-anchor="middle" x="554" y="-310.3" font-family="Helvetica,sans-Serif" font-size="9.00">::Gauss2DsModel</text>
</a>
</g>
</g>
<!-- Node18&#45;&gt;Node20 -->
<g id="edge23" class="edge"><title>Node18&#45;&gt;Node20</title>
<path fill="none" stroke="midnightblue" d="M467.894,-293.737C479.655,-297.021 491.671,-300.376 502.828,-303.491"/>
<polygon fill="midnightblue" stroke="midnightblue" points="468.673,-290.32 458.1,-291.002 466.79,-297.062 468.673,-290.32"/>
</g>
<!-- Node21 -->
<g id="node21" class="node"><title>Node21</title>
<g id="a_node21"><a xlink:href="classmappel_1_1Gauss2DsModel.html#a6ce7054c0fcdb72394839a0abb2616cb" target="_top" target="_top" xlink:title="mappel::Gauss2DsModel\l::update_internal_1Dsum\l_estimators">
<polygon fill="white" stroke="black" points="494,-207.5 494,-245.5 614,-245.5 614,-207.5 494,-207.5"/>
<text text-anchor="start" x="502" y="-234.3" font-family="Helvetica,sans-Serif" font-size="9.00">mappel::Gauss2DsModel</text>
<text text-anchor="start" x="502" y="-224.3" font-family="Helvetica,sans-Serif" font-size="9.00">::update_internal_1Dsum</text>
<text text-anchor="middle" x="554" y="-214.3" font-family="Helvetica,sans-Serif" font-size="9.00">_estimators</text>
</a>
</g>
</g>
<!-- Node18&#45;&gt;Node21 -->
<g id="edge25" class="edge"><title>Node18&#45;&gt;Node21</title>
<path fill="none" stroke="midnightblue" d="M467.809,-253.053C476.483,-250.349 485.297,-247.602 493.804,-244.951"/>
<polygon fill="midnightblue" stroke="midnightblue" points="466.605,-249.762 458.1,-256.079 468.689,-256.445 466.605,-249.762"/>
</g>
<!-- Node20&#45;&gt;Node19 -->
<g id="edge24" class="edge"><title>Node20&#45;&gt;Node19</title>
<path fill="none" stroke="midnightblue" d="M620.296,-300.964C630.105,-298.48 640.174,-295.93 649.845,-293.481"/>
<polygon fill="midnightblue" stroke="midnightblue" points="619.432,-297.572 610.598,-303.42 621.151,-304.358 619.432,-297.572"/>
</g>
<!-- Node21&#45;&gt;Node19 -->
<g id="edge26" class="edge"><title>Node21&#45;&gt;Node19</title>
<path fill="none" stroke="midnightblue" d="M621.01,-248.789C631.508,-252.334 642.285,-255.973 652.537,-259.435"/>
<polygon fill="midnightblue" stroke="midnightblue" points="622.064,-245.451 611.469,-245.568 619.824,-252.083 622.064,-245.451"/>
</g>
<!-- Node22 -->
<g id="node22" class="node"><title>Node22</title>
<g id="a_node22"><a xlink:href="classmappel_1_1Gauss2DsModel.html#a615788e50f97d8c863ec60a5dfee07e3" target="_top" target="_top" xlink:title="mappel::Gauss2DsModel\l::set_hyperparams">
<polygon fill="white" stroke="black" points="650,-212.5 650,-240.5 770,-240.5 770,-212.5 650,-212.5"/>
<text text-anchor="start" x="658" y="-229.3" font-family="Helvetica,sans-Serif" font-size="9.00">mappel::Gauss2DsModel</text>
<text text-anchor="middle" x="710" y="-219.3" font-family="Helvetica,sans-Serif" font-size="9.00">::set_hyperparams</text>
</a>
</g>
</g>
<!-- Node21&#45;&gt;Node22 -->
<g id="edge27" class="edge"><title>Node21&#45;&gt;Node22</title>
<path fill="none" stroke="midnightblue" d="M624.369,-226.5C632.862,-226.5 641.48,-226.5 649.804,-226.5"/>
<polygon fill="midnightblue" stroke="midnightblue" points="624.1,-223 614.1,-226.5 624.1,-230 624.1,-223"/>
</g>
<!-- Node23 -->
<g id="node23" class="node"><title>Node23</title>
<g id="a_node23"><a xlink:href="classmappel_1_1Gauss2DsModel.html#a895bee95db23557189b58f9b1d5e2453" target="_top" target="_top" xlink:title="mappel::Gauss2DsModel\l::set_prior">
<polygon fill="white" stroke="black" points="650,-165.5 650,-193.5 770,-193.5 770,-165.5 650,-165.5"/>
<text text-anchor="start" x="658" y="-182.3" font-family="Helvetica,sans-Serif" font-size="9.00">mappel::Gauss2DsModel</text>
<text text-anchor="middle" x="710" y="-172.3" font-family="Helvetica,sans-Serif" font-size="9.00">::set_prior</text>
</a>
</g>
</g>
<!-- Node21&#45;&gt;Node23 -->
<g id="edge28" class="edge"><title>Node21&#45;&gt;Node23</title>
<path fill="none" stroke="midnightblue" d="M624.032,-205.432C637.133,-201.433 650.546,-197.34 662.73,-193.621"/>
<polygon fill="midnightblue" stroke="midnightblue" points="622.643,-202.196 614.1,-208.463 624.686,-208.891 622.643,-202.196"/>
</g>
<!-- Node25 -->
<g id="node25" class="node"><title>Node25</title>
<g id="a_node25"><a xlink:href="classmappel_1_1Gauss2DModel.html#a0981f99341c0f6f63554680ce165df66" target="_top" target="_top" xlink:title="mappel::Gauss2DModel\l::make_internal_1Dsum\l_estimator">
<polygon fill="white" stroke="black" points="340,-90.5 340,-128.5 456,-128.5 456,-90.5 340,-90.5"/>
<text text-anchor="start" x="348" y="-117.3" font-family="Helvetica,sans-Serif" font-size="9.00">mappel::Gauss2DModel</text>
<text text-anchor="start" x="348" y="-107.3" font-family="Helvetica,sans-Serif" font-size="9.00">::make_internal_1Dsum</text>
<text text-anchor="middle" x="398" y="-97.3" font-family="Helvetica,sans-Serif" font-size="9.00">_estimator</text>
</a>
</g>
</g>
<!-- Node24&#45;&gt;Node25 -->
<g id="edge30" class="edge"><title>Node24&#45;&gt;Node25</title>
<path fill="none" stroke="midnightblue" d="M298.238,-84.1301C311.947,-87.6515 326.323,-91.3445 339.731,-94.7888"/>
<polygon fill="midnightblue" stroke="midnightblue" points="298.954,-80.7004 288.398,-81.6022 297.213,-87.4803 298.954,-80.7004"/>
</g>
<!-- Node26 -->
<g id="node26" class="node"><title>Node26</title>
<g id="a_node26"><a xlink:href="classmappel_1_1Gauss2DModel.html#a07e9c13f8a164f26f337fcc0c2f70374" target="_top" target="_top" xlink:title="mappel::Gauss2DModel\l::debug_internal_sum\l_model_y">
<polygon fill="white" stroke="black" points="652,-94.5 652,-132.5 768,-132.5 768,-94.5 652,-94.5"/>
<text text-anchor="start" x="660" y="-121.3" font-family="Helvetica,sans-Serif" font-size="9.00">mappel::Gauss2DModel</text>
<text text-anchor="start" x="660" y="-111.3" font-family="Helvetica,sans-Serif" font-size="9.00">::debug_internal_sum</text>
<text text-anchor="middle" x="710" y="-101.3" font-family="Helvetica,sans-Serif" font-size="9.00">_model_y</text>
</a>
</g>
</g>
<!-- Node25&#45;&gt;Node26 -->
<g id="edge31" class="edge"><title>Node25&#45;&gt;Node26</title>
<path fill="none" stroke="midnightblue" d="M466.297,-110.368C521.712,-111.083 599.419,-112.086 651.852,-112.763"/>
<polygon fill="midnightblue" stroke="midnightblue" points="466.264,-106.868 456.22,-110.238 466.174,-113.867 466.264,-106.868"/>
</g>
<!-- Node27 -->
<g id="node27" class="node"><title>Node27</title>
<g id="a_node27"><a xlink:href="classmappel_1_1Gauss2DModel.html#aa2247488bb3d360e323b9819ccef3429" target="_top" target="_top" xlink:title="mappel::Gauss2DModel\l::Gauss2DModel">
<polygon fill="white" stroke="black" points="496,-138.5 496,-166.5 612,-166.5 612,-138.5 496,-138.5"/>
<text text-anchor="start" x="504" y="-155.3" font-family="Helvetica,sans-Serif" font-size="9.00">mappel::Gauss2DModel</text>
<text text-anchor="middle" x="554" y="-145.3" font-family="Helvetica,sans-Serif" font-size="9.00">::Gauss2DModel</text>
</a>
</g>
</g>
<!-- Node25&#45;&gt;Node27 -->
<g id="edge32" class="edge"><title>Node25&#45;&gt;Node27</title>
<path fill="none" stroke="midnightblue" d="M466.099,-128.235C478.384,-131.666 491.011,-135.191 502.701,-138.456"/>
<polygon fill="midnightblue" stroke="midnightblue" points="466.917,-124.83 456.344,-125.512 465.034,-131.572 466.917,-124.83"/>
</g>
<!-- Node28 -->
<g id="node28" class="node"><title>Node28</title>
<g id="a_node28"><a xlink:href="classmappel_1_1Gauss2DModel.html#a221f765c48f478177f150c08733e9d29" target="_top" target="_top" xlink:title="mappel::Gauss2DModel\l::update_internal_1Dsum\l_estimators">
<polygon fill="white" stroke="black" points="494,-42.5 494,-80.5 614,-80.5 614,-42.5 494,-42.5"/>
<text text-anchor="start" x="502" y="-69.3" font-family="Helvetica,sans-Serif" font-size="9.00">mappel::Gauss2DModel</text>
<text text-anchor="start" x="502" y="-59.3" font-family="Helvetica,sans-Serif" font-size="9.00">::update_internal_1Dsum</text>
<text text-anchor="middle" x="554" y="-49.3" font-family="Helvetica,sans-Serif" font-size="9.00">_estimators</text>
</a>
</g>
</g>
<!-- Node25&#45;&gt;Node28 -->
<g id="edge34" class="edge"><title>Node25&#45;&gt;Node28</title>
<path fill="none" stroke="midnightblue" d="M465.92,-88.6417C475.201,-85.749 484.681,-82.7943 493.807,-79.9497"/>
<polygon fill="midnightblue" stroke="midnightblue" points="464.849,-85.3094 456.344,-91.6266 466.932,-91.9923 464.849,-85.3094"/>
</g>
<!-- Node27&#45;&gt;Node26 -->
<g id="edge33" class="edge"><title>Node27&#45;&gt;Node26</title>
<path fill="none" stroke="midnightblue" d="M620.503,-135.912C630.954,-133.265 641.694,-130.545 651.93,-127.953"/>
<polygon fill="midnightblue" stroke="midnightblue" points="619.432,-132.572 610.598,-138.42 621.151,-139.358 619.432,-132.572"/>
</g>
<!-- Node28&#45;&gt;Node26 -->
<g id="edge35" class="edge"><title>Node28&#45;&gt;Node26</title>
<path fill="none" stroke="midnightblue" d="M621.01,-83.789C631.508,-87.3339 642.285,-90.9728 652.537,-94.4347"/>
<polygon fill="midnightblue" stroke="midnightblue" points="622.064,-80.4508 611.469,-80.5676 619.824,-87.0829 622.064,-80.4508"/>
</g>
<!-- Node29 -->
<g id="node29" class="node"><title>Node29</title>
<g id="a_node29"><a xlink:href="classmappel_1_1Gauss2DModel.html#a7041d1f38f1141773b046489ce6e6b11" target="_top" target="_top" xlink:title="mappel::Gauss2DModel\l::set_hyperparams">
<polygon fill="white" stroke="black" points="652,-47.5 652,-75.5 768,-75.5 768,-47.5 652,-47.5"/>
<text text-anchor="start" x="660" y="-64.3" font-family="Helvetica,sans-Serif" font-size="9.00">mappel::Gauss2DModel</text>
<text text-anchor="middle" x="710" y="-54.3" font-family="Helvetica,sans-Serif" font-size="9.00">::set_hyperparams</text>
</a>
</g>
</g>
<!-- Node28&#45;&gt;Node29 -->
<g id="edge36" class="edge"><title>Node28&#45;&gt;Node29</title>
<path fill="none" stroke="midnightblue" d="M624.377,-61.5C633.56,-61.5 642.888,-61.5 651.834,-61.5"/>
<polygon fill="midnightblue" stroke="midnightblue" points="624.1,-58.0001 614.1,-61.5 624.1,-65.0001 624.1,-58.0001"/>
</g>
<!-- Node30 -->
<g id="node30" class="node"><title>Node30</title>
<g id="a_node30"><a xlink:href="classmappel_1_1Gauss2DModel.html#a41a5b18b3f3779562c0dbd19e1b6e29b" target="_top" target="_top" xlink:title="mappel::Gauss2DModel\l::set_prior">
<polygon fill="white" stroke="black" points="652,-0.5 652,-28.5 768,-28.5 768,-0.5 652,-0.5"/>
<text text-anchor="start" x="660" y="-17.3" font-family="Helvetica,sans-Serif" font-size="9.00">mappel::Gauss2DModel</text>
<text text-anchor="middle" x="710" y="-7.3" font-family="Helvetica,sans-Serif" font-size="9.00">::set_prior</text>
</a>
</g>
</g>
<!-- Node28&#45;&gt;Node30 -->
<g id="edge37" class="edge"><title>Node28&#45;&gt;Node30</title>
<path fill="none" stroke="midnightblue" d="M624.032,-40.4317C637.133,-36.4333 650.546,-32.34 662.73,-28.6215"/>
<polygon fill="midnightblue" stroke="midnightblue" points="622.643,-37.1963 614.1,-43.463 624.686,-43.8915 622.643,-37.1963"/>
</g>
<!-- Node33&#45;&gt;Node18 -->
<g id="edge41" class="edge"><title>Node33&#45;&gt;Node18</title>
<path fill="none" stroke="midnightblue" d="M312.37,-264.665C320.929,-265.66 329.53,-266.659 337.797,-267.62"/>
<polygon fill="midnightblue" stroke="midnightblue" points="312.702,-261.18 302.365,-263.503 311.894,-268.134 312.702,-261.18"/>
</g>
<!-- Node34&#45;&gt;Node25 -->
<g id="edge43" class="edge"><title>Node34&#45;&gt;Node25</title>
<path fill="none" stroke="midnightblue" d="M312.374,-112.088C321.637,-111.805 330.949,-111.52 339.834,-111.248"/>
<polygon fill="midnightblue" stroke="midnightblue" points="312.253,-108.59 302.365,-112.394 312.467,-115.587 312.253,-108.59"/>
</g>
</g>
</svg>
        <g id="navigator" transform="translate(0 0)" fill="#404254">
                <rect fill="#f2f5e9" fill-opacity="0.5" stroke="#606060" stroke-width=".5" x="0" y="0" width="60" height="60"/>
                <use id="zoomplus" xlink:href="#zoomPlus" target="_top" x="17" y="9" onmousedown="handleZoom(evt,'in')"/>
                <use id="zoomminus" xlink:href="#zoomMin" target="_top" x="42" y="9" onmousedown="handleZoom(evt,'out')"/>
                <use id="reset" xlink:href="#resetDef" target="_top" x="30" y="36" onmousedown="handleReset()"/>
                <g id="arrowUp" xlink:href="#dirArrow" target="_top" transform="translate(30 24)" onmousedown="handlePan(0,-1)">
                  <use xlink:href="#rim" target="_top" fill="#404040">
                        <set attributeName="fill" to="#808080" begin="arrowUp.mouseover" end="arrowUp.mouseout"/>
                  </use>
                  <path fill="none" stroke="white" stroke-width="1.5" d="M0,-3.0v7 M-2.5,-0.5L0,-3.0L2.5,-0.5"/>
                </g>
                <g id="arrowRight" xlink:href="#dirArrow" target="_top" transform="rotate(90) translate(36 -43)" onmousedown="handlePan(1,0)">
                  <use xlink:href="#rim" target="_top" fill="#404040">
                        <set attributeName="fill" to="#808080" begin="arrowRight.mouseover" end="arrowRight.mouseout"/>
                  </use>
                  <path fill="none" stroke="white" stroke-width="1.5" d="M0,-3.0v7 M-2.5,-0.5L0,-3.0L2.5,-0.5"/>
                </g>
                <g id="arrowDown" xlink:href="#dirArrow" target="_top" transform="rotate(180) translate(-30 -48)" onmousedown="handlePan(0,1)">
                  <use xlink:href="#rim" target="_top" fill="#404040">
                        <set attributeName="fill" to="#808080" begin="arrowDown.mouseover" end="arrowDown.mouseout"/>
                  </use>
                  <path fill="none" stroke="white" stroke-width="1.5" d="M0,-3.0v7 M-2.5,-0.5L0,-3.0L2.5,-0.5"/>
                </g>
                <g id="arrowLeft" xlink:href="#dirArrow" target="_top" transform="rotate(270) translate(-36 17)" onmousedown="handlePan(-1,0)">
                  <use xlink:href="#rim" target="_top" fill="#404040">
                        <set attributeName="fill" to="#808080" begin="arrowLeft.mouseover" end="arrowLeft.mouseout"/>
                  </use>
                  <path fill="none" stroke="white" stroke-width="1.5" d="M0,-3.0v7 M-2.5,-0.5L0,-3.0L2.5,-0.5"/>
                </g>
        </g>
        <svg viewBox="0 0 15 15" width="100%" height="30px" preserveAspectRatio="xMaxYMin meet">
         <g id="arrow_out" transform="scale(0.3 0.3)">
          <a xlink:href="classmappel_1_1PointEmitterModel_a4517e887a22007bd2e03650dcb853c92_icgraph_org.svg" target="_top" target="_base">
           <rect id="button" ry="5" rx="5" y="6" x="6" height="38" width="38"
                fill="#f2f5e9" fill-opacity="0.5" stroke="#606060" stroke-width="1.0"/>
           <path id="arrow"
             d="M 11.500037,31.436501 C 11.940474,20.09759 22.043105,11.32322 32.158766,21.979434 L 37.068811,17.246167 C 37.068811,17.246167 37.088388,32 37.088388,32 L 22.160133,31.978069 C 22.160133,31.978069 26.997745,27.140456 26.997745,27.140456 C 18.528582,18.264221 13.291696,25.230495 11.500037,31.436501 z"
             style="fill:#404040;"/>
          </a>
         </g>
        </svg>
</svg>
