<?xml version="1.0" encoding="UTF-8" standalone="no"?>
<!DOCTYPE svg PUBLIC "-//W3C//DTD SVG 1.1//EN"
 "http://www.w3.org/Graphics/SVG/1.1/DTD/svg11.dtd">
<!-- Generated by graphviz version 2.38.0 (20140413.2041)
 -->
<!-- Title: mappel::PoissonNoise1DObjective Pages: 1 -->
<svg width="501pt" height="175pt"
 viewBox="0.00 0.00 501.00 175.00" xmlns="http://www.w3.org/2000/svg" xmlns:xlink="http://www.w3.org/1999/xlink">
<g id="graph0" class="graph" transform="scale(1 1) rotate(0) translate(4 171)">
<title>mappel::PoissonNoise1DObjective</title>
<polygon fill="white" stroke="none" points="-4,4 -4,-171 497,-171 497,4 -4,4"/>
<!-- Node1 -->
<g id="node1" class="node"><title>Node1</title>
<polygon fill="#bfbfbf" stroke="black" points="175,-74.5 175,-92.5 334,-92.5 334,-74.5 175,-74.5"/>
<text text-anchor="middle" x="254.5" y="-81.3" font-family="Helvetica,sans-Serif" font-size="9.00">mappel::PoissonNoise1DObjective</text>
</g>
<!-- Node3 -->
<g id="node3" class="node"><title>Node3</title>
<g id="a_node3"><a xlink:href="classmappel_1_1Gauss1DMAP.html" target="_top" xlink:title="A 1D Gaussian with fixed PSF under an Poisson Read Noise assumption and MAP Objective. ">
<polygon fill="white" stroke="black" points="376.5,-148.5 376.5,-166.5 486.5,-166.5 486.5,-148.5 376.5,-148.5"/>
<text text-anchor="middle" x="431.5" y="-155.3" font-family="Helvetica,sans-Serif" font-size="9.00">mappel::Gauss1DMAP</text>
</a>
</g>
</g>
<!-- Node1&#45;&gt;Node3 -->
<g id="edge2" class="edge"><title>Node1&#45;&gt;Node3</title>
<path fill="none" stroke="midnightblue" d="M280.817,-97.3945C303.664,-109.565 338.434,-127.183 370,-139.5 378.473,-142.806 387.812,-145.861 396.564,-148.479"/>
<polygon fill="midnightblue" stroke="midnightblue" points="282.265,-94.1988 271.8,-92.5434 278.948,-100.363 282.265,-94.1988"/>
</g>
<!-- Node4 -->
<g id="node4" class="node"><title>Node4</title>
<g id="a_node4"><a xlink:href="classmappel_1_1Gauss1DMLE.html" target="_top" xlink:title="A 1D Gaussian with fixed PSF under an Poisson noise assumption and maximum&#45;likelihood objective...">
<polygon fill="white" stroke="black" points="377,-111.5 377,-129.5 486,-129.5 486,-111.5 377,-111.5"/>
<text text-anchor="middle" x="431.5" y="-118.3" font-family="Helvetica,sans-Serif" font-size="9.00">mappel::Gauss1DMLE</text>
</a>
</g>
</g>
<!-- Node1&#45;&gt;Node4 -->
<g id="edge3" class="edge"><title>Node1&#45;&gt;Node4</title>
<path fill="none" stroke="midnightblue" d="M308.179,-94.6378C333.649,-100.023 363.823,-106.403 387.829,-111.478"/>
<polygon fill="midnightblue" stroke="midnightblue" points="308.818,-91.1956 298.31,-92.5512 307.37,-98.0442 308.818,-91.1956"/>
</g>
<!-- Node5 -->
<g id="node5" class="node"><title>Node5</title>
<g id="a_node5"><a xlink:href="classmappel_1_1Gauss1DsMAP.html" target="_top" xlink:title="A 1D Gaussian with variable PSF sigma under an Poisson read noise assumption and MAP Objective...">
<polygon fill="white" stroke="black" points="374.5,-74.5 374.5,-92.5 488.5,-92.5 488.5,-74.5 374.5,-74.5"/>
<text text-anchor="middle" x="431.5" y="-81.3" font-family="Helvetica,sans-Serif" font-size="9.00">mappel::Gauss1DsMAP</text>
</a>
</g>
</g>
<!-- Node1&#45;&gt;Node5 -->
<g id="edge4" class="edge"><title>Node1&#45;&gt;Node5</title>
<path fill="none" stroke="midnightblue" d="M344.298,-83.5C354.567,-83.5 364.812,-83.5 374.468,-83.5"/>
<polygon fill="midnightblue" stroke="midnightblue" points="344.042,-80.0001 334.042,-83.5 344.042,-87.0001 344.042,-80.0001"/>
</g>
<!-- Node6 -->
<g id="node6" class="node"><title>Node6</title>
<g id="a_node6"><a xlink:href="classmappel_1_1Gauss1DsMLE.html" target="_top" xlink:title="A 1D Gaussian with variable PSF under an Poisson noise assumption and maximum&#45;likelihood estimator...">
<polygon fill="white" stroke="black" points="375,-37.5 375,-55.5 488,-55.5 488,-37.5 375,-37.5"/>
<text text-anchor="middle" x="431.5" y="-44.3" font-family="Helvetica,sans-Serif" font-size="9.00">mappel::Gauss1DsMLE</text>
</a>
</g>
</g>
<!-- Node1&#45;&gt;Node6 -->
<g id="edge5" class="edge"><title>Node1&#45;&gt;Node6</title>
<path fill="none" stroke="midnightblue" d="M308.179,-72.3622C333.649,-66.9771 363.823,-60.5974 387.829,-55.5218"/>
<polygon fill="midnightblue" stroke="midnightblue" points="307.37,-68.9558 298.31,-74.4488 308.818,-75.8044 307.37,-68.9558"/>
</g>
<!-- Node7 -->
<g id="node7" class="node"><title>Node7</title>
<g id="a_node7"><a xlink:href="classmappel_1_1Gauss2DsxyMAP.html" target="_top" xlink:title="A 1D Gaussian with fixed PSF under an Poisson Read Noise assumption and MAP Objective. ">
<polygon fill="white" stroke="black" points="370,-0.5 370,-18.5 493,-18.5 493,-0.5 370,-0.5"/>
<text text-anchor="middle" x="431.5" y="-7.3" font-family="Helvetica,sans-Serif" font-size="9.00">mappel::Gauss2DsxyMAP</text>
</a>
</g>
</g>
<!-- Node1&#45;&gt;Node7 -->
<g id="edge6" class="edge"><title>Node1&#45;&gt;Node7</title>
<path fill="none" stroke="midnightblue" d="M280.817,-69.6055C303.664,-57.435 338.434,-39.8172 370,-27.5 378.473,-24.1937 387.812,-21.1392 396.564,-18.5208"/>
<polygon fill="midnightblue" stroke="midnightblue" points="278.948,-66.6366 271.8,-74.4566 282.265,-72.8012 278.948,-66.6366"/>
</g>
<!-- Node2 -->
<g id="node2" class="node"><title>Node2</title>
<g id="a_node2"><a xlink:href="classmappel_1_1ImageFormat1DBase.html" target="_top" xlink:title="A virtual base class for 2D image localization objectives. ">
<polygon fill="white" stroke="black" points="0,-74.5 0,-92.5 139,-92.5 139,-74.5 0,-74.5"/>
<text text-anchor="middle" x="69.5" y="-81.3" font-family="Helvetica,sans-Serif" font-size="9.00">mappel::ImageFormat1DBase</text>
</a>
</g>
</g>
<!-- Node2&#45;&gt;Node1 -->
<g id="edge1" class="edge"><title>Node2&#45;&gt;Node1</title>
<path fill="none" stroke="midnightblue" d="M149.39,-83.5C157.85,-83.5 166.457,-83.5 174.914,-83.5"/>
<polygon fill="midnightblue" stroke="midnightblue" points="149.163,-80.0001 139.163,-83.5 149.163,-87.0001 149.163,-80.0001"/>
</g>
</g>
</svg>
