<?xml version="1.0" encoding="UTF-8" standalone="no"?>
<!DOCTYPE svg PUBLIC "-//W3C//DTD SVG 1.1//EN"
 "http://www.w3.org/Graphics/SVG/1.1/DTD/svg11.dtd">
<!-- Generated by graphviz version 2.38.0 (20140413.2041)
 -->
<!-- Title: mappel::MCMCAdaptor1D::set_intensity_mcmc_sampling Pages: 1 -->
<svg width="296pt" height="47pt"
 viewBox="0.00 0.00 296.00 47.00" xmlns="http://www.w3.org/2000/svg" xmlns:xlink="http://www.w3.org/1999/xlink">
<g id="graph0" class="graph" transform="scale(1 1) rotate(0) translate(4 43)">
<title>mappel::MCMCAdaptor1D::set_intensity_mcmc_sampling</title>
<polygon fill="white" stroke="none" points="-4,4 -4,-43 292,-43 292,4 -4,4"/>
<!-- Node1 -->
<g id="node1" class="node"><title>Node1</title>
<polygon fill="#bfbfbf" stroke="black" points="0,-0.5 0,-38.5 125,-38.5 125,-0.5 0,-0.5"/>
<text text-anchor="start" x="8" y="-27.3" font-family="Helvetica,sans-Serif" font-size="9.00">mappel::MCMCAdaptor1D</text>
<text text-anchor="start" x="8" y="-17.3" font-family="Helvetica,sans-Serif" font-size="9.00">::set_intensity_mcmc</text>
<text text-anchor="middle" x="62.5" y="-7.3" font-family="Helvetica,sans-Serif" font-size="9.00">_sampling</text>
</g>
<!-- Node2 -->
<g id="node2" class="node"><title>Node2</title>
<g id="a_node2"><a xlink:href="classmappel_1_1PointEmitterModel.html#a3282cc59d5c6010a51f671ba72997705" target="_top" xlink:title="mappel::PointEmitterModel\l::get_hyperparam_value">
<polygon fill="white" stroke="black" points="161,-5.5 161,-33.5 288,-33.5 288,-5.5 161,-5.5"/>
<text text-anchor="start" x="169" y="-22.3" font-family="Helvetica,sans-Serif" font-size="9.00">mappel::PointEmitterModel</text>
<text text-anchor="middle" x="224.5" y="-12.3" font-family="Helvetica,sans-Serif" font-size="9.00">::get_hyperparam_value</text>
</a>
</g>
</g>
<!-- Node1&#45;&gt;Node2 -->
<g id="edge1" class="edge"><title>Node1&#45;&gt;Node2</title>
<path fill="none" stroke="midnightblue" d="M125.36,-19.5C133.613,-19.5 142.137,-19.5 150.556,-19.5"/>
<polygon fill="midnightblue" stroke="midnightblue" points="150.748,-23.0001 160.748,-19.5 150.748,-16.0001 150.748,-23.0001"/>
</g>
</g>
</svg>
