<?xml version="1.0" encoding="UTF-8" standalone="no"?>
<!DOCTYPE svg PUBLIC "-//W3C//DTD SVG 1.1//EN"
 "http://www.w3.org/Graphics/SVG/1.1/DTD/svg11.dtd">
<!-- Generated by graphviz version 2.38.0 (20140413.2041)
 -->
<!-- Title: mappel::PointEmitterModel::theta_in_bounds Pages: 1 -->
<svg width="456pt" height="340pt"
 viewBox="0.00 0.00 456.00 340.35" xmlns="http://www.w3.org/2000/svg" xmlns:xlink="http://www.w3.org/1999/xlink">
<g id="graph0" class="graph" transform="scale(1 1) rotate(0) translate(4 336.35)">
<title>mappel::PointEmitterModel::theta_in_bounds</title>
<polygon fill="white" stroke="none" points="-4,4 -4,-336.35 452,-336.35 452,4 -4,4"/>
<!-- Node1 -->
<g id="node1" class="node"><title>Node1</title>
<polygon fill="#bfbfbf" stroke="black" points="0,-158.5 0,-186.5 127,-186.5 127,-158.5 0,-158.5"/>
<text text-anchor="start" x="8" y="-175.3" font-family="Helvetica,sans-Serif" font-size="9.00">mappel::PointEmitterModel</text>
<text text-anchor="middle" x="63.5" y="-165.3" font-family="Helvetica,sans-Serif" font-size="9.00">::theta_in_bounds</text>
</g>
<!-- Node2 -->
<g id="node2" class="node"><title>Node2</title>
<g id="a_node2"><a xlink:href="classmappel_1_1Gauss2DModel.html#a4bb4e53073e2c45b9a63b942214b787c" target="_top" xlink:title="mappel::Gauss2DModel\l::initial_theta_estimate">
<polygon fill="white" stroke="black" points="330,-295.5 330,-323.5 446,-323.5 446,-295.5 330,-295.5"/>
<text text-anchor="start" x="338" y="-312.3" font-family="Helvetica,sans-Serif" font-size="9.00">mappel::Gauss2DModel</text>
<text text-anchor="middle" x="388" y="-302.3" font-family="Helvetica,sans-Serif" font-size="9.00">::initial_theta_estimate</text>
</a>
</g>
</g>
<!-- Node1&#45;&gt;Node2 -->
<g id="edge1" class="edge"><title>Node1&#45;&gt;Node2</title>
<path fill="none" stroke="midnightblue" d="M72.9611,-195.984C86.2976,-229.022 115.671,-287.93 163,-312.5 216.503,-340.275 287.334,-333.317 334.896,-323.503"/>
<polygon fill="midnightblue" stroke="midnightblue" points="76.2123,-194.687 69.335,-186.628 69.6854,-197.217 76.2123,-194.687"/>
</g>
<!-- Node3 -->
<g id="node3" class="node"><title>Node3</title>
<g id="a_node3"><a xlink:href="classmappel_1_1Gauss2DsModel.html#a70e079fd6b31bc6af5b7c10d2a0d8fb5" target="_top" xlink:title="mappel::Gauss2DsModel\l::initial_theta_estimate">
<polygon fill="white" stroke="black" points="328,-90.5 328,-118.5 448,-118.5 448,-90.5 328,-90.5"/>
<text text-anchor="start" x="336" y="-107.3" font-family="Helvetica,sans-Serif" font-size="9.00">mappel::Gauss2DsModel</text>
<text text-anchor="middle" x="388" y="-97.3" font-family="Helvetica,sans-Serif" font-size="9.00">::initial_theta_estimate</text>
</a>
</g>
</g>
<!-- Node1&#45;&gt;Node3 -->
<g id="edge2" class="edge"><title>Node1&#45;&gt;Node3</title>
<path fill="none" stroke="midnightblue" d="M137.104,-161.871C181.989,-154.772 240.638,-144.544 292,-132.5 308.908,-128.535 327.262,-123.341 343.288,-118.504"/>
<polygon fill="midnightblue" stroke="midnightblue" points="136.504,-158.422 127.166,-163.427 137.587,-165.338 136.504,-158.422"/>
</g>
<!-- Node4 -->
<g id="node4" class="node"><title>Node4</title>
<g id="a_node4"><a xlink:href="classmappel_1_1Gauss1DModel.html#a3068438846f29467b2df5a8504151c20" target="_top" xlink:title="Make a new Model::Stencil object at theta. ">
<polygon fill="white" stroke="black" points="169.5,-227.5 169.5,-255.5 285.5,-255.5 285.5,-227.5 169.5,-227.5"/>
<text text-anchor="start" x="177.5" y="-244.3" font-family="Helvetica,sans-Serif" font-size="9.00">mappel::Gauss1DModel</text>
<text text-anchor="middle" x="227.5" y="-234.3" font-family="Helvetica,sans-Serif" font-size="9.00">::make_stencil</text>
</a>
</g>
</g>
<!-- Node1&#45;&gt;Node4 -->
<g id="edge3" class="edge"><title>Node1&#45;&gt;Node4</title>
<path fill="none" stroke="midnightblue" d="M102.193,-191.068C120.395,-199.785 142.653,-210.084 163,-218.5 170.368,-221.548 178.302,-224.599 185.981,-227.437"/>
<polygon fill="midnightblue" stroke="midnightblue" points="103.603,-187.862 93.0756,-186.672 100.563,-194.168 103.603,-187.862"/>
</g>
<!-- Node6 -->
<g id="node6" class="node"><title>Node6</title>
<g id="a_node6"><a xlink:href="classmappel_1_1Gauss1DsModel.html#a6c252dd37b7e6b317a9815cda4ef8d5e" target="_top" xlink:title="Make a new Model::Stencil object at theta. ">
<polygon fill="white" stroke="black" points="167.5,-180.5 167.5,-208.5 287.5,-208.5 287.5,-180.5 167.5,-180.5"/>
<text text-anchor="start" x="175.5" y="-197.3" font-family="Helvetica,sans-Serif" font-size="9.00">mappel::Gauss1DsModel</text>
<text text-anchor="middle" x="227.5" y="-187.3" font-family="Helvetica,sans-Serif" font-size="9.00">::make_stencil</text>
</a>
</g>
</g>
<!-- Node1&#45;&gt;Node6 -->
<g id="edge5" class="edge"><title>Node1&#45;&gt;Node6</title>
<path fill="none" stroke="midnightblue" d="M137.19,-182.371C147.328,-183.748 157.642,-185.149 167.487,-186.486"/>
<polygon fill="midnightblue" stroke="midnightblue" points="137.513,-178.883 127.133,-181.006 136.571,-185.82 137.513,-178.883"/>
</g>
<!-- Node8 -->
<g id="node8" class="node"><title>Node8</title>
<g id="a_node8"><a xlink:href="classmappel_1_1Gauss2DModel.html#a584652e2d4ac0b27e870a21150c035a2" target="_top" xlink:title="Make a new Model::Stencil object at theta. ">
<polygon fill="white" stroke="black" points="169.5,-274.5 169.5,-302.5 285.5,-302.5 285.5,-274.5 169.5,-274.5"/>
<text text-anchor="start" x="177.5" y="-291.3" font-family="Helvetica,sans-Serif" font-size="9.00">mappel::Gauss2DModel</text>
<text text-anchor="middle" x="227.5" y="-281.3" font-family="Helvetica,sans-Serif" font-size="9.00">::make_stencil</text>
</a>
</g>
</g>
<!-- Node1&#45;&gt;Node8 -->
<g id="edge7" class="edge"><title>Node1&#45;&gt;Node8</title>
<path fill="none" stroke="midnightblue" d="M82.835,-194.374C101.247,-215.144 131.357,-246.008 163,-265.5 168.491,-268.882 174.553,-271.873 180.688,-274.484"/>
<polygon fill="midnightblue" stroke="midnightblue" points="85.3499,-191.933 76.1448,-186.687 80.0696,-196.528 85.3499,-191.933"/>
</g>
<!-- Node9 -->
<g id="node9" class="node"><title>Node9</title>
<g id="a_node9"><a xlink:href="classmappel_1_1Gauss2DsxyModel.html#aab03b318c452c45c9fcf2f363e9c1e8f" target="_top" xlink:title="Make a new Model::Stencil object at theta. ">
<polygon fill="white" stroke="black" points="163,-94.5 163,-122.5 292,-122.5 292,-94.5 163,-94.5"/>
<text text-anchor="start" x="171" y="-111.3" font-family="Helvetica,sans-Serif" font-size="9.00">mappel::Gauss2DsxyModel</text>
<text text-anchor="middle" x="227.5" y="-101.3" font-family="Helvetica,sans-Serif" font-size="9.00">::make_stencil</text>
</a>
</g>
</g>
<!-- Node1&#45;&gt;Node9 -->
<g id="edge9" class="edge"><title>Node1&#45;&gt;Node9</title>
<path fill="none" stroke="midnightblue" d="M109.586,-154.688C135.312,-144.525 167.099,-131.967 191.031,-122.512"/>
<polygon fill="midnightblue" stroke="midnightblue" points="108.066,-151.525 100.052,-158.455 110.638,-158.036 108.066,-151.525"/>
</g>
<!-- Node10 -->
<g id="node10" class="node"><title>Node10</title>
<g id="a_node10"><a xlink:href="classmappel_1_1Gauss2DsModel.html#a797aeb7c17a24a7df89597789a0eacb4" target="_top" xlink:title="Make a new Model::Stencil object at theta. ">
<polygon fill="white" stroke="black" points="167.5,-47.5 167.5,-75.5 287.5,-75.5 287.5,-47.5 167.5,-47.5"/>
<text text-anchor="start" x="175.5" y="-64.3" font-family="Helvetica,sans-Serif" font-size="9.00">mappel::Gauss2DsModel</text>
<text text-anchor="middle" x="227.5" y="-54.3" font-family="Helvetica,sans-Serif" font-size="9.00">::make_stencil</text>
</a>
</g>
</g>
<!-- Node1&#45;&gt;Node10 -->
<g id="edge10" class="edge"><title>Node1&#45;&gt;Node10</title>
<path fill="none" stroke="midnightblue" d="M84.3679,-150.968C103.111,-131.685 132.772,-103.719 163,-85.5 169.157,-81.7889 175.986,-78.4837 182.816,-75.6017"/>
<polygon fill="midnightblue" stroke="midnightblue" points="81.6485,-148.747 77.2696,-158.395 86.7091,-153.584 81.6485,-148.747"/>
</g>
<!-- Node11 -->
<g id="node11" class="node"><title>Node11</title>
<g id="a_node11"><a xlink:href="classmappel_1_1PointEmitterModel.html#a7b6a59b4bc796b440025cffb7a6159f8" target="_top" xlink:title="mappel::PointEmitterModel\l::theta_stack_in_bounds">
<polygon fill="white" stroke="black" points="164,-0.5 164,-28.5 291,-28.5 291,-0.5 164,-0.5"/>
<text text-anchor="start" x="172" y="-17.3" font-family="Helvetica,sans-Serif" font-size="9.00">mappel::PointEmitterModel</text>
<text text-anchor="middle" x="227.5" y="-7.3" font-family="Helvetica,sans-Serif" font-size="9.00">::theta_stack_in_bounds</text>
</a>
</g>
</g>
<!-- Node1&#45;&gt;Node11 -->
<g id="edge12" class="edge"><title>Node1&#45;&gt;Node11</title>
<path fill="none" stroke="midnightblue" d="M76.0813,-148.839C91.847,-118.928 122.768,-67.7042 163,-37.5 167.595,-34.0506 172.757,-31.079 178.101,-28.5287"/>
<polygon fill="midnightblue" stroke="midnightblue" points="72.778,-147.61 71.3242,-158.104 79.0052,-150.807 72.778,-147.61"/>
</g>
<!-- Node5 -->
<g id="node5" class="node"><title>Node5</title>
<g id="a_node5"><a xlink:href="classmappel_1_1Gauss1DModel.html#a4c4e01a489a6d8f7b119dd50b51610c2" target="_top" xlink:title="mappel::Gauss1DModel\l::initial_theta_estimate">
<polygon fill="white" stroke="black" points="330,-227.5 330,-255.5 446,-255.5 446,-227.5 330,-227.5"/>
<text text-anchor="start" x="338" y="-244.3" font-family="Helvetica,sans-Serif" font-size="9.00">mappel::Gauss1DModel</text>
<text text-anchor="middle" x="388" y="-234.3" font-family="Helvetica,sans-Serif" font-size="9.00">::initial_theta_estimate</text>
</a>
</g>
</g>
<!-- Node4&#45;&gt;Node5 -->
<g id="edge4" class="edge"><title>Node4&#45;&gt;Node5</title>
<path fill="none" stroke="midnightblue" d="M295.968,-241.5C307.255,-241.5 318.867,-241.5 329.862,-241.5"/>
<polygon fill="midnightblue" stroke="midnightblue" points="295.722,-238 285.722,-241.5 295.722,-245 295.722,-238"/>
</g>
<!-- Node7 -->
<g id="node7" class="node"><title>Node7</title>
<g id="a_node7"><a xlink:href="classmappel_1_1Gauss1DsModel.html#ad987432d37b221f7fa01605d1bef0bbe" target="_top" xlink:title="mappel::Gauss1DsModel\l::initial_theta_estimate">
<polygon fill="white" stroke="black" points="328,-180.5 328,-208.5 448,-208.5 448,-180.5 328,-180.5"/>
<text text-anchor="start" x="336" y="-197.3" font-family="Helvetica,sans-Serif" font-size="9.00">mappel::Gauss1DsModel</text>
<text text-anchor="middle" x="388" y="-187.3" font-family="Helvetica,sans-Serif" font-size="9.00">::initial_theta_estimate</text>
</a>
</g>
</g>
<!-- Node6&#45;&gt;Node7 -->
<g id="edge6" class="edge"><title>Node6&#45;&gt;Node7</title>
<path fill="none" stroke="midnightblue" d="M297.547,-194.5C307.674,-194.5 318.028,-194.5 327.931,-194.5"/>
<polygon fill="midnightblue" stroke="midnightblue" points="297.52,-191 287.52,-194.5 297.52,-198 297.52,-191"/>
</g>
<!-- Node8&#45;&gt;Node2 -->
<g id="edge8" class="edge"><title>Node8&#45;&gt;Node2</title>
<path fill="none" stroke="midnightblue" d="M295.968,-297.439C307.255,-298.934 318.867,-300.473 329.862,-301.93"/>
<polygon fill="midnightblue" stroke="midnightblue" points="296.095,-293.925 285.722,-296.081 295.176,-300.865 296.095,-293.925"/>
</g>
<!-- Node10&#45;&gt;Node3 -->
<g id="edge11" class="edge"><title>Node10&#45;&gt;Node3</title>
<path fill="none" stroke="midnightblue" d="M290.064,-78.2019C305.002,-82.2545 320.823,-86.5467 335.255,-90.462"/>
<polygon fill="midnightblue" stroke="midnightblue" points="290.966,-74.8203 280.399,-75.5798 289.134,-81.5761 290.966,-74.8203"/>
</g>
</g>
</svg>
