<?xml version="1.0" encoding="UTF-8" standalone="no"?>
<!DOCTYPE svg PUBLIC "-//W3C//DTD SVG 1.1//EN"
 "http://www.w3.org/Graphics/SVG/1.1/DTD/svg11.dtd">
<!-- Generated by graphviz version 2.38.0 (20140413.2041)
 -->
<!-- Title: mappel::Gauss1DsModel::set_max_sigma Pages: 1 -->
<svg width="440pt" height="131pt"
 viewBox="0.00 0.00 440.00 131.00" xmlns="http://www.w3.org/2000/svg" xmlns:xlink="http://www.w3.org/1999/xlink">
<g id="graph0" class="graph" transform="scale(1 1) rotate(0) translate(4 127)">
<title>mappel::Gauss1DsModel::set_max_sigma</title>
<polygon fill="white" stroke="none" points="-4,4 -4,-127 436,-127 436,4 -4,4"/>
<!-- Node1 -->
<g id="node1" class="node"><title>Node1</title>
<polygon fill="#bfbfbf" stroke="black" points="0,-47.5 0,-75.5 120,-75.5 120,-47.5 0,-47.5"/>
<text text-anchor="start" x="8" y="-64.3" font-family="Helvetica,sans-Serif" font-size="9.00">mappel::Gauss1DsModel</text>
<text text-anchor="middle" x="60" y="-54.3" font-family="Helvetica,sans-Serif" font-size="9.00">::set_max_sigma</text>
</g>
<!-- Node2 -->
<g id="node2" class="node"><title>Node2</title>
<g id="a_node2"><a xlink:href="classmappel_1_1Gauss1DsModel.html#a28c6e621043d53c5273e277266453de9" target="_top" xlink:title="mappel::Gauss1DsModel\l::set_max_sigma">
<polygon fill="white" stroke="black" points="156,-94.5 156,-122.5 276,-122.5 276,-94.5 156,-94.5"/>
<text text-anchor="start" x="164" y="-111.3" font-family="Helvetica,sans-Serif" font-size="9.00">mappel::Gauss1DsModel</text>
<text text-anchor="middle" x="216" y="-101.3" font-family="Helvetica,sans-Serif" font-size="9.00">::set_max_sigma</text>
</a>
</g>
</g>
<!-- Node1&#45;&gt;Node2 -->
<g id="edge1" class="edge"><title>Node1&#45;&gt;Node2</title>
<path fill="none" stroke="midnightblue" d="M117.071,-78.6125C134.167,-83.8301 152.753,-89.5024 169.093,-94.4894"/>
<polygon fill="midnightblue" stroke="midnightblue" points="117.791,-75.1731 107.205,-75.6015 115.748,-81.8682 117.791,-75.1731"/>
</g>
<!-- Node3 -->
<g id="node3" class="node"><title>Node3</title>
<g id="a_node3"><a xlink:href="classmappel_1_1Gauss2DsModel.html#a85925eaef6d69c5f6b3ceeae3364dd68" target="_top" xlink:title="mappel::Gauss2DsModel\l::set_max_sigma_ratio">
<polygon fill="white" stroke="black" points="156,-47.5 156,-75.5 276,-75.5 276,-47.5 156,-47.5"/>
<text text-anchor="start" x="164" y="-64.3" font-family="Helvetica,sans-Serif" font-size="9.00">mappel::Gauss2DsModel</text>
<text text-anchor="middle" x="216" y="-54.3" font-family="Helvetica,sans-Serif" font-size="9.00">::set_max_sigma_ratio</text>
</a>
</g>
</g>
<!-- Node1&#45;&gt;Node3 -->
<g id="edge2" class="edge"><title>Node1&#45;&gt;Node3</title>
<path fill="none" stroke="midnightblue" d="M130.369,-61.5C138.862,-61.5 147.48,-61.5 155.804,-61.5"/>
<polygon fill="midnightblue" stroke="midnightblue" points="130.1,-58.0001 120.1,-61.5 130.1,-65.0001 130.1,-58.0001"/>
</g>
<!-- Node5 -->
<g id="node5" class="node"><title>Node5</title>
<g id="a_node5"><a xlink:href="classmappel_1_1Gauss2DsModel.html#a63d3481174444ff7f7b603a47aa8dcc1" target="_top" xlink:title="mappel::Gauss2DsModel\l::set_min_sigma">
<polygon fill="white" stroke="black" points="156,-0.5 156,-28.5 276,-28.5 276,-0.5 156,-0.5"/>
<text text-anchor="start" x="164" y="-17.3" font-family="Helvetica,sans-Serif" font-size="9.00">mappel::Gauss2DsModel</text>
<text text-anchor="middle" x="216" y="-7.3" font-family="Helvetica,sans-Serif" font-size="9.00">::set_min_sigma</text>
</a>
</g>
</g>
<!-- Node1&#45;&gt;Node5 -->
<g id="edge4" class="edge"><title>Node1&#45;&gt;Node5</title>
<path fill="none" stroke="midnightblue" d="M117.071,-44.3875C134.167,-39.1699 152.753,-33.4976 169.093,-28.5106"/>
<polygon fill="midnightblue" stroke="midnightblue" points="115.748,-41.1318 107.205,-47.3985 117.791,-47.8269 115.748,-41.1318"/>
</g>
<!-- Node4 -->
<g id="node4" class="node"><title>Node4</title>
<g id="a_node4"><a xlink:href="classmappel_1_1Gauss2DsModel.html#a8ef1bc0d4dc27247d88ff2c7300a149d" target="_top" xlink:title="mappel::Gauss2DsModel\l::set_max_sigma">
<polygon fill="white" stroke="black" points="312,-47.5 312,-75.5 432,-75.5 432,-47.5 312,-47.5"/>
<text text-anchor="start" x="320" y="-64.3" font-family="Helvetica,sans-Serif" font-size="9.00">mappel::Gauss2DsModel</text>
<text text-anchor="middle" x="372" y="-54.3" font-family="Helvetica,sans-Serif" font-size="9.00">::set_max_sigma</text>
</a>
</g>
</g>
<!-- Node3&#45;&gt;Node4 -->
<g id="edge3" class="edge"><title>Node3&#45;&gt;Node4</title>
<path fill="none" stroke="midnightblue" d="M286.369,-61.5C294.862,-61.5 303.48,-61.5 311.804,-61.5"/>
<polygon fill="midnightblue" stroke="midnightblue" points="286.1,-58.0001 276.1,-61.5 286.1,-65.0001 286.1,-58.0001"/>
</g>
</g>
</svg>
