<?xml version="1.0" encoding="UTF-8" standalone="no"?>
<!DOCTYPE svg PUBLIC "-//W3C//DTD SVG 1.1//EN"
 "http://www.w3.org/Graphics/SVG/1.1/DTD/svg11.dtd">
<!-- Generated by graphviz version 2.38.0 (20140413.2041)
 -->
<!-- Title: mappel::Gauss2DsModel::operator= Pages: 1 -->
<svg width="617pt" height="131pt"
 viewBox="0.00 0.00 617.00 131.00" xmlns="http://www.w3.org/2000/svg" xmlns:xlink="http://www.w3.org/1999/xlink">
<g id="graph0" class="graph" transform="scale(1 1) rotate(0) translate(4 127)">
<title>mappel::Gauss2DsModel::operator=</title>
<polygon fill="white" stroke="none" points="-4,4 -4,-127 613,-127 613,4 -4,4"/>
<!-- Node1 -->
<g id="node1" class="node"><title>Node1</title>
<polygon fill="#bfbfbf" stroke="black" points="0,-23.5 0,-51.5 120,-51.5 120,-23.5 0,-23.5"/>
<text text-anchor="start" x="8" y="-40.3" font-family="Helvetica,sans-Serif" font-size="9.00">mappel::Gauss2DsModel</text>
<text text-anchor="middle" x="60" y="-30.3" font-family="Helvetica,sans-Serif" font-size="9.00">::operator=</text>
</g>
<!-- Node2 -->
<g id="node2" class="node"><title>Node2</title>
<g id="a_node2"><a xlink:href="classmappel_1_1Gauss2DsModel.html#a11f03c648095b6d7dd5c38c3a5eca2dc" target="_top" xlink:title="mappel::Gauss2DsModel\l::get_max_sigma">
<polygon fill="white" stroke="black" points="160.5,-47.5 160.5,-75.5 280.5,-75.5 280.5,-47.5 160.5,-47.5"/>
<text text-anchor="start" x="168.5" y="-64.3" font-family="Helvetica,sans-Serif" font-size="9.00">mappel::Gauss2DsModel</text>
<text text-anchor="middle" x="220.5" y="-54.3" font-family="Helvetica,sans-Serif" font-size="9.00">::get_max_sigma</text>
</a>
</g>
</g>
<!-- Node1&#45;&gt;Node2 -->
<g id="edge1" class="edge"><title>Node1&#45;&gt;Node2</title>
<path fill="none" stroke="midnightblue" d="M120.02,-46.4367C129.921,-47.936 140.275,-49.5037 150.403,-51.0373"/>
<polygon fill="midnightblue" stroke="midnightblue" points="150.02,-54.5192 160.431,-52.5558 151.068,-47.5981 150.02,-54.5192"/>
</g>
<!-- Node6 -->
<g id="node6" class="node"><title>Node6</title>
<g id="a_node6"><a xlink:href="classmappel_1_1MCMCAdaptor2Ds.html#a271813db8cfbca730d2ebd60b335b33e" target="_top" xlink:title="mappel::MCMCAdaptor2Ds\l::operator=">
<polygon fill="white" stroke="black" points="156,-0.5 156,-28.5 285,-28.5 285,-0.5 156,-0.5"/>
<text text-anchor="start" x="164" y="-17.3" font-family="Helvetica,sans-Serif" font-size="9.00">mappel::MCMCAdaptor2Ds</text>
<text text-anchor="middle" x="220.5" y="-7.3" font-family="Helvetica,sans-Serif" font-size="9.00">::operator=</text>
</a>
</g>
</g>
<!-- Node1&#45;&gt;Node6 -->
<g id="edge5" class="edge"><title>Node1&#45;&gt;Node6</title>
<path fill="none" stroke="midnightblue" d="M120.02,-28.9356C128.433,-27.7147 137.173,-26.4465 145.824,-25.1912"/>
<polygon fill="midnightblue" stroke="midnightblue" points="146.519,-28.627 155.913,-23.7271 145.514,-21.6995 146.519,-28.627"/>
</g>
<!-- Node3 -->
<g id="node3" class="node"><title>Node3</title>
<g id="a_node3"><a xlink:href="classmappel_1_1Gauss2DsModel.html#a46da2752c2d1ca376b72d910818e47ae" target="_top" xlink:title="mappel::Gauss2DsModel\l::get_max_sigma_ratio">
<polygon fill="white" stroke="black" points="323.5,-94.5 323.5,-122.5 443.5,-122.5 443.5,-94.5 323.5,-94.5"/>
<text text-anchor="start" x="331.5" y="-111.3" font-family="Helvetica,sans-Serif" font-size="9.00">mappel::Gauss2DsModel</text>
<text text-anchor="middle" x="383.5" y="-101.3" font-family="Helvetica,sans-Serif" font-size="9.00">::get_max_sigma_ratio</text>
</a>
</g>
</g>
<!-- Node2&#45;&gt;Node3 -->
<g id="edge2" class="edge"><title>Node2&#45;&gt;Node3</title>
<path fill="none" stroke="midnightblue" d="M269.805,-75.6015C287.077,-80.6435 306.716,-86.3766 324.706,-91.6286"/>
<polygon fill="midnightblue" stroke="midnightblue" points="323.926,-95.0469 334.506,-94.4894 325.888,-88.3273 323.926,-95.0469"/>
</g>
<!-- Node5 -->
<g id="node5" class="node"><title>Node5</title>
<g id="a_node5"><a xlink:href="classmappel_1_1Gauss2DsModel.html#af93a5f984a97e23ae1d371c980e48a41" target="_top" xlink:title="mappel::Gauss2DsModel\l::get_min_sigma">
<polygon fill="white" stroke="black" points="323.5,-47.5 323.5,-75.5 443.5,-75.5 443.5,-47.5 323.5,-47.5"/>
<text text-anchor="start" x="331.5" y="-64.3" font-family="Helvetica,sans-Serif" font-size="9.00">mappel::Gauss2DsModel</text>
<text text-anchor="middle" x="383.5" y="-54.3" font-family="Helvetica,sans-Serif" font-size="9.00">::get_min_sigma</text>
</a>
</g>
</g>
<!-- Node2&#45;&gt;Node5 -->
<g id="edge4" class="edge"><title>Node2&#45;&gt;Node5</title>
<path fill="none" stroke="midnightblue" d="M280.536,-61.5C291.146,-61.5 302.292,-61.5 313.161,-61.5"/>
<polygon fill="midnightblue" stroke="midnightblue" points="313.471,-65.0001 323.471,-61.5 313.471,-58.0001 313.471,-65.0001"/>
</g>
<!-- Node4 -->
<g id="node4" class="node"><title>Node4</title>
<g id="a_node4"><a xlink:href="classmappel_1_1PointEmitterModel.html#a0dfb473c48d177a4540d328abb03cd55" target="_top" xlink:title="mappel::PointEmitterModel\l::get_ubound">
<polygon fill="white" stroke="black" points="482,-94.5 482,-122.5 609,-122.5 609,-94.5 482,-94.5"/>
<text text-anchor="start" x="490" y="-111.3" font-family="Helvetica,sans-Serif" font-size="9.00">mappel::PointEmitterModel</text>
<text text-anchor="middle" x="545.5" y="-101.3" font-family="Helvetica,sans-Serif" font-size="9.00">::get_ubound</text>
</a>
</g>
</g>
<!-- Node3&#45;&gt;Node4 -->
<g id="edge3" class="edge"><title>Node3&#45;&gt;Node4</title>
<path fill="none" stroke="midnightblue" d="M443.624,-108.5C452.776,-108.5 462.32,-108.5 471.73,-108.5"/>
<polygon fill="midnightblue" stroke="midnightblue" points="471.863,-112 481.863,-108.5 471.863,-105 471.863,-112"/>
</g>
<!-- Node7 -->
<g id="node7" class="node"><title>Node7</title>
<g id="a_node7"><a xlink:href="classmappel_1_1MCMCAdaptor2D.html#aeddb1b66ab86ef64421b9a7d6a208769" target="_top" xlink:title="mappel::MCMCAdaptor2D\l::operator=">
<polygon fill="white" stroke="black" points="321,-0.5 321,-28.5 446,-28.5 446,-0.5 321,-0.5"/>
<text text-anchor="start" x="329" y="-17.3" font-family="Helvetica,sans-Serif" font-size="9.00">mappel::MCMCAdaptor2D</text>
<text text-anchor="middle" x="383.5" y="-7.3" font-family="Helvetica,sans-Serif" font-size="9.00">::operator=</text>
</a>
</g>
</g>
<!-- Node6&#45;&gt;Node7 -->
<g id="edge6" class="edge"><title>Node6&#45;&gt;Node7</title>
<path fill="none" stroke="midnightblue" d="M285.131,-14.5C293.505,-14.5 302.133,-14.5 310.632,-14.5"/>
<polygon fill="midnightblue" stroke="midnightblue" points="310.908,-18.0001 320.908,-14.5 310.908,-11.0001 310.908,-18.0001"/>
</g>
<!-- Node8 -->
<g id="node8" class="node"><title>Node8</title>
<g id="a_node8"><a xlink:href="classmappel_1_1MCMCAdaptor1D.html#a669bba7517087d842f941957cbbf5fb5" target="_top" xlink:title="mappel::MCMCAdaptor1D\l::operator=">
<polygon fill="white" stroke="black" points="483,-0.5 483,-28.5 608,-28.5 608,-0.5 483,-0.5"/>
<text text-anchor="start" x="491" y="-17.3" font-family="Helvetica,sans-Serif" font-size="9.00">mappel::MCMCAdaptor1D</text>
<text text-anchor="middle" x="545.5" y="-7.3" font-family="Helvetica,sans-Serif" font-size="9.00">::operator=</text>
</a>
</g>
</g>
<!-- Node7&#45;&gt;Node8 -->
<g id="edge7" class="edge"><title>Node7&#45;&gt;Node8</title>
<path fill="none" stroke="midnightblue" d="M446.36,-14.5C454.956,-14.5 463.847,-14.5 472.607,-14.5"/>
<polygon fill="midnightblue" stroke="midnightblue" points="472.804,-18.0001 482.804,-14.5 472.804,-11.0001 472.804,-18.0001"/>
</g>
</g>
</svg>
