<?xml version="1.0" encoding="UTF-8" standalone="no"?>
<!DOCTYPE svg PUBLIC "-//W3C//DTD SVG 1.1//EN"
 "http://www.w3.org/Graphics/SVG/1.1/DTD/svg11.dtd">
<!-- Generated by graphviz version 2.38.0 (20140413.2041)
 -->
<!-- Title: mappel::PointEmitterModel::check_param_shape Pages: 1 -->
<!--zoomable 519 -->
<svg id="main" version="1.1" xmlns="http://www.w3.org/2000/svg" xmlns:xlink="http://www.w3.org/1999/xlink" xml:space="preserve" onload="init(evt)">
<style type="text/css"><![CDATA[
.edge:hover path { stroke: red; }
.edge:hover polygon { stroke: red; fill: red; }
]]></style>
<script type="text/javascript"><![CDATA[
var edges = document.getElementsByTagName('g');
if (edges && edges.length) {
  for (var i=0;i<edges.length;i++) {
    if (edges[i].id.substr(0,4)=='edge') {
      edges[i].setAttribute('class','edge');
    }
  }
}
]]></script>
        <defs>
                <circle id="rim" cx="0" cy="0" r="7"/>
                <circle id="rim2" cx="0" cy="0" r="3.5"/>
                <g id="zoomPlus">
                        <use xlink:href="#rim" target="_top" fill="#404040">
                                <set attributeName="fill" to="#808080" begin="zoomplus.mouseover" end="zoomplus.mouseout"/>
                        </use>
                        <path d="M-4,0h8M0,-4v8" fill="none" stroke="white" stroke-width="1.5" pointer-events="none"/>
                </g>
                <g id="zoomMin">
                        <use xlink:href="#rim" target="_top" fill="#404040">
                                <set attributeName="fill" to="#808080" begin="zoomminus.mouseover" end="zoomminus.mouseout"/>
                        </use>
                        <path d="M-4,0h8" fill="none" stroke="white" stroke-width="1.5" pointer-events="none"/>
                </g>
                <g id="dirArrow">
                        <path fill="none" stroke="white" stroke-width="1.5" d="M0,-3.0v7 M-2.5,-0.5L0,-3.0L2.5,-0.5"/>
                </g>
               <g id="resetDef">
                       <use xlink:href="#rim2" target="_top" fill="#404040">
                               <set attributeName="fill" to="#808080" begin="reset.mouseover" end="reset.mouseout"/>
                       </use>
               </g>
        </defs>

<script type="text/javascript">
var viewWidth = 619;
var viewHeight = 519;
var sectionId = 'dynsection-6';
</script>
<script xlink:href="svgpan.js" target="_top"/>
<svg id="graph" class="graph">
<g id="viewport">
<title>mappel::PointEmitterModel::check_param_shape</title>
<polygon fill="white" stroke="none" points="-4,4 -4,-515 615,-515 615,4 -4,4"/>
<!-- Node1 -->
<g id="node1" class="node"><title>Node1</title>
<polygon fill="#bfbfbf" stroke="black" points="0,-349.5 0,-377.5 127,-377.5 127,-349.5 0,-349.5"/>
<text text-anchor="start" x="8" y="-366.3" font-family="Helvetica,sans-Serif" font-size="9.00">mappel::PointEmitterModel</text>
<text text-anchor="middle" x="63.5" y="-356.3" font-family="Helvetica,sans-Serif" font-size="9.00">::check_param_shape</text>
</g>
<!-- Node2 -->
<g id="node2" class="node"><title>Node2</title>
<g id="a_node2"><a xlink:href="classmappel_1_1PointEmitterModel.html#a789dfcc9ea1df17a0282fca5705ade85" target="_top" target="_top" xlink:title="mappel::PointEmitterModel\l::bound_theta">
<polygon fill="white" stroke="black" points="163,-482.5 163,-510.5 290,-510.5 290,-482.5 163,-482.5"/>
<text text-anchor="start" x="171" y="-499.3" font-family="Helvetica,sans-Serif" font-size="9.00">mappel::PointEmitterModel</text>
<text text-anchor="middle" x="226.5" y="-489.3" font-family="Helvetica,sans-Serif" font-size="9.00">::bound_theta</text>
</a>
</g>
</g>
<!-- Node1&#45;&gt;Node2 -->
<g id="edge1" class="edge"><title>Node1&#45;&gt;Node2</title>
<path fill="none" stroke="midnightblue" d="M79.518,-386.016C96.9594,-410.601 127.869,-449.643 163,-473.5 167.974,-476.878 173.506,-479.832 179.164,-482.396"/>
<polygon fill="midnightblue" stroke="midnightblue" points="82.2984,-383.884 73.7188,-377.667 76.5493,-387.877 82.2984,-383.884"/>
</g>
<!-- Node3 -->
<g id="node3" class="node"><title>Node3</title>
<g id="a_node3"><a xlink:href="classmappel_1_1PointEmitterModel.html#ac342b21db8970dfa0b2809ffe5e73d06" target="_top" target="_top" xlink:title="mappel::PointEmitterModel\l::bounded_theta">
<polygon fill="white" stroke="black" points="163,-435.5 163,-463.5 290,-463.5 290,-435.5 163,-435.5"/>
<text text-anchor="start" x="171" y="-452.3" font-family="Helvetica,sans-Serif" font-size="9.00">mappel::PointEmitterModel</text>
<text text-anchor="middle" x="226.5" y="-442.3" font-family="Helvetica,sans-Serif" font-size="9.00">::bounded_theta</text>
</a>
</g>
</g>
<!-- Node1&#45;&gt;Node3 -->
<g id="edge2" class="edge"><title>Node1&#45;&gt;Node3</title>
<path fill="none" stroke="midnightblue" d="M96.2592,-382.854C115.363,-394.25 140.301,-408.697 163,-420.5 172.87,-425.632 183.817,-430.863 193.756,-435.443"/>
<polygon fill="midnightblue" stroke="midnightblue" points="98.0296,-379.835 87.6537,-377.692 94.4287,-385.838 98.0296,-379.835"/>
</g>
<!-- Node4 -->
<g id="node4" class="node"><title>Node4</title>
<g id="a_node4"><a xlink:href="classmappel_1_1PointEmitterModel.html#a6671c06d391ae9a09dd5de78dcc636fe" target="_top" target="_top" xlink:title="mappel::PointEmitterModel\l::bounded_theta_stack">
<polygon fill="white" stroke="black" points="327,-416.5 327,-444.5 454,-444.5 454,-416.5 327,-416.5"/>
<text text-anchor="start" x="335" y="-433.3" font-family="Helvetica,sans-Serif" font-size="9.00">mappel::PointEmitterModel</text>
<text text-anchor="middle" x="390.5" y="-423.3" font-family="Helvetica,sans-Serif" font-size="9.00">::bounded_theta_stack</text>
</a>
</g>
</g>
<!-- Node1&#45;&gt;Node4 -->
<g id="edge4" class="edge"><title>Node1&#45;&gt;Node4</title>
<path fill="none" stroke="midnightblue" d="M129.88,-379.928C140.913,-382.558 152.266,-385.175 163,-387.5 218.157,-399.447 281.266,-411.278 326.835,-419.497"/>
<polygon fill="midnightblue" stroke="midnightblue" points="130.406,-376.455 119.865,-377.519 128.768,-383.261 130.406,-376.455"/>
</g>
<!-- Node5 -->
<g id="node5" class="node"><title>Node5</title>
<g id="a_node5"><a xlink:href="classmappel_1_1PointEmitterModel.html#a7dd386776870462e8f20c646b6fed1e3" target="_top" target="_top" xlink:title="mappel::PointEmitterModel\l::reflected_theta">
<polygon fill="white" stroke="black" points="163,-349.5 163,-377.5 290,-377.5 290,-349.5 163,-349.5"/>
<text text-anchor="start" x="171" y="-366.3" font-family="Helvetica,sans-Serif" font-size="9.00">mappel::PointEmitterModel</text>
<text text-anchor="middle" x="226.5" y="-356.3" font-family="Helvetica,sans-Serif" font-size="9.00">::reflected_theta</text>
</a>
</g>
</g>
<!-- Node1&#45;&gt;Node5 -->
<g id="edge5" class="edge"><title>Node1&#45;&gt;Node5</title>
<path fill="none" stroke="midnightblue" d="M137.218,-363.5C145.813,-363.5 154.527,-363.5 162.963,-363.5"/>
<polygon fill="midnightblue" stroke="midnightblue" points="137.208,-360 127.208,-363.5 137.208,-367 137.208,-360"/>
</g>
<!-- Node6 -->
<g id="node6" class="node"><title>Node6</title>
<g id="a_node6"><a xlink:href="classmappel_1_1PointEmitterModel.html#ae24c17017ff5e37e1dd9ea9a1aeefa7f" target="_top" target="_top" xlink:title="mappel::PointEmitterModel\l::reflected_theta_stack">
<polygon fill="white" stroke="black" points="327,-359.5 327,-387.5 454,-387.5 454,-359.5 327,-359.5"/>
<text text-anchor="start" x="335" y="-376.3" font-family="Helvetica,sans-Serif" font-size="9.00">mappel::PointEmitterModel</text>
<text text-anchor="middle" x="390.5" y="-366.3" font-family="Helvetica,sans-Serif" font-size="9.00">::reflected_theta_stack</text>
</a>
</g>
</g>
<!-- Node1&#45;&gt;Node6 -->
<g id="edge7" class="edge"><title>Node1&#45;&gt;Node6</title>
<path fill="none" stroke="midnightblue" d="M124.437,-347.2C137.079,-344.413 150.405,-341.951 163,-340.5 219.074,-334.04 234.278,-331.501 290,-340.5 302.038,-342.444 328.735,-351.395 351.447,-359.484"/>
<polygon fill="midnightblue" stroke="midnightblue" points="123.433,-343.84 114.472,-349.492 125.002,-350.662 123.433,-343.84"/>
</g>
<!-- Node7 -->
<g id="node7" class="node"><title>Node7</title>
<g id="a_node7"><a xlink:href="classmappel_1_1PointEmitterModel.html#ad50dfc29b6e7167fb4caf8683353079d" target="_top" target="_top" xlink:title="mappel::PointEmitterModel\l::theta_in_bounds">
<polygon fill="white" stroke="black" points="163,-175.5 163,-203.5 290,-203.5 290,-175.5 163,-175.5"/>
<text text-anchor="start" x="171" y="-192.3" font-family="Helvetica,sans-Serif" font-size="9.00">mappel::PointEmitterModel</text>
<text text-anchor="middle" x="226.5" y="-182.3" font-family="Helvetica,sans-Serif" font-size="9.00">::theta_in_bounds</text>
</a>
</g>
</g>
<!-- Node1&#45;&gt;Node7 -->
<g id="edge8" class="edge"><title>Node1&#45;&gt;Node7</title>
<path fill="none" stroke="midnightblue" d="M84.6617,-341.71C118.044,-305.632 183.912,-234.446 212.143,-203.936"/>
<polygon fill="midnightblue" stroke="midnightblue" points="81.8979,-339.544 77.6753,-349.261 87.0359,-344.298 81.8979,-339.544"/>
</g>
<!-- Node17 -->
<g id="node17" class="node"><title>Node17</title>
<g id="a_node17"><a xlink:href="classmappel_1_1PointEmitterModel.html#a7b6a59b4bc796b440025cffb7a6159f8" target="_top" target="_top" xlink:title="mappel::PointEmitterModel\l::theta_stack_in_bounds">
<polygon fill="white" stroke="black" points="327,-0.5 327,-28.5 454,-28.5 454,-0.5 327,-0.5"/>
<text text-anchor="start" x="335" y="-17.3" font-family="Helvetica,sans-Serif" font-size="9.00">mappel::PointEmitterModel</text>
<text text-anchor="middle" x="390.5" y="-7.3" font-family="Helvetica,sans-Serif" font-size="9.00">::theta_stack_in_bounds</text>
</a>
</g>
</g>
<!-- Node1&#45;&gt;Node17 -->
<g id="edge21" class="edge"><title>Node1&#45;&gt;Node17</title>
<path fill="none" stroke="midnightblue" d="M72.3748,-339.825C86.226,-300.604 117.826,-220.98 163,-165.5 221.16,-94.0717 245.458,-82.1934 326,-37.5 331.946,-34.2003 338.458,-31.2152 344.973,-28.5714"/>
<polygon fill="midnightblue" stroke="midnightblue" points="69.0499,-338.731 69.0897,-349.326 75.6656,-341.018 69.0499,-338.731"/>
</g>
<!-- Node3&#45;&gt;Node4 -->
<g id="edge3" class="edge"><title>Node3&#45;&gt;Node4</title>
<path fill="none" stroke="midnightblue" d="M300.098,-440.985C308.996,-439.942 318.031,-438.882 326.766,-437.858"/>
<polygon fill="midnightblue" stroke="midnightblue" points="299.658,-437.513 290.133,-442.154 300.473,-444.465 299.658,-437.513"/>
</g>
<!-- Node5&#45;&gt;Node6 -->
<g id="edge6" class="edge"><title>Node5&#45;&gt;Node6</title>
<path fill="none" stroke="midnightblue" d="M300.385,-367.999C309.19,-368.543 318.124,-369.094 326.766,-369.628"/>
<polygon fill="midnightblue" stroke="midnightblue" points="300.33,-364.489 290.133,-367.366 299.899,-371.476 300.33,-364.489"/>
</g>
<!-- Node8 -->
<g id="node8" class="node"><title>Node8</title>
<g id="a_node8"><a xlink:href="classmappel_1_1Gauss2DModel.html#a4bb4e53073e2c45b9a63b942214b787c" target="_top" target="_top" xlink:title="mappel::Gauss2DModel\l::initial_theta_estimate">
<polygon fill="white" stroke="black" points="493,-115.5 493,-143.5 609,-143.5 609,-115.5 493,-115.5"/>
<text text-anchor="start" x="501" y="-132.3" font-family="Helvetica,sans-Serif" font-size="9.00">mappel::Gauss2DModel</text>
<text text-anchor="middle" x="551" y="-122.3" font-family="Helvetica,sans-Serif" font-size="9.00">::initial_theta_estimate</text>
</a>
</g>
</g>
<!-- Node7&#45;&gt;Node8 -->
<g id="edge9" class="edge"><title>Node7&#45;&gt;Node8</title>
<path fill="none" stroke="midnightblue" d="M299.94,-176.023C358.203,-165.183 438.947,-150.161 492.75,-140.151"/>
<polygon fill="midnightblue" stroke="midnightblue" points="299.255,-172.59 290.064,-177.86 300.535,-179.472 299.255,-172.59"/>
</g>
<!-- Node9 -->
<g id="node9" class="node"><title>Node9</title>
<g id="a_node9"><a xlink:href="classmappel_1_1Gauss2DsModel.html#a70e079fd6b31bc6af5b7c10d2a0d8fb5" target="_top" target="_top" xlink:title="mappel::Gauss2DsModel\l::initial_theta_estimate">
<polygon fill="white" stroke="black" points="491,-196.5 491,-224.5 611,-224.5 611,-196.5 491,-196.5"/>
<text text-anchor="start" x="499" y="-213.3" font-family="Helvetica,sans-Serif" font-size="9.00">mappel::Gauss2DsModel</text>
<text text-anchor="middle" x="551" y="-203.3" font-family="Helvetica,sans-Serif" font-size="9.00">::initial_theta_estimate</text>
</a>
</g>
</g>
<!-- Node7&#45;&gt;Node9 -->
<g id="edge10" class="edge"><title>Node7&#45;&gt;Node9</title>
<path fill="none" stroke="midnightblue" d="M300.187,-194.233C357.757,-197.982 437.161,-203.152 490.874,-206.65"/>
<polygon fill="midnightblue" stroke="midnightblue" points="300.27,-190.731 290.064,-193.574 299.815,-197.716 300.27,-190.731"/>
</g>
<!-- Node10 -->
<g id="node10" class="node"><title>Node10</title>
<g id="a_node10"><a xlink:href="classmappel_1_1Gauss1DModel.html#a3068438846f29467b2df5a8504151c20" target="_top" target="_top" xlink:title="Make a new Model::Stencil object at theta. ">
<polygon fill="white" stroke="black" points="332.5,-47.5 332.5,-75.5 448.5,-75.5 448.5,-47.5 332.5,-47.5"/>
<text text-anchor="start" x="340.5" y="-64.3" font-family="Helvetica,sans-Serif" font-size="9.00">mappel::Gauss1DModel</text>
<text text-anchor="middle" x="390.5" y="-54.3" font-family="Helvetica,sans-Serif" font-size="9.00">::make_stencil</text>
</a>
</g>
</g>
<!-- Node7&#45;&gt;Node10 -->
<g id="edge11" class="edge"><title>Node7&#45;&gt;Node10</title>
<path fill="none" stroke="midnightblue" d="M243.531,-166.937C261.287,-143.42 291.943,-106.931 326,-84.5 331.19,-81.0818 336.952,-78.0932 342.828,-75.5027"/>
<polygon fill="midnightblue" stroke="midnightblue" points="240.509,-165.137 237.377,-175.258 246.137,-169.299 240.509,-165.137"/>
</g>
<!-- Node12 -->
<g id="node12" class="node"><title>Node12</title>
<g id="a_node12"><a xlink:href="classmappel_1_1Gauss1DsModel.html#a6c252dd37b7e6b317a9815cda4ef8d5e" target="_top" target="_top" xlink:title="Make a new Model::Stencil object at theta. ">
<polygon fill="white" stroke="black" points="330.5,-312.5 330.5,-340.5 450.5,-340.5 450.5,-312.5 330.5,-312.5"/>
<text text-anchor="start" x="338.5" y="-329.3" font-family="Helvetica,sans-Serif" font-size="9.00">mappel::Gauss1DsModel</text>
<text text-anchor="middle" x="390.5" y="-319.3" font-family="Helvetica,sans-Serif" font-size="9.00">::make_stencil</text>
</a>
</g>
</g>
<!-- Node7&#45;&gt;Node12 -->
<g id="edge13" class="edge"><title>Node7&#45;&gt;Node12</title>
<path fill="none" stroke="midnightblue" d="M242.031,-212.483C259.233,-237.988 290.117,-278.8 326,-303.5 330.926,-306.891 336.409,-309.843 342.032,-312.397"/>
<polygon fill="midnightblue" stroke="midnightblue" points="244.757,-210.258 236.329,-203.837 238.913,-214.112 244.757,-210.258"/>
</g>
<!-- Node14 -->
<g id="node14" class="node"><title>Node14</title>
<g id="a_node14"><a xlink:href="classmappel_1_1Gauss2DModel.html#a584652e2d4ac0b27e870a21150c035a2" target="_top" target="_top" xlink:title="Make a new Model::Stencil object at theta. ">
<polygon fill="white" stroke="black" points="332.5,-94.5 332.5,-122.5 448.5,-122.5 448.5,-94.5 332.5,-94.5"/>
<text text-anchor="start" x="340.5" y="-111.3" font-family="Helvetica,sans-Serif" font-size="9.00">mappel::Gauss2DModel</text>
<text text-anchor="middle" x="390.5" y="-101.3" font-family="Helvetica,sans-Serif" font-size="9.00">::make_stencil</text>
</a>
</g>
</g>
<!-- Node7&#45;&gt;Node14 -->
<g id="edge15" class="edge"><title>Node7&#45;&gt;Node14</title>
<path fill="none" stroke="midnightblue" d="M262.266,-170.523C281.012,-160.449 304.624,-148.013 326,-137.5 336.223,-132.472 347.5,-127.227 357.679,-122.601"/>
<polygon fill="midnightblue" stroke="midnightblue" points="260.354,-167.577 253.215,-175.406 263.678,-173.738 260.354,-167.577"/>
</g>
<!-- Node15 -->
<g id="node15" class="node"><title>Node15</title>
<g id="a_node15"><a xlink:href="classmappel_1_1Gauss2DsxyModel.html#aab03b318c452c45c9fcf2f363e9c1e8f" target="_top" target="_top" xlink:title="Make a new Model::Stencil object at theta. ">
<polygon fill="white" stroke="black" points="326,-265.5 326,-293.5 455,-293.5 455,-265.5 326,-265.5"/>
<text text-anchor="start" x="334" y="-282.3" font-family="Helvetica,sans-Serif" font-size="9.00">mappel::Gauss2DsxyModel</text>
<text text-anchor="middle" x="390.5" y="-272.3" font-family="Helvetica,sans-Serif" font-size="9.00">::make_stencil</text>
</a>
</g>
</g>
<!-- Node7&#45;&gt;Node15 -->
<g id="edge17" class="edge"><title>Node7&#45;&gt;Node15</title>
<path fill="none" stroke="midnightblue" d="M253.149,-209.579C272.407,-223.987 299.851,-243.138 326,-256.5 332.369,-259.755 339.308,-262.764 346.184,-265.46"/>
<polygon fill="midnightblue" stroke="midnightblue" points="255.251,-206.781 245.168,-203.529 251.023,-212.359 255.251,-206.781"/>
</g>
<!-- Node16 -->
<g id="node16" class="node"><title>Node16</title>
<g id="a_node16"><a xlink:href="classmappel_1_1Gauss2DsModel.html#a797aeb7c17a24a7df89597789a0eacb4" target="_top" target="_top" xlink:title="Make a new Model::Stencil object at theta. ">
<polygon fill="white" stroke="black" points="330.5,-218.5 330.5,-246.5 450.5,-246.5 450.5,-218.5 330.5,-218.5"/>
<text text-anchor="start" x="338.5" y="-235.3" font-family="Helvetica,sans-Serif" font-size="9.00">mappel::Gauss2DsModel</text>
<text text-anchor="middle" x="390.5" y="-225.3" font-family="Helvetica,sans-Serif" font-size="9.00">::make_stencil</text>
</a>
</g>
</g>
<!-- Node7&#45;&gt;Node16 -->
<g id="edge18" class="edge"><title>Node7&#45;&gt;Node16</title>
<path fill="none" stroke="midnightblue" d="M290.424,-206.202C305.691,-210.255 321.862,-214.547 336.613,-218.462"/>
<polygon fill="midnightblue" stroke="midnightblue" points="291.108,-202.763 280.545,-203.58 289.312,-209.528 291.108,-202.763"/>
</g>
<!-- Node7&#45;&gt;Node17 -->
<g id="edge20" class="edge"><title>Node7&#45;&gt;Node17</title>
<path fill="none" stroke="midnightblue" d="M242.466,-167.008C255.202,-147.807 273.932,-119.425 290,-94.5 306.235,-69.3165 302.654,-56.282 326,-37.5 330.294,-34.0456 335.151,-31.0843 340.221,-28.5516"/>
<polygon fill="midnightblue" stroke="midnightblue" points="239.517,-165.123 236.901,-175.39 245.348,-168.995 239.517,-165.123"/>
</g>
<!-- Node11 -->
<g id="node11" class="node"><title>Node11</title>
<g id="a_node11"><a xlink:href="classmappel_1_1Gauss1DModel.html#a4c4e01a489a6d8f7b119dd50b51610c2" target="_top" target="_top" xlink:title="mappel::Gauss1DModel\l::initial_theta_estimate">
<polygon fill="white" stroke="black" points="493,-47.5 493,-75.5 609,-75.5 609,-47.5 493,-47.5"/>
<text text-anchor="start" x="501" y="-64.3" font-family="Helvetica,sans-Serif" font-size="9.00">mappel::Gauss1DModel</text>
<text text-anchor="middle" x="551" y="-54.3" font-family="Helvetica,sans-Serif" font-size="9.00">::initial_theta_estimate</text>
</a>
</g>
</g>
<!-- Node10&#45;&gt;Node11 -->
<g id="edge12" class="edge"><title>Node10&#45;&gt;Node11</title>
<path fill="none" stroke="midnightblue" d="M458.968,-61.5C470.255,-61.5 481.867,-61.5 492.862,-61.5"/>
<polygon fill="midnightblue" stroke="midnightblue" points="458.722,-58.0001 448.722,-61.5 458.722,-65.0001 458.722,-58.0001"/>
</g>
<!-- Node13 -->
<g id="node13" class="node"><title>Node13</title>
<g id="a_node13"><a xlink:href="classmappel_1_1Gauss1DsModel.html#ad987432d37b221f7fa01605d1bef0bbe" target="_top" target="_top" xlink:title="mappel::Gauss1DsModel\l::initial_theta_estimate">
<polygon fill="white" stroke="black" points="491,-312.5 491,-340.5 611,-340.5 611,-312.5 491,-312.5"/>
<text text-anchor="start" x="499" y="-329.3" font-family="Helvetica,sans-Serif" font-size="9.00">mappel::Gauss1DsModel</text>
<text text-anchor="middle" x="551" y="-319.3" font-family="Helvetica,sans-Serif" font-size="9.00">::initial_theta_estimate</text>
</a>
</g>
</g>
<!-- Node12&#45;&gt;Node13 -->
<g id="edge14" class="edge"><title>Node12&#45;&gt;Node13</title>
<path fill="none" stroke="midnightblue" d="M460.547,-326.5C470.674,-326.5 481.028,-326.5 490.931,-326.5"/>
<polygon fill="midnightblue" stroke="midnightblue" points="460.52,-323 450.52,-326.5 460.52,-330 460.52,-323"/>
</g>
<!-- Node14&#45;&gt;Node8 -->
<g id="edge16" class="edge"><title>Node14&#45;&gt;Node8</title>
<path fill="none" stroke="midnightblue" d="M458.968,-117.439C470.255,-118.934 481.867,-120.473 492.862,-121.93"/>
<polygon fill="midnightblue" stroke="midnightblue" points="459.095,-113.925 448.722,-116.081 458.176,-120.865 459.095,-113.925"/>
</g>
<!-- Node16&#45;&gt;Node9 -->
<g id="edge19" class="edge"><title>Node16&#45;&gt;Node9</title>
<path fill="none" stroke="midnightblue" d="M460.547,-222.916C470.674,-221.511 481.028,-220.073 490.931,-218.699"/>
<polygon fill="midnightblue" stroke="midnightblue" points="459.943,-219.466 450.52,-224.308 460.906,-226.4 459.943,-219.466"/>
</g>
</g>
</svg>
        <g id="navigator" transform="translate(0 0)" fill="#404254">
                <rect fill="#f2f5e9" fill-opacity="0.5" stroke="#606060" stroke-width=".5" x="0" y="0" width="60" height="60"/>
                <use id="zoomplus" xlink:href="#zoomPlus" target="_top" x="17" y="9" onmousedown="handleZoom(evt,'in')"/>
                <use id="zoomminus" xlink:href="#zoomMin" target="_top" x="42" y="9" onmousedown="handleZoom(evt,'out')"/>
                <use id="reset" xlink:href="#resetDef" target="_top" x="30" y="36" onmousedown="handleReset()"/>
                <g id="arrowUp" xlink:href="#dirArrow" target="_top" transform="translate(30 24)" onmousedown="handlePan(0,-1)">
                  <use xlink:href="#rim" target="_top" fill="#404040">
                        <set attributeName="fill" to="#808080" begin="arrowUp.mouseover" end="arrowUp.mouseout"/>
                  </use>
                  <path fill="none" stroke="white" stroke-width="1.5" d="M0,-3.0v7 M-2.5,-0.5L0,-3.0L2.5,-0.5"/>
                </g>
                <g id="arrowRight" xlink:href="#dirArrow" target="_top" transform="rotate(90) translate(36 -43)" onmousedown="handlePan(1,0)">
                  <use xlink:href="#rim" target="_top" fill="#404040">
                        <set attributeName="fill" to="#808080" begin="arrowRight.mouseover" end="arrowRight.mouseout"/>
                  </use>
                  <path fill="none" stroke="white" stroke-width="1.5" d="M0,-3.0v7 M-2.5,-0.5L0,-3.0L2.5,-0.5"/>
                </g>
                <g id="arrowDown" xlink:href="#dirArrow" target="_top" transform="rotate(180) translate(-30 -48)" onmousedown="handlePan(0,1)">
                  <use xlink:href="#rim" target="_top" fill="#404040">
                        <set attributeName="fill" to="#808080" begin="arrowDown.mouseover" end="arrowDown.mouseout"/>
                  </use>
                  <path fill="none" stroke="white" stroke-width="1.5" d="M0,-3.0v7 M-2.5,-0.5L0,-3.0L2.5,-0.5"/>
                </g>
                <g id="arrowLeft" xlink:href="#dirArrow" target="_top" transform="rotate(270) translate(-36 17)" onmousedown="handlePan(-1,0)">
                  <use xlink:href="#rim" target="_top" fill="#404040">
                        <set attributeName="fill" to="#808080" begin="arrowLeft.mouseover" end="arrowLeft.mouseout"/>
                  </use>
                  <path fill="none" stroke="white" stroke-width="1.5" d="M0,-3.0v7 M-2.5,-0.5L0,-3.0L2.5,-0.5"/>
                </g>
        </g>
        <svg viewBox="0 0 15 15" width="100%" height="30px" preserveAspectRatio="xMaxYMin meet">
         <g id="arrow_out" transform="scale(0.3 0.3)">
          <a xlink:href="classmappel_1_1PointEmitterModel_a97a868e842302f670ed9f9bd49416771_icgraph_org.svg" target="_top" target="_base">
           <rect id="button" ry="5" rx="5" y="6" x="6" height="38" width="38"
                fill="#f2f5e9" fill-opacity="0.5" stroke="#606060" stroke-width="1.0"/>
           <path id="arrow"
             d="M 11.500037,31.436501 C 11.940474,20.09759 22.043105,11.32322 32.158766,21.979434 L 37.068811,17.246167 C 37.068811,17.246167 37.088388,32 37.088388,32 L 22.160133,31.978069 C 22.160133,31.978069 26.997745,27.140456 26.997745,27.140456 C 18.528582,18.264221 13.291696,25.230495 11.500037,31.436501 z"
             style="fill:#404040;"/>
          </a>
         </g>
        </svg>
</svg>
