<?xml version="1.0" encoding="UTF-8" standalone="no"?>
<!DOCTYPE svg PUBLIC "-//W3C//DTD SVG 1.1//EN"
 "http://www.w3.org/Graphics/SVG/1.1/DTD/svg11.dtd">
<!-- Generated by graphviz version 2.38.0 (20140413.2041)
 -->
<!-- Title: mappel::ImageFormat1DBase Pages: 1 -->
<svg width="501pt" height="175pt"
 viewBox="0.00 0.00 501.00 175.00" xmlns="http://www.w3.org/2000/svg" xmlns:xlink="http://www.w3.org/1999/xlink">
<g id="graph0" class="graph" transform="scale(1 1) rotate(0) translate(4 171)">
<title>mappel::ImageFormat1DBase</title>
<polygon fill="white" stroke="none" points="-4,4 -4,-171 497,-171 497,4 -4,4"/>
<!-- Node1 -->
<g id="node1" class="node"><title>Node1</title>
<polygon fill="#bfbfbf" stroke="black" points="0,-74.5 0,-92.5 139,-92.5 139,-74.5 0,-74.5"/>
<text text-anchor="middle" x="69.5" y="-81.3" font-family="Helvetica,sans-Serif" font-size="9.00">mappel::ImageFormat1DBase</text>
</g>
<!-- Node2 -->
<g id="node2" class="node"><title>Node2</title>
<g id="a_node2"><a xlink:href="classmappel_1_1Gauss1DModel.html" target="_top" xlink:title="A base class for 1D Gaussian PSF with a fixed sigma (standard dev.) ">
<polygon fill="white" stroke="black" points="196.5,-111.5 196.5,-129.5 312.5,-129.5 312.5,-111.5 196.5,-111.5"/>
<text text-anchor="middle" x="254.5" y="-118.3" font-family="Helvetica,sans-Serif" font-size="9.00">mappel::Gauss1DModel</text>
</a>
</g>
</g>
<!-- Node1&#45;&gt;Node2 -->
<g id="edge1" class="edge"><title>Node1&#45;&gt;Node2</title>
<path fill="none" stroke="midnightblue" d="M125.234,-94.5664C151.942,-99.9665 183.664,-106.38 208.879,-111.478"/>
<polygon fill="midnightblue" stroke="midnightblue" points="125.762,-91.1025 115.267,-92.5512 124.375,-97.9636 125.762,-91.1025"/>
</g>
<!-- Node6 -->
<g id="node6" class="node"><title>Node6</title>
<g id="a_node6"><a xlink:href="classmappel_1_1Gauss1DsModel.html" target="_top" xlink:title="Base class for 1D Gaussian PSF with variable Gaussian sigma (standard deviation) measured in units of...">
<polygon fill="white" stroke="black" points="194.5,-37.5 194.5,-55.5 314.5,-55.5 314.5,-37.5 194.5,-37.5"/>
<text text-anchor="middle" x="254.5" y="-44.3" font-family="Helvetica,sans-Serif" font-size="9.00">mappel::Gauss1DsModel</text>
</a>
</g>
</g>
<!-- Node1&#45;&gt;Node6 -->
<g id="edge5" class="edge"><title>Node1&#45;&gt;Node6</title>
<path fill="none" stroke="midnightblue" d="M125.234,-72.4336C151.942,-67.0335 183.664,-60.6199 208.879,-55.5218"/>
<polygon fill="midnightblue" stroke="midnightblue" points="124.375,-69.0364 115.267,-74.4488 125.762,-75.8975 124.375,-69.0364"/>
</g>
<!-- Node9 -->
<g id="node9" class="node"><title>Node9</title>
<g id="a_node9"><a xlink:href="classmappel_1_1PoissonNoise1DObjective.html" target="_top" xlink:title="A base class for 1D objectives with Poisson read noise. This objective function and its subclasses ar...">
<polygon fill="white" stroke="black" points="175,-74.5 175,-92.5 334,-92.5 334,-74.5 175,-74.5"/>
<text text-anchor="middle" x="254.5" y="-81.3" font-family="Helvetica,sans-Serif" font-size="9.00">mappel::PoissonNoise1DObjective</text>
</a>
</g>
</g>
<!-- Node1&#45;&gt;Node9 -->
<g id="edge8" class="edge"><title>Node1&#45;&gt;Node9</title>
<path fill="none" stroke="midnightblue" d="M149.39,-83.5C157.85,-83.5 166.457,-83.5 174.914,-83.5"/>
<polygon fill="midnightblue" stroke="midnightblue" points="149.163,-80.0001 139.163,-83.5 149.163,-87.0001 149.163,-80.0001"/>
</g>
<!-- Node3 -->
<g id="node3" class="node"><title>Node3</title>
<g id="a_node3"><a xlink:href="classmappel_1_1Gauss1DMAP.html" target="_top" xlink:title="A 1D Gaussian with fixed PSF under an Poisson Read Noise assumption and MAP Objective. ">
<polygon fill="white" stroke="black" points="376.5,-148.5 376.5,-166.5 486.5,-166.5 486.5,-148.5 376.5,-148.5"/>
<text text-anchor="middle" x="431.5" y="-155.3" font-family="Helvetica,sans-Serif" font-size="9.00">mappel::Gauss1DMAP</text>
</a>
</g>
</g>
<!-- Node2&#45;&gt;Node3 -->
<g id="edge2" class="edge"><title>Node2&#45;&gt;Node3</title>
<path fill="none" stroke="midnightblue" d="M308.179,-131.638C333.649,-137.023 363.823,-143.403 387.829,-148.478"/>
<polygon fill="midnightblue" stroke="midnightblue" points="308.818,-128.196 298.31,-129.551 307.37,-135.044 308.818,-128.196"/>
</g>
<!-- Node4 -->
<g id="node4" class="node"><title>Node4</title>
<g id="a_node4"><a xlink:href="classmappel_1_1Gauss1DMLE.html" target="_top" xlink:title="A 1D Gaussian with fixed PSF under an Poisson noise assumption and maximum&#45;likelihood objective...">
<polygon fill="white" stroke="black" points="377,-111.5 377,-129.5 486,-129.5 486,-111.5 377,-111.5"/>
<text text-anchor="middle" x="431.5" y="-118.3" font-family="Helvetica,sans-Serif" font-size="9.00">mappel::Gauss1DMLE</text>
</a>
</g>
</g>
<!-- Node2&#45;&gt;Node4 -->
<g id="edge3" class="edge"><title>Node2&#45;&gt;Node4</title>
<path fill="none" stroke="midnightblue" d="M322.89,-120.5C340.789,-120.5 359.876,-120.5 376.928,-120.5"/>
<polygon fill="midnightblue" stroke="midnightblue" points="322.802,-117 312.802,-120.5 322.802,-124 322.802,-117"/>
</g>
<!-- Node5 -->
<g id="node5" class="node"><title>Node5</title>
<g id="a_node5"><a xlink:href="classmappel_1_1Gauss2DsxyMAP.html" target="_top" xlink:title="A 1D Gaussian with fixed PSF under an Poisson Read Noise assumption and MAP Objective. ">
<polygon fill="white" stroke="black" points="370,-74.5 370,-92.5 493,-92.5 493,-74.5 370,-74.5"/>
<text text-anchor="middle" x="431.5" y="-81.3" font-family="Helvetica,sans-Serif" font-size="9.00">mappel::Gauss2DsxyMAP</text>
</a>
</g>
</g>
<!-- Node2&#45;&gt;Node5 -->
<g id="edge4" class="edge"><title>Node2&#45;&gt;Node5</title>
<path fill="none" stroke="midnightblue" d="M308.179,-109.362C333.649,-103.977 363.823,-97.5974 387.829,-92.5218"/>
<polygon fill="midnightblue" stroke="midnightblue" points="307.37,-105.956 298.31,-111.449 308.818,-112.804 307.37,-105.956"/>
</g>
<!-- Node7 -->
<g id="node7" class="node"><title>Node7</title>
<g id="a_node7"><a xlink:href="classmappel_1_1Gauss1DsMAP.html" target="_top" xlink:title="A 1D Gaussian with variable PSF sigma under an Poisson read noise assumption and MAP Objective...">
<polygon fill="white" stroke="black" points="374.5,-0.5 374.5,-18.5 488.5,-18.5 488.5,-0.5 374.5,-0.5"/>
<text text-anchor="middle" x="431.5" y="-7.3" font-family="Helvetica,sans-Serif" font-size="9.00">mappel::Gauss1DsMAP</text>
</a>
</g>
</g>
<!-- Node6&#45;&gt;Node7 -->
<g id="edge6" class="edge"><title>Node6&#45;&gt;Node7</title>
<path fill="none" stroke="midnightblue" d="M308.179,-35.3622C333.649,-29.9771 363.823,-23.5974 387.829,-18.5218"/>
<polygon fill="midnightblue" stroke="midnightblue" points="307.37,-31.9558 298.31,-37.4488 308.818,-38.8044 307.37,-31.9558"/>
</g>
<!-- Node8 -->
<g id="node8" class="node"><title>Node8</title>
<g id="a_node8"><a xlink:href="classmappel_1_1Gauss1DsMLE.html" target="_top" xlink:title="A 1D Gaussian with variable PSF under an Poisson noise assumption and maximum&#45;likelihood estimator...">
<polygon fill="white" stroke="black" points="375,-37.5 375,-55.5 488,-55.5 488,-37.5 375,-37.5"/>
<text text-anchor="middle" x="431.5" y="-44.3" font-family="Helvetica,sans-Serif" font-size="9.00">mappel::Gauss1DsMLE</text>
</a>
</g>
</g>
<!-- Node6&#45;&gt;Node8 -->
<g id="edge7" class="edge"><title>Node6&#45;&gt;Node8</title>
<path fill="none" stroke="midnightblue" d="M324.93,-46.5C341.509,-46.5 358.993,-46.5 374.858,-46.5"/>
<polygon fill="midnightblue" stroke="midnightblue" points="324.747,-43.0001 314.747,-46.5 324.747,-50.0001 324.747,-43.0001"/>
</g>
<!-- Node9&#45;&gt;Node3 -->
<g id="edge9" class="edge"><title>Node9&#45;&gt;Node3</title>
<path fill="none" stroke="midnightblue" d="M319.837,-95.8497C324.764,-97.7584 329.547,-99.9602 334,-102.5 353.931,-113.866 350.37,-127.622 370,-139.5 376.001,-143.131 382.782,-146.071 389.579,-148.439"/>
<polygon fill="midnightblue" stroke="midnightblue" points="320.828,-92.489 310.233,-92.5289 318.54,-99.1047 320.828,-92.489"/>
</g>
<!-- Node9&#45;&gt;Node4 -->
<g id="edge10" class="edge"><title>Node9&#45;&gt;Node4</title>
<path fill="none" stroke="midnightblue" d="M308.179,-94.6378C333.649,-100.023 363.823,-106.403 387.829,-111.478"/>
<polygon fill="midnightblue" stroke="midnightblue" points="308.818,-91.1956 298.31,-92.5512 307.37,-98.0442 308.818,-91.1956"/>
</g>
<!-- Node9&#45;&gt;Node5 -->
<g id="edge13" class="edge"><title>Node9&#45;&gt;Node5</title>
<path fill="none" stroke="midnightblue" d="M344.195,-83.5C352.856,-83.5 361.501,-83.5 369.79,-83.5"/>
<polygon fill="midnightblue" stroke="midnightblue" points="344.042,-80.0001 334.042,-83.5 344.042,-87.0001 344.042,-80.0001"/>
</g>
<!-- Node9&#45;&gt;Node7 -->
<g id="edge11" class="edge"><title>Node9&#45;&gt;Node7</title>
<path fill="none" stroke="midnightblue" d="M322.577,-71.0169C326.539,-69.3972 330.38,-67.5673 334,-65.5 354.202,-53.9624 350.176,-39.6759 370,-27.5 375.883,-23.8867 382.534,-20.9618 389.22,-18.6051"/>
<polygon fill="midnightblue" stroke="midnightblue" points="321.37,-67.7314 313.16,-74.4279 323.754,-74.3129 321.37,-67.7314"/>
</g>
<!-- Node9&#45;&gt;Node8 -->
<g id="edge12" class="edge"><title>Node9&#45;&gt;Node8</title>
<path fill="none" stroke="midnightblue" d="M308.179,-72.3622C333.649,-66.9771 363.823,-60.5974 387.829,-55.5218"/>
<polygon fill="midnightblue" stroke="midnightblue" points="307.37,-68.9558 298.31,-74.4488 308.818,-75.8044 307.37,-68.9558"/>
</g>
</g>
</svg>
