<?xml version="1.0" encoding="UTF-8" standalone="no"?>
<!DOCTYPE svg PUBLIC "-//W3C//DTD SVG 1.1//EN"
 "http://www.w3.org/Graphics/SVG/1.1/DTD/svg11.dtd">
<!-- Generated by graphviz version 2.38.0 (20140413.2041)
 -->
<!-- Title: mappel::ImageFormat1DBase::set_size Pages: 1 -->
<svg width="303pt" height="84pt"
 viewBox="0.00 0.00 303.00 84.00" xmlns="http://www.w3.org/2000/svg" xmlns:xlink="http://www.w3.org/1999/xlink">
<g id="graph0" class="graph" transform="scale(1 1) rotate(0) translate(4 80)">
<title>mappel::ImageFormat1DBase::set_size</title>
<polygon fill="white" stroke="none" points="-4,4 -4,-80 299,-80 299,4 -4,4"/>
<!-- Node1 -->
<g id="node1" class="node"><title>Node1</title>
<polygon fill="#bfbfbf" stroke="black" points="0,-23.5 0,-51.5 139,-51.5 139,-23.5 0,-23.5"/>
<text text-anchor="start" x="8" y="-40.3" font-family="Helvetica,sans-Serif" font-size="9.00">mappel::ImageFormat1DBase</text>
<text text-anchor="middle" x="69.5" y="-30.3" font-family="Helvetica,sans-Serif" font-size="9.00">::set_size</text>
</g>
<!-- Node2 -->
<g id="node2" class="node"><title>Node2</title>
<g id="a_node2"><a xlink:href="classmappel_1_1Gauss2DModel.html#a8d92d03d6801a59de097d599c798dc79" target="_top" xlink:title="mappel::Gauss2DModel\l::set_size">
<polygon fill="white" stroke="black" points="177,-47.5 177,-75.5 293,-75.5 293,-47.5 177,-47.5"/>
<text text-anchor="start" x="185" y="-64.3" font-family="Helvetica,sans-Serif" font-size="9.00">mappel::Gauss2DModel</text>
<text text-anchor="middle" x="235" y="-54.3" font-family="Helvetica,sans-Serif" font-size="9.00">::set_size</text>
</a>
</g>
</g>
<!-- Node1&#45;&gt;Node2 -->
<g id="edge1" class="edge"><title>Node1&#45;&gt;Node2</title>
<path fill="none" stroke="midnightblue" d="M149.374,-49.0779C158.637,-50.4376 167.949,-51.8045 176.834,-53.1087"/>
<polygon fill="midnightblue" stroke="midnightblue" points="149.767,-45.5981 139.365,-47.6086 148.75,-52.5239 149.767,-45.5981"/>
</g>
<!-- Node3 -->
<g id="node3" class="node"><title>Node3</title>
<g id="a_node3"><a xlink:href="classmappel_1_1Gauss2DsModel.html#a4a95f8c149bd5881e01af5207e30e2e9" target="_top" xlink:title="mappel::Gauss2DsModel\l::set_size">
<polygon fill="white" stroke="black" points="175,-0.5 175,-28.5 295,-28.5 295,-0.5 175,-0.5"/>
<text text-anchor="start" x="183" y="-17.3" font-family="Helvetica,sans-Serif" font-size="9.00">mappel::Gauss2DsModel</text>
<text text-anchor="middle" x="235" y="-7.3" font-family="Helvetica,sans-Serif" font-size="9.00">::set_size</text>
</a>
</g>
</g>
<!-- Node1&#45;&gt;Node3 -->
<g id="edge2" class="edge"><title>Node1&#45;&gt;Node3</title>
<path fill="none" stroke="midnightblue" d="M149.37,-26.4051C157.929,-25.2012 166.53,-23.9913 174.797,-22.8283"/>
<polygon fill="midnightblue" stroke="midnightblue" points="148.78,-22.9536 139.365,-27.8126 149.755,-29.8854 148.78,-22.9536"/>
</g>
</g>
</svg>
