<?xml version="1.0" encoding="UTF-8" standalone="no"?>
<!DOCTYPE svg PUBLIC "-//W3C//DTD SVG 1.1//EN"
 "http://www.w3.org/Graphics/SVG/1.1/DTD/svg11.dtd">
<!-- Generated by graphviz version 2.38.0 (20140413.2041)
 -->
<!-- Title: mappel::PriorMAP1DObjective::set_hyperparameters Pages: 1 -->
<!--zoomable 346 -->
<svg id="main" version="1.1" xmlns="http://www.w3.org/2000/svg" xmlns:xlink="http://www.w3.org/1999/xlink" xml:space="preserve" onload="init(evt)">
<style type="text/css"><![CDATA[
.edge:hover path { stroke: red; }
.edge:hover polygon { stroke: red; fill: red; }
]]></style>
<script type="text/javascript"><![CDATA[
var edges = document.getElementsByTagName('g');
if (edges && edges.length) {
  for (var i=0;i<edges.length;i++) {
    if (edges[i].id.substr(0,4)=='edge') {
      edges[i].setAttribute('class','edge');
    }
  }
}
]]></script>
        <defs>
                <circle id="rim" cx="0" cy="0" r="7"/>
                <circle id="rim2" cx="0" cy="0" r="3.5"/>
                <g id="zoomPlus">
                        <use xlink:href="#rim" fill="#404040">
                                <set attributeName="fill" to="#808080" begin="zoomplus.mouseover" end="zoomplus.mouseout"/>
                        </use>
                        <path d="M-4,0h8M0,-4v8" fill="none" stroke="white" stroke-width="1.5" pointer-events="none"/>
                </g>
                <g id="zoomMin">
                        <use xlink:href="#rim" fill="#404040">
                                <set attributeName="fill" to="#808080" begin="zoomminus.mouseover" end="zoomminus.mouseout"/>
                        </use>
                        <path d="M-4,0h8" fill="none" stroke="white" stroke-width="1.5" pointer-events="none"/>
                </g>
                <g id="dirArrow">
                        <path fill="none" stroke="white" stroke-width="1.5" d="M0,-3.0v7 M-2.5,-0.5L0,-3.0L2.5,-0.5"/>
                </g>
               <g id="resetDef">
                       <use xlink:href="#rim2" fill="#404040">
                               <set attributeName="fill" to="#808080" begin="reset.mouseover" end="reset.mouseout"/>
                       </use>
               </g>
        </defs>

<script type="text/javascript">
var viewWidth = 651;
var viewHeight = 346;
var sectionId = 'dynsection-10';
</script>
<script xlink:href="svgpan.js"/>
<svg id="graph" class="graph">
<g id="viewport">
<title>mappel::PriorMAP1DObjective::set_hyperparameters</title>
<polygon fill="white" stroke="none" points="-4,4 -4,-342 647,-342 647,4 -4,4"/>
<!-- Node1 -->
<g id="node1" class="node"><title>Node1</title>
<polygon fill="#bfbfbf" stroke="black" points="0,-145.5 0,-173.5 141,-173.5 141,-145.5 0,-145.5"/>
<text text-anchor="start" x="8" y="-162.3" font-family="Helvetica,sans-Serif" font-size="9.00">mappel::PriorMAP1DObjective</text>
<text text-anchor="middle" x="70.5" y="-152.3" font-family="Helvetica,sans-Serif" font-size="9.00">::set_hyperparameters</text>
</g>
<!-- Node2 -->
<g id="node2" class="node"><title>Node2</title>
<g id="a_node2"><a xlink:href="namespacemappel_1_1methods_1_1objective.html#a8e120e5a79029803453cea5f9f2d8f67" target="_top" xlink:title="mappel::methods::objective\l::grad">
<polygon fill="white" stroke="black" points="360.5,-309.5 360.5,-337.5 488.5,-337.5 488.5,-309.5 360.5,-309.5"/>
<text text-anchor="start" x="368.5" y="-326.3" font-family="Helvetica,sans-Serif" font-size="9.00">mappel::methods::objective</text>
<text text-anchor="middle" x="424.5" y="-316.3" font-family="Helvetica,sans-Serif" font-size="9.00">::grad</text>
</a>
</g>
</g>
<!-- Node1&#45;&gt;Node2 -->
<g id="edge1" class="edge"><title>Node1&#45;&gt;Node2</title>
<path fill="none" stroke="midnightblue" d="M78.8083,-173.724C93.4278,-200.575 129.033,-258.459 177,-285.5 229.866,-315.303 298.732,-323.863 350.231,-325.507"/>
<polygon fill="midnightblue" stroke="midnightblue" points="350.209,-329.007 360.29,-325.748 350.376,-322.009 350.209,-329.007"/>
</g>
<!-- Node3 -->
<g id="node3" class="node"><title>Node3</title>
<g id="a_node3"><a xlink:href="namespacemappel_1_1methods_1_1objective.html#a165388f45fa850f2b12c22053296a0c2" target="_top" xlink:title="mappel::methods::objective\l::grad2">
<polygon fill="white" stroke="black" points="360.5,-188.5 360.5,-216.5 488.5,-216.5 488.5,-188.5 360.5,-188.5"/>
<text text-anchor="start" x="368.5" y="-205.3" font-family="Helvetica,sans-Serif" font-size="9.00">mappel::methods::objective</text>
<text text-anchor="middle" x="424.5" y="-195.3" font-family="Helvetica,sans-Serif" font-size="9.00">::grad2</text>
</a>
</g>
</g>
<!-- Node1&#45;&gt;Node3 -->
<g id="edge2" class="edge"><title>Node1&#45;&gt;Node3</title>
<path fill="none" stroke="midnightblue" d="M129.285,-173.556C144.712,-176.908 161.425,-180.181 177,-182.5 234.885,-191.119 301.011,-196.229 350.191,-199.124"/>
<polygon fill="midnightblue" stroke="midnightblue" points="350.236,-202.632 360.42,-199.709 350.636,-195.644 350.236,-202.632"/>
</g>
<!-- Node4 -->
<g id="node4" class="node"><title>Node4</title>
<g id="a_node4"><a xlink:href="classmappel_1_1PriorMAP1DObjective.html#af21177beb6afa9a865289f4d49362d55" target="_top" xlink:title="mappel::PriorMAP1DObjective\l::prior_grad2_update">
<polygon fill="white" stroke="black" points="177,-145.5 177,-173.5 318,-173.5 318,-145.5 177,-145.5"/>
<text text-anchor="start" x="185" y="-162.3" font-family="Helvetica,sans-Serif" font-size="9.00">mappel::PriorMAP1DObjective</text>
<text text-anchor="middle" x="247.5" y="-152.3" font-family="Helvetica,sans-Serif" font-size="9.00">::prior_grad2_update</text>
</a>
</g>
</g>
<!-- Node1&#45;&gt;Node4 -->
<g id="edge3" class="edge"><title>Node1&#45;&gt;Node4</title>
<path fill="none" stroke="midnightblue" d="M141.167,-159.5C149.502,-159.5 158.063,-159.5 166.529,-159.5"/>
<polygon fill="midnightblue" stroke="midnightblue" points="166.786,-163 176.786,-159.5 166.786,-156 166.786,-163"/>
</g>
<!-- Node7 -->
<g id="node7" class="node"><title>Node7</title>
<g id="a_node7"><a xlink:href="classmappel_1_1PriorMAP1DObjective.html#ae12cf228193e345f3382bc916e3c60ee" target="_top" xlink:title="mappel::PriorMAP1DObjective\l::prior_grad_update">
<polygon fill="white" stroke="black" points="177,-248.5 177,-276.5 318,-276.5 318,-248.5 177,-248.5"/>
<text text-anchor="start" x="185" y="-265.3" font-family="Helvetica,sans-Serif" font-size="9.00">mappel::PriorMAP1DObjective</text>
<text text-anchor="middle" x="247.5" y="-255.3" font-family="Helvetica,sans-Serif" font-size="9.00">::prior_grad_update</text>
</a>
</g>
</g>
<!-- Node1&#45;&gt;Node7 -->
<g id="edge7" class="edge"><title>Node1&#45;&gt;Node7</title>
<path fill="none" stroke="midnightblue" d="M95.4661,-173.606C126.143,-191.661 179.426,-223.022 213.808,-243.259"/>
<polygon fill="midnightblue" stroke="midnightblue" points="212.15,-246.344 222.543,-248.4 215.7,-240.311 212.15,-246.344"/>
</g>
<!-- Node10 -->
<g id="node10" class="node"><title>Node10</title>
<g id="a_node10"><a xlink:href="classmappel_1_1PriorMAP1DObjective.html#af7dd7f0d9c0ccb34b988e63bd356dcfb" target="_top" xlink:title="mappel::PriorMAP1DObjective\l::prior_hess_update">
<polygon fill="white" stroke="black" points="177,-98.5 177,-126.5 318,-126.5 318,-98.5 177,-98.5"/>
<text text-anchor="start" x="185" y="-115.3" font-family="Helvetica,sans-Serif" font-size="9.00">mappel::PriorMAP1DObjective</text>
<text text-anchor="middle" x="247.5" y="-105.3" font-family="Helvetica,sans-Serif" font-size="9.00">::prior_hess_update</text>
</a>
</g>
</g>
<!-- Node1&#45;&gt;Node10 -->
<g id="edge11" class="edge"><title>Node1&#45;&gt;Node10</title>
<path fill="none" stroke="midnightblue" d="M124.006,-145.398C143.04,-140.286 164.719,-134.464 184.495,-129.153"/>
<polygon fill="midnightblue" stroke="midnightblue" points="185.583,-132.485 194.333,-126.511 183.767,-125.724 185.583,-132.485"/>
</g>
<!-- Node11 -->
<g id="node11" class="node"><title>Node11</title>
<g id="a_node11"><a xlink:href="classmappel_1_1PriorMAP1DObjective.html#a3cb80b4c435d260e1a62ba666fbbb787" target="_top" xlink:title="mappel::PriorMAP1DObjective\l::prior_log_likelihood">
<polygon fill="white" stroke="black" points="177,-12.5 177,-40.5 318,-40.5 318,-12.5 177,-12.5"/>
<text text-anchor="start" x="185" y="-29.3" font-family="Helvetica,sans-Serif" font-size="9.00">mappel::PriorMAP1DObjective</text>
<text text-anchor="middle" x="247.5" y="-19.3" font-family="Helvetica,sans-Serif" font-size="9.00">::prior_log_likelihood</text>
</a>
</g>
</g>
<!-- Node1&#45;&gt;Node11 -->
<g id="edge14" class="edge"><title>Node1&#45;&gt;Node11</title>
<path fill="none" stroke="midnightblue" d="M82.7824,-145.31C100.737,-123.506 137.806,-81.5593 177,-55.5 182.988,-51.5186 189.611,-47.9094 196.32,-44.6962"/>
<polygon fill="midnightblue" stroke="midnightblue" points="197.798,-47.8692 205.47,-40.5623 194.916,-41.4901 197.798,-47.8692"/>
</g>
<!-- Node12 -->
<g id="node12" class="node"><title>Node12</title>
<g id="a_node12"><a xlink:href="classmappel_1_1PriorMAP1DObjective.html#a08683df7a96febdeca35291129291b6d" target="_top" xlink:title="mappel::PriorMAP1DObjective\l::prior_relative_log_likelihood">
<polygon fill="white" stroke="black" points="354,-47.5 354,-75.5 495,-75.5 495,-47.5 354,-47.5"/>
<text text-anchor="start" x="362" y="-64.3" font-family="Helvetica,sans-Serif" font-size="9.00">mappel::PriorMAP1DObjective</text>
<text text-anchor="middle" x="424.5" y="-54.3" font-family="Helvetica,sans-Serif" font-size="9.00">::prior_relative_log_likelihood</text>
</a>
</g>
</g>
<!-- Node1&#45;&gt;Node12 -->
<g id="edge19" class="edge"><title>Node1&#45;&gt;Node12</title>
<path fill="none" stroke="midnightblue" d="M87.2856,-145.211C106.795,-128.474 141.753,-101.395 177,-88.5 230.315,-68.9942 294.111,-62.4196 343.443,-60.6298"/>
<polygon fill="midnightblue" stroke="midnightblue" points="343.852,-64.1191 353.741,-60.3176 343.64,-57.1223 343.852,-64.1191"/>
</g>
<!-- Node4&#45;&gt;Node3 -->
<g id="edge6" class="edge"><title>Node4&#45;&gt;Node3</title>
<path fill="none" stroke="midnightblue" d="M305.802,-173.58C322.051,-177.572 339.883,-181.954 356.644,-186.073"/>
<polygon fill="midnightblue" stroke="midnightblue" points="355.822,-189.475 366.369,-188.462 357.493,-182.677 355.822,-189.475"/>
</g>
<!-- Node5 -->
<g id="node5" class="node"><title>Node5</title>
<g id="a_node5"><a xlink:href="namespacemappel.html#a6a36b8a34be04643747e178a8358251c" target="_top" xlink:title="mappel::beta_prior\l_grad2">
<polygon fill="white" stroke="black" points="377.5,-141.5 377.5,-169.5 471.5,-169.5 471.5,-141.5 377.5,-141.5"/>
<text text-anchor="start" x="385.5" y="-158.3" font-family="Helvetica,sans-Serif" font-size="9.00">mappel::beta_prior</text>
<text text-anchor="middle" x="424.5" y="-148.3" font-family="Helvetica,sans-Serif" font-size="9.00">_grad2</text>
</a>
</g>
</g>
<!-- Node4&#45;&gt;Node5 -->
<g id="edge4" class="edge"><title>Node4&#45;&gt;Node5</title>
<path fill="none" stroke="midnightblue" d="M318.167,-157.908C334.509,-157.534 351.717,-157.141 367.379,-156.783"/>
<polygon fill="midnightblue" stroke="midnightblue" points="367.506,-160.281 377.423,-156.553 367.346,-153.283 367.506,-160.281"/>
</g>
<!-- Node6 -->
<g id="node6" class="node"><title>Node6</title>
<g id="a_node6"><a xlink:href="namespacemappel.html#a09f684e270fef9279b5eabff96e54edb" target="_top" xlink:title="mappel::gamma_prior\l_grad2">
<polygon fill="white" stroke="black" points="371,-94.5 371,-122.5 478,-122.5 478,-94.5 371,-94.5"/>
<text text-anchor="start" x="379" y="-111.3" font-family="Helvetica,sans-Serif" font-size="9.00">mappel::gamma_prior</text>
<text text-anchor="middle" x="424.5" y="-101.3" font-family="Helvetica,sans-Serif" font-size="9.00">_grad2</text>
</a>
</g>
</g>
<!-- Node4&#45;&gt;Node6 -->
<g id="edge5" class="edge"><title>Node4&#45;&gt;Node6</title>
<path fill="none" stroke="midnightblue" d="M296.783,-145.429C318.11,-139.214 343.356,-131.856 365.679,-125.351"/>
<polygon fill="midnightblue" stroke="midnightblue" points="366.753,-128.683 375.375,-122.525 364.795,-121.963 366.753,-128.683"/>
</g>
<!-- Node7&#45;&gt;Node2 -->
<g id="edge10" class="edge"><title>Node7&#45;&gt;Node2</title>
<path fill="none" stroke="midnightblue" d="M286.998,-276.639C306.949,-283.898 331.735,-292.808 354,-300.5 359.464,-302.388 365.18,-304.331 370.887,-306.25"/>
<polygon fill="midnightblue" stroke="midnightblue" points="369.841,-309.591 380.435,-309.443 372.061,-302.952 369.841,-309.591"/>
</g>
<!-- Node8 -->
<g id="node8" class="node"><title>Node8</title>
<g id="a_node8"><a xlink:href="namespacemappel.html#a077bd23f694399652e8e3a3be5758688" target="_top" xlink:title="mappel::beta_prior_grad">
<polygon fill="white" stroke="black" points="365.5,-272.5 365.5,-290.5 483.5,-290.5 483.5,-272.5 365.5,-272.5"/>
<text text-anchor="middle" x="424.5" y="-279.3" font-family="Helvetica,sans-Serif" font-size="9.00">mappel::beta_prior_grad</text>
</a>
</g>
</g>
<!-- Node7&#45;&gt;Node8 -->
<g id="edge8" class="edge"><title>Node7&#45;&gt;Node8</title>
<path fill="none" stroke="midnightblue" d="M318.167,-270.064C330.38,-271.39 343.076,-272.768 355.25,-274.09"/>
<polygon fill="midnightblue" stroke="midnightblue" points="355.011,-277.585 365.33,-275.184 355.766,-270.625 355.011,-277.585"/>
</g>
<!-- Node9 -->
<g id="node9" class="node"><title>Node9</title>
<g id="a_node9"><a xlink:href="namespacemappel.html#a0f4c641d9784a4688faa26c126e28fa2" target="_top" xlink:title="mappel::gamma_prior_grad">
<polygon fill="white" stroke="black" points="359,-235.5 359,-253.5 490,-253.5 490,-235.5 359,-235.5"/>
<text text-anchor="middle" x="424.5" y="-242.3" font-family="Helvetica,sans-Serif" font-size="9.00">mappel::gamma_prior_grad</text>
</a>
</g>
</g>
<!-- Node7&#45;&gt;Node9 -->
<g id="edge9" class="edge"><title>Node7&#45;&gt;Node9</title>
<path fill="none" stroke="midnightblue" d="M318.167,-255.334C328.247,-254.297 338.657,-253.227 348.829,-252.18"/>
<polygon fill="midnightblue" stroke="midnightblue" points="349.313,-255.649 358.903,-251.144 348.597,-248.686 349.313,-255.649"/>
</g>
<!-- Node10&#45;&gt;Node5 -->
<g id="edge12" class="edge"><title>Node10&#45;&gt;Node5</title>
<path fill="none" stroke="midnightblue" d="M305.802,-126.58C325.671,-131.462 347.908,-136.926 367.658,-141.779"/>
<polygon fill="midnightblue" stroke="midnightblue" points="366.885,-145.193 377.431,-144.18 368.555,-138.395 366.885,-145.193"/>
</g>
<!-- Node10&#45;&gt;Node6 -->
<g id="edge13" class="edge"><title>Node10&#45;&gt;Node6</title>
<path fill="none" stroke="midnightblue" d="M318.167,-110.908C332.143,-110.588 346.753,-110.254 360.487,-109.94"/>
<polygon fill="midnightblue" stroke="midnightblue" points="360.877,-113.432 370.794,-109.705 360.717,-106.434 360.877,-113.432"/>
</g>
<!-- Node11&#45;&gt;Node12 -->
<g id="edge15" class="edge"><title>Node11&#45;&gt;Node12</title>
<path fill="none" stroke="midnightblue" d="M318.167,-40.4335C326.594,-42.1188 335.251,-43.8502 343.808,-45.5615"/>
<polygon fill="midnightblue" stroke="midnightblue" points="343.294,-49.0281 353.786,-47.5573 344.667,-42.164 343.294,-49.0281"/>
</g>
<!-- Node15 -->
<g id="node15" class="node"><title>Node15</title>
<g id="a_node15"><a xlink:href="namespacemappel_1_1methods_1_1objective.html#a293c23ed6a623e59477bb67b6e40f5ad" target="_top" xlink:title="mappel::methods::objective\l::rllh">
<polygon fill="white" stroke="black" points="360.5,-0.5 360.5,-28.5 488.5,-28.5 488.5,-0.5 360.5,-0.5"/>
<text text-anchor="start" x="368.5" y="-17.3" font-family="Helvetica,sans-Serif" font-size="9.00">mappel::methods::objective</text>
<text text-anchor="middle" x="424.5" y="-7.3" font-family="Helvetica,sans-Serif" font-size="9.00">::rllh</text>
</a>
</g>
</g>
<!-- Node11&#45;&gt;Node15 -->
<g id="edge18" class="edge"><title>Node11&#45;&gt;Node15</title>
<path fill="none" stroke="midnightblue" d="M318.167,-21.7228C328.713,-20.9997 339.62,-20.2518 350.239,-19.5236"/>
<polygon fill="midnightblue" stroke="midnightblue" points="350.574,-23.0089 360.311,-18.8329 350.095,-16.0253 350.574,-23.0089"/>
</g>
<!-- Node13 -->
<g id="node13" class="node"><title>Node13</title>
<g id="a_node13"><a xlink:href="namespacemappel.html#aba911d3a1a1a486fd6f6dfdfad37d90a" target="_top" xlink:title="mappel::rllh_beta_prior">
<polygon fill="white" stroke="black" points="531,-73.5 531,-91.5 643,-91.5 643,-73.5 531,-73.5"/>
<text text-anchor="middle" x="587" y="-80.3" font-family="Helvetica,sans-Serif" font-size="9.00">mappel::rllh_beta_prior</text>
</a>
</g>
</g>
<!-- Node12&#45;&gt;Node13 -->
<g id="edge16" class="edge"><title>Node12&#45;&gt;Node13</title>
<path fill="none" stroke="midnightblue" d="M495.431,-70.6498C503.839,-71.7499 512.4,-72.8701 520.738,-73.9611"/>
<polygon fill="midnightblue" stroke="midnightblue" points="520.402,-77.4469 530.772,-75.2739 521.311,-70.506 520.402,-77.4469"/>
</g>
<!-- Node14 -->
<g id="node14" class="node"><title>Node14</title>
<g id="a_node14"><a xlink:href="namespacemappel.html#ac76807de851d24f1b720629ad9062cb2" target="_top" xlink:title="mappel::rllh_gamma\l_prior">
<polygon fill="white" stroke="black" points="536.5,-26.5 536.5,-54.5 637.5,-54.5 637.5,-26.5 536.5,-26.5"/>
<text text-anchor="start" x="544.5" y="-43.3" font-family="Helvetica,sans-Serif" font-size="9.00">mappel::rllh_gamma</text>
<text text-anchor="middle" x="587" y="-33.3" font-family="Helvetica,sans-Serif" font-size="9.00">_prior</text>
</a>
</g>
</g>
<!-- Node12&#45;&gt;Node14 -->
<g id="edge17" class="edge"><title>Node12&#45;&gt;Node14</title>
<path fill="none" stroke="midnightblue" d="M495.431,-52.3502C505.588,-51.0212 515.969,-49.663 525.909,-48.3624"/>
<polygon fill="midnightblue" stroke="midnightblue" points="526.618,-51.7995 536.079,-47.0317 525.71,-44.8587 526.618,-51.7995"/>
</g>
</g>
</svg>
        <g id="navigator" transform="translate(0 0)" fill="#404254">
                <rect fill="#f2f5e9" fill-opacity="0.5" stroke="#606060" stroke-width=".5" x="0" y="0" width="60" height="60"/>
                <use id="zoomplus" xlink:href="#zoomPlus" x="17" y="9" onmousedown="handleZoom(evt,'in')"/>
                <use id="zoomminus" xlink:href="#zoomMin" x="42" y="9" onmousedown="handleZoom(evt,'out')"/>
                <use id="reset" xlink:href="#resetDef" x="30" y="36" onmousedown="handleReset()"/>
                <g id="arrowUp" xlink:href="#dirArrow" transform="translate(30 24)" onmousedown="handlePan(0,-1)">
                  <use xlink:href="#rim" fill="#404040">
                        <set attributeName="fill" to="#808080" begin="arrowUp.mouseover" end="arrowUp.mouseout"/>
                  </use>
                  <path fill="none" stroke="white" stroke-width="1.5" d="M0,-3.0v7 M-2.5,-0.5L0,-3.0L2.5,-0.5"/>
                </g>
                <g id="arrowRight" xlink:href="#dirArrow" transform="rotate(90) translate(36 -43)" onmousedown="handlePan(1,0)">
                  <use xlink:href="#rim" fill="#404040">
                        <set attributeName="fill" to="#808080" begin="arrowRight.mouseover" end="arrowRight.mouseout"/>
                  </use>
                  <path fill="none" stroke="white" stroke-width="1.5" d="M0,-3.0v7 M-2.5,-0.5L0,-3.0L2.5,-0.5"/>
                </g>
                <g id="arrowDown" xlink:href="#dirArrow" transform="rotate(180) translate(-30 -48)" onmousedown="handlePan(0,1)">
                  <use xlink:href="#rim" fill="#404040">
                        <set attributeName="fill" to="#808080" begin="arrowDown.mouseover" end="arrowDown.mouseout"/>
                  </use>
                  <path fill="none" stroke="white" stroke-width="1.5" d="M0,-3.0v7 M-2.5,-0.5L0,-3.0L2.5,-0.5"/>
                </g>
                <g id="arrowLeft" xlink:href="#dirArrow" transform="rotate(270) translate(-36 17)" onmousedown="handlePan(-1,0)">
                  <use xlink:href="#rim" fill="#404040">
                        <set attributeName="fill" to="#808080" begin="arrowLeft.mouseover" end="arrowLeft.mouseout"/>
                  </use>
                  <path fill="none" stroke="white" stroke-width="1.5" d="M0,-3.0v7 M-2.5,-0.5L0,-3.0L2.5,-0.5"/>
                </g>
        </g>
        <svg viewBox="0 0 15 15" width="100%" height="30px" preserveAspectRatio="xMaxYMin meet">
         <g id="arrow_out" transform="scale(0.3 0.3)">
          <a xlink:href="classmappel_1_1PriorMAP1DObjective_ac5b20bb93fe2f2eddd75d19bf34283c7_cgraph_org.svg" target="_base">
           <rect id="button" ry="5" rx="5" y="6" x="6" height="38" width="38"
                fill="#f2f5e9" fill-opacity="0.5" stroke="#606060" stroke-width="1.0"/>
           <path id="arrow"
             d="M 11.500037,31.436501 C 11.940474,20.09759 22.043105,11.32322 32.158766,21.979434 L 37.068811,17.246167 C 37.068811,17.246167 37.088388,32 37.088388,32 L 22.160133,31.978069 C 22.160133,31.978069 26.997745,27.140456 26.997745,27.140456 C 18.528582,18.264221 13.291696,25.230495 11.500037,31.436501 z"
             style="fill:#404040;"/>
          </a>
         </g>
        </svg>
</svg>
