<?xml version="1.0" encoding="UTF-8" standalone="no"?>
<!DOCTYPE svg PUBLIC "-//W3C//DTD SVG 1.1//EN"
 "http://www.w3.org/Graphics/SVG/1.1/DTD/svg11.dtd">
<!-- Generated by graphviz version 2.38.0 (20140413.2041)
 -->
<!-- Title: mappel::Gauss2DsModel::compute_max_sigma_ratio Pages: 1 -->
<svg width="296pt" height="188pt"
 viewBox="0.00 0.00 296.00 188.00" xmlns="http://www.w3.org/2000/svg" xmlns:xlink="http://www.w3.org/1999/xlink">
<g id="graph0" class="graph" transform="scale(1 1) rotate(0) translate(4 184)">
<title>mappel::Gauss2DsModel::compute_max_sigma_ratio</title>
<polygon fill="white" stroke="none" points="-4,4 -4,-184 292,-184 292,4 -4,4"/>
<!-- Node1 -->
<g id="node1" class="node"><title>Node1</title>
<polygon fill="#bfbfbf" stroke="black" points="0,-70.5 0,-98.5 132,-98.5 132,-70.5 0,-70.5"/>
<text text-anchor="start" x="8" y="-87.3" font-family="Helvetica,sans-Serif" font-size="9.00">mappel::Gauss2DsModel</text>
<text text-anchor="middle" x="66" y="-77.3" font-family="Helvetica,sans-Serif" font-size="9.00">::compute_max_sigma_ratio</text>
</g>
<!-- Node2 -->
<g id="node2" class="node"><title>Node2</title>
<g id="a_node2"><a xlink:href="classmappel_1_1Gauss2DsModel.html#a2ce4737beb88367daeb480bf471ad2cf" target="_top" xlink:title="mappel::Gauss2DsModel\l::debug_internal_sum\l_model_y">
<polygon fill="white" stroke="black" points="168,-141.5 168,-179.5 288,-179.5 288,-141.5 168,-141.5"/>
<text text-anchor="start" x="176" y="-168.3" font-family="Helvetica,sans-Serif" font-size="9.00">mappel::Gauss2DsModel</text>
<text text-anchor="start" x="176" y="-158.3" font-family="Helvetica,sans-Serif" font-size="9.00">::debug_internal_sum</text>
<text text-anchor="middle" x="228" y="-148.3" font-family="Helvetica,sans-Serif" font-size="9.00">_model_y</text>
</a>
</g>
</g>
<!-- Node1&#45;&gt;Node2 -->
<g id="edge1" class="edge"><title>Node1&#45;&gt;Node2</title>
<path fill="none" stroke="midnightblue" d="M105.751,-102.922C124.544,-111.855 147.447,-122.739 168,-132.5 174.043,-135.37 180.434,-138.404 186.692,-141.374"/>
<polygon fill="midnightblue" stroke="midnightblue" points="107.142,-99.7085 96.6082,-98.5765 104.137,-106.031 107.142,-99.7085"/>
</g>
<!-- Node3 -->
<g id="node3" class="node"><title>Node3</title>
<g id="a_node3"><a xlink:href="classmappel_1_1Gauss2DsMAP.html#a3060b21e1ba0df3195cc8887919d44ac" target="_top" xlink:title="mappel::Gauss2DsMAP\l::Gauss2DsMAP">
<polygon fill="white" stroke="black" points="171,-94.5 171,-122.5 285,-122.5 285,-94.5 171,-94.5"/>
<text text-anchor="start" x="179" y="-111.3" font-family="Helvetica,sans-Serif" font-size="9.00">mappel::Gauss2DsMAP</text>
<text text-anchor="middle" x="228" y="-101.3" font-family="Helvetica,sans-Serif" font-size="9.00">::Gauss2DsMAP</text>
</a>
</g>
</g>
<!-- Node1&#45;&gt;Node3 -->
<g id="edge2" class="edge"><title>Node1&#45;&gt;Node3</title>
<path fill="none" stroke="midnightblue" d="M142.131,-95.7697C151.835,-97.2252 161.634,-98.6951 170.955,-100.093"/>
<polygon fill="midnightblue" stroke="midnightblue" points="142.487,-92.2839 132.078,-94.2617 141.448,-99.2065 142.487,-92.2839"/>
</g>
<!-- Node4 -->
<g id="node4" class="node"><title>Node4</title>
<g id="a_node4"><a xlink:href="classmappel_1_1Gauss2DsMLE.html#a3151cb0e1936aaeacee80da0feb0231c" target="_top" xlink:title="mappel::Gauss2DsMLE\l::Gauss2DsMLE">
<polygon fill="white" stroke="black" points="171.5,-47.5 171.5,-75.5 284.5,-75.5 284.5,-47.5 171.5,-47.5"/>
<text text-anchor="start" x="179.5" y="-64.3" font-family="Helvetica,sans-Serif" font-size="9.00">mappel::Gauss2DsMLE</text>
<text text-anchor="middle" x="228" y="-54.3" font-family="Helvetica,sans-Serif" font-size="9.00">::Gauss2DsMLE</text>
</a>
</g>
</g>
<!-- Node1&#45;&gt;Node4 -->
<g id="edge3" class="edge"><title>Node1&#45;&gt;Node4</title>
<path fill="none" stroke="midnightblue" d="M142.267,-73.6804C152.102,-72.2666 162.032,-70.8391 171.461,-69.4838"/>
<polygon fill="midnightblue" stroke="midnightblue" points="141.478,-70.2577 132.078,-75.145 142.474,-77.1865 141.478,-70.2577"/>
</g>
<!-- Node5 -->
<g id="node5" class="node"><title>Node5</title>
<g id="a_node5"><a xlink:href="classmappel_1_1Gauss2DsModel.html#a8ef1bc0d4dc27247d88ff2c7300a149d" target="_top" xlink:title="mappel::Gauss2DsModel\l::set_max_sigma">
<polygon fill="white" stroke="black" points="168,-0.5 168,-28.5 288,-28.5 288,-0.5 168,-0.5"/>
<text text-anchor="start" x="176" y="-17.3" font-family="Helvetica,sans-Serif" font-size="9.00">mappel::Gauss2DsModel</text>
<text text-anchor="middle" x="228" y="-7.3" font-family="Helvetica,sans-Serif" font-size="9.00">::set_max_sigma</text>
</a>
</g>
</g>
<!-- Node1&#45;&gt;Node5 -->
<g id="edge4" class="edge"><title>Node1&#45;&gt;Node5</title>
<path fill="none" stroke="midnightblue" d="M105.999,-66.287C124.678,-57.6795 147.413,-47.3708 168,-38.5 175.617,-35.218 183.834,-31.7992 191.647,-28.6053"/>
<polygon fill="midnightblue" stroke="midnightblue" points="104.517,-63.1159 96.9086,-70.4888 107.454,-69.4699 104.517,-63.1159"/>
</g>
</g>
</svg>
