<?xml version="1.0" encoding="UTF-8" standalone="no"?>
<!DOCTYPE svg PUBLIC "-//W3C//DTD SVG 1.1//EN"
 "http://www.w3.org/Graphics/SVG/1.1/DTD/svg11.dtd">
<!-- Generated by graphviz version 2.38.0 (20140413.2041)
 -->
<!-- Title: mappel::TrustRegionMaximizer::compute_bound_scaling_vec Pages: 1 -->
<svg width="314pt" height="74pt"
 viewBox="0.00 0.00 314.00 74.00" xmlns="http://www.w3.org/2000/svg" xmlns:xlink="http://www.w3.org/1999/xlink">
<g id="graph0" class="graph" transform="scale(1 1) rotate(0) translate(4 70)">
<title>mappel::TrustRegionMaximizer::compute_bound_scaling_vec</title>
<polygon fill="white" stroke="none" points="-4,4 -4,-70 310,-70 310,4 -4,4"/>
<!-- Node1 -->
<g id="node1" class="node"><title>Node1</title>
<polygon fill="#bfbfbf" stroke="black" points="0,-21.5 0,-49.5 144,-49.5 144,-21.5 0,-21.5"/>
<text text-anchor="start" x="8" y="-38.3" font-family="Helvetica,sans-Serif" font-size="9.00">mappel::TrustRegionMaximizer</text>
<text text-anchor="middle" x="72" y="-28.3" font-family="Helvetica,sans-Serif" font-size="9.00">::compute_bound_scaling_vec</text>
</g>
<!-- Node2 -->
<g id="node2" class="node"><title>Node2</title>
<g id="a_node2"><a xlink:href="namespacemappel.html#a0afb4ee3661d53a85a1091164f27a8fb" target="_top" xlink:title="sign (signum) function: &#45;1/0/1 ">
<polygon fill="white" stroke="black" points="209.5,-47.5 209.5,-65.5 276.5,-65.5 276.5,-47.5 209.5,-47.5"/>
<text text-anchor="middle" x="243" y="-54.3" font-family="Helvetica,sans-Serif" font-size="9.00">mappel::sgn</text>
</a>
</g>
</g>
<!-- Node1&#45;&gt;Node2 -->
<g id="edge1" class="edge"><title>Node1&#45;&gt;Node2</title>
<path fill="none" stroke="midnightblue" d="M144.181,-44.345C162.857,-46.6657 182.424,-49.097 199.107,-51.17"/>
<polygon fill="midnightblue" stroke="midnightblue" points="198.732,-54.6504 209.088,-52.4103 199.596,-47.7038 198.732,-54.6504"/>
</g>
<!-- Node3 -->
<g id="node3" class="node"><title>Node3</title>
<g id="a_node3"><a xlink:href="classmappel_1_1IterativeMaximizer_1_1MaximizerData.html#ac6ed5231a1ac2f4bfdd51a2800212fea" target="_top" xlink:title="Get the current stencil&#39;s theta. ">
<polygon fill="white" stroke="black" points="180,-0.5 180,-28.5 306,-28.5 306,-0.5 180,-0.5"/>
<text text-anchor="start" x="188" y="-17.3" font-family="Helvetica,sans-Serif" font-size="9.00">mappel::IterativeMaximizer</text>
<text text-anchor="middle" x="243" y="-7.3" font-family="Helvetica,sans-Serif" font-size="9.00">::MaximizerData::theta</text>
</a>
</g>
</g>
<!-- Node1&#45;&gt;Node3 -->
<g id="edge2" class="edge"><title>Node1&#45;&gt;Node3</title>
<path fill="none" stroke="midnightblue" d="M144.181,-26.655C152.583,-25.611 161.164,-24.5447 169.582,-23.4986"/>
<polygon fill="midnightblue" stroke="midnightblue" points="170.255,-26.9421 179.747,-22.2356 169.391,-19.9955 170.255,-26.9421"/>
</g>
</g>
</svg>
