<?xml version="1.0" encoding="UTF-8" standalone="no"?>
<!DOCTYPE svg PUBLIC "-//W3C//DTD SVG 1.1//EN"
 "http://www.w3.org/Graphics/SVG/1.1/DTD/svg11.dtd">
<!-- Generated by graphviz version 2.38.0 (20140413.2041)
 -->
<!-- Title: mappel::MAPEstimator::operator= Pages: 1 -->
<svg width="268pt" height="178pt"
 viewBox="0.00 0.00 268.00 178.00" xmlns="http://www.w3.org/2000/svg" xmlns:xlink="http://www.w3.org/1999/xlink">
<g id="graph0" class="graph" transform="scale(1 1) rotate(0) translate(4 174)">
<title>mappel::MAPEstimator::operator=</title>
<polygon fill="white" stroke="none" points="-4,4 -4,-174 264,-174 264,4 -4,4"/>
<!-- Node1 -->
<g id="node1" class="node"><title>Node1</title>
<polygon fill="#bfbfbf" stroke="black" points="0,-70.5 0,-98.5 110,-98.5 110,-70.5 0,-70.5"/>
<text text-anchor="start" x="8" y="-87.3" font-family="Helvetica,sans-Serif" font-size="9.00">mappel::MAPEstimator</text>
<text text-anchor="middle" x="55" y="-77.3" font-family="Helvetica,sans-Serif" font-size="9.00">::operator=</text>
</g>
<!-- Node2 -->
<g id="node2" class="node"><title>Node2</title>
<g id="a_node2"><a xlink:href="classmappel_1_1Gauss1DMAP.html#afec3cf3e6adcd8b73100e9dc121198b7" target="_top" xlink:title="mappel::Gauss1DMAP\l::operator=">
<polygon fill="white" stroke="black" points="148,-141.5 148,-169.5 258,-169.5 258,-141.5 148,-141.5"/>
<text text-anchor="start" x="156" y="-158.3" font-family="Helvetica,sans-Serif" font-size="9.00">mappel::Gauss1DMAP</text>
<text text-anchor="middle" x="203" y="-148.3" font-family="Helvetica,sans-Serif" font-size="9.00">::operator=</text>
</a>
</g>
</g>
<!-- Node1&#45;&gt;Node2 -->
<g id="edge1" class="edge"><title>Node1&#45;&gt;Node2</title>
<path fill="none" stroke="midnightblue" d="M89.7271,-103.521C106.451,-112.686 127.073,-123.593 146,-132.5 152.467,-135.543 159.449,-138.592 166.217,-141.43"/>
<polygon fill="midnightblue" stroke="midnightblue" points="91.319,-100.402 80.873,-98.6327 87.9355,-106.53 91.319,-100.402"/>
</g>
<!-- Node3 -->
<g id="node3" class="node"><title>Node3</title>
<g id="a_node3"><a xlink:href="classmappel_1_1Gauss1DsMAP.html#afb1fe11ca22dd139f873256f7fb6c960" target="_top" xlink:title="mappel::Gauss1DsMAP\l::operator=">
<polygon fill="white" stroke="black" points="146,-94.5 146,-122.5 260,-122.5 260,-94.5 146,-94.5"/>
<text text-anchor="start" x="154" y="-111.3" font-family="Helvetica,sans-Serif" font-size="9.00">mappel::Gauss1DsMAP</text>
<text text-anchor="middle" x="203" y="-101.3" font-family="Helvetica,sans-Serif" font-size="9.00">::operator=</text>
</a>
</g>
</g>
<!-- Node1&#45;&gt;Node3 -->
<g id="edge2" class="edge"><title>Node1&#45;&gt;Node3</title>
<path fill="none" stroke="midnightblue" d="M120.484,-95.1002C128.867,-96.4781 137.401,-97.8811 145.637,-99.2349"/>
<polygon fill="midnightblue" stroke="midnightblue" points="120.8,-91.6052 110.365,-93.4367 119.665,-98.5125 120.8,-91.6052"/>
</g>
<!-- Node4 -->
<g id="node4" class="node"><title>Node4</title>
<g id="a_node4"><a xlink:href="classmappel_1_1Gauss2DsMAP.html#ae9a68cb6e29b130082f4e4cf93dfe734" target="_top" xlink:title="mappel::Gauss2DsMAP\l::operator=">
<polygon fill="white" stroke="black" points="146,-47.5 146,-75.5 260,-75.5 260,-47.5 146,-47.5"/>
<text text-anchor="start" x="154" y="-64.3" font-family="Helvetica,sans-Serif" font-size="9.00">mappel::Gauss2DsMAP</text>
<text text-anchor="middle" x="203" y="-54.3" font-family="Helvetica,sans-Serif" font-size="9.00">::operator=</text>
</a>
</g>
</g>
<!-- Node1&#45;&gt;Node4 -->
<g id="edge3" class="edge"><title>Node1&#45;&gt;Node4</title>
<path fill="none" stroke="midnightblue" d="M120.484,-74.3415C128.867,-73.021 137.401,-71.6765 145.637,-70.379"/>
<polygon fill="midnightblue" stroke="midnightblue" points="119.699,-70.9221 110.365,-75.9356 120.788,-77.8368 119.699,-70.9221"/>
</g>
<!-- Node5 -->
<g id="node5" class="node"><title>Node5</title>
<g id="a_node5"><a xlink:href="classmappel_1_1Gauss2DMAP.html#a45164f58c91c8eefffc0df248a7e8b7e" target="_top" xlink:title="mappel::Gauss2DMAP\l::operator=">
<polygon fill="white" stroke="black" points="148,-0.5 148,-28.5 258,-28.5 258,-0.5 148,-0.5"/>
<text text-anchor="start" x="156" y="-17.3" font-family="Helvetica,sans-Serif" font-size="9.00">mappel::Gauss2DMAP</text>
<text text-anchor="middle" x="203" y="-7.3" font-family="Helvetica,sans-Serif" font-size="9.00">::operator=</text>
</a>
</g>
</g>
<!-- Node1&#45;&gt;Node5 -->
<g id="edge4" class="edge"><title>Node1&#45;&gt;Node5</title>
<path fill="none" stroke="midnightblue" d="M91.7724,-65.5144C108.171,-56.9932 127.94,-46.9737 146,-38.5 153.086,-35.1753 160.755,-31.7673 168.077,-28.602"/>
<polygon fill="midnightblue" stroke="midnightblue" points="89.7876,-62.6024 82.5452,-70.3354 93.0292,-68.8066 89.7876,-62.6024"/>
</g>
</g>
</svg>
