<?xml version="1.0" encoding="UTF-8" standalone="no"?>
<!DOCTYPE svg PUBLIC "-//W3C//DTD SVG 1.1//EN"
 "http://www.w3.org/Graphics/SVG/1.1/DTD/svg11.dtd">
<!-- Generated by graphviz version 2.38.0 (20140413.2041)
 -->
<!-- Title: mappel::PoissonNoise2DObjective Pages: 1 -->
<svg width="510pt" height="137pt"
 viewBox="0.00 0.00 509.50 137.00" xmlns="http://www.w3.org/2000/svg" xmlns:xlink="http://www.w3.org/1999/xlink">
<g id="graph0" class="graph" transform="scale(1 1) rotate(0) translate(4 133)">
<title>mappel::PoissonNoise2DObjective</title>
<polygon fill="white" stroke="none" points="-4,4 -4,-133 505.5,-133 505.5,4 -4,4"/>
<!-- Node1 -->
<g id="node1" class="node"><title>Node1</title>
<polygon fill="#bfbfbf" stroke="black" points="168.5,-55.5 168.5,-73.5 327.5,-73.5 327.5,-55.5 168.5,-55.5"/>
<text text-anchor="middle" x="248" y="-62.3" font-family="Helvetica,sans-Serif" font-size="9.00">mappel::PoissonNoise2DObjective</text>
</g>
<!-- Node3 -->
<g id="node3" class="node"><title>Node3</title>
<g id="a_node3"><a xlink:href="classmappel_1_1Gauss2DMAP.html" target="_top" xlink:title="A 2D Gaussian with fixed PSF under an Poisson Read Noise assumption and MAP Objective. ">
<polygon fill="white" stroke="black" points="0,-0.5 0,-18.5 110,-18.5 110,-0.5 0,-0.5"/>
<text text-anchor="middle" x="55" y="-7.3" font-family="Helvetica,sans-Serif" font-size="9.00">mappel::Gauss2DMAP</text>
</a>
</g>
</g>
<!-- Node1&#45;&gt;Node3 -->
<g id="edge2" class="edge"><title>Node1&#45;&gt;Node3</title>
<path fill="none" stroke="midnightblue" d="M208.78,-52.7297C171.894,-42.6003 117.508,-27.6655 84.2716,-18.5383"/>
<polygon fill="midnightblue" stroke="midnightblue" points="208.118,-56.1773 218.687,-55.4504 209.971,-49.4272 208.118,-56.1773"/>
</g>
<!-- Node4 -->
<g id="node4" class="node"><title>Node4</title>
<g id="a_node4"><a xlink:href="classmappel_1_1Gauss2DMLE.html" target="_top" xlink:title="A 2D Gaussian with fixed PSF under an Poisson noise assumption and maximum&#45;likelihood objective...">
<polygon fill="white" stroke="black" points="128.5,-0.5 128.5,-18.5 237.5,-18.5 237.5,-0.5 128.5,-0.5"/>
<text text-anchor="middle" x="183" y="-7.3" font-family="Helvetica,sans-Serif" font-size="9.00">mappel::Gauss2DMLE</text>
</a>
</g>
</g>
<!-- Node1&#45;&gt;Node4 -->
<g id="edge3" class="edge"><title>Node1&#45;&gt;Node4</title>
<path fill="none" stroke="midnightblue" d="M230.126,-48.9259C218.152,-39.1622 202.83,-26.6693 192.965,-18.6253"/>
<polygon fill="midnightblue" stroke="midnightblue" points="228.166,-51.8436 238.128,-55.4504 232.589,-46.4184 228.166,-51.8436"/>
</g>
<!-- Node5 -->
<g id="node5" class="node"><title>Node5</title>
<g id="a_node5"><a xlink:href="classmappel_1_1Gauss2DsMAP.html" target="_top" xlink:title="A 2D Gaussian with a variable scalar PSF sigma under a Poisson noise assumption using a maximum a&#45;pos...">
<polygon fill="white" stroke="black" points="256,-0.5 256,-18.5 370,-18.5 370,-0.5 256,-0.5"/>
<text text-anchor="middle" x="313" y="-7.3" font-family="Helvetica,sans-Serif" font-size="9.00">mappel::Gauss2DsMAP</text>
</a>
</g>
</g>
<!-- Node1&#45;&gt;Node5 -->
<g id="edge4" class="edge"><title>Node1&#45;&gt;Node5</title>
<path fill="none" stroke="midnightblue" d="M265.874,-48.9259C277.848,-39.1622 293.17,-26.6693 303.035,-18.6253"/>
<polygon fill="midnightblue" stroke="midnightblue" points="263.411,-46.4184 257.872,-55.4504 267.834,-51.8436 263.411,-46.4184"/>
</g>
<!-- Node6 -->
<g id="node6" class="node"><title>Node6</title>
<g id="a_node6"><a xlink:href="classmappel_1_1Gauss2DsMLE.html" target="_top" xlink:title="A 2D Gaussian with a variable scalar PSF sigma under a Poisson noise assumption using a maximum&#45;likel...">
<polygon fill="white" stroke="black" points="388.5,-0.5 388.5,-18.5 501.5,-18.5 501.5,-0.5 388.5,-0.5"/>
<text text-anchor="middle" x="445" y="-7.3" font-family="Helvetica,sans-Serif" font-size="9.00">mappel::Gauss2DsMLE</text>
</a>
</g>
</g>
<!-- Node1&#45;&gt;Node6 -->
<g id="edge5" class="edge"><title>Node1&#45;&gt;Node6</title>
<path fill="none" stroke="midnightblue" d="M288.033,-52.7297C325.684,-42.6003 381.196,-27.6655 415.122,-18.5383"/>
<polygon fill="midnightblue" stroke="midnightblue" points="286.667,-49.4726 277.92,-55.4504 288.486,-56.2322 286.667,-49.4726"/>
</g>
<!-- Node2 -->
<g id="node2" class="node"><title>Node2</title>
<g id="a_node2"><a xlink:href="classmappel_1_1ImageFormat2DBase.html" target="_top" xlink:title="A virtual base class for 2D image localization objectives. ">
<polygon fill="white" stroke="black" points="178.5,-110.5 178.5,-128.5 317.5,-128.5 317.5,-110.5 178.5,-110.5"/>
<text text-anchor="middle" x="248" y="-117.3" font-family="Helvetica,sans-Serif" font-size="9.00">mappel::ImageFormat2DBase</text>
</a>
</g>
</g>
<!-- Node2&#45;&gt;Node1 -->
<g id="edge1" class="edge"><title>Node2&#45;&gt;Node1</title>
<path fill="none" stroke="midnightblue" d="M248,-100.175C248,-91.0945 248,-80.5949 248,-73.5496"/>
<polygon fill="midnightblue" stroke="midnightblue" points="244.5,-100.219 248,-110.219 251.5,-100.219 244.5,-100.219"/>
</g>
</g>
</svg>
