<?xml version="1.0" encoding="UTF-8" standalone="no"?>
<!DOCTYPE svg PUBLIC "-//W3C//DTD SVG 1.1//EN"
 "http://www.w3.org/Graphics/SVG/1.1/DTD/svg11.dtd">
<!-- Generated by graphviz version 2.38.0 (20140413.2041)
 -->
<!-- Title: mappel::IterativeMaximizer&lt; Model &gt; Pages: 1 -->
<!--zoomable 178 -->
<svg id="main" version="1.1" xmlns="http://www.w3.org/2000/svg" xmlns:xlink="http://www.w3.org/1999/xlink" xml:space="preserve" onload="init(evt)">
<style type="text/css"><![CDATA[
.edge:hover path { stroke: red; }
.edge:hover polygon { stroke: red; fill: red; }
]]></style>
<script type="text/javascript"><![CDATA[
var edges = document.getElementsByTagName('g');
if (edges && edges.length) {
  for (var i=0;i<edges.length;i++) {
    if (edges[i].id.substr(0,4)=='edge') {
      edges[i].setAttribute('class','edge');
    }
  }
}
]]></script>
        <defs>
                <circle id="rim" cx="0" cy="0" r="7"/>
                <circle id="rim2" cx="0" cy="0" r="3.5"/>
                <g id="zoomPlus">
                        <use xlink:href="#rim" fill="#404040">
                                <set attributeName="fill" to="#808080" begin="zoomplus.mouseover" end="zoomplus.mouseout"/>
                        </use>
                        <path d="M-4,0h8M0,-4v8" fill="none" stroke="white" stroke-width="1.5" pointer-events="none"/>
                </g>
                <g id="zoomMin">
                        <use xlink:href="#rim" fill="#404040">
                                <set attributeName="fill" to="#808080" begin="zoomminus.mouseover" end="zoomminus.mouseout"/>
                        </use>
                        <path d="M-4,0h8" fill="none" stroke="white" stroke-width="1.5" pointer-events="none"/>
                </g>
                <g id="dirArrow">
                        <path fill="none" stroke="white" stroke-width="1.5" d="M0,-3.0v7 M-2.5,-0.5L0,-3.0L2.5,-0.5"/>
                </g>
               <g id="resetDef">
                       <use xlink:href="#rim2" fill="#404040">
                               <set attributeName="fill" to="#808080" begin="reset.mouseover" end="reset.mouseout"/>
                       </use>
               </g>
        </defs>

<script type="text/javascript">
var viewWidth = 630;
var viewHeight = 178;
var sectionId = 'dynsection-0';
</script>
<script xlink:href="svgpan.js"/>
<svg id="graph" class="graph">
<g id="viewport">
<title>mappel::IterativeMaximizer&lt; Model &gt;</title>
<polygon fill="white" stroke="none" points="-4,4 -4,-174 626,-174 626,4 -4,4"/>
<!-- Node1 -->
<g id="node1" class="node"><title>Node1</title>
<polygon fill="#bfbfbf" stroke="black" points="297,-70.5 297,-98.5 423,-98.5 423,-70.5 297,-70.5"/>
<text text-anchor="start" x="305" y="-87.3" font-family="Helvetica,sans-Serif" font-size="9.00">mappel::IterativeMaximizer</text>
<text text-anchor="middle" x="360" y="-77.3" font-family="Helvetica,sans-Serif" font-size="9.00">&lt; Model &gt;</text>
</g>
<!-- Node4 -->
<g id="node4" class="node"><title>Node4</title>
<g id="a_node4"><a xlink:href="classmappel_1_1NewtonDiagonalMaximizer.html" target="_top" xlink:title="mappel::NewtonDiagonalMaximizer\l\&lt; Model \&gt;">
<polygon fill="white" stroke="black" points="459,-141.5 459,-169.5 622,-169.5 622,-141.5 459,-141.5"/>
<text text-anchor="start" x="467" y="-158.3" font-family="Helvetica,sans-Serif" font-size="9.00">mappel::NewtonDiagonalMaximizer</text>
<text text-anchor="middle" x="540.5" y="-148.3" font-family="Helvetica,sans-Serif" font-size="9.00">&lt; Model &gt;</text>
</a>
</g>
</g>
<!-- Node1&#45;&gt;Node4 -->
<g id="edge3" class="edge"><title>Node1&#45;&gt;Node4</title>
<path fill="none" stroke="midnightblue" d="M395.559,-103.294C414.03,-112.858 437.366,-124.187 459,-132.5 467.412,-135.732 476.471,-138.748 485.371,-141.463"/>
<polygon fill="midnightblue" stroke="midnightblue" points="397.126,-100.164 386.644,-98.6204 393.876,-106.364 397.126,-100.164"/>
</g>
<!-- Node5 -->
<g id="node5" class="node"><title>Node5</title>
<g id="a_node5"><a xlink:href="classmappel_1_1NewtonMaximizer.html" target="_top" xlink:title="mappel::NewtonMaximizer\l\&lt; Model \&gt;">
<polygon fill="white" stroke="black" points="478,-94.5 478,-122.5 603,-122.5 603,-94.5 478,-94.5"/>
<text text-anchor="start" x="486" y="-111.3" font-family="Helvetica,sans-Serif" font-size="9.00">mappel::NewtonMaximizer</text>
<text text-anchor="middle" x="540.5" y="-101.3" font-family="Helvetica,sans-Serif" font-size="9.00">&lt; Model &gt;</text>
</a>
</g>
</g>
<!-- Node1&#45;&gt;Node5 -->
<g id="edge4" class="edge"><title>Node1&#45;&gt;Node5</title>
<path fill="none" stroke="midnightblue" d="M433.286,-94.2191C448.062,-96.2057 463.481,-98.279 477.844,-100.21"/>
<polygon fill="midnightblue" stroke="midnightblue" points="433.557,-90.7242 423.18,-92.8603 432.624,-97.6618 433.557,-90.7242"/>
</g>
<!-- Node6 -->
<g id="node6" class="node"><title>Node6</title>
<g id="a_node6"><a xlink:href="classmappel_1_1QuasiNewtonMaximizer.html" target="_top" xlink:title="mappel::QuasiNewtonMaximizer\l\&lt; Model \&gt;">
<polygon fill="white" stroke="black" points="466,-47.5 466,-75.5 615,-75.5 615,-47.5 466,-47.5"/>
<text text-anchor="start" x="474" y="-64.3" font-family="Helvetica,sans-Serif" font-size="9.00">mappel::QuasiNewtonMaximizer</text>
<text text-anchor="middle" x="540.5" y="-54.3" font-family="Helvetica,sans-Serif" font-size="9.00">&lt; Model &gt;</text>
</a>
</g>
</g>
<!-- Node1&#45;&gt;Node6 -->
<g id="edge5" class="edge"><title>Node1&#45;&gt;Node6</title>
<path fill="none" stroke="midnightblue" d="M433.341,-75.1787C444.07,-73.7963 455.137,-72.3703 465.891,-70.9846"/>
<polygon fill="midnightblue" stroke="midnightblue" points="432.651,-71.7387 423.18,-76.488 433.545,-78.6813 432.651,-71.7387"/>
</g>
<!-- Node7 -->
<g id="node7" class="node"><title>Node7</title>
<g id="a_node7"><a xlink:href="classmappel_1_1TrustRegionMaximizer.html" target="_top" xlink:title="mappel::TrustRegionMaximizer\l\&lt; Model \&gt;">
<polygon fill="white" stroke="black" points="468.5,-0.5 468.5,-28.5 612.5,-28.5 612.5,-0.5 468.5,-0.5"/>
<text text-anchor="start" x="476.5" y="-17.3" font-family="Helvetica,sans-Serif" font-size="9.00">mappel::TrustRegionMaximizer</text>
<text text-anchor="middle" x="540.5" y="-7.3" font-family="Helvetica,sans-Serif" font-size="9.00">&lt; Model &gt;</text>
</a>
</g>
</g>
<!-- Node1&#45;&gt;Node7 -->
<g id="edge6" class="edge"><title>Node1&#45;&gt;Node7</title>
<path fill="none" stroke="midnightblue" d="M396.243,-65.8152C414.623,-56.5306 437.668,-45.5965 459,-37.5 467.425,-34.3023 476.491,-31.3044 485.393,-28.5971"/>
<polygon fill="midnightblue" stroke="midnightblue" points="394.399,-62.8267 387.09,-70.4964 397.587,-69.0589 394.399,-62.8267"/>
</g>
<!-- Node2 -->
<g id="node2" class="node"><title>Node2</title>
<g id="a_node2"><a xlink:href="classmappel_1_1ThreadedEstimator.html" target="_top" xlink:title="mappel::ThreadedEstimator\l\&lt; Model \&gt;">
<polygon fill="white" stroke="black" points="131,-70.5 131,-98.5 261,-98.5 261,-70.5 131,-70.5"/>
<text text-anchor="start" x="139" y="-87.3" font-family="Helvetica,sans-Serif" font-size="9.00">mappel::ThreadedEstimator</text>
<text text-anchor="middle" x="196" y="-77.3" font-family="Helvetica,sans-Serif" font-size="9.00">&lt; Model &gt;</text>
</a>
</g>
</g>
<!-- Node2&#45;&gt;Node1 -->
<g id="edge1" class="edge"><title>Node2&#45;&gt;Node1</title>
<path fill="none" stroke="midnightblue" d="M271.047,-84.5C279.643,-84.5 288.345,-84.5 296.761,-84.5"/>
<polygon fill="midnightblue" stroke="midnightblue" points="271.027,-81.0001 261.027,-84.5 271.027,-88.0001 271.027,-81.0001"/>
</g>
<!-- Node3 -->
<g id="node3" class="node"><title>Node3</title>
<g id="a_node3"><a xlink:href="classmappel_1_1Estimator.html" target="_top" xlink:title="mappel::Estimator\&lt;\l Model \&gt;">
<polygon fill="white" stroke="black" points="0,-70.5 0,-98.5 95,-98.5 95,-70.5 0,-70.5"/>
<text text-anchor="start" x="8" y="-87.3" font-family="Helvetica,sans-Serif" font-size="9.00">mappel::Estimator&lt;</text>
<text text-anchor="middle" x="47.5" y="-77.3" font-family="Helvetica,sans-Serif" font-size="9.00"> Model &gt;</text>
</a>
</g>
</g>
<!-- Node3&#45;&gt;Node2 -->
<g id="edge2" class="edge"><title>Node3&#45;&gt;Node2</title>
<path fill="none" stroke="midnightblue" d="M105.272,-84.5C113.632,-84.5 122.294,-84.5 130.79,-84.5"/>
<polygon fill="midnightblue" stroke="midnightblue" points="105.256,-81.0001 95.2563,-84.5 105.256,-88.0001 105.256,-81.0001"/>
</g>
</g>
</svg>
        <g id="navigator" transform="translate(0 0)" fill="#404254">
                <rect fill="#f2f5e9" fill-opacity="0.5" stroke="#606060" stroke-width=".5" x="0" y="0" width="60" height="60"/>
                <use id="zoomplus" xlink:href="#zoomPlus" x="17" y="9" onmousedown="handleZoom(evt,'in')"/>
                <use id="zoomminus" xlink:href="#zoomMin" x="42" y="9" onmousedown="handleZoom(evt,'out')"/>
                <use id="reset" xlink:href="#resetDef" x="30" y="36" onmousedown="handleReset()"/>
                <g id="arrowUp" xlink:href="#dirArrow" transform="translate(30 24)" onmousedown="handlePan(0,-1)">
                  <use xlink:href="#rim" fill="#404040">
                        <set attributeName="fill" to="#808080" begin="arrowUp.mouseover" end="arrowUp.mouseout"/>
                  </use>
                  <path fill="none" stroke="white" stroke-width="1.5" d="M0,-3.0v7 M-2.5,-0.5L0,-3.0L2.5,-0.5"/>
                </g>
                <g id="arrowRight" xlink:href="#dirArrow" transform="rotate(90) translate(36 -43)" onmousedown="handlePan(1,0)">
                  <use xlink:href="#rim" fill="#404040">
                        <set attributeName="fill" to="#808080" begin="arrowRight.mouseover" end="arrowRight.mouseout"/>
                  </use>
                  <path fill="none" stroke="white" stroke-width="1.5" d="M0,-3.0v7 M-2.5,-0.5L0,-3.0L2.5,-0.5"/>
                </g>
                <g id="arrowDown" xlink:href="#dirArrow" transform="rotate(180) translate(-30 -48)" onmousedown="handlePan(0,1)">
                  <use xlink:href="#rim" fill="#404040">
                        <set attributeName="fill" to="#808080" begin="arrowDown.mouseover" end="arrowDown.mouseout"/>
                  </use>
                  <path fill="none" stroke="white" stroke-width="1.5" d="M0,-3.0v7 M-2.5,-0.5L0,-3.0L2.5,-0.5"/>
                </g>
                <g id="arrowLeft" xlink:href="#dirArrow" transform="rotate(270) translate(-36 17)" onmousedown="handlePan(-1,0)">
                  <use xlink:href="#rim" fill="#404040">
                        <set attributeName="fill" to="#808080" begin="arrowLeft.mouseover" end="arrowLeft.mouseout"/>
                  </use>
                  <path fill="none" stroke="white" stroke-width="1.5" d="M0,-3.0v7 M-2.5,-0.5L0,-3.0L2.5,-0.5"/>
                </g>
        </g>
        <svg viewBox="0 0 15 15" width="100%" height="30px" preserveAspectRatio="xMaxYMin meet">
         <g id="arrow_out" transform="scale(0.3 0.3)">
          <a xlink:href="classmappel_1_1IterativeMaximizer__inherit__graph_org.svg" target="_base">
           <rect id="button" ry="5" rx="5" y="6" x="6" height="38" width="38"
                fill="#f2f5e9" fill-opacity="0.5" stroke="#606060" stroke-width="1.0"/>
           <path id="arrow"
             d="M 11.500037,31.436501 C 11.940474,20.09759 22.043105,11.32322 32.158766,21.979434 L 37.068811,17.246167 C 37.068811,17.246167 37.088388,32 37.088388,32 L 22.160133,31.978069 C 22.160133,31.978069 26.997745,27.140456 26.997745,27.140456 C 18.528582,18.264221 13.291696,25.230495 11.500037,31.436501 z"
             style="fill:#404040;"/>
          </a>
         </g>
        </svg>
</svg>
