<?xml version="1.0" encoding="UTF-8" standalone="no"?>
<!DOCTYPE svg PUBLIC "-//W3C//DTD SVG 1.1//EN"
 "http://www.w3.org/Graphics/SVG/1.1/DTD/svg11.dtd">
<!-- Generated by graphviz version 2.38.0 (20140413.2041)
 -->
<!-- Title: mappel::Gauss2DsModel::set_min_sigma Pages: 1 -->
<svg width="610pt" height="319pt"
 viewBox="0.00 0.00 610.00 319.00" xmlns="http://www.w3.org/2000/svg" xmlns:xlink="http://www.w3.org/1999/xlink">
<g id="graph0" class="graph" transform="scale(1 1) rotate(0) translate(4 315)">
<title>mappel::Gauss2DsModel::set_min_sigma</title>
<polygon fill="white" stroke="none" points="-4,4 -4,-315 606,-315 606,4 -4,4"/>
<!-- Node1 -->
<g id="node1" class="node"><title>Node1</title>
<polygon fill="#bfbfbf" stroke="black" points="0,-117.5 0,-145.5 120,-145.5 120,-117.5 0,-117.5"/>
<text text-anchor="start" x="8" y="-134.3" font-family="Helvetica,sans-Serif" font-size="9.00">mappel::Gauss2DsModel</text>
<text text-anchor="middle" x="60" y="-124.3" font-family="Helvetica,sans-Serif" font-size="9.00">::set_min_sigma</text>
</g>
<!-- Node2 -->
<g id="node2" class="node"><title>Node2</title>
<g id="a_node2"><a xlink:href="classmappel_1_1PointEmitterModel.html#a01ce8d6358acbd2575be519dff1df89b" target="_top" xlink:title="mappel::PointEmitterModel\l::check_psf_sigma">
<polygon fill="white" stroke="black" points="312,-94.5 312,-122.5 439,-122.5 439,-94.5 312,-94.5"/>
<text text-anchor="start" x="320" y="-111.3" font-family="Helvetica,sans-Serif" font-size="9.00">mappel::PointEmitterModel</text>
<text text-anchor="middle" x="375.5" y="-101.3" font-family="Helvetica,sans-Serif" font-size="9.00">::check_psf_sigma</text>
</a>
</g>
</g>
<!-- Node1&#45;&gt;Node2 -->
<g id="edge1" class="edge"><title>Node1&#45;&gt;Node2</title>
<path fill="none" stroke="midnightblue" d="M120.336,-127.147C171.89,-123.365 246.736,-117.873 301.862,-113.829"/>
<polygon fill="midnightblue" stroke="midnightblue" points="302.199,-117.314 311.916,-113.091 301.687,-110.333 302.199,-117.314"/>
</g>
<!-- Node3 -->
<g id="node3" class="node"><title>Node3</title>
<g id="a_node3"><a xlink:href="classmappel_1_1Gauss2DsModel.html#a11f03c648095b6d7dd5c38c3a5eca2dc" target="_top" xlink:title="mappel::Gauss2DsModel\l::get_max_sigma">
<polygon fill="white" stroke="black" points="156,-235.5 156,-263.5 276,-263.5 276,-235.5 156,-235.5"/>
<text text-anchor="start" x="164" y="-252.3" font-family="Helvetica,sans-Serif" font-size="9.00">mappel::Gauss2DsModel</text>
<text text-anchor="middle" x="216" y="-242.3" font-family="Helvetica,sans-Serif" font-size="9.00">::get_max_sigma</text>
</a>
</g>
</g>
<!-- Node1&#45;&gt;Node3 -->
<g id="edge2" class="edge"><title>Node1&#45;&gt;Node3</title>
<path fill="none" stroke="midnightblue" d="M79.576,-145.734C106.632,-166.465 157.034,-205.084 188.134,-228.914"/>
<polygon fill="midnightblue" stroke="midnightblue" points="186.292,-231.912 196.358,-235.216 190.549,-226.356 186.292,-231.912"/>
</g>
<!-- Node7 -->
<g id="node7" class="node"><title>Node7</title>
<g id="a_node7"><a xlink:href="classmappel_1_1Gauss1DsModel.html#abcaaecd43be1f8c005b65e74482a7d86" target="_top" xlink:title="mappel::Gauss1DsModel\l::set_max_sigma">
<polygon fill="white" stroke="black" points="156,-139.5 156,-167.5 276,-167.5 276,-139.5 156,-139.5"/>
<text text-anchor="start" x="164" y="-156.3" font-family="Helvetica,sans-Serif" font-size="9.00">mappel::Gauss1DsModel</text>
<text text-anchor="middle" x="216" y="-146.3" font-family="Helvetica,sans-Serif" font-size="9.00">::set_max_sigma</text>
</a>
</g>
</g>
<!-- Node1&#45;&gt;Node7 -->
<g id="edge6" class="edge"><title>Node1&#45;&gt;Node7</title>
<path fill="none" stroke="midnightblue" d="M120.1,-139.943C128.513,-141.145 137.228,-142.39 145.813,-143.616"/>
<polygon fill="midnightblue" stroke="midnightblue" points="145.409,-147.094 155.804,-145.043 146.399,-140.164 145.409,-147.094"/>
</g>
<!-- Node10 -->
<g id="node10" class="node"><title>Node10</title>
<g id="a_node10"><a xlink:href="classmappel_1_1Gauss1DsModel.html#ab57025e678a631f4311f33aae1a1674b" target="_top" xlink:title="mappel::Gauss1DsModel\l::set_min_sigma">
<polygon fill="white" stroke="black" points="156,-50.5 156,-78.5 276,-78.5 276,-50.5 156,-50.5"/>
<text text-anchor="start" x="164" y="-67.3" font-family="Helvetica,sans-Serif" font-size="9.00">mappel::Gauss1DsModel</text>
<text text-anchor="middle" x="216" y="-57.3" font-family="Helvetica,sans-Serif" font-size="9.00">::set_min_sigma</text>
</a>
</g>
</g>
<!-- Node1&#45;&gt;Node10 -->
<g id="edge10" class="edge"><title>Node1&#45;&gt;Node10</title>
<path fill="none" stroke="midnightblue" d="M93.2834,-117.455C116.589,-107.315 148.259,-93.5367 173.452,-82.5762"/>
<polygon fill="midnightblue" stroke="midnightblue" points="174.986,-85.7258 182.759,-78.5269 172.193,-79.307 174.986,-85.7258"/>
</g>
<!-- Node4 -->
<g id="node4" class="node"><title>Node4</title>
<g id="a_node4"><a xlink:href="classmappel_1_1Gauss2DsModel.html#a46da2752c2d1ca376b72d910818e47ae" target="_top" xlink:title="mappel::Gauss2DsModel\l::get_max_sigma_ratio">
<polygon fill="white" stroke="black" points="315.5,-235.5 315.5,-263.5 435.5,-263.5 435.5,-235.5 315.5,-235.5"/>
<text text-anchor="start" x="323.5" y="-252.3" font-family="Helvetica,sans-Serif" font-size="9.00">mappel::Gauss2DsModel</text>
<text text-anchor="middle" x="375.5" y="-242.3" font-family="Helvetica,sans-Serif" font-size="9.00">::get_max_sigma_ratio</text>
</a>
</g>
</g>
<!-- Node3&#45;&gt;Node4 -->
<g id="edge3" class="edge"><title>Node3&#45;&gt;Node4</title>
<path fill="none" stroke="midnightblue" d="M276.095,-249.5C285.619,-249.5 295.551,-249.5 305.287,-249.5"/>
<polygon fill="midnightblue" stroke="midnightblue" points="305.336,-253 315.336,-249.5 305.335,-246 305.336,-253"/>
</g>
<!-- Node6 -->
<g id="node6" class="node"><title>Node6</title>
<g id="a_node6"><a xlink:href="classmappel_1_1Gauss2DsModel.html#af93a5f984a97e23ae1d371c980e48a41" target="_top" xlink:title="mappel::Gauss2DsModel\l::get_min_sigma">
<polygon fill="white" stroke="black" points="315.5,-282.5 315.5,-310.5 435.5,-310.5 435.5,-282.5 315.5,-282.5"/>
<text text-anchor="start" x="323.5" y="-299.3" font-family="Helvetica,sans-Serif" font-size="9.00">mappel::Gauss2DsModel</text>
<text text-anchor="middle" x="375.5" y="-289.3" font-family="Helvetica,sans-Serif" font-size="9.00">::get_min_sigma</text>
</a>
</g>
</g>
<!-- Node3&#45;&gt;Node6 -->
<g id="edge5" class="edge"><title>Node3&#45;&gt;Node6</title>
<path fill="none" stroke="midnightblue" d="M264.255,-263.602C281.151,-268.644 300.363,-274.377 317.963,-279.629"/>
<polygon fill="midnightblue" stroke="midnightblue" points="316.966,-282.984 327.55,-282.489 318.968,-276.276 316.966,-282.984"/>
</g>
<!-- Node5 -->
<g id="node5" class="node"><title>Node5</title>
<g id="a_node5"><a xlink:href="classmappel_1_1PointEmitterModel.html#a0dfb473c48d177a4540d328abb03cd55" target="_top" xlink:title="mappel::PointEmitterModel\l::get_ubound">
<polygon fill="white" stroke="black" points="475,-235.5 475,-263.5 602,-263.5 602,-235.5 475,-235.5"/>
<text text-anchor="start" x="483" y="-252.3" font-family="Helvetica,sans-Serif" font-size="9.00">mappel::PointEmitterModel</text>
<text text-anchor="middle" x="538.5" y="-242.3" font-family="Helvetica,sans-Serif" font-size="9.00">::get_ubound</text>
</a>
</g>
</g>
<!-- Node4&#45;&gt;Node5 -->
<g id="edge4" class="edge"><title>Node4&#45;&gt;Node5</title>
<path fill="none" stroke="midnightblue" d="M435.536,-249.5C445.061,-249.5 455.018,-249.5 464.82,-249.5"/>
<polygon fill="midnightblue" stroke="midnightblue" points="464.953,-253 474.953,-249.5 464.952,-246 464.953,-253"/>
</g>
<!-- Node7&#45;&gt;Node2 -->
<g id="edge7" class="edge"><title>Node7&#45;&gt;Node2</title>
<path fill="none" stroke="midnightblue" d="M266.402,-139.385C281.941,-134.945 299.26,-129.997 315.401,-125.385"/>
<polygon fill="midnightblue" stroke="midnightblue" points="316.62,-128.677 325.273,-122.565 314.697,-121.947 316.62,-128.677"/>
</g>
<!-- Node8 -->
<g id="node8" class="node"><title>Node8</title>
<g id="a_node8"><a xlink:href="classmappel_1_1Gauss1DsModel.html#ab77513553950b5fa5e3c8254b75a564e" target="_top" xlink:title="mappel::Gauss1DsModel\l::get_min_sigma">
<polygon fill="white" stroke="black" points="315.5,-141.5 315.5,-169.5 435.5,-169.5 435.5,-141.5 315.5,-141.5"/>
<text text-anchor="start" x="323.5" y="-158.3" font-family="Helvetica,sans-Serif" font-size="9.00">mappel::Gauss1DsModel</text>
<text text-anchor="middle" x="375.5" y="-148.3" font-family="Helvetica,sans-Serif" font-size="9.00">::get_min_sigma</text>
</a>
</g>
</g>
<!-- Node7&#45;&gt;Node8 -->
<g id="edge8" class="edge"><title>Node7&#45;&gt;Node8</title>
<path fill="none" stroke="midnightblue" d="M276.095,-154.25C285.619,-154.371 295.551,-154.497 305.287,-154.621"/>
<polygon fill="midnightblue" stroke="midnightblue" points="305.292,-158.121 315.336,-154.749 305.381,-151.122 305.292,-158.121"/>
</g>
<!-- Node9 -->
<g id="node9" class="node"><title>Node9</title>
<g id="a_node9"><a xlink:href="classmappel_1_1PointEmitterModel.html#a7363961cc405e585b39e81a7ad85c8d6" target="_top" xlink:title="mappel::PointEmitterModel\l::set_ubound">
<polygon fill="white" stroke="black" points="312,-188.5 312,-216.5 439,-216.5 439,-188.5 312,-188.5"/>
<text text-anchor="start" x="320" y="-205.3" font-family="Helvetica,sans-Serif" font-size="9.00">mappel::PointEmitterModel</text>
<text text-anchor="middle" x="375.5" y="-195.3" font-family="Helvetica,sans-Serif" font-size="9.00">::set_ubound</text>
</a>
</g>
</g>
<!-- Node7&#45;&gt;Node9 -->
<g id="edge9" class="edge"><title>Node7&#45;&gt;Node9</title>
<path fill="none" stroke="midnightblue" d="M262.133,-167.541C280.092,-173.129 300.922,-179.609 319.733,-185.461"/>
<polygon fill="midnightblue" stroke="midnightblue" points="318.772,-188.828 329.36,-188.457 320.851,-182.144 318.772,-188.828"/>
</g>
<!-- Node10&#45;&gt;Node2 -->
<g id="edge11" class="edge"><title>Node10&#45;&gt;Node2</title>
<path fill="none" stroke="midnightblue" d="M267.267,-78.5428C282.185,-82.7103 298.678,-87.3181 314.165,-91.6446"/>
<polygon fill="midnightblue" stroke="midnightblue" points="313.597,-95.1199 324.17,-94.4396 315.481,-88.378 313.597,-95.1199"/>
</g>
<!-- Node11 -->
<g id="node11" class="node"><title>Node11</title>
<g id="a_node11"><a xlink:href="classmappel_1_1Gauss1DsModel.html#aac5607105b0014d286fd419d0f1741e6" target="_top" xlink:title="mappel::Gauss1DsModel\l::get_max_sigma">
<polygon fill="white" stroke="black" points="315.5,-0.5 315.5,-28.5 435.5,-28.5 435.5,-0.5 315.5,-0.5"/>
<text text-anchor="start" x="323.5" y="-17.3" font-family="Helvetica,sans-Serif" font-size="9.00">mappel::Gauss1DsModel</text>
<text text-anchor="middle" x="375.5" y="-7.3" font-family="Helvetica,sans-Serif" font-size="9.00">::get_max_sigma</text>
</a>
</g>
</g>
<!-- Node10&#45;&gt;Node11 -->
<g id="edge12" class="edge"><title>Node10&#45;&gt;Node11</title>
<path fill="none" stroke="midnightblue" d="M261.292,-50.4392C279.739,-44.583 301.328,-37.7293 320.678,-31.5863"/>
<polygon fill="midnightblue" stroke="midnightblue" points="321.796,-34.9037 330.268,-28.5419 319.678,-28.2318 321.796,-34.9037"/>
</g>
<!-- Node12 -->
<g id="node12" class="node"><title>Node12</title>
<g id="a_node12"><a xlink:href="classmappel_1_1PointEmitterModel.html#a737fa5857415b9830fa2e5ccdff48541" target="_top" xlink:title="mappel::PointEmitterModel\l::set_lbound">
<polygon fill="white" stroke="black" points="312,-47.5 312,-75.5 439,-75.5 439,-47.5 312,-47.5"/>
<text text-anchor="start" x="320" y="-64.3" font-family="Helvetica,sans-Serif" font-size="9.00">mappel::PointEmitterModel</text>
<text text-anchor="middle" x="375.5" y="-54.3" font-family="Helvetica,sans-Serif" font-size="9.00">::set_lbound</text>
</a>
</g>
</g>
<!-- Node10&#45;&gt;Node12 -->
<g id="edge13" class="edge"><title>Node10&#45;&gt;Node12</title>
<path fill="none" stroke="midnightblue" d="M276.095,-63.3744C284.502,-63.2142 293.228,-63.048 301.856,-62.8837"/>
<polygon fill="midnightblue" stroke="midnightblue" points="301.983,-66.382 311.914,-62.6921 301.849,-59.3833 301.983,-66.382"/>
</g>
</g>
</svg>
