<?xml version="1.0" encoding="UTF-8" standalone="no"?>
<!DOCTYPE svg PUBLIC "-//W3C//DTD SVG 1.1//EN"
 "http://www.w3.org/Graphics/SVG/1.1/DTD/svg11.dtd">
<!-- Generated by graphviz version 2.38.0 (20140413.2041)
 -->
<!-- Title: mappel::IterativeMaximizer::MaximizerData::stencil Pages: 1 -->
<svg width="497pt" height="225pt"
 viewBox="0.00 0.00 497.00 225.00" xmlns="http://www.w3.org/2000/svg" xmlns:xlink="http://www.w3.org/1999/xlink">
<g id="graph0" class="graph" transform="scale(1 1) rotate(0) translate(4 221)">
<title>mappel::IterativeMaximizer::MaximizerData::stencil</title>
<polygon fill="white" stroke="none" points="-4,4 -4,-221 493,-221 493,4 -4,4"/>
<!-- Node1 -->
<g id="node1" class="node"><title>Node1</title>
<polygon fill="#bfbfbf" stroke="black" points="0,-70.5 0,-98.5 126,-98.5 126,-70.5 0,-70.5"/>
<text text-anchor="start" x="8" y="-87.3" font-family="Helvetica,sans-Serif" font-size="9.00">mappel::IterativeMaximizer</text>
<text text-anchor="middle" x="63" y="-77.3" font-family="Helvetica,sans-Serif" font-size="9.00">::MaximizerData::stencil</text>
</g>
<!-- Node2 -->
<g id="node2" class="node"><title>Node2</title>
<g id="a_node2"><a xlink:href="classmappel_1_1IterativeMaximizer.html#ac033d2b23a6a861e6d7adbe35f17624e" target="_top" xlink:title="mappel::IterativeMaximizer\l::backtrack">
<polygon fill="white" stroke="black" points="163,-141.5 163,-169.5 289,-169.5 289,-141.5 163,-141.5"/>
<text text-anchor="start" x="171" y="-158.3" font-family="Helvetica,sans-Serif" font-size="9.00">mappel::IterativeMaximizer</text>
<text text-anchor="middle" x="226" y="-148.3" font-family="Helvetica,sans-Serif" font-size="9.00">::backtrack</text>
</a>
</g>
</g>
<!-- Node1&#45;&gt;Node2 -->
<g id="edge1" class="edge"><title>Node1&#45;&gt;Node2</title>
<path fill="none" stroke="midnightblue" d="M99.5946,-103.059C118.008,-112.371 140.977,-123.543 162,-132.5 169.177,-135.558 176.913,-138.59 184.423,-141.401"/>
<polygon fill="midnightblue" stroke="midnightblue" points="101.182,-99.9395 90.6832,-98.5179 98.0041,-106.176 101.182,-99.9395"/>
</g>
<!-- Node6 -->
<g id="node6" class="node"><title>Node6</title>
<g id="a_node6"><a xlink:href="classmappel_1_1IterativeMaximizer.html#ad83f7b0a5b4d412f419b6089e73a66e0" target="_top" xlink:title="mappel::IterativeMaximizer\l::compute_estimate">
<polygon fill="white" stroke="black" points="163,-94.5 163,-122.5 289,-122.5 289,-94.5 163,-94.5"/>
<text text-anchor="start" x="171" y="-111.3" font-family="Helvetica,sans-Serif" font-size="9.00">mappel::IterativeMaximizer</text>
<text text-anchor="middle" x="226" y="-101.3" font-family="Helvetica,sans-Serif" font-size="9.00">::compute_estimate</text>
</a>
</g>
</g>
<!-- Node1&#45;&gt;Node6 -->
<g id="edge5" class="edge"><title>Node1&#45;&gt;Node6</title>
<path fill="none" stroke="midnightblue" d="M136.224,-95.2663C145.133,-96.5944 154.179,-97.9428 162.919,-99.2457"/>
<polygon fill="midnightblue" stroke="midnightblue" points="136.654,-91.7918 126.247,-93.779 135.621,-98.7153 136.654,-91.7918"/>
</g>
<!-- Node7 -->
<g id="node7" class="node"><title>Node7</title>
<g id="a_node7"><a xlink:href="classmappel_1_1IterativeMaximizer.html#aa45c11a399f29985fc9bd3365e809335" target="_top" xlink:title="mappel::IterativeMaximizer\l::compute_estimate_debug">
<polygon fill="white" stroke="black" points="162,-47.5 162,-75.5 290,-75.5 290,-47.5 162,-47.5"/>
<text text-anchor="start" x="170" y="-64.3" font-family="Helvetica,sans-Serif" font-size="9.00">mappel::IterativeMaximizer</text>
<text text-anchor="middle" x="226" y="-54.3" font-family="Helvetica,sans-Serif" font-size="9.00">::compute_estimate_debug</text>
</a>
</g>
</g>
<!-- Node1&#45;&gt;Node7 -->
<g id="edge6" class="edge"><title>Node1&#45;&gt;Node7</title>
<path fill="none" stroke="midnightblue" d="M136.207,-74.1847C144.761,-72.9627 153.441,-71.7227 161.856,-70.5206"/>
<polygon fill="midnightblue" stroke="midnightblue" points="135.651,-70.7285 126.247,-75.6076 136.641,-77.6581 135.651,-70.7285"/>
</g>
<!-- Node8 -->
<g id="node8" class="node"><title>Node8</title>
<g id="a_node8"><a xlink:href="classmappel_1_1IterativeMaximizer.html#a452cb0415d5b30de4176fcb63bf4c58b" target="_top" xlink:title="Perform a local maximization to finish off a simulated annealing run. ">
<polygon fill="white" stroke="black" points="163,-0.5 163,-28.5 289,-28.5 289,-0.5 163,-0.5"/>
<text text-anchor="start" x="171" y="-17.3" font-family="Helvetica,sans-Serif" font-size="9.00">mappel::IterativeMaximizer</text>
<text text-anchor="middle" x="226" y="-7.3" font-family="Helvetica,sans-Serif" font-size="9.00">::local_maximize</text>
</a>
</g>
</g>
<!-- Node1&#45;&gt;Node8 -->
<g id="edge7" class="edge"><title>Node1&#45;&gt;Node8</title>
<path fill="none" stroke="midnightblue" d="M101.554,-66.0667C119.676,-57.3794 141.816,-47.0674 162,-38.5 169.973,-35.1159 178.6,-31.6828 186.838,-28.5119"/>
<polygon fill="midnightblue" stroke="midnightblue" points="99.9636,-62.948 92.4758,-70.4436 103.004,-69.2534 99.9636,-62.948"/>
</g>
<!-- Node3 -->
<g id="node3" class="node"><title>Node3</title>
<g id="a_node3"><a xlink:href="classmappel_1_1NewtonDiagonalMaximizer.html#ac445064041b5c7f3c147c08a0065cd68" target="_top" xlink:title="mappel::NewtonDiagonalMaximizer\l::maximize">
<polygon fill="white" stroke="black" points="326,-188.5 326,-216.5 489,-216.5 489,-188.5 326,-188.5"/>
<text text-anchor="start" x="334" y="-205.3" font-family="Helvetica,sans-Serif" font-size="9.00">mappel::NewtonDiagonalMaximizer</text>
<text text-anchor="middle" x="407.5" y="-195.3" font-family="Helvetica,sans-Serif" font-size="9.00">::maximize</text>
</a>
</g>
</g>
<!-- Node2&#45;&gt;Node3 -->
<g id="edge2" class="edge"><title>Node2&#45;&gt;Node3</title>
<path fill="none" stroke="midnightblue" d="M290.683,-172.175C311.065,-177.512 333.411,-183.363 352.992,-188.489"/>
<polygon fill="midnightblue" stroke="midnightblue" points="291.416,-168.749 280.856,-169.602 289.643,-175.52 291.416,-168.749"/>
</g>
<!-- Node4 -->
<g id="node4" class="node"><title>Node4</title>
<g id="a_node4"><a xlink:href="classmappel_1_1NewtonMaximizer.html#aca7e3071f17ef6f381878eb6151c86d7" target="_top" xlink:title="mappel::NewtonMaximizer\l::maximize">
<polygon fill="white" stroke="black" points="345,-141.5 345,-169.5 470,-169.5 470,-141.5 345,-141.5"/>
<text text-anchor="start" x="353" y="-158.3" font-family="Helvetica,sans-Serif" font-size="9.00">mappel::NewtonMaximizer</text>
<text text-anchor="middle" x="407.5" y="-148.3" font-family="Helvetica,sans-Serif" font-size="9.00">::maximize</text>
</a>
</g>
</g>
<!-- Node2&#45;&gt;Node4 -->
<g id="edge3" class="edge"><title>Node2&#45;&gt;Node4</title>
<path fill="none" stroke="midnightblue" d="M299.324,-155.5C314.389,-155.5 330.136,-155.5 344.776,-155.5"/>
<polygon fill="midnightblue" stroke="midnightblue" points="299.025,-152 289.025,-155.5 299.025,-159 299.025,-152"/>
</g>
<!-- Node5 -->
<g id="node5" class="node"><title>Node5</title>
<g id="a_node5"><a xlink:href="classmappel_1_1QuasiNewtonMaximizer.html#ab4d32d8ba90d4355262a228753619b9f" target="_top" xlink:title="mappel::QuasiNewtonMaximizer\l::maximize">
<polygon fill="white" stroke="black" points="333,-94.5 333,-122.5 482,-122.5 482,-94.5 333,-94.5"/>
<text text-anchor="start" x="341" y="-111.3" font-family="Helvetica,sans-Serif" font-size="9.00">mappel::QuasiNewtonMaximizer</text>
<text text-anchor="middle" x="407.5" y="-101.3" font-family="Helvetica,sans-Serif" font-size="9.00">::maximize</text>
</a>
</g>
</g>
<!-- Node2&#45;&gt;Node5 -->
<g id="edge4" class="edge"><title>Node2&#45;&gt;Node5</title>
<path fill="none" stroke="midnightblue" d="M290.683,-138.825C311.065,-133.488 333.411,-127.637 352.992,-122.511"/>
<polygon fill="midnightblue" stroke="midnightblue" points="289.643,-135.48 280.856,-141.398 291.416,-142.251 289.643,-135.48"/>
</g>
<!-- Node9 -->
<g id="node9" class="node"><title>Node9</title>
<g id="a_node9"><a xlink:href="classmappel_1_1SimulatedAnnealingMaximizer.html#a90132981350dc35facb8c292493ada74" target="_top" xlink:title="mappel::SimulatedAnnealing\lMaximizer::anneal">
<polygon fill="white" stroke="black" points="340,-0.5 340,-28.5 475,-28.5 475,-0.5 340,-0.5"/>
<text text-anchor="start" x="348" y="-17.3" font-family="Helvetica,sans-Serif" font-size="9.00">mappel::SimulatedAnnealing</text>
<text text-anchor="middle" x="407.5" y="-7.3" font-family="Helvetica,sans-Serif" font-size="9.00">Maximizer::anneal</text>
</a>
</g>
</g>
<!-- Node8&#45;&gt;Node9 -->
<g id="edge8" class="edge"><title>Node8&#45;&gt;Node9</title>
<path fill="none" stroke="midnightblue" d="M299.178,-14.5C312.621,-14.5 326.612,-14.5 339.879,-14.5"/>
<polygon fill="midnightblue" stroke="midnightblue" points="299.025,-11.0001 289.025,-14.5 299.025,-18.0001 299.025,-11.0001"/>
</g>
</g>
</svg>
