<?xml version="1.0" encoding="UTF-8" standalone="no"?>
<!DOCTYPE svg PUBLIC "-//W3C//DTD SVG 1.1//EN"
 "http://www.w3.org/Graphics/SVG/1.1/DTD/svg11.dtd">
<!-- Generated by graphviz version 2.38.0 (20140413.2041)
 -->
<!-- Title: mappel::TrustRegionMaximizer::solve_restricted_step_length_newton Pages: 1 -->
<svg width="341pt" height="111pt"
 viewBox="0.00 0.00 341.00 111.00" xmlns="http://www.w3.org/2000/svg" xmlns:xlink="http://www.w3.org/1999/xlink">
<g id="graph0" class="graph" transform="scale(1 1) rotate(0) translate(4 107)">
<title>mappel::TrustRegionMaximizer::solve_restricted_step_length_newton</title>
<polygon fill="white" stroke="none" points="-4,4 -4,-107 337,-107 337,4 -4,4"/>
<!-- Node1 -->
<g id="node1" class="node"><title>Node1</title>
<polygon fill="#bfbfbf" stroke="black" points="0,-37.5 0,-65.5 174,-65.5 174,-37.5 0,-37.5"/>
<text text-anchor="start" x="8" y="-54.3" font-family="Helvetica,sans-Serif" font-size="9.00">mappel::TrustRegionMaximizer</text>
<text text-anchor="middle" x="87" y="-44.3" font-family="Helvetica,sans-Serif" font-size="9.00">::solve_restricted_step_length_newton</text>
</g>
<!-- Node2 -->
<g id="node2" class="node"><title>Node2</title>
<g id="a_node2"><a xlink:href="namespacemappel.html#abc3956f093388acda04ee4455d01b515" target="_top" xlink:title="mappel::cholesky">
<polygon fill="white" stroke="black" points="227.5,-84.5 227.5,-102.5 315.5,-102.5 315.5,-84.5 227.5,-84.5"/>
<text text-anchor="middle" x="271.5" y="-91.3" font-family="Helvetica,sans-Serif" font-size="9.00">mappel::cholesky</text>
</a>
</g>
</g>
<!-- Node1&#45;&gt;Node2 -->
<g id="edge1" class="edge"><title>Node1&#45;&gt;Node2</title>
<path fill="none" stroke="midnightblue" d="M149.024,-65.5438C172.567,-70.9619 199.136,-77.0765 221.41,-82.2025"/>
<polygon fill="midnightblue" stroke="midnightblue" points="220.785,-85.6501 231.315,-84.4821 222.355,-78.8284 220.785,-85.6501"/>
</g>
<!-- Node3 -->
<g id="node3" class="node"><title>Node3</title>
<g id="a_node3"><a xlink:href="namespacemappel.html#ab5ab3a874402fccd700e6c7afbbd3e15" target="_top" xlink:title="mappel::cholesky_convert\l_lower_triangular">
<polygon fill="white" stroke="black" points="210,-37.5 210,-65.5 333,-65.5 333,-37.5 210,-37.5"/>
<text text-anchor="start" x="218" y="-54.3" font-family="Helvetica,sans-Serif" font-size="9.00">mappel::cholesky_convert</text>
<text text-anchor="middle" x="271.5" y="-44.3" font-family="Helvetica,sans-Serif" font-size="9.00">_lower_triangular</text>
</a>
</g>
</g>
<!-- Node1&#45;&gt;Node3 -->
<g id="edge2" class="edge"><title>Node1&#45;&gt;Node3</title>
<path fill="none" stroke="midnightblue" d="M174.173,-51.5C182.768,-51.5 191.424,-51.5 199.833,-51.5"/>
<polygon fill="midnightblue" stroke="midnightblue" points="199.949,-55.0001 209.948,-51.5 199.948,-48.0001 199.949,-55.0001"/>
</g>
<!-- Node4 -->
<g id="node4" class="node"><title>Node4</title>
<g id="a_node4"><a xlink:href="namespacemappel.html#a83b18a0a288ca81106d44e26d830d6d5" target="_top" xlink:title="mappel::cholesky_solve">
<polygon fill="white" stroke="black" points="214,-0.5 214,-18.5 329,-18.5 329,-0.5 214,-0.5"/>
<text text-anchor="middle" x="271.5" y="-7.3" font-family="Helvetica,sans-Serif" font-size="9.00">mappel::cholesky_solve</text>
</a>
</g>
</g>
<!-- Node1&#45;&gt;Node4 -->
<g id="edge3" class="edge"><title>Node1&#45;&gt;Node4</title>
<path fill="none" stroke="midnightblue" d="M149.024,-37.4562C172.567,-32.0381 199.136,-25.9235 221.41,-20.7975"/>
<polygon fill="midnightblue" stroke="midnightblue" points="222.355,-24.1716 231.315,-18.5179 220.785,-17.3499 222.355,-24.1716"/>
</g>
</g>
</svg>
