<?xml version="1.0" encoding="UTF-8" standalone="no"?>
<!DOCTYPE svg PUBLIC "-//W3C//DTD SVG 1.1//EN"
 "http://www.w3.org/Graphics/SVG/1.1/DTD/svg11.dtd">
<!-- Generated by graphviz version 2.38.0 (20140413.2041)
 -->
<!-- Title: mappel::Gauss2DModel::update_internal_1Dsum_estimators Pages: 1 -->
<svg width="629pt" height="161pt"
 viewBox="0.00 0.00 629.00 161.00" xmlns="http://www.w3.org/2000/svg" xmlns:xlink="http://www.w3.org/1999/xlink">
<g id="graph0" class="graph" transform="scale(1 1) rotate(0) translate(4 157)">
<title>mappel::Gauss2DModel::update_internal_1Dsum_estimators</title>
<polygon fill="white" stroke="none" points="-4,4 -4,-157 625,-157 625,4 -4,4"/>
<!-- Node1 -->
<g id="node1" class="node"><title>Node1</title>
<polygon fill="#bfbfbf" stroke="black" points="0,-82.5 0,-120.5 120,-120.5 120,-82.5 0,-82.5"/>
<text text-anchor="start" x="8" y="-109.3" font-family="Helvetica,sans-Serif" font-size="9.00">mappel::Gauss2DModel</text>
<text text-anchor="start" x="8" y="-99.3" font-family="Helvetica,sans-Serif" font-size="9.00">::update_internal_1Dsum</text>
<text text-anchor="middle" x="60" y="-89.3" font-family="Helvetica,sans-Serif" font-size="9.00">_estimators</text>
</g>
<!-- Node2 -->
<g id="node2" class="node"><title>Node2</title>
<g id="a_node2"><a xlink:href="classmappel_1_1PointEmitterModel.html#a2182c250c15d590b582e76594e5f06b9" target="_top" xlink:title="mappel::PointEmitterModel\l::get_prior">
<polygon fill="white" stroke="black" points="156,-113.5 156,-141.5 283,-141.5 283,-113.5 156,-113.5"/>
<text text-anchor="start" x="164" y="-130.3" font-family="Helvetica,sans-Serif" font-size="9.00">mappel::PointEmitterModel</text>
<text text-anchor="middle" x="219.5" y="-120.3" font-family="Helvetica,sans-Serif" font-size="9.00">::get_prior</text>
</a>
</g>
</g>
<!-- Node1&#45;&gt;Node2 -->
<g id="edge1" class="edge"><title>Node1&#45;&gt;Node2</title>
<path fill="none" stroke="midnightblue" d="M120.095,-111.255C128.502,-112.643 137.228,-114.084 145.856,-115.508"/>
<polygon fill="midnightblue" stroke="midnightblue" points="145.478,-118.993 155.914,-117.168 146.618,-112.086 145.478,-118.993"/>
</g>
<!-- Node3 -->
<g id="node3" class="node"><title>Node3</title>
<g id="a_node3"><a xlink:href="classmappel_1_1Gauss2DModel.html#a0981f99341c0f6f63554680ce165df66" target="_top" xlink:title="mappel::Gauss2DModel\l::make_internal_1Dsum\l_estimator">
<polygon fill="white" stroke="black" points="161.5,-56.5 161.5,-94.5 277.5,-94.5 277.5,-56.5 161.5,-56.5"/>
<text text-anchor="start" x="169.5" y="-83.3" font-family="Helvetica,sans-Serif" font-size="9.00">mappel::Gauss2DModel</text>
<text text-anchor="start" x="169.5" y="-73.3" font-family="Helvetica,sans-Serif" font-size="9.00">::make_internal_1Dsum</text>
<text text-anchor="middle" x="219.5" y="-63.3" font-family="Helvetica,sans-Serif" font-size="9.00">_estimator</text>
</a>
</g>
</g>
<!-- Node1&#45;&gt;Node3 -->
<g id="edge2" class="edge"><title>Node1&#45;&gt;Node3</title>
<path fill="none" stroke="midnightblue" d="M120.095,-91.7446C130.348,-90.052 141.076,-88.2811 151.521,-86.5569"/>
<polygon fill="midnightblue" stroke="midnightblue" points="152.128,-90.0042 161.424,-84.9221 150.987,-83.0976 152.128,-90.0042"/>
</g>
<!-- Node4 -->
<g id="node4" class="node"><title>Node4</title>
<g id="a_node4"><a xlink:href="classmappel_1_1Gauss1DModel.html#a808fde22a0fb00140b4ba60e7df685eb" target="_top" xlink:title="mappel::Gauss1DModel\l::make_prior_beta_position">
<polygon fill="white" stroke="black" points="324.5,-85.5 324.5,-113.5 452.5,-113.5 452.5,-85.5 324.5,-85.5"/>
<text text-anchor="start" x="332.5" y="-102.3" font-family="Helvetica,sans-Serif" font-size="9.00">mappel::Gauss1DModel</text>
<text text-anchor="middle" x="388.5" y="-92.3" font-family="Helvetica,sans-Serif" font-size="9.00">::make_prior_beta_position</text>
</a>
</g>
</g>
<!-- Node3&#45;&gt;Node4 -->
<g id="edge3" class="edge"><title>Node3&#45;&gt;Node4</title>
<path fill="none" stroke="midnightblue" d="M277.505,-83.6923C289.316,-85.3897 301.916,-87.2005 314.216,-88.9682"/>
<polygon fill="midnightblue" stroke="midnightblue" points="314.058,-92.4813 324.454,-90.4395 315.053,-85.5525 314.058,-92.4813"/>
</g>
<!-- Node7 -->
<g id="node7" class="node"><title>Node7</title>
<g id="a_node7"><a xlink:href="classmappel_1_1Gauss1DModel.html#ab4fc9aafd94b2dd6532ef71f2ea47619" target="_top" xlink:title="mappel::Gauss1DModel\l::make_prior_normal_position">
<polygon fill="white" stroke="black" points="319,-38.5 319,-66.5 458,-66.5 458,-38.5 319,-38.5"/>
<text text-anchor="start" x="327" y="-55.3" font-family="Helvetica,sans-Serif" font-size="9.00">mappel::Gauss1DModel</text>
<text text-anchor="middle" x="388.5" y="-45.3" font-family="Helvetica,sans-Serif" font-size="9.00">::make_prior_normal_position</text>
</a>
</g>
</g>
<!-- Node3&#45;&gt;Node7 -->
<g id="edge6" class="edge"><title>Node3&#45;&gt;Node7</title>
<path fill="none" stroke="midnightblue" d="M277.505,-67.649C287.601,-66.2585 298.274,-64.7886 308.843,-63.333"/>
<polygon fill="midnightblue" stroke="midnightblue" points="309.493,-66.7765 318.922,-61.9448 308.538,-59.842 309.493,-66.7765"/>
</g>
<!-- Node5 -->
<g id="node5" class="node"><title>Node5</title>
<g id="a_node5"><a xlink:href="classmappel_1_1PointEmitterModel.html#a4517e887a22007bd2e03650dcb853c92" target="_top" xlink:title="mappel::PointEmitterModel\l::make_prior_component\l_intensity">
<polygon fill="white" stroke="black" points="494,-57.5 494,-95.5 621,-95.5 621,-57.5 494,-57.5"/>
<text text-anchor="start" x="502" y="-84.3" font-family="Helvetica,sans-Serif" font-size="9.00">mappel::PointEmitterModel</text>
<text text-anchor="start" x="502" y="-74.3" font-family="Helvetica,sans-Serif" font-size="9.00">::make_prior_component</text>
<text text-anchor="middle" x="557.5" y="-64.3" font-family="Helvetica,sans-Serif" font-size="9.00">_intensity</text>
</a>
</g>
</g>
<!-- Node4&#45;&gt;Node5 -->
<g id="edge4" class="edge"><title>Node4&#45;&gt;Node5</title>
<path fill="none" stroke="midnightblue" d="M452.636,-90.8047C462.75,-89.4117 473.288,-87.9603 483.607,-86.5391"/>
<polygon fill="midnightblue" stroke="midnightblue" points="484.4,-89.963 493.829,-85.1313 483.445,-83.0285 484.4,-89.963"/>
</g>
<!-- Node6 -->
<g id="node6" class="node"><title>Node6</title>
<g id="a_node6"><a xlink:href="classmappel_1_1PointEmitterModel.html#ad4d563dd11df8c3daf83890374807185" target="_top" xlink:title="mappel::PointEmitterModel\l::make_prior_component\l_position_beta">
<polygon fill="white" stroke="black" points="494,-114.5 494,-152.5 621,-152.5 621,-114.5 494,-114.5"/>
<text text-anchor="start" x="502" y="-141.3" font-family="Helvetica,sans-Serif" font-size="9.00">mappel::PointEmitterModel</text>
<text text-anchor="start" x="502" y="-131.3" font-family="Helvetica,sans-Serif" font-size="9.00">::make_prior_component</text>
<text text-anchor="middle" x="557.5" y="-121.3" font-family="Helvetica,sans-Serif" font-size="9.00">_position_beta</text>
</a>
</g>
</g>
<!-- Node4&#45;&gt;Node6 -->
<g id="edge5" class="edge"><title>Node4&#45;&gt;Node6</title>
<path fill="none" stroke="midnightblue" d="M452.636,-112.354C462.855,-114.435 473.508,-116.603 483.93,-118.725"/>
<polygon fill="midnightblue" stroke="midnightblue" points="483.332,-122.175 493.829,-120.741 484.728,-115.316 483.332,-122.175"/>
</g>
<!-- Node7&#45;&gt;Node5 -->
<g id="edge7" class="edge"><title>Node7&#45;&gt;Node5</title>
<path fill="none" stroke="midnightblue" d="M458.389,-62.4003C466.757,-63.6028 475.327,-64.8344 483.749,-66.0447"/>
<polygon fill="midnightblue" stroke="midnightblue" points="483.528,-69.5488 493.924,-67.507 484.523,-62.62 483.528,-69.5488"/>
</g>
<!-- Node8 -->
<g id="node8" class="node"><title>Node8</title>
<g id="a_node8"><a xlink:href="classmappel_1_1PointEmitterModel.html#ab99350cf74097c558f7a93b79e7a44c3" target="_top" xlink:title="mappel::PointEmitterModel\l::make_prior_component\l_position_normal">
<polygon fill="white" stroke="black" points="494,-0.5 494,-38.5 621,-38.5 621,-0.5 494,-0.5"/>
<text text-anchor="start" x="502" y="-27.3" font-family="Helvetica,sans-Serif" font-size="9.00">mappel::PointEmitterModel</text>
<text text-anchor="start" x="502" y="-17.3" font-family="Helvetica,sans-Serif" font-size="9.00">::make_prior_component</text>
<text text-anchor="middle" x="557.5" y="-7.3" font-family="Helvetica,sans-Serif" font-size="9.00">_position_normal</text>
</a>
</g>
</g>
<!-- Node7&#45;&gt;Node8 -->
<g id="edge8" class="edge"><title>Node7&#45;&gt;Node8</title>
<path fill="none" stroke="midnightblue" d="M458.389,-38.8871C466.849,-37.2154 475.515,-35.5029 484.026,-33.8212"/>
<polygon fill="midnightblue" stroke="midnightblue" points="484.792,-37.2376 493.924,-31.8654 483.435,-30.3704 484.792,-37.2376"/>
</g>
</g>
</svg>
