<?xml version="1.0" encoding="UTF-8" standalone="no"?>
<!DOCTYPE svg PUBLIC "-//W3C//DTD SVG 1.1//EN"
 "http://www.w3.org/Graphics/SVG/1.1/DTD/svg11.dtd">
<!-- Generated by graphviz version 2.38.0 (20140413.2041)
 -->
<!-- Title: mappel::Gauss2DsxyModel Pages: 1 -->
<svg width="292pt" height="82pt"
 viewBox="0.00 0.00 292.00 82.00" xmlns="http://www.w3.org/2000/svg" xmlns:xlink="http://www.w3.org/1999/xlink">
<g id="graph0" class="graph" transform="scale(1 1) rotate(0) translate(4 78)">
<title>mappel::Gauss2DsxyModel</title>
<polygon fill="white" stroke="none" points="-4,4 -4,-78 288,-78 288,4 -4,4"/>
<!-- Node1 -->
<g id="node1" class="node"><title>Node1</title>
<polygon fill="#bfbfbf" stroke="black" points="74,-0.5 74,-18.5 203,-18.5 203,-0.5 74,-0.5"/>
<text text-anchor="middle" x="138.5" y="-7.3" font-family="Helvetica,sans-Serif" font-size="9.00">mappel::Gauss2DsxyModel</text>
</g>
<!-- Node2 -->
<g id="node2" class="node"><title>Node2</title>
<g id="a_node2"><a xlink:href="classmappel_1_1PointEmitterModel.html" target="_top" xlink:title="A virtual Base type for point emitter localization models. ">
<polygon fill="white" stroke="black" points="0,-55.5 0,-73.5 127,-73.5 127,-55.5 0,-55.5"/>
<text text-anchor="middle" x="63.5" y="-62.3" font-family="Helvetica,sans-Serif" font-size="9.00">mappel::PointEmitterModel</text>
</a>
</g>
</g>
<!-- Node2&#45;&gt;Node1 -->
<g id="edge1" class="edge"><title>Node2&#45;&gt;Node1</title>
<path fill="none" stroke="midnightblue" d="M83.3233,-49.4916C97.2513,-39.6491 115.398,-26.8255 127.002,-18.6253"/>
<polygon fill="midnightblue" stroke="midnightblue" points="81.0377,-46.821 74.8909,-55.4504 85.0775,-52.5376 81.0377,-46.821"/>
</g>
<!-- Node3 -->
<g id="node3" class="node"><title>Node3</title>
<g id="a_node3"><a xlink:href="classmappel_1_1ImageFormat2DBase.html" target="_top" xlink:title="A virtual base class for 2D image localization objectives. ">
<polygon fill="white" stroke="black" points="145,-55.5 145,-73.5 284,-73.5 284,-55.5 145,-55.5"/>
<text text-anchor="middle" x="214.5" y="-62.3" font-family="Helvetica,sans-Serif" font-size="9.00">mappel::ImageFormat2DBase</text>
</a>
</g>
</g>
<!-- Node3&#45;&gt;Node1 -->
<g id="edge2" class="edge"><title>Node3&#45;&gt;Node1</title>
<path fill="none" stroke="midnightblue" d="M194.412,-49.4916C180.299,-39.6491 161.91,-26.8255 150.151,-18.6253"/>
<polygon fill="midnightblue" stroke="midnightblue" points="192.753,-52.6011 202.957,-55.4504 196.757,-46.8594 192.753,-52.6011"/>
</g>
</g>
</svg>
