<?xml version="1.0" encoding="UTF-8" standalone="no"?>
<!DOCTYPE svg PUBLIC "-//W3C//DTD SVG 1.1//EN"
 "http://www.w3.org/Graphics/SVG/1.1/DTD/svg11.dtd">
<!-- Generated by graphviz version 2.38.0 (20140413.2041)
 -->
<!-- Title: mappel::Gauss2DsxyModel::Stencil::compute_derivatives Pages: 1 -->
<svg width="476pt" height="37pt"
 viewBox="0.00 0.00 476.00 37.00" xmlns="http://www.w3.org/2000/svg" xmlns:xlink="http://www.w3.org/1999/xlink">
<g id="graph0" class="graph" transform="scale(1 1) rotate(0) translate(4 33)">
<title>mappel::Gauss2DsxyModel::Stencil::compute_derivatives</title>
<polygon fill="white" stroke="none" points="-4,4 -4,-33 472,-33 472,4 -4,4"/>
<!-- Node1 -->
<g id="node1" class="node"><title>Node1</title>
<polygon fill="#bfbfbf" stroke="black" points="0,-0.5 0,-28.5 138,-28.5 138,-0.5 0,-0.5"/>
<text text-anchor="start" x="8" y="-17.3" font-family="Helvetica,sans-Serif" font-size="9.00">mappel::Gauss2DsxyModel</text>
<text text-anchor="middle" x="69" y="-7.3" font-family="Helvetica,sans-Serif" font-size="9.00">::Stencil::compute_derivatives</text>
</g>
<!-- Node2 -->
<g id="node2" class="node"><title>Node2</title>
<g id="a_node2"><a xlink:href="classmappel_1_1Gauss2DsxyModel_1_1Stencil.html#ae006204abb79ef7892843f978b37d1ff" target="_top" xlink:title="mappel::Gauss2DsxyModel\l::Stencil::Stencil">
<polygon fill="white" stroke="black" points="174,-0.5 174,-28.5 303,-28.5 303,-0.5 174,-0.5"/>
<text text-anchor="start" x="182" y="-17.3" font-family="Helvetica,sans-Serif" font-size="9.00">mappel::Gauss2DsxyModel</text>
<text text-anchor="middle" x="238.5" y="-7.3" font-family="Helvetica,sans-Serif" font-size="9.00">::Stencil::Stencil</text>
</a>
</g>
</g>
<!-- Node1&#45;&gt;Node2 -->
<g id="edge1" class="edge"><title>Node1&#45;&gt;Node2</title>
<path fill="none" stroke="midnightblue" d="M148.143,-14.5C156.723,-14.5 165.382,-14.5 173.757,-14.5"/>
<polygon fill="midnightblue" stroke="midnightblue" points="148.129,-11.0001 138.129,-14.5 148.129,-18.0001 148.129,-11.0001"/>
</g>
<!-- Node3 -->
<g id="node3" class="node"><title>Node3</title>
<g id="a_node3"><a xlink:href="classmappel_1_1Gauss2DsxyModel.html#aab03b318c452c45c9fcf2f363e9c1e8f" target="_top" xlink:title="Make a new Model::Stencil object at theta. ">
<polygon fill="white" stroke="black" points="339,-0.5 339,-28.5 468,-28.5 468,-0.5 339,-0.5"/>
<text text-anchor="start" x="347" y="-17.3" font-family="Helvetica,sans-Serif" font-size="9.00">mappel::Gauss2DsxyModel</text>
<text text-anchor="middle" x="403.5" y="-7.3" font-family="Helvetica,sans-Serif" font-size="9.00">::make_stencil</text>
</a>
</g>
</g>
<!-- Node2&#45;&gt;Node3 -->
<g id="edge2" class="edge"><title>Node2&#45;&gt;Node3</title>
<path fill="none" stroke="midnightblue" d="M313.688,-14.5C322.141,-14.5 330.701,-14.5 338.998,-14.5"/>
<polygon fill="midnightblue" stroke="midnightblue" points="313.454,-11.0001 303.454,-14.5 313.454,-18.0001 313.454,-11.0001"/>
</g>
</g>
</svg>
