<?xml version="1.0" encoding="UTF-8" standalone="no"?>
<!DOCTYPE svg PUBLIC "-//W3C//DTD SVG 1.1//EN"
 "http://www.w3.org/Graphics/SVG/1.1/DTD/svg11.dtd">
<!-- Generated by graphviz version 2.38.0 (20140413.2041)
 -->
<!-- Title: mappel::IterativeMaximizer::local_maximize Pages: 1 -->
<svg width="296pt" height="84pt"
 viewBox="0.00 0.00 296.00 84.00" xmlns="http://www.w3.org/2000/svg" xmlns:xlink="http://www.w3.org/1999/xlink">
<g id="graph0" class="graph" transform="scale(1 1) rotate(0) translate(4 80)">
<title>mappel::IterativeMaximizer::local_maximize</title>
<polygon fill="white" stroke="none" points="-4,4 -4,-80 292,-80 292,4 -4,4"/>
<!-- Node1 -->
<g id="node1" class="node"><title>Node1</title>
<polygon fill="#bfbfbf" stroke="black" points="0,-23.5 0,-51.5 126,-51.5 126,-23.5 0,-23.5"/>
<text text-anchor="start" x="8" y="-40.3" font-family="Helvetica,sans-Serif" font-size="9.00">mappel::IterativeMaximizer</text>
<text text-anchor="middle" x="63" y="-30.3" font-family="Helvetica,sans-Serif" font-size="9.00">::local_maximize</text>
</g>
<!-- Node2 -->
<g id="node2" class="node"><title>Node2</title>
<g id="a_node2"><a xlink:href="classmappel_1_1IterativeMaximizer.html#a4d05ed89de53e6e73f2f13bef30862ec" target="_top" xlink:title="mappel::IterativeMaximizer\l::maximize">
<polygon fill="white" stroke="black" points="162,-47.5 162,-75.5 288,-75.5 288,-47.5 162,-47.5"/>
<text text-anchor="start" x="170" y="-64.3" font-family="Helvetica,sans-Serif" font-size="9.00">mappel::IterativeMaximizer</text>
<text text-anchor="middle" x="225" y="-54.3" font-family="Helvetica,sans-Serif" font-size="9.00">::maximize</text>
</a>
</g>
</g>
<!-- Node1&#45;&gt;Node2 -->
<g id="edge1" class="edge"><title>Node1&#45;&gt;Node2</title>
<path fill="none" stroke="midnightblue" d="M126.318,-46.8477C134.706,-48.1059 143.367,-49.4051 151.907,-50.686"/>
<polygon fill="midnightblue" stroke="midnightblue" points="151.443,-54.1556 161.852,-52.1778 152.482,-47.233 151.443,-54.1556"/>
</g>
<!-- Node3 -->
<g id="node3" class="node"><title>Node3</title>
<g id="a_node3"><a xlink:href="classmappel_1_1IterativeMaximizer_1_1MaximizerData.html#a29ccc1aa8e5ecf505f4ca76f6b8b214e" target="_top" xlink:title="Get the current stencil. ">
<polygon fill="white" stroke="black" points="162,-0.5 162,-28.5 288,-28.5 288,-0.5 162,-0.5"/>
<text text-anchor="start" x="170" y="-17.3" font-family="Helvetica,sans-Serif" font-size="9.00">mappel::IterativeMaximizer</text>
<text text-anchor="middle" x="225" y="-7.3" font-family="Helvetica,sans-Serif" font-size="9.00">::MaximizerData::stencil</text>
</a>
</g>
</g>
<!-- Node1&#45;&gt;Node3 -->
<g id="edge2" class="edge"><title>Node1&#45;&gt;Node3</title>
<path fill="none" stroke="midnightblue" d="M126.318,-28.5417C134.706,-27.336 143.367,-26.091 151.907,-24.8634"/>
<polygon fill="midnightblue" stroke="midnightblue" points="152.452,-28.3212 161.852,-23.4338 151.455,-21.3924 152.452,-28.3212"/>
</g>
</g>
</svg>
