<?xml version="1.0" encoding="UTF-8" standalone="no"?>
<!DOCTYPE svg PUBLIC "-//W3C//DTD SVG 1.1//EN"
 "http://www.w3.org/Graphics/SVG/1.1/DTD/svg11.dtd">
<!-- Generated by graphviz version 2.38.0 (20140413.2041)
 -->
<!-- Title: mappel::NewtonDiagonalMaximizer&lt; Model &gt; Pages: 1 -->
<svg width="171pt" height="232pt"
 viewBox="0.00 0.00 171.00 232.00" xmlns="http://www.w3.org/2000/svg" xmlns:xlink="http://www.w3.org/1999/xlink">
<g id="graph0" class="graph" transform="scale(1 1) rotate(0) translate(4 228)">
<title>mappel::NewtonDiagonalMaximizer&lt; Model &gt;</title>
<polygon fill="white" stroke="none" points="-4,4 -4,-228 167,-228 167,4 -4,4"/>
<!-- Node1 -->
<g id="node1" class="node"><title>Node1</title>
<polygon fill="#bfbfbf" stroke="black" points="0,-0.5 0,-28.5 163,-28.5 163,-0.5 0,-0.5"/>
<text text-anchor="start" x="8" y="-17.3" font-family="Helvetica,sans-Serif" font-size="9.00">mappel::NewtonDiagonalMaximizer</text>
<text text-anchor="middle" x="81.5" y="-7.3" font-family="Helvetica,sans-Serif" font-size="9.00">&lt; Model &gt;</text>
</g>
<!-- Node2 -->
<g id="node2" class="node"><title>Node2</title>
<g id="a_node2"><a xlink:href="classmappel_1_1IterativeMaximizer.html" target="_top" xlink:title="mappel::IterativeMaximizer\l\&lt; Model \&gt;">
<polygon fill="white" stroke="black" points="18.5,-65.5 18.5,-93.5 144.5,-93.5 144.5,-65.5 18.5,-65.5"/>
<text text-anchor="start" x="26.5" y="-82.3" font-family="Helvetica,sans-Serif" font-size="9.00">mappel::IterativeMaximizer</text>
<text text-anchor="middle" x="81.5" y="-72.3" font-family="Helvetica,sans-Serif" font-size="9.00">&lt; Model &gt;</text>
</a>
</g>
</g>
<!-- Node2&#45;&gt;Node1 -->
<g id="edge1" class="edge"><title>Node2&#45;&gt;Node1</title>
<path fill="none" stroke="midnightblue" d="M81.5,-55.1641C81.5,-46.1693 81.5,-36.2205 81.5,-28.5369"/>
<polygon fill="midnightblue" stroke="midnightblue" points="78.0001,-55.4463 81.5,-65.4464 85.0001,-55.4464 78.0001,-55.4463"/>
</g>
<!-- Node3 -->
<g id="node3" class="node"><title>Node3</title>
<g id="a_node3"><a xlink:href="classmappel_1_1ThreadedEstimator.html" target="_top" xlink:title="mappel::ThreadedEstimator\l\&lt; Model \&gt;">
<polygon fill="white" stroke="black" points="16.5,-130.5 16.5,-158.5 146.5,-158.5 146.5,-130.5 16.5,-130.5"/>
<text text-anchor="start" x="24.5" y="-147.3" font-family="Helvetica,sans-Serif" font-size="9.00">mappel::ThreadedEstimator</text>
<text text-anchor="middle" x="81.5" y="-137.3" font-family="Helvetica,sans-Serif" font-size="9.00">&lt; Model &gt;</text>
</a>
</g>
</g>
<!-- Node3&#45;&gt;Node2 -->
<g id="edge2" class="edge"><title>Node3&#45;&gt;Node2</title>
<path fill="none" stroke="midnightblue" d="M81.5,-120.164C81.5,-111.169 81.5,-101.221 81.5,-93.5369"/>
<polygon fill="midnightblue" stroke="midnightblue" points="78.0001,-120.446 81.5,-130.446 85.0001,-120.446 78.0001,-120.446"/>
</g>
<!-- Node4 -->
<g id="node4" class="node"><title>Node4</title>
<g id="a_node4"><a xlink:href="classmappel_1_1Estimator.html" target="_top" xlink:title="mappel::Estimator\&lt;\l Model \&gt;">
<polygon fill="white" stroke="black" points="34,-195.5 34,-223.5 129,-223.5 129,-195.5 34,-195.5"/>
<text text-anchor="start" x="42" y="-212.3" font-family="Helvetica,sans-Serif" font-size="9.00">mappel::Estimator&lt;</text>
<text text-anchor="middle" x="81.5" y="-202.3" font-family="Helvetica,sans-Serif" font-size="9.00"> Model &gt;</text>
</a>
</g>
</g>
<!-- Node4&#45;&gt;Node3 -->
<g id="edge3" class="edge"><title>Node4&#45;&gt;Node3</title>
<path fill="none" stroke="midnightblue" d="M81.5,-185.164C81.5,-176.169 81.5,-166.221 81.5,-158.537"/>
<polygon fill="midnightblue" stroke="midnightblue" points="78.0001,-185.446 81.5,-195.446 85.0001,-185.446 78.0001,-185.446"/>
</g>
</g>
</svg>
