<?xml version="1.0" encoding="UTF-8" standalone="no"?>
<!DOCTYPE svg PUBLIC "-//W3C//DTD SVG 1.1//EN"
 "http://www.w3.org/Graphics/SVG/1.1/DTD/svg11.dtd">
<!-- Generated by graphviz version 2.38.0 (20140413.2041)
 -->
<!-- Title: mappel::ImageFormat1DBase::get_stats Pages: 1 -->
<svg width="322pt" height="84pt"
 viewBox="0.00 0.00 322.00 84.00" xmlns="http://www.w3.org/2000/svg" xmlns:xlink="http://www.w3.org/1999/xlink">
<g id="graph0" class="graph" transform="scale(1 1) rotate(0) translate(4 80)">
<title>mappel::ImageFormat1DBase::get_stats</title>
<polygon fill="white" stroke="none" points="-4,4 -4,-80 318,-80 318,4 -4,4"/>
<!-- Node1 -->
<g id="node1" class="node"><title>Node1</title>
<polygon fill="#bfbfbf" stroke="black" points="0,-23.5 0,-51.5 139,-51.5 139,-23.5 0,-23.5"/>
<text text-anchor="start" x="8" y="-40.3" font-family="Helvetica,sans-Serif" font-size="9.00">mappel::ImageFormat1DBase</text>
<text text-anchor="middle" x="69.5" y="-30.3" font-family="Helvetica,sans-Serif" font-size="9.00">::get_stats</text>
</g>
<!-- Node2 -->
<g id="node2" class="node"><title>Node2</title>
<g id="a_node2"><a xlink:href="classmappel_1_1ImageFormat1DBase.html#a96644883bef9d230eea893ece4578e96" target="_top" xlink:title="mappel::ImageFormat1DBase\l::get_num_pixels">
<polygon fill="white" stroke="black" points="175,-47.5 175,-75.5 314,-75.5 314,-47.5 175,-47.5"/>
<text text-anchor="start" x="183" y="-64.3" font-family="Helvetica,sans-Serif" font-size="9.00">mappel::ImageFormat1DBase</text>
<text text-anchor="middle" x="244.5" y="-54.3" font-family="Helvetica,sans-Serif" font-size="9.00">::get_num_pixels</text>
</a>
</g>
</g>
<!-- Node1&#45;&gt;Node2 -->
<g id="edge1" class="edge"><title>Node1&#45;&gt;Node2</title>
<path fill="none" stroke="midnightblue" d="M139.371,-47.0544C147.769,-48.2194 156.399,-49.4166 164.925,-50.5994"/>
<polygon fill="midnightblue" stroke="midnightblue" points="164.48,-54.0711 174.866,-51.9785 165.442,-47.1375 164.48,-54.0711"/>
</g>
<!-- Node3 -->
<g id="node3" class="node"><title>Node3</title>
<g id="a_node3"><a xlink:href="classmappel_1_1ImageFormat1DBase.html#aea1194302eccc0d8ad62394176aa6b0c" target="_top" xlink:title="mappel::ImageFormat1DBase\l::get_size">
<polygon fill="white" stroke="black" points="175,-0.5 175,-28.5 314,-28.5 314,-0.5 175,-0.5"/>
<text text-anchor="start" x="183" y="-17.3" font-family="Helvetica,sans-Serif" font-size="9.00">mappel::ImageFormat1DBase</text>
<text text-anchor="middle" x="244.5" y="-7.3" font-family="Helvetica,sans-Serif" font-size="9.00">::get_size</text>
</a>
</g>
</g>
<!-- Node1&#45;&gt;Node3 -->
<g id="edge2" class="edge"><title>Node1&#45;&gt;Node3</title>
<path fill="none" stroke="midnightblue" d="M139.371,-28.3437C147.769,-27.2272 156.399,-26.0799 164.925,-24.9464"/>
<polygon fill="midnightblue" stroke="midnightblue" points="165.414,-28.4122 174.866,-23.6248 164.492,-21.4733 165.414,-28.4122"/>
</g>
</g>
</svg>
