<?xml version="1.0" encoding="UTF-8" standalone="no"?>
<!DOCTYPE svg PUBLIC "-//W3C//DTD SVG 1.1//EN"
 "http://www.w3.org/Graphics/SVG/1.1/DTD/svg11.dtd">
<!-- Generated by graphviz version 2.38.0 (20140413.2041)
 -->
<!-- Title: mappel::Gauss1DModel::Stencil::compute_derivatives Pages: 1 -->
<svg width="580pt" height="101pt"
 viewBox="0.00 0.00 580.00 101.00" xmlns="http://www.w3.org/2000/svg" xmlns:xlink="http://www.w3.org/1999/xlink">
<g id="graph0" class="graph" transform="scale(1 1) rotate(0) translate(4 97)">
<title>mappel::Gauss1DModel::Stencil::compute_derivatives</title>
<polygon fill="white" stroke="none" points="-4,4 -4,-97 576,-97 576,4 -4,4"/>
<!-- Node1 -->
<g id="node1" class="node"><title>Node1</title>
<polygon fill="#bfbfbf" stroke="black" points="0,-32.5 0,-60.5 138,-60.5 138,-32.5 0,-32.5"/>
<text text-anchor="start" x="8" y="-49.3" font-family="Helvetica,sans-Serif" font-size="9.00">mappel::Gauss1DModel</text>
<text text-anchor="middle" x="69" y="-39.3" font-family="Helvetica,sans-Serif" font-size="9.00">::Stencil::compute_derivatives</text>
</g>
<!-- Node2 -->
<g id="node2" class="node"><title>Node2</title>
<g id="a_node2"><a xlink:href="namespacemappel.html#a8da88490d6ff7d5886b96b66c1bab369" target="_top" xlink:title="mappel::make_DX_stencil">
<polygon fill="white" stroke="black" points="177,-74.5 177,-92.5 301,-92.5 301,-74.5 177,-74.5"/>
<text text-anchor="middle" x="239" y="-81.3" font-family="Helvetica,sans-Serif" font-size="9.00">mappel::make_DX_stencil</text>
</a>
</g>
</g>
<!-- Node1&#45;&gt;Node2 -->
<g id="edge1" class="edge"><title>Node1&#45;&gt;Node2</title>
<path fill="none" stroke="midnightblue" d="M133.993,-60.5937C151.501,-64.4496 170.241,-68.5768 186.922,-72.2507"/>
<polygon fill="midnightblue" stroke="midnightblue" points="186.495,-75.7404 197.013,-74.4732 188,-68.9042 186.495,-75.7404"/>
</g>
<!-- Node4 -->
<g id="node4" class="node"><title>Node4</title>
<g id="a_node4"><a xlink:href="namespacemappel.html#af7636db506977133c8b30d108fede711" target="_top" xlink:title="mappel::make_DXS_stencil">
<polygon fill="white" stroke="black" points="174,-37.5 174,-55.5 304,-55.5 304,-37.5 174,-37.5"/>
<text text-anchor="middle" x="239" y="-44.3" font-family="Helvetica,sans-Serif" font-size="9.00">mappel::make_DXS_stencil</text>
</a>
</g>
</g>
<!-- Node1&#45;&gt;Node4 -->
<g id="edge3" class="edge"><title>Node1&#45;&gt;Node4</title>
<path fill="none" stroke="midnightblue" d="M138.332,-46.5C146.663,-46.5 155.208,-46.5 163.622,-46.5"/>
<polygon fill="midnightblue" stroke="midnightblue" points="163.797,-50.0001 173.797,-46.5 163.797,-43.0001 163.797,-50.0001"/>
</g>
<!-- Node7 -->
<g id="node7" class="node"><title>Node7</title>
<g id="a_node7"><a xlink:href="namespacemappel.html#aa5c2f294298c875605ee1e9876b7d116" target="_top" xlink:title="mappel::make_G_stencil">
<polygon fill="white" stroke="black" points="180,-0.5 180,-18.5 298,-18.5 298,-0.5 180,-0.5"/>
<text text-anchor="middle" x="239" y="-7.3" font-family="Helvetica,sans-Serif" font-size="9.00">mappel::make_G_stencil</text>
</a>
</g>
</g>
<!-- Node1&#45;&gt;Node7 -->
<g id="edge6" class="edge"><title>Node1&#45;&gt;Node7</title>
<path fill="none" stroke="midnightblue" d="M133.993,-32.4063C151.501,-28.5504 170.241,-24.4232 186.922,-20.7493"/>
<polygon fill="midnightblue" stroke="midnightblue" points="188,-24.0958 197.013,-18.5268 186.495,-17.2596 188,-24.0958"/>
</g>
<!-- Node3 -->
<g id="node3" class="node"><title>Node3</title>
<g id="a_node3"><a xlink:href="namespacemappel.html#ad2dd4330fc626fa673a3acf691d6b9a7" target="_top" xlink:title="mappel::fill_DX_stencil">
<polygon fill="white" stroke="black" points="343,-74.5 343,-92.5 453,-92.5 453,-74.5 343,-74.5"/>
<text text-anchor="middle" x="398" y="-81.3" font-family="Helvetica,sans-Serif" font-size="9.00">mappel::fill_DX_stencil</text>
</a>
</g>
</g>
<!-- Node2&#45;&gt;Node3 -->
<g id="edge2" class="edge"><title>Node2&#45;&gt;Node3</title>
<path fill="none" stroke="midnightblue" d="M301.15,-83.5C311.482,-83.5 322.236,-83.5 332.647,-83.5"/>
<polygon fill="midnightblue" stroke="midnightblue" points="332.915,-87.0001 342.915,-83.5 332.915,-80.0001 332.915,-87.0001"/>
</g>
<!-- Node5 -->
<g id="node5" class="node"><title>Node5</title>
<g id="a_node5"><a xlink:href="namespacemappel.html#ab0cb62f6dcecae5ff19468d87a283e7a" target="_top" xlink:title="mappel::fill_DXS_stencil">
<polygon fill="white" stroke="black" points="340,-37.5 340,-55.5 456,-55.5 456,-37.5 340,-37.5"/>
<text text-anchor="middle" x="398" y="-44.3" font-family="Helvetica,sans-Serif" font-size="9.00">mappel::fill_DXS_stencil</text>
</a>
</g>
</g>
<!-- Node4&#45;&gt;Node5 -->
<g id="edge4" class="edge"><title>Node4&#45;&gt;Node5</title>
<path fill="none" stroke="midnightblue" d="M304.311,-46.5C312.619,-46.5 321.147,-46.5 329.504,-46.5"/>
<polygon fill="midnightblue" stroke="midnightblue" points="329.589,-50.0001 339.589,-46.5 329.589,-43.0001 329.589,-50.0001"/>
</g>
<!-- Node6 -->
<g id="node6" class="node"><title>Node6</title>
<g id="a_node6"><a xlink:href="namespacemappel.html#a8475cdb3edacceb0ae215c3ebd1f33c1" target="_top" xlink:title="mappel::square">
<polygon fill="white" stroke="black" points="492,-18.5 492,-36.5 572,-36.5 572,-18.5 492,-18.5"/>
<text text-anchor="middle" x="532" y="-25.3" font-family="Helvetica,sans-Serif" font-size="9.00">mappel::square</text>
</a>
</g>
</g>
<!-- Node5&#45;&gt;Node6 -->
<g id="edge5" class="edge"><title>Node5&#45;&gt;Node6</title>
<path fill="none" stroke="midnightblue" d="M456.129,-38.2768C464.65,-37.0504 473.371,-35.7951 481.711,-34.5947"/>
<polygon fill="midnightblue" stroke="midnightblue" points="482.256,-38.0523 491.655,-33.1632 481.259,-31.1237 482.256,-38.0523"/>
</g>
<!-- Node8 -->
<g id="node8" class="node"><title>Node8</title>
<g id="a_node8"><a xlink:href="namespacemappel.html#a5ca82edc201e8605107a991493ad0d5e" target="_top" xlink:title="mappel::fill_G_stencil">
<polygon fill="white" stroke="black" points="346,-0.5 346,-18.5 450,-18.5 450,-0.5 346,-0.5"/>
<text text-anchor="middle" x="398" y="-7.3" font-family="Helvetica,sans-Serif" font-size="9.00">mappel::fill_G_stencil</text>
</a>
</g>
</g>
<!-- Node7&#45;&gt;Node8 -->
<g id="edge7" class="edge"><title>Node7&#45;&gt;Node8</title>
<path fill="none" stroke="midnightblue" d="M298.015,-9.5C310.299,-9.5 323.302,-9.5 335.703,-9.5"/>
<polygon fill="midnightblue" stroke="midnightblue" points="335.949,-13.0001 345.949,-9.5 335.949,-6.0001 335.949,-13.0001"/>
</g>
<!-- Node8&#45;&gt;Node6 -->
<g id="edge8" class="edge"><title>Node8&#45;&gt;Node6</title>
<path fill="none" stroke="midnightblue" d="M450.035,-16.4593C460.482,-17.8839 471.457,-19.3805 481.836,-20.7959"/>
<polygon fill="midnightblue" stroke="midnightblue" points="481.595,-24.2952 491.976,-22.1785 482.541,-17.3594 481.595,-24.2952"/>
</g>
</g>
</svg>
