<?xml version="1.0" encoding="UTF-8" standalone="no"?>
<!DOCTYPE svg PUBLIC "-//W3C//DTD SVG 1.1//EN"
 "http://www.w3.org/Graphics/SVG/1.1/DTD/svg11.dtd">
<!-- Generated by graphviz version 2.38.0 (20140413.2041)
 -->
<!-- Title: mappel::PointEmitterModel::get_prior Pages: 1 -->
<svg width="447pt" height="292pt"
 viewBox="0.00 0.00 447.00 292.00" xmlns="http://www.w3.org/2000/svg" xmlns:xlink="http://www.w3.org/1999/xlink">
<g id="graph0" class="graph" transform="scale(1 1) rotate(0) translate(4 288)">
<title>mappel::PointEmitterModel::get_prior</title>
<polygon fill="white" stroke="none" points="-4,4 -4,-288 443,-288 443,4 -4,4"/>
<!-- Node1 -->
<g id="node1" class="node"><title>Node1</title>
<polygon fill="#bfbfbf" stroke="black" points="0,-136.5 0,-164.5 127,-164.5 127,-136.5 0,-136.5"/>
<text text-anchor="start" x="8" y="-153.3" font-family="Helvetica,sans-Serif" font-size="9.00">mappel::PointEmitterModel</text>
<text text-anchor="middle" x="63.5" y="-143.3" font-family="Helvetica,sans-Serif" font-size="9.00">::get_prior</text>
</g>
<!-- Node2 -->
<g id="node2" class="node"><title>Node2</title>
<g id="a_node2"><a xlink:href="classmappel_1_1Gauss2DModel.html#a221f765c48f478177f150c08733e9d29" target="_top" target="_top" xlink:title="mappel::Gauss2DModel\l::update_internal_1Dsum\l_estimators">
<polygon fill="white" stroke="black" points="163,-169.5 163,-207.5 283,-207.5 283,-169.5 163,-169.5"/>
<text text-anchor="start" x="171" y="-196.3" font-family="Helvetica,sans-Serif" font-size="9.00">mappel::Gauss2DModel</text>
<text text-anchor="start" x="171" y="-186.3" font-family="Helvetica,sans-Serif" font-size="9.00">::update_internal_1Dsum</text>
<text text-anchor="middle" x="223" y="-176.3" font-family="Helvetica,sans-Serif" font-size="9.00">_estimators</text>
</a>
</g>
</g>
<!-- Node1&#45;&gt;Node2 -->
<g id="edge1" class="edge"><title>Node1&#45;&gt;Node2</title>
<path fill="none" stroke="midnightblue" d="M132.687,-166.951C142.778,-169.386 153.104,-171.877 162.987,-174.262"/>
<polygon fill="midnightblue" stroke="midnightblue" points="133.242,-163.485 122.7,-164.542 131.6,-170.29 133.242,-163.485"/>
</g>
<!-- Node6 -->
<g id="node6" class="node"><title>Node6</title>
<g id="a_node6"><a xlink:href="classmappel_1_1Gauss2DsModel.html#a6ce7054c0fcdb72394839a0abb2616cb" target="_top" target="_top" xlink:title="mappel::Gauss2DsModel\l::update_internal_1Dsum\l_estimators">
<polygon fill="white" stroke="black" points="163,-68.5 163,-106.5 283,-106.5 283,-68.5 163,-68.5"/>
<text text-anchor="start" x="171" y="-95.3" font-family="Helvetica,sans-Serif" font-size="9.00">mappel::Gauss2DsModel</text>
<text text-anchor="start" x="171" y="-85.3" font-family="Helvetica,sans-Serif" font-size="9.00">::update_internal_1Dsum</text>
<text text-anchor="middle" x="223" y="-75.3" font-family="Helvetica,sans-Serif" font-size="9.00">_estimators</text>
</a>
</g>
</g>
<!-- Node1&#45;&gt;Node6 -->
<g id="edge5" class="edge"><title>Node1&#45;&gt;Node6</title>
<path fill="none" stroke="midnightblue" d="M109.187,-132.625C129.5,-124.5 153.558,-114.877 174.229,-106.608"/>
<polygon fill="midnightblue" stroke="midnightblue" points="107.831,-129.398 99.8461,-136.362 110.431,-135.897 107.831,-129.398"/>
</g>
<!-- Node3 -->
<g id="node3" class="node"><title>Node3</title>
<g id="a_node3"><a xlink:href="classmappel_1_1Gauss2DModel.html#a07e9c13f8a164f26f337fcc0c2f70374" target="_top" target="_top" xlink:title="mappel::Gauss2DModel\l::debug_internal_sum\l_model_y">
<polygon fill="white" stroke="black" points="321,-245.5 321,-283.5 437,-283.5 437,-245.5 321,-245.5"/>
<text text-anchor="start" x="329" y="-272.3" font-family="Helvetica,sans-Serif" font-size="9.00">mappel::Gauss2DModel</text>
<text text-anchor="start" x="329" y="-262.3" font-family="Helvetica,sans-Serif" font-size="9.00">::debug_internal_sum</text>
<text text-anchor="middle" x="379" y="-252.3" font-family="Helvetica,sans-Serif" font-size="9.00">_model_y</text>
</a>
</g>
</g>
<!-- Node2&#45;&gt;Node3 -->
<g id="edge2" class="edge"><title>Node2&#45;&gt;Node3</title>
<path fill="none" stroke="midnightblue" d="M270.642,-212.355C286.003,-220.134 303.196,-228.759 319,-236.5 324.906,-239.393 331.164,-242.412 337.312,-245.352"/>
<polygon fill="midnightblue" stroke="midnightblue" points="271.845,-209.041 261.343,-207.636 268.677,-215.283 271.845,-209.041"/>
</g>
<!-- Node4 -->
<g id="node4" class="node"><title>Node4</title>
<g id="a_node4"><a xlink:href="classmappel_1_1Gauss2DModel.html#a7041d1f38f1141773b046489ce6e6b11" target="_top" target="_top" xlink:title="mappel::Gauss2DModel\l::set_hyperparams">
<polygon fill="white" stroke="black" points="321,-198.5 321,-226.5 437,-226.5 437,-198.5 321,-198.5"/>
<text text-anchor="start" x="329" y="-215.3" font-family="Helvetica,sans-Serif" font-size="9.00">mappel::Gauss2DModel</text>
<text text-anchor="middle" x="379" y="-205.3" font-family="Helvetica,sans-Serif" font-size="9.00">::set_hyperparams</text>
</a>
</g>
</g>
<!-- Node2&#45;&gt;Node4 -->
<g id="edge3" class="edge"><title>Node2&#45;&gt;Node4</title>
<path fill="none" stroke="midnightblue" d="M293.081,-199.266C302.359,-200.712 311.792,-202.182 320.834,-203.591"/>
<polygon fill="midnightblue" stroke="midnightblue" points="293.52,-195.792 283.1,-197.71 292.442,-202.709 293.52,-195.792"/>
</g>
<!-- Node5 -->
<g id="node5" class="node"><title>Node5</title>
<g id="a_node5"><a xlink:href="classmappel_1_1Gauss2DModel.html#a41a5b18b3f3779562c0dbd19e1b6e29b" target="_top" target="_top" xlink:title="mappel::Gauss2DModel\l::set_prior">
<polygon fill="white" stroke="black" points="321,-151.5 321,-179.5 437,-179.5 437,-151.5 321,-151.5"/>
<text text-anchor="start" x="329" y="-168.3" font-family="Helvetica,sans-Serif" font-size="9.00">mappel::Gauss2DModel</text>
<text text-anchor="middle" x="379" y="-158.3" font-family="Helvetica,sans-Serif" font-size="9.00">::set_prior</text>
</a>
</g>
</g>
<!-- Node2&#45;&gt;Node5 -->
<g id="edge4" class="edge"><title>Node2&#45;&gt;Node5</title>
<path fill="none" stroke="midnightblue" d="M293.081,-178.183C302.359,-176.797 311.792,-175.388 320.834,-174.038"/>
<polygon fill="midnightblue" stroke="midnightblue" points="292.473,-174.735 283.1,-179.673 293.507,-181.658 292.473,-174.735"/>
</g>
<!-- Node7 -->
<g id="node7" class="node"><title>Node7</title>
<g id="a_node7"><a xlink:href="classmappel_1_1Gauss2DsModel.html#a2ce4737beb88367daeb480bf471ad2cf" target="_top" target="_top" xlink:title="mappel::Gauss2DsModel\l::debug_internal_sum\l_model_y">
<polygon fill="white" stroke="black" points="319,-94.5 319,-132.5 439,-132.5 439,-94.5 319,-94.5"/>
<text text-anchor="start" x="327" y="-121.3" font-family="Helvetica,sans-Serif" font-size="9.00">mappel::Gauss2DsModel</text>
<text text-anchor="start" x="327" y="-111.3" font-family="Helvetica,sans-Serif" font-size="9.00">::debug_internal_sum</text>
<text text-anchor="middle" x="379" y="-101.3" font-family="Helvetica,sans-Serif" font-size="9.00">_model_y</text>
</a>
</g>
</g>
<!-- Node6&#45;&gt;Node7 -->
<g id="edge6" class="edge"><title>Node6&#45;&gt;Node7</title>
<path fill="none" stroke="midnightblue" d="M293.089,-99.1644C301.672,-100.614 310.388,-102.085 318.804,-103.506"/>
<polygon fill="midnightblue" stroke="midnightblue" points="293.543,-95.6916 283.1,-97.4779 292.378,-102.594 293.543,-95.6916"/>
</g>
<!-- Node8 -->
<g id="node8" class="node"><title>Node8</title>
<g id="a_node8"><a xlink:href="classmappel_1_1Gauss2DsModel.html#a615788e50f97d8c863ec60a5dfee07e3" target="_top" target="_top" xlink:title="mappel::Gauss2DsModel\l::set_hyperparams">
<polygon fill="white" stroke="black" points="319,-47.5 319,-75.5 439,-75.5 439,-47.5 319,-47.5"/>
<text text-anchor="start" x="327" y="-64.3" font-family="Helvetica,sans-Serif" font-size="9.00">mappel::Gauss2DsModel</text>
<text text-anchor="middle" x="379" y="-54.3" font-family="Helvetica,sans-Serif" font-size="9.00">::set_hyperparams</text>
</a>
</g>
</g>
<!-- Node6&#45;&gt;Node8 -->
<g id="edge7" class="edge"><title>Node6&#45;&gt;Node8</title>
<path fill="none" stroke="midnightblue" d="M293.089,-75.8356C301.672,-74.3865 310.388,-72.915 318.804,-71.4942"/>
<polygon fill="midnightblue" stroke="midnightblue" points="292.378,-72.4061 283.1,-77.5221 293.543,-79.3084 292.378,-72.4061"/>
</g>
<!-- Node9 -->
<g id="node9" class="node"><title>Node9</title>
<g id="a_node9"><a xlink:href="classmappel_1_1Gauss2DsModel.html#a895bee95db23557189b58f9b1d5e2453" target="_top" target="_top" xlink:title="mappel::Gauss2DsModel\l::set_prior">
<polygon fill="white" stroke="black" points="319,-0.5 319,-28.5 439,-28.5 439,-0.5 319,-0.5"/>
<text text-anchor="start" x="327" y="-17.3" font-family="Helvetica,sans-Serif" font-size="9.00">mappel::Gauss2DsModel</text>
<text text-anchor="middle" x="379" y="-7.3" font-family="Helvetica,sans-Serif" font-size="9.00">::set_prior</text>
</a>
</g>
</g>
<!-- Node6&#45;&gt;Node9 -->
<g id="edge8" class="edge"><title>Node6&#45;&gt;Node9</title>
<path fill="none" stroke="midnightblue" d="M268.307,-63.6008C284.148,-55.3353 302.23,-46.217 319,-38.5 326.333,-35.1255 334.282,-31.724 341.898,-28.5853"/>
<polygon fill="midnightblue" stroke="midnightblue" points="266.489,-60.6019 259.265,-68.3518 269.745,-66.7985 266.489,-60.6019"/>
</g>
</g>
</svg>
