<?xml version="1.0" encoding="UTF-8" standalone="no"?>
<!DOCTYPE svg PUBLIC "-//W3C//DTD SVG 1.1//EN"
 "http://www.w3.org/Graphics/SVG/1.1/DTD/svg11.dtd">
<!-- Generated by graphviz version 2.38.0 (20140413.2041)
 -->
<!-- Title: mappel::PointEmitterModel::check_psf_sigma Pages: 1 -->
<!--zoomable 416 -->
<svg id="main" version="1.1" xmlns="http://www.w3.org/2000/svg" xmlns:xlink="http://www.w3.org/1999/xlink" xml:space="preserve" onload="init(evt)">
<style type="text/css"><![CDATA[
.edge:hover path { stroke: red; }
.edge:hover polygon { stroke: red; fill: red; }
]]></style>
<script type="text/javascript"><![CDATA[
var edges = document.getElementsByTagName('g');
if (edges && edges.length) {
  for (var i=0;i<edges.length;i++) {
    if (edges[i].id.substr(0,4)=='edge') {
      edges[i].setAttribute('class','edge');
    }
  }
}
]]></script>
        <defs>
                <circle id="rim" cx="0" cy="0" r="7"/>
                <circle id="rim2" cx="0" cy="0" r="3.5"/>
                <g id="zoomPlus">
                        <use xlink:href="#rim" target="_top" fill="#404040">
                                <set attributeName="fill" to="#808080" begin="zoomplus.mouseover" end="zoomplus.mouseout"/>
                        </use>
                        <path d="M-4,0h8M0,-4v8" fill="none" stroke="white" stroke-width="1.5" pointer-events="none"/>
                </g>
                <g id="zoomMin">
                        <use xlink:href="#rim" target="_top" fill="#404040">
                                <set attributeName="fill" to="#808080" begin="zoomminus.mouseover" end="zoomminus.mouseout"/>
                        </use>
                        <path d="M-4,0h8" fill="none" stroke="white" stroke-width="1.5" pointer-events="none"/>
                </g>
                <g id="dirArrow">
                        <path fill="none" stroke="white" stroke-width="1.5" d="M0,-3.0v7 M-2.5,-0.5L0,-3.0L2.5,-0.5"/>
                </g>
               <g id="resetDef">
                       <use xlink:href="#rim2" target="_top" fill="#404040">
                               <set attributeName="fill" to="#808080" begin="reset.mouseover" end="reset.mouseout"/>
                       </use>
               </g>
        </defs>

<script type="text/javascript">
var viewWidth = 603;
var viewHeight = 416;
var sectionId = 'dynsection-7';
</script>
<script xlink:href="svgpan.js" target="_top"/>
<svg id="graph" class="graph">
<g id="viewport">
<title>mappel::PointEmitterModel::check_psf_sigma</title>
<polygon fill="white" stroke="none" points="-4,4 -4,-412 599,-412 599,4 -4,4"/>
<!-- Node1 -->
<g id="node1" class="node"><title>Node1</title>
<polygon fill="#bfbfbf" stroke="black" points="0,-171.5 0,-199.5 127,-199.5 127,-171.5 0,-171.5"/>
<text text-anchor="start" x="8" y="-188.3" font-family="Helvetica,sans-Serif" font-size="9.00">mappel::PointEmitterModel</text>
<text text-anchor="middle" x="63.5" y="-178.3" font-family="Helvetica,sans-Serif" font-size="9.00">::check_psf_sigma</text>
</g>
<!-- Node2 -->
<g id="node2" class="node"><title>Node2</title>
<g id="a_node2"><a xlink:href="classmappel_1_1Gauss1DModel.html#ac4d64dccdf5ec50e53538ee4cef23e39" target="_top" target="_top" xlink:title="mappel::Gauss1DModel\l::Gauss1DModel">
<polygon fill="white" stroke="black" points="165,-355.5 165,-383.5 281,-383.5 281,-355.5 165,-355.5"/>
<text text-anchor="start" x="173" y="-372.3" font-family="Helvetica,sans-Serif" font-size="9.00">mappel::Gauss1DModel</text>
<text text-anchor="middle" x="223" y="-362.3" font-family="Helvetica,sans-Serif" font-size="9.00">::Gauss1DModel</text>
</a>
</g>
</g>
<!-- Node1&#45;&gt;Node2 -->
<g id="edge1" class="edge"><title>Node1&#45;&gt;Node2</title>
<path fill="none" stroke="midnightblue" d="M73.4611,-209.202C87.5823,-243.626 118.107,-307.483 163,-345.5 167.557,-349.359 172.817,-352.658 178.28,-355.461"/>
<polygon fill="midnightblue" stroke="midnightblue" points="76.5589,-207.521 69.6076,-199.525 70.0556,-210.11 76.5589,-207.521"/>
</g>
<!-- Node3 -->
<g id="node3" class="node"><title>Node3</title>
<g id="a_node3"><a xlink:href="classmappel_1_1Gauss2DModel.html#aa2247488bb3d360e323b9819ccef3429" target="_top" target="_top" xlink:title="mappel::Gauss2DModel\l::Gauss2DModel">
<polygon fill="white" stroke="black" points="165,-308.5 165,-336.5 281,-336.5 281,-308.5 165,-308.5"/>
<text text-anchor="start" x="173" y="-325.3" font-family="Helvetica,sans-Serif" font-size="9.00">mappel::Gauss2DModel</text>
<text text-anchor="middle" x="223" y="-315.3" font-family="Helvetica,sans-Serif" font-size="9.00">::Gauss2DModel</text>
</a>
</g>
</g>
<!-- Node1&#45;&gt;Node3 -->
<g id="edge2" class="edge"><title>Node1&#45;&gt;Node3</title>
<path fill="none" stroke="midnightblue" d="M79.2544,-208.023C96.6587,-233.071 127.726,-273.312 163,-298.5 168.31,-302.291 174.306,-305.61 180.39,-308.472"/>
<polygon fill="midnightblue" stroke="midnightblue" points="81.9989,-205.835 73.478,-199.539 76.2126,-209.774 81.9989,-205.835"/>
</g>
<!-- Node5 -->
<g id="node5" class="node"><title>Node5</title>
<g id="a_node5"><a xlink:href="classmappel_1_1Gauss2DsModel.html#ab884d4d8ab54ec53cf0116aa9a5b1d81" target="_top" target="_top" xlink:title="mappel::Gauss2DsModel\l::Gauss2DsModel">
<polygon fill="white" stroke="black" points="163,-261.5 163,-289.5 283,-289.5 283,-261.5 163,-261.5"/>
<text text-anchor="start" x="171" y="-278.3" font-family="Helvetica,sans-Serif" font-size="9.00">mappel::Gauss2DsModel</text>
<text text-anchor="middle" x="223" y="-268.3" font-family="Helvetica,sans-Serif" font-size="9.00">::Gauss2DsModel</text>
</a>
</g>
</g>
<!-- Node1&#45;&gt;Node5 -->
<g id="edge4" class="edge"><title>Node1&#45;&gt;Node5</title>
<path fill="none" stroke="midnightblue" d="M91.3267,-205.659C110.625,-219.609 137.62,-238.016 163,-251.5 169.641,-255.028 176.916,-258.375 184.021,-261.388"/>
<polygon fill="midnightblue" stroke="midnightblue" points="93.1732,-202.674 83.0348,-199.597 89.0419,-208.325 93.1732,-202.674"/>
</g>
<!-- Node7 -->
<g id="node7" class="node"><title>Node7</title>
<g id="a_node7"><a xlink:href="classmappel_1_1Gauss1DsModel.html#abcaaecd43be1f8c005b65e74482a7d86" target="_top" target="_top" xlink:title="mappel::Gauss1DsModel\l::set_max_sigma">
<polygon fill="white" stroke="black" points="163,-214.5 163,-242.5 283,-242.5 283,-214.5 163,-214.5"/>
<text text-anchor="start" x="171" y="-231.3" font-family="Helvetica,sans-Serif" font-size="9.00">mappel::Gauss1DsModel</text>
<text text-anchor="middle" x="223" y="-221.3" font-family="Helvetica,sans-Serif" font-size="9.00">::set_max_sigma</text>
</a>
</g>
</g>
<!-- Node1&#45;&gt;Node7 -->
<g id="edge6" class="edge"><title>Node1&#45;&gt;Node7</title>
<path fill="none" stroke="midnightblue" d="M126.1,-202.318C140.819,-206.336 156.377,-210.584 170.582,-214.462"/>
<polygon fill="midnightblue" stroke="midnightblue" points="126.64,-198.837 116.071,-199.58 124.796,-205.59 126.64,-198.837"/>
</g>
<!-- Node10 -->
<g id="node10" class="node"><title>Node10</title>
<g id="a_node10"><a xlink:href="classmappel_1_1Gauss2DsModel.html#a8ef1bc0d4dc27247d88ff2c7300a149d" target="_top" target="_top" xlink:title="mappel::Gauss2DsModel\l::set_max_sigma">
<polygon fill="white" stroke="black" points="475,-149.5 475,-177.5 595,-177.5 595,-149.5 475,-149.5"/>
<text text-anchor="start" x="483" y="-166.3" font-family="Helvetica,sans-Serif" font-size="9.00">mappel::Gauss2DsModel</text>
<text text-anchor="middle" x="535" y="-156.3" font-family="Helvetica,sans-Serif" font-size="9.00">::set_max_sigma</text>
</a>
</g>
</g>
<!-- Node1&#45;&gt;Node10 -->
<g id="edge11" class="edge"><title>Node1&#45;&gt;Node10</title>
<path fill="none" stroke="midnightblue" d="M87.0434,-164.541C105.796,-148.586 134.018,-127.831 163,-118.5 279.777,-80.9032 319.781,-85.5653 439,-114.5 466.592,-121.197 495.136,-137.391 513.639,-149.339"/>
<polygon fill="midnightblue" stroke="midnightblue" points="84.5898,-162.038 79.3686,-171.257 89.1993,-167.306 84.5898,-162.038"/>
</g>
<!-- Node11 -->
<g id="node11" class="node"><title>Node11</title>
<g id="a_node11"><a xlink:href="classmappel_1_1Gauss2DsModel.html#a63d3481174444ff7f7b603a47aa8dcc1" target="_top" target="_top" xlink:title="mappel::Gauss2DsModel\l::set_min_sigma">
<polygon fill="white" stroke="black" points="319,-171.5 319,-199.5 439,-199.5 439,-171.5 319,-171.5"/>
<text text-anchor="start" x="327" y="-188.3" font-family="Helvetica,sans-Serif" font-size="9.00">mappel::Gauss2DsModel</text>
<text text-anchor="middle" x="379" y="-178.3" font-family="Helvetica,sans-Serif" font-size="9.00">::set_min_sigma</text>
</a>
</g>
</g>
<!-- Node1&#45;&gt;Node11 -->
<g id="edge15" class="edge"><title>Node1&#45;&gt;Node11</title>
<path fill="none" stroke="midnightblue" d="M137.253,-185.5C192.442,-185.5 267.345,-185.5 318.87,-185.5"/>
<polygon fill="midnightblue" stroke="midnightblue" points="137.188,-182 127.188,-185.5 137.188,-189 137.188,-182"/>
</g>
<!-- Node12 -->
<g id="node12" class="node"><title>Node12</title>
<g id="a_node12"><a xlink:href="classmappel_1_1Gauss1DsModel.html#ab57025e678a631f4311f33aae1a1674b" target="_top" target="_top" xlink:title="mappel::Gauss1DsModel\l::set_min_sigma">
<polygon fill="white" stroke="black" points="163,-128.5 163,-156.5 283,-156.5 283,-128.5 163,-128.5"/>
<text text-anchor="start" x="171" y="-145.3" font-family="Helvetica,sans-Serif" font-size="9.00">mappel::Gauss1DsModel</text>
<text text-anchor="middle" x="223" y="-135.3" font-family="Helvetica,sans-Serif" font-size="9.00">::set_min_sigma</text>
</a>
</g>
</g>
<!-- Node1&#45;&gt;Node12 -->
<g id="edge12" class="edge"><title>Node1&#45;&gt;Node12</title>
<path fill="none" stroke="midnightblue" d="M126.1,-168.682C140.819,-164.664 156.377,-160.416 170.582,-156.538"/>
<polygon fill="midnightblue" stroke="midnightblue" points="124.796,-165.41 116.071,-171.42 126.64,-172.163 124.796,-165.41"/>
</g>
<!-- Node14 -->
<g id="node14" class="node"><title>Node14</title>
<g id="a_node14"><a xlink:href="classmappel_1_1Gauss1DModel.html#a5c09d4cf98de58fb67d881b560e6a3e8" target="_top" target="_top" xlink:title="mappel::Gauss1DModel\l::set_psf_sigma">
<polygon fill="white" stroke="black" points="165,-0.5 165,-28.5 281,-28.5 281,-0.5 165,-0.5"/>
<text text-anchor="start" x="173" y="-17.3" font-family="Helvetica,sans-Serif" font-size="9.00">mappel::Gauss1DModel</text>
<text text-anchor="middle" x="223" y="-7.3" font-family="Helvetica,sans-Serif" font-size="9.00">::set_psf_sigma</text>
</a>
</g>
</g>
<!-- Node1&#45;&gt;Node14 -->
<g id="edge16" class="edge"><title>Node1&#45;&gt;Node14</title>
<path fill="none" stroke="midnightblue" d="M75.8753,-162.163C91.7666,-131.563 123.19,-77.7592 163,-43.5 169.748,-37.693 177.861,-32.7325 185.881,-28.6417"/>
<polygon fill="midnightblue" stroke="midnightblue" points="72.6789,-160.727 71.2706,-171.228 78.9199,-163.897 72.6789,-160.727"/>
</g>
<!-- Node15 -->
<g id="node15" class="node"><title>Node15</title>
<g id="a_node15"><a xlink:href="classmappel_1_1Gauss2DModel.html#abe39c2b7eb4eaaca9e67cdf6cfe441dc" target="_top" target="_top" xlink:title="mappel::Gauss2DModel\l::set_psf_sigma">
<polygon fill="white" stroke="black" points="321,-19.5 321,-47.5 437,-47.5 437,-19.5 321,-19.5"/>
<text text-anchor="start" x="329" y="-36.3" font-family="Helvetica,sans-Serif" font-size="9.00">mappel::Gauss2DModel</text>
<text text-anchor="middle" x="379" y="-26.3" font-family="Helvetica,sans-Serif" font-size="9.00">::set_psf_sigma</text>
</a>
</g>
</g>
<!-- Node1&#45;&gt;Node15 -->
<g id="edge18" class="edge"><title>Node1&#45;&gt;Node15</title>
<path fill="none" stroke="midnightblue" d="M79.7632,-162.676C97.0641,-138.667 127.519,-101.632 163,-81.5 211.898,-53.7554 275.531,-42.0469 320.854,-37.1061"/>
<polygon fill="midnightblue" stroke="midnightblue" points="76.6759,-160.982 73.7935,-171.178 82.4046,-165.005 76.6759,-160.982"/>
</g>
<!-- Node4 -->
<g id="node4" class="node"><title>Node4</title>
<g id="a_node4"><a xlink:href="classmappel_1_1Gauss2DModel.html#a07e9c13f8a164f26f337fcc0c2f70374" target="_top" target="_top" xlink:title="mappel::Gauss2DModel\l::debug_internal_sum\l_model_y">
<polygon fill="white" stroke="black" points="321,-369.5 321,-407.5 437,-407.5 437,-369.5 321,-369.5"/>
<text text-anchor="start" x="329" y="-396.3" font-family="Helvetica,sans-Serif" font-size="9.00">mappel::Gauss2DModel</text>
<text text-anchor="start" x="329" y="-386.3" font-family="Helvetica,sans-Serif" font-size="9.00">::debug_internal_sum</text>
<text text-anchor="middle" x="379" y="-376.3" font-family="Helvetica,sans-Serif" font-size="9.00">_model_y</text>
</a>
</g>
</g>
<!-- Node3&#45;&gt;Node4 -->
<g id="edge3" class="edge"><title>Node3&#45;&gt;Node4</title>
<path fill="none" stroke="midnightblue" d="M268.417,-340.401C273.346,-342.437 278.286,-344.5 283,-346.5 300.264,-353.826 319.18,-362.131 335.556,-369.411"/>
<polygon fill="midnightblue" stroke="midnightblue" points="269.593,-337.101 259.013,-336.541 266.935,-343.577 269.593,-337.101"/>
</g>
<!-- Node6 -->
<g id="node6" class="node"><title>Node6</title>
<g id="a_node6"><a xlink:href="classmappel_1_1Gauss2DsModel.html#a2ce4737beb88367daeb480bf471ad2cf" target="_top" target="_top" xlink:title="mappel::Gauss2DsModel\l::debug_internal_sum\l_model_y">
<polygon fill="white" stroke="black" points="319,-312.5 319,-350.5 439,-350.5 439,-312.5 319,-312.5"/>
<text text-anchor="start" x="327" y="-339.3" font-family="Helvetica,sans-Serif" font-size="9.00">mappel::Gauss2DsModel</text>
<text text-anchor="start" x="327" y="-329.3" font-family="Helvetica,sans-Serif" font-size="9.00">::debug_internal_sum</text>
<text text-anchor="middle" x="379" y="-319.3" font-family="Helvetica,sans-Serif" font-size="9.00">_model_y</text>
</a>
</g>
</g>
<!-- Node5&#45;&gt;Node6 -->
<g id="edge5" class="edge"><title>Node5&#45;&gt;Node6</title>
<path fill="none" stroke="midnightblue" d="M272.506,-293.139C289.355,-299.265 308.322,-306.163 325.48,-312.402"/>
<polygon fill="midnightblue" stroke="midnightblue" points="273.455,-289.759 262.861,-289.631 271.063,-296.338 273.455,-289.759"/>
</g>
<!-- Node8 -->
<g id="node8" class="node"><title>Node8</title>
<g id="a_node8"><a xlink:href="classmappel_1_1Gauss1DsModel.html#a28c6e621043d53c5273e277266453de9" target="_top" target="_top" xlink:title="mappel::Gauss1DsModel\l::set_max_sigma">
<polygon fill="white" stroke="black" points="319,-265.5 319,-293.5 439,-293.5 439,-265.5 319,-265.5"/>
<text text-anchor="start" x="327" y="-282.3" font-family="Helvetica,sans-Serif" font-size="9.00">mappel::Gauss1DsModel</text>
<text text-anchor="middle" x="379" y="-272.3" font-family="Helvetica,sans-Serif" font-size="9.00">::set_max_sigma</text>
</a>
</g>
</g>
<!-- Node7&#45;&gt;Node8 -->
<g id="edge7" class="edge"><title>Node7&#45;&gt;Node8</title>
<path fill="none" stroke="midnightblue" d="M276.088,-245.75C295.48,-252.172 317.235,-259.377 335.65,-265.475"/>
<polygon fill="midnightblue" stroke="midnightblue" points="277.082,-242.392 266.489,-242.571 274.881,-249.037 277.082,-242.392"/>
</g>
<!-- Node9 -->
<g id="node9" class="node"><title>Node9</title>
<g id="a_node9"><a xlink:href="classmappel_1_1Gauss2DsModel.html#a85925eaef6d69c5f6b3ceeae3364dd68" target="_top" target="_top" xlink:title="mappel::Gauss2DsModel\l::set_max_sigma_ratio">
<polygon fill="white" stroke="black" points="319,-218.5 319,-246.5 439,-246.5 439,-218.5 319,-218.5"/>
<text text-anchor="start" x="327" y="-235.3" font-family="Helvetica,sans-Serif" font-size="9.00">mappel::Gauss2DsModel</text>
<text text-anchor="middle" x="379" y="-225.3" font-family="Helvetica,sans-Serif" font-size="9.00">::set_max_sigma_ratio</text>
</a>
</g>
</g>
<!-- Node7&#45;&gt;Node9 -->
<g id="edge8" class="edge"><title>Node7&#45;&gt;Node9</title>
<path fill="none" stroke="midnightblue" d="M293.369,-230.302C301.862,-230.522 310.48,-230.746 318.804,-230.962"/>
<polygon fill="midnightblue" stroke="midnightblue" points="293.188,-226.796 283.1,-230.035 293.006,-233.794 293.188,-226.796"/>
</g>
<!-- Node7&#45;&gt;Node11 -->
<g id="edge10" class="edge"><title>Node7&#45;&gt;Node11</title>
<path fill="none" stroke="midnightblue" d="M284.231,-211.682C298.623,-207.664 313.836,-203.416 327.724,-199.538"/>
<polygon fill="midnightblue" stroke="midnightblue" points="283.116,-208.36 274.425,-214.42 284.998,-215.102 283.116,-208.36"/>
</g>
<!-- Node9&#45;&gt;Node10 -->
<g id="edge9" class="edge"><title>Node9&#45;&gt;Node10</title>
<path fill="none" stroke="midnightblue" d="M424.665,-214.641C429.519,-212.608 434.374,-210.535 439,-208.5 461.552,-198.581 486.738,-186.609 505.507,-177.508"/>
<polygon fill="midnightblue" stroke="midnightblue" points="423.291,-211.421 415.39,-218.48 425.968,-217.889 423.291,-211.421"/>
</g>
<!-- Node12&#45;&gt;Node11 -->
<g id="edge14" class="edge"><title>Node12&#45;&gt;Node11</title>
<path fill="none" stroke="midnightblue" d="M284.231,-159.318C298.623,-163.336 313.836,-167.584 327.724,-171.462"/>
<polygon fill="midnightblue" stroke="midnightblue" points="284.998,-155.898 274.425,-156.58 283.116,-162.64 284.998,-155.898"/>
</g>
<!-- Node13 -->
<g id="node13" class="node"><title>Node13</title>
<g id="a_node13"><a xlink:href="classmappel_1_1Gauss1DsModel.html#a32cda067f5c42abf042ed749fc3104c5" target="_top" target="_top" xlink:title="mappel::Gauss1DsModel\l::set_min_sigma">
<polygon fill="white" stroke="black" points="319,-124.5 319,-152.5 439,-152.5 439,-124.5 319,-124.5"/>
<text text-anchor="start" x="327" y="-141.3" font-family="Helvetica,sans-Serif" font-size="9.00">mappel::Gauss1DsModel</text>
<text text-anchor="middle" x="379" y="-131.3" font-family="Helvetica,sans-Serif" font-size="9.00">::set_min_sigma</text>
</a>
</g>
</g>
<!-- Node12&#45;&gt;Node13 -->
<g id="edge13" class="edge"><title>Node12&#45;&gt;Node13</title>
<path fill="none" stroke="midnightblue" d="M293.369,-140.698C301.862,-140.478 310.48,-140.254 318.804,-140.038"/>
<polygon fill="midnightblue" stroke="midnightblue" points="293.006,-137.206 283.1,-140.965 293.188,-144.204 293.006,-137.206"/>
</g>
<!-- Node14&#45;&gt;Node15 -->
<g id="edge17" class="edge"><title>Node14&#45;&gt;Node15</title>
<path fill="none" stroke="midnightblue" d="M291.462,-22.8232C301.27,-24.0333 311.287,-25.2692 320.865,-26.4508"/>
<polygon fill="midnightblue" stroke="midnightblue" points="291.697,-19.3258 281.344,-21.5749 290.84,-26.2731 291.697,-19.3258"/>
</g>
</g>
</svg>
        <g id="navigator" transform="translate(0 0)" fill="#404254">
                <rect fill="#f2f5e9" fill-opacity="0.5" stroke="#606060" stroke-width=".5" x="0" y="0" width="60" height="60"/>
                <use id="zoomplus" xlink:href="#zoomPlus" target="_top" x="17" y="9" onmousedown="handleZoom(evt,'in')"/>
                <use id="zoomminus" xlink:href="#zoomMin" target="_top" x="42" y="9" onmousedown="handleZoom(evt,'out')"/>
                <use id="reset" xlink:href="#resetDef" target="_top" x="30" y="36" onmousedown="handleReset()"/>
                <g id="arrowUp" xlink:href="#dirArrow" target="_top" transform="translate(30 24)" onmousedown="handlePan(0,-1)">
                  <use xlink:href="#rim" target="_top" fill="#404040">
                        <set attributeName="fill" to="#808080" begin="arrowUp.mouseover" end="arrowUp.mouseout"/>
                  </use>
                  <path fill="none" stroke="white" stroke-width="1.5" d="M0,-3.0v7 M-2.5,-0.5L0,-3.0L2.5,-0.5"/>
                </g>
                <g id="arrowRight" xlink:href="#dirArrow" target="_top" transform="rotate(90) translate(36 -43)" onmousedown="handlePan(1,0)">
                  <use xlink:href="#rim" target="_top" fill="#404040">
                        <set attributeName="fill" to="#808080" begin="arrowRight.mouseover" end="arrowRight.mouseout"/>
                  </use>
                  <path fill="none" stroke="white" stroke-width="1.5" d="M0,-3.0v7 M-2.5,-0.5L0,-3.0L2.5,-0.5"/>
                </g>
                <g id="arrowDown" xlink:href="#dirArrow" target="_top" transform="rotate(180) translate(-30 -48)" onmousedown="handlePan(0,1)">
                  <use xlink:href="#rim" target="_top" fill="#404040">
                        <set attributeName="fill" to="#808080" begin="arrowDown.mouseover" end="arrowDown.mouseout"/>
                  </use>
                  <path fill="none" stroke="white" stroke-width="1.5" d="M0,-3.0v7 M-2.5,-0.5L0,-3.0L2.5,-0.5"/>
                </g>
                <g id="arrowLeft" xlink:href="#dirArrow" target="_top" transform="rotate(270) translate(-36 17)" onmousedown="handlePan(-1,0)">
                  <use xlink:href="#rim" target="_top" fill="#404040">
                        <set attributeName="fill" to="#808080" begin="arrowLeft.mouseover" end="arrowLeft.mouseout"/>
                  </use>
                  <path fill="none" stroke="white" stroke-width="1.5" d="M0,-3.0v7 M-2.5,-0.5L0,-3.0L2.5,-0.5"/>
                </g>
        </g>
        <svg viewBox="0 0 15 15" width="100%" height="30px" preserveAspectRatio="xMaxYMin meet">
         <g id="arrow_out" transform="scale(0.3 0.3)">
          <a xlink:href="classmappel_1_1PointEmitterModel_a01ce8d6358acbd2575be519dff1df89b_icgraph_org.svg" target="_top" target="_base">
           <rect id="button" ry="5" rx="5" y="6" x="6" height="38" width="38"
                fill="#f2f5e9" fill-opacity="0.5" stroke="#606060" stroke-width="1.0"/>
           <path id="arrow"
             d="M 11.500037,31.436501 C 11.940474,20.09759 22.043105,11.32322 32.158766,21.979434 L 37.068811,17.246167 C 37.068811,17.246167 37.088388,32 37.088388,32 L 22.160133,31.978069 C 22.160133,31.978069 26.997745,27.140456 26.997745,27.140456 C 18.528582,18.264221 13.291696,25.230495 11.500037,31.436501 z"
             style="fill:#404040;"/>
          </a>
         </g>
        </svg>
</svg>
