<?xml version="1.0" encoding="UTF-8" standalone="no"?>
<!DOCTYPE svg PUBLIC "-//W3C//DTD SVG 1.1//EN"
 "http://www.w3.org/Graphics/SVG/1.1/DTD/svg11.dtd">
<!-- Generated by graphviz version 2.38.0 (20140413.2041)
 -->
<!-- Title: mappel::IterativeMaximizer::backtrack Pages: 1 -->
<svg width="333pt" height="131pt"
 viewBox="0.00 0.00 333.00 131.00" xmlns="http://www.w3.org/2000/svg" xmlns:xlink="http://www.w3.org/1999/xlink">
<g id="graph0" class="graph" transform="scale(1 1) rotate(0) translate(4 127)">
<title>mappel::IterativeMaximizer::backtrack</title>
<polygon fill="white" stroke="none" points="-4,4 -4,-127 329,-127 329,4 -4,4"/>
<!-- Node1 -->
<g id="node1" class="node"><title>Node1</title>
<polygon fill="#bfbfbf" stroke="black" points="0,-47.5 0,-75.5 126,-75.5 126,-47.5 0,-47.5"/>
<text text-anchor="start" x="8" y="-64.3" font-family="Helvetica,sans-Serif" font-size="9.00">mappel::IterativeMaximizer</text>
<text text-anchor="middle" x="63" y="-54.3" font-family="Helvetica,sans-Serif" font-size="9.00">::backtrack</text>
</g>
<!-- Node2 -->
<g id="node2" class="node"><title>Node2</title>
<g id="a_node2"><a xlink:href="classmappel_1_1NewtonDiagonalMaximizer.html#ac445064041b5c7f3c147c08a0065cd68" target="_top" xlink:title="mappel::NewtonDiagonalMaximizer\l::maximize">
<polygon fill="white" stroke="black" points="162,-94.5 162,-122.5 325,-122.5 325,-94.5 162,-94.5"/>
<text text-anchor="start" x="170" y="-111.3" font-family="Helvetica,sans-Serif" font-size="9.00">mappel::NewtonDiagonalMaximizer</text>
<text text-anchor="middle" x="243.5" y="-101.3" font-family="Helvetica,sans-Serif" font-size="9.00">::maximize</text>
</a>
</g>
</g>
<!-- Node1&#45;&gt;Node2 -->
<g id="edge1" class="edge"><title>Node1&#45;&gt;Node2</title>
<path fill="none" stroke="midnightblue" d="M127.328,-78.1747C147.597,-83.5115 169.819,-89.3626 189.29,-94.4894"/>
<polygon fill="midnightblue" stroke="midnightblue" points="128.118,-74.7633 117.556,-75.6015 126.335,-81.5325 128.118,-74.7633"/>
</g>
<!-- Node3 -->
<g id="node3" class="node"><title>Node3</title>
<g id="a_node3"><a xlink:href="classmappel_1_1NewtonMaximizer.html#aca7e3071f17ef6f381878eb6151c86d7" target="_top" xlink:title="mappel::NewtonMaximizer\l::maximize">
<polygon fill="white" stroke="black" points="181,-47.5 181,-75.5 306,-75.5 306,-47.5 181,-47.5"/>
<text text-anchor="start" x="189" y="-64.3" font-family="Helvetica,sans-Serif" font-size="9.00">mappel::NewtonMaximizer</text>
<text text-anchor="middle" x="243.5" y="-54.3" font-family="Helvetica,sans-Serif" font-size="9.00">::maximize</text>
</a>
</g>
</g>
<!-- Node1&#45;&gt;Node3 -->
<g id="edge2" class="edge"><title>Node1&#45;&gt;Node3</title>
<path fill="none" stroke="midnightblue" d="M136.286,-61.5C151.062,-61.5 166.481,-61.5 180.844,-61.5"/>
<polygon fill="midnightblue" stroke="midnightblue" points="136.18,-58.0001 126.18,-61.5 136.18,-65.0001 136.18,-58.0001"/>
</g>
<!-- Node4 -->
<g id="node4" class="node"><title>Node4</title>
<g id="a_node4"><a xlink:href="classmappel_1_1QuasiNewtonMaximizer.html#ab4d32d8ba90d4355262a228753619b9f" target="_top" xlink:title="mappel::QuasiNewtonMaximizer\l::maximize">
<polygon fill="white" stroke="black" points="169,-0.5 169,-28.5 318,-28.5 318,-0.5 169,-0.5"/>
<text text-anchor="start" x="177" y="-17.3" font-family="Helvetica,sans-Serif" font-size="9.00">mappel::QuasiNewtonMaximizer</text>
<text text-anchor="middle" x="243.5" y="-7.3" font-family="Helvetica,sans-Serif" font-size="9.00">::maximize</text>
</a>
</g>
</g>
<!-- Node1&#45;&gt;Node4 -->
<g id="edge3" class="edge"><title>Node1&#45;&gt;Node4</title>
<path fill="none" stroke="midnightblue" d="M127.328,-44.8253C147.597,-39.4885 169.819,-33.6374 189.29,-28.5106"/>
<polygon fill="midnightblue" stroke="midnightblue" points="126.335,-41.4675 117.556,-47.3985 128.118,-48.2367 126.335,-41.4675"/>
</g>
</g>
</svg>
