<?xml version="1.0" encoding="UTF-8" standalone="no"?>
<!DOCTYPE svg PUBLIC "-//W3C//DTD SVG 1.1//EN"
 "http://www.w3.org/Graphics/SVG/1.1/DTD/svg11.dtd">
<!-- Generated by graphviz version 2.38.0 (20140413.2041)
 -->
<!-- Title: mappel::Gauss2DsModel Pages: 1 -->
<svg width="386pt" height="302pt"
 viewBox="0.00 0.00 386.00 302.00" xmlns="http://www.w3.org/2000/svg" xmlns:xlink="http://www.w3.org/1999/xlink">
<g id="graph0" class="graph" transform="scale(1 1) rotate(0) translate(4 298)">
<title>mappel::Gauss2DsModel</title>
<polygon fill="white" stroke="none" points="-4,4 -4,-298 382,-298 382,4 -4,4"/>
<!-- Node1 -->
<g id="node1" class="node"><title>Node1</title>
<polygon fill="#bfbfbf" stroke="black" points="96.5,-55.5 96.5,-73.5 216.5,-73.5 216.5,-55.5 96.5,-55.5"/>
<text text-anchor="middle" x="156.5" y="-62.3" font-family="Helvetica,sans-Serif" font-size="9.00">mappel::Gauss2DsModel</text>
</g>
<!-- Node8 -->
<g id="node8" class="node"><title>Node8</title>
<g id="a_node8"><a xlink:href="classmappel_1_1Gauss2DsMAP.html" target="_top" xlink:title="A 2D Gaussian with a variable scalar PSF sigma under a Poisson noise assumption using a maximum a&#45;pos...">
<polygon fill="white" stroke="black" points="33.5,-0.5 33.5,-18.5 147.5,-18.5 147.5,-0.5 33.5,-0.5"/>
<text text-anchor="middle" x="90.5" y="-7.3" font-family="Helvetica,sans-Serif" font-size="9.00">mappel::Gauss2DsMAP</text>
</a>
</g>
</g>
<!-- Node1&#45;&gt;Node8 -->
<g id="edge8" class="edge"><title>Node1&#45;&gt;Node8</title>
<path fill="none" stroke="midnightblue" d="M138.351,-48.9259C126.193,-39.1622 110.635,-26.6693 100.618,-18.6253"/>
<polygon fill="midnightblue" stroke="midnightblue" points="136.487,-51.9181 146.476,-55.4504 140.87,-46.46 136.487,-51.9181"/>
</g>
<!-- Node9 -->
<g id="node9" class="node"><title>Node9</title>
<g id="a_node9"><a xlink:href="classmappel_1_1Gauss2DsMLE.html" target="_top" xlink:title="A 2D Gaussian with a variable scalar PSF sigma under a Poisson noise assumption using a maximum&#45;likel...">
<polygon fill="white" stroke="black" points="166,-0.5 166,-18.5 279,-18.5 279,-0.5 166,-0.5"/>
<text text-anchor="middle" x="222.5" y="-7.3" font-family="Helvetica,sans-Serif" font-size="9.00">mappel::Gauss2DsMLE</text>
</a>
</g>
</g>
<!-- Node1&#45;&gt;Node9 -->
<g id="edge9" class="edge"><title>Node1&#45;&gt;Node9</title>
<path fill="none" stroke="midnightblue" d="M174.649,-48.9259C186.807,-39.1622 202.365,-26.6693 212.382,-18.6253"/>
<polygon fill="midnightblue" stroke="midnightblue" points="172.13,-46.46 166.524,-55.4504 176.513,-51.9181 172.13,-46.46"/>
</g>
<!-- Node2 -->
<g id="node2" class="node"><title>Node2</title>
<g id="a_node2"><a xlink:href="classmappel_1_1PointEmitterModel.html" target="_top" xlink:title="A virtual Base type for point emitter localization models. ">
<polygon fill="white" stroke="black" points="0,-275.5 0,-293.5 127,-293.5 127,-275.5 0,-275.5"/>
<text text-anchor="middle" x="63.5" y="-282.3" font-family="Helvetica,sans-Serif" font-size="9.00">mappel::PointEmitterModel</text>
</a>
</g>
</g>
<!-- Node2&#45;&gt;Node1 -->
<g id="edge1" class="edge"><title>Node2&#45;&gt;Node1</title>
<path fill="none" stroke="midnightblue" d="M60.5495,-265.28C56.1044,-231.662 51.2356,-158.86 82.5,-110 93.8928,-92.1954 115.184,-80.5042 132.014,-73.5932"/>
<polygon fill="midnightblue" stroke="midnightblue" points="57.125,-266.049 62.0442,-275.433 64.0503,-265.03 57.125,-266.049"/>
</g>
<!-- Node6 -->
<g id="node6" class="node"><title>Node6</title>
<g id="a_node6"><a xlink:href="classmappel_1_1MCMCAdaptor1D.html" target="_top" xlink:title="mappel::MCMCAdaptor1D">
<polygon fill="white" stroke="black" points="94,-220.5 94,-238.5 219,-238.5 219,-220.5 94,-220.5"/>
<text text-anchor="middle" x="156.5" y="-227.3" font-family="Helvetica,sans-Serif" font-size="9.00">mappel::MCMCAdaptor1D</text>
</a>
</g>
</g>
<!-- Node2&#45;&gt;Node6 -->
<g id="edge6" class="edge"><title>Node2&#45;&gt;Node6</title>
<path fill="none" stroke="midnightblue" d="M86.6136,-270.328C104.059,-260.386 127.442,-247.06 142.242,-238.625"/>
<polygon fill="midnightblue" stroke="midnightblue" points="84.5799,-267.458 77.6247,-275.45 88.0459,-273.54 84.5799,-267.458"/>
</g>
<!-- Node3 -->
<g id="node3" class="node"><title>Node3</title>
<g id="a_node3"><a xlink:href="classmappel_1_1ImageFormat2DBase.html" target="_top" xlink:title="A virtual base class for 2D image localization objectives. ">
<polygon fill="white" stroke="black" points="239,-110.5 239,-128.5 378,-128.5 378,-110.5 239,-110.5"/>
<text text-anchor="middle" x="308.5" y="-117.3" font-family="Helvetica,sans-Serif" font-size="9.00">mappel::ImageFormat2DBase</text>
</a>
</g>
</g>
<!-- Node3&#45;&gt;Node1 -->
<g id="edge2" class="edge"><title>Node3&#45;&gt;Node1</title>
<path fill="none" stroke="midnightblue" d="M275.76,-107.084C246.861,-97.0074 205.448,-82.5675 179.803,-73.6253"/>
<polygon fill="midnightblue" stroke="midnightblue" points="274.82,-110.463 285.414,-110.45 277.124,-103.853 274.82,-110.463"/>
</g>
<!-- Node4 -->
<g id="node4" class="node"><title>Node4</title>
<g id="a_node4"><a xlink:href="classmappel_1_1MCMCAdaptor2Ds.html" target="_top" xlink:title="mappel::MCMCAdaptor2Ds">
<polygon fill="white" stroke="black" points="92,-110.5 92,-128.5 221,-128.5 221,-110.5 92,-110.5"/>
<text text-anchor="middle" x="156.5" y="-117.3" font-family="Helvetica,sans-Serif" font-size="9.00">mappel::MCMCAdaptor2Ds</text>
</a>
</g>
</g>
<!-- Node4&#45;&gt;Node1 -->
<g id="edge3" class="edge"><title>Node4&#45;&gt;Node1</title>
<path fill="none" stroke="midnightblue" d="M156.5,-100.175C156.5,-91.0945 156.5,-80.5949 156.5,-73.5496"/>
<polygon fill="midnightblue" stroke="midnightblue" points="153,-100.219 156.5,-110.219 160,-100.219 153,-100.219"/>
</g>
<!-- Node5 -->
<g id="node5" class="node"><title>Node5</title>
<g id="a_node5"><a xlink:href="classmappel_1_1MCMCAdaptor2D.html" target="_top" xlink:title="mappel::MCMCAdaptor2D">
<polygon fill="white" stroke="black" points="94,-165.5 94,-183.5 219,-183.5 219,-165.5 94,-165.5"/>
<text text-anchor="middle" x="156.5" y="-172.3" font-family="Helvetica,sans-Serif" font-size="9.00">mappel::MCMCAdaptor2D</text>
</a>
</g>
</g>
<!-- Node5&#45;&gt;Node4 -->
<g id="edge4" class="edge"><title>Node5&#45;&gt;Node4</title>
<path fill="none" stroke="midnightblue" d="M156.5,-155.175C156.5,-146.094 156.5,-135.595 156.5,-128.55"/>
<polygon fill="midnightblue" stroke="midnightblue" points="153,-155.219 156.5,-165.219 160,-155.219 153,-155.219"/>
</g>
<!-- Node6&#45;&gt;Node5 -->
<g id="edge5" class="edge"><title>Node6&#45;&gt;Node5</title>
<path fill="none" stroke="midnightblue" d="M156.5,-210.175C156.5,-201.094 156.5,-190.595 156.5,-183.55"/>
<polygon fill="midnightblue" stroke="midnightblue" points="153,-210.219 156.5,-220.219 160,-210.219 153,-210.219"/>
</g>
<!-- Node7 -->
<g id="node7" class="node"><title>Node7</title>
<g id="a_node7"><a xlink:href="classmappel_1_1MCMCAdaptorBase.html" target="_top" xlink:title="mappel::MCMCAdaptorBase">
<polygon fill="white" stroke="black" points="145.5,-275.5 145.5,-293.5 279.5,-293.5 279.5,-275.5 145.5,-275.5"/>
<text text-anchor="middle" x="212.5" y="-282.3" font-family="Helvetica,sans-Serif" font-size="9.00">mappel::MCMCAdaptorBase</text>
</a>
</g>
</g>
<!-- Node7&#45;&gt;Node6 -->
<g id="edge7" class="edge"><title>Node7&#45;&gt;Node6</title>
<path fill="none" stroke="midnightblue" d="M196.239,-268.11C186.026,-258.444 173.267,-246.369 165.005,-238.55"/>
<polygon fill="midnightblue" stroke="midnightblue" points="194.081,-270.887 203.75,-275.219 198.893,-265.803 194.081,-270.887"/>
</g>
</g>
</svg>
