<?xml version="1.0" encoding="UTF-8" standalone="no"?>
<!DOCTYPE svg PUBLIC "-//W3C//DTD SVG 1.1//EN"
 "http://www.w3.org/Graphics/SVG/1.1/DTD/svg11.dtd">
<!-- Generated by graphviz version 2.38.0 (20140413.2041)
 -->
<!-- Title: mappel::PointEmitterModel::get_stats Pages: 1 -->
<svg width="291pt" height="178pt"
 viewBox="0.00 0.00 291.00 178.00" xmlns="http://www.w3.org/2000/svg" xmlns:xlink="http://www.w3.org/1999/xlink">
<g id="graph0" class="graph" transform="scale(1 1) rotate(0) translate(4 174)">
<title>mappel::PointEmitterModel::get_stats</title>
<polygon fill="white" stroke="none" points="-4,4 -4,-174 287,-174 287,4 -4,4"/>
<!-- Node1 -->
<g id="node1" class="node"><title>Node1</title>
<polygon fill="#bfbfbf" stroke="black" points="0,-70.5 0,-98.5 127,-98.5 127,-70.5 0,-70.5"/>
<text text-anchor="start" x="8" y="-87.3" font-family="Helvetica,sans-Serif" font-size="9.00">mappel::PointEmitterModel</text>
<text text-anchor="middle" x="63.5" y="-77.3" font-family="Helvetica,sans-Serif" font-size="9.00">::get_stats</text>
</g>
<!-- Node2 -->
<g id="node2" class="node"><title>Node2</title>
<g id="a_node2"><a xlink:href="classmappel_1_1Gauss1DModel.html#a61904b6e14e7429ee58175cb54259ed9" target="_top" xlink:title="mappel::Gauss1DModel\l::get_stats">
<polygon fill="white" stroke="black" points="165,-141.5 165,-169.5 281,-169.5 281,-141.5 165,-141.5"/>
<text text-anchor="start" x="173" y="-158.3" font-family="Helvetica,sans-Serif" font-size="9.00">mappel::Gauss1DModel</text>
<text text-anchor="middle" x="223" y="-148.3" font-family="Helvetica,sans-Serif" font-size="9.00">::get_stats</text>
</a>
</g>
</g>
<!-- Node1&#45;&gt;Node2 -->
<g id="edge1" class="edge"><title>Node1&#45;&gt;Node2</title>
<path fill="none" stroke="midnightblue" d="M100.764,-103.051C119.227,-112.271 142.129,-123.365 163,-132.5 169.949,-135.542 177.439,-138.615 184.672,-141.481"/>
<polygon fill="midnightblue" stroke="midnightblue" points="102.323,-99.9182 91.8164,-98.5571 99.1814,-106.173 102.323,-99.9182"/>
</g>
<!-- Node3 -->
<g id="node3" class="node"><title>Node3</title>
<g id="a_node3"><a xlink:href="classmappel_1_1Gauss1DsModel.html#a3332a06f7288311ec560427e360c00be" target="_top" xlink:title="mappel::Gauss1DsModel\l::get_stats">
<polygon fill="white" stroke="black" points="163,-94.5 163,-122.5 283,-122.5 283,-94.5 163,-94.5"/>
<text text-anchor="start" x="171" y="-111.3" font-family="Helvetica,sans-Serif" font-size="9.00">mappel::Gauss1DsModel</text>
<text text-anchor="middle" x="223" y="-101.3" font-family="Helvetica,sans-Serif" font-size="9.00">::get_stats</text>
</a>
</g>
</g>
<!-- Node1&#45;&gt;Node3 -->
<g id="edge2" class="edge"><title>Node1&#45;&gt;Node3</title>
<path fill="none" stroke="midnightblue" d="M137.21,-95.5797C145.796,-96.8879 154.478,-98.2109 162.844,-99.4858"/>
<polygon fill="midnightblue" stroke="midnightblue" points="137.614,-92.1008 127.201,-94.0544 136.559,-99.021 137.614,-92.1008"/>
</g>
<!-- Node4 -->
<g id="node4" class="node"><title>Node4</title>
<g id="a_node4"><a xlink:href="classmappel_1_1Gauss2DModel.html#a8aecb8960e94b03499110e08f5d18c7f" target="_top" xlink:title="mappel::Gauss2DModel\l::get_stats">
<polygon fill="white" stroke="black" points="165,-47.5 165,-75.5 281,-75.5 281,-47.5 165,-47.5"/>
<text text-anchor="start" x="173" y="-64.3" font-family="Helvetica,sans-Serif" font-size="9.00">mappel::Gauss2DModel</text>
<text text-anchor="middle" x="223" y="-54.3" font-family="Helvetica,sans-Serif" font-size="9.00">::get_stats</text>
</a>
</g>
</g>
<!-- Node1&#45;&gt;Node4 -->
<g id="edge3" class="edge"><title>Node1&#45;&gt;Node4</title>
<path fill="none" stroke="midnightblue" d="M137.206,-73.8826C146.491,-72.5268 155.888,-71.1545 164.877,-69.8418"/>
<polygon fill="midnightblue" stroke="midnightblue" points="136.59,-70.4354 127.201,-75.3437 137.602,-77.3619 136.59,-70.4354"/>
</g>
<!-- Node5 -->
<g id="node5" class="node"><title>Node5</title>
<g id="a_node5"><a xlink:href="classmappel_1_1Gauss2DsModel.html#a9c59a143645ffdacd13b1dc332828cfb" target="_top" xlink:title="mappel::Gauss2DsModel\l::get_stats">
<polygon fill="white" stroke="black" points="163,-0.5 163,-28.5 283,-28.5 283,-0.5 163,-0.5"/>
<text text-anchor="start" x="171" y="-17.3" font-family="Helvetica,sans-Serif" font-size="9.00">mappel::Gauss2DsModel</text>
<text text-anchor="middle" x="223" y="-7.3" font-family="Helvetica,sans-Serif" font-size="9.00">::get_stats</text>
</a>
</g>
</g>
<!-- Node1&#45;&gt;Node5 -->
<g id="edge4" class="edge"><title>Node1&#45;&gt;Node5</title>
<path fill="none" stroke="midnightblue" d="M102.741,-66.0925C120.901,-57.4923 142.968,-47.2453 163,-38.5 170.601,-35.1818 178.812,-31.7479 186.624,-28.5509"/>
<polygon fill="midnightblue" stroke="midnightblue" points="101.161,-62.9684 93.6322,-70.423 104.166,-69.2903 101.161,-62.9684"/>
</g>
</g>
</svg>
