<?xml version="1.0" encoding="UTF-8" standalone="no"?>
<!DOCTYPE svg PUBLIC "-//W3C//DTD SVG 1.1//EN"
 "http://www.w3.org/Graphics/SVG/1.1/DTD/svg11.dtd">
<!-- Generated by graphviz version 2.38.0 (20140413.2041)
 -->
<!-- Title: mappel::IterativeMaximizer::MaximizerData::record_exit Pages: 1 -->
<svg width="666pt" height="260pt"
 viewBox="0.00 0.00 666.00 260.00" xmlns="http://www.w3.org/2000/svg" xmlns:xlink="http://www.w3.org/1999/xlink">
<g id="graph0" class="graph" transform="scale(1 1) rotate(0) translate(4 256)">
<title>mappel::IterativeMaximizer::MaximizerData::record_exit</title>
<polygon fill="white" stroke="none" points="-4,4 -4,-256 662,-256 662,4 -4,4"/>
<!-- Node1 -->
<g id="node1" class="node"><title>Node1</title>
<polygon fill="#bfbfbf" stroke="black" points="0,-94.5 0,-122.5 133,-122.5 133,-94.5 0,-94.5"/>
<text text-anchor="start" x="8" y="-111.3" font-family="Helvetica,sans-Serif" font-size="9.00">mappel::IterativeMaximizer</text>
<text text-anchor="middle" x="66.5" y="-101.3" font-family="Helvetica,sans-Serif" font-size="9.00">::MaximizerData::record_exit</text>
</g>
<!-- Node2 -->
<g id="node2" class="node"><title>Node2</title>
<g id="a_node2"><a xlink:href="classmappel_1_1IterativeMaximizer.html#ac033d2b23a6a861e6d7adbe35f17624e" target="_top" xlink:title="mappel::IterativeMaximizer\l::backtrack">
<polygon fill="white" stroke="black" points="333,-184.5 333,-212.5 459,-212.5 459,-184.5 333,-184.5"/>
<text text-anchor="start" x="341" y="-201.3" font-family="Helvetica,sans-Serif" font-size="9.00">mappel::IterativeMaximizer</text>
<text text-anchor="middle" x="396" y="-191.3" font-family="Helvetica,sans-Serif" font-size="9.00">::backtrack</text>
</a>
</g>
</g>
<!-- Node1&#45;&gt;Node2 -->
<g id="edge1" class="edge"><title>Node1&#45;&gt;Node2</title>
<path fill="none" stroke="midnightblue" d="M89.8384,-129.419C109.181,-146.149 138.743,-168.553 169,-179.5 221.947,-198.655 286.26,-202.339 332.721,-201.859"/>
<polygon fill="midnightblue" stroke="midnightblue" points="92.006,-126.663 82.202,-122.647 87.3614,-131.9 92.006,-126.663"/>
</g>
<!-- Node6 -->
<g id="node6" class="node"><title>Node6</title>
<g id="a_node6"><a xlink:href="classmappel_1_1IterativeMaximizer.html#ad83f7b0a5b4d412f419b6089e73a66e0" target="_top" xlink:title="mappel::IterativeMaximizer\l::compute_estimate">
<polygon fill="white" stroke="black" points="170,-94.5 170,-122.5 296,-122.5 296,-94.5 170,-94.5"/>
<text text-anchor="start" x="178" y="-111.3" font-family="Helvetica,sans-Serif" font-size="9.00">mappel::IterativeMaximizer</text>
<text text-anchor="middle" x="233" y="-101.3" font-family="Helvetica,sans-Serif" font-size="9.00">::compute_estimate</text>
</a>
</g>
</g>
<!-- Node1&#45;&gt;Node6 -->
<g id="edge5" class="edge"><title>Node1&#45;&gt;Node6</title>
<path fill="none" stroke="midnightblue" d="M143.657,-108.5C152.399,-108.5 161.233,-108.5 169.762,-108.5"/>
<polygon fill="midnightblue" stroke="midnightblue" points="143.461,-105 133.461,-108.5 143.461,-112 143.461,-105"/>
</g>
<!-- Node7 -->
<g id="node7" class="node"><title>Node7</title>
<g id="a_node7"><a xlink:href="classmappel_1_1IterativeMaximizer.html#aa45c11a399f29985fc9bd3365e809335" target="_top" xlink:title="mappel::IterativeMaximizer\l::compute_estimate_debug">
<polygon fill="white" stroke="black" points="169,-47.5 169,-75.5 297,-75.5 297,-47.5 169,-47.5"/>
<text text-anchor="start" x="177" y="-64.3" font-family="Helvetica,sans-Serif" font-size="9.00">mappel::IterativeMaximizer</text>
<text text-anchor="middle" x="233" y="-54.3" font-family="Helvetica,sans-Serif" font-size="9.00">::compute_estimate_debug</text>
</a>
</g>
</g>
<!-- Node1&#45;&gt;Node7 -->
<g id="edge6" class="edge"><title>Node1&#45;&gt;Node7</title>
<path fill="none" stroke="midnightblue" d="M126.627,-91.6067C145.098,-86.329 165.264,-80.5675 182.963,-75.5106"/>
<polygon fill="midnightblue" stroke="midnightblue" points="125.509,-88.2858 116.855,-94.3985 127.432,-95.0165 125.509,-88.2858"/>
</g>
<!-- Node8 -->
<g id="node8" class="node"><title>Node8</title>
<g id="a_node8"><a xlink:href="classmappel_1_1IterativeMaximizer.html#a1999fd1fa63c803b3aad87695fc82843" target="_top" xlink:title="mappel::IterativeMaximizer\l::compute_profile_estimate">
<polygon fill="white" stroke="black" points="169.5,-0.5 169.5,-28.5 296.5,-28.5 296.5,-0.5 169.5,-0.5"/>
<text text-anchor="start" x="177.5" y="-17.3" font-family="Helvetica,sans-Serif" font-size="9.00">mappel::IterativeMaximizer</text>
<text text-anchor="middle" x="233" y="-7.3" font-family="Helvetica,sans-Serif" font-size="9.00">::compute_profile_estimate</text>
</a>
</g>
</g>
<!-- Node1&#45;&gt;Node8 -->
<g id="edge7" class="edge"><title>Node1&#45;&gt;Node8</title>
<path fill="none" stroke="midnightblue" d="M92.4987,-88.235C112.355,-72.842 141.297,-51.9301 169,-37.5 175.196,-34.2726 181.948,-31.2946 188.656,-28.6264"/>
<polygon fill="midnightblue" stroke="midnightblue" points="90.277,-85.5294 84.575,-94.4591 94.6011,-91.0342 90.277,-85.5294"/>
</g>
<!-- Node9 -->
<g id="node9" class="node"><title>Node9</title>
<g id="a_node9"><a xlink:href="classmappel_1_1IterativeMaximizer.html#aef9b61d66d785a1a06dd2c75c3166435" target="_top" xlink:title="mappel::IterativeMaximizer\l::convergence_test">
<polygon fill="white" stroke="black" points="170,-141.5 170,-169.5 296,-169.5 296,-141.5 170,-141.5"/>
<text text-anchor="start" x="178" y="-158.3" font-family="Helvetica,sans-Serif" font-size="9.00">mappel::IterativeMaximizer</text>
<text text-anchor="middle" x="233" y="-148.3" font-family="Helvetica,sans-Serif" font-size="9.00">::convergence_test</text>
</a>
</g>
</g>
<!-- Node1&#45;&gt;Node9 -->
<g id="edge8" class="edge"><title>Node1&#45;&gt;Node9</title>
<path fill="none" stroke="midnightblue" d="M126.627,-125.393C145.098,-130.671 165.264,-136.433 182.963,-141.489"/>
<polygon fill="midnightblue" stroke="midnightblue" points="127.432,-121.983 116.855,-122.602 125.509,-128.714 127.432,-121.983"/>
</g>
<!-- Node3 -->
<g id="node3" class="node"><title>Node3</title>
<g id="a_node3"><a xlink:href="classmappel_1_1NewtonDiagonalMaximizer.html#ac445064041b5c7f3c147c08a0065cd68" target="_top" xlink:title="mappel::NewtonDiagonalMaximizer\l::maximize">
<polygon fill="white" stroke="black" points="495,-223.5 495,-251.5 658,-251.5 658,-223.5 495,-223.5"/>
<text text-anchor="start" x="503" y="-240.3" font-family="Helvetica,sans-Serif" font-size="9.00">mappel::NewtonDiagonalMaximizer</text>
<text text-anchor="middle" x="576.5" y="-230.3" font-family="Helvetica,sans-Serif" font-size="9.00">::maximize</text>
</a>
</g>
</g>
<!-- Node2&#45;&gt;Node3 -->
<g id="edge2" class="edge"><title>Node2&#45;&gt;Node3</title>
<path fill="none" stroke="midnightblue" d="M469.167,-214.268C483.049,-217.301 497.504,-220.459 511.12,-223.434"/>
<polygon fill="midnightblue" stroke="midnightblue" points="469.697,-210.801 459.18,-212.086 468.202,-217.639 469.697,-210.801"/>
</g>
<!-- Node4 -->
<g id="node4" class="node"><title>Node4</title>
<g id="a_node4"><a xlink:href="classmappel_1_1NewtonMaximizer.html#aca7e3071f17ef6f381878eb6151c86d7" target="_top" xlink:title="mappel::NewtonMaximizer\l::maximize">
<polygon fill="white" stroke="black" points="514,-118.5 514,-146.5 639,-146.5 639,-118.5 514,-118.5"/>
<text text-anchor="start" x="522" y="-135.3" font-family="Helvetica,sans-Serif" font-size="9.00">mappel::NewtonMaximizer</text>
<text text-anchor="middle" x="576.5" y="-125.3" font-family="Helvetica,sans-Serif" font-size="9.00">::maximize</text>
</a>
</g>
</g>
<!-- Node2&#45;&gt;Node4 -->
<g id="edge3" class="edge"><title>Node2&#45;&gt;Node4</title>
<path fill="none" stroke="midnightblue" d="M444.838,-180.812C473.91,-170.063 510.513,-156.529 537.577,-146.522"/>
<polygon fill="midnightblue" stroke="midnightblue" points="443.458,-177.59 435.293,-184.341 445.886,-184.156 443.458,-177.59"/>
</g>
<!-- Node5 -->
<g id="node5" class="node"><title>Node5</title>
<g id="a_node5"><a xlink:href="classmappel_1_1QuasiNewtonMaximizer.html#ab4d32d8ba90d4355262a228753619b9f" target="_top" xlink:title="mappel::QuasiNewtonMaximizer\l::maximize">
<polygon fill="white" stroke="black" points="502,-172.5 502,-200.5 651,-200.5 651,-172.5 502,-172.5"/>
<text text-anchor="start" x="510" y="-189.3" font-family="Helvetica,sans-Serif" font-size="9.00">mappel::QuasiNewtonMaximizer</text>
<text text-anchor="middle" x="576.5" y="-179.3" font-family="Helvetica,sans-Serif" font-size="9.00">::maximize</text>
</a>
</g>
</g>
<!-- Node2&#45;&gt;Node5 -->
<g id="edge4" class="edge"><title>Node2&#45;&gt;Node5</title>
<path fill="none" stroke="midnightblue" d="M469.341,-193.637C480.07,-192.915 491.137,-192.171 501.891,-191.448"/>
<polygon fill="midnightblue" stroke="midnightblue" points="468.923,-190.157 459.18,-194.32 469.392,-197.141 468.923,-190.157"/>
</g>
<!-- Node9&#45;&gt;Node2 -->
<g id="edge9" class="edge"><title>Node9&#45;&gt;Node2</title>
<path fill="none" stroke="midnightblue" d="M296.535,-172.202C311.709,-176.255 327.78,-180.547 342.439,-184.462"/>
<polygon fill="midnightblue" stroke="midnightblue" points="297.282,-168.779 286.717,-169.58 295.476,-175.542 297.282,-168.779"/>
</g>
<!-- Node9&#45;&gt;Node3 -->
<g id="edge10" class="edge"><title>Node9&#45;&gt;Node3</title>
<path fill="none" stroke="midnightblue" d="M256.771,-176.176C275.683,-191.97 304.08,-212.647 333,-222.5 384.906,-240.184 446.629,-243.776 494.814,-243.028"/>
<polygon fill="midnightblue" stroke="midnightblue" points="258.897,-173.388 249.027,-169.536 254.34,-178.702 258.897,-173.388"/>
</g>
<!-- Node9&#45;&gt;Node4 -->
<g id="edge11" class="edge"><title>Node9&#45;&gt;Node4</title>
<path fill="none" stroke="midnightblue" d="M306.281,-144.397C315.262,-143.278 324.332,-142.272 333,-141.5 394.372,-136.036 464.767,-133.878 513.845,-133.032"/>
<polygon fill="midnightblue" stroke="midnightblue" points="305.671,-140.947 296.203,-145.703 306.57,-147.889 305.671,-140.947"/>
</g>
<!-- Node9&#45;&gt;Node5 -->
<g id="edge12" class="edge"><title>Node9&#45;&gt;Node5</title>
<path fill="none" stroke="midnightblue" d="M306.145,-161.812C350.289,-165.699 407.915,-170.818 459,-175.5 472.858,-176.77 487.641,-178.148 501.862,-179.485"/>
<polygon fill="midnightblue" stroke="midnightblue" points="306.353,-158.316 296.085,-160.926 305.739,-165.289 306.353,-158.316"/>
</g>
</g>
</svg>
