<?xml version="1.0" encoding="UTF-8" standalone="no"?>
<!DOCTYPE svg PUBLIC "-//W3C//DTD SVG 1.1//EN"
 "http://www.w3.org/Graphics/SVG/1.1/DTD/svg11.dtd">
<!-- Generated by graphviz version 2.38.0 (20140413.2041)
 -->
<!-- Title: mappel::QuasiNewtonMaximizer::maximize Pages: 1 -->
<!--zoomable 551 -->
<svg id="main" version="1.1" xmlns="http://www.w3.org/2000/svg" xmlns:xlink="http://www.w3.org/1999/xlink" xml:space="preserve" onload="init(evt)">
<style type="text/css"><![CDATA[
.edge:hover path { stroke: red; }
.edge:hover polygon { stroke: red; fill: red; }
]]></style>
<script type="text/javascript"><![CDATA[
var edges = document.getElementsByTagName('g');
if (edges && edges.length) {
  for (var i=0;i<edges.length;i++) {
    if (edges[i].id.substr(0,4)=='edge') {
      edges[i].setAttribute('class','edge');
    }
  }
}
]]></script>
        <defs>
                <circle id="rim" cx="0" cy="0" r="7"/>
                <circle id="rim2" cx="0" cy="0" r="3.5"/>
                <g id="zoomPlus">
                        <use xlink:href="#rim" fill="#404040">
                                <set attributeName="fill" to="#808080" begin="zoomplus.mouseover" end="zoomplus.mouseout"/>
                        </use>
                        <path d="M-4,0h8M0,-4v8" fill="none" stroke="white" stroke-width="1.5" pointer-events="none"/>
                </g>
                <g id="zoomMin">
                        <use xlink:href="#rim" fill="#404040">
                                <set attributeName="fill" to="#808080" begin="zoomminus.mouseover" end="zoomminus.mouseout"/>
                        </use>
                        <path d="M-4,0h8" fill="none" stroke="white" stroke-width="1.5" pointer-events="none"/>
                </g>
                <g id="dirArrow">
                        <path fill="none" stroke="white" stroke-width="1.5" d="M0,-3.0v7 M-2.5,-0.5L0,-3.0L2.5,-0.5"/>
                </g>
               <g id="resetDef">
                       <use xlink:href="#rim2" fill="#404040">
                               <set attributeName="fill" to="#808080" begin="reset.mouseover" end="reset.mouseout"/>
                       </use>
               </g>
        </defs>

<script type="text/javascript">
var viewWidth = 668;
var viewHeight = 551;
var sectionId = 'dynsection-28';
</script>
<script xlink:href="svgpan.js"/>
<svg id="graph" class="graph">
<g id="viewport">
<title>mappel::QuasiNewtonMaximizer::maximize</title>
<polygon fill="white" stroke="none" points="-4,4 -4,-547 664,-547 664,4 -4,4"/>
<!-- Node1 -->
<g id="node1" class="node"><title>Node1</title>
<polygon fill="#bfbfbf" stroke="black" points="0,-221.5 0,-249.5 149,-249.5 149,-221.5 0,-221.5"/>
<text text-anchor="start" x="8" y="-238.3" font-family="Helvetica,sans-Serif" font-size="9.00">mappel::QuasiNewtonMaximizer</text>
<text text-anchor="middle" x="74.5" y="-228.3" font-family="Helvetica,sans-Serif" font-size="9.00">::maximize</text>
</g>
<!-- Node2 -->
<g id="node2" class="node"><title>Node2</title>
<g id="a_node2"><a xlink:href="classmappel_1_1IterativeMaximizer.html#ac033d2b23a6a861e6d7adbe35f17624e" target="_top" xlink:title="mappel::IterativeMaximizer\l::backtrack">
<polygon fill="white" stroke="black" points="186,-268.5 186,-296.5 312,-296.5 312,-268.5 186,-268.5"/>
<text text-anchor="start" x="194" y="-285.3" font-family="Helvetica,sans-Serif" font-size="9.00">mappel::IterativeMaximizer</text>
<text text-anchor="middle" x="249" y="-275.3" font-family="Helvetica,sans-Serif" font-size="9.00">::backtrack</text>
</a>
</g>
</g>
<!-- Node1&#45;&gt;Node2 -->
<g id="edge1" class="edge"><title>Node1&#45;&gt;Node2</title>
<path fill="none" stroke="midnightblue" d="M127.256,-249.602C146.018,-254.714 167.387,-260.536 186.881,-265.847"/>
<polygon fill="midnightblue" stroke="midnightblue" points="186.01,-269.237 196.578,-268.489 187.85,-262.484 186.01,-269.237"/>
</g>
<!-- Node3 -->
<g id="node3" class="node"><title>Node3</title>
<g id="a_node3"><a xlink:href="classmappel_1_1IterativeMaximizer.html#aef9b61d66d785a1a06dd2c75c3166435" target="_top" xlink:title="mappel::IterativeMaximizer\l::convergence_test">
<polygon fill="white" stroke="black" points="355,-510.5 355,-538.5 481,-538.5 481,-510.5 355,-510.5"/>
<text text-anchor="start" x="363" y="-527.3" font-family="Helvetica,sans-Serif" font-size="9.00">mappel::IterativeMaximizer</text>
<text text-anchor="middle" x="418" y="-517.3" font-family="Helvetica,sans-Serif" font-size="9.00">::convergence_test</text>
</a>
</g>
</g>
<!-- Node1&#45;&gt;Node3 -->
<g id="edge17" class="edge"><title>Node1&#45;&gt;Node3</title>
<path fill="none" stroke="midnightblue" d="M87.6553,-249.538C123.973,-290.851 236.169,-413.962 349,-491.5 356.704,-496.794 365.385,-501.697 373.904,-506.017"/>
<polygon fill="midnightblue" stroke="midnightblue" points="372.508,-509.23 383.03,-510.466 375.575,-502.938 372.508,-509.23"/>
</g>
<!-- Node14 -->
<g id="node14" class="node"><title>Node14</title>
<g id="a_node14"><a xlink:href="namespacemappel_1_1methods_1_1objective.html#a8e120e5a79029803453cea5f9f2d8f67" target="_top" xlink:title="mappel::methods::objective\l::grad">
<polygon fill="white" stroke="black" points="185,-221.5 185,-249.5 313,-249.5 313,-221.5 185,-221.5"/>
<text text-anchor="start" x="193" y="-238.3" font-family="Helvetica,sans-Serif" font-size="9.00">mappel::methods::objective</text>
<text text-anchor="middle" x="249" y="-228.3" font-family="Helvetica,sans-Serif" font-size="9.00">::grad</text>
</a>
</g>
</g>
<!-- Node1&#45;&gt;Node14 -->
<g id="edge18" class="edge"><title>Node1&#45;&gt;Node14</title>
<path fill="none" stroke="midnightblue" d="M149.156,-235.5C157.619,-235.5 166.248,-235.5 174.706,-235.5"/>
<polygon fill="midnightblue" stroke="midnightblue" points="174.917,-239 184.917,-235.5 174.917,-232 174.917,-239"/>
</g>
<!-- Node15 -->
<g id="node15" class="node"><title>Node15</title>
<g id="a_node15"><a xlink:href="namespacemappel_1_1methods_1_1objective.html#afbf93fa446606620d01747af3684f62d" target="_top" xlink:title="mappel::methods::objective\l::hessian">
<polygon fill="white" stroke="black" points="185,-174.5 185,-202.5 313,-202.5 313,-174.5 185,-174.5"/>
<text text-anchor="start" x="193" y="-191.3" font-family="Helvetica,sans-Serif" font-size="9.00">mappel::methods::objective</text>
<text text-anchor="middle" x="249" y="-181.3" font-family="Helvetica,sans-Serif" font-size="9.00">::hessian</text>
</a>
</g>
</g>
<!-- Node1&#45;&gt;Node15 -->
<g id="edge19" class="edge"><title>Node1&#45;&gt;Node15</title>
<path fill="none" stroke="midnightblue" d="M127.256,-221.398C146.018,-216.286 167.387,-210.464 186.881,-205.153"/>
<polygon fill="midnightblue" stroke="midnightblue" points="187.85,-208.516 196.578,-202.511 186.01,-201.763 187.85,-208.516"/>
</g>
<!-- Node16 -->
<g id="node16" class="node"><title>Node16</title>
<g id="a_node16"><a xlink:href="namespacemappel.html#a3ffbe5273f0e95ef18a3bc26bc207489" target="_top" xlink:title="mappel::is_positive\l_definite">
<polygon fill="white" stroke="black" points="201.5,-73.5 201.5,-101.5 296.5,-101.5 296.5,-73.5 201.5,-73.5"/>
<text text-anchor="start" x="209.5" y="-90.3" font-family="Helvetica,sans-Serif" font-size="9.00">mappel::is_positive</text>
<text text-anchor="middle" x="249" y="-80.3" font-family="Helvetica,sans-Serif" font-size="9.00">_definite</text>
</a>
</g>
</g>
<!-- Node1&#45;&gt;Node16 -->
<g id="edge20" class="edge"><title>Node1&#45;&gt;Node16</title>
<path fill="none" stroke="midnightblue" d="M92.04,-221.309C122.565,-195.12 187.883,-139.079 223.54,-108.486"/>
<polygon fill="midnightblue" stroke="midnightblue" points="226.2,-110.816 231.51,-101.648 221.642,-105.503 226.2,-110.816"/>
</g>
<!-- Node2&#45;&gt;Node3 -->
<g id="edge2" class="edge"><title>Node2&#45;&gt;Node3</title>
<path fill="none" stroke="midnightblue" d="M256.353,-296.519C277.598,-343.355 345.055,-491.679 349,-495.5 352.918,-499.295 357.409,-502.629 362.176,-505.551"/>
<polygon fill="midnightblue" stroke="midnightblue" points="360.535,-508.643 370.987,-510.375 363.897,-502.503 360.535,-508.643"/>
</g>
<!-- Node4 -->
<g id="node4" class="node"><title>Node4</title>
<g id="a_node4"><a xlink:href="classmappel_1_1IterativeMaximizer_1_1MaximizerData.html#af2e61c659a8cc78365bd801026c2f6a9" target="_top" xlink:title="mappel::IterativeMaximizer\l::MaximizerData::record_exit">
<polygon fill="white" stroke="black" points="525,-467.5 525,-495.5 658,-495.5 658,-467.5 525,-467.5"/>
<text text-anchor="start" x="533" y="-484.3" font-family="Helvetica,sans-Serif" font-size="9.00">mappel::IterativeMaximizer</text>
<text text-anchor="middle" x="591.5" y="-474.3" font-family="Helvetica,sans-Serif" font-size="9.00">::MaximizerData::record_exit</text>
</a>
</g>
</g>
<!-- Node2&#45;&gt;Node4 -->
<g id="edge8" class="edge"><title>Node2&#45;&gt;Node4</title>
<path fill="none" stroke="midnightblue" d="M255.734,-296.709C271.738,-335.617 317.763,-442.335 349,-462.5 397.676,-493.922 463.897,-497.028 514.685,-493.194"/>
<polygon fill="midnightblue" stroke="midnightblue" points="515.289,-496.655 524.952,-492.31 514.688,-489.681 515.289,-496.655"/>
</g>
<!-- Node5 -->
<g id="node5" class="node"><title>Node5</title>
<g id="a_node5"><a xlink:href="classmappel_1_1IterativeMaximizer_1_1MaximizerData.html#aedc8670533fe0323a62e7def637875db" target="_top" xlink:title="Get the saved stencil&#39;s theta. ">
<polygon fill="white" stroke="black" points="523,-264.5 523,-292.5 660,-292.5 660,-264.5 523,-264.5"/>
<text text-anchor="start" x="531" y="-281.3" font-family="Helvetica,sans-Serif" font-size="9.00">mappel::IterativeMaximizer</text>
<text text-anchor="middle" x="591.5" y="-271.3" font-family="Helvetica,sans-Serif" font-size="9.00">::MaximizerData::saved_theta</text>
</a>
</g>
</g>
<!-- Node2&#45;&gt;Node5 -->
<g id="edge14" class="edge"><title>Node2&#45;&gt;Node5</title>
<path fill="none" stroke="midnightblue" d="M301.722,-268.414C305.869,-265.911 309.717,-262.965 313,-259.5 350.712,-219.698 304.933,-174.128 349,-141.5 398.292,-105.003 432.094,-114.167 487,-141.5 534.642,-165.217 566.171,-222.484 580.891,-254.972"/>
<polygon fill="midnightblue" stroke="midnightblue" points="577.709,-256.43 584.918,-264.194 584.124,-253.629 577.709,-256.43"/>
</g>
<!-- Node7 -->
<g id="node7" class="node"><title>Node7</title>
<g id="a_node7"><a xlink:href="classmappel_1_1IterativeMaximizer_1_1MaximizerData.html#a8c82784b23315be8f74b968ee4188388" target="_top" xlink:title="Record a backtracked point (no derivative computations performed) Using the saved theta as the defaul...">
<polygon fill="white" stroke="black" points="355,-37.5 355,-75.5 481,-75.5 481,-37.5 355,-37.5"/>
<text text-anchor="start" x="363" y="-64.3" font-family="Helvetica,sans-Serif" font-size="9.00">mappel::IterativeMaximizer</text>
<text text-anchor="start" x="363" y="-54.3" font-family="Helvetica,sans-Serif" font-size="9.00">::MaximizerData::record</text>
<text text-anchor="middle" x="418" y="-44.3" font-family="Helvetica,sans-Serif" font-size="9.00">_backtrack</text>
</a>
</g>
</g>
<!-- Node2&#45;&gt;Node7 -->
<g id="edge6" class="edge"><title>Node2&#45;&gt;Node7</title>
<path fill="none" stroke="midnightblue" d="M302.252,-268.439C306.236,-265.932 309.903,-262.979 313,-259.5 358.875,-207.969 311.422,-166.36 349,-108.5 355.703,-98.1784 365.186,-89.0931 374.948,-81.5244"/>
<polygon fill="midnightblue" stroke="midnightblue" points="377.146,-84.2531 383.158,-75.5295 373.018,-78.5996 377.146,-84.2531"/>
</g>
<!-- Node8 -->
<g id="node8" class="node"><title>Node8</title>
<g id="a_node8"><a xlink:href="classmappel_1_1IterativeMaximizer_1_1MaximizerData.html#a1096048bf29ccbc45e4a60dc6cbf7b2c" target="_top" xlink:title="Record an iteration point (derivatives computed) Using the saved theta as the default. ">
<polygon fill="white" stroke="black" points="355,-396.5 355,-434.5 481,-434.5 481,-396.5 355,-396.5"/>
<text text-anchor="start" x="363" y="-423.3" font-family="Helvetica,sans-Serif" font-size="9.00">mappel::IterativeMaximizer</text>
<text text-anchor="start" x="363" y="-413.3" font-family="Helvetica,sans-Serif" font-size="9.00">::MaximizerData::record</text>
<text text-anchor="middle" x="418" y="-403.3" font-family="Helvetica,sans-Serif" font-size="9.00">_iteration</text>
</a>
</g>
</g>
<!-- Node2&#45;&gt;Node8 -->
<g id="edge9" class="edge"><title>Node2&#45;&gt;Node8</title>
<path fill="none" stroke="midnightblue" d="M260.076,-296.544C276.494,-318.557 311.023,-361.367 349,-387.5 351.071,-388.925 353.225,-390.296 355.438,-391.614"/>
<polygon fill="midnightblue" stroke="midnightblue" points="353.76,-394.685 364.211,-396.429 357.128,-388.549 353.76,-394.685"/>
</g>
<!-- Node9 -->
<g id="node9" class="node"><title>Node9</title>
<g id="a_node9"><a xlink:href="classmappel_1_1IterativeMaximizer_1_1MaximizerData.html#a5f65e52de343dbd012c3b3a7b463b792" target="_top" xlink:title="Restore the single reserved stencil to the current stencil spot. Overwrites any previously saved sten...">
<polygon fill="white" stroke="black" points="355,-339.5 355,-377.5 481,-377.5 481,-339.5 355,-339.5"/>
<text text-anchor="start" x="363" y="-366.3" font-family="Helvetica,sans-Serif" font-size="9.00">mappel::IterativeMaximizer</text>
<text text-anchor="start" x="363" y="-356.3" font-family="Helvetica,sans-Serif" font-size="9.00">::MaximizerData::restore</text>
<text text-anchor="middle" x="418" y="-346.3" font-family="Helvetica,sans-Serif" font-size="9.00">_stencil</text>
</a>
</g>
</g>
<!-- Node2&#45;&gt;Node9 -->
<g id="edge11" class="edge"><title>Node2&#45;&gt;Node9</title>
<path fill="none" stroke="midnightblue" d="M277.95,-296.614C297.664,-306.43 324.768,-319.649 349,-330.5 352.632,-332.127 356.388,-333.772 360.184,-335.408"/>
<polygon fill="midnightblue" stroke="midnightblue" points="359.08,-338.742 369.652,-339.438 361.822,-332.301 359.08,-338.742"/>
</g>
<!-- Node10 -->
<g id="node10" class="node"><title>Node10</title>
<g id="a_node10"><a xlink:href="namespacemappel_1_1methods_1_1objective.html#a293c23ed6a623e59477bb67b6e40f5ad" target="_top" xlink:title="mappel::methods::objective\l::rllh">
<polygon fill="white" stroke="black" points="354,-292.5 354,-320.5 482,-320.5 482,-292.5 354,-292.5"/>
<text text-anchor="start" x="362" y="-309.3" font-family="Helvetica,sans-Serif" font-size="9.00">mappel::methods::objective</text>
<text text-anchor="middle" x="418" y="-299.3" font-family="Helvetica,sans-Serif" font-size="9.00">::rllh</text>
</a>
</g>
</g>
<!-- Node2&#45;&gt;Node10 -->
<g id="edge12" class="edge"><title>Node2&#45;&gt;Node10</title>
<path fill="none" stroke="midnightblue" d="M312.185,-291.437C322.515,-292.921 333.312,-294.473 343.884,-295.992"/>
<polygon fill="midnightblue" stroke="midnightblue" points="343.531,-299.478 353.928,-297.436 344.527,-292.549 343.531,-299.478"/>
</g>
<!-- Node11 -->
<g id="node11" class="node"><title>Node11</title>
<g id="a_node11"><a xlink:href="classmappel_1_1IterativeMaximizer_1_1MaximizerData.html#a0349ede0482bdc352643e1eba2ab3f11" target="_top" xlink:title="Save the current stencil to the single reserve spot. Overwrites any previously saved stencil...">
<polygon fill="white" stroke="black" points="349,-245.5 349,-273.5 487,-273.5 487,-245.5 349,-245.5"/>
<text text-anchor="start" x="357" y="-262.3" font-family="Helvetica,sans-Serif" font-size="9.00">mappel::IterativeMaximizer</text>
<text text-anchor="middle" x="418" y="-252.3" font-family="Helvetica,sans-Serif" font-size="9.00">::MaximizerData::save_stencil</text>
</a>
</g>
</g>
<!-- Node2&#45;&gt;Node11 -->
<g id="edge13" class="edge"><title>Node2&#45;&gt;Node11</title>
<path fill="none" stroke="midnightblue" d="M312.185,-273.936C320.876,-272.739 329.898,-271.496 338.838,-270.265"/>
<polygon fill="midnightblue" stroke="midnightblue" points="339.446,-273.714 348.875,-268.882 338.491,-266.78 339.446,-273.714"/>
</g>
<!-- Node12 -->
<g id="node12" class="node"><title>Node12</title>
<g id="a_node12"><a xlink:href="classmappel_1_1IterativeMaximizer_1_1MaximizerData.html#a295d06c20f4d620602eece746f4c7d85" target="_top" xlink:title="mappel::IterativeMaximizer\l::MaximizerData::set_stencil">
<polygon fill="white" stroke="black" points="352.5,-198.5 352.5,-226.5 483.5,-226.5 483.5,-198.5 352.5,-198.5"/>
<text text-anchor="start" x="360.5" y="-215.3" font-family="Helvetica,sans-Serif" font-size="9.00">mappel::IterativeMaximizer</text>
<text text-anchor="middle" x="418" y="-205.3" font-family="Helvetica,sans-Serif" font-size="9.00">::MaximizerData::set_stencil</text>
</a>
</g>
</g>
<!-- Node2&#45;&gt;Node12 -->
<g id="edge15" class="edge"><title>Node2&#45;&gt;Node12</title>
<path fill="none" stroke="midnightblue" d="M292.556,-268.407C299.497,-265.699 306.529,-262.7 313,-259.5 330.019,-251.083 331.936,-244.825 349,-236.5 353.525,-234.292 358.307,-232.186 363.153,-230.203"/>
<polygon fill="midnightblue" stroke="midnightblue" points="364.461,-233.45 372.501,-226.55 361.913,-226.93 364.461,-233.45"/>
</g>
<!-- Node13 -->
<g id="node13" class="node"><title>Node13</title>
<g id="a_node13"><a xlink:href="classmappel_1_1IterativeMaximizer_1_1MaximizerData.html#a29ccc1aa8e5ecf505f4ca76f6b8b214e" target="_top" xlink:title="Get the current stencil. ">
<polygon fill="white" stroke="black" points="355,-151.5 355,-179.5 481,-179.5 481,-151.5 355,-151.5"/>
<text text-anchor="start" x="363" y="-168.3" font-family="Helvetica,sans-Serif" font-size="9.00">mappel::IterativeMaximizer</text>
<text text-anchor="middle" x="418" y="-158.3" font-family="Helvetica,sans-Serif" font-size="9.00">::MaximizerData::stencil</text>
</a>
</g>
</g>
<!-- Node2&#45;&gt;Node13 -->
<g id="edge16" class="edge"><title>Node2&#45;&gt;Node13</title>
<path fill="none" stroke="midnightblue" d="M299.857,-268.47C304.593,-265.943 309.081,-262.978 313,-259.5 339.464,-236.017 322.258,-211.665 349,-188.5 350.36,-187.322 351.783,-186.204 353.257,-185.142"/>
<polygon fill="midnightblue" stroke="midnightblue" points="355.493,-187.876 362.184,-179.661 351.831,-181.911 355.493,-187.876"/>
</g>
<!-- Node3&#45;&gt;Node4 -->
<g id="edge3" class="edge"><title>Node3&#45;&gt;Node4</title>
<path fill="none" stroke="midnightblue" d="M475.156,-510.42C490.931,-506.465 508.229,-502.128 524.52,-498.043"/>
<polygon fill="midnightblue" stroke="midnightblue" points="525.663,-501.365 534.511,-495.538 523.96,-494.575 525.663,-501.365"/>
</g>
<!-- Node3&#45;&gt;Node5 -->
<g id="edge4" class="edge"><title>Node3&#45;&gt;Node5</title>
<path fill="none" stroke="midnightblue" d="M437.534,-510.348C452.129,-498.594 472.38,-480.879 487,-462.5 528.711,-410.063 563.63,-338.686 580.186,-302.16"/>
<polygon fill="midnightblue" stroke="midnightblue" points="583.473,-303.384 584.36,-292.827 577.082,-300.527 583.473,-303.384"/>
</g>
<!-- Node6 -->
<g id="node6" class="node"><title>Node6</title>
<g id="a_node6"><a xlink:href="classmappel_1_1IterativeMaximizer_1_1MaximizerData.html#ac6ed5231a1ac2f4bfdd51a2800212fea" target="_top" xlink:title="Get the current stencil&#39;s theta. ">
<polygon fill="white" stroke="black" points="528.5,-514.5 528.5,-542.5 654.5,-542.5 654.5,-514.5 528.5,-514.5"/>
<text text-anchor="start" x="536.5" y="-531.3" font-family="Helvetica,sans-Serif" font-size="9.00">mappel::IterativeMaximizer</text>
<text text-anchor="middle" x="591.5" y="-521.3" font-family="Helvetica,sans-Serif" font-size="9.00">::MaximizerData::theta</text>
</a>
</g>
</g>
<!-- Node3&#45;&gt;Node6 -->
<g id="edge5" class="edge"><title>Node3&#45;&gt;Node6</title>
<path fill="none" stroke="midnightblue" d="M481.401,-525.955C493.372,-526.235 506.001,-526.529 518.253,-526.815"/>
<polygon fill="midnightblue" stroke="midnightblue" points="518.354,-530.318 528.433,-527.052 518.517,-523.32 518.354,-530.318"/>
</g>
<!-- Node7&#45;&gt;Node7 -->
<g id="edge7" class="edge"><title>Node7&#45;&gt;Node7</title>
<path fill="none" stroke="midnightblue" d="M387.431,-75.7945C383.201,-85.4169 393.391,-94 418,-94 433.381,-94 443.129,-90.6472 447.245,-85.7834"/>
<polygon fill="midnightblue" stroke="midnightblue" points="450.724,-86.1679 448.569,-75.7945 443.785,-85.2475 450.724,-86.1679"/>
</g>
<!-- Node8&#45;&gt;Node8 -->
<g id="edge10" class="edge"><title>Node8&#45;&gt;Node8</title>
<path fill="none" stroke="midnightblue" d="M387.431,-434.795C383.201,-444.417 393.391,-453 418,-453 433.381,-453 443.129,-449.647 447.245,-444.783"/>
<polygon fill="midnightblue" stroke="midnightblue" points="450.724,-445.168 448.569,-434.795 443.785,-444.248 450.724,-445.168"/>
</g>
<!-- Node17 -->
<g id="node17" class="node"><title>Node17</title>
<g id="a_node17"><a xlink:href="namespacemappel.html#abc3956f093388acda04ee4455d01b515" target="_top" xlink:title="mappel::cholesky">
<polygon fill="white" stroke="black" points="374,-0.5 374,-18.5 462,-18.5 462,-0.5 374,-0.5"/>
<text text-anchor="middle" x="418" y="-7.3" font-family="Helvetica,sans-Serif" font-size="9.00">mappel::cholesky</text>
</a>
</g>
</g>
<!-- Node16&#45;&gt;Node17 -->
<g id="edge21" class="edge"><title>Node16&#45;&gt;Node17</title>
<path fill="none" stroke="midnightblue" d="M269.568,-73.3135C288.913,-59.8634 319.775,-39.9189 349,-27.5 354.128,-25.3209 359.588,-23.3468 365.099,-21.5739"/>
<polygon fill="midnightblue" stroke="midnightblue" points="366.441,-24.8255 375.013,-18.5989 364.429,-18.1209 366.441,-24.8255"/>
</g>
</g>
</svg>
        <g id="navigator" transform="translate(0 0)" fill="#404254">
                <rect fill="#f2f5e9" fill-opacity="0.5" stroke="#606060" stroke-width=".5" x="0" y="0" width="60" height="60"/>
                <use id="zoomplus" xlink:href="#zoomPlus" x="17" y="9" onmousedown="handleZoom(evt,'in')"/>
                <use id="zoomminus" xlink:href="#zoomMin" x="42" y="9" onmousedown="handleZoom(evt,'out')"/>
                <use id="reset" xlink:href="#resetDef" x="30" y="36" onmousedown="handleReset()"/>
                <g id="arrowUp" xlink:href="#dirArrow" transform="translate(30 24)" onmousedown="handlePan(0,-1)">
                  <use xlink:href="#rim" fill="#404040">
                        <set attributeName="fill" to="#808080" begin="arrowUp.mouseover" end="arrowUp.mouseout"/>
                  </use>
                  <path fill="none" stroke="white" stroke-width="1.5" d="M0,-3.0v7 M-2.5,-0.5L0,-3.0L2.5,-0.5"/>
                </g>
                <g id="arrowRight" xlink:href="#dirArrow" transform="rotate(90) translate(36 -43)" onmousedown="handlePan(1,0)">
                  <use xlink:href="#rim" fill="#404040">
                        <set attributeName="fill" to="#808080" begin="arrowRight.mouseover" end="arrowRight.mouseout"/>
                  </use>
                  <path fill="none" stroke="white" stroke-width="1.5" d="M0,-3.0v7 M-2.5,-0.5L0,-3.0L2.5,-0.5"/>
                </g>
                <g id="arrowDown" xlink:href="#dirArrow" transform="rotate(180) translate(-30 -48)" onmousedown="handlePan(0,1)">
                  <use xlink:href="#rim" fill="#404040">
                        <set attributeName="fill" to="#808080" begin="arrowDown.mouseover" end="arrowDown.mouseout"/>
                  </use>
                  <path fill="none" stroke="white" stroke-width="1.5" d="M0,-3.0v7 M-2.5,-0.5L0,-3.0L2.5,-0.5"/>
                </g>
                <g id="arrowLeft" xlink:href="#dirArrow" transform="rotate(270) translate(-36 17)" onmousedown="handlePan(-1,0)">
                  <use xlink:href="#rim" fill="#404040">
                        <set attributeName="fill" to="#808080" begin="arrowLeft.mouseover" end="arrowLeft.mouseout"/>
                  </use>
                  <path fill="none" stroke="white" stroke-width="1.5" d="M0,-3.0v7 M-2.5,-0.5L0,-3.0L2.5,-0.5"/>
                </g>
        </g>
        <svg viewBox="0 0 15 15" width="100%" height="30px" preserveAspectRatio="xMaxYMin meet">
         <g id="arrow_out" transform="scale(0.3 0.3)">
          <a xlink:href="classmappel_1_1QuasiNewtonMaximizer_ab4d32d8ba90d4355262a228753619b9f_cgraph_org.svg" target="_base">
           <rect id="button" ry="5" rx="5" y="6" x="6" height="38" width="38"
                fill="#f2f5e9" fill-opacity="0.5" stroke="#606060" stroke-width="1.0"/>
           <path id="arrow"
             d="M 11.500037,31.436501 C 11.940474,20.09759 22.043105,11.32322 32.158766,21.979434 L 37.068811,17.246167 C 37.068811,17.246167 37.088388,32 37.088388,32 L 22.160133,31.978069 C 22.160133,31.978069 26.997745,27.140456 26.997745,27.140456 C 18.528582,18.264221 13.291696,25.230495 11.500037,31.436501 z"
             style="fill:#404040;"/>
          </a>
         </g>
        </svg>
</svg>
