<?xml version="1.0" encoding="UTF-8" standalone="no"?>
<!DOCTYPE svg PUBLIC "-//W3C//DTD SVG 1.1//EN"
 "http://www.w3.org/Graphics/SVG/1.1/DTD/svg11.dtd">
<!-- Generated by graphviz version 2.38.0 (20140413.2041)
 -->
<!-- Title: mappel::Gauss2DModel Pages: 1 -->
<svg width="382pt" height="247pt"
 viewBox="0.00 0.00 382.00 247.00" xmlns="http://www.w3.org/2000/svg" xmlns:xlink="http://www.w3.org/1999/xlink">
<g id="graph0" class="graph" transform="scale(1 1) rotate(0) translate(4 243)">
<title>mappel::Gauss2DModel</title>
<polygon fill="white" stroke="none" points="-4,4 -4,-243 378,-243 378,4 -4,4"/>
<!-- Node1 -->
<g id="node1" class="node"><title>Node1</title>
<polygon fill="#bfbfbf" stroke="black" points="96.5,-55.5 96.5,-73.5 212.5,-73.5 212.5,-55.5 96.5,-55.5"/>
<text text-anchor="middle" x="154.5" y="-62.3" font-family="Helvetica,sans-Serif" font-size="9.00">mappel::Gauss2DModel</text>
</g>
<!-- Node7 -->
<g id="node7" class="node"><title>Node7</title>
<g id="a_node7"><a xlink:href="classmappel_1_1Gauss2DMAP.html" target="_top" xlink:title="A 2D Gaussian with fixed PSF under an Poisson Read Noise assumption and MAP Objective. ">
<polygon fill="white" stroke="black" points="35.5,-0.5 35.5,-18.5 145.5,-18.5 145.5,-0.5 35.5,-0.5"/>
<text text-anchor="middle" x="90.5" y="-7.3" font-family="Helvetica,sans-Serif" font-size="9.00">mappel::Gauss2DMAP</text>
</a>
</g>
</g>
<!-- Node1&#45;&gt;Node7 -->
<g id="edge7" class="edge"><title>Node1&#45;&gt;Node7</title>
<path fill="none" stroke="midnightblue" d="M136.901,-48.9259C125.111,-39.1622 110.025,-26.6693 100.312,-18.6253"/>
<polygon fill="midnightblue" stroke="midnightblue" points="134.845,-51.7679 144.78,-55.4504 139.31,-46.3766 134.845,-51.7679"/>
</g>
<!-- Node8 -->
<g id="node8" class="node"><title>Node8</title>
<g id="a_node8"><a xlink:href="classmappel_1_1Gauss2DMLE.html" target="_top" xlink:title="A 2D Gaussian with fixed PSF under an Poisson noise assumption and maximum&#45;likelihood objective...">
<polygon fill="white" stroke="black" points="164,-0.5 164,-18.5 273,-18.5 273,-0.5 164,-0.5"/>
<text text-anchor="middle" x="218.5" y="-7.3" font-family="Helvetica,sans-Serif" font-size="9.00">mappel::Gauss2DMLE</text>
</a>
</g>
</g>
<!-- Node1&#45;&gt;Node8 -->
<g id="edge8" class="edge"><title>Node1&#45;&gt;Node8</title>
<path fill="none" stroke="midnightblue" d="M172.099,-48.9259C183.889,-39.1622 198.975,-26.6693 208.688,-18.6253"/>
<polygon fill="midnightblue" stroke="midnightblue" points="169.69,-46.3766 164.22,-55.4504 174.155,-51.7679 169.69,-46.3766"/>
</g>
<!-- Node2 -->
<g id="node2" class="node"><title>Node2</title>
<g id="a_node2"><a xlink:href="classmappel_1_1PointEmitterModel.html" target="_top" xlink:title="A virtual Base type for point emitter localization models. ">
<polygon fill="white" stroke="black" points="0,-220.5 0,-238.5 127,-238.5 127,-220.5 0,-220.5"/>
<text text-anchor="middle" x="63.5" y="-227.3" font-family="Helvetica,sans-Serif" font-size="9.00">mappel::PointEmitterModel</text>
</a>
</g>
</g>
<!-- Node2&#45;&gt;Node1 -->
<g id="edge1" class="edge"><title>Node2&#45;&gt;Node1</title>
<path fill="none" stroke="midnightblue" d="M61.9657,-210.365C60.7901,-185.572 62.0434,-140.679 82.5,-110 94.1578,-92.5168 115.258,-80.6804 131.613,-73.6375"/>
<polygon fill="midnightblue" stroke="midnightblue" points="58.4835,-210.751 62.6404,-220.496 65.4681,-210.285 58.4835,-210.751"/>
</g>
<!-- Node5 -->
<g id="node5" class="node"><title>Node5</title>
<g id="a_node5"><a xlink:href="classmappel_1_1MCMCAdaptor1D.html" target="_top" xlink:title="mappel::MCMCAdaptor1D">
<polygon fill="white" stroke="black" points="92,-165.5 92,-183.5 217,-183.5 217,-165.5 92,-165.5"/>
<text text-anchor="middle" x="154.5" y="-172.3" font-family="Helvetica,sans-Serif" font-size="9.00">mappel::MCMCAdaptor1D</text>
</a>
</g>
</g>
<!-- Node2&#45;&gt;Node5 -->
<g id="edge5" class="edge"><title>Node2&#45;&gt;Node5</title>
<path fill="none" stroke="midnightblue" d="M86.1166,-215.328C103.187,-205.386 126.067,-192.06 140.549,-183.625"/>
<polygon fill="midnightblue" stroke="midnightblue" points="84.2007,-212.393 77.3209,-220.45 87.7237,-218.442 84.2007,-212.393"/>
</g>
<!-- Node3 -->
<g id="node3" class="node"><title>Node3</title>
<g id="a_node3"><a xlink:href="classmappel_1_1ImageFormat2DBase.html" target="_top" xlink:title="A virtual base class for 2D image localization objectives. ">
<polygon fill="white" stroke="black" points="235,-110.5 235,-128.5 374,-128.5 374,-110.5 235,-110.5"/>
<text text-anchor="middle" x="304.5" y="-117.3" font-family="Helvetica,sans-Serif" font-size="9.00">mappel::ImageFormat2DBase</text>
</a>
</g>
</g>
<!-- Node3&#45;&gt;Node1 -->
<g id="edge2" class="edge"><title>Node3&#45;&gt;Node1</title>
<path fill="none" stroke="midnightblue" d="M272.191,-107.084C243.672,-97.0074 202.804,-82.5675 177.496,-73.6253"/>
<polygon fill="midnightblue" stroke="midnightblue" points="271.123,-110.419 281.718,-110.45 273.456,-103.819 271.123,-110.419"/>
</g>
<!-- Node4 -->
<g id="node4" class="node"><title>Node4</title>
<g id="a_node4"><a xlink:href="classmappel_1_1MCMCAdaptor2D.html" target="_top" xlink:title="mappel::MCMCAdaptor2D">
<polygon fill="white" stroke="black" points="92,-110.5 92,-128.5 217,-128.5 217,-110.5 92,-110.5"/>
<text text-anchor="middle" x="154.5" y="-117.3" font-family="Helvetica,sans-Serif" font-size="9.00">mappel::MCMCAdaptor2D</text>
</a>
</g>
</g>
<!-- Node4&#45;&gt;Node1 -->
<g id="edge3" class="edge"><title>Node4&#45;&gt;Node1</title>
<path fill="none" stroke="midnightblue" d="M154.5,-100.175C154.5,-91.0945 154.5,-80.5949 154.5,-73.5496"/>
<polygon fill="midnightblue" stroke="midnightblue" points="151,-100.219 154.5,-110.219 158,-100.219 151,-100.219"/>
</g>
<!-- Node5&#45;&gt;Node4 -->
<g id="edge4" class="edge"><title>Node5&#45;&gt;Node4</title>
<path fill="none" stroke="midnightblue" d="M154.5,-155.175C154.5,-146.094 154.5,-135.595 154.5,-128.55"/>
<polygon fill="midnightblue" stroke="midnightblue" points="151,-155.219 154.5,-165.219 158,-155.219 151,-155.219"/>
</g>
<!-- Node6 -->
<g id="node6" class="node"><title>Node6</title>
<g id="a_node6"><a xlink:href="classmappel_1_1MCMCAdaptorBase.html" target="_top" xlink:title="mappel::MCMCAdaptorBase">
<polygon fill="white" stroke="black" points="145.5,-220.5 145.5,-238.5 279.5,-238.5 279.5,-220.5 145.5,-220.5"/>
<text text-anchor="middle" x="212.5" y="-227.3" font-family="Helvetica,sans-Serif" font-size="9.00">mappel::MCMCAdaptorBase</text>
</a>
</g>
</g>
<!-- Node6&#45;&gt;Node5 -->
<g id="edge6" class="edge"><title>Node6&#45;&gt;Node5</title>
<path fill="none" stroke="midnightblue" d="M195.972,-213.397C185.342,-203.683 171.951,-191.447 163.309,-183.55"/>
<polygon fill="midnightblue" stroke="midnightblue" points="193.694,-216.057 203.438,-220.219 198.416,-210.889 193.694,-216.057"/>
</g>
</g>
</svg>
