<?xml version="1.0" encoding="UTF-8" standalone="no"?>
<!DOCTYPE svg PUBLIC "-//W3C//DTD SVG 1.1//EN"
 "http://www.w3.org/Graphics/SVG/1.1/DTD/svg11.dtd">
<!-- Generated by graphviz version 2.38.0 (20140413.2041)
 -->
<!-- Title: mappel::PoissonNoise2DObjective::operator= Pages: 1 -->
<svg width="317pt" height="178pt"
 viewBox="0.00 0.00 317.00 178.00" xmlns="http://www.w3.org/2000/svg" xmlns:xlink="http://www.w3.org/1999/xlink">
<g id="graph0" class="graph" transform="scale(1 1) rotate(0) translate(4 174)">
<title>mappel::PoissonNoise2DObjective::operator=</title>
<polygon fill="white" stroke="none" points="-4,4 -4,-174 313,-174 313,4 -4,4"/>
<!-- Node1 -->
<g id="node1" class="node"><title>Node1</title>
<polygon fill="#bfbfbf" stroke="black" points="0,-70.5 0,-98.5 159,-98.5 159,-70.5 0,-70.5"/>
<text text-anchor="start" x="8" y="-87.3" font-family="Helvetica,sans-Serif" font-size="9.00">mappel::PoissonNoise2DObjective</text>
<text text-anchor="middle" x="79.5" y="-77.3" font-family="Helvetica,sans-Serif" font-size="9.00">::operator=</text>
</g>
<!-- Node2 -->
<g id="node2" class="node"><title>Node2</title>
<g id="a_node2"><a xlink:href="classmappel_1_1Gauss2DsMAP.html#ae9a68cb6e29b130082f4e4cf93dfe734" target="_top" xlink:title="mappel::Gauss2DsMAP\l::operator=">
<polygon fill="white" stroke="black" points="195,-141.5 195,-169.5 309,-169.5 309,-141.5 195,-141.5"/>
<text text-anchor="start" x="203" y="-158.3" font-family="Helvetica,sans-Serif" font-size="9.00">mappel::Gauss2DsMAP</text>
<text text-anchor="middle" x="252" y="-148.3" font-family="Helvetica,sans-Serif" font-size="9.00">::operator=</text>
</a>
</g>
</g>
<!-- Node1&#45;&gt;Node2 -->
<g id="edge1" class="edge"><title>Node1&#45;&gt;Node2</title>
<path fill="none" stroke="midnightblue" d="M123.529,-102.625C144.989,-111.642 171.348,-122.685 195,-132.5 201.99,-135.4 209.477,-138.489 216.63,-141.43"/>
<polygon fill="midnightblue" stroke="midnightblue" points="124.616,-99.2855 114.041,-98.6362 121.903,-105.738 124.616,-99.2855"/>
</g>
<!-- Node3 -->
<g id="node3" class="node"><title>Node3</title>
<g id="a_node3"><a xlink:href="classmappel_1_1Gauss2DsMLE.html#a3c3c72608a0aa4f7342119267888ac49" target="_top" xlink:title="mappel::Gauss2DsMLE\l::operator=">
<polygon fill="white" stroke="black" points="195.5,-94.5 195.5,-122.5 308.5,-122.5 308.5,-94.5 195.5,-94.5"/>
<text text-anchor="start" x="203.5" y="-111.3" font-family="Helvetica,sans-Serif" font-size="9.00">mappel::Gauss2DsMLE</text>
<text text-anchor="middle" x="252" y="-101.3" font-family="Helvetica,sans-Serif" font-size="9.00">::operator=</text>
</a>
</g>
</g>
<!-- Node1&#45;&gt;Node3 -->
<g id="edge2" class="edge"><title>Node1&#45;&gt;Node3</title>
<path fill="none" stroke="midnightblue" d="M169.302,-97C178.193,-98.2516 187.033,-99.4959 195.434,-100.678"/>
<polygon fill="midnightblue" stroke="midnightblue" points="169.652,-93.5149 159.262,-95.5867 168.676,-100.447 169.652,-93.5149"/>
</g>
<!-- Node4 -->
<g id="node4" class="node"><title>Node4</title>
<g id="a_node4"><a xlink:href="classmappel_1_1Gauss2DMAP.html#a45164f58c91c8eefffc0df248a7e8b7e" target="_top" xlink:title="mappel::Gauss2DMAP\l::operator=">
<polygon fill="white" stroke="black" points="197,-47.5 197,-75.5 307,-75.5 307,-47.5 197,-47.5"/>
<text text-anchor="start" x="205" y="-64.3" font-family="Helvetica,sans-Serif" font-size="9.00">mappel::Gauss2DMAP</text>
<text text-anchor="middle" x="252" y="-54.3" font-family="Helvetica,sans-Serif" font-size="9.00">::operator=</text>
</a>
</g>
</g>
<!-- Node1&#45;&gt;Node4 -->
<g id="edge3" class="edge"><title>Node1&#45;&gt;Node4</title>
<path fill="none" stroke="midnightblue" d="M169.433,-72.5032C178.805,-71.239 188.117,-69.9828 196.915,-68.7959"/>
<polygon fill="midnightblue" stroke="midnightblue" points="168.704,-69.0697 159.262,-73.8752 169.64,-76.0069 168.704,-69.0697"/>
</g>
<!-- Node5 -->
<g id="node5" class="node"><title>Node5</title>
<g id="a_node5"><a xlink:href="classmappel_1_1Gauss2DMLE.html#a31e347e3ff70644f76a5ffd69656a43f" target="_top" xlink:title="mappel::Gauss2DMLE\l::operator=">
<polygon fill="white" stroke="black" points="197.5,-0.5 197.5,-28.5 306.5,-28.5 306.5,-0.5 197.5,-0.5"/>
<text text-anchor="start" x="205.5" y="-17.3" font-family="Helvetica,sans-Serif" font-size="9.00">mappel::Gauss2DMLE</text>
<text text-anchor="middle" x="252" y="-7.3" font-family="Helvetica,sans-Serif" font-size="9.00">::operator=</text>
</a>
</g>
</g>
<!-- Node1&#45;&gt;Node5 -->
<g id="edge4" class="edge"><title>Node1&#45;&gt;Node5</title>
<path fill="none" stroke="midnightblue" d="M124.418,-66.4692C153.196,-54.654 190.265,-39.4352 216.839,-28.5249"/>
<polygon fill="midnightblue" stroke="midnightblue" points="122.925,-63.2987 115.003,-70.3345 125.583,-69.7742 122.925,-63.2987"/>
</g>
</g>
</svg>
