<?xml version="1.0" encoding="UTF-8" standalone="no"?>
<!DOCTYPE svg PUBLIC "-//W3C//DTD SVG 1.1//EN"
 "http://www.w3.org/Graphics/SVG/1.1/DTD/svg11.dtd">
<!-- Generated by graphviz version 2.38.0 (20140413.2041)
 -->
<!-- Title: mappel::IterativeMaximizer::MaximizerData::record_iteration Pages: 1 -->
<!--zoomable 131 -->
<svg id="main" version="1.1" xmlns="http://www.w3.org/2000/svg" xmlns:xlink="http://www.w3.org/1999/xlink" xml:space="preserve" onload="init(evt)">
<style type="text/css"><![CDATA[
.edge:hover path { stroke: red; }
.edge:hover polygon { stroke: red; fill: red; }
]]></style>
<script type="text/javascript"><![CDATA[
var edges = document.getElementsByTagName('g');
if (edges && edges.length) {
  for (var i=0;i<edges.length;i++) {
    if (edges[i].id.substr(0,4)=='edge') {
      edges[i].setAttribute('class','edge');
    }
  }
}
]]></script>
        <defs>
                <circle id="rim" cx="0" cy="0" r="7"/>
                <circle id="rim2" cx="0" cy="0" r="3.5"/>
                <g id="zoomPlus">
                        <use xlink:href="#rim" fill="#404040">
                                <set attributeName="fill" to="#808080" begin="zoomplus.mouseover" end="zoomplus.mouseout"/>
                        </use>
                        <path d="M-4,0h8M0,-4v8" fill="none" stroke="white" stroke-width="1.5" pointer-events="none"/>
                </g>
                <g id="zoomMin">
                        <use xlink:href="#rim" fill="#404040">
                                <set attributeName="fill" to="#808080" begin="zoomminus.mouseover" end="zoomminus.mouseout"/>
                        </use>
                        <path d="M-4,0h8" fill="none" stroke="white" stroke-width="1.5" pointer-events="none"/>
                </g>
                <g id="dirArrow">
                        <path fill="none" stroke="white" stroke-width="1.5" d="M0,-3.0v7 M-2.5,-0.5L0,-3.0L2.5,-0.5"/>
                </g>
               <g id="resetDef">
                       <use xlink:href="#rim2" fill="#404040">
                               <set attributeName="fill" to="#808080" begin="reset.mouseover" end="reset.mouseout"/>
                       </use>
               </g>
        </defs>

<script type="text/javascript">
var viewWidth = 518;
var viewHeight = 131;
var sectionId = 'dynsection-8';
</script>
<script xlink:href="svgpan.js"/>
<svg id="graph" class="graph">
<g id="viewport">
<title>mappel::IterativeMaximizer::MaximizerData::record_iteration</title>
<polygon fill="white" stroke="none" points="-4,4 -4,-127 514,-127 514,4 -4,4"/>
<!-- Node1 -->
<g id="node1" class="node"><title>Node1</title>
<polygon fill="#bfbfbf" stroke="black" points="0,-18.5 0,-56.5 126,-56.5 126,-18.5 0,-18.5"/>
<text text-anchor="start" x="8" y="-45.3" font-family="Helvetica,sans-Serif" font-size="9.00">mappel::IterativeMaximizer</text>
<text text-anchor="start" x="8" y="-35.3" font-family="Helvetica,sans-Serif" font-size="9.00">::MaximizerData::record</text>
<text text-anchor="middle" x="63" y="-25.3" font-family="Helvetica,sans-Serif" font-size="9.00">_iteration</text>
</g>
<!-- Node1&#45;&gt;Node1 -->
<g id="edge6" class="edge"><title>Node1&#45;&gt;Node1</title>
<path fill="none" stroke="midnightblue" d="M33.059,-66.7834C37.2726,-71.6472 47.2529,-75 63,-75 88.1953,-75 98.6277,-66.4169 94.2973,-56.7945"/>
<polygon fill="midnightblue" stroke="midnightblue" points="36.5165,-66.2326 31.7027,-56.7945 29.5801,-67.1745 36.5165,-66.2326"/>
</g>
<!-- Node2 -->
<g id="node2" class="node"><title>Node2</title>
<g id="a_node2"><a xlink:href="classmappel_1_1IterativeMaximizer.html#ac033d2b23a6a861e6d7adbe35f17624e" target="_top" xlink:title="mappel::IterativeMaximizer\l::backtrack">
<polygon fill="white" stroke="black" points="173.5,-47.5 173.5,-75.5 299.5,-75.5 299.5,-47.5 173.5,-47.5"/>
<text text-anchor="start" x="181.5" y="-64.3" font-family="Helvetica,sans-Serif" font-size="9.00">mappel::IterativeMaximizer</text>
<text text-anchor="middle" x="236.5" y="-54.3" font-family="Helvetica,sans-Serif" font-size="9.00">::backtrack</text>
</a>
</g>
</g>
<!-- Node1&#45;&gt;Node2 -->
<g id="edge1" class="edge"><title>Node1&#45;&gt;Node2</title>
<path fill="none" stroke="midnightblue" d="M136.589,-47.6582C148.847,-49.3737 161.474,-51.1406 173.433,-52.8142"/>
<polygon fill="midnightblue" stroke="midnightblue" points="136.789,-44.1522 126.401,-46.2324 135.819,-51.0847 136.789,-44.1522"/>
</g>
<!-- Node6 -->
<g id="node6" class="node"><title>Node6</title>
<g id="a_node6"><a xlink:href="classmappel_1_1IterativeMaximizer_1_1MaximizerData.html#aa14baec5beb341270a0f09f0d3ff5481" target="_top" xlink:title="mappel::IterativeMaximizer\l::MaximizerData::MaximizerData">
<polygon fill="white" stroke="black" points="162,-0.5 162,-28.5 311,-28.5 311,-0.5 162,-0.5"/>
<text text-anchor="start" x="170" y="-17.3" font-family="Helvetica,sans-Serif" font-size="9.00">mappel::IterativeMaximizer</text>
<text text-anchor="middle" x="236.5" y="-7.3" font-family="Helvetica,sans-Serif" font-size="9.00">::MaximizerData::MaximizerData</text>
</a>
</g>
</g>
<!-- Node1&#45;&gt;Node6 -->
<g id="edge5" class="edge"><title>Node1&#45;&gt;Node6</title>
<path fill="none" stroke="midnightblue" d="M136.497,-27.7774C144.862,-26.6555 153.4,-25.5105 161.781,-24.3865"/>
<polygon fill="midnightblue" stroke="midnightblue" points="135.847,-24.3332 126.401,-29.1314 136.777,-31.2711 135.847,-24.3332"/>
</g>
<!-- Node3 -->
<g id="node3" class="node"><title>Node3</title>
<g id="a_node3"><a xlink:href="classmappel_1_1NewtonDiagonalMaximizer.html#ac445064041b5c7f3c147c08a0065cd68" target="_top" xlink:title="mappel::NewtonDiagonalMaximizer\l::maximize">
<polygon fill="white" stroke="black" points="347,-94.5 347,-122.5 510,-122.5 510,-94.5 347,-94.5"/>
<text text-anchor="start" x="355" y="-111.3" font-family="Helvetica,sans-Serif" font-size="9.00">mappel::NewtonDiagonalMaximizer</text>
<text text-anchor="middle" x="428.5" y="-101.3" font-family="Helvetica,sans-Serif" font-size="9.00">::maximize</text>
</a>
</g>
</g>
<!-- Node2&#45;&gt;Node3 -->
<g id="edge2" class="edge"><title>Node2&#45;&gt;Node3</title>
<path fill="none" stroke="midnightblue" d="M304.069,-77.967C325.817,-83.3469 349.756,-89.2685 370.715,-94.4533"/>
<polygon fill="midnightblue" stroke="midnightblue" points="304.797,-74.5417 294.249,-75.5379 303.116,-81.3369 304.797,-74.5417"/>
</g>
<!-- Node4 -->
<g id="node4" class="node"><title>Node4</title>
<g id="a_node4"><a xlink:href="classmappel_1_1NewtonMaximizer.html#aca7e3071f17ef6f381878eb6151c86d7" target="_top" xlink:title="mappel::NewtonMaximizer\l::maximize">
<polygon fill="white" stroke="black" points="366,-47.5 366,-75.5 491,-75.5 491,-47.5 366,-47.5"/>
<text text-anchor="start" x="374" y="-64.3" font-family="Helvetica,sans-Serif" font-size="9.00">mappel::NewtonMaximizer</text>
<text text-anchor="middle" x="428.5" y="-54.3" font-family="Helvetica,sans-Serif" font-size="9.00">::maximize</text>
</a>
</g>
</g>
<!-- Node2&#45;&gt;Node4 -->
<g id="edge3" class="edge"><title>Node2&#45;&gt;Node4</title>
<path fill="none" stroke="midnightblue" d="M309.819,-61.5C328.27,-61.5 347.932,-61.5 365.796,-61.5"/>
<polygon fill="midnightblue" stroke="midnightblue" points="309.713,-58.0001 299.713,-61.5 309.713,-65.0001 309.713,-58.0001"/>
</g>
<!-- Node5 -->
<g id="node5" class="node"><title>Node5</title>
<g id="a_node5"><a xlink:href="classmappel_1_1QuasiNewtonMaximizer.html#ab4d32d8ba90d4355262a228753619b9f" target="_top" xlink:title="mappel::QuasiNewtonMaximizer\l::maximize">
<polygon fill="white" stroke="black" points="354,-0.5 354,-28.5 503,-28.5 503,-0.5 354,-0.5"/>
<text text-anchor="start" x="362" y="-17.3" font-family="Helvetica,sans-Serif" font-size="9.00">mappel::QuasiNewtonMaximizer</text>
<text text-anchor="middle" x="428.5" y="-7.3" font-family="Helvetica,sans-Serif" font-size="9.00">::maximize</text>
</a>
</g>
</g>
<!-- Node2&#45;&gt;Node5 -->
<g id="edge4" class="edge"><title>Node2&#45;&gt;Node5</title>
<path fill="none" stroke="midnightblue" d="M304.069,-45.033C325.817,-39.6531 349.756,-33.7315 370.715,-28.5467"/>
<polygon fill="midnightblue" stroke="midnightblue" points="303.116,-41.6631 294.249,-47.4621 304.797,-48.4583 303.116,-41.6631"/>
</g>
</g>
</svg>
        <g id="navigator" transform="translate(0 0)" fill="#404254">
                <rect fill="#f2f5e9" fill-opacity="0.5" stroke="#606060" stroke-width=".5" x="0" y="0" width="60" height="60"/>
                <use id="zoomplus" xlink:href="#zoomPlus" x="17" y="9" onmousedown="handleZoom(evt,'in')"/>
                <use id="zoomminus" xlink:href="#zoomMin" x="42" y="9" onmousedown="handleZoom(evt,'out')"/>
                <use id="reset" xlink:href="#resetDef" x="30" y="36" onmousedown="handleReset()"/>
                <g id="arrowUp" xlink:href="#dirArrow" transform="translate(30 24)" onmousedown="handlePan(0,-1)">
                  <use xlink:href="#rim" fill="#404040">
                        <set attributeName="fill" to="#808080" begin="arrowUp.mouseover" end="arrowUp.mouseout"/>
                  </use>
                  <path fill="none" stroke="white" stroke-width="1.5" d="M0,-3.0v7 M-2.5,-0.5L0,-3.0L2.5,-0.5"/>
                </g>
                <g id="arrowRight" xlink:href="#dirArrow" transform="rotate(90) translate(36 -43)" onmousedown="handlePan(1,0)">
                  <use xlink:href="#rim" fill="#404040">
                        <set attributeName="fill" to="#808080" begin="arrowRight.mouseover" end="arrowRight.mouseout"/>
                  </use>
                  <path fill="none" stroke="white" stroke-width="1.5" d="M0,-3.0v7 M-2.5,-0.5L0,-3.0L2.5,-0.5"/>
                </g>
                <g id="arrowDown" xlink:href="#dirArrow" transform="rotate(180) translate(-30 -48)" onmousedown="handlePan(0,1)">
                  <use xlink:href="#rim" fill="#404040">
                        <set attributeName="fill" to="#808080" begin="arrowDown.mouseover" end="arrowDown.mouseout"/>
                  </use>
                  <path fill="none" stroke="white" stroke-width="1.5" d="M0,-3.0v7 M-2.5,-0.5L0,-3.0L2.5,-0.5"/>
                </g>
                <g id="arrowLeft" xlink:href="#dirArrow" transform="rotate(270) translate(-36 17)" onmousedown="handlePan(-1,0)">
                  <use xlink:href="#rim" fill="#404040">
                        <set attributeName="fill" to="#808080" begin="arrowLeft.mouseover" end="arrowLeft.mouseout"/>
                  </use>
                  <path fill="none" stroke="white" stroke-width="1.5" d="M0,-3.0v7 M-2.5,-0.5L0,-3.0L2.5,-0.5"/>
                </g>
        </g>
        <svg viewBox="0 0 15 15" width="100%" height="30px" preserveAspectRatio="xMaxYMin meet">
         <g id="arrow_out" transform="scale(0.3 0.3)">
          <a xlink:href="classmappel_1_1IterativeMaximizer_1_1MaximizerData_a1096048bf29ccbc45e4a60dc6cbf7b2c_icgraph_org.svg" target="_base">
           <rect id="button" ry="5" rx="5" y="6" x="6" height="38" width="38"
                fill="#f2f5e9" fill-opacity="0.5" stroke="#606060" stroke-width="1.0"/>
           <path id="arrow"
             d="M 11.500037,31.436501 C 11.940474,20.09759 22.043105,11.32322 32.158766,21.979434 L 37.068811,17.246167 C 37.068811,17.246167 37.088388,32 37.088388,32 L 22.160133,31.978069 C 22.160133,31.978069 26.997745,27.140456 26.997745,27.140456 C 18.528582,18.264221 13.291696,25.230495 11.500037,31.436501 z"
             style="fill:#404040;"/>
          </a>
         </g>
        </svg>
</svg>
