<?xml version="1.0" encoding="UTF-8" standalone="no"?>
<!DOCTYPE svg PUBLIC "-//W3C//DTD SVG 1.1//EN"
 "http://www.w3.org/Graphics/SVG/1.1/DTD/svg11.dtd">
<!-- Generated by graphviz version 2.38.0 (20140413.2041)
 -->
<!-- Title: mappel::MCMCAdaptorBase::get_stats Pages: 1 -->
<!--zoomable 131 -->
<svg id="main" version="1.1" xmlns="http://www.w3.org/2000/svg" xmlns:xlink="http://www.w3.org/1999/xlink" xml:space="preserve" onload="init(evt)">
<style type="text/css"><![CDATA[
.edge:hover path { stroke: red; }
.edge:hover polygon { stroke: red; fill: red; }
]]></style>
<script type="text/javascript"><![CDATA[
var edges = document.getElementsByTagName('g');
if (edges && edges.length) {
  for (var i=0;i<edges.length;i++) {
    if (edges[i].id.substr(0,4)=='edge') {
      edges[i].setAttribute('class','edge');
    }
  }
}
]]></script>
        <defs>
                <circle id="rim" cx="0" cy="0" r="7"/>
                <circle id="rim2" cx="0" cy="0" r="3.5"/>
                <g id="zoomPlus">
                        <use xlink:href="#rim" fill="#404040">
                                <set attributeName="fill" to="#808080" begin="zoomplus.mouseover" end="zoomplus.mouseout"/>
                        </use>
                        <path d="M-4,0h8M0,-4v8" fill="none" stroke="white" stroke-width="1.5" pointer-events="none"/>
                </g>
                <g id="zoomMin">
                        <use xlink:href="#rim" fill="#404040">
                                <set attributeName="fill" to="#808080" begin="zoomminus.mouseover" end="zoomminus.mouseout"/>
                        </use>
                        <path d="M-4,0h8" fill="none" stroke="white" stroke-width="1.5" pointer-events="none"/>
                </g>
                <g id="dirArrow">
                        <path fill="none" stroke="white" stroke-width="1.5" d="M0,-3.0v7 M-2.5,-0.5L0,-3.0L2.5,-0.5"/>
                </g>
               <g id="resetDef">
                       <use xlink:href="#rim2" fill="#404040">
                               <set attributeName="fill" to="#808080" begin="reset.mouseover" end="reset.mouseout"/>
                       </use>
               </g>
        </defs>

<script type="text/javascript">
var viewWidth = 789;
var viewHeight = 131;
var sectionId = 'dynsection-1';
</script>
<script xlink:href="svgpan.js"/>
<svg id="graph" class="graph">
<g id="viewport">
<title>mappel::MCMCAdaptorBase::get_stats</title>
<polygon fill="white" stroke="none" points="-4,4 -4,-127 785,-127 785,4 -4,4"/>
<!-- Node1 -->
<g id="node1" class="node"><title>Node1</title>
<polygon fill="#bfbfbf" stroke="black" points="0,-47.5 0,-75.5 134,-75.5 134,-47.5 0,-47.5"/>
<text text-anchor="start" x="8" y="-64.3" font-family="Helvetica,sans-Serif" font-size="9.00">mappel::MCMCAdaptorBase</text>
<text text-anchor="middle" x="67" y="-54.3" font-family="Helvetica,sans-Serif" font-size="9.00">::get_stats</text>
</g>
<!-- Node2 -->
<g id="node2" class="node"><title>Node2</title>
<g id="a_node2"><a xlink:href="classmappel_1_1MCMCAdaptor1D.html#ad1cb677abb1a3e214c2f6fc1e1c3cb86" target="_top" xlink:title="mappel::MCMCAdaptor1D\l::get_stats">
<polygon fill="white" stroke="black" points="170,-47.5 170,-75.5 295,-75.5 295,-47.5 170,-47.5"/>
<text text-anchor="start" x="178" y="-64.3" font-family="Helvetica,sans-Serif" font-size="9.00">mappel::MCMCAdaptor1D</text>
<text text-anchor="middle" x="232.5" y="-54.3" font-family="Helvetica,sans-Serif" font-size="9.00">::get_stats</text>
</a>
</g>
</g>
<!-- Node1&#45;&gt;Node2 -->
<g id="edge1" class="edge"><title>Node1&#45;&gt;Node2</title>
<path fill="none" stroke="midnightblue" d="M144.137,-61.5C152.799,-61.5 161.545,-61.5 169.984,-61.5"/>
<polygon fill="midnightblue" stroke="midnightblue" points="144.03,-58.0001 134.03,-61.5 144.03,-65.0001 144.03,-58.0001"/>
</g>
<!-- Node3 -->
<g id="node3" class="node"><title>Node3</title>
<g id="a_node3"><a xlink:href="classmappel_1_1MCMCAdaptor1Ds.html#aff41401113d81b876c5bfae158541ba3" target="_top" xlink:title="mappel::MCMCAdaptor1Ds\l::get_stats">
<polygon fill="white" stroke="black" points="331,-94.5 331,-122.5 460,-122.5 460,-94.5 331,-94.5"/>
<text text-anchor="start" x="339" y="-111.3" font-family="Helvetica,sans-Serif" font-size="9.00">mappel::MCMCAdaptor1Ds</text>
<text text-anchor="middle" x="395.5" y="-101.3" font-family="Helvetica,sans-Serif" font-size="9.00">::get_stats</text>
</a>
</g>
</g>
<!-- Node2&#45;&gt;Node3 -->
<g id="edge2" class="edge"><title>Node2&#45;&gt;Node3</title>
<path fill="none" stroke="midnightblue" d="M291.619,-78.4663C309.629,-83.7241 329.264,-89.4558 346.506,-94.4894"/>
<polygon fill="midnightblue" stroke="midnightblue" points="292.385,-75.0441 281.805,-75.6015 290.424,-81.7637 292.385,-75.0441"/>
</g>
<!-- Node5 -->
<g id="node5" class="node"><title>Node5</title>
<g id="a_node5"><a xlink:href="classmappel_1_1MCMCAdaptor2D.html#a69362d28411ba7a8ac8d4b9c95335e44" target="_top" xlink:title="mappel::MCMCAdaptor2D\l::get_stats">
<polygon fill="white" stroke="black" points="333,-47.5 333,-75.5 458,-75.5 458,-47.5 333,-47.5"/>
<text text-anchor="start" x="341" y="-64.3" font-family="Helvetica,sans-Serif" font-size="9.00">mappel::MCMCAdaptor2D</text>
<text text-anchor="middle" x="395.5" y="-54.3" font-family="Helvetica,sans-Serif" font-size="9.00">::get_stats</text>
</a>
</g>
</g>
<!-- Node2&#45;&gt;Node5 -->
<g id="edge4" class="edge"><title>Node2&#45;&gt;Node5</title>
<path fill="none" stroke="midnightblue" d="M305.511,-61.5C314.646,-61.5 323.927,-61.5 332.879,-61.5"/>
<polygon fill="midnightblue" stroke="midnightblue" points="305.286,-58.0001 295.286,-61.5 305.286,-65.0001 305.286,-58.0001"/>
</g>
<!-- Node9 -->
<g id="node9" class="node"><title>Node9</title>
<g id="a_node9"><a xlink:href="classmappel_1_1Gauss1DModel.html#a61904b6e14e7429ee58175cb54259ed9" target="_top" xlink:title="mappel::Gauss1DModel\l::get_stats">
<polygon fill="white" stroke="black" points="337.5,-0.5 337.5,-28.5 453.5,-28.5 453.5,-0.5 337.5,-0.5"/>
<text text-anchor="start" x="345.5" y="-17.3" font-family="Helvetica,sans-Serif" font-size="9.00">mappel::Gauss1DModel</text>
<text text-anchor="middle" x="395.5" y="-7.3" font-family="Helvetica,sans-Serif" font-size="9.00">::get_stats</text>
</a>
</g>
</g>
<!-- Node2&#45;&gt;Node9 -->
<g id="edge8" class="edge"><title>Node2&#45;&gt;Node9</title>
<path fill="none" stroke="midnightblue" d="M291.619,-44.5337C309.629,-39.2759 329.264,-33.5442 346.506,-28.5106"/>
<polygon fill="midnightblue" stroke="midnightblue" points="290.424,-41.2363 281.805,-47.3985 292.385,-47.9559 290.424,-41.2363"/>
</g>
<!-- Node4 -->
<g id="node4" class="node"><title>Node4</title>
<g id="a_node4"><a xlink:href="classmappel_1_1Gauss1DsModel.html#a3332a06f7288311ec560427e360c00be" target="_top" xlink:title="mappel::Gauss1DsModel\l::get_stats">
<polygon fill="white" stroke="black" points="500.5,-94.5 500.5,-122.5 620.5,-122.5 620.5,-94.5 500.5,-94.5"/>
<text text-anchor="start" x="508.5" y="-111.3" font-family="Helvetica,sans-Serif" font-size="9.00">mappel::Gauss1DsModel</text>
<text text-anchor="middle" x="560.5" y="-101.3" font-family="Helvetica,sans-Serif" font-size="9.00">::get_stats</text>
</a>
</g>
</g>
<!-- Node3&#45;&gt;Node4 -->
<g id="edge3" class="edge"><title>Node3&#45;&gt;Node4</title>
<path fill="none" stroke="midnightblue" d="M470.697,-108.5C480.599,-108.5 490.647,-108.5 500.249,-108.5"/>
<polygon fill="midnightblue" stroke="midnightblue" points="470.454,-105 460.454,-108.5 470.454,-112 470.454,-105"/>
</g>
<!-- Node6 -->
<g id="node6" class="node"><title>Node6</title>
<g id="a_node6"><a xlink:href="classmappel_1_1MCMCAdaptor2Ds.html#adc76529ede19684c1deacbeb8205fd8a" target="_top" xlink:title="mappel::MCMCAdaptor2Ds\l::get_stats">
<polygon fill="white" stroke="black" points="496,-47.5 496,-75.5 625,-75.5 625,-47.5 496,-47.5"/>
<text text-anchor="start" x="504" y="-64.3" font-family="Helvetica,sans-Serif" font-size="9.00">mappel::MCMCAdaptor2Ds</text>
<text text-anchor="middle" x="560.5" y="-54.3" font-family="Helvetica,sans-Serif" font-size="9.00">::get_stats</text>
</a>
</g>
</g>
<!-- Node5&#45;&gt;Node6 -->
<g id="edge5" class="edge"><title>Node5&#45;&gt;Node6</title>
<path fill="none" stroke="midnightblue" d="M468.375,-61.5C477.54,-61.5 486.869,-61.5 495.891,-61.5"/>
<polygon fill="midnightblue" stroke="midnightblue" points="468.123,-58.0001 458.123,-61.5 468.123,-65.0001 468.123,-58.0001"/>
</g>
<!-- Node8 -->
<g id="node8" class="node"><title>Node8</title>
<g id="a_node8"><a xlink:href="classmappel_1_1Gauss2DModel.html#a8aecb8960e94b03499110e08f5d18c7f" target="_top" xlink:title="mappel::Gauss2DModel\l::get_stats">
<polygon fill="white" stroke="black" points="502.5,-0.5 502.5,-28.5 618.5,-28.5 618.5,-0.5 502.5,-0.5"/>
<text text-anchor="start" x="510.5" y="-17.3" font-family="Helvetica,sans-Serif" font-size="9.00">mappel::Gauss2DModel</text>
<text text-anchor="middle" x="560.5" y="-7.3" font-family="Helvetica,sans-Serif" font-size="9.00">::get_stats</text>
</a>
</g>
</g>
<!-- Node5&#45;&gt;Node8 -->
<g id="edge7" class="edge"><title>Node5&#45;&gt;Node8</title>
<path fill="none" stroke="midnightblue" d="M455.087,-44.6067C473.391,-39.329 493.372,-33.5675 510.91,-28.5106"/>
<polygon fill="midnightblue" stroke="midnightblue" points="454.044,-41.2648 445.405,-47.3985 455.984,-47.9908 454.044,-41.2648"/>
</g>
<!-- Node7 -->
<g id="node7" class="node"><title>Node7</title>
<g id="a_node7"><a xlink:href="classmappel_1_1Gauss2DsModel.html#a9c59a143645ffdacd13b1dc332828cfb" target="_top" xlink:title="mappel::Gauss2DsModel\l::get_stats">
<polygon fill="white" stroke="black" points="661,-47.5 661,-75.5 781,-75.5 781,-47.5 661,-47.5"/>
<text text-anchor="start" x="669" y="-64.3" font-family="Helvetica,sans-Serif" font-size="9.00">mappel::Gauss2DsModel</text>
<text text-anchor="middle" x="721" y="-54.3" font-family="Helvetica,sans-Serif" font-size="9.00">::get_stats</text>
</a>
</g>
</g>
<!-- Node6&#45;&gt;Node7 -->
<g id="edge6" class="edge"><title>Node6&#45;&gt;Node7</title>
<path fill="none" stroke="midnightblue" d="M635.1,-61.5C643.714,-61.5 652.417,-61.5 660.799,-61.5"/>
<polygon fill="midnightblue" stroke="midnightblue" points="635.055,-58.0001 625.055,-61.5 635.055,-65.0001 635.055,-58.0001"/>
</g>
</g>
</svg>
        <g id="navigator" transform="translate(0 0)" fill="#404254">
                <rect fill="#f2f5e9" fill-opacity="0.5" stroke="#606060" stroke-width=".5" x="0" y="0" width="60" height="60"/>
                <use id="zoomplus" xlink:href="#zoomPlus" x="17" y="9" onmousedown="handleZoom(evt,'in')"/>
                <use id="zoomminus" xlink:href="#zoomMin" x="42" y="9" onmousedown="handleZoom(evt,'out')"/>
                <use id="reset" xlink:href="#resetDef" x="30" y="36" onmousedown="handleReset()"/>
                <g id="arrowUp" xlink:href="#dirArrow" transform="translate(30 24)" onmousedown="handlePan(0,-1)">
                  <use xlink:href="#rim" fill="#404040">
                        <set attributeName="fill" to="#808080" begin="arrowUp.mouseover" end="arrowUp.mouseout"/>
                  </use>
                  <path fill="none" stroke="white" stroke-width="1.5" d="M0,-3.0v7 M-2.5,-0.5L0,-3.0L2.5,-0.5"/>
                </g>
                <g id="arrowRight" xlink:href="#dirArrow" transform="rotate(90) translate(36 -43)" onmousedown="handlePan(1,0)">
                  <use xlink:href="#rim" fill="#404040">
                        <set attributeName="fill" to="#808080" begin="arrowRight.mouseover" end="arrowRight.mouseout"/>
                  </use>
                  <path fill="none" stroke="white" stroke-width="1.5" d="M0,-3.0v7 M-2.5,-0.5L0,-3.0L2.5,-0.5"/>
                </g>
                <g id="arrowDown" xlink:href="#dirArrow" transform="rotate(180) translate(-30 -48)" onmousedown="handlePan(0,1)">
                  <use xlink:href="#rim" fill="#404040">
                        <set attributeName="fill" to="#808080" begin="arrowDown.mouseover" end="arrowDown.mouseout"/>
                  </use>
                  <path fill="none" stroke="white" stroke-width="1.5" d="M0,-3.0v7 M-2.5,-0.5L0,-3.0L2.5,-0.5"/>
                </g>
                <g id="arrowLeft" xlink:href="#dirArrow" transform="rotate(270) translate(-36 17)" onmousedown="handlePan(-1,0)">
                  <use xlink:href="#rim" fill="#404040">
                        <set attributeName="fill" to="#808080" begin="arrowLeft.mouseover" end="arrowLeft.mouseout"/>
                  </use>
                  <path fill="none" stroke="white" stroke-width="1.5" d="M0,-3.0v7 M-2.5,-0.5L0,-3.0L2.5,-0.5"/>
                </g>
        </g>
        <svg viewBox="0 0 15 15" width="100%" height="30px" preserveAspectRatio="xMaxYMin meet">
         <g id="arrow_out" transform="scale(0.3 0.3)">
          <a xlink:href="classmappel_1_1MCMCAdaptorBase_ad6054973528dfad89976882cdb50aba5_icgraph_org.svg" target="_base">
           <rect id="button" ry="5" rx="5" y="6" x="6" height="38" width="38"
                fill="#f2f5e9" fill-opacity="0.5" stroke="#606060" stroke-width="1.0"/>
           <path id="arrow"
             d="M 11.500037,31.436501 C 11.940474,20.09759 22.043105,11.32322 32.158766,21.979434 L 37.068811,17.246167 C 37.068811,17.246167 37.088388,32 37.088388,32 L 22.160133,31.978069 C 22.160133,31.978069 26.997745,27.140456 26.997745,27.140456 C 18.528582,18.264221 13.291696,25.230495 11.500037,31.436501 z"
             style="fill:#404040;"/>
          </a>
         </g>
        </svg>
</svg>
