<?xml version="1.0" encoding="UTF-8" standalone="no"?>
<!DOCTYPE svg PUBLIC "-//W3C//DTD SVG 1.1//EN"
 "http://www.w3.org/Graphics/SVG/1.1/DTD/svg11.dtd">
<!-- Generated by graphviz version 2.38.0 (20140413.2041)
 -->
<!-- Title: mappel::MAPEstimator Pages: 1 -->
<svg width="440pt" height="175pt"
 viewBox="0.00 0.00 440.00 175.00" xmlns="http://www.w3.org/2000/svg" xmlns:xlink="http://www.w3.org/1999/xlink">
<g id="graph0" class="graph" transform="scale(1 1) rotate(0) translate(4 171)">
<title>mappel::MAPEstimator</title>
<polygon fill="white" stroke="none" points="-4,4 -4,-171 436,-171 436,4 -4,4"/>
<!-- Node1 -->
<g id="node1" class="node"><title>Node1</title>
<polygon fill="#bfbfbf" stroke="black" points="163,-74.5 163,-92.5 273,-92.5 273,-74.5 163,-74.5"/>
<text text-anchor="middle" x="218" y="-81.3" font-family="Helvetica,sans-Serif" font-size="9.00">mappel::MAPEstimator</text>
</g>
<!-- Node3 -->
<g id="node3" class="node"><title>Node3</title>
<g id="a_node3"><a xlink:href="classmappel_1_1Gauss1DMAP.html" target="_top" xlink:title="A 1D Gaussian with fixed PSF under an Poisson Read Noise assumption and MAP Objective. ">
<polygon fill="white" stroke="black" points="315.5,-148.5 315.5,-166.5 425.5,-166.5 425.5,-148.5 315.5,-148.5"/>
<text text-anchor="middle" x="370.5" y="-155.3" font-family="Helvetica,sans-Serif" font-size="9.00">mappel::Gauss1DMAP</text>
</a>
</g>
</g>
<!-- Node1&#45;&gt;Node3 -->
<g id="edge2" class="edge"><title>Node1&#45;&gt;Node3</title>
<path fill="none" stroke="midnightblue" d="M239.61,-98.5564C257.299,-110.921 283.849,-128.181 309,-139.5 316.695,-142.963 325.234,-145.971 333.414,-148.485"/>
<polygon fill="midnightblue" stroke="midnightblue" points="241.4,-95.5347 231.221,-92.594 237.344,-101.24 241.4,-95.5347"/>
</g>
<!-- Node4 -->
<g id="node4" class="node"><title>Node4</title>
<g id="a_node4"><a xlink:href="classmappel_1_1Gauss1DsMAP.html" target="_top" xlink:title="A 1D Gaussian with variable PSF sigma under an Poisson read noise assumption and MAP Objective...">
<polygon fill="white" stroke="black" points="313.5,-111.5 313.5,-129.5 427.5,-129.5 427.5,-111.5 313.5,-111.5"/>
<text text-anchor="middle" x="370.5" y="-118.3" font-family="Helvetica,sans-Serif" font-size="9.00">mappel::Gauss1DsMAP</text>
</a>
</g>
</g>
<!-- Node1&#45;&gt;Node4 -->
<g id="edge3" class="edge"><title>Node1&#45;&gt;Node4</title>
<path fill="none" stroke="midnightblue" d="M265.763,-94.9967C287.354,-100.305 312.615,-106.515 332.803,-111.478"/>
<polygon fill="midnightblue" stroke="midnightblue" points="266.363,-91.5399 255.816,-92.5512 264.692,-98.3375 266.363,-91.5399"/>
</g>
<!-- Node5 -->
<g id="node5" class="node"><title>Node5</title>
<g id="a_node5"><a xlink:href="classmappel_1_1Gauss2DMAP.html" target="_top" xlink:title="A 2D Gaussian with fixed PSF under an Poisson Read Noise assumption and MAP Objective. ">
<polygon fill="white" stroke="black" points="315.5,-74.5 315.5,-92.5 425.5,-92.5 425.5,-74.5 315.5,-74.5"/>
<text text-anchor="middle" x="370.5" y="-81.3" font-family="Helvetica,sans-Serif" font-size="9.00">mappel::Gauss2DMAP</text>
</a>
</g>
</g>
<!-- Node1&#45;&gt;Node5 -->
<g id="edge4" class="edge"><title>Node1&#45;&gt;Node5</title>
<path fill="none" stroke="midnightblue" d="M283.454,-83.5C294.134,-83.5 305.11,-83.5 315.498,-83.5"/>
<polygon fill="midnightblue" stroke="midnightblue" points="283.334,-80.0001 273.334,-83.5 283.334,-87.0001 283.334,-80.0001"/>
</g>
<!-- Node6 -->
<g id="node6" class="node"><title>Node6</title>
<g id="a_node6"><a xlink:href="classmappel_1_1Gauss2DsMAP.html" target="_top" xlink:title="A 2D Gaussian with a variable scalar PSF sigma under a Poisson noise assumption using a maximum a&#45;pos...">
<polygon fill="white" stroke="black" points="313.5,-37.5 313.5,-55.5 427.5,-55.5 427.5,-37.5 313.5,-37.5"/>
<text text-anchor="middle" x="370.5" y="-44.3" font-family="Helvetica,sans-Serif" font-size="9.00">mappel::Gauss2DsMAP</text>
</a>
</g>
</g>
<!-- Node1&#45;&gt;Node6 -->
<g id="edge5" class="edge"><title>Node1&#45;&gt;Node6</title>
<path fill="none" stroke="midnightblue" d="M265.763,-72.0033C287.354,-66.6954 312.615,-60.4851 332.803,-55.5218"/>
<polygon fill="midnightblue" stroke="midnightblue" points="264.692,-68.6625 255.816,-74.4488 266.363,-75.4601 264.692,-68.6625"/>
</g>
<!-- Node7 -->
<g id="node7" class="node"><title>Node7</title>
<g id="a_node7"><a xlink:href="classmappel_1_1Gauss2DsxyMAP.html" target="_top" xlink:title="A 1D Gaussian with fixed PSF under an Poisson Read Noise assumption and MAP Objective. ">
<polygon fill="white" stroke="black" points="309,-0.5 309,-18.5 432,-18.5 432,-0.5 309,-0.5"/>
<text text-anchor="middle" x="370.5" y="-7.3" font-family="Helvetica,sans-Serif" font-size="9.00">mappel::Gauss2DsxyMAP</text>
</a>
</g>
</g>
<!-- Node1&#45;&gt;Node7 -->
<g id="edge6" class="edge"><title>Node1&#45;&gt;Node7</title>
<path fill="none" stroke="midnightblue" d="M239.61,-68.4436C257.299,-56.0788 283.849,-38.8192 309,-27.5 316.695,-24.037 325.234,-21.0288 333.414,-18.5151"/>
<polygon fill="midnightblue" stroke="midnightblue" points="237.344,-65.7597 231.221,-74.406 241.4,-71.4653 237.344,-65.7597"/>
</g>
<!-- Node2 -->
<g id="node2" class="node"><title>Node2</title>
<g id="a_node2"><a xlink:href="classmappel_1_1PointEmitterModel.html" target="_top" xlink:title="A virtual Base type for point emitter localization models. ">
<polygon fill="white" stroke="black" points="0,-74.5 0,-92.5 127,-92.5 127,-74.5 0,-74.5"/>
<text text-anchor="middle" x="63.5" y="-81.3" font-family="Helvetica,sans-Serif" font-size="9.00">mappel::PointEmitterModel</text>
</a>
</g>
</g>
<!-- Node2&#45;&gt;Node1 -->
<g id="edge1" class="edge"><title>Node2&#45;&gt;Node1</title>
<path fill="none" stroke="midnightblue" d="M137.455,-83.5C146.058,-83.5 154.717,-83.5 162.993,-83.5"/>
<polygon fill="midnightblue" stroke="midnightblue" points="137.408,-80.0001 127.408,-83.5 137.408,-87.0001 137.408,-80.0001"/>
</g>
</g>
</svg>
