<?xml version="1.0" encoding="UTF-8" standalone="no"?>
<!DOCTYPE svg PUBLIC "-//W3C//DTD SVG 1.1//EN"
 "http://www.w3.org/Graphics/SVG/1.1/DTD/svg11.dtd">
<!-- Generated by graphviz version 2.38.0 (20140413.2041)
 -->
<!-- Title: mappel::Gauss2DsxyModel::Stencil::I Pages: 1 -->
<svg width="302pt" height="178pt"
 viewBox="0.00 0.00 302.00 178.00" xmlns="http://www.w3.org/2000/svg" xmlns:xlink="http://www.w3.org/1999/xlink">
<g id="graph0" class="graph" transform="scale(1 1) rotate(0) translate(4 174)">
<title>mappel::Gauss2DsxyModel::Stencil::I</title>
<polygon fill="white" stroke="none" points="-4,4 -4,-174 298,-174 298,4 -4,4"/>
<!-- Node1 -->
<g id="node1" class="node"><title>Node1</title>
<polygon fill="#bfbfbf" stroke="black" points="0,-70.5 0,-98.5 129,-98.5 129,-70.5 0,-70.5"/>
<text text-anchor="start" x="8" y="-87.3" font-family="Helvetica,sans-Serif" font-size="9.00">mappel::Gauss2DsxyModel</text>
<text text-anchor="middle" x="64.5" y="-77.3" font-family="Helvetica,sans-Serif" font-size="9.00">::Stencil::I</text>
</g>
<!-- Node2 -->
<g id="node2" class="node"><title>Node2</title>
<g id="a_node2"><a xlink:href="classmappel_1_1Gauss2DsxyModel.html#a1179b3bbddd0d4576f33d9c7b85a568f" target="_top" xlink:title="mappel::Gauss2DsxyModel\l::pixel_grad">
<polygon fill="white" stroke="black" points="165,-141.5 165,-169.5 294,-169.5 294,-141.5 165,-141.5"/>
<text text-anchor="start" x="173" y="-158.3" font-family="Helvetica,sans-Serif" font-size="9.00">mappel::Gauss2DsxyModel</text>
<text text-anchor="middle" x="229.5" y="-148.3" font-family="Helvetica,sans-Serif" font-size="9.00">::pixel_grad</text>
</a>
</g>
</g>
<!-- Node1&#45;&gt;Node2 -->
<g id="edge1" class="edge"><title>Node1&#45;&gt;Node2</title>
<path fill="none" stroke="midnightblue" d="M101.659,-103.042C120.36,-112.349 143.678,-123.523 165,-132.5 172.24,-135.548 180.04,-138.576 187.611,-141.386"/>
<polygon fill="midnightblue" stroke="midnightblue" points="103.116,-99.8572 92.6082,-98.5037 99.9787,-106.115 103.116,-99.8572"/>
</g>
<!-- Node3 -->
<g id="node3" class="node"><title>Node3</title>
<g id="a_node3"><a xlink:href="classmappel_1_1Gauss2DsxyModel.html#a3a737037fec228c1db32b3fe1e401a88" target="_top" xlink:title="mappel::Gauss2DsxyModel\l::pixel_grad2">
<polygon fill="white" stroke="black" points="165,-94.5 165,-122.5 294,-122.5 294,-94.5 165,-94.5"/>
<text text-anchor="start" x="173" y="-111.3" font-family="Helvetica,sans-Serif" font-size="9.00">mappel::Gauss2DsxyModel</text>
<text text-anchor="middle" x="229.5" y="-101.3" font-family="Helvetica,sans-Serif" font-size="9.00">::pixel_grad2</text>
</a>
</g>
</g>
<!-- Node1&#45;&gt;Node3 -->
<g id="edge2" class="edge"><title>Node1&#45;&gt;Node3</title>
<path fill="none" stroke="midnightblue" d="M139.409,-95.3824C147.953,-96.6404 156.609,-97.9149 164.998,-99.15"/>
<polygon fill="midnightblue" stroke="midnightblue" points="139.857,-91.9107 129.454,-93.9166 138.838,-98.836 139.857,-91.9107"/>
</g>
<!-- Node4 -->
<g id="node4" class="node"><title>Node4</title>
<g id="a_node4"><a xlink:href="classmappel_1_1Gauss2DsxyModel.html#afd8fc48f6b25ea719d2a654deb514851" target="_top" xlink:title="mappel::Gauss2DsxyModel\l::pixel_hess">
<polygon fill="white" stroke="black" points="165,-47.5 165,-75.5 294,-75.5 294,-47.5 165,-47.5"/>
<text text-anchor="start" x="173" y="-64.3" font-family="Helvetica,sans-Serif" font-size="9.00">mappel::Gauss2DsxyModel</text>
<text text-anchor="middle" x="229.5" y="-54.3" font-family="Helvetica,sans-Serif" font-size="9.00">::pixel_hess</text>
</a>
</g>
</g>
<!-- Node1&#45;&gt;Node4 -->
<g id="edge3" class="edge"><title>Node1&#45;&gt;Node4</title>
<path fill="none" stroke="midnightblue" d="M139.409,-74.0711C147.953,-72.8655 156.609,-71.6441 164.998,-70.4604"/>
<polygon fill="midnightblue" stroke="midnightblue" points="138.867,-70.6128 129.454,-75.4758 139.845,-77.5442 138.867,-70.6128"/>
</g>
<!-- Node5 -->
<g id="node5" class="node"><title>Node5</title>
<g id="a_node5"><a xlink:href="classmappel_1_1Gauss2DsxyModel.html#ab6f301629764ec9a20d09b1113f9cd81" target="_top" xlink:title="mappel::Gauss2DsxyModel\l::pixel_model_value">
<polygon fill="white" stroke="black" points="165,-0.5 165,-28.5 294,-28.5 294,-0.5 165,-0.5"/>
<text text-anchor="start" x="173" y="-17.3" font-family="Helvetica,sans-Serif" font-size="9.00">mappel::Gauss2DsxyModel</text>
<text text-anchor="middle" x="229.5" y="-7.3" font-family="Helvetica,sans-Serif" font-size="9.00">::pixel_model_value</text>
</a>
</g>
</g>
<!-- Node1&#45;&gt;Node5 -->
<g id="edge4" class="edge"><title>Node1&#45;&gt;Node5</title>
<path fill="none" stroke="midnightblue" d="M103.646,-66.0856C122.049,-57.4026 144.526,-47.0887 165,-38.5 173.042,-35.1263 181.741,-31.6976 190.045,-28.5277"/>
<polygon fill="midnightblue" stroke="midnightblue" points="101.961,-63.0112 94.4262,-70.4598 104.961,-69.3356 101.961,-63.0112"/>
</g>
</g>
</svg>
