<?xml version="1.0" encoding="UTF-8" standalone="no"?>
<!DOCTYPE svg PUBLIC "-//W3C//DTD SVG 1.1//EN"
 "http://www.w3.org/Graphics/SVG/1.1/DTD/svg11.dtd">
<!-- Generated by graphviz version 2.38.0 (20140413.2041)
 -->
<!-- Title: mappel::PointEmitterModel::make_prior_component_sigma Pages: 1 -->
<svg width="800pt" height="425pt"
 viewBox="0.00 0.00 800.00 425.00" xmlns="http://www.w3.org/2000/svg" xmlns:xlink="http://www.w3.org/1999/xlink">
<g id="graph0" class="graph" transform="scale(1 1) rotate(0) translate(4 421)">
<title>mappel::PointEmitterModel::make_prior_component_sigma</title>
<polygon fill="white" stroke="none" points="-4,4 -4,-421 796,-421 796,4 -4,4"/>
<!-- Node1 -->
<g id="node1" class="node"><title>Node1</title>
<polygon fill="#bfbfbf" stroke="black" points="0,-186.5 0,-214.5 149,-214.5 149,-186.5 0,-186.5"/>
<text text-anchor="start" x="8" y="-203.3" font-family="Helvetica,sans-Serif" font-size="9.00">mappel::PointEmitterModel</text>
<text text-anchor="middle" x="74.5" y="-193.3" font-family="Helvetica,sans-Serif" font-size="9.00">::make_prior_component_sigma</text>
</g>
<!-- Node2 -->
<g id="node2" class="node"><title>Node2</title>
<g id="a_node2"><a xlink:href="classmappel_1_1Gauss1DsModel.html#ad0bdb31a8bcc5a83e9f8653d0ad238ff" target="_top" xlink:title="mappel::Gauss1DsModel\l::make_default_prior\l_beta_position">
<polygon fill="white" stroke="black" points="194.5,-378.5 194.5,-416.5 314.5,-416.5 314.5,-378.5 194.5,-378.5"/>
<text text-anchor="start" x="202.5" y="-405.3" font-family="Helvetica,sans-Serif" font-size="9.00">mappel::Gauss1DsModel</text>
<text text-anchor="start" x="202.5" y="-395.3" font-family="Helvetica,sans-Serif" font-size="9.00">::make_default_prior</text>
<text text-anchor="middle" x="254.5" y="-385.3" font-family="Helvetica,sans-Serif" font-size="9.00">_beta_position</text>
</a>
</g>
</g>
<!-- Node1&#45;&gt;Node2 -->
<g id="edge1" class="edge"><title>Node1&#45;&gt;Node2</title>
<path fill="none" stroke="midnightblue" d="M85.1651,-224.042C101.021,-260.001 135.787,-328.721 185,-369.5 188.957,-372.779 193.35,-375.717 197.946,-378.34"/>
<polygon fill="midnightblue" stroke="midnightblue" points="88.3644,-222.622 81.198,-214.818 81.934,-225.388 88.3644,-222.622"/>
</g>
<!-- Node4 -->
<g id="node4" class="node"><title>Node4</title>
<g id="a_node4"><a xlink:href="classmappel_1_1Gauss2DsModel.html#aaad8b5a9355f37ecac6763acbf60bfe3" target="_top" xlink:title="mappel::Gauss2DsModel\l::make_default_prior\l_beta_position">
<polygon fill="white" stroke="black" points="194.5,-264.5 194.5,-302.5 314.5,-302.5 314.5,-264.5 194.5,-264.5"/>
<text text-anchor="start" x="202.5" y="-291.3" font-family="Helvetica,sans-Serif" font-size="9.00">mappel::Gauss2DsModel</text>
<text text-anchor="start" x="202.5" y="-281.3" font-family="Helvetica,sans-Serif" font-size="9.00">::make_default_prior</text>
<text text-anchor="middle" x="254.5" y="-271.3" font-family="Helvetica,sans-Serif" font-size="9.00">_beta_position</text>
</a>
</g>
</g>
<!-- Node1&#45;&gt;Node4 -->
<g id="edge3" class="edge"><title>Node1&#45;&gt;Node4</title>
<path fill="none" stroke="midnightblue" d="M111.202,-219.311C132.442,-230.281 160.033,-244.148 185,-255.5 191.549,-258.478 198.511,-261.493 205.392,-264.386"/>
<polygon fill="midnightblue" stroke="midnightblue" points="112.707,-216.149 102.219,-214.649 109.483,-222.362 112.707,-216.149"/>
</g>
<!-- Node8 -->
<g id="node8" class="node"><title>Node8</title>
<g id="a_node8"><a xlink:href="classmappel_1_1Gauss1DsModel.html#ace3513b4d77a0e29488f8ff4a66f64cf" target="_top" xlink:title="mappel::Gauss1DsModel\l::make_default_prior\l_normal_position">
<polygon fill="white" stroke="black" points="194.5,-321.5 194.5,-359.5 314.5,-359.5 314.5,-321.5 194.5,-321.5"/>
<text text-anchor="start" x="202.5" y="-348.3" font-family="Helvetica,sans-Serif" font-size="9.00">mappel::Gauss1DsModel</text>
<text text-anchor="start" x="202.5" y="-338.3" font-family="Helvetica,sans-Serif" font-size="9.00">::make_default_prior</text>
<text text-anchor="middle" x="254.5" y="-328.3" font-family="Helvetica,sans-Serif" font-size="9.00">_normal_position</text>
</a>
</g>
</g>
<!-- Node1&#45;&gt;Node8 -->
<g id="edge7" class="edge"><title>Node1&#45;&gt;Node8</title>
<path fill="none" stroke="midnightblue" d="M92.5617,-222.779C112.465,-247.503 147.463,-287.239 185,-312.5 189.796,-315.728 195.023,-318.686 200.381,-321.37"/>
<polygon fill="midnightblue" stroke="midnightblue" points="95.1231,-220.376 86.1717,-214.708 89.635,-224.721 95.1231,-220.376"/>
</g>
<!-- Node9 -->
<g id="node9" class="node"><title>Node9</title>
<g id="a_node9"><a xlink:href="classmappel_1_1Gauss2DsModel.html#a19b5d93feda4f83a9b1b8b6df0e2ebc5" target="_top" xlink:title="mappel::Gauss2DsModel\l::make_default_prior\l_normal_position">
<polygon fill="white" stroke="black" points="194.5,-207.5 194.5,-245.5 314.5,-245.5 314.5,-207.5 194.5,-207.5"/>
<text text-anchor="start" x="202.5" y="-234.3" font-family="Helvetica,sans-Serif" font-size="9.00">mappel::Gauss2DsModel</text>
<text text-anchor="start" x="202.5" y="-224.3" font-family="Helvetica,sans-Serif" font-size="9.00">::make_default_prior</text>
<text text-anchor="middle" x="254.5" y="-214.3" font-family="Helvetica,sans-Serif" font-size="9.00">_normal_position</text>
</a>
</g>
</g>
<!-- Node1&#45;&gt;Node9 -->
<g id="edge9" class="edge"><title>Node1&#45;&gt;Node9</title>
<path fill="none" stroke="midnightblue" d="M159.106,-212.712C170.976,-214.446 182.974,-216.198 194.251,-217.846"/>
<polygon fill="midnightblue" stroke="midnightblue" points="159.585,-209.245 149.184,-211.263 158.573,-216.172 159.585,-209.245"/>
</g>
<!-- Node10 -->
<g id="node10" class="node"><title>Node10</title>
<g id="a_node10"><a xlink:href="classmappel_1_1Gauss1DsModel.html#a2022044169be5c62bba0db37c2352792" target="_top" xlink:title="mappel::Gauss1DsModel\l::make_prior_beta_position">
<polygon fill="white" stroke="black" points="190.5,-160.5 190.5,-188.5 318.5,-188.5 318.5,-160.5 190.5,-160.5"/>
<text text-anchor="start" x="198.5" y="-177.3" font-family="Helvetica,sans-Serif" font-size="9.00">mappel::Gauss1DsModel</text>
<text text-anchor="middle" x="254.5" y="-167.3" font-family="Helvetica,sans-Serif" font-size="9.00">::make_prior_beta_position</text>
</a>
</g>
</g>
<!-- Node1&#45;&gt;Node10 -->
<g id="edge11" class="edge"><title>Node1&#45;&gt;Node10</title>
<path fill="none" stroke="midnightblue" d="M159.19,-188.276C169.677,-186.744 180.263,-185.198 190.363,-183.722"/>
<polygon fill="midnightblue" stroke="midnightblue" points="158.573,-184.828 149.184,-189.737 159.585,-191.755 158.573,-184.828"/>
</g>
<!-- Node17 -->
<g id="node17" class="node"><title>Node17</title>
<g id="a_node17"><a xlink:href="classmappel_1_1Gauss2DsModel.html#a027a8dd814e5e3a6588cc1e5f5225059" target="_top" xlink:title="mappel::Gauss2DsModel\l::make_prior_beta_position">
<polygon fill="white" stroke="black" points="190.5,-113.5 190.5,-141.5 318.5,-141.5 318.5,-113.5 190.5,-113.5"/>
<text text-anchor="start" x="198.5" y="-130.3" font-family="Helvetica,sans-Serif" font-size="9.00">mappel::Gauss2DsModel</text>
<text text-anchor="middle" x="254.5" y="-120.3" font-family="Helvetica,sans-Serif" font-size="9.00">::make_prior_beta_position</text>
</a>
</g>
</g>
<!-- Node1&#45;&gt;Node17 -->
<g id="edge20" class="edge"><title>Node1&#45;&gt;Node17</title>
<path fill="none" stroke="midnightblue" d="M113.587,-181.923C134.45,-172.049 160.896,-160.02 185,-150.5 192.817,-147.413 201.235,-144.366 209.403,-141.55"/>
<polygon fill="midnightblue" stroke="midnightblue" points="111.944,-178.829 104.423,-186.291 114.956,-185.148 111.944,-178.829"/>
</g>
<!-- Node18 -->
<g id="node18" class="node"><title>Node18</title>
<g id="a_node18"><a xlink:href="classmappel_1_1Gauss1DsModel.html#a80bebfae37071515edfde5cd41ae375d" target="_top" xlink:title="mappel::Gauss1DsModel\l::make_prior_normal_position">
<polygon fill="white" stroke="black" points="185,-66.5 185,-94.5 324,-94.5 324,-66.5 185,-66.5"/>
<text text-anchor="start" x="193" y="-83.3" font-family="Helvetica,sans-Serif" font-size="9.00">mappel::Gauss1DsModel</text>
<text text-anchor="middle" x="254.5" y="-73.3" font-family="Helvetica,sans-Serif" font-size="9.00">::make_prior_normal_position</text>
</a>
</g>
</g>
<!-- Node1&#45;&gt;Node18 -->
<g id="edge21" class="edge"><title>Node1&#45;&gt;Node18</title>
<path fill="none" stroke="midnightblue" d="M94.8466,-178.881C115.335,-157.145 149.562,-124 185,-103.5 190.864,-100.108 197.302,-97.1236 203.811,-94.5258"/>
<polygon fill="midnightblue" stroke="midnightblue" points="92.1744,-176.615 87.9428,-186.328 97.308,-181.374 92.1744,-176.615"/>
</g>
<!-- Node19 -->
<g id="node19" class="node"><title>Node19</title>
<g id="a_node19"><a xlink:href="classmappel_1_1Gauss2DsModel.html#aa30152146e1a52b340950de7f6a058ba" target="_top" xlink:title="mappel::Gauss2DsModel\l::make_prior_normal_position">
<polygon fill="white" stroke="black" points="185,-19.5 185,-47.5 324,-47.5 324,-19.5 185,-19.5"/>
<text text-anchor="start" x="193" y="-36.3" font-family="Helvetica,sans-Serif" font-size="9.00">mappel::Gauss2DsModel</text>
<text text-anchor="middle" x="254.5" y="-26.3" font-family="Helvetica,sans-Serif" font-size="9.00">::make_prior_normal_position</text>
</a>
</g>
</g>
<!-- Node1&#45;&gt;Node19 -->
<g id="edge23" class="edge"><title>Node1&#45;&gt;Node19</title>
<path fill="none" stroke="midnightblue" d="M87.2599,-177.417C104.529,-145.736 139.671,-89.0183 185,-56.5 189.791,-53.0631 195.131,-50.113 200.658,-47.5867"/>
<polygon fill="midnightblue" stroke="midnightblue" points="84.0924,-175.919 82.4828,-186.391 90.2714,-179.208 84.0924,-175.919"/>
</g>
<!-- Node3 -->
<g id="node3" class="node"><title>Node3</title>
<g id="a_node3"><a xlink:href="classmappel_1_1Gauss1DsModel.html#a35300bd3e01596220b5630853da3d9ce" target="_top" xlink:title="mappel::Gauss1DsModel\l::make_default_prior">
<polygon fill="white" stroke="black" points="360,-354.5 360,-382.5 480,-382.5 480,-354.5 360,-354.5"/>
<text text-anchor="start" x="368" y="-371.3" font-family="Helvetica,sans-Serif" font-size="9.00">mappel::Gauss1DsModel</text>
<text text-anchor="middle" x="420" y="-361.3" font-family="Helvetica,sans-Serif" font-size="9.00">::make_default_prior</text>
</a>
</g>
</g>
<!-- Node2&#45;&gt;Node3 -->
<g id="edge2" class="edge"><title>Node2&#45;&gt;Node3</title>
<path fill="none" stroke="midnightblue" d="M324.677,-385.23C336.357,-383.158 348.388,-381.024 359.785,-379.003"/>
<polygon fill="midnightblue" stroke="midnightblue" points="323.762,-381.838 314.527,-387.03 324.985,-388.73 323.762,-381.838"/>
</g>
<!-- Node5 -->
<g id="node5" class="node"><title>Node5</title>
<g id="a_node5"><a xlink:href="classmappel_1_1Gauss2DsModel.html#a5f730333cb51b9586892cfd5bb566bf1" target="_top" xlink:title="mappel::Gauss2DsModel\l::make_default_prior">
<polygon fill="white" stroke="black" points="360,-240.5 360,-268.5 480,-268.5 480,-240.5 360,-240.5"/>
<text text-anchor="start" x="368" y="-257.3" font-family="Helvetica,sans-Serif" font-size="9.00">mappel::Gauss2DsModel</text>
<text text-anchor="middle" x="420" y="-247.3" font-family="Helvetica,sans-Serif" font-size="9.00">::make_default_prior</text>
</a>
</g>
</g>
<!-- Node4&#45;&gt;Node5 -->
<g id="edge4" class="edge"><title>Node4&#45;&gt;Node5</title>
<path fill="none" stroke="midnightblue" d="M324.677,-271.23C336.357,-269.158 348.388,-267.024 359.785,-265.003"/>
<polygon fill="midnightblue" stroke="midnightblue" points="323.762,-267.838 314.527,-273.03 324.985,-274.73 323.762,-267.838"/>
</g>
<!-- Node6 -->
<g id="node6" class="node"><title>Node6</title>
<g id="a_node6"><a xlink:href="classmappel_1_1Gauss2DsMAP.html#a3060b21e1ba0df3195cc8887919d44ac" target="_top" xlink:title="mappel::Gauss2DsMAP\l::Gauss2DsMAP">
<polygon fill="white" stroke="black" points="519,-264.5 519,-292.5 633,-292.5 633,-264.5 519,-264.5"/>
<text text-anchor="start" x="527" y="-281.3" font-family="Helvetica,sans-Serif" font-size="9.00">mappel::Gauss2DsMAP</text>
<text text-anchor="middle" x="576" y="-271.3" font-family="Helvetica,sans-Serif" font-size="9.00">::Gauss2DsMAP</text>
</a>
</g>
</g>
<!-- Node5&#45;&gt;Node6 -->
<g id="edge5" class="edge"><title>Node5&#45;&gt;Node6</title>
<path fill="none" stroke="midnightblue" d="M490.053,-265.261C499.686,-266.763 509.487,-268.29 518.844,-269.748"/>
<polygon fill="midnightblue" stroke="midnightblue" points="490.52,-261.792 480.1,-263.71 489.442,-268.709 490.52,-261.792"/>
</g>
<!-- Node7 -->
<g id="node7" class="node"><title>Node7</title>
<g id="a_node7"><a xlink:href="classmappel_1_1Gauss2DsMLE.html#a3151cb0e1936aaeacee80da0feb0231c" target="_top" xlink:title="mappel::Gauss2DsMLE\l::Gauss2DsMLE">
<polygon fill="white" stroke="black" points="519.5,-217.5 519.5,-245.5 632.5,-245.5 632.5,-217.5 519.5,-217.5"/>
<text text-anchor="start" x="527.5" y="-234.3" font-family="Helvetica,sans-Serif" font-size="9.00">mappel::Gauss2DsMLE</text>
<text text-anchor="middle" x="576" y="-224.3" font-family="Helvetica,sans-Serif" font-size="9.00">::Gauss2DsMLE</text>
</a>
</g>
</g>
<!-- Node5&#45;&gt;Node7 -->
<g id="edge6" class="edge"><title>Node5&#45;&gt;Node7</title>
<path fill="none" stroke="midnightblue" d="M490.187,-244.167C499.95,-242.709 509.883,-241.225 519.348,-239.812"/>
<polygon fill="midnightblue" stroke="midnightblue" points="489.473,-240.735 480.1,-245.673 490.507,-247.658 489.473,-240.735"/>
</g>
<!-- Node8&#45;&gt;Node3 -->
<g id="edge8" class="edge"><title>Node8&#45;&gt;Node3</title>
<path fill="none" stroke="midnightblue" d="M324.677,-352.347C336.357,-354.347 348.388,-356.407 359.785,-358.359"/>
<polygon fill="midnightblue" stroke="midnightblue" points="324.975,-348.847 314.527,-350.609 323.793,-355.746 324.975,-348.847"/>
</g>
<!-- Node9&#45;&gt;Node5 -->
<g id="edge10" class="edge"><title>Node9&#45;&gt;Node5</title>
<path fill="none" stroke="midnightblue" d="M324.677,-238.347C336.357,-240.347 348.388,-242.407 359.785,-244.359"/>
<polygon fill="midnightblue" stroke="midnightblue" points="324.975,-234.847 314.527,-236.609 323.793,-241.746 324.975,-234.847"/>
</g>
<!-- Node11 -->
<g id="node11" class="node"><title>Node11</title>
<g id="a_node11"><a xlink:href="classmappel_1_1Gauss2DsModel.html#a199ce5ccefd43d8bf4b6d0b076fca918" target="_top" xlink:title="mappel::Gauss2DsModel\l::make_internal_1Dsum\l_estimator">
<polygon fill="white" stroke="black" points="360,-94.5 360,-132.5 480,-132.5 480,-94.5 360,-94.5"/>
<text text-anchor="start" x="368" y="-121.3" font-family="Helvetica,sans-Serif" font-size="9.00">mappel::Gauss2DsModel</text>
<text text-anchor="start" x="368" y="-111.3" font-family="Helvetica,sans-Serif" font-size="9.00">::make_internal_1Dsum</text>
<text text-anchor="middle" x="420" y="-101.3" font-family="Helvetica,sans-Serif" font-size="9.00">_estimator</text>
</a>
</g>
</g>
<!-- Node10&#45;&gt;Node11 -->
<g id="edge12" class="edge"><title>Node10&#45;&gt;Node11</title>
<path fill="none" stroke="midnightblue" d="M305.991,-157.031C312.07,-154.862 318.183,-152.651 324,-150.5 339.273,-144.852 355.838,-138.485 370.793,-132.645"/>
<polygon fill="midnightblue" stroke="midnightblue" points="304.77,-153.75 296.513,-160.389 307.108,-160.348 304.77,-153.75"/>
</g>
<!-- Node12 -->
<g id="node12" class="node"><title>Node12</title>
<g id="a_node12"><a xlink:href="classmappel_1_1Gauss2DsModel.html#a2ce4737beb88367daeb480bf471ad2cf" target="_top" xlink:title="mappel::Gauss2DsModel\l::debug_internal_sum\l_model_y">
<polygon fill="white" stroke="black" points="672,-94.5 672,-132.5 792,-132.5 792,-94.5 672,-94.5"/>
<text text-anchor="start" x="680" y="-121.3" font-family="Helvetica,sans-Serif" font-size="9.00">mappel::Gauss2DsModel</text>
<text text-anchor="start" x="680" y="-111.3" font-family="Helvetica,sans-Serif" font-size="9.00">::debug_internal_sum</text>
<text text-anchor="middle" x="732" y="-101.3" font-family="Helvetica,sans-Serif" font-size="9.00">_model_y</text>
</a>
</g>
</g>
<!-- Node11&#45;&gt;Node12 -->
<g id="edge13" class="edge"><title>Node11&#45;&gt;Node12</title>
<path fill="none" stroke="midnightblue" d="M490.202,-132.263C498.833,-134.007 507.583,-135.496 516,-136.5 568.958,-142.819 583.042,-142.819 636,-136.5 647.711,-135.103 660.065,-132.769 671.85,-130.11"/>
<polygon fill="midnightblue" stroke="midnightblue" points="490.662,-128.782 480.15,-130.11 489.196,-135.626 490.662,-128.782"/>
</g>
<!-- Node13 -->
<g id="node13" class="node"><title>Node13</title>
<g id="a_node13"><a xlink:href="classmappel_1_1Gauss2DsModel.html#ab884d4d8ab54ec53cf0116aa9a5b1d81" target="_top" xlink:title="mappel::Gauss2DsModel\l::Gauss2DsModel">
<polygon fill="white" stroke="black" points="516,-99.5 516,-127.5 636,-127.5 636,-99.5 516,-99.5"/>
<text text-anchor="start" x="524" y="-116.3" font-family="Helvetica,sans-Serif" font-size="9.00">mappel::Gauss2DsModel</text>
<text text-anchor="middle" x="576" y="-106.3" font-family="Helvetica,sans-Serif" font-size="9.00">::Gauss2DsModel</text>
</a>
</g>
</g>
<!-- Node11&#45;&gt;Node13 -->
<g id="edge14" class="edge"><title>Node11&#45;&gt;Node13</title>
<path fill="none" stroke="midnightblue" d="M490.369,-113.5C498.862,-113.5 507.48,-113.5 515.804,-113.5"/>
<polygon fill="midnightblue" stroke="midnightblue" points="490.1,-110 480.1,-113.5 490.1,-117 490.1,-110"/>
</g>
<!-- Node14 -->
<g id="node14" class="node"><title>Node14</title>
<g id="a_node14"><a xlink:href="classmappel_1_1Gauss2DsModel.html#a6ce7054c0fcdb72394839a0abb2616cb" target="_top" xlink:title="mappel::Gauss2DsModel\l::update_internal_1Dsum\l_estimators">
<polygon fill="white" stroke="black" points="516,-42.5 516,-80.5 636,-80.5 636,-42.5 516,-42.5"/>
<text text-anchor="start" x="524" y="-69.3" font-family="Helvetica,sans-Serif" font-size="9.00">mappel::Gauss2DsModel</text>
<text text-anchor="start" x="524" y="-59.3" font-family="Helvetica,sans-Serif" font-size="9.00">::update_internal_1Dsum</text>
<text text-anchor="middle" x="576" y="-49.3" font-family="Helvetica,sans-Serif" font-size="9.00">_estimators</text>
</a>
</g>
</g>
<!-- Node11&#45;&gt;Node14 -->
<g id="edge16" class="edge"><title>Node11&#45;&gt;Node14</title>
<path fill="none" stroke="midnightblue" d="M487.01,-91.211C497.508,-87.6661 508.285,-84.0272 518.537,-80.5653"/>
<polygon fill="midnightblue" stroke="midnightblue" points="485.824,-87.9171 477.469,-94.4324 488.064,-94.5492 485.824,-87.9171"/>
</g>
<!-- Node13&#45;&gt;Node12 -->
<g id="edge15" class="edge"><title>Node13&#45;&gt;Node12</title>
<path fill="none" stroke="midnightblue" d="M646.369,-113.5C654.862,-113.5 663.48,-113.5 671.804,-113.5"/>
<polygon fill="midnightblue" stroke="midnightblue" points="646.1,-110 636.1,-113.5 646.1,-117 646.1,-110"/>
</g>
<!-- Node14&#45;&gt;Node12 -->
<g id="edge17" class="edge"><title>Node14&#45;&gt;Node12</title>
<path fill="none" stroke="midnightblue" d="M643.01,-83.789C653.508,-87.3339 664.285,-90.9728 674.537,-94.4347"/>
<polygon fill="midnightblue" stroke="midnightblue" points="644.064,-80.4508 633.469,-80.5676 641.824,-87.0829 644.064,-80.4508"/>
</g>
<!-- Node15 -->
<g id="node15" class="node"><title>Node15</title>
<g id="a_node15"><a xlink:href="classmappel_1_1Gauss2DsModel.html#a615788e50f97d8c863ec60a5dfee07e3" target="_top" xlink:title="mappel::Gauss2DsModel\l::set_hyperparams">
<polygon fill="white" stroke="black" points="672,-47.5 672,-75.5 792,-75.5 792,-47.5 672,-47.5"/>
<text text-anchor="start" x="680" y="-64.3" font-family="Helvetica,sans-Serif" font-size="9.00">mappel::Gauss2DsModel</text>
<text text-anchor="middle" x="732" y="-54.3" font-family="Helvetica,sans-Serif" font-size="9.00">::set_hyperparams</text>
</a>
</g>
</g>
<!-- Node14&#45;&gt;Node15 -->
<g id="edge18" class="edge"><title>Node14&#45;&gt;Node15</title>
<path fill="none" stroke="midnightblue" d="M646.369,-61.5C654.862,-61.5 663.48,-61.5 671.804,-61.5"/>
<polygon fill="midnightblue" stroke="midnightblue" points="646.1,-58.0001 636.1,-61.5 646.1,-65.0001 646.1,-58.0001"/>
</g>
<!-- Node16 -->
<g id="node16" class="node"><title>Node16</title>
<g id="a_node16"><a xlink:href="classmappel_1_1Gauss2DsModel.html#a895bee95db23557189b58f9b1d5e2453" target="_top" xlink:title="mappel::Gauss2DsModel\l::set_prior">
<polygon fill="white" stroke="black" points="672,-0.5 672,-28.5 792,-28.5 792,-0.5 672,-0.5"/>
<text text-anchor="start" x="680" y="-17.3" font-family="Helvetica,sans-Serif" font-size="9.00">mappel::Gauss2DsModel</text>
<text text-anchor="middle" x="732" y="-7.3" font-family="Helvetica,sans-Serif" font-size="9.00">::set_prior</text>
</a>
</g>
</g>
<!-- Node14&#45;&gt;Node16 -->
<g id="edge19" class="edge"><title>Node14&#45;&gt;Node16</title>
<path fill="none" stroke="midnightblue" d="M646.032,-40.4317C659.133,-36.4333 672.546,-32.34 684.73,-28.6215"/>
<polygon fill="midnightblue" stroke="midnightblue" points="644.643,-37.1963 636.1,-43.463 646.686,-43.8915 644.643,-37.1963"/>
</g>
<!-- Node18&#45;&gt;Node11 -->
<g id="edge22" class="edge"><title>Node18&#45;&gt;Node11</title>
<path fill="none" stroke="midnightblue" d="M334.37,-96.4187C342.929,-98.1462 351.53,-99.8821 359.797,-101.551"/>
<polygon fill="midnightblue" stroke="midnightblue" points="334.86,-92.947 324.365,-94.3993 333.475,-99.8087 334.86,-92.947"/>
</g>
</g>
</svg>
