<?xml version="1.0" encoding="UTF-8" standalone="no"?>
<!DOCTYPE svg PUBLIC "-//W3C//DTD SVG 1.1//EN"
 "http://www.w3.org/Graphics/SVG/1.1/DTD/svg11.dtd">
<!-- Generated by graphviz version 2.38.0 (20140413.2041)
 -->
<!-- Title: mappel::MCMCAdaptor1Ds::operator= Pages: 1 -->
<svg width="443pt" height="84pt"
 viewBox="0.00 0.00 443.00 84.00" xmlns="http://www.w3.org/2000/svg" xmlns:xlink="http://www.w3.org/1999/xlink">
<g id="graph0" class="graph" transform="scale(1 1) rotate(0) translate(4 80)">
<title>mappel::MCMCAdaptor1Ds::operator=</title>
<polygon fill="white" stroke="none" points="-4,4 -4,-80 439,-80 439,4 -4,4"/>
<!-- Node1 -->
<g id="node1" class="node"><title>Node1</title>
<polygon fill="#bfbfbf" stroke="black" points="0,-23.5 0,-51.5 129,-51.5 129,-23.5 0,-23.5"/>
<text text-anchor="start" x="8" y="-40.3" font-family="Helvetica,sans-Serif" font-size="9.00">mappel::MCMCAdaptor1Ds</text>
<text text-anchor="middle" x="64.5" y="-30.3" font-family="Helvetica,sans-Serif" font-size="9.00">::operator=</text>
</g>
<!-- Node2 -->
<g id="node2" class="node"><title>Node2</title>
<g id="a_node2"><a xlink:href="classmappel_1_1Gauss1DsModel.html#ac0ca672043394ef61ed11792345cd052" target="_top" xlink:title="mappel::Gauss1DsModel\l::operator=">
<polygon fill="white" stroke="black" points="165,-23.5 165,-51.5 285,-51.5 285,-23.5 165,-23.5"/>
<text text-anchor="start" x="173" y="-40.3" font-family="Helvetica,sans-Serif" font-size="9.00">mappel::Gauss1DsModel</text>
<text text-anchor="middle" x="225" y="-30.3" font-family="Helvetica,sans-Serif" font-size="9.00">::operator=</text>
</a>
</g>
</g>
<!-- Node1&#45;&gt;Node2 -->
<g id="edge1" class="edge"><title>Node1&#45;&gt;Node2</title>
<path fill="none" stroke="midnightblue" d="M139.1,-37.5C147.714,-37.5 156.417,-37.5 164.799,-37.5"/>
<polygon fill="midnightblue" stroke="midnightblue" points="139.055,-34.0001 129.055,-37.5 139.055,-41.0001 139.055,-34.0001"/>
</g>
<!-- Node3 -->
<g id="node3" class="node"><title>Node3</title>
<g id="a_node3"><a xlink:href="classmappel_1_1Gauss1DsMAP.html#afb1fe11ca22dd139f873256f7fb6c960" target="_top" xlink:title="mappel::Gauss1DsMAP\l::operator=">
<polygon fill="white" stroke="black" points="321,-47.5 321,-75.5 435,-75.5 435,-47.5 321,-47.5"/>
<text text-anchor="start" x="329" y="-64.3" font-family="Helvetica,sans-Serif" font-size="9.00">mappel::Gauss1DsMAP</text>
<text text-anchor="middle" x="378" y="-54.3" font-family="Helvetica,sans-Serif" font-size="9.00">::operator=</text>
</a>
</g>
</g>
<!-- Node2&#45;&gt;Node3 -->
<g id="edge2" class="edge"><title>Node2&#45;&gt;Node3</title>
<path fill="none" stroke="midnightblue" d="M295.249,-48.5064C303.835,-49.8712 312.53,-51.2532 320.886,-52.5811"/>
<polygon fill="midnightblue" stroke="midnightblue" points="295.671,-45.0297 285.246,-46.9166 294.572,-51.9429 295.671,-45.0297"/>
</g>
<!-- Node4 -->
<g id="node4" class="node"><title>Node4</title>
<g id="a_node4"><a xlink:href="classmappel_1_1Gauss1DsMLE.html#ac7cb6d3c242f1df583c0f894c3e3febb" target="_top" xlink:title="mappel::Gauss1DsMLE\l::operator=">
<polygon fill="white" stroke="black" points="321.5,-0.5 321.5,-28.5 434.5,-28.5 434.5,-0.5 321.5,-0.5"/>
<text text-anchor="start" x="329.5" y="-17.3" font-family="Helvetica,sans-Serif" font-size="9.00">mappel::Gauss1DsMLE</text>
<text text-anchor="middle" x="378" y="-7.3" font-family="Helvetica,sans-Serif" font-size="9.00">::operator=</text>
</a>
</g>
</g>
<!-- Node2&#45;&gt;Node4 -->
<g id="edge3" class="edge"><title>Node2&#45;&gt;Node4</title>
<path fill="none" stroke="midnightblue" d="M295.391,-26.9305C304.099,-25.6041 312.917,-24.261 321.376,-22.9725"/>
<polygon fill="midnightblue" stroke="midnightblue" points="294.605,-23.5098 285.246,-28.4758 295.659,-30.43 294.605,-23.5098"/>
</g>
</g>
</svg>
