<?xml version="1.0" encoding="UTF-8" standalone="no"?>
<!DOCTYPE svg PUBLIC "-//W3C//DTD SVG 1.1//EN"
 "http://www.w3.org/Graphics/SVG/1.1/DTD/svg11.dtd">
<!-- Generated by graphviz version 2.38.0 (20140413.2041)
 -->
<!-- Title: mappel::Gauss1DModel::make_prior_normal_position Pages: 1 -->
<svg width="607pt" height="151pt"
 viewBox="0.00 0.00 607.00 150.54" xmlns="http://www.w3.org/2000/svg" xmlns:xlink="http://www.w3.org/1999/xlink">
<g id="graph0" class="graph" transform="scale(1 1) rotate(0) translate(4 146.538)">
<title>mappel::Gauss1DModel::make_prior_normal_position</title>
<polygon fill="white" stroke="none" points="-4,4 -4,-146.538 603,-146.538 603,4 -4,4"/>
<!-- Node1 -->
<g id="node1" class="node"><title>Node1</title>
<polygon fill="#bfbfbf" stroke="black" points="0,-99.5 0,-127.5 139,-127.5 139,-99.5 0,-99.5"/>
<text text-anchor="start" x="8" y="-116.3" font-family="Helvetica,sans-Serif" font-size="9.00">mappel::Gauss1DModel</text>
<text text-anchor="middle" x="69.5" y="-106.3" font-family="Helvetica,sans-Serif" font-size="9.00">::make_prior_normal_position</text>
</g>
<!-- Node2 -->
<g id="node2" class="node"><title>Node2</title>
<g id="a_node2"><a xlink:href="classmappel_1_1Gauss2DModel.html#a0981f99341c0f6f63554680ce165df66" target="_top" xlink:title="mappel::Gauss2DModel\l::make_internal_1Dsum\l_estimator">
<polygon fill="white" stroke="black" points="175,-94.5 175,-132.5 291,-132.5 291,-94.5 175,-94.5"/>
<text text-anchor="start" x="183" y="-121.3" font-family="Helvetica,sans-Serif" font-size="9.00">mappel::Gauss2DModel</text>
<text text-anchor="start" x="183" y="-111.3" font-family="Helvetica,sans-Serif" font-size="9.00">::make_internal_1Dsum</text>
<text text-anchor="middle" x="233" y="-101.3" font-family="Helvetica,sans-Serif" font-size="9.00">_estimator</text>
</a>
</g>
</g>
<!-- Node1&#45;&gt;Node2 -->
<g id="edge1" class="edge"><title>Node1&#45;&gt;Node2</title>
<path fill="none" stroke="midnightblue" d="M149.5,-113.5C158.084,-113.5 166.694,-113.5 174.942,-113.5"/>
<polygon fill="midnightblue" stroke="midnightblue" points="149.459,-110 139.459,-113.5 149.459,-117 149.459,-110"/>
</g>
<!-- Node3 -->
<g id="node3" class="node"><title>Node3</title>
<g id="a_node3"><a xlink:href="classmappel_1_1Gauss2DModel.html#a07e9c13f8a164f26f337fcc0c2f70374" target="_top" xlink:title="mappel::Gauss2DModel\l::debug_internal_sum\l_model_y">
<polygon fill="white" stroke="black" points="483,-94.5 483,-132.5 599,-132.5 599,-94.5 483,-94.5"/>
<text text-anchor="start" x="491" y="-121.3" font-family="Helvetica,sans-Serif" font-size="9.00">mappel::Gauss2DModel</text>
<text text-anchor="start" x="491" y="-111.3" font-family="Helvetica,sans-Serif" font-size="9.00">::debug_internal_sum</text>
<text text-anchor="middle" x="541" y="-101.3" font-family="Helvetica,sans-Serif" font-size="9.00">_model_y</text>
</a>
</g>
</g>
<!-- Node2&#45;&gt;Node3 -->
<g id="edge2" class="edge"><title>Node2&#45;&gt;Node3</title>
<path fill="none" stroke="midnightblue" d="M300.871,-132.897C309.596,-134.795 318.467,-136.417 327,-137.5 379.909,-144.217 394.091,-144.217 447,-137.5 458.745,-136.009 471.128,-133.499 482.893,-130.65"/>
<polygon fill="midnightblue" stroke="midnightblue" points="301.637,-129.482 291.107,-130.65 300.067,-136.304 301.637,-129.482"/>
</g>
<!-- Node4 -->
<g id="node4" class="node"><title>Node4</title>
<g id="a_node4"><a xlink:href="classmappel_1_1Gauss2DModel.html#aa2247488bb3d360e323b9819ccef3429" target="_top" xlink:title="mappel::Gauss2DModel\l::Gauss2DModel">
<polygon fill="white" stroke="black" points="329,-99.5 329,-127.5 445,-127.5 445,-99.5 329,-99.5"/>
<text text-anchor="start" x="337" y="-116.3" font-family="Helvetica,sans-Serif" font-size="9.00">mappel::Gauss2DModel</text>
<text text-anchor="middle" x="387" y="-106.3" font-family="Helvetica,sans-Serif" font-size="9.00">::Gauss2DModel</text>
</a>
</g>
</g>
<!-- Node2&#45;&gt;Node4 -->
<g id="edge3" class="edge"><title>Node2&#45;&gt;Node4</title>
<path fill="none" stroke="midnightblue" d="M301.321,-113.5C310.526,-113.5 319.903,-113.5 328.902,-113.5"/>
<polygon fill="midnightblue" stroke="midnightblue" points="301.032,-110 291.032,-113.5 301.032,-117 301.032,-110"/>
</g>
<!-- Node5 -->
<g id="node5" class="node"><title>Node5</title>
<g id="a_node5"><a xlink:href="classmappel_1_1Gauss2DModel.html#a221f765c48f478177f150c08733e9d29" target="_top" xlink:title="mappel::Gauss2DModel\l::update_internal_1Dsum\l_estimators">
<polygon fill="white" stroke="black" points="327,-42.5 327,-80.5 447,-80.5 447,-42.5 327,-42.5"/>
<text text-anchor="start" x="335" y="-69.3" font-family="Helvetica,sans-Serif" font-size="9.00">mappel::Gauss2DModel</text>
<text text-anchor="start" x="335" y="-59.3" font-family="Helvetica,sans-Serif" font-size="9.00">::update_internal_1Dsum</text>
<text text-anchor="middle" x="387" y="-49.3" font-family="Helvetica,sans-Serif" font-size="9.00">_estimators</text>
</a>
</g>
</g>
<!-- Node2&#45;&gt;Node5 -->
<g id="edge5" class="edge"><title>Node2&#45;&gt;Node5</title>
<path fill="none" stroke="midnightblue" d="M299.47,-91.1025C309.731,-87.5919 320.254,-83.9919 330.271,-80.5653"/>
<polygon fill="midnightblue" stroke="midnightblue" points="298.065,-87.8839 289.736,-94.4324 300.331,-94.507 298.065,-87.8839"/>
</g>
<!-- Node4&#45;&gt;Node3 -->
<g id="edge4" class="edge"><title>Node4&#45;&gt;Node3</title>
<path fill="none" stroke="midnightblue" d="M455.321,-113.5C464.526,-113.5 473.903,-113.5 482.902,-113.5"/>
<polygon fill="midnightblue" stroke="midnightblue" points="455.032,-110 445.032,-113.5 455.032,-117 455.032,-110"/>
</g>
<!-- Node5&#45;&gt;Node3 -->
<g id="edge6" class="edge"><title>Node5&#45;&gt;Node3</title>
<path fill="none" stroke="midnightblue" d="M453.47,-83.8975C463.731,-87.4081 474.254,-91.0081 484.271,-94.4347"/>
<polygon fill="midnightblue" stroke="midnightblue" points="454.331,-80.493 443.736,-80.5676 452.065,-87.1161 454.331,-80.493"/>
</g>
<!-- Node6 -->
<g id="node6" class="node"><title>Node6</title>
<g id="a_node6"><a xlink:href="classmappel_1_1Gauss2DModel.html#a7041d1f38f1141773b046489ce6e6b11" target="_top" xlink:title="mappel::Gauss2DModel\l::set_hyperparams">
<polygon fill="white" stroke="black" points="483,-47.5 483,-75.5 599,-75.5 599,-47.5 483,-47.5"/>
<text text-anchor="start" x="491" y="-64.3" font-family="Helvetica,sans-Serif" font-size="9.00">mappel::Gauss2DModel</text>
<text text-anchor="middle" x="541" y="-54.3" font-family="Helvetica,sans-Serif" font-size="9.00">::set_hyperparams</text>
</a>
</g>
</g>
<!-- Node5&#45;&gt;Node6 -->
<g id="edge7" class="edge"><title>Node5&#45;&gt;Node6</title>
<path fill="none" stroke="midnightblue" d="M457.434,-61.5C465.889,-61.5 474.454,-61.5 482.705,-61.5"/>
<polygon fill="midnightblue" stroke="midnightblue" points="457.202,-58.0001 447.202,-61.5 457.202,-65.0001 457.202,-58.0001"/>
</g>
<!-- Node7 -->
<g id="node7" class="node"><title>Node7</title>
<g id="a_node7"><a xlink:href="classmappel_1_1Gauss2DModel.html#a41a5b18b3f3779562c0dbd19e1b6e29b" target="_top" xlink:title="mappel::Gauss2DModel\l::set_prior">
<polygon fill="white" stroke="black" points="483,-0.5 483,-28.5 599,-28.5 599,-0.5 483,-0.5"/>
<text text-anchor="start" x="491" y="-17.3" font-family="Helvetica,sans-Serif" font-size="9.00">mappel::Gauss2DModel</text>
<text text-anchor="middle" x="541" y="-7.3" font-family="Helvetica,sans-Serif" font-size="9.00">::set_prior</text>
</a>
</g>
</g>
<!-- Node5&#45;&gt;Node7 -->
<g id="edge8" class="edge"><title>Node5&#45;&gt;Node7</title>
<path fill="none" stroke="midnightblue" d="M456.852,-40.2101C469.571,-36.2773 482.56,-32.2611 494.376,-28.6075"/>
<polygon fill="midnightblue" stroke="midnightblue" points="455.722,-36.896 447.202,-43.194 457.79,-43.5836 455.722,-36.896"/>
</g>
</g>
</svg>
