<?xml version="1.0" encoding="UTF-8" standalone="no"?>
<!DOCTYPE svg PUBLIC "-//W3C//DTD SVG 1.1//EN"
 "http://www.w3.org/Graphics/SVG/1.1/DTD/svg11.dtd">
<!-- Generated by graphviz version 2.38.0 (20140413.2041)
 -->
<!-- Title: mappel::Gauss1DsMLE Pages: 1 -->
<svg width="1402pt" height="309pt"
 viewBox="0.00 0.00 1402.00 308.50" xmlns="http://www.w3.org/2000/svg" xmlns:xlink="http://www.w3.org/1999/xlink">
<g id="graph0" class="graph" transform="scale(1 1) rotate(0) translate(4 304.5)">
<title>mappel::Gauss1DsMLE</title>
<polygon fill="white" stroke="none" points="-4,4 -4,-304.5 1398,-304.5 1398,4 -4,4"/>
<!-- Node1 -->
<g id="node1" class="node"><title>Node1</title>
<polygon fill="#bfbfbf" stroke="black" points="1281,-186.5 1281,-204.5 1394,-204.5 1394,-186.5 1281,-186.5"/>
<text text-anchor="middle" x="1337.5" y="-193.3" font-family="Helvetica,sans-Serif" font-size="9.00">mappel::Gauss1DsMLE</text>
</g>
<!-- Node2 -->
<g id="node2" class="node"><title>Node2</title>
<g id="a_node2"><a xlink:href="classmappel_1_1Gauss1DsModel.html" target="_top" xlink:title="Base class for 1D Gaussian PSF with variable Gaussian sigma (standard deviation) measured in units of...">
<polygon fill="white" stroke="black" points="1104.5,-143.5 1104.5,-161.5 1224.5,-161.5 1224.5,-143.5 1104.5,-143.5"/>
<text text-anchor="middle" x="1164.5" y="-150.3" font-family="Helvetica,sans-Serif" font-size="9.00">mappel::Gauss1DsModel</text>
</a>
</g>
</g>
<!-- Node2&#45;&gt;Node1 -->
<g id="edge1" class="edge"><title>Node2&#45;&gt;Node1</title>
<path fill="none" stroke="midnightblue" d="M1211.32,-164.021C1239.36,-171.073 1274.72,-179.964 1300.7,-186.498"/>
<polygon fill="midnightblue" stroke="midnightblue" points="1211.9,-160.559 1201.35,-161.514 1210.19,-167.347 1211.9,-160.559"/>
</g>
<!-- Node3 -->
<g id="node3" class="node"><title>Node3</title>
<g id="a_node3"><a xlink:href="classmappel_1_1PointEmitterModel.html" target="_top" xlink:title="A virtual Base type for point emitter localization models. ">
<polygon fill="white" stroke="black" points="366.5,-165.5 366.5,-183.5 493.5,-183.5 493.5,-165.5 366.5,-165.5"/>
<text text-anchor="middle" x="430" y="-172.3" font-family="Helvetica,sans-Serif" font-size="9.00">mappel::PointEmitterModel</text>
</a>
</g>
</g>
<!-- Node3&#45;&gt;Node2 -->
<g id="edge2" class="edge"><title>Node3&#45;&gt;Node2</title>
<path fill="none" stroke="midnightblue" d="M503.904,-172.31C648.991,-167.953 971.343,-158.271 1104.35,-154.277"/>
<polygon fill="midnightblue" stroke="midnightblue" points="503.66,-168.816 493.769,-172.615 503.87,-175.813 503.66,-168.816"/>
</g>
<!-- Node9 -->
<g id="node9" class="node"><title>Node9</title>
<g id="a_node9"><a xlink:href="classmappel_1_1MCMCAdaptor1D.html" target="_top" xlink:title="mappel::MCMCAdaptor1D">
<polygon fill="white" stroke="black" points="573,-121.5 573,-139.5 698,-139.5 698,-121.5 573,-121.5"/>
<text text-anchor="middle" x="635.5" y="-128.3" font-family="Helvetica,sans-Serif" font-size="9.00">mappel::MCMCAdaptor1D</text>
</a>
</g>
</g>
<!-- Node3&#45;&gt;Node9 -->
<g id="edge9" class="edge"><title>Node3&#45;&gt;Node9</title>
<path fill="none" stroke="midnightblue" d="M482.882,-163.282C516.877,-155.932 560.74,-146.448 592.534,-139.574"/>
<polygon fill="midnightblue" stroke="midnightblue" points="481.707,-159.955 472.672,-165.49 483.186,-166.797 481.707,-159.955"/>
</g>
<!-- Node15 -->
<g id="node15" class="node"><title>Node15</title>
<g id="a_node15"><a xlink:href="classmappel_1_1MLEstimator.html" target="_top" xlink:title="A Mixin class to configure a for MLE estimation (null prior). ">
<polygon fill="white" stroke="black" points="716,-201.5 716,-219.5 819,-219.5 819,-201.5 716,-201.5"/>
<text text-anchor="middle" x="767.5" y="-208.3" font-family="Helvetica,sans-Serif" font-size="9.00">mappel::MLEstimator</text>
</a>
</g>
</g>
<!-- Node3&#45;&gt;Node15 -->
<g id="edge20" class="edge"><title>Node3&#45;&gt;Node15</title>
<path fill="none" stroke="midnightblue" d="M503.748,-182.306C567.819,-189.181 659.474,-199.016 715.872,-205.068"/>
<polygon fill="midnightblue" stroke="midnightblue" points="504.028,-178.816 493.711,-181.229 503.281,-185.776 504.028,-178.816"/>
</g>
<!-- Node4 -->
<g id="node4" class="node"><title>Node4</title>
<polygon fill="white" stroke="#bfbfbf" points="125,-165.5 125,-183.5 202,-183.5 202,-165.5 125,-165.5"/>
<text text-anchor="middle" x="163.5" y="-172.3" font-family="Helvetica,sans-Serif" font-size="9.00">CompositeDist</text>
</g>
<!-- Node4&#45;&gt;Node3 -->
<g id="edge3" class="edge"><title>Node4&#45;&gt;Node3</title>
<path fill="none" stroke="#9a32cd" stroke-dasharray="5,2" d="M212.337,-174.5C255.441,-174.5 319.098,-174.5 366.268,-174.5"/>
<polygon fill="#9a32cd" stroke="#9a32cd" points="212.116,-171 202.116,-174.5 212.115,-178 212.116,-171"/>
<text text-anchor="middle" x="282.5" y="-177.3" font-family="Helvetica,sans-Serif" font-size="9.00"> prior</text>
</g>
<!-- Node5 -->
<g id="node5" class="node"><title>Node5</title>
<g id="a_node5"><a xlink:title="STL class. ">
<polygon fill="white" stroke="#bfbfbf" points="135.5,-225.5 135.5,-243.5 191.5,-243.5 191.5,-225.5 135.5,-225.5"/>
<text text-anchor="middle" x="163.5" y="-232.3" font-family="Helvetica,sans-Serif" font-size="9.00">std::string</text>
</a>
</g>
</g>
<!-- Node5&#45;&gt;Node1 -->
<g id="edge21" class="edge"><title>Node5&#45;&gt;Node1</title>
<path fill="none" stroke="#9a32cd" stroke-dasharray="5,2" d="M190.768,-248.122C199.826,-252.333 210.17,-256.617 220,-259.5 310.111,-285.924 335.095,-290.5 429,-290.5 429,-290.5 429,-290.5 1165.5,-290.5 1235.8,-290.5 1304.22,-228.387 1327.83,-204.609"/>
<polygon fill="#9a32cd" stroke="#9a32cd" points="192.054,-244.856 181.528,-243.651 189.005,-251.158 192.054,-244.856"/>
<text text-anchor="middle" x="767.5" y="-293.3" font-family="Helvetica,sans-Serif" font-size="9.00"> name</text>
</g>
<!-- Node5&#45;&gt;Node2 -->
<g id="edge11" class="edge"><title>Node5&#45;&gt;Node2</title>
<path fill="none" stroke="#9a32cd" stroke-dasharray="5,2" d="M202.129,-238.676C253.372,-243.994 348.002,-252.5 429,-252.5 429,-252.5 429,-252.5 768.5,-252.5 915.993,-252.5 1085.25,-186.167 1142.98,-161.551"/>
<polygon fill="#9a32cd" stroke="#9a32cd" points="202.186,-235.163 191.874,-237.594 201.451,-242.124 202.186,-235.163"/>
<text text-anchor="middle" x="635.5" y="-255.3" font-family="Helvetica,sans-Serif" font-size="9.00"> DefaultPriorType</text>
</g>
<!-- Node5&#45;&gt;Node3 -->
<g id="edge4" class="edge"><title>Node5&#45;&gt;Node3</title>
<path fill="none" stroke="#9a32cd" stroke-dasharray="5,2" d="M201.767,-226.046C251.221,-214.828 338.188,-195.1 388.988,-183.577"/>
<polygon fill="#9a32cd" stroke="#9a32cd" points="200.788,-222.679 191.81,-228.305 202.336,-229.506 200.788,-222.679"/>
<text text-anchor="middle" x="282.5" y="-225.3" font-family="Helvetica,sans-Serif" font-size="9.00"> DefaultSeperableInitEstimator</text>
</g>
<!-- Node14 -->
<g id="node14" class="node"><title>Node14</title>
<polygon fill="white" stroke="#bfbfbf" points="850.5,-0.5 850.5,-18.5 962.5,-18.5 962.5,-0.5 850.5,-0.5"/>
<text text-anchor="middle" x="906.5" y="-7.3" font-family="Helvetica,sans-Serif" font-size="9.00">std::vector&lt; std::string &gt;</text>
</g>
<!-- Node5&#45;&gt;Node14 -->
<g id="edge17" class="edge"><title>Node5&#45;&gt;Node14</title>
<path fill="none" stroke="#9a32cd" stroke-dasharray="5,2" d="M179.795,-217.704C186.661,-210.079 194.817,-200.903 202,-192.5 210.209,-182.897 210.972,-179.338 220,-170.5 277.689,-114.027 287.948,-88.2377 363,-58.5 530.703,7.94855 749.685,2.57797 850.42,-4.47662"/>
<polygon fill="#9a32cd" stroke="#9a32cd" points="177.072,-215.497 172.957,-225.26 182.262,-220.194 177.072,-215.497"/>
<text text-anchor="middle" x="535" y="-20.3" font-family="Helvetica,sans-Serif" font-size="9.00"> elements</text>
</g>
<!-- Node6 -->
<g id="node6" class="node"><title>Node6</title>
<g id="a_node6"><a xlink:title="STL class. ">
<polygon fill="white" stroke="#bfbfbf" points="0,-220.5 0,-248.5 88,-248.5 88,-220.5 0,-220.5"/>
<text text-anchor="start" x="8" y="-237.3" font-family="Helvetica,sans-Serif" font-size="9.00">std::basic_string&lt;</text>
<text text-anchor="middle" x="44" y="-227.3" font-family="Helvetica,sans-Serif" font-size="9.00"> char &gt;</text>
</a>
</g>
</g>
<!-- Node6&#45;&gt;Node5 -->
<g id="edge5" class="edge"><title>Node6&#45;&gt;Node5</title>
<path fill="none" stroke="midnightblue" d="M98.287,-234.5C111.161,-234.5 124.389,-234.5 135.467,-234.5"/>
<polygon fill="midnightblue" stroke="midnightblue" points="98.0855,-231 88.0855,-234.5 98.0854,-238 98.0855,-231"/>
</g>
<!-- Node7 -->
<g id="node7" class="node"><title>Node7</title>
<g id="a_node7"><a xlink:href="classmappel_1_1ImageFormat1DBase.html" target="_top" xlink:title="A virtual base class for 2D image localization objectives. ">
<polygon fill="white" stroke="black" points="837,-37.5 837,-55.5 976,-55.5 976,-37.5 837,-37.5"/>
<text text-anchor="middle" x="906.5" y="-44.3" font-family="Helvetica,sans-Serif" font-size="9.00">mappel::ImageFormat1DBase</text>
</a>
</g>
</g>
<!-- Node7&#45;&gt;Node2 -->
<g id="edge6" class="edge"><title>Node7&#45;&gt;Node2</title>
<path fill="none" stroke="midnightblue" d="M986.226,-57.0188C1012.66,-62.299 1041.81,-70.0943 1067,-81.5 1102.43,-97.5431 1137.59,-128.033 1153.97,-143.303"/>
<polygon fill="midnightblue" stroke="midnightblue" points="986.72,-53.55 976.241,-55.1159 985.409,-60.4262 986.72,-53.55"/>
</g>
<!-- Node13 -->
<g id="node13" class="node"><title>Node13</title>
<g id="a_node13"><a xlink:href="classmappel_1_1PoissonNoise1DObjective.html" target="_top" xlink:title="A base class for 1D objectives with Poisson read noise. This objective function and its subclasses ar...">
<polygon fill="white" stroke="black" points="1085,-33.5 1085,-51.5 1244,-51.5 1244,-33.5 1085,-33.5"/>
<text text-anchor="middle" x="1164.5" y="-40.3" font-family="Helvetica,sans-Serif" font-size="9.00">mappel::PoissonNoise1DObjective</text>
</a>
</g>
</g>
<!-- Node7&#45;&gt;Node13 -->
<g id="edge15" class="edge"><title>Node7&#45;&gt;Node13</title>
<path fill="none" stroke="midnightblue" d="M986.504,-45.2656C1017.73,-44.7777 1053.54,-44.2182 1084.74,-43.7306"/>
<polygon fill="midnightblue" stroke="midnightblue" points="986.047,-41.7722 976.103,-45.4281 986.157,-48.7713 986.047,-41.7722"/>
</g>
<!-- Node8 -->
<g id="node8" class="node"><title>Node8</title>
<g id="a_node8"><a xlink:href="classmappel_1_1MCMCAdaptor1Ds.html" target="_top" xlink:title="mappel::MCMCAdaptor1Ds">
<polygon fill="white" stroke="black" points="842,-121.5 842,-139.5 971,-139.5 971,-121.5 842,-121.5"/>
<text text-anchor="middle" x="906.5" y="-128.3" font-family="Helvetica,sans-Serif" font-size="9.00">mappel::MCMCAdaptor1Ds</text>
</a>
</g>
</g>
<!-- Node8&#45;&gt;Node2 -->
<g id="edge7" class="edge"><title>Node8&#45;&gt;Node2</title>
<path fill="none" stroke="midnightblue" d="M981.355,-136.847C1020.36,-140.199 1067.58,-144.257 1104.17,-147.401"/>
<polygon fill="midnightblue" stroke="midnightblue" points="981.373,-133.336 971.11,-135.966 980.773,-140.31 981.373,-133.336"/>
</g>
<!-- Node9&#45;&gt;Node8 -->
<g id="edge8" class="edge"><title>Node9&#45;&gt;Node8</title>
<path fill="none" stroke="midnightblue" d="M708.267,-130.5C749.807,-130.5 801.634,-130.5 841.736,-130.5"/>
<polygon fill="midnightblue" stroke="midnightblue" points="708.214,-127 698.214,-130.5 708.214,-134 708.214,-127"/>
</g>
<!-- Node10 -->
<g id="node10" class="node"><title>Node10</title>
<g id="a_node10"><a xlink:href="classmappel_1_1MCMCAdaptorBase.html" target="_top" xlink:title="mappel::MCMCAdaptorBase">
<polygon fill="white" stroke="black" points="363,-109.5 363,-127.5 497,-127.5 497,-109.5 363,-109.5"/>
<text text-anchor="middle" x="430" y="-116.3" font-family="Helvetica,sans-Serif" font-size="9.00">mappel::MCMCAdaptorBase</text>
</a>
</g>
</g>
<!-- Node10&#45;&gt;Node9 -->
<g id="edge10" class="edge"><title>Node10&#45;&gt;Node9</title>
<path fill="none" stroke="midnightblue" d="M507.225,-122.995C528.895,-124.273 552.217,-125.648 572.902,-126.868"/>
<polygon fill="midnightblue" stroke="midnightblue" points="507.259,-119.491 497.071,-122.396 506.847,-126.479 507.259,-119.491"/>
</g>
<!-- Node11 -->
<g id="node11" class="node"><title>Node11</title>
<g id="a_node11"><a xlink:title="STL class. ">
<polygon fill="white" stroke="#bfbfbf" points="596.5,-68.5 596.5,-86.5 674.5,-86.5 674.5,-68.5 596.5,-68.5"/>
<text text-anchor="middle" x="635.5" y="-75.3" font-family="Helvetica,sans-Serif" font-size="9.00">std::vector&lt; T &gt;</text>
</a>
</g>
</g>
<!-- Node11&#45;&gt;Node2 -->
<g id="edge12" class="edge"><title>Node11&#45;&gt;Node2</title>
<path fill="none" stroke="#9a32cd" stroke-dasharray="5,2" d="M684.846,-77.9626C751.012,-79.2659 873.286,-84.0719 976,-101.5 1034.37,-111.404 1100.83,-131.697 1136.85,-143.481"/>
<polygon fill="#9a32cd" stroke="#9a32cd" points="684.78,-74.461 674.72,-77.7821 684.656,-81.4599 684.78,-74.461"/>
<text text-anchor="middle" x="906.5" y="-104.3" font-family="Helvetica,sans-Serif" font-size="9.00"> prior_types</text>
</g>
<!-- Node11&#45;&gt;Node14 -->
<g id="edge18" class="edge"><title>Node11&#45;&gt;Node14</title>
<path fill="none" stroke="orange" stroke-dasharray="5,2" d="M682.02,-65.9931C734.948,-52.6134 821.219,-30.8052 869.631,-18.5672"/>
<polygon fill="orange" stroke="orange" points="681.058,-62.626 672.221,-68.4701 682.774,-69.4125 681.058,-62.626"/>
<text text-anchor="middle" x="767.5" y="-59.3" font-family="Helvetica,sans-Serif" font-size="9.00"> &lt; std::string &gt;</text>
</g>
<!-- Node12 -->
<g id="node12" class="node"><title>Node12</title>
<polygon fill="white" stroke="#bfbfbf" points="415.5,-68.5 415.5,-86.5 444.5,-86.5 444.5,-68.5 415.5,-68.5"/>
<text text-anchor="middle" x="430" y="-75.3" font-family="Helvetica,sans-Serif" font-size="9.00">T</text>
</g>
<!-- Node12&#45;&gt;Node11 -->
<g id="edge13" class="edge"><title>Node12&#45;&gt;Node11</title>
<path fill="none" stroke="#9a32cd" stroke-dasharray="5,2" d="M454.854,-77.5C489.725,-77.5 554.973,-77.5 596.499,-77.5"/>
<polygon fill="#9a32cd" stroke="#9a32cd" points="454.668,-74.0001 444.668,-77.5 454.668,-81.0001 454.668,-74.0001"/>
<text text-anchor="middle" x="535" y="-80.3" font-family="Helvetica,sans-Serif" font-size="9.00"> elements</text>
</g>
<!-- Node13&#45;&gt;Node1 -->
<g id="edge14" class="edge"><title>Node13&#45;&gt;Node1</title>
<path fill="none" stroke="midnightblue" d="M1183.37,-58.4899C1219,-90.3663 1297.87,-160.934 1326.15,-186.242"/>
<polygon fill="midnightblue" stroke="midnightblue" points="1185.47,-55.6723 1175.68,-51.6127 1180.8,-60.889 1185.47,-55.6723"/>
</g>
<!-- Node14&#45;&gt;Node13 -->
<g id="edge16" class="edge"><title>Node14&#45;&gt;Node13</title>
<path fill="none" stroke="#9a32cd" stroke-dasharray="5,2" d="M972.858,-17.9251C1009.67,-22.6705 1055.66,-28.5985 1093.24,-33.4434"/>
<polygon fill="#9a32cd" stroke="#9a32cd" points="973.098,-14.4272 962.733,-16.6199 972.203,-21.3697 973.098,-14.4272"/>
<text text-anchor="middle" x="1030.5" y="-33.3" font-family="Helvetica,sans-Serif" font-size="9.00"> estimator_names</text>
</g>
<!-- Node15&#45;&gt;Node1 -->
<g id="edge19" class="edge"><title>Node15&#45;&gt;Node1</title>
<path fill="none" stroke="midnightblue" d="M829.174,-208.898C940.054,-205.97 1173.83,-199.796 1280.86,-196.969"/>
<polygon fill="midnightblue" stroke="midnightblue" points="829.06,-205.399 819.156,-209.162 829.245,-212.397 829.06,-205.399"/>
</g>
</g>
</svg>
