<?xml version="1.0" encoding="UTF-8" standalone="no"?>
<!DOCTYPE svg PUBLIC "-//W3C//DTD SVG 1.1//EN"
 "http://www.w3.org/Graphics/SVG/1.1/DTD/svg11.dtd">
<!-- Generated by graphviz version 2.38.0 (20140413.2041)
 -->
<!-- Title: mappel::Gauss2DMLE Pages: 1 -->
<!--zoomable 504 -->
<svg id="main" version="1.1" xmlns="http://www.w3.org/2000/svg" xmlns:xlink="http://www.w3.org/1999/xlink" xml:space="preserve" onload="init(evt)">
<style type="text/css"><![CDATA[
.edge:hover path { stroke: red; }
.edge:hover polygon { stroke: red; fill: red; }
]]></style>
<script type="text/javascript"><![CDATA[
var edges = document.getElementsByTagName('g');
if (edges && edges.length) {
  for (var i=0;i<edges.length;i++) {
    if (edges[i].id.substr(0,4)=='edge') {
      edges[i].setAttribute('class','edge');
    }
  }
}
]]></script>
        <defs>
                <circle id="rim" cx="0" cy="0" r="7"/>
                <circle id="rim2" cx="0" cy="0" r="3.5"/>
                <g id="zoomPlus">
                        <use xlink:href="#rim" fill="#404040">
                                <set attributeName="fill" to="#808080" begin="zoomplus.mouseover" end="zoomplus.mouseout"/>
                        </use>
                        <path d="M-4,0h8M0,-4v8" fill="none" stroke="white" stroke-width="1.5" pointer-events="none"/>
                </g>
                <g id="zoomMin">
                        <use xlink:href="#rim" fill="#404040">
                                <set attributeName="fill" to="#808080" begin="zoomminus.mouseover" end="zoomminus.mouseout"/>
                        </use>
                        <path d="M-4,0h8" fill="none" stroke="white" stroke-width="1.5" pointer-events="none"/>
                </g>
                <g id="dirArrow">
                        <path fill="none" stroke="white" stroke-width="1.5" d="M0,-3.0v7 M-2.5,-0.5L0,-3.0L2.5,-0.5"/>
                </g>
               <g id="resetDef">
                       <use xlink:href="#rim2" fill="#404040">
                               <set attributeName="fill" to="#808080" begin="reset.mouseover" end="reset.mouseout"/>
                       </use>
               </g>
        </defs>

<script type="text/javascript">
var viewWidth = 1801;
var viewHeight = 504;
var sectionId = 'dynsection-1';
</script>
<script xlink:href="svgpan.js"/>
<svg id="graph" class="graph">
<g id="viewport">
<title>mappel::Gauss2DMLE</title>
<polygon fill="white" stroke="none" points="-4,4 -4,-499.5 1797,-499.5 1797,4 -4,4"/>
<!-- Node1 -->
<g id="node1" class="node"><title>Node1</title>
<polygon fill="#bfbfbf" stroke="black" points="1684,-263.5 1684,-281.5 1793,-281.5 1793,-263.5 1684,-263.5"/>
<text text-anchor="middle" x="1738.5" y="-270.3" font-family="Helvetica,sans-Serif" font-size="9.00">mappel::Gauss2DMLE</text>
</g>
<!-- Node2 -->
<g id="node2" class="node"><title>Node2</title>
<g id="a_node2"><a xlink:href="classmappel_1_1Gauss2DModel.html" target="_top" xlink:title="A base class for 2D Gaussian PSF with fixed but possibly asymmetric sigma. ">
<polygon fill="white" stroke="black" points="1509.5,-221.5 1509.5,-239.5 1625.5,-239.5 1625.5,-221.5 1509.5,-221.5"/>
<text text-anchor="middle" x="1567.5" y="-228.3" font-family="Helvetica,sans-Serif" font-size="9.00">mappel::Gauss2DModel</text>
</a>
</g>
</g>
<!-- Node2&#45;&gt;Node1 -->
<g id="edge1" class="edge"><title>Node2&#45;&gt;Node1</title>
<path fill="none" stroke="midnightblue" d="M1614.8,-242.007C1641.95,-248.754 1675.76,-257.157 1701.01,-263.432"/>
<polygon fill="midnightblue" stroke="midnightblue" points="1615.3,-238.525 1604.75,-239.51 1613.62,-245.319 1615.3,-238.525"/>
</g>
<!-- Node3 -->
<g id="node3" class="node"><title>Node3</title>
<g id="a_node3"><a xlink:href="classmappel_1_1PointEmitterModel.html" target="_top" xlink:title="A virtual Base type for point emitter localization models. ">
<polygon fill="white" stroke="black" points="366.5,-126.5 366.5,-144.5 493.5,-144.5 493.5,-126.5 366.5,-126.5"/>
<text text-anchor="middle" x="430" y="-133.3" font-family="Helvetica,sans-Serif" font-size="9.00">mappel::PointEmitterModel</text>
</a>
</g>
</g>
<!-- Node3&#45;&gt;Node2 -->
<g id="edge2" class="edge"><title>Node3&#45;&gt;Node2</title>
<path fill="none" stroke="midnightblue" d="M463.063,-122.965C508.95,-106.184 596.341,-78.5 673.5,-78.5 673.5,-78.5 673.5,-78.5 1280.5,-78.5 1403.08,-78.5 1524.29,-188.724 1557.57,-221.447"/>
<polygon fill="midnightblue" stroke="midnightblue" points="461.803,-119.7 453.652,-126.468 464.245,-126.26 461.803,-119.7"/>
</g>
<!-- Node9 -->
<g id="node9" class="node"><title>Node9</title>
<g id="a_node9"><a xlink:href="classmappel_1_1MCMCAdaptor1D.html" target="_top" xlink:title="mappel::MCMCAdaptor1D">
<polygon fill="white" stroke="black" points="612,-183.5 612,-201.5 737,-201.5 737,-183.5 612,-183.5"/>
<text text-anchor="middle" x="674.5" y="-190.3" font-family="Helvetica,sans-Serif" font-size="9.00">mappel::MCMCAdaptor1D</text>
</a>
</g>
</g>
<!-- Node3&#45;&gt;Node9 -->
<g id="edge9" class="edge"><title>Node3&#45;&gt;Node9</title>
<path fill="none" stroke="midnightblue" d="M462.777,-148.327C478.321,-154.219 497.426,-160.903 515,-165.5 546.461,-173.73 582.112,-180.062 611.624,-184.517"/>
<polygon fill="midnightblue" stroke="midnightblue" points="463.718,-144.939 453.129,-144.599 461.195,-151.468 463.718,-144.939"/>
</g>
<!-- Node12 -->
<g id="node12" class="node"><title>Node12</title>
<g id="a_node12"><a xlink:href="classmappel_1_1Gauss1DModel.html" target="_top" xlink:title="A base class for 1D Gaussian PSF with a fixed sigma (standard dev.) ">
<polygon fill="white" stroke="black" points="911.5,-297.5 911.5,-315.5 1027.5,-315.5 1027.5,-297.5 911.5,-297.5"/>
<text text-anchor="middle" x="969.5" y="-304.3" font-family="Helvetica,sans-Serif" font-size="9.00">mappel::Gauss1DModel</text>
</a>
</g>
</g>
<!-- Node3&#45;&gt;Node12 -->
<g id="edge13" class="edge"><title>Node3&#45;&gt;Node12</title>
<path fill="none" stroke="midnightblue" d="M503.888,-141.012C567.666,-146.627 662.581,-156.902 744,-173.5 802.025,-185.329 830.363,-168.392 872,-210.5 893.077,-231.815 869.956,-253.211 890,-275.5 899.308,-285.85 912.518,-292.788 925.452,-297.42"/>
<polygon fill="midnightblue" stroke="midnightblue" points="503.797,-137.492 493.533,-140.118 503.195,-144.466 503.797,-137.492"/>
</g>
<!-- Node18 -->
<g id="node18" class="node"><title>Node18</title>
<g id="a_node18"><a xlink:href="classmappel_1_1MAPEstimator.html" target="_top" xlink:title="A Mixin class to configure a for MLE estimation (null prior). ">
<polygon fill="white" stroke="black" points="762,-107.5 762,-125.5 872,-125.5 872,-107.5 762,-107.5"/>
<text text-anchor="middle" x="817" y="-114.3" font-family="Helvetica,sans-Serif" font-size="9.00">mappel::MAPEstimator</text>
</a>
</g>
</g>
<!-- Node3&#45;&gt;Node18 -->
<g id="edge25" class="edge"><title>Node3&#45;&gt;Node18</title>
<path fill="none" stroke="midnightblue" d="M504.034,-131.896C579.126,-128.19 694.329,-122.505 761.718,-119.179"/>
<polygon fill="midnightblue" stroke="midnightblue" points="503.529,-128.416 493.714,-132.405 503.874,-135.408 503.529,-128.416"/>
</g>
<!-- Node20 -->
<g id="node20" class="node"><title>Node20</title>
<g id="a_node20"><a xlink:href="classmappel_1_1MLEstimator.html" target="_top" xlink:title="A Mixin class to configure a for MLE estimation (null prior). ">
<polygon fill="white" stroke="black" points="1367,-0.5 1367,-18.5 1470,-18.5 1470,-0.5 1367,-0.5"/>
<text text-anchor="middle" x="1418.5" y="-7.3" font-family="Helvetica,sans-Serif" font-size="9.00">mappel::MLEstimator</text>
</a>
</g>
</g>
<!-- Node3&#45;&gt;Node20 -->
<g id="edge33" class="edge"><title>Node3&#45;&gt;Node20</title>
<path fill="none" stroke="midnightblue" d="M446.586,-118.881C462.323,-103.146 488.089,-80.1094 515,-67.5 616.344,-20.0145 650.697,-30.2056 762,-18.5 986.396,5.09947 1256.36,-2.45513 1366.73,-7.0645"/>
<polygon fill="midnightblue" stroke="midnightblue" points="443.784,-116.741 439.318,-126.349 448.801,-121.623 443.784,-116.741"/>
</g>
<!-- Node4 -->
<g id="node4" class="node"><title>Node4</title>
<polygon fill="white" stroke="#bfbfbf" points="125,-126.5 125,-144.5 202,-144.5 202,-126.5 125,-126.5"/>
<text text-anchor="middle" x="163.5" y="-133.3" font-family="Helvetica,sans-Serif" font-size="9.00">CompositeDist</text>
</g>
<!-- Node4&#45;&gt;Node3 -->
<g id="edge3" class="edge"><title>Node4&#45;&gt;Node3</title>
<path fill="none" stroke="#9a32cd" stroke-dasharray="5,2" d="M212.337,-135.5C255.441,-135.5 319.098,-135.5 366.268,-135.5"/>
<polygon fill="#9a32cd" stroke="#9a32cd" points="212.116,-132 202.116,-135.5 212.115,-139 212.116,-132"/>
<text text-anchor="middle" x="282.5" y="-138.3" font-family="Helvetica,sans-Serif" font-size="9.00"> prior</text>
</g>
<!-- Node5 -->
<g id="node5" class="node"><title>Node5</title>
<g id="a_node5"><a xlink:title="STL class. ">
<polygon fill="white" stroke="#bfbfbf" points="135.5,-334.5 135.5,-352.5 191.5,-352.5 191.5,-334.5 135.5,-334.5"/>
<text text-anchor="middle" x="163.5" y="-341.3" font-family="Helvetica,sans-Serif" font-size="9.00">std::string</text>
</a>
</g>
</g>
<!-- Node5&#45;&gt;Node1 -->
<g id="edge34" class="edge"><title>Node5&#45;&gt;Node1</title>
<path fill="none" stroke="#9a32cd" stroke-dasharray="5,2" d="M180.988,-359.98C220.255,-397.389 323.898,-485.5 429,-485.5 429,-485.5 429,-485.5 1568.5,-485.5 1674.24,-485.5 1724.33,-322.422 1735.19,-281.652"/>
<polygon fill="#9a32cd" stroke="#9a32cd" points="183.222,-357.271 173.609,-352.817 178.347,-362.294 183.222,-357.271"/>
<text text-anchor="middle" x="969.5" y="-488.3" font-family="Helvetica,sans-Serif" font-size="9.00"> name</text>
</g>
<!-- Node5&#45;&gt;Node2 -->
<g id="edge27" class="edge"><title>Node5&#45;&gt;Node2</title>
<path fill="none" stroke="#9a32cd" stroke-dasharray="5,2" d="M181.004,-326.748C188.712,-317.891 197.223,-306.404 202,-294.5 215.572,-260.679 194.857,-157.88 220,-131.5 404.873,62.4688 548.041,-40.5 816,-40.5 816,-40.5 816,-40.5 1280.5,-40.5 1367.95,-40.5 1398.57,-43.0478 1470,-93.5 1471.6,-94.6276 1538.58,-190.492 1559.99,-221.17"/>
<polygon fill="#9a32cd" stroke="#9a32cd" points="178.197,-324.63 174.008,-334.361 183.351,-329.366 178.197,-324.63"/>
<text text-anchor="middle" x="817" y="-43.3" font-family="Helvetica,sans-Serif" font-size="9.00"> DefaultPriorType</text>
</g>
<!-- Node5&#45;&gt;Node3 -->
<g id="edge4" class="edge"><title>Node5&#45;&gt;Node3</title>
<path fill="none" stroke="#9a32cd" stroke-dasharray="5,2" d="M178.518,-326.42C185.842,-317.198 194.762,-305.48 202,-294.5 210.981,-280.876 208.657,-274.231 220,-262.5 276.371,-204.2 364.967,-162.199 406.323,-144.629"/>
<polygon fill="#9a32cd" stroke="#9a32cd" points="175.643,-324.411 172.092,-334.393 181.092,-328.804 175.643,-324.411"/>
<text text-anchor="middle" x="282.5" y="-265.3" font-family="Helvetica,sans-Serif" font-size="9.00"> DefaultSeperableInitEstimator</text>
</g>
<!-- Node11 -->
<g id="node11" class="node"><title>Node11</title>
<g id="a_node11"><a xlink:href="classmappel_1_1Gauss1DMAP.html" target="_top" xlink:title="A 1D Gaussian with fixed PSF under an Poisson Read Noise assumption and MAP Objective. ">
<polygon fill="white" stroke="black" points="1224.5,-288.5 1224.5,-306.5 1334.5,-306.5 1334.5,-288.5 1224.5,-288.5"/>
<text text-anchor="middle" x="1279.5" y="-295.3" font-family="Helvetica,sans-Serif" font-size="9.00">mappel::Gauss1DMAP</text>
</a>
</g>
</g>
<!-- Node5&#45;&gt;Node11 -->
<g id="edge26" class="edge"><title>Node5&#45;&gt;Node11</title>
<path fill="none" stroke="#9a32cd" stroke-dasharray="5,2" d="M190.743,-357.209C199.799,-361.426 210.148,-365.692 220,-368.5 281.658,-386.074 299.254,-380.635 363,-387.5 666.191,-420.15 748.265,-424.989 1049,-374.5 1113.23,-363.717 1138.3,-379.353 1192,-342.5 1203.89,-334.339 1198.26,-323.878 1210,-315.5 1215.1,-311.857 1220.89,-308.951 1226.89,-306.633"/>
<polygon fill="#9a32cd" stroke="#9a32cd" points="192.031,-353.944 181.507,-352.723 188.973,-360.24 192.031,-353.944"/>
<text text-anchor="middle" x="674.5" y="-415.3" font-family="Helvetica,sans-Serif" font-size="9.00"> name</text>
</g>
<!-- Node5&#45;&gt;Node12 -->
<g id="edge16" class="edge"><title>Node5&#45;&gt;Node12</title>
<path fill="none" stroke="#9a32cd" stroke-dasharray="5,2" d="M201.736,-339.62C265.702,-333.133 400.623,-320.234 515,-314.5 657.349,-307.363 825.109,-306.319 911.188,-306.32"/>
<polygon fill="#9a32cd" stroke="#9a32cd" points="201.321,-336.144 191.728,-340.641 202.032,-343.107 201.321,-336.144"/>
<text text-anchor="middle" x="551" y="-317.3" font-family="Helvetica,sans-Serif" font-size="9.00"> DefaultPriorType</text>
</g>
<!-- Node17 -->
<g id="node17" class="node"><title>Node17</title>
<polygon fill="white" stroke="#bfbfbf" points="618.5,-380.5 618.5,-398.5 730.5,-398.5 730.5,-380.5 618.5,-380.5"/>
<text text-anchor="middle" x="674.5" y="-387.3" font-family="Helvetica,sans-Serif" font-size="9.00">std::vector&lt; std::string &gt;</text>
</g>
<!-- Node5&#45;&gt;Node17 -->
<g id="edge22" class="edge"><title>Node5&#45;&gt;Node17</title>
<path fill="none" stroke="#9a32cd" stroke-dasharray="5,2" d="M201.604,-346.853C290.035,-354.845 513.613,-375.05 618.095,-384.493"/>
<polygon fill="#9a32cd" stroke="#9a32cd" points="201.781,-343.355 191.507,-345.941 201.151,-350.327 201.781,-343.355"/>
<text text-anchor="middle" x="430" y="-376.3" font-family="Helvetica,sans-Serif" font-size="9.00"> elements</text>
</g>
<!-- Node6 -->
<g id="node6" class="node"><title>Node6</title>
<g id="a_node6"><a xlink:title="STL class. ">
<polygon fill="white" stroke="#bfbfbf" points="0,-329.5 0,-357.5 88,-357.5 88,-329.5 0,-329.5"/>
<text text-anchor="start" x="8" y="-346.3" font-family="Helvetica,sans-Serif" font-size="9.00">std::basic_string&lt;</text>
<text text-anchor="middle" x="44" y="-336.3" font-family="Helvetica,sans-Serif" font-size="9.00"> char &gt;</text>
</a>
</g>
</g>
<!-- Node6&#45;&gt;Node5 -->
<g id="edge5" class="edge"><title>Node6&#45;&gt;Node5</title>
<path fill="none" stroke="midnightblue" d="M98.287,-343.5C111.161,-343.5 124.389,-343.5 135.467,-343.5"/>
<polygon fill="midnightblue" stroke="midnightblue" points="98.0855,-340 88.0855,-343.5 98.0854,-347 98.0855,-340"/>
</g>
<!-- Node7 -->
<g id="node7" class="node"><title>Node7</title>
<g id="a_node7"><a xlink:href="classmappel_1_1ImageFormat2DBase.html" target="_top" xlink:title="A virtual base class for 2D image localization objectives. ">
<polygon fill="white" stroke="black" points="1210,-325.5 1210,-343.5 1349,-343.5 1349,-325.5 1210,-325.5"/>
<text text-anchor="middle" x="1279.5" y="-332.3" font-family="Helvetica,sans-Serif" font-size="9.00">mappel::ImageFormat2DBase</text>
</a>
</g>
</g>
<!-- Node7&#45;&gt;Node2 -->
<g id="edge6" class="edge"><title>Node7&#45;&gt;Node2</title>
<path fill="none" stroke="midnightblue" d="M1359.53,-324.039C1394.3,-317.766 1435.09,-308.085 1470,-293.5 1503.78,-279.386 1538.58,-253.258 1555.68,-239.504"/>
<polygon fill="midnightblue" stroke="midnightblue" points="1358.67,-320.635 1349.42,-325.798 1359.87,-327.532 1358.67,-320.635"/>
</g>
<!-- Node19 -->
<g id="node19" class="node"><title>Node19</title>
<g id="a_node19"><a xlink:href="classmappel_1_1PoissonNoise2DObjective.html" target="_top" xlink:title="A base class for 2D objectives with Poisson read noise. This objective function and its subclasses ar...">
<polygon fill="white" stroke="black" points="1488,-325.5 1488,-343.5 1647,-343.5 1647,-325.5 1488,-325.5"/>
<text text-anchor="middle" x="1567.5" y="-332.3" font-family="Helvetica,sans-Serif" font-size="9.00">mappel::PoissonNoise2DObjective</text>
</a>
</g>
</g>
<!-- Node7&#45;&gt;Node19 -->
<g id="edge30" class="edge"><title>Node7&#45;&gt;Node19</title>
<path fill="none" stroke="midnightblue" d="M1359.01,-334.5C1399.13,-334.5 1447.81,-334.5 1487.94,-334.5"/>
<polygon fill="midnightblue" stroke="midnightblue" points="1359,-331 1349,-334.5 1359,-338 1359,-331"/>
</g>
<!-- Node8 -->
<g id="node8" class="node"><title>Node8</title>
<g id="a_node8"><a xlink:href="classmappel_1_1MCMCAdaptor2D.html" target="_top" xlink:title="mappel::MCMCAdaptor2D">
<polygon fill="white" stroke="black" points="1067,-145.5 1067,-163.5 1192,-163.5 1192,-145.5 1067,-145.5"/>
<text text-anchor="middle" x="1129.5" y="-152.3" font-family="Helvetica,sans-Serif" font-size="9.00">mappel::MCMCAdaptor2D</text>
</a>
</g>
</g>
<!-- Node8&#45;&gt;Node2 -->
<g id="edge7" class="edge"><title>Node8&#45;&gt;Node2</title>
<path fill="none" stroke="midnightblue" d="M1192.16,-165.248C1278.58,-180.312 1434.17,-207.433 1514.84,-221.495"/>
<polygon fill="midnightblue" stroke="midnightblue" points="1192.68,-161.786 1182.23,-163.517 1191.48,-168.682 1192.68,-161.786"/>
</g>
<!-- Node9&#45;&gt;Node8 -->
<g id="edge8" class="edge"><title>Node9&#45;&gt;Node8</title>
<path fill="none" stroke="midnightblue" d="M747.244,-186.482C835.372,-179.089 983.399,-166.672 1066.71,-159.684"/>
<polygon fill="midnightblue" stroke="midnightblue" points="746.737,-183.012 737.065,-187.336 747.323,-189.987 746.737,-183.012"/>
</g>
<!-- Node9&#45;&gt;Node12 -->
<g id="edge15" class="edge"><title>Node9&#45;&gt;Node12</title>
<path fill="none" stroke="midnightblue" d="M729.253,-203.978C770.726,-214.575 828.218,-233.179 872,-262.5 881.936,-269.154 879.915,-276.073 890,-282.5 900.216,-289.01 912.302,-293.842 923.89,-297.394"/>
<polygon fill="midnightblue" stroke="midnightblue" points="729.886,-200.529 719.338,-201.519 728.201,-207.323 729.886,-200.529"/>
</g>
<!-- Node10 -->
<g id="node10" class="node"><title>Node10</title>
<g id="a_node10"><a xlink:href="classmappel_1_1MCMCAdaptorBase.html" target="_top" xlink:title="mappel::MCMCAdaptorBase">
<polygon fill="white" stroke="black" points="363,-195.5 363,-213.5 497,-213.5 497,-195.5 363,-195.5"/>
<text text-anchor="middle" x="430" y="-202.3" font-family="Helvetica,sans-Serif" font-size="9.00">mappel::MCMCAdaptorBase</text>
</a>
</g>
</g>
<!-- Node10&#45;&gt;Node9 -->
<g id="edge10" class="edge"><title>Node10&#45;&gt;Node9</title>
<path fill="none" stroke="midnightblue" d="M507.521,-200.713C541.169,-199.048 580.162,-197.119 611.895,-195.548"/>
<polygon fill="midnightblue" stroke="midnightblue" points="507.079,-197.231 497.264,-201.221 507.425,-204.222 507.079,-197.231"/>
</g>
<!-- Node11&#45;&gt;Node2 -->
<g id="edge11" class="edge"><title>Node11&#45;&gt;Node2</title>
<path fill="none" stroke="#9a32cd" stroke-dasharray="5,2" d="M1321.24,-285.67C1335.65,-281.626 1352,-277.194 1367,-273.5 1419.46,-260.579 1480.22,-247.793 1520.77,-239.567"/>
<polygon fill="#9a32cd" stroke="#9a32cd" points="1320.28,-282.303 1311.61,-288.394 1322.19,-289.038 1320.28,-282.303"/>
<text text-anchor="middle" x="1418.5" y="-286.3" font-family="Helvetica,sans-Serif" font-size="9.00"> x_model</text>
<text text-anchor="middle" x="1418.5" y="-276.3" font-family="Helvetica,sans-Serif" font-size="9.00">y_model</text>
</g>
<!-- Node12&#45;&gt;Node11 -->
<g id="edge12" class="edge"><title>Node12&#45;&gt;Node11</title>
<path fill="none" stroke="midnightblue" d="M1037.89,-304.531C1093.88,-302.895 1172.5,-300.597 1224.44,-299.08"/>
<polygon fill="midnightblue" stroke="midnightblue" points="1037.6,-301.038 1027.71,-304.828 1037.81,-308.035 1037.6,-301.038"/>
</g>
<!-- Node13 -->
<g id="node13" class="node"><title>Node13</title>
<g id="a_node13"><a xlink:href="classmappel_1_1ImageFormat1DBase.html" target="_top" xlink:title="A virtual base class for 2D image localization objectives. ">
<polygon fill="white" stroke="black" points="605,-343.5 605,-361.5 744,-361.5 744,-343.5 605,-343.5"/>
<text text-anchor="middle" x="674.5" y="-350.3" font-family="Helvetica,sans-Serif" font-size="9.00">mappel::ImageFormat1DBase</text>
</a>
</g>
</g>
<!-- Node13&#45;&gt;Node12 -->
<g id="edge14" class="edge"><title>Node13&#45;&gt;Node12</title>
<path fill="none" stroke="midnightblue" d="M742.959,-341.909C793.831,-333.922 862.853,-323.086 911.094,-315.513"/>
<polygon fill="midnightblue" stroke="midnightblue" points="742.374,-338.458 733.038,-343.467 743.46,-345.373 742.374,-338.458"/>
</g>
<!-- Node16 -->
<g id="node16" class="node"><title>Node16</title>
<g id="a_node16"><a xlink:href="classmappel_1_1PoissonNoise1DObjective.html" target="_top" xlink:title="A base class for 1D objectives with Poisson read noise. This objective function and its subclasses ar...">
<polygon fill="white" stroke="black" points="890,-347.5 890,-365.5 1049,-365.5 1049,-347.5 890,-347.5"/>
<text text-anchor="middle" x="969.5" y="-354.3" font-family="Helvetica,sans-Serif" font-size="9.00">mappel::PoissonNoise1DObjective</text>
</a>
</g>
</g>
<!-- Node13&#45;&gt;Node16 -->
<g id="edge20" class="edge"><title>Node13&#45;&gt;Node16</title>
<path fill="none" stroke="midnightblue" d="M754.383,-353.577C796.395,-354.15 847.91,-354.854 889.882,-355.427"/>
<polygon fill="midnightblue" stroke="midnightblue" points="754.242,-350.075 744.195,-353.438 754.147,-357.074 754.242,-350.075"/>
</g>
<!-- Node14 -->
<g id="node14" class="node"><title>Node14</title>
<g id="a_node14"><a xlink:title="STL class. ">
<polygon fill="white" stroke="#bfbfbf" points="391,-267.5 391,-285.5 469,-285.5 469,-267.5 391,-267.5"/>
<text text-anchor="middle" x="430" y="-274.3" font-family="Helvetica,sans-Serif" font-size="9.00">std::vector&lt; T &gt;</text>
</a>
</g>
</g>
<!-- Node14&#45;&gt;Node2 -->
<g id="edge28" class="edge"><title>Node14&#45;&gt;Node2</title>
<path fill="none" stroke="#9a32cd" stroke-dasharray="5,2" d="M469.64,-264.532C517.139,-250.902 600.442,-230.5 673.5,-230.5 673.5,-230.5 673.5,-230.5 1280.5,-230.5 1359.82,-230.5 1451.52,-230.5 1509.25,-230.5"/>
<polygon fill="#9a32cd" stroke="#9a32cd" points="468.398,-261.248 459.781,-267.412 470.361,-267.967 468.398,-261.248"/>
<text text-anchor="middle" x="969.5" y="-233.3" font-family="Helvetica,sans-Serif" font-size="9.00"> prior_types</text>
</g>
<!-- Node14&#45;&gt;Node12 -->
<g id="edge17" class="edge"><title>Node14&#45;&gt;Node12</title>
<path fill="none" stroke="#9a32cd" stroke-dasharray="5,2" d="M479.552,-276.554C560.894,-277.026 729.788,-279.642 872,-292.5 885.488,-293.72 899.97,-295.544 913.507,-297.476"/>
<polygon fill="#9a32cd" stroke="#9a32cd" points="479.152,-273.052 469.135,-276.502 479.118,-280.052 479.152,-273.052"/>
<text text-anchor="middle" x="674.5" y="-286.3" font-family="Helvetica,sans-Serif" font-size="9.00"> prior_types</text>
</g>
<!-- Node14&#45;&gt;Node17 -->
<g id="edge23" class="edge"><title>Node14&#45;&gt;Node17</title>
<path fill="none" stroke="orange" stroke-dasharray="5,2" d="M452.824,-291.151C469.502,-302.065 493.25,-317.003 515,-328.5 545.959,-344.865 555.663,-344.87 587,-360.5 595.19,-364.585 596.531,-367.031 605,-370.5 614.364,-374.337 624.758,-377.665 634.56,-380.417"/>
<polygon fill="orange" stroke="orange" points="454.616,-288.14 444.343,-285.549 450.758,-293.981 454.616,-288.14"/>
<text text-anchor="middle" x="551" y="-363.3" font-family="Helvetica,sans-Serif" font-size="9.00"> &lt; std::string &gt;</text>
</g>
<!-- Node15 -->
<g id="node15" class="node"><title>Node15</title>
<polygon fill="white" stroke="#bfbfbf" points="149,-267.5 149,-285.5 178,-285.5 178,-267.5 149,-267.5"/>
<text text-anchor="middle" x="163.5" y="-274.3" font-family="Helvetica,sans-Serif" font-size="9.00">T</text>
</g>
<!-- Node15&#45;&gt;Node14 -->
<g id="edge18" class="edge"><title>Node15&#45;&gt;Node14</title>
<path fill="none" stroke="#9a32cd" stroke-dasharray="5,2" d="M188.568,-276.5C234.64,-276.5 335.622,-276.5 390.93,-276.5"/>
<polygon fill="#9a32cd" stroke="#9a32cd" points="188.348,-273 178.348,-276.5 188.348,-280 188.348,-273"/>
<text text-anchor="middle" x="282.5" y="-279.3" font-family="Helvetica,sans-Serif" font-size="9.00"> elements</text>
</g>
<!-- Node16&#45;&gt;Node11 -->
<g id="edge19" class="edge"><title>Node16&#45;&gt;Node11</title>
<path fill="none" stroke="midnightblue" d="M1033.92,-345.698C1078.28,-337.984 1138.85,-327.132 1192,-316.5 1207.38,-313.424 1224.23,-309.782 1238.95,-306.515"/>
<polygon fill="midnightblue" stroke="midnightblue" points="1033.12,-342.285 1023.87,-347.442 1034.32,-349.182 1033.12,-342.285"/>
</g>
<!-- Node17&#45;&gt;Node16 -->
<g id="edge21" class="edge"><title>Node17&#45;&gt;Node16</title>
<path fill="none" stroke="#9a32cd" stroke-dasharray="5,2" d="M740.542,-382.251C778.817,-377.977 828.162,-372.453 872,-367.5 877.781,-366.847 883.756,-366.17 889.768,-365.488"/>
<polygon fill="#9a32cd" stroke="#9a32cd" points="740.108,-378.778 730.559,-383.366 740.885,-385.734 740.108,-378.778"/>
<text text-anchor="middle" x="817" y="-383.3" font-family="Helvetica,sans-Serif" font-size="9.00"> estimator_names</text>
</g>
<!-- Node17&#45;&gt;Node19 -->
<g id="edge31" class="edge"><title>Node17&#45;&gt;Node19</title>
<path fill="none" stroke="#9a32cd" stroke-dasharray="5,2" d="M740.763,-399.315C838.932,-412.605 1030.33,-432.784 1192,-415.5 1321.31,-401.676 1471.53,-361.727 1535.3,-343.617"/>
<polygon fill="#9a32cd" stroke="#9a32cd" points="741.08,-395.826 730.696,-397.932 740.127,-402.761 741.08,-395.826"/>
<text text-anchor="middle" x="1129.5" y="-425.3" font-family="Helvetica,sans-Serif" font-size="9.00"> estimator_names</text>
</g>
<!-- Node18&#45;&gt;Node11 -->
<g id="edge24" class="edge"><title>Node18&#45;&gt;Node11</title>
<path fill="none" stroke="midnightblue" d="M848.094,-130.695C857.048,-136.302 866.047,-143.57 872,-152.5 895.111,-187.167 859.702,-215.9 890,-244.5 913.915,-267.075 1123.11,-285.769 1224.23,-293.577"/>
<polygon fill="midnightblue" stroke="midnightblue" points="849.687,-127.573 839.27,-125.641 846.208,-133.648 849.687,-127.573"/>
</g>
<!-- Node19&#45;&gt;Node1 -->
<g id="edge29" class="edge"><title>Node19&#45;&gt;Node1</title>
<path fill="none" stroke="midnightblue" d="M1602.67,-321.964C1635.36,-309.973 1683.85,-292.184 1712.9,-281.526"/>
<polygon fill="midnightblue" stroke="midnightblue" points="1601.26,-318.755 1593.07,-325.485 1603.67,-325.326 1601.26,-318.755"/>
</g>
<!-- Node20&#45;&gt;Node1 -->
<g id="edge32" class="edge"><title>Node20&#45;&gt;Node1</title>
<path fill="none" stroke="midnightblue" d="M1462.25,-22.4368C1464.93,-23.6898 1467.54,-25.043 1470,-26.5 1589.47,-97.1654 1701.16,-228.052 1730.21,-263.466"/>
<polygon fill="midnightblue" stroke="midnightblue" points="1463.55,-19.1863 1452.98,-18.5562 1460.85,-25.6441 1463.55,-19.1863"/>
</g>
</g>
</svg>
        <g id="navigator" transform="translate(0 0)" fill="#404254">
                <rect fill="#f2f5e9" fill-opacity="0.5" stroke="#606060" stroke-width=".5" x="0" y="0" width="60" height="60"/>
                <use id="zoomplus" xlink:href="#zoomPlus" x="17" y="9" onmousedown="handleZoom(evt,'in')"/>
                <use id="zoomminus" xlink:href="#zoomMin" x="42" y="9" onmousedown="handleZoom(evt,'out')"/>
                <use id="reset" xlink:href="#resetDef" x="30" y="36" onmousedown="handleReset()"/>
                <g id="arrowUp" xlink:href="#dirArrow" transform="translate(30 24)" onmousedown="handlePan(0,-1)">
                  <use xlink:href="#rim" fill="#404040">
                        <set attributeName="fill" to="#808080" begin="arrowUp.mouseover" end="arrowUp.mouseout"/>
                  </use>
                  <path fill="none" stroke="white" stroke-width="1.5" d="M0,-3.0v7 M-2.5,-0.5L0,-3.0L2.5,-0.5"/>
                </g>
                <g id="arrowRight" xlink:href="#dirArrow" transform="rotate(90) translate(36 -43)" onmousedown="handlePan(1,0)">
                  <use xlink:href="#rim" fill="#404040">
                        <set attributeName="fill" to="#808080" begin="arrowRight.mouseover" end="arrowRight.mouseout"/>
                  </use>
                  <path fill="none" stroke="white" stroke-width="1.5" d="M0,-3.0v7 M-2.5,-0.5L0,-3.0L2.5,-0.5"/>
                </g>
                <g id="arrowDown" xlink:href="#dirArrow" transform="rotate(180) translate(-30 -48)" onmousedown="handlePan(0,1)">
                  <use xlink:href="#rim" fill="#404040">
                        <set attributeName="fill" to="#808080" begin="arrowDown.mouseover" end="arrowDown.mouseout"/>
                  </use>
                  <path fill="none" stroke="white" stroke-width="1.5" d="M0,-3.0v7 M-2.5,-0.5L0,-3.0L2.5,-0.5"/>
                </g>
                <g id="arrowLeft" xlink:href="#dirArrow" transform="rotate(270) translate(-36 17)" onmousedown="handlePan(-1,0)">
                  <use xlink:href="#rim" fill="#404040">
                        <set attributeName="fill" to="#808080" begin="arrowLeft.mouseover" end="arrowLeft.mouseout"/>
                  </use>
                  <path fill="none" stroke="white" stroke-width="1.5" d="M0,-3.0v7 M-2.5,-0.5L0,-3.0L2.5,-0.5"/>
                </g>
        </g>
        <svg viewBox="0 0 15 15" width="100%" height="30px" preserveAspectRatio="xMaxYMin meet">
         <g id="arrow_out" transform="scale(0.3 0.3)">
          <a xlink:href="classmappel_1_1Gauss2DMLE__coll__graph_org.svg" target="_base">
           <rect id="button" ry="5" rx="5" y="6" x="6" height="38" width="38"
                fill="#f2f5e9" fill-opacity="0.5" stroke="#606060" stroke-width="1.0"/>
           <path id="arrow"
             d="M 11.500037,31.436501 C 11.940474,20.09759 22.043105,11.32322 32.158766,21.979434 L 37.068811,17.246167 C 37.068811,17.246167 37.088388,32 37.088388,32 L 22.160133,31.978069 C 22.160133,31.978069 26.997745,27.140456 26.997745,27.140456 C 18.528582,18.264221 13.291696,25.230495 11.500037,31.436501 z"
             style="fill:#404040;"/>
          </a>
         </g>
        </svg>
</svg>
