<?xml version="1.0" encoding="UTF-8" standalone="no"?>
<!DOCTYPE svg PUBLIC "-//W3C//DTD SVG 1.1//EN"
 "http://www.w3.org/Graphics/SVG/1.1/DTD/svg11.dtd">
<!-- Generated by graphviz version 2.38.0 (20140413.2041)
 -->
<!-- Title: mappel::Gauss2DsModel Pages: 1 -->
<!--zoomable 433 -->
<svg id="main" version="1.1" xmlns="http://www.w3.org/2000/svg" xmlns:xlink="http://www.w3.org/1999/xlink" xml:space="preserve" onload="init(evt)">
<style type="text/css"><![CDATA[
.edge:hover path { stroke: red; }
.edge:hover polygon { stroke: red; fill: red; }
]]></style>
<script type="text/javascript"><![CDATA[
var edges = document.getElementsByTagName('g');
if (edges && edges.length) {
  for (var i=0;i<edges.length;i++) {
    if (edges[i].id.substr(0,4)=='edge') {
      edges[i].setAttribute('class','edge');
    }
  }
}
]]></script>
        <defs>
                <circle id="rim" cx="0" cy="0" r="7"/>
                <circle id="rim2" cx="0" cy="0" r="3.5"/>
                <g id="zoomPlus">
                        <use xlink:href="#rim" fill="#404040">
                                <set attributeName="fill" to="#808080" begin="zoomplus.mouseover" end="zoomplus.mouseout"/>
                        </use>
                        <path d="M-4,0h8M0,-4v8" fill="none" stroke="white" stroke-width="1.5" pointer-events="none"/>
                </g>
                <g id="zoomMin">
                        <use xlink:href="#rim" fill="#404040">
                                <set attributeName="fill" to="#808080" begin="zoomminus.mouseover" end="zoomminus.mouseout"/>
                        </use>
                        <path d="M-4,0h8" fill="none" stroke="white" stroke-width="1.5" pointer-events="none"/>
                </g>
                <g id="dirArrow">
                        <path fill="none" stroke="white" stroke-width="1.5" d="M0,-3.0v7 M-2.5,-0.5L0,-3.0L2.5,-0.5"/>
                </g>
               <g id="resetDef">
                       <use xlink:href="#rim2" fill="#404040">
                               <set attributeName="fill" to="#808080" begin="reset.mouseover" end="reset.mouseout"/>
                       </use>
               </g>
        </defs>

<script type="text/javascript">
var viewWidth = 1757;
var viewHeight = 433;
var sectionId = 'dynsection-1';
</script>
<script xlink:href="svgpan.js"/>
<svg id="graph" class="graph">
<g id="viewport">
<title>mappel::Gauss2DsModel</title>
<polygon fill="white" stroke="none" points="-4,4 -4,-429 1753,-429 1753,4 -4,4"/>
<!-- Node1 -->
<g id="node1" class="node"><title>Node1</title>
<polygon fill="#bfbfbf" stroke="black" points="1629,-200 1629,-218 1749,-218 1749,-200 1629,-200"/>
<text text-anchor="middle" x="1689" y="-206.8" font-family="Helvetica,sans-Serif" font-size="9.00">mappel::Gauss2DsModel</text>
</g>
<!-- Node2 -->
<g id="node2" class="node"><title>Node2</title>
<g id="a_node2"><a xlink:href="classmappel_1_1PointEmitterModel.html" target="_top" xlink:title="A virtual Base type for point emitter localization models. ">
<polygon fill="white" stroke="black" points="366.5,-318 366.5,-336 493.5,-336 493.5,-318 366.5,-318"/>
<text text-anchor="middle" x="430" y="-324.8" font-family="Helvetica,sans-Serif" font-size="9.00">mappel::PointEmitterModel</text>
</a>
</g>
</g>
<!-- Node2&#45;&gt;Node1 -->
<g id="edge1" class="edge"><title>Node2&#45;&gt;Node1</title>
<path fill="none" stroke="midnightblue" d="M449.244,-342.773C483.237,-370.483 559.627,-425 634.5,-425 634.5,-425 634.5,-425 1486.5,-425 1601.63,-425 1669.8,-258.886 1684.83,-218.006"/>
<polygon fill="midnightblue" stroke="midnightblue" points="451.099,-339.762 441.178,-336.044 446.615,-345.137 451.099,-339.762"/>
</g>
<!-- Node9 -->
<g id="node9" class="node"><title>Node9</title>
<g id="a_node9"><a xlink:href="classmappel_1_1MCMCAdaptor1D.html" target="_top" xlink:title="mappel::MCMCAdaptor1D">
<polygon fill="white" stroke="black" points="573,-146 573,-164 698,-164 698,-146 573,-146"/>
<text text-anchor="middle" x="635.5" y="-152.8" font-family="Helvetica,sans-Serif" font-size="9.00">mappel::MCMCAdaptor1D</text>
</a>
</g>
</g>
<!-- Node2&#45;&gt;Node9 -->
<g id="edge9" class="edge"><title>Node2&#45;&gt;Node9</title>
<path fill="none" stroke="midnightblue" d="M448.963,-310.994C465.708,-296.272 491.553,-274.056 515,-256 532.193,-242.76 539.406,-243.091 555,-228 564.581,-218.728 563.711,-213.565 573,-204 588.027,-188.527 607.932,-173.488 620.969,-164.242"/>
<polygon fill="midnightblue" stroke="midnightblue" points="446.271,-308.702 441.097,-317.947 450.907,-313.947 446.271,-308.702"/>
</g>
<!-- Node12 -->
<g id="node12" class="node"><title>Node12</title>
<g id="a_node12"><a xlink:href="classmappel_1_1Gauss1DsModel.html" target="_top" xlink:title="Base class for 1D Gaussian PSF with variable Gaussian sigma (standard deviation) measured in units of...">
<polygon fill="white" stroke="black" points="1111.5,-235 1111.5,-253 1231.5,-253 1231.5,-235 1111.5,-235"/>
<text text-anchor="middle" x="1171.5" y="-241.8" font-family="Helvetica,sans-Serif" font-size="9.00">mappel::Gauss1DsModel</text>
</a>
</g>
</g>
<!-- Node2&#45;&gt;Node12 -->
<g id="edge14" class="edge"><title>Node2&#45;&gt;Node12</title>
<path fill="none" stroke="midnightblue" d="M503.953,-318.812C650.344,-302.381 977.337,-265.68 1111.42,-250.631"/>
<polygon fill="midnightblue" stroke="midnightblue" points="503.278,-315.366 493.73,-319.959 504.058,-322.322 503.278,-315.366"/>
</g>
<!-- Node19 -->
<g id="node19" class="node"><title>Node19</title>
<g id="a_node19"><a xlink:href="classmappel_1_1MAPEstimator.html" target="_top" xlink:title="A Mixin class to configure a for MLE estimation (null prior). ">
<polygon fill="white" stroke="black" points="716,-353 716,-371 826,-371 826,-353 716,-353"/>
<text text-anchor="middle" x="771" y="-359.8" font-family="Helvetica,sans-Serif" font-size="9.00">mappel::MAPEstimator</text>
</a>
</g>
</g>
<!-- Node2&#45;&gt;Node19 -->
<g id="edge27" class="edge"><title>Node2&#45;&gt;Node19</title>
<path fill="none" stroke="midnightblue" d="M503.548,-334.49C567.229,-341.065 658.418,-350.48 715.897,-356.414"/>
<polygon fill="midnightblue" stroke="midnightblue" points="503.879,-331.006 493.573,-333.46 503.161,-337.969 503.879,-331.006"/>
</g>
<!-- Node3 -->
<g id="node3" class="node"><title>Node3</title>
<polygon fill="white" stroke="#bfbfbf" points="125,-332 125,-350 202,-350 202,-332 125,-332"/>
<text text-anchor="middle" x="163.5" y="-338.8" font-family="Helvetica,sans-Serif" font-size="9.00">CompositeDist</text>
</g>
<!-- Node3&#45;&gt;Node2 -->
<g id="edge2" class="edge"><title>Node3&#45;&gt;Node2</title>
<path fill="none" stroke="#9a32cd" stroke-dasharray="5,2" d="M212.337,-338.468C255.441,-336.186 319.098,-332.817 366.268,-330.32"/>
<polygon fill="#9a32cd" stroke="#9a32cd" points="211.916,-334.985 202.116,-339.009 212.287,-341.975 211.916,-334.985"/>
<text text-anchor="middle" x="282.5" y="-340.8" font-family="Helvetica,sans-Serif" font-size="9.00"> prior</text>
</g>
<!-- Node4 -->
<g id="node4" class="node"><title>Node4</title>
<g id="a_node4"><a xlink:title="STL class. ">
<polygon fill="white" stroke="#bfbfbf" points="135.5,-138 135.5,-156 191.5,-156 191.5,-138 135.5,-138"/>
<text text-anchor="middle" x="163.5" y="-144.8" font-family="Helvetica,sans-Serif" font-size="9.00">std::string</text>
</a>
</g>
</g>
<!-- Node4&#45;&gt;Node1 -->
<g id="edge11" class="edge"><title>Node4&#45;&gt;Node1</title>
<path fill="none" stroke="#9a32cd" stroke-dasharray="5,2" d="M177.813,-129.7C188.211,-117.104 203.608,-100.335 220,-89 303.04,-31.5776 328.04,-0 429,-0 429,-0 429,-0 1486.5,-0 1599.15,-0 1668.69,-159.302 1684.53,-199.75"/>
<polygon fill="#9a32cd" stroke="#9a32cd" points="174.978,-127.641 171.462,-137.635 180.443,-132.015 174.978,-127.641"/>
<text text-anchor="middle" x="913.5" y="-2.8" font-family="Helvetica,sans-Serif" font-size="9.00"> DefaultPriorType</text>
</g>
<!-- Node4&#45;&gt;Node2 -->
<g id="edge3" class="edge"><title>Node4&#45;&gt;Node2</title>
<path fill="none" stroke="#9a32cd" stroke-dasharray="5,2" d="M166.438,-166.341C170.567,-196.747 183.109,-255.409 220,-286 231.368,-295.426 309.934,-309.054 367.405,-317.968"/>
<polygon fill="#9a32cd" stroke="#9a32cd" points="169.887,-165.707 165.234,-156.189 162.936,-166.532 169.887,-165.707"/>
<text text-anchor="middle" x="282.5" y="-317.8" font-family="Helvetica,sans-Serif" font-size="9.00"> DefaultSeperableInitEstimator</text>
</g>
<!-- Node11 -->
<g id="node11" class="node"><title>Node11</title>
<g id="a_node11"><a xlink:href="classmappel_1_1Gauss1DsMAP.html" target="_top" xlink:title="A 1D Gaussian with variable PSF sigma under an Poisson read noise assumption and MAP Objective...">
<polygon fill="white" stroke="black" points="1428.5,-256 1428.5,-274 1542.5,-274 1542.5,-256 1428.5,-256"/>
<text text-anchor="middle" x="1485.5" y="-262.8" font-family="Helvetica,sans-Serif" font-size="9.00">mappel::Gauss1DsMAP</text>
</a>
</g>
</g>
<!-- Node4&#45;&gt;Node11 -->
<g id="edge28" class="edge"><title>Node4&#45;&gt;Node11</title>
<path fill="none" stroke="#9a32cd" stroke-dasharray="5,2" d="M197.604,-134.397C236.515,-120.316 303.356,-98.3938 363,-90 421.974,-81.7003 437.447,-89.457 497,-90 833.885,-93.0716 932.77,-57.4071 1251,-168 1327.62,-194.627 1339.97,-217.723 1416,-246 1426.06,-249.743 1437.2,-253.136 1447.51,-255.985"/>
<polygon fill="#9a32cd" stroke="#9a32cd" points="196.05,-131.239 187.867,-137.969 198.461,-137.811 196.05,-131.239"/>
<text text-anchor="middle" x="771" y="-90.8" font-family="Helvetica,sans-Serif" font-size="9.00"> name</text>
</g>
<!-- Node4&#45;&gt;Node12 -->
<g id="edge18" class="edge"><title>Node4&#45;&gt;Node12</title>
<path fill="none" stroke="#9a32cd" stroke-dasharray="5,2" d="M202.083,-144.421C274.037,-139.627 436.264,-129.512 573,-126 755.189,-121.32 806.643,-87.0339 983,-133 1027.25,-144.533 1038.91,-151.68 1074,-181 1083.96,-189.323 1081.98,-195.747 1092,-204 1108.29,-217.42 1129.83,-227.995 1146.23,-234.893"/>
<polygon fill="#9a32cd" stroke="#9a32cd" points="201.474,-140.954 191.731,-145.116 201.943,-147.938 201.474,-140.954"/>
<text text-anchor="middle" x="635.5" y="-128.8" font-family="Helvetica,sans-Serif" font-size="9.00"> DefaultPriorType</text>
</g>
<!-- Node18 -->
<g id="node18" class="node"><title>Node18</title>
<polygon fill="white" stroke="#bfbfbf" points="857.5,-340 857.5,-358 969.5,-358 969.5,-340 857.5,-340"/>
<text text-anchor="middle" x="913.5" y="-346.8" font-family="Helvetica,sans-Serif" font-size="9.00">std::vector&lt; std::string &gt;</text>
</g>
<!-- Node4&#45;&gt;Node18 -->
<g id="edge24" class="edge"><title>Node4&#45;&gt;Node18</title>
<path fill="none" stroke="#9a32cd" stroke-dasharray="5,2" d="M190.708,-160.785C228.036,-179.913 299.087,-214.462 363,-235 539.474,-291.709 757.135,-327.091 857.3,-341.525"/>
<polygon fill="#9a32cd" stroke="#9a32cd" points="192.029,-157.528 181.538,-156.048 188.816,-163.747 192.029,-157.528"/>
<text text-anchor="middle" x="535" y="-288.8" font-family="Helvetica,sans-Serif" font-size="9.00"> elements</text>
</g>
<!-- Node5 -->
<g id="node5" class="node"><title>Node5</title>
<g id="a_node5"><a xlink:title="STL class. ">
<polygon fill="white" stroke="#bfbfbf" points="0,-133 0,-161 88,-161 88,-133 0,-133"/>
<text text-anchor="start" x="8" y="-149.8" font-family="Helvetica,sans-Serif" font-size="9.00">std::basic_string&lt;</text>
<text text-anchor="middle" x="44" y="-139.8" font-family="Helvetica,sans-Serif" font-size="9.00"> char &gt;</text>
</a>
</g>
</g>
<!-- Node5&#45;&gt;Node4 -->
<g id="edge4" class="edge"><title>Node5&#45;&gt;Node4</title>
<path fill="none" stroke="midnightblue" d="M98.287,-147C111.161,-147 124.389,-147 135.467,-147"/>
<polygon fill="midnightblue" stroke="midnightblue" points="98.0855,-143.5 88.0855,-147 98.0854,-150.5 98.0855,-143.5"/>
</g>
<!-- Node6 -->
<g id="node6" class="node"><title>Node6</title>
<g id="a_node6"><a xlink:href="classmappel_1_1ImageFormat2DBase.html" target="_top" xlink:title="A virtual base class for 2D image localization objectives. ">
<polygon fill="white" stroke="black" points="1416,-219 1416,-237 1555,-237 1555,-219 1416,-219"/>
<text text-anchor="middle" x="1485.5" y="-225.8" font-family="Helvetica,sans-Serif" font-size="9.00">mappel::ImageFormat2DBase</text>
</a>
</g>
</g>
<!-- Node6&#45;&gt;Node1 -->
<g id="edge5" class="edge"><title>Node6&#45;&gt;Node1</title>
<path fill="none" stroke="midnightblue" d="M1565.52,-220.549C1586.64,-218.557 1609.1,-216.44 1628.94,-214.569"/>
<polygon fill="midnightblue" stroke="midnightblue" points="1564.91,-217.091 1555.28,-221.514 1565.57,-224.06 1564.91,-217.091"/>
</g>
<!-- Node7 -->
<g id="node7" class="node"><title>Node7</title>
<g id="a_node7"><a xlink:href="classmappel_1_1MCMCAdaptor2Ds.html" target="_top" xlink:title="mappel::MCMCAdaptor2Ds">
<polygon fill="white" stroke="black" points="1269,-35 1269,-53 1398,-53 1398,-35 1269,-35"/>
<text text-anchor="middle" x="1333.5" y="-41.8" font-family="Helvetica,sans-Serif" font-size="9.00">mappel::MCMCAdaptor2Ds</text>
</a>
</g>
</g>
<!-- Node7&#45;&gt;Node1 -->
<g id="edge6" class="edge"><title>Node7&#45;&gt;Node1</title>
<path fill="none" stroke="midnightblue" d="M1380.89,-56.0211C1386.71,-57.8582 1392.53,-59.8617 1398,-62 1507.35,-104.75 1630.45,-175.074 1672.77,-199.943"/>
<polygon fill="midnightblue" stroke="midnightblue" points="1381.75,-52.6257 1371.17,-53.0923 1379.73,-59.3281 1381.75,-52.6257"/>
</g>
<!-- Node8 -->
<g id="node8" class="node"><title>Node8</title>
<g id="a_node8"><a xlink:href="classmappel_1_1MCMCAdaptor2D.html" target="_top" xlink:title="mappel::MCMCAdaptor2D">
<polygon fill="white" stroke="black" points="851,-29 851,-47 976,-47 976,-29 851,-29"/>
<text text-anchor="middle" x="913.5" y="-35.8" font-family="Helvetica,sans-Serif" font-size="9.00">mappel::MCMCAdaptor2D</text>
</a>
</g>
</g>
<!-- Node8&#45;&gt;Node7 -->
<g id="edge7" class="edge"><title>Node8&#45;&gt;Node7</title>
<path fill="none" stroke="midnightblue" d="M986.595,-39.0349C1066.12,-40.1764 1192.88,-41.9958 1268.85,-43.0864"/>
<polygon fill="midnightblue" stroke="midnightblue" points="986.227,-35.5293 976.177,-38.8853 986.126,-42.5286 986.227,-35.5293"/>
</g>
<!-- Node9&#45;&gt;Node8 -->
<g id="edge8" class="edge"><title>Node9&#45;&gt;Node8</title>
<path fill="none" stroke="midnightblue" d="M685.704,-141.155C690.301,-138.364 694.529,-135.016 698,-131 721.265,-104.083 689.021,-76.1933 716,-53 759.846,-15.306 831.438,-20.8428 875.033,-28.9595"/>
<polygon fill="midnightblue" stroke="midnightblue" points="683.814,-138.19 676.509,-145.864 687.005,-144.421 683.814,-138.19"/>
</g>
<!-- Node14 -->
<g id="node14" class="node"><title>Node14</title>
<g id="a_node14"><a xlink:href="classmappel_1_1MCMCAdaptor1Ds.html" target="_top" xlink:title="mappel::MCMCAdaptor1Ds">
<polygon fill="white" stroke="black" points="849,-143 849,-161 978,-161 978,-143 849,-143"/>
<text text-anchor="middle" x="913.5" y="-149.8" font-family="Helvetica,sans-Serif" font-size="9.00">mappel::MCMCAdaptor1Ds</text>
</a>
</g>
</g>
<!-- Node9&#45;&gt;Node14 -->
<g id="edge17" class="edge"><title>Node9&#45;&gt;Node14</title>
<path fill="none" stroke="midnightblue" d="M708.318,-154.219C751.794,-153.747 806.753,-153.149 848.697,-152.694"/>
<polygon fill="midnightblue" stroke="midnightblue" points="708.058,-150.722 698.096,-154.33 708.134,-157.721 708.058,-150.722"/>
</g>
<!-- Node10 -->
<g id="node10" class="node"><title>Node10</title>
<g id="a_node10"><a xlink:href="classmappel_1_1MCMCAdaptorBase.html" target="_top" xlink:title="mappel::MCMCAdaptorBase">
<polygon fill="white" stroke="black" points="363,-100 363,-118 497,-118 497,-100 363,-100"/>
<text text-anchor="middle" x="430" y="-106.8" font-family="Helvetica,sans-Serif" font-size="9.00">mappel::MCMCAdaptorBase</text>
</a>
</g>
</g>
<!-- Node10&#45;&gt;Node9 -->
<g id="edge10" class="edge"><title>Node10&#45;&gt;Node9</title>
<path fill="none" stroke="midnightblue" d="M481.189,-120.345C516.067,-128.229 561.93,-138.596 594.378,-145.931"/>
<polygon fill="midnightblue" stroke="midnightblue" points="481.731,-116.879 471.205,-118.088 480.187,-123.707 481.731,-116.879"/>
</g>
<!-- Node11&#45;&gt;Node1 -->
<g id="edge12" class="edge"><title>Node11&#45;&gt;Node1</title>
<path fill="none" stroke="#9a32cd" stroke-dasharray="5,2" d="M1533.67,-253.474C1557.01,-247.618 1585.57,-240.227 1611,-233 1627.43,-228.331 1645.69,-222.661 1660.3,-218.005"/>
<polygon fill="#9a32cd" stroke="#9a32cd" points="1532.53,-250.15 1523.68,-255.967 1534.23,-256.942 1532.53,-250.15"/>
<text text-anchor="middle" x="1592" y="-256.8" font-family="Helvetica,sans-Serif" font-size="9.00"> x_model</text>
<text text-anchor="middle" x="1592" y="-246.8" font-family="Helvetica,sans-Serif" font-size="9.00">y_model</text>
</g>
<!-- Node12&#45;&gt;Node11 -->
<g id="edge13" class="edge"><title>Node12&#45;&gt;Node11</title>
<path fill="none" stroke="midnightblue" d="M1241.77,-248.662C1297.91,-252.441 1376.01,-257.698 1428.32,-261.218"/>
<polygon fill="midnightblue" stroke="midnightblue" points="1241.76,-245.154 1231.55,-247.975 1241.29,-252.138 1241.76,-245.154"/>
</g>
<!-- Node13 -->
<g id="node13" class="node"><title>Node13</title>
<g id="a_node13"><a xlink:href="classmappel_1_1ImageFormat1DBase.html" target="_top" xlink:title="A virtual base class for 2D image localization objectives. ">
<polygon fill="white" stroke="black" points="844,-303 844,-321 983,-321 983,-303 844,-303"/>
<text text-anchor="middle" x="913.5" y="-309.8" font-family="Helvetica,sans-Serif" font-size="9.00">mappel::ImageFormat1DBase</text>
</a>
</g>
</g>
<!-- Node13&#45;&gt;Node12 -->
<g id="edge15" class="edge"><title>Node13&#45;&gt;Node12</title>
<path fill="none" stroke="midnightblue" d="M984.31,-301.151C1012.44,-296.078 1045.02,-289.304 1074,-281 1100.74,-273.34 1130.47,-261.392 1149.77,-253.156"/>
<polygon fill="midnightblue" stroke="midnightblue" points="983.403,-297.757 974.165,-302.943 984.621,-304.65 983.403,-297.757"/>
</g>
<!-- Node17 -->
<g id="node17" class="node"><title>Node17</title>
<g id="a_node17"><a xlink:href="classmappel_1_1PoissonNoise1DObjective.html" target="_top" xlink:title="A base class for 1D objectives with Poisson read noise. This objective function and its subclasses ar...">
<polygon fill="white" stroke="black" points="1092,-311 1092,-329 1251,-329 1251,-311 1092,-311"/>
<text text-anchor="middle" x="1171.5" y="-317.8" font-family="Helvetica,sans-Serif" font-size="9.00">mappel::PoissonNoise1DObjective</text>
</a>
</g>
</g>
<!-- Node13&#45;&gt;Node17 -->
<g id="edge22" class="edge"><title>Node13&#45;&gt;Node17</title>
<path fill="none" stroke="midnightblue" d="M993.504,-314.469C1024.73,-315.445 1060.54,-316.564 1091.74,-317.539"/>
<polygon fill="midnightblue" stroke="midnightblue" points="993.208,-310.958 983.103,-314.144 992.989,-317.955 993.208,-310.958"/>
</g>
<!-- Node14&#45;&gt;Node12 -->
<g id="edge16" class="edge"><title>Node14&#45;&gt;Node12</title>
<path fill="none" stroke="midnightblue" d="M949.507,-164.581C1001.81,-183.376 1099.1,-218.34 1145.12,-234.879"/>
<polygon fill="midnightblue" stroke="midnightblue" points="950.577,-161.246 939.982,-161.158 948.209,-167.833 950.577,-161.246"/>
</g>
<!-- Node15 -->
<g id="node15" class="node"><title>Node15</title>
<g id="a_node15"><a xlink:title="STL class. ">
<polygon fill="white" stroke="#bfbfbf" points="596.5,-214 596.5,-232 674.5,-232 674.5,-214 596.5,-214"/>
<text text-anchor="middle" x="635.5" y="-220.8" font-family="Helvetica,sans-Serif" font-size="9.00">std::vector&lt; T &gt;</text>
</a>
</g>
</g>
<!-- Node15&#45;&gt;Node1 -->
<g id="edge29" class="edge"><title>Node15&#45;&gt;Node1</title>
<path fill="none" stroke="#9a32cd" stroke-dasharray="5,2" d="M684.868,-213.682C739.809,-203.923 832.255,-190 912.5,-190 912.5,-190 912.5,-190 1486.5,-190 1534.46,-190 1588.57,-195.402 1628.62,-200.445"/>
<polygon fill="#9a32cd" stroke="#9a32cd" points="683.945,-210.292 674.726,-215.512 685.189,-217.18 683.945,-210.292"/>
<text text-anchor="middle" x="1171.5" y="-192.8" font-family="Helvetica,sans-Serif" font-size="9.00"> prior_types</text>
</g>
<!-- Node15&#45;&gt;Node12 -->
<g id="edge19" class="edge"><title>Node15&#45;&gt;Node12</title>
<path fill="none" stroke="#9a32cd" stroke-dasharray="5,2" d="M685.129,-224.912C783.263,-228.772 1004.69,-237.479 1111.14,-241.666"/>
<polygon fill="#9a32cd" stroke="#9a32cd" points="685.034,-221.406 674.904,-224.51 684.759,-228.401 685.034,-221.406"/>
<text text-anchor="middle" x="913.5" y="-239.8" font-family="Helvetica,sans-Serif" font-size="9.00"> prior_types</text>
</g>
<!-- Node15&#45;&gt;Node18 -->
<g id="edge25" class="edge"><title>Node15&#45;&gt;Node18</title>
<path fill="none" stroke="orange" stroke-dasharray="5,2" d="M684.947,-230.876C739.365,-239.92 820.831,-254.135 826,-259 849.705,-281.312 821.239,-306.726 844,-330 848.056,-334.147 852.931,-337.412 858.188,-339.978"/>
<polygon fill="orange" stroke="orange" points="685.227,-227.375 674.79,-229.196 684.084,-234.281 685.227,-227.375"/>
<text text-anchor="middle" x="771" y="-261.8" font-family="Helvetica,sans-Serif" font-size="9.00"> &lt; std::string &gt;</text>
</g>
<!-- Node16 -->
<g id="node16" class="node"><title>Node16</title>
<polygon fill="white" stroke="#bfbfbf" points="415.5,-208 415.5,-226 444.5,-226 444.5,-208 415.5,-208"/>
<text text-anchor="middle" x="430" y="-214.8" font-family="Helvetica,sans-Serif" font-size="9.00">T</text>
</g>
<!-- Node16&#45;&gt;Node15 -->
<g id="edge20" class="edge"><title>Node16&#45;&gt;Node15</title>
<path fill="none" stroke="#9a32cd" stroke-dasharray="5,2" d="M454.854,-217.703C489.725,-218.731 554.973,-220.655 596.499,-221.88"/>
<polygon fill="#9a32cd" stroke="#9a32cd" points="454.767,-214.199 444.668,-217.403 454.561,-221.196 454.767,-214.199"/>
<text text-anchor="middle" x="535" y="-223.8" font-family="Helvetica,sans-Serif" font-size="9.00"> elements</text>
</g>
<!-- Node17&#45;&gt;Node11 -->
<g id="edge21" class="edge"><title>Node17&#45;&gt;Node11</title>
<path fill="none" stroke="midnightblue" d="M1233.84,-309.186C1292.09,-298.918 1378.66,-283.658 1433.3,-274.025"/>
<polygon fill="midnightblue" stroke="midnightblue" points="1232.91,-305.796 1223.67,-310.979 1234.13,-312.69 1232.91,-305.796"/>
</g>
<!-- Node18&#45;&gt;Node17 -->
<g id="edge23" class="edge"><title>Node18&#45;&gt;Node17</title>
<path fill="none" stroke="#9a32cd" stroke-dasharray="5,2" d="M980.018,-341.578C1014.01,-337.727 1055.8,-332.993 1091.57,-328.942"/>
<polygon fill="#9a32cd" stroke="#9a32cd" points="979.275,-338.14 969.733,-342.743 980.063,-345.095 979.275,-338.14"/>
<text text-anchor="middle" x="1037.5" y="-341.8" font-family="Helvetica,sans-Serif" font-size="9.00"> estimator_names</text>
</g>
<!-- Node19&#45;&gt;Node11 -->
<g id="edge26" class="edge"><title>Node19&#45;&gt;Node11</title>
<path fill="none" stroke="midnightblue" d="M836.317,-366.69C838.911,-366.808 841.48,-366.913 844,-367 905.741,-369.141 921.312,-370.328 983,-367 1169.16,-356.957 1221.54,-366.143 1398,-306 1423.48,-297.315 1451.35,-283.203 1468.38,-274.011"/>
<polygon fill="midnightblue" stroke="midnightblue" points="836.399,-363.189 826.233,-366.17 836.039,-370.18 836.399,-363.189"/>
</g>
</g>
</svg>
        <g id="navigator" transform="translate(0 0)" fill="#404254">
                <rect fill="#f2f5e9" fill-opacity="0.5" stroke="#606060" stroke-width=".5" x="0" y="0" width="60" height="60"/>
                <use id="zoomplus" xlink:href="#zoomPlus" x="17" y="9" onmousedown="handleZoom(evt,'in')"/>
                <use id="zoomminus" xlink:href="#zoomMin" x="42" y="9" onmousedown="handleZoom(evt,'out')"/>
                <use id="reset" xlink:href="#resetDef" x="30" y="36" onmousedown="handleReset()"/>
                <g id="arrowUp" xlink:href="#dirArrow" transform="translate(30 24)" onmousedown="handlePan(0,-1)">
                  <use xlink:href="#rim" fill="#404040">
                        <set attributeName="fill" to="#808080" begin="arrowUp.mouseover" end="arrowUp.mouseout"/>
                  </use>
                  <path fill="none" stroke="white" stroke-width="1.5" d="M0,-3.0v7 M-2.5,-0.5L0,-3.0L2.5,-0.5"/>
                </g>
                <g id="arrowRight" xlink:href="#dirArrow" transform="rotate(90) translate(36 -43)" onmousedown="handlePan(1,0)">
                  <use xlink:href="#rim" fill="#404040">
                        <set attributeName="fill" to="#808080" begin="arrowRight.mouseover" end="arrowRight.mouseout"/>
                  </use>
                  <path fill="none" stroke="white" stroke-width="1.5" d="M0,-3.0v7 M-2.5,-0.5L0,-3.0L2.5,-0.5"/>
                </g>
                <g id="arrowDown" xlink:href="#dirArrow" transform="rotate(180) translate(-30 -48)" onmousedown="handlePan(0,1)">
                  <use xlink:href="#rim" fill="#404040">
                        <set attributeName="fill" to="#808080" begin="arrowDown.mouseover" end="arrowDown.mouseout"/>
                  </use>
                  <path fill="none" stroke="white" stroke-width="1.5" d="M0,-3.0v7 M-2.5,-0.5L0,-3.0L2.5,-0.5"/>
                </g>
                <g id="arrowLeft" xlink:href="#dirArrow" transform="rotate(270) translate(-36 17)" onmousedown="handlePan(-1,0)">
                  <use xlink:href="#rim" fill="#404040">
                        <set attributeName="fill" to="#808080" begin="arrowLeft.mouseover" end="arrowLeft.mouseout"/>
                  </use>
                  <path fill="none" stroke="white" stroke-width="1.5" d="M0,-3.0v7 M-2.5,-0.5L0,-3.0L2.5,-0.5"/>
                </g>
        </g>
        <svg viewBox="0 0 15 15" width="100%" height="30px" preserveAspectRatio="xMaxYMin meet">
         <g id="arrow_out" transform="scale(0.3 0.3)">
          <a xlink:href="classmappel_1_1Gauss2DsModel__coll__graph_org.svg" target="_base">
           <rect id="button" ry="5" rx="5" y="6" x="6" height="38" width="38"
                fill="#f2f5e9" fill-opacity="0.5" stroke="#606060" stroke-width="1.0"/>
           <path id="arrow"
             d="M 11.500037,31.436501 C 11.940474,20.09759 22.043105,11.32322 32.158766,21.979434 L 37.068811,17.246167 C 37.068811,17.246167 37.088388,32 37.088388,32 L 22.160133,31.978069 C 22.160133,31.978069 26.997745,27.140456 26.997745,27.140456 C 18.528582,18.264221 13.291696,25.230495 11.500037,31.436501 z"
             style="fill:#404040;"/>
          </a>
         </g>
        </svg>
</svg>
