<?xml version="1.0" encoding="UTF-8" standalone="no"?>
<!DOCTYPE svg PUBLIC "-//W3C//DTD SVG 1.1//EN"
 "http://www.w3.org/Graphics/SVG/1.1/DTD/svg11.dtd">
<!-- Generated by graphviz version 2.38.0 (20140413.2041)
 -->
<!-- Title: mappel::IterativeMaximizer::MaximizerData::set_stencil Pages: 1 -->
<svg width="500pt" height="131pt"
 viewBox="0.00 0.00 500.00 131.00" xmlns="http://www.w3.org/2000/svg" xmlns:xlink="http://www.w3.org/1999/xlink">
<g id="graph0" class="graph" transform="scale(1 1) rotate(0) translate(4 127)">
<title>mappel::IterativeMaximizer::MaximizerData::set_stencil</title>
<polygon fill="white" stroke="none" points="-4,4 -4,-127 496,-127 496,4 -4,4"/>
<!-- Node1 -->
<g id="node1" class="node"><title>Node1</title>
<polygon fill="#bfbfbf" stroke="black" points="0,-47.5 0,-75.5 131,-75.5 131,-47.5 0,-47.5"/>
<text text-anchor="start" x="8" y="-64.3" font-family="Helvetica,sans-Serif" font-size="9.00">mappel::IterativeMaximizer</text>
<text text-anchor="middle" x="65.5" y="-54.3" font-family="Helvetica,sans-Serif" font-size="9.00">::MaximizerData::set_stencil</text>
</g>
<!-- Node2 -->
<g id="node2" class="node"><title>Node2</title>
<g id="a_node2"><a xlink:href="classmappel_1_1IterativeMaximizer.html#ac033d2b23a6a861e6d7adbe35f17624e" target="_top" xlink:title="mappel::IterativeMaximizer\l::backtrack">
<polygon fill="white" stroke="black" points="167,-47.5 167,-75.5 293,-75.5 293,-47.5 167,-47.5"/>
<text text-anchor="start" x="175" y="-64.3" font-family="Helvetica,sans-Serif" font-size="9.00">mappel::IterativeMaximizer</text>
<text text-anchor="middle" x="230" y="-54.3" font-family="Helvetica,sans-Serif" font-size="9.00">::backtrack</text>
</a>
</g>
</g>
<!-- Node1&#45;&gt;Node2 -->
<g id="edge1" class="edge"><title>Node1&#45;&gt;Node2</title>
<path fill="none" stroke="midnightblue" d="M141.215,-61.5C149.812,-61.5 158.508,-61.5 166.913,-61.5"/>
<polygon fill="midnightblue" stroke="midnightblue" points="141.191,-58.0001 131.191,-61.5 141.191,-65.0001 141.191,-58.0001"/>
</g>
<!-- Node3 -->
<g id="node3" class="node"><title>Node3</title>
<g id="a_node3"><a xlink:href="classmappel_1_1NewtonDiagonalMaximizer.html#ac445064041b5c7f3c147c08a0065cd68" target="_top" xlink:title="mappel::NewtonDiagonalMaximizer\l::maximize">
<polygon fill="white" stroke="black" points="329,-94.5 329,-122.5 492,-122.5 492,-94.5 329,-94.5"/>
<text text-anchor="start" x="337" y="-111.3" font-family="Helvetica,sans-Serif" font-size="9.00">mappel::NewtonDiagonalMaximizer</text>
<text text-anchor="middle" x="410.5" y="-101.3" font-family="Helvetica,sans-Serif" font-size="9.00">::maximize</text>
</a>
</g>
</g>
<!-- Node2&#45;&gt;Node3 -->
<g id="edge2" class="edge"><title>Node2&#45;&gt;Node3</title>
<path fill="none" stroke="midnightblue" d="M294.328,-78.1747C314.597,-83.5115 336.819,-89.3626 356.29,-94.4894"/>
<polygon fill="midnightblue" stroke="midnightblue" points="295.118,-74.7633 284.556,-75.6015 293.335,-81.5325 295.118,-74.7633"/>
</g>
<!-- Node4 -->
<g id="node4" class="node"><title>Node4</title>
<g id="a_node4"><a xlink:href="classmappel_1_1NewtonMaximizer.html#aca7e3071f17ef6f381878eb6151c86d7" target="_top" xlink:title="mappel::NewtonMaximizer\l::maximize">
<polygon fill="white" stroke="black" points="348,-47.5 348,-75.5 473,-75.5 473,-47.5 348,-47.5"/>
<text text-anchor="start" x="356" y="-64.3" font-family="Helvetica,sans-Serif" font-size="9.00">mappel::NewtonMaximizer</text>
<text text-anchor="middle" x="410.5" y="-54.3" font-family="Helvetica,sans-Serif" font-size="9.00">::maximize</text>
</a>
</g>
</g>
<!-- Node2&#45;&gt;Node4 -->
<g id="edge3" class="edge"><title>Node2&#45;&gt;Node4</title>
<path fill="none" stroke="midnightblue" d="M303.286,-61.5C318.062,-61.5 333.481,-61.5 347.844,-61.5"/>
<polygon fill="midnightblue" stroke="midnightblue" points="303.18,-58.0001 293.18,-61.5 303.18,-65.0001 303.18,-58.0001"/>
</g>
<!-- Node5 -->
<g id="node5" class="node"><title>Node5</title>
<g id="a_node5"><a xlink:href="classmappel_1_1QuasiNewtonMaximizer.html#ab4d32d8ba90d4355262a228753619b9f" target="_top" xlink:title="mappel::QuasiNewtonMaximizer\l::maximize">
<polygon fill="white" stroke="black" points="336,-0.5 336,-28.5 485,-28.5 485,-0.5 336,-0.5"/>
<text text-anchor="start" x="344" y="-17.3" font-family="Helvetica,sans-Serif" font-size="9.00">mappel::QuasiNewtonMaximizer</text>
<text text-anchor="middle" x="410.5" y="-7.3" font-family="Helvetica,sans-Serif" font-size="9.00">::maximize</text>
</a>
</g>
</g>
<!-- Node2&#45;&gt;Node5 -->
<g id="edge4" class="edge"><title>Node2&#45;&gt;Node5</title>
<path fill="none" stroke="midnightblue" d="M294.328,-44.8253C314.597,-39.4885 336.819,-33.6374 356.29,-28.5106"/>
<polygon fill="midnightblue" stroke="midnightblue" points="293.335,-41.4675 284.556,-47.3985 295.118,-48.2367 293.335,-41.4675"/>
</g>
</g>
</svg>
