<?xml version="1.0" encoding="UTF-8" standalone="no"?>
<!DOCTYPE svg PUBLIC "-//W3C//DTD SVG 1.1//EN"
 "http://www.w3.org/Graphics/SVG/1.1/DTD/svg11.dtd">
<!-- Generated by graphviz version 2.38.0 (20140413.2041)
 -->
<!-- Title: mappel::PointEmitterModel::get_lbound Pages: 1 -->
<svg width="457pt" height="109pt"
 viewBox="0.00 0.00 457.00 109.16" xmlns="http://www.w3.org/2000/svg" xmlns:xlink="http://www.w3.org/1999/xlink">
<g id="graph0" class="graph" transform="scale(1 1) rotate(0) translate(4 105.157)">
<title>mappel::PointEmitterModel::get_lbound</title>
<polygon fill="white" stroke="none" points="-4,4 -4,-105.157 453,-105.157 453,4 -4,4"/>
<!-- Node1 -->
<g id="node1" class="node"><title>Node1</title>
<polygon fill="#bfbfbf" stroke="black" points="0,-57.5 0,-85.5 127,-85.5 127,-57.5 0,-57.5"/>
<text text-anchor="start" x="8" y="-74.3" font-family="Helvetica,sans-Serif" font-size="9.00">mappel::PointEmitterModel</text>
<text text-anchor="middle" x="63.5" y="-64.3" font-family="Helvetica,sans-Serif" font-size="9.00">::get_lbound</text>
</g>
<!-- Node2 -->
<g id="node2" class="node"><title>Node2</title>
<g id="a_node2"><a xlink:href="classmappel_1_1MCMCAdaptor1D.html#ad4dce0f73f10af2b3cd3d3a09813dc19" target="_top" xlink:title="mappel::MCMCAdaptor1D\l::MCMCAdaptor1D">
<polygon fill="white" stroke="black" points="324,-52.5 324,-80.5 449,-80.5 449,-52.5 324,-52.5"/>
<text text-anchor="start" x="332" y="-69.3" font-family="Helvetica,sans-Serif" font-size="9.00">mappel::MCMCAdaptor1D</text>
<text text-anchor="middle" x="386.5" y="-59.3" font-family="Helvetica,sans-Serif" font-size="9.00">::MCMCAdaptor1D</text>
</a>
</g>
</g>
<!-- Node1&#45;&gt;Node2 -->
<g id="edge1" class="edge"><title>Node1&#45;&gt;Node2</title>
<path fill="none" stroke="midnightblue" d="M122.151,-87.9839C135.457,-91.1058 149.631,-93.8948 163,-95.5 218.159,-102.123 233.024,-103.503 288,-95.5 308.097,-92.5745 329.814,-86.4253 347.639,-80.539"/>
<polygon fill="midnightblue" stroke="midnightblue" points="122.719,-84.5197 112.174,-85.5457 121.057,-91.3196 122.719,-84.5197"/>
</g>
<!-- Node3 -->
<g id="node3" class="node"><title>Node3</title>
<g id="a_node3"><a xlink:href="classmappel_1_1MCMCAdaptor2D.html#a281870667155a0e105ab77fffca9ab3f" target="_top" xlink:title="mappel::MCMCAdaptor2D\l::MCMCAdaptor2D">
<polygon fill="white" stroke="black" points="163,-57.5 163,-85.5 288,-85.5 288,-57.5 163,-57.5"/>
<text text-anchor="start" x="171" y="-74.3" font-family="Helvetica,sans-Serif" font-size="9.00">mappel::MCMCAdaptor2D</text>
<text text-anchor="middle" x="225.5" y="-64.3" font-family="Helvetica,sans-Serif" font-size="9.00">::MCMCAdaptor2D</text>
</a>
</g>
</g>
<!-- Node1&#45;&gt;Node3 -->
<g id="edge2" class="edge"><title>Node1&#45;&gt;Node3</title>
<path fill="none" stroke="midnightblue" d="M137.555,-71.5C146.044,-71.5 154.639,-71.5 162.953,-71.5"/>
<polygon fill="midnightblue" stroke="midnightblue" points="137.277,-68.0001 127.277,-71.5 137.277,-75.0001 137.277,-68.0001"/>
</g>
<!-- Node4 -->
<g id="node4" class="node"><title>Node4</title>
<g id="a_node4"><a xlink:href="classmappel_1_1MCMCAdaptor1D.html#ae79ee3845fbdd0e378f00eeebf8ccef1" target="_top" xlink:title="mappel::MCMCAdaptor1D\l::set_background_mcmc\l_sampling">
<polygon fill="white" stroke="black" points="163,-0.5 163,-38.5 288,-38.5 288,-0.5 163,-0.5"/>
<text text-anchor="start" x="171" y="-27.3" font-family="Helvetica,sans-Serif" font-size="9.00">mappel::MCMCAdaptor1D</text>
<text text-anchor="start" x="171" y="-17.3" font-family="Helvetica,sans-Serif" font-size="9.00">::set_background_mcmc</text>
<text text-anchor="middle" x="225.5" y="-7.3" font-family="Helvetica,sans-Serif" font-size="9.00">_sampling</text>
</a>
</g>
</g>
<!-- Node1&#45;&gt;Node4 -->
<g id="edge3" class="edge"><title>Node1&#45;&gt;Node4</title>
<path fill="none" stroke="midnightblue" d="M117.7,-54.2099C133.142,-49.1914 150.09,-43.6834 165.845,-38.5627"/>
<polygon fill="midnightblue" stroke="midnightblue" points="116.227,-51.0085 107.798,-57.4281 118.39,-57.6657 116.227,-51.0085"/>
</g>
<!-- Node4&#45;&gt;Node2 -->
<g id="edge4" class="edge"><title>Node4&#45;&gt;Node2</title>
<path fill="none" stroke="midnightblue" d="M298.132,-40.6742C311.561,-44.6439 325.293,-48.7031 337.775,-52.3925"/>
<polygon fill="midnightblue" stroke="midnightblue" points="299.011,-37.2844 288.429,-37.806 297.026,-43.9972 299.011,-37.2844"/>
</g>
</g>
</svg>
