<?xml version="1.0" encoding="UTF-8" standalone="no"?>
<!DOCTYPE svg PUBLIC "-//W3C//DTD SVG 1.1//EN"
 "http://www.w3.org/Graphics/SVG/1.1/DTD/svg11.dtd">
<!-- Generated by graphviz version 2.38.0 (20140413.2041)
 -->
<!-- Title: mappel::Gauss2DsxyModel Pages: 1 -->
<!--zoomable 381 -->
<svg id="main" version="1.1" xmlns="http://www.w3.org/2000/svg" xmlns:xlink="http://www.w3.org/1999/xlink" xml:space="preserve" onload="init(evt)">
<style type="text/css"><![CDATA[
.edge:hover path { stroke: red; }
.edge:hover polygon { stroke: red; fill: red; }
]]></style>
<script type="text/javascript"><![CDATA[
var edges = document.getElementsByTagName('g');
if (edges && edges.length) {
  for (var i=0;i<edges.length;i++) {
    if (edges[i].id.substr(0,4)=='edge') {
      edges[i].setAttribute('class','edge');
    }
  }
}
]]></script>
        <defs>
                <circle id="rim" cx="0" cy="0" r="7"/>
                <circle id="rim2" cx="0" cy="0" r="3.5"/>
                <g id="zoomPlus">
                        <use xlink:href="#rim" fill="#404040">
                                <set attributeName="fill" to="#808080" begin="zoomplus.mouseover" end="zoomplus.mouseout"/>
                        </use>
                        <path d="M-4,0h8M0,-4v8" fill="none" stroke="white" stroke-width="1.5" pointer-events="none"/>
                </g>
                <g id="zoomMin">
                        <use xlink:href="#rim" fill="#404040">
                                <set attributeName="fill" to="#808080" begin="zoomminus.mouseover" end="zoomminus.mouseout"/>
                        </use>
                        <path d="M-4,0h8" fill="none" stroke="white" stroke-width="1.5" pointer-events="none"/>
                </g>
                <g id="dirArrow">
                        <path fill="none" stroke="white" stroke-width="1.5" d="M0,-3.0v7 M-2.5,-0.5L0,-3.0L2.5,-0.5"/>
                </g>
               <g id="resetDef">
                       <use xlink:href="#rim2" fill="#404040">
                               <set attributeName="fill" to="#808080" begin="reset.mouseover" end="reset.mouseout"/>
                       </use>
               </g>
        </defs>

<script type="text/javascript">
var viewWidth = 1638;
var viewHeight = 381;
var sectionId = 'dynsection-1';
</script>
<script xlink:href="svgpan.js"/>
<svg id="graph" class="graph">
<g id="viewport">
<title>mappel::Gauss2DsxyModel</title>
<polygon fill="white" stroke="none" points="-4,4 -4,-376.5 1634,-376.5 1634,4 -4,4"/>
<!-- Node1 -->
<g id="node1" class="node"><title>Node1</title>
<polygon fill="#bfbfbf" stroke="black" points="1501,-38.5 1501,-56.5 1630,-56.5 1630,-38.5 1501,-38.5"/>
<text text-anchor="middle" x="1565.5" y="-45.3" font-family="Helvetica,sans-Serif" font-size="9.00">mappel::Gauss2DsxyModel</text>
</g>
<!-- Node2 -->
<g id="node2" class="node"><title>Node2</title>
<g id="a_node2"><a xlink:href="classmappel_1_1PointEmitterModel.html" target="_top" xlink:title="A virtual Base type for point emitter localization models. ">
<polygon fill="white" stroke="black" points="366.5,-108.5 366.5,-126.5 493.5,-126.5 493.5,-108.5 366.5,-108.5"/>
<text text-anchor="middle" x="430" y="-115.3" font-family="Helvetica,sans-Serif" font-size="9.00">mappel::PointEmitterModel</text>
</a>
</g>
</g>
<!-- Node2&#45;&gt;Node1 -->
<g id="edge1" class="edge"><title>Node2&#45;&gt;Node1</title>
<path fill="none" stroke="midnightblue" d="M455.285,-103.253C492.531,-82.7862 566.592,-47.5 634.5,-47.5 634.5,-47.5 634.5,-47.5 1358.5,-47.5 1406.24,-47.5 1460.21,-47.5 1500.93,-47.5"/>
<polygon fill="midnightblue" stroke="midnightblue" points="453.217,-100.4 446.212,-108.349 456.645,-106.503 453.217,-100.4"/>
</g>
<!-- Node8 -->
<g id="node8" class="node"><title>Node8</title>
<g id="a_node8"><a xlink:href="classmappel_1_1Gauss1DsModel.html" target="_top" xlink:title="Base class for 1D Gaussian PSF with variable Gaussian sigma (standard deviation) measured in units of...">
<polygon fill="white" stroke="black" points="1111.5,-194.5 1111.5,-212.5 1231.5,-212.5 1231.5,-194.5 1111.5,-194.5"/>
<text text-anchor="middle" x="1171.5" y="-201.3" font-family="Helvetica,sans-Serif" font-size="9.00">mappel::Gauss1DsModel</text>
</a>
</g>
</g>
<!-- Node2&#45;&gt;Node8 -->
<g id="edge8" class="edge"><title>Node2&#45;&gt;Node8</title>
<path fill="none" stroke="midnightblue" d="M503.737,-117.352C648.693,-117.711 968.694,-121.954 1074,-151.5 1106.43,-160.6 1140.15,-181.974 1157.87,-194.3"/>
<polygon fill="midnightblue" stroke="midnightblue" points="503.614,-113.852 493.608,-117.333 503.601,-120.852 503.614,-113.852"/>
</g>
<!-- Node11 -->
<g id="node11" class="node"><title>Node11</title>
<g id="a_node11"><a xlink:href="classmappel_1_1MCMCAdaptor1D.html" target="_top" xlink:title="mappel::MCMCAdaptor1D">
<polygon fill="white" stroke="black" points="573,-198.5 573,-216.5 698,-216.5 698,-198.5 573,-198.5"/>
<text text-anchor="middle" x="635.5" y="-205.3" font-family="Helvetica,sans-Serif" font-size="9.00">mappel::MCMCAdaptor1D</text>
</a>
</g>
</g>
<!-- Node2&#45;&gt;Node11 -->
<g id="edge12" class="edge"><title>Node2&#45;&gt;Node11</title>
<path fill="none" stroke="midnightblue" d="M458.989,-131.145C487.461,-144.875 532.967,-166.405 573,-183.5 585.122,-188.676 598.763,-194.045 610.113,-198.389"/>
<polygon fill="midnightblue" stroke="midnightblue" points="460.192,-127.839 449.666,-126.634 457.143,-134.14 460.192,-127.839"/>
</g>
<!-- Node17 -->
<g id="node17" class="node"><title>Node17</title>
<g id="a_node17"><a xlink:href="classmappel_1_1MAPEstimator.html" target="_top" xlink:title="A Mixin class to configure a for MLE estimation (null prior). ">
<polygon fill="white" stroke="black" points="716,-76.5 716,-94.5 826,-94.5 826,-76.5 716,-76.5"/>
<text text-anchor="middle" x="771" y="-83.3" font-family="Helvetica,sans-Serif" font-size="9.00">mappel::MAPEstimator</text>
</a>
</g>
</g>
<!-- Node2&#45;&gt;Node17 -->
<g id="edge23" class="edge"><title>Node2&#45;&gt;Node17</title>
<path fill="none" stroke="midnightblue" d="M503.846,-108.682C507.617,-108.271 511.352,-107.874 515,-107.5 584.178,-100.4 664.074,-93.759 715.731,-89.6692"/>
<polygon fill="midnightblue" stroke="midnightblue" points="503.368,-105.213 493.816,-109.797 504.141,-112.17 503.368,-105.213"/>
</g>
<!-- Node3 -->
<g id="node3" class="node"><title>Node3</title>
<polygon fill="white" stroke="#bfbfbf" points="125,-104.5 125,-122.5 202,-122.5 202,-104.5 125,-104.5"/>
<text text-anchor="middle" x="163.5" y="-111.3" font-family="Helvetica,sans-Serif" font-size="9.00">CompositeDist</text>
</g>
<!-- Node3&#45;&gt;Node2 -->
<g id="edge2" class="edge"><title>Node3&#45;&gt;Node2</title>
<path fill="none" stroke="#9a32cd" stroke-dasharray="5,2" d="M212.504,-113.372C248.877,-113.371 300.088,-113.574 345,-114.5 351.857,-114.641 359.028,-114.832 366.166,-115.049"/>
<polygon fill="#9a32cd" stroke="#9a32cd" points="212.185,-109.873 202.187,-113.378 212.189,-116.873 212.185,-109.873"/>
<text text-anchor="middle" x="282.5" y="-117.3" font-family="Helvetica,sans-Serif" font-size="9.00"> prior</text>
</g>
<!-- Node4 -->
<g id="node4" class="node"><title>Node4</title>
<g id="a_node4"><a xlink:title="STL class. ">
<polygon fill="white" stroke="#bfbfbf" points="135.5,-234.5 135.5,-252.5 191.5,-252.5 191.5,-234.5 135.5,-234.5"/>
<text text-anchor="middle" x="163.5" y="-241.3" font-family="Helvetica,sans-Serif" font-size="9.00">std::string</text>
</a>
</g>
</g>
<!-- Node4&#45;&gt;Node2 -->
<g id="edge3" class="edge"><title>Node4&#45;&gt;Node2</title>
<path fill="none" stroke="#9a32cd" stroke-dasharray="5,2" d="M169.883,-224.546C177.282,-202.218 192.864,-165.85 220,-147.5 232.032,-139.363 309.282,-129.802 366.38,-123.699"/>
<polygon fill="#9a32cd" stroke="#9a32cd" points="166.496,-223.65 166.893,-234.238 173.185,-225.714 166.496,-223.65"/>
<text text-anchor="middle" x="282.5" y="-150.3" font-family="Helvetica,sans-Serif" font-size="9.00"> DefaultSeperableInitEstimator</text>
</g>
<!-- Node7 -->
<g id="node7" class="node"><title>Node7</title>
<g id="a_node7"><a xlink:href="classmappel_1_1Gauss1DsMAP.html" target="_top" xlink:title="A 1D Gaussian with variable PSF sigma under an Poisson read noise assumption and MAP Objective...">
<polygon fill="white" stroke="black" points="1300.5,-194.5 1300.5,-212.5 1414.5,-212.5 1414.5,-194.5 1300.5,-194.5"/>
<text text-anchor="middle" x="1357.5" y="-201.3" font-family="Helvetica,sans-Serif" font-size="9.00">mappel::Gauss1DsMAP</text>
</a>
</g>
</g>
<!-- Node4&#45;&gt;Node7 -->
<g id="edge24" class="edge"><title>Node4&#45;&gt;Node7</title>
<path fill="none" stroke="#9a32cd" stroke-dasharray="5,2" d="M183.775,-259.095C225.68,-291.37 329.339,-362.5 429,-362.5 429,-362.5 429,-362.5 1172.5,-362.5 1264.96,-362.5 1333.88,-246.14 1351.87,-212.504"/>
<polygon fill="#9a32cd" stroke="#9a32cd" points="185.823,-256.254 175.794,-252.838 181.504,-261.762 185.823,-256.254"/>
<text text-anchor="middle" x="771" y="-365.3" font-family="Helvetica,sans-Serif" font-size="9.00"> name</text>
</g>
<!-- Node4&#45;&gt;Node8 -->
<g id="edge14" class="edge"><title>Node4&#45;&gt;Node8</title>
<path fill="none" stroke="#9a32cd" stroke-dasharray="5,2" d="M201.12,-231.309C240.589,-218.742 305.492,-199.722 363,-190.5 640.054,-146.074 977.416,-179.051 1111.48,-195.563"/>
<polygon fill="#9a32cd" stroke="#9a32cd" points="199.86,-228.038 191.413,-234.433 202.004,-234.701 199.86,-228.038"/>
<text text-anchor="middle" x="635.5" y="-173.3" font-family="Helvetica,sans-Serif" font-size="9.00"> DefaultPriorType</text>
</g>
<!-- Node16 -->
<g id="node16" class="node"><title>Node16</title>
<polygon fill="white" stroke="#bfbfbf" points="857.5,-315.5 857.5,-333.5 969.5,-333.5 969.5,-315.5 857.5,-315.5"/>
<text text-anchor="middle" x="913.5" y="-322.3" font-family="Helvetica,sans-Serif" font-size="9.00">std::vector&lt; std::string &gt;</text>
</g>
<!-- Node4&#45;&gt;Node16 -->
<g id="edge20" class="edge"><title>Node4&#45;&gt;Node16</title>
<path fill="none" stroke="#9a32cd" stroke-dasharray="5,2" d="M201.372,-252.362C241.053,-261.562 306.133,-275.68 363,-283.5 542.831,-308.23 757.968,-318.825 857.275,-322.652"/>
<polygon fill="#9a32cd" stroke="#9a32cd" points="202.144,-248.948 191.609,-250.079 200.55,-255.764 202.144,-248.948"/>
<text text-anchor="middle" x="535" y="-306.3" font-family="Helvetica,sans-Serif" font-size="9.00"> elements</text>
</g>
<!-- Node5 -->
<g id="node5" class="node"><title>Node5</title>
<g id="a_node5"><a xlink:title="STL class. ">
<polygon fill="white" stroke="#bfbfbf" points="0,-229.5 0,-257.5 88,-257.5 88,-229.5 0,-229.5"/>
<text text-anchor="start" x="8" y="-246.3" font-family="Helvetica,sans-Serif" font-size="9.00">std::basic_string&lt;</text>
<text text-anchor="middle" x="44" y="-236.3" font-family="Helvetica,sans-Serif" font-size="9.00"> char &gt;</text>
</a>
</g>
</g>
<!-- Node5&#45;&gt;Node4 -->
<g id="edge4" class="edge"><title>Node5&#45;&gt;Node4</title>
<path fill="none" stroke="midnightblue" d="M98.287,-243.5C111.161,-243.5 124.389,-243.5 135.467,-243.5"/>
<polygon fill="midnightblue" stroke="midnightblue" points="98.0855,-240 88.0855,-243.5 98.0854,-247 98.0855,-240"/>
</g>
<!-- Node6 -->
<g id="node6" class="node"><title>Node6</title>
<g id="a_node6"><a xlink:href="classmappel_1_1ImageFormat2DBase.html" target="_top" xlink:title="A virtual base class for 2D image localization objectives. ">
<polygon fill="white" stroke="black" points="1288,-0.5 1288,-18.5 1427,-18.5 1427,-0.5 1288,-0.5"/>
<text text-anchor="middle" x="1357.5" y="-7.3" font-family="Helvetica,sans-Serif" font-size="9.00">mappel::ImageFormat2DBase</text>
</a>
</g>
</g>
<!-- Node6&#45;&gt;Node1 -->
<g id="edge5" class="edge"><title>Node6&#45;&gt;Node1</title>
<path fill="none" stroke="midnightblue" d="M1417.18,-20.324C1448.32,-26.0693 1486.15,-33.047 1515.67,-38.4934"/>
<polygon fill="midnightblue" stroke="midnightblue" points="1417.79,-16.8777 1407.32,-18.5055 1416.52,-23.7615 1417.79,-16.8777"/>
</g>
<!-- Node7&#45;&gt;Node1 -->
<g id="edge6" class="edge"><title>Node7&#45;&gt;Node1</title>
<path fill="none" stroke="#9a32cd" stroke-dasharray="5,2" d="M1378.64,-188.249C1421.05,-156.129 1518.47,-82.3584 1552.5,-56.5865"/>
<polygon fill="#9a32cd" stroke="#9a32cd" points="1376.32,-185.611 1370.47,-194.438 1380.55,-191.192 1376.32,-185.611"/>
<text text-anchor="middle" x="1464" y="-148.3" font-family="Helvetica,sans-Serif" font-size="9.00"> x_model</text>
<text text-anchor="middle" x="1464" y="-138.3" font-family="Helvetica,sans-Serif" font-size="9.00">y_model</text>
</g>
<!-- Node8&#45;&gt;Node7 -->
<g id="edge7" class="edge"><title>Node8&#45;&gt;Node7</title>
<path fill="none" stroke="midnightblue" d="M1241.94,-203.5C1261.18,-203.5 1281.81,-203.5 1300.2,-203.5"/>
<polygon fill="midnightblue" stroke="midnightblue" points="1241.73,-200 1231.73,-203.5 1241.73,-207 1241.73,-200"/>
</g>
<!-- Node9 -->
<g id="node9" class="node"><title>Node9</title>
<g id="a_node9"><a xlink:href="classmappel_1_1ImageFormat1DBase.html" target="_top" xlink:title="A virtual base class for 2D image localization objectives. ">
<polygon fill="white" stroke="black" points="844,-278.5 844,-296.5 983,-296.5 983,-278.5 844,-278.5"/>
<text text-anchor="middle" x="913.5" y="-285.3" font-family="Helvetica,sans-Serif" font-size="9.00">mappel::ImageFormat1DBase</text>
</a>
</g>
</g>
<!-- Node9&#45;&gt;Node8 -->
<g id="edge9" class="edge"><title>Node9&#45;&gt;Node8</title>
<path fill="none" stroke="midnightblue" d="M993.16,-277.2C1019.35,-272.465 1048.36,-265.775 1074,-256.5 1105.45,-245.121 1139,-224.532 1157.08,-212.643"/>
<polygon fill="midnightblue" stroke="midnightblue" points="992.527,-273.758 983.275,-278.921 993.727,-280.654 992.527,-273.758"/>
</g>
<!-- Node15 -->
<g id="node15" class="node"><title>Node15</title>
<g id="a_node15"><a xlink:href="classmappel_1_1PoissonNoise1DObjective.html" target="_top" xlink:title="A base class for 1D objectives with Poisson read noise. This objective function and its subclasses ar...">
<polygon fill="white" stroke="black" points="1092,-286.5 1092,-304.5 1251,-304.5 1251,-286.5 1092,-286.5"/>
<text text-anchor="middle" x="1171.5" y="-293.3" font-family="Helvetica,sans-Serif" font-size="9.00">mappel::PoissonNoise1DObjective</text>
</a>
</g>
</g>
<!-- Node9&#45;&gt;Node15 -->
<g id="edge18" class="edge"><title>Node9&#45;&gt;Node15</title>
<path fill="none" stroke="midnightblue" d="M993.504,-289.969C1024.73,-290.945 1060.54,-292.064 1091.74,-293.039"/>
<polygon fill="midnightblue" stroke="midnightblue" points="993.208,-286.458 983.103,-289.644 992.989,-293.455 993.208,-286.458"/>
</g>
<!-- Node10 -->
<g id="node10" class="node"><title>Node10</title>
<g id="a_node10"><a xlink:href="classmappel_1_1MCMCAdaptor1Ds.html" target="_top" xlink:title="mappel::MCMCAdaptor1Ds">
<polygon fill="white" stroke="black" points="849,-194.5 849,-212.5 978,-212.5 978,-194.5 849,-194.5"/>
<text text-anchor="middle" x="913.5" y="-201.3" font-family="Helvetica,sans-Serif" font-size="9.00">mappel::MCMCAdaptor1Ds</text>
</a>
</g>
</g>
<!-- Node10&#45;&gt;Node8 -->
<g id="edge10" class="edge"><title>Node10&#45;&gt;Node8</title>
<path fill="none" stroke="midnightblue" d="M988.355,-203.5C1027.36,-203.5 1074.58,-203.5 1111.17,-203.5"/>
<polygon fill="midnightblue" stroke="midnightblue" points="988.11,-200 978.11,-203.5 988.11,-207 988.11,-200"/>
</g>
<!-- Node11&#45;&gt;Node10 -->
<g id="edge11" class="edge"><title>Node11&#45;&gt;Node10</title>
<path fill="none" stroke="midnightblue" d="M708.318,-206.459C751.794,-205.829 806.753,-205.033 848.697,-204.425"/>
<polygon fill="midnightblue" stroke="midnightblue" points="708.044,-202.963 698.096,-206.607 708.146,-209.962 708.044,-202.963"/>
</g>
<!-- Node12 -->
<g id="node12" class="node"><title>Node12</title>
<g id="a_node12"><a xlink:href="classmappel_1_1MCMCAdaptorBase.html" target="_top" xlink:title="mappel::MCMCAdaptorBase">
<polygon fill="white" stroke="black" points="363,-200.5 363,-218.5 497,-218.5 497,-200.5 363,-200.5"/>
<text text-anchor="middle" x="430" y="-207.3" font-family="Helvetica,sans-Serif" font-size="9.00">mappel::MCMCAdaptorBase</text>
</a>
</g>
</g>
<!-- Node12&#45;&gt;Node11 -->
<g id="edge13" class="edge"><title>Node12&#45;&gt;Node11</title>
<path fill="none" stroke="midnightblue" d="M507.225,-208.751C528.895,-208.538 552.217,-208.309 572.902,-208.105"/>
<polygon fill="midnightblue" stroke="midnightblue" points="507.036,-205.252 497.071,-208.851 507.105,-212.252 507.036,-205.252"/>
</g>
<!-- Node13 -->
<g id="node13" class="node"><title>Node13</title>
<g id="a_node13"><a xlink:title="STL class. ">
<polygon fill="white" stroke="#bfbfbf" points="596.5,-255.5 596.5,-273.5 674.5,-273.5 674.5,-255.5 596.5,-255.5"/>
<text text-anchor="middle" x="635.5" y="-262.3" font-family="Helvetica,sans-Serif" font-size="9.00">std::vector&lt; T &gt;</text>
</a>
</g>
</g>
<!-- Node13&#45;&gt;Node8 -->
<g id="edge15" class="edge"><title>Node13&#45;&gt;Node8</title>
<path fill="none" stroke="#9a32cd" stroke-dasharray="5,2" d="M684.938,-259.888C765.697,-252.067 932.921,-235.305 1074,-217.5 1086.09,-215.974 1099.02,-214.199 1111.35,-212.435"/>
<polygon fill="#9a32cd" stroke="#9a32cd" points="684.211,-256.442 674.594,-260.887 684.884,-263.41 684.211,-256.442"/>
<text text-anchor="middle" x="913.5" y="-246.3" font-family="Helvetica,sans-Serif" font-size="9.00"> prior_types</text>
</g>
<!-- Node13&#45;&gt;Node16 -->
<g id="edge21" class="edge"><title>Node13&#45;&gt;Node16</title>
<path fill="none" stroke="orange" stroke-dasharray="5,2" d="M684.857,-264.908C724.284,-266.8 780.663,-273.125 826,-292.5 835.32,-296.483 834.914,-302.01 844,-306.5 851.275,-310.096 859.352,-313.034 867.334,-315.414"/>
<polygon fill="orange" stroke="orange" points="684.845,-261.405 674.713,-264.501 684.564,-268.399 684.845,-261.405"/>
<text text-anchor="middle" x="771" y="-295.3" font-family="Helvetica,sans-Serif" font-size="9.00"> &lt; std::string &gt;</text>
</g>
<!-- Node14 -->
<g id="node14" class="node"><title>Node14</title>
<polygon fill="white" stroke="#bfbfbf" points="415.5,-255.5 415.5,-273.5 444.5,-273.5 444.5,-255.5 415.5,-255.5"/>
<text text-anchor="middle" x="430" y="-262.3" font-family="Helvetica,sans-Serif" font-size="9.00">T</text>
</g>
<!-- Node14&#45;&gt;Node13 -->
<g id="edge16" class="edge"><title>Node14&#45;&gt;Node13</title>
<path fill="none" stroke="#9a32cd" stroke-dasharray="5,2" d="M454.854,-264.5C489.725,-264.5 554.973,-264.5 596.499,-264.5"/>
<polygon fill="#9a32cd" stroke="#9a32cd" points="454.668,-261 444.668,-264.5 454.668,-268 454.668,-261"/>
<text text-anchor="middle" x="535" y="-267.3" font-family="Helvetica,sans-Serif" font-size="9.00"> elements</text>
</g>
<!-- Node15&#45;&gt;Node7 -->
<g id="edge17" class="edge"><title>Node15&#45;&gt;Node7</title>
<path fill="none" stroke="midnightblue" d="M1199.81,-281.847C1237.86,-262.822 1305.8,-228.851 1338.26,-212.621"/>
<polygon fill="midnightblue" stroke="midnightblue" points="1198.19,-278.74 1190.82,-286.342 1201.32,-285.001 1198.19,-278.74"/>
</g>
<!-- Node16&#45;&gt;Node15 -->
<g id="edge19" class="edge"><title>Node16&#45;&gt;Node15</title>
<path fill="none" stroke="#9a32cd" stroke-dasharray="5,2" d="M980.018,-317.078C1014.01,-313.227 1055.8,-308.493 1091.57,-304.442"/>
<polygon fill="#9a32cd" stroke="#9a32cd" points="979.275,-313.64 969.733,-318.243 980.063,-320.595 979.275,-313.64"/>
<text text-anchor="middle" x="1037.5" y="-316.3" font-family="Helvetica,sans-Serif" font-size="9.00"> estimator_names</text>
</g>
<!-- Node17&#45;&gt;Node7 -->
<g id="edge22" class="edge"><title>Node17&#45;&gt;Node7</title>
<path fill="none" stroke="midnightblue" d="M836.346,-86.1243C897.918,-87.7738 993.115,-93.0818 1074,-109.5 1174.55,-129.91 1289.02,-175.184 1335.36,-194.493"/>
<polygon fill="midnightblue" stroke="midnightblue" points="836.089,-82.6172 826.007,-85.8734 835.919,-89.6151 836.089,-82.6172"/>
</g>
</g>
</svg>
        <g id="navigator" transform="translate(0 0)" fill="#404254">
                <rect fill="#f2f5e9" fill-opacity="0.5" stroke="#606060" stroke-width=".5" x="0" y="0" width="60" height="60"/>
                <use id="zoomplus" xlink:href="#zoomPlus" x="17" y="9" onmousedown="handleZoom(evt,'in')"/>
                <use id="zoomminus" xlink:href="#zoomMin" x="42" y="9" onmousedown="handleZoom(evt,'out')"/>
                <use id="reset" xlink:href="#resetDef" x="30" y="36" onmousedown="handleReset()"/>
                <g id="arrowUp" xlink:href="#dirArrow" transform="translate(30 24)" onmousedown="handlePan(0,-1)">
                  <use xlink:href="#rim" fill="#404040">
                        <set attributeName="fill" to="#808080" begin="arrowUp.mouseover" end="arrowUp.mouseout"/>
                  </use>
                  <path fill="none" stroke="white" stroke-width="1.5" d="M0,-3.0v7 M-2.5,-0.5L0,-3.0L2.5,-0.5"/>
                </g>
                <g id="arrowRight" xlink:href="#dirArrow" transform="rotate(90) translate(36 -43)" onmousedown="handlePan(1,0)">
                  <use xlink:href="#rim" fill="#404040">
                        <set attributeName="fill" to="#808080" begin="arrowRight.mouseover" end="arrowRight.mouseout"/>
                  </use>
                  <path fill="none" stroke="white" stroke-width="1.5" d="M0,-3.0v7 M-2.5,-0.5L0,-3.0L2.5,-0.5"/>
                </g>
                <g id="arrowDown" xlink:href="#dirArrow" transform="rotate(180) translate(-30 -48)" onmousedown="handlePan(0,1)">
                  <use xlink:href="#rim" fill="#404040">
                        <set attributeName="fill" to="#808080" begin="arrowDown.mouseover" end="arrowDown.mouseout"/>
                  </use>
                  <path fill="none" stroke="white" stroke-width="1.5" d="M0,-3.0v7 M-2.5,-0.5L0,-3.0L2.5,-0.5"/>
                </g>
                <g id="arrowLeft" xlink:href="#dirArrow" transform="rotate(270) translate(-36 17)" onmousedown="handlePan(-1,0)">
                  <use xlink:href="#rim" fill="#404040">
                        <set attributeName="fill" to="#808080" begin="arrowLeft.mouseover" end="arrowLeft.mouseout"/>
                  </use>
                  <path fill="none" stroke="white" stroke-width="1.5" d="M0,-3.0v7 M-2.5,-0.5L0,-3.0L2.5,-0.5"/>
                </g>
        </g>
        <svg viewBox="0 0 15 15" width="100%" height="30px" preserveAspectRatio="xMaxYMin meet">
         <g id="arrow_out" transform="scale(0.3 0.3)">
          <a xlink:href="classmappel_1_1Gauss2DsxyModel__coll__graph_org.svg" target="_base">
           <rect id="button" ry="5" rx="5" y="6" x="6" height="38" width="38"
                fill="#f2f5e9" fill-opacity="0.5" stroke="#606060" stroke-width="1.0"/>
           <path id="arrow"
             d="M 11.500037,31.436501 C 11.940474,20.09759 22.043105,11.32322 32.158766,21.979434 L 37.068811,17.246167 C 37.068811,17.246167 37.088388,32 37.088388,32 L 22.160133,31.978069 C 22.160133,31.978069 26.997745,27.140456 26.997745,27.140456 C 18.528582,18.264221 13.291696,25.230495 11.500037,31.436501 z"
             style="fill:#404040;"/>
          </a>
         </g>
        </svg>
</svg>
