<?xml version="1.0" encoding="UTF-8" standalone="no"?>
<!DOCTYPE svg PUBLIC "-//W3C//DTD SVG 1.1//EN"
 "http://www.w3.org/Graphics/SVG/1.1/DTD/svg11.dtd">
<!-- Generated by graphviz version 2.38.0 (20140413.2041)
 -->
<!-- Title: mappel::Gauss1DMLE::operator= Pages: 1 -->
<svg width="473pt" height="178pt"
 viewBox="0.00 0.00 473.00 178.00" xmlns="http://www.w3.org/2000/svg" xmlns:xlink="http://www.w3.org/1999/xlink">
<g id="graph0" class="graph" transform="scale(1 1) rotate(0) translate(4 174)">
<title>mappel::Gauss1DMLE::operator=</title>
<polygon fill="white" stroke="none" points="-4,4 -4,-174 469,-174 469,4 -4,4"/>
<!-- Node1 -->
<g id="node1" class="node"><title>Node1</title>
<polygon fill="#bfbfbf" stroke="black" points="0,-70.5 0,-98.5 109,-98.5 109,-70.5 0,-70.5"/>
<text text-anchor="start" x="8" y="-87.3" font-family="Helvetica,sans-Serif" font-size="9.00">mappel::Gauss1DMLE</text>
<text text-anchor="middle" x="54.5" y="-77.3" font-family="Helvetica,sans-Serif" font-size="9.00">::operator=</text>
</g>
<!-- Node2 -->
<g id="node2" class="node"><title>Node2</title>
<g id="a_node2"><a xlink:href="classmappel_1_1MLEstimator.html#ace25f714ea4c7918b71def996c638d0c" target="_top" xlink:title="mappel::MLEstimator\l::operator=">
<polygon fill="white" stroke="black" points="173,-141.5 173,-169.5 276,-169.5 276,-141.5 173,-141.5"/>
<text text-anchor="start" x="181" y="-158.3" font-family="Helvetica,sans-Serif" font-size="9.00">mappel::MLEstimator</text>
<text text-anchor="middle" x="224.5" y="-148.3" font-family="Helvetica,sans-Serif" font-size="9.00">::operator=</text>
</a>
</g>
</g>
<!-- Node1&#45;&gt;Node2 -->
<g id="edge1" class="edge"><title>Node1&#45;&gt;Node2</title>
<path fill="none" stroke="midnightblue" d="M78.7812,-98.7159C96.4748,-109.088 121.667,-122.946 145,-132.5 150.779,-134.866 156.888,-137.098 163.044,-139.172"/>
<polygon fill="midnightblue" stroke="midnightblue" points="162.123,-142.552 172.715,-142.297 164.276,-135.892 162.123,-142.552"/>
</g>
<!-- Node3 -->
<g id="node3" class="node"><title>Node3</title>
<g id="a_node3"><a xlink:href="classmappel_1_1PoissonNoise1DObjective.html#ab41b3958b61d38ef779fa2b52352e9ff" target="_top" xlink:title="mappel::PoissonNoise1DObjective\l::operator=">
<polygon fill="white" stroke="black" points="145,-94.5 145,-122.5 304,-122.5 304,-94.5 145,-94.5"/>
<text text-anchor="start" x="153" y="-111.3" font-family="Helvetica,sans-Serif" font-size="9.00">mappel::PoissonNoise1DObjective</text>
<text text-anchor="middle" x="224.5" y="-101.3" font-family="Helvetica,sans-Serif" font-size="9.00">::operator=</text>
</a>
</g>
</g>
<!-- Node1&#45;&gt;Node3 -->
<g id="edge2" class="edge"><title>Node1&#45;&gt;Node3</title>
<path fill="none" stroke="midnightblue" d="M109.118,-92.1597C117.421,-93.3458 126.181,-94.5973 135.008,-95.8583"/>
<polygon fill="midnightblue" stroke="midnightblue" points="134.586,-99.3335 144.981,-97.283 135.576,-92.4038 134.586,-99.3335"/>
</g>
<!-- Node4 -->
<g id="node4" class="node"><title>Node4</title>
<g id="a_node4"><a xlink:href="classmappel_1_1Gauss1DModel.html#ae26f69421bc365c8b5928276508cc25d" target="_top" xlink:title="mappel::Gauss1DModel\l::operator=">
<polygon fill="white" stroke="black" points="166.5,-47.5 166.5,-75.5 282.5,-75.5 282.5,-47.5 166.5,-47.5"/>
<text text-anchor="start" x="174.5" y="-64.3" font-family="Helvetica,sans-Serif" font-size="9.00">mappel::Gauss1DModel</text>
<text text-anchor="middle" x="224.5" y="-54.3" font-family="Helvetica,sans-Serif" font-size="9.00">::operator=</text>
</a>
</g>
</g>
<!-- Node1&#45;&gt;Node4 -->
<g id="edge3" class="edge"><title>Node1&#45;&gt;Node4</title>
<path fill="none" stroke="midnightblue" d="M109.118,-77.1594C124.085,-75.1104 140.539,-72.8577 156.188,-70.7153"/>
<polygon fill="midnightblue" stroke="midnightblue" points="156.899,-74.1508 166.332,-69.3266 155.949,-67.2154 156.899,-74.1508"/>
</g>
<!-- Node6 -->
<g id="node6" class="node"><title>Node6</title>
<g id="a_node6"><a xlink:href="classmappel_1_1PointEmitterModel.html#aa84b896a736bca3cab2f07e2ccda5489" target="_top" xlink:title="mappel::PointEmitterModel\l::operator=">
<polygon fill="white" stroke="black" points="161,-0.5 161,-28.5 288,-28.5 288,-0.5 161,-0.5"/>
<text text-anchor="start" x="169" y="-17.3" font-family="Helvetica,sans-Serif" font-size="9.00">mappel::PointEmitterModel</text>
<text text-anchor="middle" x="224.5" y="-7.3" font-family="Helvetica,sans-Serif" font-size="9.00">::operator=</text>
</a>
</g>
</g>
<!-- Node1&#45;&gt;Node6 -->
<g id="edge5" class="edge"><title>Node1&#45;&gt;Node6</title>
<path fill="none" stroke="midnightblue" d="M80.0168,-70.3932C97.6962,-60.5968 122.339,-47.7022 145,-38.5 150.806,-36.1425 156.933,-33.8868 163.1,-31.7675"/>
<polygon fill="midnightblue" stroke="midnightblue" points="164.394,-35.0258 172.782,-28.5545 162.189,-28.382 164.394,-35.0258"/>
</g>
<!-- Node5 -->
<g id="node5" class="node"><title>Node5</title>
<g id="a_node5"><a xlink:href="classmappel_1_1MCMCAdaptor1D.html#a669bba7517087d842f941957cbbf5fb5" target="_top" xlink:title="mappel::MCMCAdaptor1D\l::operator=">
<polygon fill="white" stroke="black" points="340,-47.5 340,-75.5 465,-75.5 465,-47.5 340,-47.5"/>
<text text-anchor="start" x="348" y="-64.3" font-family="Helvetica,sans-Serif" font-size="9.00">mappel::MCMCAdaptor1D</text>
<text text-anchor="middle" x="402.5" y="-54.3" font-family="Helvetica,sans-Serif" font-size="9.00">::operator=</text>
</a>
</g>
</g>
<!-- Node4&#45;&gt;Node5 -->
<g id="edge4" class="edge"><title>Node4&#45;&gt;Node5</title>
<path fill="none" stroke="midnightblue" d="M282.642,-61.5C297.627,-61.5 313.98,-61.5 329.628,-61.5"/>
<polygon fill="midnightblue" stroke="midnightblue" points="329.787,-65.0001 339.787,-61.5 329.787,-58.0001 329.787,-65.0001"/>
</g>
</g>
</svg>
