<?xml version="1.0" encoding="UTF-8" standalone="no"?>
<!DOCTYPE svg PUBLIC "-//W3C//DTD SVG 1.1//EN"
 "http://www.w3.org/Graphics/SVG/1.1/DTD/svg11.dtd">
<!-- Generated by graphviz version 2.38.0 (20140413.2041)
 -->
<!-- Title: mappel::Gauss2DsMLE::operator= Pages: 1 -->
<svg width="805pt" height="249pt"
 viewBox="0.00 0.00 805.00 249.00" xmlns="http://www.w3.org/2000/svg" xmlns:xlink="http://www.w3.org/1999/xlink">
<g id="graph0" class="graph" transform="scale(1 1) rotate(0) translate(4 245)">
<title>mappel::Gauss2DsMLE::operator=</title>
<polygon fill="white" stroke="none" points="-4,4 -4,-245 801,-245 801,4 -4,4"/>
<!-- Node1 -->
<g id="node1" class="node"><title>Node1</title>
<polygon fill="#bfbfbf" stroke="black" points="0,-118.5 0,-146.5 113,-146.5 113,-118.5 0,-118.5"/>
<text text-anchor="start" x="8" y="-135.3" font-family="Helvetica,sans-Serif" font-size="9.00">mappel::Gauss2DsMLE</text>
<text text-anchor="middle" x="56.5" y="-125.3" font-family="Helvetica,sans-Serif" font-size="9.00">::operator=</text>
</g>
<!-- Node2 -->
<g id="node2" class="node"><title>Node2</title>
<g id="a_node2"><a xlink:href="classmappel_1_1MLEstimator.html#ace25f714ea4c7918b71def996c638d0c" target="_top" xlink:title="mappel::MLEstimator\l::operator=">
<polygon fill="white" stroke="black" points="177,-212.5 177,-240.5 280,-240.5 280,-212.5 177,-212.5"/>
<text text-anchor="start" x="185" y="-229.3" font-family="Helvetica,sans-Serif" font-size="9.00">mappel::MLEstimator</text>
<text text-anchor="middle" x="228.5" y="-219.3" font-family="Helvetica,sans-Serif" font-size="9.00">::operator=</text>
</a>
</g>
</g>
<!-- Node1&#45;&gt;Node2 -->
<g id="edge1" class="edge"><title>Node1&#45;&gt;Node2</title>
<path fill="none" stroke="midnightblue" d="M72.1463,-146.737C89.2721,-162.661 119.1,-188.219 149,-203.5 154.643,-206.384 160.704,-208.961 166.866,-211.252"/>
<polygon fill="midnightblue" stroke="midnightblue" points="165.991,-214.653 176.586,-214.617 168.281,-208.038 165.991,-214.653"/>
</g>
<!-- Node3 -->
<g id="node3" class="node"><title>Node3</title>
<g id="a_node3"><a xlink:href="classmappel_1_1PoissonNoise2DObjective.html#abdfcdfc3fb1a1da2a0b7c3898532175e" target="_top" xlink:title="mappel::PoissonNoise2DObjective\l::operator=">
<polygon fill="white" stroke="black" points="149,-165.5 149,-193.5 308,-193.5 308,-165.5 149,-165.5"/>
<text text-anchor="start" x="157" y="-182.3" font-family="Helvetica,sans-Serif" font-size="9.00">mappel::PoissonNoise2DObjective</text>
<text text-anchor="middle" x="228.5" y="-172.3" font-family="Helvetica,sans-Serif" font-size="9.00">::operator=</text>
</a>
</g>
</g>
<!-- Node1&#45;&gt;Node3 -->
<g id="edge2" class="edge"><title>Node1&#45;&gt;Node3</title>
<path fill="none" stroke="midnightblue" d="M108.506,-146.602C126.911,-151.69 147.863,-157.483 167.003,-162.774"/>
<polygon fill="midnightblue" stroke="midnightblue" points="166.252,-166.198 176.824,-165.489 168.118,-159.451 166.252,-166.198"/>
</g>
<!-- Node4 -->
<g id="node4" class="node"><title>Node4</title>
<g id="a_node4"><a xlink:href="classmappel_1_1ImageFormat2DBase.html#af7abdfaf54b018bc3a4b2a2a4e37b451" target="_top" xlink:title="mappel::ImageFormat2DBase\l::operator=">
<polygon fill="white" stroke="black" points="159,-118.5 159,-146.5 298,-146.5 298,-118.5 159,-118.5"/>
<text text-anchor="start" x="167" y="-135.3" font-family="Helvetica,sans-Serif" font-size="9.00">mappel::ImageFormat2DBase</text>
<text text-anchor="middle" x="228.5" y="-125.3" font-family="Helvetica,sans-Serif" font-size="9.00">::operator=</text>
</a>
</g>
</g>
<!-- Node1&#45;&gt;Node4 -->
<g id="edge3" class="edge"><title>Node1&#45;&gt;Node4</title>
<path fill="none" stroke="midnightblue" d="M113.164,-132.5C124.588,-132.5 136.817,-132.5 148.874,-132.5"/>
<polygon fill="midnightblue" stroke="midnightblue" points="148.94,-136 158.94,-132.5 148.94,-129 148.94,-136"/>
</g>
<!-- Node5 -->
<g id="node5" class="node"><title>Node5</title>
<g id="a_node5"><a xlink:href="classmappel_1_1Gauss2DsModel.html#ab1b09eccafc20261b34a404fc8dede4e" target="_top" xlink:title="mappel::Gauss2DsModel\l::operator=">
<polygon fill="white" stroke="black" points="168.5,-71.5 168.5,-99.5 288.5,-99.5 288.5,-71.5 168.5,-71.5"/>
<text text-anchor="start" x="176.5" y="-88.3" font-family="Helvetica,sans-Serif" font-size="9.00">mappel::Gauss2DsModel</text>
<text text-anchor="middle" x="228.5" y="-78.3" font-family="Helvetica,sans-Serif" font-size="9.00">::operator=</text>
</a>
</g>
</g>
<!-- Node1&#45;&gt;Node5 -->
<g id="edge4" class="edge"><title>Node1&#45;&gt;Node5</title>
<path fill="none" stroke="midnightblue" d="M108.506,-118.398C126.911,-113.31 147.863,-107.517 167.003,-102.226"/>
<polygon fill="midnightblue" stroke="midnightblue" points="168.118,-105.549 176.824,-99.5106 166.252,-98.8019 168.118,-105.549"/>
</g>
<!-- Node13 -->
<g id="node13" class="node"><title>Node13</title>
<g id="a_node13"><a xlink:href="classmappel_1_1PointEmitterModel.html#aa84b896a736bca3cab2f07e2ccda5489" target="_top" xlink:title="mappel::PointEmitterModel\l::operator=">
<polygon fill="white" stroke="black" points="165,-24.5 165,-52.5 292,-52.5 292,-24.5 165,-24.5"/>
<text text-anchor="start" x="173" y="-41.3" font-family="Helvetica,sans-Serif" font-size="9.00">mappel::PointEmitterModel</text>
<text text-anchor="middle" x="228.5" y="-31.3" font-family="Helvetica,sans-Serif" font-size="9.00">::operator=</text>
</a>
</g>
</g>
<!-- Node1&#45;&gt;Node13 -->
<g id="edge12" class="edge"><title>Node1&#45;&gt;Node13</title>
<path fill="none" stroke="midnightblue" d="M72.5269,-118.257C89.7652,-102.607 119.472,-77.6807 149,-62.5 153.48,-60.197 158.219,-58.0724 163.06,-56.1209"/>
<polygon fill="midnightblue" stroke="midnightblue" points="164.332,-59.3819 172.455,-52.58 161.863,-52.8317 164.332,-59.3819"/>
</g>
<!-- Node6 -->
<g id="node6" class="node"><title>Node6</title>
<g id="a_node6"><a xlink:href="classmappel_1_1MCMCAdaptor2Ds.html#a271813db8cfbca730d2ebd60b335b33e" target="_top" xlink:title="mappel::MCMCAdaptor2Ds\l::operator=">
<polygon fill="white" stroke="black" points="344,-94.5 344,-122.5 473,-122.5 473,-94.5 344,-94.5"/>
<text text-anchor="start" x="352" y="-111.3" font-family="Helvetica,sans-Serif" font-size="9.00">mappel::MCMCAdaptor2Ds</text>
<text text-anchor="middle" x="408.5" y="-101.3" font-family="Helvetica,sans-Serif" font-size="9.00">::operator=</text>
</a>
</g>
</g>
<!-- Node5&#45;&gt;Node6 -->
<g id="edge5" class="edge"><title>Node5&#45;&gt;Node6</title>
<path fill="none" stroke="midnightblue" d="M288.771,-93.1587C303.151,-95.0167 318.701,-97.026 333.662,-98.9591"/>
<polygon fill="midnightblue" stroke="midnightblue" points="333.537,-102.472 343.904,-100.282 334.435,-95.5298 333.537,-102.472"/>
</g>
<!-- Node9 -->
<g id="node9" class="node"><title>Node9</title>
<g id="a_node9"><a xlink:href="classmappel_1_1Gauss2DsModel.html#a11f03c648095b6d7dd5c38c3a5eca2dc" target="_top" xlink:title="mappel::Gauss2DsModel\l::get_max_sigma">
<polygon fill="white" stroke="black" points="348.5,-47.5 348.5,-75.5 468.5,-75.5 468.5,-47.5 348.5,-47.5"/>
<text text-anchor="start" x="356.5" y="-64.3" font-family="Helvetica,sans-Serif" font-size="9.00">mappel::Gauss2DsModel</text>
<text text-anchor="middle" x="408.5" y="-54.3" font-family="Helvetica,sans-Serif" font-size="9.00">::get_max_sigma</text>
</a>
</g>
</g>
<!-- Node5&#45;&gt;Node9 -->
<g id="edge8" class="edge"><title>Node5&#45;&gt;Node9</title>
<path fill="none" stroke="midnightblue" d="M288.771,-77.5083C304.684,-75.3628 322.029,-73.0241 338.424,-70.8137"/>
<polygon fill="midnightblue" stroke="midnightblue" points="339.045,-74.2617 348.487,-69.4568 338.109,-67.3244 339.045,-74.2617"/>
</g>
<!-- Node7 -->
<g id="node7" class="node"><title>Node7</title>
<g id="a_node7"><a xlink:href="classmappel_1_1MCMCAdaptor2D.html#aeddb1b66ab86ef64421b9a7d6a208769" target="_top" xlink:title="mappel::MCMCAdaptor2D\l::operator=">
<polygon fill="white" stroke="black" points="509,-94.5 509,-122.5 634,-122.5 634,-94.5 509,-94.5"/>
<text text-anchor="start" x="517" y="-111.3" font-family="Helvetica,sans-Serif" font-size="9.00">mappel::MCMCAdaptor2D</text>
<text text-anchor="middle" x="571.5" y="-101.3" font-family="Helvetica,sans-Serif" font-size="9.00">::operator=</text>
</a>
</g>
</g>
<!-- Node6&#45;&gt;Node7 -->
<g id="edge6" class="edge"><title>Node6&#45;&gt;Node7</title>
<path fill="none" stroke="midnightblue" d="M473.131,-108.5C481.505,-108.5 490.133,-108.5 498.632,-108.5"/>
<polygon fill="midnightblue" stroke="midnightblue" points="498.908,-112 508.908,-108.5 498.908,-105 498.908,-112"/>
</g>
<!-- Node8 -->
<g id="node8" class="node"><title>Node8</title>
<g id="a_node8"><a xlink:href="classmappel_1_1MCMCAdaptor1D.html#a669bba7517087d842f941957cbbf5fb5" target="_top" xlink:title="mappel::MCMCAdaptor1D\l::operator=">
<polygon fill="white" stroke="black" points="671,-94.5 671,-122.5 796,-122.5 796,-94.5 671,-94.5"/>
<text text-anchor="start" x="679" y="-111.3" font-family="Helvetica,sans-Serif" font-size="9.00">mappel::MCMCAdaptor1D</text>
<text text-anchor="middle" x="733.5" y="-101.3" font-family="Helvetica,sans-Serif" font-size="9.00">::operator=</text>
</a>
</g>
</g>
<!-- Node7&#45;&gt;Node8 -->
<g id="edge7" class="edge"><title>Node7&#45;&gt;Node8</title>
<path fill="none" stroke="midnightblue" d="M634.36,-108.5C642.956,-108.5 651.847,-108.5 660.607,-108.5"/>
<polygon fill="midnightblue" stroke="midnightblue" points="660.804,-112 670.804,-108.5 660.804,-105 660.804,-112"/>
</g>
<!-- Node10 -->
<g id="node10" class="node"><title>Node10</title>
<g id="a_node10"><a xlink:href="classmappel_1_1Gauss2DsModel.html#a46da2752c2d1ca376b72d910818e47ae" target="_top" xlink:title="mappel::Gauss2DsModel\l::get_max_sigma_ratio">
<polygon fill="white" stroke="black" points="511.5,-47.5 511.5,-75.5 631.5,-75.5 631.5,-47.5 511.5,-47.5"/>
<text text-anchor="start" x="519.5" y="-64.3" font-family="Helvetica,sans-Serif" font-size="9.00">mappel::Gauss2DsModel</text>
<text text-anchor="middle" x="571.5" y="-54.3" font-family="Helvetica,sans-Serif" font-size="9.00">::get_max_sigma_ratio</text>
</a>
</g>
</g>
<!-- Node9&#45;&gt;Node10 -->
<g id="edge9" class="edge"><title>Node9&#45;&gt;Node10</title>
<path fill="none" stroke="midnightblue" d="M468.536,-61.5C479.146,-61.5 490.292,-61.5 501.161,-61.5"/>
<polygon fill="midnightblue" stroke="midnightblue" points="501.471,-65.0001 511.471,-61.5 501.471,-58.0001 501.471,-65.0001"/>
</g>
<!-- Node12 -->
<g id="node12" class="node"><title>Node12</title>
<g id="a_node12"><a xlink:href="classmappel_1_1Gauss2DsModel.html#af93a5f984a97e23ae1d371c980e48a41" target="_top" xlink:title="mappel::Gauss2DsModel\l::get_min_sigma">
<polygon fill="white" stroke="black" points="511.5,-0.5 511.5,-28.5 631.5,-28.5 631.5,-0.5 511.5,-0.5"/>
<text text-anchor="start" x="519.5" y="-17.3" font-family="Helvetica,sans-Serif" font-size="9.00">mappel::Gauss2DsModel</text>
<text text-anchor="middle" x="571.5" y="-7.3" font-family="Helvetica,sans-Serif" font-size="9.00">::get_min_sigma</text>
</a>
</g>
</g>
<!-- Node9&#45;&gt;Node12 -->
<g id="edge11" class="edge"><title>Node9&#45;&gt;Node12</title>
<path fill="none" stroke="midnightblue" d="M457.805,-47.3985C475.077,-42.3565 494.716,-36.6234 512.706,-31.3714"/>
<polygon fill="midnightblue" stroke="midnightblue" points="513.888,-34.6727 522.506,-28.5106 511.926,-27.9531 513.888,-34.6727"/>
</g>
<!-- Node11 -->
<g id="node11" class="node"><title>Node11</title>
<g id="a_node11"><a xlink:href="classmappel_1_1PointEmitterModel.html#a0dfb473c48d177a4540d328abb03cd55" target="_top" xlink:title="mappel::PointEmitterModel\l::get_ubound">
<polygon fill="white" stroke="black" points="670,-47.5 670,-75.5 797,-75.5 797,-47.5 670,-47.5"/>
<text text-anchor="start" x="678" y="-64.3" font-family="Helvetica,sans-Serif" font-size="9.00">mappel::PointEmitterModel</text>
<text text-anchor="middle" x="733.5" y="-54.3" font-family="Helvetica,sans-Serif" font-size="9.00">::get_ubound</text>
</a>
</g>
</g>
<!-- Node10&#45;&gt;Node11 -->
<g id="edge10" class="edge"><title>Node10&#45;&gt;Node11</title>
<path fill="none" stroke="midnightblue" d="M631.624,-61.5C640.776,-61.5 650.32,-61.5 659.73,-61.5"/>
<polygon fill="midnightblue" stroke="midnightblue" points="659.863,-65.0001 669.863,-61.5 659.863,-58.0001 659.863,-65.0001"/>
</g>
</g>
</svg>
