<?xml version="1.0" encoding="UTF-8" standalone="no"?>
<!DOCTYPE svg PUBLIC "-//W3C//DTD SVG 1.1//EN"
 "http://www.w3.org/Graphics/SVG/1.1/DTD/svg11.dtd">
<!-- Generated by graphviz version 2.38.0 (20140413.2041)
 -->
<!-- Title: mappel::Gauss1DsModel::initial_theta_estimate Pages: 1 -->
<!--zoomable 222 -->
<svg id="main" version="1.1" xmlns="http://www.w3.org/2000/svg" xmlns:xlink="http://www.w3.org/1999/xlink" xml:space="preserve" onload="init(evt)">
<style type="text/css"><![CDATA[
.edge:hover path { stroke: red; }
.edge:hover polygon { stroke: red; fill: red; }
]]></style>
<script type="text/javascript"><![CDATA[
var edges = document.getElementsByTagName('g');
if (edges && edges.length) {
  for (var i=0;i<edges.length;i++) {
    if (edges[i].id.substr(0,4)=='edge') {
      edges[i].setAttribute('class','edge');
    }
  }
}
]]></script>
        <defs>
                <circle id="rim" cx="0" cy="0" r="7"/>
                <circle id="rim2" cx="0" cy="0" r="3.5"/>
                <g id="zoomPlus">
                        <use xlink:href="#rim" target="_top" fill="#404040">
                                <set attributeName="fill" to="#808080" begin="zoomplus.mouseover" end="zoomplus.mouseout"/>
                        </use>
                        <path d="M-4,0h8M0,-4v8" fill="none" stroke="white" stroke-width="1.5" pointer-events="none"/>
                </g>
                <g id="zoomMin">
                        <use xlink:href="#rim" target="_top" fill="#404040">
                                <set attributeName="fill" to="#808080" begin="zoomminus.mouseover" end="zoomminus.mouseout"/>
                        </use>
                        <path d="M-4,0h8" fill="none" stroke="white" stroke-width="1.5" pointer-events="none"/>
                </g>
                <g id="dirArrow">
                        <path fill="none" stroke="white" stroke-width="1.5" d="M0,-3.0v7 M-2.5,-0.5L0,-3.0L2.5,-0.5"/>
                </g>
               <g id="resetDef">
                       <use xlink:href="#rim2" target="_top" fill="#404040">
                               <set attributeName="fill" to="#808080" begin="reset.mouseover" end="reset.mouseout"/>
                       </use>
               </g>
        </defs>

<script type="text/javascript">
var viewWidth = 1067;
var viewHeight = 222;
var sectionId = 'dynsection-19';
</script>
<script xlink:href="svgpan.js" target="_top"/>
<svg id="graph" class="graph">
<g id="viewport">
<title>mappel::Gauss1DsModel::initial_theta_estimate</title>
<polygon fill="white" stroke="none" points="-4,4 -4,-218.022 1063,-218.022 1063,4 -4,4"/>
<!-- Node1 -->
<g id="node1" class="node"><title>Node1</title>
<polygon fill="#bfbfbf" stroke="black" points="0,-66.5223 0,-94.5223 120,-94.5223 120,-66.5223 0,-66.5223"/>
<text text-anchor="start" x="8" y="-83.3223" font-family="Helvetica,sans-Serif" font-size="9.00">mappel::Gauss1DsModel</text>
<text text-anchor="middle" x="60" y="-73.3223" font-family="Helvetica,sans-Serif" font-size="9.00">::initial_theta_estimate</text>
</g>
<!-- Node2 -->
<g id="node2" class="node"><title>Node2</title>
<g id="a_node2"><a xlink:href="classmappel_1_1Gauss1DsModel_1_1Stencil.html#a02181effe22edf10cdd2dea3bf766a1b" target="_top" target="_top" xlink:title="mappel::Gauss1DsModel\l::Stencil::bg">
<polygon fill="white" stroke="black" points="156,-137.522 156,-165.522 276,-165.522 276,-137.522 156,-137.522"/>
<text text-anchor="start" x="164" y="-154.322" font-family="Helvetica,sans-Serif" font-size="9.00">mappel::Gauss1DsModel</text>
<text text-anchor="middle" x="216" y="-144.322" font-family="Helvetica,sans-Serif" font-size="9.00">::Stencil::bg</text>
</a>
</g>
</g>
<!-- Node1&#45;&gt;Node2 -->
<g id="edge1" class="edge"><title>Node1&#45;&gt;Node2</title>
<path fill="none" stroke="midnightblue" d="M87.2882,-94.6627C106.179,-104.612 132.376,-117.979 156,-128.522 159.84,-130.236 163.85,-131.951 167.893,-133.629"/>
<polygon fill="midnightblue" stroke="midnightblue" points="166.74,-136.939 177.322,-137.458 169.374,-130.453 166.74,-136.939"/>
</g>
<!-- Node3 -->
<g id="node3" class="node"><title>Node3</title>
<g id="a_node3"><a xlink:href="classmappel_1_1Gauss1DsModel_1_1Stencil.html#a29ce270778228bbf34c3bb995f7fa3b6" target="_top" target="_top" xlink:title="mappel::Gauss1DsModel\l::Stencil::I">
<polygon fill="white" stroke="black" points="156,-90.5223 156,-118.522 276,-118.522 276,-90.5223 156,-90.5223"/>
<text text-anchor="start" x="164" y="-107.322" font-family="Helvetica,sans-Serif" font-size="9.00">mappel::Gauss1DsModel</text>
<text text-anchor="middle" x="216" y="-97.3223" font-family="Helvetica,sans-Serif" font-size="9.00">::Stencil::I</text>
</a>
</g>
</g>
<!-- Node1&#45;&gt;Node3 -->
<g id="edge2" class="edge"><title>Node1&#45;&gt;Node3</title>
<path fill="none" stroke="midnightblue" d="M120.1,-89.7327C128.513,-91.0439 137.228,-92.4021 145.813,-93.7399"/>
<polygon fill="midnightblue" stroke="midnightblue" points="145.384,-97.2152 155.804,-95.2969 146.462,-90.2987 145.384,-97.2152"/>
</g>
<!-- Node4 -->
<g id="node4" class="node"><title>Node4</title>
<g id="a_node4"><a xlink:href="classmappel_1_1Gauss1DsModel.html#a6c252dd37b7e6b317a9815cda4ef8d5e" target="_top" target="_top" xlink:title="Make a new Model::Stencil object at theta. ">
<polygon fill="white" stroke="black" points="156,-43.5223 156,-71.5223 276,-71.5223 276,-43.5223 156,-43.5223"/>
<text text-anchor="start" x="164" y="-60.3223" font-family="Helvetica,sans-Serif" font-size="9.00">mappel::Gauss1DsModel</text>
<text text-anchor="middle" x="216" y="-50.3223" font-family="Helvetica,sans-Serif" font-size="9.00">::make_stencil</text>
</a>
</g>
</g>
<!-- Node1&#45;&gt;Node4 -->
<g id="edge3" class="edge"><title>Node1&#45;&gt;Node4</title>
<path fill="none" stroke="midnightblue" d="M120.1,-71.6957C128.513,-70.4392 137.228,-69.1376 145.813,-67.8555"/>
<polygon fill="midnightblue" stroke="midnightblue" points="146.43,-71.3021 155.804,-66.3633 145.396,-64.3789 146.43,-71.3021"/>
</g>
<!-- Node10 -->
<g id="node10" class="node"><title>Node10</title>
<g id="a_node10"><a xlink:href="classmappel_1_1Gauss1DsModel_1_1Stencil.html#a91366bc87b44318c0ded04ac99760c27" target="_top" target="_top" xlink:title="mappel::Gauss1DsModel\l::Stencil::sigma">
<polygon fill="white" stroke="black" points="657,-0.522316 657,-28.5223 777,-28.5223 777,-0.522316 657,-0.522316"/>
<text text-anchor="start" x="665" y="-17.3223" font-family="Helvetica,sans-Serif" font-size="9.00">mappel::Gauss1DsModel</text>
<text text-anchor="middle" x="717" y="-7.32232" font-family="Helvetica,sans-Serif" font-size="9.00">::Stencil::sigma</text>
</a>
</g>
</g>
<!-- Node1&#45;&gt;Node10 -->
<g id="edge21" class="edge"><title>Node1&#45;&gt;Node10</title>
<path fill="none" stroke="midnightblue" d="M82.6075,-66.4878C101.219,-55.2398 129.234,-40.262 156,-33.5223 328.262,9.85322 539.709,1.01529 646.788,-7.61695"/>
<polygon fill="midnightblue" stroke="midnightblue" points="646.565,-11.1103 656.82,-8.44993 647.144,-4.13435 646.565,-11.1103"/>
</g>
<!-- Node5 -->
<g id="node5" class="node"><title>Node5</title>
<g id="a_node5"><a xlink:href="classmappel_1_1Gauss1DsModel_1_1Stencil.html#a7d151d646b8286c83a3c6e5b49b1a66d" target="_top" target="_top" xlink:title="mappel::Gauss1DsModel\l::Stencil::Stencil">
<polygon fill="white" stroke="black" points="315.5,-90.5223 315.5,-118.522 435.5,-118.522 435.5,-90.5223 315.5,-90.5223"/>
<text text-anchor="start" x="323.5" y="-107.322" font-family="Helvetica,sans-Serif" font-size="9.00">mappel::Gauss1DsModel</text>
<text text-anchor="middle" x="375.5" y="-97.3223" font-family="Helvetica,sans-Serif" font-size="9.00">::Stencil::Stencil</text>
</a>
</g>
</g>
<!-- Node4&#45;&gt;Node5 -->
<g id="edge4" class="edge"><title>Node4&#45;&gt;Node5</title>
<path fill="none" stroke="midnightblue" d="M264.255,-71.6239C281.151,-76.6659 300.363,-82.3989 317.963,-87.6509"/>
<polygon fill="midnightblue" stroke="midnightblue" points="316.966,-91.006 327.55,-90.5118 318.968,-84.2983 316.966,-91.006"/>
</g>
<!-- Node19 -->
<g id="node19" class="node"><title>Node19</title>
<g id="a_node19"><a xlink:href="classmappel_1_1PointEmitterModel.html#ad50dfc29b6e7167fb4caf8683353079d" target="_top" target="_top" xlink:title="mappel::PointEmitterModel\l::theta_in_bounds">
<polygon fill="white" stroke="black" points="312,-43.5223 312,-71.5223 439,-71.5223 439,-43.5223 312,-43.5223"/>
<text text-anchor="start" x="320" y="-60.3223" font-family="Helvetica,sans-Serif" font-size="9.00">mappel::PointEmitterModel</text>
<text text-anchor="middle" x="375.5" y="-50.3223" font-family="Helvetica,sans-Serif" font-size="9.00">::theta_in_bounds</text>
</a>
</g>
</g>
<!-- Node4&#45;&gt;Node19 -->
<g id="edge19" class="edge"><title>Node4&#45;&gt;Node19</title>
<path fill="none" stroke="midnightblue" d="M276.095,-57.5223C284.502,-57.5223 293.228,-57.5223 301.856,-57.5223"/>
<polygon fill="midnightblue" stroke="midnightblue" points="301.914,-61.0224 311.914,-57.5223 301.914,-54.0224 301.914,-61.0224"/>
</g>
<!-- Node6 -->
<g id="node6" class="node"><title>Node6</title>
<g id="a_node6"><a xlink:href="classmappel_1_1Gauss1DsModel_1_1Stencil.html#a9e8b6059b84e28bea0ba3496bc95e7ce" target="_top" target="_top" xlink:title="mappel::Gauss1DsModel\l::Stencil::compute_derivatives">
<polygon fill="white" stroke="black" points="475,-90.5223 475,-118.522 613,-118.522 613,-90.5223 475,-90.5223"/>
<text text-anchor="start" x="483" y="-107.322" font-family="Helvetica,sans-Serif" font-size="9.00">mappel::Gauss1DsModel</text>
<text text-anchor="middle" x="544" y="-97.3223" font-family="Helvetica,sans-Serif" font-size="9.00">::Stencil::compute_derivatives</text>
</a>
</g>
</g>
<!-- Node5&#45;&gt;Node6 -->
<g id="edge5" class="edge"><title>Node5&#45;&gt;Node6</title>
<path fill="none" stroke="midnightblue" d="M435.67,-104.522C445.105,-104.522 454.991,-104.522 464.784,-104.522"/>
<polygon fill="midnightblue" stroke="midnightblue" points="464.933,-108.022 474.933,-104.522 464.933,-101.022 464.933,-108.022"/>
</g>
<!-- Node7 -->
<g id="node7" class="node"><title>Node7</title>
<g id="a_node7"><a xlink:href="namespacemappel.html#aa5c2f294298c875605ee1e9876b7d116" target="_top" target="_top" xlink:title="mappel::make_G_stencil">
<polygon fill="white" stroke="black" points="658,-195.522 658,-213.522 776,-213.522 776,-195.522 658,-195.522"/>
<text text-anchor="middle" x="717" y="-202.322" font-family="Helvetica,sans-Serif" font-size="9.00">mappel::make_G_stencil</text>
</a>
</g>
</g>
<!-- Node6&#45;&gt;Node7 -->
<g id="edge6" class="edge"><title>Node6&#45;&gt;Node7</title>
<path fill="none" stroke="midnightblue" d="M558.845,-118.535C577.642,-136.784 613.036,-168.477 649,-186.522 653.283,-188.671 657.852,-190.587 662.516,-192.29"/>
<polygon fill="midnightblue" stroke="midnightblue" points="661.566,-195.662 672.16,-195.494 663.773,-189.019 661.566,-195.662"/>
</g>
<!-- Node6&#45;&gt;Node10 -->
<g id="edge9" class="edge"><title>Node6&#45;&gt;Node10</title>
<path fill="none" stroke="midnightblue" d="M594.824,-90.4734C601.209,-87.6716 607.445,-84.3759 613,-80.5223 633.479,-66.3147 628.46,-51.6416 649,-37.5223 651.25,-35.9755 653.614,-34.524 656.055,-33.1629"/>
<polygon fill="midnightblue" stroke="midnightblue" points="657.777,-36.2152 665.165,-28.6211 654.654,-29.9506 657.777,-36.2152"/>
</g>
<!-- Node11 -->
<g id="node11" class="node"><title>Node11</title>
<g id="a_node11"><a xlink:href="namespacemappel.html#a8da88490d6ff7d5886b96b66c1bab369" target="_top" target="_top" xlink:title="mappel::make_DX_stencil">
<polygon fill="white" stroke="black" points="655,-158.522 655,-176.522 779,-176.522 779,-158.522 655,-158.522"/>
<text text-anchor="middle" x="717" y="-165.322" font-family="Helvetica,sans-Serif" font-size="9.00">mappel::make_DX_stencil</text>
</a>
</g>
</g>
<!-- Node6&#45;&gt;Node11 -->
<g id="edge10" class="edge"><title>Node6&#45;&gt;Node11</title>
<path fill="none" stroke="midnightblue" d="M574.578,-118.695C595.145,-128.208 623.364,-140.586 649,-149.522 655.342,-151.733 662.101,-153.835 668.793,-155.77"/>
<polygon fill="midnightblue" stroke="midnightblue" points="667.922,-159.161 678.495,-158.48 669.805,-152.419 667.922,-159.161"/>
</g>
<!-- Node13 -->
<g id="node13" class="node"><title>Node13</title>
<g id="a_node13"><a xlink:href="namespacemappel.html#af7636db506977133c8b30d108fede711" target="_top" target="_top" xlink:title="mappel::make_DXS_stencil">
<polygon fill="white" stroke="black" points="652,-121.522 652,-139.522 782,-139.522 782,-121.522 652,-121.522"/>
<text text-anchor="middle" x="717" y="-128.322" font-family="Helvetica,sans-Serif" font-size="9.00">mappel::make_DXS_stencil</text>
</a>
</g>
</g>
<!-- Node6&#45;&gt;Node13 -->
<g id="edge12" class="edge"><title>Node6&#45;&gt;Node13</title>
<path fill="none" stroke="midnightblue" d="M613.075,-114.873C624.128,-116.553 635.586,-118.296 646.669,-119.981"/>
<polygon fill="midnightblue" stroke="midnightblue" points="646.306,-123.466 656.718,-121.509 647.358,-116.545 646.306,-123.466"/>
</g>
<!-- Node15 -->
<g id="node15" class="node"><title>Node15</title>
<g id="a_node15"><a xlink:href="namespacemappel.html#aef14b765af6f9b85d93f42ab8b84311b" target="_top" target="_top" xlink:title="mappel::make_DXS2_stencil">
<polygon fill="white" stroke="black" points="649.5,-84.5223 649.5,-102.522 784.5,-102.522 784.5,-84.5223 649.5,-84.5223"/>
<text text-anchor="middle" x="717" y="-91.3223" font-family="Helvetica,sans-Serif" font-size="9.00">mappel::make_DXS2_stencil</text>
</a>
</g>
</g>
<!-- Node6&#45;&gt;Node15 -->
<g id="edge15" class="edge"><title>Node6&#45;&gt;Node15</title>
<path fill="none" stroke="midnightblue" d="M613.075,-100.143C621.644,-99.592 630.456,-99.0251 639.148,-98.466"/>
<polygon fill="midnightblue" stroke="midnightblue" points="639.52,-101.949 649.275,-97.8146 639.071,-94.9638 639.52,-101.949"/>
</g>
<!-- Node17 -->
<g id="node17" class="node"><title>Node17</title>
<g id="a_node17"><a xlink:href="namespacemappel.html#abccec04f04b0b10940779c9bbae0e570" target="_top" target="_top" xlink:title="mappel::make_DXSX_stencil">
<polygon fill="white" stroke="black" points="649,-47.5223 649,-65.5223 785,-65.5223 785,-47.5223 649,-47.5223"/>
<text text-anchor="middle" x="717" y="-54.3223" font-family="Helvetica,sans-Serif" font-size="9.00">mappel::make_DXSX_stencil</text>
</a>
</g>
</g>
<!-- Node6&#45;&gt;Node17 -->
<g id="edge17" class="edge"><title>Node6&#45;&gt;Node17</title>
<path fill="none" stroke="midnightblue" d="M593.101,-90.4474C610.671,-85.3588 630.716,-79.6149 649,-74.5223 656.422,-72.455 664.318,-70.2969 671.988,-68.2226"/>
<polygon fill="midnightblue" stroke="midnightblue" points="673.136,-71.5382 681.882,-65.5585 671.316,-64.779 673.136,-71.5382"/>
</g>
<!-- Node8 -->
<g id="node8" class="node"><title>Node8</title>
<g id="a_node8"><a xlink:href="namespacemappel.html#a5ca82edc201e8605107a991493ad0d5e" target="_top" target="_top" xlink:title="mappel::fill_G_stencil">
<polygon fill="white" stroke="black" points="830,-195.522 830,-213.522 934,-213.522 934,-195.522 830,-195.522"/>
<text text-anchor="middle" x="882" y="-202.322" font-family="Helvetica,sans-Serif" font-size="9.00">mappel::fill_G_stencil</text>
</a>
</g>
</g>
<!-- Node7&#45;&gt;Node8 -->
<g id="edge7" class="edge"><title>Node7&#45;&gt;Node8</title>
<path fill="none" stroke="midnightblue" d="M776.386,-204.522C790.426,-204.522 805.464,-204.522 819.635,-204.522"/>
<polygon fill="midnightblue" stroke="midnightblue" points="819.774,-208.022 829.774,-204.522 819.774,-201.022 819.774,-208.022"/>
</g>
<!-- Node9 -->
<g id="node9" class="node"><title>Node9</title>
<g id="a_node9"><a xlink:href="namespacemappel.html#a8475cdb3edacceb0ae215c3ebd1f33c1" target="_top" target="_top" xlink:title="mappel::square">
<polygon fill="white" stroke="black" points="979,-158.522 979,-176.522 1059,-176.522 1059,-158.522 979,-158.522"/>
<text text-anchor="middle" x="1019" y="-165.322" font-family="Helvetica,sans-Serif" font-size="9.00">mappel::square</text>
</a>
</g>
</g>
<!-- Node8&#45;&gt;Node9 -->
<g id="edge8" class="edge"><title>Node8&#45;&gt;Node9</title>
<path fill="none" stroke="midnightblue" d="M916.025,-195.471C933.839,-190.589 956.034,-184.506 975.163,-179.263"/>
<polygon fill="midnightblue" stroke="midnightblue" points="976.129,-182.627 984.848,-176.608 974.279,-175.876 976.129,-182.627"/>
</g>
<!-- Node12 -->
<g id="node12" class="node"><title>Node12</title>
<g id="a_node12"><a xlink:href="namespacemappel.html#ad2dd4330fc626fa673a3acf691d6b9a7" target="_top" target="_top" xlink:title="mappel::fill_DX_stencil">
<polygon fill="white" stroke="black" points="827,-158.522 827,-176.522 937,-176.522 937,-158.522 827,-158.522"/>
<text text-anchor="middle" x="882" y="-165.322" font-family="Helvetica,sans-Serif" font-size="9.00">mappel::fill_DX_stencil</text>
</a>
</g>
</g>
<!-- Node11&#45;&gt;Node12 -->
<g id="edge11" class="edge"><title>Node11&#45;&gt;Node12</title>
<path fill="none" stroke="midnightblue" d="M779.159,-167.522C791.368,-167.522 804.228,-167.522 816.545,-167.522"/>
<polygon fill="midnightblue" stroke="midnightblue" points="816.737,-171.022 826.737,-167.522 816.737,-164.022 816.737,-171.022"/>
</g>
<!-- Node14 -->
<g id="node14" class="node"><title>Node14</title>
<g id="a_node14"><a xlink:href="namespacemappel.html#ab0cb62f6dcecae5ff19468d87a283e7a" target="_top" target="_top" xlink:title="mappel::fill_DXS_stencil">
<polygon fill="white" stroke="black" points="824,-121.522 824,-139.522 940,-139.522 940,-121.522 824,-121.522"/>
<text text-anchor="middle" x="882" y="-128.322" font-family="Helvetica,sans-Serif" font-size="9.00">mappel::fill_DXS_stencil</text>
</a>
</g>
</g>
<!-- Node13&#45;&gt;Node14 -->
<g id="edge13" class="edge"><title>Node13&#45;&gt;Node14</title>
<path fill="none" stroke="midnightblue" d="M782.422,-130.522C792.7,-130.522 803.357,-130.522 813.7,-130.522"/>
<polygon fill="midnightblue" stroke="midnightblue" points="813.912,-134.022 823.912,-130.522 813.912,-127.022 813.912,-134.022"/>
</g>
<!-- Node14&#45;&gt;Node9 -->
<g id="edge14" class="edge"><title>Node14&#45;&gt;Node9</title>
<path fill="none" stroke="midnightblue" d="M916.025,-139.574C933.839,-144.456 956.034,-150.539 975.163,-155.782"/>
<polygon fill="midnightblue" stroke="midnightblue" points="974.279,-159.168 984.848,-158.436 976.129,-152.417 974.279,-159.168"/>
</g>
<!-- Node16 -->
<g id="node16" class="node"><title>Node16</title>
<g id="a_node16"><a xlink:href="namespacemappel.html#a445e83c8273da9b3a50cc10d038ed612" target="_top" target="_top" xlink:title="mappel::fill_DXS2_stencil">
<polygon fill="white" stroke="black" points="821,-84.5223 821,-102.522 943,-102.522 943,-84.5223 821,-84.5223"/>
<text text-anchor="middle" x="882" y="-91.3223" font-family="Helvetica,sans-Serif" font-size="9.00">mappel::fill_DXS2_stencil</text>
</a>
</g>
</g>
<!-- Node15&#45;&gt;Node16 -->
<g id="edge16" class="edge"><title>Node15&#45;&gt;Node16</title>
<path fill="none" stroke="midnightblue" d="M784.769,-93.5223C793.363,-93.5223 802.183,-93.5223 810.83,-93.5223"/>
<polygon fill="midnightblue" stroke="midnightblue" points="810.876,-97.0224 820.876,-93.5223 810.876,-90.0224 810.876,-97.0224"/>
</g>
<!-- Node18 -->
<g id="node18" class="node"><title>Node18</title>
<g id="a_node18"><a xlink:href="namespacemappel.html#ad3a6553e54dc90232fc04c93731fc69c" target="_top" target="_top" xlink:title="mappel::fill_DXSX_stencil">
<polygon fill="white" stroke="black" points="821,-47.5223 821,-65.5223 943,-65.5223 943,-47.5223 821,-47.5223"/>
<text text-anchor="middle" x="882" y="-54.3223" font-family="Helvetica,sans-Serif" font-size="9.00">mappel::fill_DXSX_stencil</text>
</a>
</g>
</g>
<!-- Node17&#45;&gt;Node18 -->
<g id="edge18" class="edge"><title>Node17&#45;&gt;Node18</title>
<path fill="none" stroke="midnightblue" d="M785.239,-56.5223C793.656,-56.5223 802.282,-56.5223 810.744,-56.5223"/>
<polygon fill="midnightblue" stroke="midnightblue" points="810.958,-60.0224 820.958,-56.5223 810.958,-53.0224 810.958,-60.0224"/>
</g>
<!-- Node20 -->
<g id="node20" class="node"><title>Node20</title>
<g id="a_node20"><a xlink:href="classmappel_1_1PointEmitterModel.html#a97a868e842302f670ed9f9bd49416771" target="_top" target="_top" xlink:title="mappel::PointEmitterModel\l::check_param_shape">
<polygon fill="white" stroke="black" points="480.5,-43.5223 480.5,-71.5223 607.5,-71.5223 607.5,-43.5223 480.5,-43.5223"/>
<text text-anchor="start" x="488.5" y="-60.3223" font-family="Helvetica,sans-Serif" font-size="9.00">mappel::PointEmitterModel</text>
<text text-anchor="middle" x="544" y="-50.3223" font-family="Helvetica,sans-Serif" font-size="9.00">::check_param_shape</text>
</a>
</g>
</g>
<!-- Node19&#45;&gt;Node20 -->
<g id="edge20" class="edge"><title>Node19&#45;&gt;Node20</title>
<path fill="none" stroke="midnightblue" d="M439.447,-57.5223C449.461,-57.5223 459.893,-57.5223 470.114,-57.5223"/>
<polygon fill="midnightblue" stroke="midnightblue" points="470.241,-61.0224 480.241,-57.5223 470.241,-54.0224 470.241,-61.0224"/>
</g>
</g>
</svg>
        <g id="navigator" transform="translate(0 0)" fill="#404254">
                <rect fill="#f2f5e9" fill-opacity="0.5" stroke="#606060" stroke-width=".5" x="0" y="0" width="60" height="60"/>
                <use id="zoomplus" xlink:href="#zoomPlus" target="_top" x="17" y="9" onmousedown="handleZoom(evt,'in')"/>
                <use id="zoomminus" xlink:href="#zoomMin" target="_top" x="42" y="9" onmousedown="handleZoom(evt,'out')"/>
                <use id="reset" xlink:href="#resetDef" target="_top" x="30" y="36" onmousedown="handleReset()"/>
                <g id="arrowUp" xlink:href="#dirArrow" target="_top" transform="translate(30 24)" onmousedown="handlePan(0,-1)">
                  <use xlink:href="#rim" target="_top" fill="#404040">
                        <set attributeName="fill" to="#808080" begin="arrowUp.mouseover" end="arrowUp.mouseout"/>
                  </use>
                  <path fill="none" stroke="white" stroke-width="1.5" d="M0,-3.0v7 M-2.5,-0.5L0,-3.0L2.5,-0.5"/>
                </g>
                <g id="arrowRight" xlink:href="#dirArrow" target="_top" transform="rotate(90) translate(36 -43)" onmousedown="handlePan(1,0)">
                  <use xlink:href="#rim" target="_top" fill="#404040">
                        <set attributeName="fill" to="#808080" begin="arrowRight.mouseover" end="arrowRight.mouseout"/>
                  </use>
                  <path fill="none" stroke="white" stroke-width="1.5" d="M0,-3.0v7 M-2.5,-0.5L0,-3.0L2.5,-0.5"/>
                </g>
                <g id="arrowDown" xlink:href="#dirArrow" target="_top" transform="rotate(180) translate(-30 -48)" onmousedown="handlePan(0,1)">
                  <use xlink:href="#rim" target="_top" fill="#404040">
                        <set attributeName="fill" to="#808080" begin="arrowDown.mouseover" end="arrowDown.mouseout"/>
                  </use>
                  <path fill="none" stroke="white" stroke-width="1.5" d="M0,-3.0v7 M-2.5,-0.5L0,-3.0L2.5,-0.5"/>
                </g>
                <g id="arrowLeft" xlink:href="#dirArrow" target="_top" transform="rotate(270) translate(-36 17)" onmousedown="handlePan(-1,0)">
                  <use xlink:href="#rim" target="_top" fill="#404040">
                        <set attributeName="fill" to="#808080" begin="arrowLeft.mouseover" end="arrowLeft.mouseout"/>
                  </use>
                  <path fill="none" stroke="white" stroke-width="1.5" d="M0,-3.0v7 M-2.5,-0.5L0,-3.0L2.5,-0.5"/>
                </g>
        </g>
        <svg viewBox="0 0 15 15" width="100%" height="30px" preserveAspectRatio="xMaxYMin meet">
         <g id="arrow_out" transform="scale(0.3 0.3)">
          <a xlink:href="classmappel_1_1Gauss1DsModel_ad987432d37b221f7fa01605d1bef0bbe_cgraph_org.svg" target="_top" target="_base">
           <rect id="button" ry="5" rx="5" y="6" x="6" height="38" width="38"
                fill="#f2f5e9" fill-opacity="0.5" stroke="#606060" stroke-width="1.0"/>
           <path id="arrow"
             d="M 11.500037,31.436501 C 11.940474,20.09759 22.043105,11.32322 32.158766,21.979434 L 37.068811,17.246167 C 37.068811,17.246167 37.088388,32 37.088388,32 L 22.160133,31.978069 C 22.160133,31.978069 26.997745,27.140456 26.997745,27.140456 C 18.528582,18.264221 13.291696,25.230495 11.500037,31.436501 z"
             style="fill:#404040;"/>
          </a>
         </g>
        </svg>
</svg>
