<?xml version="1.0" encoding="UTF-8" standalone="no"?>
<!DOCTYPE svg PUBLIC "-//W3C//DTD SVG 1.1//EN"
 "http://www.w3.org/Graphics/SVG/1.1/DTD/svg11.dtd">
<!-- Generated by graphviz version 2.38.0 (20140413.2041)
 -->
<!-- Title: mappel::MCMCAdaptor2D::get_stats Pages: 1 -->
<svg width="454pt" height="84pt"
 viewBox="0.00 0.00 454.00 84.00" xmlns="http://www.w3.org/2000/svg" xmlns:xlink="http://www.w3.org/1999/xlink">
<g id="graph0" class="graph" transform="scale(1 1) rotate(0) translate(4 80)">
<title>mappel::MCMCAdaptor2D::get_stats</title>
<polygon fill="white" stroke="none" points="-4,4 -4,-80 450,-80 450,4 -4,4"/>
<!-- Node1 -->
<g id="node1" class="node"><title>Node1</title>
<polygon fill="#bfbfbf" stroke="black" points="0,-23.5 0,-51.5 125,-51.5 125,-23.5 0,-23.5"/>
<text text-anchor="start" x="8" y="-40.3" font-family="Helvetica,sans-Serif" font-size="9.00">mappel::MCMCAdaptor2D</text>
<text text-anchor="middle" x="62.5" y="-30.3" font-family="Helvetica,sans-Serif" font-size="9.00">::get_stats</text>
</g>
<!-- Node2 -->
<g id="node2" class="node"><title>Node2</title>
<g id="a_node2"><a xlink:href="classmappel_1_1MCMCAdaptor2Ds.html#adc76529ede19684c1deacbeb8205fd8a" target="_top" xlink:title="mappel::MCMCAdaptor2Ds\l::get_stats">
<polygon fill="white" stroke="black" points="161,-47.5 161,-75.5 290,-75.5 290,-47.5 161,-47.5"/>
<text text-anchor="start" x="169" y="-64.3" font-family="Helvetica,sans-Serif" font-size="9.00">mappel::MCMCAdaptor2Ds</text>
<text text-anchor="middle" x="225.5" y="-54.3" font-family="Helvetica,sans-Serif" font-size="9.00">::get_stats</text>
</a>
</g>
</g>
<!-- Node1&#45;&gt;Node2 -->
<g id="edge1" class="edge"><title>Node1&#45;&gt;Node2</title>
<path fill="none" stroke="midnightblue" d="M135.195,-48.1875C143.708,-49.4565 152.354,-50.7453 160.746,-51.9963"/>
<polygon fill="midnightblue" stroke="midnightblue" points="135.693,-44.7231 125.286,-46.7104 134.661,-51.6466 135.693,-44.7231"/>
</g>
<!-- Node4 -->
<g id="node4" class="node"><title>Node4</title>
<g id="a_node4"><a xlink:href="classmappel_1_1Gauss2DModel.html#a8aecb8960e94b03499110e08f5d18c7f" target="_top" xlink:title="mappel::Gauss2DModel\l::get_stats">
<polygon fill="white" stroke="black" points="167.5,-0.5 167.5,-28.5 283.5,-28.5 283.5,-0.5 167.5,-0.5"/>
<text text-anchor="start" x="175.5" y="-17.3" font-family="Helvetica,sans-Serif" font-size="9.00">mappel::Gauss2DModel</text>
<text text-anchor="middle" x="225.5" y="-7.3" font-family="Helvetica,sans-Serif" font-size="9.00">::get_stats</text>
</a>
</g>
</g>
<!-- Node1&#45;&gt;Node4 -->
<g id="edge3" class="edge"><title>Node1&#45;&gt;Node4</title>
<path fill="none" stroke="midnightblue" d="M135.45,-27.2215C146.141,-25.6941 157.036,-24.1376 167.369,-22.6615"/>
<polygon fill="midnightblue" stroke="midnightblue" points="134.691,-23.7943 125.286,-28.6734 135.681,-30.7239 134.691,-23.7943"/>
</g>
<!-- Node3 -->
<g id="node3" class="node"><title>Node3</title>
<g id="a_node3"><a xlink:href="classmappel_1_1Gauss2DsModel.html#a9c59a143645ffdacd13b1dc332828cfb" target="_top" xlink:title="mappel::Gauss2DsModel\l::get_stats">
<polygon fill="white" stroke="black" points="326,-47.5 326,-75.5 446,-75.5 446,-47.5 326,-47.5"/>
<text text-anchor="start" x="334" y="-64.3" font-family="Helvetica,sans-Serif" font-size="9.00">mappel::Gauss2DsModel</text>
<text text-anchor="middle" x="386" y="-54.3" font-family="Helvetica,sans-Serif" font-size="9.00">::get_stats</text>
</a>
</g>
</g>
<!-- Node2&#45;&gt;Node3 -->
<g id="edge2" class="edge"><title>Node2&#45;&gt;Node3</title>
<path fill="none" stroke="midnightblue" d="M300.1,-61.5C308.714,-61.5 317.417,-61.5 325.799,-61.5"/>
<polygon fill="midnightblue" stroke="midnightblue" points="300.055,-58.0001 290.055,-61.5 300.055,-65.0001 300.055,-58.0001"/>
</g>
</g>
</svg>
