<?xml version="1.0" encoding="UTF-8" standalone="no"?>
<!DOCTYPE svg PUBLIC "-//W3C//DTD SVG 1.1//EN"
 "http://www.w3.org/Graphics/SVG/1.1/DTD/svg11.dtd">
<!-- Generated by graphviz version 2.38.0 (20140413.2041)
 -->
<!-- Title: mappel::IterativeMaximizer::MaximizerData::saved_theta Pages: 1 -->
<svg width="668pt" height="142pt"
 viewBox="0.00 0.00 668.00 142.00" xmlns="http://www.w3.org/2000/svg" xmlns:xlink="http://www.w3.org/1999/xlink">
<g id="graph0" class="graph" transform="scale(1 1) rotate(0) translate(4 138)">
<title>mappel::IterativeMaximizer::MaximizerData::saved_theta</title>
<polygon fill="white" stroke="none" points="-4,4 -4,-138 664,-138 664,4 -4,4"/>
<!-- Node1 -->
<g id="node1" class="node"><title>Node1</title>
<polygon fill="#bfbfbf" stroke="black" points="0,-44.5 0,-72.5 137,-72.5 137,-44.5 0,-44.5"/>
<text text-anchor="start" x="8" y="-61.3" font-family="Helvetica,sans-Serif" font-size="9.00">mappel::IterativeMaximizer</text>
<text text-anchor="middle" x="68.5" y="-51.3" font-family="Helvetica,sans-Serif" font-size="9.00">::MaximizerData::saved_theta</text>
</g>
<!-- Node2 -->
<g id="node2" class="node"><title>Node2</title>
<g id="a_node2"><a xlink:href="classmappel_1_1IterativeMaximizer.html#ac033d2b23a6a861e6d7adbe35f17624e" target="_top" xlink:title="mappel::IterativeMaximizer\l::backtrack">
<polygon fill="white" stroke="black" points="335,-66.5 335,-94.5 461,-94.5 461,-66.5 335,-66.5"/>
<text text-anchor="start" x="343" y="-83.3" font-family="Helvetica,sans-Serif" font-size="9.00">mappel::IterativeMaximizer</text>
<text text-anchor="middle" x="398" y="-73.3" font-family="Helvetica,sans-Serif" font-size="9.00">::backtrack</text>
</a>
</g>
</g>
<!-- Node1&#45;&gt;Node2 -->
<g id="edge1" class="edge"><title>Node1&#45;&gt;Node2</title>
<path fill="none" stroke="midnightblue" d="M147.457,-63.7368C204.748,-67.5854 281.565,-72.7456 334.768,-76.3195"/>
<polygon fill="midnightblue" stroke="midnightblue" points="147.57,-60.2366 137.358,-63.0584 147.101,-67.2209 147.57,-60.2366"/>
</g>
<!-- Node6 -->
<g id="node6" class="node"><title>Node6</title>
<g id="a_node6"><a xlink:href="classmappel_1_1IterativeMaximizer.html#aef9b61d66d785a1a06dd2c75c3166435" target="_top" xlink:title="mappel::IterativeMaximizer\l::convergence_test">
<polygon fill="white" stroke="black" points="173,-23.5 173,-51.5 299,-51.5 299,-23.5 173,-23.5"/>
<text text-anchor="start" x="181" y="-40.3" font-family="Helvetica,sans-Serif" font-size="9.00">mappel::IterativeMaximizer</text>
<text text-anchor="middle" x="236" y="-30.3" font-family="Helvetica,sans-Serif" font-size="9.00">::convergence_test</text>
</a>
</g>
</g>
<!-- Node1&#45;&gt;Node6 -->
<g id="edge5" class="edge"><title>Node1&#45;&gt;Node6</title>
<path fill="none" stroke="midnightblue" d="M147.312,-48.6266C155.894,-47.5377 164.546,-46.4397 172.899,-45.3798"/>
<polygon fill="midnightblue" stroke="midnightblue" points="146.773,-45.1669 137.293,-49.8979 147.654,-52.1112 146.773,-45.1669"/>
</g>
<!-- Node3 -->
<g id="node3" class="node"><title>Node3</title>
<g id="a_node3"><a xlink:href="classmappel_1_1NewtonDiagonalMaximizer.html#ac445064041b5c7f3c147c08a0065cd68" target="_top" xlink:title="mappel::NewtonDiagonalMaximizer\l::maximize">
<polygon fill="white" stroke="black" points="497,-105.5 497,-133.5 660,-133.5 660,-105.5 497,-105.5"/>
<text text-anchor="start" x="505" y="-122.3" font-family="Helvetica,sans-Serif" font-size="9.00">mappel::NewtonDiagonalMaximizer</text>
<text text-anchor="middle" x="578.5" y="-112.3" font-family="Helvetica,sans-Serif" font-size="9.00">::maximize</text>
</a>
</g>
</g>
<!-- Node2&#45;&gt;Node3 -->
<g id="edge2" class="edge"><title>Node2&#45;&gt;Node3</title>
<path fill="none" stroke="midnightblue" d="M471.167,-96.2676C485.049,-99.3007 499.504,-102.459 513.12,-105.434"/>
<polygon fill="midnightblue" stroke="midnightblue" points="471.697,-92.8008 461.18,-94.0856 470.202,-99.6395 471.697,-92.8008"/>
</g>
<!-- Node4 -->
<g id="node4" class="node"><title>Node4</title>
<g id="a_node4"><a xlink:href="classmappel_1_1NewtonMaximizer.html#aca7e3071f17ef6f381878eb6151c86d7" target="_top" xlink:title="mappel::NewtonMaximizer\l::maximize">
<polygon fill="white" stroke="black" points="516,-0.5 516,-28.5 641,-28.5 641,-0.5 516,-0.5"/>
<text text-anchor="start" x="524" y="-17.3" font-family="Helvetica,sans-Serif" font-size="9.00">mappel::NewtonMaximizer</text>
<text text-anchor="middle" x="578.5" y="-7.3" font-family="Helvetica,sans-Serif" font-size="9.00">::maximize</text>
</a>
</g>
</g>
<!-- Node2&#45;&gt;Node4 -->
<g id="edge3" class="edge"><title>Node2&#45;&gt;Node4</title>
<path fill="none" stroke="midnightblue" d="M446.838,-62.8119C475.91,-52.0627 512.513,-38.5287 539.577,-28.5218"/>
<polygon fill="midnightblue" stroke="midnightblue" points="445.458,-59.5905 437.293,-66.3413 447.886,-66.1561 445.458,-59.5905"/>
</g>
<!-- Node5 -->
<g id="node5" class="node"><title>Node5</title>
<g id="a_node5"><a xlink:href="classmappel_1_1QuasiNewtonMaximizer.html#ab4d32d8ba90d4355262a228753619b9f" target="_top" xlink:title="mappel::QuasiNewtonMaximizer\l::maximize">
<polygon fill="white" stroke="black" points="504,-54.5 504,-82.5 653,-82.5 653,-54.5 504,-54.5"/>
<text text-anchor="start" x="512" y="-71.3" font-family="Helvetica,sans-Serif" font-size="9.00">mappel::QuasiNewtonMaximizer</text>
<text text-anchor="middle" x="578.5" y="-61.3" font-family="Helvetica,sans-Serif" font-size="9.00">::maximize</text>
</a>
</g>
</g>
<!-- Node2&#45;&gt;Node5 -->
<g id="edge4" class="edge"><title>Node2&#45;&gt;Node5</title>
<path fill="none" stroke="midnightblue" d="M471.341,-75.6367C482.07,-74.9155 493.137,-74.1715 503.891,-73.4485"/>
<polygon fill="midnightblue" stroke="midnightblue" points="470.923,-72.1569 461.18,-76.3198 471.392,-79.1411 470.923,-72.1569"/>
</g>
<!-- Node6&#45;&gt;Node2 -->
<g id="edge6" class="edge"><title>Node6&#45;&gt;Node2</title>
<path fill="none" stroke="midnightblue" d="M299.147,-54.2019C314.226,-58.2545 330.197,-62.5467 344.766,-66.462"/>
<polygon fill="midnightblue" stroke="midnightblue" points="299.956,-50.7952 289.39,-51.5798 298.139,-57.5554 299.956,-50.7952"/>
</g>
<!-- Node6&#45;&gt;Node3 -->
<g id="edge7" class="edge"><title>Node6&#45;&gt;Node3</title>
<path fill="none" stroke="midnightblue" d="M259.903,-58.1115C278.639,-73.6158 306.594,-93.7927 335,-103.5 386.903,-121.237 448.626,-125.086 496.812,-124.578"/>
<polygon fill="midnightblue" stroke="midnightblue" points="262.107,-55.3909 252.219,-51.5844 257.575,-60.726 262.107,-55.3909"/>
</g>
<!-- Node6&#45;&gt;Node4 -->
<g id="edge8" class="edge"><title>Node6&#45;&gt;Node4</title>
<path fill="none" stroke="midnightblue" d="M309.218,-26.3104C317.89,-25.2252 326.634,-24.2508 335,-23.5 396.368,-17.993 466.763,-15.8409 515.843,-15.0077"/>
<polygon fill="midnightblue" stroke="midnightblue" points="308.561,-22.8663 299.097,-27.6286 309.465,-29.8076 308.561,-22.8663"/>
</g>
<!-- Node6&#45;&gt;Node5 -->
<g id="edge9" class="edge"><title>Node6&#45;&gt;Node5</title>
<path fill="none" stroke="midnightblue" d="M309.313,-43.3012C353.207,-46.9052 410.35,-51.7437 461,-56.5 474.867,-57.8022 489.654,-59.2667 503.876,-60.7134"/>
<polygon fill="midnightblue" stroke="midnightblue" points="309.559,-39.8097 299.307,-42.4821 308.988,-46.7863 309.559,-39.8097"/>
</g>
</g>
</svg>
