<?xml version="1.0" encoding="UTF-8" standalone="no"?>
<!DOCTYPE svg PUBLIC "-//W3C//DTD SVG 1.1//EN"
 "http://www.w3.org/Graphics/SVG/1.1/DTD/svg11.dtd">
<!-- Generated by graphviz version 2.38.0 (20140413.2041)
 -->
<!-- Title: mappel::Gauss2DsxyModel::make_stencil Pages: 1 -->
<svg width="476pt" height="84pt"
 viewBox="0.00 0.00 476.00 84.00" xmlns="http://www.w3.org/2000/svg" xmlns:xlink="http://www.w3.org/1999/xlink">
<g id="graph0" class="graph" transform="scale(1 1) rotate(0) translate(4 80)">
<title>mappel::Gauss2DsxyModel::make_stencil</title>
<polygon fill="white" stroke="none" points="-4,4 -4,-80 472,-80 472,4 -4,4"/>
<!-- Node1 -->
<g id="node1" class="node"><title>Node1</title>
<polygon fill="#bfbfbf" stroke="black" points="0,-23.5 0,-51.5 129,-51.5 129,-23.5 0,-23.5"/>
<text text-anchor="start" x="8" y="-40.3" font-family="Helvetica,sans-Serif" font-size="9.00">mappel::Gauss2DsxyModel</text>
<text text-anchor="middle" x="64.5" y="-30.3" font-family="Helvetica,sans-Serif" font-size="9.00">::make_stencil</text>
</g>
<!-- Node2 -->
<g id="node2" class="node"><title>Node2</title>
<g id="a_node2"><a xlink:href="classmappel_1_1Gauss2DsxyModel_1_1Stencil.html#ae006204abb79ef7892843f978b37d1ff" target="_top" xlink:title="mappel::Gauss2DsxyModel\l::Stencil::Stencil">
<polygon fill="white" stroke="black" points="165,-47.5 165,-75.5 294,-75.5 294,-47.5 165,-47.5"/>
<text text-anchor="start" x="173" y="-64.3" font-family="Helvetica,sans-Serif" font-size="9.00">mappel::Gauss2DsxyModel</text>
<text text-anchor="middle" x="229.5" y="-54.3" font-family="Helvetica,sans-Serif" font-size="9.00">::Stencil::Stencil</text>
</a>
</g>
</g>
<!-- Node1&#45;&gt;Node2 -->
<g id="edge1" class="edge"><title>Node1&#45;&gt;Node2</title>
<path fill="none" stroke="midnightblue" d="M129.454,-46.9166C137.852,-48.153 146.511,-49.4279 155.05,-50.6853"/>
<polygon fill="midnightblue" stroke="midnightblue" points="154.594,-54.1559 164.998,-52.15 155.614,-47.2305 154.594,-54.1559"/>
</g>
<!-- Node4 -->
<g id="node4" class="node"><title>Node4</title>
<g id="a_node4"><a xlink:href="classmappel_1_1PointEmitterModel.html#ad50dfc29b6e7167fb4caf8683353079d" target="_top" xlink:title="mappel::PointEmitterModel\l::theta_in_bounds">
<polygon fill="white" stroke="black" points="166,-0.5 166,-28.5 293,-28.5 293,-0.5 166,-0.5"/>
<text text-anchor="start" x="174" y="-17.3" font-family="Helvetica,sans-Serif" font-size="9.00">mappel::PointEmitterModel</text>
<text text-anchor="middle" x="229.5" y="-7.3" font-family="Helvetica,sans-Serif" font-size="9.00">::theta_in_bounds</text>
</a>
</g>
</g>
<!-- Node1&#45;&gt;Node4 -->
<g id="edge3" class="edge"><title>Node1&#45;&gt;Node4</title>
<path fill="none" stroke="midnightblue" d="M129.454,-28.4758C138.044,-27.2637 146.907,-26.0131 155.637,-24.7813"/>
<polygon fill="midnightblue" stroke="midnightblue" points="156.386,-28.2104 165.799,-23.3474 155.408,-21.279 156.386,-28.2104"/>
</g>
<!-- Node3 -->
<g id="node3" class="node"><title>Node3</title>
<g id="a_node3"><a xlink:href="classmappel_1_1Gauss2DsxyModel_1_1Stencil.html#a52379932618469a171c7ecde691fa36a" target="_top" xlink:title="mappel::Gauss2DsxyModel\l::Stencil::compute_derivatives">
<polygon fill="white" stroke="black" points="330,-47.5 330,-75.5 468,-75.5 468,-47.5 330,-47.5"/>
<text text-anchor="start" x="338" y="-64.3" font-family="Helvetica,sans-Serif" font-size="9.00">mappel::Gauss2DsxyModel</text>
<text text-anchor="middle" x="399" y="-54.3" font-family="Helvetica,sans-Serif" font-size="9.00">::Stencil::compute_derivatives</text>
</a>
</g>
</g>
<!-- Node2&#45;&gt;Node3 -->
<g id="edge2" class="edge"><title>Node2&#45;&gt;Node3</title>
<path fill="none" stroke="midnightblue" d="M294.302,-61.5C302.675,-61.5 311.33,-61.5 319.906,-61.5"/>
<polygon fill="midnightblue" stroke="midnightblue" points="319.915,-65.0001 329.915,-61.5 319.915,-58.0001 319.915,-65.0001"/>
</g>
<!-- Node5 -->
<g id="node5" class="node"><title>Node5</title>
<g id="a_node5"><a xlink:href="classmappel_1_1PointEmitterModel.html#a97a868e842302f670ed9f9bd49416771" target="_top" xlink:title="mappel::PointEmitterModel\l::check_param_shape">
<polygon fill="white" stroke="black" points="335.5,-0.5 335.5,-28.5 462.5,-28.5 462.5,-0.5 335.5,-0.5"/>
<text text-anchor="start" x="343.5" y="-17.3" font-family="Helvetica,sans-Serif" font-size="9.00">mappel::PointEmitterModel</text>
<text text-anchor="middle" x="399" y="-7.3" font-family="Helvetica,sans-Serif" font-size="9.00">::check_param_shape</text>
</a>
</g>
</g>
<!-- Node4&#45;&gt;Node5 -->
<g id="edge4" class="edge"><title>Node4&#45;&gt;Node5</title>
<path fill="none" stroke="midnightblue" d="M293.347,-14.5C303.759,-14.5 314.631,-14.5 325.262,-14.5"/>
<polygon fill="midnightblue" stroke="midnightblue" points="325.358,-18.0001 335.357,-14.5 325.357,-11.0001 325.358,-18.0001"/>
</g>
</g>
</svg>
