<?xml version="1.0" encoding="UTF-8" standalone="no"?>
<!DOCTYPE svg PUBLIC "-//W3C//DTD SVG 1.1//EN"
 "http://www.w3.org/Graphics/SVG/1.1/DTD/svg11.dtd">
<!-- Generated by graphviz version 2.38.0 (20140413.2041)
 -->
<!-- Title: mappel::Gauss2DModel::set_size Pages: 1 -->
<svg width="474pt" height="84pt"
 viewBox="0.00 0.00 474.00 84.00" xmlns="http://www.w3.org/2000/svg" xmlns:xlink="http://www.w3.org/1999/xlink">
<g id="graph0" class="graph" transform="scale(1 1) rotate(0) translate(4 80)">
<title>mappel::Gauss2DModel::set_size</title>
<polygon fill="white" stroke="none" points="-4,4 -4,-80 470,-80 470,4 -4,4"/>
<!-- Node1 -->
<g id="node1" class="node"><title>Node1</title>
<polygon fill="#bfbfbf" stroke="black" points="0,-23.5 0,-51.5 116,-51.5 116,-23.5 0,-23.5"/>
<text text-anchor="start" x="8" y="-40.3" font-family="Helvetica,sans-Serif" font-size="9.00">mappel::Gauss2DModel</text>
<text text-anchor="middle" x="58" y="-30.3" font-family="Helvetica,sans-Serif" font-size="9.00">::set_size</text>
</g>
<!-- Node2 -->
<g id="node2" class="node"><title>Node2</title>
<g id="a_node2"><a xlink:href="classmappel_1_1ImageFormat2DBase.html#afb0cba98e353625641646506aeb80372" target="_top" xlink:title="mappel::ImageFormat2DBase\l::set_size">
<polygon fill="white" stroke="black" points="152,-47.5 152,-75.5 291,-75.5 291,-47.5 152,-47.5"/>
<text text-anchor="start" x="160" y="-64.3" font-family="Helvetica,sans-Serif" font-size="9.00">mappel::ImageFormat2DBase</text>
<text text-anchor="middle" x="221.5" y="-54.3" font-family="Helvetica,sans-Serif" font-size="9.00">::set_size</text>
</a>
</g>
</g>
<!-- Node1&#45;&gt;Node2 -->
<g id="edge1" class="edge"><title>Node1&#45;&gt;Node2</title>
<path fill="none" stroke="midnightblue" d="M116.394,-46.0291C124.669,-47.2589 133.303,-48.542 141.905,-49.8202"/>
<polygon fill="midnightblue" stroke="midnightblue" points="141.558,-53.307 151.964,-51.315 142.587,-46.3831 141.558,-53.307"/>
</g>
<!-- Node4 -->
<g id="node4" class="node"><title>Node4</title>
<g id="a_node4"><a xlink:href="classmappel_1_1ImageFormat1DBase.html#ad169407f15bd43b0cec18fa2c88725b7" target="_top" xlink:title="mappel::ImageFormat1DBase\l::set_size">
<polygon fill="white" stroke="black" points="152,-0.5 152,-28.5 291,-28.5 291,-0.5 152,-0.5"/>
<text text-anchor="start" x="160" y="-17.3" font-family="Helvetica,sans-Serif" font-size="9.00">mappel::ImageFormat1DBase</text>
<text text-anchor="middle" x="221.5" y="-7.3" font-family="Helvetica,sans-Serif" font-size="9.00">::set_size</text>
</a>
</g>
</g>
<!-- Node1&#45;&gt;Node4 -->
<g id="edge3" class="edge"><title>Node1&#45;&gt;Node4</title>
<path fill="none" stroke="midnightblue" d="M116.394,-29.3263C124.669,-28.1477 133.303,-26.9181 141.905,-25.6931"/>
<polygon fill="midnightblue" stroke="midnightblue" points="142.557,-29.1356 151.964,-24.2606 141.57,-22.2056 142.557,-29.1356"/>
</g>
<!-- Node3 -->
<g id="node3" class="node"><title>Node3</title>
<g id="a_node3"><a xlink:href="classmappel_1_1ImageFormat2DBase.html#a9c90f6a165348629be4bcf956e3010f3" target="_top" xlink:title="Check the size argument for the model. ">
<polygon fill="white" stroke="black" points="327,-47.5 327,-75.5 466,-75.5 466,-47.5 327,-47.5"/>
<text text-anchor="start" x="335" y="-64.3" font-family="Helvetica,sans-Serif" font-size="9.00">mappel::ImageFormat2DBase</text>
<text text-anchor="middle" x="396.5" y="-54.3" font-family="Helvetica,sans-Serif" font-size="9.00">::check_size</text>
</a>
</g>
</g>
<!-- Node2&#45;&gt;Node3 -->
<g id="edge2" class="edge"><title>Node2&#45;&gt;Node3</title>
<path fill="none" stroke="midnightblue" d="M291.371,-61.5C299.678,-61.5 308.211,-61.5 316.647,-61.5"/>
<polygon fill="midnightblue" stroke="midnightblue" points="316.866,-65.0001 326.866,-61.5 316.866,-58.0001 316.866,-65.0001"/>
</g>
<!-- Node5 -->
<g id="node5" class="node"><title>Node5</title>
<g id="a_node5"><a xlink:href="classmappel_1_1ImageFormat1DBase.html#a2eb986335c4d1405de65217456735ba4" target="_top" xlink:title="Check the size argument for the model. ">
<polygon fill="white" stroke="black" points="327,-0.5 327,-28.5 466,-28.5 466,-0.5 327,-0.5"/>
<text text-anchor="start" x="335" y="-17.3" font-family="Helvetica,sans-Serif" font-size="9.00">mappel::ImageFormat1DBase</text>
<text text-anchor="middle" x="396.5" y="-7.3" font-family="Helvetica,sans-Serif" font-size="9.00">::check_size</text>
</a>
</g>
</g>
<!-- Node4&#45;&gt;Node5 -->
<g id="edge4" class="edge"><title>Node4&#45;&gt;Node5</title>
<path fill="none" stroke="midnightblue" d="M291.371,-14.5C299.678,-14.5 308.211,-14.5 316.647,-14.5"/>
<polygon fill="midnightblue" stroke="midnightblue" points="316.866,-18.0001 326.866,-14.5 316.866,-11.0001 316.866,-18.0001"/>
</g>
</g>
</svg>
