<?xml version="1.0" encoding="UTF-8" standalone="no"?>
<!DOCTYPE svg PUBLIC "-//W3C//DTD SVG 1.1//EN"
 "http://www.w3.org/Graphics/SVG/1.1/DTD/svg11.dtd">
<!-- Generated by graphviz version 2.38.0 (20140413.2041)
 -->
<!-- Title: mappel::ThreadedEstimator::clear_stats Pages: 1 -->
<svg width="302pt" height="131pt"
 viewBox="0.00 0.00 302.00 131.00" xmlns="http://www.w3.org/2000/svg" xmlns:xlink="http://www.w3.org/1999/xlink">
<g id="graph0" class="graph" transform="scale(1 1) rotate(0) translate(4 127)">
<title>mappel::ThreadedEstimator::clear_stats</title>
<polygon fill="white" stroke="none" points="-4,4 -4,-127 298,-127 298,4 -4,4"/>
<!-- Node1 -->
<g id="node1" class="node"><title>Node1</title>
<polygon fill="#bfbfbf" stroke="black" points="0,-47.5 0,-75.5 130,-75.5 130,-47.5 0,-47.5"/>
<text text-anchor="start" x="8" y="-64.3" font-family="Helvetica,sans-Serif" font-size="9.00">mappel::ThreadedEstimator</text>
<text text-anchor="middle" x="65" y="-54.3" font-family="Helvetica,sans-Serif" font-size="9.00">::clear_stats</text>
</g>
<!-- Node2 -->
<g id="node2" class="node"><title>Node2</title>
<g id="a_node2"><a xlink:href="namespacemappel.html#a9a33407dfb369f92a6679b66aa6108da" target="_top" xlink:title="mappel::cgauss_heuristic\l_compute_estimate">
<polygon fill="white" stroke="black" points="169.5,-94.5 169.5,-122.5 290.5,-122.5 290.5,-94.5 169.5,-94.5"/>
<text text-anchor="start" x="177.5" y="-111.3" font-family="Helvetica,sans-Serif" font-size="9.00">mappel::cgauss_heuristic</text>
<text text-anchor="middle" x="230" y="-101.3" font-family="Helvetica,sans-Serif" font-size="9.00">_compute_estimate</text>
</a>
</g>
</g>
<!-- Node1&#45;&gt;Node2 -->
<g id="edge1" class="edge"><title>Node1&#45;&gt;Node2</title>
<path fill="none" stroke="midnightblue" d="M114.905,-75.6015C132.472,-80.6669 152.458,-86.4297 170.741,-91.7015"/>
<polygon fill="midnightblue" stroke="midnightblue" points="169.832,-95.0818 180.41,-94.4894 171.771,-88.3558 169.832,-95.0818"/>
</g>
<!-- Node3 -->
<g id="node3" class="node"><title>Node3</title>
<g id="a_node3"><a xlink:href="classmappel_1_1Estimator.html#a2181f8c34bfc89b5b6b491f4db63a4d8" target="_top" xlink:title="mappel::Estimator::\lclear_stats">
<polygon fill="white" stroke="black" points="182.5,-47.5 182.5,-75.5 277.5,-75.5 277.5,-47.5 182.5,-47.5"/>
<text text-anchor="start" x="190.5" y="-64.3" font-family="Helvetica,sans-Serif" font-size="9.00">mappel::Estimator::</text>
<text text-anchor="middle" x="230" y="-54.3" font-family="Helvetica,sans-Serif" font-size="9.00">clear_stats</text>
</a>
</g>
</g>
<!-- Node1&#45;&gt;Node3 -->
<g id="edge2" class="edge"><title>Node1&#45;&gt;Node3</title>
<path fill="none" stroke="midnightblue" d="M130.422,-61.5C144.179,-61.5 158.615,-61.5 172.067,-61.5"/>
<polygon fill="midnightblue" stroke="midnightblue" points="172.134,-65.0001 182.134,-61.5 172.134,-58.0001 172.134,-65.0001"/>
</g>
<!-- Node4 -->
<g id="node4" class="node"><title>Node4</title>
<g id="a_node4"><a xlink:href="namespacemappel_1_1methods_1_1objective.html#a293c23ed6a623e59477bb67b6e40f5ad" target="_top" xlink:title="mappel::methods::objective\l::rllh">
<polygon fill="white" stroke="black" points="166,-0.5 166,-28.5 294,-28.5 294,-0.5 166,-0.5"/>
<text text-anchor="start" x="174" y="-17.3" font-family="Helvetica,sans-Serif" font-size="9.00">mappel::methods::objective</text>
<text text-anchor="middle" x="230" y="-7.3" font-family="Helvetica,sans-Serif" font-size="9.00">::rllh</text>
</a>
</g>
</g>
<!-- Node1&#45;&gt;Node4 -->
<g id="edge3" class="edge"><title>Node1&#45;&gt;Node4</title>
<path fill="none" stroke="midnightblue" d="M114.905,-47.3985C132.472,-42.3331 152.458,-36.5703 170.741,-31.2985"/>
<polygon fill="midnightblue" stroke="midnightblue" points="171.771,-34.6442 180.41,-28.5106 169.832,-27.9182 171.771,-34.6442"/>
</g>
</g>
</svg>
