<?xml version="1.0" encoding="UTF-8" standalone="no"?>
<!DOCTYPE svg PUBLIC "-//W3C//DTD SVG 1.1//EN"
 "http://www.w3.org/Graphics/SVG/1.1/DTD/svg11.dtd">
<!-- Generated by graphviz version 2.38.0 (20140413.2041)
 -->
<!-- Title: mappel::PointEmitterModel::theta_stack_in_bounds Pages: 1 -->
<svg width="461pt" height="58pt"
 viewBox="0.00 0.00 461.00 58.00" xmlns="http://www.w3.org/2000/svg" xmlns:xlink="http://www.w3.org/1999/xlink">
<g id="graph0" class="graph" transform="scale(1 1) rotate(0) translate(4 54)">
<title>mappel::PointEmitterModel::theta_stack_in_bounds</title>
<polygon fill="white" stroke="none" points="-4,4 -4,-54 457,-54 457,4 -4,4"/>
<!-- Node1 -->
<g id="node1" class="node"><title>Node1</title>
<polygon fill="#bfbfbf" stroke="black" points="0,-21.5 0,-49.5 127,-49.5 127,-21.5 0,-21.5"/>
<text text-anchor="start" x="8" y="-38.3" font-family="Helvetica,sans-Serif" font-size="9.00">mappel::PointEmitterModel</text>
<text text-anchor="middle" x="63.5" y="-28.3" font-family="Helvetica,sans-Serif" font-size="9.00">::theta_stack_in_bounds</text>
</g>
<!-- Node2 -->
<g id="node2" class="node"><title>Node2</title>
<g id="a_node2"><a xlink:href="classmappel_1_1PointEmitterModel.html#a97a868e842302f670ed9f9bd49416771" target="_top" xlink:title="mappel::PointEmitterModel\l::check_param_shape">
<polygon fill="white" stroke="black" points="326,-21.5 326,-49.5 453,-49.5 453,-21.5 326,-21.5"/>
<text text-anchor="start" x="334" y="-38.3" font-family="Helvetica,sans-Serif" font-size="9.00">mappel::PointEmitterModel</text>
<text text-anchor="middle" x="389.5" y="-28.3" font-family="Helvetica,sans-Serif" font-size="9.00">::check_param_shape</text>
</a>
</g>
</g>
<!-- Node1&#45;&gt;Node2 -->
<g id="edge1" class="edge"><title>Node1&#45;&gt;Node2</title>
<path fill="none" stroke="midnightblue" d="M127.022,-37.6909C138.965,-38.0282 151.367,-38.3229 163,-38.5 219.438,-39.3593 233.562,-39.3593 290,-38.5 298.361,-38.3727 307.12,-38.1847 315.819,-37.9637"/>
<polygon fill="midnightblue" stroke="midnightblue" points="316.075,-41.4582 325.978,-37.6909 315.887,-34.4607 316.075,-41.4582"/>
</g>
<!-- Node3 -->
<g id="node3" class="node"><title>Node3</title>
<g id="a_node3"><a xlink:href="classmappel_1_1PointEmitterModel.html#ad50dfc29b6e7167fb4caf8683353079d" target="_top" xlink:title="mappel::PointEmitterModel\l::theta_in_bounds">
<polygon fill="white" stroke="black" points="163,-0.5 163,-28.5 290,-28.5 290,-0.5 163,-0.5"/>
<text text-anchor="start" x="171" y="-17.3" font-family="Helvetica,sans-Serif" font-size="9.00">mappel::PointEmitterModel</text>
<text text-anchor="middle" x="226.5" y="-7.3" font-family="Helvetica,sans-Serif" font-size="9.00">::theta_in_bounds</text>
</a>
</g>
</g>
<!-- Node1&#45;&gt;Node3 -->
<g id="edge2" class="edge"><title>Node1&#45;&gt;Node3</title>
<path fill="none" stroke="midnightblue" d="M127.208,-27.3207C135.648,-26.2198 144.363,-25.0831 152.956,-23.9623"/>
<polygon fill="midnightblue" stroke="midnightblue" points="153.5,-27.421 162.963,-22.657 152.595,-20.4798 153.5,-27.421"/>
</g>
<!-- Node3&#45;&gt;Node2 -->
<g id="edge3" class="edge"><title>Node3&#45;&gt;Node2</title>
<path fill="none" stroke="midnightblue" d="M290.208,-22.6793C298.648,-23.7802 307.363,-24.9169 315.956,-26.0377"/>
<polygon fill="midnightblue" stroke="midnightblue" points="315.595,-29.5202 325.963,-27.343 316.5,-22.579 315.595,-29.5202"/>
</g>
</g>
</svg>
