<?xml version="1.0" encoding="UTF-8" standalone="no"?>
<!DOCTYPE svg PUBLIC "-//W3C//DTD SVG 1.1//EN"
 "http://www.w3.org/Graphics/SVG/1.1/DTD/svg11.dtd">
<!-- Generated by graphviz version 2.38.0 (20140413.2041)
 -->
<!-- Title: mappel::Gauss1DsMAP Pages: 1 -->
<svg width="471pt" height="247pt"
 viewBox="0.00 0.00 470.50 247.00" xmlns="http://www.w3.org/2000/svg" xmlns:xlink="http://www.w3.org/1999/xlink">
<g id="graph0" class="graph" transform="scale(1 1) rotate(0) translate(4 243)">
<title>mappel::Gauss1DsMAP</title>
<polygon fill="white" stroke="none" points="-4,4 -4,-243 466.5,-243 466.5,4 -4,4"/>
<!-- Node1 -->
<g id="node1" class="node"><title>Node1</title>
<polygon fill="#bfbfbf" stroke="black" points="169,-0.5 169,-18.5 283,-18.5 283,-0.5 169,-0.5"/>
<text text-anchor="middle" x="226" y="-7.3" font-family="Helvetica,sans-Serif" font-size="9.00">mappel::Gauss1DsMAP</text>
</g>
<!-- Node2 -->
<g id="node2" class="node"><title>Node2</title>
<g id="a_node2"><a xlink:href="classmappel_1_1Gauss1DsModel.html" target="_top" xlink:title="Base class for 1D Gaussian PSF with variable Gaussian sigma (standard deviation) measured in units of...">
<polygon fill="white" stroke="black" points="166,-55.5 166,-73.5 286,-73.5 286,-55.5 166,-55.5"/>
<text text-anchor="middle" x="226" y="-62.3" font-family="Helvetica,sans-Serif" font-size="9.00">mappel::Gauss1DsModel</text>
</a>
</g>
</g>
<!-- Node2&#45;&gt;Node1 -->
<g id="edge1" class="edge"><title>Node2&#45;&gt;Node1</title>
<path fill="none" stroke="midnightblue" d="M226,-45.1746C226,-36.0945 226,-25.5949 226,-18.5496"/>
<polygon fill="midnightblue" stroke="midnightblue" points="222.5,-45.2187 226,-55.2188 229.5,-45.2188 222.5,-45.2187"/>
</g>
<!-- Node3 -->
<g id="node3" class="node"><title>Node3</title>
<g id="a_node3"><a xlink:href="classmappel_1_1PointEmitterModel.html" target="_top" xlink:title="A virtual Base type for point emitter localization models. ">
<polygon fill="white" stroke="black" points="46.5,-220.5 46.5,-238.5 173.5,-238.5 173.5,-220.5 46.5,-220.5"/>
<text text-anchor="middle" x="110" y="-227.3" font-family="Helvetica,sans-Serif" font-size="9.00">mappel::PointEmitterModel</text>
</a>
</g>
</g>
<!-- Node3&#45;&gt;Node2 -->
<g id="edge2" class="edge"><title>Node3&#45;&gt;Node2</title>
<path fill="none" stroke="midnightblue" d="M113.487,-210.583C119.07,-185.723 132.023,-140.4 157,-110 170.574,-93.4796 191.93,-81.0412 207.289,-73.573"/>
<polygon fill="midnightblue" stroke="midnightblue" points="110.047,-209.934 111.423,-220.439 116.899,-211.368 110.047,-209.934"/>
</g>
<!-- Node6 -->
<g id="node6" class="node"><title>Node6</title>
<g id="a_node6"><a xlink:href="classmappel_1_1MCMCAdaptor1D.html" target="_top" xlink:title="mappel::MCMCAdaptor1D">
<polygon fill="white" stroke="black" points="168.5,-165.5 168.5,-183.5 293.5,-183.5 293.5,-165.5 168.5,-165.5"/>
<text text-anchor="middle" x="231" y="-172.3" font-family="Helvetica,sans-Serif" font-size="9.00">mappel::MCMCAdaptor1D</text>
</a>
</g>
</g>
<!-- Node3&#45;&gt;Node6 -->
<g id="edge6" class="edge"><title>Node3&#45;&gt;Node6</title>
<path fill="none" stroke="midnightblue" d="M137.583,-216.418C160.502,-206.379 192.48,-192.372 212.45,-183.625"/>
<polygon fill="midnightblue" stroke="midnightblue" points="136.133,-213.232 128.377,-220.45 138.941,-219.644 136.133,-213.232"/>
</g>
<!-- Node9 -->
<g id="node9" class="node"><title>Node9</title>
<g id="a_node9"><a xlink:href="classmappel_1_1MAPEstimator.html" target="_top" xlink:title="A Mixin class to configure a for MLE estimation (null prior). ">
<polygon fill="white" stroke="black" points="0,-165.5 0,-183.5 110,-183.5 110,-165.5 0,-165.5"/>
<text text-anchor="middle" x="55" y="-172.3" font-family="Helvetica,sans-Serif" font-size="9.00">mappel::MAPEstimator</text>
</a>
</g>
</g>
<!-- Node3&#45;&gt;Node9 -->
<g id="edge11" class="edge"><title>Node3&#45;&gt;Node9</title>
<path fill="none" stroke="midnightblue" d="M94.0294,-213.11C83.9983,-203.444 71.468,-191.369 63.3533,-183.55"/>
<polygon fill="midnightblue" stroke="midnightblue" points="91.7768,-215.8 101.406,-220.219 96.6341,-210.76 91.7768,-215.8"/>
</g>
<!-- Node4 -->
<g id="node4" class="node"><title>Node4</title>
<g id="a_node4"><a xlink:href="classmappel_1_1ImageFormat1DBase.html" target="_top" xlink:title="A virtual base class for 2D image localization objectives. ">
<polygon fill="white" stroke="black" points="313.5,-110.5 313.5,-128.5 452.5,-128.5 452.5,-110.5 313.5,-110.5"/>
<text text-anchor="middle" x="383" y="-117.3" font-family="Helvetica,sans-Serif" font-size="9.00">mappel::ImageFormat1DBase</text>
</a>
</g>
</g>
<!-- Node4&#45;&gt;Node2 -->
<g id="edge3" class="edge"><title>Node4&#45;&gt;Node2</title>
<path fill="none" stroke="midnightblue" d="M349.544,-107.206C319.582,-97.0914 276.387,-82.5095 249.812,-73.5383"/>
<polygon fill="midnightblue" stroke="midnightblue" points="348.561,-110.568 359.155,-110.45 350.8,-103.936 348.561,-110.568"/>
</g>
<!-- Node8 -->
<g id="node8" class="node"><title>Node8</title>
<g id="a_node8"><a xlink:href="classmappel_1_1PoissonNoise1DObjective.html" target="_top" xlink:title="A base class for 1D objectives with Poisson read noise. This objective function and its subclasses ar...">
<polygon fill="white" stroke="black" points="303.5,-55.5 303.5,-73.5 462.5,-73.5 462.5,-55.5 303.5,-55.5"/>
<text text-anchor="middle" x="383" y="-62.3" font-family="Helvetica,sans-Serif" font-size="9.00">mappel::PoissonNoise1DObjective</text>
</a>
</g>
</g>
<!-- Node4&#45;&gt;Node8 -->
<g id="edge9" class="edge"><title>Node4&#45;&gt;Node8</title>
<path fill="none" stroke="midnightblue" d="M383,-100.175C383,-91.0945 383,-80.5949 383,-73.5496"/>
<polygon fill="midnightblue" stroke="midnightblue" points="379.5,-100.219 383,-110.219 386.5,-100.219 379.5,-100.219"/>
</g>
<!-- Node5 -->
<g id="node5" class="node"><title>Node5</title>
<g id="a_node5"><a xlink:href="classmappel_1_1MCMCAdaptor1Ds.html" target="_top" xlink:title="mappel::MCMCAdaptor1Ds">
<polygon fill="white" stroke="black" points="166.5,-110.5 166.5,-128.5 295.5,-128.5 295.5,-110.5 166.5,-110.5"/>
<text text-anchor="middle" x="231" y="-117.3" font-family="Helvetica,sans-Serif" font-size="9.00">mappel::MCMCAdaptor1Ds</text>
</a>
</g>
</g>
<!-- Node5&#45;&gt;Node2 -->
<g id="edge4" class="edge"><title>Node5&#45;&gt;Node2</title>
<path fill="none" stroke="midnightblue" d="M229.271,-100.175C228.415,-91.0945 227.424,-80.5949 226.759,-73.5496"/>
<polygon fill="midnightblue" stroke="midnightblue" points="225.795,-100.592 230.219,-110.219 232.764,-99.9342 225.795,-100.592"/>
</g>
<!-- Node6&#45;&gt;Node5 -->
<g id="edge5" class="edge"><title>Node6&#45;&gt;Node5</title>
<path fill="none" stroke="midnightblue" d="M231,-155.175C231,-146.094 231,-135.595 231,-128.55"/>
<polygon fill="midnightblue" stroke="midnightblue" points="227.5,-155.219 231,-165.219 234.5,-155.219 227.5,-155.219"/>
</g>
<!-- Node7 -->
<g id="node7" class="node"><title>Node7</title>
<g id="a_node7"><a xlink:href="classmappel_1_1MCMCAdaptorBase.html" target="_top" xlink:title="mappel::MCMCAdaptorBase">
<polygon fill="white" stroke="black" points="192,-220.5 192,-238.5 326,-238.5 326,-220.5 192,-220.5"/>
<text text-anchor="middle" x="259" y="-227.3" font-family="Helvetica,sans-Serif" font-size="9.00">mappel::MCMCAdaptorBase</text>
</a>
</g>
</g>
<!-- Node7&#45;&gt;Node6 -->
<g id="edge7" class="edge"><title>Node7&#45;&gt;Node6</title>
<path fill="none" stroke="midnightblue" d="M249.947,-211.363C245.013,-202.024 239.138,-190.905 235.253,-183.55"/>
<polygon fill="midnightblue" stroke="midnightblue" points="246.859,-213.012 254.625,-220.219 253.048,-209.742 246.859,-213.012"/>
</g>
<!-- Node8&#45;&gt;Node1 -->
<g id="edge8" class="edge"><title>Node8&#45;&gt;Node1</title>
<path fill="none" stroke="midnightblue" d="M349.544,-52.2061C319.582,-42.0914 276.387,-27.5095 249.812,-18.5383"/>
<polygon fill="midnightblue" stroke="midnightblue" points="348.561,-55.5681 359.155,-55.4504 350.8,-48.9358 348.561,-55.5681"/>
</g>
<!-- Node9&#45;&gt;Node1 -->
<g id="edge10" class="edge"><title>Node9&#45;&gt;Node1</title>
<path fill="none" stroke="midnightblue" d="M66.6259,-157.211C84.3435,-133.087 119.97,-87.2457 157,-55 173.985,-40.2097 196.287,-26.7252 210.874,-18.5686"/>
<polygon fill="midnightblue" stroke="midnightblue" points="63.7831,-155.169 60.7467,-165.32 69.4502,-159.278 63.7831,-155.169"/>
</g>
</g>
</svg>
