<?xml version="1.0" encoding="UTF-8" standalone="no"?>
<!DOCTYPE svg PUBLIC "-//W3C//DTD SVG 1.1//EN"
 "http://www.w3.org/Graphics/SVG/1.1/DTD/svg11.dtd">
<!-- Generated by graphviz version 2.38.0 (20140413.2041)
 -->
<!-- Title: mappel::Gauss2DModel::set_prior Pages: 1 -->
<svg width="788pt" height="176pt"
 viewBox="0.00 0.00 788.00 176.00" xmlns="http://www.w3.org/2000/svg" xmlns:xlink="http://www.w3.org/1999/xlink">
<g id="graph0" class="graph" transform="scale(1 1) rotate(0) translate(4 172)">
<title>mappel::Gauss2DModel::set_prior</title>
<polygon fill="white" stroke="none" points="-4,4 -4,-172 784,-172 784,4 -4,4"/>
<!-- Node1 -->
<g id="node1" class="node"><title>Node1</title>
<polygon fill="#bfbfbf" stroke="black" points="0,-113.5 0,-141.5 116,-141.5 116,-113.5 0,-113.5"/>
<text text-anchor="start" x="8" y="-130.3" font-family="Helvetica,sans-Serif" font-size="9.00">mappel::Gauss2DModel</text>
<text text-anchor="middle" x="58" y="-120.3" font-family="Helvetica,sans-Serif" font-size="9.00">::set_prior</text>
</g>
<!-- Node2 -->
<g id="node2" class="node"><title>Node2</title>
<g id="a_node2"><a xlink:href="classmappel_1_1PointEmitterModel.html#a8ee7d3d5b4c1ae4500f802170a958ed7" target="_top" xlink:title="mappel::PointEmitterModel\l::set_prior">
<polygon fill="white" stroke="black" points="152,-139.5 152,-167.5 279,-167.5 279,-139.5 152,-139.5"/>
<text text-anchor="start" x="160" y="-156.3" font-family="Helvetica,sans-Serif" font-size="9.00">mappel::PointEmitterModel</text>
<text text-anchor="middle" x="215.5" y="-146.3" font-family="Helvetica,sans-Serif" font-size="9.00">::set_prior</text>
</a>
</g>
</g>
<!-- Node1&#45;&gt;Node2 -->
<g id="edge1" class="edge"><title>Node1&#45;&gt;Node2</title>
<path fill="none" stroke="midnightblue" d="M116.019,-137.034C124.43,-138.44 133.19,-139.905 141.864,-141.355"/>
<polygon fill="midnightblue" stroke="midnightblue" points="141.542,-144.85 151.982,-143.047 142.696,-137.946 141.542,-144.85"/>
</g>
<!-- Node3 -->
<g id="node3" class="node"><title>Node3</title>
<g id="a_node3"><a xlink:href="classmappel_1_1Gauss2DModel.html#a221f765c48f478177f150c08733e9d29" target="_top" xlink:title="mappel::Gauss2DModel\l::update_internal_1Dsum\l_estimators">
<polygon fill="white" stroke="black" points="155.5,-82.5 155.5,-120.5 275.5,-120.5 275.5,-82.5 155.5,-82.5"/>
<text text-anchor="start" x="163.5" y="-109.3" font-family="Helvetica,sans-Serif" font-size="9.00">mappel::Gauss2DModel</text>
<text text-anchor="start" x="163.5" y="-99.3" font-family="Helvetica,sans-Serif" font-size="9.00">::update_internal_1Dsum</text>
<text text-anchor="middle" x="215.5" y="-89.3" font-family="Helvetica,sans-Serif" font-size="9.00">_estimators</text>
</a>
</g>
</g>
<!-- Node1&#45;&gt;Node3 -->
<g id="edge2" class="edge"><title>Node1&#45;&gt;Node3</title>
<path fill="none" stroke="midnightblue" d="M116.019,-117.966C125.541,-116.374 135.509,-114.707 145.295,-113.071"/>
<polygon fill="midnightblue" stroke="midnightblue" points="146.114,-116.483 155.4,-111.382 144.96,-109.579 146.114,-116.483"/>
</g>
<!-- Node4 -->
<g id="node4" class="node"><title>Node4</title>
<g id="a_node4"><a xlink:href="classmappel_1_1PointEmitterModel.html#a2182c250c15d590b582e76594e5f06b9" target="_top" xlink:title="mappel::PointEmitterModel\l::get_prior">
<polygon fill="white" stroke="black" points="315,-113.5 315,-141.5 442,-141.5 442,-113.5 315,-113.5"/>
<text text-anchor="start" x="323" y="-130.3" font-family="Helvetica,sans-Serif" font-size="9.00">mappel::PointEmitterModel</text>
<text text-anchor="middle" x="378.5" y="-120.3" font-family="Helvetica,sans-Serif" font-size="9.00">::get_prior</text>
</a>
</g>
</g>
<!-- Node3&#45;&gt;Node4 -->
<g id="edge3" class="edge"><title>Node3&#45;&gt;Node4</title>
<path fill="none" stroke="midnightblue" d="M275.536,-111.034C285.061,-112.572 295.018,-114.18 304.82,-115.763"/>
<polygon fill="midnightblue" stroke="midnightblue" points="304.522,-119.26 314.953,-117.399 305.638,-112.35 304.522,-119.26"/>
</g>
<!-- Node5 -->
<g id="node5" class="node"><title>Node5</title>
<g id="a_node5"><a xlink:href="classmappel_1_1Gauss2DModel.html#a0981f99341c0f6f63554680ce165df66" target="_top" xlink:title="mappel::Gauss2DModel\l::make_internal_1Dsum\l_estimator">
<polygon fill="white" stroke="black" points="320.5,-56.5 320.5,-94.5 436.5,-94.5 436.5,-56.5 320.5,-56.5"/>
<text text-anchor="start" x="328.5" y="-83.3" font-family="Helvetica,sans-Serif" font-size="9.00">mappel::Gauss2DModel</text>
<text text-anchor="start" x="328.5" y="-73.3" font-family="Helvetica,sans-Serif" font-size="9.00">::make_internal_1Dsum</text>
<text text-anchor="middle" x="378.5" y="-63.3" font-family="Helvetica,sans-Serif" font-size="9.00">_estimator</text>
</a>
</g>
</g>
<!-- Node3&#45;&gt;Node5 -->
<g id="edge4" class="edge"><title>Node3&#45;&gt;Node5</title>
<path fill="none" stroke="midnightblue" d="M275.536,-91.9662C286.85,-90.1391 298.775,-88.2134 310.323,-86.3485"/>
<polygon fill="midnightblue" stroke="midnightblue" points="311.036,-89.7788 320.35,-84.7292 309.92,-82.8683 311.036,-89.7788"/>
</g>
<!-- Node6 -->
<g id="node6" class="node"><title>Node6</title>
<g id="a_node6"><a xlink:href="classmappel_1_1Gauss1DModel.html#a808fde22a0fb00140b4ba60e7df685eb" target="_top" xlink:title="mappel::Gauss1DModel\l::make_prior_beta_position">
<polygon fill="white" stroke="black" points="483.5,-85.5 483.5,-113.5 611.5,-113.5 611.5,-85.5 483.5,-85.5"/>
<text text-anchor="start" x="491.5" y="-102.3" font-family="Helvetica,sans-Serif" font-size="9.00">mappel::Gauss1DModel</text>
<text text-anchor="middle" x="547.5" y="-92.3" font-family="Helvetica,sans-Serif" font-size="9.00">::make_prior_beta_position</text>
</a>
</g>
</g>
<!-- Node5&#45;&gt;Node6 -->
<g id="edge5" class="edge"><title>Node5&#45;&gt;Node6</title>
<path fill="none" stroke="midnightblue" d="M436.505,-83.6923C448.316,-85.3897 460.916,-87.2005 473.216,-88.9682"/>
<polygon fill="midnightblue" stroke="midnightblue" points="473.058,-92.4813 483.454,-90.4395 474.053,-85.5525 473.058,-92.4813"/>
</g>
<!-- Node9 -->
<g id="node9" class="node"><title>Node9</title>
<g id="a_node9"><a xlink:href="classmappel_1_1Gauss1DModel.html#ab4fc9aafd94b2dd6532ef71f2ea47619" target="_top" xlink:title="mappel::Gauss1DModel\l::make_prior_normal_position">
<polygon fill="white" stroke="black" points="478,-38.5 478,-66.5 617,-66.5 617,-38.5 478,-38.5"/>
<text text-anchor="start" x="486" y="-55.3" font-family="Helvetica,sans-Serif" font-size="9.00">mappel::Gauss1DModel</text>
<text text-anchor="middle" x="547.5" y="-45.3" font-family="Helvetica,sans-Serif" font-size="9.00">::make_prior_normal_position</text>
</a>
</g>
</g>
<!-- Node5&#45;&gt;Node9 -->
<g id="edge8" class="edge"><title>Node5&#45;&gt;Node9</title>
<path fill="none" stroke="midnightblue" d="M436.505,-67.649C446.601,-66.2585 457.274,-64.7886 467.843,-63.333"/>
<polygon fill="midnightblue" stroke="midnightblue" points="468.493,-66.7765 477.922,-61.9448 467.538,-59.842 468.493,-66.7765"/>
</g>
<!-- Node7 -->
<g id="node7" class="node"><title>Node7</title>
<g id="a_node7"><a xlink:href="classmappel_1_1PointEmitterModel.html#a4517e887a22007bd2e03650dcb853c92" target="_top" xlink:title="mappel::PointEmitterModel\l::make_prior_component\l_intensity">
<polygon fill="white" stroke="black" points="653,-57.5 653,-95.5 780,-95.5 780,-57.5 653,-57.5"/>
<text text-anchor="start" x="661" y="-84.3" font-family="Helvetica,sans-Serif" font-size="9.00">mappel::PointEmitterModel</text>
<text text-anchor="start" x="661" y="-74.3" font-family="Helvetica,sans-Serif" font-size="9.00">::make_prior_component</text>
<text text-anchor="middle" x="716.5" y="-64.3" font-family="Helvetica,sans-Serif" font-size="9.00">_intensity</text>
</a>
</g>
</g>
<!-- Node6&#45;&gt;Node7 -->
<g id="edge6" class="edge"><title>Node6&#45;&gt;Node7</title>
<path fill="none" stroke="midnightblue" d="M611.636,-90.8047C621.75,-89.4117 632.288,-87.9603 642.607,-86.5391"/>
<polygon fill="midnightblue" stroke="midnightblue" points="643.4,-89.963 652.829,-85.1313 642.445,-83.0285 643.4,-89.963"/>
</g>
<!-- Node8 -->
<g id="node8" class="node"><title>Node8</title>
<g id="a_node8"><a xlink:href="classmappel_1_1PointEmitterModel.html#ad4d563dd11df8c3daf83890374807185" target="_top" xlink:title="mappel::PointEmitterModel\l::make_prior_component\l_position_beta">
<polygon fill="white" stroke="black" points="653,-114.5 653,-152.5 780,-152.5 780,-114.5 653,-114.5"/>
<text text-anchor="start" x="661" y="-141.3" font-family="Helvetica,sans-Serif" font-size="9.00">mappel::PointEmitterModel</text>
<text text-anchor="start" x="661" y="-131.3" font-family="Helvetica,sans-Serif" font-size="9.00">::make_prior_component</text>
<text text-anchor="middle" x="716.5" y="-121.3" font-family="Helvetica,sans-Serif" font-size="9.00">_position_beta</text>
</a>
</g>
</g>
<!-- Node6&#45;&gt;Node8 -->
<g id="edge7" class="edge"><title>Node6&#45;&gt;Node8</title>
<path fill="none" stroke="midnightblue" d="M611.636,-112.354C621.855,-114.435 632.508,-116.603 642.93,-118.725"/>
<polygon fill="midnightblue" stroke="midnightblue" points="642.332,-122.175 652.829,-120.741 643.728,-115.316 642.332,-122.175"/>
</g>
<!-- Node9&#45;&gt;Node7 -->
<g id="edge9" class="edge"><title>Node9&#45;&gt;Node7</title>
<path fill="none" stroke="midnightblue" d="M617.389,-62.4003C625.757,-63.6028 634.327,-64.8344 642.749,-66.0447"/>
<polygon fill="midnightblue" stroke="midnightblue" points="642.528,-69.5488 652.924,-67.507 643.523,-62.62 642.528,-69.5488"/>
</g>
<!-- Node10 -->
<g id="node10" class="node"><title>Node10</title>
<g id="a_node10"><a xlink:href="classmappel_1_1PointEmitterModel.html#ab99350cf74097c558f7a93b79e7a44c3" target="_top" xlink:title="mappel::PointEmitterModel\l::make_prior_component\l_position_normal">
<polygon fill="white" stroke="black" points="653,-0.5 653,-38.5 780,-38.5 780,-0.5 653,-0.5"/>
<text text-anchor="start" x="661" y="-27.3" font-family="Helvetica,sans-Serif" font-size="9.00">mappel::PointEmitterModel</text>
<text text-anchor="start" x="661" y="-17.3" font-family="Helvetica,sans-Serif" font-size="9.00">::make_prior_component</text>
<text text-anchor="middle" x="716.5" y="-7.3" font-family="Helvetica,sans-Serif" font-size="9.00">_position_normal</text>
</a>
</g>
</g>
<!-- Node9&#45;&gt;Node10 -->
<g id="edge10" class="edge"><title>Node9&#45;&gt;Node10</title>
<path fill="none" stroke="midnightblue" d="M617.389,-38.8871C625.849,-37.2154 634.515,-35.5029 643.026,-33.8212"/>
<polygon fill="midnightblue" stroke="midnightblue" points="643.792,-37.2376 652.924,-31.8654 642.435,-30.3704 643.792,-37.2376"/>
</g>
</g>
</svg>
