<?xml version="1.0" encoding="UTF-8" standalone="no"?>
<!DOCTYPE svg PUBLIC "-//W3C//DTD SVG 1.1//EN"
 "http://www.w3.org/Graphics/SVG/1.1/DTD/svg11.dtd">
<!-- Generated by graphviz version 2.38.0 (20140413.2041)
 -->
<!-- Title: mappel::PointEmitterModel::make_param Pages: 1 -->
<svg width="465pt" height="413pt"
 viewBox="0.00 0.00 465.00 413.00" xmlns="http://www.w3.org/2000/svg" xmlns:xlink="http://www.w3.org/1999/xlink">
<g id="graph0" class="graph" transform="scale(1 1) rotate(0) translate(4 409)">
<title>mappel::PointEmitterModel::make_param</title>
<polygon fill="white" stroke="none" points="-4,4 -4,-409 461,-409 461,4 -4,4"/>
<!-- Node1 -->
<g id="node1" class="node"><title>Node1</title>
<polygon fill="#bfbfbf" stroke="black" points="0,-188.5 0,-216.5 127,-216.5 127,-188.5 0,-188.5"/>
<text text-anchor="start" x="8" y="-205.3" font-family="Helvetica,sans-Serif" font-size="9.00">mappel::PointEmitterModel</text>
<text text-anchor="middle" x="63.5" y="-195.3" font-family="Helvetica,sans-Serif" font-size="9.00">::make_param</text>
</g>
<!-- Node2 -->
<g id="node2" class="node"><title>Node2</title>
<g id="a_node2"><a xlink:href="classmappel_1_1Gauss1DModel.html#a055a3bd9bc0ff8540a48a1c6f50ec523" target="_top" xlink:title="Fast, heuristic estimate of initial theta. ">
<polygon fill="white" stroke="black" points="169.5,-376.5 169.5,-404.5 285.5,-404.5 285.5,-376.5 169.5,-376.5"/>
<text text-anchor="start" x="177.5" y="-393.3" font-family="Helvetica,sans-Serif" font-size="9.00">mappel::Gauss1DModel</text>
<text text-anchor="middle" x="227.5" y="-383.3" font-family="Helvetica,sans-Serif" font-size="9.00">::initial_theta_estimate</text>
</a>
</g>
</g>
<!-- Node1&#45;&gt;Node2 -->
<g id="edge1" class="edge"><title>Node1&#45;&gt;Node2</title>
<path fill="none" stroke="midnightblue" d="M72.6879,-226.183C86.1329,-261.735 116.165,-328.841 163,-367.5 167.16,-370.933 171.875,-373.876 176.811,-376.392"/>
<polygon fill="midnightblue" stroke="midnightblue" points="75.9166,-224.821 69.191,-216.635 69.3435,-227.228 75.9166,-224.821"/>
</g>
<!-- Node3 -->
<g id="node3" class="node"><title>Node3</title>
<g id="a_node3"><a xlink:href="classmappel_1_1Gauss1DsModel.html#acd86dd83dc88fae355f6e6bc18255d49" target="_top" xlink:title="Fast, heuristic estimate of initial theta. ">
<polygon fill="white" stroke="black" points="167.5,-329.5 167.5,-357.5 287.5,-357.5 287.5,-329.5 167.5,-329.5"/>
<text text-anchor="start" x="175.5" y="-346.3" font-family="Helvetica,sans-Serif" font-size="9.00">mappel::Gauss1DsModel</text>
<text text-anchor="middle" x="227.5" y="-336.3" font-family="Helvetica,sans-Serif" font-size="9.00">::initial_theta_estimate</text>
</a>
</g>
</g>
<!-- Node1&#45;&gt;Node3 -->
<g id="edge2" class="edge"><title>Node1&#45;&gt;Node3</title>
<path fill="none" stroke="midnightblue" d="M78.0809,-225.122C94.9481,-251.447 126.056,-294.604 163,-320.5 167.897,-323.932 173.363,-326.91 178.976,-329.478"/>
<polygon fill="midnightblue" stroke="midnightblue" points="80.9974,-223.185 72.7225,-216.568 75.0653,-226.901 80.9974,-223.185"/>
</g>
<!-- Node4 -->
<g id="node4" class="node"><title>Node4</title>
<g id="a_node4"><a xlink:href="classmappel_1_1Gauss2DModel.html#a41572cfae5f8f77ee731a291848fc1c4" target="_top" xlink:title="Fast, heuristic estimate of initial theta. ">
<polygon fill="white" stroke="black" points="169.5,-282.5 169.5,-310.5 285.5,-310.5 285.5,-282.5 169.5,-282.5"/>
<text text-anchor="start" x="177.5" y="-299.3" font-family="Helvetica,sans-Serif" font-size="9.00">mappel::Gauss2DModel</text>
<text text-anchor="middle" x="227.5" y="-289.3" font-family="Helvetica,sans-Serif" font-size="9.00">::initial_theta_estimate</text>
</a>
</g>
</g>
<!-- Node1&#45;&gt;Node4 -->
<g id="edge3" class="edge"><title>Node1&#45;&gt;Node4</title>
<path fill="none" stroke="midnightblue" d="M88.9115,-223.044C108.117,-238.455 136.048,-259.261 163,-273.5 169.22,-276.786 176.013,-279.795 182.768,-282.477"/>
<polygon fill="midnightblue" stroke="midnightblue" points="90.955,-220.194 80.9902,-216.595 86.5357,-225.623 90.955,-220.194"/>
</g>
<!-- Node6 -->
<g id="node6" class="node"><title>Node6</title>
<g id="a_node6"><a xlink:href="classmappel_1_1Gauss2DsxyModel.html#ab8129a326be2ffaa51b1edbce903181c" target="_top" xlink:title="Fast, heuristic estimate of initial theta. ">
<polygon fill="white" stroke="black" points="163,-235.5 163,-263.5 292,-263.5 292,-235.5 163,-235.5"/>
<text text-anchor="start" x="171" y="-252.3" font-family="Helvetica,sans-Serif" font-size="9.00">mappel::Gauss2DsxyModel</text>
<text text-anchor="middle" x="227.5" y="-242.3" font-family="Helvetica,sans-Serif" font-size="9.00">::initial_theta_estimate</text>
</a>
</g>
</g>
<!-- Node1&#45;&gt;Node6 -->
<g id="edge5" class="edge"><title>Node1&#45;&gt;Node6</title>
<path fill="none" stroke="midnightblue" d="M122.728,-219.393C140.919,-224.671 160.778,-230.433 178.208,-235.489"/>
<polygon fill="midnightblue" stroke="midnightblue" points="123.685,-216.027 113.105,-216.602 121.734,-222.749 123.685,-216.027"/>
</g>
<!-- Node8 -->
<g id="node8" class="node"><title>Node8</title>
<g id="a_node8"><a xlink:href="classmappel_1_1Gauss2DsModel.html#a86bc63141107624bf3ca7016a570e994" target="_top" xlink:title="Fast, heuristic estimate of initial theta. ">
<polygon fill="white" stroke="black" points="167.5,-188.5 167.5,-216.5 287.5,-216.5 287.5,-188.5 167.5,-188.5"/>
<text text-anchor="start" x="175.5" y="-205.3" font-family="Helvetica,sans-Serif" font-size="9.00">mappel::Gauss2DsModel</text>
<text text-anchor="middle" x="227.5" y="-195.3" font-family="Helvetica,sans-Serif" font-size="9.00">::initial_theta_estimate</text>
</a>
</g>
</g>
<!-- Node1&#45;&gt;Node8 -->
<g id="edge7" class="edge"><title>Node1&#45;&gt;Node8</title>
<path fill="none" stroke="midnightblue" d="M137.19,-202.5C147.328,-202.5 157.642,-202.5 167.487,-202.5"/>
<polygon fill="midnightblue" stroke="midnightblue" points="137.133,-199 127.133,-202.5 137.133,-206 137.133,-199"/>
</g>
<!-- Node10 -->
<g id="node10" class="node"><title>Node10</title>
<g id="a_node10"><a xlink:href="classmappel_1_1Gauss1DModel.html#a6b0a57e7620ef80030c94903aae5954f" target="_top" xlink:title="pixel derivative inner loop calculations. ">
<polygon fill="white" stroke="black" points="169.5,-141.5 169.5,-169.5 285.5,-169.5 285.5,-141.5 169.5,-141.5"/>
<text text-anchor="start" x="177.5" y="-158.3" font-family="Helvetica,sans-Serif" font-size="9.00">mappel::Gauss1DModel</text>
<text text-anchor="middle" x="227.5" y="-148.3" font-family="Helvetica,sans-Serif" font-size="9.00">::pixel_hess_update</text>
</a>
</g>
</g>
<!-- Node1&#45;&gt;Node10 -->
<g id="edge9" class="edge"><title>Node1&#45;&gt;Node10</title>
<path fill="none" stroke="midnightblue" d="M122.728,-185.607C140.919,-180.329 160.778,-174.567 178.208,-169.511"/>
<polygon fill="midnightblue" stroke="midnightblue" points="121.734,-182.251 113.105,-188.398 123.685,-188.973 121.734,-182.251"/>
</g>
<!-- Node11 -->
<g id="node11" class="node"><title>Node11</title>
<g id="a_node11"><a xlink:href="classmappel_1_1Gauss1DsModel.html#ad7909d3b050709cd2a6d93b4114c5ff8" target="_top" xlink:title="mappel::Gauss1DsModel\l::pixel_hess_update">
<polygon fill="white" stroke="black" points="167.5,-94.5 167.5,-122.5 287.5,-122.5 287.5,-94.5 167.5,-94.5"/>
<text text-anchor="start" x="175.5" y="-111.3" font-family="Helvetica,sans-Serif" font-size="9.00">mappel::Gauss1DsModel</text>
<text text-anchor="middle" x="227.5" y="-101.3" font-family="Helvetica,sans-Serif" font-size="9.00">::pixel_hess_update</text>
</a>
</g>
</g>
<!-- Node1&#45;&gt;Node11 -->
<g id="edge10" class="edge"><title>Node1&#45;&gt;Node11</title>
<path fill="none" stroke="midnightblue" d="M89.3627,-182.101C108.61,-167.003 136.389,-146.68 163,-132.5 169.761,-128.897 177.182,-125.577 184.492,-122.628"/>
<polygon fill="midnightblue" stroke="midnightblue" points="87.0595,-179.461 81.41,-188.424 91.4158,-184.94 87.0595,-179.461"/>
</g>
<!-- Node12 -->
<g id="node12" class="node"><title>Node12</title>
<g id="a_node12"><a xlink:href="classmappel_1_1Gauss2DModel.html#aa4ada829604d1a79ef92d0df4fdff94c" target="_top" xlink:title="pixel derivative inner loop calculations. ">
<polygon fill="white" stroke="black" points="169.5,-47.5 169.5,-75.5 285.5,-75.5 285.5,-47.5 169.5,-47.5"/>
<text text-anchor="start" x="177.5" y="-64.3" font-family="Helvetica,sans-Serif" font-size="9.00">mappel::Gauss2DModel</text>
<text text-anchor="middle" x="227.5" y="-54.3" font-family="Helvetica,sans-Serif" font-size="9.00">::pixel_hess_update</text>
</a>
</g>
</g>
<!-- Node1&#45;&gt;Node12 -->
<g id="edge11" class="edge"><title>Node1&#45;&gt;Node12</title>
<path fill="none" stroke="midnightblue" d="M78.4584,-179.748C95.4884,-153.698 126.559,-111.307 163,-85.5 168.386,-81.6857 174.454,-78.3918 180.648,-75.573"/>
<polygon fill="midnightblue" stroke="midnightblue" points="75.4751,-177.917 73.0344,-188.227 81.3717,-181.689 75.4751,-177.917"/>
</g>
<!-- Node13 -->
<g id="node13" class="node"><title>Node13</title>
<g id="a_node13"><a xlink:href="classmappel_1_1Gauss2DsModel.html#abc9ec137a0cf5238a34b9c041e3fc3a5" target="_top" xlink:title="pixel derivative inner loop calculations. ">
<polygon fill="white" stroke="black" points="167.5,-0.5 167.5,-28.5 287.5,-28.5 287.5,-0.5 167.5,-0.5"/>
<text text-anchor="start" x="175.5" y="-17.3" font-family="Helvetica,sans-Serif" font-size="9.00">mappel::Gauss2DsModel</text>
<text text-anchor="middle" x="227.5" y="-7.3" font-family="Helvetica,sans-Serif" font-size="9.00">::pixel_hess_update</text>
</a>
</g>
</g>
<!-- Node1&#45;&gt;Node13 -->
<g id="edge12" class="edge"><title>Node1&#45;&gt;Node13</title>
<path fill="none" stroke="midnightblue" d="M72.9993,-178.51C86.6809,-143.145 116.822,-77.0525 163,-38.5 167.614,-34.648 172.91,-31.3782 178.433,-28.6116"/>
<polygon fill="midnightblue" stroke="midnightblue" points="69.6639,-177.437 69.4292,-188.029 76.2181,-179.895 69.6639,-177.437"/>
</g>
<!-- Node5 -->
<g id="node5" class="node"><title>Node5</title>
<g id="a_node5"><a xlink:href="classmappel_1_1Gauss2DModel.html#ae058886a3f8328a340ea8fe2332113dd" target="_top" xlink:title="mappel::Gauss2DModel\l::initial_theta_estimate">
<polygon fill="white" stroke="black" points="334.5,-282.5 334.5,-310.5 450.5,-310.5 450.5,-282.5 334.5,-282.5"/>
<text text-anchor="start" x="342.5" y="-299.3" font-family="Helvetica,sans-Serif" font-size="9.00">mappel::Gauss2DModel</text>
<text text-anchor="middle" x="392.5" y="-289.3" font-family="Helvetica,sans-Serif" font-size="9.00">::initial_theta_estimate</text>
</a>
</g>
</g>
<!-- Node4&#45;&gt;Node5 -->
<g id="edge4" class="edge"><title>Node4&#45;&gt;Node5</title>
<path fill="none" stroke="midnightblue" d="M295.657,-296.5C308.473,-296.5 321.777,-296.5 334.247,-296.5"/>
<polygon fill="midnightblue" stroke="midnightblue" points="295.51,-293 285.509,-296.5 295.509,-300 295.51,-293"/>
</g>
<!-- Node7 -->
<g id="node7" class="node"><title>Node7</title>
<g id="a_node7"><a xlink:href="classmappel_1_1Gauss2DsxyModel.html#a15ae6b11aa71727df0ca8abffd47d7f2" target="_top" xlink:title="mappel::Gauss2DsxyModel\l::initial_theta_estimate">
<polygon fill="white" stroke="black" points="328,-235.5 328,-263.5 457,-263.5 457,-235.5 328,-235.5"/>
<text text-anchor="start" x="336" y="-252.3" font-family="Helvetica,sans-Serif" font-size="9.00">mappel::Gauss2DsxyModel</text>
<text text-anchor="middle" x="392.5" y="-242.3" font-family="Helvetica,sans-Serif" font-size="9.00">::initial_theta_estimate</text>
</a>
</g>
</g>
<!-- Node6&#45;&gt;Node7 -->
<g id="edge6" class="edge"><title>Node6&#45;&gt;Node7</title>
<path fill="none" stroke="midnightblue" d="M302.688,-249.5C311.141,-249.5 319.701,-249.5 327.998,-249.5"/>
<polygon fill="midnightblue" stroke="midnightblue" points="302.454,-246 292.454,-249.5 302.454,-253 302.454,-246"/>
</g>
<!-- Node9 -->
<g id="node9" class="node"><title>Node9</title>
<g id="a_node9"><a xlink:href="classmappel_1_1Gauss2DsModel.html#a0de2129889e9c5d5ff294da9be5a890b" target="_top" xlink:title="mappel::Gauss2DsModel\l::initial_theta_estimate">
<polygon fill="white" stroke="black" points="332.5,-188.5 332.5,-216.5 452.5,-216.5 452.5,-188.5 332.5,-188.5"/>
<text text-anchor="start" x="340.5" y="-205.3" font-family="Helvetica,sans-Serif" font-size="9.00">mappel::Gauss2DsModel</text>
<text text-anchor="middle" x="392.5" y="-195.3" font-family="Helvetica,sans-Serif" font-size="9.00">::initial_theta_estimate</text>
</a>
</g>
</g>
<!-- Node8&#45;&gt;Node9 -->
<g id="edge8" class="edge"><title>Node8&#45;&gt;Node9</title>
<path fill="none" stroke="midnightblue" d="M298.125,-202.5C309.484,-202.5 321.157,-202.5 332.236,-202.5"/>
<polygon fill="midnightblue" stroke="midnightblue" points="297.808,-199 287.808,-202.5 297.808,-206 297.808,-199"/>
</g>
</g>
</svg>
