<?xml version="1.0" encoding="UTF-8" standalone="no"?>
<!DOCTYPE svg PUBLIC "-//W3C//DTD SVG 1.1//EN"
 "http://www.w3.org/Graphics/SVG/1.1/DTD/svg11.dtd">
<!-- Generated by graphviz version 2.38.0 (20140413.2041)
 -->
<!-- Title: mappel::Gauss2DsModel::pixel_grad2 Pages: 1 -->
<svg width="440pt" height="131pt"
 viewBox="0.00 0.00 440.00 131.00" xmlns="http://www.w3.org/2000/svg" xmlns:xlink="http://www.w3.org/1999/xlink">
<g id="graph0" class="graph" transform="scale(1 1) rotate(0) translate(4 127)">
<title>mappel::Gauss2DsModel::pixel_grad2</title>
<polygon fill="white" stroke="none" points="-4,4 -4,-127 436,-127 436,4 -4,4"/>
<!-- Node1 -->
<g id="node1" class="node"><title>Node1</title>
<polygon fill="#bfbfbf" stroke="black" points="0,-47.5 0,-75.5 120,-75.5 120,-47.5 0,-47.5"/>
<text text-anchor="start" x="8" y="-64.3" font-family="Helvetica,sans-Serif" font-size="9.00">mappel::Gauss2DsModel</text>
<text text-anchor="middle" x="60" y="-54.3" font-family="Helvetica,sans-Serif" font-size="9.00">::pixel_grad2</text>
</g>
<!-- Node2 -->
<g id="node2" class="node"><title>Node2</title>
<g id="a_node2"><a xlink:href="classmappel_1_1Gauss2DsModel_1_1Stencil.html#ac3c9d93e5830a73edf06e203c6beabb9" target="_top" xlink:title="mappel::Gauss2DsModel\l::Stencil::I">
<polygon fill="white" stroke="black" points="156,-94.5 156,-122.5 276,-122.5 276,-94.5 156,-94.5"/>
<text text-anchor="start" x="164" y="-111.3" font-family="Helvetica,sans-Serif" font-size="9.00">mappel::Gauss2DsModel</text>
<text text-anchor="middle" x="216" y="-101.3" font-family="Helvetica,sans-Serif" font-size="9.00">::Stencil::I</text>
</a>
</g>
</g>
<!-- Node1&#45;&gt;Node2 -->
<g id="edge1" class="edge"><title>Node1&#45;&gt;Node2</title>
<path fill="none" stroke="midnightblue" d="M107.205,-75.6015C123.573,-80.5969 142.163,-86.2705 159.241,-91.4826"/>
<polygon fill="midnightblue" stroke="midnightblue" points="158.507,-94.9179 169.093,-94.4894 160.55,-88.2228 158.507,-94.9179"/>
</g>
<!-- Node3 -->
<g id="node3" class="node"><title>Node3</title>
<g id="a_node3"><a xlink:href="classmappel_1_1Gauss2DsModel_1_1Stencil.html#adab71d870d1b32f78e85d273dd7bd006" target="_top" xlink:title="mappel::Gauss2DsModel\l::Stencil::sigmaX">
<polygon fill="white" stroke="black" points="156,-47.5 156,-75.5 276,-75.5 276,-47.5 156,-47.5"/>
<text text-anchor="start" x="164" y="-64.3" font-family="Helvetica,sans-Serif" font-size="9.00">mappel::Gauss2DsModel</text>
<text text-anchor="middle" x="216" y="-54.3" font-family="Helvetica,sans-Serif" font-size="9.00">::Stencil::sigmaX</text>
</a>
</g>
</g>
<!-- Node1&#45;&gt;Node3 -->
<g id="edge2" class="edge"><title>Node1&#45;&gt;Node3</title>
<path fill="none" stroke="midnightblue" d="M120.1,-61.5C128.422,-61.5 137.039,-61.5 145.533,-61.5"/>
<polygon fill="midnightblue" stroke="midnightblue" points="145.804,-65.0001 155.804,-61.5 145.804,-58.0001 145.804,-65.0001"/>
</g>
<!-- Node5 -->
<g id="node5" class="node"><title>Node5</title>
<g id="a_node5"><a xlink:href="classmappel_1_1Gauss2DsModel_1_1Stencil.html#abc29f317d508c398a3fcc337a1fb8d1f" target="_top" xlink:title="mappel::Gauss2DsModel\l::Stencil::sigmaY">
<polygon fill="white" stroke="black" points="156,-0.5 156,-28.5 276,-28.5 276,-0.5 156,-0.5"/>
<text text-anchor="start" x="164" y="-17.3" font-family="Helvetica,sans-Serif" font-size="9.00">mappel::Gauss2DsModel</text>
<text text-anchor="middle" x="216" y="-7.3" font-family="Helvetica,sans-Serif" font-size="9.00">::Stencil::sigmaY</text>
</a>
</g>
</g>
<!-- Node1&#45;&gt;Node5 -->
<g id="edge4" class="edge"><title>Node1&#45;&gt;Node5</title>
<path fill="none" stroke="midnightblue" d="M107.205,-47.3985C123.573,-42.4031 142.163,-36.7295 159.241,-31.5174"/>
<polygon fill="midnightblue" stroke="midnightblue" points="160.55,-34.7772 169.093,-28.5106 158.507,-28.0821 160.55,-34.7772"/>
</g>
<!-- Node4 -->
<g id="node4" class="node"><title>Node4</title>
<g id="a_node4"><a xlink:href="classmappel_1_1Gauss2DsModel_1_1Stencil.html#a98f618270de5ff947a1ed9800dffd977" target="_top" xlink:title="mappel::Gauss2DsModel\l::Stencil::sigma_ratio">
<polygon fill="white" stroke="black" points="312,-23.5 312,-51.5 432,-51.5 432,-23.5 312,-23.5"/>
<text text-anchor="start" x="320" y="-40.3" font-family="Helvetica,sans-Serif" font-size="9.00">mappel::Gauss2DsModel</text>
<text text-anchor="middle" x="372" y="-30.3" font-family="Helvetica,sans-Serif" font-size="9.00">::Stencil::sigma_ratio</text>
</a>
</g>
</g>
<!-- Node3&#45;&gt;Node4 -->
<g id="edge3" class="edge"><title>Node3&#45;&gt;Node4</title>
<path fill="none" stroke="midnightblue" d="M276.1,-52.2896C284.513,-50.9785 293.228,-49.6203 301.813,-48.2825"/>
<polygon fill="midnightblue" stroke="midnightblue" points="302.462,-51.7236 311.804,-46.7254 301.384,-44.8071 302.462,-51.7236"/>
</g>
<!-- Node5&#45;&gt;Node4 -->
<g id="edge5" class="edge"><title>Node5&#45;&gt;Node4</title>
<path fill="none" stroke="midnightblue" d="M276.1,-23.3266C284.513,-24.5831 293.228,-25.8848 301.813,-27.1668"/>
<polygon fill="midnightblue" stroke="midnightblue" points="301.396,-30.6434 311.804,-28.659 302.43,-23.7202 301.396,-30.6434"/>
</g>
</g>
</svg>
