<?xml version="1.0" encoding="UTF-8" standalone="no"?>
<!DOCTYPE svg PUBLIC "-//W3C//DTD SVG 1.1//EN"
 "http://www.w3.org/Graphics/SVG/1.1/DTD/svg11.dtd">
<!-- Generated by graphviz version 2.38.0 (20140413.2041)
 -->
<!-- Title: mappel::Gauss2DModel::Gauss2DModel Pages: 1 -->
<svg width="625pt" height="161pt"
 viewBox="0.00 0.00 625.00 161.00" xmlns="http://www.w3.org/2000/svg" xmlns:xlink="http://www.w3.org/1999/xlink">
<g id="graph0" class="graph" transform="scale(1 1) rotate(0) translate(4 157)">
<title>mappel::Gauss2DModel::Gauss2DModel</title>
<polygon fill="white" stroke="none" points="-4,4 -4,-157 621,-157 621,4 -4,4"/>
<!-- Node1 -->
<g id="node1" class="node"><title>Node1</title>
<polygon fill="#bfbfbf" stroke="black" points="0,-87.5 0,-115.5 116,-115.5 116,-87.5 0,-87.5"/>
<text text-anchor="start" x="8" y="-104.3" font-family="Helvetica,sans-Serif" font-size="9.00">mappel::Gauss2DModel</text>
<text text-anchor="middle" x="58" y="-94.3" font-family="Helvetica,sans-Serif" font-size="9.00">::Gauss2DModel</text>
</g>
<!-- Node2 -->
<g id="node2" class="node"><title>Node2</title>
<g id="a_node2"><a xlink:href="classmappel_1_1PointEmitterModel.html#a01ce8d6358acbd2575be519dff1df89b" target="_top" xlink:title="mappel::PointEmitterModel\l::check_psf_sigma">
<polygon fill="white" stroke="black" points="152,-113.5 152,-141.5 279,-141.5 279,-113.5 152,-113.5"/>
<text text-anchor="start" x="160" y="-130.3" font-family="Helvetica,sans-Serif" font-size="9.00">mappel::PointEmitterModel</text>
<text text-anchor="middle" x="215.5" y="-120.3" font-family="Helvetica,sans-Serif" font-size="9.00">::check_psf_sigma</text>
</a>
</g>
</g>
<!-- Node1&#45;&gt;Node2 -->
<g id="edge1" class="edge"><title>Node1&#45;&gt;Node2</title>
<path fill="none" stroke="midnightblue" d="M116.019,-111.034C124.43,-112.44 133.19,-113.905 141.864,-115.355"/>
<polygon fill="midnightblue" stroke="midnightblue" points="141.542,-118.85 151.982,-117.047 142.696,-111.946 141.542,-118.85"/>
</g>
<!-- Node3 -->
<g id="node3" class="node"><title>Node3</title>
<g id="a_node3"><a xlink:href="classmappel_1_1Gauss2DModel.html#a0981f99341c0f6f63554680ce165df66" target="_top" xlink:title="mappel::Gauss2DModel\l::make_internal_1Dsum\l_estimator">
<polygon fill="white" stroke="black" points="157.5,-56.5 157.5,-94.5 273.5,-94.5 273.5,-56.5 157.5,-56.5"/>
<text text-anchor="start" x="165.5" y="-83.3" font-family="Helvetica,sans-Serif" font-size="9.00">mappel::Gauss2DModel</text>
<text text-anchor="start" x="165.5" y="-73.3" font-family="Helvetica,sans-Serif" font-size="9.00">::make_internal_1Dsum</text>
<text text-anchor="middle" x="215.5" y="-63.3" font-family="Helvetica,sans-Serif" font-size="9.00">_estimator</text>
</a>
</g>
</g>
<!-- Node1&#45;&gt;Node3 -->
<g id="edge2" class="edge"><title>Node1&#45;&gt;Node3</title>
<path fill="none" stroke="midnightblue" d="M116.019,-91.9662C126.267,-90.2529 137.032,-88.4529 147.53,-86.6976"/>
<polygon fill="midnightblue" stroke="midnightblue" points="148.202,-90.1339 157.487,-85.0327 147.047,-83.2298 148.202,-90.1339"/>
</g>
<!-- Node4 -->
<g id="node4" class="node"><title>Node4</title>
<g id="a_node4"><a xlink:href="classmappel_1_1Gauss1DModel.html#a808fde22a0fb00140b4ba60e7df685eb" target="_top" xlink:title="mappel::Gauss1DModel\l::make_prior_beta_position">
<polygon fill="white" stroke="black" points="320.5,-85.5 320.5,-113.5 448.5,-113.5 448.5,-85.5 320.5,-85.5"/>
<text text-anchor="start" x="328.5" y="-102.3" font-family="Helvetica,sans-Serif" font-size="9.00">mappel::Gauss1DModel</text>
<text text-anchor="middle" x="384.5" y="-92.3" font-family="Helvetica,sans-Serif" font-size="9.00">::make_prior_beta_position</text>
</a>
</g>
</g>
<!-- Node3&#45;&gt;Node4 -->
<g id="edge3" class="edge"><title>Node3&#45;&gt;Node4</title>
<path fill="none" stroke="midnightblue" d="M273.505,-83.6923C285.316,-85.3897 297.916,-87.2005 310.216,-88.9682"/>
<polygon fill="midnightblue" stroke="midnightblue" points="310.058,-92.4813 320.454,-90.4395 311.053,-85.5525 310.058,-92.4813"/>
</g>
<!-- Node7 -->
<g id="node7" class="node"><title>Node7</title>
<g id="a_node7"><a xlink:href="classmappel_1_1Gauss1DModel.html#ab4fc9aafd94b2dd6532ef71f2ea47619" target="_top" xlink:title="mappel::Gauss1DModel\l::make_prior_normal_position">
<polygon fill="white" stroke="black" points="315,-38.5 315,-66.5 454,-66.5 454,-38.5 315,-38.5"/>
<text text-anchor="start" x="323" y="-55.3" font-family="Helvetica,sans-Serif" font-size="9.00">mappel::Gauss1DModel</text>
<text text-anchor="middle" x="384.5" y="-45.3" font-family="Helvetica,sans-Serif" font-size="9.00">::make_prior_normal_position</text>
</a>
</g>
</g>
<!-- Node3&#45;&gt;Node7 -->
<g id="edge6" class="edge"><title>Node3&#45;&gt;Node7</title>
<path fill="none" stroke="midnightblue" d="M273.505,-67.649C283.601,-66.2585 294.274,-64.7886 304.843,-63.333"/>
<polygon fill="midnightblue" stroke="midnightblue" points="305.493,-66.7765 314.922,-61.9448 304.538,-59.842 305.493,-66.7765"/>
</g>
<!-- Node5 -->
<g id="node5" class="node"><title>Node5</title>
<g id="a_node5"><a xlink:href="classmappel_1_1PointEmitterModel.html#a4517e887a22007bd2e03650dcb853c92" target="_top" xlink:title="mappel::PointEmitterModel\l::make_prior_component\l_intensity">
<polygon fill="white" stroke="black" points="490,-57.5 490,-95.5 617,-95.5 617,-57.5 490,-57.5"/>
<text text-anchor="start" x="498" y="-84.3" font-family="Helvetica,sans-Serif" font-size="9.00">mappel::PointEmitterModel</text>
<text text-anchor="start" x="498" y="-74.3" font-family="Helvetica,sans-Serif" font-size="9.00">::make_prior_component</text>
<text text-anchor="middle" x="553.5" y="-64.3" font-family="Helvetica,sans-Serif" font-size="9.00">_intensity</text>
</a>
</g>
</g>
<!-- Node4&#45;&gt;Node5 -->
<g id="edge4" class="edge"><title>Node4&#45;&gt;Node5</title>
<path fill="none" stroke="midnightblue" d="M448.636,-90.8047C458.75,-89.4117 469.288,-87.9603 479.607,-86.5391"/>
<polygon fill="midnightblue" stroke="midnightblue" points="480.4,-89.963 489.829,-85.1313 479.445,-83.0285 480.4,-89.963"/>
</g>
<!-- Node6 -->
<g id="node6" class="node"><title>Node6</title>
<g id="a_node6"><a xlink:href="classmappel_1_1PointEmitterModel.html#ad4d563dd11df8c3daf83890374807185" target="_top" xlink:title="mappel::PointEmitterModel\l::make_prior_component\l_position_beta">
<polygon fill="white" stroke="black" points="490,-114.5 490,-152.5 617,-152.5 617,-114.5 490,-114.5"/>
<text text-anchor="start" x="498" y="-141.3" font-family="Helvetica,sans-Serif" font-size="9.00">mappel::PointEmitterModel</text>
<text text-anchor="start" x="498" y="-131.3" font-family="Helvetica,sans-Serif" font-size="9.00">::make_prior_component</text>
<text text-anchor="middle" x="553.5" y="-121.3" font-family="Helvetica,sans-Serif" font-size="9.00">_position_beta</text>
</a>
</g>
</g>
<!-- Node4&#45;&gt;Node6 -->
<g id="edge5" class="edge"><title>Node4&#45;&gt;Node6</title>
<path fill="none" stroke="midnightblue" d="M448.636,-112.354C458.855,-114.435 469.508,-116.603 479.93,-118.725"/>
<polygon fill="midnightblue" stroke="midnightblue" points="479.332,-122.175 489.829,-120.741 480.728,-115.316 479.332,-122.175"/>
</g>
<!-- Node7&#45;&gt;Node5 -->
<g id="edge7" class="edge"><title>Node7&#45;&gt;Node5</title>
<path fill="none" stroke="midnightblue" d="M454.389,-62.4003C462.757,-63.6028 471.327,-64.8344 479.749,-66.0447"/>
<polygon fill="midnightblue" stroke="midnightblue" points="479.528,-69.5488 489.924,-67.507 480.523,-62.62 479.528,-69.5488"/>
</g>
<!-- Node8 -->
<g id="node8" class="node"><title>Node8</title>
<g id="a_node8"><a xlink:href="classmappel_1_1PointEmitterModel.html#ab99350cf74097c558f7a93b79e7a44c3" target="_top" xlink:title="mappel::PointEmitterModel\l::make_prior_component\l_position_normal">
<polygon fill="white" stroke="black" points="490,-0.5 490,-38.5 617,-38.5 617,-0.5 490,-0.5"/>
<text text-anchor="start" x="498" y="-27.3" font-family="Helvetica,sans-Serif" font-size="9.00">mappel::PointEmitterModel</text>
<text text-anchor="start" x="498" y="-17.3" font-family="Helvetica,sans-Serif" font-size="9.00">::make_prior_component</text>
<text text-anchor="middle" x="553.5" y="-7.3" font-family="Helvetica,sans-Serif" font-size="9.00">_position_normal</text>
</a>
</g>
</g>
<!-- Node7&#45;&gt;Node8 -->
<g id="edge8" class="edge"><title>Node7&#45;&gt;Node8</title>
<path fill="none" stroke="midnightblue" d="M454.389,-38.8871C462.849,-37.2154 471.515,-35.5029 480.026,-33.8212"/>
<polygon fill="midnightblue" stroke="midnightblue" points="480.792,-37.2376 489.924,-31.8654 479.435,-30.3704 480.792,-37.2376"/>
</g>
</g>
</svg>
