<?xml version="1.0" encoding="UTF-8" standalone="no"?>
<!DOCTYPE svg PUBLIC "-//W3C//DTD SVG 1.1//EN"
 "http://www.w3.org/Graphics/SVG/1.1/DTD/svg11.dtd">
<!-- Generated by graphviz version 2.38.0 (20140413.2041)
 -->
<!-- Title: mappel::Gauss2DsModel::set_max_sigma_ratio Pages: 1 -->
<svg width="610pt" height="264pt"
 viewBox="0.00 0.00 610.00 264.00" xmlns="http://www.w3.org/2000/svg" xmlns:xlink="http://www.w3.org/1999/xlink">
<g id="graph0" class="graph" transform="scale(1 1) rotate(0) translate(4 260)">
<title>mappel::Gauss2DsModel::set_max_sigma_ratio</title>
<polygon fill="white" stroke="none" points="-4,4 -4,-260 606,-260 606,4 -4,4"/>
<!-- Node1 -->
<g id="node1" class="node"><title>Node1</title>
<polygon fill="#bfbfbf" stroke="black" points="0,-103.5 0,-131.5 120,-131.5 120,-103.5 0,-103.5"/>
<text text-anchor="start" x="8" y="-120.3" font-family="Helvetica,sans-Serif" font-size="9.00">mappel::Gauss2DsModel</text>
<text text-anchor="middle" x="60" y="-110.3" font-family="Helvetica,sans-Serif" font-size="9.00">::set_max_sigma_ratio</text>
</g>
<!-- Node2 -->
<g id="node2" class="node"><title>Node2</title>
<g id="a_node2"><a xlink:href="classmappel_1_1Gauss2DsModel.html#a11f03c648095b6d7dd5c38c3a5eca2dc" target="_top" xlink:title="mappel::Gauss2DsModel\l::get_max_sigma">
<polygon fill="white" stroke="black" points="156,-180.5 156,-208.5 276,-208.5 276,-180.5 156,-180.5"/>
<text text-anchor="start" x="164" y="-197.3" font-family="Helvetica,sans-Serif" font-size="9.00">mappel::Gauss2DsModel</text>
<text text-anchor="middle" x="216" y="-187.3" font-family="Helvetica,sans-Serif" font-size="9.00">::get_max_sigma</text>
</a>
</g>
</g>
<!-- Node1&#45;&gt;Node2 -->
<g id="edge1" class="edge"><title>Node1&#45;&gt;Node2</title>
<path fill="none" stroke="midnightblue" d="M88.8107,-131.653C107.728,-141.255 133.342,-154.208 156,-165.5 162.742,-168.86 169.929,-172.415 176.884,-175.841"/>
<polygon fill="midnightblue" stroke="midnightblue" points="175.642,-179.131 186.16,-180.403 178.731,-172.849 175.642,-179.131"/>
</g>
<!-- Node4 -->
<g id="node4" class="node"><title>Node4</title>
<g id="a_node4"><a xlink:href="classmappel_1_1PointEmitterModel.html#a0dfb473c48d177a4540d328abb03cd55" target="_top" xlink:title="mappel::PointEmitterModel\l::get_ubound">
<polygon fill="white" stroke="black" points="475,-182.5 475,-210.5 602,-210.5 602,-182.5 475,-182.5"/>
<text text-anchor="start" x="483" y="-199.3" font-family="Helvetica,sans-Serif" font-size="9.00">mappel::PointEmitterModel</text>
<text text-anchor="middle" x="538.5" y="-189.3" font-family="Helvetica,sans-Serif" font-size="9.00">::get_ubound</text>
</a>
</g>
</g>
<!-- Node1&#45;&gt;Node4 -->
<g id="edge5" class="edge"><title>Node1&#45;&gt;Node4</title>
<path fill="none" stroke="midnightblue" d="M120.256,-123.982C194.96,-132.608 327.145,-149.381 439,-171.5 451.291,-173.931 464.343,-176.936 476.788,-180.011"/>
<polygon fill="midnightblue" stroke="midnightblue" points="476.06,-183.437 486.612,-182.483 477.768,-176.649 476.06,-183.437"/>
</g>
<!-- Node6 -->
<g id="node6" class="node"><title>Node6</title>
<g id="a_node6"><a xlink:href="classmappel_1_1Gauss1DsModel.html#abcaaecd43be1f8c005b65e74482a7d86" target="_top" xlink:title="mappel::Gauss1DsModel\l::set_max_sigma">
<polygon fill="white" stroke="black" points="156,-70.5 156,-98.5 276,-98.5 276,-70.5 156,-70.5"/>
<text text-anchor="start" x="164" y="-87.3" font-family="Helvetica,sans-Serif" font-size="9.00">mappel::Gauss1DsModel</text>
<text text-anchor="middle" x="216" y="-77.3" font-family="Helvetica,sans-Serif" font-size="9.00">::set_max_sigma</text>
</a>
</g>
</g>
<!-- Node1&#45;&gt;Node6 -->
<g id="edge6" class="edge"><title>Node1&#45;&gt;Node6</title>
<path fill="none" stroke="midnightblue" d="M120.1,-104.836C128.513,-103.033 137.228,-101.165 145.813,-99.3259"/>
<polygon fill="midnightblue" stroke="midnightblue" points="146.759,-102.703 155.804,-97.1849 145.292,-95.858 146.759,-102.703"/>
</g>
<!-- Node9 -->
<g id="node9" class="node"><title>Node9</title>
<g id="a_node9"><a xlink:href="classmappel_1_1PointEmitterModel.html#a7363961cc405e585b39e81a7ad85c8d6" target="_top" xlink:title="mappel::PointEmitterModel\l::set_ubound">
<polygon fill="white" stroke="black" points="312,-0.5 312,-28.5 439,-28.5 439,-0.5 312,-0.5"/>
<text text-anchor="start" x="320" y="-17.3" font-family="Helvetica,sans-Serif" font-size="9.00">mappel::PointEmitterModel</text>
<text text-anchor="middle" x="375.5" y="-7.3" font-family="Helvetica,sans-Serif" font-size="9.00">::set_ubound</text>
</a>
</g>
</g>
<!-- Node1&#45;&gt;Node9 -->
<g id="edge10" class="edge"><title>Node1&#45;&gt;Node9</title>
<path fill="none" stroke="midnightblue" d="M80.0217,-103.469C98.5275,-90.4704 127.89,-71.5312 156,-60.5 202.87,-42.1071 258.424,-30.5368 301.786,-23.6007"/>
<polygon fill="midnightblue" stroke="midnightblue" points="302.343,-27.0563 311.688,-22.0632 301.269,-20.1392 302.343,-27.0563"/>
</g>
<!-- Node3 -->
<g id="node3" class="node"><title>Node3</title>
<g id="a_node3"><a xlink:href="classmappel_1_1Gauss2DsModel.html#a46da2752c2d1ca376b72d910818e47ae" target="_top" xlink:title="mappel::Gauss2DsModel\l::get_max_sigma_ratio">
<polygon fill="white" stroke="black" points="315.5,-227.5 315.5,-255.5 435.5,-255.5 435.5,-227.5 315.5,-227.5"/>
<text text-anchor="start" x="323.5" y="-244.3" font-family="Helvetica,sans-Serif" font-size="9.00">mappel::Gauss2DsModel</text>
<text text-anchor="middle" x="375.5" y="-234.3" font-family="Helvetica,sans-Serif" font-size="9.00">::get_max_sigma_ratio</text>
</a>
</g>
</g>
<!-- Node2&#45;&gt;Node3 -->
<g id="edge2" class="edge"><title>Node2&#45;&gt;Node3</title>
<path fill="none" stroke="midnightblue" d="M264.255,-208.602C281.151,-213.644 300.363,-219.377 317.963,-224.629"/>
<polygon fill="midnightblue" stroke="midnightblue" points="316.966,-227.984 327.55,-227.489 318.968,-221.276 316.966,-227.984"/>
</g>
<!-- Node5 -->
<g id="node5" class="node"><title>Node5</title>
<g id="a_node5"><a xlink:href="classmappel_1_1Gauss2DsModel.html#af93a5f984a97e23ae1d371c980e48a41" target="_top" xlink:title="mappel::Gauss2DsModel\l::get_min_sigma">
<polygon fill="white" stroke="black" points="315.5,-180.5 315.5,-208.5 435.5,-208.5 435.5,-180.5 315.5,-180.5"/>
<text text-anchor="start" x="323.5" y="-197.3" font-family="Helvetica,sans-Serif" font-size="9.00">mappel::Gauss2DsModel</text>
<text text-anchor="middle" x="375.5" y="-187.3" font-family="Helvetica,sans-Serif" font-size="9.00">::get_min_sigma</text>
</a>
</g>
</g>
<!-- Node2&#45;&gt;Node5 -->
<g id="edge4" class="edge"><title>Node2&#45;&gt;Node5</title>
<path fill="none" stroke="midnightblue" d="M276.095,-194.5C285.619,-194.5 295.551,-194.5 305.287,-194.5"/>
<polygon fill="midnightblue" stroke="midnightblue" points="305.336,-198 315.336,-194.5 305.335,-191 305.336,-198"/>
</g>
<!-- Node3&#45;&gt;Node4 -->
<g id="edge3" class="edge"><title>Node3&#45;&gt;Node4</title>
<path fill="none" stroke="midnightblue" d="M427,-227.385C442.884,-222.945 460.588,-217.997 477.088,-213.385"/>
<polygon fill="midnightblue" stroke="midnightblue" points="478.491,-216.627 487.18,-210.565 476.606,-209.886 478.491,-216.627"/>
</g>
<!-- Node7 -->
<g id="node7" class="node"><title>Node7</title>
<g id="a_node7"><a xlink:href="classmappel_1_1PointEmitterModel.html#a01ce8d6358acbd2575be519dff1df89b" target="_top" xlink:title="mappel::PointEmitterModel\l::check_psf_sigma">
<polygon fill="white" stroke="black" points="312,-94.5 312,-122.5 439,-122.5 439,-94.5 312,-94.5"/>
<text text-anchor="start" x="320" y="-111.3" font-family="Helvetica,sans-Serif" font-size="9.00">mappel::PointEmitterModel</text>
<text text-anchor="middle" x="375.5" y="-101.3" font-family="Helvetica,sans-Serif" font-size="9.00">::check_psf_sigma</text>
</a>
</g>
</g>
<!-- Node6&#45;&gt;Node7 -->
<g id="edge7" class="edge"><title>Node6&#45;&gt;Node7</title>
<path fill="none" stroke="midnightblue" d="M276.095,-93.505C284.502,-94.786 293.228,-96.1157 301.856,-97.4305"/>
<polygon fill="midnightblue" stroke="midnightblue" points="301.501,-100.917 311.914,-98.9631 302.556,-93.9966 301.501,-100.917"/>
</g>
<!-- Node8 -->
<g id="node8" class="node"><title>Node8</title>
<g id="a_node8"><a xlink:href="classmappel_1_1Gauss1DsModel.html#ab77513553950b5fa5e3c8254b75a564e" target="_top" xlink:title="mappel::Gauss1DsModel\l::get_min_sigma">
<polygon fill="white" stroke="black" points="315.5,-47.5 315.5,-75.5 435.5,-75.5 435.5,-47.5 315.5,-47.5"/>
<text text-anchor="start" x="323.5" y="-64.3" font-family="Helvetica,sans-Serif" font-size="9.00">mappel::Gauss1DsModel</text>
<text text-anchor="middle" x="375.5" y="-54.3" font-family="Helvetica,sans-Serif" font-size="9.00">::get_min_sigma</text>
</a>
</g>
</g>
<!-- Node6&#45;&gt;Node8 -->
<g id="edge8" class="edge"><title>Node6&#45;&gt;Node8</title>
<path fill="none" stroke="midnightblue" d="M276.095,-75.8702C285.619,-74.4795 295.551,-73.029 305.287,-71.6073"/>
<polygon fill="midnightblue" stroke="midnightblue" points="305.946,-75.0482 315.336,-70.1399 304.935,-68.1217 305.946,-75.0482"/>
</g>
<!-- Node6&#45;&gt;Node9 -->
<g id="edge9" class="edge"><title>Node6&#45;&gt;Node9</title>
<path fill="none" stroke="midnightblue" d="M243.667,-70.3522C262.514,-60.5903 288.502,-47.6021 312,-37.5 316.114,-35.7312 320.415,-33.9711 324.75,-32.2575"/>
<polygon fill="midnightblue" stroke="midnightblue" points="326.17,-35.4611 334.239,-28.5954 323.65,-28.9306 326.17,-35.4611"/>
</g>
</g>
</svg>
