<?xml version="1.0" encoding="UTF-8" standalone="no"?>
<!DOCTYPE svg PUBLIC "-//W3C//DTD SVG 1.1//EN"
 "http://www.w3.org/Graphics/SVG/1.1/DTD/svg11.dtd">
<!-- Generated by graphviz version 2.38.0 (20140413.2041)
 -->
<!-- Title: mappel::Gauss1DsMLE::operator= Pages: 1 -->
<svg width="642pt" height="178pt"
 viewBox="0.00 0.00 642.00 178.00" xmlns="http://www.w3.org/2000/svg" xmlns:xlink="http://www.w3.org/1999/xlink">
<g id="graph0" class="graph" transform="scale(1 1) rotate(0) translate(4 174)">
<title>mappel::Gauss1DsMLE::operator=</title>
<polygon fill="white" stroke="none" points="-4,4 -4,-174 638,-174 638,4 -4,4"/>
<!-- Node1 -->
<g id="node1" class="node"><title>Node1</title>
<polygon fill="#bfbfbf" stroke="black" points="0,-70.5 0,-98.5 113,-98.5 113,-70.5 0,-70.5"/>
<text text-anchor="start" x="8" y="-87.3" font-family="Helvetica,sans-Serif" font-size="9.00">mappel::Gauss1DsMLE</text>
<text text-anchor="middle" x="56.5" y="-77.3" font-family="Helvetica,sans-Serif" font-size="9.00">::operator=</text>
</g>
<!-- Node2 -->
<g id="node2" class="node"><title>Node2</title>
<g id="a_node2"><a xlink:href="classmappel_1_1MLEstimator.html#ace25f714ea4c7918b71def996c638d0c" target="_top" xlink:title="mappel::MLEstimator\l::operator=">
<polygon fill="white" stroke="black" points="177,-141.5 177,-169.5 280,-169.5 280,-141.5 177,-141.5"/>
<text text-anchor="start" x="185" y="-158.3" font-family="Helvetica,sans-Serif" font-size="9.00">mappel::MLEstimator</text>
<text text-anchor="middle" x="228.5" y="-148.3" font-family="Helvetica,sans-Serif" font-size="9.00">::operator=</text>
</a>
</g>
</g>
<!-- Node1&#45;&gt;Node2 -->
<g id="edge1" class="edge"><title>Node1&#45;&gt;Node2</title>
<path fill="none" stroke="midnightblue" d="M81.3431,-98.6823C99.4534,-109.037 125.217,-122.888 149,-132.5 154.789,-134.84 160.906,-137.054 167.066,-139.117"/>
<polygon fill="midnightblue" stroke="midnightblue" points="166.15,-142.499 176.742,-142.231 168.295,-135.836 166.15,-142.499"/>
</g>
<!-- Node3 -->
<g id="node3" class="node"><title>Node3</title>
<g id="a_node3"><a xlink:href="classmappel_1_1PoissonNoise1DObjective.html#ab41b3958b61d38ef779fa2b52352e9ff" target="_top" xlink:title="mappel::PoissonNoise1DObjective\l::operator=">
<polygon fill="white" stroke="black" points="149,-94.5 149,-122.5 308,-122.5 308,-94.5 149,-94.5"/>
<text text-anchor="start" x="157" y="-111.3" font-family="Helvetica,sans-Serif" font-size="9.00">mappel::PoissonNoise1DObjective</text>
<text text-anchor="middle" x="228.5" y="-101.3" font-family="Helvetica,sans-Serif" font-size="9.00">::operator=</text>
</a>
</g>
</g>
<!-- Node1&#45;&gt;Node3 -->
<g id="edge2" class="edge"><title>Node1&#45;&gt;Node3</title>
<path fill="none" stroke="midnightblue" d="M113.164,-92.3585C121.466,-93.5305 130.194,-94.7627 138.972,-96.0019"/>
<polygon fill="midnightblue" stroke="midnightblue" points="138.493,-99.4689 148.884,-97.4012 139.471,-92.5376 138.493,-99.4689"/>
</g>
<!-- Node4 -->
<g id="node4" class="node"><title>Node4</title>
<g id="a_node4"><a xlink:href="classmappel_1_1Gauss1DsModel.html#ac0ca672043394ef61ed11792345cd052" target="_top" xlink:title="mappel::Gauss1DsModel\l::operator=">
<polygon fill="white" stroke="black" points="168.5,-47.5 168.5,-75.5 288.5,-75.5 288.5,-47.5 168.5,-47.5"/>
<text text-anchor="start" x="176.5" y="-64.3" font-family="Helvetica,sans-Serif" font-size="9.00">mappel::Gauss1DsModel</text>
<text text-anchor="middle" x="228.5" y="-54.3" font-family="Helvetica,sans-Serif" font-size="9.00">::operator=</text>
</a>
</g>
</g>
<!-- Node1&#45;&gt;Node4 -->
<g id="edge3" class="edge"><title>Node1&#45;&gt;Node4</title>
<path fill="none" stroke="midnightblue" d="M113.164,-76.9689C127.562,-75.021 143.24,-72.8998 158.241,-70.8704"/>
<polygon fill="midnightblue" stroke="midnightblue" points="159.053,-74.2925 168.493,-69.4833 158.114,-67.3557 159.053,-74.2925"/>
</g>
<!-- Node7 -->
<g id="node7" class="node"><title>Node7</title>
<g id="a_node7"><a xlink:href="classmappel_1_1PointEmitterModel.html#aa84b896a736bca3cab2f07e2ccda5489" target="_top" xlink:title="mappel::PointEmitterModel\l::operator=">
<polygon fill="white" stroke="black" points="165,-0.5 165,-28.5 292,-28.5 292,-0.5 165,-0.5"/>
<text text-anchor="start" x="173" y="-17.3" font-family="Helvetica,sans-Serif" font-size="9.00">mappel::PointEmitterModel</text>
<text text-anchor="middle" x="228.5" y="-7.3" font-family="Helvetica,sans-Serif" font-size="9.00">::operator=</text>
</a>
</g>
</g>
<!-- Node1&#45;&gt;Node7 -->
<g id="edge6" class="edge"><title>Node1&#45;&gt;Node7</title>
<path fill="none" stroke="midnightblue" d="M82.6037,-70.4301C100.696,-60.6512 125.896,-47.7622 149,-38.5 154.816,-36.1684 160.95,-33.9297 167.121,-31.8209"/>
<polygon fill="midnightblue" stroke="midnightblue" points="168.412,-35.0805 176.808,-28.6191 166.215,-28.4341 168.412,-35.0805"/>
</g>
<!-- Node5 -->
<g id="node5" class="node"><title>Node5</title>
<g id="a_node5"><a xlink:href="classmappel_1_1MCMCAdaptor1Ds.html#a1eedeee6319a2ea86ada3ecabb473f00" target="_top" xlink:title="mappel::MCMCAdaptor1Ds\l::operator=">
<polygon fill="white" stroke="black" points="344,-47.5 344,-75.5 473,-75.5 473,-47.5 344,-47.5"/>
<text text-anchor="start" x="352" y="-64.3" font-family="Helvetica,sans-Serif" font-size="9.00">mappel::MCMCAdaptor1Ds</text>
<text text-anchor="middle" x="408.5" y="-54.3" font-family="Helvetica,sans-Serif" font-size="9.00">::operator=</text>
</a>
</g>
</g>
<!-- Node4&#45;&gt;Node5 -->
<g id="edge4" class="edge"><title>Node4&#45;&gt;Node5</title>
<path fill="none" stroke="midnightblue" d="M288.771,-61.5C303.151,-61.5 318.701,-61.5 333.662,-61.5"/>
<polygon fill="midnightblue" stroke="midnightblue" points="333.904,-65.0001 343.904,-61.5 333.903,-58.0001 333.904,-65.0001"/>
</g>
<!-- Node6 -->
<g id="node6" class="node"><title>Node6</title>
<g id="a_node6"><a xlink:href="classmappel_1_1MCMCAdaptor1D.html#a669bba7517087d842f941957cbbf5fb5" target="_top" xlink:title="mappel::MCMCAdaptor1D\l::operator=">
<polygon fill="white" stroke="black" points="509,-47.5 509,-75.5 634,-75.5 634,-47.5 509,-47.5"/>
<text text-anchor="start" x="517" y="-64.3" font-family="Helvetica,sans-Serif" font-size="9.00">mappel::MCMCAdaptor1D</text>
<text text-anchor="middle" x="571.5" y="-54.3" font-family="Helvetica,sans-Serif" font-size="9.00">::operator=</text>
</a>
</g>
</g>
<!-- Node5&#45;&gt;Node6 -->
<g id="edge5" class="edge"><title>Node5&#45;&gt;Node6</title>
<path fill="none" stroke="midnightblue" d="M473.131,-61.5C481.505,-61.5 490.133,-61.5 498.632,-61.5"/>
<polygon fill="midnightblue" stroke="midnightblue" points="498.908,-65.0001 508.908,-61.5 498.908,-58.0001 498.908,-65.0001"/>
</g>
</g>
</svg>
