<?xml version="1.0" encoding="UTF-8" standalone="no"?>
<!DOCTYPE svg PUBLIC "-//W3C//DTD SVG 1.1//EN"
 "http://www.w3.org/Graphics/SVG/1.1/DTD/svg11.dtd">
<!-- Generated by graphviz version 2.38.0 (20140413.2041)
 -->
<!-- Title: mappel::Gauss1DsModel::get_stats Pages: 1 -->
<svg width="648pt" height="225pt"
 viewBox="0.00 0.00 648.00 225.00" xmlns="http://www.w3.org/2000/svg" xmlns:xlink="http://www.w3.org/1999/xlink">
<g id="graph0" class="graph" transform="scale(1 1) rotate(0) translate(4 221)">
<title>mappel::Gauss1DsModel::get_stats</title>
<polygon fill="white" stroke="none" points="-4,4 -4,-221 644,-221 644,4 -4,4"/>
<!-- Node1 -->
<g id="node1" class="node"><title>Node1</title>
<polygon fill="#bfbfbf" stroke="black" points="0,-94.5 0,-122.5 120,-122.5 120,-94.5 0,-94.5"/>
<text text-anchor="start" x="8" y="-111.3" font-family="Helvetica,sans-Serif" font-size="9.00">mappel::Gauss1DsModel</text>
<text text-anchor="middle" x="60" y="-101.3" font-family="Helvetica,sans-Serif" font-size="9.00">::get_stats</text>
</g>
<!-- Node2 -->
<g id="node2" class="node"><title>Node2</title>
<g id="a_node2"><a xlink:href="classmappel_1_1Gauss1DsModel.html#aac5607105b0014d286fd419d0f1741e6" target="_top" xlink:title="mappel::Gauss1DsModel\l::get_max_sigma">
<polygon fill="white" stroke="black" points="165.5,-188.5 165.5,-216.5 285.5,-216.5 285.5,-188.5 165.5,-188.5"/>
<text text-anchor="start" x="173.5" y="-205.3" font-family="Helvetica,sans-Serif" font-size="9.00">mappel::Gauss1DsModel</text>
<text text-anchor="middle" x="225.5" y="-195.3" font-family="Helvetica,sans-Serif" font-size="9.00">::get_max_sigma</text>
</a>
</g>
</g>
<!-- Node1&#45;&gt;Node2 -->
<g id="edge1" class="edge"><title>Node1&#45;&gt;Node2</title>
<path fill="none" stroke="midnightblue" d="M76.7446,-122.771C94.7703,-138.487 125.728,-163.629 156,-179.5 159.463,-181.316 163.099,-183.03 166.813,-184.641"/>
<polygon fill="midnightblue" stroke="midnightblue" points="165.574,-187.916 176.156,-188.432 168.205,-181.429 165.574,-187.916"/>
</g>
<!-- Node3 -->
<g id="node3" class="node"><title>Node3</title>
<g id="a_node3"><a xlink:href="classmappel_1_1Gauss1DsModel.html#ab77513553950b5fa5e3c8254b75a564e" target="_top" xlink:title="mappel::Gauss1DsModel\l::get_min_sigma">
<polygon fill="white" stroke="black" points="165.5,-141.5 165.5,-169.5 285.5,-169.5 285.5,-141.5 165.5,-141.5"/>
<text text-anchor="start" x="173.5" y="-158.3" font-family="Helvetica,sans-Serif" font-size="9.00">mappel::Gauss1DsModel</text>
<text text-anchor="middle" x="225.5" y="-148.3" font-family="Helvetica,sans-Serif" font-size="9.00">::get_min_sigma</text>
</a>
</g>
</g>
<!-- Node1&#45;&gt;Node3 -->
<g id="edge2" class="edge"><title>Node1&#45;&gt;Node3</title>
<path fill="none" stroke="midnightblue" d="M110.055,-122.602C127.676,-127.667 147.724,-133.43 166.063,-138.702"/>
<polygon fill="midnightblue" stroke="midnightblue" points="165.183,-142.09 175.761,-141.489 167.117,-135.363 165.183,-142.09"/>
</g>
<!-- Node4 -->
<g id="node4" class="node"><title>Node4</title>
<g id="a_node4"><a xlink:href="classmappel_1_1MCMCAdaptor1Ds.html#aff41401113d81b876c5bfae158541ba3" target="_top" xlink:title="mappel::MCMCAdaptor1Ds\l::get_stats">
<polygon fill="white" stroke="black" points="161,-94.5 161,-122.5 290,-122.5 290,-94.5 161,-94.5"/>
<text text-anchor="start" x="169" y="-111.3" font-family="Helvetica,sans-Serif" font-size="9.00">mappel::MCMCAdaptor1Ds</text>
<text text-anchor="middle" x="225.5" y="-101.3" font-family="Helvetica,sans-Serif" font-size="9.00">::get_stats</text>
</a>
</g>
</g>
<!-- Node1&#45;&gt;Node4 -->
<g id="edge3" class="edge"><title>Node1&#45;&gt;Node4</title>
<path fill="none" stroke="midnightblue" d="M120.027,-108.5C129.975,-108.5 140.41,-108.5 150.676,-108.5"/>
<polygon fill="midnightblue" stroke="midnightblue" points="150.862,-112 160.862,-108.5 150.862,-105 150.862,-112"/>
</g>
<!-- Node7 -->
<g id="node7" class="node"><title>Node7</title>
<g id="a_node7"><a xlink:href="classmappel_1_1ImageFormat1DBase.html#ac6b74b16ce0a764516cc2686ee8cd60f" target="_top" xlink:title="mappel::ImageFormat1DBase\l::get_stats">
<polygon fill="white" stroke="black" points="156,-47.5 156,-75.5 295,-75.5 295,-47.5 156,-47.5"/>
<text text-anchor="start" x="164" y="-64.3" font-family="Helvetica,sans-Serif" font-size="9.00">mappel::ImageFormat1DBase</text>
<text text-anchor="middle" x="225.5" y="-54.3" font-family="Helvetica,sans-Serif" font-size="9.00">::get_stats</text>
</a>
</g>
</g>
<!-- Node1&#45;&gt;Node7 -->
<g id="edge6" class="edge"><title>Node1&#45;&gt;Node7</title>
<path fill="none" stroke="midnightblue" d="M110.055,-94.3985C127.676,-89.3331 147.724,-83.5703 166.063,-78.2985"/>
<polygon fill="midnightblue" stroke="midnightblue" points="167.117,-81.6371 175.761,-75.5106 165.183,-74.9096 167.117,-81.6371"/>
</g>
<!-- Node10 -->
<g id="node10" class="node"><title>Node10</title>
<g id="a_node10"><a xlink:href="classmappel_1_1PointEmitterModel.html#a7fd2b4b01b10bb6a493a39eb72d480cb" target="_top" xlink:title="mappel::PointEmitterModel\l::get_stats">
<polygon fill="white" stroke="black" points="162,-0.5 162,-28.5 289,-28.5 289,-0.5 162,-0.5"/>
<text text-anchor="start" x="170" y="-17.3" font-family="Helvetica,sans-Serif" font-size="9.00">mappel::PointEmitterModel</text>
<text text-anchor="middle" x="225.5" y="-7.3" font-family="Helvetica,sans-Serif" font-size="9.00">::get_stats</text>
</a>
</g>
</g>
<!-- Node1&#45;&gt;Node10 -->
<g id="edge9" class="edge"><title>Node1&#45;&gt;Node10</title>
<path fill="none" stroke="midnightblue" d="M76.7446,-94.2288C94.7703,-78.5126 125.728,-53.3707 156,-37.5 159.463,-35.6843 163.099,-33.9697 166.813,-32.3586"/>
<polygon fill="midnightblue" stroke="midnightblue" points="168.205,-35.571 176.156,-28.5682 165.574,-29.0845 168.205,-35.571"/>
</g>
<!-- Node5 -->
<g id="node5" class="node"><title>Node5</title>
<g id="a_node5"><a xlink:href="classmappel_1_1MCMCAdaptor1D.html#ad1cb677abb1a3e214c2f6fc1e1c3cb86" target="_top" xlink:title="mappel::MCMCAdaptor1D\l::get_stats">
<polygon fill="white" stroke="black" points="338,-94.5 338,-122.5 463,-122.5 463,-94.5 338,-94.5"/>
<text text-anchor="start" x="346" y="-111.3" font-family="Helvetica,sans-Serif" font-size="9.00">mappel::MCMCAdaptor1D</text>
<text text-anchor="middle" x="400.5" y="-101.3" font-family="Helvetica,sans-Serif" font-size="9.00">::get_stats</text>
</a>
</g>
</g>
<!-- Node4&#45;&gt;Node5 -->
<g id="edge4" class="edge"><title>Node4&#45;&gt;Node5</title>
<path fill="none" stroke="midnightblue" d="M290.427,-108.5C302.534,-108.5 315.275,-108.5 327.608,-108.5"/>
<polygon fill="midnightblue" stroke="midnightblue" points="327.849,-112 337.849,-108.5 327.849,-105 327.849,-112"/>
</g>
<!-- Node6 -->
<g id="node6" class="node"><title>Node6</title>
<g id="a_node6"><a xlink:href="classmappel_1_1MCMCAdaptorBase.html#ad6054973528dfad89976882cdb50aba5" target="_top" xlink:title="mappel::MCMCAdaptorBase\l::get_stats">
<polygon fill="white" stroke="black" points="506,-94.5 506,-122.5 640,-122.5 640,-94.5 506,-94.5"/>
<text text-anchor="start" x="514" y="-111.3" font-family="Helvetica,sans-Serif" font-size="9.00">mappel::MCMCAdaptorBase</text>
<text text-anchor="middle" x="573" y="-101.3" font-family="Helvetica,sans-Serif" font-size="9.00">::get_stats</text>
</a>
</g>
</g>
<!-- Node5&#45;&gt;Node6 -->
<g id="edge5" class="edge"><title>Node5&#45;&gt;Node6</title>
<path fill="none" stroke="midnightblue" d="M463.054,-108.5C473.717,-108.5 484.916,-108.5 495.91,-108.5"/>
<polygon fill="midnightblue" stroke="midnightblue" points="495.928,-112 505.928,-108.5 495.928,-105 495.928,-112"/>
</g>
<!-- Node8 -->
<g id="node8" class="node"><title>Node8</title>
<g id="a_node8"><a xlink:href="classmappel_1_1ImageFormat1DBase.html#aea1194302eccc0d8ad62394176aa6b0c" target="_top" xlink:title="mappel::ImageFormat1DBase\l::get_size">
<polygon fill="white" stroke="black" points="331,-47.5 331,-75.5 470,-75.5 470,-47.5 331,-47.5"/>
<text text-anchor="start" x="339" y="-64.3" font-family="Helvetica,sans-Serif" font-size="9.00">mappel::ImageFormat1DBase</text>
<text text-anchor="middle" x="400.5" y="-54.3" font-family="Helvetica,sans-Serif" font-size="9.00">::get_size</text>
</a>
</g>
</g>
<!-- Node7&#45;&gt;Node8 -->
<g id="edge7" class="edge"><title>Node7&#45;&gt;Node8</title>
<path fill="none" stroke="midnightblue" d="M295.371,-61.5C303.678,-61.5 312.211,-61.5 320.647,-61.5"/>
<polygon fill="midnightblue" stroke="midnightblue" points="320.866,-65.0001 330.866,-61.5 320.866,-58.0001 320.866,-65.0001"/>
</g>
<!-- Node9 -->
<g id="node9" class="node"><title>Node9</title>
<g id="a_node9"><a xlink:href="classmappel_1_1ImageFormat1DBase.html#a96644883bef9d230eea893ece4578e96" target="_top" xlink:title="mappel::ImageFormat1DBase\l::get_num_pixels">
<polygon fill="white" stroke="black" points="331,-0.5 331,-28.5 470,-28.5 470,-0.5 331,-0.5"/>
<text text-anchor="start" x="339" y="-17.3" font-family="Helvetica,sans-Serif" font-size="9.00">mappel::ImageFormat1DBase</text>
<text text-anchor="middle" x="400.5" y="-7.3" font-family="Helvetica,sans-Serif" font-size="9.00">::get_num_pixels</text>
</a>
</g>
</g>
<!-- Node7&#45;&gt;Node9 -->
<g id="edge8" class="edge"><title>Node7&#45;&gt;Node9</title>
<path fill="none" stroke="midnightblue" d="M278.406,-47.3985C297.222,-42.2864 318.654,-36.464 338.203,-31.1528"/>
<polygon fill="midnightblue" stroke="midnightblue" points="339.197,-34.5099 347.929,-28.5106 337.361,-27.7548 339.197,-34.5099"/>
</g>
</g>
</svg>
