<?xml version="1.0" encoding="UTF-8" standalone="no"?>
<!DOCTYPE svg PUBLIC "-//W3C//DTD SVG 1.1//EN"
 "http://www.w3.org/Graphics/SVG/1.1/DTD/svg11.dtd">
<!-- Generated by graphviz version 2.38.0 (20140413.2041)
 -->
<!-- Title: mappel::Gauss1DsModel::Stencil::compute_derivatives Pages: 1 -->
<svg width="592pt" height="222pt"
 viewBox="0.00 0.00 592.00 222.00" xmlns="http://www.w3.org/2000/svg" xmlns:xlink="http://www.w3.org/1999/xlink">
<g id="graph0" class="graph" transform="scale(1 1) rotate(0) translate(4 218)">
<title>mappel::Gauss1DsModel::Stencil::compute_derivatives</title>
<polygon fill="white" stroke="none" points="-4,4 -4,-218 588,-218 588,4 -4,4"/>
<!-- Node1 -->
<g id="node1" class="node"><title>Node1</title>
<polygon fill="#bfbfbf" stroke="black" points="0,-97.5 0,-125.5 138,-125.5 138,-97.5 0,-97.5"/>
<text text-anchor="start" x="8" y="-114.3" font-family="Helvetica,sans-Serif" font-size="9.00">mappel::Gauss1DsModel</text>
<text text-anchor="middle" x="69" y="-104.3" font-family="Helvetica,sans-Serif" font-size="9.00">::Stencil::compute_derivatives</text>
</g>
<!-- Node2 -->
<g id="node2" class="node"><title>Node2</title>
<g id="a_node2"><a xlink:href="namespacemappel.html#a8da88490d6ff7d5886b96b66c1bab369" target="_top" xlink:title="mappel::make_DX_stencil">
<polygon fill="white" stroke="black" points="180,-195.5 180,-213.5 304,-213.5 304,-195.5 180,-195.5"/>
<text text-anchor="middle" x="242" y="-202.3" font-family="Helvetica,sans-Serif" font-size="9.00">mappel::make_DX_stencil</text>
</a>
</g>
</g>
<!-- Node1&#45;&gt;Node2 -->
<g id="edge1" class="edge"><title>Node1&#45;&gt;Node2</title>
<path fill="none" stroke="midnightblue" d="M85.7526,-125.706C105.173,-142.513 139.82,-170.257 174,-186.5 178.574,-188.674 183.453,-190.619 188.413,-192.352"/>
<polygon fill="midnightblue" stroke="midnightblue" points="187.403,-195.703 197.994,-195.428 189.542,-189.039 187.403,-195.703"/>
</g>
<!-- Node4 -->
<g id="node4" class="node"><title>Node4</title>
<g id="a_node4"><a xlink:href="namespacemappel.html#aef14b765af6f9b85d93f42ab8b84311b" target="_top" xlink:title="mappel::make_DXS2_stencil">
<polygon fill="white" stroke="black" points="174.5,-158.5 174.5,-176.5 309.5,-176.5 309.5,-158.5 174.5,-158.5"/>
<text text-anchor="middle" x="242" y="-165.3" font-family="Helvetica,sans-Serif" font-size="9.00">mappel::make_DXS2_stencil</text>
</a>
</g>
</g>
<!-- Node1&#45;&gt;Node4 -->
<g id="edge3" class="edge"><title>Node1&#45;&gt;Node4</title>
<path fill="none" stroke="midnightblue" d="M106.31,-125.656C126.163,-133.17 151.273,-142.311 174,-149.5 180.869,-151.673 188.185,-153.813 195.365,-155.817"/>
<polygon fill="midnightblue" stroke="midnightblue" points="194.448,-159.195 205.017,-158.456 196.294,-152.442 194.448,-159.195"/>
</g>
<!-- Node6 -->
<g id="node6" class="node"><title>Node6</title>
<g id="a_node6"><a xlink:href="namespacemappel.html#af7636db506977133c8b30d108fede711" target="_top" xlink:title="mappel::make_DXS_stencil">
<polygon fill="white" stroke="black" points="177,-121.5 177,-139.5 307,-139.5 307,-121.5 177,-121.5"/>
<text text-anchor="middle" x="242" y="-128.3" font-family="Helvetica,sans-Serif" font-size="9.00">mappel::make_DXS_stencil</text>
</a>
</g>
</g>
<!-- Node1&#45;&gt;Node6 -->
<g id="edge5" class="edge"><title>Node1&#45;&gt;Node6</title>
<path fill="none" stroke="midnightblue" d="M138.075,-119.064C147.446,-120.105 157.108,-121.179 166.585,-122.232"/>
<polygon fill="midnightblue" stroke="midnightblue" points="166.448,-125.738 176.774,-123.364 167.221,-118.781 166.448,-125.738"/>
</g>
<!-- Node9 -->
<g id="node9" class="node"><title>Node9</title>
<g id="a_node9"><a xlink:href="namespacemappel.html#abccec04f04b0b10940779c9bbae0e570" target="_top" xlink:title="mappel::make_DXSX_stencil">
<polygon fill="white" stroke="black" points="174,-84.5 174,-102.5 310,-102.5 310,-84.5 174,-84.5"/>
<text text-anchor="middle" x="242" y="-91.3" font-family="Helvetica,sans-Serif" font-size="9.00">mappel::make_DXSX_stencil</text>
</a>
</g>
</g>
<!-- Node1&#45;&gt;Node9 -->
<g id="edge8" class="edge"><title>Node1&#45;&gt;Node9</title>
<path fill="none" stroke="midnightblue" d="M138.075,-104.334C146.577,-103.439 155.319,-102.519 163.945,-101.611"/>
<polygon fill="midnightblue" stroke="midnightblue" points="164.418,-105.081 173.996,-100.553 163.685,-98.1192 164.418,-105.081"/>
</g>
<!-- Node11 -->
<g id="node11" class="node"><title>Node11</title>
<g id="a_node11"><a xlink:href="namespacemappel.html#aa5c2f294298c875605ee1e9876b7d116" target="_top" xlink:title="mappel::make_G_stencil">
<polygon fill="white" stroke="black" points="183,-47.5 183,-65.5 301,-65.5 301,-47.5 183,-47.5"/>
<text text-anchor="middle" x="242" y="-54.3" font-family="Helvetica,sans-Serif" font-size="9.00">mappel::make_G_stencil</text>
</a>
</g>
</g>
<!-- Node1&#45;&gt;Node11 -->
<g id="edge10" class="edge"><title>Node1&#45;&gt;Node11</title>
<path fill="none" stroke="midnightblue" d="M108.841,-97.4669C128.314,-90.5817 152.311,-82.3231 174,-75.5 181.79,-73.0495 190.132,-70.5696 198.194,-68.2462"/>
<polygon fill="midnightblue" stroke="midnightblue" points="199.173,-71.6067 207.833,-65.5025 197.257,-64.8742 199.173,-71.6067"/>
</g>
<!-- Node13 -->
<g id="node13" class="node"><title>Node13</title>
<g id="a_node13"><a xlink:href="classmappel_1_1Gauss1DsModel_1_1Stencil.html#a91366bc87b44318c0ded04ac99760c27" target="_top" xlink:title="mappel::Gauss1DsModel\l::Stencil::sigma">
<polygon fill="white" stroke="black" points="182,-0.5 182,-28.5 302,-28.5 302,-0.5 182,-0.5"/>
<text text-anchor="start" x="190" y="-17.3" font-family="Helvetica,sans-Serif" font-size="9.00">mappel::Gauss1DsModel</text>
<text text-anchor="middle" x="242" y="-7.3" font-family="Helvetica,sans-Serif" font-size="9.00">::Stencil::sigma</text>
</a>
</g>
</g>
<!-- Node1&#45;&gt;Node13 -->
<g id="edge13" class="edge"><title>Node1&#45;&gt;Node13</title>
<path fill="none" stroke="midnightblue" d="M87.1092,-97.31C106.999,-81.3481 141.29,-55.446 174,-38.5 178.059,-36.3971 182.345,-34.4007 186.706,-32.524"/>
<polygon fill="midnightblue" stroke="midnightblue" points="188.375,-35.6236 196.317,-28.6117 185.736,-29.1402 188.375,-35.6236"/>
</g>
<!-- Node3 -->
<g id="node3" class="node"><title>Node3</title>
<g id="a_node3"><a xlink:href="namespacemappel.html#ad2dd4330fc626fa673a3acf691d6b9a7" target="_top" xlink:title="mappel::fill_DX_stencil">
<polygon fill="white" stroke="black" points="352,-195.5 352,-213.5 462,-213.5 462,-195.5 352,-195.5"/>
<text text-anchor="middle" x="407" y="-202.3" font-family="Helvetica,sans-Serif" font-size="9.00">mappel::fill_DX_stencil</text>
</a>
</g>
</g>
<!-- Node2&#45;&gt;Node3 -->
<g id="edge2" class="edge"><title>Node2&#45;&gt;Node3</title>
<path fill="none" stroke="midnightblue" d="M304.159,-204.5C316.368,-204.5 329.228,-204.5 341.545,-204.5"/>
<polygon fill="midnightblue" stroke="midnightblue" points="341.737,-208 351.737,-204.5 341.737,-201 341.737,-208"/>
</g>
<!-- Node5 -->
<g id="node5" class="node"><title>Node5</title>
<g id="a_node5"><a xlink:href="namespacemappel.html#a445e83c8273da9b3a50cc10d038ed612" target="_top" xlink:title="mappel::fill_DXS2_stencil">
<polygon fill="white" stroke="black" points="346,-158.5 346,-176.5 468,-176.5 468,-158.5 346,-158.5"/>
<text text-anchor="middle" x="407" y="-165.3" font-family="Helvetica,sans-Serif" font-size="9.00">mappel::fill_DXS2_stencil</text>
</a>
</g>
</g>
<!-- Node4&#45;&gt;Node5 -->
<g id="edge4" class="edge"><title>Node4&#45;&gt;Node5</title>
<path fill="none" stroke="midnightblue" d="M309.769,-167.5C318.363,-167.5 327.183,-167.5 335.83,-167.5"/>
<polygon fill="midnightblue" stroke="midnightblue" points="335.876,-171 345.876,-167.5 335.876,-164 335.876,-171"/>
</g>
<!-- Node7 -->
<g id="node7" class="node"><title>Node7</title>
<g id="a_node7"><a xlink:href="namespacemappel.html#ab0cb62f6dcecae5ff19468d87a283e7a" target="_top" xlink:title="mappel::fill_DXS_stencil">
<polygon fill="white" stroke="black" points="349,-121.5 349,-139.5 465,-139.5 465,-121.5 349,-121.5"/>
<text text-anchor="middle" x="407" y="-128.3" font-family="Helvetica,sans-Serif" font-size="9.00">mappel::fill_DXS_stencil</text>
</a>
</g>
</g>
<!-- Node6&#45;&gt;Node7 -->
<g id="edge6" class="edge"><title>Node6&#45;&gt;Node7</title>
<path fill="none" stroke="midnightblue" d="M307.422,-130.5C317.7,-130.5 328.357,-130.5 338.7,-130.5"/>
<polygon fill="midnightblue" stroke="midnightblue" points="338.912,-134 348.912,-130.5 338.912,-127 338.912,-134"/>
</g>
<!-- Node8 -->
<g id="node8" class="node"><title>Node8</title>
<g id="a_node8"><a xlink:href="namespacemappel.html#a8475cdb3edacceb0ae215c3ebd1f33c1" target="_top" xlink:title="mappel::square">
<polygon fill="white" stroke="black" points="504,-84.5 504,-102.5 584,-102.5 584,-84.5 504,-84.5"/>
<text text-anchor="middle" x="544" y="-91.3" font-family="Helvetica,sans-Serif" font-size="9.00">mappel::square</text>
</a>
</g>
</g>
<!-- Node7&#45;&gt;Node8 -->
<g id="edge7" class="edge"><title>Node7&#45;&gt;Node8</title>
<path fill="none" stroke="midnightblue" d="M441.025,-121.449C458.839,-116.566 481.034,-110.483 500.163,-105.24"/>
<polygon fill="midnightblue" stroke="midnightblue" points="501.129,-108.605 509.848,-102.586 499.279,-101.854 501.129,-108.605"/>
</g>
<!-- Node10 -->
<g id="node10" class="node"><title>Node10</title>
<g id="a_node10"><a xlink:href="namespacemappel.html#ad3a6553e54dc90232fc04c93731fc69c" target="_top" xlink:title="mappel::fill_DXSX_stencil">
<polygon fill="white" stroke="black" points="346,-84.5 346,-102.5 468,-102.5 468,-84.5 346,-84.5"/>
<text text-anchor="middle" x="407" y="-91.3" font-family="Helvetica,sans-Serif" font-size="9.00">mappel::fill_DXSX_stencil</text>
</a>
</g>
</g>
<!-- Node9&#45;&gt;Node10 -->
<g id="edge9" class="edge"><title>Node9&#45;&gt;Node10</title>
<path fill="none" stroke="midnightblue" d="M310.239,-93.5C318.656,-93.5 327.282,-93.5 335.744,-93.5"/>
<polygon fill="midnightblue" stroke="midnightblue" points="335.958,-97.0001 345.958,-93.5 335.958,-90.0001 335.958,-97.0001"/>
</g>
<!-- Node12 -->
<g id="node12" class="node"><title>Node12</title>
<g id="a_node12"><a xlink:href="namespacemappel.html#a5ca82edc201e8605107a991493ad0d5e" target="_top" xlink:title="mappel::fill_G_stencil">
<polygon fill="white" stroke="black" points="355,-47.5 355,-65.5 459,-65.5 459,-47.5 355,-47.5"/>
<text text-anchor="middle" x="407" y="-54.3" font-family="Helvetica,sans-Serif" font-size="9.00">mappel::fill_G_stencil</text>
</a>
</g>
</g>
<!-- Node11&#45;&gt;Node12 -->
<g id="edge11" class="edge"><title>Node11&#45;&gt;Node12</title>
<path fill="none" stroke="midnightblue" d="M301.386,-56.5C315.426,-56.5 330.464,-56.5 344.635,-56.5"/>
<polygon fill="midnightblue" stroke="midnightblue" points="344.774,-60.0001 354.774,-56.5 344.774,-53.0001 344.774,-60.0001"/>
</g>
<!-- Node12&#45;&gt;Node8 -->
<g id="edge12" class="edge"><title>Node12&#45;&gt;Node8</title>
<path fill="none" stroke="midnightblue" d="M441.025,-65.5512C458.839,-70.4338 481.034,-76.5166 500.163,-81.7596"/>
<polygon fill="midnightblue" stroke="midnightblue" points="499.279,-85.1462 509.848,-84.414 501.129,-78.3951 499.279,-85.1462"/>
</g>
</g>
</svg>
