<?xml version="1.0" encoding="UTF-8" standalone="no"?>
<!DOCTYPE svg PUBLIC "-//W3C//DTD SVG 1.1//EN"
 "http://www.w3.org/Graphics/SVG/1.1/DTD/svg11.dtd">
<!-- Generated by graphviz version 2.38.0 (20140413.2041)
 -->
<!-- Title: mappel::MLEstimator::operator= Pages: 1 -->
<svg width="260pt" height="178pt"
 viewBox="0.00 0.00 260.00 178.00" xmlns="http://www.w3.org/2000/svg" xmlns:xlink="http://www.w3.org/1999/xlink">
<g id="graph0" class="graph" transform="scale(1 1) rotate(0) translate(4 174)">
<title>mappel::MLEstimator::operator=</title>
<polygon fill="white" stroke="none" points="-4,4 -4,-174 256,-174 256,4 -4,4"/>
<!-- Node1 -->
<g id="node1" class="node"><title>Node1</title>
<polygon fill="#bfbfbf" stroke="black" points="0,-70.5 0,-98.5 103,-98.5 103,-70.5 0,-70.5"/>
<text text-anchor="start" x="8" y="-87.3" font-family="Helvetica,sans-Serif" font-size="9.00">mappel::MLEstimator</text>
<text text-anchor="middle" x="51.5" y="-77.3" font-family="Helvetica,sans-Serif" font-size="9.00">::operator=</text>
</g>
<!-- Node2 -->
<g id="node2" class="node"><title>Node2</title>
<g id="a_node2"><a xlink:href="classmappel_1_1Gauss1DMLE.html#abdf5e62ce76f3df65b1aab2033a06841" target="_top" xlink:title="mappel::Gauss1DMLE\l::operator=">
<polygon fill="white" stroke="black" points="141,-141.5 141,-169.5 250,-169.5 250,-141.5 141,-141.5"/>
<text text-anchor="start" x="149" y="-158.3" font-family="Helvetica,sans-Serif" font-size="9.00">mappel::Gauss1DMLE</text>
<text text-anchor="middle" x="195.5" y="-148.3" font-family="Helvetica,sans-Serif" font-size="9.00">::operator=</text>
</a>
</g>
</g>
<!-- Node1&#45;&gt;Node2 -->
<g id="edge1" class="edge"><title>Node1&#45;&gt;Node2</title>
<path fill="none" stroke="midnightblue" d="M85.2937,-103.853C101.27,-112.982 120.899,-123.762 139,-132.5 145.387,-135.583 152.297,-138.651 159.001,-141.495"/>
<polygon fill="midnightblue" stroke="midnightblue" points="86.7597,-100.658 76.348,-98.6963 83.2639,-106.723 86.7597,-100.658"/>
</g>
<!-- Node3 -->
<g id="node3" class="node"><title>Node3</title>
<g id="a_node3"><a xlink:href="classmappel_1_1Gauss1DsMLE.html#ac7cb6d3c242f1df583c0f894c3e3febb" target="_top" xlink:title="mappel::Gauss1DsMLE\l::operator=">
<polygon fill="white" stroke="black" points="139,-94.5 139,-122.5 252,-122.5 252,-94.5 139,-94.5"/>
<text text-anchor="start" x="147" y="-111.3" font-family="Helvetica,sans-Serif" font-size="9.00">mappel::Gauss1DsMLE</text>
<text text-anchor="middle" x="195.5" y="-101.3" font-family="Helvetica,sans-Serif" font-size="9.00">::operator=</text>
</a>
</g>
</g>
<!-- Node1&#45;&gt;Node3 -->
<g id="edge2" class="edge"><title>Node1&#45;&gt;Node3</title>
<path fill="none" stroke="midnightblue" d="M113.461,-94.8032C121.842,-96.2198 130.414,-97.6686 138.696,-99.0684"/>
<polygon fill="midnightblue" stroke="midnightblue" points="113.808,-91.3123 103.364,-93.0968 112.641,-98.2144 113.808,-91.3123"/>
</g>
<!-- Node4 -->
<g id="node4" class="node"><title>Node4</title>
<g id="a_node4"><a xlink:href="classmappel_1_1Gauss2DsMLE.html#a3c3c72608a0aa4f7342119267888ac49" target="_top" xlink:title="mappel::Gauss2DsMLE\l::operator=">
<polygon fill="white" stroke="black" points="139,-47.5 139,-75.5 252,-75.5 252,-47.5 139,-47.5"/>
<text text-anchor="start" x="147" y="-64.3" font-family="Helvetica,sans-Serif" font-size="9.00">mappel::Gauss2DsMLE</text>
<text text-anchor="middle" x="195.5" y="-54.3" font-family="Helvetica,sans-Serif" font-size="9.00">::operator=</text>
</a>
</g>
</g>
<!-- Node1&#45;&gt;Node4 -->
<g id="edge3" class="edge"><title>Node1&#45;&gt;Node4</title>
<path fill="none" stroke="midnightblue" d="M113.461,-74.6261C121.842,-73.2685 130.414,-71.8801 138.696,-70.5386"/>
<polygon fill="midnightblue" stroke="midnightblue" points="112.676,-71.2075 103.364,-76.2614 113.795,-78.1174 112.676,-71.2075"/>
</g>
<!-- Node5 -->
<g id="node5" class="node"><title>Node5</title>
<g id="a_node5"><a xlink:href="classmappel_1_1Gauss2DMLE.html#a31e347e3ff70644f76a5ffd69656a43f" target="_top" xlink:title="mappel::Gauss2DMLE\l::operator=">
<polygon fill="white" stroke="black" points="141,-0.5 141,-28.5 250,-28.5 250,-0.5 141,-0.5"/>
<text text-anchor="start" x="149" y="-17.3" font-family="Helvetica,sans-Serif" font-size="9.00">mappel::Gauss2DMLE</text>
<text text-anchor="middle" x="195.5" y="-7.3" font-family="Helvetica,sans-Serif" font-size="9.00">::operator=</text>
</a>
</g>
</g>
<!-- Node1&#45;&gt;Node5 -->
<g id="edge4" class="edge"><title>Node1&#45;&gt;Node5</title>
<path fill="none" stroke="midnightblue" d="M86.4724,-65.6193C102.288,-57.0407 121.447,-46.9456 139,-38.5 146,-35.1319 153.591,-31.7056 160.846,-28.5362"/>
<polygon fill="midnightblue" stroke="midnightblue" points="84.6848,-62.6075 77.5843,-70.471 88.0387,-68.7517 84.6848,-62.6075"/>
</g>
</g>
</svg>
