<?xml version="1.0" encoding="UTF-8" standalone="no"?>
<!DOCTYPE svg PUBLIC "-//W3C//DTD SVG 1.1//EN"
 "http://www.w3.org/Graphics/SVG/1.1/DTD/svg11.dtd">
<!-- Generated by graphviz version 2.38.0 (20140413.2041)
 -->
<!-- Title: mappel::PointEmitterModel::make_prior_component_position_normal Pages: 1 -->
<!--zoomable 554 -->
<svg id="main" version="1.1" xmlns="http://www.w3.org/2000/svg" xmlns:xlink="http://www.w3.org/1999/xlink" xml:space="preserve" onload="init(evt)">
<style type="text/css"><![CDATA[
.edge:hover path { stroke: red; }
.edge:hover polygon { stroke: red; fill: red; }
]]></style>
<script type="text/javascript"><![CDATA[
var edges = document.getElementsByTagName('g');
if (edges && edges.length) {
  for (var i=0;i<edges.length;i++) {
    if (edges[i].id.substr(0,4)=='edge') {
      edges[i].setAttribute('class','edge');
    }
  }
}
]]></script>
        <defs>
                <circle id="rim" cx="0" cy="0" r="7"/>
                <circle id="rim2" cx="0" cy="0" r="3.5"/>
                <g id="zoomPlus">
                        <use xlink:href="#rim" target="_top" fill="#404040">
                                <set attributeName="fill" to="#808080" begin="zoomplus.mouseover" end="zoomplus.mouseout"/>
                        </use>
                        <path d="M-4,0h8M0,-4v8" fill="none" stroke="white" stroke-width="1.5" pointer-events="none"/>
                </g>
                <g id="zoomMin">
                        <use xlink:href="#rim" target="_top" fill="#404040">
                                <set attributeName="fill" to="#808080" begin="zoomminus.mouseover" end="zoomminus.mouseout"/>
                        </use>
                        <path d="M-4,0h8" fill="none" stroke="white" stroke-width="1.5" pointer-events="none"/>
                </g>
                <g id="dirArrow">
                        <path fill="none" stroke="white" stroke-width="1.5" d="M0,-3.0v7 M-2.5,-0.5L0,-3.0L2.5,-0.5"/>
                </g>
               <g id="resetDef">
                       <use xlink:href="#rim2" target="_top" fill="#404040">
                               <set attributeName="fill" to="#808080" begin="reset.mouseover" end="reset.mouseout"/>
                       </use>
               </g>
        </defs>

<script type="text/javascript">
var viewWidth = 778;
var viewHeight = 554;
var sectionId = 'dynsection-29';
</script>
<script xlink:href="svgpan.js" target="_top"/>
<svg id="graph" class="graph">
<g id="viewport">
<title>mappel::PointEmitterModel::make_prior_component_position_normal</title>
<polygon fill="white" stroke="none" points="-4,4 -4,-550 774,-550 774,4 -4,4"/>
<!-- Node1 -->
<g id="node1" class="node"><title>Node1</title>
<polygon fill="#bfbfbf" stroke="black" points="0,-310.5 0,-348.5 127,-348.5 127,-310.5 0,-310.5"/>
<text text-anchor="start" x="8" y="-337.3" font-family="Helvetica,sans-Serif" font-size="9.00">mappel::PointEmitterModel</text>
<text text-anchor="start" x="8" y="-327.3" font-family="Helvetica,sans-Serif" font-size="9.00">::make_prior_component</text>
<text text-anchor="middle" x="63.5" y="-317.3" font-family="Helvetica,sans-Serif" font-size="9.00">_position_normal</text>
</g>
<!-- Node2 -->
<g id="node2" class="node"><title>Node2</title>
<g id="a_node2"><a xlink:href="classmappel_1_1Gauss1DsModel.html#ace3513b4d77a0e29488f8ff4a66f64cf" target="_top" target="_top" xlink:title="mappel::Gauss1DsModel\l::make_default_prior\l_normal_position">
<polygon fill="white" stroke="black" points="172.5,-507.5 172.5,-545.5 292.5,-545.5 292.5,-507.5 172.5,-507.5"/>
<text text-anchor="start" x="180.5" y="-534.3" font-family="Helvetica,sans-Serif" font-size="9.00">mappel::Gauss1DsModel</text>
<text text-anchor="start" x="180.5" y="-524.3" font-family="Helvetica,sans-Serif" font-size="9.00">::make_default_prior</text>
<text text-anchor="middle" x="232.5" y="-514.3" font-family="Helvetica,sans-Serif" font-size="9.00">_normal_position</text>
</a>
</g>
</g>
<!-- Node1&#45;&gt;Node2 -->
<g id="edge1" class="edge"><title>Node1&#45;&gt;Node2</title>
<path fill="none" stroke="midnightblue" d="M74.5853,-358.396C88.8818,-395.497 118.37,-459.705 163,-498.5 166.782,-501.787 171.001,-504.723 175.436,-507.337"/>
<polygon fill="midnightblue" stroke="midnightblue" points="77.7379,-356.833 70.9559,-348.694 71.1816,-359.286 77.7379,-356.833"/>
</g>
<!-- Node4 -->
<g id="node4" class="node"><title>Node4</title>
<g id="a_node4"><a xlink:href="classmappel_1_1Gauss2DModel.html#a22735422ebc24803eb51f2be72a67009" target="_top" target="_top" xlink:title="mappel::Gauss2DModel\l::make_default_prior\l_normal_position">
<polygon fill="white" stroke="black" points="174.5,-450.5 174.5,-488.5 290.5,-488.5 290.5,-450.5 174.5,-450.5"/>
<text text-anchor="start" x="182.5" y="-477.3" font-family="Helvetica,sans-Serif" font-size="9.00">mappel::Gauss2DModel</text>
<text text-anchor="start" x="182.5" y="-467.3" font-family="Helvetica,sans-Serif" font-size="9.00">::make_default_prior</text>
<text text-anchor="middle" x="232.5" y="-457.3" font-family="Helvetica,sans-Serif" font-size="9.00">_normal_position</text>
</a>
</g>
</g>
<!-- Node1&#45;&gt;Node4 -->
<g id="edge3" class="edge"><title>Node1&#45;&gt;Node4</title>
<path fill="none" stroke="midnightblue" d="M82.9056,-356.861C100.848,-381.77 130.168,-418.123 163,-441.5 167.605,-444.779 172.65,-447.758 177.849,-450.443"/>
<polygon fill="midnightblue" stroke="midnightblue" points="85.6755,-354.716 77.0468,-348.568 79.9583,-358.755 85.6755,-354.716"/>
</g>
<!-- Node6 -->
<g id="node6" class="node"><title>Node6</title>
<g id="a_node6"><a xlink:href="classmappel_1_1Gauss1DModel.html#a456b984f2309b0d5a72516361e4e18d0" target="_top" target="_top" xlink:title="mappel::Gauss1DModel\l::make_default_prior\l_normal_position">
<polygon fill="white" stroke="black" points="174.5,-393.5 174.5,-431.5 290.5,-431.5 290.5,-393.5 174.5,-393.5"/>
<text text-anchor="start" x="182.5" y="-420.3" font-family="Helvetica,sans-Serif" font-size="9.00">mappel::Gauss1DModel</text>
<text text-anchor="start" x="182.5" y="-410.3" font-family="Helvetica,sans-Serif" font-size="9.00">::make_default_prior</text>
<text text-anchor="middle" x="232.5" y="-400.3" font-family="Helvetica,sans-Serif" font-size="9.00">_normal_position</text>
</a>
</g>
</g>
<!-- Node1&#45;&gt;Node6 -->
<g id="edge5" class="edge"><title>Node1&#45;&gt;Node6</title>
<path fill="none" stroke="midnightblue" d="M105.199,-353.685C122.728,-363.717 143.614,-375.168 163,-384.5 169.367,-387.565 176.16,-390.605 182.902,-393.49"/>
<polygon fill="midnightblue" stroke="midnightblue" points="106.775,-350.553 96.3645,-348.586 103.276,-356.616 106.775,-350.553"/>
</g>
<!-- Node8 -->
<g id="node8" class="node"><title>Node8</title>
<g id="a_node8"><a xlink:href="classmappel_1_1Gauss2DsModel.html#a19b5d93feda4f83a9b1b8b6df0e2ebc5" target="_top" target="_top" xlink:title="mappel::Gauss2DsModel\l::make_default_prior\l_normal_position">
<polygon fill="white" stroke="black" points="172.5,-336.5 172.5,-374.5 292.5,-374.5 292.5,-336.5 172.5,-336.5"/>
<text text-anchor="start" x="180.5" y="-363.3" font-family="Helvetica,sans-Serif" font-size="9.00">mappel::Gauss2DsModel</text>
<text text-anchor="start" x="180.5" y="-353.3" font-family="Helvetica,sans-Serif" font-size="9.00">::make_default_prior</text>
<text text-anchor="middle" x="232.5" y="-343.3" font-family="Helvetica,sans-Serif" font-size="9.00">_normal_position</text>
</a>
</g>
</g>
<!-- Node1&#45;&gt;Node8 -->
<g id="edge7" class="edge"><title>Node1&#45;&gt;Node8</title>
<path fill="none" stroke="midnightblue" d="M137.345,-340.841C149.045,-342.663 161.029,-344.529 172.358,-346.292"/>
<polygon fill="midnightblue" stroke="midnightblue" points="137.579,-337.336 127.16,-339.255 136.502,-344.252 137.579,-337.336"/>
</g>
<!-- Node12 -->
<g id="node12" class="node"><title>Node12</title>
<g id="a_node12"><a xlink:href="classmappel_1_1Gauss2DModel.html#af60537cc3f45472202602e95d1e75f65" target="_top" target="_top" xlink:title="mappel::Gauss2DModel\l::make_prior_normal_position">
<polygon fill="white" stroke="black" points="163,-289.5 163,-317.5 302,-317.5 302,-289.5 163,-289.5"/>
<text text-anchor="start" x="171" y="-306.3" font-family="Helvetica,sans-Serif" font-size="9.00">mappel::Gauss2DModel</text>
<text text-anchor="middle" x="232.5" y="-296.3" font-family="Helvetica,sans-Serif" font-size="9.00">::make_prior_normal_position</text>
</a>
</g>
</g>
<!-- Node1&#45;&gt;Node12 -->
<g id="edge11" class="edge"><title>Node1&#45;&gt;Node12</title>
<path fill="none" stroke="midnightblue" d="M137.115,-318.195C145.674,-316.862 154.389,-315.505 162.891,-314.182"/>
<polygon fill="midnightblue" stroke="midnightblue" points="136.502,-314.748 127.16,-319.745 137.579,-321.664 136.502,-314.748"/>
</g>
<!-- Node13 -->
<g id="node13" class="node"><title>Node13</title>
<g id="a_node13"><a xlink:href="classmappel_1_1Gauss1DsModel.html#a80bebfae37071515edfde5cd41ae375d" target="_top" target="_top" xlink:title="mappel::Gauss1DsModel\l::make_prior_normal_position">
<polygon fill="white" stroke="black" points="163,-242.5 163,-270.5 302,-270.5 302,-242.5 163,-242.5"/>
<text text-anchor="start" x="171" y="-259.3" font-family="Helvetica,sans-Serif" font-size="9.00">mappel::Gauss1DsModel</text>
<text text-anchor="middle" x="232.5" y="-249.3" font-family="Helvetica,sans-Serif" font-size="9.00">::make_prior_normal_position</text>
</a>
</g>
</g>
<!-- Node1&#45;&gt;Node13 -->
<g id="edge12" class="edge"><title>Node1&#45;&gt;Node13</title>
<path fill="none" stroke="midnightblue" d="M109.017,-305.884C125.732,-297.409 145.034,-288.081 163,-280.5 171.243,-277.022 180.183,-273.627 188.799,-270.536"/>
<polygon fill="midnightblue" stroke="midnightblue" points="107.329,-302.816 100.022,-310.488 110.519,-309.047 107.329,-302.816"/>
</g>
<!-- Node20 -->
<g id="node20" class="node"><title>Node20</title>
<g id="a_node20"><a xlink:href="classmappel_1_1Gauss1DModel.html#ab4fc9aafd94b2dd6532ef71f2ea47619" target="_top" target="_top" xlink:title="mappel::Gauss1DModel\l::make_prior_normal_position">
<polygon fill="white" stroke="black" points="163,-195.5 163,-223.5 302,-223.5 302,-195.5 163,-195.5"/>
<text text-anchor="start" x="171" y="-212.3" font-family="Helvetica,sans-Serif" font-size="9.00">mappel::Gauss1DModel</text>
<text text-anchor="middle" x="232.5" y="-202.3" font-family="Helvetica,sans-Serif" font-size="9.00">::make_prior_normal_position</text>
</a>
</g>
</g>
<!-- Node1&#45;&gt;Node20 -->
<g id="edge21" class="edge"><title>Node1&#45;&gt;Node20</title>
<path fill="none" stroke="midnightblue" d="M85.7803,-302.624C104.172,-280.994 132.535,-251.213 163,-232.5 168.558,-229.086 174.685,-226.11 180.92,-223.534"/>
<polygon fill="midnightblue" stroke="midnightblue" points="82.9504,-300.553 79.2362,-310.475 88.3275,-305.035 82.9504,-300.553"/>
</g>
<!-- Node27 -->
<g id="node27" class="node"><title>Node27</title>
<g id="a_node27"><a xlink:href="classmappel_1_1Gauss2DsModel.html#aa30152146e1a52b340950de7f6a058ba" target="_top" target="_top" xlink:title="mappel::Gauss2DsModel\l::make_prior_normal_position">
<polygon fill="white" stroke="black" points="163,-148.5 163,-176.5 302,-176.5 302,-148.5 163,-148.5"/>
<text text-anchor="start" x="171" y="-165.3" font-family="Helvetica,sans-Serif" font-size="9.00">mappel::Gauss2DsModel</text>
<text text-anchor="middle" x="232.5" y="-155.3" font-family="Helvetica,sans-Serif" font-size="9.00">::make_prior_normal_position</text>
</a>
</g>
</g>
<!-- Node1&#45;&gt;Node27 -->
<g id="edge30" class="edge"><title>Node1&#45;&gt;Node27</title>
<path fill="none" stroke="midnightblue" d="M77.1232,-300.832C92.7963,-268.401 122.494,-216.127 163,-185.5 167.603,-182.02 172.763,-179.047 178.132,-176.513"/>
<polygon fill="midnightblue" stroke="midnightblue" points="73.7998,-299.674 72.713,-310.213 80.1348,-302.652 73.7998,-299.674"/>
</g>
<!-- Node3 -->
<g id="node3" class="node"><title>Node3</title>
<g id="a_node3"><a xlink:href="classmappel_1_1Gauss1DsModel.html#a35300bd3e01596220b5630853da3d9ce" target="_top" target="_top" xlink:title="mappel::Gauss1DsModel\l::make_default_prior">
<polygon fill="white" stroke="black" points="338,-512.5 338,-540.5 458,-540.5 458,-512.5 338,-512.5"/>
<text text-anchor="start" x="346" y="-529.3" font-family="Helvetica,sans-Serif" font-size="9.00">mappel::Gauss1DsModel</text>
<text text-anchor="middle" x="398" y="-519.3" font-family="Helvetica,sans-Serif" font-size="9.00">::make_default_prior</text>
</a>
</g>
</g>
<!-- Node2&#45;&gt;Node3 -->
<g id="edge2" class="edge"><title>Node2&#45;&gt;Node3</title>
<path fill="none" stroke="midnightblue" d="M302.677,-526.5C314.357,-526.5 326.388,-526.5 337.785,-526.5"/>
<polygon fill="midnightblue" stroke="midnightblue" points="302.527,-523 292.527,-526.5 302.527,-530 302.527,-523"/>
</g>
<!-- Node5 -->
<g id="node5" class="node"><title>Node5</title>
<g id="a_node5"><a xlink:href="classmappel_1_1Gauss2DModel.html#a47f4b70d887066e1d73c0544e0a9690c" target="_top" target="_top" xlink:title="mappel::Gauss2DModel\l::make_default_prior">
<polygon fill="white" stroke="black" points="340,-455.5 340,-483.5 456,-483.5 456,-455.5 340,-455.5"/>
<text text-anchor="start" x="348" y="-472.3" font-family="Helvetica,sans-Serif" font-size="9.00">mappel::Gauss2DModel</text>
<text text-anchor="middle" x="398" y="-462.3" font-family="Helvetica,sans-Serif" font-size="9.00">::make_default_prior</text>
</a>
</g>
</g>
<!-- Node4&#45;&gt;Node5 -->
<g id="edge4" class="edge"><title>Node4&#45;&gt;Node5</title>
<path fill="none" stroke="midnightblue" d="M300.923,-469.5C313.854,-469.5 327.279,-469.5 339.848,-469.5"/>
<polygon fill="midnightblue" stroke="midnightblue" points="300.684,-466 290.684,-469.5 300.684,-473 300.684,-466"/>
</g>
<!-- Node7 -->
<g id="node7" class="node"><title>Node7</title>
<g id="a_node7"><a xlink:href="classmappel_1_1Gauss1DModel.html#ab9aeff0d5e4f065e81b1d49183ca3fcb" target="_top" target="_top" xlink:title="mappel::Gauss1DModel\l::make_default_prior">
<polygon fill="white" stroke="black" points="340,-398.5 340,-426.5 456,-426.5 456,-398.5 340,-398.5"/>
<text text-anchor="start" x="348" y="-415.3" font-family="Helvetica,sans-Serif" font-size="9.00">mappel::Gauss1DModel</text>
<text text-anchor="middle" x="398" y="-405.3" font-family="Helvetica,sans-Serif" font-size="9.00">::make_default_prior</text>
</a>
</g>
</g>
<!-- Node6&#45;&gt;Node7 -->
<g id="edge6" class="edge"><title>Node6&#45;&gt;Node7</title>
<path fill="none" stroke="midnightblue" d="M300.923,-412.5C313.854,-412.5 327.279,-412.5 339.848,-412.5"/>
<polygon fill="midnightblue" stroke="midnightblue" points="300.684,-409 290.684,-412.5 300.684,-416 300.684,-409"/>
</g>
<!-- Node9 -->
<g id="node9" class="node"><title>Node9</title>
<g id="a_node9"><a xlink:href="classmappel_1_1Gauss2DsModel.html#a5f730333cb51b9586892cfd5bb566bf1" target="_top" target="_top" xlink:title="mappel::Gauss2DsModel\l::make_default_prior">
<polygon fill="white" stroke="black" points="338,-341.5 338,-369.5 458,-369.5 458,-341.5 338,-341.5"/>
<text text-anchor="start" x="346" y="-358.3" font-family="Helvetica,sans-Serif" font-size="9.00">mappel::Gauss2DsModel</text>
<text text-anchor="middle" x="398" y="-348.3" font-family="Helvetica,sans-Serif" font-size="9.00">::make_default_prior</text>
</a>
</g>
</g>
<!-- Node8&#45;&gt;Node9 -->
<g id="edge8" class="edge"><title>Node8&#45;&gt;Node9</title>
<path fill="none" stroke="midnightblue" d="M302.677,-355.5C314.357,-355.5 326.388,-355.5 337.785,-355.5"/>
<polygon fill="midnightblue" stroke="midnightblue" points="302.527,-352 292.527,-355.5 302.527,-359 302.527,-352"/>
</g>
<!-- Node10 -->
<g id="node10" class="node"><title>Node10</title>
<g id="a_node10"><a xlink:href="classmappel_1_1Gauss2DsMAP.html#a3060b21e1ba0df3195cc8887919d44ac" target="_top" target="_top" xlink:title="mappel::Gauss2DsMAP\l::Gauss2DsMAP">
<polygon fill="white" stroke="black" points="497,-385.5 497,-413.5 611,-413.5 611,-385.5 497,-385.5"/>
<text text-anchor="start" x="505" y="-402.3" font-family="Helvetica,sans-Serif" font-size="9.00">mappel::Gauss2DsMAP</text>
<text text-anchor="middle" x="554" y="-392.3" font-family="Helvetica,sans-Serif" font-size="9.00">::Gauss2DsMAP</text>
</a>
</g>
</g>
<!-- Node9&#45;&gt;Node10 -->
<g id="edge9" class="edge"><title>Node9&#45;&gt;Node10</title>
<path fill="none" stroke="midnightblue" d="M457.93,-372.337C473.07,-376.663 489.198,-381.271 503.789,-385.44"/>
<polygon fill="midnightblue" stroke="midnightblue" points="458.727,-368.925 448.15,-369.543 456.804,-375.655 458.727,-368.925"/>
</g>
<!-- Node11 -->
<g id="node11" class="node"><title>Node11</title>
<g id="a_node11"><a xlink:href="classmappel_1_1Gauss2DsMLE.html#a3151cb0e1936aaeacee80da0feb0231c" target="_top" target="_top" xlink:title="mappel::Gauss2DsMLE\l::Gauss2DsMLE">
<polygon fill="white" stroke="black" points="497.5,-338.5 497.5,-366.5 610.5,-366.5 610.5,-338.5 497.5,-338.5"/>
<text text-anchor="start" x="505.5" y="-355.3" font-family="Helvetica,sans-Serif" font-size="9.00">mappel::Gauss2DsMLE</text>
<text text-anchor="middle" x="554" y="-345.3" font-family="Helvetica,sans-Serif" font-size="9.00">::Gauss2DsMLE</text>
</a>
</g>
</g>
<!-- Node9&#45;&gt;Node11 -->
<g id="edge10" class="edge"><title>Node9&#45;&gt;Node11</title>
<path fill="none" stroke="midnightblue" d="M468.187,-354.152C477.95,-353.962 487.883,-353.769 497.348,-353.584"/>
<polygon fill="midnightblue" stroke="midnightblue" points="468.03,-350.654 458.1,-354.349 468.166,-357.653 468.03,-350.654"/>
</g>
<!-- Node14 -->
<g id="node14" class="node"><title>Node14</title>
<g id="a_node14"><a xlink:href="classmappel_1_1Gauss2DsModel.html#a199ce5ccefd43d8bf4b6d0b076fca918" target="_top" target="_top" xlink:title="mappel::Gauss2DsModel\l::make_internal_1Dsum\l_estimator">
<polygon fill="white" stroke="black" points="338,-239.5 338,-277.5 458,-277.5 458,-239.5 338,-239.5"/>
<text text-anchor="start" x="346" y="-266.3" font-family="Helvetica,sans-Serif" font-size="9.00">mappel::Gauss2DsModel</text>
<text text-anchor="start" x="346" y="-256.3" font-family="Helvetica,sans-Serif" font-size="9.00">::make_internal_1Dsum</text>
<text text-anchor="middle" x="398" y="-246.3" font-family="Helvetica,sans-Serif" font-size="9.00">_estimator</text>
</a>
</g>
</g>
<!-- Node13&#45;&gt;Node14 -->
<g id="edge13" class="edge"><title>Node13&#45;&gt;Node14</title>
<path fill="none" stroke="midnightblue" d="M312.37,-257.465C320.929,-257.569 329.53,-257.675 337.797,-257.776"/>
<polygon fill="midnightblue" stroke="midnightblue" points="312.407,-253.965 302.365,-257.342 312.321,-260.965 312.407,-253.965"/>
</g>
<!-- Node15 -->
<g id="node15" class="node"><title>Node15</title>
<g id="a_node15"><a xlink:href="classmappel_1_1Gauss2DsModel.html#a2ce4737beb88367daeb480bf471ad2cf" target="_top" target="_top" xlink:title="mappel::Gauss2DsModel\l::debug_internal_sum\l_model_y">
<polygon fill="white" stroke="black" points="650,-245.5 650,-283.5 770,-283.5 770,-245.5 650,-245.5"/>
<text text-anchor="start" x="658" y="-272.3" font-family="Helvetica,sans-Serif" font-size="9.00">mappel::Gauss2DsModel</text>
<text text-anchor="start" x="658" y="-262.3" font-family="Helvetica,sans-Serif" font-size="9.00">::debug_internal_sum</text>
<text text-anchor="middle" x="710" y="-252.3" font-family="Helvetica,sans-Serif" font-size="9.00">_model_y</text>
</a>
</g>
</g>
<!-- Node14&#45;&gt;Node15 -->
<g id="edge14" class="edge"><title>Node14&#45;&gt;Node15</title>
<path fill="none" stroke="midnightblue" d="M467.826,-279.641C476.564,-281.642 485.442,-283.35 494,-284.5 546.858,-291.603 560.953,-290.023 614,-284.5 625.651,-283.287 637.978,-281.258 649.754,-278.947"/>
<polygon fill="midnightblue" stroke="midnightblue" points="468.586,-276.224 458.043,-277.272 466.938,-283.027 468.586,-276.224"/>
</g>
<!-- Node16 -->
<g id="node16" class="node"><title>Node16</title>
<g id="a_node16"><a xlink:href="classmappel_1_1Gauss2DsModel.html#ab884d4d8ab54ec53cf0116aa9a5b1d81" target="_top" target="_top" xlink:title="mappel::Gauss2DsModel\l::Gauss2DsModel">
<polygon fill="white" stroke="black" points="494,-246.5 494,-274.5 614,-274.5 614,-246.5 494,-246.5"/>
<text text-anchor="start" x="502" y="-263.3" font-family="Helvetica,sans-Serif" font-size="9.00">mappel::Gauss2DsModel</text>
<text text-anchor="middle" x="554" y="-253.3" font-family="Helvetica,sans-Serif" font-size="9.00">::Gauss2DsModel</text>
</a>
</g>
</g>
<!-- Node14&#45;&gt;Node16 -->
<g id="edge15" class="edge"><title>Node14&#45;&gt;Node16</title>
<path fill="none" stroke="midnightblue" d="M468.369,-259.401C476.862,-259.511 485.48,-259.623 493.804,-259.731"/>
<polygon fill="midnightblue" stroke="midnightblue" points="468.145,-255.898 458.1,-259.268 468.054,-262.897 468.145,-255.898"/>
</g>
<!-- Node17 -->
<g id="node17" class="node"><title>Node17</title>
<g id="a_node17"><a xlink:href="classmappel_1_1Gauss2DsModel.html#a6ce7054c0fcdb72394839a0abb2616cb" target="_top" target="_top" xlink:title="mappel::Gauss2DsModel\l::update_internal_1Dsum\l_estimators">
<polygon fill="white" stroke="black" points="494,-189.5 494,-227.5 614,-227.5 614,-189.5 494,-189.5"/>
<text text-anchor="start" x="502" y="-216.3" font-family="Helvetica,sans-Serif" font-size="9.00">mappel::Gauss2DsModel</text>
<text text-anchor="start" x="502" y="-206.3" font-family="Helvetica,sans-Serif" font-size="9.00">::update_internal_1Dsum</text>
<text text-anchor="middle" x="554" y="-196.3" font-family="Helvetica,sans-Serif" font-size="9.00">_estimators</text>
</a>
</g>
</g>
<!-- Node14&#45;&gt;Node17 -->
<g id="edge17" class="edge"><title>Node14&#45;&gt;Node17</title>
<path fill="none" stroke="midnightblue" d="M467.32,-236.318C476.302,-233.402 485.444,-230.434 494.248,-227.575"/>
<polygon fill="midnightblue" stroke="midnightblue" points="466.091,-233.037 457.66,-239.455 468.252,-239.695 466.091,-233.037"/>
</g>
<!-- Node16&#45;&gt;Node15 -->
<g id="edge16" class="edge"><title>Node16&#45;&gt;Node15</title>
<path fill="none" stroke="midnightblue" d="M624.369,-262.302C632.862,-262.522 641.48,-262.746 649.804,-262.962"/>
<polygon fill="midnightblue" stroke="midnightblue" points="624.188,-258.796 614.1,-262.035 624.006,-265.794 624.188,-258.796"/>
</g>
<!-- Node17&#45;&gt;Node15 -->
<g id="edge18" class="edge"><title>Node17&#45;&gt;Node15</title>
<path fill="none" stroke="midnightblue" d="M617.013,-231.05C630.164,-235.832 643.921,-240.835 656.67,-245.471"/>
<polygon fill="midnightblue" stroke="midnightblue" points="618.161,-227.744 607.567,-227.615 615.769,-234.322 618.161,-227.744"/>
</g>
<!-- Node18 -->
<g id="node18" class="node"><title>Node18</title>
<g id="a_node18"><a xlink:href="classmappel_1_1Gauss2DsModel.html#a615788e50f97d8c863ec60a5dfee07e3" target="_top" target="_top" xlink:title="mappel::Gauss2DsModel\l::set_hyperparams">
<polygon fill="white" stroke="black" points="650,-198.5 650,-226.5 770,-226.5 770,-198.5 650,-198.5"/>
<text text-anchor="start" x="658" y="-215.3" font-family="Helvetica,sans-Serif" font-size="9.00">mappel::Gauss2DsModel</text>
<text text-anchor="middle" x="710" y="-205.3" font-family="Helvetica,sans-Serif" font-size="9.00">::set_hyperparams</text>
</a>
</g>
</g>
<!-- Node17&#45;&gt;Node18 -->
<g id="edge19" class="edge"><title>Node17&#45;&gt;Node18</title>
<path fill="none" stroke="midnightblue" d="M624.369,-210.302C632.862,-210.522 641.48,-210.746 649.804,-210.962"/>
<polygon fill="midnightblue" stroke="midnightblue" points="624.188,-206.796 614.1,-210.035 624.006,-213.794 624.188,-206.796"/>
</g>
<!-- Node19 -->
<g id="node19" class="node"><title>Node19</title>
<g id="a_node19"><a xlink:href="classmappel_1_1Gauss2DsModel.html#a895bee95db23557189b58f9b1d5e2453" target="_top" target="_top" xlink:title="mappel::Gauss2DsModel\l::set_prior">
<polygon fill="white" stroke="black" points="650,-151.5 650,-179.5 770,-179.5 770,-151.5 650,-151.5"/>
<text text-anchor="start" x="658" y="-168.3" font-family="Helvetica,sans-Serif" font-size="9.00">mappel::Gauss2DsModel</text>
<text text-anchor="middle" x="710" y="-158.3" font-family="Helvetica,sans-Serif" font-size="9.00">::set_prior</text>
</a>
</g>
</g>
<!-- Node17&#45;&gt;Node19 -->
<g id="edge20" class="edge"><title>Node17&#45;&gt;Node19</title>
<path fill="none" stroke="midnightblue" d="M623.894,-189.263C635.655,-185.979 647.671,-182.624 658.828,-179.509"/>
<polygon fill="midnightblue" stroke="midnightblue" points="622.79,-185.938 614.1,-191.998 624.673,-192.68 622.79,-185.938"/>
</g>
<!-- Node21 -->
<g id="node21" class="node"><title>Node21</title>
<g id="a_node21"><a xlink:href="classmappel_1_1Gauss2DModel.html#a0981f99341c0f6f63554680ce165df66" target="_top" target="_top" xlink:title="mappel::Gauss2DModel\l::make_internal_1Dsum\l_estimator">
<polygon fill="white" stroke="black" points="340,-115.5 340,-153.5 456,-153.5 456,-115.5 340,-115.5"/>
<text text-anchor="start" x="348" y="-142.3" font-family="Helvetica,sans-Serif" font-size="9.00">mappel::Gauss2DModel</text>
<text text-anchor="start" x="348" y="-132.3" font-family="Helvetica,sans-Serif" font-size="9.00">::make_internal_1Dsum</text>
<text text-anchor="middle" x="398" y="-122.3" font-family="Helvetica,sans-Serif" font-size="9.00">_estimator</text>
</a>
</g>
</g>
<!-- Node20&#45;&gt;Node21 -->
<g id="edge22" class="edge"><title>Node20&#45;&gt;Node21</title>
<path fill="none" stroke="midnightblue" d="M286.507,-191.857C291.785,-189.824 297.027,-187.69 302,-185.5 323.243,-176.144 346.196,-163.887 364.218,-153.733"/>
<polygon fill="midnightblue" stroke="midnightblue" points="285.16,-188.624 277.016,-195.4 287.608,-195.182 285.16,-188.624"/>
</g>
<!-- Node22 -->
<g id="node22" class="node"><title>Node22</title>
<g id="a_node22"><a xlink:href="classmappel_1_1Gauss2DModel.html#a07e9c13f8a164f26f337fcc0c2f70374" target="_top" target="_top" xlink:title="mappel::Gauss2DModel\l::debug_internal_sum\l_model_y">
<polygon fill="white" stroke="black" points="652,-94.5 652,-132.5 768,-132.5 768,-94.5 652,-94.5"/>
<text text-anchor="start" x="660" y="-121.3" font-family="Helvetica,sans-Serif" font-size="9.00">mappel::Gauss2DModel</text>
<text text-anchor="start" x="660" y="-111.3" font-family="Helvetica,sans-Serif" font-size="9.00">::debug_internal_sum</text>
<text text-anchor="middle" x="710" y="-101.3" font-family="Helvetica,sans-Serif" font-size="9.00">_model_y</text>
</a>
</g>
</g>
<!-- Node21&#45;&gt;Node22 -->
<g id="edge23" class="edge"><title>Node21&#45;&gt;Node22</title>
<path fill="none" stroke="midnightblue" d="M466.478,-139.536C508.961,-141.618 564.863,-142.363 614,-136.5 626.385,-135.022 639.489,-132.497 651.879,-129.648"/>
<polygon fill="midnightblue" stroke="midnightblue" points="466.425,-136.028 456.254,-138.996 466.056,-143.018 466.425,-136.028"/>
</g>
<!-- Node23 -->
<g id="node23" class="node"><title>Node23</title>
<g id="a_node23"><a xlink:href="classmappel_1_1Gauss2DModel.html#aa2247488bb3d360e323b9819ccef3429" target="_top" target="_top" xlink:title="mappel::Gauss2DModel\l::Gauss2DModel">
<polygon fill="white" stroke="black" points="496,-99.5 496,-127.5 612,-127.5 612,-99.5 496,-99.5"/>
<text text-anchor="start" x="504" y="-116.3" font-family="Helvetica,sans-Serif" font-size="9.00">mappel::Gauss2DModel</text>
<text text-anchor="middle" x="554" y="-106.3" font-family="Helvetica,sans-Serif" font-size="9.00">::Gauss2DModel</text>
</a>
</g>
</g>
<!-- Node21&#45;&gt;Node23 -->
<g id="edge24" class="edge"><title>Node21&#45;&gt;Node23</title>
<path fill="none" stroke="midnightblue" d="M466.462,-125.301C476.27,-123.963 486.287,-122.597 495.865,-121.291"/>
<polygon fill="midnightblue" stroke="midnightblue" points="465.779,-121.861 456.344,-126.68 466.725,-128.797 465.779,-121.861"/>
</g>
<!-- Node24 -->
<g id="node24" class="node"><title>Node24</title>
<g id="a_node24"><a xlink:href="classmappel_1_1Gauss2DModel.html#a221f765c48f478177f150c08733e9d29" target="_top" target="_top" xlink:title="mappel::Gauss2DModel\l::update_internal_1Dsum\l_estimators">
<polygon fill="white" stroke="black" points="494,-42.5 494,-80.5 614,-80.5 614,-42.5 494,-42.5"/>
<text text-anchor="start" x="502" y="-69.3" font-family="Helvetica,sans-Serif" font-size="9.00">mappel::Gauss2DModel</text>
<text text-anchor="start" x="502" y="-59.3" font-family="Helvetica,sans-Serif" font-size="9.00">::update_internal_1Dsum</text>
<text text-anchor="middle" x="554" y="-49.3" font-family="Helvetica,sans-Serif" font-size="9.00">_estimators</text>
</a>
</g>
</g>
<!-- Node21&#45;&gt;Node24 -->
<g id="edge26" class="edge"><title>Node21&#45;&gt;Node24</title>
<path fill="none" stroke="midnightblue" d="M448.745,-110.92C469.469,-101.096 493.217,-89.8385 512.809,-80.5518"/>
<polygon fill="midnightblue" stroke="midnightblue" points="446.999,-107.874 439.462,-115.32 449.997,-114.199 446.999,-107.874"/>
</g>
<!-- Node23&#45;&gt;Node22 -->
<g id="edge25" class="edge"><title>Node23&#45;&gt;Node22</title>
<path fill="none" stroke="midnightblue" d="M622.462,-113.5C632.27,-113.5 642.287,-113.5 651.865,-113.5"/>
<polygon fill="midnightblue" stroke="midnightblue" points="622.344,-110 612.344,-113.5 622.344,-117 622.344,-110"/>
</g>
<!-- Node24&#45;&gt;Node22 -->
<g id="edge27" class="edge"><title>Node24&#45;&gt;Node22</title>
<path fill="none" stroke="midnightblue" d="M621.01,-83.789C631.508,-87.3339 642.285,-90.9728 652.537,-94.4347"/>
<polygon fill="midnightblue" stroke="midnightblue" points="622.064,-80.4508 611.469,-80.5676 619.824,-87.0829 622.064,-80.4508"/>
</g>
<!-- Node25 -->
<g id="node25" class="node"><title>Node25</title>
<g id="a_node25"><a xlink:href="classmappel_1_1Gauss2DModel.html#a7041d1f38f1141773b046489ce6e6b11" target="_top" target="_top" xlink:title="mappel::Gauss2DModel\l::set_hyperparams">
<polygon fill="white" stroke="black" points="652,-47.5 652,-75.5 768,-75.5 768,-47.5 652,-47.5"/>
<text text-anchor="start" x="660" y="-64.3" font-family="Helvetica,sans-Serif" font-size="9.00">mappel::Gauss2DModel</text>
<text text-anchor="middle" x="710" y="-54.3" font-family="Helvetica,sans-Serif" font-size="9.00">::set_hyperparams</text>
</a>
</g>
</g>
<!-- Node24&#45;&gt;Node25 -->
<g id="edge28" class="edge"><title>Node24&#45;&gt;Node25</title>
<path fill="none" stroke="midnightblue" d="M624.377,-61.5C633.56,-61.5 642.888,-61.5 651.834,-61.5"/>
<polygon fill="midnightblue" stroke="midnightblue" points="624.1,-58.0001 614.1,-61.5 624.1,-65.0001 624.1,-58.0001"/>
</g>
<!-- Node26 -->
<g id="node26" class="node"><title>Node26</title>
<g id="a_node26"><a xlink:href="classmappel_1_1Gauss2DModel.html#a41a5b18b3f3779562c0dbd19e1b6e29b" target="_top" target="_top" xlink:title="mappel::Gauss2DModel\l::set_prior">
<polygon fill="white" stroke="black" points="652,-0.5 652,-28.5 768,-28.5 768,-0.5 652,-0.5"/>
<text text-anchor="start" x="660" y="-17.3" font-family="Helvetica,sans-Serif" font-size="9.00">mappel::Gauss2DModel</text>
<text text-anchor="middle" x="710" y="-7.3" font-family="Helvetica,sans-Serif" font-size="9.00">::set_prior</text>
</a>
</g>
</g>
<!-- Node24&#45;&gt;Node26 -->
<g id="edge29" class="edge"><title>Node24&#45;&gt;Node26</title>
<path fill="none" stroke="midnightblue" d="M624.032,-40.4317C637.133,-36.4333 650.546,-32.34 662.73,-28.6215"/>
<polygon fill="midnightblue" stroke="midnightblue" points="622.643,-37.1963 614.1,-43.463 624.686,-43.8915 622.643,-37.1963"/>
</g>
</g>
</svg>
        <g id="navigator" transform="translate(0 0)" fill="#404254">
                <rect fill="#f2f5e9" fill-opacity="0.5" stroke="#606060" stroke-width=".5" x="0" y="0" width="60" height="60"/>
                <use id="zoomplus" xlink:href="#zoomPlus" target="_top" x="17" y="9" onmousedown="handleZoom(evt,'in')"/>
                <use id="zoomminus" xlink:href="#zoomMin" target="_top" x="42" y="9" onmousedown="handleZoom(evt,'out')"/>
                <use id="reset" xlink:href="#resetDef" target="_top" x="30" y="36" onmousedown="handleReset()"/>
                <g id="arrowUp" xlink:href="#dirArrow" target="_top" transform="translate(30 24)" onmousedown="handlePan(0,-1)">
                  <use xlink:href="#rim" target="_top" fill="#404040">
                        <set attributeName="fill" to="#808080" begin="arrowUp.mouseover" end="arrowUp.mouseout"/>
                  </use>
                  <path fill="none" stroke="white" stroke-width="1.5" d="M0,-3.0v7 M-2.5,-0.5L0,-3.0L2.5,-0.5"/>
                </g>
                <g id="arrowRight" xlink:href="#dirArrow" target="_top" transform="rotate(90) translate(36 -43)" onmousedown="handlePan(1,0)">
                  <use xlink:href="#rim" target="_top" fill="#404040">
                        <set attributeName="fill" to="#808080" begin="arrowRight.mouseover" end="arrowRight.mouseout"/>
                  </use>
                  <path fill="none" stroke="white" stroke-width="1.5" d="M0,-3.0v7 M-2.5,-0.5L0,-3.0L2.5,-0.5"/>
                </g>
                <g id="arrowDown" xlink:href="#dirArrow" target="_top" transform="rotate(180) translate(-30 -48)" onmousedown="handlePan(0,1)">
                  <use xlink:href="#rim" target="_top" fill="#404040">
                        <set attributeName="fill" to="#808080" begin="arrowDown.mouseover" end="arrowDown.mouseout"/>
                  </use>
                  <path fill="none" stroke="white" stroke-width="1.5" d="M0,-3.0v7 M-2.5,-0.5L0,-3.0L2.5,-0.5"/>
                </g>
                <g id="arrowLeft" xlink:href="#dirArrow" target="_top" transform="rotate(270) translate(-36 17)" onmousedown="handlePan(-1,0)">
                  <use xlink:href="#rim" target="_top" fill="#404040">
                        <set attributeName="fill" to="#808080" begin="arrowLeft.mouseover" end="arrowLeft.mouseout"/>
                  </use>
                  <path fill="none" stroke="white" stroke-width="1.5" d="M0,-3.0v7 M-2.5,-0.5L0,-3.0L2.5,-0.5"/>
                </g>
        </g>
        <svg viewBox="0 0 15 15" width="100%" height="30px" preserveAspectRatio="xMaxYMin meet">
         <g id="arrow_out" transform="scale(0.3 0.3)">
          <a xlink:href="classmappel_1_1PointEmitterModel_ab99350cf74097c558f7a93b79e7a44c3_icgraph_org.svg" target="_top" target="_base">
           <rect id="button" ry="5" rx="5" y="6" x="6" height="38" width="38"
                fill="#f2f5e9" fill-opacity="0.5" stroke="#606060" stroke-width="1.0"/>
           <path id="arrow"
             d="M 11.500037,31.436501 C 11.940474,20.09759 22.043105,11.32322 32.158766,21.979434 L 37.068811,17.246167 C 37.068811,17.246167 37.088388,32 37.088388,32 L 22.160133,31.978069 C 22.160133,31.978069 26.997745,27.140456 26.997745,27.140456 C 18.528582,18.264221 13.291696,25.230495 11.500037,31.436501 z"
             style="fill:#404040;"/>
          </a>
         </g>
        </svg>
</svg>
