<?xml version="1.0" encoding="UTF-8" standalone="no"?>
<!DOCTYPE svg PUBLIC "-//W3C//DTD SVG 1.1//EN"
 "http://www.w3.org/Graphics/SVG/1.1/DTD/svg11.dtd">
<!-- Generated by graphviz version 2.38.0 (20140413.2041)
 -->
<!-- Title: mappel::IterativeMaximizer::MaximizerData::theta Pages: 1 -->
<!--zoomable 222 -->
<svg id="main" version="1.1" xmlns="http://www.w3.org/2000/svg" xmlns:xlink="http://www.w3.org/1999/xlink" xml:space="preserve" onload="init(evt)">
<style type="text/css"><![CDATA[
.edge:hover path { stroke: red; }
.edge:hover polygon { stroke: red; fill: red; }
]]></style>
<script type="text/javascript"><![CDATA[
var edges = document.getElementsByTagName('g');
if (edges && edges.length) {
  for (var i=0;i<edges.length;i++) {
    if (edges[i].id.substr(0,4)=='edge') {
      edges[i].setAttribute('class','edge');
    }
  }
}
]]></script>
        <defs>
                <circle id="rim" cx="0" cy="0" r="7"/>
                <circle id="rim2" cx="0" cy="0" r="3.5"/>
                <g id="zoomPlus">
                        <use xlink:href="#rim" fill="#404040">
                                <set attributeName="fill" to="#808080" begin="zoomplus.mouseover" end="zoomplus.mouseout"/>
                        </use>
                        <path d="M-4,0h8M0,-4v8" fill="none" stroke="white" stroke-width="1.5" pointer-events="none"/>
                </g>
                <g id="zoomMin">
                        <use xlink:href="#rim" fill="#404040">
                                <set attributeName="fill" to="#808080" begin="zoomminus.mouseover" end="zoomminus.mouseout"/>
                        </use>
                        <path d="M-4,0h8" fill="none" stroke="white" stroke-width="1.5" pointer-events="none"/>
                </g>
                <g id="dirArrow">
                        <path fill="none" stroke="white" stroke-width="1.5" d="M0,-3.0v7 M-2.5,-0.5L0,-3.0L2.5,-0.5"/>
                </g>
               <g id="resetDef">
                       <use xlink:href="#rim2" fill="#404040">
                               <set attributeName="fill" to="#808080" begin="reset.mouseover" end="reset.mouseout"/>
                       </use>
               </g>
        </defs>

<script type="text/javascript">
var viewWidth = 675;
var viewHeight = 222;
var sectionId = 'dynsection-15';
</script>
<script xlink:href="svgpan.js"/>
<svg id="graph" class="graph">
<g id="viewport">
<title>mappel::IterativeMaximizer::MaximizerData::theta</title>
<polygon fill="white" stroke="none" points="-4,4 -4,-218 671,-218 671,4 -4,4"/>
<!-- Node1 -->
<g id="node1" class="node"><title>Node1</title>
<polygon fill="#bfbfbf" stroke="black" points="0,-114.5 0,-142.5 126,-142.5 126,-114.5 0,-114.5"/>
<text text-anchor="start" x="8" y="-131.3" font-family="Helvetica,sans-Serif" font-size="9.00">mappel::IterativeMaximizer</text>
<text text-anchor="middle" x="63" y="-121.3" font-family="Helvetica,sans-Serif" font-size="9.00">::MaximizerData::theta</text>
</g>
<!-- Node2 -->
<g id="node2" class="node"><title>Node2</title>
<g id="a_node2"><a xlink:href="classmappel_1_1TrustRegionMaximizer.html#a1cca1ab81fd83ca9ea4c524ecfe383a0" target="_top" xlink:title="The vector used for bound constrained TR scaling. ">
<polygon fill="white" stroke="black" points="162,-185.5 162,-213.5 306,-213.5 306,-185.5 162,-185.5"/>
<text text-anchor="start" x="170" y="-202.3" font-family="Helvetica,sans-Serif" font-size="9.00">mappel::TrustRegionMaximizer</text>
<text text-anchor="middle" x="234" y="-192.3" font-family="Helvetica,sans-Serif" font-size="9.00">::compute_bound_scaling_vec</text>
</a>
</g>
</g>
<!-- Node1&#45;&gt;Node2 -->
<g id="edge1" class="edge"><title>Node1&#45;&gt;Node2</title>
<path fill="none" stroke="midnightblue" d="M99.0691,-147.185C117.512,-156.623 140.665,-167.871 162,-176.5 169.808,-179.658 178.228,-182.695 186.446,-185.469"/>
<polygon fill="midnightblue" stroke="midnightblue" points="100.647,-144.06 90.1564,-142.577 97.4324,-150.278 100.647,-144.06"/>
</g>
<!-- Node3 -->
<g id="node3" class="node"><title>Node3</title>
<g id="a_node3"><a xlink:href="classmappel_1_1IterativeMaximizer.html#ad83f7b0a5b4d412f419b6089e73a66e0" target="_top" xlink:title="mappel::IterativeMaximizer\l::compute_estimate">
<polygon fill="white" stroke="black" points="171,-138.5 171,-166.5 297,-166.5 297,-138.5 171,-138.5"/>
<text text-anchor="start" x="179" y="-155.3" font-family="Helvetica,sans-Serif" font-size="9.00">mappel::IterativeMaximizer</text>
<text text-anchor="middle" x="234" y="-145.3" font-family="Helvetica,sans-Serif" font-size="9.00">::compute_estimate</text>
</a>
</g>
</g>
<!-- Node1&#45;&gt;Node3 -->
<g id="edge2" class="edge"><title>Node1&#45;&gt;Node3</title>
<path fill="none" stroke="midnightblue" d="M136.412,-138.783C147.863,-140.41 159.617,-142.079 170.807,-143.668"/>
<polygon fill="midnightblue" stroke="midnightblue" points="136.842,-135.309 126.449,-137.369 135.858,-142.24 136.842,-135.309"/>
</g>
<!-- Node4 -->
<g id="node4" class="node"><title>Node4</title>
<g id="a_node4"><a xlink:href="classmappel_1_1IterativeMaximizer.html#a1999fd1fa63c803b3aad87695fc82843" target="_top" xlink:title="mappel::IterativeMaximizer\l::compute_profile_estimate">
<polygon fill="white" stroke="black" points="170.5,-91.5 170.5,-119.5 297.5,-119.5 297.5,-91.5 170.5,-91.5"/>
<text text-anchor="start" x="178.5" y="-108.3" font-family="Helvetica,sans-Serif" font-size="9.00">mappel::IterativeMaximizer</text>
<text text-anchor="middle" x="234" y="-98.3" font-family="Helvetica,sans-Serif" font-size="9.00">::compute_profile_estimate</text>
</a>
</g>
</g>
<!-- Node1&#45;&gt;Node4 -->
<g id="edge3" class="edge"><title>Node1&#45;&gt;Node4</title>
<path fill="none" stroke="midnightblue" d="M136.624,-118.616C147.816,-117.093 159.291,-115.531 170.243,-114.041"/>
<polygon fill="midnightblue" stroke="midnightblue" points="135.886,-115.184 126.449,-120.001 136.83,-122.12 135.886,-115.184"/>
</g>
<!-- Node5 -->
<g id="node5" class="node"><title>Node5</title>
<g id="a_node5"><a xlink:href="classmappel_1_1IterativeMaximizer.html#aef9b61d66d785a1a06dd2c75c3166435" target="_top" xlink:title="mappel::IterativeMaximizer\l::convergence_test">
<polygon fill="white" stroke="black" points="171,-44.5 171,-72.5 297,-72.5 297,-44.5 171,-44.5"/>
<text text-anchor="start" x="179" y="-61.3" font-family="Helvetica,sans-Serif" font-size="9.00">mappel::IterativeMaximizer</text>
<text text-anchor="middle" x="234" y="-51.3" font-family="Helvetica,sans-Serif" font-size="9.00">::convergence_test</text>
</a>
</g>
</g>
<!-- Node1&#45;&gt;Node5 -->
<g id="edge4" class="edge"><title>Node1&#45;&gt;Node5</title>
<path fill="none" stroke="midnightblue" d="M101.017,-109.916C119.179,-101.11 141.508,-90.742 162,-82.5 170.571,-79.0527 179.849,-75.6714 188.783,-72.5848"/>
<polygon fill="midnightblue" stroke="midnightblue" points="99.3776,-106.822 91.9317,-114.359 102.453,-113.11 99.3776,-106.822"/>
</g>
<!-- Node6 -->
<g id="node6" class="node"><title>Node6</title>
<g id="a_node6"><a xlink:href="classmappel_1_1IterativeMaximizer.html#ac033d2b23a6a861e6d7adbe35f17624e" target="_top" xlink:title="mappel::IterativeMaximizer\l::backtrack">
<polygon fill="white" stroke="black" points="342,-66.5 342,-94.5 468,-94.5 468,-66.5 342,-66.5"/>
<text text-anchor="start" x="350" y="-83.3" font-family="Helvetica,sans-Serif" font-size="9.00">mappel::IterativeMaximizer</text>
<text text-anchor="middle" x="405" y="-73.3" font-family="Helvetica,sans-Serif" font-size="9.00">::backtrack</text>
</a>
</g>
</g>
<!-- Node5&#45;&gt;Node6 -->
<g id="edge5" class="edge"><title>Node5&#45;&gt;Node6</title>
<path fill="none" stroke="midnightblue" d="M307.412,-67.9265C318.863,-69.4171 330.617,-70.9471 341.807,-72.4039"/>
<polygon fill="midnightblue" stroke="midnightblue" points="307.817,-64.4497 297.449,-66.6295 306.914,-71.3912 307.817,-64.4497"/>
</g>
<!-- Node7 -->
<g id="node7" class="node"><title>Node7</title>
<g id="a_node7"><a xlink:href="classmappel_1_1NewtonDiagonalMaximizer.html#ac445064041b5c7f3c147c08a0065cd68" target="_top" xlink:title="mappel::NewtonDiagonalMaximizer\l::maximize">
<polygon fill="white" stroke="black" points="504,-105.5 504,-133.5 667,-133.5 667,-105.5 504,-105.5"/>
<text text-anchor="start" x="512" y="-122.3" font-family="Helvetica,sans-Serif" font-size="9.00">mappel::NewtonDiagonalMaximizer</text>
<text text-anchor="middle" x="585.5" y="-112.3" font-family="Helvetica,sans-Serif" font-size="9.00">::maximize</text>
</a>
</g>
</g>
<!-- Node5&#45;&gt;Node7 -->
<g id="edge9" class="edge"><title>Node5&#45;&gt;Node7</title>
<path fill="none" stroke="midnightblue" d="M290.514,-76.0474C295.804,-78.0829 301.041,-80.2434 306,-82.5 322.86,-90.1716 324.288,-98.0795 342,-103.5 394.348,-119.52 455.926,-123.411 503.931,-123.353"/>
<polygon fill="midnightblue" stroke="midnightblue" points="291.574,-72.708 280.981,-72.5248 289.148,-79.2741 291.574,-72.708"/>
</g>
<!-- Node8 -->
<g id="node8" class="node"><title>Node8</title>
<g id="a_node8"><a xlink:href="classmappel_1_1NewtonMaximizer.html#aca7e3071f17ef6f381878eb6151c86d7" target="_top" xlink:title="mappel::NewtonMaximizer\l::maximize">
<polygon fill="white" stroke="black" points="523,-54.5 523,-82.5 648,-82.5 648,-54.5 523,-54.5"/>
<text text-anchor="start" x="531" y="-71.3" font-family="Helvetica,sans-Serif" font-size="9.00">mappel::NewtonMaximizer</text>
<text text-anchor="middle" x="585.5" y="-61.3" font-family="Helvetica,sans-Serif" font-size="9.00">::maximize</text>
</a>
</g>
</g>
<!-- Node5&#45;&gt;Node8 -->
<g id="edge10" class="edge"><title>Node5&#45;&gt;Node8</title>
<path fill="none" stroke="midnightblue" d="M307.33,-56.9644C318.924,-56.7712 330.792,-56.6047 342,-56.5 397.998,-55.9767 412.074,-53.6273 468,-56.5 485.869,-57.4179 505.219,-59.1227 522.921,-60.9649"/>
<polygon fill="midnightblue" stroke="midnightblue" points="307.173,-53.4665 297.235,-57.1403 307.295,-60.4655 307.173,-53.4665"/>
</g>
<!-- Node9 -->
<g id="node9" class="node"><title>Node9</title>
<g id="a_node9"><a xlink:href="classmappel_1_1QuasiNewtonMaximizer.html#ab4d32d8ba90d4355262a228753619b9f" target="_top" xlink:title="mappel::QuasiNewtonMaximizer\l::maximize">
<polygon fill="white" stroke="black" points="511,-0.5 511,-28.5 660,-28.5 660,-0.5 511,-0.5"/>
<text text-anchor="start" x="519" y="-17.3" font-family="Helvetica,sans-Serif" font-size="9.00">mappel::QuasiNewtonMaximizer</text>
<text text-anchor="middle" x="585.5" y="-7.3" font-family="Helvetica,sans-Serif" font-size="9.00">::maximize</text>
</a>
</g>
</g>
<!-- Node5&#45;&gt;Node9 -->
<g id="edge11" class="edge"><title>Node5&#45;&gt;Node9</title>
<path fill="none" stroke="midnightblue" d="M307.162,-49.4152C366.731,-41.9159 450.92,-31.3169 510.885,-23.7677"/>
<polygon fill="midnightblue" stroke="midnightblue" points="306.565,-45.9626 297.081,-50.6844 307.44,-52.9078 306.565,-45.9626"/>
</g>
<!-- Node6&#45;&gt;Node7 -->
<g id="edge6" class="edge"><title>Node6&#45;&gt;Node7</title>
<path fill="none" stroke="midnightblue" d="M478.167,-96.2676C492.049,-99.3007 506.504,-102.459 520.12,-105.434"/>
<polygon fill="midnightblue" stroke="midnightblue" points="478.697,-92.8008 468.18,-94.0856 477.202,-99.6395 478.697,-92.8008"/>
</g>
<!-- Node6&#45;&gt;Node8 -->
<g id="edge7" class="edge"><title>Node6&#45;&gt;Node8</title>
<path fill="none" stroke="midnightblue" d="M478.286,-75.6405C493.062,-74.6471 508.481,-73.6105 522.844,-72.6449"/>
<polygon fill="midnightblue" stroke="midnightblue" points="477.923,-72.1569 468.18,-76.3198 478.392,-79.1411 477.923,-72.1569"/>
</g>
<!-- Node6&#45;&gt;Node9 -->
<g id="edge8" class="edge"><title>Node6&#45;&gt;Node9</title>
<path fill="none" stroke="midnightblue" d="M453.838,-62.8119C482.91,-52.0627 519.513,-38.5287 546.577,-28.5218"/>
<polygon fill="midnightblue" stroke="midnightblue" points="452.458,-59.5905 444.293,-66.3413 454.886,-66.1561 452.458,-59.5905"/>
</g>
</g>
</svg>
        <g id="navigator" transform="translate(0 0)" fill="#404254">
                <rect fill="#f2f5e9" fill-opacity="0.5" stroke="#606060" stroke-width=".5" x="0" y="0" width="60" height="60"/>
                <use id="zoomplus" xlink:href="#zoomPlus" x="17" y="9" onmousedown="handleZoom(evt,'in')"/>
                <use id="zoomminus" xlink:href="#zoomMin" x="42" y="9" onmousedown="handleZoom(evt,'out')"/>
                <use id="reset" xlink:href="#resetDef" x="30" y="36" onmousedown="handleReset()"/>
                <g id="arrowUp" xlink:href="#dirArrow" transform="translate(30 24)" onmousedown="handlePan(0,-1)">
                  <use xlink:href="#rim" fill="#404040">
                        <set attributeName="fill" to="#808080" begin="arrowUp.mouseover" end="arrowUp.mouseout"/>
                  </use>
                  <path fill="none" stroke="white" stroke-width="1.5" d="M0,-3.0v7 M-2.5,-0.5L0,-3.0L2.5,-0.5"/>
                </g>
                <g id="arrowRight" xlink:href="#dirArrow" transform="rotate(90) translate(36 -43)" onmousedown="handlePan(1,0)">
                  <use xlink:href="#rim" fill="#404040">
                        <set attributeName="fill" to="#808080" begin="arrowRight.mouseover" end="arrowRight.mouseout"/>
                  </use>
                  <path fill="none" stroke="white" stroke-width="1.5" d="M0,-3.0v7 M-2.5,-0.5L0,-3.0L2.5,-0.5"/>
                </g>
                <g id="arrowDown" xlink:href="#dirArrow" transform="rotate(180) translate(-30 -48)" onmousedown="handlePan(0,1)">
                  <use xlink:href="#rim" fill="#404040">
                        <set attributeName="fill" to="#808080" begin="arrowDown.mouseover" end="arrowDown.mouseout"/>
                  </use>
                  <path fill="none" stroke="white" stroke-width="1.5" d="M0,-3.0v7 M-2.5,-0.5L0,-3.0L2.5,-0.5"/>
                </g>
                <g id="arrowLeft" xlink:href="#dirArrow" transform="rotate(270) translate(-36 17)" onmousedown="handlePan(-1,0)">
                  <use xlink:href="#rim" fill="#404040">
                        <set attributeName="fill" to="#808080" begin="arrowLeft.mouseover" end="arrowLeft.mouseout"/>
                  </use>
                  <path fill="none" stroke="white" stroke-width="1.5" d="M0,-3.0v7 M-2.5,-0.5L0,-3.0L2.5,-0.5"/>
                </g>
        </g>
        <svg viewBox="0 0 15 15" width="100%" height="30px" preserveAspectRatio="xMaxYMin meet">
         <g id="arrow_out" transform="scale(0.3 0.3)">
          <a xlink:href="classmappel_1_1IterativeMaximizer_1_1MaximizerData_ac6ed5231a1ac2f4bfdd51a2800212fea_icgraph_org.svg" target="_base">
           <rect id="button" ry="5" rx="5" y="6" x="6" height="38" width="38"
                fill="#f2f5e9" fill-opacity="0.5" stroke="#606060" stroke-width="1.0"/>
           <path id="arrow"
             d="M 11.500037,31.436501 C 11.940474,20.09759 22.043105,11.32322 32.158766,21.979434 L 37.068811,17.246167 C 37.068811,17.246167 37.088388,32 37.088388,32 L 22.160133,31.978069 C 22.160133,31.978069 26.997745,27.140456 26.997745,27.140456 C 18.528582,18.264221 13.291696,25.230495 11.500037,31.436501 z"
             style="fill:#404040;"/>
          </a>
         </g>
        </svg>
</svg>
