<?xml version="1.0" encoding="UTF-8" standalone="no"?>
<!DOCTYPE svg PUBLIC "-//W3C//DTD SVG 1.1//EN"
 "http://www.w3.org/Graphics/SVG/1.1/DTD/svg11.dtd">
<!-- Generated by graphviz version 2.38.0 (20140413.2041)
 -->
<!-- Title: mappel::Gauss2DModel Pages: 1 -->
<svg width="1547pt" height="438pt"
 viewBox="0.00 0.00 1547.00 437.50" xmlns="http://www.w3.org/2000/svg" xmlns:xlink="http://www.w3.org/1999/xlink">
<g id="graph0" class="graph" transform="scale(1 1) rotate(0) translate(4 433.5)">
<title>mappel::Gauss2DModel</title>
<polygon fill="white" stroke="none" points="-4,4 -4,-433.5 1543,-433.5 1543,4 -4,4"/>
<!-- Node1 -->
<g id="node1" class="node"><title>Node1</title>
<polygon fill="#bfbfbf" stroke="black" points="1423,-291 1423,-309 1539,-309 1539,-291 1423,-291"/>
<text text-anchor="middle" x="1481" y="-297.8" font-family="Helvetica,sans-Serif" font-size="9.00">mappel::Gauss2DModel</text>
</g>
<!-- Node2 -->
<g id="node2" class="node"><title>Node2</title>
<g id="a_node2"><a xlink:href="classmappel_1_1PointEmitterModel.html" target="_top" xlink:title="A virtual Base type for point emitter localization models. ">
<polygon fill="white" stroke="black" points="366.5,-310 366.5,-328 493.5,-328 493.5,-310 366.5,-310"/>
<text text-anchor="middle" x="430" y="-316.8" font-family="Helvetica,sans-Serif" font-size="9.00">mappel::PointEmitterModel</text>
</a>
</g>
</g>
<!-- Node2&#45;&gt;Node1 -->
<g id="edge1" class="edge"><title>Node2&#45;&gt;Node1</title>
<path fill="none" stroke="midnightblue" d="M456.465,-332.634C499.761,-354.505 591.054,-395 673.5,-395 673.5,-395 673.5,-395 1280.5,-395 1359.91,-395 1441.34,-332.887 1469.6,-309.109"/>
<polygon fill="midnightblue" stroke="midnightblue" points="457.984,-329.479 447.49,-328.017 454.781,-335.704 457.984,-329.479"/>
</g>
<!-- Node8 -->
<g id="node8" class="node"><title>Node8</title>
<g id="a_node8"><a xlink:href="classmappel_1_1MCMCAdaptor1D.html" target="_top" xlink:title="mappel::MCMCAdaptor1D">
<polygon fill="white" stroke="black" points="612,-348 612,-366 737,-366 737,-348 612,-348"/>
<text text-anchor="middle" x="674.5" y="-354.8" font-family="Helvetica,sans-Serif" font-size="9.00">mappel::MCMCAdaptor1D</text>
</a>
</g>
</g>
<!-- Node2&#45;&gt;Node8 -->
<g id="edge8" class="edge"><title>Node2&#45;&gt;Node8</title>
<path fill="none" stroke="midnightblue" d="M494.422,-329.673C501.364,-330.811 508.329,-331.939 515,-333 547.158,-338.114 583.029,-343.567 612.501,-347.98"/>
<polygon fill="midnightblue" stroke="midnightblue" points="494.74,-326.179 484.305,-328.007 493.603,-333.086 494.74,-326.179"/>
</g>
<!-- Node11 -->
<g id="node11" class="node"><title>Node11</title>
<g id="a_node11"><a xlink:href="classmappel_1_1Gauss1DModel.html" target="_top" xlink:title="A base class for 1D Gaussian PSF with a fixed sigma (standard dev.) ">
<polygon fill="white" stroke="black" points="911.5,-196 911.5,-214 1027.5,-214 1027.5,-196 911.5,-196"/>
<text text-anchor="middle" x="969.5" y="-202.8" font-family="Helvetica,sans-Serif" font-size="9.00">mappel::Gauss1DModel</text>
</a>
</g>
</g>
<!-- Node2&#45;&gt;Node11 -->
<g id="edge12" class="edge"><title>Node2&#45;&gt;Node11</title>
<path fill="none" stroke="midnightblue" d="M479.525,-307.695C543.95,-292.79 661.323,-266 762,-245 815.8,-233.778 877.713,-221.926 919.605,-214.063"/>
<polygon fill="midnightblue" stroke="midnightblue" points="478.603,-304.316 469.651,-309.982 480.183,-311.135 478.603,-304.316"/>
</g>
<!-- Node17 -->
<g id="node17" class="node"><title>Node17</title>
<g id="a_node17"><a xlink:href="classmappel_1_1MAPEstimator.html" target="_top" xlink:title="A Mixin class to configure a for MLE estimation (null prior). ">
<polygon fill="white" stroke="black" points="762,-310 762,-328 872,-328 872,-310 762,-310"/>
<text text-anchor="middle" x="817" y="-316.8" font-family="Helvetica,sans-Serif" font-size="9.00">mappel::MAPEstimator</text>
</a>
</g>
</g>
<!-- Node2&#45;&gt;Node17 -->
<g id="edge24" class="edge"><title>Node2&#45;&gt;Node17</title>
<path fill="none" stroke="midnightblue" d="M504.034,-319C579.126,-319 694.329,-319 761.718,-319"/>
<polygon fill="midnightblue" stroke="midnightblue" points="503.714,-315.5 493.714,-319 503.714,-322.5 503.714,-315.5"/>
</g>
<!-- Node3 -->
<g id="node3" class="node"><title>Node3</title>
<polygon fill="white" stroke="#bfbfbf" points="125,-310 125,-328 202,-328 202,-310 125,-310"/>
<text text-anchor="middle" x="163.5" y="-316.8" font-family="Helvetica,sans-Serif" font-size="9.00">CompositeDist</text>
</g>
<!-- Node3&#45;&gt;Node2 -->
<g id="edge2" class="edge"><title>Node3&#45;&gt;Node2</title>
<path fill="none" stroke="#9a32cd" stroke-dasharray="5,2" d="M212.337,-319C255.441,-319 319.098,-319 366.268,-319"/>
<polygon fill="#9a32cd" stroke="#9a32cd" points="212.116,-315.5 202.116,-319 212.115,-322.5 212.116,-315.5"/>
<text text-anchor="middle" x="282.5" y="-321.8" font-family="Helvetica,sans-Serif" font-size="9.00"> prior</text>
</g>
<!-- Node4 -->
<g id="node4" class="node"><title>Node4</title>
<g id="a_node4"><a xlink:title="STL class. ">
<polygon fill="white" stroke="#bfbfbf" points="135.5,-83 135.5,-101 191.5,-101 191.5,-83 135.5,-83"/>
<text text-anchor="middle" x="163.5" y="-89.8" font-family="Helvetica,sans-Serif" font-size="9.00">std::string</text>
</a>
</g>
</g>
<!-- Node4&#45;&gt;Node1 -->
<g id="edge26" class="edge"><title>Node4&#45;&gt;Node1</title>
<path fill="none" stroke="#9a32cd" stroke-dasharray="5,2" d="M181.347,-75.8325C191.736,-66.6989 205.761,-55.7859 220,-49 306.127,-7.95429 333.592,-0 429,-0 429,-0 429,-0 1280.5,-0 1423.74,-0 1470.35,-240.056 1478.59,-290.693"/>
<polygon fill="#9a32cd" stroke="#9a32cd" points="178.888,-73.3377 173.86,-82.6632 183.606,-78.5089 178.888,-73.3377"/>
<text text-anchor="middle" x="817" y="-2.8" font-family="Helvetica,sans-Serif" font-size="9.00"> DefaultPriorType</text>
</g>
<!-- Node4&#45;&gt;Node2 -->
<g id="edge3" class="edge"><title>Node4&#45;&gt;Node2</title>
<path fill="none" stroke="#9a32cd" stroke-dasharray="5,2" d="M175.364,-109.9C185.264,-124.783 201.186,-145.484 220,-158 268.454,-190.234 299.254,-161.025 345,-197 357.222,-206.612 354.461,-214.005 363,-227 383.403,-258.049 409.653,-293.397 421.997,-309.774"/>
<polygon fill="#9a32cd" stroke="#9a32cd" points="178.084,-107.657 169.758,-101.105 172.181,-111.419 178.084,-107.657"/>
<text text-anchor="middle" x="282.5" y="-199.8" font-family="Helvetica,sans-Serif" font-size="9.00"> DefaultSeperableInitEstimator</text>
</g>
<!-- Node10 -->
<g id="node10" class="node"><title>Node10</title>
<g id="a_node10"><a xlink:href="classmappel_1_1Gauss1DMAP.html" target="_top" xlink:title="A 1D Gaussian with fixed PSF under an Poisson Read Noise assumption and MAP Objective. ">
<polygon fill="white" stroke="black" points="1224.5,-196 1224.5,-214 1334.5,-214 1334.5,-196 1224.5,-196"/>
<text text-anchor="middle" x="1279.5" y="-202.8" font-family="Helvetica,sans-Serif" font-size="9.00">mappel::Gauss1DMAP</text>
</a>
</g>
</g>
<!-- Node4&#45;&gt;Node10 -->
<g id="edge25" class="edge"><title>Node4&#45;&gt;Node10</title>
<path fill="none" stroke="#9a32cd" stroke-dasharray="5,2" d="M201.51,-81.4122C252.337,-67.8289 346.804,-46 429,-46 429,-46 429,-46 970.5,-46 1102.29,-46 1234,-162.36 1269.32,-195.996"/>
<polygon fill="#9a32cd" stroke="#9a32cd" points="200.377,-78.0929 191.645,-84.0923 202.212,-84.8481 200.377,-78.0929"/>
<text text-anchor="middle" x="674.5" y="-48.8" font-family="Helvetica,sans-Serif" font-size="9.00"> name</text>
</g>
<!-- Node4&#45;&gt;Node11 -->
<g id="edge15" class="edge"><title>Node4&#45;&gt;Node11</title>
<path fill="none" stroke="#9a32cd" stroke-dasharray="5,2" d="M201.738,-101.348C207.817,-102.694 214.066,-103.969 220,-105 381.753,-133.102 424.261,-125.325 587,-147 703.379,-162.501 839.203,-183.96 913.311,-195.955"/>
<polygon fill="#9a32cd" stroke="#9a32cd" points="202.283,-97.8823 191.753,-99.0485 200.712,-104.704 202.283,-97.8823"/>
<text text-anchor="middle" x="551" y="-149.8" font-family="Helvetica,sans-Serif" font-size="9.00"> DefaultPriorType</text>
</g>
<!-- Node16 -->
<g id="node16" class="node"><title>Node16</title>
<polygon fill="white" stroke="#bfbfbf" points="618.5,-75 618.5,-93 730.5,-93 730.5,-75 618.5,-75"/>
<text text-anchor="middle" x="674.5" y="-81.8" font-family="Helvetica,sans-Serif" font-size="9.00">std::vector&lt; std::string &gt;</text>
</g>
<!-- Node4&#45;&gt;Node16 -->
<g id="edge21" class="edge"><title>Node4&#45;&gt;Node16</title>
<path fill="none" stroke="#9a32cd" stroke-dasharray="5,2" d="M201.604,-91.4168C290.035,-90.0269 513.613,-86.513 618.095,-84.8708"/>
<polygon fill="#9a32cd" stroke="#9a32cd" points="201.45,-87.9187 191.507,-91.5755 201.56,-94.9179 201.45,-87.9187"/>
<text text-anchor="middle" x="430" y="-91.8" font-family="Helvetica,sans-Serif" font-size="9.00"> elements</text>
</g>
<!-- Node5 -->
<g id="node5" class="node"><title>Node5</title>
<g id="a_node5"><a xlink:title="STL class. ">
<polygon fill="white" stroke="#bfbfbf" points="0,-78 0,-106 88,-106 88,-78 0,-78"/>
<text text-anchor="start" x="8" y="-94.8" font-family="Helvetica,sans-Serif" font-size="9.00">std::basic_string&lt;</text>
<text text-anchor="middle" x="44" y="-84.8" font-family="Helvetica,sans-Serif" font-size="9.00"> char &gt;</text>
</a>
</g>
</g>
<!-- Node5&#45;&gt;Node4 -->
<g id="edge4" class="edge"><title>Node5&#45;&gt;Node4</title>
<path fill="none" stroke="midnightblue" d="M98.287,-92C111.161,-92 124.389,-92 135.467,-92"/>
<polygon fill="midnightblue" stroke="midnightblue" points="98.0855,-88.5001 88.0855,-92 98.0854,-95.5001 98.0855,-88.5001"/>
</g>
<!-- Node6 -->
<g id="node6" class="node"><title>Node6</title>
<g id="a_node6"><a xlink:href="classmappel_1_1ImageFormat2DBase.html" target="_top" xlink:title="A virtual base class for 2D image localization objectives. ">
<polygon fill="white" stroke="black" points="1210,-310 1210,-328 1349,-328 1349,-310 1210,-310"/>
<text text-anchor="middle" x="1279.5" y="-316.8" font-family="Helvetica,sans-Serif" font-size="9.00">mappel::ImageFormat2DBase</text>
</a>
</g>
</g>
<!-- Node6&#45;&gt;Node1 -->
<g id="edge5" class="edge"><title>Node6&#45;&gt;Node1</title>
<path fill="none" stroke="midnightblue" d="M1359.14,-311.511C1380.39,-309.487 1402.98,-307.335 1422.81,-305.446"/>
<polygon fill="midnightblue" stroke="midnightblue" points="1358.78,-308.029 1349.16,-312.461 1359.44,-314.997 1358.78,-308.029"/>
</g>
<!-- Node7 -->
<g id="node7" class="node"><title>Node7</title>
<g id="a_node7"><a xlink:href="classmappel_1_1MCMCAdaptor2D.html" target="_top" xlink:title="mappel::MCMCAdaptor2D">
<polygon fill="white" stroke="black" points="1067,-348 1067,-366 1192,-366 1192,-348 1067,-348"/>
<text text-anchor="middle" x="1129.5" y="-354.8" font-family="Helvetica,sans-Serif" font-size="9.00">mappel::MCMCAdaptor2D</text>
</a>
</g>
</g>
<!-- Node7&#45;&gt;Node1 -->
<g id="edge6" class="edge"><title>Node7&#45;&gt;Node1</title>
<path fill="none" stroke="midnightblue" d="M1202.1,-353.23C1244.93,-350.284 1300.32,-345.262 1349,-337 1374.29,-332.707 1380.28,-329.874 1405,-323 1420.48,-318.694 1437.63,-313.471 1451.61,-309.091"/>
<polygon fill="midnightblue" stroke="midnightblue" points="1201.79,-349.742 1192.05,-353.899 1202.26,-356.727 1201.79,-349.742"/>
</g>
<!-- Node8&#45;&gt;Node7 -->
<g id="edge7" class="edge"><title>Node8&#45;&gt;Node7</title>
<path fill="none" stroke="midnightblue" d="M747.244,-357C835.372,-357 983.399,-357 1066.71,-357"/>
<polygon fill="midnightblue" stroke="midnightblue" points="747.065,-353.5 737.065,-357 747.065,-360.5 747.065,-353.5"/>
</g>
<!-- Node8&#45;&gt;Node11 -->
<g id="edge14" class="edge"><title>Node8&#45;&gt;Node11</title>
<path fill="none" stroke="midnightblue" d="M696.211,-342.067C713.396,-329.994 738.703,-312.937 762,-300 826.688,-264.078 907.393,-229.814 945.952,-214.05"/>
<polygon fill="midnightblue" stroke="midnightblue" points="694.15,-339.238 688.018,-347.878 698.2,-344.947 694.15,-339.238"/>
</g>
<!-- Node9 -->
<g id="node9" class="node"><title>Node9</title>
<g id="a_node9"><a xlink:href="classmappel_1_1MCMCAdaptorBase.html" target="_top" xlink:title="mappel::MCMCAdaptorBase">
<polygon fill="white" stroke="black" points="363,-411 363,-429 497,-429 497,-411 363,-411"/>
<text text-anchor="middle" x="430" y="-417.8" font-family="Helvetica,sans-Serif" font-size="9.00">mappel::MCMCAdaptorBase</text>
</a>
</g>
</g>
<!-- Node9&#45;&gt;Node8 -->
<g id="edge9" class="edge"><title>Node9&#45;&gt;Node8</title>
<path fill="none" stroke="midnightblue" d="M475.664,-408.397C522.743,-396.166 595.902,-377.159 638.82,-366.01"/>
<polygon fill="midnightblue" stroke="midnightblue" points="474.543,-405.072 465.744,-410.974 476.303,-411.847 474.543,-405.072"/>
</g>
<!-- Node10&#45;&gt;Node1 -->
<g id="edge10" class="edge"><title>Node10&#45;&gt;Node1</title>
<path fill="none" stroke="#9a32cd" stroke-dasharray="5,2" d="M1325.86,-216.85C1350.03,-224.013 1379.89,-234.236 1405,-247 1429.45,-259.426 1454.9,-279.08 1468.97,-290.64"/>
<polygon fill="#9a32cd" stroke="#9a32cd" points="1326.79,-213.477 1316.21,-214.065 1324.85,-220.202 1326.79,-213.477"/>
<text text-anchor="middle" x="1386" y="-259.8" font-family="Helvetica,sans-Serif" font-size="9.00"> x_model</text>
<text text-anchor="middle" x="1386" y="-249.8" font-family="Helvetica,sans-Serif" font-size="9.00">y_model</text>
</g>
<!-- Node11&#45;&gt;Node10 -->
<g id="edge11" class="edge"><title>Node11&#45;&gt;Node10</title>
<path fill="none" stroke="midnightblue" d="M1037.89,-205C1093.88,-205 1172.5,-205 1224.44,-205"/>
<polygon fill="midnightblue" stroke="midnightblue" points="1037.71,-201.5 1027.71,-205 1037.71,-208.5 1037.71,-201.5"/>
</g>
<!-- Node12 -->
<g id="node12" class="node"><title>Node12</title>
<g id="a_node12"><a xlink:href="classmappel_1_1ImageFormat1DBase.html" target="_top" xlink:title="A virtual base class for 2D image localization objectives. ">
<polygon fill="white" stroke="black" points="605,-112 605,-130 744,-130 744,-112 605,-112"/>
<text text-anchor="middle" x="674.5" y="-118.8" font-family="Helvetica,sans-Serif" font-size="9.00">mappel::ImageFormat1DBase</text>
</a>
</g>
</g>
<!-- Node12&#45;&gt;Node11 -->
<g id="edge13" class="edge"><title>Node12&#45;&gt;Node11</title>
<path fill="none" stroke="midnightblue" d="M754.467,-124.684C791.02,-128.188 834.546,-134.96 872,-148 905.077,-159.516 939.347,-183.018 956.78,-195.957"/>
<polygon fill="midnightblue" stroke="midnightblue" points="754.625,-121.184 744.353,-123.78 754.001,-128.156 754.625,-121.184"/>
</g>
<!-- Node15 -->
<g id="node15" class="node"><title>Node15</title>
<g id="a_node15"><a xlink:href="classmappel_1_1PoissonNoise1DObjective.html" target="_top" xlink:title="A base class for 1D objectives with Poisson read noise. This objective function and its subclasses ar...">
<polygon fill="white" stroke="black" points="890,-100 890,-118 1049,-118 1049,-100 890,-100"/>
<text text-anchor="middle" x="969.5" y="-106.8" font-family="Helvetica,sans-Serif" font-size="9.00">mappel::PoissonNoise1DObjective</text>
</a>
</g>
</g>
<!-- Node12&#45;&gt;Node15 -->
<g id="edge19" class="edge"><title>Node12&#45;&gt;Node15</title>
<path fill="none" stroke="midnightblue" d="M754.383,-117.769C796.395,-116.049 847.91,-113.939 889.882,-112.22"/>
<polygon fill="midnightblue" stroke="midnightblue" points="754.044,-114.28 744.195,-118.187 754.33,-121.274 754.044,-114.28"/>
</g>
<!-- Node13 -->
<g id="node13" class="node"><title>Node13</title>
<g id="a_node13"><a xlink:title="STL class. ">
<polygon fill="white" stroke="#bfbfbf" points="391,-200 391,-218 469,-218 469,-200 391,-200"/>
<text text-anchor="middle" x="430" y="-206.8" font-family="Helvetica,sans-Serif" font-size="9.00">std::vector&lt; T &gt;</text>
</a>
</g>
</g>
<!-- Node13&#45;&gt;Node1 -->
<g id="edge27" class="edge"><title>Node13&#45;&gt;Node1</title>
<path fill="none" stroke="#9a32cd" stroke-dasharray="5,2" d="M457.858,-222.54C501.785,-243.396 592.25,-281 673.5,-281 673.5,-281 673.5,-281 1280.5,-281 1328.69,-281 1383.13,-286.561 1422.95,-291.666"/>
<polygon fill="#9a32cd" stroke="#9a32cd" points="459.241,-219.321 448.715,-218.119 456.194,-225.623 459.241,-219.321"/>
<text text-anchor="middle" x="969.5" y="-283.8" font-family="Helvetica,sans-Serif" font-size="9.00"> prior_types</text>
</g>
<!-- Node13&#45;&gt;Node11 -->
<g id="edge16" class="edge"><title>Node13&#45;&gt;Node11</title>
<path fill="none" stroke="#9a32cd" stroke-dasharray="5,2" d="M479.266,-208.641C578.452,-207.903 804.789,-206.218 911.205,-205.426"/>
<polygon fill="#9a32cd" stroke="#9a32cd" points="479.198,-205.141 469.225,-208.716 479.251,-212.141 479.198,-205.141"/>
<text text-anchor="middle" x="674.5" y="-210.8" font-family="Helvetica,sans-Serif" font-size="9.00"> prior_types</text>
</g>
<!-- Node13&#45;&gt;Node16 -->
<g id="edge22" class="edge"><title>Node13&#45;&gt;Node16</title>
<path fill="none" stroke="orange" stroke-dasharray="5,2" d="M467.585,-196.694C482.305,-191.772 499.446,-186.077 515,-181 546.935,-170.577 563.225,-181.733 587,-158 605.503,-139.531 586.021,-119.98 605,-102 608.928,-98.2791 613.529,-95.3055 618.456,-92.9323"/>
<polygon fill="orange" stroke="orange" points="466.202,-193.466 457.831,-199.961 468.425,-200.104 466.202,-193.466"/>
<text text-anchor="middle" x="551" y="-183.8" font-family="Helvetica,sans-Serif" font-size="9.00"> &lt; std::string &gt;</text>
</g>
<!-- Node14 -->
<g id="node14" class="node"><title>Node14</title>
<polygon fill="white" stroke="#bfbfbf" points="149,-204 149,-222 178,-222 178,-204 149,-204"/>
<text text-anchor="middle" x="163.5" y="-210.8" font-family="Helvetica,sans-Serif" font-size="9.00">T</text>
</g>
<!-- Node14&#45;&gt;Node13 -->
<g id="edge17" class="edge"><title>Node14&#45;&gt;Node13</title>
<path fill="none" stroke="#9a32cd" stroke-dasharray="5,2" d="M188.568,-212.636C234.64,-211.939 335.622,-210.412 390.93,-209.576"/>
<polygon fill="#9a32cd" stroke="#9a32cd" points="188.294,-209.14 178.348,-212.791 188.4,-216.139 188.294,-209.14"/>
<text text-anchor="middle" x="282.5" y="-215.8" font-family="Helvetica,sans-Serif" font-size="9.00"> elements</text>
</g>
<!-- Node15&#45;&gt;Node10 -->
<g id="edge18" class="edge"><title>Node15&#45;&gt;Node10</title>
<path fill="none" stroke="midnightblue" d="M1009.36,-121.111C1071.93,-140.616 1193.65,-178.554 1249.38,-195.923"/>
<polygon fill="midnightblue" stroke="midnightblue" points="1010.06,-117.666 999.476,-118.031 1007.98,-124.349 1010.06,-117.666"/>
</g>
<!-- Node16&#45;&gt;Node15 -->
<g id="edge20" class="edge"><title>Node16&#45;&gt;Node15</title>
<path fill="none" stroke="#9a32cd" stroke-dasharray="5,2" d="M740.555,-89.1042C778.834,-92.1557 828.179,-96.1726 872,-100 877.783,-100.505 883.76,-101.038 889.773,-101.581"/>
<polygon fill="#9a32cd" stroke="#9a32cd" points="740.816,-85.614 730.57,-88.3101 740.261,-92.592 740.816,-85.614"/>
<text text-anchor="middle" x="817" y="-102.8" font-family="Helvetica,sans-Serif" font-size="9.00"> estimator_names</text>
</g>
<!-- Node17&#45;&gt;Node10 -->
<g id="edge23" class="edge"><title>Node17&#45;&gt;Node10</title>
<path fill="none" stroke="midnightblue" d="M882.38,-316.965C929.163,-314.366 993.703,-308.451 1049,-295 1130.71,-275.122 1222.2,-232.734 1260.31,-214.104"/>
<polygon fill="midnightblue" stroke="midnightblue" points="882.184,-313.47 872.379,-317.485 882.548,-320.461 882.184,-313.47"/>
</g>
</g>
</svg>
