<?xml version="1.0" encoding="UTF-8" standalone="no"?>
<!DOCTYPE svg PUBLIC "-//W3C//DTD SVG 1.1//EN"
 "http://www.w3.org/Graphics/SVG/1.1/DTD/svg11.dtd">
<!-- Generated by graphviz version 2.38.0 (20140413.2041)
 -->
<!-- Title: mappel::Gauss2DModel::make_internal_1Dsum_estimator Pages: 1 -->
<svg width="462pt" height="161pt"
 viewBox="0.00 0.00 462.00 161.00" xmlns="http://www.w3.org/2000/svg" xmlns:xlink="http://www.w3.org/1999/xlink">
<g id="graph0" class="graph" transform="scale(1 1) rotate(0) translate(4 157)">
<title>mappel::Gauss2DModel::make_internal_1Dsum_estimator</title>
<polygon fill="white" stroke="none" points="-4,4 -4,-157 458,-157 458,4 -4,4"/>
<!-- Node1 -->
<g id="node1" class="node"><title>Node1</title>
<polygon fill="#bfbfbf" stroke="black" points="0,-56.5 0,-94.5 116,-94.5 116,-56.5 0,-56.5"/>
<text text-anchor="start" x="8" y="-83.3" font-family="Helvetica,sans-Serif" font-size="9.00">mappel::Gauss2DModel</text>
<text text-anchor="start" x="8" y="-73.3" font-family="Helvetica,sans-Serif" font-size="9.00">::make_internal_1Dsum</text>
<text text-anchor="middle" x="58" y="-63.3" font-family="Helvetica,sans-Serif" font-size="9.00">_estimator</text>
</g>
<!-- Node2 -->
<g id="node2" class="node"><title>Node2</title>
<g id="a_node2"><a xlink:href="classmappel_1_1Gauss1DModel.html#a808fde22a0fb00140b4ba60e7df685eb" target="_top" xlink:title="mappel::Gauss1DModel\l::make_prior_beta_position">
<polygon fill="white" stroke="black" points="157.5,-85.5 157.5,-113.5 285.5,-113.5 285.5,-85.5 157.5,-85.5"/>
<text text-anchor="start" x="165.5" y="-102.3" font-family="Helvetica,sans-Serif" font-size="9.00">mappel::Gauss1DModel</text>
<text text-anchor="middle" x="221.5" y="-92.3" font-family="Helvetica,sans-Serif" font-size="9.00">::make_prior_beta_position</text>
</a>
</g>
</g>
<!-- Node1&#45;&gt;Node2 -->
<g id="edge1" class="edge"><title>Node1&#45;&gt;Node2</title>
<path fill="none" stroke="midnightblue" d="M116.394,-84.0291C126.321,-85.5044 136.764,-87.0563 147.048,-88.5845"/>
<polygon fill="midnightblue" stroke="midnightblue" points="146.848,-92.0932 157.254,-90.1012 147.877,-85.1692 146.848,-92.0932"/>
</g>
<!-- Node5 -->
<g id="node5" class="node"><title>Node5</title>
<g id="a_node5"><a xlink:href="classmappel_1_1Gauss1DModel.html#ab4fc9aafd94b2dd6532ef71f2ea47619" target="_top" xlink:title="mappel::Gauss1DModel\l::make_prior_normal_position">
<polygon fill="white" stroke="black" points="152,-38.5 152,-66.5 291,-66.5 291,-38.5 152,-38.5"/>
<text text-anchor="start" x="160" y="-55.3" font-family="Helvetica,sans-Serif" font-size="9.00">mappel::Gauss1DModel</text>
<text text-anchor="middle" x="221.5" y="-45.3" font-family="Helvetica,sans-Serif" font-size="9.00">::make_prior_normal_position</text>
</a>
</g>
</g>
<!-- Node1&#45;&gt;Node5 -->
<g id="edge4" class="edge"><title>Node1&#45;&gt;Node5</title>
<path fill="none" stroke="midnightblue" d="M116.394,-67.3263C124.669,-66.1477 133.303,-64.9181 141.905,-63.6931"/>
<polygon fill="midnightblue" stroke="midnightblue" points="142.557,-67.1356 151.964,-62.2606 141.57,-60.2056 142.557,-67.1356"/>
</g>
<!-- Node3 -->
<g id="node3" class="node"><title>Node3</title>
<g id="a_node3"><a xlink:href="classmappel_1_1PointEmitterModel.html#a4517e887a22007bd2e03650dcb853c92" target="_top" xlink:title="mappel::PointEmitterModel\l::make_prior_component\l_intensity">
<polygon fill="white" stroke="black" points="327,-57.5 327,-95.5 454,-95.5 454,-57.5 327,-57.5"/>
<text text-anchor="start" x="335" y="-84.3" font-family="Helvetica,sans-Serif" font-size="9.00">mappel::PointEmitterModel</text>
<text text-anchor="start" x="335" y="-74.3" font-family="Helvetica,sans-Serif" font-size="9.00">::make_prior_component</text>
<text text-anchor="middle" x="390.5" y="-64.3" font-family="Helvetica,sans-Serif" font-size="9.00">_intensity</text>
</a>
</g>
</g>
<!-- Node2&#45;&gt;Node3 -->
<g id="edge2" class="edge"><title>Node2&#45;&gt;Node3</title>
<path fill="none" stroke="midnightblue" d="M285.636,-90.8047C295.75,-89.4117 306.288,-87.9603 316.607,-86.5391"/>
<polygon fill="midnightblue" stroke="midnightblue" points="317.4,-89.963 326.829,-85.1313 316.445,-83.0285 317.4,-89.963"/>
</g>
<!-- Node4 -->
<g id="node4" class="node"><title>Node4</title>
<g id="a_node4"><a xlink:href="classmappel_1_1PointEmitterModel.html#ad4d563dd11df8c3daf83890374807185" target="_top" xlink:title="mappel::PointEmitterModel\l::make_prior_component\l_position_beta">
<polygon fill="white" stroke="black" points="327,-114.5 327,-152.5 454,-152.5 454,-114.5 327,-114.5"/>
<text text-anchor="start" x="335" y="-141.3" font-family="Helvetica,sans-Serif" font-size="9.00">mappel::PointEmitterModel</text>
<text text-anchor="start" x="335" y="-131.3" font-family="Helvetica,sans-Serif" font-size="9.00">::make_prior_component</text>
<text text-anchor="middle" x="390.5" y="-121.3" font-family="Helvetica,sans-Serif" font-size="9.00">_position_beta</text>
</a>
</g>
</g>
<!-- Node2&#45;&gt;Node4 -->
<g id="edge3" class="edge"><title>Node2&#45;&gt;Node4</title>
<path fill="none" stroke="midnightblue" d="M285.636,-112.354C295.855,-114.435 306.508,-116.603 316.93,-118.725"/>
<polygon fill="midnightblue" stroke="midnightblue" points="316.332,-122.175 326.829,-120.741 317.728,-115.316 316.332,-122.175"/>
</g>
<!-- Node5&#45;&gt;Node3 -->
<g id="edge5" class="edge"><title>Node5&#45;&gt;Node3</title>
<path fill="none" stroke="midnightblue" d="M291.389,-62.4003C299.757,-63.6028 308.327,-64.8344 316.749,-66.0447"/>
<polygon fill="midnightblue" stroke="midnightblue" points="316.528,-69.5488 326.924,-67.507 317.523,-62.62 316.528,-69.5488"/>
</g>
<!-- Node6 -->
<g id="node6" class="node"><title>Node6</title>
<g id="a_node6"><a xlink:href="classmappel_1_1PointEmitterModel.html#ab99350cf74097c558f7a93b79e7a44c3" target="_top" xlink:title="mappel::PointEmitterModel\l::make_prior_component\l_position_normal">
<polygon fill="white" stroke="black" points="327,-0.5 327,-38.5 454,-38.5 454,-0.5 327,-0.5"/>
<text text-anchor="start" x="335" y="-27.3" font-family="Helvetica,sans-Serif" font-size="9.00">mappel::PointEmitterModel</text>
<text text-anchor="start" x="335" y="-17.3" font-family="Helvetica,sans-Serif" font-size="9.00">::make_prior_component</text>
<text text-anchor="middle" x="390.5" y="-7.3" font-family="Helvetica,sans-Serif" font-size="9.00">_position_normal</text>
</a>
</g>
</g>
<!-- Node5&#45;&gt;Node6 -->
<g id="edge6" class="edge"><title>Node5&#45;&gt;Node6</title>
<path fill="none" stroke="midnightblue" d="M291.389,-38.8871C299.849,-37.2154 308.515,-35.5029 317.026,-33.8212"/>
<polygon fill="midnightblue" stroke="midnightblue" points="317.792,-37.2376 326.924,-31.8654 316.435,-30.3704 317.792,-37.2376"/>
</g>
</g>
</svg>
