<?xml version="1.0" encoding="UTF-8" standalone="no"?>
<!DOCTYPE svg PUBLIC "-//W3C//DTD SVG 1.1//EN"
 "http://www.w3.org/Graphics/SVG/1.1/DTD/svg11.dtd">
<!-- Generated by graphviz version 2.38.0 (20140413.2041)
 -->
<!-- Title: mappel::Gauss2DMAP Pages: 1 -->
<svg width="1700pt" height="512pt"
 viewBox="0.00 0.00 1700.00 511.60" xmlns="http://www.w3.org/2000/svg" xmlns:xlink="http://www.w3.org/1999/xlink">
<g id="graph0" class="graph" transform="scale(1 1) rotate(0) translate(4 507.6)">
<title>mappel::Gauss2DMAP</title>
<polygon fill="white" stroke="none" points="-4,4 -4,-507.6 1696,-507.6 1696,4 -4,4"/>
<!-- Node1 -->
<g id="node1" class="node"><title>Node1</title>
<polygon fill="#bfbfbf" stroke="black" points="1582,-332.1 1582,-350.1 1692,-350.1 1692,-332.1 1582,-332.1"/>
<text text-anchor="middle" x="1637" y="-338.9" font-family="Helvetica,sans-Serif" font-size="9.00">mappel::Gauss2DMAP</text>
</g>
<!-- Node2 -->
<g id="node2" class="node"><title>Node2</title>
<g id="a_node2"><a xlink:href="classmappel_1_1Gauss2DModel.html" target="_top" xlink:title="A base class for 2D Gaussian PSF with fixed but possibly asymmetric sigma. ">
<polygon fill="white" stroke="black" points="1407.5,-213.1 1407.5,-231.1 1523.5,-231.1 1523.5,-213.1 1407.5,-213.1"/>
<text text-anchor="middle" x="1465.5" y="-219.9" font-family="Helvetica,sans-Serif" font-size="9.00">mappel::Gauss2DModel</text>
</a>
</g>
</g>
<!-- Node2&#45;&gt;Node1 -->
<g id="edge1" class="edge"><title>Node2&#45;&gt;Node1</title>
<path fill="none" stroke="midnightblue" d="M1487.78,-237.041C1523.44,-262.075 1594.19,-311.748 1623.17,-332.092"/>
<polygon fill="midnightblue" stroke="midnightblue" points="1489.71,-234.122 1479.52,-231.241 1485.69,-239.851 1489.71,-234.122"/>
</g>
<!-- Node3 -->
<g id="node3" class="node"><title>Node3</title>
<g id="a_node3"><a xlink:href="classmappel_1_1PointEmitterModel.html" target="_top" xlink:title="A virtual Base type for point emitter localization models. ">
<polygon fill="white" stroke="black" points="366.5,-347.1 366.5,-365.1 493.5,-365.1 493.5,-347.1 366.5,-347.1"/>
<text text-anchor="middle" x="430" y="-353.9" font-family="Helvetica,sans-Serif" font-size="9.00">mappel::PointEmitterModel</text>
</a>
</g>
</g>
<!-- Node3&#45;&gt;Node2 -->
<g id="edge2" class="edge"><title>Node3&#45;&gt;Node2</title>
<path fill="none" stroke="midnightblue" d="M503.714,-350.727C661.853,-338.35 1048.51,-304.34 1368,-246.1 1389.74,-242.138 1413.86,-236.138 1432.55,-231.128"/>
<polygon fill="midnightblue" stroke="midnightblue" points="503.33,-347.246 493.631,-351.511 503.873,-354.225 503.33,-347.246"/>
</g>
<!-- Node9 -->
<g id="node9" class="node"><title>Node9</title>
<g id="a_node9"><a xlink:href="classmappel_1_1MCMCAdaptor1D.html" target="_top" xlink:title="mappel::MCMCAdaptor1D">
<polygon fill="white" stroke="black" points="612,-406.1 612,-424.1 737,-424.1 737,-406.1 612,-406.1"/>
<text text-anchor="middle" x="674.5" y="-412.9" font-family="Helvetica,sans-Serif" font-size="9.00">mappel::MCMCAdaptor1D</text>
</a>
</g>
</g>
<!-- Node3&#45;&gt;Node9 -->
<g id="edge9" class="edge"><title>Node3&#45;&gt;Node9</title>
<path fill="none" stroke="midnightblue" d="M462.802,-368.833C478.351,-374.703 497.455,-381.396 515,-386.1 546.478,-394.541 582.131,-401.306 611.64,-406.171"/>
<polygon fill="midnightblue" stroke="midnightblue" points="463.739,-365.444 453.149,-365.123 461.228,-371.978 463.739,-365.444"/>
</g>
<!-- Node12 -->
<g id="node12" class="node"><title>Node12</title>
<g id="a_node12"><a xlink:href="classmappel_1_1Gauss1DModel.html" target="_top" xlink:title="A base class for 1D Gaussian PSF with a fixed sigma (standard dev.) ">
<polygon fill="white" stroke="black" points="874.5,-241.1 874.5,-259.1 990.5,-259.1 990.5,-241.1 874.5,-241.1"/>
<text text-anchor="middle" x="932.5" y="-247.9" font-family="Helvetica,sans-Serif" font-size="9.00">mappel::Gauss1DModel</text>
</a>
</g>
</g>
<!-- Node3&#45;&gt;Node12 -->
<g id="edge13" class="edge"><title>Node3&#45;&gt;Node12</title>
<path fill="none" stroke="midnightblue" d="M461.739,-343.085C477.437,-336.87 496.981,-329.783 515,-325.1 654.32,-288.892 694.044,-304.297 835,-275.1 856.861,-270.572 881.194,-264.26 899.956,-259.111"/>
<polygon fill="midnightblue" stroke="midnightblue" points="459.991,-340.017 452.032,-347.011 462.615,-346.506 459.991,-340.017"/>
</g>
<!-- Node18 -->
<g id="node18" class="node"><title>Node18</title>
<g id="a_node18"><a xlink:href="classmappel_1_1MAPEstimator.html" target="_top" xlink:title="A Mixin class to configure a for MLE estimation (null prior). ">
<polygon fill="white" stroke="black" points="877.5,-368.1 877.5,-386.1 987.5,-386.1 987.5,-368.1 877.5,-368.1"/>
<text text-anchor="middle" x="932.5" y="-374.9" font-family="Helvetica,sans-Serif" font-size="9.00">mappel::MAPEstimator</text>
</a>
</g>
</g>
<!-- Node3&#45;&gt;Node18 -->
<g id="edge25" class="edge"><title>Node3&#45;&gt;Node18</title>
<path fill="none" stroke="midnightblue" d="M503.79,-359.155C605.225,-363.411 786.792,-371.029 877.224,-374.823"/>
<polygon fill="midnightblue" stroke="midnightblue" points="503.767,-355.651 493.629,-358.728 503.474,-362.645 503.767,-355.651"/>
</g>
<!-- Node4 -->
<g id="node4" class="node"><title>Node4</title>
<polygon fill="white" stroke="#bfbfbf" points="125,-485.1 125,-503.1 202,-503.1 202,-485.1 125,-485.1"/>
<text text-anchor="middle" x="163.5" y="-491.9" font-family="Helvetica,sans-Serif" font-size="9.00">CompositeDist</text>
</g>
<!-- Node4&#45;&gt;Node3 -->
<g id="edge3" class="edge"><title>Node4&#45;&gt;Node3</title>
<path fill="none" stroke="#9a32cd" stroke-dasharray="5,2" d="M190.794,-480.382C244.662,-452.277 366.298,-388.814 411.582,-365.188"/>
<polygon fill="#9a32cd" stroke="#9a32cd" points="189.101,-477.317 181.855,-485.046 192.339,-483.523 189.101,-477.317"/>
<text text-anchor="middle" x="282.5" y="-467.9" font-family="Helvetica,sans-Serif" font-size="9.00"> prior</text>
</g>
<!-- Node5 -->
<g id="node5" class="node"><title>Node5</title>
<g id="a_node5"><a xlink:title="STL class. ">
<polygon fill="white" stroke="#bfbfbf" points="135.5,-200.1 135.5,-218.1 191.5,-218.1 191.5,-200.1 135.5,-200.1"/>
<text text-anchor="middle" x="163.5" y="-206.9" font-family="Helvetica,sans-Serif" font-size="9.00">std::string</text>
</a>
</g>
</g>
<!-- Node5&#45;&gt;Node1 -->
<g id="edge33" class="edge"><title>Node5&#45;&gt;Node1</title>
<path fill="none" stroke="#9a32cd" stroke-dasharray="5,2" d="M168.11,-228.441C174.363,-257.564 189.564,-313.188 220,-350.1 286.911,-431.249 323.823,-461.1 429,-461.1 429,-461.1 429,-461.1 1466.5,-461.1 1543.3,-461.1 1609.64,-378.027 1629.76,-350.12"/>
<polygon fill="#9a32cd" stroke="#9a32cd" points="171.484,-227.463 166.079,-218.351 164.621,-228.845 171.484,-227.463"/>
<text text-anchor="middle" x="932.5" y="-463.9" font-family="Helvetica,sans-Serif" font-size="9.00"> name</text>
</g>
<!-- Node5&#45;&gt;Node2 -->
<g id="edge27" class="edge"><title>Node5&#45;&gt;Node2</title>
<path fill="none" stroke="#9a32cd" stroke-dasharray="5,2" d="M183.309,-193.505C193.545,-185.838 206.79,-177.177 220,-172.1 279.962,-149.057 299.103,-157.702 363,-151.1 649.945,-121.456 725.953,-104.772 1012,-142.1 1163.09,-161.818 1340.61,-196.646 1421.02,-213.061"/>
<polygon fill="#9a32cd" stroke="#9a32cd" points="180.888,-190.955 175.164,-199.871 185.198,-196.47 180.888,-190.955"/>
<text text-anchor="middle" x="798.5" y="-126.9" font-family="Helvetica,sans-Serif" font-size="9.00"> DefaultPriorType</text>
</g>
<!-- Node5&#45;&gt;Node3 -->
<g id="edge4" class="edge"><title>Node5&#45;&gt;Node3</title>
<path fill="none" stroke="#9a32cd" stroke-dasharray="5,2" d="M175.155,-226.839C185.08,-242.029 201.154,-263.537 220,-277.1 271.319,-314.035 342.017,-335.963 386.611,-347.021"/>
<polygon fill="#9a32cd" stroke="#9a32cd" points="178.087,-224.926 169.8,-218.325 172.162,-228.653 178.087,-224.926"/>
<text text-anchor="middle" x="282.5" y="-338.9" font-family="Helvetica,sans-Serif" font-size="9.00"> DefaultSeperableInitEstimator</text>
</g>
<!-- Node11 -->
<g id="node11" class="node"><title>Node11</title>
<g id="a_node11"><a xlink:href="classmappel_1_1Gauss1DMAP.html" target="_top" xlink:title="A 1D Gaussian with fixed PSF under an Poisson Read Noise assumption and MAP Objective. ">
<polygon fill="white" stroke="black" points="1187.5,-213.1 1187.5,-231.1 1297.5,-231.1 1297.5,-213.1 1187.5,-213.1"/>
<text text-anchor="middle" x="1242.5" y="-219.9" font-family="Helvetica,sans-Serif" font-size="9.00">mappel::Gauss1DMAP</text>
</a>
</g>
</g>
<!-- Node5&#45;&gt;Node11 -->
<g id="edge26" class="edge"><title>Node5&#45;&gt;Node11</title>
<path fill="none" stroke="#9a32cd" stroke-dasharray="5,2" d="M201.645,-201.127C303.018,-180.313 593.027,-127.096 835,-144.1 914.252,-149.67 933.568,-156.436 1012,-169.1 1075.77,-179.397 1092.27,-179.67 1155,-195.1 1175.47,-200.136 1198.21,-207.298 1215.24,-212.98"/>
<polygon fill="#9a32cd" stroke="#9a32cd" points="200.682,-197.752 191.601,-203.21 202.104,-204.606 200.682,-197.752"/>
<text text-anchor="middle" x="674.5" y="-148.9" font-family="Helvetica,sans-Serif" font-size="9.00"> name</text>
</g>
<!-- Node5&#45;&gt;Node12 -->
<g id="edge16" class="edge"><title>Node5&#45;&gt;Node12</title>
<path fill="none" stroke="#9a32cd" stroke-dasharray="5,2" d="M201.512,-213.024C277.186,-220.866 455.122,-238.382 605,-246.1 674.698,-249.69 692.215,-248.228 762,-249.1 799.37,-249.568 841.378,-249.817 874.224,-249.951"/>
<polygon fill="#9a32cd" stroke="#9a32cd" points="201.835,-209.539 191.527,-211.984 201.11,-216.501 201.835,-209.539"/>
<text text-anchor="middle" x="551" y="-248.9" font-family="Helvetica,sans-Serif" font-size="9.00"> DefaultPriorType</text>
</g>
<!-- Node17 -->
<g id="node17" class="node"><title>Node17</title>
<polygon fill="white" stroke="#bfbfbf" points="618.5,-43.1005 618.5,-61.1005 730.5,-61.1005 730.5,-43.1005 618.5,-43.1005"/>
<text text-anchor="middle" x="674.5" y="-49.9005" font-family="Helvetica,sans-Serif" font-size="9.00">std::vector&lt; std::string &gt;</text>
</g>
<!-- Node5&#45;&gt;Node17 -->
<g id="edge22" class="edge"><title>Node5&#45;&gt;Node17</title>
<path fill="none" stroke="#9a32cd" stroke-dasharray="5,2" d="M168.72,-189.854C175.2,-165.294 190.121,-123.552 220,-103.1 283.501,-59.6364 511.742,-52.7687 618.155,-51.9844"/>
<polygon fill="#9a32cd" stroke="#9a32cd" points="165.266,-189.247 166.313,-199.79 172.069,-190.895 165.266,-189.247"/>
<text text-anchor="middle" x="430" y="-68.9005" font-family="Helvetica,sans-Serif" font-size="9.00"> elements</text>
</g>
<!-- Node6 -->
<g id="node6" class="node"><title>Node6</title>
<g id="a_node6"><a xlink:title="STL class. ">
<polygon fill="white" stroke="#bfbfbf" points="0,-195.1 0,-223.1 88,-223.1 88,-195.1 0,-195.1"/>
<text text-anchor="start" x="8" y="-211.9" font-family="Helvetica,sans-Serif" font-size="9.00">std::basic_string&lt;</text>
<text text-anchor="middle" x="44" y="-201.9" font-family="Helvetica,sans-Serif" font-size="9.00"> char &gt;</text>
</a>
</g>
</g>
<!-- Node6&#45;&gt;Node5 -->
<g id="edge5" class="edge"><title>Node6&#45;&gt;Node5</title>
<path fill="none" stroke="midnightblue" d="M98.287,-209.1C111.161,-209.1 124.389,-209.1 135.467,-209.1"/>
<polygon fill="midnightblue" stroke="midnightblue" points="98.0855,-205.601 88.0855,-209.1 98.0854,-212.601 98.0855,-205.601"/>
</g>
<!-- Node7 -->
<g id="node7" class="node"><title>Node7</title>
<g id="a_node7"><a xlink:href="classmappel_1_1ImageFormat2DBase.html" target="_top" xlink:title="A virtual base class for 2D image localization objectives. ">
<polygon fill="white" stroke="black" points="1173,-13.1005 1173,-31.1005 1312,-31.1005 1312,-13.1005 1173,-13.1005"/>
<text text-anchor="middle" x="1242.5" y="-19.9005" font-family="Helvetica,sans-Serif" font-size="9.00">mappel::ImageFormat2DBase</text>
</a>
</g>
</g>
<!-- Node7&#45;&gt;Node2 -->
<g id="edge6" class="edge"><title>Node7&#45;&gt;Node2</title>
<path fill="none" stroke="midnightblue" d="M1322.25,-28.7036C1338.49,-32.8265 1354.68,-39.2312 1368,-49.1005 1426.85,-92.7161 1454.58,-183.516 1462.23,-212.789"/>
<polygon fill="midnightblue" stroke="midnightblue" points="1322.69,-25.2132 1312.16,-26.4208 1321.14,-32.0407 1322.69,-25.2132"/>
</g>
<!-- Node19 -->
<g id="node19" class="node"><title>Node19</title>
<g id="a_node19"><a xlink:href="classmappel_1_1PoissonNoise2DObjective.html" target="_top" xlink:title="A base class for 2D objectives with Poisson read noise. This objective function and its subclasses ar...">
<polygon fill="white" stroke="black" points="1386,-1.10048 1386,-19.1005 1545,-19.1005 1545,-1.10048 1386,-1.10048"/>
<text text-anchor="middle" x="1465.5" y="-7.90048" font-family="Helvetica,sans-Serif" font-size="9.00">mappel::PoissonNoise2DObjective</text>
</a>
</g>
</g>
<!-- Node7&#45;&gt;Node19 -->
<g id="edge30" class="edge"><title>Node7&#45;&gt;Node19</title>
<path fill="none" stroke="midnightblue" d="M1322.21,-17.8267C1342.86,-16.7053 1365.13,-15.496 1385.79,-14.3745"/>
<polygon fill="midnightblue" stroke="midnightblue" points="1322.01,-14.3323 1312.21,-18.3694 1322.39,-21.322 1322.01,-14.3323"/>
</g>
<!-- Node8 -->
<g id="node8" class="node"><title>Node8</title>
<g id="a_node8"><a xlink:href="classmappel_1_1MCMCAdaptor2D.html" target="_top" xlink:title="mappel::MCMCAdaptor2D">
<polygon fill="white" stroke="black" points="1030,-406.1 1030,-424.1 1155,-424.1 1155,-406.1 1030,-406.1"/>
<text text-anchor="middle" x="1092.5" y="-412.9" font-family="Helvetica,sans-Serif" font-size="9.00">mappel::MCMCAdaptor2D</text>
</a>
</g>
</g>
<!-- Node8&#45;&gt;Node2 -->
<g id="edge7" class="edge"><title>Node8&#45;&gt;Node2</title>
<path fill="none" stroke="midnightblue" d="M1160.15,-404.138C1218.49,-392.27 1303.73,-369.261 1368,-328.1 1409.91,-301.258 1445.24,-251.66 1458.68,-231.245"/>
<polygon fill="midnightblue" stroke="midnightblue" points="1159.43,-400.712 1150.3,-406.087 1160.79,-407.578 1159.43,-400.712"/>
</g>
<!-- Node9&#45;&gt;Node8 -->
<g id="edge8" class="edge"><title>Node9&#45;&gt;Node8</title>
<path fill="none" stroke="midnightblue" d="M747.772,-415.1C827.483,-415.1 954.398,-415.1 1029.67,-415.1"/>
<polygon fill="midnightblue" stroke="midnightblue" points="747.33,-411.601 737.33,-415.1 747.33,-418.601 747.33,-411.601"/>
</g>
<!-- Node9&#45;&gt;Node12 -->
<g id="edge15" class="edge"><title>Node9&#45;&gt;Node12</title>
<path fill="none" stroke="midnightblue" d="M698.1,-400.534C749.756,-367.24 875.25,-286.355 917.415,-259.178"/>
<polygon fill="midnightblue" stroke="midnightblue" points="696.138,-397.635 689.628,-405.994 699.93,-403.519 696.138,-397.635"/>
</g>
<!-- Node10 -->
<g id="node10" class="node"><title>Node10</title>
<g id="a_node10"><a xlink:href="classmappel_1_1MCMCAdaptorBase.html" target="_top" xlink:title="mappel::MCMCAdaptorBase">
<polygon fill="white" stroke="black" points="363,-414.1 363,-432.1 497,-432.1 497,-414.1 363,-414.1"/>
<text text-anchor="middle" x="430" y="-420.9" font-family="Helvetica,sans-Serif" font-size="9.00">mappel::MCMCAdaptorBase</text>
</a>
</g>
</g>
<!-- Node10&#45;&gt;Node9 -->
<g id="edge10" class="edge"><title>Node10&#45;&gt;Node9</title>
<path fill="none" stroke="midnightblue" d="M507.521,-420.576C541.169,-419.466 580.162,-418.18 611.895,-417.133"/>
<polygon fill="midnightblue" stroke="midnightblue" points="507.143,-417.087 497.264,-420.914 507.374,-424.083 507.143,-417.087"/>
</g>
<!-- Node11&#45;&gt;Node2 -->
<g id="edge11" class="edge"><title>Node11&#45;&gt;Node2</title>
<path fill="none" stroke="#9a32cd" stroke-dasharray="5,2" d="M1307.95,-222.1C1339.34,-222.1 1376.75,-222.1 1407.13,-222.1"/>
<polygon fill="#9a32cd" stroke="#9a32cd" points="1307.56,-218.601 1297.56,-222.1 1307.56,-225.601 1307.56,-218.601"/>
<text text-anchor="middle" x="1349" y="-234.9" font-family="Helvetica,sans-Serif" font-size="9.00"> x_model</text>
<text text-anchor="middle" x="1349" y="-224.9" font-family="Helvetica,sans-Serif" font-size="9.00">y_model</text>
</g>
<!-- Node12&#45;&gt;Node11 -->
<g id="edge12" class="edge"><title>Node12&#45;&gt;Node11</title>
<path fill="none" stroke="midnightblue" d="M1000.89,-243.974C1056.88,-238.884 1135.5,-231.737 1187.44,-227.015"/>
<polygon fill="midnightblue" stroke="midnightblue" points="1000.35,-240.508 990.711,-244.9 1000.99,-247.48 1000.35,-240.508"/>
</g>
<!-- Node13 -->
<g id="node13" class="node"><title>Node13</title>
<g id="a_node13"><a xlink:href="classmappel_1_1ImageFormat1DBase.html" target="_top" xlink:title="A virtual base class for 2D image localization objectives. ">
<polygon fill="white" stroke="black" points="605,-170.1 605,-188.1 744,-188.1 744,-170.1 605,-170.1"/>
<text text-anchor="middle" x="674.5" y="-176.9" font-family="Helvetica,sans-Serif" font-size="9.00">mappel::ImageFormat1DBase</text>
</a>
</g>
</g>
<!-- Node13&#45;&gt;Node12 -->
<g id="edge14" class="edge"><title>Node13&#45;&gt;Node12</title>
<path fill="none" stroke="midnightblue" d="M717.894,-190.858C768.781,-204.971 852.995,-228.328 899.012,-241.09"/>
<polygon fill="midnightblue" stroke="midnightblue" points="718.754,-187.465 708.183,-188.165 716.883,-194.21 718.754,-187.465"/>
</g>
<!-- Node16 -->
<g id="node16" class="node"><title>Node16</title>
<g id="a_node16"><a xlink:href="classmappel_1_1PoissonNoise1DObjective.html" target="_top" xlink:title="A base class for 1D objectives with Poisson read noise. This objective function and its subclasses ar...">
<polygon fill="white" stroke="black" points="853,-179.1 853,-197.1 1012,-197.1 1012,-179.1 853,-179.1"/>
<text text-anchor="middle" x="932.5" y="-185.9" font-family="Helvetica,sans-Serif" font-size="9.00">mappel::PoissonNoise1DObjective</text>
</a>
</g>
</g>
<!-- Node13&#45;&gt;Node16 -->
<g id="edge20" class="edge"><title>Node13&#45;&gt;Node16</title>
<path fill="none" stroke="midnightblue" d="M754.504,-181.878C785.73,-182.976 821.537,-184.235 852.739,-185.332"/>
<polygon fill="midnightblue" stroke="midnightblue" points="754.22,-178.366 744.103,-181.512 753.974,-185.362 754.22,-178.366"/>
</g>
<!-- Node14 -->
<g id="node14" class="node"><title>Node14</title>
<g id="a_node14"><a xlink:title="STL class. ">
<polygon fill="white" stroke="#bfbfbf" points="391,-24.1005 391,-42.1005 469,-42.1005 469,-24.1005 391,-24.1005"/>
<text text-anchor="middle" x="430" y="-30.9005" font-family="Helvetica,sans-Serif" font-size="9.00">std::vector&lt; T &gt;</text>
</a>
</g>
</g>
<!-- Node14&#45;&gt;Node2 -->
<g id="edge28" class="edge"><title>Node14&#45;&gt;Node2</title>
<path fill="none" stroke="#9a32cd" stroke-dasharray="5,2" d="M479.115,-31.0866C490.853,-30.6768 503.377,-30.308 515,-30.1005 546.995,-29.5293 555.001,-29.7948 587,-30.1005 673.981,-30.9314 1292.56,-40.7999 1368,-84.1005 1420.99,-114.516 1451.78,-187.248 1461.29,-212.93"/>
<polygon fill="#9a32cd" stroke="#9a32cd" points="478.91,-27.5916 469.045,-31.4541 479.166,-34.587 478.91,-27.5916"/>
<text text-anchor="middle" x="932.5" y="-45.9005" font-family="Helvetica,sans-Serif" font-size="9.00"> prior_types</text>
</g>
<!-- Node14&#45;&gt;Node12 -->
<g id="edge17" class="edge"><title>Node14&#45;&gt;Node12</title>
<path fill="none" stroke="#9a32cd" stroke-dasharray="5,2" d="M478.704,-42.7551C485.166,-45.2058 491.467,-48.2705 497,-52.1005 563.072,-97.8341 536.514,-155.068 605,-197.1 649.11,-224.173 792.97,-239.397 874.243,-246.036"/>
<polygon fill="#9a32cd" stroke="#9a32cd" points="479.786,-39.4266 469.193,-39.5862 477.573,-46.0677 479.786,-39.4266"/>
<text text-anchor="middle" x="674.5" y="-234.9" font-family="Helvetica,sans-Serif" font-size="9.00"> prior_types</text>
</g>
<!-- Node14&#45;&gt;Node17 -->
<g id="edge23" class="edge"><title>Node14&#45;&gt;Node17</title>
<path fill="none" stroke="orange" stroke-dasharray="5,2" d="M479.298,-33.0521C510.166,-33.4152 551.015,-34.6262 587,-38.1005 599.265,-39.2847 612.429,-41.1211 624.694,-43.0784"/>
<polygon fill="orange" stroke="orange" points="479.266,-29.5517 469.234,-32.9594 479.201,-36.5514 479.266,-29.5517"/>
<text text-anchor="middle" x="551" y="-40.9005" font-family="Helvetica,sans-Serif" font-size="9.00"> &lt; std::string &gt;</text>
</g>
<!-- Node15 -->
<g id="node15" class="node"><title>Node15</title>
<polygon fill="white" stroke="#bfbfbf" points="149,-24.1005 149,-42.1005 178,-42.1005 178,-24.1005 149,-24.1005"/>
<text text-anchor="middle" x="163.5" y="-30.9005" font-family="Helvetica,sans-Serif" font-size="9.00">T</text>
</g>
<!-- Node15&#45;&gt;Node14 -->
<g id="edge18" class="edge"><title>Node15&#45;&gt;Node14</title>
<path fill="none" stroke="#9a32cd" stroke-dasharray="5,2" d="M188.568,-33.1005C234.64,-33.1005 335.622,-33.1005 390.93,-33.1005"/>
<polygon fill="#9a32cd" stroke="#9a32cd" points="188.348,-29.6006 178.348,-33.1005 188.348,-36.6006 188.348,-29.6006"/>
<text text-anchor="middle" x="282.5" y="-35.9005" font-family="Helvetica,sans-Serif" font-size="9.00"> elements</text>
</g>
<!-- Node16&#45;&gt;Node11 -->
<g id="edge19" class="edge"><title>Node16&#45;&gt;Node11</title>
<path fill="none" stroke="midnightblue" d="M1022.17,-197.888C1075.53,-203.779 1141.75,-211.089 1187.38,-216.126"/>
<polygon fill="midnightblue" stroke="midnightblue" points="1022.34,-194.387 1012.02,-196.768 1021.57,-201.344 1022.34,-194.387"/>
</g>
<!-- Node17&#45;&gt;Node16 -->
<g id="edge21" class="edge"><title>Node17&#45;&gt;Node16</title>
<path fill="none" stroke="#9a32cd" stroke-dasharray="5,2" d="M696.228,-67.0027C713.423,-79.0581 738.735,-96.1055 762,-109.1 813.162,-137.678 876.442,-165.23 909.317,-178.996"/>
<polygon fill="#9a32cd" stroke="#9a32cd" points="698.215,-64.1208 688.03,-61.2015 694.171,-69.8349 698.215,-64.1208"/>
<text text-anchor="middle" x="798.5" y="-146.9" font-family="Helvetica,sans-Serif" font-size="9.00"> estimator_names</text>
</g>
<!-- Node17&#45;&gt;Node19 -->
<g id="edge31" class="edge"><title>Node17&#45;&gt;Node19</title>
<path fill="none" stroke="#9a32cd" stroke-dasharray="5,2" d="M727.299,-40.9927C762.565,-33.8672 810.395,-25.0529 853,-20.1005 1055.77,3.46998 1107.91,1.581 1312,-3.10048 1335.98,-3.65054 1362.06,-4.6865 1385.77,-5.79608"/>
<polygon fill="#9a32cd" stroke="#9a32cd" points="726.337,-37.6169 717.24,-43.0481 727.738,-44.4752 726.337,-37.6169"/>
<text text-anchor="middle" x="1092.5" y="-6.90048" font-family="Helvetica,sans-Serif" font-size="9.00"> estimator_names</text>
</g>
<!-- Node18&#45;&gt;Node1 -->
<g id="edge32" class="edge"><title>Node18&#45;&gt;Node1</title>
<path fill="none" stroke="midnightblue" d="M998.108,-373.79C1135.48,-366.75 1454.42,-350.405 1581.92,-343.872"/>
<polygon fill="midnightblue" stroke="midnightblue" points="997.556,-370.313 987.748,-374.321 997.914,-377.304 997.556,-370.313"/>
</g>
<!-- Node18&#45;&gt;Node11 -->
<g id="edge24" class="edge"><title>Node18&#45;&gt;Node11</title>
<path fill="none" stroke="midnightblue" d="M960.497,-363.514C1022.12,-332.5 1171.83,-257.164 1223.56,-231.129"/>
<polygon fill="midnightblue" stroke="midnightblue" points="958.75,-360.475 951.391,-368.097 961.897,-366.728 958.75,-360.475"/>
</g>
<!-- Node19&#45;&gt;Node1 -->
<g id="edge29" class="edge"><title>Node19&#45;&gt;Node1</title>
<path fill="none" stroke="midnightblue" d="M1475.95,-28.5601C1507.44,-90.0568 1608.11,-286.628 1631.23,-331.79"/>
<polygon fill="midnightblue" stroke="midnightblue" points="1478.88,-26.6043 1471.21,-19.2988 1472.65,-29.7949 1478.88,-26.6043"/>
</g>
</g>
</svg>
