<?xml version="1.0" encoding="UTF-8" standalone="no"?>
<!DOCTYPE svg PUBLIC "-//W3C//DTD SVG 1.1//EN"
 "http://www.w3.org/Graphics/SVG/1.1/DTD/svg11.dtd">
<!-- Generated by graphviz version 2.38.0 (20140413.2041)
 -->
<!-- Title: mappel::Gauss2DModel::pixel_model_value Pages: 1 -->
<svg width="276pt" height="84pt"
 viewBox="0.00 0.00 276.00 84.00" xmlns="http://www.w3.org/2000/svg" xmlns:xlink="http://www.w3.org/1999/xlink">
<g id="graph0" class="graph" transform="scale(1 1) rotate(0) translate(4 80)">
<title>mappel::Gauss2DModel::pixel_model_value</title>
<polygon fill="white" stroke="none" points="-4,4 -4,-80 272,-80 272,4 -4,4"/>
<!-- Node1 -->
<g id="node1" class="node"><title>Node1</title>
<polygon fill="#bfbfbf" stroke="black" points="0,-23.5 0,-51.5 116,-51.5 116,-23.5 0,-23.5"/>
<text text-anchor="start" x="8" y="-40.3" font-family="Helvetica,sans-Serif" font-size="9.00">mappel::Gauss2DModel</text>
<text text-anchor="middle" x="58" y="-30.3" font-family="Helvetica,sans-Serif" font-size="9.00">::pixel_model_value</text>
</g>
<!-- Node2 -->
<g id="node2" class="node"><title>Node2</title>
<g id="a_node2"><a xlink:href="classmappel_1_1Gauss2DModel_1_1Stencil.html#a1e6bea9d029ad5ff367e988a5af24101" target="_top" xlink:title="mappel::Gauss2DModel\l::Stencil::bg">
<polygon fill="white" stroke="black" points="152,-47.5 152,-75.5 268,-75.5 268,-47.5 152,-47.5"/>
<text text-anchor="start" x="160" y="-64.3" font-family="Helvetica,sans-Serif" font-size="9.00">mappel::Gauss2DModel</text>
<text text-anchor="middle" x="210" y="-54.3" font-family="Helvetica,sans-Serif" font-size="9.00">::Stencil::bg</text>
</a>
</g>
</g>
<!-- Node1&#45;&gt;Node2 -->
<g id="edge1" class="edge"><title>Node1&#45;&gt;Node2</title>
<path fill="none" stroke="midnightblue" d="M116.136,-46.6418C124.468,-47.9748 133.111,-49.3577 141.622,-50.7195"/>
<polygon fill="midnightblue" stroke="midnightblue" points="141.098,-54.1801 151.525,-52.3041 142.204,-47.268 141.098,-54.1801"/>
</g>
<!-- Node3 -->
<g id="node3" class="node"><title>Node3</title>
<g id="a_node3"><a xlink:href="classmappel_1_1Gauss2DModel_1_1Stencil.html#aac7254dbe4ed3e2dd928ab29779f570d" target="_top" xlink:title="mappel::Gauss2DModel\l::Stencil::I">
<polygon fill="white" stroke="black" points="152,-0.5 152,-28.5 268,-28.5 268,-0.5 152,-0.5"/>
<text text-anchor="start" x="160" y="-17.3" font-family="Helvetica,sans-Serif" font-size="9.00">mappel::Gauss2DModel</text>
<text text-anchor="middle" x="210" y="-7.3" font-family="Helvetica,sans-Serif" font-size="9.00">::Stencil::I</text>
</a>
</g>
</g>
<!-- Node1&#45;&gt;Node3 -->
<g id="edge2" class="edge"><title>Node1&#45;&gt;Node3</title>
<path fill="none" stroke="midnightblue" d="M116.136,-28.7391C124.468,-27.4616 133.111,-26.1363 141.622,-24.8313"/>
<polygon fill="midnightblue" stroke="midnightblue" points="142.172,-28.288 151.525,-23.3128 141.111,-21.3689 142.172,-28.288"/>
</g>
</g>
</svg>
