<?xml version="1.0" encoding="UTF-8" standalone="no"?>
<!DOCTYPE svg PUBLIC "-//W3C//DTD SVG 1.1//EN"
 "http://www.w3.org/Graphics/SVG/1.1/DTD/svg11.dtd">
<!-- Generated by graphviz version 2.38.0 (20140413.2041)
 -->
<!-- Title: mappel::Estimator&lt; Model &gt; Pages: 1 -->
<!--zoomable 248 -->
<svg id="main" version="1.1" xmlns="http://www.w3.org/2000/svg" xmlns:xlink="http://www.w3.org/1999/xlink" xml:space="preserve" onload="init(evt)">
<style type="text/css"><![CDATA[
.edge:hover path { stroke: red; }
.edge:hover polygon { stroke: red; fill: red; }
]]></style>
<script type="text/javascript"><![CDATA[
var edges = document.getElementsByTagName('g');
if (edges && edges.length) {
  for (var i=0;i<edges.length;i++) {
    if (edges[i].id.substr(0,4)=='edge') {
      edges[i].setAttribute('class','edge');
    }
  }
}
]]></script>
        <defs>
                <circle id="rim" cx="0" cy="0" r="7"/>
                <circle id="rim2" cx="0" cy="0" r="3.5"/>
                <g id="zoomPlus">
                        <use xlink:href="#rim" fill="#404040">
                                <set attributeName="fill" to="#808080" begin="zoomplus.mouseover" end="zoomplus.mouseout"/>
                        </use>
                        <path d="M-4,0h8M0,-4v8" fill="none" stroke="white" stroke-width="1.5" pointer-events="none"/>
                </g>
                <g id="zoomMin">
                        <use xlink:href="#rim" fill="#404040">
                                <set attributeName="fill" to="#808080" begin="zoomminus.mouseover" end="zoomminus.mouseout"/>
                        </use>
                        <path d="M-4,0h8" fill="none" stroke="white" stroke-width="1.5" pointer-events="none"/>
                </g>
                <g id="dirArrow">
                        <path fill="none" stroke="white" stroke-width="1.5" d="M0,-3.0v7 M-2.5,-0.5L0,-3.0L2.5,-0.5"/>
                </g>
               <g id="resetDef">
                       <use xlink:href="#rim2" fill="#404040">
                               <set attributeName="fill" to="#808080" begin="reset.mouseover" end="reset.mouseout"/>
                       </use>
               </g>
        </defs>

<script type="text/javascript">
var viewWidth = 663;
var viewHeight = 248;
var sectionId = 'dynsection-0';
</script>
<script xlink:href="svgpan.js"/>
<svg id="graph" class="graph">
<g id="viewport">
<title>mappel::Estimator&lt; Model &gt;</title>
<polygon fill="white" stroke="none" points="-4,4 -4,-244 659,-244 659,4 -4,4"/>
<!-- Node1 -->
<g id="node1" class="node"><title>Node1</title>
<polygon fill="#bfbfbf" stroke="black" points="0,-117.5 0,-145.5 95,-145.5 95,-117.5 0,-117.5"/>
<text text-anchor="start" x="8" y="-134.3" font-family="Helvetica,sans-Serif" font-size="9.00">mappel::Estimator&lt;</text>
<text text-anchor="middle" x="47.5" y="-124.3" font-family="Helvetica,sans-Serif" font-size="9.00"> Model &gt;</text>
</g>
<!-- Node2 -->
<g id="node2" class="node"><title>Node2</title>
<g id="a_node2"><a xlink:href="classmappel_1_1ThreadedEstimator.html" target="_top" xlink:title="mappel::ThreadedEstimator\l\&lt; Model \&gt;">
<polygon fill="white" stroke="black" points="131,-117.5 131,-145.5 261,-145.5 261,-117.5 131,-117.5"/>
<text text-anchor="start" x="139" y="-134.3" font-family="Helvetica,sans-Serif" font-size="9.00">mappel::ThreadedEstimator</text>
<text text-anchor="middle" x="196" y="-124.3" font-family="Helvetica,sans-Serif" font-size="9.00">&lt; Model &gt;</text>
</a>
</g>
</g>
<!-- Node1&#45;&gt;Node2 -->
<g id="edge1" class="edge"><title>Node1&#45;&gt;Node2</title>
<path fill="none" stroke="midnightblue" d="M105.272,-131.5C113.632,-131.5 122.294,-131.5 130.79,-131.5"/>
<polygon fill="midnightblue" stroke="midnightblue" points="105.256,-128 95.2563,-131.5 105.256,-135 105.256,-128"/>
</g>
<!-- Node3 -->
<g id="node3" class="node"><title>Node3</title>
<g id="a_node3"><a xlink:href="classmappel_1_1CGaussHeuristicEstimator.html" target="_top" xlink:title="mappel::CGaussHeuristicEstimator\l\&lt; Model \&gt;">
<polygon fill="white" stroke="black" points="297,-211.5 297,-239.5 456,-239.5 456,-211.5 297,-211.5"/>
<text text-anchor="start" x="305" y="-228.3" font-family="Helvetica,sans-Serif" font-size="9.00">mappel::CGaussHeuristicEstimator</text>
<text text-anchor="middle" x="376.5" y="-218.3" font-family="Helvetica,sans-Serif" font-size="9.00">&lt; Model &gt;</text>
</a>
</g>
</g>
<!-- Node2&#45;&gt;Node3 -->
<g id="edge2" class="edge"><title>Node2&#45;&gt;Node3</title>
<path fill="none" stroke="midnightblue" d="M220.978,-152.013C240.384,-167.721 269.001,-188.933 297,-202.5 303.901,-205.844 311.384,-208.801 318.896,-211.385"/>
<polygon fill="midnightblue" stroke="midnightblue" points="223.198,-149.307 213.253,-145.655 218.75,-154.712 223.198,-149.307"/>
</g>
<!-- Node4 -->
<g id="node4" class="node"><title>Node4</title>
<g id="a_node4"><a xlink:href="classmappel_1_1CGaussMLE.html" target="_top" xlink:title="mappel::CGaussMLE\&lt;\l Model \&gt;">
<polygon fill="white" stroke="black" points="322,-164.5 322,-192.5 431,-192.5 431,-164.5 322,-164.5"/>
<text text-anchor="start" x="330" y="-181.3" font-family="Helvetica,sans-Serif" font-size="9.00">mappel::CGaussMLE&lt;</text>
<text text-anchor="middle" x="376.5" y="-171.3" font-family="Helvetica,sans-Serif" font-size="9.00"> Model &gt;</text>
</a>
</g>
</g>
<!-- Node2&#45;&gt;Node4 -->
<g id="edge3" class="edge"><title>Node2&#45;&gt;Node4</title>
<path fill="none" stroke="midnightblue" d="M260.328,-148.175C280.597,-153.512 302.819,-159.363 322.29,-164.489"/>
<polygon fill="midnightblue" stroke="midnightblue" points="261.118,-144.763 250.556,-145.602 259.335,-151.533 261.118,-144.763"/>
</g>
<!-- Node5 -->
<g id="node5" class="node"><title>Node5</title>
<g id="a_node5"><a xlink:href="classmappel_1_1HeuristicEstimator.html" target="_top" xlink:title="mappel::HeuristicEstimator\l\&lt; Model \&gt;">
<polygon fill="white" stroke="black" points="313.5,-117.5 313.5,-145.5 439.5,-145.5 439.5,-117.5 313.5,-117.5"/>
<text text-anchor="start" x="321.5" y="-134.3" font-family="Helvetica,sans-Serif" font-size="9.00">mappel::HeuristicEstimator</text>
<text text-anchor="middle" x="376.5" y="-124.3" font-family="Helvetica,sans-Serif" font-size="9.00">&lt; Model &gt;</text>
</a>
</g>
</g>
<!-- Node2&#45;&gt;Node5 -->
<g id="edge4" class="edge"><title>Node2&#45;&gt;Node5</title>
<path fill="none" stroke="midnightblue" d="M271.277,-131.5C285.28,-131.5 299.789,-131.5 313.372,-131.5"/>
<polygon fill="midnightblue" stroke="midnightblue" points="271.19,-128 261.19,-131.5 271.19,-135 271.19,-128"/>
</g>
<!-- Node6 -->
<g id="node6" class="node"><title>Node6</title>
<g id="a_node6"><a xlink:href="classmappel_1_1IterativeMaximizer.html" target="_top" xlink:title="mappel::IterativeMaximizer\l\&lt; Model \&gt;">
<polygon fill="white" stroke="black" points="313.5,-70.5 313.5,-98.5 439.5,-98.5 439.5,-70.5 313.5,-70.5"/>
<text text-anchor="start" x="321.5" y="-87.3" font-family="Helvetica,sans-Serif" font-size="9.00">mappel::IterativeMaximizer</text>
<text text-anchor="middle" x="376.5" y="-77.3" font-family="Helvetica,sans-Serif" font-size="9.00">&lt; Model &gt;</text>
</a>
</g>
</g>
<!-- Node2&#45;&gt;Node6 -->
<g id="edge5" class="edge"><title>Node2&#45;&gt;Node6</title>
<path fill="none" stroke="midnightblue" d="M260.328,-114.825C280.597,-109.488 302.819,-103.637 322.29,-98.5106"/>
<polygon fill="midnightblue" stroke="midnightblue" points="259.335,-111.467 250.556,-117.398 261.118,-118.237 259.335,-111.467"/>
</g>
<!-- Node11 -->
<g id="node11" class="node"><title>Node11</title>
<g id="a_node11"><a xlink:href="classmappel_1_1SimulatedAnnealingMaximizer.html" target="_top" xlink:title="mappel::SimulatedAnnealing\lMaximizer\&lt; Model \&gt;">
<polygon fill="white" stroke="black" points="309,-23.5 309,-51.5 444,-51.5 444,-23.5 309,-23.5"/>
<text text-anchor="start" x="317" y="-40.3" font-family="Helvetica,sans-Serif" font-size="9.00">mappel::SimulatedAnnealing</text>
<text text-anchor="middle" x="376.5" y="-30.3" font-family="Helvetica,sans-Serif" font-size="9.00">Maximizer&lt; Model &gt;</text>
</a>
</g>
</g>
<!-- Node2&#45;&gt;Node11 -->
<g id="edge10" class="edge"><title>Node2&#45;&gt;Node11</title>
<path fill="none" stroke="midnightblue" d="M221.681,-110.901C241.123,-95.5233 269.457,-74.9315 297,-61.5 304.686,-57.7521 313.081,-54.4427 321.431,-51.5721"/>
<polygon fill="midnightblue" stroke="midnightblue" points="219.265,-108.352 213.664,-117.345 223.651,-113.808 219.265,-108.352"/>
</g>
<!-- Node7 -->
<g id="node7" class="node"><title>Node7</title>
<g id="a_node7"><a xlink:href="classmappel_1_1NewtonDiagonalMaximizer.html" target="_top" xlink:title="mappel::NewtonDiagonalMaximizer\l\&lt; Model \&gt;">
<polygon fill="white" stroke="black" points="492,-141.5 492,-169.5 655,-169.5 655,-141.5 492,-141.5"/>
<text text-anchor="start" x="500" y="-158.3" font-family="Helvetica,sans-Serif" font-size="9.00">mappel::NewtonDiagonalMaximizer</text>
<text text-anchor="middle" x="573.5" y="-148.3" font-family="Helvetica,sans-Serif" font-size="9.00">&lt; Model &gt;</text>
</a>
</g>
</g>
<!-- Node6&#45;&gt;Node7 -->
<g id="edge6" class="edge"><title>Node6&#45;&gt;Node7</title>
<path fill="none" stroke="midnightblue" d="M440.625,-102.008C445.901,-104.009 451.09,-106.174 456,-108.5 473.379,-116.732 474.546,-124.429 492,-132.5 499.256,-135.855 507.11,-138.831 514.97,-141.434"/>
<polygon fill="midnightblue" stroke="midnightblue" points="441.672,-98.6648 431.078,-98.5839 439.309,-105.254 441.672,-98.6648"/>
</g>
<!-- Node8 -->
<g id="node8" class="node"><title>Node8</title>
<g id="a_node8"><a xlink:href="classmappel_1_1NewtonMaximizer.html" target="_top" xlink:title="mappel::NewtonMaximizer\l\&lt; Model \&gt;">
<polygon fill="white" stroke="black" points="511,-94.5 511,-122.5 636,-122.5 636,-94.5 511,-94.5"/>
<text text-anchor="start" x="519" y="-111.3" font-family="Helvetica,sans-Serif" font-size="9.00">mappel::NewtonMaximizer</text>
<text text-anchor="middle" x="573.5" y="-101.3" font-family="Helvetica,sans-Serif" font-size="9.00">&lt; Model &gt;</text>
</a>
</g>
</g>
<!-- Node6&#45;&gt;Node8 -->
<g id="edge7" class="edge"><title>Node6&#45;&gt;Node8</title>
<path fill="none" stroke="midnightblue" d="M449.762,-93.3938C469.838,-95.8647 491.448,-98.5243 510.855,-100.913"/>
<polygon fill="midnightblue" stroke="midnightblue" points="450.088,-89.9076 439.735,-92.1597 449.233,-96.8552 450.088,-89.9076"/>
</g>
<!-- Node9 -->
<g id="node9" class="node"><title>Node9</title>
<g id="a_node9"><a xlink:href="classmappel_1_1QuasiNewtonMaximizer.html" target="_top" xlink:title="mappel::QuasiNewtonMaximizer\l\&lt; Model \&gt;">
<polygon fill="white" stroke="black" points="499,-47.5 499,-75.5 648,-75.5 648,-47.5 499,-47.5"/>
<text text-anchor="start" x="507" y="-64.3" font-family="Helvetica,sans-Serif" font-size="9.00">mappel::QuasiNewtonMaximizer</text>
<text text-anchor="middle" x="573.5" y="-54.3" font-family="Helvetica,sans-Serif" font-size="9.00">&lt; Model &gt;</text>
</a>
</g>
</g>
<!-- Node6&#45;&gt;Node9 -->
<g id="edge8" class="edge"><title>Node6&#45;&gt;Node9</title>
<path fill="none" stroke="midnightblue" d="M450.067,-75.9409C466.027,-74.0583 482.943,-72.0631 498.943,-70.176"/>
<polygon fill="midnightblue" stroke="midnightblue" points="449.257,-72.5121 439.735,-77.1594 450.077,-79.4639 449.257,-72.5121"/>
</g>
<!-- Node10 -->
<g id="node10" class="node"><title>Node10</title>
<g id="a_node10"><a xlink:href="classmappel_1_1TrustRegionMaximizer.html" target="_top" xlink:title="mappel::TrustRegionMaximizer\l\&lt; Model \&gt;">
<polygon fill="white" stroke="black" points="501.5,-0.5 501.5,-28.5 645.5,-28.5 645.5,-0.5 501.5,-0.5"/>
<text text-anchor="start" x="509.5" y="-17.3" font-family="Helvetica,sans-Serif" font-size="9.00">mappel::TrustRegionMaximizer</text>
<text text-anchor="middle" x="573.5" y="-7.3" font-family="Helvetica,sans-Serif" font-size="9.00">&lt; Model &gt;</text>
</a>
</g>
</g>
<!-- Node6&#45;&gt;Node10 -->
<g id="edge9" class="edge"><title>Node6&#45;&gt;Node10</title>
<path fill="none" stroke="midnightblue" d="M442.362,-67.0943C447.034,-65.3549 451.625,-63.4895 456,-61.5 473.284,-53.6408 474.735,-46.4001 492,-38.5 500.089,-34.7985 508.894,-31.4983 517.614,-28.6184"/>
<polygon fill="midnightblue" stroke="midnightblue" points="440.976,-63.8717 432.7,-70.4871 443.295,-70.4764 440.976,-63.8717"/>
</g>
</g>
</svg>
        <g id="navigator" transform="translate(0 0)" fill="#404254">
                <rect fill="#f2f5e9" fill-opacity="0.5" stroke="#606060" stroke-width=".5" x="0" y="0" width="60" height="60"/>
                <use id="zoomplus" xlink:href="#zoomPlus" x="17" y="9" onmousedown="handleZoom(evt,'in')"/>
                <use id="zoomminus" xlink:href="#zoomMin" x="42" y="9" onmousedown="handleZoom(evt,'out')"/>
                <use id="reset" xlink:href="#resetDef" x="30" y="36" onmousedown="handleReset()"/>
                <g id="arrowUp" xlink:href="#dirArrow" transform="translate(30 24)" onmousedown="handlePan(0,-1)">
                  <use xlink:href="#rim" fill="#404040">
                        <set attributeName="fill" to="#808080" begin="arrowUp.mouseover" end="arrowUp.mouseout"/>
                  </use>
                  <path fill="none" stroke="white" stroke-width="1.5" d="M0,-3.0v7 M-2.5,-0.5L0,-3.0L2.5,-0.5"/>
                </g>
                <g id="arrowRight" xlink:href="#dirArrow" transform="rotate(90) translate(36 -43)" onmousedown="handlePan(1,0)">
                  <use xlink:href="#rim" fill="#404040">
                        <set attributeName="fill" to="#808080" begin="arrowRight.mouseover" end="arrowRight.mouseout"/>
                  </use>
                  <path fill="none" stroke="white" stroke-width="1.5" d="M0,-3.0v7 M-2.5,-0.5L0,-3.0L2.5,-0.5"/>
                </g>
                <g id="arrowDown" xlink:href="#dirArrow" transform="rotate(180) translate(-30 -48)" onmousedown="handlePan(0,1)">
                  <use xlink:href="#rim" fill="#404040">
                        <set attributeName="fill" to="#808080" begin="arrowDown.mouseover" end="arrowDown.mouseout"/>
                  </use>
                  <path fill="none" stroke="white" stroke-width="1.5" d="M0,-3.0v7 M-2.5,-0.5L0,-3.0L2.5,-0.5"/>
                </g>
                <g id="arrowLeft" xlink:href="#dirArrow" transform="rotate(270) translate(-36 17)" onmousedown="handlePan(-1,0)">
                  <use xlink:href="#rim" fill="#404040">
                        <set attributeName="fill" to="#808080" begin="arrowLeft.mouseover" end="arrowLeft.mouseout"/>
                  </use>
                  <path fill="none" stroke="white" stroke-width="1.5" d="M0,-3.0v7 M-2.5,-0.5L0,-3.0L2.5,-0.5"/>
                </g>
        </g>
        <svg viewBox="0 0 15 15" width="100%" height="30px" preserveAspectRatio="xMaxYMin meet">
         <g id="arrow_out" transform="scale(0.3 0.3)">
          <a xlink:href="classmappel_1_1Estimator__inherit__graph_org.svg" target="_base">
           <rect id="button" ry="5" rx="5" y="6" x="6" height="38" width="38"
                fill="#f2f5e9" fill-opacity="0.5" stroke="#606060" stroke-width="1.0"/>
           <path id="arrow"
             d="M 11.500037,31.436501 C 11.940474,20.09759 22.043105,11.32322 32.158766,21.979434 L 37.068811,17.246167 C 37.068811,17.246167 37.088388,32 37.088388,32 L 22.160133,31.978069 C 22.160133,31.978069 26.997745,27.140456 26.997745,27.140456 C 18.528582,18.264221 13.291696,25.230495 11.500037,31.436501 z"
             style="fill:#404040;"/>
          </a>
         </g>
        </svg>
</svg>
