<?xml version="1.0" encoding="UTF-8" standalone="no"?>
<!DOCTYPE svg PUBLIC "-//W3C//DTD SVG 1.1//EN"
 "http://www.w3.org/Graphics/SVG/1.1/DTD/svg11.dtd">
<!-- Generated by graphviz version 2.38.0 (20140413.2041)
 -->
<!-- Title: mappel::PriorMAP1DObjective::prior_hess_update Pages: 1 -->
<svg width="292pt" height="84pt"
 viewBox="0.00 0.00 292.00 84.00" xmlns="http://www.w3.org/2000/svg" xmlns:xlink="http://www.w3.org/1999/xlink">
<g id="graph0" class="graph" transform="scale(1 1) rotate(0) translate(4 80)">
<title>mappel::PriorMAP1DObjective::prior_hess_update</title>
<polygon fill="white" stroke="none" points="-4,4 -4,-80 288,-80 288,4 -4,4"/>
<!-- Node1 -->
<g id="node1" class="node"><title>Node1</title>
<polygon fill="#bfbfbf" stroke="black" points="0,-23.5 0,-51.5 141,-51.5 141,-23.5 0,-23.5"/>
<text text-anchor="start" x="8" y="-40.3" font-family="Helvetica,sans-Serif" font-size="9.00">mappel::PriorMAP1DObjective</text>
<text text-anchor="middle" x="70.5" y="-30.3" font-family="Helvetica,sans-Serif" font-size="9.00">::prior_hess_update</text>
</g>
<!-- Node2 -->
<g id="node2" class="node"><title>Node2</title>
<g id="a_node2"><a xlink:href="namespacemappel.html#a6a36b8a34be04643747e178a8358251c" target="_top" xlink:title="mappel::beta_prior\l_grad2">
<polygon fill="white" stroke="black" points="183.5,-47.5 183.5,-75.5 277.5,-75.5 277.5,-47.5 183.5,-47.5"/>
<text text-anchor="start" x="191.5" y="-64.3" font-family="Helvetica,sans-Serif" font-size="9.00">mappel::beta_prior</text>
<text text-anchor="middle" x="230.5" y="-54.3" font-family="Helvetica,sans-Serif" font-size="9.00">_grad2</text>
</a>
</g>
</g>
<!-- Node1&#45;&gt;Node2 -->
<g id="edge1" class="edge"><title>Node1&#45;&gt;Node2</title>
<path fill="none" stroke="midnightblue" d="M141.261,-48.0966C151.925,-49.7165 162.817,-51.3709 173.145,-52.9397"/>
<polygon fill="midnightblue" stroke="midnightblue" points="172.843,-56.434 183.255,-54.4755 173.895,-49.5134 172.843,-56.434"/>
</g>
<!-- Node3 -->
<g id="node3" class="node"><title>Node3</title>
<g id="a_node3"><a xlink:href="namespacemappel.html#a09f684e270fef9279b5eabff96e54edb" target="_top" xlink:title="mappel::gamma_prior\l_grad2">
<polygon fill="white" stroke="black" points="177,-0.5 177,-28.5 284,-28.5 284,-0.5 177,-0.5"/>
<text text-anchor="start" x="185" y="-17.3" font-family="Helvetica,sans-Serif" font-size="9.00">mappel::gamma_prior</text>
<text text-anchor="middle" x="230.5" y="-7.3" font-family="Helvetica,sans-Serif" font-size="9.00">_grad2</text>
</a>
</g>
</g>
<!-- Node1&#45;&gt;Node3 -->
<g id="edge2" class="edge"><title>Node1&#45;&gt;Node3</title>
<path fill="none" stroke="midnightblue" d="M141.261,-27.3449C149.724,-26.1129 158.331,-24.8601 166.685,-23.644"/>
<polygon fill="midnightblue" stroke="midnightblue" points="167.332,-27.0867 176.724,-22.1826 166.324,-20.1597 167.332,-27.0867"/>
</g>
</g>
</svg>
