<?xml version="1.0" encoding="UTF-8" standalone="no"?>
<!DOCTYPE svg PUBLIC "-//W3C//DTD SVG 1.1//EN"
 "http://www.w3.org/Graphics/SVG/1.1/DTD/svg11.dtd">
<!-- Generated by graphviz version 2.38.0 (20140413.2041)
 -->
<!-- Title: mappel::Estimator::~Estimator Pages: 1 -->
<svg width="736pt" height="679pt"
 viewBox="0.00 0.00 736.00 679.00" xmlns="http://www.w3.org/2000/svg" xmlns:xlink="http://www.w3.org/1999/xlink">
<g id="graph0" class="graph" transform="scale(1 1) rotate(0) translate(4 675)">
<title>mappel::Estimator::~Estimator</title>
<polygon fill="white" stroke="none" points="-4,4 -4,-675 732,-675 732,4 -4,4"/>
<!-- Node1 -->
<g id="node1" class="node"><title>Node1</title>
<polygon fill="#bfbfbf" stroke="black" points="0,-325.5 0,-353.5 95,-353.5 95,-325.5 0,-325.5"/>
<text text-anchor="start" x="8" y="-342.3" font-family="Helvetica,sans-Serif" font-size="9.00">mappel::Estimator::</text>
<text text-anchor="middle" x="47.5" y="-332.3" font-family="Helvetica,sans-Serif" font-size="9.00">~Estimator</text>
</g>
<!-- Node2 -->
<g id="node2" class="node"><title>Node2</title>
<g id="a_node2"><a xlink:href="classmappel_1_1Estimator.html#a2181f8c34bfc89b5b6b491f4db63a4d8" target="_top" xlink:title="mappel::Estimator::\lclear_stats">
<polygon fill="white" stroke="black" points="147.5,-642.5 147.5,-670.5 242.5,-670.5 242.5,-642.5 147.5,-642.5"/>
<text text-anchor="start" x="155.5" y="-659.3" font-family="Helvetica,sans-Serif" font-size="9.00">mappel::Estimator::</text>
<text text-anchor="middle" x="195" y="-649.3" font-family="Helvetica,sans-Serif" font-size="9.00">clear_stats</text>
</a>
</g>
</g>
<!-- Node1&#45;&gt;Node2 -->
<g id="edge1" class="edge"><title>Node1&#45;&gt;Node2</title>
<path fill="none" stroke="midnightblue" d="M48.209,-353.597C48.026,-400.047 53.7249,-550.078 131,-633.5 133.295,-635.977 135.878,-638.188 138.655,-640.162"/>
<polygon fill="midnightblue" stroke="midnightblue" points="137.087,-643.301 147.472,-645.398 140.661,-637.283 137.087,-643.301"/>
</g>
<!-- Node3 -->
<g id="node3" class="node"><title>Node3</title>
<g id="a_node3"><a xlink:href="classmappel_1_1Estimator.html#aa8b8c7f835056c94de1f21bff2ef205b" target="_top" xlink:title="mappel::Estimator::\lcompute_estimate">
<polygon fill="white" stroke="black" points="147.5,-595.5 147.5,-623.5 242.5,-623.5 242.5,-595.5 147.5,-595.5"/>
<text text-anchor="start" x="155.5" y="-612.3" font-family="Helvetica,sans-Serif" font-size="9.00">mappel::Estimator::</text>
<text text-anchor="middle" x="195" y="-602.3" font-family="Helvetica,sans-Serif" font-size="9.00">compute_estimate</text>
</a>
</g>
</g>
<!-- Node1&#45;&gt;Node3 -->
<g id="edge2" class="edge"><title>Node1&#45;&gt;Node3</title>
<path fill="none" stroke="midnightblue" d="M49.1035,-353.669C51.6324,-395.248 64.6437,-518.281 131,-586.5 133.314,-588.879 135.893,-591.013 138.65,-592.927"/>
<polygon fill="midnightblue" stroke="midnightblue" points="136.971,-596 147.368,-598.037 140.511,-589.961 136.971,-596"/>
</g>
<!-- Node4 -->
<g id="node4" class="node"><title>Node4</title>
<g id="a_node4"><a xlink:href="classmappel_1_1Estimator.html#a29c41d423941e8b86add3e493cb1375e" target="_top" xlink:title="mappel::Estimator::\lcompute_estimate_debug">
<polygon fill="white" stroke="black" points="133.5,-548.5 133.5,-576.5 256.5,-576.5 256.5,-548.5 133.5,-548.5"/>
<text text-anchor="start" x="141.5" y="-565.3" font-family="Helvetica,sans-Serif" font-size="9.00">mappel::Estimator::</text>
<text text-anchor="middle" x="195" y="-555.3" font-family="Helvetica,sans-Serif" font-size="9.00">compute_estimate_debug</text>
</a>
</g>
</g>
<!-- Node1&#45;&gt;Node4 -->
<g id="edge3" class="edge"><title>Node1&#45;&gt;Node4</title>
<path fill="none" stroke="midnightblue" d="M50.3631,-353.539C55.8664,-389.538 75.3085,-486.056 131,-539.5 132.129,-540.583 133.313,-541.616 134.543,-542.601"/>
<polygon fill="midnightblue" stroke="midnightblue" points="132.982,-545.768 143.238,-548.428 136.879,-539.954 132.982,-545.768"/>
</g>
<!-- Node5 -->
<g id="node5" class="node"><title>Node5</title>
<g id="a_node5"><a xlink:href="classmappel_1_1Estimator.html#a273f65624e06688cd4b1126e3e7556ae" target="_top" xlink:title="mappel::Estimator::\lcompute_profile_estimate">
<polygon fill="white" stroke="black" points="134,-501.5 134,-529.5 256,-529.5 256,-501.5 134,-501.5"/>
<text text-anchor="start" x="142" y="-518.3" font-family="Helvetica,sans-Serif" font-size="9.00">mappel::Estimator::</text>
<text text-anchor="middle" x="195" y="-508.3" font-family="Helvetica,sans-Serif" font-size="9.00">compute_profile_estimate</text>
</a>
</g>
</g>
<!-- Node1&#45;&gt;Node5 -->
<g id="edge4" class="edge"><title>Node1&#45;&gt;Node5</title>
<path fill="none" stroke="midnightblue" d="M53.0252,-353.528C62.8824,-382.095 88.8505,-447.595 131,-486.5 135.037,-490.226 139.636,-493.545 144.468,-496.484"/>
<polygon fill="midnightblue" stroke="midnightblue" points="142.899,-499.615 153.348,-501.369 146.273,-493.482 142.899,-499.615"/>
</g>
<!-- Node6 -->
<g id="node6" class="node"><title>Node6</title>
<g id="a_node6"><a xlink:href="classmappel_1_1Estimator.html#a403f11575f81e47095e57cc403fd760d" target="_top" xlink:title="mappel::Estimator::name">
<polygon fill="white" stroke="black" points="310.5,-484.5 310.5,-502.5 428.5,-502.5 428.5,-484.5 310.5,-484.5"/>
<text text-anchor="middle" x="369.5" y="-491.3" font-family="Helvetica,sans-Serif" font-size="9.00">mappel::Estimator::name</text>
</a>
</g>
</g>
<!-- Node1&#45;&gt;Node6 -->
<g id="edge18" class="edge"><title>Node1&#45;&gt;Node6</title>
<path fill="none" stroke="midnightblue" d="M54.4339,-353.834C65.4989,-378.615 91.7715,-429.145 131,-453.5 158.621,-470.648 240.318,-481.722 300.205,-487.775"/>
<polygon fill="midnightblue" stroke="midnightblue" points="300.07,-491.278 310.365,-488.775 300.756,-484.312 300.07,-491.278"/>
</g>
<!-- Node7 -->
<g id="node7" class="node"><title>Node7</title>
<g id="a_node7"><a xlink:href="classmappel_1_1Estimator.html#a4406c994d5b6239e75628ea5d479bfa2" target="_top" xlink:title="mappel::Estimator::\lestimate_max">
<polygon fill="white" stroke="black" points="147.5,-415.5 147.5,-443.5 242.5,-443.5 242.5,-415.5 147.5,-415.5"/>
<text text-anchor="start" x="155.5" y="-432.3" font-family="Helvetica,sans-Serif" font-size="9.00">mappel::Estimator::</text>
<text text-anchor="middle" x="195" y="-422.3" font-family="Helvetica,sans-Serif" font-size="9.00">estimate_max</text>
</a>
</g>
</g>
<!-- Node1&#45;&gt;Node7 -->
<g id="edge6" class="edge"><title>Node1&#45;&gt;Node7</title>
<path fill="none" stroke="midnightblue" d="M62.896,-353.726C78.5477,-368.554 104.841,-391.659 131,-406.5 134.029,-408.218 137.209,-409.849 140.466,-411.389"/>
<polygon fill="midnightblue" stroke="midnightblue" points="139.215,-414.663 149.777,-415.487 142.034,-408.256 139.215,-414.663"/>
</g>
<!-- Node11 -->
<g id="node11" class="node"><title>Node11</title>
<g id="a_node11"><a xlink:href="classmappel_1_1Estimator.html#a4a581372a320f1c13eeffacf6309911b" target="_top" xlink:title="mappel::Estimator::\lestimate_max_debug">
<polygon fill="white" stroke="black" points="142.5,-368.5 142.5,-396.5 247.5,-396.5 247.5,-368.5 142.5,-368.5"/>
<text text-anchor="start" x="150.5" y="-385.3" font-family="Helvetica,sans-Serif" font-size="9.00">mappel::Estimator::</text>
<text text-anchor="middle" x="195" y="-375.3" font-family="Helvetica,sans-Serif" font-size="9.00">estimate_max_debug</text>
</a>
</g>
</g>
<!-- Node1&#45;&gt;Node11 -->
<g id="edge10" class="edge"><title>Node1&#45;&gt;Node11</title>
<path fill="none" stroke="midnightblue" d="M95.338,-353.342C108.507,-357.234 122.98,-361.511 136.686,-365.562"/>
<polygon fill="midnightblue" stroke="midnightblue" points="135.919,-368.985 146.501,-368.462 137.903,-362.272 135.919,-368.985"/>
</g>
<!-- Node13 -->
<g id="node13" class="node"><title>Node13</title>
<g id="a_node13"><a xlink:href="namespacemappel_1_1methods_1_1objective.html#a293c23ed6a623e59477bb67b6e40f5ad" target="_top" xlink:title="mappel::methods::objective\l::rllh">
<polygon fill="white" stroke="black" points="305.5,-323.5 305.5,-351.5 433.5,-351.5 433.5,-323.5 305.5,-323.5"/>
<text text-anchor="start" x="313.5" y="-340.3" font-family="Helvetica,sans-Serif" font-size="9.00">mappel::methods::objective</text>
<text text-anchor="middle" x="369.5" y="-330.3" font-family="Helvetica,sans-Serif" font-size="9.00">::rllh</text>
</a>
</g>
</g>
<!-- Node1&#45;&gt;Node13 -->
<g id="edge19" class="edge"><title>Node1&#45;&gt;Node13</title>
<path fill="none" stroke="midnightblue" d="M95.0307,-339.209C147.575,-338.881 233.757,-338.342 295.329,-337.957"/>
<polygon fill="midnightblue" stroke="midnightblue" points="295.396,-341.457 305.374,-337.895 295.352,-334.457 295.396,-341.457"/>
</g>
<!-- Node14 -->
<g id="node14" class="node"><title>Node14</title>
<g id="a_node14"><a xlink:href="classmappel_1_1Estimator.html#a50c0cdffa2b5e7c45180a92dd3b34073" target="_top" xlink:title="mappel::Estimator::\lestimate_max_stack">
<polygon fill="white" stroke="black" points="145,-282.5 145,-310.5 245,-310.5 245,-282.5 145,-282.5"/>
<text text-anchor="start" x="153" y="-299.3" font-family="Helvetica,sans-Serif" font-size="9.00">mappel::Estimator::</text>
<text text-anchor="middle" x="195" y="-289.3" font-family="Helvetica,sans-Serif" font-size="9.00">estimate_max_stack</text>
</a>
</g>
</g>
<!-- Node1&#45;&gt;Node14 -->
<g id="edge13" class="edge"><title>Node1&#45;&gt;Node14</title>
<path fill="none" stroke="midnightblue" d="M95.338,-325.658C108.507,-321.766 122.98,-317.489 136.686,-313.438"/>
<polygon fill="midnightblue" stroke="midnightblue" points="137.903,-316.728 146.501,-310.538 135.919,-310.015 137.903,-316.728"/>
</g>
<!-- Node15 -->
<g id="node15" class="node"><title>Node15</title>
<g id="a_node15"><a xlink:href="classmappel_1_1Estimator.html#aa86d466843e5dae1e2eaaecb98012ff4" target="_top" xlink:title="mappel::Estimator::\lestimate_profile_stack">
<polygon fill="white" stroke="black" points="141,-235.5 141,-263.5 249,-263.5 249,-235.5 141,-235.5"/>
<text text-anchor="start" x="149" y="-252.3" font-family="Helvetica,sans-Serif" font-size="9.00">mappel::Estimator::</text>
<text text-anchor="middle" x="195" y="-242.3" font-family="Helvetica,sans-Serif" font-size="9.00">estimate_profile_stack</text>
</a>
</g>
</g>
<!-- Node1&#45;&gt;Node15 -->
<g id="edge14" class="edge"><title>Node1&#45;&gt;Node15</title>
<path fill="none" stroke="midnightblue" d="M63.2669,-325.304C79.0186,-310.76 105.204,-288.248 131,-273.5 134.601,-271.441 138.412,-269.493 142.306,-267.663"/>
<polygon fill="midnightblue" stroke="midnightblue" points="143.747,-270.853 151.483,-263.615 140.922,-264.449 143.747,-270.853"/>
</g>
<!-- Node16 -->
<g id="node16" class="node"><title>Node16</title>
<g id="a_node16"><a xlink:href="classmappel_1_1Estimator.html#a64b26c846a0e995fe16cd56cbead9f99" target="_top" xlink:title="mappel::Estimator::\lget_debug_stats">
<polygon fill="white" stroke="black" points="147.5,-188.5 147.5,-216.5 242.5,-216.5 242.5,-188.5 147.5,-188.5"/>
<text text-anchor="start" x="155.5" y="-205.3" font-family="Helvetica,sans-Serif" font-size="9.00">mappel::Estimator::</text>
<text text-anchor="middle" x="195" y="-195.3" font-family="Helvetica,sans-Serif" font-size="9.00">get_debug_stats</text>
</a>
</g>
</g>
<!-- Node1&#45;&gt;Node16 -->
<g id="edge15" class="edge"><title>Node1&#45;&gt;Node16</title>
<path fill="none" stroke="midnightblue" d="M55.381,-325.305C67.5173,-301.654 94.8967,-254.064 131,-226.5 133.433,-224.642 136.027,-222.914 138.723,-221.307"/>
<polygon fill="midnightblue" stroke="midnightblue" points="140.423,-224.367 147.61,-216.583 137.137,-218.186 140.423,-224.367"/>
</g>
<!-- Node17 -->
<g id="node17" class="node"><title>Node17</title>
<g id="a_node17"><a xlink:href="classmappel_1_1Estimator.html#a6c0b757d89033d70bdf03ad1fe6b03da" target="_top" xlink:title="mappel::Estimator::\lget_model">
<polygon fill="white" stroke="black" points="147.5,-141.5 147.5,-169.5 242.5,-169.5 242.5,-141.5 147.5,-141.5"/>
<text text-anchor="start" x="155.5" y="-158.3" font-family="Helvetica,sans-Serif" font-size="9.00">mappel::Estimator::</text>
<text text-anchor="middle" x="195" y="-148.3" font-family="Helvetica,sans-Serif" font-size="9.00">get_model</text>
</a>
</g>
</g>
<!-- Node1&#45;&gt;Node17 -->
<g id="edge16" class="edge"><title>Node1&#45;&gt;Node17</title>
<path fill="none" stroke="midnightblue" d="M51.9826,-325.264C60.2909,-294.215 84.1624,-219.883 131,-178.5 133.325,-176.446 135.848,-174.571 138.503,-172.859"/>
<polygon fill="midnightblue" stroke="midnightblue" points="140.318,-175.854 147.35,-167.929 136.911,-169.739 140.318,-175.854"/>
</g>
<!-- Node18 -->
<g id="node18" class="node"><title>Node18</title>
<g id="a_node18"><a xlink:href="classmappel_1_1Estimator.html#a876af9a1a1a6bf174c63716f3348d735" target="_top" xlink:title="mappel::Estimator::\lget_stats">
<polygon fill="white" stroke="black" points="147.5,-94.5 147.5,-122.5 242.5,-122.5 242.5,-94.5 147.5,-94.5"/>
<text text-anchor="start" x="155.5" y="-111.3" font-family="Helvetica,sans-Serif" font-size="9.00">mappel::Estimator::</text>
<text text-anchor="middle" x="195" y="-101.3" font-family="Helvetica,sans-Serif" font-size="9.00">get_stats</text>
</a>
</g>
</g>
<!-- Node1&#45;&gt;Node18 -->
<g id="edge17" class="edge"><title>Node1&#45;&gt;Node18</title>
<path fill="none" stroke="midnightblue" d="M50.1112,-325.452C55.0831,-288.471 73.4991,-187.438 131,-131.5 133.264,-129.298 135.755,-127.304 138.401,-125.499"/>
<polygon fill="midnightblue" stroke="midnightblue" points="140.384,-128.395 147.283,-120.355 136.875,-122.338 140.384,-128.395"/>
</g>
<!-- Node19 -->
<g id="node19" class="node"><title>Node19</title>
<g id="a_node19"><a xlink:href="namespacemappel_1_1methods_1_1objective_1_1openmp.html#a8223d746bf91530f8cff4ec168e50b1d" target="_top" xlink:title="Parallel relative log_likelihood calculations for a stack of images. ">
<polygon fill="white" stroke="black" points="131,-47.5 131,-75.5 259,-75.5 259,-47.5 131,-47.5"/>
<text text-anchor="start" x="139" y="-64.3" font-family="Helvetica,sans-Serif" font-size="9.00">mappel::methods::objective</text>
<text text-anchor="middle" x="195" y="-54.3" font-family="Helvetica,sans-Serif" font-size="9.00">::openmp::rllh_stack</text>
</a>
</g>
</g>
<!-- Node1&#45;&gt;Node19 -->
<g id="edge20" class="edge"><title>Node1&#45;&gt;Node19</title>
<path fill="none" stroke="midnightblue" d="M48.9221,-325.487C50.9498,-283.19 62.717,-155.368 131,-84.5 131.932,-83.5331 132.907,-82.6067 133.921,-81.719"/>
<polygon fill="midnightblue" stroke="midnightblue" points="136.278,-84.3344 142.339,-75.6448 132.182,-78.6577 136.278,-84.3344"/>
</g>
<!-- Node21 -->
<g id="node21" class="node"><title>Node21</title>
<g id="a_node21"><a xlink:href="classmappel_1_1Estimator.html#aacade4f66038545ad196edf7e8596187" target="_top" xlink:title="mappel::Estimator::\lset_model">
<polygon fill="white" stroke="black" points="147.5,-0.5 147.5,-28.5 242.5,-28.5 242.5,-0.5 147.5,-0.5"/>
<text text-anchor="start" x="155.5" y="-17.3" font-family="Helvetica,sans-Serif" font-size="9.00">mappel::Estimator::</text>
<text text-anchor="middle" x="195" y="-7.3" font-family="Helvetica,sans-Serif" font-size="9.00">set_model</text>
</a>
</g>
</g>
<!-- Node1&#45;&gt;Node21 -->
<g id="edge23" class="edge"><title>Node1&#45;&gt;Node21</title>
<path fill="none" stroke="midnightblue" d="M48.0827,-325.36C47.4683,-278.059 51.8855,-123.502 131,-37.5 133.286,-35.0149 135.863,-32.7977 138.635,-30.8196"/>
<polygon fill="midnightblue" stroke="midnightblue" points="140.641,-33.6982 147.441,-25.5736 137.059,-27.6843 140.641,-33.6982"/>
</g>
<!-- Node5&#45;&gt;Node6 -->
<g id="edge5" class="edge"><title>Node5&#45;&gt;Node6</title>
<path fill="none" stroke="midnightblue" d="M256.332,-507.805C270.541,-505.993 285.785,-504.049 300.313,-502.196"/>
<polygon fill="midnightblue" stroke="midnightblue" points="300.758,-505.668 310.235,-500.931 299.872,-498.724 300.758,-505.668"/>
</g>
<!-- Node8 -->
<g id="node8" class="node"><title>Node8</title>
<g id="a_node8"><a xlink:href="namespacemappel_1_1methods.html#a7f4a5561497c243edaa6f55fddf0ec4e" target="_top" xlink:title="mappel::methods::estimate_max">
<polygon fill="white" stroke="black" points="295,-420.5 295,-438.5 444,-438.5 444,-420.5 295,-420.5"/>
<text text-anchor="middle" x="369.5" y="-427.3" font-family="Helvetica,sans-Serif" font-size="9.00">mappel::methods::estimate_max</text>
</a>
</g>
</g>
<!-- Node7&#45;&gt;Node8 -->
<g id="edge7" class="edge"><title>Node7&#45;&gt;Node8</title>
<path fill="none" stroke="midnightblue" d="M242.681,-429.5C255.733,-429.5 270.329,-429.5 284.828,-429.5"/>
<polygon fill="midnightblue" stroke="midnightblue" points="284.829,-433 294.829,-429.5 284.829,-426 284.829,-433"/>
</g>
<!-- Node9 -->
<g id="node9" class="node"><title>Node9</title>
<g id="a_node9"><a xlink:href="namespacemappel_1_1methods.html#a0f47a66f366b6e5841f1224e839ed828" target="_top" xlink:title="mappel::methods::make\l_estimator">
<polygon fill="white" stroke="black" points="480,-415.5 480,-443.5 594,-443.5 594,-415.5 480,-415.5"/>
<text text-anchor="start" x="488" y="-432.3" font-family="Helvetica,sans-Serif" font-size="9.00">mappel::methods::make</text>
<text text-anchor="middle" x="537" y="-422.3" font-family="Helvetica,sans-Serif" font-size="9.00">_estimator</text>
</a>
</g>
</g>
<!-- Node8&#45;&gt;Node9 -->
<g id="edge8" class="edge"><title>Node8&#45;&gt;Node9</title>
<path fill="none" stroke="midnightblue" d="M444.055,-429.5C452.524,-429.5 461.124,-429.5 469.493,-429.5"/>
<polygon fill="midnightblue" stroke="midnightblue" points="469.563,-433 479.563,-429.5 469.563,-426 469.563,-433"/>
</g>
<!-- Node10 -->
<g id="node10" class="node"><title>Node10</title>
<g id="a_node10"><a xlink:href="namespacemappel.html#a610296a93ba507763bc770d39049f323" target="_top" xlink:title="mappel::istarts_with">
<polygon fill="white" stroke="black" points="630,-420.5 630,-438.5 728,-438.5 728,-420.5 630,-420.5"/>
<text text-anchor="middle" x="679" y="-427.3" font-family="Helvetica,sans-Serif" font-size="9.00">mappel::istarts_with</text>
</a>
</g>
</g>
<!-- Node9&#45;&gt;Node10 -->
<g id="edge9" class="edge"><title>Node9&#45;&gt;Node10</title>
<path fill="none" stroke="midnightblue" d="M594.137,-429.5C602.574,-429.5 611.29,-429.5 619.77,-429.5"/>
<polygon fill="midnightblue" stroke="midnightblue" points="619.961,-433 629.961,-429.5 619.961,-426 619.961,-433"/>
</g>
<!-- Node12 -->
<g id="node12" class="node"><title>Node12</title>
<g id="a_node12"><a xlink:href="namespacemappel_1_1methods.html#a83244dbe0995e8698475a12d34fb2f35" target="_top" xlink:title="mappel::methods::observed\l_information">
<polygon fill="white" stroke="black" points="304.5,-370.5 304.5,-398.5 434.5,-398.5 434.5,-370.5 304.5,-370.5"/>
<text text-anchor="start" x="312.5" y="-387.3" font-family="Helvetica,sans-Serif" font-size="9.00">mappel::methods::observed</text>
<text text-anchor="middle" x="369.5" y="-377.3" font-family="Helvetica,sans-Serif" font-size="9.00">_information</text>
</a>
</g>
</g>
<!-- Node11&#45;&gt;Node12 -->
<g id="edge11" class="edge"><title>Node11&#45;&gt;Node12</title>
<path fill="none" stroke="midnightblue" d="M247.756,-383.1C262.328,-383.269 278.473,-383.456 294.089,-383.637"/>
<polygon fill="midnightblue" stroke="midnightblue" points="294.214,-387.139 304.254,-383.755 294.295,-380.139 294.214,-387.139"/>
</g>
<!-- Node11&#45;&gt;Node13 -->
<g id="edge12" class="edge"><title>Node11&#45;&gt;Node13</title>
<path fill="none" stroke="midnightblue" d="M247.756,-368.999C265.756,-364.303 286.157,-358.981 304.997,-354.066"/>
<polygon fill="midnightblue" stroke="midnightblue" points="305.894,-357.449 314.687,-351.538 304.127,-350.676 305.894,-357.449"/>
</g>
<!-- Node19&#45;&gt;Node13 -->
<g id="edge22" class="edge"><title>Node19&#45;&gt;Node13</title>
<path fill="none" stroke="midnightblue" d="M246.701,-75.6365C251.162,-78.1344 255.358,-81.0646 259,-84.5 327.442,-149.056 355.339,-263.647 364.602,-313.368"/>
<polygon fill="midnightblue" stroke="midnightblue" points="361.157,-313.984 366.349,-323.219 368.049,-312.762 361.157,-313.984"/>
</g>
<!-- Node20 -->
<g id="node20" class="node"><title>Node20</title>
<g id="a_node20"><a xlink:href="namespacemappel_1_1methods_1_1objective_1_1openmp.html#afc8658d8593725d7de99dc533fa74274" target="_top" xlink:title="mappel::methods::objective\l::openmp::rllh_stack">
<polygon fill="white" stroke="black" points="305.5,-47.5 305.5,-75.5 433.5,-75.5 433.5,-47.5 305.5,-47.5"/>
<text text-anchor="start" x="313.5" y="-64.3" font-family="Helvetica,sans-Serif" font-size="9.00">mappel::methods::objective</text>
<text text-anchor="middle" x="369.5" y="-54.3" font-family="Helvetica,sans-Serif" font-size="9.00">::openmp::rllh_stack</text>
</a>
</g>
</g>
<!-- Node19&#45;&gt;Node20 -->
<g id="edge21" class="edge"><title>Node19&#45;&gt;Node20</title>
<path fill="none" stroke="midnightblue" d="M259.253,-61.5C270.855,-61.5 283.055,-61.5 294.928,-61.5"/>
<polygon fill="midnightblue" stroke="midnightblue" points="295.255,-65.0001 305.255,-61.5 295.254,-58.0001 295.255,-65.0001"/>
</g>
</g>
</svg>
