<?xml version="1.0" encoding="UTF-8" standalone="no"?>
<!DOCTYPE svg PUBLIC "-//W3C//DTD SVG 1.1//EN"
 "http://www.w3.org/Graphics/SVG/1.1/DTD/svg11.dtd">
<!-- Generated by graphviz version 2.38.0 (20140413.2041)
 -->
<!-- Title: mappel::PointEmitterModel::bounded_theta_stack Pages: 1 -->
<svg width="461pt" height="59pt"
 viewBox="0.00 0.00 461.00 59.00" xmlns="http://www.w3.org/2000/svg" xmlns:xlink="http://www.w3.org/1999/xlink">
<g id="graph0" class="graph" transform="scale(1 1) rotate(0) translate(4 55)">
<title>mappel::PointEmitterModel::bounded_theta_stack</title>
<polygon fill="white" stroke="none" points="-4,4 -4,-55 457,-55 457,4 -4,4"/>
<!-- Node1 -->
<g id="node1" class="node"><title>Node1</title>
<polygon fill="#bfbfbf" stroke="black" points="0,-0.5 0,-28.5 127,-28.5 127,-0.5 0,-0.5"/>
<text text-anchor="start" x="8" y="-17.3" font-family="Helvetica,sans-Serif" font-size="9.00">mappel::PointEmitterModel</text>
<text text-anchor="middle" x="63.5" y="-7.3" font-family="Helvetica,sans-Serif" font-size="9.00">::bounded_theta_stack</text>
</g>
<!-- Node2 -->
<g id="node2" class="node"><title>Node2</title>
<g id="a_node2"><a xlink:href="classmappel_1_1PointEmitterModel.html#ac342b21db8970dfa0b2809ffe5e73d06" target="_top" xlink:title="mappel::PointEmitterModel\l::bounded_theta">
<polygon fill="white" stroke="black" points="163,-22.5 163,-50.5 290,-50.5 290,-22.5 163,-22.5"/>
<text text-anchor="start" x="171" y="-39.3" font-family="Helvetica,sans-Serif" font-size="9.00">mappel::PointEmitterModel</text>
<text text-anchor="middle" x="226.5" y="-29.3" font-family="Helvetica,sans-Serif" font-size="9.00">::bounded_theta</text>
</a>
</g>
</g>
<!-- Node1&#45;&gt;Node2 -->
<g id="edge1" class="edge"><title>Node1&#45;&gt;Node2</title>
<path fill="none" stroke="midnightblue" d="M127.208,-23.0688C135.648,-24.2221 144.363,-25.413 152.956,-26.5871"/>
<polygon fill="midnightblue" stroke="midnightblue" points="152.582,-30.0684 162.963,-27.9546 153.529,-23.1329 152.582,-30.0684"/>
</g>
<!-- Node3 -->
<g id="node3" class="node"><title>Node3</title>
<g id="a_node3"><a xlink:href="classmappel_1_1PointEmitterModel.html#a97a868e842302f670ed9f9bd49416771" target="_top" xlink:title="mappel::PointEmitterModel\l::check_param_shape">
<polygon fill="white" stroke="black" points="326,-0.5 326,-28.5 453,-28.5 453,-0.5 326,-0.5"/>
<text text-anchor="start" x="334" y="-17.3" font-family="Helvetica,sans-Serif" font-size="9.00">mappel::PointEmitterModel</text>
<text text-anchor="middle" x="389.5" y="-7.3" font-family="Helvetica,sans-Serif" font-size="9.00">::check_param_shape</text>
</a>
</g>
</g>
<!-- Node1&#45;&gt;Node3 -->
<g id="edge3" class="edge"><title>Node1&#45;&gt;Node3</title>
<path fill="none" stroke="midnightblue" d="M127.028,-13.7697C138.97,-13.6573 151.371,-13.559 163,-13.5 219.444,-13.2135 233.556,-13.2135 290,-13.5 298.358,-13.5424 307.115,-13.6051 315.814,-13.6788"/>
<polygon fill="midnightblue" stroke="midnightblue" points="315.941,-17.1799 325.972,-13.7697 316.004,-10.1802 315.941,-17.1799"/>
</g>
<!-- Node2&#45;&gt;Node3 -->
<g id="edge2" class="edge"><title>Node2&#45;&gt;Node3</title>
<path fill="none" stroke="midnightblue" d="M290.208,-27.9312C298.648,-26.7779 307.363,-25.587 315.956,-24.4129"/>
<polygon fill="midnightblue" stroke="midnightblue" points="316.529,-27.8671 325.963,-23.0454 315.582,-20.9316 316.529,-27.8671"/>
</g>
</g>
</svg>
