<?xml version="1.0" encoding="UTF-8" standalone="no"?>
<!DOCTYPE svg PUBLIC "-//W3C//DTD SVG 1.1//EN"
 "http://www.w3.org/Graphics/SVG/1.1/DTD/svg11.dtd">
<!-- Generated by graphviz version 2.38.0 (20140413.2041)
 -->
<!-- Title: mappel::Gauss2DModel::operator= Pages: 1 -->
<svg width="276pt" height="141pt"
 viewBox="0.00 0.00 276.00 141.00" xmlns="http://www.w3.org/2000/svg" xmlns:xlink="http://www.w3.org/1999/xlink">
<g id="graph0" class="graph" transform="scale(1 1) rotate(0) translate(4 137)">
<title>mappel::Gauss2DModel::operator=</title>
<polygon fill="white" stroke="none" points="-4,4 -4,-137 272,-137 272,4 -4,4"/>
<!-- Node1 -->
<g id="node1" class="node"><title>Node1</title>
<polygon fill="#bfbfbf" stroke="black" points="0,-47.5 0,-75.5 116,-75.5 116,-47.5 0,-47.5"/>
<text text-anchor="start" x="8" y="-64.3" font-family="Helvetica,sans-Serif" font-size="9.00">mappel::Gauss2DModel</text>
<text text-anchor="middle" x="58" y="-54.3" font-family="Helvetica,sans-Serif" font-size="9.00">::operator=</text>
</g>
<!-- Node2 -->
<g id="node2" class="node"><title>Node2</title>
<g id="a_node2"><a xlink:href="classmappel_1_1Gauss2DModel.html#a07e9c13f8a164f26f337fcc0c2f70374" target="_top" xlink:title="mappel::Gauss2DModel\l::debug_internal_sum\l_model_y">
<polygon fill="white" stroke="black" points="152,-94.5 152,-132.5 268,-132.5 268,-94.5 152,-94.5"/>
<text text-anchor="start" x="160" y="-121.3" font-family="Helvetica,sans-Serif" font-size="9.00">mappel::Gauss2DModel</text>
<text text-anchor="start" x="160" y="-111.3" font-family="Helvetica,sans-Serif" font-size="9.00">::debug_internal_sum</text>
<text text-anchor="middle" x="210" y="-101.3" font-family="Helvetica,sans-Serif" font-size="9.00">_model_y</text>
</a>
</g>
</g>
<!-- Node1&#45;&gt;Node2 -->
<g id="edge1" class="edge"><title>Node1&#45;&gt;Node2</title>
<path fill="none" stroke="midnightblue" d="M109.289,-78.9337C123.654,-83.9135 139.381,-89.3654 154.011,-94.4373"/>
<polygon fill="midnightblue" stroke="midnightblue" points="110.187,-75.5405 99.5922,-75.5719 107.894,-82.1544 110.187,-75.5405"/>
</g>
<!-- Node3 -->
<g id="node3" class="node"><title>Node3</title>
<g id="a_node3"><a xlink:href="classmappel_1_1Gauss2DMAP.html#a45164f58c91c8eefffc0df248a7e8b7e" target="_top" xlink:title="mappel::Gauss2DMAP\l::operator=">
<polygon fill="white" stroke="black" points="155,-47.5 155,-75.5 265,-75.5 265,-47.5 155,-47.5"/>
<text text-anchor="start" x="163" y="-64.3" font-family="Helvetica,sans-Serif" font-size="9.00">mappel::Gauss2DMAP</text>
<text text-anchor="middle" x="210" y="-54.3" font-family="Helvetica,sans-Serif" font-size="9.00">::operator=</text>
</a>
</g>
</g>
<!-- Node1&#45;&gt;Node3 -->
<g id="edge2" class="edge"><title>Node1&#45;&gt;Node3</title>
<path fill="none" stroke="midnightblue" d="M126.422,-61.5C135.988,-61.5 145.72,-61.5 154.987,-61.5"/>
<polygon fill="midnightblue" stroke="midnightblue" points="126.137,-58.0001 116.136,-61.5 126.136,-65.0001 126.137,-58.0001"/>
</g>
<!-- Node4 -->
<g id="node4" class="node"><title>Node4</title>
<g id="a_node4"><a xlink:href="classmappel_1_1Gauss2DMLE.html#a31e347e3ff70644f76a5ffd69656a43f" target="_top" xlink:title="mappel::Gauss2DMLE\l::operator=">
<polygon fill="white" stroke="black" points="155.5,-0.5 155.5,-28.5 264.5,-28.5 264.5,-0.5 155.5,-0.5"/>
<text text-anchor="start" x="163.5" y="-17.3" font-family="Helvetica,sans-Serif" font-size="9.00">mappel::Gauss2DMLE</text>
<text text-anchor="middle" x="210" y="-7.3" font-family="Helvetica,sans-Serif" font-size="9.00">::operator=</text>
</a>
</g>
</g>
<!-- Node1&#45;&gt;Node4 -->
<g id="edge3" class="edge"><title>Node1&#45;&gt;Node4</title>
<path fill="none" stroke="midnightblue" d="M113.614,-44.3875C130.266,-39.1699 148.369,-33.4976 164.285,-28.5106"/>
<polygon fill="midnightblue" stroke="midnightblue" points="112.501,-41.0685 104.005,-47.3985 114.594,-47.7483 112.501,-41.0685"/>
</g>
</g>
</svg>
