<?xml version="1.0" encoding="UTF-8" standalone="no"?>
<!DOCTYPE svg PUBLIC "-//W3C//DTD SVG 1.1//EN"
 "http://www.w3.org/Graphics/SVG/1.1/DTD/svg11.dtd">
<!-- Generated by graphviz version 2.38.0 (20140413.2041)
 -->
<!-- Title: mappel::PriorMAP1DObjective::prior_grad2_update Pages: 1 -->
<svg width="313pt" height="131pt"
 viewBox="0.00 0.00 313.00 131.00" xmlns="http://www.w3.org/2000/svg" xmlns:xlink="http://www.w3.org/1999/xlink">
<g id="graph0" class="graph" transform="scale(1 1) rotate(0) translate(4 127)">
<title>mappel::PriorMAP1DObjective::prior_grad2_update</title>
<polygon fill="white" stroke="none" points="-4,4 -4,-127 309,-127 309,4 -4,4"/>
<!-- Node1 -->
<g id="node1" class="node"><title>Node1</title>
<polygon fill="#bfbfbf" stroke="black" points="0,-47.5 0,-75.5 141,-75.5 141,-47.5 0,-47.5"/>
<text text-anchor="start" x="8" y="-64.3" font-family="Helvetica,sans-Serif" font-size="9.00">mappel::PriorMAP1DObjective</text>
<text text-anchor="middle" x="70.5" y="-54.3" font-family="Helvetica,sans-Serif" font-size="9.00">::prior_grad2_update</text>
</g>
<!-- Node2 -->
<g id="node2" class="node"><title>Node2</title>
<g id="a_node2"><a xlink:href="namespacemappel.html#a6a36b8a34be04643747e178a8358251c" target="_top" xlink:title="mappel::beta_prior\l_grad2">
<polygon fill="white" stroke="black" points="194,-94.5 194,-122.5 288,-122.5 288,-94.5 194,-94.5"/>
<text text-anchor="start" x="202" y="-111.3" font-family="Helvetica,sans-Serif" font-size="9.00">mappel::beta_prior</text>
<text text-anchor="middle" x="241" y="-101.3" font-family="Helvetica,sans-Serif" font-size="9.00">_grad2</text>
</a>
</g>
</g>
<!-- Node1&#45;&gt;Node2 -->
<g id="edge1" class="edge"><title>Node1&#45;&gt;Node2</title>
<path fill="none" stroke="midnightblue" d="M122.056,-75.6015C141.544,-81.0374 163.912,-87.2765 183.893,-92.8501"/>
<polygon fill="midnightblue" stroke="midnightblue" points="183.219,-96.2954 193.791,-95.6109 185.099,-89.5528 183.219,-96.2954"/>
</g>
<!-- Node3 -->
<g id="node3" class="node"><title>Node3</title>
<g id="a_node3"><a xlink:href="namespacemappel.html#a09f684e270fef9279b5eabff96e54edb" target="_top" xlink:title="mappel::gamma_prior\l_grad2">
<polygon fill="white" stroke="black" points="187.5,-47.5 187.5,-75.5 294.5,-75.5 294.5,-47.5 187.5,-47.5"/>
<text text-anchor="start" x="195.5" y="-64.3" font-family="Helvetica,sans-Serif" font-size="9.00">mappel::gamma_prior</text>
<text text-anchor="middle" x="241" y="-54.3" font-family="Helvetica,sans-Serif" font-size="9.00">_grad2</text>
</a>
</g>
</g>
<!-- Node1&#45;&gt;Node3 -->
<g id="edge2" class="edge"><title>Node1&#45;&gt;Node3</title>
<path fill="none" stroke="midnightblue" d="M141.008,-61.5C152.998,-61.5 165.399,-61.5 177.199,-61.5"/>
<polygon fill="midnightblue" stroke="midnightblue" points="177.388,-65.0001 187.388,-61.5 177.388,-58.0001 177.388,-65.0001"/>
</g>
<!-- Node4 -->
<g id="node4" class="node"><title>Node4</title>
<g id="a_node4"><a xlink:href="namespacemappel_1_1methods_1_1objective.html#a165388f45fa850f2b12c22053296a0c2" target="_top" xlink:title="mappel::methods::objective\l::grad2">
<polygon fill="white" stroke="black" points="177,-0.5 177,-28.5 305,-28.5 305,-0.5 177,-0.5"/>
<text text-anchor="start" x="185" y="-17.3" font-family="Helvetica,sans-Serif" font-size="9.00">mappel::methods::objective</text>
<text text-anchor="middle" x="241" y="-7.3" font-family="Helvetica,sans-Serif" font-size="9.00">::grad2</text>
</a>
</g>
</g>
<!-- Node1&#45;&gt;Node4 -->
<g id="edge3" class="edge"><title>Node1&#45;&gt;Node4</title>
<path fill="none" stroke="midnightblue" d="M122.056,-47.3985C140.299,-42.3098 161.066,-36.5172 180.037,-31.2256"/>
<polygon fill="midnightblue" stroke="midnightblue" points="181.079,-34.5687 189.771,-28.5106 179.198,-27.8261 181.079,-34.5687"/>
</g>
</g>
</svg>
