<?xml version="1.0" encoding="UTF-8" standalone="no"?>
<!DOCTYPE svg PUBLIC "-//W3C//DTD SVG 1.1//EN"
 "http://www.w3.org/Graphics/SVG/1.1/DTD/svg11.dtd">
<!-- Generated by graphviz version 2.38.0 (20140413.2041)
 -->
<!-- Title: mappel::Gauss2DModel::get_stats Pages: 1 -->
<!--zoomable 178 -->
<svg id="main" version="1.1" xmlns="http://www.w3.org/2000/svg" xmlns:xlink="http://www.w3.org/1999/xlink" xml:space="preserve" onload="init(evt)">
<style type="text/css"><![CDATA[
.edge:hover path { stroke: red; }
.edge:hover polygon { stroke: red; fill: red; }
]]></style>
<script type="text/javascript"><![CDATA[
var edges = document.getElementsByTagName('g');
if (edges && edges.length) {
  for (var i=0;i<edges.length;i++) {
    if (edges[i].id.substr(0,4)=='edge') {
      edges[i].setAttribute('class','edge');
    }
  }
}
]]></script>
        <defs>
                <circle id="rim" cx="0" cy="0" r="7"/>
                <circle id="rim2" cx="0" cy="0" r="3.5"/>
                <g id="zoomPlus">
                        <use xlink:href="#rim" fill="#404040">
                                <set attributeName="fill" to="#808080" begin="zoomplus.mouseover" end="zoomplus.mouseout"/>
                        </use>
                        <path d="M-4,0h8M0,-4v8" fill="none" stroke="white" stroke-width="1.5" pointer-events="none"/>
                </g>
                <g id="zoomMin">
                        <use xlink:href="#rim" fill="#404040">
                                <set attributeName="fill" to="#808080" begin="zoomminus.mouseover" end="zoomminus.mouseout"/>
                        </use>
                        <path d="M-4,0h8" fill="none" stroke="white" stroke-width="1.5" pointer-events="none"/>
                </g>
                <g id="dirArrow">
                        <path fill="none" stroke="white" stroke-width="1.5" d="M0,-3.0v7 M-2.5,-0.5L0,-3.0L2.5,-0.5"/>
                </g>
               <g id="resetDef">
                       <use xlink:href="#rim2" fill="#404040">
                               <set attributeName="fill" to="#808080" begin="reset.mouseover" end="reset.mouseout"/>
                       </use>
               </g>
        </defs>

<script type="text/javascript">
var viewWidth = 644;
var viewHeight = 178;
var sectionId = 'dynsection-15';
</script>
<script xlink:href="svgpan.js"/>
<svg id="graph" class="graph">
<g id="viewport">
<title>mappel::Gauss2DModel::get_stats</title>
<polygon fill="white" stroke="none" points="-4,4 -4,-174 640,-174 640,4 -4,4"/>
<!-- Node1 -->
<g id="node1" class="node"><title>Node1</title>
<polygon fill="#bfbfbf" stroke="black" points="0,-70.5 0,-98.5 116,-98.5 116,-70.5 0,-70.5"/>
<text text-anchor="start" x="8" y="-87.3" font-family="Helvetica,sans-Serif" font-size="9.00">mappel::Gauss2DModel</text>
<text text-anchor="middle" x="58" y="-77.3" font-family="Helvetica,sans-Serif" font-size="9.00">::get_stats</text>
</g>
<!-- Node2 -->
<g id="node2" class="node"><title>Node2</title>
<g id="a_node2"><a xlink:href="classmappel_1_1Gauss2DModel.html#a8c486209390a402c96e6816b794cd0e6" target="_top" xlink:title="mappel::Gauss2DModel\l::get_psf_sigma">
<polygon fill="white" stroke="black" points="163.5,-141.5 163.5,-169.5 279.5,-169.5 279.5,-141.5 163.5,-141.5"/>
<text text-anchor="start" x="171.5" y="-158.3" font-family="Helvetica,sans-Serif" font-size="9.00">mappel::Gauss2DModel</text>
<text text-anchor="middle" x="221.5" y="-148.3" font-family="Helvetica,sans-Serif" font-size="9.00">::get_psf_sigma</text>
</a>
</g>
</g>
<!-- Node1&#45;&gt;Node2 -->
<g id="edge1" class="edge"><title>Node1&#45;&gt;Node2</title>
<path fill="none" stroke="midnightblue" d="M83.7653,-98.5981C102.223,-108.779 128.238,-122.448 152,-132.5 156.39,-134.357 160.987,-136.17 165.631,-137.91"/>
<polygon fill="midnightblue" stroke="midnightblue" points="164.587,-141.255 175.181,-141.372 166.972,-134.674 164.587,-141.255"/>
</g>
<!-- Node3 -->
<g id="node3" class="node"><title>Node3</title>
<g id="a_node3"><a xlink:href="classmappel_1_1MCMCAdaptor2D.html#a69362d28411ba7a8ac8d4b9c95335e44" target="_top" xlink:title="mappel::MCMCAdaptor2D\l::get_stats">
<polygon fill="white" stroke="black" points="159,-94.5 159,-122.5 284,-122.5 284,-94.5 159,-94.5"/>
<text text-anchor="start" x="167" y="-111.3" font-family="Helvetica,sans-Serif" font-size="9.00">mappel::MCMCAdaptor2D</text>
<text text-anchor="middle" x="221.5" y="-101.3" font-family="Helvetica,sans-Serif" font-size="9.00">::get_stats</text>
</a>
</g>
</g>
<!-- Node1&#45;&gt;Node3 -->
<g id="edge2" class="edge"><title>Node1&#45;&gt;Node3</title>
<path fill="none" stroke="midnightblue" d="M116.394,-93.0291C126.945,-94.597 138.078,-96.2515 148.983,-97.8721"/>
<polygon fill="midnightblue" stroke="midnightblue" points="148.505,-101.339 158.911,-99.3475 149.534,-94.4155 148.505,-101.339"/>
</g>
<!-- Node6 -->
<g id="node6" class="node"><title>Node6</title>
<g id="a_node6"><a xlink:href="classmappel_1_1ImageFormat2DBase.html#a1a1e1178943bee139617b6c25e5104f1" target="_top" xlink:title="mappel::ImageFormat2DBase\l::get_stats">
<polygon fill="white" stroke="black" points="152,-47.5 152,-75.5 291,-75.5 291,-47.5 152,-47.5"/>
<text text-anchor="start" x="160" y="-64.3" font-family="Helvetica,sans-Serif" font-size="9.00">mappel::ImageFormat2DBase</text>
<text text-anchor="middle" x="221.5" y="-54.3" font-family="Helvetica,sans-Serif" font-size="9.00">::get_stats</text>
</a>
</g>
</g>
<!-- Node1&#45;&gt;Node6 -->
<g id="edge5" class="edge"><title>Node1&#45;&gt;Node6</title>
<path fill="none" stroke="midnightblue" d="M116.394,-76.3263C124.669,-75.1477 133.303,-73.9181 141.905,-72.6931"/>
<polygon fill="midnightblue" stroke="midnightblue" points="142.557,-76.1356 151.964,-71.2606 141.57,-69.2056 142.557,-76.1356"/>
</g>
<!-- Node8 -->
<g id="node8" class="node"><title>Node8</title>
<g id="a_node8"><a xlink:href="classmappel_1_1PointEmitterModel.html#a7fd2b4b01b10bb6a493a39eb72d480cb" target="_top" xlink:title="mappel::PointEmitterModel\l::get_stats">
<polygon fill="white" stroke="black" points="158,-0.5 158,-28.5 285,-28.5 285,-0.5 158,-0.5"/>
<text text-anchor="start" x="166" y="-17.3" font-family="Helvetica,sans-Serif" font-size="9.00">mappel::PointEmitterModel</text>
<text text-anchor="middle" x="221.5" y="-7.3" font-family="Helvetica,sans-Serif" font-size="9.00">::get_stats</text>
</a>
</g>
</g>
<!-- Node1&#45;&gt;Node8 -->
<g id="edge7" class="edge"><title>Node1&#45;&gt;Node8</title>
<path fill="none" stroke="midnightblue" d="M84.5866,-70.3117C103.01,-60.4086 128.633,-47.2679 152,-37.5 156.467,-35.6327 161.144,-33.8058 165.866,-32.0493"/>
<polygon fill="midnightblue" stroke="midnightblue" points="167.348,-35.2357 175.569,-28.5529 164.975,-28.6502 167.348,-35.2357"/>
</g>
<!-- Node4 -->
<g id="node4" class="node"><title>Node4</title>
<g id="a_node4"><a xlink:href="classmappel_1_1MCMCAdaptor1D.html#ad1cb677abb1a3e214c2f6fc1e1c3cb86" target="_top" xlink:title="mappel::MCMCAdaptor1D\l::get_stats">
<polygon fill="white" stroke="black" points="334,-94.5 334,-122.5 459,-122.5 459,-94.5 334,-94.5"/>
<text text-anchor="start" x="342" y="-111.3" font-family="Helvetica,sans-Serif" font-size="9.00">mappel::MCMCAdaptor1D</text>
<text text-anchor="middle" x="396.5" y="-101.3" font-family="Helvetica,sans-Serif" font-size="9.00">::get_stats</text>
</a>
</g>
</g>
<!-- Node3&#45;&gt;Node4 -->
<g id="edge3" class="edge"><title>Node3&#45;&gt;Node4</title>
<path fill="none" stroke="midnightblue" d="M284.468,-108.5C297.168,-108.5 310.636,-108.5 323.649,-108.5"/>
<polygon fill="midnightblue" stroke="midnightblue" points="323.964,-112 333.964,-108.5 323.964,-105 323.964,-112"/>
</g>
<!-- Node5 -->
<g id="node5" class="node"><title>Node5</title>
<g id="a_node5"><a xlink:href="classmappel_1_1MCMCAdaptorBase.html#ad6054973528dfad89976882cdb50aba5" target="_top" xlink:title="mappel::MCMCAdaptorBase\l::get_stats">
<polygon fill="white" stroke="black" points="502,-94.5 502,-122.5 636,-122.5 636,-94.5 502,-94.5"/>
<text text-anchor="start" x="510" y="-111.3" font-family="Helvetica,sans-Serif" font-size="9.00">mappel::MCMCAdaptorBase</text>
<text text-anchor="middle" x="569" y="-101.3" font-family="Helvetica,sans-Serif" font-size="9.00">::get_stats</text>
</a>
</g>
</g>
<!-- Node4&#45;&gt;Node5 -->
<g id="edge4" class="edge"><title>Node4&#45;&gt;Node5</title>
<path fill="none" stroke="midnightblue" d="M459.054,-108.5C469.717,-108.5 480.916,-108.5 491.91,-108.5"/>
<polygon fill="midnightblue" stroke="midnightblue" points="491.928,-112 501.928,-108.5 491.928,-105 491.928,-112"/>
</g>
<!-- Node7 -->
<g id="node7" class="node"><title>Node7</title>
<g id="a_node7"><a xlink:href="classmappel_1_1ImageFormat2DBase.html#a4f9e0d332462ff53678c03700666a564" target="_top" xlink:title="mappel::ImageFormat2DBase\l::get_num_pixels">
<polygon fill="white" stroke="black" points="327,-47.5 327,-75.5 466,-75.5 466,-47.5 327,-47.5"/>
<text text-anchor="start" x="335" y="-64.3" font-family="Helvetica,sans-Serif" font-size="9.00">mappel::ImageFormat2DBase</text>
<text text-anchor="middle" x="396.5" y="-54.3" font-family="Helvetica,sans-Serif" font-size="9.00">::get_num_pixels</text>
</a>
</g>
</g>
<!-- Node6&#45;&gt;Node7 -->
<g id="edge6" class="edge"><title>Node6&#45;&gt;Node7</title>
<path fill="none" stroke="midnightblue" d="M291.371,-61.5C299.678,-61.5 308.211,-61.5 316.647,-61.5"/>
<polygon fill="midnightblue" stroke="midnightblue" points="316.866,-65.0001 326.866,-61.5 316.866,-58.0001 316.866,-65.0001"/>
</g>
</g>
</svg>
        <g id="navigator" transform="translate(0 0)" fill="#404254">
                <rect fill="#f2f5e9" fill-opacity="0.5" stroke="#606060" stroke-width=".5" x="0" y="0" width="60" height="60"/>
                <use id="zoomplus" xlink:href="#zoomPlus" x="17" y="9" onmousedown="handleZoom(evt,'in')"/>
                <use id="zoomminus" xlink:href="#zoomMin" x="42" y="9" onmousedown="handleZoom(evt,'out')"/>
                <use id="reset" xlink:href="#resetDef" x="30" y="36" onmousedown="handleReset()"/>
                <g id="arrowUp" xlink:href="#dirArrow" transform="translate(30 24)" onmousedown="handlePan(0,-1)">
                  <use xlink:href="#rim" fill="#404040">
                        <set attributeName="fill" to="#808080" begin="arrowUp.mouseover" end="arrowUp.mouseout"/>
                  </use>
                  <path fill="none" stroke="white" stroke-width="1.5" d="M0,-3.0v7 M-2.5,-0.5L0,-3.0L2.5,-0.5"/>
                </g>
                <g id="arrowRight" xlink:href="#dirArrow" transform="rotate(90) translate(36 -43)" onmousedown="handlePan(1,0)">
                  <use xlink:href="#rim" fill="#404040">
                        <set attributeName="fill" to="#808080" begin="arrowRight.mouseover" end="arrowRight.mouseout"/>
                  </use>
                  <path fill="none" stroke="white" stroke-width="1.5" d="M0,-3.0v7 M-2.5,-0.5L0,-3.0L2.5,-0.5"/>
                </g>
                <g id="arrowDown" xlink:href="#dirArrow" transform="rotate(180) translate(-30 -48)" onmousedown="handlePan(0,1)">
                  <use xlink:href="#rim" fill="#404040">
                        <set attributeName="fill" to="#808080" begin="arrowDown.mouseover" end="arrowDown.mouseout"/>
                  </use>
                  <path fill="none" stroke="white" stroke-width="1.5" d="M0,-3.0v7 M-2.5,-0.5L0,-3.0L2.5,-0.5"/>
                </g>
                <g id="arrowLeft" xlink:href="#dirArrow" transform="rotate(270) translate(-36 17)" onmousedown="handlePan(-1,0)">
                  <use xlink:href="#rim" fill="#404040">
                        <set attributeName="fill" to="#808080" begin="arrowLeft.mouseover" end="arrowLeft.mouseout"/>
                  </use>
                  <path fill="none" stroke="white" stroke-width="1.5" d="M0,-3.0v7 M-2.5,-0.5L0,-3.0L2.5,-0.5"/>
                </g>
        </g>
        <svg viewBox="0 0 15 15" width="100%" height="30px" preserveAspectRatio="xMaxYMin meet">
         <g id="arrow_out" transform="scale(0.3 0.3)">
          <a xlink:href="classmappel_1_1Gauss2DModel_a8aecb8960e94b03499110e08f5d18c7f_cgraph_org.svg" target="_base">
           <rect id="button" ry="5" rx="5" y="6" x="6" height="38" width="38"
                fill="#f2f5e9" fill-opacity="0.5" stroke="#606060" stroke-width="1.0"/>
           <path id="arrow"
             d="M 11.500037,31.436501 C 11.940474,20.09759 22.043105,11.32322 32.158766,21.979434 L 37.068811,17.246167 C 37.068811,17.246167 37.088388,32 37.088388,32 L 22.160133,31.978069 C 22.160133,31.978069 26.997745,27.140456 26.997745,27.140456 C 18.528582,18.264221 13.291696,25.230495 11.500037,31.436501 z"
             style="fill:#404040;"/>
          </a>
         </g>
        </svg>
</svg>
