<?xml version="1.0" encoding="UTF-8" standalone="no"?>
<!DOCTYPE svg PUBLIC "-//W3C//DTD SVG 1.1//EN"
 "http://www.w3.org/Graphics/SVG/1.1/DTD/svg11.dtd">
<!-- Generated by graphviz version 2.38.0 (20140413.2041)
 -->
<!-- Title: mappel::Gauss2DsMLE::Gauss2DsMLE Pages: 1 -->
<svg width="630pt" height="208pt"
 viewBox="0.00 0.00 630.00 208.00" xmlns="http://www.w3.org/2000/svg" xmlns:xlink="http://www.w3.org/1999/xlink">
<g id="graph0" class="graph" transform="scale(1 1) rotate(0) translate(4 204)">
<title>mappel::Gauss2DsMLE::Gauss2DsMLE</title>
<polygon fill="white" stroke="none" points="-4,4 -4,-204 626,-204 626,4 -4,4"/>
<!-- Node1 -->
<g id="node1" class="node"><title>Node1</title>
<polygon fill="#bfbfbf" stroke="black" points="0,-134.5 0,-162.5 113,-162.5 113,-134.5 0,-134.5"/>
<text text-anchor="start" x="8" y="-151.3" font-family="Helvetica,sans-Serif" font-size="9.00">mappel::Gauss2DsMLE</text>
<text text-anchor="middle" x="56.5" y="-141.3" font-family="Helvetica,sans-Serif" font-size="9.00">::Gauss2DsMLE</text>
</g>
<!-- Node2 -->
<g id="node2" class="node"><title>Node2</title>
<g id="a_node2"><a xlink:href="classmappel_1_1Gauss2DsModel.html#ad4bdfddccbc2a1053ac1f10199a4cb3b" target="_top" xlink:title="mappel::Gauss2DsModel\l::compute_max_sigma_ratio">
<polygon fill="white" stroke="black" points="149,-158.5 149,-186.5 281,-186.5 281,-158.5 149,-158.5"/>
<text text-anchor="start" x="157" y="-175.3" font-family="Helvetica,sans-Serif" font-size="9.00">mappel::Gauss2DsModel</text>
<text text-anchor="middle" x="215" y="-165.3" font-family="Helvetica,sans-Serif" font-size="9.00">::compute_max_sigma_ratio</text>
</a>
</g>
</g>
<!-- Node1&#45;&gt;Node2 -->
<g id="edge1" class="edge"><title>Node1&#45;&gt;Node2</title>
<path fill="none" stroke="midnightblue" d="M113.117,-157.029C121.452,-158.307 130.162,-159.643 138.822,-160.971"/>
<polygon fill="midnightblue" stroke="midnightblue" points="138.525,-164.466 148.94,-162.523 139.586,-157.547 138.525,-164.466"/>
</g>
<!-- Node3 -->
<g id="node3" class="node"><title>Node3</title>
<g id="a_node3"><a xlink:href="classmappel_1_1Gauss2DsModel.html#a5f730333cb51b9586892cfd5bb566bf1" target="_top" xlink:title="mappel::Gauss2DsModel\l::make_default_prior">
<polygon fill="white" stroke="black" points="155,-111.5 155,-139.5 275,-139.5 275,-111.5 155,-111.5"/>
<text text-anchor="start" x="163" y="-128.3" font-family="Helvetica,sans-Serif" font-size="9.00">mappel::Gauss2DsModel</text>
<text text-anchor="middle" x="215" y="-118.3" font-family="Helvetica,sans-Serif" font-size="9.00">::make_default_prior</text>
</a>
</g>
</g>
<!-- Node1&#45;&gt;Node3 -->
<g id="edge2" class="edge"><title>Node1&#45;&gt;Node3</title>
<path fill="none" stroke="midnightblue" d="M113.117,-140.326C123.37,-138.819 134.19,-137.229 144.787,-135.672"/>
<polygon fill="midnightblue" stroke="midnightblue" points="145.467,-139.11 154.851,-134.193 144.449,-132.184 145.467,-139.11"/>
</g>
<!-- Node4 -->
<g id="node4" class="node"><title>Node4</title>
<g id="a_node4"><a xlink:href="namespacemappel.html#a610296a93ba507763bc770d39049f323" target="_top" xlink:title="mappel::istarts_with">
<polygon fill="white" stroke="black" points="328,-163.5 328,-181.5 426,-181.5 426,-163.5 328,-163.5"/>
<text text-anchor="middle" x="377" y="-170.3" font-family="Helvetica,sans-Serif" font-size="9.00">mappel::istarts_with</text>
</a>
</g>
</g>
<!-- Node3&#45;&gt;Node4 -->
<g id="edge3" class="edge"><title>Node3&#45;&gt;Node4</title>
<path fill="none" stroke="midnightblue" d="M264.005,-139.602C286.835,-146.308 313.826,-154.236 335.591,-160.63"/>
<polygon fill="midnightblue" stroke="midnightblue" points="334.608,-163.989 345.189,-163.449 336.581,-157.273 334.608,-163.989"/>
</g>
<!-- Node5 -->
<g id="node5" class="node"><title>Node5</title>
<g id="a_node5"><a xlink:href="classmappel_1_1Gauss2DsModel.html#aaad8b5a9355f37ecac6763acbf60bfe3" target="_top" xlink:title="mappel::Gauss2DsModel\l::make_default_prior\l_beta_position">
<polygon fill="white" stroke="black" points="317,-49.5 317,-87.5 437,-87.5 437,-49.5 317,-49.5"/>
<text text-anchor="start" x="325" y="-76.3" font-family="Helvetica,sans-Serif" font-size="9.00">mappel::Gauss2DsModel</text>
<text text-anchor="start" x="325" y="-66.3" font-family="Helvetica,sans-Serif" font-size="9.00">::make_default_prior</text>
<text text-anchor="middle" x="377" y="-56.3" font-family="Helvetica,sans-Serif" font-size="9.00">_beta_position</text>
</a>
</g>
</g>
<!-- Node3&#45;&gt;Node5 -->
<g id="edge4" class="edge"><title>Node3&#45;&gt;Node5</title>
<path fill="none" stroke="midnightblue" d="M255.551,-111.41C272.809,-105.262 293.475,-97.8996 312.777,-91.0233"/>
<polygon fill="midnightblue" stroke="midnightblue" points="314.174,-94.2409 322.42,-87.5879 311.825,-87.6469 314.174,-94.2409"/>
</g>
<!-- Node9 -->
<g id="node9" class="node"><title>Node9</title>
<g id="a_node9"><a xlink:href="classmappel_1_1Gauss2DsModel.html#a19b5d93feda4f83a9b1b8b6df0e2ebc5" target="_top" xlink:title="mappel::Gauss2DsModel\l::make_default_prior\l_normal_position">
<polygon fill="white" stroke="black" points="317,-106.5 317,-144.5 437,-144.5 437,-106.5 317,-106.5"/>
<text text-anchor="start" x="325" y="-133.3" font-family="Helvetica,sans-Serif" font-size="9.00">mappel::Gauss2DsModel</text>
<text text-anchor="start" x="325" y="-123.3" font-family="Helvetica,sans-Serif" font-size="9.00">::make_default_prior</text>
<text text-anchor="middle" x="377" y="-113.3" font-family="Helvetica,sans-Serif" font-size="9.00">_normal_position</text>
</a>
</g>
</g>
<!-- Node3&#45;&gt;Node9 -->
<g id="edge8" class="edge"><title>Node3&#45;&gt;Node9</title>
<path fill="none" stroke="midnightblue" d="M275.124,-125.5C285.445,-125.5 296.265,-125.5 306.828,-125.5"/>
<polygon fill="midnightblue" stroke="midnightblue" points="306.853,-129 316.853,-125.5 306.852,-122 306.853,-129"/>
</g>
<!-- Node6 -->
<g id="node6" class="node"><title>Node6</title>
<g id="a_node6"><a xlink:href="classmappel_1_1PointEmitterModel.html#a4517e887a22007bd2e03650dcb853c92" target="_top" xlink:title="mappel::PointEmitterModel\l::make_prior_component\l_intensity">
<polygon fill="white" stroke="black" points="484,-104.5 484,-142.5 611,-142.5 611,-104.5 484,-104.5"/>
<text text-anchor="start" x="492" y="-131.3" font-family="Helvetica,sans-Serif" font-size="9.00">mappel::PointEmitterModel</text>
<text text-anchor="start" x="492" y="-121.3" font-family="Helvetica,sans-Serif" font-size="9.00">::make_prior_component</text>
<text text-anchor="middle" x="547.5" y="-111.3" font-family="Helvetica,sans-Serif" font-size="9.00">_intensity</text>
</a>
</g>
</g>
<!-- Node5&#45;&gt;Node6 -->
<g id="edge5" class="edge"><title>Node5&#45;&gt;Node6</title>
<path fill="none" stroke="midnightblue" d="M436.46,-87.582C450.053,-92.0187 464.636,-96.7789 478.597,-101.336"/>
<polygon fill="midnightblue" stroke="midnightblue" points="477.551,-104.676 488.143,-104.452 479.723,-98.0215 477.551,-104.676"/>
</g>
<!-- Node7 -->
<g id="node7" class="node"><title>Node7</title>
<g id="a_node7"><a xlink:href="classmappel_1_1PointEmitterModel.html#ad4d563dd11df8c3daf83890374807185" target="_top" xlink:title="mappel::PointEmitterModel\l::make_prior_component\l_position_beta">
<polygon fill="white" stroke="black" points="484,-0.5 484,-38.5 611,-38.5 611,-0.5 484,-0.5"/>
<text text-anchor="start" x="492" y="-27.3" font-family="Helvetica,sans-Serif" font-size="9.00">mappel::PointEmitterModel</text>
<text text-anchor="start" x="492" y="-17.3" font-family="Helvetica,sans-Serif" font-size="9.00">::make_prior_component</text>
<text text-anchor="middle" x="547.5" y="-7.3" font-family="Helvetica,sans-Serif" font-size="9.00">_position_beta</text>
</a>
</g>
</g>
<!-- Node5&#45;&gt;Node7 -->
<g id="edge6" class="edge"><title>Node5&#45;&gt;Node7</title>
<path fill="none" stroke="midnightblue" d="M437.407,-51.2244C449.294,-47.7675 461.906,-44.0999 474.174,-40.5324"/>
<polygon fill="midnightblue" stroke="midnightblue" points="475.294,-43.8519 483.919,-37.6987 473.339,-37.1304 475.294,-43.8519"/>
</g>
<!-- Node8 -->
<g id="node8" class="node"><title>Node8</title>
<g id="a_node8"><a xlink:href="classmappel_1_1PointEmitterModel.html#a6fa9641db2d58329c5225e76427e3219" target="_top" xlink:title="mappel::PointEmitterModel\l::make_prior_component_sigma">
<polygon fill="white" stroke="black" points="473,-57.5 473,-85.5 622,-85.5 622,-57.5 473,-57.5"/>
<text text-anchor="start" x="481" y="-74.3" font-family="Helvetica,sans-Serif" font-size="9.00">mappel::PointEmitterModel</text>
<text text-anchor="middle" x="547.5" y="-64.3" font-family="Helvetica,sans-Serif" font-size="9.00">::make_prior_component_sigma</text>
</a>
</g>
</g>
<!-- Node5&#45;&gt;Node8 -->
<g id="edge7" class="edge"><title>Node5&#45;&gt;Node8</title>
<path fill="none" stroke="midnightblue" d="M437.407,-69.5577C445.647,-69.7044 454.236,-69.8573 462.816,-70.0101"/>
<polygon fill="midnightblue" stroke="midnightblue" points="462.804,-73.5103 472.864,-70.189 462.928,-66.5114 462.804,-73.5103"/>
</g>
<!-- Node9&#45;&gt;Node6 -->
<g id="edge9" class="edge"><title>Node9&#45;&gt;Node6</title>
<path fill="none" stroke="midnightblue" d="M437.407,-124.795C449.177,-124.655 461.657,-124.507 473.81,-124.363"/>
<polygon fill="midnightblue" stroke="midnightblue" points="473.961,-127.861 483.919,-124.243 473.878,-120.862 473.961,-127.861"/>
</g>
<!-- Node9&#45;&gt;Node8 -->
<g id="edge11" class="edge"><title>Node9&#45;&gt;Node8</title>
<path fill="none" stroke="midnightblue" d="M437.407,-106.462C455.554,-100.646 475.391,-94.2886 493.113,-88.6091"/>
<polygon fill="midnightblue" stroke="midnightblue" points="494.263,-91.9162 502.717,-85.5312 492.126,-85.2501 494.263,-91.9162"/>
</g>
<!-- Node10 -->
<g id="node10" class="node"><title>Node10</title>
<g id="a_node10"><a xlink:href="classmappel_1_1PointEmitterModel.html#ab99350cf74097c558f7a93b79e7a44c3" target="_top" xlink:title="mappel::PointEmitterModel\l::make_prior_component\l_position_normal">
<polygon fill="white" stroke="black" points="484,-161.5 484,-199.5 611,-199.5 611,-161.5 484,-161.5"/>
<text text-anchor="start" x="492" y="-188.3" font-family="Helvetica,sans-Serif" font-size="9.00">mappel::PointEmitterModel</text>
<text text-anchor="start" x="492" y="-178.3" font-family="Helvetica,sans-Serif" font-size="9.00">::make_prior_component</text>
<text text-anchor="middle" x="547.5" y="-168.3" font-family="Helvetica,sans-Serif" font-size="9.00">_position_normal</text>
</a>
</g>
</g>
<!-- Node9&#45;&gt;Node10 -->
<g id="edge10" class="edge"><title>Node9&#45;&gt;Node10</title>
<path fill="none" stroke="midnightblue" d="M436.46,-144.582C450.053,-149.019 464.636,-153.779 478.597,-158.336"/>
<polygon fill="midnightblue" stroke="midnightblue" points="477.551,-161.676 488.143,-161.452 479.723,-155.021 477.551,-161.676"/>
</g>
</g>
</svg>
