<?xml version="1.0" encoding="UTF-8" standalone="no"?>
<!DOCTYPE svg PUBLIC "-//W3C//DTD SVG 1.1//EN"
 "http://www.w3.org/Graphics/SVG/1.1/DTD/svg11.dtd">
<!-- Generated by graphviz version 2.38.0 (20140413.2041)
 -->
<!-- Title: mappel::MCMCAdaptor2D Pages: 1 -->
<svg width="288pt" height="270pt"
 viewBox="0.00 0.00 287.50 270.00" xmlns="http://www.w3.org/2000/svg" xmlns:xlink="http://www.w3.org/1999/xlink">
<g id="graph0" class="graph" transform="scale(1 1) rotate(0) translate(4 266)">
<title>mappel::MCMCAdaptor2D</title>
<polygon fill="white" stroke="none" points="-4,4 -4,-266 283.5,-266 283.5,4 -4,4"/>
<!-- Node1 -->
<g id="node1" class="node"><title>Node1</title>
<polygon fill="#bfbfbf" stroke="black" points="112,-0.5 112,-18.5 237,-18.5 237,-0.5 112,-0.5"/>
<text text-anchor="middle" x="174.5" y="-7.3" font-family="Helvetica,sans-Serif" font-size="9.00">mappel::MCMCAdaptor2D</text>
</g>
<!-- Node2 -->
<g id="node2" class="node"><title>Node2</title>
<g id="a_node2"><a xlink:href="classmappel_1_1MCMCAdaptor1D.html" target="_top" xlink:title="mappel::MCMCAdaptor1D">
<polygon fill="white" stroke="black" points="112,-56.5 112,-74.5 237,-74.5 237,-56.5 112,-56.5"/>
<text text-anchor="middle" x="174.5" y="-63.3" font-family="Helvetica,sans-Serif" font-size="9.00">mappel::MCMCAdaptor1D</text>
</a>
</g>
</g>
<!-- Node2&#45;&gt;Node1 -->
<g id="edge1" class="edge"><title>Node2&#45;&gt;Node1</title>
<path fill="none" stroke="midnightblue" d="M174.5,-45.8288C174.5,-36.5774 174.5,-25.8798 174.5,-18.7014"/>
<polygon fill="midnightblue" stroke="midnightblue" points="171,-46.0625 174.5,-56.0625 178,-46.0625 171,-46.0625"/>
</g>
<!-- Node3 -->
<g id="node3" class="node"><title>Node3</title>
<g id="a_node3"><a xlink:href="classmappel_1_1PointEmitterModel.html" target="_top" xlink:title="A virtual Base type for point emitter localization models. ">
<polygon fill="white" stroke="black" points="0,-112.5 0,-130.5 127,-130.5 127,-112.5 0,-112.5"/>
<text text-anchor="middle" x="63.5" y="-119.3" font-family="Helvetica,sans-Serif" font-size="9.00">mappel::PointEmitterModel</text>
</a>
</g>
</g>
<!-- Node3&#45;&gt;Node2 -->
<g id="edge2" class="edge"><title>Node3&#45;&gt;Node2</title>
<path fill="none" stroke="midnightblue" d="M89.4249,-107.888C110.543,-97.614 139.732,-83.414 157.847,-74.6017"/>
<polygon fill="midnightblue" stroke="midnightblue" points="87.8197,-104.777 80.3585,-112.299 90.882,-111.071 87.8197,-104.777"/>
</g>
<!-- Node4 -->
<g id="node4" class="node"><title>Node4</title>
<polygon fill="white" stroke="#bfbfbf" points="3,-177.5 3,-195.5 80,-195.5 80,-177.5 3,-177.5"/>
<text text-anchor="middle" x="41.5" y="-184.3" font-family="Helvetica,sans-Serif" font-size="9.00">CompositeDist</text>
</g>
<!-- Node4&#45;&gt;Node3 -->
<g id="edge3" class="edge"><title>Node4&#45;&gt;Node3</title>
<path fill="none" stroke="#9a32cd" stroke-dasharray="5,2" d="M47.7328,-167.652C51.9963,-155.442 57.4445,-139.841 60.6927,-130.539"/>
<polygon fill="#9a32cd" stroke="#9a32cd" points="44.3687,-166.669 44.3761,-177.264 50.9773,-168.977 44.3687,-166.669"/>
<text text-anchor="middle" x="65.5" y="-151.8" font-family="Helvetica,sans-Serif" font-size="9.00"> prior</text>
</g>
<!-- Node5 -->
<g id="node5" class="node"><title>Node5</title>
<g id="a_node5"><a xlink:title="STL class. ">
<polygon fill="white" stroke="#bfbfbf" points="98.5,-177.5 98.5,-195.5 154.5,-195.5 154.5,-177.5 98.5,-177.5"/>
<text text-anchor="middle" x="126.5" y="-184.3" font-family="Helvetica,sans-Serif" font-size="9.00">std::string</text>
</a>
</g>
</g>
<!-- Node5&#45;&gt;Node3 -->
<g id="edge4" class="edge"><title>Node5&#45;&gt;Node3</title>
<path fill="none" stroke="#9a32cd" stroke-dasharray="5,2" d="M111.187,-170.187C98.6802,-157.68 81.4986,-140.499 71.539,-130.539"/>
<polygon fill="#9a32cd" stroke="#9a32cd" points="108.718,-172.668 118.264,-177.264 113.668,-167.718 108.718,-172.668"/>
<text text-anchor="middle" x="162" y="-151.8" font-family="Helvetica,sans-Serif" font-size="9.00"> DefaultSeperableInitEstimator</text>
</g>
<!-- Node6 -->
<g id="node6" class="node"><title>Node6</title>
<g id="a_node6"><a xlink:title="STL class. ">
<polygon fill="white" stroke="#bfbfbf" points="82.5,-233.5 82.5,-261.5 170.5,-261.5 170.5,-233.5 82.5,-233.5"/>
<text text-anchor="start" x="90.5" y="-250.3" font-family="Helvetica,sans-Serif" font-size="9.00">std::basic_string&lt;</text>
<text text-anchor="middle" x="126.5" y="-240.3" font-family="Helvetica,sans-Serif" font-size="9.00"> char &gt;</text>
</a>
</g>
</g>
<!-- Node6&#45;&gt;Node5 -->
<g id="edge5" class="edge"><title>Node6&#45;&gt;Node5</title>
<path fill="none" stroke="midnightblue" d="M126.5,-223.386C126.5,-213.594 126.5,-202.816 126.5,-195.653"/>
<polygon fill="midnightblue" stroke="midnightblue" points="123,-223.406 126.5,-233.406 130,-223.406 123,-223.406"/>
</g>
<!-- Node7 -->
<g id="node7" class="node"><title>Node7</title>
<g id="a_node7"><a xlink:href="classmappel_1_1MCMCAdaptorBase.html" target="_top" xlink:title="mappel::MCMCAdaptorBase">
<polygon fill="white" stroke="black" points="145.5,-112.5 145.5,-130.5 279.5,-130.5 279.5,-112.5 145.5,-112.5"/>
<text text-anchor="middle" x="212.5" y="-119.3" font-family="Helvetica,sans-Serif" font-size="9.00">mappel::MCMCAdaptorBase</text>
</a>
</g>
</g>
<!-- Node7&#45;&gt;Node2 -->
<g id="edge6" class="edge"><title>Node7&#45;&gt;Node2</title>
<path fill="none" stroke="midnightblue" d="M200.634,-103.638C193.854,-94.0034 185.656,-82.3531 180.271,-74.7014"/>
<polygon fill="midnightblue" stroke="midnightblue" points="197.945,-105.899 206.562,-112.062 203.67,-101.87 197.945,-105.899"/>
</g>
</g>
</svg>
