<?xml version="1.0" encoding="UTF-8" standalone="no"?>
<!DOCTYPE svg PUBLIC "-//W3C//DTD SVG 1.1//EN"
 "http://www.w3.org/Graphics/SVG/1.1/DTD/svg11.dtd">
<!-- Generated by graphviz version 2.38.0 (20140413.2041)
 -->
<!-- Title: mappel::Gauss2DModel::set_psf_sigma Pages: 1 -->
<svg width="439pt" height="58pt"
 viewBox="0.00 0.00 439.00 58.00" xmlns="http://www.w3.org/2000/svg" xmlns:xlink="http://www.w3.org/1999/xlink">
<g id="graph0" class="graph" transform="scale(1 1) rotate(0) translate(4 54)">
<title>mappel::Gauss2DModel::set_psf_sigma</title>
<polygon fill="white" stroke="none" points="-4,4 -4,-54 435,-54 435,4 -4,4"/>
<!-- Node1 -->
<g id="node1" class="node"><title>Node1</title>
<polygon fill="#bfbfbf" stroke="black" points="0,-21.5 0,-49.5 116,-49.5 116,-21.5 0,-21.5"/>
<text text-anchor="start" x="8" y="-38.3" font-family="Helvetica,sans-Serif" font-size="9.00">mappel::Gauss2DModel</text>
<text text-anchor="middle" x="58" y="-28.3" font-family="Helvetica,sans-Serif" font-size="9.00">::set_psf_sigma</text>
</g>
<!-- Node2 -->
<g id="node2" class="node"><title>Node2</title>
<g id="a_node2"><a xlink:href="classmappel_1_1PointEmitterModel.html#a01ce8d6358acbd2575be519dff1df89b" target="_top" xlink:title="mappel::PointEmitterModel\l::check_psf_sigma">
<polygon fill="white" stroke="black" points="304,-21.5 304,-49.5 431,-49.5 431,-21.5 304,-21.5"/>
<text text-anchor="start" x="312" y="-38.3" font-family="Helvetica,sans-Serif" font-size="9.00">mappel::PointEmitterModel</text>
<text text-anchor="middle" x="367.5" y="-28.3" font-family="Helvetica,sans-Serif" font-size="9.00">::check_psf_sigma</text>
</a>
</g>
</g>
<!-- Node1&#45;&gt;Node2 -->
<g id="edge1" class="edge"><title>Node1&#45;&gt;Node2</title>
<path fill="none" stroke="midnightblue" d="M116.045,-37.6309C127.926,-37.9931 140.37,-38.3125 152,-38.5 203.549,-39.3312 216.45,-39.2848 268,-38.5 276.361,-38.3727 285.12,-38.1847 293.819,-37.9637"/>
<polygon fill="midnightblue" stroke="midnightblue" points="294.075,-41.4582 303.978,-37.6909 293.887,-34.4607 294.075,-41.4582"/>
</g>
<!-- Node3 -->
<g id="node3" class="node"><title>Node3</title>
<g id="a_node3"><a xlink:href="classmappel_1_1Gauss1DModel.html#a5c09d4cf98de58fb67d881b560e6a3e8" target="_top" xlink:title="mappel::Gauss1DModel\l::set_psf_sigma">
<polygon fill="white" stroke="black" points="152,-0.5 152,-28.5 268,-28.5 268,-0.5 152,-0.5"/>
<text text-anchor="start" x="160" y="-17.3" font-family="Helvetica,sans-Serif" font-size="9.00">mappel::Gauss1DModel</text>
<text text-anchor="middle" x="210" y="-7.3" font-family="Helvetica,sans-Serif" font-size="9.00">::set_psf_sigma</text>
</a>
</g>
</g>
<!-- Node1&#45;&gt;Node3 -->
<g id="edge2" class="edge"><title>Node1&#45;&gt;Node3</title>
<path fill="none" stroke="midnightblue" d="M116.136,-27.5009C124.468,-26.3345 133.111,-25.1245 141.622,-23.933"/>
<polygon fill="midnightblue" stroke="midnightblue" points="142.107,-27.3992 151.525,-22.5464 141.137,-20.4668 142.107,-27.3992"/>
</g>
<!-- Node3&#45;&gt;Node2 -->
<g id="edge3" class="edge"><title>Node3&#45;&gt;Node2</title>
<path fill="none" stroke="midnightblue" d="M268.019,-22.2004C276.43,-23.3362 285.19,-24.5192 293.864,-25.6907"/>
<polygon fill="midnightblue" stroke="midnightblue" points="293.604,-29.1872 303.982,-27.0571 294.54,-22.2501 293.604,-29.1872"/>
</g>
</g>
</svg>
