<?xml version="1.0" encoding="UTF-8" standalone="no"?>
<!DOCTYPE svg PUBLIC "-//W3C//DTD SVG 1.1//EN"
 "http://www.w3.org/Graphics/SVG/1.1/DTD/svg11.dtd">
<!-- Generated by graphviz version 2.38.0 (20140413.2041)
 -->
<!-- Title: mappel::Gauss2DsModel::operator= Pages: 1 -->
<!--zoomable 131 -->
<svg id="main" version="1.1" xmlns="http://www.w3.org/2000/svg" xmlns:xlink="http://www.w3.org/1999/xlink" xml:space="preserve" onload="init(evt)">
<style type="text/css"><![CDATA[
.edge:hover path { stroke: red; }
.edge:hover polygon { stroke: red; fill: red; }
]]></style>
<script type="text/javascript"><![CDATA[
var edges = document.getElementsByTagName('g');
if (edges && edges.length) {
  for (var i=0;i<edges.length;i++) {
    if (edges[i].id.substr(0,4)=='edge') {
      edges[i].setAttribute('class','edge');
    }
  }
}
]]></script>
        <defs>
                <circle id="rim" cx="0" cy="0" r="7"/>
                <circle id="rim2" cx="0" cy="0" r="3.5"/>
                <g id="zoomPlus">
                        <use xlink:href="#rim" fill="#404040">
                                <set attributeName="fill" to="#808080" begin="zoomplus.mouseover" end="zoomplus.mouseout"/>
                        </use>
                        <path d="M-4,0h8M0,-4v8" fill="none" stroke="white" stroke-width="1.5" pointer-events="none"/>
                </g>
                <g id="zoomMin">
                        <use xlink:href="#rim" fill="#404040">
                                <set attributeName="fill" to="#808080" begin="zoomminus.mouseover" end="zoomminus.mouseout"/>
                        </use>
                        <path d="M-4,0h8" fill="none" stroke="white" stroke-width="1.5" pointer-events="none"/>
                </g>
                <g id="dirArrow">
                        <path fill="none" stroke="white" stroke-width="1.5" d="M0,-3.0v7 M-2.5,-0.5L0,-3.0L2.5,-0.5"/>
                </g>
               <g id="resetDef">
                       <use xlink:href="#rim2" fill="#404040">
                               <set attributeName="fill" to="#808080" begin="reset.mouseover" end="reset.mouseout"/>
                       </use>
               </g>
        </defs>

<script type="text/javascript">
var viewWidth = 617;
var viewHeight = 131;
var sectionId = 'dynsection-48';
</script>
<script xlink:href="svgpan.js"/>
<svg id="graph" class="graph">
<g id="viewport">
<title>mappel::Gauss2DsModel::operator=</title>
<polygon fill="white" stroke="none" points="-4,4 -4,-127 613,-127 613,4 -4,4"/>
<!-- Node1 -->
<g id="node1" class="node"><title>Node1</title>
<polygon fill="#bfbfbf" stroke="black" points="0,-23.5 0,-51.5 120,-51.5 120,-23.5 0,-23.5"/>
<text text-anchor="start" x="8" y="-40.3" font-family="Helvetica,sans-Serif" font-size="9.00">mappel::Gauss2DsModel</text>
<text text-anchor="middle" x="60" y="-30.3" font-family="Helvetica,sans-Serif" font-size="9.00">::operator=</text>
</g>
<!-- Node2 -->
<g id="node2" class="node"><title>Node2</title>
<g id="a_node2"><a xlink:href="classmappel_1_1Gauss2DsModel.html#a11f03c648095b6d7dd5c38c3a5eca2dc" target="_top" xlink:title="mappel::Gauss2DsModel\l::get_max_sigma">
<polygon fill="white" stroke="black" points="160.5,-47.5 160.5,-75.5 280.5,-75.5 280.5,-47.5 160.5,-47.5"/>
<text text-anchor="start" x="168.5" y="-64.3" font-family="Helvetica,sans-Serif" font-size="9.00">mappel::Gauss2DsModel</text>
<text text-anchor="middle" x="220.5" y="-54.3" font-family="Helvetica,sans-Serif" font-size="9.00">::get_max_sigma</text>
</a>
</g>
</g>
<!-- Node1&#45;&gt;Node2 -->
<g id="edge1" class="edge"><title>Node1&#45;&gt;Node2</title>
<path fill="none" stroke="midnightblue" d="M120.02,-46.4367C129.921,-47.936 140.275,-49.5037 150.403,-51.0373"/>
<polygon fill="midnightblue" stroke="midnightblue" points="150.02,-54.5192 160.431,-52.5558 151.068,-47.5981 150.02,-54.5192"/>
</g>
<!-- Node6 -->
<g id="node6" class="node"><title>Node6</title>
<g id="a_node6"><a xlink:href="classmappel_1_1MCMCAdaptor2Ds.html#a271813db8cfbca730d2ebd60b335b33e" target="_top" xlink:title="mappel::MCMCAdaptor2Ds\l::operator=">
<polygon fill="white" stroke="black" points="156,-0.5 156,-28.5 285,-28.5 285,-0.5 156,-0.5"/>
<text text-anchor="start" x="164" y="-17.3" font-family="Helvetica,sans-Serif" font-size="9.00">mappel::MCMCAdaptor2Ds</text>
<text text-anchor="middle" x="220.5" y="-7.3" font-family="Helvetica,sans-Serif" font-size="9.00">::operator=</text>
</a>
</g>
</g>
<!-- Node1&#45;&gt;Node6 -->
<g id="edge5" class="edge"><title>Node1&#45;&gt;Node6</title>
<path fill="none" stroke="midnightblue" d="M120.02,-28.9356C128.433,-27.7147 137.173,-26.4465 145.824,-25.1912"/>
<polygon fill="midnightblue" stroke="midnightblue" points="146.519,-28.627 155.913,-23.7271 145.514,-21.6995 146.519,-28.627"/>
</g>
<!-- Node3 -->
<g id="node3" class="node"><title>Node3</title>
<g id="a_node3"><a xlink:href="classmappel_1_1Gauss2DsModel.html#a46da2752c2d1ca376b72d910818e47ae" target="_top" xlink:title="mappel::Gauss2DsModel\l::get_max_sigma_ratio">
<polygon fill="white" stroke="black" points="323.5,-94.5 323.5,-122.5 443.5,-122.5 443.5,-94.5 323.5,-94.5"/>
<text text-anchor="start" x="331.5" y="-111.3" font-family="Helvetica,sans-Serif" font-size="9.00">mappel::Gauss2DsModel</text>
<text text-anchor="middle" x="383.5" y="-101.3" font-family="Helvetica,sans-Serif" font-size="9.00">::get_max_sigma_ratio</text>
</a>
</g>
</g>
<!-- Node2&#45;&gt;Node3 -->
<g id="edge2" class="edge"><title>Node2&#45;&gt;Node3</title>
<path fill="none" stroke="midnightblue" d="M269.805,-75.6015C287.077,-80.6435 306.716,-86.3766 324.706,-91.6286"/>
<polygon fill="midnightblue" stroke="midnightblue" points="323.926,-95.0469 334.506,-94.4894 325.888,-88.3273 323.926,-95.0469"/>
</g>
<!-- Node5 -->
<g id="node5" class="node"><title>Node5</title>
<g id="a_node5"><a xlink:href="classmappel_1_1Gauss2DsModel.html#af93a5f984a97e23ae1d371c980e48a41" target="_top" xlink:title="mappel::Gauss2DsModel\l::get_min_sigma">
<polygon fill="white" stroke="black" points="323.5,-47.5 323.5,-75.5 443.5,-75.5 443.5,-47.5 323.5,-47.5"/>
<text text-anchor="start" x="331.5" y="-64.3" font-family="Helvetica,sans-Serif" font-size="9.00">mappel::Gauss2DsModel</text>
<text text-anchor="middle" x="383.5" y="-54.3" font-family="Helvetica,sans-Serif" font-size="9.00">::get_min_sigma</text>
</a>
</g>
</g>
<!-- Node2&#45;&gt;Node5 -->
<g id="edge4" class="edge"><title>Node2&#45;&gt;Node5</title>
<path fill="none" stroke="midnightblue" d="M280.536,-61.5C291.146,-61.5 302.292,-61.5 313.161,-61.5"/>
<polygon fill="midnightblue" stroke="midnightblue" points="313.471,-65.0001 323.471,-61.5 313.471,-58.0001 313.471,-65.0001"/>
</g>
<!-- Node4 -->
<g id="node4" class="node"><title>Node4</title>
<g id="a_node4"><a xlink:href="classmappel_1_1PointEmitterModel.html#a0dfb473c48d177a4540d328abb03cd55" target="_top" xlink:title="mappel::PointEmitterModel\l::get_ubound">
<polygon fill="white" stroke="black" points="482,-94.5 482,-122.5 609,-122.5 609,-94.5 482,-94.5"/>
<text text-anchor="start" x="490" y="-111.3" font-family="Helvetica,sans-Serif" font-size="9.00">mappel::PointEmitterModel</text>
<text text-anchor="middle" x="545.5" y="-101.3" font-family="Helvetica,sans-Serif" font-size="9.00">::get_ubound</text>
</a>
</g>
</g>
<!-- Node3&#45;&gt;Node4 -->
<g id="edge3" class="edge"><title>Node3&#45;&gt;Node4</title>
<path fill="none" stroke="midnightblue" d="M443.624,-108.5C452.776,-108.5 462.32,-108.5 471.73,-108.5"/>
<polygon fill="midnightblue" stroke="midnightblue" points="471.863,-112 481.863,-108.5 471.863,-105 471.863,-112"/>
</g>
<!-- Node7 -->
<g id="node7" class="node"><title>Node7</title>
<g id="a_node7"><a xlink:href="classmappel_1_1MCMCAdaptor2D.html#aeddb1b66ab86ef64421b9a7d6a208769" target="_top" xlink:title="mappel::MCMCAdaptor2D\l::operator=">
<polygon fill="white" stroke="black" points="321,-0.5 321,-28.5 446,-28.5 446,-0.5 321,-0.5"/>
<text text-anchor="start" x="329" y="-17.3" font-family="Helvetica,sans-Serif" font-size="9.00">mappel::MCMCAdaptor2D</text>
<text text-anchor="middle" x="383.5" y="-7.3" font-family="Helvetica,sans-Serif" font-size="9.00">::operator=</text>
</a>
</g>
</g>
<!-- Node6&#45;&gt;Node7 -->
<g id="edge6" class="edge"><title>Node6&#45;&gt;Node7</title>
<path fill="none" stroke="midnightblue" d="M285.131,-14.5C293.505,-14.5 302.133,-14.5 310.632,-14.5"/>
<polygon fill="midnightblue" stroke="midnightblue" points="310.908,-18.0001 320.908,-14.5 310.908,-11.0001 310.908,-18.0001"/>
</g>
<!-- Node8 -->
<g id="node8" class="node"><title>Node8</title>
<g id="a_node8"><a xlink:href="classmappel_1_1MCMCAdaptor1D.html#a669bba7517087d842f941957cbbf5fb5" target="_top" xlink:title="mappel::MCMCAdaptor1D\l::operator=">
<polygon fill="white" stroke="black" points="483,-0.5 483,-28.5 608,-28.5 608,-0.5 483,-0.5"/>
<text text-anchor="start" x="491" y="-17.3" font-family="Helvetica,sans-Serif" font-size="9.00">mappel::MCMCAdaptor1D</text>
<text text-anchor="middle" x="545.5" y="-7.3" font-family="Helvetica,sans-Serif" font-size="9.00">::operator=</text>
</a>
</g>
</g>
<!-- Node7&#45;&gt;Node8 -->
<g id="edge7" class="edge"><title>Node7&#45;&gt;Node8</title>
<path fill="none" stroke="midnightblue" d="M446.36,-14.5C454.956,-14.5 463.847,-14.5 472.607,-14.5"/>
<polygon fill="midnightblue" stroke="midnightblue" points="472.804,-18.0001 482.804,-14.5 472.804,-11.0001 472.804,-18.0001"/>
</g>
</g>
</svg>
        <g id="navigator" transform="translate(0 0)" fill="#404254">
                <rect fill="#f2f5e9" fill-opacity="0.5" stroke="#606060" stroke-width=".5" x="0" y="0" width="60" height="60"/>
                <use id="zoomplus" xlink:href="#zoomPlus" x="17" y="9" onmousedown="handleZoom(evt,'in')"/>
                <use id="zoomminus" xlink:href="#zoomMin" x="42" y="9" onmousedown="handleZoom(evt,'out')"/>
                <use id="reset" xlink:href="#resetDef" x="30" y="36" onmousedown="handleReset()"/>
                <g id="arrowUp" xlink:href="#dirArrow" transform="translate(30 24)" onmousedown="handlePan(0,-1)">
                  <use xlink:href="#rim" fill="#404040">
                        <set attributeName="fill" to="#808080" begin="arrowUp.mouseover" end="arrowUp.mouseout"/>
                  </use>
                  <path fill="none" stroke="white" stroke-width="1.5" d="M0,-3.0v7 M-2.5,-0.5L0,-3.0L2.5,-0.5"/>
                </g>
                <g id="arrowRight" xlink:href="#dirArrow" transform="rotate(90) translate(36 -43)" onmousedown="handlePan(1,0)">
                  <use xlink:href="#rim" fill="#404040">
                        <set attributeName="fill" to="#808080" begin="arrowRight.mouseover" end="arrowRight.mouseout"/>
                  </use>
                  <path fill="none" stroke="white" stroke-width="1.5" d="M0,-3.0v7 M-2.5,-0.5L0,-3.0L2.5,-0.5"/>
                </g>
                <g id="arrowDown" xlink:href="#dirArrow" transform="rotate(180) translate(-30 -48)" onmousedown="handlePan(0,1)">
                  <use xlink:href="#rim" fill="#404040">
                        <set attributeName="fill" to="#808080" begin="arrowDown.mouseover" end="arrowDown.mouseout"/>
                  </use>
                  <path fill="none" stroke="white" stroke-width="1.5" d="M0,-3.0v7 M-2.5,-0.5L0,-3.0L2.5,-0.5"/>
                </g>
                <g id="arrowLeft" xlink:href="#dirArrow" transform="rotate(270) translate(-36 17)" onmousedown="handlePan(-1,0)">
                  <use xlink:href="#rim" fill="#404040">
                        <set attributeName="fill" to="#808080" begin="arrowLeft.mouseover" end="arrowLeft.mouseout"/>
                  </use>
                  <path fill="none" stroke="white" stroke-width="1.5" d="M0,-3.0v7 M-2.5,-0.5L0,-3.0L2.5,-0.5"/>
                </g>
        </g>
        <svg viewBox="0 0 15 15" width="100%" height="30px" preserveAspectRatio="xMaxYMin meet">
         <g id="arrow_out" transform="scale(0.3 0.3)">
          <a xlink:href="classmappel_1_1Gauss2DsModel_ab1b09eccafc20261b34a404fc8dede4e_cgraph_org.svg" target="_base">
           <rect id="button" ry="5" rx="5" y="6" x="6" height="38" width="38"
                fill="#f2f5e9" fill-opacity="0.5" stroke="#606060" stroke-width="1.0"/>
           <path id="arrow"
             d="M 11.500037,31.436501 C 11.940474,20.09759 22.043105,11.32322 32.158766,21.979434 L 37.068811,17.246167 C 37.068811,17.246167 37.088388,32 37.088388,32 L 22.160133,31.978069 C 22.160133,31.978069 26.997745,27.140456 26.997745,27.140456 C 18.528582,18.264221 13.291696,25.230495 11.500037,31.436501 z"
             style="fill:#404040;"/>
          </a>
         </g>
        </svg>
</svg>
