<?xml version="1.0" encoding="UTF-8" standalone="no"?>
<!DOCTYPE svg PUBLIC "-//W3C//DTD SVG 1.1//EN"
 "http://www.w3.org/Graphics/SVG/1.1/DTD/svg11.dtd">
<!-- Generated by graphviz version 2.38.0 (20140413.2041)
 -->
<!-- Title: mappel::Gauss1DModel Pages: 1 -->
<svg width="953pt" height="190pt"
 viewBox="0.00 0.00 953.00 190.00" xmlns="http://www.w3.org/2000/svg" xmlns:xlink="http://www.w3.org/1999/xlink">
<g id="graph0" class="graph" transform="scale(1 1) rotate(0) translate(4 186)">
<title>mappel::Gauss1DModel</title>
<polygon fill="white" stroke="none" points="-4,4 -4,-186 949,-186 949,4 -4,4"/>
<!-- Node1 -->
<g id="node1" class="node"><title>Node1</title>
<polygon fill="#bfbfbf" stroke="black" points="829,-75.5 829,-93.5 945,-93.5 945,-75.5 829,-75.5"/>
<text text-anchor="middle" x="887" y="-82.3" font-family="Helvetica,sans-Serif" font-size="9.00">mappel::Gauss1DModel</text>
</g>
<!-- Node2 -->
<g id="node2" class="node"><title>Node2</title>
<g id="a_node2"><a xlink:href="classmappel_1_1PointEmitterModel.html" target="_top" xlink:title="A virtual Base type for point emitter localization models. ">
<polygon fill="white" stroke="black" points="366.5,-120.5 366.5,-138.5 493.5,-138.5 493.5,-120.5 366.5,-120.5"/>
<text text-anchor="middle" x="430" y="-127.3" font-family="Helvetica,sans-Serif" font-size="9.00">mappel::PointEmitterModel</text>
</a>
</g>
</g>
<!-- Node2&#45;&gt;Node1 -->
<g id="edge1" class="edge"><title>Node2&#45;&gt;Node1</title>
<path fill="none" stroke="midnightblue" d="M503.78,-125.799C580.445,-121.377 704.574,-112.736 811,-98.5 820.978,-97.1654 831.642,-95.3893 841.704,-93.5515"/>
<polygon fill="midnightblue" stroke="midnightblue" points="503.532,-122.307 493.747,-126.369 503.929,-129.296 503.532,-122.307"/>
</g>
<!-- Node7 -->
<g id="node7" class="node"><title>Node7</title>
<g id="a_node7"><a xlink:href="classmappel_1_1MCMCAdaptor1D.html" target="_top" xlink:title="mappel::MCMCAdaptor1D">
<polygon fill="white" stroke="black" points="612,-151.5 612,-169.5 737,-169.5 737,-151.5 612,-151.5"/>
<text text-anchor="middle" x="674.5" y="-158.3" font-family="Helvetica,sans-Serif" font-size="9.00">mappel::MCMCAdaptor1D</text>
</a>
</g>
</g>
<!-- Node2&#45;&gt;Node7 -->
<g id="edge7" class="edge"><title>Node2&#45;&gt;Node7</title>
<path fill="none" stroke="midnightblue" d="M503.772,-138.803C538.224,-143.207 578.928,-148.41 611.837,-152.617"/>
<polygon fill="midnightblue" stroke="midnightblue" points="504.128,-135.32 493.765,-137.524 503.241,-142.263 504.128,-135.32"/>
</g>
<!-- Node3 -->
<g id="node3" class="node"><title>Node3</title>
<polygon fill="white" stroke="#bfbfbf" points="125,-141.5 125,-159.5 202,-159.5 202,-141.5 125,-141.5"/>
<text text-anchor="middle" x="163.5" y="-148.3" font-family="Helvetica,sans-Serif" font-size="9.00">CompositeDist</text>
</g>
<!-- Node3&#45;&gt;Node2 -->
<g id="edge2" class="edge"><title>Node3&#45;&gt;Node2</title>
<path fill="none" stroke="#9a32cd" stroke-dasharray="5,2" d="M212.337,-146.702C255.441,-143.28 319.098,-138.226 366.268,-134.481"/>
<polygon fill="#9a32cd" stroke="#9a32cd" points="211.807,-143.233 202.116,-147.514 212.361,-150.211 211.807,-143.233"/>
<text text-anchor="middle" x="282.5" y="-148.3" font-family="Helvetica,sans-Serif" font-size="9.00"> prior</text>
</g>
<!-- Node4 -->
<g id="node4" class="node"><title>Node4</title>
<g id="a_node4"><a xlink:title="STL class. ">
<polygon fill="white" stroke="#bfbfbf" points="135.5,-90.5 135.5,-108.5 191.5,-108.5 191.5,-90.5 135.5,-90.5"/>
<text text-anchor="middle" x="163.5" y="-97.3" font-family="Helvetica,sans-Serif" font-size="9.00">std::string</text>
</a>
</g>
</g>
<!-- Node4&#45;&gt;Node1 -->
<g id="edge9" class="edge"><title>Node4&#45;&gt;Node1</title>
<path fill="none" stroke="#9a32cd" stroke-dasharray="5,2" d="M201.922,-98.722C320.209,-96.2628 686.596,-88.6456 828.78,-85.6896"/>
<polygon fill="#9a32cd" stroke="#9a32cd" points="201.828,-95.2231 191.903,-98.9303 201.973,-102.222 201.828,-95.2231"/>
<text text-anchor="middle" x="551" y="-95.3" font-family="Helvetica,sans-Serif" font-size="9.00"> DefaultPriorType</text>
</g>
<!-- Node4&#45;&gt;Node2 -->
<g id="edge3" class="edge"><title>Node4&#45;&gt;Node2</title>
<path fill="none" stroke="#9a32cd" stroke-dasharray="5,2" d="M201.785,-103.729C244.526,-108.577 315.27,-116.601 366.479,-122.409"/>
<polygon fill="#9a32cd" stroke="#9a32cd" points="202.141,-100.247 191.81,-102.598 201.352,-107.202 202.141,-100.247"/>
<text text-anchor="middle" x="282.5" y="-122.3" font-family="Helvetica,sans-Serif" font-size="9.00"> DefaultSeperableInitEstimator</text>
</g>
<!-- Node5 -->
<g id="node5" class="node"><title>Node5</title>
<g id="a_node5"><a xlink:title="STL class. ">
<polygon fill="white" stroke="#bfbfbf" points="0,-85.5 0,-113.5 88,-113.5 88,-85.5 0,-85.5"/>
<text text-anchor="start" x="8" y="-102.3" font-family="Helvetica,sans-Serif" font-size="9.00">std::basic_string&lt;</text>
<text text-anchor="middle" x="44" y="-92.3" font-family="Helvetica,sans-Serif" font-size="9.00"> char &gt;</text>
</a>
</g>
</g>
<!-- Node5&#45;&gt;Node4 -->
<g id="edge4" class="edge"><title>Node5&#45;&gt;Node4</title>
<path fill="none" stroke="midnightblue" d="M98.287,-99.5C111.161,-99.5 124.389,-99.5 135.467,-99.5"/>
<polygon fill="midnightblue" stroke="midnightblue" points="98.0855,-96.0001 88.0855,-99.5 98.0854,-103 98.0855,-96.0001"/>
</g>
<!-- Node6 -->
<g id="node6" class="node"><title>Node6</title>
<g id="a_node6"><a xlink:href="classmappel_1_1ImageFormat1DBase.html" target="_top" xlink:title="A virtual base class for 2D image localization objectives. ">
<polygon fill="white" stroke="black" points="605,-37.5 605,-55.5 744,-55.5 744,-37.5 605,-37.5"/>
<text text-anchor="middle" x="674.5" y="-44.3" font-family="Helvetica,sans-Serif" font-size="9.00">mappel::ImageFormat1DBase</text>
</a>
</g>
</g>
<!-- Node6&#45;&gt;Node1 -->
<g id="edge5" class="edge"><title>Node6&#45;&gt;Node1</title>
<path fill="none" stroke="midnightblue" d="M737.046,-57.2774C760.236,-61.3707 786.84,-66.1055 811,-70.5 819.731,-72.0882 829.03,-73.804 838,-75.4718"/>
<polygon fill="midnightblue" stroke="midnightblue" points="737.45,-53.7947 726.994,-55.5055 736.235,-60.6884 737.45,-53.7947"/>
</g>
<!-- Node7&#45;&gt;Node1 -->
<g id="edge6" class="edge"><title>Node7&#45;&gt;Node1</title>
<path fill="none" stroke="midnightblue" d="M747.005,-153.72C768.146,-150.165 790.977,-144.749 811,-136.5 836.491,-125.999 861.978,-105.75 875.691,-93.8555"/>
<polygon fill="midnightblue" stroke="midnightblue" points="746.442,-150.266 737.106,-155.273 747.527,-157.181 746.442,-150.266"/>
</g>
<!-- Node8 -->
<g id="node8" class="node"><title>Node8</title>
<g id="a_node8"><a xlink:href="classmappel_1_1MCMCAdaptorBase.html" target="_top" xlink:title="mappel::MCMCAdaptorBase">
<polygon fill="white" stroke="black" points="363,-163.5 363,-181.5 497,-181.5 497,-163.5 363,-163.5"/>
<text text-anchor="middle" x="430" y="-170.3" font-family="Helvetica,sans-Serif" font-size="9.00">mappel::MCMCAdaptorBase</text>
</a>
</g>
</g>
<!-- Node8&#45;&gt;Node7 -->
<g id="edge8" class="edge"><title>Node8&#45;&gt;Node7</title>
<path fill="none" stroke="midnightblue" d="M507.521,-168.713C541.169,-167.048 580.162,-165.119 611.895,-163.548"/>
<polygon fill="midnightblue" stroke="midnightblue" points="507.079,-165.231 497.264,-169.221 507.425,-172.222 507.079,-165.231"/>
</g>
<!-- Node9 -->
<g id="node9" class="node"><title>Node9</title>
<g id="a_node9"><a xlink:title="STL class. ">
<polygon fill="white" stroke="#bfbfbf" points="635.5,-0.5 635.5,-18.5 713.5,-18.5 713.5,-0.5 635.5,-0.5"/>
<text text-anchor="middle" x="674.5" y="-7.3" font-family="Helvetica,sans-Serif" font-size="9.00">std::vector&lt; T &gt;</text>
</a>
</g>
</g>
<!-- Node9&#45;&gt;Node1 -->
<g id="edge10" class="edge"><title>Node9&#45;&gt;Node1</title>
<path fill="none" stroke="#9a32cd" stroke-dasharray="5,2" d="M721.058,-21.153C728.733,-23.2072 736.606,-25.371 744,-27.5 773.988,-36.1345 781.97,-37.0518 811,-48.5 831.423,-56.5538 854.034,-67.7351 869.035,-75.4908"/>
<polygon fill="#9a32cd" stroke="#9a32cd" points="721.702,-17.7029 711.139,-18.5276 719.911,-24.4699 721.702,-17.7029"/>
<text text-anchor="middle" x="786.5" y="-51.3" font-family="Helvetica,sans-Serif" font-size="9.00"> prior_types</text>
</g>
<!-- Node10 -->
<g id="node10" class="node"><title>Node10</title>
<polygon fill="white" stroke="#bfbfbf" points="415.5,-0.5 415.5,-18.5 444.5,-18.5 444.5,-0.5 415.5,-0.5"/>
<text text-anchor="middle" x="430" y="-7.3" font-family="Helvetica,sans-Serif" font-size="9.00">T</text>
</g>
<!-- Node10&#45;&gt;Node9 -->
<g id="edge11" class="edge"><title>Node10&#45;&gt;Node9</title>
<path fill="none" stroke="#9a32cd" stroke-dasharray="5,2" d="M454.873,-9.5C497.003,-9.5 584.863,-9.5 635.439,-9.5"/>
<polygon fill="#9a32cd" stroke="#9a32cd" points="454.733,-6.0001 444.733,-9.5 454.733,-13.0001 454.733,-6.0001"/>
<text text-anchor="middle" x="551" y="-12.3" font-family="Helvetica,sans-Serif" font-size="9.00"> elements</text>
</g>
</g>
</svg>
