<?xml version="1.0" encoding="UTF-8" standalone="no"?>
<!DOCTYPE svg PUBLIC "-//W3C//DTD SVG 1.1//EN"
 "http://www.w3.org/Graphics/SVG/1.1/DTD/svg11.dtd">
<!-- Generated by graphviz version 2.38.0 (20140413.2041)
 -->
<!-- Title: mappel::IterativeMaximizer::get_debug_stats Pages: 1 -->
<svg width="593pt" height="37pt"
 viewBox="0.00 0.00 593.00 37.00" xmlns="http://www.w3.org/2000/svg" xmlns:xlink="http://www.w3.org/1999/xlink">
<g id="graph0" class="graph" transform="scale(1 1) rotate(0) translate(4 33)">
<title>mappel::IterativeMaximizer::get_debug_stats</title>
<polygon fill="white" stroke="none" points="-4,4 -4,-33 589,-33 589,4 -4,4"/>
<!-- Node1 -->
<g id="node1" class="node"><title>Node1</title>
<polygon fill="#bfbfbf" stroke="black" points="0,-0.5 0,-28.5 126,-28.5 126,-0.5 0,-0.5"/>
<text text-anchor="start" x="8" y="-17.3" font-family="Helvetica,sans-Serif" font-size="9.00">mappel::IterativeMaximizer</text>
<text text-anchor="middle" x="63" y="-7.3" font-family="Helvetica,sans-Serif" font-size="9.00">::get_debug_stats</text>
</g>
<!-- Node2 -->
<g id="node2" class="node"><title>Node2</title>
<g id="a_node2"><a xlink:href="classmappel_1_1IterativeMaximizer.html#a22783dc49fb4fd6e754b0d0ee161c543" target="_top" xlink:title="mappel::IterativeMaximizer\l::get_stats">
<polygon fill="white" stroke="black" points="162,-0.5 162,-28.5 288,-28.5 288,-0.5 162,-0.5"/>
<text text-anchor="start" x="170" y="-17.3" font-family="Helvetica,sans-Serif" font-size="9.00">mappel::IterativeMaximizer</text>
<text text-anchor="middle" x="225" y="-7.3" font-family="Helvetica,sans-Serif" font-size="9.00">::get_stats</text>
</a>
</g>
</g>
<!-- Node1&#45;&gt;Node2 -->
<g id="edge1" class="edge"><title>Node1&#45;&gt;Node2</title>
<path fill="none" stroke="midnightblue" d="M126.318,-14.5C134.615,-14.5 143.179,-14.5 151.628,-14.5"/>
<polygon fill="midnightblue" stroke="midnightblue" points="151.852,-18.0001 161.852,-14.5 151.852,-11.0001 151.852,-18.0001"/>
</g>
<!-- Node3 -->
<g id="node3" class="node"><title>Node3</title>
<g id="a_node3"><a xlink:href="classmappel_1_1ThreadedEstimator.html#ab216e13ec19785839bc73caf7fac1c91" target="_top" xlink:title="mappel::ThreadedEstimator\l::get_stats">
<polygon fill="white" stroke="black" points="324,-0.5 324,-28.5 454,-28.5 454,-0.5 324,-0.5"/>
<text text-anchor="start" x="332" y="-17.3" font-family="Helvetica,sans-Serif" font-size="9.00">mappel::ThreadedEstimator</text>
<text text-anchor="middle" x="389" y="-7.3" font-family="Helvetica,sans-Serif" font-size="9.00">::get_stats</text>
</a>
</g>
</g>
<!-- Node2&#45;&gt;Node3 -->
<g id="edge2" class="edge"><title>Node2&#45;&gt;Node3</title>
<path fill="none" stroke="midnightblue" d="M288.17,-14.5C296.572,-14.5 305.259,-14.5 313.843,-14.5"/>
<polygon fill="midnightblue" stroke="midnightblue" points="313.85,-18.0001 323.85,-14.5 313.85,-11.0001 313.85,-18.0001"/>
</g>
<!-- Node4 -->
<g id="node4" class="node"><title>Node4</title>
<g id="a_node4"><a xlink:href="classmappel_1_1Estimator.html#a876af9a1a1a6bf174c63716f3348d735" target="_top" xlink:title="mappel::Estimator::\lget_stats">
<polygon fill="white" stroke="black" points="490,-0.5 490,-28.5 585,-28.5 585,-0.5 490,-0.5"/>
<text text-anchor="start" x="498" y="-17.3" font-family="Helvetica,sans-Serif" font-size="9.00">mappel::Estimator::</text>
<text text-anchor="middle" x="537.5" y="-7.3" font-family="Helvetica,sans-Serif" font-size="9.00">get_stats</text>
</a>
</g>
</g>
<!-- Node3&#45;&gt;Node4 -->
<g id="edge3" class="edge"><title>Node3&#45;&gt;Node4</title>
<path fill="none" stroke="midnightblue" d="M454.257,-14.5C462.784,-14.5 471.475,-14.5 479.86,-14.5"/>
<polygon fill="midnightblue" stroke="midnightblue" points="479.904,-18.0001 489.904,-14.5 479.904,-11.0001 479.904,-18.0001"/>
</g>
</g>
</svg>
