<?xml version="1.0" encoding="UTF-8" standalone="no"?>
<!DOCTYPE svg PUBLIC "-//W3C//DTD SVG 1.1//EN"
 "http://www.w3.org/Graphics/SVG/1.1/DTD/svg11.dtd">
<!-- Generated by graphviz version 2.38.0 (20140413.2041)
 -->
<!-- Title: mappel::Gauss2DsxyModel::get_max_sigma Pages: 1 -->
<svg width="465pt" height="84pt"
 viewBox="0.00 0.00 465.00 84.00" xmlns="http://www.w3.org/2000/svg" xmlns:xlink="http://www.w3.org/1999/xlink">
<g id="graph0" class="graph" transform="scale(1 1) rotate(0) translate(4 80)">
<title>mappel::Gauss2DsxyModel::get_max_sigma</title>
<polygon fill="white" stroke="none" points="-4,4 -4,-80 461,-80 461,4 -4,4"/>
<!-- Node1 -->
<g id="node1" class="node"><title>Node1</title>
<polygon fill="#bfbfbf" stroke="black" points="0,-23.5 0,-51.5 129,-51.5 129,-23.5 0,-23.5"/>
<text text-anchor="start" x="8" y="-40.3" font-family="Helvetica,sans-Serif" font-size="9.00">mappel::Gauss2DsxyModel</text>
<text text-anchor="middle" x="64.5" y="-30.3" font-family="Helvetica,sans-Serif" font-size="9.00">::get_max_sigma</text>
</g>
<!-- Node2 -->
<g id="node2" class="node"><title>Node2</title>
<g id="a_node2"><a xlink:href="classmappel_1_1Gauss2DsxyModel.html#af76cadd2a056b4ab91cb19b61451e33d" target="_top" xlink:title="mappel::Gauss2DsxyModel\l::get_max_sigma_ratio">
<polygon fill="white" stroke="black" points="165,-47.5 165,-75.5 294,-75.5 294,-47.5 165,-47.5"/>
<text text-anchor="start" x="173" y="-64.3" font-family="Helvetica,sans-Serif" font-size="9.00">mappel::Gauss2DsxyModel</text>
<text text-anchor="middle" x="229.5" y="-54.3" font-family="Helvetica,sans-Serif" font-size="9.00">::get_max_sigma_ratio</text>
</a>
</g>
</g>
<!-- Node1&#45;&gt;Node2 -->
<g id="edge1" class="edge"><title>Node1&#45;&gt;Node2</title>
<path fill="none" stroke="midnightblue" d="M129.454,-46.9166C137.852,-48.153 146.511,-49.4279 155.05,-50.6853"/>
<polygon fill="midnightblue" stroke="midnightblue" points="154.594,-54.1559 164.998,-52.15 155.614,-47.2305 154.594,-54.1559"/>
</g>
<!-- Node4 -->
<g id="node4" class="node"><title>Node4</title>
<g id="a_node4"><a xlink:href="classmappel_1_1Gauss2DsxyModel.html#ad65114a64a44d35e5feb81bdfa1f4832" target="_top" xlink:title="mappel::Gauss2DsxyModel\l::get_min_sigma">
<polygon fill="white" stroke="black" points="165,-0.5 165,-28.5 294,-28.5 294,-0.5 165,-0.5"/>
<text text-anchor="start" x="173" y="-17.3" font-family="Helvetica,sans-Serif" font-size="9.00">mappel::Gauss2DsxyModel</text>
<text text-anchor="middle" x="229.5" y="-7.3" font-family="Helvetica,sans-Serif" font-size="9.00">::get_min_sigma</text>
</a>
</g>
</g>
<!-- Node1&#45;&gt;Node4 -->
<g id="edge3" class="edge"><title>Node1&#45;&gt;Node4</title>
<path fill="none" stroke="midnightblue" d="M129.454,-28.4758C137.852,-27.2908 146.511,-26.0691 155.05,-24.8641"/>
<polygon fill="midnightblue" stroke="midnightblue" points="155.585,-28.3234 164.998,-23.4604 154.607,-21.3921 155.585,-28.3234"/>
</g>
<!-- Node3 -->
<g id="node3" class="node"><title>Node3</title>
<g id="a_node3"><a xlink:href="classmappel_1_1PointEmitterModel.html#a0dfb473c48d177a4540d328abb03cd55" target="_top" xlink:title="mappel::PointEmitterModel\l::get_ubound">
<polygon fill="white" stroke="black" points="330,-47.5 330,-75.5 457,-75.5 457,-47.5 330,-47.5"/>
<text text-anchor="start" x="338" y="-64.3" font-family="Helvetica,sans-Serif" font-size="9.00">mappel::PointEmitterModel</text>
<text text-anchor="middle" x="393.5" y="-54.3" font-family="Helvetica,sans-Serif" font-size="9.00">::get_ubound</text>
</a>
</g>
</g>
<!-- Node2&#45;&gt;Node3 -->
<g id="edge2" class="edge"><title>Node2&#45;&gt;Node3</title>
<path fill="none" stroke="midnightblue" d="M294.062,-61.5C302.535,-61.5 311.276,-61.5 319.89,-61.5"/>
<polygon fill="midnightblue" stroke="midnightblue" points="319.918,-65.0001 329.918,-61.5 319.918,-58.0001 319.918,-65.0001"/>
</g>
</g>
</svg>
