<?xml version="1.0" encoding="UTF-8" standalone="no"?>
<!DOCTYPE svg PUBLIC "-//W3C//DTD SVG 1.1//EN"
 "http://www.w3.org/Graphics/SVG/1.1/DTD/svg11.dtd">
<!-- Generated by graphviz version 2.38.0 (20140413.2041)
 -->
<!-- Title: mappel::ThreadedEstimator::get_stats Pages: 1 -->
<svg width="466pt" height="131pt"
 viewBox="0.00 0.00 466.00 131.00" xmlns="http://www.w3.org/2000/svg" xmlns:xlink="http://www.w3.org/1999/xlink">
<g id="graph0" class="graph" transform="scale(1 1) rotate(0) translate(4 127)">
<title>mappel::ThreadedEstimator::get_stats</title>
<polygon fill="white" stroke="none" points="-4,4 -4,-127 462,-127 462,4 -4,4"/>
<!-- Node1 -->
<g id="node1" class="node"><title>Node1</title>
<polygon fill="#bfbfbf" stroke="black" points="0,-47.5 0,-75.5 130,-75.5 130,-47.5 0,-47.5"/>
<text text-anchor="start" x="8" y="-64.3" font-family="Helvetica,sans-Serif" font-size="9.00">mappel::ThreadedEstimator</text>
<text text-anchor="middle" x="65" y="-54.3" font-family="Helvetica,sans-Serif" font-size="9.00">::get_stats</text>
</g>
<!-- Node2 -->
<g id="node2" class="node"><title>Node2</title>
<g id="a_node2"><a xlink:href="classmappel_1_1ThreadedEstimator.html#ab281b131d160352ee949dd33d49cf55e" target="_top" xlink:title="mappel::ThreadedEstimator\l::get_debug_stats">
<polygon fill="white" stroke="black" points="166,-94.5 166,-122.5 296,-122.5 296,-94.5 166,-94.5"/>
<text text-anchor="start" x="174" y="-111.3" font-family="Helvetica,sans-Serif" font-size="9.00">mappel::ThreadedEstimator</text>
<text text-anchor="middle" x="231" y="-101.3" font-family="Helvetica,sans-Serif" font-size="9.00">::get_debug_stats</text>
</a>
</g>
</g>
<!-- Node1&#45;&gt;Node2 -->
<g id="edge1" class="edge"><title>Node1&#45;&gt;Node2</title>
<path fill="none" stroke="midnightblue" d="M124.947,-78.3933C143.363,-83.671 163.467,-89.4325 181.112,-94.4894"/>
<polygon fill="midnightblue" stroke="midnightblue" points="125.783,-74.992 115.205,-75.6015 123.854,-81.7211 125.783,-74.992"/>
</g>
<!-- Node3 -->
<g id="node3" class="node"><title>Node3</title>
<g id="a_node3"><a xlink:href="classmappel_1_1CGaussMLE.html#aafbdebb21652be135801911007d3568b" target="_top" xlink:title="mappel::CGaussMLE::\lget_stats">
<polygon fill="white" stroke="black" points="177,-47.5 177,-75.5 285,-75.5 285,-47.5 177,-47.5"/>
<text text-anchor="start" x="185" y="-64.3" font-family="Helvetica,sans-Serif" font-size="9.00">mappel::CGaussMLE::</text>
<text text-anchor="middle" x="231" y="-54.3" font-family="Helvetica,sans-Serif" font-size="9.00">get_stats</text>
</a>
</g>
</g>
<!-- Node1&#45;&gt;Node3 -->
<g id="edge2" class="edge"><title>Node1&#45;&gt;Node3</title>
<path fill="none" stroke="midnightblue" d="M140.577,-61.5C152.848,-61.5 165.342,-61.5 176.949,-61.5"/>
<polygon fill="midnightblue" stroke="midnightblue" points="140.346,-58.0001 130.346,-61.5 140.346,-65.0001 140.346,-58.0001"/>
</g>
<!-- Node5 -->
<g id="node5" class="node"><title>Node5</title>
<g id="a_node5"><a xlink:href="classmappel_1_1IterativeMaximizer.html#a22783dc49fb4fd6e754b0d0ee161c543" target="_top" xlink:title="mappel::IterativeMaximizer\l::get_stats">
<polygon fill="white" stroke="black" points="168,-0.5 168,-28.5 294,-28.5 294,-0.5 168,-0.5"/>
<text text-anchor="start" x="176" y="-17.3" font-family="Helvetica,sans-Serif" font-size="9.00">mappel::IterativeMaximizer</text>
<text text-anchor="middle" x="231" y="-7.3" font-family="Helvetica,sans-Serif" font-size="9.00">::get_stats</text>
</a>
</g>
</g>
<!-- Node1&#45;&gt;Node5 -->
<g id="edge4" class="edge"><title>Node1&#45;&gt;Node5</title>
<path fill="none" stroke="midnightblue" d="M124.947,-44.6067C143.363,-39.329 163.467,-33.5675 181.112,-28.5106"/>
<polygon fill="midnightblue" stroke="midnightblue" points="123.854,-41.2789 115.205,-47.3985 125.783,-48.008 123.854,-41.2789"/>
</g>
<!-- Node4 -->
<g id="node4" class="node"><title>Node4</title>
<g id="a_node4"><a xlink:href="classmappel_1_1CGaussMLE.html#aaff3681877cb75e6776be5325adcfea0" target="_top" xlink:title="mappel::CGaussMLE::\lget_debug_stats">
<polygon fill="white" stroke="black" points="341,-47.5 341,-75.5 449,-75.5 449,-47.5 341,-47.5"/>
<text text-anchor="start" x="349" y="-64.3" font-family="Helvetica,sans-Serif" font-size="9.00">mappel::CGaussMLE::</text>
<text text-anchor="middle" x="395" y="-54.3" font-family="Helvetica,sans-Serif" font-size="9.00">get_debug_stats</text>
</a>
</g>
</g>
<!-- Node3&#45;&gt;Node4 -->
<g id="edge3" class="edge"><title>Node3&#45;&gt;Node4</title>
<path fill="none" stroke="midnightblue" d="M295.306,-61.5C310.366,-61.5 326.283,-61.5 340.836,-61.5"/>
<polygon fill="midnightblue" stroke="midnightblue" points="295.045,-58.0001 285.045,-61.5 295.045,-65.0001 295.045,-58.0001"/>
</g>
<!-- Node6 -->
<g id="node6" class="node"><title>Node6</title>
<g id="a_node6"><a xlink:href="classmappel_1_1IterativeMaximizer.html#a1d9c29b69f468200a90bcd68adfb5643" target="_top" xlink:title="mappel::IterativeMaximizer\l::get_debug_stats">
<polygon fill="white" stroke="black" points="332,-0.5 332,-28.5 458,-28.5 458,-0.5 332,-0.5"/>
<text text-anchor="start" x="340" y="-17.3" font-family="Helvetica,sans-Serif" font-size="9.00">mappel::IterativeMaximizer</text>
<text text-anchor="middle" x="395" y="-7.3" font-family="Helvetica,sans-Serif" font-size="9.00">::get_debug_stats</text>
</a>
</g>
</g>
<!-- Node5&#45;&gt;Node6 -->
<g id="edge5" class="edge"><title>Node5&#45;&gt;Node6</title>
<path fill="none" stroke="midnightblue" d="M304.458,-14.5C313.65,-14.5 322.989,-14.5 331.996,-14.5"/>
<polygon fill="midnightblue" stroke="midnightblue" points="304.17,-11.0001 294.17,-14.5 304.17,-18.0001 304.17,-11.0001"/>
</g>
</g>
</svg>
