<?xml version="1.0" encoding="UTF-8" standalone="no"?>
<!DOCTYPE svg PUBLIC "-//W3C//DTD SVG 1.1//EN"
 "http://www.w3.org/Graphics/SVG/1.1/DTD/svg11.dtd">
<!-- Generated by graphviz version 2.38.0 (20140413.2041)
 -->
<!-- Title: mappel::Gauss2DModel::Stencil::Stencil Pages: 1 -->
<svg width="732pt" height="101pt"
 viewBox="0.00 0.00 732.00 101.00" xmlns="http://www.w3.org/2000/svg" xmlns:xlink="http://www.w3.org/1999/xlink">
<g id="graph0" class="graph" transform="scale(1 1) rotate(0) translate(4 97)">
<title>mappel::Gauss2DModel::Stencil::Stencil</title>
<polygon fill="white" stroke="none" points="-4,4 -4,-97 728,-97 728,4 -4,4"/>
<!-- Node1 -->
<g id="node1" class="node"><title>Node1</title>
<polygon fill="#bfbfbf" stroke="black" points="0,-32.5 0,-60.5 116,-60.5 116,-32.5 0,-32.5"/>
<text text-anchor="start" x="8" y="-49.3" font-family="Helvetica,sans-Serif" font-size="9.00">mappel::Gauss2DModel</text>
<text text-anchor="middle" x="58" y="-39.3" font-family="Helvetica,sans-Serif" font-size="9.00">::Stencil::Stencil</text>
</g>
<!-- Node2 -->
<g id="node2" class="node"><title>Node2</title>
<g id="a_node2"><a xlink:href="classmappel_1_1Gauss2DModel_1_1Stencil.html#aa454ad18859be0dcc48f5de8982c7ba7" target="_top" xlink:title="mappel::Gauss2DModel\l::Stencil::compute_derivatives">
<polygon fill="white" stroke="black" points="152,-32.5 152,-60.5 290,-60.5 290,-32.5 152,-32.5"/>
<text text-anchor="start" x="160" y="-49.3" font-family="Helvetica,sans-Serif" font-size="9.00">mappel::Gauss2DModel</text>
<text text-anchor="middle" x="221" y="-39.3" font-family="Helvetica,sans-Serif" font-size="9.00">::Stencil::compute_derivatives</text>
</a>
</g>
</g>
<!-- Node1&#45;&gt;Node2 -->
<g id="edge1" class="edge"><title>Node1&#45;&gt;Node2</title>
<path fill="none" stroke="midnightblue" d="M116.216,-46.5C124.531,-46.5 133.209,-46.5 141.851,-46.5"/>
<polygon fill="midnightblue" stroke="midnightblue" points="141.955,-50.0001 151.955,-46.5 141.955,-43.0001 141.955,-50.0001"/>
</g>
<!-- Node3 -->
<g id="node3" class="node"><title>Node3</title>
<g id="a_node3"><a xlink:href="namespacemappel.html#aa5c2f294298c875605ee1e9876b7d116" target="_top" xlink:title="mappel::make_G_stencil">
<polygon fill="white" stroke="black" points="332,-74.5 332,-92.5 450,-92.5 450,-74.5 332,-74.5"/>
<text text-anchor="middle" x="391" y="-81.3" font-family="Helvetica,sans-Serif" font-size="9.00">mappel::make_G_stencil</text>
</a>
</g>
</g>
<!-- Node2&#45;&gt;Node3 -->
<g id="edge2" class="edge"><title>Node2&#45;&gt;Node3</title>
<path fill="none" stroke="midnightblue" d="M285.993,-60.5937C303.501,-64.4496 322.241,-68.5768 338.922,-72.2507"/>
<polygon fill="midnightblue" stroke="midnightblue" points="338.495,-75.7404 349.013,-74.4732 340,-68.9042 338.495,-75.7404"/>
</g>
<!-- Node6 -->
<g id="node6" class="node"><title>Node6</title>
<g id="a_node6"><a xlink:href="namespacemappel.html#a8da88490d6ff7d5886b96b66c1bab369" target="_top" xlink:title="mappel::make_DX_stencil">
<polygon fill="white" stroke="black" points="329,-37.5 329,-55.5 453,-55.5 453,-37.5 329,-37.5"/>
<text text-anchor="middle" x="391" y="-44.3" font-family="Helvetica,sans-Serif" font-size="9.00">mappel::make_DX_stencil</text>
</a>
</g>
</g>
<!-- Node2&#45;&gt;Node6 -->
<g id="edge5" class="edge"><title>Node2&#45;&gt;Node6</title>
<path fill="none" stroke="midnightblue" d="M290.332,-46.5C299.672,-46.5 309.28,-46.5 318.671,-46.5"/>
<polygon fill="midnightblue" stroke="midnightblue" points="318.754,-50.0001 328.754,-46.5 318.754,-43.0001 318.754,-50.0001"/>
</g>
<!-- Node8 -->
<g id="node8" class="node"><title>Node8</title>
<g id="a_node8"><a xlink:href="namespacemappel.html#af7636db506977133c8b30d108fede711" target="_top" xlink:title="mappel::make_DXS_stencil">
<polygon fill="white" stroke="black" points="326,-0.5 326,-18.5 456,-18.5 456,-0.5 326,-0.5"/>
<text text-anchor="middle" x="391" y="-7.3" font-family="Helvetica,sans-Serif" font-size="9.00">mappel::make_DXS_stencil</text>
</a>
</g>
</g>
<!-- Node2&#45;&gt;Node8 -->
<g id="edge7" class="edge"><title>Node2&#45;&gt;Node8</title>
<path fill="none" stroke="midnightblue" d="M285.993,-32.4063C303.501,-28.5504 322.241,-24.4232 338.922,-20.7493"/>
<polygon fill="midnightblue" stroke="midnightblue" points="340,-24.0958 349.013,-18.5268 338.495,-17.2596 340,-24.0958"/>
</g>
<!-- Node4 -->
<g id="node4" class="node"><title>Node4</title>
<g id="a_node4"><a xlink:href="namespacemappel.html#a5ca82edc201e8605107a991493ad0d5e" target="_top" xlink:title="mappel::fill_G_stencil">
<polygon fill="white" stroke="black" points="498,-74.5 498,-92.5 602,-92.5 602,-74.5 498,-74.5"/>
<text text-anchor="middle" x="550" y="-81.3" font-family="Helvetica,sans-Serif" font-size="9.00">mappel::fill_G_stencil</text>
</a>
</g>
</g>
<!-- Node3&#45;&gt;Node4 -->
<g id="edge3" class="edge"><title>Node3&#45;&gt;Node4</title>
<path fill="none" stroke="midnightblue" d="M450.015,-83.5C462.299,-83.5 475.302,-83.5 487.703,-83.5"/>
<polygon fill="midnightblue" stroke="midnightblue" points="487.949,-87.0001 497.949,-83.5 487.949,-80.0001 487.949,-87.0001"/>
</g>
<!-- Node5 -->
<g id="node5" class="node"><title>Node5</title>
<g id="a_node5"><a xlink:href="namespacemappel.html#a8475cdb3edacceb0ae215c3ebd1f33c1" target="_top" xlink:title="mappel::square">
<polygon fill="white" stroke="black" points="644,-37.5 644,-55.5 724,-55.5 724,-37.5 644,-37.5"/>
<text text-anchor="middle" x="684" y="-44.3" font-family="Helvetica,sans-Serif" font-size="9.00">mappel::square</text>
</a>
</g>
</g>
<!-- Node4&#45;&gt;Node5 -->
<g id="edge4" class="edge"><title>Node4&#45;&gt;Node5</title>
<path fill="none" stroke="midnightblue" d="M583.291,-74.4488C600.63,-69.5886 622.212,-63.5392 640.858,-58.3126"/>
<polygon fill="midnightblue" stroke="midnightblue" points="641.901,-61.6552 650.585,-55.586 640.011,-54.915 641.901,-61.6552"/>
</g>
<!-- Node7 -->
<g id="node7" class="node"><title>Node7</title>
<g id="a_node7"><a xlink:href="namespacemappel.html#ad2dd4330fc626fa673a3acf691d6b9a7" target="_top" xlink:title="mappel::fill_DX_stencil">
<polygon fill="white" stroke="black" points="495,-37.5 495,-55.5 605,-55.5 605,-37.5 495,-37.5"/>
<text text-anchor="middle" x="550" y="-44.3" font-family="Helvetica,sans-Serif" font-size="9.00">mappel::fill_DX_stencil</text>
</a>
</g>
</g>
<!-- Node6&#45;&gt;Node7 -->
<g id="edge6" class="edge"><title>Node6&#45;&gt;Node7</title>
<path fill="none" stroke="midnightblue" d="M453.15,-46.5C463.482,-46.5 474.236,-46.5 484.647,-46.5"/>
<polygon fill="midnightblue" stroke="midnightblue" points="484.915,-50.0001 494.915,-46.5 484.915,-43.0001 484.915,-50.0001"/>
</g>
<!-- Node9 -->
<g id="node9" class="node"><title>Node9</title>
<g id="a_node9"><a xlink:href="namespacemappel.html#ab0cb62f6dcecae5ff19468d87a283e7a" target="_top" xlink:title="mappel::fill_DXS_stencil">
<polygon fill="white" stroke="black" points="492,-0.5 492,-18.5 608,-18.5 608,-0.5 492,-0.5"/>
<text text-anchor="middle" x="550" y="-7.3" font-family="Helvetica,sans-Serif" font-size="9.00">mappel::fill_DXS_stencil</text>
</a>
</g>
</g>
<!-- Node8&#45;&gt;Node9 -->
<g id="edge8" class="edge"><title>Node8&#45;&gt;Node9</title>
<path fill="none" stroke="midnightblue" d="M456.311,-9.5C464.619,-9.5 473.147,-9.5 481.504,-9.5"/>
<polygon fill="midnightblue" stroke="midnightblue" points="481.589,-13.0001 491.589,-9.5 481.589,-6.0001 481.589,-13.0001"/>
</g>
<!-- Node9&#45;&gt;Node5 -->
<g id="edge9" class="edge"><title>Node9&#45;&gt;Node5</title>
<path fill="none" stroke="midnightblue" d="M583.291,-18.5512C600.63,-23.4114 622.212,-29.4608 640.858,-34.6874"/>
<polygon fill="midnightblue" stroke="midnightblue" points="640.011,-38.085 650.585,-37.414 641.901,-31.3448 640.011,-38.085"/>
</g>
</g>
</svg>
