<?xml version="1.0" encoding="UTF-8" standalone="no"?>
<!DOCTYPE svg PUBLIC "-//W3C//DTD SVG 1.1//EN"
 "http://www.w3.org/Graphics/SVG/1.1/DTD/svg11.dtd">
<!-- Generated by graphviz version 2.38.0 (20140413.2041)
 -->
<!-- Title: mappel::ImageFormat2DBase::operator= Pages: 1 -->
<svg width="297pt" height="178pt"
 viewBox="0.00 0.00 297.00 178.00" xmlns="http://www.w3.org/2000/svg" xmlns:xlink="http://www.w3.org/1999/xlink">
<g id="graph0" class="graph" transform="scale(1 1) rotate(0) translate(4 174)">
<title>mappel::ImageFormat2DBase::operator=</title>
<polygon fill="white" stroke="none" points="-4,4 -4,-174 293,-174 293,4 -4,4"/>
<!-- Node1 -->
<g id="node1" class="node"><title>Node1</title>
<polygon fill="#bfbfbf" stroke="black" points="0,-70.5 0,-98.5 139,-98.5 139,-70.5 0,-70.5"/>
<text text-anchor="start" x="8" y="-87.3" font-family="Helvetica,sans-Serif" font-size="9.00">mappel::ImageFormat2DBase</text>
<text text-anchor="middle" x="69.5" y="-77.3" font-family="Helvetica,sans-Serif" font-size="9.00">::operator=</text>
</g>
<!-- Node2 -->
<g id="node2" class="node"><title>Node2</title>
<g id="a_node2"><a xlink:href="classmappel_1_1Gauss2DsMAP.html#ae9a68cb6e29b130082f4e4cf93dfe734" target="_top" xlink:title="mappel::Gauss2DsMAP\l::operator=">
<polygon fill="white" stroke="black" points="175,-141.5 175,-169.5 289,-169.5 289,-141.5 175,-141.5"/>
<text text-anchor="start" x="183" y="-158.3" font-family="Helvetica,sans-Serif" font-size="9.00">mappel::Gauss2DsMAP</text>
<text text-anchor="middle" x="232" y="-148.3" font-family="Helvetica,sans-Serif" font-size="9.00">::operator=</text>
</a>
</g>
</g>
<!-- Node1&#45;&gt;Node2 -->
<g id="edge1" class="edge"><title>Node1&#45;&gt;Node2</title>
<path fill="none" stroke="midnightblue" d="M109.733,-102.981C129.265,-112.064 153.287,-123.059 175,-132.5 181.843,-135.476 189.198,-138.57 196.255,-141.488"/>
<polygon fill="midnightblue" stroke="midnightblue" points="111.077,-99.7461 100.535,-98.6909 108.118,-106.09 111.077,-99.7461"/>
</g>
<!-- Node3 -->
<g id="node3" class="node"><title>Node3</title>
<g id="a_node3"><a xlink:href="classmappel_1_1Gauss2DsMLE.html#a3c3c72608a0aa4f7342119267888ac49" target="_top" xlink:title="mappel::Gauss2DsMLE\l::operator=">
<polygon fill="white" stroke="black" points="175.5,-94.5 175.5,-122.5 288.5,-122.5 288.5,-94.5 175.5,-94.5"/>
<text text-anchor="start" x="183.5" y="-111.3" font-family="Helvetica,sans-Serif" font-size="9.00">mappel::Gauss2DsMLE</text>
<text text-anchor="middle" x="232" y="-101.3" font-family="Helvetica,sans-Serif" font-size="9.00">::operator=</text>
</a>
</g>
</g>
<!-- Node1&#45;&gt;Node3 -->
<g id="edge2" class="edge"><title>Node1&#45;&gt;Node3</title>
<path fill="none" stroke="midnightblue" d="M149.015,-96.2406C157.888,-97.5674 166.79,-98.8985 175.285,-100.169"/>
<polygon fill="midnightblue" stroke="midnightblue" points="149.44,-92.7652 139.032,-94.7478 148.404,-99.6883 149.44,-92.7652"/>
</g>
<!-- Node4 -->
<g id="node4" class="node"><title>Node4</title>
<g id="a_node4"><a xlink:href="classmappel_1_1Gauss2DMAP.html#a45164f58c91c8eefffc0df248a7e8b7e" target="_top" xlink:title="mappel::Gauss2DMAP\l::operator=">
<polygon fill="white" stroke="black" points="177,-47.5 177,-75.5 287,-75.5 287,-47.5 177,-47.5"/>
<text text-anchor="start" x="185" y="-64.3" font-family="Helvetica,sans-Serif" font-size="9.00">mappel::Gauss2DMAP</text>
<text text-anchor="middle" x="232" y="-54.3" font-family="Helvetica,sans-Serif" font-size="9.00">::operator=</text>
</a>
</g>
</g>
<!-- Node1&#45;&gt;Node4 -->
<g id="edge3" class="edge"><title>Node1&#45;&gt;Node4</title>
<path fill="none" stroke="midnightblue" d="M149.14,-73.2307C158.488,-71.8911 167.865,-70.5474 176.763,-69.2722"/>
<polygon fill="midnightblue" stroke="midnightblue" points="148.434,-69.796 139.032,-74.6792 149.427,-76.7252 148.434,-69.796"/>
</g>
<!-- Node5 -->
<g id="node5" class="node"><title>Node5</title>
<g id="a_node5"><a xlink:href="classmappel_1_1Gauss2DMLE.html#a31e347e3ff70644f76a5ffd69656a43f" target="_top" xlink:title="mappel::Gauss2DMLE\l::operator=">
<polygon fill="white" stroke="black" points="177.5,-0.5 177.5,-28.5 286.5,-28.5 286.5,-0.5 177.5,-0.5"/>
<text text-anchor="start" x="185.5" y="-17.3" font-family="Helvetica,sans-Serif" font-size="9.00">mappel::Gauss2DMLE</text>
<text text-anchor="middle" x="232" y="-7.3" font-family="Helvetica,sans-Serif" font-size="9.00">::operator=</text>
</a>
</g>
</g>
<!-- Node1&#45;&gt;Node5 -->
<g id="edge4" class="edge"><title>Node1&#45;&gt;Node5</title>
<path fill="none" stroke="midnightblue" d="M111.839,-66.1921C131.029,-57.7219 154.158,-47.5529 175,-38.5 182.47,-35.2551 190.513,-31.791 198.108,-28.533"/>
<polygon fill="midnightblue" stroke="midnightblue" points="110.213,-63.084 102.48,-70.3262 113.041,-69.4871 110.213,-63.084"/>
</g>
</g>
</svg>
