<?xml version="1.0" encoding="UTF-8" standalone="no"?>
<!DOCTYPE svg PUBLIC "-//W3C//DTD SVG 1.1//EN"
 "http://www.w3.org/Graphics/SVG/1.1/DTD/svg11.dtd">
<!-- Generated by graphviz version 2.38.0 (20140413.2041)
 -->
<!-- Title: mappel::Gauss2DsMAP::Gauss2DsMAP Pages: 1 -->
<svg width="631pt" height="208pt"
 viewBox="0.00 0.00 631.00 208.00" xmlns="http://www.w3.org/2000/svg" xmlns:xlink="http://www.w3.org/1999/xlink">
<g id="graph0" class="graph" transform="scale(1 1) rotate(0) translate(4 204)">
<title>mappel::Gauss2DsMAP::Gauss2DsMAP</title>
<polygon fill="white" stroke="none" points="-4,4 -4,-204 627,-204 627,4 -4,4"/>
<!-- Node1 -->
<g id="node1" class="node"><title>Node1</title>
<polygon fill="#bfbfbf" stroke="black" points="0,-134.5 0,-162.5 114,-162.5 114,-134.5 0,-134.5"/>
<text text-anchor="start" x="8" y="-151.3" font-family="Helvetica,sans-Serif" font-size="9.00">mappel::Gauss2DsMAP</text>
<text text-anchor="middle" x="57" y="-141.3" font-family="Helvetica,sans-Serif" font-size="9.00">::Gauss2DsMAP</text>
</g>
<!-- Node2 -->
<g id="node2" class="node"><title>Node2</title>
<g id="a_node2"><a xlink:href="classmappel_1_1Gauss2DsModel.html#ad4bdfddccbc2a1053ac1f10199a4cb3b" target="_top" xlink:title="mappel::Gauss2DsModel\l::compute_max_sigma_ratio">
<polygon fill="white" stroke="black" points="150,-158.5 150,-186.5 282,-186.5 282,-158.5 150,-158.5"/>
<text text-anchor="start" x="158" y="-175.3" font-family="Helvetica,sans-Serif" font-size="9.00">mappel::Gauss2DsModel</text>
<text text-anchor="middle" x="216" y="-165.3" font-family="Helvetica,sans-Serif" font-size="9.00">::compute_max_sigma_ratio</text>
</a>
</g>
</g>
<!-- Node1&#45;&gt;Node2 -->
<g id="edge1" class="edge"><title>Node1&#45;&gt;Node2</title>
<path fill="none" stroke="midnightblue" d="M114.237,-157.097C122.522,-158.363 131.167,-159.685 139.76,-160.998"/>
<polygon fill="midnightblue" stroke="midnightblue" points="139.385,-164.482 149.799,-162.533 140.442,-157.562 139.385,-164.482"/>
</g>
<!-- Node3 -->
<g id="node3" class="node"><title>Node3</title>
<g id="a_node3"><a xlink:href="classmappel_1_1Gauss2DsModel.html#a5f730333cb51b9586892cfd5bb566bf1" target="_top" xlink:title="mappel::Gauss2DsModel\l::make_default_prior">
<polygon fill="white" stroke="black" points="156,-111.5 156,-139.5 276,-139.5 276,-111.5 156,-111.5"/>
<text text-anchor="start" x="164" y="-128.3" font-family="Helvetica,sans-Serif" font-size="9.00">mappel::Gauss2DsModel</text>
<text text-anchor="middle" x="216" y="-118.3" font-family="Helvetica,sans-Serif" font-size="9.00">::make_default_prior</text>
</a>
</g>
</g>
<!-- Node1&#45;&gt;Node3 -->
<g id="edge2" class="edge"><title>Node1&#45;&gt;Node3</title>
<path fill="none" stroke="midnightblue" d="M114.237,-140.261C124.506,-138.757 135.328,-137.172 145.918,-135.62"/>
<polygon fill="midnightblue" stroke="midnightblue" points="146.588,-139.06 155.975,-134.147 145.574,-132.133 146.588,-139.06"/>
</g>
<!-- Node4 -->
<g id="node4" class="node"><title>Node4</title>
<g id="a_node4"><a xlink:href="namespacemappel.html#a610296a93ba507763bc770d39049f323" target="_top" xlink:title="mappel::istarts_with">
<polygon fill="white" stroke="black" points="329,-163.5 329,-181.5 427,-181.5 427,-163.5 329,-163.5"/>
<text text-anchor="middle" x="378" y="-170.3" font-family="Helvetica,sans-Serif" font-size="9.00">mappel::istarts_with</text>
</a>
</g>
</g>
<!-- Node3&#45;&gt;Node4 -->
<g id="edge3" class="edge"><title>Node3&#45;&gt;Node4</title>
<path fill="none" stroke="midnightblue" d="M265.005,-139.602C287.835,-146.308 314.826,-154.236 336.591,-160.63"/>
<polygon fill="midnightblue" stroke="midnightblue" points="335.608,-163.989 346.189,-163.449 337.581,-157.273 335.608,-163.989"/>
</g>
<!-- Node5 -->
<g id="node5" class="node"><title>Node5</title>
<g id="a_node5"><a xlink:href="classmappel_1_1Gauss2DsModel.html#a19b5d93feda4f83a9b1b8b6df0e2ebc5" target="_top" xlink:title="mappel::Gauss2DsModel\l::make_default_prior\l_normal_position">
<polygon fill="white" stroke="black" points="318,-106.5 318,-144.5 438,-144.5 438,-106.5 318,-106.5"/>
<text text-anchor="start" x="326" y="-133.3" font-family="Helvetica,sans-Serif" font-size="9.00">mappel::Gauss2DsModel</text>
<text text-anchor="start" x="326" y="-123.3" font-family="Helvetica,sans-Serif" font-size="9.00">::make_default_prior</text>
<text text-anchor="middle" x="378" y="-113.3" font-family="Helvetica,sans-Serif" font-size="9.00">_normal_position</text>
</a>
</g>
</g>
<!-- Node3&#45;&gt;Node5 -->
<g id="edge4" class="edge"><title>Node3&#45;&gt;Node5</title>
<path fill="none" stroke="midnightblue" d="M276.124,-125.5C286.445,-125.5 297.265,-125.5 307.828,-125.5"/>
<polygon fill="midnightblue" stroke="midnightblue" points="307.853,-129 317.853,-125.5 307.852,-122 307.853,-129"/>
</g>
<!-- Node9 -->
<g id="node9" class="node"><title>Node9</title>
<g id="a_node9"><a xlink:href="classmappel_1_1Gauss2DsModel.html#aaad8b5a9355f37ecac6763acbf60bfe3" target="_top" xlink:title="mappel::Gauss2DsModel\l::make_default_prior\l_beta_position">
<polygon fill="white" stroke="black" points="318,-49.5 318,-87.5 438,-87.5 438,-49.5 318,-49.5"/>
<text text-anchor="start" x="326" y="-76.3" font-family="Helvetica,sans-Serif" font-size="9.00">mappel::Gauss2DsModel</text>
<text text-anchor="start" x="326" y="-66.3" font-family="Helvetica,sans-Serif" font-size="9.00">::make_default_prior</text>
<text text-anchor="middle" x="378" y="-56.3" font-family="Helvetica,sans-Serif" font-size="9.00">_beta_position</text>
</a>
</g>
</g>
<!-- Node3&#45;&gt;Node9 -->
<g id="edge8" class="edge"><title>Node3&#45;&gt;Node9</title>
<path fill="none" stroke="midnightblue" d="M256.551,-111.41C273.809,-105.262 294.475,-97.8996 313.777,-91.0233"/>
<polygon fill="midnightblue" stroke="midnightblue" points="315.174,-94.2409 323.42,-87.5879 312.825,-87.6469 315.174,-94.2409"/>
</g>
<!-- Node6 -->
<g id="node6" class="node"><title>Node6</title>
<g id="a_node6"><a xlink:href="classmappel_1_1PointEmitterModel.html#ab99350cf74097c558f7a93b79e7a44c3" target="_top" xlink:title="mappel::PointEmitterModel\l::make_prior_component\l_position_normal">
<polygon fill="white" stroke="black" points="485,-161.5 485,-199.5 612,-199.5 612,-161.5 485,-161.5"/>
<text text-anchor="start" x="493" y="-188.3" font-family="Helvetica,sans-Serif" font-size="9.00">mappel::PointEmitterModel</text>
<text text-anchor="start" x="493" y="-178.3" font-family="Helvetica,sans-Serif" font-size="9.00">::make_prior_component</text>
<text text-anchor="middle" x="548.5" y="-168.3" font-family="Helvetica,sans-Serif" font-size="9.00">_position_normal</text>
</a>
</g>
</g>
<!-- Node5&#45;&gt;Node6 -->
<g id="edge5" class="edge"><title>Node5&#45;&gt;Node6</title>
<path fill="none" stroke="midnightblue" d="M437.46,-144.582C451.053,-149.019 465.636,-153.779 479.597,-158.336"/>
<polygon fill="midnightblue" stroke="midnightblue" points="478.551,-161.676 489.143,-161.452 480.723,-155.021 478.551,-161.676"/>
</g>
<!-- Node7 -->
<g id="node7" class="node"><title>Node7</title>
<g id="a_node7"><a xlink:href="classmappel_1_1PointEmitterModel.html#a4517e887a22007bd2e03650dcb853c92" target="_top" xlink:title="mappel::PointEmitterModel\l::make_prior_component\l_intensity">
<polygon fill="white" stroke="black" points="485,-104.5 485,-142.5 612,-142.5 612,-104.5 485,-104.5"/>
<text text-anchor="start" x="493" y="-131.3" font-family="Helvetica,sans-Serif" font-size="9.00">mappel::PointEmitterModel</text>
<text text-anchor="start" x="493" y="-121.3" font-family="Helvetica,sans-Serif" font-size="9.00">::make_prior_component</text>
<text text-anchor="middle" x="548.5" y="-111.3" font-family="Helvetica,sans-Serif" font-size="9.00">_intensity</text>
</a>
</g>
</g>
<!-- Node5&#45;&gt;Node7 -->
<g id="edge6" class="edge"><title>Node5&#45;&gt;Node7</title>
<path fill="none" stroke="midnightblue" d="M438.407,-124.795C450.177,-124.655 462.657,-124.507 474.81,-124.363"/>
<polygon fill="midnightblue" stroke="midnightblue" points="474.961,-127.861 484.919,-124.243 474.878,-120.862 474.961,-127.861"/>
</g>
<!-- Node8 -->
<g id="node8" class="node"><title>Node8</title>
<g id="a_node8"><a xlink:href="classmappel_1_1PointEmitterModel.html#a6fa9641db2d58329c5225e76427e3219" target="_top" xlink:title="mappel::PointEmitterModel\l::make_prior_component_sigma">
<polygon fill="white" stroke="black" points="474,-57.5 474,-85.5 623,-85.5 623,-57.5 474,-57.5"/>
<text text-anchor="start" x="482" y="-74.3" font-family="Helvetica,sans-Serif" font-size="9.00">mappel::PointEmitterModel</text>
<text text-anchor="middle" x="548.5" y="-64.3" font-family="Helvetica,sans-Serif" font-size="9.00">::make_prior_component_sigma</text>
</a>
</g>
</g>
<!-- Node5&#45;&gt;Node8 -->
<g id="edge7" class="edge"><title>Node5&#45;&gt;Node8</title>
<path fill="none" stroke="midnightblue" d="M438.407,-106.462C456.554,-100.646 476.391,-94.2886 494.113,-88.6091"/>
<polygon fill="midnightblue" stroke="midnightblue" points="495.263,-91.9162 503.717,-85.5312 493.126,-85.2501 495.263,-91.9162"/>
</g>
<!-- Node9&#45;&gt;Node7 -->
<g id="edge10" class="edge"><title>Node9&#45;&gt;Node7</title>
<path fill="none" stroke="midnightblue" d="M437.46,-87.582C451.053,-92.0187 465.636,-96.7789 479.597,-101.336"/>
<polygon fill="midnightblue" stroke="midnightblue" points="478.551,-104.676 489.143,-104.452 480.723,-98.0215 478.551,-104.676"/>
</g>
<!-- Node9&#45;&gt;Node8 -->
<g id="edge11" class="edge"><title>Node9&#45;&gt;Node8</title>
<path fill="none" stroke="midnightblue" d="M438.407,-69.5577C446.647,-69.7044 455.236,-69.8573 463.816,-70.0101"/>
<polygon fill="midnightblue" stroke="midnightblue" points="463.804,-73.5103 473.864,-70.189 463.928,-66.5114 463.804,-73.5103"/>
</g>
<!-- Node10 -->
<g id="node10" class="node"><title>Node10</title>
<g id="a_node10"><a xlink:href="classmappel_1_1PointEmitterModel.html#ad4d563dd11df8c3daf83890374807185" target="_top" xlink:title="mappel::PointEmitterModel\l::make_prior_component\l_position_beta">
<polygon fill="white" stroke="black" points="485,-0.5 485,-38.5 612,-38.5 612,-0.5 485,-0.5"/>
<text text-anchor="start" x="493" y="-27.3" font-family="Helvetica,sans-Serif" font-size="9.00">mappel::PointEmitterModel</text>
<text text-anchor="start" x="493" y="-17.3" font-family="Helvetica,sans-Serif" font-size="9.00">::make_prior_component</text>
<text text-anchor="middle" x="548.5" y="-7.3" font-family="Helvetica,sans-Serif" font-size="9.00">_position_beta</text>
</a>
</g>
</g>
<!-- Node9&#45;&gt;Node10 -->
<g id="edge9" class="edge"><title>Node9&#45;&gt;Node10</title>
<path fill="none" stroke="midnightblue" d="M438.407,-51.2244C450.294,-47.7675 462.906,-44.0999 475.174,-40.5324"/>
<polygon fill="midnightblue" stroke="midnightblue" points="476.294,-43.8519 484.919,-37.6987 474.339,-37.1304 476.294,-43.8519"/>
</g>
</g>
</svg>
