<?xml version="1.0" encoding="UTF-8" standalone="no"?>
<!DOCTYPE svg PUBLIC "-//W3C//DTD SVG 1.1//EN"
 "http://www.w3.org/Graphics/SVG/1.1/DTD/svg11.dtd">
<!-- Generated by graphviz version 2.38.0 (20140413.2041)
 -->
<!-- Title: mappel::Gauss1DsMAP Pages: 1 -->
<!--zoomable 309 -->
<svg id="main" version="1.1" xmlns="http://www.w3.org/2000/svg" xmlns:xlink="http://www.w3.org/1999/xlink" xml:space="preserve" onload="init(evt)">
<style type="text/css"><![CDATA[
.edge:hover path { stroke: red; }
.edge:hover polygon { stroke: red; fill: red; }
]]></style>
<script type="text/javascript"><![CDATA[
var edges = document.getElementsByTagName('g');
if (edges && edges.length) {
  for (var i=0;i<edges.length;i++) {
    if (edges[i].id.substr(0,4)=='edge') {
      edges[i].setAttribute('class','edge');
    }
  }
}
]]></script>
        <defs>
                <circle id="rim" cx="0" cy="0" r="7"/>
                <circle id="rim2" cx="0" cy="0" r="3.5"/>
                <g id="zoomPlus">
                        <use xlink:href="#rim" fill="#404040">
                                <set attributeName="fill" to="#808080" begin="zoomplus.mouseover" end="zoomplus.mouseout"/>
                        </use>
                        <path d="M-4,0h8M0,-4v8" fill="none" stroke="white" stroke-width="1.5" pointer-events="none"/>
                </g>
                <g id="zoomMin">
                        <use xlink:href="#rim" fill="#404040">
                                <set attributeName="fill" to="#808080" begin="zoomminus.mouseover" end="zoomminus.mouseout"/>
                        </use>
                        <path d="M-4,0h8" fill="none" stroke="white" stroke-width="1.5" pointer-events="none"/>
                </g>
                <g id="dirArrow">
                        <path fill="none" stroke="white" stroke-width="1.5" d="M0,-3.0v7 M-2.5,-0.5L0,-3.0L2.5,-0.5"/>
                </g>
               <g id="resetDef">
                       <use xlink:href="#rim2" fill="#404040">
                               <set attributeName="fill" to="#808080" begin="reset.mouseover" end="reset.mouseout"/>
                       </use>
               </g>
        </defs>

<script type="text/javascript">
var viewWidth = 1410;
var viewHeight = 309;
var sectionId = 'dynsection-1';
</script>
<script xlink:href="svgpan.js"/>
<svg id="graph" class="graph">
<g id="viewport">
<title>mappel::Gauss1DsMAP</title>
<polygon fill="white" stroke="none" points="-4,4 -4,-304.75 1406,-304.75 1406,4 -4,4"/>
<!-- Node1 -->
<g id="node1" class="node"><title>Node1</title>
<polygon fill="#bfbfbf" stroke="black" points="1288,-186.75 1288,-204.75 1402,-204.75 1402,-186.75 1288,-186.75"/>
<text text-anchor="middle" x="1345" y="-193.55" font-family="Helvetica,sans-Serif" font-size="9.00">mappel::Gauss1DsMAP</text>
</g>
<!-- Node2 -->
<g id="node2" class="node"><title>Node2</title>
<g id="a_node2"><a xlink:href="classmappel_1_1Gauss1DsModel.html" target="_top" xlink:title="Base class for 1D Gaussian PSF with variable Gaussian sigma (standard deviation) measured in units of...">
<polygon fill="white" stroke="black" points="1111.5,-143.75 1111.5,-161.75 1231.5,-161.75 1231.5,-143.75 1111.5,-143.75"/>
<text text-anchor="middle" x="1171.5" y="-150.55" font-family="Helvetica,sans-Serif" font-size="9.00">mappel::Gauss1DsModel</text>
</a>
</g>
</g>
<!-- Node2&#45;&gt;Node1 -->
<g id="edge1" class="edge"><title>Node2&#45;&gt;Node1</title>
<path fill="none" stroke="midnightblue" d="M1218.45,-164.271C1246.57,-171.323 1282.04,-180.215 1308.1,-186.748"/>
<polygon fill="midnightblue" stroke="midnightblue" points="1219,-160.802 1208.45,-161.765 1217.3,-167.592 1219,-160.802"/>
</g>
<!-- Node3 -->
<g id="node3" class="node"><title>Node3</title>
<g id="a_node3"><a xlink:href="classmappel_1_1PointEmitterModel.html" target="_top" xlink:title="A virtual Base type for point emitter localization models. ">
<polygon fill="white" stroke="black" points="366.5,-165.75 366.5,-183.75 493.5,-183.75 493.5,-165.75 366.5,-165.75"/>
<text text-anchor="middle" x="430" y="-172.55" font-family="Helvetica,sans-Serif" font-size="9.00">mappel::PointEmitterModel</text>
</a>
</g>
</g>
<!-- Node3&#45;&gt;Node2 -->
<g id="edge2" class="edge"><title>Node3&#45;&gt;Node2</title>
<path fill="none" stroke="midnightblue" d="M503.953,-172.58C650.344,-168.225 977.337,-158.497 1111.42,-154.508"/>
<polygon fill="midnightblue" stroke="midnightblue" points="503.622,-169.088 493.73,-172.884 503.83,-176.085 503.622,-169.088"/>
</g>
<!-- Node9 -->
<g id="node9" class="node"><title>Node9</title>
<g id="a_node9"><a xlink:href="classmappel_1_1MCMCAdaptor1D.html" target="_top" xlink:title="mappel::MCMCAdaptor1D">
<polygon fill="white" stroke="black" points="573,-121.75 573,-139.75 698,-139.75 698,-121.75 573,-121.75"/>
<text text-anchor="middle" x="635.5" y="-128.55" font-family="Helvetica,sans-Serif" font-size="9.00">mappel::MCMCAdaptor1D</text>
</a>
</g>
</g>
<!-- Node3&#45;&gt;Node9 -->
<g id="edge9" class="edge"><title>Node3&#45;&gt;Node9</title>
<path fill="none" stroke="midnightblue" d="M482.882,-163.533C516.877,-156.182 560.74,-146.698 592.534,-139.824"/>
<polygon fill="midnightblue" stroke="midnightblue" points="481.707,-160.206 472.672,-165.74 483.186,-167.048 481.707,-160.206"/>
</g>
<!-- Node15 -->
<g id="node15" class="node"><title>Node15</title>
<g id="a_node15"><a xlink:href="classmappel_1_1MAPEstimator.html" target="_top" xlink:title="A Mixin class to configure a for MLE estimation (null prior). ">
<polygon fill="white" stroke="black" points="716,-201.75 716,-219.75 826,-219.75 826,-201.75 716,-201.75"/>
<text text-anchor="middle" x="771" y="-208.55" font-family="Helvetica,sans-Serif" font-size="9.00">mappel::MAPEstimator</text>
</a>
</g>
</g>
<!-- Node3&#45;&gt;Node15 -->
<g id="edge20" class="edge"><title>Node3&#45;&gt;Node15</title>
<path fill="none" stroke="midnightblue" d="M503.548,-182.454C567.229,-189.217 658.418,-198.901 715.897,-205.005"/>
<polygon fill="midnightblue" stroke="midnightblue" points="503.887,-178.971 493.573,-181.395 503.147,-185.932 503.887,-178.971"/>
</g>
<!-- Node4 -->
<g id="node4" class="node"><title>Node4</title>
<polygon fill="white" stroke="#bfbfbf" points="125,-165.75 125,-183.75 202,-183.75 202,-165.75 125,-165.75"/>
<text text-anchor="middle" x="163.5" y="-172.55" font-family="Helvetica,sans-Serif" font-size="9.00">CompositeDist</text>
</g>
<!-- Node4&#45;&gt;Node3 -->
<g id="edge3" class="edge"><title>Node4&#45;&gt;Node3</title>
<path fill="none" stroke="#9a32cd" stroke-dasharray="5,2" d="M212.337,-174.75C255.441,-174.75 319.098,-174.75 366.268,-174.75"/>
<polygon fill="#9a32cd" stroke="#9a32cd" points="212.116,-171.25 202.116,-174.75 212.115,-178.25 212.116,-171.25"/>
<text text-anchor="middle" x="282.5" y="-177.55" font-family="Helvetica,sans-Serif" font-size="9.00"> prior</text>
</g>
<!-- Node5 -->
<g id="node5" class="node"><title>Node5</title>
<g id="a_node5"><a xlink:title="STL class. ">
<polygon fill="white" stroke="#bfbfbf" points="135.5,-225.75 135.5,-243.75 191.5,-243.75 191.5,-225.75 135.5,-225.75"/>
<text text-anchor="middle" x="163.5" y="-232.55" font-family="Helvetica,sans-Serif" font-size="9.00">std::string</text>
</a>
</g>
</g>
<!-- Node5&#45;&gt;Node1 -->
<g id="edge21" class="edge"><title>Node5&#45;&gt;Node1</title>
<path fill="none" stroke="#9a32cd" stroke-dasharray="5,2" d="M190.768,-248.373C199.826,-252.584 210.17,-256.868 220,-259.75 310.111,-286.174 335.095,-290.75 429,-290.75 429,-290.75 429,-290.75 1172.5,-290.75 1242.96,-290.75 1311.6,-228.637 1335.3,-204.859"/>
<polygon fill="#9a32cd" stroke="#9a32cd" points="192.054,-245.107 181.528,-243.902 189.005,-251.408 192.054,-245.107"/>
<text text-anchor="middle" x="771" y="-293.55" font-family="Helvetica,sans-Serif" font-size="9.00"> name</text>
</g>
<!-- Node5&#45;&gt;Node2 -->
<g id="edge11" class="edge"><title>Node5&#45;&gt;Node2</title>
<path fill="none" stroke="#9a32cd" stroke-dasharray="5,2" d="M202.129,-238.927C253.372,-244.244 348.002,-252.75 429,-252.75 429,-252.75 429,-252.75 772,-252.75 920.721,-252.75 1091.53,-186.417 1149.79,-161.801"/>
<polygon fill="#9a32cd" stroke="#9a32cd" points="202.186,-235.413 191.874,-237.845 201.451,-242.375 202.186,-235.413"/>
<text text-anchor="middle" x="635.5" y="-255.55" font-family="Helvetica,sans-Serif" font-size="9.00"> DefaultPriorType</text>
</g>
<!-- Node5&#45;&gt;Node3 -->
<g id="edge4" class="edge"><title>Node5&#45;&gt;Node3</title>
<path fill="none" stroke="#9a32cd" stroke-dasharray="5,2" d="M201.767,-226.297C251.221,-215.078 338.188,-195.35 388.988,-183.827"/>
<polygon fill="#9a32cd" stroke="#9a32cd" points="200.788,-222.93 191.81,-228.555 202.336,-229.756 200.788,-222.93"/>
<text text-anchor="middle" x="282.5" y="-225.55" font-family="Helvetica,sans-Serif" font-size="9.00"> DefaultSeperableInitEstimator</text>
</g>
<!-- Node14 -->
<g id="node14" class="node"><title>Node14</title>
<polygon fill="white" stroke="#bfbfbf" points="857.5,-0.750297 857.5,-18.7503 969.5,-18.7503 969.5,-0.750297 857.5,-0.750297"/>
<text text-anchor="middle" x="913.5" y="-7.5503" font-family="Helvetica,sans-Serif" font-size="9.00">std::vector&lt; std::string &gt;</text>
</g>
<!-- Node5&#45;&gt;Node14 -->
<g id="edge17" class="edge"><title>Node5&#45;&gt;Node14</title>
<path fill="none" stroke="#9a32cd" stroke-dasharray="5,2" d="M179.795,-217.954C186.661,-210.329 194.817,-201.154 202,-192.75 210.209,-183.147 210.972,-179.588 220,-170.75 277.689,-114.278 287.931,-88.4452 363,-58.7503 533.11,8.53989 755.267,2.69664 857.114,-4.60873"/>
<polygon fill="#9a32cd" stroke="#9a32cd" points="177.072,-215.747 172.957,-225.51 182.262,-220.444 177.072,-215.747"/>
<text text-anchor="middle" x="535" y="-20.5503" font-family="Helvetica,sans-Serif" font-size="9.00"> elements</text>
</g>
<!-- Node6 -->
<g id="node6" class="node"><title>Node6</title>
<g id="a_node6"><a xlink:title="STL class. ">
<polygon fill="white" stroke="#bfbfbf" points="0,-220.75 0,-248.75 88,-248.75 88,-220.75 0,-220.75"/>
<text text-anchor="start" x="8" y="-237.55" font-family="Helvetica,sans-Serif" font-size="9.00">std::basic_string&lt;</text>
<text text-anchor="middle" x="44" y="-227.55" font-family="Helvetica,sans-Serif" font-size="9.00"> char &gt;</text>
</a>
</g>
</g>
<!-- Node6&#45;&gt;Node5 -->
<g id="edge5" class="edge"><title>Node6&#45;&gt;Node5</title>
<path fill="none" stroke="midnightblue" d="M98.287,-234.75C111.161,-234.75 124.389,-234.75 135.467,-234.75"/>
<polygon fill="midnightblue" stroke="midnightblue" points="98.0855,-231.25 88.0855,-234.75 98.0854,-238.25 98.0855,-231.25"/>
</g>
<!-- Node7 -->
<g id="node7" class="node"><title>Node7</title>
<g id="a_node7"><a xlink:href="classmappel_1_1ImageFormat1DBase.html" target="_top" xlink:title="A virtual base class for 2D image localization objectives. ">
<polygon fill="white" stroke="black" points="844,-37.7503 844,-55.7503 983,-55.7503 983,-37.7503 844,-37.7503"/>
<text text-anchor="middle" x="913.5" y="-44.5503" font-family="Helvetica,sans-Serif" font-size="9.00">mappel::ImageFormat1DBase</text>
</a>
</g>
</g>
<!-- Node7&#45;&gt;Node2 -->
<g id="edge6" class="edge"><title>Node7&#45;&gt;Node2</title>
<path fill="none" stroke="midnightblue" d="M993.226,-57.2691C1019.66,-62.5493 1048.81,-70.3446 1074,-81.7503 1109.43,-97.7934 1144.59,-128.283 1160.97,-143.553"/>
<polygon fill="midnightblue" stroke="midnightblue" points="993.72,-53.8003 983.241,-55.3662 992.409,-60.6765 993.72,-53.8003"/>
</g>
<!-- Node13 -->
<g id="node13" class="node"><title>Node13</title>
<g id="a_node13"><a xlink:href="classmappel_1_1PoissonNoise1DObjective.html" target="_top" xlink:title="A base class for 1D objectives with Poisson read noise. This objective function and its subclasses ar...">
<polygon fill="white" stroke="black" points="1092,-33.7503 1092,-51.7503 1251,-51.7503 1251,-33.7503 1092,-33.7503"/>
<text text-anchor="middle" x="1171.5" y="-40.5503" font-family="Helvetica,sans-Serif" font-size="9.00">mappel::PoissonNoise1DObjective</text>
</a>
</g>
</g>
<!-- Node7&#45;&gt;Node13 -->
<g id="edge15" class="edge"><title>Node7&#45;&gt;Node13</title>
<path fill="none" stroke="midnightblue" d="M993.504,-45.5159C1024.73,-45.028 1060.54,-44.4685 1091.74,-43.9809"/>
<polygon fill="midnightblue" stroke="midnightblue" points="993.047,-42.0225 983.103,-45.6784 993.157,-49.0216 993.047,-42.0225"/>
</g>
<!-- Node8 -->
<g id="node8" class="node"><title>Node8</title>
<g id="a_node8"><a xlink:href="classmappel_1_1MCMCAdaptor1Ds.html" target="_top" xlink:title="mappel::MCMCAdaptor1Ds">
<polygon fill="white" stroke="black" points="849,-121.75 849,-139.75 978,-139.75 978,-121.75 849,-121.75"/>
<text text-anchor="middle" x="913.5" y="-128.55" font-family="Helvetica,sans-Serif" font-size="9.00">mappel::MCMCAdaptor1Ds</text>
</a>
</g>
</g>
<!-- Node8&#45;&gt;Node2 -->
<g id="edge7" class="edge"><title>Node8&#45;&gt;Node2</title>
<path fill="none" stroke="midnightblue" d="M988.355,-137.097C1027.36,-140.449 1074.58,-144.507 1111.17,-147.652"/>
<polygon fill="midnightblue" stroke="midnightblue" points="988.373,-133.586 978.11,-136.217 987.773,-140.56 988.373,-133.586"/>
</g>
<!-- Node9&#45;&gt;Node8 -->
<g id="edge8" class="edge"><title>Node9&#45;&gt;Node8</title>
<path fill="none" stroke="midnightblue" d="M708.318,-130.75C751.794,-130.75 806.753,-130.75 848.697,-130.75"/>
<polygon fill="midnightblue" stroke="midnightblue" points="708.096,-127.25 698.096,-130.75 708.096,-134.25 708.096,-127.25"/>
</g>
<!-- Node10 -->
<g id="node10" class="node"><title>Node10</title>
<g id="a_node10"><a xlink:href="classmappel_1_1MCMCAdaptorBase.html" target="_top" xlink:title="mappel::MCMCAdaptorBase">
<polygon fill="white" stroke="black" points="363,-109.75 363,-127.75 497,-127.75 497,-109.75 363,-109.75"/>
<text text-anchor="middle" x="430" y="-116.55" font-family="Helvetica,sans-Serif" font-size="9.00">mappel::MCMCAdaptorBase</text>
</a>
</g>
</g>
<!-- Node10&#45;&gt;Node9 -->
<g id="edge10" class="edge"><title>Node10&#45;&gt;Node9</title>
<path fill="none" stroke="midnightblue" d="M507.225,-123.245C528.895,-124.523 552.217,-125.898 572.902,-127.118"/>
<polygon fill="midnightblue" stroke="midnightblue" points="507.259,-119.741 497.071,-122.646 506.847,-126.729 507.259,-119.741"/>
</g>
<!-- Node11 -->
<g id="node11" class="node"><title>Node11</title>
<g id="a_node11"><a xlink:title="STL class. ">
<polygon fill="white" stroke="#bfbfbf" points="596.5,-68.7503 596.5,-86.7503 674.5,-86.7503 674.5,-68.7503 596.5,-68.7503"/>
<text text-anchor="middle" x="635.5" y="-75.5503" font-family="Helvetica,sans-Serif" font-size="9.00">std::vector&lt; T &gt;</text>
</a>
</g>
</g>
<!-- Node11&#45;&gt;Node2 -->
<g id="edge12" class="edge"><title>Node11&#45;&gt;Node2</title>
<path fill="none" stroke="#9a32cd" stroke-dasharray="5,2" d="M685.027,-78.1162C752.364,-79.3023 877.742,-83.9676 983,-101.75 1041.38,-111.613 1107.83,-131.922 1143.86,-143.719"/>
<polygon fill="#9a32cd" stroke="#9a32cd" points="684.784,-74.612 674.73,-77.9542 684.673,-81.6111 684.784,-74.612"/>
<text text-anchor="middle" x="913.5" y="-104.55" font-family="Helvetica,sans-Serif" font-size="9.00"> prior_types</text>
</g>
<!-- Node11&#45;&gt;Node14 -->
<g id="edge18" class="edge"><title>Node11&#45;&gt;Node14</title>
<path fill="none" stroke="orange" stroke-dasharray="5,2" d="M682.866,-66.3267C737.142,-52.9544 825.923,-31.0809 875.698,-18.8175"/>
<polygon fill="orange" stroke="orange" points="682.023,-62.9297 673.151,-68.7204 683.698,-69.7265 682.023,-62.9297"/>
<text text-anchor="middle" x="771" y="-60.5503" font-family="Helvetica,sans-Serif" font-size="9.00"> &lt; std::string &gt;</text>
</g>
<!-- Node12 -->
<g id="node12" class="node"><title>Node12</title>
<polygon fill="white" stroke="#bfbfbf" points="415.5,-68.7503 415.5,-86.7503 444.5,-86.7503 444.5,-68.7503 415.5,-68.7503"/>
<text text-anchor="middle" x="430" y="-75.5503" font-family="Helvetica,sans-Serif" font-size="9.00">T</text>
</g>
<!-- Node12&#45;&gt;Node11 -->
<g id="edge13" class="edge"><title>Node12&#45;&gt;Node11</title>
<path fill="none" stroke="#9a32cd" stroke-dasharray="5,2" d="M454.854,-77.7503C489.725,-77.7503 554.973,-77.7503 596.499,-77.7503"/>
<polygon fill="#9a32cd" stroke="#9a32cd" points="454.668,-74.2504 444.668,-77.7503 454.668,-81.2504 454.668,-74.2504"/>
<text text-anchor="middle" x="535" y="-80.5503" font-family="Helvetica,sans-Serif" font-size="9.00"> elements</text>
</g>
<!-- Node13&#45;&gt;Node1 -->
<g id="edge14" class="edge"><title>Node13&#45;&gt;Node1</title>
<path fill="none" stroke="midnightblue" d="M1190.42,-58.7402C1226.15,-90.6166 1305.25,-161.184 1333.62,-186.492"/>
<polygon fill="midnightblue" stroke="midnightblue" points="1192.51,-55.9084 1182.71,-51.8629 1187.85,-61.1318 1192.51,-55.9084"/>
</g>
<!-- Node14&#45;&gt;Node13 -->
<g id="edge16" class="edge"><title>Node14&#45;&gt;Node13</title>
<path fill="none" stroke="#9a32cd" stroke-dasharray="5,2" d="M979.858,-18.1754C1016.67,-22.9208 1062.66,-28.8488 1100.24,-33.6937"/>
<polygon fill="#9a32cd" stroke="#9a32cd" points="980.098,-14.6775 969.733,-16.8702 979.203,-21.62 980.098,-14.6775"/>
<text text-anchor="middle" x="1037.5" y="-33.5503" font-family="Helvetica,sans-Serif" font-size="9.00"> estimator_names</text>
</g>
<!-- Node15&#45;&gt;Node1 -->
<g id="edge19" class="edge"><title>Node15&#45;&gt;Node1</title>
<path fill="none" stroke="midnightblue" d="M836.284,-209.065C949.143,-206.105 1181.05,-200.023 1287.87,-197.222"/>
<polygon fill="midnightblue" stroke="midnightblue" points="835.975,-205.571 826.07,-209.332 836.158,-212.569 835.975,-205.571"/>
</g>
</g>
</svg>
        <g id="navigator" transform="translate(0 0)" fill="#404254">
                <rect fill="#f2f5e9" fill-opacity="0.5" stroke="#606060" stroke-width=".5" x="0" y="0" width="60" height="60"/>
                <use id="zoomplus" xlink:href="#zoomPlus" x="17" y="9" onmousedown="handleZoom(evt,'in')"/>
                <use id="zoomminus" xlink:href="#zoomMin" x="42" y="9" onmousedown="handleZoom(evt,'out')"/>
                <use id="reset" xlink:href="#resetDef" x="30" y="36" onmousedown="handleReset()"/>
                <g id="arrowUp" xlink:href="#dirArrow" transform="translate(30 24)" onmousedown="handlePan(0,-1)">
                  <use xlink:href="#rim" fill="#404040">
                        <set attributeName="fill" to="#808080" begin="arrowUp.mouseover" end="arrowUp.mouseout"/>
                  </use>
                  <path fill="none" stroke="white" stroke-width="1.5" d="M0,-3.0v7 M-2.5,-0.5L0,-3.0L2.5,-0.5"/>
                </g>
                <g id="arrowRight" xlink:href="#dirArrow" transform="rotate(90) translate(36 -43)" onmousedown="handlePan(1,0)">
                  <use xlink:href="#rim" fill="#404040">
                        <set attributeName="fill" to="#808080" begin="arrowRight.mouseover" end="arrowRight.mouseout"/>
                  </use>
                  <path fill="none" stroke="white" stroke-width="1.5" d="M0,-3.0v7 M-2.5,-0.5L0,-3.0L2.5,-0.5"/>
                </g>
                <g id="arrowDown" xlink:href="#dirArrow" transform="rotate(180) translate(-30 -48)" onmousedown="handlePan(0,1)">
                  <use xlink:href="#rim" fill="#404040">
                        <set attributeName="fill" to="#808080" begin="arrowDown.mouseover" end="arrowDown.mouseout"/>
                  </use>
                  <path fill="none" stroke="white" stroke-width="1.5" d="M0,-3.0v7 M-2.5,-0.5L0,-3.0L2.5,-0.5"/>
                </g>
                <g id="arrowLeft" xlink:href="#dirArrow" transform="rotate(270) translate(-36 17)" onmousedown="handlePan(-1,0)">
                  <use xlink:href="#rim" fill="#404040">
                        <set attributeName="fill" to="#808080" begin="arrowLeft.mouseover" end="arrowLeft.mouseout"/>
                  </use>
                  <path fill="none" stroke="white" stroke-width="1.5" d="M0,-3.0v7 M-2.5,-0.5L0,-3.0L2.5,-0.5"/>
                </g>
        </g>
        <svg viewBox="0 0 15 15" width="100%" height="30px" preserveAspectRatio="xMaxYMin meet">
         <g id="arrow_out" transform="scale(0.3 0.3)">
          <a xlink:href="classmappel_1_1Gauss1DsMAP__coll__graph_org.svg" target="_base">
           <rect id="button" ry="5" rx="5" y="6" x="6" height="38" width="38"
                fill="#f2f5e9" fill-opacity="0.5" stroke="#606060" stroke-width="1.0"/>
           <path id="arrow"
             d="M 11.500037,31.436501 C 11.940474,20.09759 22.043105,11.32322 32.158766,21.979434 L 37.068811,17.246167 C 37.068811,17.246167 37.088388,32 37.088388,32 L 22.160133,31.978069 C 22.160133,31.978069 26.997745,27.140456 26.997745,27.140456 C 18.528582,18.264221 13.291696,25.230495 11.500037,31.436501 z"
             style="fill:#404040;"/>
          </a>
         </g>
        </svg>
</svg>
