<?xml version="1.0" encoding="UTF-8" standalone="no"?>
<!DOCTYPE svg PUBLIC "-//W3C//DTD SVG 1.1//EN"
 "http://www.w3.org/Graphics/SVG/1.1/DTD/svg11.dtd">
<!-- Generated by graphviz version 2.38.0 (20140413.2041)
 -->
<!-- Title: mappel::Gauss2DsModel::debug_internal_sum_model_y Pages: 1 -->
<!--zoomable 302 -->
<svg id="main" version="1.1" xmlns="http://www.w3.org/2000/svg" xmlns:xlink="http://www.w3.org/1999/xlink" xml:space="preserve" onload="init(evt)">
<style type="text/css"><![CDATA[
.edge:hover path { stroke: red; }
.edge:hover polygon { stroke: red; fill: red; }
]]></style>
<script type="text/javascript"><![CDATA[
var edges = document.getElementsByTagName('g');
if (edges && edges.length) {
  for (var i=0;i<edges.length;i++) {
    if (edges[i].id.substr(0,4)=='edge') {
      edges[i].setAttribute('class','edge');
    }
  }
}
]]></script>
        <defs>
                <circle id="rim" cx="0" cy="0" r="7"/>
                <circle id="rim2" cx="0" cy="0" r="3.5"/>
                <g id="zoomPlus">
                        <use xlink:href="#rim" fill="#404040">
                                <set attributeName="fill" to="#808080" begin="zoomplus.mouseover" end="zoomplus.mouseout"/>
                        </use>
                        <path d="M-4,0h8M0,-4v8" fill="none" stroke="white" stroke-width="1.5" pointer-events="none"/>
                </g>
                <g id="zoomMin">
                        <use xlink:href="#rim" fill="#404040">
                                <set attributeName="fill" to="#808080" begin="zoomminus.mouseover" end="zoomminus.mouseout"/>
                        </use>
                        <path d="M-4,0h8" fill="none" stroke="white" stroke-width="1.5" pointer-events="none"/>
                </g>
                <g id="dirArrow">
                        <path fill="none" stroke="white" stroke-width="1.5" d="M0,-3.0v7 M-2.5,-0.5L0,-3.0L2.5,-0.5"/>
                </g>
               <g id="resetDef">
                       <use xlink:href="#rim2" fill="#404040">
                               <set attributeName="fill" to="#808080" begin="reset.mouseover" end="reset.mouseout"/>
                       </use>
               </g>
        </defs>

<script type="text/javascript">
var viewWidth = 821;
var viewHeight = 302;
var sectionId = 'dynsection-11';
</script>
<script xlink:href="svgpan.js"/>
<svg id="graph" class="graph">
<g id="viewport">
<title>mappel::Gauss2DsModel::debug_internal_sum_model_y</title>
<polygon fill="white" stroke="none" points="-4,4 -4,-298 817,-298 817,4 -4,4"/>
<!-- Node1 -->
<g id="node1" class="node"><title>Node1</title>
<polygon fill="#bfbfbf" stroke="black" points="0,-148.5 0,-186.5 120,-186.5 120,-148.5 0,-148.5"/>
<text text-anchor="start" x="8" y="-175.3" font-family="Helvetica,sans-Serif" font-size="9.00">mappel::Gauss2DsModel</text>
<text text-anchor="start" x="8" y="-165.3" font-family="Helvetica,sans-Serif" font-size="9.00">::debug_internal_sum</text>
<text text-anchor="middle" x="60" y="-155.3" font-family="Helvetica,sans-Serif" font-size="9.00">_model_y</text>
</g>
<!-- Node2 -->
<g id="node2" class="node"><title>Node2</title>
<g id="a_node2"><a xlink:href="classmappel_1_1Gauss2DsModel.html#ad4bdfddccbc2a1053ac1f10199a4cb3b" target="_top" xlink:title="mappel::Gauss2DsModel\l::compute_max_sigma_ratio">
<polygon fill="white" stroke="black" points="156,-243.5 156,-271.5 288,-271.5 288,-243.5 156,-243.5"/>
<text text-anchor="start" x="164" y="-260.3" font-family="Helvetica,sans-Serif" font-size="9.00">mappel::Gauss2DsModel</text>
<text text-anchor="middle" x="222" y="-250.3" font-family="Helvetica,sans-Serif" font-size="9.00">::compute_max_sigma_ratio</text>
</a>
</g>
</g>
<!-- Node1&#45;&gt;Node2 -->
<g id="edge1" class="edge"><title>Node1&#45;&gt;Node2</title>
<path fill="none" stroke="midnightblue" d="M84.4311,-186.785C102.98,-201.35 130.005,-221.06 156,-234.5 159.489,-236.304 163.152,-238.023 166.886,-239.65"/>
<polygon fill="midnightblue" stroke="midnightblue" points="165.677,-242.937 176.257,-243.499 168.337,-236.462 165.677,-242.937"/>
</g>
<!-- Node3 -->
<g id="node3" class="node"><title>Node3</title>
<g id="a_node3"><a xlink:href="classmappel_1_1Gauss2DsModel.html#ab884d4d8ab54ec53cf0116aa9a5b1d81" target="_top" xlink:title="mappel::Gauss2DsModel\l::Gauss2DsModel">
<polygon fill="white" stroke="black" points="162,-196.5 162,-224.5 282,-224.5 282,-196.5 162,-196.5"/>
<text text-anchor="start" x="170" y="-213.3" font-family="Helvetica,sans-Serif" font-size="9.00">mappel::Gauss2DsModel</text>
<text text-anchor="middle" x="222" y="-203.3" font-family="Helvetica,sans-Serif" font-size="9.00">::Gauss2DsModel</text>
</a>
</g>
</g>
<!-- Node1&#45;&gt;Node3 -->
<g id="edge2" class="edge"><title>Node1&#45;&gt;Node3</title>
<path fill="none" stroke="midnightblue" d="M120.124,-183.389C132.697,-186.769 146.01,-190.346 158.698,-193.756"/>
<polygon fill="midnightblue" stroke="midnightblue" points="158.147,-197.232 168.713,-196.448 159.964,-190.472 158.147,-197.232"/>
</g>
<!-- Node5 -->
<g id="node5" class="node"><title>Node5</title>
<g id="a_node5"><a xlink:href="classmappel_1_1Gauss2DsModel.html#a199ce5ccefd43d8bf4b6d0b076fca918" target="_top" xlink:title="mappel::Gauss2DsModel\l::make_internal_1Dsum\l_estimator">
<polygon fill="white" stroke="black" points="328.5,-151.5 328.5,-189.5 448.5,-189.5 448.5,-151.5 328.5,-151.5"/>
<text text-anchor="start" x="336.5" y="-178.3" font-family="Helvetica,sans-Serif" font-size="9.00">mappel::Gauss2DsModel</text>
<text text-anchor="start" x="336.5" y="-168.3" font-family="Helvetica,sans-Serif" font-size="9.00">::make_internal_1Dsum</text>
<text text-anchor="middle" x="388.5" y="-158.3" font-family="Helvetica,sans-Serif" font-size="9.00">_estimator</text>
</a>
</g>
</g>
<!-- Node1&#45;&gt;Node5 -->
<g id="edge13" class="edge"><title>Node1&#45;&gt;Node5</title>
<path fill="none" stroke="midnightblue" d="M120.127,-168.043C175.774,-168.555 259.126,-169.32 317.944,-169.861"/>
<polygon fill="midnightblue" stroke="midnightblue" points="318.231,-173.364 328.262,-169.956 318.295,-166.364 318.231,-173.364"/>
</g>
<!-- Node12 -->
<g id="node12" class="node"><title>Node12</title>
<g id="a_node12"><a xlink:href="classmappel_1_1Gauss2DsModel.html#ab1b09eccafc20261b34a404fc8dede4e" target="_top" xlink:title="mappel::Gauss2DsModel\l::operator=">
<polygon fill="white" stroke="black" points="162,-53.5 162,-81.5 282,-81.5 282,-53.5 162,-53.5"/>
<text text-anchor="start" x="170" y="-70.3" font-family="Helvetica,sans-Serif" font-size="9.00">mappel::Gauss2DsModel</text>
<text text-anchor="middle" x="222" y="-60.3" font-family="Helvetica,sans-Serif" font-size="9.00">::operator=</text>
</a>
</g>
</g>
<!-- Node1&#45;&gt;Node12 -->
<g id="edge14" class="edge"><title>Node1&#45;&gt;Node12</title>
<path fill="none" stroke="midnightblue" d="M80.6415,-148.179C98.8913,-131.097 127.476,-106.478 156,-90.5 159.069,-88.7806 162.291,-87.1529 165.589,-85.6184"/>
<polygon fill="midnightblue" stroke="midnightblue" points="167.232,-88.7214 175.023,-81.5422 164.455,-82.2954 167.232,-88.7214"/>
</g>
<!-- Node20 -->
<g id="node20" class="node"><title>Node20</title>
<g id="a_node20"><a xlink:href="classmappel_1_1Gauss2DsModel.html#a6ce7054c0fcdb72394839a0abb2616cb" target="_top" xlink:title="mappel::Gauss2DsModel\l::update_internal_1Dsum\l_estimators">
<polygon fill="white" stroke="black" points="162,-100.5 162,-138.5 282,-138.5 282,-100.5 162,-100.5"/>
<text text-anchor="start" x="170" y="-127.3" font-family="Helvetica,sans-Serif" font-size="9.00">mappel::Gauss2DsModel</text>
<text text-anchor="start" x="170" y="-117.3" font-family="Helvetica,sans-Serif" font-size="9.00">::update_internal_1Dsum</text>
<text text-anchor="middle" x="222" y="-107.3" font-family="Helvetica,sans-Serif" font-size="9.00">_estimators</text>
</a>
</g>
</g>
<!-- Node1&#45;&gt;Node20 -->
<g id="edge22" class="edge"><title>Node1&#45;&gt;Node20</title>
<path fill="none" stroke="midnightblue" d="M120.124,-149.763C130.551,-146.635 141.488,-143.354 152.155,-140.154"/>
<polygon fill="midnightblue" stroke="midnightblue" points="153.28,-143.47 161.853,-137.244 151.269,-136.765 153.28,-143.47"/>
</g>
<!-- Node4 -->
<g id="node4" class="node"><title>Node4</title>
<g id="a_node4"><a xlink:href="classmappel_1_1PointEmitterModel.html#a01ce8d6358acbd2575be519dff1df89b" target="_top" xlink:title="mappel::PointEmitterModel\l::check_psf_sigma">
<polygon fill="white" stroke="black" points="325,-208.5 325,-236.5 452,-236.5 452,-208.5 325,-208.5"/>
<text text-anchor="start" x="333" y="-225.3" font-family="Helvetica,sans-Serif" font-size="9.00">mappel::PointEmitterModel</text>
<text text-anchor="middle" x="388.5" y="-215.3" font-family="Helvetica,sans-Serif" font-size="9.00">::check_psf_sigma</text>
</a>
</g>
</g>
<!-- Node3&#45;&gt;Node4 -->
<g id="edge3" class="edge"><title>Node3&#45;&gt;Node4</title>
<path fill="none" stroke="midnightblue" d="M282.388,-214.832C292.849,-215.595 303.847,-216.398 314.626,-217.184"/>
<polygon fill="midnightblue" stroke="midnightblue" points="314.642,-220.694 324.87,-217.931 315.151,-213.713 314.642,-220.694"/>
</g>
<!-- Node3&#45;&gt;Node5 -->
<g id="edge4" class="edge"><title>Node3&#45;&gt;Node5</title>
<path fill="none" stroke="midnightblue" d="M280.997,-196.397C293.113,-193.451 306,-190.318 318.471,-187.285"/>
<polygon fill="midnightblue" stroke="midnightblue" points="319.471,-190.644 328.36,-184.88 317.817,-183.842 319.471,-190.644"/>
</g>
<!-- Node6 -->
<g id="node6" class="node"><title>Node6</title>
<g id="a_node6"><a xlink:href="classmappel_1_1Gauss1DsModel.html#a2022044169be5c62bba0db37c2352792" target="_top" xlink:title="mappel::Gauss1DsModel\l::make_prior_beta_position">
<polygon fill="white" stroke="black" points="494.5,-205.5 494.5,-233.5 622.5,-233.5 622.5,-205.5 494.5,-205.5"/>
<text text-anchor="start" x="502.5" y="-222.3" font-family="Helvetica,sans-Serif" font-size="9.00">mappel::Gauss1DsModel</text>
<text text-anchor="middle" x="558.5" y="-212.3" font-family="Helvetica,sans-Serif" font-size="9.00">::make_prior_beta_position</text>
</a>
</g>
</g>
<!-- Node5&#45;&gt;Node6 -->
<g id="edge5" class="edge"><title>Node5&#45;&gt;Node6</title>
<path fill="none" stroke="midnightblue" d="M448.731,-187.776C465.159,-192.567 482.976,-197.764 499.343,-202.538"/>
<polygon fill="midnightblue" stroke="midnightblue" points="498.741,-206.008 509.321,-205.448 500.701,-199.288 498.741,-206.008"/>
</g>
<!-- Node10 -->
<g id="node10" class="node"><title>Node10</title>
<g id="a_node10"><a xlink:href="classmappel_1_1Gauss1DsModel.html#a80bebfae37071515edfde5cd41ae375d" target="_top" xlink:title="mappel::Gauss1DsModel\l::make_prior_normal_position">
<polygon fill="white" stroke="black" points="489,-156.5 489,-184.5 628,-184.5 628,-156.5 489,-156.5"/>
<text text-anchor="start" x="497" y="-173.3" font-family="Helvetica,sans-Serif" font-size="9.00">mappel::Gauss1DsModel</text>
<text text-anchor="middle" x="558.5" y="-163.3" font-family="Helvetica,sans-Serif" font-size="9.00">::make_prior_normal_position</text>
</a>
</g>
</g>
<!-- Node5&#45;&gt;Node10 -->
<g id="edge9" class="edge"><title>Node5&#45;&gt;Node10</title>
<path fill="none" stroke="midnightblue" d="M448.731,-170.5C458.437,-170.5 468.629,-170.5 478.719,-170.5"/>
<polygon fill="midnightblue" stroke="midnightblue" points="478.754,-174 488.754,-170.5 478.754,-167 478.754,-174"/>
</g>
<!-- Node7 -->
<g id="node7" class="node"><title>Node7</title>
<g id="a_node7"><a xlink:href="classmappel_1_1PointEmitterModel.html#a4517e887a22007bd2e03650dcb853c92" target="_top" xlink:title="mappel::PointEmitterModel\l::make_prior_component\l_intensity">
<polygon fill="white" stroke="black" points="675,-151.5 675,-189.5 802,-189.5 802,-151.5 675,-151.5"/>
<text text-anchor="start" x="683" y="-178.3" font-family="Helvetica,sans-Serif" font-size="9.00">mappel::PointEmitterModel</text>
<text text-anchor="start" x="683" y="-168.3" font-family="Helvetica,sans-Serif" font-size="9.00">::make_prior_component</text>
<text text-anchor="middle" x="738.5" y="-158.3" font-family="Helvetica,sans-Serif" font-size="9.00">_intensity</text>
</a>
</g>
</g>
<!-- Node6&#45;&gt;Node7 -->
<g id="edge6" class="edge"><title>Node6&#45;&gt;Node7</title>
<path fill="none" stroke="midnightblue" d="M610.508,-205.459C627.488,-200.784 646.741,-195.484 665.028,-190.45"/>
<polygon fill="midnightblue" stroke="midnightblue" points="666.064,-193.795 674.776,-187.767 664.206,-187.046 666.064,-193.795"/>
</g>
<!-- Node8 -->
<g id="node8" class="node"><title>Node8</title>
<g id="a_node8"><a xlink:href="classmappel_1_1PointEmitterModel.html#ad4d563dd11df8c3daf83890374807185" target="_top" xlink:title="mappel::PointEmitterModel\l::make_prior_component\l_position_beta">
<polygon fill="white" stroke="black" points="675,-255.5 675,-293.5 802,-293.5 802,-255.5 675,-255.5"/>
<text text-anchor="start" x="683" y="-282.3" font-family="Helvetica,sans-Serif" font-size="9.00">mappel::PointEmitterModel</text>
<text text-anchor="start" x="683" y="-272.3" font-family="Helvetica,sans-Serif" font-size="9.00">::make_prior_component</text>
<text text-anchor="middle" x="738.5" y="-262.3" font-family="Helvetica,sans-Serif" font-size="9.00">_position_beta</text>
</a>
</g>
</g>
<!-- Node6&#45;&gt;Node8 -->
<g id="edge7" class="edge"><title>Node6&#45;&gt;Node8</title>
<path fill="none" stroke="midnightblue" d="M604.877,-233.521C623.462,-239.263 645.417,-246.047 666.06,-252.426"/>
<polygon fill="midnightblue" stroke="midnightblue" points="665.163,-255.812 675.751,-255.42 667.23,-249.124 665.163,-255.812"/>
</g>
<!-- Node9 -->
<g id="node9" class="node"><title>Node9</title>
<g id="a_node9"><a xlink:href="classmappel_1_1PointEmitterModel.html#a6fa9641db2d58329c5225e76427e3219" target="_top" xlink:title="mappel::PointEmitterModel\l::make_prior_component_sigma">
<polygon fill="white" stroke="black" points="664,-208.5 664,-236.5 813,-236.5 813,-208.5 664,-208.5"/>
<text text-anchor="start" x="672" y="-225.3" font-family="Helvetica,sans-Serif" font-size="9.00">mappel::PointEmitterModel</text>
<text text-anchor="middle" x="738.5" y="-215.3" font-family="Helvetica,sans-Serif" font-size="9.00">::make_prior_component_sigma</text>
</a>
</g>
</g>
<!-- Node6&#45;&gt;Node9 -->
<g id="edge8" class="edge"><title>Node6&#45;&gt;Node9</title>
<path fill="none" stroke="midnightblue" d="M622.507,-220.562C632.662,-220.733 643.313,-220.913 653.863,-221.09"/>
<polygon fill="midnightblue" stroke="midnightblue" points="653.87,-224.591 663.927,-221.26 653.988,-217.592 653.87,-224.591"/>
</g>
<!-- Node10&#45;&gt;Node7 -->
<g id="edge10" class="edge"><title>Node10&#45;&gt;Node7</title>
<path fill="none" stroke="midnightblue" d="M628.065,-170.5C640.077,-170.5 652.615,-170.5 664.736,-170.5"/>
<polygon fill="midnightblue" stroke="midnightblue" points="664.8,-174 674.8,-170.5 664.8,-167 664.8,-174"/>
</g>
<!-- Node10&#45;&gt;Node9 -->
<g id="edge12" class="edge"><title>Node10&#45;&gt;Node9</title>
<path fill="none" stroke="midnightblue" d="M607.669,-184.572C629.831,-191.046 656.306,-198.78 679.55,-205.571"/>
<polygon fill="midnightblue" stroke="midnightblue" points="678.712,-208.972 689.292,-208.417 680.675,-202.253 678.712,-208.972"/>
</g>
<!-- Node11 -->
<g id="node11" class="node"><title>Node11</title>
<g id="a_node11"><a xlink:href="classmappel_1_1PointEmitterModel.html#ab99350cf74097c558f7a93b79e7a44c3" target="_top" xlink:title="mappel::PointEmitterModel\l::make_prior_component\l_position_normal">
<polygon fill="white" stroke="black" points="675,-94.5 675,-132.5 802,-132.5 802,-94.5 675,-94.5"/>
<text text-anchor="start" x="683" y="-121.3" font-family="Helvetica,sans-Serif" font-size="9.00">mappel::PointEmitterModel</text>
<text text-anchor="start" x="683" y="-111.3" font-family="Helvetica,sans-Serif" font-size="9.00">::make_prior_component</text>
<text text-anchor="middle" x="738.5" y="-101.3" font-family="Helvetica,sans-Serif" font-size="9.00">_position_normal</text>
</a>
</g>
</g>
<!-- Node10&#45;&gt;Node11 -->
<g id="edge11" class="edge"><title>Node10&#45;&gt;Node11</title>
<path fill="none" stroke="midnightblue" d="M603.5,-156.41C623.05,-150.15 646.532,-142.63 668.339,-135.647"/>
<polygon fill="midnightblue" stroke="midnightblue" points="669.436,-138.971 677.892,-132.588 667.301,-132.304 669.436,-138.971"/>
</g>
<!-- Node13 -->
<g id="node13" class="node"><title>Node13</title>
<g id="a_node13"><a xlink:href="classmappel_1_1MCMCAdaptor2Ds.html#a271813db8cfbca730d2ebd60b335b33e" target="_top" xlink:title="mappel::MCMCAdaptor2Ds\l::operator=">
<polygon fill="white" stroke="black" points="324,-4.5 324,-32.5 453,-32.5 453,-4.5 324,-4.5"/>
<text text-anchor="start" x="332" y="-21.3" font-family="Helvetica,sans-Serif" font-size="9.00">mappel::MCMCAdaptor2Ds</text>
<text text-anchor="middle" x="388.5" y="-11.3" font-family="Helvetica,sans-Serif" font-size="9.00">::operator=</text>
</a>
</g>
</g>
<!-- Node12&#45;&gt;Node13 -->
<g id="edge15" class="edge"><title>Node12&#45;&gt;Node13</title>
<path fill="none" stroke="midnightblue" d="M270.139,-53.4586C288.982,-47.8459 310.851,-41.3316 330.569,-35.4581"/>
<polygon fill="midnightblue" stroke="midnightblue" points="331.769,-38.7527 340.354,-32.5435 329.771,-32.044 331.769,-38.7527"/>
</g>
<!-- Node16 -->
<g id="node16" class="node"><title>Node16</title>
<g id="a_node16"><a xlink:href="classmappel_1_1Gauss2DsModel.html#a11f03c648095b6d7dd5c38c3a5eca2dc" target="_top" xlink:title="mappel::Gauss2DsModel\l::get_max_sigma">
<polygon fill="white" stroke="black" points="328.5,-55.5 328.5,-83.5 448.5,-83.5 448.5,-55.5 328.5,-55.5"/>
<text text-anchor="start" x="336.5" y="-72.3" font-family="Helvetica,sans-Serif" font-size="9.00">mappel::Gauss2DsModel</text>
<text text-anchor="middle" x="388.5" y="-62.3" font-family="Helvetica,sans-Serif" font-size="9.00">::get_max_sigma</text>
</a>
</g>
</g>
<!-- Node12&#45;&gt;Node16 -->
<g id="edge18" class="edge"><title>Node12&#45;&gt;Node16</title>
<path fill="none" stroke="midnightblue" d="M282.388,-68.222C293.99,-68.3631 306.252,-68.5122 318.144,-68.6568"/>
<polygon fill="midnightblue" stroke="midnightblue" points="318.433,-72.1604 328.475,-68.7824 318.518,-65.161 318.433,-72.1604"/>
</g>
<!-- Node14 -->
<g id="node14" class="node"><title>Node14</title>
<g id="a_node14"><a xlink:href="classmappel_1_1MCMCAdaptor2D.html#aeddb1b66ab86ef64421b9a7d6a208769" target="_top" xlink:title="mappel::MCMCAdaptor2D\l::operator=">
<polygon fill="white" stroke="black" points="496,-0.5 496,-28.5 621,-28.5 621,-0.5 496,-0.5"/>
<text text-anchor="start" x="504" y="-17.3" font-family="Helvetica,sans-Serif" font-size="9.00">mappel::MCMCAdaptor2D</text>
<text text-anchor="middle" x="558.5" y="-7.3" font-family="Helvetica,sans-Serif" font-size="9.00">::operator=</text>
</a>
</g>
</g>
<!-- Node13&#45;&gt;Node14 -->
<g id="edge16" class="edge"><title>Node13&#45;&gt;Node14</title>
<path fill="none" stroke="midnightblue" d="M453.014,-16.9878C463.646,-16.7346 474.745,-16.4703 485.571,-16.2126"/>
<polygon fill="midnightblue" stroke="midnightblue" points="485.929,-19.7052 495.843,-15.968 485.762,-12.7071 485.929,-19.7052"/>
</g>
<!-- Node15 -->
<g id="node15" class="node"><title>Node15</title>
<g id="a_node15"><a xlink:href="classmappel_1_1MCMCAdaptor1D.html#a669bba7517087d842f941957cbbf5fb5" target="_top" xlink:title="mappel::MCMCAdaptor1D\l::operator=">
<polygon fill="white" stroke="black" points="676,-0.5 676,-28.5 801,-28.5 801,-0.5 676,-0.5"/>
<text text-anchor="start" x="684" y="-17.3" font-family="Helvetica,sans-Serif" font-size="9.00">mappel::MCMCAdaptor1D</text>
<text text-anchor="middle" x="738.5" y="-7.3" font-family="Helvetica,sans-Serif" font-size="9.00">::operator=</text>
</a>
</g>
</g>
<!-- Node14&#45;&gt;Node15 -->
<g id="edge17" class="edge"><title>Node14&#45;&gt;Node15</title>
<path fill="none" stroke="midnightblue" d="M621.256,-14.5C635.615,-14.5 651.021,-14.5 665.769,-14.5"/>
<polygon fill="midnightblue" stroke="midnightblue" points="665.853,-18.0001 675.853,-14.5 665.853,-11.0001 665.853,-18.0001"/>
</g>
<!-- Node17 -->
<g id="node17" class="node"><title>Node17</title>
<g id="a_node17"><a xlink:href="classmappel_1_1Gauss2DsModel.html#a46da2752c2d1ca376b72d910818e47ae" target="_top" xlink:title="mappel::Gauss2DsModel\l::get_max_sigma_ratio">
<polygon fill="white" stroke="black" points="498.5,-47.5 498.5,-75.5 618.5,-75.5 618.5,-47.5 498.5,-47.5"/>
<text text-anchor="start" x="506.5" y="-64.3" font-family="Helvetica,sans-Serif" font-size="9.00">mappel::Gauss2DsModel</text>
<text text-anchor="middle" x="558.5" y="-54.3" font-family="Helvetica,sans-Serif" font-size="9.00">::get_max_sigma_ratio</text>
</a>
</g>
</g>
<!-- Node16&#45;&gt;Node17 -->
<g id="edge19" class="edge"><title>Node16&#45;&gt;Node17</title>
<path fill="none" stroke="midnightblue" d="M448.731,-66.6795C461.403,-66.0761 474.901,-65.4333 487.922,-64.8132"/>
<polygon fill="midnightblue" stroke="midnightblue" points="488.416,-68.2938 498.238,-64.322 488.083,-61.3017 488.416,-68.2938"/>
</g>
<!-- Node19 -->
<g id="node19" class="node"><title>Node19</title>
<g id="a_node19"><a xlink:href="classmappel_1_1Gauss2DsModel.html#af93a5f984a97e23ae1d371c980e48a41" target="_top" xlink:title="mappel::Gauss2DsModel\l::get_min_sigma">
<polygon fill="white" stroke="black" points="498.5,-94.5 498.5,-122.5 618.5,-122.5 618.5,-94.5 498.5,-94.5"/>
<text text-anchor="start" x="506.5" y="-111.3" font-family="Helvetica,sans-Serif" font-size="9.00">mappel::Gauss2DsModel</text>
<text text-anchor="middle" x="558.5" y="-101.3" font-family="Helvetica,sans-Serif" font-size="9.00">::get_min_sigma</text>
</a>
</g>
</g>
<!-- Node16&#45;&gt;Node19 -->
<g id="edge21" class="edge"><title>Node16&#45;&gt;Node19</title>
<path fill="none" stroke="midnightblue" d="M448.731,-83.2499C461.528,-86.2208 475.168,-89.3872 488.309,-92.4378"/>
<polygon fill="midnightblue" stroke="midnightblue" points="487.706,-95.8907 498.238,-94.7428 489.289,-89.0721 487.706,-95.8907"/>
</g>
<!-- Node18 -->
<g id="node18" class="node"><title>Node18</title>
<g id="a_node18"><a xlink:href="classmappel_1_1PointEmitterModel.html#a0dfb473c48d177a4540d328abb03cd55" target="_top" xlink:title="mappel::PointEmitterModel\l::get_ubound">
<polygon fill="white" stroke="black" points="675,-47.5 675,-75.5 802,-75.5 802,-47.5 675,-47.5"/>
<text text-anchor="start" x="683" y="-64.3" font-family="Helvetica,sans-Serif" font-size="9.00">mappel::PointEmitterModel</text>
<text text-anchor="middle" x="738.5" y="-54.3" font-family="Helvetica,sans-Serif" font-size="9.00">::get_ubound</text>
</a>
</g>
</g>
<!-- Node17&#45;&gt;Node18 -->
<g id="edge20" class="edge"><title>Node17&#45;&gt;Node18</title>
<path fill="none" stroke="midnightblue" d="M618.771,-61.5C633.398,-61.5 649.235,-61.5 664.431,-61.5"/>
<polygon fill="midnightblue" stroke="midnightblue" points="664.826,-65.0001 674.826,-61.5 664.826,-58.0001 664.826,-65.0001"/>
</g>
<!-- Node20&#45;&gt;Node5 -->
<g id="edge25" class="edge"><title>Node20&#45;&gt;Node5</title>
<path fill="none" stroke="midnightblue" d="M282.388,-137.912C294.225,-141.582 306.748,-145.464 318.865,-149.221"/>
<polygon fill="midnightblue" stroke="midnightblue" points="317.887,-152.582 328.475,-152.2 319.96,-145.896 317.887,-152.582"/>
</g>
<!-- Node20&#45;&gt;Node16 -->
<g id="edge23" class="edge"><title>Node20&#45;&gt;Node16</title>
<path fill="none" stroke="midnightblue" d="M282.388,-101.449C298.469,-96.5611 315.816,-91.2884 331.692,-86.4628"/>
<polygon fill="midnightblue" stroke="midnightblue" points="332.813,-89.7803 341.363,-83.5234 330.777,-83.0829 332.813,-89.7803"/>
</g>
<!-- Node21 -->
<g id="node21" class="node"><title>Node21</title>
<g id="a_node21"><a xlink:href="classmappel_1_1PointEmitterModel.html#a2182c250c15d590b582e76594e5f06b9" target="_top" xlink:title="mappel::PointEmitterModel\l::get_prior">
<polygon fill="white" stroke="black" points="325,-104.5 325,-132.5 452,-132.5 452,-104.5 325,-104.5"/>
<text text-anchor="start" x="333" y="-121.3" font-family="Helvetica,sans-Serif" font-size="9.00">mappel::PointEmitterModel</text>
<text text-anchor="middle" x="388.5" y="-111.3" font-family="Helvetica,sans-Serif" font-size="9.00">::get_prior</text>
</a>
</g>
</g>
<!-- Node20&#45;&gt;Node21 -->
<g id="edge24" class="edge"><title>Node20&#45;&gt;Node21</title>
<path fill="none" stroke="midnightblue" d="M282.388,-119.139C292.849,-119.075 303.847,-119.009 314.626,-118.943"/>
<polygon fill="midnightblue" stroke="midnightblue" points="314.891,-122.442 324.87,-118.881 314.849,-115.442 314.891,-122.442"/>
</g>
</g>
</svg>
        <g id="navigator" transform="translate(0 0)" fill="#404254">
                <rect fill="#f2f5e9" fill-opacity="0.5" stroke="#606060" stroke-width=".5" x="0" y="0" width="60" height="60"/>
                <use id="zoomplus" xlink:href="#zoomPlus" x="17" y="9" onmousedown="handleZoom(evt,'in')"/>
                <use id="zoomminus" xlink:href="#zoomMin" x="42" y="9" onmousedown="handleZoom(evt,'out')"/>
                <use id="reset" xlink:href="#resetDef" x="30" y="36" onmousedown="handleReset()"/>
                <g id="arrowUp" xlink:href="#dirArrow" transform="translate(30 24)" onmousedown="handlePan(0,-1)">
                  <use xlink:href="#rim" fill="#404040">
                        <set attributeName="fill" to="#808080" begin="arrowUp.mouseover" end="arrowUp.mouseout"/>
                  </use>
                  <path fill="none" stroke="white" stroke-width="1.5" d="M0,-3.0v7 M-2.5,-0.5L0,-3.0L2.5,-0.5"/>
                </g>
                <g id="arrowRight" xlink:href="#dirArrow" transform="rotate(90) translate(36 -43)" onmousedown="handlePan(1,0)">
                  <use xlink:href="#rim" fill="#404040">
                        <set attributeName="fill" to="#808080" begin="arrowRight.mouseover" end="arrowRight.mouseout"/>
                  </use>
                  <path fill="none" stroke="white" stroke-width="1.5" d="M0,-3.0v7 M-2.5,-0.5L0,-3.0L2.5,-0.5"/>
                </g>
                <g id="arrowDown" xlink:href="#dirArrow" transform="rotate(180) translate(-30 -48)" onmousedown="handlePan(0,1)">
                  <use xlink:href="#rim" fill="#404040">
                        <set attributeName="fill" to="#808080" begin="arrowDown.mouseover" end="arrowDown.mouseout"/>
                  </use>
                  <path fill="none" stroke="white" stroke-width="1.5" d="M0,-3.0v7 M-2.5,-0.5L0,-3.0L2.5,-0.5"/>
                </g>
                <g id="arrowLeft" xlink:href="#dirArrow" transform="rotate(270) translate(-36 17)" onmousedown="handlePan(-1,0)">
                  <use xlink:href="#rim" fill="#404040">
                        <set attributeName="fill" to="#808080" begin="arrowLeft.mouseover" end="arrowLeft.mouseout"/>
                  </use>
                  <path fill="none" stroke="white" stroke-width="1.5" d="M0,-3.0v7 M-2.5,-0.5L0,-3.0L2.5,-0.5"/>
                </g>
        </g>
        <svg viewBox="0 0 15 15" width="100%" height="30px" preserveAspectRatio="xMaxYMin meet">
         <g id="arrow_out" transform="scale(0.3 0.3)">
          <a xlink:href="classmappel_1_1Gauss2DsModel_a2ce4737beb88367daeb480bf471ad2cf_cgraph_org.svg" target="_base">
           <rect id="button" ry="5" rx="5" y="6" x="6" height="38" width="38"
                fill="#f2f5e9" fill-opacity="0.5" stroke="#606060" stroke-width="1.0"/>
           <path id="arrow"
             d="M 11.500037,31.436501 C 11.940474,20.09759 22.043105,11.32322 32.158766,21.979434 L 37.068811,17.246167 C 37.068811,17.246167 37.088388,32 37.088388,32 L 22.160133,31.978069 C 22.160133,31.978069 26.997745,27.140456 26.997745,27.140456 C 18.528582,18.264221 13.291696,25.230495 11.500037,31.436501 z"
             style="fill:#404040;"/>
          </a>
         </g>
        </svg>
</svg>
