<?xml version="1.0" encoding="UTF-8" standalone="no"?>
<!DOCTYPE svg PUBLIC "-//W3C//DTD SVG 1.1//EN"
 "http://www.w3.org/Graphics/SVG/1.1/DTD/svg11.dtd">
<!-- Generated by graphviz version 2.38.0 (20140413.2041)
 -->
<!-- Title: mappel::Gauss2DsModel::make_stencil Pages: 1 -->
<!--zoomable 269 -->
<svg id="main" version="1.1" xmlns="http://www.w3.org/2000/svg" xmlns:xlink="http://www.w3.org/1999/xlink" xml:space="preserve" onload="init(evt)">
<style type="text/css"><![CDATA[
.edge:hover path { stroke: red; }
.edge:hover polygon { stroke: red; fill: red; }
]]></style>
<script type="text/javascript"><![CDATA[
var edges = document.getElementsByTagName('g');
if (edges && edges.length) {
  for (var i=0;i<edges.length;i++) {
    if (edges[i].id.substr(0,4)=='edge') {
      edges[i].setAttribute('class','edge');
    }
  }
}
]]></script>
        <defs>
                <circle id="rim" cx="0" cy="0" r="7"/>
                <circle id="rim2" cx="0" cy="0" r="3.5"/>
                <g id="zoomPlus">
                        <use xlink:href="#rim" fill="#404040">
                                <set attributeName="fill" to="#808080" begin="zoomplus.mouseover" end="zoomplus.mouseout"/>
                        </use>
                        <path d="M-4,0h8M0,-4v8" fill="none" stroke="white" stroke-width="1.5" pointer-events="none"/>
                </g>
                <g id="zoomMin">
                        <use xlink:href="#rim" fill="#404040">
                                <set attributeName="fill" to="#808080" begin="zoomminus.mouseover" end="zoomminus.mouseout"/>
                        </use>
                        <path d="M-4,0h8" fill="none" stroke="white" stroke-width="1.5" pointer-events="none"/>
                </g>
                <g id="dirArrow">
                        <path fill="none" stroke="white" stroke-width="1.5" d="M0,-3.0v7 M-2.5,-0.5L0,-3.0L2.5,-0.5"/>
                </g>
               <g id="resetDef">
                       <use xlink:href="#rim2" fill="#404040">
                               <set attributeName="fill" to="#808080" begin="reset.mouseover" end="reset.mouseout"/>
                       </use>
               </g>
        </defs>

<script type="text/javascript">
var viewWidth = 911;
var viewHeight = 269;
var sectionId = 'dynsection-43';
</script>
<script xlink:href="svgpan.js"/>
<svg id="graph" class="graph">
<g id="viewport">
<title>mappel::Gauss2DsModel::make_stencil</title>
<polygon fill="white" stroke="none" points="-4,4 -4,-265 907,-265 907,4 -4,4"/>
<!-- Node1 -->
<g id="node1" class="node"><title>Node1</title>
<polygon fill="#bfbfbf" stroke="black" points="0,-82.5 0,-110.5 120,-110.5 120,-82.5 0,-82.5"/>
<text text-anchor="start" x="8" y="-99.3" font-family="Helvetica,sans-Serif" font-size="9.00">mappel::Gauss2DsModel</text>
<text text-anchor="middle" x="60" y="-89.3" font-family="Helvetica,sans-Serif" font-size="9.00">::make_stencil</text>
</g>
<!-- Node2 -->
<g id="node2" class="node"><title>Node2</title>
<g id="a_node2"><a xlink:href="classmappel_1_1Gauss2DsModel_1_1Stencil.html#a5da67675e94a28486035ff4168e56232" target="_top" xlink:title="mappel::Gauss2DsModel\l::Stencil::Stencil">
<polygon fill="white" stroke="black" points="159.5,-106.5 159.5,-134.5 279.5,-134.5 279.5,-106.5 159.5,-106.5"/>
<text text-anchor="start" x="167.5" y="-123.3" font-family="Helvetica,sans-Serif" font-size="9.00">mappel::Gauss2DsModel</text>
<text text-anchor="middle" x="219.5" y="-113.3" font-family="Helvetica,sans-Serif" font-size="9.00">::Stencil::Stencil</text>
</a>
</g>
</g>
<!-- Node1&#45;&gt;Node2 -->
<g id="edge1" class="edge"><title>Node1&#45;&gt;Node2</title>
<path fill="none" stroke="midnightblue" d="M120.095,-105.505C129.619,-106.956 139.551,-108.47 149.287,-109.953"/>
<polygon fill="midnightblue" stroke="midnightblue" points="148.922,-113.438 159.336,-111.484 149.977,-106.518 148.922,-113.438"/>
</g>
<!-- Node18 -->
<g id="node18" class="node"><title>Node18</title>
<g id="a_node18"><a xlink:href="classmappel_1_1PointEmitterModel.html#ad50dfc29b6e7167fb4caf8683353079d" target="_top" xlink:title="mappel::PointEmitterModel\l::theta_in_bounds">
<polygon fill="white" stroke="black" points="156,-59.5 156,-87.5 283,-87.5 283,-59.5 156,-59.5"/>
<text text-anchor="start" x="164" y="-76.3" font-family="Helvetica,sans-Serif" font-size="9.00">mappel::PointEmitterModel</text>
<text text-anchor="middle" x="219.5" y="-66.3" font-family="Helvetica,sans-Serif" font-size="9.00">::theta_in_bounds</text>
</a>
</g>
</g>
<!-- Node1&#45;&gt;Node18 -->
<g id="edge19" class="edge"><title>Node1&#45;&gt;Node18</title>
<path fill="none" stroke="midnightblue" d="M120.095,-87.8702C128.502,-86.6425 137.228,-85.3682 145.856,-84.1083"/>
<polygon fill="midnightblue" stroke="midnightblue" points="146.525,-87.5479 155.914,-82.6395 145.513,-80.6213 146.525,-87.5479"/>
</g>
<!-- Node3 -->
<g id="node3" class="node"><title>Node3</title>
<g id="a_node3"><a xlink:href="classmappel_1_1Gauss2DsModel_1_1Stencil.html#ab11c806f8335bbafeb3db7476526680d" target="_top" xlink:title="mappel::Gauss2DsModel\l::Stencil::compute_derivatives">
<polygon fill="white" stroke="black" points="319,-106.5 319,-134.5 457,-134.5 457,-106.5 319,-106.5"/>
<text text-anchor="start" x="327" y="-123.3" font-family="Helvetica,sans-Serif" font-size="9.00">mappel::Gauss2DsModel</text>
<text text-anchor="middle" x="388" y="-113.3" font-family="Helvetica,sans-Serif" font-size="9.00">::Stencil::compute_derivatives</text>
</a>
</g>
</g>
<!-- Node2&#45;&gt;Node3 -->
<g id="edge2" class="edge"><title>Node2&#45;&gt;Node3</title>
<path fill="none" stroke="midnightblue" d="M279.67,-120.5C289.105,-120.5 298.991,-120.5 308.784,-120.5"/>
<polygon fill="midnightblue" stroke="midnightblue" points="308.933,-124 318.933,-120.5 308.933,-117 308.933,-124"/>
</g>
<!-- Node4 -->
<g id="node4" class="node"><title>Node4</title>
<g id="a_node4"><a xlink:href="namespacemappel.html#aa5c2f294298c875605ee1e9876b7d116" target="_top" xlink:title="mappel::make_G_stencil">
<polygon fill="white" stroke="black" points="502,-242.5 502,-260.5 620,-260.5 620,-242.5 502,-242.5"/>
<text text-anchor="middle" x="561" y="-249.3" font-family="Helvetica,sans-Serif" font-size="9.00">mappel::make_G_stencil</text>
</a>
</g>
</g>
<!-- Node3&#45;&gt;Node4 -->
<g id="edge3" class="edge"><title>Node3&#45;&gt;Node4</title>
<path fill="none" stroke="midnightblue" d="M398.041,-134.686C414.136,-158.761 450.128,-207.529 493,-233.5 496.229,-235.456 499.672,-237.203 503.227,-238.762"/>
<polygon fill="midnightblue" stroke="midnightblue" points="502.244,-242.135 512.834,-242.469 504.764,-235.604 502.244,-242.135"/>
</g>
<!-- Node7 -->
<g id="node7" class="node"><title>Node7</title>
<g id="a_node7"><a xlink:href="classmappel_1_1Gauss2DsModel_1_1Stencil.html#adab71d870d1b32f78e85d273dd7bd006" target="_top" xlink:title="mappel::Gauss2DsModel\l::Stencil::sigmaX">
<polygon fill="white" stroke="black" points="501,-195.5 501,-223.5 621,-223.5 621,-195.5 501,-195.5"/>
<text text-anchor="start" x="509" y="-212.3" font-family="Helvetica,sans-Serif" font-size="9.00">mappel::Gauss2DsModel</text>
<text text-anchor="middle" x="561" y="-202.3" font-family="Helvetica,sans-Serif" font-size="9.00">::Stencil::sigmaX</text>
</a>
</g>
</g>
<!-- Node3&#45;&gt;Node7 -->
<g id="edge6" class="edge"><title>Node3&#45;&gt;Node7</title>
<path fill="none" stroke="midnightblue" d="M408.139,-134.59C428.424,-149.048 461.777,-171.491 493,-186.5 496.803,-188.328 500.791,-190.079 504.844,-191.742"/>
<polygon fill="midnightblue" stroke="midnightblue" points="503.78,-195.083 514.369,-195.453 506.322,-188.561 503.78,-195.083"/>
</g>
<!-- Node9 -->
<g id="node9" class="node"><title>Node9</title>
<g id="a_node9"><a xlink:href="classmappel_1_1Gauss2DsModel_1_1Stencil.html#abc29f317d508c398a3fcc337a1fb8d1f" target="_top" xlink:title="mappel::Gauss2DsModel\l::Stencil::sigmaY">
<polygon fill="white" stroke="black" points="501,-148.5 501,-176.5 621,-176.5 621,-148.5 501,-148.5"/>
<text text-anchor="start" x="509" y="-165.3" font-family="Helvetica,sans-Serif" font-size="9.00">mappel::Gauss2DsModel</text>
<text text-anchor="middle" x="561" y="-155.3" font-family="Helvetica,sans-Serif" font-size="9.00">::Stencil::sigmaY</text>
</a>
</g>
</g>
<!-- Node3&#45;&gt;Node9 -->
<g id="edge8" class="edge"><title>Node3&#45;&gt;Node9</title>
<path fill="none" stroke="midnightblue" d="M446.416,-134.602C461.3,-138.258 477.461,-142.227 492.798,-145.994"/>
<polygon fill="midnightblue" stroke="midnightblue" points="492.189,-149.449 502.735,-148.435 493.859,-142.651 492.189,-149.449"/>
</g>
<!-- Node10 -->
<g id="node10" class="node"><title>Node10</title>
<g id="a_node10"><a xlink:href="namespacemappel.html#a8da88490d6ff7d5886b96b66c1bab369" target="_top" xlink:title="mappel::make_DX_stencil">
<polygon fill="white" stroke="black" points="499,-111.5 499,-129.5 623,-129.5 623,-111.5 499,-111.5"/>
<text text-anchor="middle" x="561" y="-118.3" font-family="Helvetica,sans-Serif" font-size="9.00">mappel::make_DX_stencil</text>
</a>
</g>
</g>
<!-- Node3&#45;&gt;Node10 -->
<g id="edge10" class="edge"><title>Node3&#45;&gt;Node10</title>
<path fill="none" stroke="midnightblue" d="M457.075,-120.5C467.413,-120.5 478.107,-120.5 488.515,-120.5"/>
<polygon fill="midnightblue" stroke="midnightblue" points="488.805,-124 498.805,-120.5 488.805,-117 488.805,-124"/>
</g>
<!-- Node12 -->
<g id="node12" class="node"><title>Node12</title>
<g id="a_node12"><a xlink:href="namespacemappel.html#af7636db506977133c8b30d108fede711" target="_top" xlink:title="mappel::make_DXS_stencil">
<polygon fill="white" stroke="black" points="496,-74.5 496,-92.5 626,-92.5 626,-74.5 496,-74.5"/>
<text text-anchor="middle" x="561" y="-81.3" font-family="Helvetica,sans-Serif" font-size="9.00">mappel::make_DXS_stencil</text>
</a>
</g>
</g>
<!-- Node3&#45;&gt;Node12 -->
<g id="edge12" class="edge"><title>Node3&#45;&gt;Node12</title>
<path fill="none" stroke="midnightblue" d="M454.136,-106.406C472.125,-102.514 491.391,-98.3453 508.49,-94.6454"/>
<polygon fill="midnightblue" stroke="midnightblue" points="509.248,-98.0625 518.281,-92.5268 507.767,-91.2209 509.248,-98.0625"/>
</g>
<!-- Node14 -->
<g id="node14" class="node"><title>Node14</title>
<g id="a_node14"><a xlink:href="namespacemappel.html#aef14b765af6f9b85d93f42ab8b84311b" target="_top" xlink:title="mappel::make_DXS2_stencil">
<polygon fill="white" stroke="black" points="493.5,-37.5 493.5,-55.5 628.5,-55.5 628.5,-37.5 493.5,-37.5"/>
<text text-anchor="middle" x="561" y="-44.3" font-family="Helvetica,sans-Serif" font-size="9.00">mappel::make_DXS2_stencil</text>
</a>
</g>
</g>
<!-- Node3&#45;&gt;Node14 -->
<g id="edge15" class="edge"><title>Node3&#45;&gt;Node14</title>
<path fill="none" stroke="midnightblue" d="M436.527,-106.404C443.597,-103.551 450.638,-100.253 457,-96.5 475.438,-85.6231 474.158,-74.6607 493,-64.5 496.922,-62.3848 501.111,-60.505 505.406,-58.8368"/>
<polygon fill="midnightblue" stroke="midnightblue" points="506.632,-62.1159 514.918,-55.5134 504.323,-55.5076 506.632,-62.1159"/>
</g>
<!-- Node16 -->
<g id="node16" class="node"><title>Node16</title>
<g id="a_node16"><a xlink:href="namespacemappel.html#abccec04f04b0b10940779c9bbae0e570" target="_top" xlink:title="mappel::make_DXSX_stencil">
<polygon fill="white" stroke="black" points="493,-0.5 493,-18.5 629,-18.5 629,-0.5 493,-0.5"/>
<text text-anchor="middle" x="561" y="-7.3" font-family="Helvetica,sans-Serif" font-size="9.00">mappel::make_DXSX_stencil</text>
</a>
</g>
</g>
<!-- Node3&#45;&gt;Node16 -->
<g id="edge17" class="edge"><title>Node3&#45;&gt;Node16</title>
<path fill="none" stroke="midnightblue" d="M442.078,-106.34C447.451,-103.605 452.555,-100.356 457,-96.5 483.127,-73.8328 466.021,-49.1469 493,-27.5 495.014,-25.8841 497.16,-24.4126 499.403,-23.0727"/>
<polygon fill="midnightblue" stroke="midnightblue" points="501.086,-26.144 508.453,-18.5295 497.946,-19.888 501.086,-26.144"/>
</g>
<!-- Node5 -->
<g id="node5" class="node"><title>Node5</title>
<g id="a_node5"><a xlink:href="namespacemappel.html#a5ca82edc201e8605107a991493ad0d5e" target="_top" xlink:title="mappel::fill_G_stencil">
<polygon fill="white" stroke="black" points="674,-230.5 674,-248.5 778,-248.5 778,-230.5 674,-230.5"/>
<text text-anchor="middle" x="726" y="-237.3" font-family="Helvetica,sans-Serif" font-size="9.00">mappel::fill_G_stencil</text>
</a>
</g>
</g>
<!-- Node4&#45;&gt;Node5 -->
<g id="edge4" class="edge"><title>Node4&#45;&gt;Node5</title>
<path fill="none" stroke="midnightblue" d="M620.386,-247.202C634.426,-246.168 649.464,-245.061 663.635,-244.018"/>
<polygon fill="midnightblue" stroke="midnightblue" points="664.058,-247.496 673.774,-243.271 663.544,-240.515 664.058,-247.496"/>
</g>
<!-- Node6 -->
<g id="node6" class="node"><title>Node6</title>
<g id="a_node6"><a xlink:href="namespacemappel.html#a8475cdb3edacceb0ae215c3ebd1f33c1" target="_top" xlink:title="mappel::square">
<polygon fill="white" stroke="black" points="823,-152.5 823,-170.5 903,-170.5 903,-152.5 823,-152.5"/>
<text text-anchor="middle" x="863" y="-159.3" font-family="Helvetica,sans-Serif" font-size="9.00">mappel::square</text>
</a>
</g>
</g>
<!-- Node5&#45;&gt;Node6 -->
<g id="edge5" class="edge"><title>Node5&#45;&gt;Node6</title>
<path fill="none" stroke="midnightblue" d="M742.75,-230.4C766.02,-216.955 809.795,-191.663 837.343,-175.746"/>
<polygon fill="midnightblue" stroke="midnightblue" points="839.442,-178.576 846.35,-170.542 835.94,-172.515 839.442,-178.576"/>
</g>
<!-- Node8 -->
<g id="node8" class="node"><title>Node8</title>
<g id="a_node8"><a xlink:href="classmappel_1_1Gauss2DsModel_1_1Stencil.html#a98f618270de5ff947a1ed9800dffd977" target="_top" xlink:title="mappel::Gauss2DsModel\l::Stencil::sigma_ratio">
<polygon fill="white" stroke="black" points="666,-160.5 666,-188.5 786,-188.5 786,-160.5 666,-160.5"/>
<text text-anchor="start" x="674" y="-177.3" font-family="Helvetica,sans-Serif" font-size="9.00">mappel::Gauss2DsModel</text>
<text text-anchor="middle" x="726" y="-167.3" font-family="Helvetica,sans-Serif" font-size="9.00">::Stencil::sigma_ratio</text>
</a>
</g>
</g>
<!-- Node7&#45;&gt;Node8 -->
<g id="edge7" class="edge"><title>Node7&#45;&gt;Node8</title>
<path fill="none" stroke="midnightblue" d="M621.308,-196.765C632.502,-194.362 644.301,-191.828 655.768,-189.366"/>
<polygon fill="midnightblue" stroke="midnightblue" points="656.694,-192.747 665.736,-187.225 655.224,-185.903 656.694,-192.747"/>
</g>
<!-- Node9&#45;&gt;Node8 -->
<g id="edge9" class="edge"><title>Node9&#45;&gt;Node8</title>
<path fill="none" stroke="midnightblue" d="M621.308,-166.866C632.389,-167.682 644.063,-168.541 655.42,-169.378"/>
<polygon fill="midnightblue" stroke="midnightblue" points="655.506,-172.893 665.736,-170.137 656.02,-165.912 655.506,-172.893"/>
</g>
<!-- Node11 -->
<g id="node11" class="node"><title>Node11</title>
<g id="a_node11"><a xlink:href="namespacemappel.html#ad2dd4330fc626fa673a3acf691d6b9a7" target="_top" xlink:title="mappel::fill_DX_stencil">
<polygon fill="white" stroke="black" points="671,-111.5 671,-129.5 781,-129.5 781,-111.5 671,-111.5"/>
<text text-anchor="middle" x="726" y="-118.3" font-family="Helvetica,sans-Serif" font-size="9.00">mappel::fill_DX_stencil</text>
</a>
</g>
</g>
<!-- Node10&#45;&gt;Node11 -->
<g id="edge11" class="edge"><title>Node10&#45;&gt;Node11</title>
<path fill="none" stroke="midnightblue" d="M623.159,-120.5C635.368,-120.5 648.228,-120.5 660.545,-120.5"/>
<polygon fill="midnightblue" stroke="midnightblue" points="660.737,-124 670.737,-120.5 660.737,-117 660.737,-124"/>
</g>
<!-- Node13 -->
<g id="node13" class="node"><title>Node13</title>
<g id="a_node13"><a xlink:href="namespacemappel.html#ab0cb62f6dcecae5ff19468d87a283e7a" target="_top" xlink:title="mappel::fill_DXS_stencil">
<polygon fill="white" stroke="black" points="668,-74.5 668,-92.5 784,-92.5 784,-74.5 668,-74.5"/>
<text text-anchor="middle" x="726" y="-81.3" font-family="Helvetica,sans-Serif" font-size="9.00">mappel::fill_DXS_stencil</text>
</a>
</g>
</g>
<!-- Node12&#45;&gt;Node13 -->
<g id="edge13" class="edge"><title>Node12&#45;&gt;Node13</title>
<path fill="none" stroke="midnightblue" d="M626.422,-83.5C636.7,-83.5 647.357,-83.5 657.7,-83.5"/>
<polygon fill="midnightblue" stroke="midnightblue" points="657.912,-87.0001 667.912,-83.5 657.912,-80.0001 657.912,-87.0001"/>
</g>
<!-- Node13&#45;&gt;Node6 -->
<g id="edge14" class="edge"><title>Node13&#45;&gt;Node6</title>
<path fill="none" stroke="midnightblue" d="M765.319,-92.5981C772.718,-95.0155 780.258,-97.9637 787,-101.5 809.219,-113.155 831.229,-131.838 845.6,-145.26"/>
<polygon fill="midnightblue" stroke="midnightblue" points="843.479,-148.074 853.122,-152.462 848.32,-143.018 843.479,-148.074"/>
</g>
<!-- Node15 -->
<g id="node15" class="node"><title>Node15</title>
<g id="a_node15"><a xlink:href="namespacemappel.html#a445e83c8273da9b3a50cc10d038ed612" target="_top" xlink:title="mappel::fill_DXS2_stencil">
<polygon fill="white" stroke="black" points="665,-37.5 665,-55.5 787,-55.5 787,-37.5 665,-37.5"/>
<text text-anchor="middle" x="726" y="-44.3" font-family="Helvetica,sans-Serif" font-size="9.00">mappel::fill_DXS2_stencil</text>
</a>
</g>
</g>
<!-- Node14&#45;&gt;Node15 -->
<g id="edge16" class="edge"><title>Node14&#45;&gt;Node15</title>
<path fill="none" stroke="midnightblue" d="M628.769,-46.5C637.363,-46.5 646.183,-46.5 654.83,-46.5"/>
<polygon fill="midnightblue" stroke="midnightblue" points="654.876,-50.0001 664.876,-46.5 654.876,-43.0001 654.876,-50.0001"/>
</g>
<!-- Node17 -->
<g id="node17" class="node"><title>Node17</title>
<g id="a_node17"><a xlink:href="namespacemappel.html#ad3a6553e54dc90232fc04c93731fc69c" target="_top" xlink:title="mappel::fill_DXSX_stencil">
<polygon fill="white" stroke="black" points="665,-0.5 665,-18.5 787,-18.5 787,-0.5 665,-0.5"/>
<text text-anchor="middle" x="726" y="-7.3" font-family="Helvetica,sans-Serif" font-size="9.00">mappel::fill_DXSX_stencil</text>
</a>
</g>
</g>
<!-- Node16&#45;&gt;Node17 -->
<g id="edge18" class="edge"><title>Node16&#45;&gt;Node17</title>
<path fill="none" stroke="midnightblue" d="M629.239,-9.5C637.656,-9.5 646.282,-9.5 654.744,-9.5"/>
<polygon fill="midnightblue" stroke="midnightblue" points="654.958,-13.0001 664.958,-9.5 654.958,-6.0001 654.958,-13.0001"/>
</g>
<!-- Node19 -->
<g id="node19" class="node"><title>Node19</title>
<g id="a_node19"><a xlink:href="classmappel_1_1PointEmitterModel.html#a97a868e842302f670ed9f9bd49416771" target="_top" xlink:title="mappel::PointEmitterModel\l::check_param_shape">
<polygon fill="white" stroke="black" points="324.5,-59.5 324.5,-87.5 451.5,-87.5 451.5,-59.5 324.5,-59.5"/>
<text text-anchor="start" x="332.5" y="-76.3" font-family="Helvetica,sans-Serif" font-size="9.00">mappel::PointEmitterModel</text>
<text text-anchor="middle" x="388" y="-66.3" font-family="Helvetica,sans-Serif" font-size="9.00">::check_param_shape</text>
</a>
</g>
</g>
<!-- Node18&#45;&gt;Node19 -->
<g id="edge20" class="edge"><title>Node18&#45;&gt;Node19</title>
<path fill="none" stroke="midnightblue" d="M283.447,-73.5C293.461,-73.5 303.893,-73.5 314.114,-73.5"/>
<polygon fill="midnightblue" stroke="midnightblue" points="314.241,-77.0001 324.241,-73.5 314.241,-70.0001 314.241,-77.0001"/>
</g>
</g>
</svg>
        <g id="navigator" transform="translate(0 0)" fill="#404254">
                <rect fill="#f2f5e9" fill-opacity="0.5" stroke="#606060" stroke-width=".5" x="0" y="0" width="60" height="60"/>
                <use id="zoomplus" xlink:href="#zoomPlus" x="17" y="9" onmousedown="handleZoom(evt,'in')"/>
                <use id="zoomminus" xlink:href="#zoomMin" x="42" y="9" onmousedown="handleZoom(evt,'out')"/>
                <use id="reset" xlink:href="#resetDef" x="30" y="36" onmousedown="handleReset()"/>
                <g id="arrowUp" xlink:href="#dirArrow" transform="translate(30 24)" onmousedown="handlePan(0,-1)">
                  <use xlink:href="#rim" fill="#404040">
                        <set attributeName="fill" to="#808080" begin="arrowUp.mouseover" end="arrowUp.mouseout"/>
                  </use>
                  <path fill="none" stroke="white" stroke-width="1.5" d="M0,-3.0v7 M-2.5,-0.5L0,-3.0L2.5,-0.5"/>
                </g>
                <g id="arrowRight" xlink:href="#dirArrow" transform="rotate(90) translate(36 -43)" onmousedown="handlePan(1,0)">
                  <use xlink:href="#rim" fill="#404040">
                        <set attributeName="fill" to="#808080" begin="arrowRight.mouseover" end="arrowRight.mouseout"/>
                  </use>
                  <path fill="none" stroke="white" stroke-width="1.5" d="M0,-3.0v7 M-2.5,-0.5L0,-3.0L2.5,-0.5"/>
                </g>
                <g id="arrowDown" xlink:href="#dirArrow" transform="rotate(180) translate(-30 -48)" onmousedown="handlePan(0,1)">
                  <use xlink:href="#rim" fill="#404040">
                        <set attributeName="fill" to="#808080" begin="arrowDown.mouseover" end="arrowDown.mouseout"/>
                  </use>
                  <path fill="none" stroke="white" stroke-width="1.5" d="M0,-3.0v7 M-2.5,-0.5L0,-3.0L2.5,-0.5"/>
                </g>
                <g id="arrowLeft" xlink:href="#dirArrow" transform="rotate(270) translate(-36 17)" onmousedown="handlePan(-1,0)">
                  <use xlink:href="#rim" fill="#404040">
                        <set attributeName="fill" to="#808080" begin="arrowLeft.mouseover" end="arrowLeft.mouseout"/>
                  </use>
                  <path fill="none" stroke="white" stroke-width="1.5" d="M0,-3.0v7 M-2.5,-0.5L0,-3.0L2.5,-0.5"/>
                </g>
        </g>
        <svg viewBox="0 0 15 15" width="100%" height="30px" preserveAspectRatio="xMaxYMin meet">
         <g id="arrow_out" transform="scale(0.3 0.3)">
          <a xlink:href="classmappel_1_1Gauss2DsModel_a797aeb7c17a24a7df89597789a0eacb4_cgraph_org.svg" target="_base">
           <rect id="button" ry="5" rx="5" y="6" x="6" height="38" width="38"
                fill="#f2f5e9" fill-opacity="0.5" stroke="#606060" stroke-width="1.0"/>
           <path id="arrow"
             d="M 11.500037,31.436501 C 11.940474,20.09759 22.043105,11.32322 32.158766,21.979434 L 37.068811,17.246167 C 37.068811,17.246167 37.088388,32 37.088388,32 L 22.160133,31.978069 C 22.160133,31.978069 26.997745,27.140456 26.997745,27.140456 C 18.528582,18.264221 13.291696,25.230495 11.500037,31.436501 z"
             style="fill:#404040;"/>
          </a>
         </g>
        </svg>
</svg>
