<?xml version="1.0" encoding="UTF-8" standalone="no"?>
<!DOCTYPE svg PUBLIC "-//W3C//DTD SVG 1.1//EN"
 "http://www.w3.org/Graphics/SVG/1.1/DTD/svg11.dtd">
<!-- Generated by graphviz version 2.38.0 (20140413.2041)
 -->
<!-- Title: mappel::Gauss1DsModel::make_prior_normal_position Pages: 1 -->
<svg width="615pt" height="175pt"
 viewBox="0.00 0.00 615.00 175.00" xmlns="http://www.w3.org/2000/svg" xmlns:xlink="http://www.w3.org/1999/xlink">
<g id="graph0" class="graph" transform="scale(1 1) rotate(0) translate(4 171)">
<title>mappel::Gauss1DsModel::make_prior_normal_position</title>
<polygon fill="white" stroke="none" points="-4,4 -4,-171 611,-171 611,4 -4,4"/>
<!-- Node1 -->
<g id="node1" class="node"><title>Node1</title>
<polygon fill="#bfbfbf" stroke="black" points="0,-95.5 0,-123.5 139,-123.5 139,-95.5 0,-95.5"/>
<text text-anchor="start" x="8" y="-112.3" font-family="Helvetica,sans-Serif" font-size="9.00">mappel::Gauss1DsModel</text>
<text text-anchor="middle" x="69.5" y="-102.3" font-family="Helvetica,sans-Serif" font-size="9.00">::make_prior_normal_position</text>
</g>
<!-- Node2 -->
<g id="node2" class="node"><title>Node2</title>
<g id="a_node2"><a xlink:href="classmappel_1_1Gauss2DsModel.html#a199ce5ccefd43d8bf4b6d0b076fca918" target="_top" xlink:title="mappel::Gauss2DsModel\l::make_internal_1Dsum\l_estimator">
<polygon fill="white" stroke="black" points="175,-90.5 175,-128.5 295,-128.5 295,-90.5 175,-90.5"/>
<text text-anchor="start" x="183" y="-117.3" font-family="Helvetica,sans-Serif" font-size="9.00">mappel::Gauss2DsModel</text>
<text text-anchor="start" x="183" y="-107.3" font-family="Helvetica,sans-Serif" font-size="9.00">::make_internal_1Dsum</text>
<text text-anchor="middle" x="235" y="-97.3" font-family="Helvetica,sans-Serif" font-size="9.00">_estimator</text>
</a>
</g>
</g>
<!-- Node1&#45;&gt;Node2 -->
<g id="edge1" class="edge"><title>Node1&#45;&gt;Node2</title>
<path fill="none" stroke="midnightblue" d="M149.37,-109.5C157.929,-109.5 166.53,-109.5 174.797,-109.5"/>
<polygon fill="midnightblue" stroke="midnightblue" points="149.365,-106 139.365,-109.5 149.365,-113 149.365,-106"/>
</g>
<!-- Node3 -->
<g id="node3" class="node"><title>Node3</title>
<g id="a_node3"><a xlink:href="classmappel_1_1Gauss2DsModel.html#ab884d4d8ab54ec53cf0116aa9a5b1d81" target="_top" xlink:title="mappel::Gauss2DsModel\l::Gauss2DsModel">
<polygon fill="white" stroke="black" points="331,-138.5 331,-166.5 451,-166.5 451,-138.5 331,-138.5"/>
<text text-anchor="start" x="339" y="-155.3" font-family="Helvetica,sans-Serif" font-size="9.00">mappel::Gauss2DsModel</text>
<text text-anchor="middle" x="391" y="-145.3" font-family="Helvetica,sans-Serif" font-size="9.00">::Gauss2DsModel</text>
</a>
</g>
</g>
<!-- Node2&#45;&gt;Node3 -->
<g id="edge2" class="edge"><title>Node2&#45;&gt;Node3</title>
<path fill="none" stroke="midnightblue" d="M304.894,-128.737C316.655,-132.021 328.671,-135.376 339.828,-138.491"/>
<polygon fill="midnightblue" stroke="midnightblue" points="305.673,-125.32 295.1,-126.002 303.79,-132.062 305.673,-125.32"/>
</g>
<!-- Node4 -->
<g id="node4" class="node"><title>Node4</title>
<g id="a_node4"><a xlink:href="classmappel_1_1Gauss2DsModel.html#a2ce4737beb88367daeb480bf471ad2cf" target="_top" xlink:title="mappel::Gauss2DsModel\l::debug_internal_sum\l_model_y">
<polygon fill="white" stroke="black" points="487,-94.5 487,-132.5 607,-132.5 607,-94.5 487,-94.5"/>
<text text-anchor="start" x="495" y="-121.3" font-family="Helvetica,sans-Serif" font-size="9.00">mappel::Gauss2DsModel</text>
<text text-anchor="start" x="495" y="-111.3" font-family="Helvetica,sans-Serif" font-size="9.00">::debug_internal_sum</text>
<text text-anchor="middle" x="547" y="-101.3" font-family="Helvetica,sans-Serif" font-size="9.00">_model_y</text>
</a>
</g>
</g>
<!-- Node2&#45;&gt;Node4 -->
<g id="edge8" class="edge"><title>Node2&#45;&gt;Node4</title>
<path fill="none" stroke="midnightblue" d="M305.323,-110.394C359.909,-111.099 435.166,-112.07 486.918,-112.738"/>
<polygon fill="midnightblue" stroke="midnightblue" points="305.083,-106.891 295.038,-110.262 304.992,-113.891 305.083,-106.891"/>
</g>
<!-- Node5 -->
<g id="node5" class="node"><title>Node5</title>
<g id="a_node5"><a xlink:href="classmappel_1_1Gauss2DsModel.html#a6ce7054c0fcdb72394839a0abb2616cb" target="_top" xlink:title="mappel::Gauss2DsModel\l::update_internal_1Dsum\l_estimators">
<polygon fill="white" stroke="black" points="331,-42.5 331,-80.5 451,-80.5 451,-42.5 331,-42.5"/>
<text text-anchor="start" x="339" y="-69.3" font-family="Helvetica,sans-Serif" font-size="9.00">mappel::Gauss2DsModel</text>
<text text-anchor="start" x="339" y="-59.3" font-family="Helvetica,sans-Serif" font-size="9.00">::update_internal_1Dsum</text>
<text text-anchor="middle" x="391" y="-49.3" font-family="Helvetica,sans-Serif" font-size="9.00">_estimators</text>
</a>
</g>
</g>
<!-- Node2&#45;&gt;Node5 -->
<g id="edge4" class="edge"><title>Node2&#45;&gt;Node5</title>
<path fill="none" stroke="midnightblue" d="M304.809,-88.0529C313.483,-85.3495 322.297,-82.6023 330.804,-79.9508"/>
<polygon fill="midnightblue" stroke="midnightblue" points="303.605,-84.762 295.1,-91.0792 305.689,-91.4449 303.605,-84.762"/>
</g>
<!-- Node3&#45;&gt;Node4 -->
<g id="edge3" class="edge"><title>Node3&#45;&gt;Node4</title>
<path fill="none" stroke="midnightblue" d="M457.296,-135.964C467.105,-133.48 477.174,-130.93 486.845,-128.481"/>
<polygon fill="midnightblue" stroke="midnightblue" points="456.432,-132.572 447.598,-138.42 458.151,-139.358 456.432,-132.572"/>
</g>
<!-- Node5&#45;&gt;Node4 -->
<g id="edge7" class="edge"><title>Node5&#45;&gt;Node4</title>
<path fill="none" stroke="midnightblue" d="M458.01,-83.789C468.508,-87.3339 479.285,-90.9728 489.537,-94.4347"/>
<polygon fill="midnightblue" stroke="midnightblue" points="459.064,-80.4508 448.469,-80.5676 456.824,-87.0829 459.064,-80.4508"/>
</g>
<!-- Node6 -->
<g id="node6" class="node"><title>Node6</title>
<g id="a_node6"><a xlink:href="classmappel_1_1Gauss2DsModel.html#a895bee95db23557189b58f9b1d5e2453" target="_top" xlink:title="mappel::Gauss2DsModel\l::set_prior">
<polygon fill="white" stroke="black" points="487,-47.5 487,-75.5 607,-75.5 607,-47.5 487,-47.5"/>
<text text-anchor="start" x="495" y="-64.3" font-family="Helvetica,sans-Serif" font-size="9.00">mappel::Gauss2DsModel</text>
<text text-anchor="middle" x="547" y="-54.3" font-family="Helvetica,sans-Serif" font-size="9.00">::set_prior</text>
</a>
</g>
</g>
<!-- Node5&#45;&gt;Node6 -->
<g id="edge5" class="edge"><title>Node5&#45;&gt;Node6</title>
<path fill="none" stroke="midnightblue" d="M461.369,-61.5C469.862,-61.5 478.48,-61.5 486.804,-61.5"/>
<polygon fill="midnightblue" stroke="midnightblue" points="461.1,-58.0001 451.1,-61.5 461.1,-65.0001 461.1,-58.0001"/>
</g>
<!-- Node7 -->
<g id="node7" class="node"><title>Node7</title>
<g id="a_node7"><a xlink:href="classmappel_1_1Gauss2DsModel.html#a615788e50f97d8c863ec60a5dfee07e3" target="_top" xlink:title="mappel::Gauss2DsModel\l::set_hyperparams">
<polygon fill="white" stroke="black" points="487,-0.5 487,-28.5 607,-28.5 607,-0.5 487,-0.5"/>
<text text-anchor="start" x="495" y="-17.3" font-family="Helvetica,sans-Serif" font-size="9.00">mappel::Gauss2DsModel</text>
<text text-anchor="middle" x="547" y="-7.3" font-family="Helvetica,sans-Serif" font-size="9.00">::set_hyperparams</text>
</a>
</g>
</g>
<!-- Node5&#45;&gt;Node7 -->
<g id="edge6" class="edge"><title>Node5&#45;&gt;Node7</title>
<path fill="none" stroke="midnightblue" d="M461.032,-40.4317C474.133,-36.4333 487.546,-32.34 499.73,-28.6215"/>
<polygon fill="midnightblue" stroke="midnightblue" points="459.643,-37.1963 451.1,-43.463 461.686,-43.8915 459.643,-37.1963"/>
</g>
</g>
</svg>
