<?xml version="1.0" encoding="UTF-8" standalone="no"?>
<!DOCTYPE svg PUBLIC "-//W3C//DTD SVG 1.1//EN"
 "http://www.w3.org/Graphics/SVG/1.1/DTD/svg11.dtd">
<!-- Generated by graphviz version 2.38.0 (20140413.2041)
 -->
<!-- Title: mappel::Gauss2DsModel::Stencil::Stencil Pages: 1 -->
<!--zoomable 269 -->
<svg id="main" version="1.1" xmlns="http://www.w3.org/2000/svg" xmlns:xlink="http://www.w3.org/1999/xlink" xml:space="preserve" onload="init(evt)">
<style type="text/css"><![CDATA[
.edge:hover path { stroke: red; }
.edge:hover polygon { stroke: red; fill: red; }
]]></style>
<script type="text/javascript"><![CDATA[
var edges = document.getElementsByTagName('g');
if (edges && edges.length) {
  for (var i=0;i<edges.length;i++) {
    if (edges[i].id.substr(0,4)=='edge') {
      edges[i].setAttribute('class','edge');
    }
  }
}
]]></script>
        <defs>
                <circle id="rim" cx="0" cy="0" r="7"/>
                <circle id="rim2" cx="0" cy="0" r="3.5"/>
                <g id="zoomPlus">
                        <use xlink:href="#rim" fill="#404040">
                                <set attributeName="fill" to="#808080" begin="zoomplus.mouseover" end="zoomplus.mouseout"/>
                        </use>
                        <path d="M-4,0h8M0,-4v8" fill="none" stroke="white" stroke-width="1.5" pointer-events="none"/>
                </g>
                <g id="zoomMin">
                        <use xlink:href="#rim" fill="#404040">
                                <set attributeName="fill" to="#808080" begin="zoomminus.mouseover" end="zoomminus.mouseout"/>
                        </use>
                        <path d="M-4,0h8" fill="none" stroke="white" stroke-width="1.5" pointer-events="none"/>
                </g>
                <g id="dirArrow">
                        <path fill="none" stroke="white" stroke-width="1.5" d="M0,-3.0v7 M-2.5,-0.5L0,-3.0L2.5,-0.5"/>
                </g>
               <g id="resetDef">
                       <use xlink:href="#rim2" fill="#404040">
                               <set attributeName="fill" to="#808080" begin="reset.mouseover" end="reset.mouseout"/>
                       </use>
               </g>
        </defs>

<script type="text/javascript">
var viewWidth = 748;
var viewHeight = 269;
var sectionId = 'dynsection-1';
</script>
<script xlink:href="svgpan.js"/>
<svg id="graph" class="graph">
<g id="viewport">
<title>mappel::Gauss2DsModel::Stencil::Stencil</title>
<polygon fill="white" stroke="none" points="-4,4 -4,-265 744,-265 744,4 -4,4"/>
<!-- Node1 -->
<g id="node1" class="node"><title>Node1</title>
<polygon fill="#bfbfbf" stroke="black" points="0,-106.5 0,-134.5 120,-134.5 120,-106.5 0,-106.5"/>
<text text-anchor="start" x="8" y="-123.3" font-family="Helvetica,sans-Serif" font-size="9.00">mappel::Gauss2DsModel</text>
<text text-anchor="middle" x="60" y="-113.3" font-family="Helvetica,sans-Serif" font-size="9.00">::Stencil::Stencil</text>
</g>
<!-- Node2 -->
<g id="node2" class="node"><title>Node2</title>
<g id="a_node2"><a xlink:href="classmappel_1_1Gauss2DsModel_1_1Stencil.html#ab11c806f8335bbafeb3db7476526680d" target="_top" xlink:title="mappel::Gauss2DsModel\l::Stencil::compute_derivatives">
<polygon fill="white" stroke="black" points="156,-106.5 156,-134.5 294,-134.5 294,-106.5 156,-106.5"/>
<text text-anchor="start" x="164" y="-123.3" font-family="Helvetica,sans-Serif" font-size="9.00">mappel::Gauss2DsModel</text>
<text text-anchor="middle" x="225" y="-113.3" font-family="Helvetica,sans-Serif" font-size="9.00">::Stencil::compute_derivatives</text>
</a>
</g>
</g>
<!-- Node1&#45;&gt;Node2 -->
<g id="edge1" class="edge"><title>Node1&#45;&gt;Node2</title>
<path fill="none" stroke="midnightblue" d="M120.308,-120.5C128.617,-120.5 137.259,-120.5 145.851,-120.5"/>
<polygon fill="midnightblue" stroke="midnightblue" points="145.892,-124 155.892,-120.5 145.892,-117 145.892,-124"/>
</g>
<!-- Node3 -->
<g id="node3" class="node"><title>Node3</title>
<g id="a_node3"><a xlink:href="namespacemappel.html#aa5c2f294298c875605ee1e9876b7d116" target="_top" xlink:title="mappel::make_G_stencil">
<polygon fill="white" stroke="black" points="339,-242.5 339,-260.5 457,-260.5 457,-242.5 339,-242.5"/>
<text text-anchor="middle" x="398" y="-249.3" font-family="Helvetica,sans-Serif" font-size="9.00">mappel::make_G_stencil</text>
</a>
</g>
</g>
<!-- Node2&#45;&gt;Node3 -->
<g id="edge2" class="edge"><title>Node2&#45;&gt;Node3</title>
<path fill="none" stroke="midnightblue" d="M235.041,-134.686C251.136,-158.761 287.128,-207.529 330,-233.5 333.229,-235.456 336.672,-237.203 340.227,-238.762"/>
<polygon fill="midnightblue" stroke="midnightblue" points="339.244,-242.135 349.834,-242.469 341.764,-235.604 339.244,-242.135"/>
</g>
<!-- Node6 -->
<g id="node6" class="node"><title>Node6</title>
<g id="a_node6"><a xlink:href="classmappel_1_1Gauss2DsModel_1_1Stencil.html#adab71d870d1b32f78e85d273dd7bd006" target="_top" xlink:title="mappel::Gauss2DsModel\l::Stencil::sigmaX">
<polygon fill="white" stroke="black" points="338,-195.5 338,-223.5 458,-223.5 458,-195.5 338,-195.5"/>
<text text-anchor="start" x="346" y="-212.3" font-family="Helvetica,sans-Serif" font-size="9.00">mappel::Gauss2DsModel</text>
<text text-anchor="middle" x="398" y="-202.3" font-family="Helvetica,sans-Serif" font-size="9.00">::Stencil::sigmaX</text>
</a>
</g>
</g>
<!-- Node2&#45;&gt;Node6 -->
<g id="edge5" class="edge"><title>Node2&#45;&gt;Node6</title>
<path fill="none" stroke="midnightblue" d="M245.139,-134.59C265.424,-149.048 298.777,-171.491 330,-186.5 333.803,-188.328 337.791,-190.079 341.844,-191.742"/>
<polygon fill="midnightblue" stroke="midnightblue" points="340.78,-195.083 351.369,-195.453 343.322,-188.561 340.78,-195.083"/>
</g>
<!-- Node8 -->
<g id="node8" class="node"><title>Node8</title>
<g id="a_node8"><a xlink:href="classmappel_1_1Gauss2DsModel_1_1Stencil.html#abc29f317d508c398a3fcc337a1fb8d1f" target="_top" xlink:title="mappel::Gauss2DsModel\l::Stencil::sigmaY">
<polygon fill="white" stroke="black" points="338,-148.5 338,-176.5 458,-176.5 458,-148.5 338,-148.5"/>
<text text-anchor="start" x="346" y="-165.3" font-family="Helvetica,sans-Serif" font-size="9.00">mappel::Gauss2DsModel</text>
<text text-anchor="middle" x="398" y="-155.3" font-family="Helvetica,sans-Serif" font-size="9.00">::Stencil::sigmaY</text>
</a>
</g>
</g>
<!-- Node2&#45;&gt;Node8 -->
<g id="edge7" class="edge"><title>Node2&#45;&gt;Node8</title>
<path fill="none" stroke="midnightblue" d="M283.416,-134.602C298.3,-138.258 314.461,-142.227 329.798,-145.994"/>
<polygon fill="midnightblue" stroke="midnightblue" points="329.189,-149.449 339.735,-148.435 330.859,-142.651 329.189,-149.449"/>
</g>
<!-- Node9 -->
<g id="node9" class="node"><title>Node9</title>
<g id="a_node9"><a xlink:href="namespacemappel.html#a8da88490d6ff7d5886b96b66c1bab369" target="_top" xlink:title="mappel::make_DX_stencil">
<polygon fill="white" stroke="black" points="336,-111.5 336,-129.5 460,-129.5 460,-111.5 336,-111.5"/>
<text text-anchor="middle" x="398" y="-118.3" font-family="Helvetica,sans-Serif" font-size="9.00">mappel::make_DX_stencil</text>
</a>
</g>
</g>
<!-- Node2&#45;&gt;Node9 -->
<g id="edge9" class="edge"><title>Node2&#45;&gt;Node9</title>
<path fill="none" stroke="midnightblue" d="M294.075,-120.5C304.413,-120.5 315.107,-120.5 325.515,-120.5"/>
<polygon fill="midnightblue" stroke="midnightblue" points="325.805,-124 335.805,-120.5 325.805,-117 325.805,-124"/>
</g>
<!-- Node11 -->
<g id="node11" class="node"><title>Node11</title>
<g id="a_node11"><a xlink:href="namespacemappel.html#af7636db506977133c8b30d108fede711" target="_top" xlink:title="mappel::make_DXS_stencil">
<polygon fill="white" stroke="black" points="333,-74.5 333,-92.5 463,-92.5 463,-74.5 333,-74.5"/>
<text text-anchor="middle" x="398" y="-81.3" font-family="Helvetica,sans-Serif" font-size="9.00">mappel::make_DXS_stencil</text>
</a>
</g>
</g>
<!-- Node2&#45;&gt;Node11 -->
<g id="edge11" class="edge"><title>Node2&#45;&gt;Node11</title>
<path fill="none" stroke="midnightblue" d="M291.136,-106.406C309.125,-102.514 328.391,-98.3453 345.49,-94.6454"/>
<polygon fill="midnightblue" stroke="midnightblue" points="346.248,-98.0625 355.281,-92.5268 344.767,-91.2209 346.248,-98.0625"/>
</g>
<!-- Node13 -->
<g id="node13" class="node"><title>Node13</title>
<g id="a_node13"><a xlink:href="namespacemappel.html#aef14b765af6f9b85d93f42ab8b84311b" target="_top" xlink:title="mappel::make_DXS2_stencil">
<polygon fill="white" stroke="black" points="330.5,-37.5 330.5,-55.5 465.5,-55.5 465.5,-37.5 330.5,-37.5"/>
<text text-anchor="middle" x="398" y="-44.3" font-family="Helvetica,sans-Serif" font-size="9.00">mappel::make_DXS2_stencil</text>
</a>
</g>
</g>
<!-- Node2&#45;&gt;Node13 -->
<g id="edge14" class="edge"><title>Node2&#45;&gt;Node13</title>
<path fill="none" stroke="midnightblue" d="M248.397,-106.468C268.978,-94.0575 300.651,-76.161 330,-64.5 335.521,-62.3062 341.403,-60.2895 347.3,-58.4631"/>
<polygon fill="midnightblue" stroke="midnightblue" points="348.565,-61.7397 357.179,-55.5715 346.599,-55.0216 348.565,-61.7397"/>
</g>
<!-- Node15 -->
<g id="node15" class="node"><title>Node15</title>
<g id="a_node15"><a xlink:href="namespacemappel.html#abccec04f04b0b10940779c9bbae0e570" target="_top" xlink:title="mappel::make_DXSX_stencil">
<polygon fill="white" stroke="black" points="330,-0.5 330,-18.5 466,-18.5 466,-0.5 330,-0.5"/>
<text text-anchor="middle" x="398" y="-7.3" font-family="Helvetica,sans-Serif" font-size="9.00">mappel::make_DXSX_stencil</text>
</a>
</g>
</g>
<!-- Node2&#45;&gt;Node15 -->
<g id="edge16" class="edge"><title>Node2&#45;&gt;Node15</title>
<path fill="none" stroke="midnightblue" d="M237.917,-106.264C255.817,-85.7986 291.656,-48.2508 330,-27.5 333.754,-25.4686 337.752,-23.6546 341.856,-22.0369"/>
<polygon fill="midnightblue" stroke="midnightblue" points="343.293,-25.241 351.555,-18.6082 340.96,-18.6412 343.293,-25.241"/>
</g>
<!-- Node4 -->
<g id="node4" class="node"><title>Node4</title>
<g id="a_node4"><a xlink:href="namespacemappel.html#a5ca82edc201e8605107a991493ad0d5e" target="_top" xlink:title="mappel::fill_G_stencil">
<polygon fill="white" stroke="black" points="511,-230.5 511,-248.5 615,-248.5 615,-230.5 511,-230.5"/>
<text text-anchor="middle" x="563" y="-237.3" font-family="Helvetica,sans-Serif" font-size="9.00">mappel::fill_G_stencil</text>
</a>
</g>
</g>
<!-- Node3&#45;&gt;Node4 -->
<g id="edge3" class="edge"><title>Node3&#45;&gt;Node4</title>
<path fill="none" stroke="midnightblue" d="M457.386,-247.202C471.426,-246.168 486.464,-245.061 500.635,-244.018"/>
<polygon fill="midnightblue" stroke="midnightblue" points="501.058,-247.496 510.774,-243.271 500.544,-240.515 501.058,-247.496"/>
</g>
<!-- Node5 -->
<g id="node5" class="node"><title>Node5</title>
<g id="a_node5"><a xlink:href="namespacemappel.html#a8475cdb3edacceb0ae215c3ebd1f33c1" target="_top" xlink:title="mappel::square">
<polygon fill="white" stroke="black" points="660,-152.5 660,-170.5 740,-170.5 740,-152.5 660,-152.5"/>
<text text-anchor="middle" x="700" y="-159.3" font-family="Helvetica,sans-Serif" font-size="9.00">mappel::square</text>
</a>
</g>
</g>
<!-- Node4&#45;&gt;Node5 -->
<g id="edge4" class="edge"><title>Node4&#45;&gt;Node5</title>
<path fill="none" stroke="midnightblue" d="M579.75,-230.4C603.02,-216.955 646.795,-191.663 674.343,-175.746"/>
<polygon fill="midnightblue" stroke="midnightblue" points="676.442,-178.576 683.35,-170.542 672.94,-172.515 676.442,-178.576"/>
</g>
<!-- Node7 -->
<g id="node7" class="node"><title>Node7</title>
<g id="a_node7"><a xlink:href="classmappel_1_1Gauss2DsModel_1_1Stencil.html#a98f618270de5ff947a1ed9800dffd977" target="_top" xlink:title="mappel::Gauss2DsModel\l::Stencil::sigma_ratio">
<polygon fill="white" stroke="black" points="503,-160.5 503,-188.5 623,-188.5 623,-160.5 503,-160.5"/>
<text text-anchor="start" x="511" y="-177.3" font-family="Helvetica,sans-Serif" font-size="9.00">mappel::Gauss2DsModel</text>
<text text-anchor="middle" x="563" y="-167.3" font-family="Helvetica,sans-Serif" font-size="9.00">::Stencil::sigma_ratio</text>
</a>
</g>
</g>
<!-- Node6&#45;&gt;Node7 -->
<g id="edge6" class="edge"><title>Node6&#45;&gt;Node7</title>
<path fill="none" stroke="midnightblue" d="M458.308,-196.765C469.502,-194.362 481.301,-191.828 492.768,-189.366"/>
<polygon fill="midnightblue" stroke="midnightblue" points="493.694,-192.747 502.736,-187.225 492.224,-185.903 493.694,-192.747"/>
</g>
<!-- Node8&#45;&gt;Node7 -->
<g id="edge8" class="edge"><title>Node8&#45;&gt;Node7</title>
<path fill="none" stroke="midnightblue" d="M458.308,-166.866C469.389,-167.682 481.063,-168.541 492.42,-169.378"/>
<polygon fill="midnightblue" stroke="midnightblue" points="492.506,-172.893 502.736,-170.137 493.02,-165.912 492.506,-172.893"/>
</g>
<!-- Node10 -->
<g id="node10" class="node"><title>Node10</title>
<g id="a_node10"><a xlink:href="namespacemappel.html#ad2dd4330fc626fa673a3acf691d6b9a7" target="_top" xlink:title="mappel::fill_DX_stencil">
<polygon fill="white" stroke="black" points="508,-111.5 508,-129.5 618,-129.5 618,-111.5 508,-111.5"/>
<text text-anchor="middle" x="563" y="-118.3" font-family="Helvetica,sans-Serif" font-size="9.00">mappel::fill_DX_stencil</text>
</a>
</g>
</g>
<!-- Node9&#45;&gt;Node10 -->
<g id="edge10" class="edge"><title>Node9&#45;&gt;Node10</title>
<path fill="none" stroke="midnightblue" d="M460.159,-120.5C472.368,-120.5 485.228,-120.5 497.545,-120.5"/>
<polygon fill="midnightblue" stroke="midnightblue" points="497.737,-124 507.737,-120.5 497.737,-117 497.737,-124"/>
</g>
<!-- Node12 -->
<g id="node12" class="node"><title>Node12</title>
<g id="a_node12"><a xlink:href="namespacemappel.html#ab0cb62f6dcecae5ff19468d87a283e7a" target="_top" xlink:title="mappel::fill_DXS_stencil">
<polygon fill="white" stroke="black" points="505,-74.5 505,-92.5 621,-92.5 621,-74.5 505,-74.5"/>
<text text-anchor="middle" x="563" y="-81.3" font-family="Helvetica,sans-Serif" font-size="9.00">mappel::fill_DXS_stencil</text>
</a>
</g>
</g>
<!-- Node11&#45;&gt;Node12 -->
<g id="edge12" class="edge"><title>Node11&#45;&gt;Node12</title>
<path fill="none" stroke="midnightblue" d="M463.422,-83.5C473.7,-83.5 484.357,-83.5 494.7,-83.5"/>
<polygon fill="midnightblue" stroke="midnightblue" points="494.912,-87.0001 504.912,-83.5 494.912,-80.0001 494.912,-87.0001"/>
</g>
<!-- Node12&#45;&gt;Node5 -->
<g id="edge13" class="edge"><title>Node12&#45;&gt;Node5</title>
<path fill="none" stroke="midnightblue" d="M599.758,-92.5028C607.954,-95.1938 616.467,-98.5145 624,-102.5 645.79,-114.028 667.587,-132.087 682.022,-145.191"/>
<polygon fill="midnightblue" stroke="midnightblue" points="679.907,-148.003 689.615,-152.247 684.672,-142.875 679.907,-148.003"/>
</g>
<!-- Node14 -->
<g id="node14" class="node"><title>Node14</title>
<g id="a_node14"><a xlink:href="namespacemappel.html#a445e83c8273da9b3a50cc10d038ed612" target="_top" xlink:title="mappel::fill_DXS2_stencil">
<polygon fill="white" stroke="black" points="502,-37.5 502,-55.5 624,-55.5 624,-37.5 502,-37.5"/>
<text text-anchor="middle" x="563" y="-44.3" font-family="Helvetica,sans-Serif" font-size="9.00">mappel::fill_DXS2_stencil</text>
</a>
</g>
</g>
<!-- Node13&#45;&gt;Node14 -->
<g id="edge15" class="edge"><title>Node13&#45;&gt;Node14</title>
<path fill="none" stroke="midnightblue" d="M465.769,-46.5C474.363,-46.5 483.183,-46.5 491.83,-46.5"/>
<polygon fill="midnightblue" stroke="midnightblue" points="491.876,-50.0001 501.876,-46.5 491.876,-43.0001 491.876,-50.0001"/>
</g>
<!-- Node16 -->
<g id="node16" class="node"><title>Node16</title>
<g id="a_node16"><a xlink:href="namespacemappel.html#ad3a6553e54dc90232fc04c93731fc69c" target="_top" xlink:title="mappel::fill_DXSX_stencil">
<polygon fill="white" stroke="black" points="502,-0.5 502,-18.5 624,-18.5 624,-0.5 502,-0.5"/>
<text text-anchor="middle" x="563" y="-7.3" font-family="Helvetica,sans-Serif" font-size="9.00">mappel::fill_DXSX_stencil</text>
</a>
</g>
</g>
<!-- Node15&#45;&gt;Node16 -->
<g id="edge17" class="edge"><title>Node15&#45;&gt;Node16</title>
<path fill="none" stroke="midnightblue" d="M466.239,-9.5C474.656,-9.5 483.282,-9.5 491.744,-9.5"/>
<polygon fill="midnightblue" stroke="midnightblue" points="491.958,-13.0001 501.958,-9.5 491.958,-6.0001 491.958,-13.0001"/>
</g>
</g>
</svg>
        <g id="navigator" transform="translate(0 0)" fill="#404254">
                <rect fill="#f2f5e9" fill-opacity="0.5" stroke="#606060" stroke-width=".5" x="0" y="0" width="60" height="60"/>
                <use id="zoomplus" xlink:href="#zoomPlus" x="17" y="9" onmousedown="handleZoom(evt,'in')"/>
                <use id="zoomminus" xlink:href="#zoomMin" x="42" y="9" onmousedown="handleZoom(evt,'out')"/>
                <use id="reset" xlink:href="#resetDef" x="30" y="36" onmousedown="handleReset()"/>
                <g id="arrowUp" xlink:href="#dirArrow" transform="translate(30 24)" onmousedown="handlePan(0,-1)">
                  <use xlink:href="#rim" fill="#404040">
                        <set attributeName="fill" to="#808080" begin="arrowUp.mouseover" end="arrowUp.mouseout"/>
                  </use>
                  <path fill="none" stroke="white" stroke-width="1.5" d="M0,-3.0v7 M-2.5,-0.5L0,-3.0L2.5,-0.5"/>
                </g>
                <g id="arrowRight" xlink:href="#dirArrow" transform="rotate(90) translate(36 -43)" onmousedown="handlePan(1,0)">
                  <use xlink:href="#rim" fill="#404040">
                        <set attributeName="fill" to="#808080" begin="arrowRight.mouseover" end="arrowRight.mouseout"/>
                  </use>
                  <path fill="none" stroke="white" stroke-width="1.5" d="M0,-3.0v7 M-2.5,-0.5L0,-3.0L2.5,-0.5"/>
                </g>
                <g id="arrowDown" xlink:href="#dirArrow" transform="rotate(180) translate(-30 -48)" onmousedown="handlePan(0,1)">
                  <use xlink:href="#rim" fill="#404040">
                        <set attributeName="fill" to="#808080" begin="arrowDown.mouseover" end="arrowDown.mouseout"/>
                  </use>
                  <path fill="none" stroke="white" stroke-width="1.5" d="M0,-3.0v7 M-2.5,-0.5L0,-3.0L2.5,-0.5"/>
                </g>
                <g id="arrowLeft" xlink:href="#dirArrow" transform="rotate(270) translate(-36 17)" onmousedown="handlePan(-1,0)">
                  <use xlink:href="#rim" fill="#404040">
                        <set attributeName="fill" to="#808080" begin="arrowLeft.mouseover" end="arrowLeft.mouseout"/>
                  </use>
                  <path fill="none" stroke="white" stroke-width="1.5" d="M0,-3.0v7 M-2.5,-0.5L0,-3.0L2.5,-0.5"/>
                </g>
        </g>
        <svg viewBox="0 0 15 15" width="100%" height="30px" preserveAspectRatio="xMaxYMin meet">
         <g id="arrow_out" transform="scale(0.3 0.3)">
          <a xlink:href="classmappel_1_1Gauss2DsModel_1_1Stencil_a5da67675e94a28486035ff4168e56232_cgraph_org.svg" target="_base">
           <rect id="button" ry="5" rx="5" y="6" x="6" height="38" width="38"
                fill="#f2f5e9" fill-opacity="0.5" stroke="#606060" stroke-width="1.0"/>
           <path id="arrow"
             d="M 11.500037,31.436501 C 11.940474,20.09759 22.043105,11.32322 32.158766,21.979434 L 37.068811,17.246167 C 37.068811,17.246167 37.088388,32 37.088388,32 L 22.160133,31.978069 C 22.160133,31.978069 26.997745,27.140456 26.997745,27.140456 C 18.528582,18.264221 13.291696,25.230495 11.500037,31.436501 z"
             style="fill:#404040;"/>
          </a>
         </g>
        </svg>
</svg>
