<?xml version="1.0" encoding="UTF-8" standalone="no"?>
<!DOCTYPE svg PUBLIC "-//W3C//DTD SVG 1.1//EN"
 "http://www.w3.org/Graphics/SVG/1.1/DTD/svg11.dtd">
<!-- Generated by graphviz version 2.38.0 (20140413.2041)
 -->
<!-- Title: mappel::ImageFormat1DBase::check_size Pages: 1 -->
<svg width="478pt" height="107pt"
 viewBox="0.00 0.00 478.00 107.00" xmlns="http://www.w3.org/2000/svg" xmlns:xlink="http://www.w3.org/1999/xlink">
<g id="graph0" class="graph" transform="scale(1 1) rotate(0) translate(4 103)">
<title>mappel::ImageFormat1DBase::check_size</title>
<polygon fill="white" stroke="none" points="-4,4 -4,-103 474,-103 474,4 -4,4"/>
<!-- Node1 -->
<g id="node1" class="node"><title>Node1</title>
<polygon fill="#bfbfbf" stroke="black" points="0,-46.5 0,-74.5 139,-74.5 139,-46.5 0,-46.5"/>
<text text-anchor="start" x="8" y="-63.3" font-family="Helvetica,sans-Serif" font-size="9.00">mappel::ImageFormat1DBase</text>
<text text-anchor="middle" x="69.5" y="-53.3" font-family="Helvetica,sans-Serif" font-size="9.00">::check_size</text>
</g>
<!-- Node2 -->
<g id="node2" class="node"><title>Node2</title>
<g id="a_node2"><a xlink:href="classmappel_1_1ImageFormat1DBase.html#a3421dcd0e869657e8ff430bf37fdc1b8" target="_top" xlink:title="mappel::ImageFormat1DBase\l::ImageFormat1DBase">
<polygon fill="white" stroke="black" points="175,-70.5 175,-98.5 314,-98.5 314,-70.5 175,-70.5"/>
<text text-anchor="start" x="183" y="-87.3" font-family="Helvetica,sans-Serif" font-size="9.00">mappel::ImageFormat1DBase</text>
<text text-anchor="middle" x="244.5" y="-77.3" font-family="Helvetica,sans-Serif" font-size="9.00">::ImageFormat1DBase</text>
</a>
</g>
</g>
<!-- Node1&#45;&gt;Node2 -->
<g id="edge1" class="edge"><title>Node1&#45;&gt;Node2</title>
<path fill="none" stroke="midnightblue" d="M149.316,-71.434C157.844,-72.6171 166.472,-73.8141 174.866,-74.9785"/>
<polygon fill="midnightblue" stroke="midnightblue" points="149.757,-67.9618 139.371,-70.0544 148.795,-74.8954 149.757,-67.9618"/>
</g>
<!-- Node3 -->
<g id="node3" class="node"><title>Node3</title>
<g id="a_node3"><a xlink:href="classmappel_1_1ImageFormat1DBase.html#ad169407f15bd43b0cec18fa2c88725b7" target="_top" xlink:title="mappel::ImageFormat1DBase\l::set_size">
<polygon fill="white" stroke="black" points="175,-23.5 175,-51.5 314,-51.5 314,-23.5 175,-23.5"/>
<text text-anchor="start" x="183" y="-40.3" font-family="Helvetica,sans-Serif" font-size="9.00">mappel::ImageFormat1DBase</text>
<text text-anchor="middle" x="244.5" y="-30.3" font-family="Helvetica,sans-Serif" font-size="9.00">::set_size</text>
</a>
</g>
</g>
<!-- Node1&#45;&gt;Node3 -->
<g id="edge2" class="edge"><title>Node1&#45;&gt;Node3</title>
<path fill="none" stroke="midnightblue" d="M149.316,-50.0216C157.844,-48.8878 166.472,-47.7407 174.866,-46.6248"/>
<polygon fill="midnightblue" stroke="midnightblue" points="148.823,-46.5563 139.371,-51.3437 149.745,-53.4952 148.823,-46.5563"/>
</g>
<!-- Node4 -->
<g id="node4" class="node"><title>Node4</title>
<g id="a_node4"><a xlink:href="classmappel_1_1Gauss2DModel.html#a8d92d03d6801a59de097d599c798dc79" target="_top" xlink:title="mappel::Gauss2DModel\l::set_size">
<polygon fill="white" stroke="black" points="352,-47.5 352,-75.5 468,-75.5 468,-47.5 352,-47.5"/>
<text text-anchor="start" x="360" y="-64.3" font-family="Helvetica,sans-Serif" font-size="9.00">mappel::Gauss2DModel</text>
<text text-anchor="middle" x="410" y="-54.3" font-family="Helvetica,sans-Serif" font-size="9.00">::set_size</text>
</a>
</g>
</g>
<!-- Node3&#45;&gt;Node4 -->
<g id="edge3" class="edge"><title>Node3&#45;&gt;Node4</title>
<path fill="none" stroke="midnightblue" d="M324.374,-49.0779C333.637,-50.4376 342.949,-51.8045 351.834,-53.1087"/>
<polygon fill="midnightblue" stroke="midnightblue" points="324.767,-45.5981 314.365,-47.6086 323.75,-52.5239 324.767,-45.5981"/>
</g>
<!-- Node5 -->
<g id="node5" class="node"><title>Node5</title>
<g id="a_node5"><a xlink:href="classmappel_1_1Gauss2DsModel.html#a4a95f8c149bd5881e01af5207e30e2e9" target="_top" xlink:title="mappel::Gauss2DsModel\l::set_size">
<polygon fill="white" stroke="black" points="350,-0.5 350,-28.5 470,-28.5 470,-0.5 350,-0.5"/>
<text text-anchor="start" x="358" y="-17.3" font-family="Helvetica,sans-Serif" font-size="9.00">mappel::Gauss2DsModel</text>
<text text-anchor="middle" x="410" y="-7.3" font-family="Helvetica,sans-Serif" font-size="9.00">::set_size</text>
</a>
</g>
</g>
<!-- Node3&#45;&gt;Node5 -->
<g id="edge4" class="edge"><title>Node3&#45;&gt;Node5</title>
<path fill="none" stroke="midnightblue" d="M324.37,-26.4051C332.929,-25.2012 341.53,-23.9913 349.797,-22.8283"/>
<polygon fill="midnightblue" stroke="midnightblue" points="323.78,-22.9536 314.365,-27.8126 324.755,-29.8854 323.78,-22.9536"/>
</g>
</g>
</svg>
