<?xml version="1.0" encoding="UTF-8" standalone="no"?>
<!DOCTYPE svg PUBLIC "-//W3C//DTD SVG 1.1//EN"
 "http://www.w3.org/Graphics/SVG/1.1/DTD/svg11.dtd">
<!-- Generated by graphviz version 2.38.0 (20140413.2041)
 -->
<!-- Title: mappel::Estimator::get_debug_stats Pages: 1 -->
<svg width="247pt" height="84pt"
 viewBox="0.00 0.00 247.00 84.00" xmlns="http://www.w3.org/2000/svg" xmlns:xlink="http://www.w3.org/1999/xlink">
<g id="graph0" class="graph" transform="scale(1 1) rotate(0) translate(4 80)">
<title>mappel::Estimator::get_debug_stats</title>
<polygon fill="white" stroke="none" points="-4,4 -4,-80 243,-80 243,4 -4,4"/>
<!-- Node1 -->
<g id="node1" class="node"><title>Node1</title>
<polygon fill="#bfbfbf" stroke="black" points="0,-23.5 0,-51.5 95,-51.5 95,-23.5 0,-23.5"/>
<text text-anchor="start" x="8" y="-40.3" font-family="Helvetica,sans-Serif" font-size="9.00">mappel::Estimator::</text>
<text text-anchor="middle" x="47.5" y="-30.3" font-family="Helvetica,sans-Serif" font-size="9.00">get_debug_stats</text>
</g>
<!-- Node2 -->
<g id="node2" class="node"><title>Node2</title>
<g id="a_node2"><a xlink:href="classmappel_1_1CGaussMLE.html#a97e3a62d35af1279dc29a8b2bfbf8b32" target="_top" xlink:title="mappel::CGaussMLE::\lCGaussMLE">
<polygon fill="white" stroke="black" points="131,-47.5 131,-75.5 239,-75.5 239,-47.5 131,-47.5"/>
<text text-anchor="start" x="139" y="-64.3" font-family="Helvetica,sans-Serif" font-size="9.00">mappel::CGaussMLE::</text>
<text text-anchor="middle" x="185" y="-54.3" font-family="Helvetica,sans-Serif" font-size="9.00">CGaussMLE</text>
</a>
</g>
</g>
<!-- Node1&#45;&gt;Node2 -->
<g id="edge1" class="edge"><title>Node1&#45;&gt;Node2</title>
<path fill="none" stroke="midnightblue" d="M105,-47.5074C113.531,-49.0184 122.307,-50.5728 130.766,-52.0711"/>
<polygon fill="midnightblue" stroke="midnightblue" points="105.589,-44.0572 95.1314,-45.7594 104.368,-50.95 105.589,-44.0572"/>
</g>
<!-- Node3 -->
<g id="node3" class="node"><title>Node3</title>
<g id="a_node3"><a xlink:href="classmappel_1_1Estimator.html#a629823fa91d4b461b2b1f607d588e558" target="_top" xlink:title="mappel::Estimator::\l~Estimator">
<polygon fill="white" stroke="black" points="137.5,-0.5 137.5,-28.5 232.5,-28.5 232.5,-0.5 137.5,-0.5"/>
<text text-anchor="start" x="145.5" y="-17.3" font-family="Helvetica,sans-Serif" font-size="9.00">mappel::Estimator::</text>
<text text-anchor="middle" x="185" y="-7.3" font-family="Helvetica,sans-Serif" font-size="9.00">~Estimator</text>
</a>
</g>
</g>
<!-- Node1&#45;&gt;Node3 -->
<g id="edge2" class="edge"><title>Node1&#45;&gt;Node3</title>
<path fill="none" stroke="midnightblue" d="M105.219,-27.8724C115.898,-26.0598 126.952,-24.1834 137.283,-22.4299"/>
<polygon fill="midnightblue" stroke="midnightblue" points="104.405,-24.4605 95.1314,-29.5847 105.576,-31.3618 104.405,-24.4605"/>
</g>
</g>
</svg>
