<?xml version="1.0" encoding="UTF-8" standalone="no"?>
<!DOCTYPE svg PUBLIC "-//W3C//DTD SVG 1.1//EN"
 "http://www.w3.org/Graphics/SVG/1.1/DTD/svg11.dtd">
<!-- Generated by graphviz version 2.38.0 (20140413.2041)
 -->
<!-- Title: mappel::Gauss2DsModel::Gauss2DsModel Pages: 1 -->
<svg width="644pt" height="255pt"
 viewBox="0.00 0.00 644.00 255.00" xmlns="http://www.w3.org/2000/svg" xmlns:xlink="http://www.w3.org/1999/xlink">
<g id="graph0" class="graph" transform="scale(1 1) rotate(0) translate(4 251)">
<title>mappel::Gauss2DsModel::Gauss2DsModel</title>
<polygon fill="white" stroke="none" points="-4,4 -4,-251 640,-251 640,4 -4,4"/>
<!-- Node1 -->
<g id="node1" class="node"><title>Node1</title>
<polygon fill="#bfbfbf" stroke="black" points="0,-140.5 0,-168.5 120,-168.5 120,-140.5 0,-140.5"/>
<text text-anchor="start" x="8" y="-157.3" font-family="Helvetica,sans-Serif" font-size="9.00">mappel::Gauss2DsModel</text>
<text text-anchor="middle" x="60" y="-147.3" font-family="Helvetica,sans-Serif" font-size="9.00">::Gauss2DsModel</text>
</g>
<!-- Node2 -->
<g id="node2" class="node"><title>Node2</title>
<g id="a_node2"><a xlink:href="classmappel_1_1Gauss2DsModel.html#a11f03c648095b6d7dd5c38c3a5eca2dc" target="_top" xlink:title="mappel::Gauss2DsModel\l::get_max_sigma">
<polygon fill="white" stroke="black" points="156,-167.5 156,-195.5 276,-195.5 276,-167.5 156,-167.5"/>
<text text-anchor="start" x="164" y="-184.3" font-family="Helvetica,sans-Serif" font-size="9.00">mappel::Gauss2DsModel</text>
<text text-anchor="middle" x="216" y="-174.3" font-family="Helvetica,sans-Serif" font-size="9.00">::get_max_sigma</text>
</a>
</g>
</g>
<!-- Node1&#45;&gt;Node2 -->
<g id="edge1" class="edge"><title>Node1&#45;&gt;Node2</title>
<path fill="none" stroke="midnightblue" d="M120.1,-164.862C128.513,-166.337 137.228,-167.865 145.813,-169.37"/>
<polygon fill="midnightblue" stroke="midnightblue" points="145.35,-172.842 155.804,-171.121 146.558,-165.947 145.35,-172.842"/>
</g>
<!-- Node6 -->
<g id="node6" class="node"><title>Node6</title>
<g id="a_node6"><a xlink:href="classmappel_1_1Gauss2DsModel.html#a199ce5ccefd43d8bf4b6d0b076fca918" target="_top" xlink:title="mappel::Gauss2DsModel\l::make_internal_1Dsum\l_estimator">
<polygon fill="white" stroke="black" points="156,-109.5 156,-147.5 276,-147.5 276,-109.5 156,-109.5"/>
<text text-anchor="start" x="164" y="-136.3" font-family="Helvetica,sans-Serif" font-size="9.00">mappel::Gauss2DsModel</text>
<text text-anchor="start" x="164" y="-126.3" font-family="Helvetica,sans-Serif" font-size="9.00">::make_internal_1Dsum</text>
<text text-anchor="middle" x="216" y="-116.3" font-family="Helvetica,sans-Serif" font-size="9.00">_estimator</text>
</a>
</g>
</g>
<!-- Node1&#45;&gt;Node6 -->
<g id="edge5" class="edge"><title>Node1&#45;&gt;Node6</title>
<path fill="none" stroke="midnightblue" d="M120.1,-144.522C128.513,-143.102 137.228,-141.63 145.813,-140.181"/>
<polygon fill="midnightblue" stroke="midnightblue" points="146.526,-143.61 155.804,-138.494 145.361,-136.708 146.526,-143.61"/>
</g>
<!-- Node3 -->
<g id="node3" class="node"><title>Node3</title>
<g id="a_node3"><a xlink:href="classmappel_1_1Gauss2DsModel.html#a46da2752c2d1ca376b72d910818e47ae" target="_top" xlink:title="mappel::Gauss2DsModel\l::get_max_sigma_ratio">
<polygon fill="white" stroke="black" points="321.5,-216.5 321.5,-244.5 441.5,-244.5 441.5,-216.5 321.5,-216.5"/>
<text text-anchor="start" x="329.5" y="-233.3" font-family="Helvetica,sans-Serif" font-size="9.00">mappel::Gauss2DsModel</text>
<text text-anchor="middle" x="381.5" y="-223.3" font-family="Helvetica,sans-Serif" font-size="9.00">::get_max_sigma_ratio</text>
</a>
</g>
</g>
<!-- Node2&#45;&gt;Node3 -->
<g id="edge2" class="edge"><title>Node2&#45;&gt;Node3</title>
<path fill="none" stroke="midnightblue" d="M263.853,-195.541C282.581,-201.154 304.317,-207.668 323.915,-213.542"/>
<polygon fill="midnightblue" stroke="midnightblue" points="323.057,-216.938 333.641,-216.457 325.066,-210.233 323.057,-216.938"/>
</g>
<!-- Node5 -->
<g id="node5" class="node"><title>Node5</title>
<g id="a_node5"><a xlink:href="classmappel_1_1Gauss2DsModel.html#af93a5f984a97e23ae1d371c980e48a41" target="_top" xlink:title="mappel::Gauss2DsModel\l::get_min_sigma">
<polygon fill="white" stroke="black" points="321.5,-167.5 321.5,-195.5 441.5,-195.5 441.5,-167.5 321.5,-167.5"/>
<text text-anchor="start" x="329.5" y="-184.3" font-family="Helvetica,sans-Serif" font-size="9.00">mappel::Gauss2DsModel</text>
<text text-anchor="middle" x="381.5" y="-174.3" font-family="Helvetica,sans-Serif" font-size="9.00">::get_min_sigma</text>
</a>
</g>
</g>
<!-- Node2&#45;&gt;Node5 -->
<g id="edge4" class="edge"><title>Node2&#45;&gt;Node5</title>
<path fill="none" stroke="midnightblue" d="M276.027,-181.5C287.417,-181.5 299.447,-181.5 311.131,-181.5"/>
<polygon fill="midnightblue" stroke="midnightblue" points="311.285,-185 321.285,-181.5 311.285,-178 311.285,-185"/>
</g>
<!-- Node4 -->
<g id="node4" class="node"><title>Node4</title>
<g id="a_node4"><a xlink:href="classmappel_1_1PointEmitterModel.html#a0dfb473c48d177a4540d328abb03cd55" target="_top" xlink:title="mappel::PointEmitterModel\l::get_ubound">
<polygon fill="white" stroke="black" points="498,-218.5 498,-246.5 625,-246.5 625,-218.5 498,-218.5"/>
<text text-anchor="start" x="506" y="-235.3" font-family="Helvetica,sans-Serif" font-size="9.00">mappel::PointEmitterModel</text>
<text text-anchor="middle" x="561.5" y="-225.3" font-family="Helvetica,sans-Serif" font-size="9.00">::get_ubound</text>
</a>
</g>
</g>
<!-- Node3&#45;&gt;Node4 -->
<g id="edge3" class="edge"><title>Node3&#45;&gt;Node4</title>
<path fill="none" stroke="midnightblue" d="M441.771,-231.166C456.398,-231.33 472.235,-231.508 487.431,-231.679"/>
<polygon fill="midnightblue" stroke="midnightblue" points="487.787,-235.183 497.826,-231.796 487.866,-228.184 487.787,-235.183"/>
</g>
<!-- Node7 -->
<g id="node7" class="node"><title>Node7</title>
<g id="a_node7"><a xlink:href="classmappel_1_1Gauss1DsModel.html#a2022044169be5c62bba0db37c2352792" target="_top" xlink:title="mappel::Gauss1DsModel\l::make_prior_beta_position">
<polygon fill="white" stroke="black" points="317.5,-64.5 317.5,-92.5 445.5,-92.5 445.5,-64.5 317.5,-64.5"/>
<text text-anchor="start" x="325.5" y="-81.3" font-family="Helvetica,sans-Serif" font-size="9.00">mappel::Gauss1DsModel</text>
<text text-anchor="middle" x="381.5" y="-71.3" font-family="Helvetica,sans-Serif" font-size="9.00">::make_prior_beta_position</text>
</a>
</g>
</g>
<!-- Node6&#45;&gt;Node7 -->
<g id="edge6" class="edge"><title>Node6&#45;&gt;Node7</title>
<path fill="none" stroke="midnightblue" d="M276.027,-110.449C292.01,-105.561 309.252,-100.288 325.032,-95.4628"/>
<polygon fill="midnightblue" stroke="midnightblue" points="326.104,-98.7949 334.644,-92.5234 324.057,-92.1009 326.104,-98.7949"/>
</g>
<!-- Node11 -->
<g id="node11" class="node"><title>Node11</title>
<g id="a_node11"><a xlink:href="classmappel_1_1Gauss1DsModel.html#a80bebfae37071515edfde5cd41ae375d" target="_top" xlink:title="mappel::Gauss1DsModel\l::make_prior_normal_position">
<polygon fill="white" stroke="black" points="312,-114.5 312,-142.5 451,-142.5 451,-114.5 312,-114.5"/>
<text text-anchor="start" x="320" y="-131.3" font-family="Helvetica,sans-Serif" font-size="9.00">mappel::Gauss1DsModel</text>
<text text-anchor="middle" x="381.5" y="-121.3" font-family="Helvetica,sans-Serif" font-size="9.00">::make_prior_normal_position</text>
</a>
</g>
</g>
<!-- Node6&#45;&gt;Node11 -->
<g id="edge10" class="edge"><title>Node6&#45;&gt;Node11</title>
<path fill="none" stroke="midnightblue" d="M276.027,-128.5C284.377,-128.5 293.07,-128.5 301.718,-128.5"/>
<polygon fill="midnightblue" stroke="midnightblue" points="301.828,-132 311.828,-128.5 301.828,-125 301.828,-132"/>
</g>
<!-- Node8 -->
<g id="node8" class="node"><title>Node8</title>
<g id="a_node8"><a xlink:href="classmappel_1_1PointEmitterModel.html#a4517e887a22007bd2e03650dcb853c92" target="_top" xlink:title="mappel::PointEmitterModel\l::make_prior_component\l_intensity">
<polygon fill="white" stroke="black" points="498,-57.5 498,-95.5 625,-95.5 625,-57.5 498,-57.5"/>
<text text-anchor="start" x="506" y="-84.3" font-family="Helvetica,sans-Serif" font-size="9.00">mappel::PointEmitterModel</text>
<text text-anchor="start" x="506" y="-74.3" font-family="Helvetica,sans-Serif" font-size="9.00">::make_prior_component</text>
<text text-anchor="middle" x="561.5" y="-64.3" font-family="Helvetica,sans-Serif" font-size="9.00">_intensity</text>
</a>
</g>
</g>
<!-- Node7&#45;&gt;Node8 -->
<g id="edge7" class="edge"><title>Node7&#45;&gt;Node8</title>
<path fill="none" stroke="midnightblue" d="M445.507,-77.7921C459.188,-77.6383 473.767,-77.4745 487.788,-77.317"/>
<polygon fill="midnightblue" stroke="midnightblue" points="487.918,-80.8158 497.878,-77.2036 487.839,-73.8163 487.918,-80.8158"/>
</g>
<!-- Node9 -->
<g id="node9" class="node"><title>Node9</title>
<g id="a_node9"><a xlink:href="classmappel_1_1PointEmitterModel.html#ad4d563dd11df8c3daf83890374807185" target="_top" xlink:title="mappel::PointEmitterModel\l::make_prior_component\l_position_beta">
<polygon fill="white" stroke="black" points="498,-0.5 498,-38.5 625,-38.5 625,-0.5 498,-0.5"/>
<text text-anchor="start" x="506" y="-27.3" font-family="Helvetica,sans-Serif" font-size="9.00">mappel::PointEmitterModel</text>
<text text-anchor="start" x="506" y="-17.3" font-family="Helvetica,sans-Serif" font-size="9.00">::make_prior_component</text>
<text text-anchor="middle" x="561.5" y="-7.3" font-family="Helvetica,sans-Serif" font-size="9.00">_position_beta</text>
</a>
</g>
</g>
<!-- Node7&#45;&gt;Node9 -->
<g id="edge8" class="edge"><title>Node7&#45;&gt;Node9</title>
<path fill="none" stroke="midnightblue" d="M425.135,-64.368C445.564,-57.5967 470.515,-49.3266 493.404,-41.7396"/>
<polygon fill="midnightblue" stroke="midnightblue" points="494.678,-45.0049 503.068,-38.5363 492.475,-38.3604 494.678,-45.0049"/>
</g>
<!-- Node10 -->
<g id="node10" class="node"><title>Node10</title>
<g id="a_node10"><a xlink:href="classmappel_1_1PointEmitterModel.html#a6fa9641db2d58329c5225e76427e3219" target="_top" xlink:title="mappel::PointEmitterModel\l::make_prior_component_sigma">
<polygon fill="white" stroke="black" points="487,-114.5 487,-142.5 636,-142.5 636,-114.5 487,-114.5"/>
<text text-anchor="start" x="495" y="-131.3" font-family="Helvetica,sans-Serif" font-size="9.00">mappel::PointEmitterModel</text>
<text text-anchor="middle" x="561.5" y="-121.3" font-family="Helvetica,sans-Serif" font-size="9.00">::make_prior_component_sigma</text>
</a>
</g>
</g>
<!-- Node7&#45;&gt;Node10 -->
<g id="edge9" class="edge"><title>Node7&#45;&gt;Node10</title>
<path fill="none" stroke="midnightblue" d="M432.557,-92.5608C453.785,-98.524 478.696,-105.521 500.868,-111.75"/>
<polygon fill="midnightblue" stroke="midnightblue" points="499.937,-115.123 510.511,-114.458 501.83,-108.384 499.937,-115.123"/>
</g>
<!-- Node11&#45;&gt;Node8 -->
<g id="edge11" class="edge"><title>Node11&#45;&gt;Node8</title>
<path fill="none" stroke="midnightblue" d="M430.669,-114.428C448.373,-109.256 468.829,-103.28 488.192,-97.6238"/>
<polygon fill="midnightblue" stroke="midnightblue" points="489.276,-100.953 497.893,-94.7895 487.313,-94.2342 489.276,-100.953"/>
</g>
<!-- Node11&#45;&gt;Node10 -->
<g id="edge13" class="edge"><title>Node11&#45;&gt;Node10</title>
<path fill="none" stroke="midnightblue" d="M451.065,-128.5C459.512,-128.5 468.218,-128.5 476.857,-128.5"/>
<polygon fill="midnightblue" stroke="midnightblue" points="476.948,-132 486.948,-128.5 476.948,-125 476.948,-132"/>
</g>
<!-- Node12 -->
<g id="node12" class="node"><title>Node12</title>
<g id="a_node12"><a xlink:href="classmappel_1_1PointEmitterModel.html#ab99350cf74097c558f7a93b79e7a44c3" target="_top" xlink:title="mappel::PointEmitterModel\l::make_prior_component\l_position_normal">
<polygon fill="white" stroke="black" points="498,-161.5 498,-199.5 625,-199.5 625,-161.5 498,-161.5"/>
<text text-anchor="start" x="506" y="-188.3" font-family="Helvetica,sans-Serif" font-size="9.00">mappel::PointEmitterModel</text>
<text text-anchor="start" x="506" y="-178.3" font-family="Helvetica,sans-Serif" font-size="9.00">::make_prior_component</text>
<text text-anchor="middle" x="561.5" y="-168.3" font-family="Helvetica,sans-Serif" font-size="9.00">_position_normal</text>
</a>
</g>
</g>
<!-- Node11&#45;&gt;Node12 -->
<g id="edge12" class="edge"><title>Node11&#45;&gt;Node12</title>
<path fill="none" stroke="midnightblue" d="M430.669,-142.572C448.373,-147.744 468.829,-153.72 488.192,-159.376"/>
<polygon fill="midnightblue" stroke="midnightblue" points="487.313,-162.766 497.893,-162.21 489.276,-156.047 487.313,-162.766"/>
</g>
</g>
</svg>
