<?xml version="1.0" encoding="UTF-8" standalone="no"?>
<!DOCTYPE svg PUBLIC "-//W3C//DTD SVG 1.1//EN"
 "http://www.w3.org/Graphics/SVG/1.1/DTD/svg11.dtd">
<!-- Generated by graphviz version 2.38.0 (20140413.2041)
 -->
<!-- Title: mappel::Gauss2DModel::update_internal_1Dsum_estimators Pages: 1 -->
<svg width="280pt" height="141pt"
 viewBox="0.00 0.00 280.00 141.00" xmlns="http://www.w3.org/2000/svg" xmlns:xlink="http://www.w3.org/1999/xlink">
<g id="graph0" class="graph" transform="scale(1 1) rotate(0) translate(4 137)">
<title>mappel::Gauss2DModel::update_internal_1Dsum_estimators</title>
<polygon fill="white" stroke="none" points="-4,4 -4,-137 276,-137 276,4 -4,4"/>
<!-- Node1 -->
<g id="node1" class="node"><title>Node1</title>
<polygon fill="#bfbfbf" stroke="black" points="0,-42.5 0,-80.5 120,-80.5 120,-42.5 0,-42.5"/>
<text text-anchor="start" x="8" y="-69.3" font-family="Helvetica,sans-Serif" font-size="9.00">mappel::Gauss2DModel</text>
<text text-anchor="start" x="8" y="-59.3" font-family="Helvetica,sans-Serif" font-size="9.00">::update_internal_1Dsum</text>
<text text-anchor="middle" x="60" y="-49.3" font-family="Helvetica,sans-Serif" font-size="9.00">_estimators</text>
</g>
<!-- Node2 -->
<g id="node2" class="node"><title>Node2</title>
<g id="a_node2"><a xlink:href="classmappel_1_1Gauss2DModel.html#a07e9c13f8a164f26f337fcc0c2f70374" target="_top" xlink:title="mappel::Gauss2DModel\l::debug_internal_sum\l_model_y">
<polygon fill="white" stroke="black" points="156,-94.5 156,-132.5 272,-132.5 272,-94.5 156,-94.5"/>
<text text-anchor="start" x="164" y="-121.3" font-family="Helvetica,sans-Serif" font-size="9.00">mappel::Gauss2DModel</text>
<text text-anchor="start" x="164" y="-111.3" font-family="Helvetica,sans-Serif" font-size="9.00">::debug_internal_sum</text>
<text text-anchor="middle" x="214" y="-101.3" font-family="Helvetica,sans-Serif" font-size="9.00">_model_y</text>
</a>
</g>
</g>
<!-- Node1&#45;&gt;Node2 -->
<g id="edge1" class="edge"><title>Node1&#45;&gt;Node2</title>
<path fill="none" stroke="midnightblue" d="M126.47,-83.8975C136.731,-87.4081 147.254,-91.0081 157.271,-94.4347"/>
<polygon fill="midnightblue" stroke="midnightblue" points="127.331,-80.493 116.736,-80.5676 125.065,-87.1161 127.331,-80.493"/>
</g>
<!-- Node3 -->
<g id="node3" class="node"><title>Node3</title>
<g id="a_node3"><a xlink:href="classmappel_1_1Gauss2DModel.html#a7041d1f38f1141773b046489ce6e6b11" target="_top" xlink:title="mappel::Gauss2DModel\l::set_hyperparams">
<polygon fill="white" stroke="black" points="156,-47.5 156,-75.5 272,-75.5 272,-47.5 156,-47.5"/>
<text text-anchor="start" x="164" y="-64.3" font-family="Helvetica,sans-Serif" font-size="9.00">mappel::Gauss2DModel</text>
<text text-anchor="middle" x="214" y="-54.3" font-family="Helvetica,sans-Serif" font-size="9.00">::set_hyperparams</text>
</a>
</g>
</g>
<!-- Node1&#45;&gt;Node3 -->
<g id="edge2" class="edge"><title>Node1&#45;&gt;Node3</title>
<path fill="none" stroke="midnightblue" d="M130.434,-61.5C138.889,-61.5 147.454,-61.5 155.705,-61.5"/>
<polygon fill="midnightblue" stroke="midnightblue" points="130.202,-58.0001 120.202,-61.5 130.202,-65.0001 130.202,-58.0001"/>
</g>
<!-- Node4 -->
<g id="node4" class="node"><title>Node4</title>
<g id="a_node4"><a xlink:href="classmappel_1_1Gauss2DModel.html#a41a5b18b3f3779562c0dbd19e1b6e29b" target="_top" xlink:title="mappel::Gauss2DModel\l::set_prior">
<polygon fill="white" stroke="black" points="156,-0.5 156,-28.5 272,-28.5 272,-0.5 156,-0.5"/>
<text text-anchor="start" x="164" y="-17.3" font-family="Helvetica,sans-Serif" font-size="9.00">mappel::Gauss2DModel</text>
<text text-anchor="middle" x="214" y="-7.3" font-family="Helvetica,sans-Serif" font-size="9.00">::set_prior</text>
</a>
</g>
</g>
<!-- Node1&#45;&gt;Node4 -->
<g id="edge3" class="edge"><title>Node1&#45;&gt;Node4</title>
<path fill="none" stroke="midnightblue" d="M129.852,-40.2101C142.571,-36.2773 155.56,-32.2611 167.376,-28.6075"/>
<polygon fill="midnightblue" stroke="midnightblue" points="128.722,-36.896 120.202,-43.194 130.79,-43.5836 128.722,-36.896"/>
</g>
</g>
</svg>
