<?xml version="1.0" encoding="UTF-8" standalone="no"?>
<!DOCTYPE svg PUBLIC "-//W3C//DTD SVG 1.1//EN"
 "http://www.w3.org/Graphics/SVG/1.1/DTD/svg11.dtd">
<!-- Generated by graphviz version 2.38.0 (20140413.2041)
 -->
<!-- Title: mappel::Gauss1DsModel::Stencil::sigma Pages: 1 -->
<svg width="458pt" height="264pt"
 viewBox="0.00 0.00 458.00 264.00" xmlns="http://www.w3.org/2000/svg" xmlns:xlink="http://www.w3.org/1999/xlink">
<g id="graph0" class="graph" transform="scale(1 1) rotate(0) translate(4 260)">
<title>mappel::Gauss1DsModel::Stencil::sigma</title>
<polygon fill="white" stroke="none" points="-4,4 -4,-260 454,-260 454,4 -4,4"/>
<!-- Node1 -->
<g id="node1" class="node"><title>Node1</title>
<polygon fill="#bfbfbf" stroke="black" points="0,-117.5 0,-145.5 120,-145.5 120,-117.5 0,-117.5"/>
<text text-anchor="start" x="8" y="-134.3" font-family="Helvetica,sans-Serif" font-size="9.00">mappel::Gauss1DsModel</text>
<text text-anchor="middle" x="60" y="-124.3" font-family="Helvetica,sans-Serif" font-size="9.00">::Stencil::sigma</text>
</g>
<!-- Node2 -->
<g id="node2" class="node"><title>Node2</title>
<g id="a_node2"><a xlink:href="classmappel_1_1Gauss1DsModel_1_1Stencil.html#a9e8b6059b84e28bea0ba3496bc95e7ce" target="_top" xlink:title="mappel::Gauss1DsModel\l::Stencil::compute_derivatives">
<polygon fill="white" stroke="black" points="156,-227.5 156,-255.5 294,-255.5 294,-227.5 156,-227.5"/>
<text text-anchor="start" x="164" y="-244.3" font-family="Helvetica,sans-Serif" font-size="9.00">mappel::Gauss1DsModel</text>
<text text-anchor="middle" x="225" y="-234.3" font-family="Helvetica,sans-Serif" font-size="9.00">::Stencil::compute_derivatives</text>
</a>
</g>
</g>
<!-- Node1&#45;&gt;Node2 -->
<g id="edge1" class="edge"><title>Node1&#45;&gt;Node2</title>
<path fill="none" stroke="midnightblue" d="M81.9756,-152.68C100.31,-170.348 128.269,-195.323 156,-212.5 165.056,-218.109 175.388,-223.13 185.216,-227.354"/>
<polygon fill="midnightblue" stroke="midnightblue" points="84.3323,-150.089 74.7359,-145.599 79.4379,-155.093 84.3323,-150.089"/>
</g>
<!-- Node3 -->
<g id="node3" class="node"><title>Node3</title>
<g id="a_node3"><a xlink:href="classmappel_1_1Gauss1DsModel_1_1Stencil.html#ae4f12261a80d8ed1a2d3652c0e7b629b" target="_top" xlink:title="mappel::Gauss1DsModel\l::Stencil::Stencil">
<polygon fill="white" stroke="black" points="330,-205.5 330,-233.5 450,-233.5 450,-205.5 330,-205.5"/>
<text text-anchor="start" x="338" y="-222.3" font-family="Helvetica,sans-Serif" font-size="9.00">mappel::Gauss1DsModel</text>
<text text-anchor="middle" x="390" y="-212.3" font-family="Helvetica,sans-Serif" font-size="9.00">::Stencil::Stencil</text>
</a>
</g>
</g>
<!-- Node1&#45;&gt;Node3 -->
<g id="edge7" class="edge"><title>Node1&#45;&gt;Node3</title>
<path fill="none" stroke="midnightblue" d="M92.8618,-150.611C110.836,-160.61 134.035,-172.247 156,-179.5 213.486,-198.482 282.078,-208.869 329.895,-214.264"/>
<polygon fill="midnightblue" stroke="midnightblue" points="94.397,-147.458 83.973,-145.563 90.9403,-153.545 94.397,-147.458"/>
</g>
<!-- Node4 -->
<g id="node4" class="node"><title>Node4</title>
<g id="a_node4"><a xlink:href="classmappel_1_1Gauss1DsModel.html#ad987432d37b221f7fa01605d1bef0bbe" target="_top" xlink:title="mappel::Gauss1DsModel\l::initial_theta_estimate">
<polygon fill="white" stroke="black" points="165,-141.5 165,-169.5 285,-169.5 285,-141.5 165,-141.5"/>
<text text-anchor="start" x="173" y="-158.3" font-family="Helvetica,sans-Serif" font-size="9.00">mappel::Gauss1DsModel</text>
<text text-anchor="middle" x="225" y="-148.3" font-family="Helvetica,sans-Serif" font-size="9.00">::initial_theta_estimate</text>
</a>
</g>
</g>
<!-- Node1&#45;&gt;Node4 -->
<g id="edge3" class="edge"><title>Node1&#45;&gt;Node4</title>
<path fill="none" stroke="midnightblue" d="M130.277,-141.7C141.745,-143.389 153.544,-145.126 164.736,-146.774"/>
<polygon fill="midnightblue" stroke="midnightblue" points="130.711,-138.227 120.308,-140.232 129.691,-145.152 130.711,-138.227"/>
</g>
<!-- Node5 -->
<g id="node5" class="node"><title>Node5</title>
<g id="a_node5"><a xlink:href="classmappel_1_1Gauss1DsModel.html#a1e60df620a31b1fa5619c5aca8d082ad" target="_top" xlink:title="mappel::Gauss1DsModel\l::pixel_grad2">
<polygon fill="white" stroke="black" points="165,-94.5 165,-122.5 285,-122.5 285,-94.5 165,-94.5"/>
<text text-anchor="start" x="173" y="-111.3" font-family="Helvetica,sans-Serif" font-size="9.00">mappel::Gauss1DsModel</text>
<text text-anchor="middle" x="225" y="-101.3" font-family="Helvetica,sans-Serif" font-size="9.00">::pixel_grad2</text>
</a>
</g>
</g>
<!-- Node1&#45;&gt;Node5 -->
<g id="edge4" class="edge"><title>Node1&#45;&gt;Node5</title>
<path fill="none" stroke="midnightblue" d="M130.277,-121.725C141.745,-120.106 153.544,-118.442 164.736,-116.862"/>
<polygon fill="midnightblue" stroke="midnightblue" points="129.721,-118.268 120.308,-123.131 130.699,-125.2 129.721,-118.268"/>
</g>
<!-- Node6 -->
<g id="node6" class="node"><title>Node6</title>
<g id="a_node6"><a xlink:href="classmappel_1_1Gauss1DsModel.html#ae28133465cec4427bdc9ed769d8a324a" target="_top" xlink:title="mappel::Gauss1DsModel\l::pixel_hess">
<polygon fill="white" stroke="black" points="165,-47.5 165,-75.5 285,-75.5 285,-47.5 165,-47.5"/>
<text text-anchor="start" x="173" y="-64.3" font-family="Helvetica,sans-Serif" font-size="9.00">mappel::Gauss1DsModel</text>
<text text-anchor="middle" x="225" y="-54.3" font-family="Helvetica,sans-Serif" font-size="9.00">::pixel_hess</text>
</a>
</g>
</g>
<!-- Node1&#45;&gt;Node6 -->
<g id="edge5" class="edge"><title>Node1&#45;&gt;Node6</title>
<path fill="none" stroke="midnightblue" d="M97.36,-112.715C114.875,-103.971 136.307,-93.7129 156,-85.5 164.204,-82.0786 173.088,-78.709 181.643,-75.6255"/>
<polygon fill="midnightblue" stroke="midnightblue" points="95.4255,-109.77 88.0683,-117.394 98.574,-116.022 95.4255,-109.77"/>
</g>
<!-- Node7 -->
<g id="node7" class="node"><title>Node7</title>
<g id="a_node7"><a xlink:href="classmappel_1_1Gauss1DsModel.html#ad7909d3b050709cd2a6d93b4114c5ff8" target="_top" xlink:title="mappel::Gauss1DsModel\l::pixel_hess_update">
<polygon fill="white" stroke="black" points="165,-0.5 165,-28.5 285,-28.5 285,-0.5 165,-0.5"/>
<text text-anchor="start" x="173" y="-17.3" font-family="Helvetica,sans-Serif" font-size="9.00">mappel::Gauss1DsModel</text>
<text text-anchor="middle" x="225" y="-7.3" font-family="Helvetica,sans-Serif" font-size="9.00">::pixel_hess_update</text>
</a>
</g>
</g>
<!-- Node1&#45;&gt;Node7 -->
<g id="edge6" class="edge"><title>Node1&#45;&gt;Node7</title>
<path fill="none" stroke="midnightblue" d="M78.49,-109.533C96.1045,-88.6952 125.041,-57.7818 156,-38.5 162.057,-34.7275 168.788,-31.4451 175.593,-28.6216"/>
<polygon fill="midnightblue" stroke="midnightblue" points="75.7823,-107.316 72.0957,-117.248 81.1718,-111.782 75.7823,-107.316"/>
</g>
<!-- Node2&#45;&gt;Node3 -->
<g id="edge2" class="edge"><title>Node2&#45;&gt;Node3</title>
<path fill="none" stroke="midnightblue" d="M304.262,-230.937C312.886,-229.773 321.56,-228.602 329.894,-227.478"/>
<polygon fill="midnightblue" stroke="midnightblue" points="303.624,-227.491 294.182,-232.297 304.561,-234.428 303.624,-227.491"/>
</g>
</g>
</svg>
