<?xml version="1.0" encoding="UTF-8" standalone="no"?>
<!DOCTYPE svg PUBLIC "-//W3C//DTD SVG 1.1//EN"
 "http://www.w3.org/Graphics/SVG/1.1/DTD/svg11.dtd">
<!-- Generated by graphviz version 2.38.0 (20140413.2041)
 -->
<!-- Title: mappel::Estimator::compute_estimate Pages: 1 -->
<svg width="327pt" height="215pt"
 viewBox="0.00 0.00 327.00 215.00" xmlns="http://www.w3.org/2000/svg" xmlns:xlink="http://www.w3.org/1999/xlink">
<g id="graph0" class="graph" transform="scale(1 1) rotate(0) translate(4 211)">
<title>mappel::Estimator::compute_estimate</title>
<polygon fill="white" stroke="none" points="-4,4 -4,-211 323,-211 323,4 -4,4"/>
<!-- Node1 -->
<g id="node1" class="node"><title>Node1</title>
<polygon fill="#bfbfbf" stroke="black" points="0,-89.5 0,-117.5 95,-117.5 95,-89.5 0,-89.5"/>
<text text-anchor="start" x="8" y="-106.3" font-family="Helvetica,sans-Serif" font-size="9.00">mappel::Estimator::</text>
<text text-anchor="middle" x="47.5" y="-96.3" font-family="Helvetica,sans-Serif" font-size="9.00">compute_estimate</text>
</g>
<!-- Node2 -->
<g id="node2" class="node"><title>Node2</title>
<g id="a_node2"><a xlink:href="classmappel_1_1HeuristicEstimator.html#a6c9efb24639627b3f3b3eb151e02d43b" target="_top" xlink:title="mappel::HeuristicEstimator\l::name">
<polygon fill="white" stroke="black" points="162,-178.5 162,-206.5 288,-206.5 288,-178.5 162,-178.5"/>
<text text-anchor="start" x="170" y="-195.3" font-family="Helvetica,sans-Serif" font-size="9.00">mappel::HeuristicEstimator</text>
<text text-anchor="middle" x="225" y="-185.3" font-family="Helvetica,sans-Serif" font-size="9.00">::name</text>
</a>
</g>
</g>
<!-- Node1&#45;&gt;Node2 -->
<g id="edge1" class="edge"><title>Node1&#45;&gt;Node2</title>
<path fill="none" stroke="midnightblue" d="M69.6127,-124.712C85.296,-139.324 107.891,-158.091 131,-169.5 140.545,-174.212 151.13,-178.006 161.638,-181.046"/>
<polygon fill="midnightblue" stroke="midnightblue" points="71.7236,-121.888 62.0752,-117.511 66.8881,-126.95 71.7236,-121.888"/>
</g>
<!-- Node3 -->
<g id="node3" class="node"><title>Node3</title>
<g id="a_node3"><a xlink:href="classmappel_1_1CGaussHeuristicEstimator.html#aaff25d03e3c0f6f41d72f161c4d2f78a" target="_top" xlink:title="mappel::CGaussHeuristicEstimator\l::name">
<polygon fill="white" stroke="black" points="145.5,-131.5 145.5,-159.5 304.5,-159.5 304.5,-131.5 145.5,-131.5"/>
<text text-anchor="start" x="153.5" y="-148.3" font-family="Helvetica,sans-Serif" font-size="9.00">mappel::CGaussHeuristicEstimator</text>
<text text-anchor="middle" x="225" y="-138.3" font-family="Helvetica,sans-Serif" font-size="9.00">::name</text>
</a>
</g>
</g>
<!-- Node1&#45;&gt;Node3 -->
<g id="edge2" class="edge"><title>Node1&#45;&gt;Node3</title>
<path fill="none" stroke="midnightblue" d="M104.916,-117.001C124.194,-121.615 145.795,-126.784 165.252,-131.441"/>
<polygon fill="midnightblue" stroke="midnightblue" points="105.61,-113.569 95.07,-114.645 103.981,-120.376 105.61,-113.569"/>
</g>
<!-- Node4 -->
<g id="node4" class="node"><title>Node4</title>
<g id="a_node4"><a xlink:href="classmappel_1_1CGaussMLE.html#af18f123ff581a8ef7332c38d66c6bd42" target="_top" xlink:title="mappel::CGaussMLE::name">
<polygon fill="white" stroke="black" points="159.5,-94.5 159.5,-112.5 290.5,-112.5 290.5,-94.5 159.5,-94.5"/>
<text text-anchor="middle" x="225" y="-101.3" font-family="Helvetica,sans-Serif" font-size="9.00">mappel::CGaussMLE::name</text>
</a>
</g>
</g>
<!-- Node1&#45;&gt;Node4 -->
<g id="edge3" class="edge"><title>Node1&#45;&gt;Node4</title>
<path fill="none" stroke="midnightblue" d="M105.517,-103.5C122.716,-103.5 141.717,-103.5 159.373,-103.5"/>
<polygon fill="midnightblue" stroke="midnightblue" points="105.07,-100 95.07,-103.5 105.07,-107 105.07,-100"/>
</g>
<!-- Node5 -->
<g id="node5" class="node"><title>Node5</title>
<g id="a_node5"><a xlink:href="classmappel_1_1SimulatedAnnealingMaximizer.html#a76e0c1b5ca19fc31d10dded7b992e0cb" target="_top" xlink:title="mappel::SimulatedAnnealing\lMaximizer::SimulatedAnnealingMaximizer">
<polygon fill="white" stroke="black" points="131,-47.5 131,-75.5 319,-75.5 319,-47.5 131,-47.5"/>
<text text-anchor="start" x="139" y="-64.3" font-family="Helvetica,sans-Serif" font-size="9.00">mappel::SimulatedAnnealing</text>
<text text-anchor="middle" x="225" y="-54.3" font-family="Helvetica,sans-Serif" font-size="9.00">Maximizer::SimulatedAnnealingMaximizer</text>
</a>
</g>
</g>
<!-- Node1&#45;&gt;Node5 -->
<g id="edge4" class="edge"><title>Node1&#45;&gt;Node5</title>
<path fill="none" stroke="midnightblue" d="M104.916,-89.9988C124.194,-85.3852 145.795,-80.2158 165.252,-75.5593"/>
<polygon fill="midnightblue" stroke="midnightblue" points="103.981,-86.6236 95.07,-92.355 105.61,-93.4314 103.981,-86.6236"/>
</g>
<!-- Node6 -->
<g id="node6" class="node"><title>Node6</title>
<g id="a_node6"><a xlink:href="classmappel_1_1Estimator.html#a629823fa91d4b461b2b1f607d588e558" target="_top" xlink:title="mappel::Estimator::\l~Estimator">
<polygon fill="white" stroke="black" points="177.5,-0.5 177.5,-28.5 272.5,-28.5 272.5,-0.5 177.5,-0.5"/>
<text text-anchor="start" x="185.5" y="-17.3" font-family="Helvetica,sans-Serif" font-size="9.00">mappel::Estimator::</text>
<text text-anchor="middle" x="225" y="-7.3" font-family="Helvetica,sans-Serif" font-size="9.00">~Estimator</text>
</a>
</g>
</g>
<!-- Node1&#45;&gt;Node6 -->
<g id="edge5" class="edge"><title>Node1&#45;&gt;Node6</title>
<path fill="none" stroke="midnightblue" d="M69.9917,-82.4312C85.7065,-68.1187 108.181,-49.8037 131,-38.5 145.344,-31.3944 162.009,-26.243 177.236,-22.5793"/>
<polygon fill="midnightblue" stroke="midnightblue" points="67.3477,-80.1112 62.4241,-89.4925 72.1233,-85.2292 67.3477,-80.1112"/>
</g>
</g>
</svg>
