<?xml version="1.0" encoding="UTF-8" standalone="no"?>
<!DOCTYPE svg PUBLIC "-//W3C//DTD SVG 1.1//EN"
 "http://www.w3.org/Graphics/SVG/1.1/DTD/svg11.dtd">
<!-- Generated by graphviz version 2.38.0 (20140413.2041)
 -->
<!-- Title: mappel::MCMCAdaptor2D::get_stats Pages: 1 -->
<svg width="464pt" height="37pt"
 viewBox="0.00 0.00 464.00 37.00" xmlns="http://www.w3.org/2000/svg" xmlns:xlink="http://www.w3.org/1999/xlink">
<g id="graph0" class="graph" transform="scale(1 1) rotate(0) translate(4 33)">
<title>mappel::MCMCAdaptor2D::get_stats</title>
<polygon fill="white" stroke="none" points="-4,4 -4,-33 460,-33 460,4 -4,4"/>
<!-- Node1 -->
<g id="node1" class="node"><title>Node1</title>
<polygon fill="#bfbfbf" stroke="black" points="0,-0.5 0,-28.5 125,-28.5 125,-0.5 0,-0.5"/>
<text text-anchor="start" x="8" y="-17.3" font-family="Helvetica,sans-Serif" font-size="9.00">mappel::MCMCAdaptor2D</text>
<text text-anchor="middle" x="62.5" y="-7.3" font-family="Helvetica,sans-Serif" font-size="9.00">::get_stats</text>
</g>
<!-- Node2 -->
<g id="node2" class="node"><title>Node2</title>
<g id="a_node2"><a xlink:href="classmappel_1_1MCMCAdaptor1D.html#ad1cb677abb1a3e214c2f6fc1e1c3cb86" target="_top" xlink:title="mappel::MCMCAdaptor1D\l::get_stats">
<polygon fill="white" stroke="black" points="161,-0.5 161,-28.5 286,-28.5 286,-0.5 161,-0.5"/>
<text text-anchor="start" x="169" y="-17.3" font-family="Helvetica,sans-Serif" font-size="9.00">mappel::MCMCAdaptor1D</text>
<text text-anchor="middle" x="223.5" y="-7.3" font-family="Helvetica,sans-Serif" font-size="9.00">::get_stats</text>
</a>
</g>
</g>
<!-- Node1&#45;&gt;Node2 -->
<g id="edge1" class="edge"><title>Node1&#45;&gt;Node2</title>
<path fill="none" stroke="midnightblue" d="M125.429,-14.5C133.674,-14.5 142.184,-14.5 150.58,-14.5"/>
<polygon fill="midnightblue" stroke="midnightblue" points="150.74,-18.0001 160.74,-14.5 150.74,-11.0001 150.74,-18.0001"/>
</g>
<!-- Node3 -->
<g id="node3" class="node"><title>Node3</title>
<g id="a_node3"><a xlink:href="classmappel_1_1MCMCAdaptorBase.html#ad6054973528dfad89976882cdb50aba5" target="_top" xlink:title="mappel::MCMCAdaptorBase\l::get_stats">
<polygon fill="white" stroke="black" points="322,-0.5 322,-28.5 456,-28.5 456,-0.5 322,-0.5"/>
<text text-anchor="start" x="330" y="-17.3" font-family="Helvetica,sans-Serif" font-size="9.00">mappel::MCMCAdaptorBase</text>
<text text-anchor="middle" x="389" y="-7.3" font-family="Helvetica,sans-Serif" font-size="9.00">::get_stats</text>
</a>
</g>
</g>
<!-- Node2&#45;&gt;Node3 -->
<g id="edge2" class="edge"><title>Node2&#45;&gt;Node3</title>
<path fill="none" stroke="midnightblue" d="M286.312,-14.5C294.542,-14.5 303.058,-14.5 311.499,-14.5"/>
<polygon fill="midnightblue" stroke="midnightblue" points="311.734,-18.0001 321.734,-14.5 311.734,-11.0001 311.734,-18.0001"/>
</g>
</g>
</svg>
