<?xml version="1.0" encoding="UTF-8" standalone="no"?>
<!DOCTYPE svg PUBLIC "-//W3C//DTD SVG 1.1//EN"
 "http://www.w3.org/Graphics/SVG/1.1/DTD/svg11.dtd">
<!-- Generated by graphviz version 2.38.0 (20140413.2041)
 -->
<!-- Title: mappel::IterativeMaximizer::convergence_test Pages: 1 -->
<svg width="307pt" height="131pt"
 viewBox="0.00 0.00 307.00 131.00" xmlns="http://www.w3.org/2000/svg" xmlns:xlink="http://www.w3.org/1999/xlink">
<g id="graph0" class="graph" transform="scale(1 1) rotate(0) translate(4 127)">
<title>mappel::IterativeMaximizer::convergence_test</title>
<polygon fill="white" stroke="none" points="-4,4 -4,-127 303,-127 303,4 -4,4"/>
<!-- Node1 -->
<g id="node1" class="node"><title>Node1</title>
<polygon fill="#bfbfbf" stroke="black" points="0,-47.5 0,-75.5 126,-75.5 126,-47.5 0,-47.5"/>
<text text-anchor="start" x="8" y="-64.3" font-family="Helvetica,sans-Serif" font-size="9.00">mappel::IterativeMaximizer</text>
<text text-anchor="middle" x="63" y="-54.3" font-family="Helvetica,sans-Serif" font-size="9.00">::convergence_test</text>
</g>
<!-- Node2 -->
<g id="node2" class="node"><title>Node2</title>
<g id="a_node2"><a xlink:href="classmappel_1_1IterativeMaximizer_1_1MaximizerData.html#af2e61c659a8cc78365bd801026c2f6a9" target="_top" xlink:title="mappel::IterativeMaximizer\l::MaximizerData::record_exit">
<polygon fill="white" stroke="black" points="164,-94.5 164,-122.5 297,-122.5 297,-94.5 164,-94.5"/>
<text text-anchor="start" x="172" y="-111.3" font-family="Helvetica,sans-Serif" font-size="9.00">mappel::IterativeMaximizer</text>
<text text-anchor="middle" x="230.5" y="-101.3" font-family="Helvetica,sans-Serif" font-size="9.00">::MaximizerData::record_exit</text>
</a>
</g>
</g>
<!-- Node1&#45;&gt;Node2 -->
<g id="edge1" class="edge"><title>Node1&#45;&gt;Node2</title>
<path fill="none" stroke="midnightblue" d="M113.655,-75.6015C131.492,-80.6669 151.784,-86.4297 170.348,-91.7015"/>
<polygon fill="midnightblue" stroke="midnightblue" points="169.589,-95.1244 180.165,-94.4894 171.502,-88.3907 169.589,-95.1244"/>
</g>
<!-- Node3 -->
<g id="node3" class="node"><title>Node3</title>
<g id="a_node3"><a xlink:href="classmappel_1_1IterativeMaximizer_1_1MaximizerData.html#aedc8670533fe0323a62e7def637875db" target="_top" xlink:title="Get the saved stencil&#39;s theta. ">
<polygon fill="white" stroke="black" points="162,-47.5 162,-75.5 299,-75.5 299,-47.5 162,-47.5"/>
<text text-anchor="start" x="170" y="-64.3" font-family="Helvetica,sans-Serif" font-size="9.00">mappel::IterativeMaximizer</text>
<text text-anchor="middle" x="230.5" y="-54.3" font-family="Helvetica,sans-Serif" font-size="9.00">::MaximizerData::saved_theta</text>
</a>
</g>
</g>
<!-- Node1&#45;&gt;Node3 -->
<g id="edge2" class="edge"><title>Node1&#45;&gt;Node3</title>
<path fill="none" stroke="midnightblue" d="M126.097,-61.5C134.469,-61.5 143.143,-61.5 151.745,-61.5"/>
<polygon fill="midnightblue" stroke="midnightblue" points="151.787,-65.0001 161.787,-61.5 151.787,-58.0001 151.787,-65.0001"/>
</g>
<!-- Node4 -->
<g id="node4" class="node"><title>Node4</title>
<g id="a_node4"><a xlink:href="classmappel_1_1IterativeMaximizer_1_1MaximizerData.html#ac6ed5231a1ac2f4bfdd51a2800212fea" target="_top" xlink:title="Get the current stencil&#39;s theta. ">
<polygon fill="white" stroke="black" points="167.5,-0.5 167.5,-28.5 293.5,-28.5 293.5,-0.5 167.5,-0.5"/>
<text text-anchor="start" x="175.5" y="-17.3" font-family="Helvetica,sans-Serif" font-size="9.00">mappel::IterativeMaximizer</text>
<text text-anchor="middle" x="230.5" y="-7.3" font-family="Helvetica,sans-Serif" font-size="9.00">::MaximizerData::theta</text>
</a>
</g>
</g>
<!-- Node1&#45;&gt;Node4 -->
<g id="edge3" class="edge"><title>Node1&#45;&gt;Node4</title>
<path fill="none" stroke="midnightblue" d="M113.655,-47.3985C131.492,-42.3331 151.784,-36.5703 170.348,-31.2985"/>
<polygon fill="midnightblue" stroke="midnightblue" points="171.502,-34.6093 180.165,-28.5106 169.589,-27.8756 171.502,-34.6093"/>
</g>
</g>
</svg>
