<?xml version="1.0" encoding="UTF-8" standalone="no"?>
<!DOCTYPE svg PUBLIC "-//W3C//DTD SVG 1.1//EN"
 "http://www.w3.org/Graphics/SVG/1.1/DTD/svg11.dtd">
<!-- Generated by graphviz version 2.38.0 (20140413.2041)
 -->
<!-- Title: mappel::SimulatedAnnealingMaximizer::anneal Pages: 1 -->
<svg width="469pt" height="107pt"
 viewBox="0.00 0.00 469.00 107.00" xmlns="http://www.w3.org/2000/svg" xmlns:xlink="http://www.w3.org/1999/xlink">
<g id="graph0" class="graph" transform="scale(1 1) rotate(0) translate(4 103)">
<title>mappel::SimulatedAnnealingMaximizer::anneal</title>
<polygon fill="white" stroke="none" points="-4,4 -4,-103 465,-103 465,4 -4,4"/>
<!-- Node1 -->
<g id="node1" class="node"><title>Node1</title>
<polygon fill="#bfbfbf" stroke="black" points="0,-23.5 0,-51.5 135,-51.5 135,-23.5 0,-23.5"/>
<text text-anchor="start" x="8" y="-40.3" font-family="Helvetica,sans-Serif" font-size="9.00">mappel::SimulatedAnnealing</text>
<text text-anchor="middle" x="67.5" y="-30.3" font-family="Helvetica,sans-Serif" font-size="9.00">Maximizer::anneal</text>
</g>
<!-- Node2 -->
<g id="node2" class="node"><title>Node2</title>
<g id="a_node2"><a xlink:href="classmappel_1_1IterativeMaximizer.html#a452cb0415d5b30de4176fcb63bf4c58b" target="_top" xlink:title="Perform a local maximization to finish off a simulated annealing run. ">
<polygon fill="white" stroke="black" points="172,-47.5 172,-75.5 298,-75.5 298,-47.5 172,-47.5"/>
<text text-anchor="start" x="180" y="-64.3" font-family="Helvetica,sans-Serif" font-size="9.00">mappel::IterativeMaximizer</text>
<text text-anchor="middle" x="235" y="-54.3" font-family="Helvetica,sans-Serif" font-size="9.00">::local_maximize</text>
</a>
</g>
</g>
<!-- Node1&#45;&gt;Node2 -->
<g id="edge1" class="edge"><title>Node1&#45;&gt;Node2</title>
<path fill="none" stroke="midnightblue" d="M135.338,-47.1925C144.138,-48.4686 153.186,-49.7808 162.066,-51.0685"/>
<polygon fill="midnightblue" stroke="midnightblue" points="161.599,-54.5373 171.998,-52.5087 162.604,-47.6098 161.599,-54.5373"/>
</g>
<!-- Node5 -->
<g id="node5" class="node"><title>Node5</title>
<g id="a_node5"><a xlink:href="namespacemappel_1_1methods_1_1objective.html#a293c23ed6a623e59477bb67b6e40f5ad" target="_top" xlink:title="mappel::methods::objective\l::rllh">
<polygon fill="white" stroke="black" points="171,-0.5 171,-28.5 299,-28.5 299,-0.5 171,-0.5"/>
<text text-anchor="start" x="179" y="-17.3" font-family="Helvetica,sans-Serif" font-size="9.00">mappel::methods::objective</text>
<text text-anchor="middle" x="235" y="-7.3" font-family="Helvetica,sans-Serif" font-size="9.00">::rllh</text>
</a>
</g>
</g>
<!-- Node1&#45;&gt;Node5 -->
<g id="edge4" class="edge"><title>Node1&#45;&gt;Node5</title>
<path fill="none" stroke="midnightblue" d="M135.338,-28.2113C143.785,-27.0374 152.462,-25.8316 160.998,-24.6453"/>
<polygon fill="midnightblue" stroke="midnightblue" points="161.51,-28.1079 170.933,-23.2646 160.546,-21.1745 161.51,-28.1079"/>
</g>
<!-- Node3 -->
<g id="node3" class="node"><title>Node3</title>
<g id="a_node3"><a xlink:href="classmappel_1_1IterativeMaximizer.html#a4d05ed89de53e6e73f2f13bef30862ec" target="_top" xlink:title="mappel::IterativeMaximizer\l::maximize">
<polygon fill="white" stroke="black" points="335,-70.5 335,-98.5 461,-98.5 461,-70.5 335,-70.5"/>
<text text-anchor="start" x="343" y="-87.3" font-family="Helvetica,sans-Serif" font-size="9.00">mappel::IterativeMaximizer</text>
<text text-anchor="middle" x="398" y="-77.3" font-family="Helvetica,sans-Serif" font-size="9.00">::maximize</text>
</a>
</g>
</g>
<!-- Node2&#45;&gt;Node3 -->
<g id="edge2" class="edge"><title>Node2&#45;&gt;Node3</title>
<path fill="none" stroke="midnightblue" d="M298.247,-70.3924C306.99,-71.6415 316.037,-72.9339 324.945,-74.2064"/>
<polygon fill="midnightblue" stroke="midnightblue" points="324.524,-77.6818 334.919,-75.6312 325.514,-70.7521 324.524,-77.6818"/>
</g>
<!-- Node4 -->
<g id="node4" class="node"><title>Node4</title>
<g id="a_node4"><a xlink:href="classmappel_1_1IterativeMaximizer_1_1MaximizerData.html#a29ccc1aa8e5ecf505f4ca76f6b8b214e" target="_top" xlink:title="Get the current stencil. ">
<polygon fill="white" stroke="black" points="335,-23.5 335,-51.5 461,-51.5 461,-23.5 335,-23.5"/>
<text text-anchor="start" x="343" y="-40.3" font-family="Helvetica,sans-Serif" font-size="9.00">mappel::IterativeMaximizer</text>
<text text-anchor="middle" x="398" y="-30.3" font-family="Helvetica,sans-Serif" font-size="9.00">::MaximizerData::stencil</text>
</a>
</g>
</g>
<!-- Node2&#45;&gt;Node4 -->
<g id="edge3" class="edge"><title>Node2&#45;&gt;Node4</title>
<path fill="none" stroke="midnightblue" d="M298.247,-52.221C306.99,-50.9176 316.037,-49.569 324.945,-48.2411"/>
<polygon fill="midnightblue" stroke="midnightblue" points="325.544,-51.6906 334.919,-46.7543 324.512,-44.7671 325.544,-51.6906"/>
</g>
</g>
</svg>
