<?xml version="1.0" encoding="UTF-8" standalone="no"?>
<!DOCTYPE svg PUBLIC "-//W3C//DTD SVG 1.1//EN"
 "http://www.w3.org/Graphics/SVG/1.1/DTD/svg11.dtd">
<!-- Generated by graphviz version 2.38.0 (20140413.2041)
 -->
<!-- Title: mappel::Estimator::compute_estimate Pages: 1 -->
<svg width="269pt" height="37pt"
 viewBox="0.00 0.00 269.00 37.00" xmlns="http://www.w3.org/2000/svg" xmlns:xlink="http://www.w3.org/1999/xlink">
<g id="graph0" class="graph" transform="scale(1 1) rotate(0) translate(4 33)">
<title>mappel::Estimator::compute_estimate</title>
<polygon fill="white" stroke="none" points="-4,4 -4,-33 265,-33 265,4 -4,4"/>
<!-- Node1 -->
<g id="node1" class="node"><title>Node1</title>
<polygon fill="#bfbfbf" stroke="black" points="0,-0.5 0,-28.5 95,-28.5 95,-0.5 0,-0.5"/>
<text text-anchor="start" x="8" y="-17.3" font-family="Helvetica,sans-Serif" font-size="9.00">mappel::Estimator::</text>
<text text-anchor="middle" x="47.5" y="-7.3" font-family="Helvetica,sans-Serif" font-size="9.00">compute_estimate</text>
</g>
<!-- Node2 -->
<g id="node2" class="node"><title>Node2</title>
<g id="a_node2"><a xlink:href="namespacemappel_1_1methods.html#a83244dbe0995e8698475a12d34fb2f35" target="_top" xlink:title="mappel::methods::observed\l_information">
<polygon fill="white" stroke="black" points="131,-0.5 131,-28.5 261,-28.5 261,-0.5 131,-0.5"/>
<text text-anchor="start" x="139" y="-17.3" font-family="Helvetica,sans-Serif" font-size="9.00">mappel::methods::observed</text>
<text text-anchor="middle" x="196" y="-7.3" font-family="Helvetica,sans-Serif" font-size="9.00">_information</text>
</a>
</g>
</g>
<!-- Node1&#45;&gt;Node2 -->
<g id="edge1" class="edge"><title>Node1&#45;&gt;Node2</title>
<path fill="none" stroke="midnightblue" d="M95.2563,-14.5C103.382,-14.5 112.01,-14.5 120.658,-14.5"/>
<polygon fill="midnightblue" stroke="midnightblue" points="120.79,-18.0001 130.79,-14.5 120.79,-11.0001 120.79,-18.0001"/>
</g>
</g>
</svg>
