<?xml version="1.0" encoding="UTF-8" standalone="no"?>
<!DOCTYPE svg PUBLIC "-//W3C//DTD SVG 1.1//EN"
 "http://www.w3.org/Graphics/SVG/1.1/DTD/svg11.dtd">
<!-- Generated by graphviz version 2.38.0 (20140413.2041)
 -->
<!-- Title: mappel::Gauss2DsModel::Stencil::Stencil Pages: 1 -->
<!--zoomable 343 -->
<svg id="main" version="1.1" xmlns="http://www.w3.org/2000/svg" xmlns:xlink="http://www.w3.org/1999/xlink" xml:space="preserve" onload="init(evt)">
<style type="text/css"><![CDATA[
.edge:hover path { stroke: red; }
.edge:hover polygon { stroke: red; fill: red; }
]]></style>
<script type="text/javascript"><![CDATA[
var edges = document.getElementsByTagName('g');
if (edges && edges.length) {
  for (var i=0;i<edges.length;i++) {
    if (edges[i].id.substr(0,4)=='edge') {
      edges[i].setAttribute('class','edge');
    }
  }
}
]]></script>
        <defs>
                <circle id="rim" cx="0" cy="0" r="7"/>
                <circle id="rim2" cx="0" cy="0" r="3.5"/>
                <g id="zoomPlus">
                        <use xlink:href="#rim" fill="#404040">
                                <set attributeName="fill" to="#808080" begin="zoomplus.mouseover" end="zoomplus.mouseout"/>
                        </use>
                        <path d="M-4,0h8M0,-4v8" fill="none" stroke="white" stroke-width="1.5" pointer-events="none"/>
                </g>
                <g id="zoomMin">
                        <use xlink:href="#rim" fill="#404040">
                                <set attributeName="fill" to="#808080" begin="zoomminus.mouseover" end="zoomminus.mouseout"/>
                        </use>
                        <path d="M-4,0h8" fill="none" stroke="white" stroke-width="1.5" pointer-events="none"/>
                </g>
                <g id="dirArrow">
                        <path fill="none" stroke="white" stroke-width="1.5" d="M0,-3.0v7 M-2.5,-0.5L0,-3.0L2.5,-0.5"/>
                </g>
               <g id="resetDef">
                       <use xlink:href="#rim2" fill="#404040">
                               <set attributeName="fill" to="#808080" begin="reset.mouseover" end="reset.mouseout"/>
                       </use>
               </g>
        </defs>

<script type="text/javascript">
var viewWidth = 748;
var viewHeight = 343;
var sectionId = 'dynsection-3';
</script>
<script xlink:href="svgpan.js"/>
<svg id="graph" class="graph">
<g id="viewport">
<title>mappel::Gauss2DsModel::Stencil::Stencil</title>
<polygon fill="white" stroke="none" points="-4,4 -4,-339 744,-339 744,4 -4,4"/>
<!-- Node1 -->
<g id="node1" class="node"><title>Node1</title>
<polygon fill="#bfbfbf" stroke="black" points="0,-138.5 0,-166.5 120,-166.5 120,-138.5 0,-138.5"/>
<text text-anchor="start" x="8" y="-155.3" font-family="Helvetica,sans-Serif" font-size="9.00">mappel::Gauss2DsModel</text>
<text text-anchor="middle" x="60" y="-145.3" font-family="Helvetica,sans-Serif" font-size="9.00">::Stencil::Stencil</text>
</g>
<!-- Node2 -->
<g id="node2" class="node"><title>Node2</title>
<g id="a_node2"><a xlink:href="classmappel_1_1Gauss2DsModel_1_1Stencil.html#ab11c806f8335bbafeb3db7476526680d" target="_top" xlink:title="mappel::Gauss2DsModel\l::Stencil::compute_derivatives">
<polygon fill="white" stroke="black" points="156,-180.5 156,-208.5 294,-208.5 294,-180.5 156,-180.5"/>
<text text-anchor="start" x="164" y="-197.3" font-family="Helvetica,sans-Serif" font-size="9.00">mappel::Gauss2DsModel</text>
<text text-anchor="middle" x="225" y="-187.3" font-family="Helvetica,sans-Serif" font-size="9.00">::Stencil::compute_derivatives</text>
</a>
</g>
</g>
<!-- Node1&#45;&gt;Node2 -->
<g id="edge1" class="edge"><title>Node1&#45;&gt;Node2</title>
<path fill="none" stroke="midnightblue" d="M115.73,-166.602C129.782,-170.223 145.029,-174.152 159.524,-177.886"/>
<polygon fill="midnightblue" stroke="midnightblue" points="158.857,-181.329 169.414,-180.435 160.604,-174.55 158.857,-181.329"/>
</g>
<!-- Node6 -->
<g id="node6" class="node"><title>Node6</title>
<g id="a_node6"><a xlink:href="classmappel_1_1Gauss2DsModel_1_1Stencil.html#adab71d870d1b32f78e85d273dd7bd006" target="_top" xlink:title="mappel::Gauss2DsModel\l::Stencil::sigmaX">
<polygon fill="white" stroke="black" points="338,-259.5 338,-287.5 458,-287.5 458,-259.5 338,-259.5"/>
<text text-anchor="start" x="346" y="-276.3" font-family="Helvetica,sans-Serif" font-size="9.00">mappel::Gauss2DsModel</text>
<text text-anchor="middle" x="398" y="-266.3" font-family="Helvetica,sans-Serif" font-size="9.00">::Stencil::sigmaX</text>
</a>
</g>
</g>
<!-- Node1&#45;&gt;Node6 -->
<g id="edge22" class="edge"><title>Node1&#45;&gt;Node6</title>
<path fill="none" stroke="midnightblue" d="M76.987,-166.516C94.9842,-181.567 125.687,-205.116 156,-218.5 211.094,-242.825 278.205,-257.009 327.602,-264.86"/>
<polygon fill="midnightblue" stroke="midnightblue" points="327.133,-268.329 337.55,-266.393 328.2,-261.41 327.133,-268.329"/>
</g>
<!-- Node8 -->
<g id="node8" class="node"><title>Node8</title>
<g id="a_node8"><a xlink:href="classmappel_1_1Gauss2DsModel_1_1Stencil.html#abc29f317d508c398a3fcc337a1fb8d1f" target="_top" xlink:title="mappel::Gauss2DsModel\l::Stencil::sigmaY">
<polygon fill="white" stroke="black" points="338,-306.5 338,-334.5 458,-334.5 458,-306.5 338,-306.5"/>
<text text-anchor="start" x="346" y="-323.3" font-family="Helvetica,sans-Serif" font-size="9.00">mappel::Gauss2DsModel</text>
<text text-anchor="middle" x="398" y="-313.3" font-family="Helvetica,sans-Serif" font-size="9.00">::Stencil::sigmaY</text>
</a>
</g>
</g>
<!-- Node1&#45;&gt;Node8 -->
<g id="edge23" class="edge"><title>Node1&#45;&gt;Node8</title>
<path fill="none" stroke="midnightblue" d="M70.6614,-166.57C86.1624,-188.077 118.665,-228.997 156,-251.5 208.918,-283.396 277.261,-301.135 327.646,-310.611"/>
<polygon fill="midnightblue" stroke="midnightblue" points="327.329,-314.11 337.793,-312.453 328.579,-307.223 327.329,-314.11"/>
</g>
<!-- Node17 -->
<g id="node17" class="node"><title>Node17</title>
<g id="a_node17"><a xlink:href="namespacemappel.html#ac9d449b0121b33962da2c9c13cbb593c" target="_top" xlink:title="mappel::make_d_stencil">
<polygon fill="white" stroke="black" points="167,-143.5 167,-161.5 283,-161.5 283,-143.5 167,-143.5"/>
<text text-anchor="middle" x="225" y="-150.3" font-family="Helvetica,sans-Serif" font-size="9.00">mappel::make_d_stencil</text>
</a>
</g>
</g>
<!-- Node1&#45;&gt;Node17 -->
<g id="edge18" class="edge"><title>Node1&#45;&gt;Node17</title>
<path fill="none" stroke="midnightblue" d="M120.308,-152.5C132.184,-152.5 144.741,-152.5 156.86,-152.5"/>
<polygon fill="midnightblue" stroke="midnightblue" points="156.913,-156 166.913,-152.5 156.913,-149 156.913,-156"/>
</g>
<!-- Node19 -->
<g id="node19" class="node"><title>Node19</title>
<g id="a_node19"><a xlink:href="namespacemappel.html#a7b50d0a17c085d9b25b91c2b17ecb1cc" target="_top" xlink:title="mappel::make_X_stencil">
<polygon fill="white" stroke="black" points="166.5,-106.5 166.5,-124.5 283.5,-124.5 283.5,-106.5 166.5,-106.5"/>
<text text-anchor="middle" x="225" y="-113.3" font-family="Helvetica,sans-Serif" font-size="9.00">mappel::make_X_stencil</text>
</a>
</g>
</g>
<!-- Node1&#45;&gt;Node19 -->
<g id="edge20" class="edge"><title>Node1&#45;&gt;Node19</title>
<path fill="none" stroke="midnightblue" d="M120.308,-139.037C138.114,-134.996 157.449,-130.607 174.546,-126.726"/>
<polygon fill="midnightblue" stroke="midnightblue" points="175.349,-130.133 184.326,-124.506 173.799,-123.306 175.349,-130.133"/>
</g>
<!-- Node21 -->
<g id="node21" class="node"><title>Node21</title>
<g id="a_node21"><a xlink:href="classmappel_1_1Gauss2DsModel_1_1Stencil.html#a1016a9626a43cf16f31cc12bbbe436ff" target="_top" xlink:title="mappel::Gauss2DsModel\l::Stencil::x">
<polygon fill="white" stroke="black" points="165,-59.5 165,-87.5 285,-87.5 285,-59.5 165,-59.5"/>
<text text-anchor="start" x="173" y="-76.3" font-family="Helvetica,sans-Serif" font-size="9.00">mappel::Gauss2DsModel</text>
<text text-anchor="middle" x="225" y="-66.3" font-family="Helvetica,sans-Serif" font-size="9.00">::Stencil::x</text>
</a>
</g>
</g>
<!-- Node1&#45;&gt;Node21 -->
<g id="edge24" class="edge"><title>Node1&#45;&gt;Node21</title>
<path fill="none" stroke="midnightblue" d="M82.1969,-138.281C101.011,-126.086 129.541,-108.615 156,-96.5 160.062,-94.6403 164.319,-92.8504 168.637,-91.1473"/>
<polygon fill="midnightblue" stroke="midnightblue" points="170.016,-94.3681 178.137,-87.5641 167.545,-87.8185 170.016,-94.3681"/>
</g>
<!-- Node22 -->
<g id="node22" class="node"><title>Node22</title>
<g id="a_node22"><a xlink:href="classmappel_1_1Gauss2DsModel_1_1Stencil.html#a87714b5ee5130031f0e626750ba8b5dc" target="_top" xlink:title="mappel::Gauss2DsModel\l::Stencil::y">
<polygon fill="white" stroke="black" points="165,-12.5 165,-40.5 285,-40.5 285,-12.5 165,-12.5"/>
<text text-anchor="start" x="173" y="-29.3" font-family="Helvetica,sans-Serif" font-size="9.00">mappel::Gauss2DsModel</text>
<text text-anchor="middle" x="225" y="-19.3" font-family="Helvetica,sans-Serif" font-size="9.00">::Stencil::y</text>
</a>
</g>
</g>
<!-- Node1&#45;&gt;Node22 -->
<g id="edge25" class="edge"><title>Node1&#45;&gt;Node22</title>
<path fill="none" stroke="midnightblue" d="M70.4087,-138.426C85.8069,-116.423 118.46,-73.8789 156,-49.5 158.45,-47.9091 161.021,-46.4168 163.671,-45.0182"/>
<polygon fill="midnightblue" stroke="midnightblue" points="165.394,-48.0743 172.92,-40.6178 162.387,-41.7532 165.394,-48.0743"/>
</g>
<!-- Node3 -->
<g id="node3" class="node"><title>Node3</title>
<g id="a_node3"><a xlink:href="namespacemappel.html#aa5c2f294298c875605ee1e9876b7d116" target="_top" xlink:title="mappel::make_G_stencil">
<polygon fill="white" stroke="black" points="339,-185.5 339,-203.5 457,-203.5 457,-185.5 339,-185.5"/>
<text text-anchor="middle" x="398" y="-192.3" font-family="Helvetica,sans-Serif" font-size="9.00">mappel::make_G_stencil</text>
</a>
</g>
</g>
<!-- Node2&#45;&gt;Node3 -->
<g id="edge2" class="edge"><title>Node2&#45;&gt;Node3</title>
<path fill="none" stroke="midnightblue" d="M294.075,-194.5C305.413,-194.5 317.178,-194.5 328.526,-194.5"/>
<polygon fill="midnightblue" stroke="midnightblue" points="328.806,-198 338.806,-194.5 328.806,-191 328.806,-198"/>
</g>
<!-- Node2&#45;&gt;Node6 -->
<g id="edge5" class="edge"><title>Node2&#45;&gt;Node6</title>
<path fill="none" stroke="midnightblue" d="M249.407,-208.533C270.133,-220.609 301.442,-238.009 330,-250.5 334.169,-252.323 338.533,-254.1 342.947,-255.806"/>
<polygon fill="midnightblue" stroke="midnightblue" points="342.045,-259.205 352.638,-259.416 344.489,-252.645 342.045,-259.205"/>
</g>
<!-- Node2&#45;&gt;Node8 -->
<g id="edge7" class="edge"><title>Node2&#45;&gt;Node8</title>
<path fill="none" stroke="midnightblue" d="M236.625,-208.507C253.929,-230.417 290.276,-272.836 330,-297.5 332.632,-299.134 335.394,-300.669 338.236,-302.109"/>
<polygon fill="midnightblue" stroke="midnightblue" points="336.973,-305.381 347.52,-306.388 339.903,-299.023 336.973,-305.381"/>
</g>
<!-- Node9 -->
<g id="node9" class="node"><title>Node9</title>
<g id="a_node9"><a xlink:href="namespacemappel.html#a8da88490d6ff7d5886b96b66c1bab369" target="_top" xlink:title="mappel::make_DX_stencil">
<polygon fill="white" stroke="black" points="336,-74.5 336,-92.5 460,-92.5 460,-74.5 336,-74.5"/>
<text text-anchor="middle" x="398" y="-81.3" font-family="Helvetica,sans-Serif" font-size="9.00">mappel::make_DX_stencil</text>
</a>
</g>
</g>
<!-- Node2&#45;&gt;Node9 -->
<g id="edge9" class="edge"><title>Node2&#45;&gt;Node9</title>
<path fill="none" stroke="midnightblue" d="M280.456,-180.492C285.324,-177.968 289.939,-174.997 294,-171.5 320.509,-148.67 302.778,-123.474 330,-101.5 332.009,-99.8782 334.152,-98.4018 336.391,-97.0578"/>
<polygon fill="midnightblue" stroke="midnightblue" points="338.076,-100.128 345.432,-92.503 334.926,-93.8766 338.076,-100.128"/>
</g>
<!-- Node11 -->
<g id="node11" class="node"><title>Node11</title>
<g id="a_node11"><a xlink:href="namespacemappel.html#af7636db506977133c8b30d108fede711" target="_top" xlink:title="mappel::make_DXS_stencil">
<polygon fill="white" stroke="black" points="333,-148.5 333,-166.5 463,-166.5 463,-148.5 333,-148.5"/>
<text text-anchor="middle" x="398" y="-155.3" font-family="Helvetica,sans-Serif" font-size="9.00">mappel::make_DXS_stencil</text>
</a>
</g>
</g>
<!-- Node2&#45;&gt;Node11 -->
<g id="edge11" class="edge"><title>Node2&#45;&gt;Node11</title>
<path fill="none" stroke="midnightblue" d="M291.136,-180.406C309.125,-176.514 328.391,-172.345 345.49,-168.645"/>
<polygon fill="midnightblue" stroke="midnightblue" points="346.248,-172.063 355.281,-166.527 344.767,-165.221 346.248,-172.063"/>
</g>
<!-- Node13 -->
<g id="node13" class="node"><title>Node13</title>
<g id="a_node13"><a xlink:href="namespacemappel.html#aef14b765af6f9b85d93f42ab8b84311b" target="_top" xlink:title="mappel::make_DXS2_stencil">
<polygon fill="white" stroke="black" points="330.5,-222.5 330.5,-240.5 465.5,-240.5 465.5,-222.5 330.5,-222.5"/>
<text text-anchor="middle" x="398" y="-229.3" font-family="Helvetica,sans-Serif" font-size="9.00">mappel::make_DXS2_stencil</text>
</a>
</g>
</g>
<!-- Node2&#45;&gt;Node13 -->
<g id="edge14" class="edge"><title>Node2&#45;&gt;Node13</title>
<path fill="none" stroke="midnightblue" d="M291.136,-208.594C309.125,-212.486 328.391,-216.655 345.49,-220.355"/>
<polygon fill="midnightblue" stroke="midnightblue" points="344.767,-223.779 355.281,-222.473 346.248,-216.937 344.767,-223.779"/>
</g>
<!-- Node15 -->
<g id="node15" class="node"><title>Node15</title>
<g id="a_node15"><a xlink:href="namespacemappel.html#abccec04f04b0b10940779c9bbae0e570" target="_top" xlink:title="mappel::make_DXSX_stencil">
<polygon fill="white" stroke="black" points="330,-111.5 330,-129.5 466,-129.5 466,-111.5 330,-111.5"/>
<text text-anchor="middle" x="398" y="-118.3" font-family="Helvetica,sans-Serif" font-size="9.00">mappel::make_DXSX_stencil</text>
</a>
</g>
</g>
<!-- Node2&#45;&gt;Node15 -->
<g id="edge16" class="edge"><title>Node2&#45;&gt;Node15</title>
<path fill="none" stroke="midnightblue" d="M275.738,-180.392C282.069,-177.818 288.315,-174.862 294,-171.5 312.683,-160.452 310.975,-148.948 330,-138.5 333.741,-136.445 337.731,-134.615 341.828,-132.985"/>
<polygon fill="midnightblue" stroke="midnightblue" points="343.268,-136.188 351.517,-129.538 340.922,-129.593 343.268,-136.188"/>
</g>
<!-- Node4 -->
<g id="node4" class="node"><title>Node4</title>
<g id="a_node4"><a xlink:href="namespacemappel.html#a5ca82edc201e8605107a991493ad0d5e" target="_top" xlink:title="mappel::fill_G_stencil">
<polygon fill="white" stroke="black" points="511,-185.5 511,-203.5 615,-203.5 615,-185.5 511,-185.5"/>
<text text-anchor="middle" x="563" y="-192.3" font-family="Helvetica,sans-Serif" font-size="9.00">mappel::fill_G_stencil</text>
</a>
</g>
</g>
<!-- Node3&#45;&gt;Node4 -->
<g id="edge3" class="edge"><title>Node3&#45;&gt;Node4</title>
<path fill="none" stroke="midnightblue" d="M457.386,-194.5C471.426,-194.5 486.464,-194.5 500.635,-194.5"/>
<polygon fill="midnightblue" stroke="midnightblue" points="500.774,-198 510.774,-194.5 500.774,-191 500.774,-198"/>
</g>
<!-- Node5 -->
<g id="node5" class="node"><title>Node5</title>
<g id="a_node5"><a xlink:href="namespacemappel.html#a8475cdb3edacceb0ae215c3ebd1f33c1" target="_top" xlink:title="mappel::square">
<polygon fill="white" stroke="black" points="660,-166.5 660,-184.5 740,-184.5 740,-166.5 660,-166.5"/>
<text text-anchor="middle" x="700" y="-173.3" font-family="Helvetica,sans-Serif" font-size="9.00">mappel::square</text>
</a>
</g>
</g>
<!-- Node4&#45;&gt;Node5 -->
<g id="edge4" class="edge"><title>Node4&#45;&gt;Node5</title>
<path fill="none" stroke="midnightblue" d="M615.038,-187.317C626.357,-185.724 638.334,-184.038 649.586,-182.454"/>
<polygon fill="midnightblue" stroke="midnightblue" points="650.263,-185.894 659.677,-181.034 649.287,-178.962 650.263,-185.894"/>
</g>
<!-- Node7 -->
<g id="node7" class="node"><title>Node7</title>
<g id="a_node7"><a xlink:href="classmappel_1_1Gauss2DsModel_1_1Stencil.html#a98f618270de5ff947a1ed9800dffd977" target="_top" xlink:title="mappel::Gauss2DsModel\l::Stencil::sigma_ratio">
<polygon fill="white" stroke="black" points="503,-282.5 503,-310.5 623,-310.5 623,-282.5 503,-282.5"/>
<text text-anchor="start" x="511" y="-299.3" font-family="Helvetica,sans-Serif" font-size="9.00">mappel::Gauss2DsModel</text>
<text text-anchor="middle" x="563" y="-289.3" font-family="Helvetica,sans-Serif" font-size="9.00">::Stencil::sigma_ratio</text>
</a>
</g>
</g>
<!-- Node6&#45;&gt;Node7 -->
<g id="edge6" class="edge"><title>Node6&#45;&gt;Node7</title>
<path fill="none" stroke="midnightblue" d="M458.308,-281.869C469.502,-283.448 481.301,-285.113 492.768,-286.731"/>
<polygon fill="midnightblue" stroke="midnightblue" points="492.345,-290.206 502.736,-288.138 493.323,-283.275 492.345,-290.206"/>
</g>
<!-- Node8&#45;&gt;Node7 -->
<g id="edge8" class="edge"><title>Node8&#45;&gt;Node7</title>
<path fill="none" stroke="midnightblue" d="M458.308,-311.768C469.502,-310.119 481.301,-308.382 492.768,-306.694"/>
<polygon fill="midnightblue" stroke="midnightblue" points="493.353,-310.145 502.736,-305.226 492.333,-303.22 493.353,-310.145"/>
</g>
<!-- Node10 -->
<g id="node10" class="node"><title>Node10</title>
<g id="a_node10"><a xlink:href="namespacemappel.html#ad2dd4330fc626fa673a3acf691d6b9a7" target="_top" xlink:title="mappel::fill_DX_stencil">
<polygon fill="white" stroke="black" points="508,-74.5 508,-92.5 618,-92.5 618,-74.5 508,-74.5"/>
<text text-anchor="middle" x="563" y="-81.3" font-family="Helvetica,sans-Serif" font-size="9.00">mappel::fill_DX_stencil</text>
</a>
</g>
</g>
<!-- Node9&#45;&gt;Node10 -->
<g id="edge10" class="edge"><title>Node9&#45;&gt;Node10</title>
<path fill="none" stroke="midnightblue" d="M460.159,-83.5C472.368,-83.5 485.228,-83.5 497.545,-83.5"/>
<polygon fill="midnightblue" stroke="midnightblue" points="497.737,-87.0001 507.737,-83.5 497.737,-80.0001 497.737,-87.0001"/>
</g>
<!-- Node12 -->
<g id="node12" class="node"><title>Node12</title>
<g id="a_node12"><a xlink:href="namespacemappel.html#ab0cb62f6dcecae5ff19468d87a283e7a" target="_top" xlink:title="mappel::fill_DXS_stencil">
<polygon fill="white" stroke="black" points="505,-148.5 505,-166.5 621,-166.5 621,-148.5 505,-148.5"/>
<text text-anchor="middle" x="563" y="-155.3" font-family="Helvetica,sans-Serif" font-size="9.00">mappel::fill_DXS_stencil</text>
</a>
</g>
</g>
<!-- Node11&#45;&gt;Node12 -->
<g id="edge12" class="edge"><title>Node11&#45;&gt;Node12</title>
<path fill="none" stroke="midnightblue" d="M463.422,-157.5C473.7,-157.5 484.357,-157.5 494.7,-157.5"/>
<polygon fill="midnightblue" stroke="midnightblue" points="494.912,-161 504.912,-157.5 494.912,-154 494.912,-161"/>
</g>
<!-- Node12&#45;&gt;Node5 -->
<g id="edge13" class="edge"><title>Node12&#45;&gt;Node5</title>
<path fill="none" stroke="midnightblue" d="M621.252,-165.134C630.651,-166.387 640.32,-167.676 649.51,-168.901"/>
<polygon fill="midnightblue" stroke="midnightblue" points="649.266,-172.4 659.641,-170.252 650.191,-165.461 649.266,-172.4"/>
</g>
<!-- Node14 -->
<g id="node14" class="node"><title>Node14</title>
<g id="a_node14"><a xlink:href="namespacemappel.html#a445e83c8273da9b3a50cc10d038ed612" target="_top" xlink:title="mappel::fill_DXS2_stencil">
<polygon fill="white" stroke="black" points="502,-222.5 502,-240.5 624,-240.5 624,-222.5 502,-222.5"/>
<text text-anchor="middle" x="563" y="-229.3" font-family="Helvetica,sans-Serif" font-size="9.00">mappel::fill_DXS2_stencil</text>
</a>
</g>
</g>
<!-- Node13&#45;&gt;Node14 -->
<g id="edge15" class="edge"><title>Node13&#45;&gt;Node14</title>
<path fill="none" stroke="midnightblue" d="M465.769,-231.5C474.363,-231.5 483.183,-231.5 491.83,-231.5"/>
<polygon fill="midnightblue" stroke="midnightblue" points="491.876,-235 501.876,-231.5 491.876,-228 491.876,-235"/>
</g>
<!-- Node16 -->
<g id="node16" class="node"><title>Node16</title>
<g id="a_node16"><a xlink:href="namespacemappel.html#ad3a6553e54dc90232fc04c93731fc69c" target="_top" xlink:title="mappel::fill_DXSX_stencil">
<polygon fill="white" stroke="black" points="502,-111.5 502,-129.5 624,-129.5 624,-111.5 502,-111.5"/>
<text text-anchor="middle" x="563" y="-118.3" font-family="Helvetica,sans-Serif" font-size="9.00">mappel::fill_DXSX_stencil</text>
</a>
</g>
</g>
<!-- Node15&#45;&gt;Node16 -->
<g id="edge17" class="edge"><title>Node15&#45;&gt;Node16</title>
<path fill="none" stroke="midnightblue" d="M466.239,-120.5C474.656,-120.5 483.282,-120.5 491.744,-120.5"/>
<polygon fill="midnightblue" stroke="midnightblue" points="491.958,-124 501.958,-120.5 491.958,-117 491.958,-124"/>
</g>
<!-- Node18 -->
<g id="node18" class="node"><title>Node18</title>
<g id="a_node18"><a xlink:href="namespacemappel.html#a0bd2fc62ed44e755a6777d1209fe6bac" target="_top" xlink:title="mappel::fill_d_stencil">
<polygon fill="white" stroke="black" points="346.5,-37.5 346.5,-55.5 449.5,-55.5 449.5,-37.5 346.5,-37.5"/>
<text text-anchor="middle" x="398" y="-44.3" font-family="Helvetica,sans-Serif" font-size="9.00">mappel::fill_d_stencil</text>
</a>
</g>
</g>
<!-- Node17&#45;&gt;Node18 -->
<g id="edge19" class="edge"><title>Node17&#45;&gt;Node18</title>
<path fill="none" stroke="midnightblue" d="M276.595,-143.465C282.86,-140.923 288.858,-137.668 294,-133.5 320.87,-111.718 303.021,-86.1469 330,-64.5 332.29,-62.6627 334.751,-61.0121 337.33,-59.5293"/>
<polygon fill="midnightblue" stroke="midnightblue" points="338.997,-62.611 346.476,-55.1068 335.95,-56.3091 338.997,-62.611"/>
</g>
<!-- Node20 -->
<g id="node20" class="node"><title>Node20</title>
<g id="a_node20"><a xlink:href="namespacemappel.html#ab6a11cd06ff348138cb04635b03a6de2" target="_top" xlink:title="mappel::fill_X_stencil">
<polygon fill="white" stroke="black" points="346,-0.5 346,-18.5 450,-18.5 450,-0.5 346,-0.5"/>
<text text-anchor="middle" x="398" y="-7.3" font-family="Helvetica,sans-Serif" font-size="9.00">mappel::fill_X_stencil</text>
</a>
</g>
</g>
<!-- Node19&#45;&gt;Node20 -->
<g id="edge21" class="edge"><title>Node19&#45;&gt;Node20</title>
<path fill="none" stroke="midnightblue" d="M276.595,-106.465C282.86,-103.923 288.858,-100.668 294,-96.5 320.87,-74.7184 303.021,-49.1469 330,-27.5 332.055,-25.8511 334.248,-24.3526 336.54,-22.9908"/>
<polygon fill="midnightblue" stroke="midnightblue" points="338.4,-25.9752 345.794,-18.3871 335.281,-19.708 338.4,-25.9752"/>
</g>
</g>
</svg>
        <g id="navigator" transform="translate(0 0)" fill="#404254">
                <rect fill="#f2f5e9" fill-opacity="0.5" stroke="#606060" stroke-width=".5" x="0" y="0" width="60" height="60"/>
                <use id="zoomplus" xlink:href="#zoomPlus" x="17" y="9" onmousedown="handleZoom(evt,'in')"/>
                <use id="zoomminus" xlink:href="#zoomMin" x="42" y="9" onmousedown="handleZoom(evt,'out')"/>
                <use id="reset" xlink:href="#resetDef" x="30" y="36" onmousedown="handleReset()"/>
                <g id="arrowUp" xlink:href="#dirArrow" transform="translate(30 24)" onmousedown="handlePan(0,-1)">
                  <use xlink:href="#rim" fill="#404040">
                        <set attributeName="fill" to="#808080" begin="arrowUp.mouseover" end="arrowUp.mouseout"/>
                  </use>
                  <path fill="none" stroke="white" stroke-width="1.5" d="M0,-3.0v7 M-2.5,-0.5L0,-3.0L2.5,-0.5"/>
                </g>
                <g id="arrowRight" xlink:href="#dirArrow" transform="rotate(90) translate(36 -43)" onmousedown="handlePan(1,0)">
                  <use xlink:href="#rim" fill="#404040">
                        <set attributeName="fill" to="#808080" begin="arrowRight.mouseover" end="arrowRight.mouseout"/>
                  </use>
                  <path fill="none" stroke="white" stroke-width="1.5" d="M0,-3.0v7 M-2.5,-0.5L0,-3.0L2.5,-0.5"/>
                </g>
                <g id="arrowDown" xlink:href="#dirArrow" transform="rotate(180) translate(-30 -48)" onmousedown="handlePan(0,1)">
                  <use xlink:href="#rim" fill="#404040">
                        <set attributeName="fill" to="#808080" begin="arrowDown.mouseover" end="arrowDown.mouseout"/>
                  </use>
                  <path fill="none" stroke="white" stroke-width="1.5" d="M0,-3.0v7 M-2.5,-0.5L0,-3.0L2.5,-0.5"/>
                </g>
                <g id="arrowLeft" xlink:href="#dirArrow" transform="rotate(270) translate(-36 17)" onmousedown="handlePan(-1,0)">
                  <use xlink:href="#rim" fill="#404040">
                        <set attributeName="fill" to="#808080" begin="arrowLeft.mouseover" end="arrowLeft.mouseout"/>
                  </use>
                  <path fill="none" stroke="white" stroke-width="1.5" d="M0,-3.0v7 M-2.5,-0.5L0,-3.0L2.5,-0.5"/>
                </g>
        </g>
        <svg viewBox="0 0 15 15" width="100%" height="30px" preserveAspectRatio="xMaxYMin meet">
         <g id="arrow_out" transform="scale(0.3 0.3)">
          <a xlink:href="classmappel_1_1Gauss2DsModel_1_1Stencil_a924f5f8d4524831f1ef50041b85a842f_cgraph_org.svg" target="_base">
           <rect id="button" ry="5" rx="5" y="6" x="6" height="38" width="38"
                fill="#f2f5e9" fill-opacity="0.5" stroke="#606060" stroke-width="1.0"/>
           <path id="arrow"
             d="M 11.500037,31.436501 C 11.940474,20.09759 22.043105,11.32322 32.158766,21.979434 L 37.068811,17.246167 C 37.068811,17.246167 37.088388,32 37.088388,32 L 22.160133,31.978069 C 22.160133,31.978069 26.997745,27.140456 26.997745,27.140456 C 18.528582,18.264221 13.291696,25.230495 11.500037,31.436501 z"
             style="fill:#404040;"/>
          </a>
         </g>
        </svg>
</svg>
