<?xml version="1.0" encoding="UTF-8" standalone="no"?>
<!DOCTYPE svg PUBLIC "-//W3C//DTD SVG 1.1//EN"
 "http://www.w3.org/Graphics/SVG/1.1/DTD/svg11.dtd">
<!-- Generated by graphviz version 2.38.0 (20140413.2041)
 -->
<!-- Title: mappel::MCMCAdaptor1Ds Pages: 1 -->
<svg width="288pt" height="247pt"
 viewBox="0.00 0.00 287.50 247.00" xmlns="http://www.w3.org/2000/svg" xmlns:xlink="http://www.w3.org/1999/xlink">
<g id="graph0" class="graph" transform="scale(1 1) rotate(0) translate(4 243)">
<title>mappel::MCMCAdaptor1Ds</title>
<polygon fill="white" stroke="none" points="-4,4 -4,-243 283.5,-243 283.5,4 -4,4"/>
<!-- Node1 -->
<g id="node1" class="node"><title>Node1</title>
<polygon fill="#bfbfbf" stroke="black" points="73,-110.5 73,-128.5 202,-128.5 202,-110.5 73,-110.5"/>
<text text-anchor="middle" x="137.5" y="-117.3" font-family="Helvetica,sans-Serif" font-size="9.00">mappel::MCMCAdaptor1Ds</text>
</g>
<!-- Node5 -->
<g id="node5" class="node"><title>Node5</title>
<g id="a_node5"><a xlink:href="classmappel_1_1Gauss1DsModel.html" target="_top" xlink:title="Base class for 1D Gaussian PSF with variable Gaussian sigma (standard deviation) measured in units of...">
<polygon fill="white" stroke="black" points="77.5,-55.5 77.5,-73.5 197.5,-73.5 197.5,-55.5 77.5,-55.5"/>
<text text-anchor="middle" x="137.5" y="-62.3" font-family="Helvetica,sans-Serif" font-size="9.00">mappel::Gauss1DsModel</text>
</a>
</g>
</g>
<!-- Node1&#45;&gt;Node5 -->
<g id="edge4" class="edge"><title>Node1&#45;&gt;Node5</title>
<path fill="none" stroke="midnightblue" d="M137.5,-100.175C137.5,-91.0945 137.5,-80.5949 137.5,-73.5496"/>
<polygon fill="midnightblue" stroke="midnightblue" points="134,-100.219 137.5,-110.219 141,-100.219 134,-100.219"/>
</g>
<!-- Node2 -->
<g id="node2" class="node"><title>Node2</title>
<g id="a_node2"><a xlink:href="classmappel_1_1MCMCAdaptor1D.html" target="_top" xlink:title="mappel::MCMCAdaptor1D">
<polygon fill="white" stroke="black" points="75,-165.5 75,-183.5 200,-183.5 200,-165.5 75,-165.5"/>
<text text-anchor="middle" x="137.5" y="-172.3" font-family="Helvetica,sans-Serif" font-size="9.00">mappel::MCMCAdaptor1D</text>
</a>
</g>
</g>
<!-- Node2&#45;&gt;Node1 -->
<g id="edge1" class="edge"><title>Node2&#45;&gt;Node1</title>
<path fill="none" stroke="midnightblue" d="M137.5,-155.175C137.5,-146.094 137.5,-135.595 137.5,-128.55"/>
<polygon fill="midnightblue" stroke="midnightblue" points="134,-155.219 137.5,-165.219 141,-155.219 134,-155.219"/>
</g>
<!-- Node3 -->
<g id="node3" class="node"><title>Node3</title>
<g id="a_node3"><a xlink:href="classmappel_1_1PointEmitterModel.html" target="_top" xlink:title="A virtual Base type for point emitter localization models. ">
<polygon fill="white" stroke="black" points="0,-220.5 0,-238.5 127,-238.5 127,-220.5 0,-220.5"/>
<text text-anchor="middle" x="63.5" y="-227.3" font-family="Helvetica,sans-Serif" font-size="9.00">mappel::PointEmitterModel</text>
</a>
</g>
</g>
<!-- Node3&#45;&gt;Node2 -->
<g id="edge2" class="edge"><title>Node3&#45;&gt;Node2</title>
<path fill="none" stroke="midnightblue" d="M83.059,-214.492C96.8013,-204.649 114.706,-191.826 126.155,-183.625"/>
<polygon fill="midnightblue" stroke="midnightblue" points="80.8309,-211.782 74.739,-220.45 84.9069,-217.473 80.8309,-211.782"/>
</g>
<!-- Node4 -->
<g id="node4" class="node"><title>Node4</title>
<g id="a_node4"><a xlink:href="classmappel_1_1MCMCAdaptorBase.html" target="_top" xlink:title="mappel::MCMCAdaptorBase">
<polygon fill="white" stroke="black" points="145.5,-220.5 145.5,-238.5 279.5,-238.5 279.5,-220.5 145.5,-220.5"/>
<text text-anchor="middle" x="212.5" y="-227.3" font-family="Helvetica,sans-Serif" font-size="9.00">mappel::MCMCAdaptorBase</text>
</a>
</g>
</g>
<!-- Node4&#45;&gt;Node2 -->
<g id="edge3" class="edge"><title>Node4&#45;&gt;Node2</title>
<path fill="none" stroke="midnightblue" d="M192.677,-214.492C178.749,-204.649 160.602,-191.826 148.998,-183.625"/>
<polygon fill="midnightblue" stroke="midnightblue" points="190.923,-217.538 201.109,-220.45 194.962,-211.821 190.923,-217.538"/>
</g>
<!-- Node6 -->
<g id="node6" class="node"><title>Node6</title>
<g id="a_node6"><a xlink:href="classmappel_1_1Gauss1DsMAP.html" target="_top" xlink:title="A 1D Gaussian with variable PSF sigma under an Poisson read noise assumption and MAP Objective...">
<polygon fill="white" stroke="black" points="14.5,-0.5 14.5,-18.5 128.5,-18.5 128.5,-0.5 14.5,-0.5"/>
<text text-anchor="middle" x="71.5" y="-7.3" font-family="Helvetica,sans-Serif" font-size="9.00">mappel::Gauss1DsMAP</text>
</a>
</g>
</g>
<!-- Node5&#45;&gt;Node6 -->
<g id="edge5" class="edge"><title>Node5&#45;&gt;Node6</title>
<path fill="none" stroke="midnightblue" d="M119.351,-48.9259C107.193,-39.1622 91.6354,-26.6693 81.6183,-18.6253"/>
<polygon fill="midnightblue" stroke="midnightblue" points="117.487,-51.9181 127.476,-55.4504 121.87,-46.46 117.487,-51.9181"/>
</g>
<!-- Node7 -->
<g id="node7" class="node"><title>Node7</title>
<g id="a_node7"><a xlink:href="classmappel_1_1Gauss1DsMLE.html" target="_top" xlink:title="A 1D Gaussian with variable PSF under an Poisson noise assumption and maximum&#45;likelihood estimator...">
<polygon fill="white" stroke="black" points="147,-0.5 147,-18.5 260,-18.5 260,-0.5 147,-0.5"/>
<text text-anchor="middle" x="203.5" y="-7.3" font-family="Helvetica,sans-Serif" font-size="9.00">mappel::Gauss1DsMLE</text>
</a>
</g>
</g>
<!-- Node5&#45;&gt;Node7 -->
<g id="edge6" class="edge"><title>Node5&#45;&gt;Node7</title>
<path fill="none" stroke="midnightblue" d="M155.649,-48.9259C167.807,-39.1622 183.365,-26.6693 193.382,-18.6253"/>
<polygon fill="midnightblue" stroke="midnightblue" points="153.13,-46.46 147.524,-55.4504 157.513,-51.9181 153.13,-46.46"/>
</g>
</g>
</svg>
