<?xml version="1.0" encoding="UTF-8" standalone="no"?>
<!DOCTYPE svg PUBLIC "-//W3C//DTD SVG 1.1//EN"
 "http://www.w3.org/Graphics/SVG/1.1/DTD/svg11.dtd">
<!-- Generated by graphviz version 2.38.0 (20140413.2041)
 -->
<!-- Title: mappel::Gauss1DModel::Stencil::Stencil Pages: 1 -->
<!--zoomable 222 -->
<svg id="main" version="1.1" xmlns="http://www.w3.org/2000/svg" xmlns:xlink="http://www.w3.org/1999/xlink" xml:space="preserve" onload="init(evt)">
<style type="text/css"><![CDATA[
.edge:hover path { stroke: red; }
.edge:hover polygon { stroke: red; fill: red; }
]]></style>
<script type="text/javascript"><![CDATA[
var edges = document.getElementsByTagName('g');
if (edges && edges.length) {
  for (var i=0;i<edges.length;i++) {
    if (edges[i].id.substr(0,4)=='edge') {
      edges[i].setAttribute('class','edge');
    }
  }
}
]]></script>
        <defs>
                <circle id="rim" cx="0" cy="0" r="7"/>
                <circle id="rim2" cx="0" cy="0" r="3.5"/>
                <g id="zoomPlus">
                        <use xlink:href="#rim" fill="#404040">
                                <set attributeName="fill" to="#808080" begin="zoomplus.mouseover" end="zoomplus.mouseout"/>
                        </use>
                        <path d="M-4,0h8M0,-4v8" fill="none" stroke="white" stroke-width="1.5" pointer-events="none"/>
                </g>
                <g id="zoomMin">
                        <use xlink:href="#rim" fill="#404040">
                                <set attributeName="fill" to="#808080" begin="zoomminus.mouseover" end="zoomminus.mouseout"/>
                        </use>
                        <path d="M-4,0h8" fill="none" stroke="white" stroke-width="1.5" pointer-events="none"/>
                </g>
                <g id="dirArrow">
                        <path fill="none" stroke="white" stroke-width="1.5" d="M0,-3.0v7 M-2.5,-0.5L0,-3.0L2.5,-0.5"/>
                </g>
               <g id="resetDef">
                       <use xlink:href="#rim2" fill="#404040">
                               <set attributeName="fill" to="#808080" begin="reset.mouseover" end="reset.mouseout"/>
                       </use>
               </g>
        </defs>

<script type="text/javascript">
var viewWidth = 732;
var viewHeight = 222;
var sectionId = 'dynsection-3';
</script>
<script xlink:href="svgpan.js"/>
<svg id="graph" class="graph">
<g id="viewport">
<title>mappel::Gauss1DModel::Stencil::Stencil</title>
<polygon fill="white" stroke="none" points="-4,4 -4,-218 728,-218 728,4 -4,4"/>
<!-- Node1 -->
<g id="node1" class="node"><title>Node1</title>
<polygon fill="#bfbfbf" stroke="black" points="0,-60.5 0,-88.5 116,-88.5 116,-60.5 0,-60.5"/>
<text text-anchor="start" x="8" y="-77.3" font-family="Helvetica,sans-Serif" font-size="9.00">mappel::Gauss1DModel</text>
<text text-anchor="middle" x="58" y="-67.3" font-family="Helvetica,sans-Serif" font-size="9.00">::Stencil::Stencil</text>
</g>
<!-- Node2 -->
<g id="node2" class="node"><title>Node2</title>
<g id="a_node2"><a xlink:href="classmappel_1_1Gauss1DModel_1_1Stencil.html#a4bc1fdd7b3c4df021ac4a519c4e659f8" target="_top" xlink:title="mappel::Gauss1DModel\l::Stencil::compute_derivatives">
<polygon fill="white" stroke="black" points="152,-137.5 152,-165.5 290,-165.5 290,-137.5 152,-137.5"/>
<text text-anchor="start" x="160" y="-154.3" font-family="Helvetica,sans-Serif" font-size="9.00">mappel::Gauss1DModel</text>
<text text-anchor="middle" x="221" y="-144.3" font-family="Helvetica,sans-Serif" font-size="9.00">::Stencil::compute_derivatives</text>
</a>
</g>
</g>
<!-- Node1&#45;&gt;Node2 -->
<g id="edge1" class="edge"><title>Node1&#45;&gt;Node2</title>
<path fill="none" stroke="midnightblue" d="M88.5299,-88.623C114.629,-101.105 152.871,-119.395 181.39,-133.034"/>
<polygon fill="midnightblue" stroke="midnightblue" points="180.126,-136.309 190.657,-137.467 183.146,-129.994 180.126,-136.309"/>
</g>
<!-- Node10 -->
<g id="node10" class="node"><title>Node10</title>
<g id="a_node10"><a xlink:href="namespacemappel.html#ac9d449b0121b33962da2c9c13cbb593c" target="_top" xlink:title="mappel::make_d_stencil">
<polygon fill="white" stroke="black" points="163,-84.5 163,-102.5 279,-102.5 279,-84.5 163,-84.5"/>
<text text-anchor="middle" x="221" y="-91.3" font-family="Helvetica,sans-Serif" font-size="9.00">mappel::make_d_stencil</text>
</a>
</g>
</g>
<!-- Node1&#45;&gt;Node10 -->
<g id="edge10" class="edge"><title>Node1&#45;&gt;Node10</title>
<path fill="none" stroke="midnightblue" d="M116.216,-81.2522C128.079,-82.6521 140.68,-84.1392 152.86,-85.5767"/>
<polygon fill="midnightblue" stroke="midnightblue" points="152.627,-89.0734 162.968,-86.7696 153.447,-82.1216 152.627,-89.0734"/>
</g>
<!-- Node12 -->
<g id="node12" class="node"><title>Node12</title>
<g id="a_node12"><a xlink:href="namespacemappel.html#a7b50d0a17c085d9b25b91c2b17ecb1cc" target="_top" xlink:title="mappel::make_X_stencil">
<polygon fill="white" stroke="black" points="162.5,-47.5 162.5,-65.5 279.5,-65.5 279.5,-47.5 162.5,-47.5"/>
<text text-anchor="middle" x="221" y="-54.3" font-family="Helvetica,sans-Serif" font-size="9.00">mappel::make_X_stencil</text>
</a>
</g>
</g>
<!-- Node1&#45;&gt;Node12 -->
<g id="edge12" class="edge"><title>Node1&#45;&gt;Node12</title>
<path fill="none" stroke="midnightblue" d="M116.216,-68.1032C127.937,-66.7927 140.38,-65.4017 152.425,-64.0549"/>
<polygon fill="midnightblue" stroke="midnightblue" points="152.877,-67.5264 162.426,-62.9369 152.099,-60.5697 152.877,-67.5264"/>
</g>
<!-- Node14 -->
<g id="node14" class="node"><title>Node14</title>
<g id="a_node14"><a xlink:href="classmappel_1_1Gauss1DModel_1_1Stencil.html#a07ab730c1e3945631c8899a5289fffba" target="_top" xlink:title="mappel::Gauss1DModel\l::Stencil::x">
<polygon fill="white" stroke="black" points="163,-0.5 163,-28.5 279,-28.5 279,-0.5 163,-0.5"/>
<text text-anchor="start" x="171" y="-17.3" font-family="Helvetica,sans-Serif" font-size="9.00">mappel::Gauss1DModel</text>
<text text-anchor="middle" x="221" y="-7.3" font-family="Helvetica,sans-Serif" font-size="9.00">::Stencil::x</text>
</a>
</g>
</g>
<!-- Node1&#45;&gt;Node14 -->
<g id="edge14" class="edge"><title>Node1&#45;&gt;Node14</title>
<path fill="none" stroke="midnightblue" d="M93.2836,-60.3616C110.772,-53.2769 132.429,-44.6972 152,-37.5 157.117,-35.6181 162.472,-33.7077 167.832,-31.8334"/>
<polygon fill="midnightblue" stroke="midnightblue" points="169.131,-35.0878 177.439,-28.5129 166.844,-28.4719 169.131,-35.0878"/>
</g>
<!-- Node3 -->
<g id="node3" class="node"><title>Node3</title>
<g id="a_node3"><a xlink:href="namespacemappel.html#aa5c2f294298c875605ee1e9876b7d116" target="_top" xlink:title="mappel::make_G_stencil">
<polygon fill="white" stroke="black" points="332,-195.5 332,-213.5 450,-213.5 450,-195.5 332,-195.5"/>
<text text-anchor="middle" x="391" y="-202.3" font-family="Helvetica,sans-Serif" font-size="9.00">mappel::make_G_stencil</text>
</a>
</g>
</g>
<!-- Node2&#45;&gt;Node3 -->
<g id="edge2" class="edge"><title>Node2&#45;&gt;Node3</title>
<path fill="none" stroke="midnightblue" d="M262.346,-165.606C281.551,-172.185 304.884,-179.982 326,-186.5 332.669,-188.559 339.758,-190.649 346.697,-192.641"/>
<polygon fill="midnightblue" stroke="midnightblue" points="346.114,-196.114 356.689,-195.475 348.024,-189.379 346.114,-196.114"/>
</g>
<!-- Node6 -->
<g id="node6" class="node"><title>Node6</title>
<g id="a_node6"><a xlink:href="namespacemappel.html#a8da88490d6ff7d5886b96b66c1bab369" target="_top" xlink:title="mappel::make_DX_stencil">
<polygon fill="white" stroke="black" points="329,-158.5 329,-176.5 453,-176.5 453,-158.5 329,-158.5"/>
<text text-anchor="middle" x="391" y="-165.3" font-family="Helvetica,sans-Serif" font-size="9.00">mappel::make_DX_stencil</text>
</a>
</g>
</g>
<!-- Node2&#45;&gt;Node6 -->
<g id="edge5" class="edge"><title>Node2&#45;&gt;Node6</title>
<path fill="none" stroke="midnightblue" d="M290.332,-158.008C299.672,-158.897 309.28,-159.812 318.671,-160.707"/>
<polygon fill="midnightblue" stroke="midnightblue" points="318.467,-164.203 328.754,-161.667 319.131,-157.235 318.467,-164.203"/>
</g>
<!-- Node8 -->
<g id="node8" class="node"><title>Node8</title>
<g id="a_node8"><a xlink:href="namespacemappel.html#af7636db506977133c8b30d108fede711" target="_top" xlink:title="mappel::make_DXS_stencil">
<polygon fill="white" stroke="black" points="326,-121.5 326,-139.5 456,-139.5 456,-121.5 326,-121.5"/>
<text text-anchor="middle" x="391" y="-128.3" font-family="Helvetica,sans-Serif" font-size="9.00">mappel::make_DXS_stencil</text>
</a>
</g>
</g>
<!-- Node2&#45;&gt;Node8 -->
<g id="edge7" class="edge"><title>Node2&#45;&gt;Node8</title>
<path fill="none" stroke="midnightblue" d="M290.332,-142.958C298.663,-141.917 307.208,-140.849 315.622,-139.797"/>
<polygon fill="midnightblue" stroke="midnightblue" points="316.309,-143.239 325.797,-138.525 315.44,-136.293 316.309,-143.239"/>
</g>
<!-- Node4 -->
<g id="node4" class="node"><title>Node4</title>
<g id="a_node4"><a xlink:href="namespacemappel.html#a5ca82edc201e8605107a991493ad0d5e" target="_top" xlink:title="mappel::fill_G_stencil">
<polygon fill="white" stroke="black" points="498,-195.5 498,-213.5 602,-213.5 602,-195.5 498,-195.5"/>
<text text-anchor="middle" x="550" y="-202.3" font-family="Helvetica,sans-Serif" font-size="9.00">mappel::fill_G_stencil</text>
</a>
</g>
</g>
<!-- Node3&#45;&gt;Node4 -->
<g id="edge3" class="edge"><title>Node3&#45;&gt;Node4</title>
<path fill="none" stroke="midnightblue" d="M450.015,-204.5C462.299,-204.5 475.302,-204.5 487.703,-204.5"/>
<polygon fill="midnightblue" stroke="midnightblue" points="487.949,-208 497.949,-204.5 487.949,-201 487.949,-208"/>
</g>
<!-- Node5 -->
<g id="node5" class="node"><title>Node5</title>
<g id="a_node5"><a xlink:href="namespacemappel.html#a8475cdb3edacceb0ae215c3ebd1f33c1" target="_top" xlink:title="mappel::square">
<polygon fill="white" stroke="black" points="644,-158.5 644,-176.5 724,-176.5 724,-158.5 644,-158.5"/>
<text text-anchor="middle" x="684" y="-165.3" font-family="Helvetica,sans-Serif" font-size="9.00">mappel::square</text>
</a>
</g>
</g>
<!-- Node4&#45;&gt;Node5 -->
<g id="edge4" class="edge"><title>Node4&#45;&gt;Node5</title>
<path fill="none" stroke="midnightblue" d="M583.291,-195.449C600.63,-190.589 622.212,-184.539 640.858,-179.313"/>
<polygon fill="midnightblue" stroke="midnightblue" points="641.901,-182.655 650.585,-176.586 640.011,-175.915 641.901,-182.655"/>
</g>
<!-- Node7 -->
<g id="node7" class="node"><title>Node7</title>
<g id="a_node7"><a xlink:href="namespacemappel.html#ad2dd4330fc626fa673a3acf691d6b9a7" target="_top" xlink:title="mappel::fill_DX_stencil">
<polygon fill="white" stroke="black" points="495,-158.5 495,-176.5 605,-176.5 605,-158.5 495,-158.5"/>
<text text-anchor="middle" x="550" y="-165.3" font-family="Helvetica,sans-Serif" font-size="9.00">mappel::fill_DX_stencil</text>
</a>
</g>
</g>
<!-- Node6&#45;&gt;Node7 -->
<g id="edge6" class="edge"><title>Node6&#45;&gt;Node7</title>
<path fill="none" stroke="midnightblue" d="M453.15,-167.5C463.482,-167.5 474.236,-167.5 484.647,-167.5"/>
<polygon fill="midnightblue" stroke="midnightblue" points="484.915,-171 494.915,-167.5 484.915,-164 484.915,-171"/>
</g>
<!-- Node9 -->
<g id="node9" class="node"><title>Node9</title>
<g id="a_node9"><a xlink:href="namespacemappel.html#ab0cb62f6dcecae5ff19468d87a283e7a" target="_top" xlink:title="mappel::fill_DXS_stencil">
<polygon fill="white" stroke="black" points="492,-121.5 492,-139.5 608,-139.5 608,-121.5 492,-121.5"/>
<text text-anchor="middle" x="550" y="-128.3" font-family="Helvetica,sans-Serif" font-size="9.00">mappel::fill_DXS_stencil</text>
</a>
</g>
</g>
<!-- Node8&#45;&gt;Node9 -->
<g id="edge8" class="edge"><title>Node8&#45;&gt;Node9</title>
<path fill="none" stroke="midnightblue" d="M456.311,-130.5C464.619,-130.5 473.147,-130.5 481.504,-130.5"/>
<polygon fill="midnightblue" stroke="midnightblue" points="481.589,-134 491.589,-130.5 481.589,-127 481.589,-134"/>
</g>
<!-- Node9&#45;&gt;Node5 -->
<g id="edge9" class="edge"><title>Node9&#45;&gt;Node5</title>
<path fill="none" stroke="midnightblue" d="M583.291,-139.551C600.63,-144.411 622.212,-150.461 640.858,-155.687"/>
<polygon fill="midnightblue" stroke="midnightblue" points="640.011,-159.085 650.585,-158.414 641.901,-152.345 640.011,-159.085"/>
</g>
<!-- Node11 -->
<g id="node11" class="node"><title>Node11</title>
<g id="a_node11"><a xlink:href="namespacemappel.html#a0bd2fc62ed44e755a6777d1209fe6bac" target="_top" xlink:title="mappel::fill_d_stencil">
<polygon fill="white" stroke="black" points="339.5,-84.5 339.5,-102.5 442.5,-102.5 442.5,-84.5 339.5,-84.5"/>
<text text-anchor="middle" x="391" y="-91.3" font-family="Helvetica,sans-Serif" font-size="9.00">mappel::fill_d_stencil</text>
</a>
</g>
</g>
<!-- Node10&#45;&gt;Node11 -->
<g id="edge11" class="edge"><title>Node10&#45;&gt;Node11</title>
<path fill="none" stroke="midnightblue" d="M279.346,-93.5C295.331,-93.5 312.753,-93.5 328.943,-93.5"/>
<polygon fill="midnightblue" stroke="midnightblue" points="329.376,-97.0001 339.376,-93.5 329.376,-90.0001 329.376,-97.0001"/>
</g>
<!-- Node13 -->
<g id="node13" class="node"><title>Node13</title>
<g id="a_node13"><a xlink:href="namespacemappel.html#ab6a11cd06ff348138cb04635b03a6de2" target="_top" xlink:title="mappel::fill_X_stencil">
<polygon fill="white" stroke="black" points="339,-47.5 339,-65.5 443,-65.5 443,-47.5 339,-47.5"/>
<text text-anchor="middle" x="391" y="-54.3" font-family="Helvetica,sans-Serif" font-size="9.00">mappel::fill_X_stencil</text>
</a>
</g>
</g>
<!-- Node12&#45;&gt;Node13 -->
<g id="edge13" class="edge"><title>Node12&#45;&gt;Node13</title>
<path fill="none" stroke="midnightblue" d="M279.816,-56.5C295.544,-56.5 312.632,-56.5 328.553,-56.5"/>
<polygon fill="midnightblue" stroke="midnightblue" points="328.821,-60.0001 338.821,-56.5 328.821,-53.0001 328.821,-60.0001"/>
</g>
</g>
</svg>
        <g id="navigator" transform="translate(0 0)" fill="#404254">
                <rect fill="#f2f5e9" fill-opacity="0.5" stroke="#606060" stroke-width=".5" x="0" y="0" width="60" height="60"/>
                <use id="zoomplus" xlink:href="#zoomPlus" x="17" y="9" onmousedown="handleZoom(evt,'in')"/>
                <use id="zoomminus" xlink:href="#zoomMin" x="42" y="9" onmousedown="handleZoom(evt,'out')"/>
                <use id="reset" xlink:href="#resetDef" x="30" y="36" onmousedown="handleReset()"/>
                <g id="arrowUp" xlink:href="#dirArrow" transform="translate(30 24)" onmousedown="handlePan(0,-1)">
                  <use xlink:href="#rim" fill="#404040">
                        <set attributeName="fill" to="#808080" begin="arrowUp.mouseover" end="arrowUp.mouseout"/>
                  </use>
                  <path fill="none" stroke="white" stroke-width="1.5" d="M0,-3.0v7 M-2.5,-0.5L0,-3.0L2.5,-0.5"/>
                </g>
                <g id="arrowRight" xlink:href="#dirArrow" transform="rotate(90) translate(36 -43)" onmousedown="handlePan(1,0)">
                  <use xlink:href="#rim" fill="#404040">
                        <set attributeName="fill" to="#808080" begin="arrowRight.mouseover" end="arrowRight.mouseout"/>
                  </use>
                  <path fill="none" stroke="white" stroke-width="1.5" d="M0,-3.0v7 M-2.5,-0.5L0,-3.0L2.5,-0.5"/>
                </g>
                <g id="arrowDown" xlink:href="#dirArrow" transform="rotate(180) translate(-30 -48)" onmousedown="handlePan(0,1)">
                  <use xlink:href="#rim" fill="#404040">
                        <set attributeName="fill" to="#808080" begin="arrowDown.mouseover" end="arrowDown.mouseout"/>
                  </use>
                  <path fill="none" stroke="white" stroke-width="1.5" d="M0,-3.0v7 M-2.5,-0.5L0,-3.0L2.5,-0.5"/>
                </g>
                <g id="arrowLeft" xlink:href="#dirArrow" transform="rotate(270) translate(-36 17)" onmousedown="handlePan(-1,0)">
                  <use xlink:href="#rim" fill="#404040">
                        <set attributeName="fill" to="#808080" begin="arrowLeft.mouseover" end="arrowLeft.mouseout"/>
                  </use>
                  <path fill="none" stroke="white" stroke-width="1.5" d="M0,-3.0v7 M-2.5,-0.5L0,-3.0L2.5,-0.5"/>
                </g>
        </g>
        <svg viewBox="0 0 15 15" width="100%" height="30px" preserveAspectRatio="xMaxYMin meet">
         <g id="arrow_out" transform="scale(0.3 0.3)">
          <a xlink:href="classmappel_1_1Gauss1DModel_1_1Stencil_a6881e128436697dd57b41d20a1c8b56e_cgraph_org.svg" target="_base">
           <rect id="button" ry="5" rx="5" y="6" x="6" height="38" width="38"
                fill="#f2f5e9" fill-opacity="0.5" stroke="#606060" stroke-width="1.0"/>
           <path id="arrow"
             d="M 11.500037,31.436501 C 11.940474,20.09759 22.043105,11.32322 32.158766,21.979434 L 37.068811,17.246167 C 37.068811,17.246167 37.088388,32 37.088388,32 L 22.160133,31.978069 C 22.160133,31.978069 26.997745,27.140456 26.997745,27.140456 C 18.528582,18.264221 13.291696,25.230495 11.500037,31.436501 z"
             style="fill:#404040;"/>
          </a>
         </g>
        </svg>
</svg>
