<?xml version="1.0" encoding="UTF-8" standalone="no"?>
<!DOCTYPE svg PUBLIC "-//W3C//DTD SVG 1.1//EN"
 "http://www.w3.org/Graphics/SVG/1.1/DTD/svg11.dtd">
<!-- Generated by graphviz version 2.38.0 (20140413.2041)
 -->
<!-- Title: mappel::Gauss2DsModel::make_internal_1Dsum_estimator Pages: 1 -->
<svg width="488pt" height="208pt"
 viewBox="0.00 0.00 488.00 208.00" xmlns="http://www.w3.org/2000/svg" xmlns:xlink="http://www.w3.org/1999/xlink">
<g id="graph0" class="graph" transform="scale(1 1) rotate(0) translate(4 204)">
<title>mappel::Gauss2DsModel::make_internal_1Dsum_estimator</title>
<polygon fill="white" stroke="none" points="-4,4 -4,-204 484,-204 484,4 -4,4"/>
<!-- Node1 -->
<g id="node1" class="node"><title>Node1</title>
<polygon fill="#bfbfbf" stroke="black" points="0,-77.5 0,-115.5 120,-115.5 120,-77.5 0,-77.5"/>
<text text-anchor="start" x="8" y="-104.3" font-family="Helvetica,sans-Serif" font-size="9.00">mappel::Gauss2DsModel</text>
<text text-anchor="start" x="8" y="-94.3" font-family="Helvetica,sans-Serif" font-size="9.00">::make_internal_1Dsum</text>
<text text-anchor="middle" x="60" y="-84.3" font-family="Helvetica,sans-Serif" font-size="9.00">_estimator</text>
</g>
<!-- Node2 -->
<g id="node2" class="node"><title>Node2</title>
<g id="a_node2"><a xlink:href="classmappel_1_1Gauss1DsModel.html#a2022044169be5c62bba0db37c2352792" target="_top" xlink:title="mappel::Gauss1DsModel\l::make_prior_beta_position">
<polygon fill="white" stroke="black" points="161.5,-58.5 161.5,-86.5 289.5,-86.5 289.5,-58.5 161.5,-58.5"/>
<text text-anchor="start" x="169.5" y="-75.3" font-family="Helvetica,sans-Serif" font-size="9.00">mappel::Gauss1DsModel</text>
<text text-anchor="middle" x="225.5" y="-65.3" font-family="Helvetica,sans-Serif" font-size="9.00">::make_prior_beta_position</text>
</a>
</g>
</g>
<!-- Node1&#45;&gt;Node2 -->
<g id="edge1" class="edge"><title>Node1&#45;&gt;Node2</title>
<path fill="none" stroke="midnightblue" d="M120.027,-87.8354C130.217,-86.3397 140.918,-84.7689 151.426,-83.2265"/>
<polygon fill="midnightblue" stroke="midnightblue" points="152.033,-86.675 161.418,-81.7597 151.016,-79.7492 152.033,-86.675"/>
</g>
<!-- Node6 -->
<g id="node6" class="node"><title>Node6</title>
<g id="a_node6"><a xlink:href="classmappel_1_1Gauss1DsModel.html#a80bebfae37071515edfde5cd41ae375d" target="_top" xlink:title="mappel::Gauss1DsModel\l::make_prior_normal_position">
<polygon fill="white" stroke="black" points="156,-107.5 156,-135.5 295,-135.5 295,-107.5 156,-107.5"/>
<text text-anchor="start" x="164" y="-124.3" font-family="Helvetica,sans-Serif" font-size="9.00">mappel::Gauss1DsModel</text>
<text text-anchor="middle" x="225.5" y="-114.3" font-family="Helvetica,sans-Serif" font-size="9.00">::make_prior_normal_position</text>
</a>
</g>
</g>
<!-- Node1&#45;&gt;Node6 -->
<g id="edge5" class="edge"><title>Node1&#45;&gt;Node6</title>
<path fill="none" stroke="midnightblue" d="M120.027,-105.526C128.377,-106.802 137.07,-108.131 145.718,-109.454"/>
<polygon fill="midnightblue" stroke="midnightblue" points="145.413,-112.948 155.828,-111 146.471,-106.028 145.413,-112.948"/>
</g>
<!-- Node3 -->
<g id="node3" class="node"><title>Node3</title>
<g id="a_node3"><a xlink:href="classmappel_1_1PointEmitterModel.html#a4517e887a22007bd2e03650dcb853c92" target="_top" xlink:title="mappel::PointEmitterModel\l::make_prior_component\l_intensity">
<polygon fill="white" stroke="black" points="342,-104.5 342,-142.5 469,-142.5 469,-104.5 342,-104.5"/>
<text text-anchor="start" x="350" y="-131.3" font-family="Helvetica,sans-Serif" font-size="9.00">mappel::PointEmitterModel</text>
<text text-anchor="start" x="350" y="-121.3" font-family="Helvetica,sans-Serif" font-size="9.00">::make_prior_component</text>
<text text-anchor="middle" x="405.5" y="-111.3" font-family="Helvetica,sans-Serif" font-size="9.00">_intensity</text>
</a>
</g>
</g>
<!-- Node2&#45;&gt;Node3 -->
<g id="edge2" class="edge"><title>Node2&#45;&gt;Node3</title>
<path fill="none" stroke="midnightblue" d="M275.61,-86.571C293.049,-91.5673 313.063,-97.3018 332.038,-102.738"/>
<polygon fill="midnightblue" stroke="midnightblue" points="331.269,-106.159 341.847,-105.549 333.197,-99.4297 331.269,-106.159"/>
</g>
<!-- Node4 -->
<g id="node4" class="node"><title>Node4</title>
<g id="a_node4"><a xlink:href="classmappel_1_1PointEmitterModel.html#ad4d563dd11df8c3daf83890374807185" target="_top" xlink:title="mappel::PointEmitterModel\l::make_prior_component\l_position_beta">
<polygon fill="white" stroke="black" points="342,-0.5 342,-38.5 469,-38.5 469,-0.5 342,-0.5"/>
<text text-anchor="start" x="350" y="-27.3" font-family="Helvetica,sans-Serif" font-size="9.00">mappel::PointEmitterModel</text>
<text text-anchor="start" x="350" y="-17.3" font-family="Helvetica,sans-Serif" font-size="9.00">::make_prior_component</text>
<text text-anchor="middle" x="405.5" y="-7.3" font-family="Helvetica,sans-Serif" font-size="9.00">_position_beta</text>
</a>
</g>
</g>
<!-- Node2&#45;&gt;Node4 -->
<g id="edge3" class="edge"><title>Node2&#45;&gt;Node4</title>
<path fill="none" stroke="midnightblue" d="M273.733,-58.4361C291.701,-53.0862 312.606,-46.8616 332.361,-40.9796"/>
<polygon fill="midnightblue" stroke="midnightblue" points="333.363,-44.3332 341.948,-38.125 331.365,-37.6243 333.363,-44.3332"/>
</g>
<!-- Node5 -->
<g id="node5" class="node"><title>Node5</title>
<g id="a_node5"><a xlink:href="classmappel_1_1PointEmitterModel.html#a6fa9641db2d58329c5225e76427e3219" target="_top" xlink:title="mappel::PointEmitterModel\l::make_prior_component_sigma">
<polygon fill="white" stroke="black" points="331,-57.5 331,-85.5 480,-85.5 480,-57.5 331,-57.5"/>
<text text-anchor="start" x="339" y="-74.3" font-family="Helvetica,sans-Serif" font-size="9.00">mappel::PointEmitterModel</text>
<text text-anchor="middle" x="405.5" y="-64.3" font-family="Helvetica,sans-Serif" font-size="9.00">::make_prior_component_sigma</text>
</a>
</g>
</g>
<!-- Node2&#45;&gt;Node5 -->
<g id="edge4" class="edge"><title>Node2&#45;&gt;Node5</title>
<path fill="none" stroke="midnightblue" d="M289.507,-72.146C299.662,-72.089 310.313,-72.0291 320.863,-71.9699"/>
<polygon fill="midnightblue" stroke="midnightblue" points="320.947,-75.4696 330.927,-71.9133 320.908,-68.4697 320.947,-75.4696"/>
</g>
<!-- Node6&#45;&gt;Node3 -->
<g id="edge6" class="edge"><title>Node6&#45;&gt;Node3</title>
<path fill="none" stroke="midnightblue" d="M295.065,-122.27C307.077,-122.405 319.615,-122.546 331.736,-122.682"/>
<polygon fill="midnightblue" stroke="midnightblue" points="331.761,-126.183 341.8,-122.796 331.84,-119.183 331.761,-126.183"/>
</g>
<!-- Node6&#45;&gt;Node5 -->
<g id="edge8" class="edge"><title>Node6&#45;&gt;Node5</title>
<path fill="none" stroke="midnightblue" d="M276.557,-107.439C297.785,-101.476 322.696,-94.4786 344.868,-88.2504"/>
<polygon fill="midnightblue" stroke="midnightblue" points="345.83,-91.6158 354.511,-85.5419 343.937,-84.8767 345.83,-91.6158"/>
</g>
<!-- Node7 -->
<g id="node7" class="node"><title>Node7</title>
<g id="a_node7"><a xlink:href="classmappel_1_1PointEmitterModel.html#ab99350cf74097c558f7a93b79e7a44c3" target="_top" xlink:title="mappel::PointEmitterModel\l::make_prior_component\l_position_normal">
<polygon fill="white" stroke="black" points="342,-161.5 342,-199.5 469,-199.5 469,-161.5 342,-161.5"/>
<text text-anchor="start" x="350" y="-188.3" font-family="Helvetica,sans-Serif" font-size="9.00">mappel::PointEmitterModel</text>
<text text-anchor="start" x="350" y="-178.3" font-family="Helvetica,sans-Serif" font-size="9.00">::make_prior_component</text>
<text text-anchor="middle" x="405.5" y="-168.3" font-family="Helvetica,sans-Serif" font-size="9.00">_position_normal</text>
</a>
</g>
</g>
<!-- Node6&#45;&gt;Node7 -->
<g id="edge7" class="edge"><title>Node6&#45;&gt;Node7</title>
<path fill="none" stroke="midnightblue" d="M269.135,-135.632C289.564,-142.403 314.515,-150.673 337.404,-158.26"/>
<polygon fill="midnightblue" stroke="midnightblue" points="336.475,-161.64 347.068,-161.464 338.678,-154.995 336.475,-161.64"/>
</g>
</g>
</svg>
