<?xml version="1.0" encoding="UTF-8" standalone="no"?>
<!DOCTYPE svg PUBLIC "-//W3C//DTD SVG 1.1//EN"
 "http://www.w3.org/Graphics/SVG/1.1/DTD/svg11.dtd">
<!-- Generated by graphviz version 2.38.0 (20140413.2041)
 -->
<!-- Title: mappel::Gauss2DsModel::Stencil::sigmaX Pages: 1 -->
<svg width="458pt" height="217pt"
 viewBox="0.00 0.00 458.00 217.00" xmlns="http://www.w3.org/2000/svg" xmlns:xlink="http://www.w3.org/1999/xlink">
<g id="graph0" class="graph" transform="scale(1 1) rotate(0) translate(4 213)">
<title>mappel::Gauss2DsModel::Stencil::sigmaX</title>
<polygon fill="white" stroke="none" points="-4,4 -4,-213 454,-213 454,4 -4,4"/>
<!-- Node1 -->
<g id="node1" class="node"><title>Node1</title>
<polygon fill="#bfbfbf" stroke="black" points="0,-94.5 0,-122.5 120,-122.5 120,-94.5 0,-94.5"/>
<text text-anchor="start" x="8" y="-111.3" font-family="Helvetica,sans-Serif" font-size="9.00">mappel::Gauss2DsModel</text>
<text text-anchor="middle" x="60" y="-101.3" font-family="Helvetica,sans-Serif" font-size="9.00">::Stencil::sigmaX</text>
</g>
<!-- Node2 -->
<g id="node2" class="node"><title>Node2</title>
<g id="a_node2"><a xlink:href="classmappel_1_1Gauss2DsModel_1_1Stencil.html#ab11c806f8335bbafeb3db7476526680d" target="_top" xlink:title="mappel::Gauss2DsModel\l::Stencil::compute_derivatives">
<polygon fill="white" stroke="black" points="156,-180.5 156,-208.5 294,-208.5 294,-180.5 156,-180.5"/>
<text text-anchor="start" x="164" y="-197.3" font-family="Helvetica,sans-Serif" font-size="9.00">mappel::Gauss2DsModel</text>
<text text-anchor="middle" x="225" y="-187.3" font-family="Helvetica,sans-Serif" font-size="9.00">::Stencil::compute_derivatives</text>
</a>
</g>
</g>
<!-- Node1&#45;&gt;Node2 -->
<g id="edge1" class="edge"><title>Node1&#45;&gt;Node2</title>
<path fill="none" stroke="midnightblue" d="M91.2995,-128.136C109.664,-139.668 133.767,-154.157 156,-165.5 166.289,-170.749 177.748,-175.892 188.283,-180.354"/>
<polygon fill="midnightblue" stroke="midnightblue" points="93.0994,-125.133 82.7784,-122.74 89.354,-131.047 93.0994,-125.133"/>
</g>
<!-- Node3 -->
<g id="node3" class="node"><title>Node3</title>
<g id="a_node3"><a xlink:href="classmappel_1_1Gauss2DsModel_1_1Stencil.html#a924f5f8d4524831f1ef50041b85a842f" target="_top" xlink:title="mappel::Gauss2DsModel\l::Stencil::Stencil">
<polygon fill="white" stroke="black" points="330,-158.5 330,-186.5 450,-186.5 450,-158.5 330,-158.5"/>
<text text-anchor="start" x="338" y="-175.3" font-family="Helvetica,sans-Serif" font-size="9.00">mappel::Gauss2DsModel</text>
<text text-anchor="middle" x="390" y="-165.3" font-family="Helvetica,sans-Serif" font-size="9.00">::Stencil::Stencil</text>
</a>
</g>
</g>
<!-- Node1&#45;&gt;Node3 -->
<g id="edge6" class="edge"><title>Node1&#45;&gt;Node3</title>
<path fill="none" stroke="midnightblue" d="M123.415,-125C134.246,-127.653 145.425,-130.26 156,-132.5 214.823,-144.96 282.626,-156.259 329.867,-163.645"/>
<polygon fill="midnightblue" stroke="midnightblue" points="124.142,-121.574 113.593,-122.559 122.453,-128.367 124.142,-121.574"/>
</g>
<!-- Node4 -->
<g id="node4" class="node"><title>Node4</title>
<g id="a_node4"><a xlink:href="classmappel_1_1Gauss2DsModel.html#a3775c60f914e1873ecfcd67c64fbc1e8" target="_top" xlink:title="mappel::Gauss2DsModel\l::pixel_grad2">
<polygon fill="white" stroke="black" points="165,-94.5 165,-122.5 285,-122.5 285,-94.5 165,-94.5"/>
<text text-anchor="start" x="173" y="-111.3" font-family="Helvetica,sans-Serif" font-size="9.00">mappel::Gauss2DsModel</text>
<text text-anchor="middle" x="225" y="-101.3" font-family="Helvetica,sans-Serif" font-size="9.00">::pixel_grad2</text>
</a>
</g>
</g>
<!-- Node1&#45;&gt;Node4 -->
<g id="edge3" class="edge"><title>Node1&#45;&gt;Node4</title>
<path fill="none" stroke="midnightblue" d="M130.625,-108.5C141.984,-108.5 153.657,-108.5 164.736,-108.5"/>
<polygon fill="midnightblue" stroke="midnightblue" points="130.308,-105 120.308,-108.5 130.308,-112 130.308,-105"/>
</g>
<!-- Node5 -->
<g id="node5" class="node"><title>Node5</title>
<g id="a_node5"><a xlink:href="classmappel_1_1Gauss2DsModel.html#a4f80f81e88e02ce3be7c6e5052236ae2" target="_top" xlink:title="mappel::Gauss2DsModel\l::pixel_hess">
<polygon fill="white" stroke="black" points="165,-47.5 165,-75.5 285,-75.5 285,-47.5 165,-47.5"/>
<text text-anchor="start" x="173" y="-64.3" font-family="Helvetica,sans-Serif" font-size="9.00">mappel::Gauss2DsModel</text>
<text text-anchor="middle" x="225" y="-54.3" font-family="Helvetica,sans-Serif" font-size="9.00">::pixel_hess</text>
</a>
</g>
</g>
<!-- Node1&#45;&gt;Node5 -->
<g id="edge4" class="edge"><title>Node1&#45;&gt;Node5</title>
<path fill="none" stroke="midnightblue" d="M119.587,-91.6067C137.891,-86.329 157.872,-80.5675 175.41,-75.5106"/>
<polygon fill="midnightblue" stroke="midnightblue" points="118.544,-88.2648 109.905,-94.3985 120.484,-94.9908 118.544,-88.2648"/>
</g>
<!-- Node6 -->
<g id="node6" class="node"><title>Node6</title>
<g id="a_node6"><a xlink:href="classmappel_1_1Gauss2DsModel.html#abc9ec137a0cf5238a34b9c041e3fc3a5" target="_top" xlink:title="pixel derivative inner loop calculations. ">
<polygon fill="white" stroke="black" points="165,-0.5 165,-28.5 285,-28.5 285,-0.5 165,-0.5"/>
<text text-anchor="start" x="173" y="-17.3" font-family="Helvetica,sans-Serif" font-size="9.00">mappel::Gauss2DsModel</text>
<text text-anchor="middle" x="225" y="-7.3" font-family="Helvetica,sans-Serif" font-size="9.00">::pixel_hess_update</text>
</a>
</g>
</g>
<!-- Node1&#45;&gt;Node6 -->
<g id="edge5" class="edge"><title>Node1&#45;&gt;Node6</title>
<path fill="none" stroke="midnightblue" d="M85.0233,-87.6677C103.471,-72.4732 130.096,-52.2223 156,-38.5 162.97,-34.8079 170.627,-31.4795 178.212,-28.5594"/>
<polygon fill="midnightblue" stroke="midnightblue" points="82.5781,-85.15 77.1547,-94.2515 87.0701,-90.5187 82.5781,-85.15"/>
</g>
<!-- Node2&#45;&gt;Node3 -->
<g id="edge2" class="edge"><title>Node2&#45;&gt;Node3</title>
<path fill="none" stroke="midnightblue" d="M304.262,-183.937C312.886,-182.773 321.56,-181.602 329.894,-180.478"/>
<polygon fill="midnightblue" stroke="midnightblue" points="303.624,-180.491 294.182,-185.297 304.561,-187.428 303.624,-180.491"/>
</g>
</g>
</svg>
