<?xml version="1.0" encoding="UTF-8" standalone="no"?>
<!DOCTYPE svg PUBLIC "-//W3C//DTD SVG 1.1//EN"
 "http://www.w3.org/Graphics/SVG/1.1/DTD/svg11.dtd">
<!-- Generated by graphviz version 2.38.0 (20140413.2041)
 -->
<!-- Title: mappel::Gauss2DsModel::set_max_sigma Pages: 1 -->
<svg width="778pt" height="303pt"
 viewBox="0.00 0.00 778.00 303.00" xmlns="http://www.w3.org/2000/svg" xmlns:xlink="http://www.w3.org/1999/xlink">
<g id="graph0" class="graph" transform="scale(1 1) rotate(0) translate(4 299)">
<title>mappel::Gauss2DsModel::set_max_sigma</title>
<polygon fill="white" stroke="none" points="-4,4 -4,-299 774,-299 774,4 -4,4"/>
<!-- Node1 -->
<g id="node1" class="node"><title>Node1</title>
<polygon fill="#bfbfbf" stroke="black" points="0,-86.5 0,-114.5 120,-114.5 120,-86.5 0,-86.5"/>
<text text-anchor="start" x="8" y="-103.3" font-family="Helvetica,sans-Serif" font-size="9.00">mappel::Gauss2DsModel</text>
<text text-anchor="middle" x="60" y="-93.3" font-family="Helvetica,sans-Serif" font-size="9.00">::set_max_sigma</text>
</g>
<!-- Node2 -->
<g id="node2" class="node"><title>Node2</title>
<g id="a_node2"><a xlink:href="classmappel_1_1PointEmitterModel.html#a01ce8d6358acbd2575be519dff1df89b" target="_top" xlink:title="mappel::PointEmitterModel\l::check_psf_sigma">
<polygon fill="white" stroke="black" points="480,-266.5 480,-294.5 607,-294.5 607,-266.5 480,-266.5"/>
<text text-anchor="start" x="488" y="-283.3" font-family="Helvetica,sans-Serif" font-size="9.00">mappel::PointEmitterModel</text>
<text text-anchor="middle" x="543.5" y="-273.3" font-family="Helvetica,sans-Serif" font-size="9.00">::check_psf_sigma</text>
</a>
</g>
</g>
<!-- Node1&#45;&gt;Node2 -->
<g id="edge1" class="edge"><title>Node1&#45;&gt;Node2</title>
<path fill="none" stroke="midnightblue" d="M79.7864,-114.673C98.6001,-128.596 128.615,-150.079 156,-166.5 227.939,-209.638 243.872,-227.688 324,-252.5 371.181,-267.11 426.366,-274.105 469.472,-277.45"/>
<polygon fill="midnightblue" stroke="midnightblue" points="469.369,-280.952 479.596,-278.186 469.877,-273.97 469.369,-280.952"/>
</g>
<!-- Node3 -->
<g id="node3" class="node"><title>Node3</title>
<g id="a_node3"><a xlink:href="classmappel_1_1Gauss2DsModel.html#ad4bdfddccbc2a1053ac1f10199a4cb3b" target="_top" xlink:title="mappel::Gauss2DsModel\l::compute_max_sigma_ratio">
<polygon fill="white" stroke="black" points="156,-0.5 156,-28.5 288,-28.5 288,-0.5 156,-0.5"/>
<text text-anchor="start" x="164" y="-17.3" font-family="Helvetica,sans-Serif" font-size="9.00">mappel::Gauss2DsModel</text>
<text text-anchor="middle" x="222" y="-7.3" font-family="Helvetica,sans-Serif" font-size="9.00">::compute_max_sigma_ratio</text>
</a>
</g>
</g>
<!-- Node1&#45;&gt;Node3 -->
<g id="edge2" class="edge"><title>Node1&#45;&gt;Node3</title>
<path fill="none" stroke="midnightblue" d="M82.8339,-86.3681C101.816,-74.3337 130.239,-56.9125 156,-43.5 163.013,-39.8487 170.581,-36.211 177.988,-32.8082"/>
<polygon fill="midnightblue" stroke="midnightblue" points="179.554,-35.9416 187.231,-28.6402 176.676,-29.5604 179.554,-35.9416"/>
</g>
<!-- Node4 -->
<g id="node4" class="node"><title>Node4</title>
<g id="a_node4"><a xlink:href="classmappel_1_1Gauss2DsModel.html#af93a5f984a97e23ae1d371c980e48a41" target="_top" xlink:title="mappel::Gauss2DsModel\l::get_min_sigma">
<polygon fill="white" stroke="black" points="483.5,-39.5 483.5,-67.5 603.5,-67.5 603.5,-39.5 483.5,-39.5"/>
<text text-anchor="start" x="491.5" y="-56.3" font-family="Helvetica,sans-Serif" font-size="9.00">mappel::Gauss2DsModel</text>
<text text-anchor="middle" x="543.5" y="-46.3" font-family="Helvetica,sans-Serif" font-size="9.00">::get_min_sigma</text>
</a>
</g>
</g>
<!-- Node1&#45;&gt;Node4 -->
<g id="edge3" class="edge"><title>Node1&#45;&gt;Node4</title>
<path fill="none" stroke="midnightblue" d="M120.041,-94.7369C209.326,-86.0216 378.328,-69.5251 473.277,-60.257"/>
<polygon fill="midnightblue" stroke="midnightblue" points="473.74,-63.7285 483.353,-59.2734 473.06,-56.7616 473.74,-63.7285"/>
</g>
<!-- Node5 -->
<g id="node5" class="node"><title>Node5</title>
<g id="a_node5"><a xlink:href="classmappel_1_1Gauss2DsModel.html#a85925eaef6d69c5f6b3ceeae3364dd68" target="_top" xlink:title="mappel::Gauss2DsModel\l::set_max_sigma_ratio">
<polygon fill="white" stroke="black" points="162,-129.5 162,-157.5 282,-157.5 282,-129.5 162,-129.5"/>
<text text-anchor="start" x="170" y="-146.3" font-family="Helvetica,sans-Serif" font-size="9.00">mappel::Gauss2DsModel</text>
<text text-anchor="middle" x="222" y="-136.3" font-family="Helvetica,sans-Serif" font-size="9.00">::set_max_sigma_ratio</text>
</a>
</g>
</g>
<!-- Node1&#45;&gt;Node5 -->
<g id="edge4" class="edge"><title>Node1&#45;&gt;Node5</title>
<path fill="none" stroke="midnightblue" d="M113.39,-114.58C127.969,-118.498 143.941,-122.79 159.014,-126.841"/>
<polygon fill="midnightblue" stroke="midnightblue" points="158.2,-130.247 168.766,-129.462 160.017,-123.486 158.2,-130.247"/>
</g>
<!-- Node6 -->
<g id="node6" class="node"><title>Node6</title>
<g id="a_node6"><a xlink:href="classmappel_1_1Gauss2DsModel.html#a11f03c648095b6d7dd5c38c3a5eca2dc" target="_top" xlink:title="mappel::Gauss2DsModel\l::get_max_sigma">
<polygon fill="white" stroke="black" points="324,-86.5 324,-114.5 444,-114.5 444,-86.5 324,-86.5"/>
<text text-anchor="start" x="332" y="-103.3" font-family="Helvetica,sans-Serif" font-size="9.00">mappel::Gauss2DsModel</text>
<text text-anchor="middle" x="384" y="-93.3" font-family="Helvetica,sans-Serif" font-size="9.00">::get_max_sigma</text>
</a>
</g>
</g>
<!-- Node5&#45;&gt;Node6 -->
<g id="edge5" class="edge"><title>Node5&#45;&gt;Node6</title>
<path fill="none" stroke="midnightblue" d="M275.39,-129.42C289.969,-125.502 305.941,-121.21 321.014,-117.159"/>
<polygon fill="midnightblue" stroke="midnightblue" points="322.017,-120.514 330.766,-114.538 320.2,-113.753 322.017,-120.514"/>
</g>
<!-- Node8 -->
<g id="node8" class="node"><title>Node8</title>
<g id="a_node8"><a xlink:href="classmappel_1_1PointEmitterModel.html#a0dfb473c48d177a4540d328abb03cd55" target="_top" xlink:title="mappel::PointEmitterModel\l::get_ubound">
<polygon fill="white" stroke="black" points="643,-107.5 643,-135.5 770,-135.5 770,-107.5 643,-107.5"/>
<text text-anchor="start" x="651" y="-124.3" font-family="Helvetica,sans-Serif" font-size="9.00">mappel::PointEmitterModel</text>
<text text-anchor="middle" x="706.5" y="-114.3" font-family="Helvetica,sans-Serif" font-size="9.00">::get_ubound</text>
</a>
</g>
</g>
<!-- Node5&#45;&gt;Node8 -->
<g id="edge9" class="edge"><title>Node5&#45;&gt;Node8</title>
<path fill="none" stroke="midnightblue" d="M282.164,-140.802C370.542,-136.773 536.863,-129.189 632.614,-124.823"/>
<polygon fill="midnightblue" stroke="midnightblue" points="632.963,-128.311 642.793,-124.359 632.644,-121.318 632.963,-128.311"/>
</g>
<!-- Node9 -->
<g id="node9" class="node"><title>Node9</title>
<g id="a_node9"><a xlink:href="classmappel_1_1Gauss1DsModel.html#abcaaecd43be1f8c005b65e74482a7d86" target="_top" xlink:title="mappel::Gauss1DsModel\l::set_max_sigma">
<polygon fill="white" stroke="black" points="324,-215.5 324,-243.5 444,-243.5 444,-215.5 324,-215.5"/>
<text text-anchor="start" x="332" y="-232.3" font-family="Helvetica,sans-Serif" font-size="9.00">mappel::Gauss1DsModel</text>
<text text-anchor="middle" x="384" y="-222.3" font-family="Helvetica,sans-Serif" font-size="9.00">::set_max_sigma</text>
</a>
</g>
</g>
<!-- Node5&#45;&gt;Node9 -->
<g id="edge10" class="edge"><title>Node5&#45;&gt;Node9</title>
<path fill="none" stroke="midnightblue" d="M249.063,-157.509C276.027,-172.002 318.292,-194.719 348.121,-210.752"/>
<polygon fill="midnightblue" stroke="midnightblue" points="346.483,-213.846 356.948,-215.497 349.797,-207.68 346.483,-213.846"/>
</g>
<!-- Node11 -->
<g id="node11" class="node"><title>Node11</title>
<g id="a_node11"><a xlink:href="classmappel_1_1PointEmitterModel.html#a7363961cc405e585b39e81a7ad85c8d6" target="_top" xlink:title="mappel::PointEmitterModel\l::set_ubound">
<polygon fill="white" stroke="black" points="480,-172.5 480,-200.5 607,-200.5 607,-172.5 480,-172.5"/>
<text text-anchor="start" x="488" y="-189.3" font-family="Helvetica,sans-Serif" font-size="9.00">mappel::PointEmitterModel</text>
<text text-anchor="middle" x="543.5" y="-179.3" font-family="Helvetica,sans-Serif" font-size="9.00">::set_ubound</text>
</a>
</g>
</g>
<!-- Node5&#45;&gt;Node11 -->
<g id="edge14" class="edge"><title>Node5&#45;&gt;Node11</title>
<path fill="none" stroke="midnightblue" d="M282.007,-151.738C295.785,-153.645 310.405,-155.656 324,-157.5 372.62,-164.096 427.35,-171.36 469.872,-176.968"/>
<polygon fill="midnightblue" stroke="midnightblue" points="469.483,-180.446 479.854,-178.283 470.397,-173.506 469.483,-180.446"/>
</g>
<!-- Node6&#45;&gt;Node4 -->
<g id="edge8" class="edge"><title>Node6&#45;&gt;Node4</title>
<path fill="none" stroke="midnightblue" d="M432.255,-86.3985C449.151,-81.3565 468.363,-75.6234 485.963,-70.3714"/>
<polygon fill="midnightblue" stroke="midnightblue" points="486.968,-73.724 495.55,-67.5106 484.966,-67.0163 486.968,-73.724"/>
</g>
<!-- Node7 -->
<g id="node7" class="node"><title>Node7</title>
<g id="a_node7"><a xlink:href="classmappel_1_1Gauss2DsModel.html#a46da2752c2d1ca376b72d910818e47ae" target="_top" xlink:title="mappel::Gauss2DsModel\l::get_max_sigma_ratio">
<polygon fill="white" stroke="black" points="483.5,-86.5 483.5,-114.5 603.5,-114.5 603.5,-86.5 483.5,-86.5"/>
<text text-anchor="start" x="491.5" y="-103.3" font-family="Helvetica,sans-Serif" font-size="9.00">mappel::Gauss2DsModel</text>
<text text-anchor="middle" x="543.5" y="-93.3" font-family="Helvetica,sans-Serif" font-size="9.00">::get_max_sigma_ratio</text>
</a>
</g>
</g>
<!-- Node6&#45;&gt;Node7 -->
<g id="edge6" class="edge"><title>Node6&#45;&gt;Node7</title>
<path fill="none" stroke="midnightblue" d="M444.095,-100.5C453.619,-100.5 463.551,-100.5 473.287,-100.5"/>
<polygon fill="midnightblue" stroke="midnightblue" points="473.336,-104 483.336,-100.5 473.335,-97.0001 473.336,-104"/>
</g>
<!-- Node7&#45;&gt;Node8 -->
<g id="edge7" class="edge"><title>Node7&#45;&gt;Node8</title>
<path fill="none" stroke="midnightblue" d="M603.536,-108.2C613.061,-109.443 623.018,-110.742 632.82,-112.02"/>
<polygon fill="midnightblue" stroke="midnightblue" points="632.584,-115.519 642.953,-113.342 633.489,-108.578 632.584,-115.519"/>
</g>
<!-- Node9&#45;&gt;Node2 -->
<g id="edge11" class="edge"><title>Node9&#45;&gt;Node2</title>
<path fill="none" stroke="midnightblue" d="M428.454,-243.571C447.391,-249.703 469.76,-256.946 489.649,-263.386"/>
<polygon fill="midnightblue" stroke="midnightblue" points="488.595,-266.724 499.187,-266.475 490.752,-260.064 488.595,-266.724"/>
</g>
<!-- Node10 -->
<g id="node10" class="node"><title>Node10</title>
<g id="a_node10"><a xlink:href="classmappel_1_1Gauss1DsModel.html#ab77513553950b5fa5e3c8254b75a564e" target="_top" xlink:title="mappel::Gauss1DsModel\l::get_min_sigma">
<polygon fill="white" stroke="black" points="483.5,-219.5 483.5,-247.5 603.5,-247.5 603.5,-219.5 483.5,-219.5"/>
<text text-anchor="start" x="491.5" y="-236.3" font-family="Helvetica,sans-Serif" font-size="9.00">mappel::Gauss1DsModel</text>
<text text-anchor="middle" x="543.5" y="-226.3" font-family="Helvetica,sans-Serif" font-size="9.00">::get_min_sigma</text>
</a>
</g>
</g>
<!-- Node9&#45;&gt;Node10 -->
<g id="edge12" class="edge"><title>Node9&#45;&gt;Node10</title>
<path fill="none" stroke="midnightblue" d="M444.095,-231.001C453.619,-231.243 463.551,-231.495 473.287,-231.742"/>
<polygon fill="midnightblue" stroke="midnightblue" points="473.25,-235.242 483.336,-231.997 473.428,-228.245 473.25,-235.242"/>
</g>
<!-- Node9&#45;&gt;Node11 -->
<g id="edge13" class="edge"><title>Node9&#45;&gt;Node11</title>
<path fill="none" stroke="midnightblue" d="M436.571,-215.42C450.785,-211.54 466.346,-207.291 481.059,-203.274"/>
<polygon fill="midnightblue" stroke="midnightblue" points="482.357,-206.548 491.082,-200.538 480.513,-199.795 482.357,-206.548"/>
</g>
</g>
</svg>
