<?xml version="1.0" encoding="UTF-8" standalone="no"?>
<!DOCTYPE svg PUBLIC "-//W3C//DTD SVG 1.1//EN"
 "http://www.w3.org/Graphics/SVG/1.1/DTD/svg11.dtd">
<!-- Generated by graphviz version 2.38.0 (20140413.2041)
 -->
<!-- Title: mappel::Gauss2DsxyMAP Pages: 1 -->
<svg width="1217pt" height="308pt"
 viewBox="0.00 0.00 1217.00 307.78" xmlns="http://www.w3.org/2000/svg" xmlns:xlink="http://www.w3.org/1999/xlink">
<g id="graph0" class="graph" transform="scale(1 1) rotate(0) translate(4 303.782)">
<title>mappel::Gauss2DsxyMAP</title>
<polygon fill="white" stroke="none" points="-4,4 -4,-303.782 1213,-303.782 1213,4 -4,4"/>
<!-- Node1 -->
<g id="node1" class="node"><title>Node1</title>
<polygon fill="#bfbfbf" stroke="black" points="1086,-45.7819 1086,-63.7819 1209,-63.7819 1209,-45.7819 1086,-45.7819"/>
<text text-anchor="middle" x="1147.5" y="-52.5819" font-family="Helvetica,sans-Serif" font-size="9.00">mappel::Gauss2DsxyMAP</text>
</g>
<!-- Node2 -->
<g id="node2" class="node"><title>Node2</title>
<g id="a_node2"><a xlink:href="classmappel_1_1Gauss1DModel.html" target="_top" xlink:title="A base class for 1D Gaussian PSF with a fixed sigma (standard dev.) ">
<polygon fill="white" stroke="black" points="911.5,-173.782 911.5,-191.782 1027.5,-191.782 1027.5,-173.782 911.5,-173.782"/>
<text text-anchor="middle" x="969.5" y="-180.582" font-family="Helvetica,sans-Serif" font-size="9.00">mappel::Gauss1DModel</text>
</a>
</g>
</g>
<!-- Node2&#45;&gt;Node1 -->
<g id="edge1" class="edge"><title>Node2&#45;&gt;Node1</title>
<path fill="none" stroke="midnightblue" d="M991.37,-167.604C1028.27,-140.768 1103.96,-85.7227 1133.9,-63.944"/>
<polygon fill="midnightblue" stroke="midnightblue" points="988.905,-165.069 982.876,-173.781 993.022,-170.73 988.905,-165.069"/>
</g>
<!-- Node3 -->
<g id="node3" class="node"><title>Node3</title>
<g id="a_node3"><a xlink:href="classmappel_1_1PointEmitterModel.html" target="_top" xlink:title="A virtual Base type for point emitter localization models. ">
<polygon fill="white" stroke="black" points="366.5,-181.782 366.5,-199.782 493.5,-199.782 493.5,-181.782 366.5,-181.782"/>
<text text-anchor="middle" x="430" y="-188.582" font-family="Helvetica,sans-Serif" font-size="9.00">mappel::PointEmitterModel</text>
</a>
</g>
</g>
<!-- Node3&#45;&gt;Node2 -->
<g id="edge2" class="edge"><title>Node3&#45;&gt;Node2</title>
<path fill="none" stroke="midnightblue" d="M503.89,-189.949C591.339,-188.913 742.389,-187.007 872,-184.782 884.733,-184.563 898.411,-184.298 911.351,-184.034"/>
<polygon fill="midnightblue" stroke="midnightblue" points="503.765,-186.45 493.807,-190.068 503.848,-193.45 503.765,-186.45"/>
</g>
<!-- Node8 -->
<g id="node8" class="node"><title>Node8</title>
<g id="a_node8"><a xlink:href="classmappel_1_1MCMCAdaptor1D.html" target="_top" xlink:title="mappel::MCMCAdaptor1D">
<polygon fill="white" stroke="black" points="612,-227.782 612,-245.782 737,-245.782 737,-227.782 612,-227.782"/>
<text text-anchor="middle" x="674.5" y="-234.582" font-family="Helvetica,sans-Serif" font-size="9.00">mappel::MCMCAdaptor1D</text>
</a>
</g>
</g>
<!-- Node3&#45;&gt;Node8 -->
<g id="edge8" class="edge"><title>Node3&#45;&gt;Node8</title>
<path fill="none" stroke="midnightblue" d="M488.683,-201.724C530.598,-209.675 586.644,-220.306 625.988,-227.769"/>
<polygon fill="midnightblue" stroke="midnightblue" points="489.098,-198.24 478.621,-199.815 487.793,-205.118 489.098,-198.24"/>
</g>
<!-- Node14 -->
<g id="node14" class="node"><title>Node14</title>
<g id="a_node14"><a xlink:href="classmappel_1_1MAPEstimator.html" target="_top" xlink:title="A Mixin class to configure a for MLE estimation (null prior). ">
<polygon fill="white" stroke="black" points="762,-30.7819 762,-48.7819 872,-48.7819 872,-30.7819 762,-30.7819"/>
<text text-anchor="middle" x="817" y="-37.5819" font-family="Helvetica,sans-Serif" font-size="9.00">mappel::MAPEstimator</text>
</a>
</g>
</g>
<!-- Node3&#45;&gt;Node14 -->
<g id="edge19" class="edge"><title>Node3&#45;&gt;Node14</title>
<path fill="none" stroke="midnightblue" d="M456.337,-176.956C497.12,-154.826 575.708,-112.721 605,-100.782 672.569,-73.2418 691.609,-71.9963 762,-52.7819 766.93,-51.4361 772.134,-50.0903 777.286,-48.8022"/>
<polygon fill="midnightblue" stroke="midnightblue" points="454.651,-173.889 447.537,-181.74 457.994,-180.039 454.651,-173.889"/>
</g>
<!-- Node4 -->
<g id="node4" class="node"><title>Node4</title>
<polygon fill="white" stroke="#bfbfbf" points="125,-181.782 125,-199.782 202,-199.782 202,-181.782 125,-181.782"/>
<text text-anchor="middle" x="163.5" y="-188.582" font-family="Helvetica,sans-Serif" font-size="9.00">CompositeDist</text>
</g>
<!-- Node4&#45;&gt;Node3 -->
<g id="edge3" class="edge"><title>Node4&#45;&gt;Node3</title>
<path fill="none" stroke="#9a32cd" stroke-dasharray="5,2" d="M212.337,-190.782C255.441,-190.782 319.098,-190.782 366.268,-190.782"/>
<polygon fill="#9a32cd" stroke="#9a32cd" points="212.116,-187.282 202.116,-190.782 212.115,-194.282 212.116,-187.282"/>
<text text-anchor="middle" x="282.5" y="-193.582" font-family="Helvetica,sans-Serif" font-size="9.00"> prior</text>
</g>
<!-- Node5 -->
<g id="node5" class="node"><title>Node5</title>
<g id="a_node5"><a xlink:title="STL class. ">
<polygon fill="white" stroke="#bfbfbf" points="135.5,-102.782 135.5,-120.782 191.5,-120.782 191.5,-102.782 135.5,-102.782"/>
<text text-anchor="middle" x="163.5" y="-109.582" font-family="Helvetica,sans-Serif" font-size="9.00">std::string</text>
</a>
</g>
</g>
<!-- Node5&#45;&gt;Node1 -->
<g id="edge20" class="edge"><title>Node5&#45;&gt;Node1</title>
<path fill="none" stroke="#9a32cd" stroke-dasharray="5,2" d="M177.695,-94.5992C193.646,-73.8708 218.554,-41.6648 220,-40.7819 300.716,8.50678 334.425,-0.781899 429,-0.781899 429,-0.781899 429,-0.781899 970.5,-0.781899 1030.91,-0.781899 1098.05,-30.2151 1129.06,-45.6215"/>
<polygon fill="#9a32cd" stroke="#9a32cd" points="174.821,-92.5941 171.501,-102.655 180.371,-96.8606 174.821,-92.5941"/>
<text text-anchor="middle" x="674.5" y="-3.5819" font-family="Helvetica,sans-Serif" font-size="9.00"> name</text>
</g>
<!-- Node5&#45;&gt;Node2 -->
<g id="edge10" class="edge"><title>Node5&#45;&gt;Node2</title>
<path fill="none" stroke="#9a32cd" stroke-dasharray="5,2" d="M175.984,-129.54C183.554,-141.393 193.587,-157.389 202,-171.782 210.431,-186.205 207.432,-193.774 220,-204.782 271.225,-249.647 296.05,-247.351 363,-259.782 585.668,-301.126 657.368,-308.055 872,-235.782 903.882,-225.046 937.537,-204.021 955.459,-191.929"/>
<polygon fill="#9a32cd" stroke="#9a32cd" points="178.868,-127.553 170.519,-121.031 172.978,-131.336 178.868,-127.553"/>
<text text-anchor="middle" x="551" y="-292.582" font-family="Helvetica,sans-Serif" font-size="9.00"> DefaultPriorType</text>
</g>
<!-- Node5&#45;&gt;Node3 -->
<g id="edge4" class="edge"><title>Node5&#45;&gt;Node3</title>
<path fill="none" stroke="#9a32cd" stroke-dasharray="5,2" d="M201.433,-122.813C254.1,-138.543 349.796,-167.125 398.604,-181.703"/>
<polygon fill="#9a32cd" stroke="#9a32cd" points="202.393,-119.447 191.81,-119.939 200.39,-126.154 202.393,-119.447"/>
<text text-anchor="middle" x="282.5" y="-168.582" font-family="Helvetica,sans-Serif" font-size="9.00"> DefaultSeperableInitEstimator</text>
</g>
<!-- Node13 -->
<g id="node13" class="node"><title>Node13</title>
<polygon fill="white" stroke="#bfbfbf" points="618.5,-29.7819 618.5,-47.7819 730.5,-47.7819 730.5,-29.7819 618.5,-29.7819"/>
<text text-anchor="middle" x="674.5" y="-36.5819" font-family="Helvetica,sans-Serif" font-size="9.00">std::vector&lt; std::string &gt;</text>
</g>
<!-- Node5&#45;&gt;Node13 -->
<g id="edge16" class="edge"><title>Node5&#45;&gt;Node13</title>
<path fill="none" stroke="#9a32cd" stroke-dasharray="5,2" d="M201.987,-107.867C275.897,-99.9346 445.531,-80.674 587,-56.7819 602.125,-54.2275 618.632,-50.9222 633.134,-47.8423"/>
<polygon fill="#9a32cd" stroke="#9a32cd" points="201.365,-104.413 191.792,-108.954 202.107,-111.374 201.365,-104.413"/>
<text text-anchor="middle" x="430" y="-92.5819" font-family="Helvetica,sans-Serif" font-size="9.00"> elements</text>
</g>
<!-- Node6 -->
<g id="node6" class="node"><title>Node6</title>
<g id="a_node6"><a xlink:title="STL class. ">
<polygon fill="white" stroke="#bfbfbf" points="0,-97.7819 0,-125.782 88,-125.782 88,-97.7819 0,-97.7819"/>
<text text-anchor="start" x="8" y="-114.582" font-family="Helvetica,sans-Serif" font-size="9.00">std::basic_string&lt;</text>
<text text-anchor="middle" x="44" y="-104.582" font-family="Helvetica,sans-Serif" font-size="9.00"> char &gt;</text>
</a>
</g>
</g>
<!-- Node6&#45;&gt;Node5 -->
<g id="edge5" class="edge"><title>Node6&#45;&gt;Node5</title>
<path fill="none" stroke="midnightblue" d="M98.287,-111.782C111.161,-111.782 124.389,-111.782 135.467,-111.782"/>
<polygon fill="midnightblue" stroke="midnightblue" points="98.0855,-108.282 88.0855,-111.782 98.0854,-115.282 98.0855,-108.282"/>
</g>
<!-- Node7 -->
<g id="node7" class="node"><title>Node7</title>
<g id="a_node7"><a xlink:href="classmappel_1_1ImageFormat1DBase.html" target="_top" xlink:title="A virtual base class for 2D image localization objectives. ">
<polygon fill="white" stroke="black" points="605,-151.782 605,-169.782 744,-169.782 744,-151.782 605,-151.782"/>
<text text-anchor="middle" x="674.5" y="-158.582" font-family="Helvetica,sans-Serif" font-size="9.00">mappel::ImageFormat1DBase</text>
</a>
</g>
</g>
<!-- Node7&#45;&gt;Node2 -->
<g id="edge6" class="edge"><title>Node7&#45;&gt;Node2</title>
<path fill="none" stroke="midnightblue" d="M754.216,-166.692C803.657,-170.405 866.31,-175.109 911.077,-178.47"/>
<polygon fill="midnightblue" stroke="midnightblue" points="754.43,-163.199 744.195,-165.94 753.905,-170.179 754.43,-163.199"/>
</g>
<!-- Node12 -->
<g id="node12" class="node"><title>Node12</title>
<g id="a_node12"><a xlink:href="classmappel_1_1PoissonNoise1DObjective.html" target="_top" xlink:title="A base class for 1D objectives with Poisson read noise. This objective function and its subclasses ar...">
<polygon fill="white" stroke="black" points="890,-68.7819 890,-86.7819 1049,-86.7819 1049,-68.7819 890,-68.7819"/>
<text text-anchor="middle" x="969.5" y="-75.5819" font-family="Helvetica,sans-Serif" font-size="9.00">mappel::PoissonNoise1DObjective</text>
</a>
</g>
</g>
<!-- Node7&#45;&gt;Node12 -->
<g id="edge14" class="edge"><title>Node7&#45;&gt;Node12</title>
<path fill="none" stroke="midnightblue" d="M717.181,-148.975C776.339,-132.217 883.373,-101.896 936.625,-86.8112"/>
<polygon fill="midnightblue" stroke="midnightblue" points="716.081,-145.648 707.414,-151.741 717.989,-152.383 716.081,-145.648"/>
</g>
<!-- Node8&#45;&gt;Node2 -->
<g id="edge7" class="edge"><title>Node8&#45;&gt;Node2</title>
<path fill="none" stroke="midnightblue" d="M747.353,-231.133C784.784,-227.405 831.149,-221.552 872,-212.782 896.873,-207.442 924.528,-198.527 943.834,-191.8"/>
<polygon fill="midnightblue" stroke="midnightblue" points="746.662,-227.684 737.045,-232.129 747.335,-234.651 746.662,-227.684"/>
</g>
<!-- Node9 -->
<g id="node9" class="node"><title>Node9</title>
<g id="a_node9"><a xlink:href="classmappel_1_1MCMCAdaptorBase.html" target="_top" xlink:title="mappel::MCMCAdaptorBase">
<polygon fill="white" stroke="black" points="363,-231.782 363,-249.782 497,-249.782 497,-231.782 363,-231.782"/>
<text text-anchor="middle" x="430" y="-238.582" font-family="Helvetica,sans-Serif" font-size="9.00">mappel::MCMCAdaptorBase</text>
</a>
</g>
</g>
<!-- Node9&#45;&gt;Node8 -->
<g id="edge9" class="edge"><title>Node9&#45;&gt;Node8</title>
<path fill="none" stroke="midnightblue" d="M507.521,-239.52C541.169,-238.965 580.162,-238.321 611.895,-237.798"/>
<polygon fill="midnightblue" stroke="midnightblue" points="507.205,-236.024 497.264,-239.689 507.321,-243.023 507.205,-236.024"/>
</g>
<!-- Node10 -->
<g id="node10" class="node"><title>Node10</title>
<g id="a_node10"><a xlink:title="STL class. ">
<polygon fill="white" stroke="#bfbfbf" points="391,-35.7819 391,-53.7819 469,-53.7819 469,-35.7819 391,-35.7819"/>
<text text-anchor="middle" x="430" y="-42.5819" font-family="Helvetica,sans-Serif" font-size="9.00">std::vector&lt; T &gt;</text>
</a>
</g>
</g>
<!-- Node10&#45;&gt;Node2 -->
<g id="edge11" class="edge"><title>Node10&#45;&gt;Node2</title>
<path fill="none" stroke="#9a32cd" stroke-dasharray="5,2" d="M476.215,-56.3905C581.002,-83.2941 838.7,-149.457 933.103,-173.694"/>
<polygon fill="#9a32cd" stroke="#9a32cd" points="476.823,-52.9333 466.267,-53.8365 475.082,-59.7134 476.823,-52.9333"/>
<text text-anchor="middle" x="674.5" y="-126.582" font-family="Helvetica,sans-Serif" font-size="9.00"> prior_types</text>
</g>
<!-- Node10&#45;&gt;Node13 -->
<g id="edge17" class="edge"><title>Node10&#45;&gt;Node13</title>
<path fill="none" stroke="orange" stroke-dasharray="5,2" d="M479.232,-43.5885C519.37,-42.5954 576.521,-41.1814 618.446,-40.1441"/>
<polygon fill="orange" stroke="orange" points="479.068,-40.0914 469.157,-43.8378 479.241,-47.0893 479.068,-40.0914"/>
<text text-anchor="middle" x="551" y="-45.5819" font-family="Helvetica,sans-Serif" font-size="9.00"> &lt; std::string &gt;</text>
</g>
<!-- Node11 -->
<g id="node11" class="node"><title>Node11</title>
<polygon fill="white" stroke="#bfbfbf" points="149,-35.7819 149,-53.7819 178,-53.7819 178,-35.7819 149,-35.7819"/>
<text text-anchor="middle" x="163.5" y="-42.5819" font-family="Helvetica,sans-Serif" font-size="9.00">T</text>
</g>
<!-- Node11&#45;&gt;Node10 -->
<g id="edge12" class="edge"><title>Node11&#45;&gt;Node10</title>
<path fill="none" stroke="#9a32cd" stroke-dasharray="5,2" d="M188.568,-44.7819C234.64,-44.7819 335.622,-44.7819 390.93,-44.7819"/>
<polygon fill="#9a32cd" stroke="#9a32cd" points="188.348,-41.282 178.348,-44.7819 188.348,-48.282 188.348,-41.282"/>
<text text-anchor="middle" x="282.5" y="-47.5819" font-family="Helvetica,sans-Serif" font-size="9.00"> elements</text>
</g>
<!-- Node12&#45;&gt;Node1 -->
<g id="edge13" class="edge"><title>Node12&#45;&gt;Node1</title>
<path fill="none" stroke="midnightblue" d="M1049.7,-67.4322C1061.86,-65.8426 1074.25,-64.2235 1085.93,-62.6978"/>
<polygon fill="midnightblue" stroke="midnightblue" points="1049.02,-63.9913 1039.55,-68.7577 1049.92,-70.9323 1049.02,-63.9913"/>
</g>
<!-- Node13&#45;&gt;Node12 -->
<g id="edge15" class="edge"><title>Node13&#45;&gt;Node12</title>
<path fill="none" stroke="#9a32cd" stroke-dasharray="5,2" d="M741.134,-47.9422C748.177,-48.9087 755.236,-49.8706 762,-50.7819 807.328,-56.8892 858.281,-63.5535 898.232,-68.7331"/>
<polygon fill="#9a32cd" stroke="#9a32cd" points="741.249,-44.4251 730.865,-46.5283 740.294,-51.3597 741.249,-44.4251"/>
<text text-anchor="middle" x="817" y="-68.5819" font-family="Helvetica,sans-Serif" font-size="9.00"> estimator_names</text>
</g>
<!-- Node14&#45;&gt;Node1 -->
<g id="edge18" class="edge"><title>Node14&#45;&gt;Node1</title>
<path fill="none" stroke="midnightblue" d="M882.554,-42.7296C941.508,-45.4215 1028.03,-49.3721 1085.75,-52.0081"/>
<polygon fill="midnightblue" stroke="midnightblue" points="882.394,-39.2187 872.245,-42.2588 882.075,-46.2114 882.394,-39.2187"/>
</g>
</g>
</svg>
