<?xml version="1.0" encoding="UTF-8" standalone="no"?>
<!DOCTYPE svg PUBLIC "-//W3C//DTD SVG 1.1//EN"
 "http://www.w3.org/Graphics/SVG/1.1/DTD/svg11.dtd">
<!-- Generated by graphviz version 2.38.0 (20140413.2041)
 -->
<!-- Title: mappel::PriorMAP1DObjective::prior_relative_log_likelihood Pages: 1 -->
<svg width="297pt" height="74pt"
 viewBox="0.00 0.00 297.00 74.00" xmlns="http://www.w3.org/2000/svg" xmlns:xlink="http://www.w3.org/1999/xlink">
<g id="graph0" class="graph" transform="scale(1 1) rotate(0) translate(4 70)">
<title>mappel::PriorMAP1DObjective::prior_relative_log_likelihood</title>
<polygon fill="white" stroke="none" points="-4,4 -4,-70 293,-70 293,4 -4,4"/>
<!-- Node1 -->
<g id="node1" class="node"><title>Node1</title>
<polygon fill="#bfbfbf" stroke="black" points="0,-21.5 0,-49.5 141,-49.5 141,-21.5 0,-21.5"/>
<text text-anchor="start" x="8" y="-38.3" font-family="Helvetica,sans-Serif" font-size="9.00">mappel::PriorMAP1DObjective</text>
<text text-anchor="middle" x="70.5" y="-28.3" font-family="Helvetica,sans-Serif" font-size="9.00">::prior_relative_log_likelihood</text>
</g>
<!-- Node2 -->
<g id="node2" class="node"><title>Node2</title>
<g id="a_node2"><a xlink:href="namespacemappel.html#aba911d3a1a1a486fd6f6dfdfad37d90a" target="_top" xlink:title="mappel::rllh_beta_prior">
<polygon fill="white" stroke="black" points="177,-47.5 177,-65.5 289,-65.5 289,-47.5 177,-47.5"/>
<text text-anchor="middle" x="233" y="-54.3" font-family="Helvetica,sans-Serif" font-size="9.00">mappel::rllh_beta_prior</text>
</a>
</g>
</g>
<!-- Node1&#45;&gt;Node2 -->
<g id="edge1" class="edge"><title>Node1&#45;&gt;Node2</title>
<path fill="none" stroke="midnightblue" d="M141.431,-44.6498C149.839,-45.7499 158.4,-46.8701 166.738,-47.9611"/>
<polygon fill="midnightblue" stroke="midnightblue" points="166.402,-51.4469 176.772,-49.2739 167.311,-44.506 166.402,-51.4469"/>
</g>
<!-- Node3 -->
<g id="node3" class="node"><title>Node3</title>
<g id="a_node3"><a xlink:href="namespacemappel.html#ac76807de851d24f1b720629ad9062cb2" target="_top" xlink:title="mappel::rllh_gamma\l_prior">
<polygon fill="white" stroke="black" points="182.5,-0.5 182.5,-28.5 283.5,-28.5 283.5,-0.5 182.5,-0.5"/>
<text text-anchor="start" x="190.5" y="-17.3" font-family="Helvetica,sans-Serif" font-size="9.00">mappel::rllh_gamma</text>
<text text-anchor="middle" x="233" y="-7.3" font-family="Helvetica,sans-Serif" font-size="9.00">_prior</text>
</a>
</g>
</g>
<!-- Node1&#45;&gt;Node3 -->
<g id="edge2" class="edge"><title>Node1&#45;&gt;Node3</title>
<path fill="none" stroke="midnightblue" d="M141.431,-26.3502C151.588,-25.0212 161.969,-23.663 171.909,-22.3624"/>
<polygon fill="midnightblue" stroke="midnightblue" points="172.618,-25.7995 182.079,-21.0317 171.71,-18.8587 172.618,-25.7995"/>
</g>
</g>
</svg>
