<?xml version="1.0" encoding="UTF-8" standalone="no"?>
<!DOCTYPE svg PUBLIC "-//W3C//DTD SVG 1.1//EN"
 "http://www.w3.org/Graphics/SVG/1.1/DTD/svg11.dtd">
<!-- Generated by graphviz version 2.38.0 (20140413.2041)
 -->
<!-- Title: mappel::PoissonNoise1DObjective::operator= Pages: 1 -->
<svg width="317pt" height="178pt"
 viewBox="0.00 0.00 317.00 178.00" xmlns="http://www.w3.org/2000/svg" xmlns:xlink="http://www.w3.org/1999/xlink">
<g id="graph0" class="graph" transform="scale(1 1) rotate(0) translate(4 174)">
<title>mappel::PoissonNoise1DObjective::operator=</title>
<polygon fill="white" stroke="none" points="-4,4 -4,-174 313,-174 313,4 -4,4"/>
<!-- Node1 -->
<g id="node1" class="node"><title>Node1</title>
<polygon fill="#bfbfbf" stroke="black" points="0,-70.5 0,-98.5 159,-98.5 159,-70.5 0,-70.5"/>
<text text-anchor="start" x="8" y="-87.3" font-family="Helvetica,sans-Serif" font-size="9.00">mappel::PoissonNoise1DObjective</text>
<text text-anchor="middle" x="79.5" y="-77.3" font-family="Helvetica,sans-Serif" font-size="9.00">::operator=</text>
</g>
<!-- Node2 -->
<g id="node2" class="node"><title>Node2</title>
<g id="a_node2"><a xlink:href="classmappel_1_1Gauss1DMAP.html#afec3cf3e6adcd8b73100e9dc121198b7" target="_top" xlink:title="mappel::Gauss1DMAP\l::operator=">
<polygon fill="white" stroke="black" points="197,-141.5 197,-169.5 307,-169.5 307,-141.5 197,-141.5"/>
<text text-anchor="start" x="205" y="-158.3" font-family="Helvetica,sans-Serif" font-size="9.00">mappel::Gauss1DMAP</text>
<text text-anchor="middle" x="252" y="-148.3" font-family="Helvetica,sans-Serif" font-size="9.00">::operator=</text>
</a>
</g>
</g>
<!-- Node1&#45;&gt;Node2 -->
<g id="edge1" class="edge"><title>Node1&#45;&gt;Node2</title>
<path fill="none" stroke="midnightblue" d="M123.529,-102.625C144.989,-111.642 171.348,-122.685 195,-132.5 201.99,-135.4 209.477,-138.489 216.63,-141.43"/>
<polygon fill="midnightblue" stroke="midnightblue" points="124.616,-99.2855 114.041,-98.6362 121.903,-105.738 124.616,-99.2855"/>
</g>
<!-- Node3 -->
<g id="node3" class="node"><title>Node3</title>
<g id="a_node3"><a xlink:href="classmappel_1_1Gauss1DMLE.html#abdf5e62ce76f3df65b1aab2033a06841" target="_top" xlink:title="mappel::Gauss1DMLE\l::operator=">
<polygon fill="white" stroke="black" points="197.5,-94.5 197.5,-122.5 306.5,-122.5 306.5,-94.5 197.5,-94.5"/>
<text text-anchor="start" x="205.5" y="-111.3" font-family="Helvetica,sans-Serif" font-size="9.00">mappel::Gauss1DMLE</text>
<text text-anchor="middle" x="252" y="-101.3" font-family="Helvetica,sans-Serif" font-size="9.00">::operator=</text>
</a>
</g>
</g>
<!-- Node1&#45;&gt;Node3 -->
<g id="edge2" class="edge"><title>Node1&#45;&gt;Node3</title>
<path fill="none" stroke="midnightblue" d="M169.269,-96.9954C178.871,-98.3469 188.413,-99.6901 197.407,-100.956"/>
<polygon fill="midnightblue" stroke="midnightblue" points="169.652,-93.5149 159.262,-95.5867 168.676,-100.447 169.652,-93.5149"/>
</g>
<!-- Node4 -->
<g id="node4" class="node"><title>Node4</title>
<g id="a_node4"><a xlink:href="classmappel_1_1Gauss1DsMAP.html#afb1fe11ca22dd139f873256f7fb6c960" target="_top" xlink:title="mappel::Gauss1DsMAP\l::operator=">
<polygon fill="white" stroke="black" points="195,-47.5 195,-75.5 309,-75.5 309,-47.5 195,-47.5"/>
<text text-anchor="start" x="203" y="-64.3" font-family="Helvetica,sans-Serif" font-size="9.00">mappel::Gauss1DsMAP</text>
<text text-anchor="middle" x="252" y="-54.3" font-family="Helvetica,sans-Serif" font-size="9.00">::operator=</text>
</a>
</g>
</g>
<!-- Node1&#45;&gt;Node4 -->
<g id="edge3" class="edge"><title>Node1&#45;&gt;Node4</title>
<path fill="none" stroke="midnightblue" d="M169.441,-72.5021C178.111,-71.3326 186.73,-70.1699 194.938,-69.0627"/>
<polygon fill="midnightblue" stroke="midnightblue" points="168.704,-69.0697 159.262,-73.8752 169.64,-76.0069 168.704,-69.0697"/>
</g>
<!-- Node5 -->
<g id="node5" class="node"><title>Node5</title>
<g id="a_node5"><a xlink:href="classmappel_1_1Gauss1DsMLE.html#ac7cb6d3c242f1df583c0f894c3e3febb" target="_top" xlink:title="mappel::Gauss1DsMLE\l::operator=">
<polygon fill="white" stroke="black" points="195.5,-0.5 195.5,-28.5 308.5,-28.5 308.5,-0.5 195.5,-0.5"/>
<text text-anchor="start" x="203.5" y="-17.3" font-family="Helvetica,sans-Serif" font-size="9.00">mappel::Gauss1DsMLE</text>
<text text-anchor="middle" x="252" y="-7.3" font-family="Helvetica,sans-Serif" font-size="9.00">::operator=</text>
</a>
</g>
</g>
<!-- Node1&#45;&gt;Node5 -->
<g id="edge4" class="edge"><title>Node1&#45;&gt;Node5</title>
<path fill="none" stroke="midnightblue" d="M124.418,-66.4692C153.196,-54.654 190.265,-39.4352 216.839,-28.5249"/>
<polygon fill="midnightblue" stroke="midnightblue" points="122.925,-63.2987 115.003,-70.3345 125.583,-69.7742 122.925,-63.2987"/>
</g>
</g>
</svg>
