<?xml version="1.0" encoding="UTF-8" standalone="no"?>
<!DOCTYPE svg PUBLIC "-//W3C//DTD SVG 1.1//EN"
 "http://www.w3.org/Graphics/SVG/1.1/DTD/svg11.dtd">
<!-- Generated by graphviz version 2.38.0 (20140413.2041)
 -->
<!-- Title: mappel::IterativeMaximizer::MaximizerData::MaximizerData Pages: 1 -->
<svg width="319pt" height="65pt"
 viewBox="0.00 0.00 319.00 65.00" xmlns="http://www.w3.org/2000/svg" xmlns:xlink="http://www.w3.org/1999/xlink">
<g id="graph0" class="graph" transform="scale(1 1) rotate(0) translate(4 61)">
<title>mappel::IterativeMaximizer::MaximizerData::MaximizerData</title>
<polygon fill="white" stroke="none" points="-4,4 -4,-61 315,-61 315,4 -4,4"/>
<!-- Node1 -->
<g id="node1" class="node"><title>Node1</title>
<polygon fill="#bfbfbf" stroke="black" points="0,-5.5 0,-33.5 149,-33.5 149,-5.5 0,-5.5"/>
<text text-anchor="start" x="8" y="-22.3" font-family="Helvetica,sans-Serif" font-size="9.00">mappel::IterativeMaximizer</text>
<text text-anchor="middle" x="74.5" y="-12.3" font-family="Helvetica,sans-Serif" font-size="9.00">::MaximizerData::MaximizerData</text>
</g>
<!-- Node2 -->
<g id="node2" class="node"><title>Node2</title>
<g id="a_node2"><a xlink:href="classmappel_1_1IterativeMaximizer_1_1MaximizerData.html#a1096048bf29ccbc45e4a60dc6cbf7b2c" target="_top" xlink:title="Record an iteration point (derivatives computed) Using the saved theta as the default. ">
<polygon fill="white" stroke="black" points="185,-0.5 185,-38.5 311,-38.5 311,-0.5 185,-0.5"/>
<text text-anchor="start" x="193" y="-27.3" font-family="Helvetica,sans-Serif" font-size="9.00">mappel::IterativeMaximizer</text>
<text text-anchor="start" x="193" y="-17.3" font-family="Helvetica,sans-Serif" font-size="9.00">::MaximizerData::record</text>
<text text-anchor="middle" x="248" y="-7.3" font-family="Helvetica,sans-Serif" font-size="9.00">_iteration</text>
</a>
</g>
</g>
<!-- Node1&#45;&gt;Node2 -->
<g id="edge1" class="edge"><title>Node1&#45;&gt;Node2</title>
<path fill="none" stroke="midnightblue" d="M149.227,-19.5C157.682,-19.5 166.296,-19.5 174.732,-19.5"/>
<polygon fill="midnightblue" stroke="midnightblue" points="174.91,-23.0001 184.91,-19.5 174.91,-16.0001 174.91,-23.0001"/>
</g>
<!-- Node2&#45;&gt;Node2 -->
<g id="edge2" class="edge"><title>Node2&#45;&gt;Node2</title>
<path fill="none" stroke="midnightblue" d="M216.703,-38.7945C212.372,-48.4169 222.805,-57 248,-57 263.747,-57 273.727,-53.6472 277.941,-48.7834"/>
<polygon fill="midnightblue" stroke="midnightblue" points="281.42,-49.1745 279.297,-38.7945 274.484,-48.2326 281.42,-49.1745"/>
</g>
</g>
</svg>
