<?xml version="1.0" encoding="UTF-8" standalone="no"?>
<!DOCTYPE svg PUBLIC "-//W3C//DTD SVG 1.1//EN"
 "http://www.w3.org/Graphics/SVG/1.1/DTD/svg11.dtd">
<!-- Generated by graphviz version 2.38.0 (20140413.2041)
 -->
<!-- Title: mappel::IterativeMaximizer::convergence_test Pages: 1 -->
<svg width="495pt" height="142pt"
 viewBox="0.00 0.00 495.00 142.00" xmlns="http://www.w3.org/2000/svg" xmlns:xlink="http://www.w3.org/1999/xlink">
<g id="graph0" class="graph" transform="scale(1 1) rotate(0) translate(4 138)">
<title>mappel::IterativeMaximizer::convergence_test</title>
<polygon fill="white" stroke="none" points="-4,4 -4,-138 491,-138 491,4 -4,4"/>
<!-- Node1 -->
<g id="node1" class="node"><title>Node1</title>
<polygon fill="#bfbfbf" stroke="black" points="0,-44.5 0,-72.5 126,-72.5 126,-44.5 0,-44.5"/>
<text text-anchor="start" x="8" y="-61.3" font-family="Helvetica,sans-Serif" font-size="9.00">mappel::IterativeMaximizer</text>
<text text-anchor="middle" x="63" y="-51.3" font-family="Helvetica,sans-Serif" font-size="9.00">::convergence_test</text>
</g>
<!-- Node2 -->
<g id="node2" class="node"><title>Node2</title>
<g id="a_node2"><a xlink:href="classmappel_1_1IterativeMaximizer.html#ac033d2b23a6a861e6d7adbe35f17624e" target="_top" xlink:title="mappel::IterativeMaximizer\l::backtrack">
<polygon fill="white" stroke="black" points="162,-66.5 162,-94.5 288,-94.5 288,-66.5 162,-66.5"/>
<text text-anchor="start" x="170" y="-83.3" font-family="Helvetica,sans-Serif" font-size="9.00">mappel::IterativeMaximizer</text>
<text text-anchor="middle" x="225" y="-73.3" font-family="Helvetica,sans-Serif" font-size="9.00">::backtrack</text>
</a>
</g>
</g>
<!-- Node1&#45;&gt;Node2 -->
<g id="edge1" class="edge"><title>Node1&#45;&gt;Node2</title>
<path fill="none" stroke="midnightblue" d="M136.267,-68.4367C144.808,-69.6111 153.468,-70.8018 161.852,-71.9546"/>
<polygon fill="midnightblue" stroke="midnightblue" points="136.702,-64.9637 126.318,-67.0688 135.748,-71.8984 136.702,-64.9637"/>
</g>
<!-- Node3 -->
<g id="node3" class="node"><title>Node3</title>
<g id="a_node3"><a xlink:href="classmappel_1_1NewtonDiagonalMaximizer.html#ac445064041b5c7f3c147c08a0065cd68" target="_top" xlink:title="mappel::NewtonDiagonalMaximizer\l::maximize">
<polygon fill="white" stroke="black" points="324,-105.5 324,-133.5 487,-133.5 487,-105.5 324,-105.5"/>
<text text-anchor="start" x="332" y="-122.3" font-family="Helvetica,sans-Serif" font-size="9.00">mappel::NewtonDiagonalMaximizer</text>
<text text-anchor="middle" x="405.5" y="-112.3" font-family="Helvetica,sans-Serif" font-size="9.00">::maximize</text>
</a>
</g>
</g>
<!-- Node1&#45;&gt;Node3 -->
<g id="edge5" class="edge"><title>Node1&#45;&gt;Node3</title>
<path fill="none" stroke="midnightblue" d="M96.9466,-77.2985C115.457,-86.9057 139.333,-97.7563 162,-103.5 214.863,-116.895 276.161,-120.843 323.903,-121.468"/>
<polygon fill="midnightblue" stroke="midnightblue" points="98.5279,-74.1753 88.056,-72.5663 95.2389,-80.3545 98.5279,-74.1753"/>
</g>
<!-- Node4 -->
<g id="node4" class="node"><title>Node4</title>
<g id="a_node4"><a xlink:href="classmappel_1_1NewtonMaximizer.html#aca7e3071f17ef6f381878eb6151c86d7" target="_top" xlink:title="mappel::NewtonMaximizer\l::maximize">
<polygon fill="white" stroke="black" points="343,-54.5 343,-82.5 468,-82.5 468,-54.5 343,-54.5"/>
<text text-anchor="start" x="351" y="-71.3" font-family="Helvetica,sans-Serif" font-size="9.00">mappel::NewtonMaximizer</text>
<text text-anchor="middle" x="405.5" y="-61.3" font-family="Helvetica,sans-Serif" font-size="9.00">::maximize</text>
</a>
</g>
</g>
<!-- Node1&#45;&gt;Node4 -->
<g id="edge6" class="edge"><title>Node1&#45;&gt;Node4</title>
<path fill="none" stroke="midnightblue" d="M136.315,-56.8575C144.97,-56.7102 153.683,-56.5849 162,-56.5 217.997,-55.9287 232.074,-53.6273 288,-56.5 305.869,-57.4179 325.219,-59.1227 342.921,-60.9649"/>
<polygon fill="midnightblue" stroke="midnightblue" points="136.144,-53.3599 126.208,-57.0394 136.27,-60.3588 136.144,-53.3599"/>
</g>
<!-- Node5 -->
<g id="node5" class="node"><title>Node5</title>
<g id="a_node5"><a xlink:href="classmappel_1_1QuasiNewtonMaximizer.html#ab4d32d8ba90d4355262a228753619b9f" target="_top" xlink:title="mappel::QuasiNewtonMaximizer\l::maximize">
<polygon fill="white" stroke="black" points="331,-0.5 331,-28.5 480,-28.5 480,-0.5 331,-0.5"/>
<text text-anchor="start" x="339" y="-17.3" font-family="Helvetica,sans-Serif" font-size="9.00">mappel::QuasiNewtonMaximizer</text>
<text text-anchor="middle" x="405.5" y="-7.3" font-family="Helvetica,sans-Serif" font-size="9.00">::maximize</text>
</a>
</g>
</g>
<!-- Node1&#45;&gt;Node5 -->
<g id="edge7" class="edge"><title>Node1&#45;&gt;Node5</title>
<path fill="none" stroke="midnightblue" d="M136.114,-49.1813C193.35,-41.7852 273.056,-31.4854 330.722,-24.0337"/>
<polygon fill="midnightblue" stroke="midnightblue" points="135.526,-45.7281 126.057,-50.4809 136.423,-52.6704 135.526,-45.7281"/>
</g>
<!-- Node2&#45;&gt;Node3 -->
<g id="edge2" class="edge"><title>Node2&#45;&gt;Node3</title>
<path fill="none" stroke="midnightblue" d="M298.167,-96.2676C312.049,-99.3007 326.504,-102.459 340.12,-105.434"/>
<polygon fill="midnightblue" stroke="midnightblue" points="298.697,-92.8008 288.18,-94.0856 297.202,-99.6395 298.697,-92.8008"/>
</g>
<!-- Node2&#45;&gt;Node4 -->
<g id="edge3" class="edge"><title>Node2&#45;&gt;Node4</title>
<path fill="none" stroke="midnightblue" d="M298.286,-75.6405C313.062,-74.6471 328.481,-73.6105 342.844,-72.6449"/>
<polygon fill="midnightblue" stroke="midnightblue" points="297.923,-72.1569 288.18,-76.3198 298.392,-79.1411 297.923,-72.1569"/>
</g>
<!-- Node2&#45;&gt;Node5 -->
<g id="edge4" class="edge"><title>Node2&#45;&gt;Node5</title>
<path fill="none" stroke="midnightblue" d="M273.838,-62.8119C302.91,-52.0627 339.513,-38.5287 366.577,-28.5218"/>
<polygon fill="midnightblue" stroke="midnightblue" points="272.458,-59.5905 264.293,-66.3413 274.886,-66.1561 272.458,-59.5905"/>
</g>
</g>
</svg>
