<?xml version="1.0" encoding="UTF-8" standalone="no"?>
<!DOCTYPE svg PUBLIC "-//W3C//DTD SVG 1.1//EN"
 "http://www.w3.org/Graphics/SVG/1.1/DTD/svg11.dtd">
<!-- Generated by graphviz version 2.38.0 (20140413.2041)
 -->
<!-- Title: mappel::Estimator::estimate_max_debug Pages: 1 -->
<svg width="279pt" height="84pt"
 viewBox="0.00 0.00 279.00 84.00" xmlns="http://www.w3.org/2000/svg" xmlns:xlink="http://www.w3.org/1999/xlink">
<g id="graph0" class="graph" transform="scale(1 1) rotate(0) translate(4 80)">
<title>mappel::Estimator::estimate_max_debug</title>
<polygon fill="white" stroke="none" points="-4,4 -4,-80 275,-80 275,4 -4,4"/>
<!-- Node1 -->
<g id="node1" class="node"><title>Node1</title>
<polygon fill="#bfbfbf" stroke="black" points="0,-23.5 0,-51.5 105,-51.5 105,-23.5 0,-23.5"/>
<text text-anchor="start" x="8" y="-40.3" font-family="Helvetica,sans-Serif" font-size="9.00">mappel::Estimator::</text>
<text text-anchor="middle" x="52.5" y="-30.3" font-family="Helvetica,sans-Serif" font-size="9.00">estimate_max_debug</text>
</g>
<!-- Node2 -->
<g id="node2" class="node"><title>Node2</title>
<g id="a_node2"><a xlink:href="namespacemappel_1_1methods.html#a83244dbe0995e8698475a12d34fb2f35" target="_top" xlink:title="mappel::methods::observed\l_information">
<polygon fill="white" stroke="black" points="141,-47.5 141,-75.5 271,-75.5 271,-47.5 141,-47.5"/>
<text text-anchor="start" x="149" y="-64.3" font-family="Helvetica,sans-Serif" font-size="9.00">mappel::methods::observed</text>
<text text-anchor="middle" x="206" y="-54.3" font-family="Helvetica,sans-Serif" font-size="9.00">_information</text>
</a>
</g>
</g>
<!-- Node1&#45;&gt;Node2 -->
<g id="edge1" class="edge"><title>Node1&#45;&gt;Node2</title>
<path fill="none" stroke="midnightblue" d="M105.214,-45.6923C113.47,-47.0002 122.151,-48.3753 130.804,-49.7462"/>
<polygon fill="midnightblue" stroke="midnightblue" points="130.499,-53.2415 140.924,-51.3493 131.594,-46.3277 130.499,-53.2415"/>
</g>
<!-- Node3 -->
<g id="node3" class="node"><title>Node3</title>
<g id="a_node3"><a xlink:href="namespacemappel_1_1methods_1_1objective.html#a293c23ed6a623e59477bb67b6e40f5ad" target="_top" xlink:title="mappel::methods::objective\l::rllh">
<polygon fill="white" stroke="black" points="142,-0.5 142,-28.5 270,-28.5 270,-0.5 142,-0.5"/>
<text text-anchor="start" x="150" y="-17.3" font-family="Helvetica,sans-Serif" font-size="9.00">mappel::methods::objective</text>
<text text-anchor="middle" x="206" y="-7.3" font-family="Helvetica,sans-Serif" font-size="9.00">::rllh</text>
</a>
</g>
</g>
<!-- Node1&#45;&gt;Node3 -->
<g id="edge2" class="edge"><title>Node1&#45;&gt;Node3</title>
<path fill="none" stroke="midnightblue" d="M105.214,-29.649C113.809,-28.3442 122.864,-26.9695 131.87,-25.6023"/>
<polygon fill="midnightblue" stroke="midnightblue" points="132.628,-29.0273 141.989,-24.066 131.577,-22.1066 132.628,-29.0273"/>
</g>
</g>
</svg>
