<?xml version="1.0" encoding="UTF-8" standalone="no"?>
<!DOCTYPE svg PUBLIC "-//W3C//DTD SVG 1.1//EN"
 "http://www.w3.org/Graphics/SVG/1.1/DTD/svg11.dtd">
<!-- Generated by graphviz version 2.38.0 (20140413.2041)
 -->
<!-- Title: mappel::Gauss2DModel::initial_theta_estimate Pages: 1 -->
<svg width="1080pt" height="211pt"
 viewBox="0.00 0.00 1080.00 211.00" xmlns="http://www.w3.org/2000/svg" xmlns:xlink="http://www.w3.org/1999/xlink">
<g id="graph0" class="graph" transform="scale(1 1) rotate(0) translate(4 207)">
<title>mappel::Gauss2DModel::initial_theta_estimate</title>
<polygon fill="white" stroke="none" points="-4,4 -4,-207 1076,-207 1076,4 -4,4"/>
<!-- Node1 -->
<g id="node1" class="node"><title>Node1</title>
<polygon fill="#bfbfbf" stroke="black" points="0,-90.5 0,-118.5 116,-118.5 116,-90.5 0,-90.5"/>
<text text-anchor="start" x="8" y="-107.3" font-family="Helvetica,sans-Serif" font-size="9.00">mappel::Gauss2DModel</text>
<text text-anchor="middle" x="58" y="-97.3" font-family="Helvetica,sans-Serif" font-size="9.00">::initial_theta_estimate</text>
</g>
<!-- Node2 -->
<g id="node2" class="node"><title>Node2</title>
<g id="a_node2"><a xlink:href="classmappel_1_1Gauss2DModel_1_1Stencil.html#a1e6bea9d029ad5ff367e988a5af24101" target="_top" xlink:title="mappel::Gauss2DModel\l::Stencil::bg">
<polygon fill="white" stroke="black" points="168.5,-174.5 168.5,-202.5 284.5,-202.5 284.5,-174.5 168.5,-174.5"/>
<text text-anchor="start" x="176.5" y="-191.3" font-family="Helvetica,sans-Serif" font-size="9.00">mappel::Gauss2DModel</text>
<text text-anchor="middle" x="226.5" y="-181.3" font-family="Helvetica,sans-Serif" font-size="9.00">::Stencil::bg</text>
</a>
</g>
</g>
<!-- Node1&#45;&gt;Node2 -->
<g id="edge1" class="edge"><title>Node1&#45;&gt;Node2</title>
<path fill="none" stroke="midnightblue" d="M77.3275,-118.738C95.4601,-132.275 124.422,-152.453 152,-165.5 156.053,-167.417 160.305,-169.227 164.634,-170.924"/>
<polygon fill="midnightblue" stroke="midnightblue" points="163.596,-174.272 174.189,-174.459 166.024,-167.707 163.596,-174.272"/>
</g>
<!-- Node3 -->
<g id="node3" class="node"><title>Node3</title>
<g id="a_node3"><a xlink:href="namespacemappel_1_1methods.html#a7f4a5561497c243edaa6f55fddf0ec4e" target="_top" xlink:title="mappel::methods::estimate_max">
<polygon fill="white" stroke="black" points="152,-137.5 152,-155.5 301,-155.5 301,-137.5 152,-137.5"/>
<text text-anchor="middle" x="226.5" y="-144.3" font-family="Helvetica,sans-Serif" font-size="9.00">mappel::methods::estimate_max</text>
</a>
</g>
</g>
<!-- Node1&#45;&gt;Node3 -->
<g id="edge2" class="edge"><title>Node1&#45;&gt;Node3</title>
<path fill="none" stroke="midnightblue" d="M114.905,-118.602C135.999,-123.923 159.727,-129.909 179.781,-134.967"/>
<polygon fill="midnightblue" stroke="midnightblue" points="179.048,-138.392 189.6,-137.444 180.76,-131.605 179.048,-138.392"/>
</g>
<!-- Node6 -->
<g id="node6" class="node"><title>Node6</title>
<g id="a_node6"><a xlink:href="classmappel_1_1Gauss2DModel_1_1Stencil.html#aac7254dbe4ed3e2dd928ab29779f570d" target="_top" xlink:title="mappel::Gauss2DModel\l::Stencil::I">
<polygon fill="white" stroke="black" points="168.5,-90.5 168.5,-118.5 284.5,-118.5 284.5,-90.5 168.5,-90.5"/>
<text text-anchor="start" x="176.5" y="-107.3" font-family="Helvetica,sans-Serif" font-size="9.00">mappel::Gauss2DModel</text>
<text text-anchor="middle" x="226.5" y="-97.3" font-family="Helvetica,sans-Serif" font-size="9.00">::Stencil::I</text>
</a>
</g>
</g>
<!-- Node1&#45;&gt;Node6 -->
<g id="edge5" class="edge"><title>Node1&#45;&gt;Node6</title>
<path fill="none" stroke="midnightblue" d="M116.3,-104.5C129.849,-104.5 144.418,-104.5 158.359,-104.5"/>
<polygon fill="midnightblue" stroke="midnightblue" points="158.377,-108 168.377,-104.5 158.377,-101 158.377,-108"/>
</g>
<!-- Node7 -->
<g id="node7" class="node"><title>Node7</title>
<g id="a_node7"><a xlink:href="classmappel_1_1Gauss2DModel.html#a584652e2d4ac0b27e870a21150c035a2" target="_top" xlink:title="Make a new Model::Stencil object at theta. ">
<polygon fill="white" stroke="black" points="168.5,-43.5 168.5,-71.5 284.5,-71.5 284.5,-43.5 168.5,-43.5"/>
<text text-anchor="start" x="176.5" y="-60.3" font-family="Helvetica,sans-Serif" font-size="9.00">mappel::Gauss2DModel</text>
<text text-anchor="middle" x="226.5" y="-50.3" font-family="Helvetica,sans-Serif" font-size="9.00">::make_stencil</text>
</a>
</g>
</g>
<!-- Node1&#45;&gt;Node7 -->
<g id="edge6" class="edge"><title>Node1&#45;&gt;Node7</title>
<path fill="none" stroke="midnightblue" d="M108.955,-90.3985C126.9,-85.3331 147.315,-79.5703 165.99,-74.2985"/>
<polygon fill="midnightblue" stroke="midnightblue" points="167.194,-77.5957 175.867,-71.5106 165.292,-70.8589 167.194,-77.5957"/>
</g>
<!-- Node17 -->
<g id="node17" class="node"><title>Node17</title>
<g id="a_node17"><a xlink:href="classmappel_1_1PointEmitterModel.html#ad50dfc29b6e7167fb4caf8683353079d" target="_top" xlink:title="mappel::PointEmitterModel\l::theta_in_bounds">
<polygon fill="white" stroke="black" points="337,-0.5 337,-28.5 464,-28.5 464,-0.5 337,-0.5"/>
<text text-anchor="start" x="345" y="-17.3" font-family="Helvetica,sans-Serif" font-size="9.00">mappel::PointEmitterModel</text>
<text text-anchor="middle" x="400.5" y="-7.3" font-family="Helvetica,sans-Serif" font-size="9.00">::theta_in_bounds</text>
</a>
</g>
</g>
<!-- Node1&#45;&gt;Node17 -->
<g id="edge19" class="edge"><title>Node1&#45;&gt;Node17</title>
<path fill="none" stroke="midnightblue" d="M72.2156,-90.3093C88.9525,-73.3982 119.544,-45.8772 152,-33.5 207.942,-12.1662 276.057,-8.39196 326.658,-9.40154"/>
<polygon fill="midnightblue" stroke="midnightblue" points="326.767,-12.9056 336.857,-9.67414 326.954,-5.90811 326.767,-12.9056"/>
</g>
<!-- Node4 -->
<g id="node4" class="node"><title>Node4</title>
<g id="a_node4"><a xlink:href="namespacemappel_1_1methods.html#a0f47a66f366b6e5841f1224e839ed828" target="_top" xlink:title="mappel::methods::make\l_estimator">
<polygon fill="white" stroke="black" points="343.5,-132.5 343.5,-160.5 457.5,-160.5 457.5,-132.5 343.5,-132.5"/>
<text text-anchor="start" x="351.5" y="-149.3" font-family="Helvetica,sans-Serif" font-size="9.00">mappel::methods::make</text>
<text text-anchor="middle" x="400.5" y="-139.3" font-family="Helvetica,sans-Serif" font-size="9.00">_estimator</text>
</a>
</g>
</g>
<!-- Node3&#45;&gt;Node4 -->
<g id="edge3" class="edge"><title>Node3&#45;&gt;Node4</title>
<path fill="none" stroke="midnightblue" d="M301.442,-146.5C311.958,-146.5 322.72,-146.5 333.081,-146.5"/>
<polygon fill="midnightblue" stroke="midnightblue" points="333.285,-150 343.285,-146.5 333.285,-143 333.285,-150"/>
</g>
<!-- Node5 -->
<g id="node5" class="node"><title>Node5</title>
<g id="a_node5"><a xlink:href="namespacemappel.html#a610296a93ba507763bc770d39049f323" target="_top" xlink:title="mappel::istarts_with">
<polygon fill="white" stroke="black" points="520,-137.5 520,-155.5 618,-155.5 618,-137.5 520,-137.5"/>
<text text-anchor="middle" x="569" y="-144.3" font-family="Helvetica,sans-Serif" font-size="9.00">mappel::istarts_with</text>
</a>
</g>
</g>
<!-- Node4&#45;&gt;Node5 -->
<g id="edge4" class="edge"><title>Node4&#45;&gt;Node5</title>
<path fill="none" stroke="midnightblue" d="M457.869,-146.5C474.51,-146.5 492.757,-146.5 509.527,-146.5"/>
<polygon fill="midnightblue" stroke="midnightblue" points="509.751,-150 519.75,-146.5 509.75,-143 509.751,-150"/>
</g>
<!-- Node8 -->
<g id="node8" class="node"><title>Node8</title>
<g id="a_node8"><a xlink:href="classmappel_1_1Gauss2DModel_1_1Stencil.html#a75a827ef8312a7ce445c83aebf93204f" target="_top" xlink:title="mappel::Gauss2DModel\l::Stencil::Stencil">
<polygon fill="white" stroke="black" points="342.5,-47.5 342.5,-75.5 458.5,-75.5 458.5,-47.5 342.5,-47.5"/>
<text text-anchor="start" x="350.5" y="-64.3" font-family="Helvetica,sans-Serif" font-size="9.00">mappel::Gauss2DModel</text>
<text text-anchor="middle" x="400.5" y="-54.3" font-family="Helvetica,sans-Serif" font-size="9.00">::Stencil::Stencil</text>
</a>
</g>
</g>
<!-- Node7&#45;&gt;Node8 -->
<g id="edge7" class="edge"><title>Node7&#45;&gt;Node8</title>
<path fill="none" stroke="midnightblue" d="M284.774,-58.8319C300.005,-59.1862 316.594,-59.572 332.304,-59.9373"/>
<polygon fill="midnightblue" stroke="midnightblue" points="332.398,-63.4403 342.477,-60.1739 332.561,-56.4422 332.398,-63.4403"/>
</g>
<!-- Node7&#45;&gt;Node17 -->
<g id="edge17" class="edge"><title>Node7&#45;&gt;Node17</title>
<path fill="none" stroke="midnightblue" d="M283.819,-43.4202C299.64,-39.4649 316.989,-35.1277 333.328,-31.043"/>
<polygon fill="midnightblue" stroke="midnightblue" points="334.496,-34.3589 343.348,-28.538 332.798,-27.5679 334.496,-34.3589"/>
</g>
<!-- Node9 -->
<g id="node9" class="node"><title>Node9</title>
<g id="a_node9"><a xlink:href="classmappel_1_1Gauss2DModel_1_1Stencil.html#aa454ad18859be0dcc48f5de8982c7ba7" target="_top" xlink:title="mappel::Gauss2DModel\l::Stencil::compute_derivatives">
<polygon fill="white" stroke="black" points="500,-47.5 500,-75.5 638,-75.5 638,-47.5 500,-47.5"/>
<text text-anchor="start" x="508" y="-64.3" font-family="Helvetica,sans-Serif" font-size="9.00">mappel::Gauss2DModel</text>
<text text-anchor="middle" x="569" y="-54.3" font-family="Helvetica,sans-Serif" font-size="9.00">::Stencil::compute_derivatives</text>
</a>
</g>
</g>
<!-- Node8&#45;&gt;Node9 -->
<g id="edge8" class="edge"><title>Node8&#45;&gt;Node9</title>
<path fill="none" stroke="midnightblue" d="M458.8,-61.5C468.851,-61.5 479.463,-61.5 489.964,-61.5"/>
<polygon fill="midnightblue" stroke="midnightblue" points="489.976,-65.0001 499.976,-61.5 489.976,-58.0001 489.976,-65.0001"/>
</g>
<!-- Node10 -->
<g id="node10" class="node"><title>Node10</title>
<g id="a_node10"><a xlink:href="namespacemappel.html#aa5c2f294298c875605ee1e9876b7d116" target="_top" xlink:title="mappel::make_G_stencil">
<polygon fill="white" stroke="black" points="680,-89.5 680,-107.5 798,-107.5 798,-89.5 680,-89.5"/>
<text text-anchor="middle" x="739" y="-96.3" font-family="Helvetica,sans-Serif" font-size="9.00">mappel::make_G_stencil</text>
</a>
</g>
</g>
<!-- Node9&#45;&gt;Node10 -->
<g id="edge9" class="edge"><title>Node9&#45;&gt;Node10</title>
<path fill="none" stroke="midnightblue" d="M633.993,-75.5937C651.501,-79.4496 670.241,-83.5768 686.922,-87.2507"/>
<polygon fill="midnightblue" stroke="midnightblue" points="686.495,-90.7404 697.013,-89.4732 688,-83.9042 686.495,-90.7404"/>
</g>
<!-- Node13 -->
<g id="node13" class="node"><title>Node13</title>
<g id="a_node13"><a xlink:href="namespacemappel.html#a8da88490d6ff7d5886b96b66c1bab369" target="_top" xlink:title="mappel::make_DX_stencil">
<polygon fill="white" stroke="black" points="677,-52.5 677,-70.5 801,-70.5 801,-52.5 677,-52.5"/>
<text text-anchor="middle" x="739" y="-59.3" font-family="Helvetica,sans-Serif" font-size="9.00">mappel::make_DX_stencil</text>
</a>
</g>
</g>
<!-- Node9&#45;&gt;Node13 -->
<g id="edge12" class="edge"><title>Node9&#45;&gt;Node13</title>
<path fill="none" stroke="midnightblue" d="M638.332,-61.5C647.672,-61.5 657.28,-61.5 666.671,-61.5"/>
<polygon fill="midnightblue" stroke="midnightblue" points="666.754,-65.0001 676.754,-61.5 666.754,-58.0001 666.754,-65.0001"/>
</g>
<!-- Node15 -->
<g id="node15" class="node"><title>Node15</title>
<g id="a_node15"><a xlink:href="namespacemappel.html#af7636db506977133c8b30d108fede711" target="_top" xlink:title="mappel::make_DXS_stencil">
<polygon fill="white" stroke="black" points="674,-15.5 674,-33.5 804,-33.5 804,-15.5 674,-15.5"/>
<text text-anchor="middle" x="739" y="-22.3" font-family="Helvetica,sans-Serif" font-size="9.00">mappel::make_DXS_stencil</text>
</a>
</g>
</g>
<!-- Node9&#45;&gt;Node15 -->
<g id="edge14" class="edge"><title>Node9&#45;&gt;Node15</title>
<path fill="none" stroke="midnightblue" d="M633.993,-47.4063C651.501,-43.5504 670.241,-39.4232 686.922,-35.7493"/>
<polygon fill="midnightblue" stroke="midnightblue" points="688,-39.0958 697.013,-33.5268 686.495,-32.2596 688,-39.0958"/>
</g>
<!-- Node11 -->
<g id="node11" class="node"><title>Node11</title>
<g id="a_node11"><a xlink:href="namespacemappel.html#a5ca82edc201e8605107a991493ad0d5e" target="_top" xlink:title="mappel::fill_G_stencil">
<polygon fill="white" stroke="black" points="846,-89.5 846,-107.5 950,-107.5 950,-89.5 846,-89.5"/>
<text text-anchor="middle" x="898" y="-96.3" font-family="Helvetica,sans-Serif" font-size="9.00">mappel::fill_G_stencil</text>
</a>
</g>
</g>
<!-- Node10&#45;&gt;Node11 -->
<g id="edge10" class="edge"><title>Node10&#45;&gt;Node11</title>
<path fill="none" stroke="midnightblue" d="M798.015,-98.5C810.299,-98.5 823.302,-98.5 835.703,-98.5"/>
<polygon fill="midnightblue" stroke="midnightblue" points="835.949,-102 845.949,-98.5 835.949,-95.0001 835.949,-102"/>
</g>
<!-- Node12 -->
<g id="node12" class="node"><title>Node12</title>
<g id="a_node12"><a xlink:href="namespacemappel.html#a8475cdb3edacceb0ae215c3ebd1f33c1" target="_top" xlink:title="mappel::square">
<polygon fill="white" stroke="black" points="992,-52.5 992,-70.5 1072,-70.5 1072,-52.5 992,-52.5"/>
<text text-anchor="middle" x="1032" y="-59.3" font-family="Helvetica,sans-Serif" font-size="9.00">mappel::square</text>
</a>
</g>
</g>
<!-- Node11&#45;&gt;Node12 -->
<g id="edge11" class="edge"><title>Node11&#45;&gt;Node12</title>
<path fill="none" stroke="midnightblue" d="M931.291,-89.4488C948.63,-84.5886 970.212,-78.5392 988.858,-73.3126"/>
<polygon fill="midnightblue" stroke="midnightblue" points="989.901,-76.6552 998.585,-70.586 988.011,-69.915 989.901,-76.6552"/>
</g>
<!-- Node14 -->
<g id="node14" class="node"><title>Node14</title>
<g id="a_node14"><a xlink:href="namespacemappel.html#ad2dd4330fc626fa673a3acf691d6b9a7" target="_top" xlink:title="mappel::fill_DX_stencil">
<polygon fill="white" stroke="black" points="843,-52.5 843,-70.5 953,-70.5 953,-52.5 843,-52.5"/>
<text text-anchor="middle" x="898" y="-59.3" font-family="Helvetica,sans-Serif" font-size="9.00">mappel::fill_DX_stencil</text>
</a>
</g>
</g>
<!-- Node13&#45;&gt;Node14 -->
<g id="edge13" class="edge"><title>Node13&#45;&gt;Node14</title>
<path fill="none" stroke="midnightblue" d="M801.15,-61.5C811.482,-61.5 822.236,-61.5 832.647,-61.5"/>
<polygon fill="midnightblue" stroke="midnightblue" points="832.915,-65.0001 842.915,-61.5 832.915,-58.0001 832.915,-65.0001"/>
</g>
<!-- Node16 -->
<g id="node16" class="node"><title>Node16</title>
<g id="a_node16"><a xlink:href="namespacemappel.html#ab0cb62f6dcecae5ff19468d87a283e7a" target="_top" xlink:title="mappel::fill_DXS_stencil">
<polygon fill="white" stroke="black" points="840,-15.5 840,-33.5 956,-33.5 956,-15.5 840,-15.5"/>
<text text-anchor="middle" x="898" y="-22.3" font-family="Helvetica,sans-Serif" font-size="9.00">mappel::fill_DXS_stencil</text>
</a>
</g>
</g>
<!-- Node15&#45;&gt;Node16 -->
<g id="edge15" class="edge"><title>Node15&#45;&gt;Node16</title>
<path fill="none" stroke="midnightblue" d="M804.311,-24.5C812.619,-24.5 821.147,-24.5 829.504,-24.5"/>
<polygon fill="midnightblue" stroke="midnightblue" points="829.589,-28.0001 839.589,-24.5 829.589,-21.0001 829.589,-28.0001"/>
</g>
<!-- Node16&#45;&gt;Node12 -->
<g id="edge16" class="edge"><title>Node16&#45;&gt;Node12</title>
<path fill="none" stroke="midnightblue" d="M931.291,-33.5512C948.63,-38.4114 970.212,-44.4608 988.858,-49.6874"/>
<polygon fill="midnightblue" stroke="midnightblue" points="988.011,-53.085 998.585,-52.414 989.901,-46.3448 988.011,-53.085"/>
</g>
<!-- Node18 -->
<g id="node18" class="node"><title>Node18</title>
<g id="a_node18"><a xlink:href="classmappel_1_1PointEmitterModel.html#a97a868e842302f670ed9f9bd49416771" target="_top" xlink:title="mappel::PointEmitterModel\l::check_param_shape">
<polygon fill="white" stroke="black" points="505.5,-0.5 505.5,-28.5 632.5,-28.5 632.5,-0.5 505.5,-0.5"/>
<text text-anchor="start" x="513.5" y="-17.3" font-family="Helvetica,sans-Serif" font-size="9.00">mappel::PointEmitterModel</text>
<text text-anchor="middle" x="569" y="-7.3" font-family="Helvetica,sans-Serif" font-size="9.00">::check_param_shape</text>
</a>
</g>
</g>
<!-- Node17&#45;&gt;Node18 -->
<g id="edge18" class="edge"><title>Node17&#45;&gt;Node18</title>
<path fill="none" stroke="midnightblue" d="M464.447,-14.5C474.461,-14.5 484.893,-14.5 495.114,-14.5"/>
<polygon fill="midnightblue" stroke="midnightblue" points="495.241,-18.0001 505.241,-14.5 495.241,-11.0001 495.241,-18.0001"/>
</g>
</g>
</svg>
