<?xml version="1.0" encoding="UTF-8" standalone="no"?>
<!DOCTYPE svg PUBLIC "-//W3C//DTD SVG 1.1//EN"
 "http://www.w3.org/Graphics/SVG/1.1/DTD/svg11.dtd">
<!-- Generated by graphviz version 2.38.0 (20140413.2041)
 -->
<!-- Title: mappel::PointEmitterModel Pages: 1 -->
<svg width="233pt" height="158pt"
 viewBox="0.00 0.00 232.50 158.00" xmlns="http://www.w3.org/2000/svg" xmlns:xlink="http://www.w3.org/1999/xlink">
<g id="graph0" class="graph" transform="scale(1 1) rotate(0) translate(4 154)">
<title>mappel::PointEmitterModel</title>
<polygon fill="white" stroke="none" points="-4,4 -4,-154 228.5,-154 228.5,4 -4,4"/>
<!-- Node1 -->
<g id="node1" class="node"><title>Node1</title>
<polygon fill="#bfbfbf" stroke="black" points="7,-0.5 7,-18.5 134,-18.5 134,-0.5 7,-0.5"/>
<text text-anchor="middle" x="70.5" y="-7.3" font-family="Helvetica,sans-Serif" font-size="9.00">mappel::PointEmitterModel</text>
</g>
<!-- Node2 -->
<g id="node2" class="node"><title>Node2</title>
<polygon fill="white" stroke="#bfbfbf" points="0,-65.5 0,-83.5 77,-83.5 77,-65.5 0,-65.5"/>
<text text-anchor="middle" x="38.5" y="-72.3" font-family="Helvetica,sans-Serif" font-size="9.00">CompositeDist</text>
</g>
<!-- Node2&#45;&gt;Node1 -->
<g id="edge1" class="edge"><title>Node2&#45;&gt;Node1</title>
<path fill="none" stroke="#9a32cd" stroke-dasharray="5,2" d="M47.3785,-56.0204C53.6069,-43.7582 61.6442,-27.9348 66.4167,-18.539"/>
<polygon fill="#9a32cd" stroke="#9a32cd" points="44.0916,-54.763 42.6834,-65.2639 50.3327,-57.9331 44.0916,-54.763"/>
<text text-anchor="middle" x="67.5" y="-39.8" font-family="Helvetica,sans-Serif" font-size="9.00"> prior</text>
</g>
<!-- Node3 -->
<g id="node3" class="node"><title>Node3</title>
<g id="a_node3"><a xlink:title="STL class. ">
<polygon fill="white" stroke="#bfbfbf" points="95.5,-65.5 95.5,-83.5 151.5,-83.5 151.5,-65.5 95.5,-65.5"/>
<text text-anchor="middle" x="123.5" y="-72.3" font-family="Helvetica,sans-Serif" font-size="9.00">std::string</text>
</a>
</g>
</g>
<!-- Node3&#45;&gt;Node1 -->
<g id="edge2" class="edge"><title>Node3&#45;&gt;Node1</title>
<path fill="none" stroke="#9a32cd" stroke-dasharray="5,2" d="M110.018,-57.4742C99.5527,-45.0344 85.4836,-28.3107 77.263,-18.539"/>
<polygon fill="#9a32cd" stroke="#9a32cd" points="107.455,-59.8647 116.571,-65.2639 112.812,-55.3584 107.455,-59.8647"/>
<text text-anchor="middle" x="162" y="-39.8" font-family="Helvetica,sans-Serif" font-size="9.00"> DefaultSeperableInitEstimator</text>
</g>
<!-- Node4 -->
<g id="node4" class="node"><title>Node4</title>
<g id="a_node4"><a xlink:title="STL class. ">
<polygon fill="white" stroke="#bfbfbf" points="79.5,-121.5 79.5,-149.5 167.5,-149.5 167.5,-121.5 79.5,-121.5"/>
<text text-anchor="start" x="87.5" y="-138.3" font-family="Helvetica,sans-Serif" font-size="9.00">std::basic_string&lt;</text>
<text text-anchor="middle" x="123.5" y="-128.3" font-family="Helvetica,sans-Serif" font-size="9.00"> char &gt;</text>
</a>
</g>
</g>
<!-- Node4&#45;&gt;Node3 -->
<g id="edge3" class="edge"><title>Node4&#45;&gt;Node3</title>
<path fill="none" stroke="midnightblue" d="M123.5,-111.386C123.5,-101.594 123.5,-90.8163 123.5,-83.6534"/>
<polygon fill="midnightblue" stroke="midnightblue" points="120,-111.406 123.5,-121.406 127,-111.406 120,-111.406"/>
</g>
</g>
</svg>
