<?xml version="1.0" encoding="UTF-8" standalone="no"?>
<!DOCTYPE svg PUBLIC "-//W3C//DTD SVG 1.1//EN"
 "http://www.w3.org/Graphics/SVG/1.1/DTD/svg11.dtd">
<!-- Generated by graphviz version 2.38.0 (20140413.2041)
 -->
<!-- Title: libmappel Pages: 1 -->
<svg width="98pt" height="150pt"
 viewBox="0.00 0.00 98.00 150.00" xmlns="http://www.w3.org/2000/svg" xmlns:xlink="http://www.w3.org/1999/xlink">
<g id="graph0" class="graph" transform="scale(1 1) rotate(0) translate(4 146)">
<title>libmappel</title>
<polygon fill="white" stroke="none" points="-4,4 -4,-146 94,-146 94,4 -4,4"/>
<g id="clust1" class="cluster"><title>clusterdir_68267d1309a1af8e8297ef4c3efbcdba</title>
<g id="a_clust1"><a xlink:href="dir_68267d1309a1af8e8297ef4c3efbcdba.html" target="_top" xlink:title="src">
<polygon fill="#ddddee" stroke="black" points="8,-64 8,-134 82,-134 82,-64 8,-64"/>
<text text-anchor="middle" x="45" y="-122.8" font-family="Helvetica,sans-Serif" font-size="9.00">src</text>
</a>
</g>
</g>
<!-- dir_2a783e78809516f85491a1034f797b4f -->
<g id="node1" class="node"><title>dir_2a783e78809516f85491a1034f797b4f</title>
<g id="a_node1"><a xlink:href="dir_2a783e78809516f85491a1034f797b4f.html" target="_top" xlink:title="libmappel">
<polygon fill="#eeeeff" stroke="black" points="73.5,-108 16.5,-108 16.5,-72 73.5,-72 73.5,-108"/>
<text text-anchor="middle" x="45" y="-87.8" font-family="Helvetica,sans-Serif" font-size="9.00">libmappel</text>
</a>
</g>
</g>
<!-- dir_d44c64559bbebec7f509842c48db8b23 -->
<g id="node2" class="node"><title>dir_d44c64559bbebec7f509842c48db8b23</title>
<g id="a_node2"><a xlink:href="dir_d44c64559bbebec7f509842c48db8b23.html" target="_top" xlink:title="include">
<polygon fill="white" stroke="red" points="72,-36 18,-36 18,-0 72,-0 72,-36"/>
<text text-anchor="middle" x="45" y="-15.8" font-family="Helvetica,sans-Serif" font-size="9.00">include</text>
</a>
</g>
</g>
<!-- dir_2a783e78809516f85491a1034f797b4f&#45;&gt;dir_d44c64559bbebec7f509842c48db8b23 -->
<g id="edge1" class="edge"><title>dir_2a783e78809516f85491a1034f797b4f&#45;&gt;dir_d44c64559bbebec7f509842c48db8b23</title>
<path fill="none" stroke="black" d="M45,-71.6966C45,-63.9827 45,-54.7125 45,-46.1124"/>
<polygon fill="black" stroke="black" points="48.5001,-46.1043 45,-36.1043 41.5001,-46.1044 48.5001,-46.1043"/>
<g id="a_edge1&#45;headlabel"><a xlink:href="dir_000001_000002.html" target="_top" xlink:title="37">
<text text-anchor="middle" x="51.3393" y="-47.499" font-family="Helvetica,sans-Serif" font-size="9.00">37</text>
</a>
</g>
</g>
</g>
</svg>
