<?xml version="1.0" encoding="UTF-8" standalone="no"?>
<!DOCTYPE svg PUBLIC "-//W3C//DTD SVG 1.1//EN"
 "http://www.w3.org/Graphics/SVG/1.1/DTD/svg11.dtd">
<!-- Generated by graphviz version 2.38.0 (20140413.2041)
 -->
<!-- Title: display.cpp Pages: 1 -->
<svg width="202pt" height="137pt"
 viewBox="0.00 0.00 201.50 137.00" xmlns="http://www.w3.org/2000/svg" xmlns:xlink="http://www.w3.org/1999/xlink">
<g id="graph0" class="graph" transform="scale(1 1) rotate(0) translate(4 133)">
<title>display.cpp</title>
<polygon fill="white" stroke="none" points="-4,4 -4,-133 197.5,-133 197.5,4 -4,4"/>
<!-- Node1 -->
<g id="node1" class="node"><title>Node1</title>
<polygon fill="#bfbfbf" stroke="black" points="63.5,-110.5 63.5,-128.5 126.5,-128.5 126.5,-110.5 63.5,-110.5"/>
<text text-anchor="middle" x="95" y="-117.3" font-family="Helvetica,sans-Serif" font-size="9.00">display.cpp</text>
</g>
<!-- Node2 -->
<g id="node2" class="node"><title>Node2</title>
<g id="a_node2"><a xlink:href="display_8h.html" target="_top" xlink:title="Mappel/display.h">
<polygon fill="white" stroke="black" points="52,-55.5 52,-73.5 138,-73.5 138,-55.5 52,-55.5"/>
<text text-anchor="middle" x="95" y="-62.3" font-family="Helvetica,sans-Serif" font-size="9.00">Mappel/display.h</text>
</a>
</g>
</g>
<!-- Node1&#45;&gt;Node2 -->
<g id="edge1" class="edge"><title>Node1&#45;&gt;Node2</title>
<path fill="none" stroke="midnightblue" d="M95,-110.219C95,-103.177 95,-92.8083 95,-83.8277"/>
<polygon fill="midnightblue" stroke="midnightblue" points="98.5001,-83.5495 95,-73.5496 91.5001,-83.5496 98.5001,-83.5495"/>
</g>
<!-- Node3 -->
<g id="node3" class="node"><title>Node3</title>
<polygon fill="white" stroke="#bfbfbf" points="0,-0.5 0,-18.5 52,-18.5 52,-0.5 0,-0.5"/>
<text text-anchor="middle" x="26" y="-7.3" font-family="Helvetica,sans-Serif" font-size="9.00">iostream</text>
</g>
<!-- Node2&#45;&gt;Node3 -->
<g id="edge2" class="edge"><title>Node2&#45;&gt;Node3</title>
<path fill="none" stroke="midnightblue" d="M84.5204,-55.4504C73.9832,-47.3566 57.5111,-34.7042 44.7239,-24.8822"/>
<polygon fill="midnightblue" stroke="midnightblue" points="46.6408,-21.9412 36.5782,-18.6253 42.3767,-27.4926 46.6408,-21.9412"/>
</g>
<!-- Node4 -->
<g id="node4" class="node"><title>Node4</title>
<polygon fill="white" stroke="#bfbfbf" points="70,-0.5 70,-18.5 120,-18.5 120,-0.5 70,-0.5"/>
<text text-anchor="middle" x="95" y="-7.3" font-family="Helvetica,sans-Serif" font-size="9.00">iomanip</text>
</g>
<!-- Node2&#45;&gt;Node4 -->
<g id="edge3" class="edge"><title>Node2&#45;&gt;Node4</title>
<path fill="none" stroke="midnightblue" d="M95,-55.2188C95,-48.1769 95,-37.8083 95,-28.8277"/>
<polygon fill="midnightblue" stroke="midnightblue" points="98.5001,-28.5495 95,-18.5496 91.5001,-28.5496 98.5001,-28.5495"/>
</g>
<!-- Node5 -->
<g id="node5" class="node"><title>Node5</title>
<polygon fill="white" stroke="#bfbfbf" points="138.5,-0.5 138.5,-18.5 193.5,-18.5 193.5,-0.5 138.5,-0.5"/>
<text text-anchor="middle" x="166" y="-7.3" font-family="Helvetica,sans-Serif" font-size="9.00">armadillo</text>
</g>
<!-- Node2&#45;&gt;Node5 -->
<g id="edge4" class="edge"><title>Node2&#45;&gt;Node5</title>
<path fill="none" stroke="midnightblue" d="M105.783,-55.4504C116.626,-47.3566 133.576,-34.7042 146.733,-24.8822"/>
<polygon fill="midnightblue" stroke="midnightblue" points="149.195,-27.412 155.115,-18.6253 145.008,-21.8025 149.195,-27.412"/>
</g>
</g>
</svg>
