<?xml version="1.0" encoding="UTF-8" standalone="no"?>
<!DOCTYPE svg PUBLIC "-//W3C//DTD SVG 1.1//EN"
 "http://www.w3.org/Graphics/SVG/1.1/DTD/svg11.dtd">
<!-- Generated by graphviz version 2.38.0 (20140413.2041)
 -->
<!-- Title: estimator_impl.h Pages: 1 -->
<!--zoomable 267 -->
<svg id="main" version="1.1" xmlns="http://www.w3.org/2000/svg" xmlns:xlink="http://www.w3.org/1999/xlink" xml:space="preserve" onload="init(evt)">
<style type="text/css"><![CDATA[
.edge:hover path { stroke: red; }
.edge:hover polygon { stroke: red; fill: red; }
]]></style>
<script type="text/javascript"><![CDATA[
var edges = document.getElementsByTagName('g');
if (edges && edges.length) {
  for (var i=0;i<edges.length;i++) {
    if (edges[i].id.substr(0,4)=='edge') {
      edges[i].setAttribute('class','edge');
    }
  }
}
]]></script>
        <defs>
                <circle id="rim" cx="0" cy="0" r="7"/>
                <circle id="rim2" cx="0" cy="0" r="3.5"/>
                <g id="zoomPlus">
                        <use xlink:href="#rim" fill="#404040">
                                <set attributeName="fill" to="#808080" begin="zoomplus.mouseover" end="zoomplus.mouseout"/>
                        </use>
                        <path d="M-4,0h8M0,-4v8" fill="none" stroke="white" stroke-width="1.5" pointer-events="none"/>
                </g>
                <g id="zoomMin">
                        <use xlink:href="#rim" fill="#404040">
                                <set attributeName="fill" to="#808080" begin="zoomminus.mouseover" end="zoomminus.mouseout"/>
                        </use>
                        <path d="M-4,0h8" fill="none" stroke="white" stroke-width="1.5" pointer-events="none"/>
                </g>
                <g id="dirArrow">
                        <path fill="none" stroke="white" stroke-width="1.5" d="M0,-3.0v7 M-2.5,-0.5L0,-3.0L2.5,-0.5"/>
                </g>
               <g id="resetDef">
                       <use xlink:href="#rim2" fill="#404040">
                               <set attributeName="fill" to="#808080" begin="reset.mouseover" end="reset.mouseout"/>
                       </use>
               </g>
        </defs>

<script type="text/javascript">
var viewWidth = 1157;
var viewHeight = 267;
var sectionId = 'dynsection-0';
</script>
<script xlink:href="svgpan.js"/>
<svg id="graph" class="graph">
<g id="viewport">
<title>estimator_impl.h</title>
<polygon fill="white" stroke="none" points="-4,4 -4,-263 1152.82,-263 1152.82,4 -4,4"/>
<!-- Node1 -->
<g id="node1" class="node"><title>Node1</title>
<polygon fill="#bfbfbf" stroke="black" points="282.5,-240.5 282.5,-258.5 366.5,-258.5 366.5,-240.5 282.5,-240.5"/>
<text text-anchor="middle" x="324.5" y="-247.3" font-family="Helvetica,sans-Serif" font-size="9.00">estimator_impl.h</text>
</g>
<!-- Node2 -->
<g id="node2" class="node"><title>Node2</title>
<polygon fill="white" stroke="#bfbfbf" points="0,-185.5 0,-203.5 43,-203.5 43,-185.5 0,-185.5"/>
<text text-anchor="middle" x="21.5" y="-192.3" font-family="Helvetica,sans-Serif" font-size="9.00">thread</text>
</g>
<!-- Node1&#45;&gt;Node2 -->
<g id="edge1" class="edge"><title>Node1&#45;&gt;Node2</title>
<path fill="none" stroke="midnightblue" d="M282.259,-242.351C229.488,-234.464 136.511,-219.894 57.5,-204 56.0441,-203.707 54.5575,-203.398 53.0576,-203.077"/>
<polygon fill="midnightblue" stroke="midnightblue" points="53.6739,-199.629 43.1507,-200.859 52.1441,-206.46 53.6739,-199.629"/>
</g>
<!-- Node3 -->
<g id="node3" class="node"><title>Node3</title>
<polygon fill="white" stroke="#bfbfbf" points="216,-5.5 216,-23.5 257,-23.5 257,-5.5 216,-5.5"/>
<text text-anchor="middle" x="236.5" y="-12.3" font-family="Helvetica,sans-Serif" font-size="9.00">cmath</text>
</g>
<!-- Node1&#45;&gt;Node3 -->
<g id="edge2" class="edge"><title>Node1&#45;&gt;Node3</title>
<path fill="none" stroke="midnightblue" d="M282.358,-248.174C242.979,-245.719 184.681,-236.3 146.5,-204 126.139,-186.774 127.948,-175.108 122.5,-149 111.127,-94.4988 174.033,-49.802 211.001,-28.6689"/>
<polygon fill="midnightblue" stroke="midnightblue" points="213.158,-31.4762 220.219,-23.5777 209.773,-25.3487 213.158,-31.4762"/>
</g>
<!-- Node4 -->
<g id="node4" class="node"><title>Node4</title>
<polygon fill="white" stroke="#bfbfbf" points="278,-5.5 278,-23.5 333,-23.5 333,-5.5 278,-5.5"/>
<text text-anchor="middle" x="305.5" y="-12.3" font-family="Helvetica,sans-Serif" font-size="9.00">armadillo</text>
</g>
<!-- Node1&#45;&gt;Node4 -->
<g id="edge3" class="edge"><title>Node1&#45;&gt;Node4</title>
<path fill="none" stroke="midnightblue" d="M333.53,-240.26C352.946,-221.497 395.863,-173.818 382.5,-130 370.401,-90.3266 339.445,-51.9418 320.674,-31.2508"/>
<polygon fill="midnightblue" stroke="midnightblue" points="323.066,-28.6837 313.691,-23.7491 317.943,-33.4533 323.066,-28.6837"/>
</g>
<!-- Node5 -->
<g id="node5" class="node"><title>Node5</title>
<g id="a_node5"><a xlink:href="estimator_8h.html" target="_top" xlink:title="The class declaration and inline and templated functions for the Estimator class hierarchy. ">
<polygon fill="white" stroke="black" points="760.5,-185.5 760.5,-203.5 822.5,-203.5 822.5,-185.5 760.5,-185.5"/>
<text text-anchor="middle" x="791.5" y="-192.3" font-family="Helvetica,sans-Serif" font-size="9.00">estimator.h</text>
</a>
</g>
</g>
<!-- Node1&#45;&gt;Node5 -->
<g id="edge4" class="edge"><title>Node1&#45;&gt;Node5</title>
<path fill="none" stroke="midnightblue" d="M366.767,-243.703C455.873,-233.59 662.033,-210.193 750.245,-200.182"/>
<polygon fill="midnightblue" stroke="midnightblue" points="750.861,-203.635 760.402,-199.029 750.071,-196.679 750.861,-203.635"/>
</g>
<!-- Node13 -->
<g id="node13" class="node"><title>Node13</title>
<g id="a_node13"><a xlink:href="rng_8h.html" target="_top" xlink:title="Random number generation usign sfmt. ">
<polygon fill="white" stroke="black" points="519,-130.5 519,-148.5 590,-148.5 590,-130.5 519,-130.5"/>
<text text-anchor="middle" x="554.5" y="-137.3" font-family="Helvetica,sans-Serif" font-size="9.00">Mappel/rng.h</text>
</a>
</g>
</g>
<!-- Node1&#45;&gt;Node13 -->
<g id="edge29" class="edge"><title>Node1&#45;&gt;Node13</title>
<path fill="none" stroke="midnightblue" d="M341.787,-240.382C381.679,-221.651 480.378,-175.305 527.983,-152.952"/>
<polygon fill="midnightblue" stroke="midnightblue" points="529.762,-155.983 537.326,-148.564 526.786,-149.647 529.762,-155.983"/>
</g>
<!-- Node24 -->
<g id="node24" class="node"><title>Node24</title>
<g id="a_node24"><a xlink:href="numerical_8h.html" target="_top" xlink:title="Numerical matrix operations. ">
<polygon fill="white" stroke="black" points="275.5,-130.5 275.5,-148.5 373.5,-148.5 373.5,-130.5 275.5,-130.5"/>
<text text-anchor="middle" x="324.5" y="-137.3" font-family="Helvetica,sans-Serif" font-size="9.00">Mappel/numerical.h</text>
</a>
</g>
</g>
<!-- Node1&#45;&gt;Node24 -->
<g id="edge30" class="edge"><title>Node1&#45;&gt;Node24</title>
<path fill="none" stroke="midnightblue" d="M324.5,-240.382C324.5,-223.182 324.5,-182.698 324.5,-158.887"/>
<polygon fill="midnightblue" stroke="midnightblue" points="328,-158.712 324.5,-148.712 321,-158.712 328,-158.712"/>
</g>
<!-- Node26 -->
<g id="node26" class="node"><title>Node26</title>
<g id="a_node26"><a xlink:href="display_8h.html" target="_top" xlink:title="Mappel/display.h">
<polygon fill="white" stroke="black" points="155.5,-185.5 155.5,-203.5 241.5,-203.5 241.5,-185.5 155.5,-185.5"/>
<text text-anchor="middle" x="198.5" y="-192.3" font-family="Helvetica,sans-Serif" font-size="9.00">Mappel/display.h</text>
</a>
</g>
</g>
<!-- Node1&#45;&gt;Node26 -->
<g id="edge35" class="edge"><title>Node1&#45;&gt;Node26</title>
<path fill="none" stroke="midnightblue" d="M305.363,-240.45C284.549,-231.695 251.053,-217.606 227.111,-207.535"/>
<polygon fill="midnightblue" stroke="midnightblue" points="228.392,-204.276 217.817,-203.625 225.677,-210.729 228.392,-204.276"/>
</g>
<!-- Node6 -->
<g id="node6" class="node"><title>Node6</title>
<polygon fill="white" stroke="#bfbfbf" points="608.5,-130.5 608.5,-148.5 664.5,-148.5 664.5,-130.5 608.5,-130.5"/>
<text text-anchor="middle" x="636.5" y="-137.3" font-family="Helvetica,sans-Serif" font-size="9.00">exception</text>
</g>
<!-- Node5&#45;&gt;Node6 -->
<g id="edge5" class="edge"><title>Node5&#45;&gt;Node6</title>
<path fill="none" stroke="midnightblue" d="M767.959,-185.45C741.709,-176.475 699.062,-161.892 669.492,-151.781"/>
<polygon fill="midnightblue" stroke="midnightblue" points="670.603,-148.462 660.008,-148.538 668.338,-155.086 670.603,-148.462"/>
</g>
<!-- Node7 -->
<g id="node7" class="node"><title>Node7</title>
<polygon fill="white" stroke="#bfbfbf" points="683,-130.5 683,-148.5 730,-148.5 730,-130.5 683,-130.5"/>
<text text-anchor="middle" x="706.5" y="-137.3" font-family="Helvetica,sans-Serif" font-size="9.00">fstream</text>
</g>
<!-- Node5&#45;&gt;Node7 -->
<g id="edge6" class="edge"><title>Node5&#45;&gt;Node7</title>
<path fill="none" stroke="midnightblue" d="M778.59,-185.45C765.235,-177.123 744.141,-163.97 728.214,-154.039"/>
<polygon fill="midnightblue" stroke="midnightblue" points="729.869,-150.946 719.531,-148.625 726.165,-156.886 729.869,-150.946"/>
</g>
<!-- Node8 -->
<g id="node8" class="node"><title>Node8</title>
<polygon fill="white" stroke="#bfbfbf" points="743,-5.5 743,-23.5 782,-23.5 782,-5.5 743,-5.5"/>
<text text-anchor="middle" x="762.5" y="-12.3" font-family="Helvetica,sans-Serif" font-size="9.00">string</text>
</g>
<!-- Node5&#45;&gt;Node8 -->
<g id="edge7" class="edge"><title>Node5&#45;&gt;Node8</title>
<path fill="none" stroke="midnightblue" d="M795.131,-185.35C803.862,-164.528 824.119,-107.986 807.5,-65 802.2,-51.2898 791.141,-39.0372 781.314,-30.152"/>
<polygon fill="midnightblue" stroke="midnightblue" points="783.391,-27.3243 773.502,-23.5224 778.862,-32.6614 783.391,-27.3243"/>
</g>
<!-- Node9 -->
<g id="node9" class="node"><title>Node9</title>
<polygon fill="white" stroke="#bfbfbf" points="748.5,-130.5 748.5,-148.5 786.5,-148.5 786.5,-130.5 748.5,-130.5"/>
<text text-anchor="middle" x="767.5" y="-137.3" font-family="Helvetica,sans-Serif" font-size="9.00">limits</text>
</g>
<!-- Node5&#45;&gt;Node9 -->
<g id="edge8" class="edge"><title>Node5&#45;&gt;Node9</title>
<path fill="none" stroke="midnightblue" d="M787.75,-185.219C784.455,-177.942 779.551,-167.113 775.395,-157.934"/>
<polygon fill="midnightblue" stroke="midnightblue" points="778.459,-156.215 771.145,-148.55 772.082,-159.103 778.459,-156.215"/>
</g>
<!-- Node10 -->
<g id="node10" class="node"><title>Node10</title>
<polygon fill="white" stroke="#bfbfbf" points="852.5,-5.5 852.5,-23.5 902.5,-23.5 902.5,-5.5 852.5,-5.5"/>
<text text-anchor="middle" x="877.5" y="-12.3" font-family="Helvetica,sans-Serif" font-size="9.00">memory</text>
</g>
<!-- Node5&#45;&gt;Node10 -->
<g id="edge9" class="edge"><title>Node5&#45;&gt;Node10</title>
<path fill="none" stroke="midnightblue" d="M822.767,-189.09C846.62,-183.907 877.943,-172.761 893.5,-149 916.98,-113.139 898.544,-60.0379 886.243,-32.8789"/>
<polygon fill="midnightblue" stroke="midnightblue" points="889.249,-31.0514 881.782,-23.5358 882.933,-34.068 889.249,-31.0514"/>
</g>
<!-- Node11 -->
<g id="node11" class="node"><title>Node11</title>
<polygon fill="white" stroke="#bfbfbf" points="843,-130.5 843,-148.5 884,-148.5 884,-130.5 843,-130.5"/>
<text text-anchor="middle" x="863.5" y="-137.3" font-family="Helvetica,sans-Serif" font-size="9.00">mutex</text>
</g>
<!-- Node5&#45;&gt;Node11 -->
<g id="edge10" class="edge"><title>Node5&#45;&gt;Node11</title>
<path fill="none" stroke="midnightblue" d="M802.435,-185.45C813.536,-177.279 830.95,-164.46 844.346,-154.6"/>
<polygon fill="midnightblue" stroke="midnightblue" points="846.483,-157.372 852.462,-148.625 842.334,-151.735 846.483,-157.372"/>
</g>
<!-- Node12 -->
<g id="node12" class="node"><title>Node12</title>
<polygon fill="white" stroke="#bfbfbf" points="1039,-5.5 1039,-23.5 1074,-23.5 1074,-5.5 1039,-5.5"/>
<text text-anchor="middle" x="1056.5" y="-12.3" font-family="Helvetica,sans-Serif" font-size="9.00">map</text>
</g>
<!-- Node5&#45;&gt;Node12 -->
<g id="edge11" class="edge"><title>Node5&#45;&gt;Node12</title>
<path fill="none" stroke="midnightblue" d="M822.784,-191.81C904.191,-187.093 1117.76,-172.568 1138.5,-149 1172.64,-110.198 1110.92,-55.4461 1076.84,-29.8005"/>
<polygon fill="midnightblue" stroke="midnightblue" points="1078.59,-26.7422 1068.45,-23.6548 1074.45,-32.3886 1078.59,-26.7422"/>
</g>
<!-- Node5&#45;&gt;Node13 -->
<g id="edge12" class="edge"><title>Node5&#45;&gt;Node13</title>
<path fill="none" stroke="midnightblue" d="M760.028,-186.462C719.088,-177.307 647.26,-161.244 600.284,-150.739"/>
<polygon fill="midnightblue" stroke="midnightblue" points="600.89,-147.288 590.367,-148.521 599.363,-154.119 600.89,-147.288"/>
</g>
<!-- Node15 -->
<g id="node15" class="node"><title>Node15</title>
<g id="a_node15"><a xlink:href="util_8h.html" target="_top" xlink:title="Mappel/util.h">
<polygon fill="white" stroke="black" points="419,-70.5 419,-88.5 488,-88.5 488,-70.5 419,-70.5"/>
<text text-anchor="middle" x="453.5" y="-77.3" font-family="Helvetica,sans-Serif" font-size="9.00">Mappel/util.h</text>
</a>
</g>
</g>
<!-- Node5&#45;&gt;Node15 -->
<g id="edge28" class="edge"><title>Node5&#45;&gt;Node15</title>
<path fill="none" stroke="midnightblue" d="M760.216,-191.371C696.012,-186.553 551.844,-173.3 509.5,-149 488.538,-136.97 472.188,-113.851 462.701,-97.8189"/>
<polygon fill="midnightblue" stroke="midnightblue" points="465.648,-95.9199 457.7,-88.9148 459.545,-99.3477 465.648,-95.9199"/>
</g>
<!-- Node22 -->
<g id="node22" class="node"><title>Node22</title>
<polygon fill="white" stroke="#bfbfbf" points="941,-130.5 941,-148.5 1066,-148.5 1066,-130.5 941,-130.5"/>
<text text-anchor="middle" x="1003.5" y="-137.3" font-family="Helvetica,sans-Serif" font-size="9.00">cGaussMLE/cGaussMLE.h</text>
</g>
<!-- Node5&#45;&gt;Node22 -->
<g id="edge26" class="edge"><title>Node5&#45;&gt;Node22</title>
<path fill="none" stroke="midnightblue" d="M822.781,-185.68C859.52,-176.495 920.622,-161.219 961.473,-151.007"/>
<polygon fill="midnightblue" stroke="midnightblue" points="962.543,-154.347 971.395,-148.526 960.845,-147.556 962.543,-154.347"/>
</g>
<!-- Node23 -->
<g id="node23" class="node"><title>Node23</title>
<polygon fill="white" stroke="#bfbfbf" points="1084,-130.5 1084,-148.5 1129,-148.5 1129,-130.5 1084,-130.5"/>
<text text-anchor="middle" x="1106.5" y="-137.3" font-family="Helvetica,sans-Serif" font-size="9.00">chrono</text>
</g>
<!-- Node5&#45;&gt;Node23 -->
<g id="edge27" class="edge"><title>Node5&#45;&gt;Node23</title>
<path fill="none" stroke="midnightblue" d="M822.809,-189.762C873.615,-183.445 977.313,-169.508 1073.96,-149.137"/>
<polygon fill="midnightblue" stroke="midnightblue" points="1074.84,-152.528 1083.89,-147.016 1073.37,-145.683 1074.84,-152.528"/>
</g>
<!-- Node14 -->
<g id="node14" class="node"><title>Node14</title>
<polygon fill="white" stroke="#bfbfbf" points="750.5,-70.5 750.5,-88.5 798.5,-88.5 798.5,-70.5 750.5,-70.5"/>
<text text-anchor="middle" x="774.5" y="-77.3" font-family="Helvetica,sans-Serif" font-size="9.00">random</text>
</g>
<!-- Node13&#45;&gt;Node14 -->
<g id="edge13" class="edge"><title>Node13&#45;&gt;Node14</title>
<path fill="none" stroke="midnightblue" d="M590.103,-131.738C628.062,-124.134 689.713,-110.644 741.5,-94 743.161,-93.4661 744.857,-92.8861 746.559,-92.2767"/>
<polygon fill="midnightblue" stroke="midnightblue" points="748.105,-95.432 756.186,-88.5795 745.596,-88.8973 748.105,-95.432"/>
</g>
<!-- Node13&#45;&gt;Node15 -->
<g id="edge14" class="edge"><title>Node13&#45;&gt;Node15</title>
<path fill="none" stroke="midnightblue" d="M540.456,-130.435C523.892,-120.923 496.122,-104.976 476.424,-93.6645"/>
<polygon fill="midnightblue" stroke="midnightblue" points="478.165,-90.6279 467.75,-88.6831 474.679,-96.6982 478.165,-90.6279"/>
</g>
<!-- Node20 -->
<g id="node20" class="node"><title>Node20</title>
<polygon fill="white" stroke="#bfbfbf" points="506,-70.5 506,-88.5 603,-88.5 603,-70.5 506,-70.5"/>
<text text-anchor="middle" x="554.5" y="-77.3" font-family="Helvetica,sans-Serif" font-size="9.00">trng/lcg64_shift.hpp</text>
</g>
<!-- Node13&#45;&gt;Node20 -->
<g id="edge24" class="edge"><title>Node13&#45;&gt;Node20</title>
<path fill="none" stroke="midnightblue" d="M554.5,-130.435C554.5,-122.389 554.5,-109.739 554.5,-99.1846"/>
<polygon fill="midnightblue" stroke="midnightblue" points="558,-98.8717 554.5,-88.8718 551,-98.8718 558,-98.8717"/>
</g>
<!-- Node21 -->
<g id="node21" class="node"><title>Node21</title>
<polygon fill="white" stroke="#bfbfbf" points="620.5,-65.5 620.5,-93.5 732.5,-93.5 732.5,-65.5 620.5,-65.5"/>
<text text-anchor="start" x="628.5" y="-82.3" font-family="Helvetica,sans-Serif" font-size="9.00">ParallelRngManager</text>
<text text-anchor="middle" x="676.5" y="-72.3" font-family="Helvetica,sans-Serif" font-size="9.00">/ParallelRngManager.h</text>
</g>
<!-- Node13&#45;&gt;Node21 -->
<g id="edge25" class="edge"><title>Node13&#45;&gt;Node21</title>
<path fill="none" stroke="midnightblue" d="M571.464,-130.435C589.072,-122.064 617.164,-108.709 639.867,-97.9159"/>
<polygon fill="midnightblue" stroke="midnightblue" points="641.373,-101.075 648.902,-93.6203 638.368,-94.753 641.373,-101.075"/>
</g>
<!-- Node15&#45;&gt;Node3 -->
<g id="edge16" class="edge"><title>Node15&#45;&gt;Node3</title>
<path fill="none" stroke="midnightblue" d="M418.979,-70.7686C381.496,-62.0267 320.079,-46.6861 268.5,-29 266.892,-28.4487 265.251,-27.8552 263.602,-27.2353"/>
<polygon fill="midnightblue" stroke="midnightblue" points="264.857,-23.9676 254.272,-23.5094 262.261,-30.4684 264.857,-23.9676"/>
</g>
<!-- Node15&#45;&gt;Node4 -->
<g id="edge22" class="edge"><title>Node15&#45;&gt;Node4</title>
<path fill="none" stroke="midnightblue" d="M434.455,-70.3928C408.923,-59.5246 363.396,-40.145 333.834,-27.561"/>
<polygon fill="midnightblue" stroke="midnightblue" points="335.044,-24.2724 324.472,-23.5761 332.303,-30.7132 335.044,-24.2724"/>
</g>
<!-- Node15&#45;&gt;Node8 -->
<g id="edge19" class="edge"><title>Node15&#45;&gt;Node8</title>
<path fill="none" stroke="midnightblue" d="M477.462,-70.4171C483.625,-68.493 490.274,-66.5507 496.5,-65 581.43,-43.847 683.644,-27.2632 732.989,-19.8032"/>
<polygon fill="midnightblue" stroke="midnightblue" points="733.598,-23.2512 742.97,-18.3103 732.562,-16.3283 733.598,-23.2512"/>
</g>
<!-- Node15&#45;&gt;Node10 -->
<g id="edge17" class="edge"><title>Node15&#45;&gt;Node10</title>
<path fill="none" stroke="midnightblue" d="M476.501,-70.429C482.912,-68.413 489.923,-66.4227 496.5,-65 625.167,-37.1684 660.107,-47.0952 790.5,-29 807.639,-26.6216 826.632,-23.7068 842.488,-21.1952"/>
<polygon fill="midnightblue" stroke="midnightblue" points="843.081,-24.645 852.404,-19.6125 841.978,-17.7325 843.081,-24.645"/>
</g>
<!-- Node15&#45;&gt;Node12 -->
<g id="edge20" class="edge"><title>Node15&#45;&gt;Node12</title>
<path fill="none" stroke="midnightblue" d="M476.023,-70.4159C482.554,-68.3496 489.745,-66.3367 496.5,-65 678.115,-29.0595 727.107,-45.5814 911.5,-29 952.138,-25.3457 999.163,-20.9338 1028.37,-18.1717"/>
<polygon fill="midnightblue" stroke="midnightblue" points="1029.02,-21.6262 1038.65,-17.1989 1028.36,-14.6574 1029.02,-21.6262"/>
</g>
<!-- Node16 -->
<g id="node16" class="node"><title>Node16</title>
<polygon fill="white" stroke="#bfbfbf" points="543,-5.5 543,-23.5 586,-23.5 586,-5.5 543,-5.5"/>
<text text-anchor="middle" x="564.5" y="-12.3" font-family="Helvetica,sans-Serif" font-size="9.00">cstdint</text>
</g>
<!-- Node15&#45;&gt;Node16 -->
<g id="edge15" class="edge"><title>Node15&#45;&gt;Node16</title>
<path fill="none" stroke="midnightblue" d="M468.011,-70.2639C486.728,-59.6408 519.497,-41.0423 541.592,-28.5017"/>
<polygon fill="midnightblue" stroke="midnightblue" points="543.367,-31.519 550.336,-23.539 539.912,-25.4312 543.367,-31.519"/>
</g>
<!-- Node17 -->
<g id="node17" class="node"><title>Node17</title>
<polygon fill="white" stroke="#bfbfbf" points="604.5,-5.5 604.5,-23.5 642.5,-23.5 642.5,-5.5 604.5,-5.5"/>
<text text-anchor="middle" x="623.5" y="-12.3" font-family="Helvetica,sans-Serif" font-size="9.00">utility</text>
</g>
<!-- Node15&#45;&gt;Node17 -->
<g id="edge18" class="edge"><title>Node15&#45;&gt;Node17</title>
<path fill="none" stroke="midnightblue" d="M478.738,-70.4693C507.168,-61.2321 554.613,-45.2401 594.5,-29 595.503,-28.5916 596.521,-28.1672 597.547,-27.7314"/>
<polygon fill="midnightblue" stroke="midnightblue" points="599.041,-30.8976 606.755,-23.6348 596.196,-24.502 599.041,-30.8976"/>
</g>
<!-- Node18 -->
<g id="node18" class="node"><title>Node18</title>
<polygon fill="white" stroke="#bfbfbf" points="351,-5.5 351,-23.5 400,-23.5 400,-5.5 351,-5.5"/>
<text text-anchor="middle" x="375.5" y="-12.3" font-family="Helvetica,sans-Serif" font-size="9.00">sstream</text>
</g>
<!-- Node15&#45;&gt;Node18 -->
<g id="edge21" class="edge"><title>Node15&#45;&gt;Node18</title>
<path fill="none" stroke="midnightblue" d="M443.303,-70.2639C430.62,-60.0202 408.756,-42.3606 393.289,-29.8679"/>
<polygon fill="midnightblue" stroke="midnightblue" points="395.432,-27.0996 385.453,-23.539 391.033,-32.5452 395.432,-27.0996"/>
</g>
<!-- Node19 -->
<g id="node19" class="node"><title>Node19</title>
<polygon fill="white" stroke="#bfbfbf" points="418,-0.5 418,-28.5 525,-28.5 525,-0.5 418,-0.5"/>
<text text-anchor="start" x="426" y="-17.3" font-family="Helvetica,sans-Serif" font-size="9.00">BacktraceException</text>
<text text-anchor="middle" x="471.5" y="-7.3" font-family="Helvetica,sans-Serif" font-size="9.00">/BacktraceException.h</text>
</g>
<!-- Node15&#45;&gt;Node19 -->
<g id="edge23" class="edge"><title>Node15&#45;&gt;Node19</title>
<path fill="none" stroke="midnightblue" d="M455.853,-70.2639C458.135,-62.2768 461.705,-49.7811 464.86,-38.7416"/>
<polygon fill="midnightblue" stroke="midnightblue" points="468.319,-39.3749 467.701,-28.7981 461.588,-37.4518 468.319,-39.3749"/>
</g>
<!-- Node24&#45;&gt;Node3 -->
<g id="edge31" class="edge"><title>Node24&#45;&gt;Node3</title>
<path fill="none" stroke="midnightblue" d="M304.226,-130.458C288.586,-123.219 267.636,-111.081 255.5,-94 242.831,-76.1682 238.547,-50.9189 237.133,-33.9138"/>
<polygon fill="midnightblue" stroke="midnightblue" points="240.611,-33.434 236.545,-23.6506 233.623,-33.8344 240.611,-33.434"/>
</g>
<!-- Node24&#45;&gt;Node4 -->
<g id="edge33" class="edge"><title>Node24&#45;&gt;Node4</title>
<path fill="none" stroke="midnightblue" d="M323.707,-130.313C322.342,-116.709 319.323,-88.604 315.5,-65 313.806,-54.5402 311.482,-42.9238 309.501,-33.5743"/>
<polygon fill="midnightblue" stroke="midnightblue" points="312.862,-32.5546 307.321,-23.5244 306.021,-34.0392 312.862,-32.5546"/>
</g>
<!-- Node24&#45;&gt;Node15 -->
<g id="edge34" class="edge"><title>Node24&#45;&gt;Node15</title>
<path fill="none" stroke="midnightblue" d="M342.437,-130.435C364.072,-120.708 400.674,-104.251 425.912,-92.9041"/>
<polygon fill="midnightblue" stroke="midnightblue" points="427.614,-95.9761 435.3,-88.6831 424.744,-89.5917 427.614,-95.9761"/>
</g>
<!-- Node25 -->
<g id="node25" class="node"><title>Node25</title>
<polygon fill="white" stroke="#bfbfbf" points="264.5,-70.5 264.5,-88.5 306.5,-88.5 306.5,-70.5 264.5,-70.5"/>
<text text-anchor="middle" x="285.5" y="-77.3" font-family="Helvetica,sans-Serif" font-size="9.00">climits</text>
</g>
<!-- Node24&#45;&gt;Node25 -->
<g id="edge32" class="edge"><title>Node24&#45;&gt;Node25</title>
<path fill="none" stroke="midnightblue" d="M319.077,-130.435C313.321,-121.876 304.062,-108.105 296.723,-97.1909"/>
<polygon fill="midnightblue" stroke="midnightblue" points="299.614,-95.2172 291.129,-88.8718 293.805,-99.1232 299.614,-95.2172"/>
</g>
<!-- Node26&#45;&gt;Node4 -->
<g id="edge38" class="edge"><title>Node26&#45;&gt;Node4</title>
<path fill="none" stroke="midnightblue" d="M176.479,-185.483C151.247,-174.933 115.012,-154.79 128.5,-130 145.163,-99.376 235.058,-50.9165 279.955,-28.1302"/>
<polygon fill="midnightblue" stroke="midnightblue" points="281.704,-31.1678 289.064,-23.5462 278.558,-24.9149 281.704,-31.1678"/>
</g>
<!-- Node27 -->
<g id="node27" class="node"><title>Node27</title>
<polygon fill="white" stroke="#bfbfbf" points="137.5,-130.5 137.5,-148.5 189.5,-148.5 189.5,-130.5 137.5,-130.5"/>
<text text-anchor="middle" x="163.5" y="-137.3" font-family="Helvetica,sans-Serif" font-size="9.00">iostream</text>
</g>
<!-- Node26&#45;&gt;Node27 -->
<g id="edge36" class="edge"><title>Node26&#45;&gt;Node27</title>
<path fill="none" stroke="midnightblue" d="M193.031,-185.219C188.071,-177.707 180.611,-166.411 174.43,-157.052"/>
<polygon fill="midnightblue" stroke="midnightblue" points="177.247,-154.965 168.816,-148.55 171.406,-158.823 177.247,-154.965"/>
</g>
<!-- Node28 -->
<g id="node28" class="node"><title>Node28</title>
<polygon fill="white" stroke="#bfbfbf" points="207.5,-130.5 207.5,-148.5 257.5,-148.5 257.5,-130.5 207.5,-130.5"/>
<text text-anchor="middle" x="232.5" y="-137.3" font-family="Helvetica,sans-Serif" font-size="9.00">iomanip</text>
</g>
<!-- Node26&#45;&gt;Node28 -->
<g id="edge37" class="edge"><title>Node26&#45;&gt;Node28</title>
<path fill="none" stroke="midnightblue" d="M203.812,-185.219C208.631,-177.707 215.878,-166.411 221.882,-157.052"/>
<polygon fill="midnightblue" stroke="midnightblue" points="224.882,-158.856 227.336,-148.55 218.991,-155.077 224.882,-158.856"/>
</g>
</g>
</svg>
        <g id="navigator" transform="translate(0 0)" fill="#404254">
                <rect fill="#f2f5e9" fill-opacity="0.5" stroke="#606060" stroke-width=".5" x="0" y="0" width="60" height="60"/>
                <use id="zoomplus" xlink:href="#zoomPlus" x="17" y="9" onmousedown="handleZoom(evt,'in')"/>
                <use id="zoomminus" xlink:href="#zoomMin" x="42" y="9" onmousedown="handleZoom(evt,'out')"/>
                <use id="reset" xlink:href="#resetDef" x="30" y="36" onmousedown="handleReset()"/>
                <g id="arrowUp" xlink:href="#dirArrow" transform="translate(30 24)" onmousedown="handlePan(0,-1)">
                  <use xlink:href="#rim" fill="#404040">
                        <set attributeName="fill" to="#808080" begin="arrowUp.mouseover" end="arrowUp.mouseout"/>
                  </use>
                  <path fill="none" stroke="white" stroke-width="1.5" d="M0,-3.0v7 M-2.5,-0.5L0,-3.0L2.5,-0.5"/>
                </g>
                <g id="arrowRight" xlink:href="#dirArrow" transform="rotate(90) translate(36 -43)" onmousedown="handlePan(1,0)">
                  <use xlink:href="#rim" fill="#404040">
                        <set attributeName="fill" to="#808080" begin="arrowRight.mouseover" end="arrowRight.mouseout"/>
                  </use>
                  <path fill="none" stroke="white" stroke-width="1.5" d="M0,-3.0v7 M-2.5,-0.5L0,-3.0L2.5,-0.5"/>
                </g>
                <g id="arrowDown" xlink:href="#dirArrow" transform="rotate(180) translate(-30 -48)" onmousedown="handlePan(0,1)">
                  <use xlink:href="#rim" fill="#404040">
                        <set attributeName="fill" to="#808080" begin="arrowDown.mouseover" end="arrowDown.mouseout"/>
                  </use>
                  <path fill="none" stroke="white" stroke-width="1.5" d="M0,-3.0v7 M-2.5,-0.5L0,-3.0L2.5,-0.5"/>
                </g>
                <g id="arrowLeft" xlink:href="#dirArrow" transform="rotate(270) translate(-36 17)" onmousedown="handlePan(-1,0)">
                  <use xlink:href="#rim" fill="#404040">
                        <set attributeName="fill" to="#808080" begin="arrowLeft.mouseover" end="arrowLeft.mouseout"/>
                  </use>
                  <path fill="none" stroke="white" stroke-width="1.5" d="M0,-3.0v7 M-2.5,-0.5L0,-3.0L2.5,-0.5"/>
                </g>
        </g>
        <svg viewBox="0 0 15 15" width="100%" height="30px" preserveAspectRatio="xMaxYMin meet">
         <g id="arrow_out" transform="scale(0.3 0.3)">
          <a xlink:href="estimator__impl_8h__incl_org.svg" target="_base">
           <rect id="button" ry="5" rx="5" y="6" x="6" height="38" width="38"
                fill="#f2f5e9" fill-opacity="0.5" stroke="#606060" stroke-width="1.0"/>
           <path id="arrow"
             d="M 11.500037,31.436501 C 11.940474,20.09759 22.043105,11.32322 32.158766,21.979434 L 37.068811,17.246167 C 37.068811,17.246167 37.088388,32 37.088388,32 L 22.160133,31.978069 C 22.160133,31.978069 26.997745,27.140456 26.997745,27.140456 C 18.528582,18.264221 13.291696,25.230495 11.500037,31.436501 z"
             style="fill:#404040;"/>
          </a>
         </g>
        </svg>
</svg>
