<?xml version="1.0" encoding="UTF-8" standalone="no"?>
<!DOCTYPE svg PUBLIC "-//W3C//DTD SVG 1.1//EN"
 "http://www.w3.org/Graphics/SVG/1.1/DTD/svg11.dtd">
<!-- Generated by graphviz version 2.38.0 (20140413.2041)
 -->
<!-- Title: estimator.h Pages: 1 -->
<svg width="695pt" height="212pt"
 viewBox="0.00 0.00 695.00 212.00" xmlns="http://www.w3.org/2000/svg" xmlns:xlink="http://www.w3.org/1999/xlink">
<g id="graph0" class="graph" transform="scale(1 1) rotate(0) translate(4 208)">
<title>estimator.h</title>
<polygon fill="white" stroke="none" points="-4,4 -4,-208 691,-208 691,4 -4,4"/>
<!-- Node1 -->
<g id="node1" class="node"><title>Node1</title>
<polygon fill="#bfbfbf" stroke="black" points="233,-185.5 233,-203.5 295,-203.5 295,-185.5 233,-185.5"/>
<text text-anchor="middle" x="264" y="-192.3" font-family="Helvetica,sans-Serif" font-size="9.00">estimator.h</text>
</g>
<!-- Node2 -->
<g id="node2" class="node"><title>Node2</title>
<polygon fill="white" stroke="#bfbfbf" points="-3.55271e-15,-130.5 -3.55271e-15,-148.5 56,-148.5 56,-130.5 -3.55271e-15,-130.5"/>
<text text-anchor="middle" x="28" y="-137.3" font-family="Helvetica,sans-Serif" font-size="9.00">exception</text>
</g>
<!-- Node1&#45;&gt;Node2 -->
<g id="edge1" class="edge"><title>Node1&#45;&gt;Node2</title>
<path fill="none" stroke="midnightblue" d="M232.661,-186.462C189.647,-176.802 112.394,-159.453 66.0951,-149.055"/>
<polygon fill="midnightblue" stroke="midnightblue" points="66.6735,-145.598 56.1496,-146.822 65.1396,-152.428 66.6735,-145.598"/>
</g>
<!-- Node3 -->
<g id="node3" class="node"><title>Node3</title>
<polygon fill="white" stroke="#bfbfbf" points="74.5,-130.5 74.5,-148.5 121.5,-148.5 121.5,-130.5 74.5,-130.5"/>
<text text-anchor="middle" x="98" y="-137.3" font-family="Helvetica,sans-Serif" font-size="9.00">fstream</text>
</g>
<!-- Node1&#45;&gt;Node3 -->
<g id="edge2" class="edge"><title>Node1&#45;&gt;Node3</title>
<path fill="none" stroke="midnightblue" d="M238.788,-185.45C210.062,-176.279 163.001,-161.253 131.282,-151.126"/>
<polygon fill="midnightblue" stroke="midnightblue" points="132.156,-147.731 121.565,-148.024 130.027,-154.399 132.156,-147.731"/>
</g>
<!-- Node4 -->
<g id="node4" class="node"><title>Node4</title>
<polygon fill="white" stroke="#bfbfbf" points="84.5,-5.5 84.5,-23.5 123.5,-23.5 123.5,-5.5 84.5,-5.5"/>
<text text-anchor="middle" x="104" y="-12.3" font-family="Helvetica,sans-Serif" font-size="9.00">string</text>
</g>
<!-- Node1&#45;&gt;Node4 -->
<g id="edge3" class="edge"><title>Node1&#45;&gt;Node4</title>
<path fill="none" stroke="midnightblue" d="M256.709,-185.389C232.033,-157.937 151.354,-68.181 118.309,-31.4188"/>
<polygon fill="midnightblue" stroke="midnightblue" points="120.622,-28.7558 111.333,-23.6585 115.416,-33.4354 120.622,-28.7558"/>
</g>
<!-- Node5 -->
<g id="node5" class="node"><title>Node5</title>
<polygon fill="white" stroke="#bfbfbf" points="382,-130.5 382,-148.5 420,-148.5 420,-130.5 382,-130.5"/>
<text text-anchor="middle" x="401" y="-137.3" font-family="Helvetica,sans-Serif" font-size="9.00">limits</text>
</g>
<!-- Node1&#45;&gt;Node5 -->
<g id="edge4" class="edge"><title>Node1&#45;&gt;Node5</title>
<path fill="none" stroke="midnightblue" d="M284.807,-185.45C308.171,-176.412 346.23,-161.688 372.385,-151.57"/>
<polygon fill="midnightblue" stroke="midnightblue" points="373.707,-154.812 381.77,-147.939 371.181,-148.283 373.707,-154.812"/>
</g>
<!-- Node6 -->
<g id="node6" class="node"><title>Node6</title>
<polygon fill="white" stroke="#bfbfbf" points="142,-5.5 142,-23.5 192,-23.5 192,-5.5 142,-5.5"/>
<text text-anchor="middle" x="167" y="-12.3" font-family="Helvetica,sans-Serif" font-size="9.00">memory</text>
</g>
<!-- Node1&#45;&gt;Node6 -->
<g id="edge5" class="edge"><title>Node1&#45;&gt;Node6</title>
<path fill="none" stroke="midnightblue" d="M259.58,-185.389C244.809,-158.284 196.941,-70.4433 176.449,-32.8401"/>
<polygon fill="midnightblue" stroke="midnightblue" points="179.304,-30.7645 171.446,-23.6585 173.158,-34.1141 179.304,-30.7645"/>
</g>
<!-- Node7 -->
<g id="node7" class="node"><title>Node7</title>
<polygon fill="white" stroke="#bfbfbf" points="438.5,-130.5 438.5,-148.5 479.5,-148.5 479.5,-130.5 438.5,-130.5"/>
<text text-anchor="middle" x="459" y="-137.3" font-family="Helvetica,sans-Serif" font-size="9.00">mutex</text>
</g>
<!-- Node1&#45;&gt;Node7 -->
<g id="edge6" class="edge"><title>Node1&#45;&gt;Node7</title>
<path fill="none" stroke="midnightblue" d="M294.14,-185.494C325.304,-177.189 375.621,-163.706 428.461,-149.122"/>
<polygon fill="midnightblue" stroke="midnightblue" points="429.647,-152.425 438.353,-146.387 427.782,-145.679 429.647,-152.425"/>
</g>
<!-- Node8 -->
<g id="node8" class="node"><title>Node8</title>
<polygon fill="white" stroke="#bfbfbf" points="210.5,-5.5 210.5,-23.5 245.5,-23.5 245.5,-5.5 210.5,-5.5"/>
<text text-anchor="middle" x="228" y="-12.3" font-family="Helvetica,sans-Serif" font-size="9.00">map</text>
</g>
<!-- Node1&#45;&gt;Node8 -->
<g id="edge7" class="edge"><title>Node1&#45;&gt;Node8</title>
<path fill="none" stroke="midnightblue" d="M262.36,-185.389C256.925,-158.516 239.415,-71.9404 231.704,-33.8152"/>
<polygon fill="midnightblue" stroke="midnightblue" points="235.063,-32.7662 229.65,-23.6585 228.202,-34.1539 235.063,-32.7662"/>
</g>
<!-- Node9 -->
<g id="node9" class="node"><title>Node9</title>
<g id="a_node9"><a xlink:href="rng_8h.html" target="_top" xlink:title="Random number generation usign sfmt. ">
<polygon fill="white" stroke="black" points="292.5,-130.5 292.5,-148.5 363.5,-148.5 363.5,-130.5 292.5,-130.5"/>
<text text-anchor="middle" x="328" y="-137.3" font-family="Helvetica,sans-Serif" font-size="9.00">Mappel/rng.h</text>
</a>
</g>
</g>
<!-- Node1&#45;&gt;Node9 -->
<g id="edge8" class="edge"><title>Node1&#45;&gt;Node9</title>
<path fill="none" stroke="midnightblue" d="M273.72,-185.45C283.4,-177.434 298.479,-164.947 310.29,-155.166"/>
<polygon fill="midnightblue" stroke="midnightblue" points="312.719,-157.699 318.188,-148.625 308.254,-152.308 312.719,-157.699"/>
</g>
<!-- Node11 -->
<g id="node11" class="node"><title>Node11</title>
<g id="a_node11"><a xlink:href="util_8h.html" target="_top" xlink:title="Mappel/util.h">
<polygon fill="white" stroke="black" points="254.5,-70.5 254.5,-88.5 323.5,-88.5 323.5,-70.5 254.5,-70.5"/>
<text text-anchor="middle" x="289" y="-77.3" font-family="Helvetica,sans-Serif" font-size="9.00">Mappel/util.h</text>
</a>
</g>
</g>
<!-- Node1&#45;&gt;Node11 -->
<g id="edge24" class="edge"><title>Node1&#45;&gt;Node11</title>
<path fill="none" stroke="midnightblue" d="M265.798,-185.373C269.798,-167.293 279.514,-123.379 285.02,-98.4889"/>
<polygon fill="midnightblue" stroke="midnightblue" points="288.475,-99.073 287.218,-88.553 281.641,-97.5609 288.475,-99.073"/>
</g>
<!-- Node20 -->
<g id="node20" class="node"><title>Node20</title>
<polygon fill="white" stroke="#bfbfbf" points="497.5,-130.5 497.5,-148.5 622.5,-148.5 622.5,-130.5 497.5,-130.5"/>
<text text-anchor="middle" x="560" y="-137.3" font-family="Helvetica,sans-Serif" font-size="9.00">cGaussMLE/cGaussMLE.h</text>
</g>
<!-- Node1&#45;&gt;Node20 -->
<g id="edge22" class="edge"><title>Node1&#45;&gt;Node20</title>
<path fill="none" stroke="midnightblue" d="M295.118,-187.928C344.962,-179.003 443.367,-161.384 505.192,-150.314"/>
<polygon fill="midnightblue" stroke="midnightblue" points="505.936,-153.736 515.163,-148.528 504.702,-146.846 505.936,-153.736"/>
</g>
<!-- Node21 -->
<g id="node21" class="node"><title>Node21</title>
<polygon fill="white" stroke="#bfbfbf" points="640.5,-130.5 640.5,-148.5 685.5,-148.5 685.5,-130.5 640.5,-130.5"/>
<text text-anchor="middle" x="663" y="-137.3" font-family="Helvetica,sans-Serif" font-size="9.00">chrono</text>
</g>
<!-- Node1&#45;&gt;Node21 -->
<g id="edge23" class="edge"><title>Node1&#45;&gt;Node21</title>
<path fill="none" stroke="midnightblue" d="M295.26,-191.282C357.414,-186.539 501.01,-173.915 630.328,-149.075"/>
<polygon fill="midnightblue" stroke="midnightblue" points="631.26,-152.46 640.404,-147.109 629.919,-145.589 631.26,-152.46"/>
</g>
<!-- Node10 -->
<g id="node10" class="node"><title>Node10</title>
<polygon fill="white" stroke="#bfbfbf" points="342,-70.5 342,-88.5 390,-88.5 390,-70.5 342,-70.5"/>
<text text-anchor="middle" x="366" y="-77.3" font-family="Helvetica,sans-Serif" font-size="9.00">random</text>
</g>
<!-- Node9&#45;&gt;Node10 -->
<g id="edge9" class="edge"><title>Node9&#45;&gt;Node10</title>
<path fill="none" stroke="midnightblue" d="M333.284,-130.435C338.836,-121.961 347.734,-108.38 354.85,-97.5192"/>
<polygon fill="midnightblue" stroke="midnightblue" points="357.962,-99.1545 360.515,-88.8718 352.107,-95.3183 357.962,-99.1545"/>
</g>
<!-- Node9&#45;&gt;Node11 -->
<g id="edge10" class="edge"><title>Node9&#45;&gt;Node11</title>
<path fill="none" stroke="midnightblue" d="M322.577,-130.435C316.821,-121.876 307.562,-108.105 300.223,-97.1909"/>
<polygon fill="midnightblue" stroke="midnightblue" points="303.114,-95.2172 294.629,-88.8718 297.305,-99.1232 303.114,-95.2172"/>
</g>
<!-- Node18 -->
<g id="node18" class="node"><title>Node18</title>
<polygon fill="white" stroke="#bfbfbf" points="408.5,-70.5 408.5,-88.5 505.5,-88.5 505.5,-70.5 408.5,-70.5"/>
<text text-anchor="middle" x="457" y="-77.3" font-family="Helvetica,sans-Serif" font-size="9.00">trng/lcg64_shift.hpp</text>
</g>
<!-- Node9&#45;&gt;Node18 -->
<g id="edge20" class="edge"><title>Node9&#45;&gt;Node18</title>
<path fill="none" stroke="midnightblue" d="M345.937,-130.435C367.572,-120.708 404.174,-104.251 429.412,-92.9041"/>
<polygon fill="midnightblue" stroke="midnightblue" points="431.114,-95.9761 438.8,-88.6831 428.244,-89.5917 431.114,-95.9761"/>
</g>
<!-- Node19 -->
<g id="node19" class="node"><title>Node19</title>
<polygon fill="white" stroke="#bfbfbf" points="523,-65.5 523,-93.5 635,-93.5 635,-65.5 523,-65.5"/>
<text text-anchor="start" x="531" y="-82.3" font-family="Helvetica,sans-Serif" font-size="9.00">ParallelRngManager</text>
<text text-anchor="middle" x="579" y="-72.3" font-family="Helvetica,sans-Serif" font-size="9.00">/ParallelRngManager.h</text>
</g>
<!-- Node9&#45;&gt;Node19 -->
<g id="edge21" class="edge"><title>Node9&#45;&gt;Node19</title>
<path fill="none" stroke="midnightblue" d="M362.637,-130.496C401.182,-121.589 464.374,-106.987 512.539,-95.8575"/>
<polygon fill="midnightblue" stroke="midnightblue" points="513.62,-99.2001 522.575,-93.5385 512.044,-92.3799 513.62,-99.2001"/>
</g>
<!-- Node11&#45;&gt;Node4 -->
<g id="edge15" class="edge"><title>Node11&#45;&gt;Node4</title>
<path fill="none" stroke="midnightblue" d="M259.862,-70.4698C228.231,-61.4724 176.421,-45.9148 133,-29 131.965,-28.5968 130.915,-28.1743 129.858,-27.7378"/>
<polygon fill="midnightblue" stroke="midnightblue" points="130.967,-24.4021 120.404,-23.5822 128.15,-30.8103 130.967,-24.4021"/>
</g>
<!-- Node11&#45;&gt;Node6 -->
<g id="edge13" class="edge"><title>Node11&#45;&gt;Node6</title>
<path fill="none" stroke="midnightblue" d="M273.051,-70.2639C252.295,-59.546 215.818,-40.7095 191.53,-28.1673"/>
<polygon fill="midnightblue" stroke="midnightblue" points="193.059,-25.0175 182.568,-23.539 189.847,-31.2372 193.059,-25.0175"/>
</g>
<!-- Node11&#45;&gt;Node8 -->
<g id="edge16" class="edge"><title>Node11&#45;&gt;Node8</title>
<path fill="none" stroke="midnightblue" d="M281.025,-70.2639C271.382,-60.3048 254.952,-43.3359 242.931,-30.9206"/>
<polygon fill="midnightblue" stroke="midnightblue" points="245.254,-28.2885 235.784,-23.539 240.225,-33.1578 245.254,-28.2885"/>
</g>
<!-- Node12 -->
<g id="node12" class="node"><title>Node12</title>
<polygon fill="white" stroke="#bfbfbf" points="528.5,-5.5 528.5,-23.5 571.5,-23.5 571.5,-5.5 528.5,-5.5"/>
<text text-anchor="middle" x="550" y="-12.3" font-family="Helvetica,sans-Serif" font-size="9.00">cstdint</text>
</g>
<!-- Node11&#45;&gt;Node12 -->
<g id="edge11" class="edge"><title>Node11&#45;&gt;Node12</title>
<path fill="none" stroke="midnightblue" d="M313.537,-70.4612C319.843,-68.5364 326.642,-66.5825 333,-65 415.131,-44.5575 439.308,-54.5387 520,-29 521.429,-28.5476 522.881,-28.0461 524.335,-27.5102"/>
<polygon fill="midnightblue" stroke="midnightblue" points="525.847,-30.673 533.765,-23.6329 523.185,-24.199 525.847,-30.673"/>
</g>
<!-- Node13 -->
<g id="node13" class="node"><title>Node13</title>
<polygon fill="white" stroke="#bfbfbf" points="589.5,-5.5 589.5,-23.5 630.5,-23.5 630.5,-5.5 589.5,-5.5"/>
<text text-anchor="middle" x="610" y="-12.3" font-family="Helvetica,sans-Serif" font-size="9.00">cmath</text>
</g>
<!-- Node11&#45;&gt;Node13 -->
<g id="edge12" class="edge"><title>Node11&#45;&gt;Node13</title>
<path fill="none" stroke="midnightblue" d="M313.028,-70.3985C319.463,-68.4299 326.451,-66.4708 333,-65 441.67,-40.5934 474.271,-60.8399 581,-29 582.463,-28.5634 583.947,-28.0648 585.43,-27.5226"/>
<polygon fill="midnightblue" stroke="midnightblue" points="587.115,-30.6107 594.975,-23.506 584.4,-24.1587 587.115,-30.6107"/>
</g>
<!-- Node14 -->
<g id="node14" class="node"><title>Node14</title>
<polygon fill="white" stroke="#bfbfbf" points="649,-5.5 649,-23.5 687,-23.5 687,-5.5 649,-5.5"/>
<text text-anchor="middle" x="668" y="-12.3" font-family="Helvetica,sans-Serif" font-size="9.00">utility</text>
</g>
<!-- Node11&#45;&gt;Node14 -->
<g id="edge14" class="edge"><title>Node11&#45;&gt;Node14</title>
<path fill="none" stroke="midnightblue" d="M312.543,-70.4173C319.103,-68.4012 326.275,-66.4138 333,-65 467.44,-36.7362 508.085,-67.3609 640,-29 641.425,-28.5856 642.867,-28.1044 644.306,-27.5757"/>
<polygon fill="midnightblue" stroke="midnightblue" points="645.743,-30.7677 653.543,-23.5978 642.974,-24.3386 645.743,-30.7677"/>
</g>
<!-- Node15 -->
<g id="node15" class="node"><title>Node15</title>
<polygon fill="white" stroke="#bfbfbf" points="263.5,-5.5 263.5,-23.5 312.5,-23.5 312.5,-5.5 263.5,-5.5"/>
<text text-anchor="middle" x="288" y="-12.3" font-family="Helvetica,sans-Serif" font-size="9.00">sstream</text>
</g>
<!-- Node11&#45;&gt;Node15 -->
<g id="edge17" class="edge"><title>Node11&#45;&gt;Node15</title>
<path fill="none" stroke="midnightblue" d="M288.869,-70.2639C288.723,-61.0635 288.482,-45.881 288.291,-33.8326"/>
<polygon fill="midnightblue" stroke="midnightblue" points="291.786,-33.4821 288.128,-23.539 284.787,-33.5933 291.786,-33.4821"/>
</g>
<!-- Node16 -->
<g id="node16" class="node"><title>Node16</title>
<polygon fill="white" stroke="#bfbfbf" points="330.5,-5.5 330.5,-23.5 385.5,-23.5 385.5,-5.5 330.5,-5.5"/>
<text text-anchor="middle" x="358" y="-12.3" font-family="Helvetica,sans-Serif" font-size="9.00">armadillo</text>
</g>
<!-- Node11&#45;&gt;Node16 -->
<g id="edge18" class="edge"><title>Node11&#45;&gt;Node16</title>
<path fill="none" stroke="midnightblue" d="M298.021,-70.2639C309.032,-60.2099 327.868,-43.0121 341.498,-30.5672"/>
<polygon fill="midnightblue" stroke="midnightblue" points="344.17,-32.8664 349.195,-23.539 339.451,-27.697 344.17,-32.8664"/>
</g>
<!-- Node17 -->
<g id="node17" class="node"><title>Node17</title>
<polygon fill="white" stroke="#bfbfbf" points="403.5,-0.5 403.5,-28.5 510.5,-28.5 510.5,-0.5 403.5,-0.5"/>
<text text-anchor="start" x="411.5" y="-17.3" font-family="Helvetica,sans-Serif" font-size="9.00">BacktraceException</text>
<text text-anchor="middle" x="457" y="-7.3" font-family="Helvetica,sans-Serif" font-size="9.00">/BacktraceException.h</text>
</g>
<!-- Node11&#45;&gt;Node17 -->
<g id="edge19" class="edge"><title>Node11&#45;&gt;Node17</title>
<path fill="none" stroke="midnightblue" d="M310.619,-70.3928C336.349,-60.744 379.969,-44.3865 412.916,-32.0316"/>
<polygon fill="midnightblue" stroke="midnightblue" points="414.198,-35.2887 422.333,-28.5002 411.741,-28.7344 414.198,-35.2887"/>
</g>
</g>
</svg>
