<?xml version="1.0" encoding="UTF-8" standalone="no"?>
<!DOCTYPE svg PUBLIC "-//W3C//DTD SVG 1.1//EN"
 "http://www.w3.org/Graphics/SVG/1.1/DTD/svg11.dtd">
<!-- Generated by graphviz version 2.38.0 (20140413.2041)
 -->
<!-- Title: Gauss1DMAP.h Pages: 1 -->
<svg width="436pt" height="192pt"
 viewBox="0.00 0.00 435.50 192.00" xmlns="http://www.w3.org/2000/svg" xmlns:xlink="http://www.w3.org/1999/xlink">
<g id="graph0" class="graph" transform="scale(1 1) rotate(0) translate(4 188)">
<title>Gauss1DMAP.h</title>
<polygon fill="white" stroke="none" points="-4,4 -4,-188 431.5,-188 431.5,4 -4,4"/>
<!-- Node1 -->
<g id="node1" class="node"><title>Node1</title>
<polygon fill="#bfbfbf" stroke="black" points="125,-165.5 125,-183.5 207,-183.5 207,-165.5 125,-165.5"/>
<text text-anchor="middle" x="166" y="-172.3" font-family="Helvetica,sans-Serif" font-size="9.00">Gauss1DMAP.h</text>
</g>
<!-- Node2 -->
<g id="node2" class="node"><title>Node2</title>
<g id="a_node2"><a xlink:href="estimator__statics_8cpp.html" target="_top" xlink:title="estimator_statics.cpp">
<polygon fill="white" stroke="black" points="0,-110.5 0,-128.5 102,-128.5 102,-110.5 0,-110.5"/>
<text text-anchor="middle" x="51" y="-117.3" font-family="Helvetica,sans-Serif" font-size="9.00">estimator_statics.cpp</text>
</a>
</g>
</g>
<!-- Node1&#45;&gt;Node2 -->
<g id="edge1" class="edge"><title>Node1&#45;&gt;Node2</title>
<path fill="none" stroke="midnightblue" d="M139.199,-161.148C117.461,-151.13 87.4401,-137.294 68.6304,-128.625"/>
<polygon fill="midnightblue" stroke="midnightblue" points="137.987,-164.443 148.534,-165.45 140.917,-158.086 137.987,-164.443"/>
</g>
<!-- Node3 -->
<g id="node3" class="node"><title>Node3</title>
<g id="a_node3"><a xlink:href="Gauss1DMAP_8cpp.html" target="_top" xlink:title="The class definition and template Specializations for Gauss1DMAP. ">
<polygon fill="white" stroke="black" points="120,-110.5 120,-128.5 212,-128.5 212,-110.5 120,-110.5"/>
<text text-anchor="middle" x="166" y="-117.3" font-family="Helvetica,sans-Serif" font-size="9.00">Gauss1DMAP.cpp</text>
</a>
</g>
</g>
<!-- Node1&#45;&gt;Node3 -->
<g id="edge2" class="edge"><title>Node1&#45;&gt;Node3</title>
<path fill="none" stroke="midnightblue" d="M166,-155.175C166,-146.094 166,-135.595 166,-128.55"/>
<polygon fill="midnightblue" stroke="midnightblue" points="162.5,-155.219 166,-165.219 169.5,-155.219 162.5,-155.219"/>
</g>
<!-- Node4 -->
<g id="node4" class="node"><title>Node4</title>
<g id="a_node4"><a xlink:href="Gauss2DModel_8h.html" target="_top" xlink:title="The class declaration and inline and templated functions for Gauss2DModel. ">
<polygon fill="white" stroke="black" points="230,-110.5 230,-128.5 318,-128.5 318,-110.5 230,-110.5"/>
<text text-anchor="middle" x="274" y="-117.3" font-family="Helvetica,sans-Serif" font-size="9.00">Gauss2DModel.h</text>
</a>
</g>
</g>
<!-- Node1&#45;&gt;Node4 -->
<g id="edge3" class="edge"><title>Node1&#45;&gt;Node4</title>
<path fill="none" stroke="midnightblue" d="M191.446,-161.013C211.839,-151.005 239.858,-137.255 257.443,-128.625"/>
<polygon fill="midnightblue" stroke="midnightblue" points="189.838,-157.903 182.403,-165.45 192.922,-164.187 189.838,-157.903"/>
</g>
<!-- Node5 -->
<g id="node5" class="node"><title>Node5</title>
<g id="a_node5"><a xlink:href="Gauss2DModel_8cpp.html" target="_top" xlink:title="The class definition and template Specializations for Gauss2DModel. ">
<polygon fill="white" stroke="black" points="117,-55.5 117,-73.5 215,-73.5 215,-55.5 117,-55.5"/>
<text text-anchor="middle" x="166" y="-62.3" font-family="Helvetica,sans-Serif" font-size="9.00">Gauss2DModel.cpp</text>
</a>
</g>
</g>
<!-- Node4&#45;&gt;Node5 -->
<g id="edge4" class="edge"><title>Node4&#45;&gt;Node5</title>
<path fill="none" stroke="midnightblue" d="M248.554,-106.013C228.161,-96.0052 200.142,-82.2551 182.557,-73.6253"/>
<polygon fill="midnightblue" stroke="midnightblue" points="247.078,-109.187 257.597,-110.45 250.162,-102.903 247.078,-109.187"/>
</g>
<!-- Node6 -->
<g id="node6" class="node"><title>Node6</title>
<g id="a_node6"><a xlink:href="Gauss2DMAP_8h.html" target="_top" xlink:title="The class declaration and inline and templated functions for Gauss2DMAP. ">
<polygon fill="white" stroke="black" points="233,-55.5 233,-73.5 315,-73.5 315,-55.5 233,-55.5"/>
<text text-anchor="middle" x="274" y="-62.3" font-family="Helvetica,sans-Serif" font-size="9.00">Gauss2DMAP.h</text>
</a>
</g>
</g>
<!-- Node4&#45;&gt;Node6 -->
<g id="edge5" class="edge"><title>Node4&#45;&gt;Node6</title>
<path fill="none" stroke="midnightblue" d="M274,-100.175C274,-91.0945 274,-80.5949 274,-73.5496"/>
<polygon fill="midnightblue" stroke="midnightblue" points="270.5,-100.219 274,-110.219 277.5,-100.219 270.5,-100.219"/>
</g>
<!-- Node8 -->
<g id="node8" class="node"><title>Node8</title>
<g id="a_node8"><a xlink:href="Gauss2DMLE_8h.html" target="_top" xlink:title="The class declaration and inline and templated functions for Gauss2DMLE. ">
<polygon fill="white" stroke="black" points="338.5,-55.5 338.5,-73.5 419.5,-73.5 419.5,-55.5 338.5,-55.5"/>
<text text-anchor="middle" x="379" y="-62.3" font-family="Helvetica,sans-Serif" font-size="9.00">Gauss2DMLE.h</text>
</a>
</g>
</g>
<!-- Node4&#45;&gt;Node8 -->
<g id="edge7" class="edge"><title>Node4&#45;&gt;Node8</title>
<path fill="none" stroke="midnightblue" d="M299.009,-105.877C318.812,-95.8808 345.883,-82.216 362.903,-73.6253"/>
<polygon fill="midnightblue" stroke="midnightblue" points="297.297,-102.82 289.947,-110.45 300.452,-109.069 297.297,-102.82"/>
</g>
<!-- Node7 -->
<g id="node7" class="node"><title>Node7</title>
<g id="a_node7"><a xlink:href="Gauss2DMAP_8cpp.html" target="_top" xlink:title="The class definition and template Specializations for Gauss2DMAP. ">
<polygon fill="white" stroke="black" points="226,-0.5 226,-18.5 318,-18.5 318,-0.5 226,-0.5"/>
<text text-anchor="middle" x="272" y="-7.3" font-family="Helvetica,sans-Serif" font-size="9.00">Gauss2DMAP.cpp</text>
</a>
</g>
</g>
<!-- Node6&#45;&gt;Node7 -->
<g id="edge6" class="edge"><title>Node6&#45;&gt;Node7</title>
<path fill="none" stroke="midnightblue" d="M273.308,-45.1746C272.966,-36.0945 272.57,-25.5949 272.304,-18.5496"/>
<polygon fill="midnightblue" stroke="midnightblue" points="269.813,-45.3579 273.688,-55.2188 276.808,-45.0938 269.813,-45.3579"/>
</g>
<!-- Node9 -->
<g id="node9" class="node"><title>Node9</title>
<g id="a_node9"><a xlink:href="Gauss2DMLE_8cpp.html" target="_top" xlink:title="The class definition and template Specializations for Gauss2DMLE. ">
<polygon fill="white" stroke="black" points="336.5,-0.5 336.5,-18.5 427.5,-18.5 427.5,-0.5 336.5,-0.5"/>
<text text-anchor="middle" x="382" y="-7.3" font-family="Helvetica,sans-Serif" font-size="9.00">Gauss2DMLE.cpp</text>
</a>
</g>
</g>
<!-- Node8&#45;&gt;Node9 -->
<g id="edge8" class="edge"><title>Node8&#45;&gt;Node9</title>
<path fill="none" stroke="midnightblue" d="M380.037,-45.1746C380.551,-36.0945 381.146,-25.5949 381.544,-18.5496"/>
<polygon fill="midnightblue" stroke="midnightblue" points="376.54,-45.0369 379.469,-55.2188 383.528,-45.4326 376.54,-45.0369"/>
</g>
</g>
</svg>
