<?xml version="1.0" encoding="UTF-8" standalone="no"?>
<!DOCTYPE svg PUBLIC "-//W3C//DTD SVG 1.1//EN"
 "http://www.w3.org/Graphics/SVG/1.1/DTD/svg11.dtd">
<!-- Generated by graphviz version 2.38.0 (20140413.2041)
 -->
<!-- Title: Gauss1DsModel.cpp Pages: 1 -->
<!--zoomable 497 -->
<svg id="main" version="1.1" xmlns="http://www.w3.org/2000/svg" xmlns:xlink="http://www.w3.org/1999/xlink" xml:space="preserve" onload="init(evt)">
<style type="text/css"><![CDATA[
.edge:hover path { stroke: red; }
.edge:hover polygon { stroke: red; fill: red; }
]]></style>
<script type="text/javascript"><![CDATA[
var edges = document.getElementsByTagName('g');
if (edges && edges.length) {
  for (var i=0;i<edges.length;i++) {
    if (edges[i].id.substr(0,4)=='edge') {
      edges[i].setAttribute('class','edge');
    }
  }
}
]]></script>
        <defs>
                <circle id="rim" cx="0" cy="0" r="7"/>
                <circle id="rim2" cx="0" cy="0" r="3.5"/>
                <g id="zoomPlus">
                        <use xlink:href="#rim" fill="#404040">
                                <set attributeName="fill" to="#808080" begin="zoomplus.mouseover" end="zoomplus.mouseout"/>
                        </use>
                        <path d="M-4,0h8M0,-4v8" fill="none" stroke="white" stroke-width="1.5" pointer-events="none"/>
                </g>
                <g id="zoomMin">
                        <use xlink:href="#rim" fill="#404040">
                                <set attributeName="fill" to="#808080" begin="zoomminus.mouseover" end="zoomminus.mouseout"/>
                        </use>
                        <path d="M-4,0h8" fill="none" stroke="white" stroke-width="1.5" pointer-events="none"/>
                </g>
                <g id="dirArrow">
                        <path fill="none" stroke="white" stroke-width="1.5" d="M0,-3.0v7 M-2.5,-0.5L0,-3.0L2.5,-0.5"/>
                </g>
               <g id="resetDef">
                       <use xlink:href="#rim2" fill="#404040">
                               <set attributeName="fill" to="#808080" begin="reset.mouseover" end="reset.mouseout"/>
                       </use>
               </g>
        </defs>

<script type="text/javascript">
var viewWidth = 1448;
var viewHeight = 497;
var sectionId = 'dynsection-0';
</script>
<script xlink:href="svgpan.js"/>
<svg id="graph" class="graph">
<g id="viewport">
<title>Gauss1DsModel.cpp</title>
<polygon fill="white" stroke="none" points="-4,4 -4,-493 1444.17,-493 1444.17,4 -4,4"/>
<!-- Node1 -->
<g id="node1" class="node"><title>Node1</title>
<polygon fill="#bfbfbf" stroke="black" points="1067.17,-470.5 1067.17,-488.5 1169.17,-488.5 1169.17,-470.5 1067.17,-470.5"/>
<text text-anchor="middle" x="1118.17" y="-477.3" font-family="Helvetica,sans-Serif" font-size="9.00">Gauss1DsModel.cpp</text>
</g>
<!-- Node2 -->
<g id="node2" class="node"><title>Node2</title>
<g id="a_node2"><a xlink:href="Gauss1DsModel_8h.html" target="_top" xlink:title="The class declaration and inline and templated functions for Gauss1DsModel. ">
<polygon fill="white" stroke="black" points="989.666,-415.5 989.666,-433.5 1114.67,-433.5 1114.67,-415.5 989.666,-415.5"/>
<text text-anchor="middle" x="1052.17" y="-422.3" font-family="Helvetica,sans-Serif" font-size="9.00">Mappel/Gauss1DsModel.h</text>
</a>
</g>
</g>
<!-- Node1&#45;&gt;Node2 -->
<g id="edge1" class="edge"><title>Node1&#45;&gt;Node2</title>
<path fill="none" stroke="midnightblue" d="M1108.14,-470.45C1098.16,-462.434 1082.61,-449.947 1070.43,-440.166"/>
<polygon fill="midnightblue" stroke="midnightblue" points="1072.27,-437.158 1062.28,-433.625 1067.89,-442.616 1072.27,-437.158"/>
</g>
<!-- Node20 -->
<g id="node20" class="node"><title>Node20</title>
<g id="a_node20"><a xlink:href="stencil_8h.html" target="_top" xlink:title="The stencils for pixel based computations. ">
<polygon fill="white" stroke="black" points="1122.67,-190.5 1122.67,-208.5 1205.67,-208.5 1205.67,-190.5 1122.67,-190.5"/>
<text text-anchor="middle" x="1164.17" y="-197.3" font-family="Helvetica,sans-Serif" font-size="9.00">Mappel/stencil.h</text>
</a>
</g>
</g>
<!-- Node1&#45;&gt;Node20 -->
<g id="edge44" class="edge"><title>Node1&#45;&gt;Node20</title>
<path fill="none" stroke="midnightblue" d="M1124.37,-470.332C1136.93,-452.961 1164.17,-410.648 1164.17,-370.5 1164.17,-370.5 1164.17,-370.5 1164.17,-313.5 1164.17,-280.088 1164.17,-241.119 1164.17,-218.775"/>
<polygon fill="midnightblue" stroke="midnightblue" points="1167.67,-218.723 1164.17,-208.723 1160.67,-218.724 1167.67,-218.723"/>
</g>
<!-- Node3 -->
<g id="node3" class="node"><title>Node3</title>
<g id="a_node3"><a xlink:href="PointEmitterModel_8h.html" target="_top" xlink:title="The class declaration and inline and templated functions for PointEmitterModel. ">
<polygon fill="white" stroke="black" points="485.166,-250.5 485.166,-268.5 617.166,-268.5 617.166,-250.5 485.166,-250.5"/>
<text text-anchor="middle" x="551.166" y="-257.3" font-family="Helvetica,sans-Serif" font-size="9.00">Mappel/PointEmitterModel.h</text>
</a>
</g>
</g>
<!-- Node2&#45;&gt;Node3 -->
<g id="edge2" class="edge"><title>Node2&#45;&gt;Node3</title>
<path fill="none" stroke="midnightblue" d="M1027.32,-415.417C944.929,-388.61 680.545,-302.593 585.557,-271.689"/>
<polygon fill="midnightblue" stroke="midnightblue" points="586.457,-268.301 575.865,-268.536 584.291,-274.958 586.457,-268.301"/>
</g>
<!-- Node28 -->
<g id="node28" class="node"><title>Node28</title>
<g id="a_node28"><a xlink:href="ImageFormat1DBase_8h.html" target="_top" xlink:title="The class declaration and inline and templated functions for ImageFormat1DBase. ">
<polygon fill="white" stroke="black" points="1224.17,-190.5 1224.17,-208.5 1368.17,-208.5 1368.17,-190.5 1224.17,-190.5"/>
<text text-anchor="middle" x="1296.17" y="-197.3" font-family="Helvetica,sans-Serif" font-size="9.00">Mappel/ImageFormat1DBase.h</text>
</a>
</g>
</g>
<!-- Node2&#45;&gt;Node28 -->
<g id="edge35" class="edge"><title>Node2&#45;&gt;Node28</title>
<path fill="none" stroke="midnightblue" d="M1062.91,-415.205C1074.14,-406.439 1092.19,-392.099 1107.17,-379 1173.6,-320.907 1248.81,-247.425 1280.63,-215.951"/>
<polygon fill="midnightblue" stroke="midnightblue" points="1283.45,-218.086 1288.09,-208.56 1278.52,-213.115 1283.45,-218.086"/>
</g>
<!-- Node30 -->
<g id="node30" class="node"><title>Node30</title>
<g id="a_node30"><a xlink:href="MCMCAdaptor1Ds_8h.html" target="_top" xlink:title="The class declaration and inline and templated functions for MCMCAdaptor1Ds. ">
<polygon fill="white" stroke="black" points="964.166,-360.5 964.166,-378.5 1098.17,-378.5 1098.17,-360.5 964.166,-360.5"/>
<text text-anchor="middle" x="1031.17" y="-367.3" font-family="Helvetica,sans-Serif" font-size="9.00">Mappel/MCMCAdaptor1Ds.h</text>
</a>
</g>
</g>
<!-- Node2&#45;&gt;Node30 -->
<g id="edge39" class="edge"><title>Node2&#45;&gt;Node30</title>
<path fill="none" stroke="midnightblue" d="M1048.89,-415.219C1046,-407.942 1041.71,-397.113 1038.07,-387.934"/>
<polygon fill="midnightblue" stroke="midnightblue" points="1041.29,-386.557 1034.36,-378.55 1034.79,-389.136 1041.29,-386.557"/>
</g>
<!-- Node4 -->
<g id="node4" class="node"><title>Node4</title>
<polygon fill="white" stroke="#bfbfbf" points="255.166,-130.5 255.166,-148.5 307.166,-148.5 307.166,-130.5 255.166,-130.5"/>
<text text-anchor="middle" x="281.166" y="-137.3" font-family="Helvetica,sans-Serif" font-size="9.00">iostream</text>
</g>
<!-- Node3&#45;&gt;Node4 -->
<g id="edge3" class="edge"><title>Node3&#45;&gt;Node4</title>
<path fill="none" stroke="midnightblue" d="M485.018,-252.01C426.575,-245.161 346.767,-232.735 321.166,-214 302.702,-200.487 291.817,-175.781 286.174,-158.769"/>
<polygon fill="midnightblue" stroke="midnightblue" points="289.435,-157.459 283.196,-148.896 282.733,-159.48 289.435,-157.459"/>
</g>
<!-- Node5 -->
<g id="node5" class="node"><title>Node5</title>
<polygon fill="white" stroke="#bfbfbf" points="551.666,-5.5 551.666,-23.5 590.666,-23.5 590.666,-5.5 551.666,-5.5"/>
<text text-anchor="middle" x="571.166" y="-12.3" font-family="Helvetica,sans-Serif" font-size="9.00">string</text>
</g>
<!-- Node3&#45;&gt;Node5 -->
<g id="edge4" class="edge"><title>Node3&#45;&gt;Node5</title>
<path fill="none" stroke="midnightblue" d="M485.163,-254.816C428.613,-248.487 359.332,-231.345 380.166,-185 414.558,-108.498 502.434,-52.4959 545.958,-28.476"/>
<polygon fill="midnightblue" stroke="midnightblue" points="547.892,-31.4094 555.03,-23.5799 544.567,-25.2493 547.892,-31.4094"/>
</g>
<!-- Node6 -->
<g id="node6" class="node"><title>Node6</title>
<polygon fill="white" stroke="#bfbfbf" points="198.666,-5.5 198.666,-23.5 253.666,-23.5 253.666,-5.5 198.666,-5.5"/>
<text text-anchor="middle" x="226.166" y="-12.3" font-family="Helvetica,sans-Serif" font-size="9.00">armadillo</text>
</g>
<!-- Node3&#45;&gt;Node6 -->
<g id="edge5" class="edge"><title>Node3&#45;&gt;Node6</title>
<path fill="none" stroke="midnightblue" d="M485.004,-257.896C348.834,-255.962 47.3289,-247.862 16.1665,-214 -53.1057,-138.727 121.209,-57.4296 195.016,-27.4616"/>
<polygon fill="midnightblue" stroke="midnightblue" points="196.741,-30.5413 204.728,-23.5796 194.143,-24.0414 196.741,-30.5413"/>
</g>
<!-- Node7 -->
<g id="node7" class="node"><title>Node7</title>
<polygon fill="white" stroke="#bfbfbf" points="401.166,-190.5 401.166,-208.5 541.166,-208.5 541.166,-190.5 401.166,-190.5"/>
<text text-anchor="middle" x="471.166" y="-197.3" font-family="Helvetica,sans-Serif" font-size="9.00">PriorHessian/CompositeDist.h</text>
</g>
<!-- Node3&#45;&gt;Node7 -->
<g id="edge6" class="edge"><title>Node3&#45;&gt;Node7</title>
<path fill="none" stroke="midnightblue" d="M540.043,-250.435C527.338,-241.224 506.311,-225.98 490.826,-214.753"/>
<polygon fill="midnightblue" stroke="midnightblue" points="492.604,-211.719 482.454,-208.683 488.495,-217.386 492.604,-211.719"/>
</g>
<!-- Node8 -->
<g id="node8" class="node"><title>Node8</title>
<polygon fill="white" stroke="#bfbfbf" points="559.666,-185.5 559.666,-213.5 702.666,-213.5 702.666,-185.5 559.666,-185.5"/>
<text text-anchor="start" x="567.666" y="-202.3" font-family="Helvetica,sans-Serif" font-size="9.00">PriorHessian/TruncatedNormal</text>
<text text-anchor="middle" x="631.166" y="-192.3" font-family="Helvetica,sans-Serif" font-size="9.00">Dist.h</text>
</g>
<!-- Node3&#45;&gt;Node8 -->
<g id="edge7" class="edge"><title>Node3&#45;&gt;Node8</title>
<path fill="none" stroke="midnightblue" d="M562.29,-250.435C573.272,-242.473 590.473,-230.003 604.937,-219.516"/>
<polygon fill="midnightblue" stroke="midnightblue" points="607.028,-222.324 613.069,-213.62 602.919,-216.656 607.028,-222.324"/>
</g>
<!-- Node9 -->
<g id="node9" class="node"><title>Node9</title>
<polygon fill="white" stroke="#bfbfbf" points="720.666,-185.5 720.666,-213.5 863.666,-213.5 863.666,-185.5 720.666,-185.5"/>
<text text-anchor="start" x="728.666" y="-202.3" font-family="Helvetica,sans-Serif" font-size="9.00">PriorHessian/ScaledSymmetric</text>
<text text-anchor="middle" x="792.166" y="-192.3" font-family="Helvetica,sans-Serif" font-size="9.00">BetaDist.h</text>
</g>
<!-- Node3&#45;&gt;Node9 -->
<g id="edge8" class="edge"><title>Node3&#45;&gt;Node9</title>
<path fill="none" stroke="midnightblue" d="M584.423,-250.496C621.355,-241.608 681.853,-227.048 728.063,-215.927"/>
<polygon fill="midnightblue" stroke="midnightblue" points="729.086,-219.281 737.989,-213.538 727.448,-212.476 729.086,-219.281"/>
</g>
<!-- Node10 -->
<g id="node10" class="node"><title>Node10</title>
<polygon fill="white" stroke="#bfbfbf" points="882.166,-185.5 882.166,-213.5 1028.17,-213.5 1028.17,-185.5 882.166,-185.5"/>
<text text-anchor="start" x="890.166" y="-202.3" font-family="Helvetica,sans-Serif" font-size="9.00">PriorHessian/TruncatedGamma</text>
<text text-anchor="middle" x="955.166" y="-192.3" font-family="Helvetica,sans-Serif" font-size="9.00">Dist.h</text>
</g>
<!-- Node3&#45;&gt;Node10 -->
<g id="edge9" class="edge"><title>Node3&#45;&gt;Node10</title>
<path fill="none" stroke="midnightblue" d="M612.169,-250.477C674.642,-242.163 774.834,-228.558 871.875,-214.02"/>
<polygon fill="midnightblue" stroke="midnightblue" points="872.492,-217.467 881.861,-212.519 871.452,-210.544 872.492,-217.467"/>
</g>
<!-- Node11 -->
<g id="node11" class="node"><title>Node11</title>
<polygon fill="white" stroke="#bfbfbf" points="25.1665,-185.5 25.1665,-213.5 165.166,-213.5 165.166,-185.5 25.1665,-185.5"/>
<text text-anchor="start" x="33.1665" y="-202.3" font-family="Helvetica,sans-Serif" font-size="9.00">PriorHessian/TruncatedPareto</text>
<text text-anchor="middle" x="95.1665" y="-192.3" font-family="Helvetica,sans-Serif" font-size="9.00">Dist.h</text>
</g>
<!-- Node3&#45;&gt;Node11 -->
<g id="edge10" class="edge"><title>Node3&#45;&gt;Node11</title>
<path fill="none" stroke="midnightblue" d="M484.972,-251.735C411.716,-244.012 289.915,-230.473 175.346,-214.124"/>
<polygon fill="midnightblue" stroke="midnightblue" points="175.744,-210.645 165.348,-212.687 174.748,-217.574 175.744,-210.645"/>
</g>
<!-- Node12 -->
<g id="node12" class="node"><title>Node12</title>
<g id="a_node12"><a xlink:href="util_8h.html" target="_top" xlink:title="Mappel/util.h">
<polygon fill="white" stroke="black" points="1040.67,-70.5 1040.67,-88.5 1109.67,-88.5 1109.67,-70.5 1040.67,-70.5"/>
<text text-anchor="middle" x="1075.17" y="-77.3" font-family="Helvetica,sans-Serif" font-size="9.00">Mappel/util.h</text>
</a>
</g>
</g>
<!-- Node3&#45;&gt;Node12 -->
<g id="edge11" class="edge"><title>Node3&#45;&gt;Node12</title>
<path fill="none" stroke="midnightblue" d="M617.312,-256.55C742.746,-252.262 1005.54,-240.233 1037.17,-214 1054.92,-199.276 1067.37,-131.924 1072.52,-98.8847"/>
<polygon fill="midnightblue" stroke="midnightblue" points="1076.02,-99.1799 1074.04,-88.7718 1069.09,-98.1432 1076.02,-99.1799"/>
</g>
<!-- Node3&#45;&gt;Node20 -->
<g id="edge21" class="edge"><title>Node3&#45;&gt;Node20</title>
<path fill="none" stroke="midnightblue" d="M617.239,-254.049C715.966,-247.124 907.768,-232.608 1070.17,-214 1083.87,-212.43 1098.66,-210.444 1112.36,-208.481"/>
<polygon fill="midnightblue" stroke="midnightblue" points="1113.19,-211.897 1122.59,-206.993 1112.19,-204.97 1113.19,-211.897"/>
</g>
<!-- Node22 -->
<g id="node22" class="node"><title>Node22</title>
<g id="a_node22"><a xlink:href="rng_8h.html" target="_top" xlink:title="Random number generation usign sfmt. ">
<polygon fill="white" stroke="black" points="869.666,-130.5 869.666,-148.5 940.666,-148.5 940.666,-130.5 869.666,-130.5"/>
<text text-anchor="middle" x="905.166" y="-137.3" font-family="Helvetica,sans-Serif" font-size="9.00">Mappel/rng.h</text>
</a>
</g>
</g>
<!-- Node3&#45;&gt;Node22 -->
<g id="edge34" class="edge"><title>Node3&#45;&gt;Node22</title>
<path fill="none" stroke="midnightblue" d="M487.522,-250.465C430.052,-240.731 359.178,-220.974 392.166,-185 423.398,-150.943 738.814,-142.871 858.996,-141.026"/>
<polygon fill="midnightblue" stroke="midnightblue" points="859.383,-144.521 869.331,-140.875 859.281,-137.521 859.383,-144.521"/>
</g>
<!-- Node26 -->
<g id="node26" class="node"><title>Node26</title>
<g id="a_node26"><a xlink:href="display_8h.html" target="_top" xlink:title="Mappel/display.h">
<polygon fill="white" stroke="black" points="183.166,-190.5 183.166,-208.5 269.166,-208.5 269.166,-190.5 183.166,-190.5"/>
<text text-anchor="middle" x="226.166" y="-197.3" font-family="Helvetica,sans-Serif" font-size="9.00">Mappel/display.h</text>
</a>
</g>
</g>
<!-- Node3&#45;&gt;Node26 -->
<g id="edge30" class="edge"><title>Node3&#45;&gt;Node26</title>
<path fill="none" stroke="midnightblue" d="M496.047,-250.469C441.725,-242.29 356.454,-228.746 283.166,-214 278.372,-213.035 273.367,-211.957 268.4,-210.841"/>
<polygon fill="midnightblue" stroke="midnightblue" points="268.868,-207.357 258.337,-208.523 267.296,-214.178 268.868,-207.357"/>
</g>
<!-- Node12&#45;&gt;Node5 -->
<g id="edge16" class="edge"><title>Node12&#45;&gt;Node5</title>
<path fill="none" stroke="midnightblue" d="M1051.63,-70.3748C1045.07,-68.3586 1037.9,-66.3817 1031.17,-65 871.383,-32.2029 675.638,-20.2906 601.532,-16.7669"/>
<polygon fill="midnightblue" stroke="midnightblue" points="601.252,-13.2505 591.102,-16.2889 600.931,-20.2431 601.252,-13.2505"/>
</g>
<!-- Node12&#45;&gt;Node6 -->
<g id="edge19" class="edge"><title>Node12&#45;&gt;Node6</title>
<path fill="none" stroke="midnightblue" d="M1052.58,-70.4525C1045.78,-68.3342 1038.24,-66.2843 1031.17,-65 955.235,-51.2176 413.087,-24.4634 264.015,-17.3004"/>
<polygon fill="midnightblue" stroke="midnightblue" points="264.129,-13.8019 253.973,-16.8189 263.794,-20.7939 264.129,-13.8019"/>
</g>
<!-- Node13 -->
<g id="node13" class="node"><title>Node13</title>
<polygon fill="white" stroke="#bfbfbf" points="1214.67,-5.5 1214.67,-23.5 1257.67,-23.5 1257.67,-5.5 1214.67,-5.5"/>
<text text-anchor="middle" x="1236.17" y="-12.3" font-family="Helvetica,sans-Serif" font-size="9.00">cstdint</text>
</g>
<!-- Node12&#45;&gt;Node13 -->
<g id="edge12" class="edge"><title>Node12&#45;&gt;Node13</title>
<path fill="none" stroke="midnightblue" d="M1097.37,-70.4056C1123.35,-60.8521 1167.6,-44.3226 1205.17,-29 1206.2,-28.5788 1207.25,-28.1457 1208.31,-27.7049"/>
<polygon fill="midnightblue" stroke="midnightblue" points="1210.04,-30.7737 1217.87,-23.6381 1207.3,-24.3325 1210.04,-30.7737"/>
</g>
<!-- Node14 -->
<g id="node14" class="node"><title>Node14</title>
<polygon fill="white" stroke="#bfbfbf" points="1275.67,-5.5 1275.67,-23.5 1316.67,-23.5 1316.67,-5.5 1275.67,-5.5"/>
<text text-anchor="middle" x="1296.17" y="-12.3" font-family="Helvetica,sans-Serif" font-size="9.00">cmath</text>
</g>
<!-- Node12&#45;&gt;Node14 -->
<g id="edge13" class="edge"><title>Node12&#45;&gt;Node14</title>
<path fill="none" stroke="midnightblue" d="M1109.85,-71.3679C1148.53,-62.9881 1212.69,-47.8109 1266.17,-29 1267.41,-28.5629 1268.67,-28.0951 1269.94,-27.6055"/>
<polygon fill="midnightblue" stroke="midnightblue" points="1271.68,-30.6707 1279.55,-23.5783 1268.98,-24.2144 1271.68,-30.6707"/>
</g>
<!-- Node15 -->
<g id="node15" class="node"><title>Node15</title>
<polygon fill="white" stroke="#bfbfbf" points="845.166,-5.5 845.166,-23.5 895.166,-23.5 895.166,-5.5 845.166,-5.5"/>
<text text-anchor="middle" x="870.166" y="-12.3" font-family="Helvetica,sans-Serif" font-size="9.00">memory</text>
</g>
<!-- Node12&#45;&gt;Node15 -->
<g id="edge14" class="edge"><title>Node12&#45;&gt;Node15</title>
<path fill="none" stroke="midnightblue" d="M1049.14,-70.4122C1043.23,-68.6069 1036.99,-66.7188 1031.17,-65 974.897,-48.3947 959.724,-47.8497 904.166,-29 902.513,-28.4389 900.822,-27.8425 899.121,-27.2249"/>
<polygon fill="midnightblue" stroke="midnightblue" points="900.049,-23.8337 889.458,-23.5542 897.563,-30.3774 900.049,-23.8337"/>
</g>
<!-- Node16 -->
<g id="node16" class="node"><title>Node16</title>
<polygon fill="white" stroke="#bfbfbf" points="913.166,-5.5 913.166,-23.5 951.166,-23.5 951.166,-5.5 913.166,-5.5"/>
<text text-anchor="middle" x="932.166" y="-12.3" font-family="Helvetica,sans-Serif" font-size="9.00">utility</text>
</g>
<!-- Node12&#45;&gt;Node16 -->
<g id="edge15" class="edge"><title>Node12&#45;&gt;Node16</title>
<path fill="none" stroke="midnightblue" d="M1055.52,-70.3451C1032.54,-60.7348 993.392,-44.1519 960.166,-29 959.467,-28.6809 958.758,-28.3555 958.044,-28.0255"/>
<polygon fill="midnightblue" stroke="midnightblue" points="959.231,-24.7156 948.694,-23.613 956.244,-31.0461 959.231,-24.7156"/>
</g>
<!-- Node17 -->
<g id="node17" class="node"><title>Node17</title>
<polygon fill="white" stroke="#bfbfbf" points="969.666,-5.5 969.666,-23.5 1004.67,-23.5 1004.67,-5.5 969.666,-5.5"/>
<text text-anchor="middle" x="987.166" y="-12.3" font-family="Helvetica,sans-Serif" font-size="9.00">map</text>
</g>
<!-- Node12&#45;&gt;Node17 -->
<g id="edge17" class="edge"><title>Node12&#45;&gt;Node17</title>
<path fill="none" stroke="midnightblue" d="M1063.66,-70.2639C1049.22,-59.9254 1024.23,-42.0329 1006.75,-29.5222"/>
<polygon fill="midnightblue" stroke="midnightblue" points="1008.56,-26.5143 998.396,-23.539 1004.49,-32.206 1008.56,-26.5143"/>
</g>
<!-- Node18 -->
<g id="node18" class="node"><title>Node18</title>
<polygon fill="white" stroke="#bfbfbf" points="1022.67,-5.5 1022.67,-23.5 1071.67,-23.5 1071.67,-5.5 1022.67,-5.5"/>
<text text-anchor="middle" x="1047.17" y="-12.3" font-family="Helvetica,sans-Serif" font-size="9.00">sstream</text>
</g>
<!-- Node12&#45;&gt;Node18 -->
<g id="edge18" class="edge"><title>Node12&#45;&gt;Node18</title>
<path fill="none" stroke="midnightblue" d="M1071.51,-70.2639C1067.29,-60.779 1060.25,-44.9361 1054.82,-32.724"/>
<polygon fill="midnightblue" stroke="midnightblue" points="1058,-31.2556 1050.74,-23.539 1051.6,-34.0986 1058,-31.2556"/>
</g>
<!-- Node19 -->
<g id="node19" class="node"><title>Node19</title>
<polygon fill="white" stroke="#bfbfbf" points="1089.67,-0.5 1089.67,-28.5 1196.67,-28.5 1196.67,-0.5 1089.67,-0.5"/>
<text text-anchor="start" x="1097.67" y="-17.3" font-family="Helvetica,sans-Serif" font-size="9.00">BacktraceException</text>
<text text-anchor="middle" x="1143.17" y="-7.3" font-family="Helvetica,sans-Serif" font-size="9.00">/BacktraceException.h</text>
</g>
<!-- Node12&#45;&gt;Node19 -->
<g id="edge20" class="edge"><title>Node12&#45;&gt;Node19</title>
<path fill="none" stroke="midnightblue" d="M1084.06,-70.2639C1093.54,-61.4805 1108.9,-47.2447 1121.59,-35.489"/>
<polygon fill="midnightblue" stroke="midnightblue" points="1124.11,-37.9245 1129.07,-28.5608 1119.35,-32.7896 1124.11,-37.9245"/>
</g>
<!-- Node20&#45;&gt;Node12 -->
<g id="edge24" class="edge"><title>Node20&#45;&gt;Node12</title>
<path fill="none" stroke="midnightblue" d="M1168.44,-190.198C1174.81,-176.552 1184.86,-149.002 1173.17,-130 1161.41,-110.886 1139.74,-98.8836 1119.76,-91.4941"/>
<polygon fill="midnightblue" stroke="midnightblue" points="1120.73,-88.1284 1110.14,-88.2261 1118.48,-94.7565 1120.73,-88.1284"/>
</g>
<!-- Node20&#45;&gt;Node14 -->
<g id="edge22" class="edge"><title>Node20&#45;&gt;Node14</title>
<path fill="none" stroke="midnightblue" d="M1170.18,-190.161C1190.45,-162.057 1256.54,-70.4383 1284.01,-32.3473"/>
<polygon fill="midnightblue" stroke="midnightblue" points="1287.1,-34.0455 1290.12,-23.8876 1281.43,-29.9504 1287.1,-34.0455"/>
</g>
<!-- Node21 -->
<g id="node21" class="node"><title>Node21</title>
<polygon fill="white" stroke="#bfbfbf" points="1122.17,-130.5 1122.17,-148.5 1164.17,-148.5 1164.17,-130.5 1122.17,-130.5"/>
<text text-anchor="middle" x="1143.17" y="-137.3" font-family="Helvetica,sans-Serif" font-size="9.00">climits</text>
</g>
<!-- Node20&#45;&gt;Node21 -->
<g id="edge23" class="edge"><title>Node20&#45;&gt;Node21</title>
<path fill="none" stroke="midnightblue" d="M1161.25,-190.435C1158.27,-182.218 1153.56,-169.198 1149.69,-158.514"/>
<polygon fill="midnightblue" stroke="midnightblue" points="1152.89,-157.083 1146.2,-148.872 1146.31,-159.466 1152.89,-157.083"/>
</g>
<!-- Node20&#45;&gt;Node22 -->
<g id="edge25" class="edge"><title>Node20&#45;&gt;Node22</title>
<path fill="none" stroke="midnightblue" d="M1128.43,-190.496C1082.21,-180.146 1001.65,-162.106 950.981,-150.76"/>
<polygon fill="midnightblue" stroke="midnightblue" points="951.479,-147.285 940.956,-148.515 949.95,-154.115 951.479,-147.285"/>
</g>
<!-- Node22&#45;&gt;Node12 -->
<g id="edge27" class="edge"><title>Node22&#45;&gt;Node12</title>
<path fill="none" stroke="midnightblue" d="M928.804,-130.435C958.156,-120.421 1008.41,-103.276 1041.71,-91.9152"/>
<polygon fill="midnightblue" stroke="midnightblue" points="1043.12,-95.131 1051.46,-88.5894 1040.86,-88.506 1043.12,-95.131"/>
</g>
<!-- Node23 -->
<g id="node23" class="node"><title>Node23</title>
<polygon fill="white" stroke="#bfbfbf" points="729.166,-70.5 729.166,-88.5 777.166,-88.5 777.166,-70.5 729.166,-70.5"/>
<text text-anchor="middle" x="753.166" y="-77.3" font-family="Helvetica,sans-Serif" font-size="9.00">random</text>
</g>
<!-- Node22&#45;&gt;Node23 -->
<g id="edge26" class="edge"><title>Node22&#45;&gt;Node23</title>
<path fill="none" stroke="midnightblue" d="M883.157,-130.498C859.215,-121.739 819.851,-107.185 786.166,-94 784.797,-93.4642 783.398,-92.9115 781.987,-92.3499"/>
<polygon fill="midnightblue" stroke="midnightblue" points="783.254,-89.0871 772.671,-88.5938 780.636,-95.5793 783.254,-89.0871"/>
</g>
<!-- Node24 -->
<g id="node24" class="node"><title>Node24</title>
<polygon fill="white" stroke="#bfbfbf" points="795.666,-70.5 795.666,-88.5 892.666,-88.5 892.666,-70.5 795.666,-70.5"/>
<text text-anchor="middle" x="844.166" y="-77.3" font-family="Helvetica,sans-Serif" font-size="9.00">trng/lcg64_shift.hpp</text>
</g>
<!-- Node22&#45;&gt;Node24 -->
<g id="edge28" class="edge"><title>Node22&#45;&gt;Node24</title>
<path fill="none" stroke="midnightblue" d="M896.685,-130.435C887.322,-121.533 872.032,-106.995 860.358,-95.8954"/>
<polygon fill="midnightblue" stroke="midnightblue" points="862.63,-93.2259 852.971,-88.8718 857.807,-98.2989 862.63,-93.2259"/>
</g>
<!-- Node25 -->
<g id="node25" class="node"><title>Node25</title>
<polygon fill="white" stroke="#bfbfbf" points="910.166,-65.5 910.166,-93.5 1022.17,-93.5 1022.17,-65.5 910.166,-65.5"/>
<text text-anchor="start" x="918.166" y="-82.3" font-family="Helvetica,sans-Serif" font-size="9.00">ParallelRngManager</text>
<text text-anchor="middle" x="966.166" y="-72.3" font-family="Helvetica,sans-Serif" font-size="9.00">/ParallelRngManager.h</text>
</g>
<!-- Node22&#45;&gt;Node25 -->
<g id="edge29" class="edge"><title>Node22&#45;&gt;Node25</title>
<path fill="none" stroke="midnightblue" d="M913.648,-130.435C921.656,-122.821 934.001,-111.084 944.71,-100.901"/>
<polygon fill="midnightblue" stroke="midnightblue" points="947.298,-103.27 952.134,-93.8428 942.475,-98.1969 947.298,-103.27"/>
</g>
<!-- Node26&#45;&gt;Node4 -->
<g id="edge31" class="edge"><title>Node26&#45;&gt;Node4</title>
<path fill="none" stroke="midnightblue" d="M233.814,-190.435C242.175,-181.619 255.777,-167.274 266.263,-156.217"/>
<polygon fill="midnightblue" stroke="midnightblue" points="268.887,-158.536 273.228,-148.872 263.807,-153.72 268.887,-158.536"/>
</g>
<!-- Node26&#45;&gt;Node6 -->
<g id="edge33" class="edge"><title>Node26&#45;&gt;Node6</title>
<path fill="none" stroke="midnightblue" d="M226.166,-190.161C226.166,-162.533 226.166,-73.5258 226.166,-34.3297"/>
<polygon fill="midnightblue" stroke="midnightblue" points="229.667,-33.8876 226.166,-23.8876 222.667,-33.8877 229.667,-33.8876"/>
</g>
<!-- Node27 -->
<g id="node27" class="node"><title>Node27</title>
<polygon fill="white" stroke="#bfbfbf" points="148.166,-130.5 148.166,-148.5 198.166,-148.5 198.166,-130.5 148.166,-130.5"/>
<text text-anchor="middle" x="173.166" y="-137.3" font-family="Helvetica,sans-Serif" font-size="9.00">iomanip</text>
</g>
<!-- Node26&#45;&gt;Node27 -->
<g id="edge32" class="edge"><title>Node26&#45;&gt;Node27</title>
<path fill="none" stroke="midnightblue" d="M218.797,-190.435C210.819,-181.704 197.887,-167.552 187.823,-156.54"/>
<polygon fill="midnightblue" stroke="midnightblue" points="190.146,-153.893 180.817,-148.872 184.979,-158.615 190.146,-153.893"/>
</g>
<!-- Node28&#45;&gt;Node12 -->
<g id="edge36" class="edge"><title>Node28&#45;&gt;Node12</title>
<path fill="none" stroke="midnightblue" d="M1285.09,-190.457C1266.21,-176.947 1226.32,-149.286 1190.17,-130 1162.65,-115.318 1129.84,-101.542 1106.33,-92.2702"/>
<polygon fill="midnightblue" stroke="midnightblue" points="1107.45,-88.951 1096.86,-88.5827 1104.91,-95.4736 1107.45,-88.951"/>
</g>
<!-- Node29 -->
<g id="node29" class="node"><title>Node29</title>
<g id="a_node29"><a xlink:href="ImageFormat2DBase_8h.html" target="_top" xlink:title="The class declaration and inline and templated functions for ImageFormat2DBase. ">
<polygon fill="white" stroke="black" points="1296.17,-130.5 1296.17,-148.5 1440.17,-148.5 1440.17,-130.5 1296.17,-130.5"/>
<text text-anchor="middle" x="1368.17" y="-137.3" font-family="Helvetica,sans-Serif" font-size="9.00">Mappel/ImageFormat2DBase.h</text>
</a>
</g>
</g>
<!-- Node28&#45;&gt;Node29 -->
<g id="edge37" class="edge"><title>Node28&#45;&gt;Node29</title>
<path fill="none" stroke="midnightblue" d="M1306.18,-190.435C1317.44,-181.362 1335.97,-166.434 1349.85,-155.259"/>
<polygon fill="midnightblue" stroke="midnightblue" points="1352.18,-157.871 1357.77,-148.872 1347.79,-152.419 1352.18,-157.871"/>
</g>
<!-- Node29&#45;&gt;Node12 -->
<g id="edge38" class="edge"><title>Node29&#45;&gt;Node12</title>
<path fill="none" stroke="midnightblue" d="M1327.73,-130.496C1273.2,-119.701 1176.4,-100.54 1119.79,-89.334"/>
<polygon fill="midnightblue" stroke="midnightblue" points="1120.2,-85.8466 1109.71,-87.3381 1118.84,-92.7134 1120.2,-85.8466"/>
</g>
<!-- Node31 -->
<g id="node31" class="node"><title>Node31</title>
<g id="a_node31"><a xlink:href="MCMCAdaptor1D_8h.html" target="_top" xlink:title="The class declaration and inline and templated functions for MCMCAdaptor1D. ">
<polygon fill="white" stroke="black" points="966.166,-305.5 966.166,-323.5 1096.17,-323.5 1096.17,-305.5 966.166,-305.5"/>
<text text-anchor="middle" x="1031.17" y="-312.3" font-family="Helvetica,sans-Serif" font-size="9.00">Mappel/MCMCAdaptor1D.h</text>
</a>
</g>
</g>
<!-- Node30&#45;&gt;Node31 -->
<g id="edge40" class="edge"><title>Node30&#45;&gt;Node31</title>
<path fill="none" stroke="midnightblue" d="M1031.17,-360.219C1031.17,-353.177 1031.17,-342.808 1031.17,-333.828"/>
<polygon fill="midnightblue" stroke="midnightblue" points="1034.67,-333.55 1031.17,-323.55 1027.67,-333.55 1034.67,-333.55"/>
</g>
<!-- Node31&#45;&gt;Node3 -->
<g id="edge43" class="edge"><title>Node31&#45;&gt;Node3</title>
<path fill="none" stroke="midnightblue" d="M965.932,-306.297C877.763,-296.562 720.864,-279.237 627.375,-268.915"/>
<polygon fill="midnightblue" stroke="midnightblue" points="627.739,-265.434 617.415,-267.815 626.97,-272.391 627.739,-265.434"/>
</g>
<!-- Node32 -->
<g id="node32" class="node"><title>Node32</title>
<g id="a_node32"><a xlink:href="MCMCAdaptorBase_8h.html" target="_top" xlink:title="The class declaration and inline and templated functions for MCMCAdaptorBase. ">
<polygon fill="white" stroke="black" points="979.666,-250.5 979.666,-268.5 1118.67,-268.5 1118.67,-250.5 979.666,-250.5"/>
<text text-anchor="middle" x="1049.17" y="-257.3" font-family="Helvetica,sans-Serif" font-size="9.00">Mappel/MCMCAdaptorBase.h</text>
</a>
</g>
</g>
<!-- Node31&#45;&gt;Node32 -->
<g id="edge41" class="edge"><title>Node31&#45;&gt;Node32</title>
<path fill="none" stroke="midnightblue" d="M1033.98,-305.219C1036.42,-298.02 1040.05,-287.346 1043.14,-278.231"/>
<polygon fill="midnightblue" stroke="midnightblue" points="1046.53,-279.144 1046.43,-268.55 1039.9,-276.893 1046.53,-279.144"/>
</g>
<!-- Node32&#45;&gt;Node12 -->
<g id="edge42" class="edge"><title>Node32&#45;&gt;Node12</title>
<path fill="none" stroke="midnightblue" d="M1054.26,-250.345C1059.35,-241.694 1066.89,-227.445 1070.17,-214 1079.93,-173.942 1078.55,-125.141 1076.79,-99.0571"/>
<polygon fill="midnightblue" stroke="midnightblue" points="1080.25,-98.4838 1075.99,-88.7841 1073.27,-99.0247 1080.25,-98.4838"/>
</g>
</g>
</svg>
        <g id="navigator" transform="translate(0 0)" fill="#404254">
                <rect fill="#f2f5e9" fill-opacity="0.5" stroke="#606060" stroke-width=".5" x="0" y="0" width="60" height="60"/>
                <use id="zoomplus" xlink:href="#zoomPlus" x="17" y="9" onmousedown="handleZoom(evt,'in')"/>
                <use id="zoomminus" xlink:href="#zoomMin" x="42" y="9" onmousedown="handleZoom(evt,'out')"/>
                <use id="reset" xlink:href="#resetDef" x="30" y="36" onmousedown="handleReset()"/>
                <g id="arrowUp" xlink:href="#dirArrow" transform="translate(30 24)" onmousedown="handlePan(0,-1)">
                  <use xlink:href="#rim" fill="#404040">
                        <set attributeName="fill" to="#808080" begin="arrowUp.mouseover" end="arrowUp.mouseout"/>
                  </use>
                  <path fill="none" stroke="white" stroke-width="1.5" d="M0,-3.0v7 M-2.5,-0.5L0,-3.0L2.5,-0.5"/>
                </g>
                <g id="arrowRight" xlink:href="#dirArrow" transform="rotate(90) translate(36 -43)" onmousedown="handlePan(1,0)">
                  <use xlink:href="#rim" fill="#404040">
                        <set attributeName="fill" to="#808080" begin="arrowRight.mouseover" end="arrowRight.mouseout"/>
                  </use>
                  <path fill="none" stroke="white" stroke-width="1.5" d="M0,-3.0v7 M-2.5,-0.5L0,-3.0L2.5,-0.5"/>
                </g>
                <g id="arrowDown" xlink:href="#dirArrow" transform="rotate(180) translate(-30 -48)" onmousedown="handlePan(0,1)">
                  <use xlink:href="#rim" fill="#404040">
                        <set attributeName="fill" to="#808080" begin="arrowDown.mouseover" end="arrowDown.mouseout"/>
                  </use>
                  <path fill="none" stroke="white" stroke-width="1.5" d="M0,-3.0v7 M-2.5,-0.5L0,-3.0L2.5,-0.5"/>
                </g>
                <g id="arrowLeft" xlink:href="#dirArrow" transform="rotate(270) translate(-36 17)" onmousedown="handlePan(-1,0)">
                  <use xlink:href="#rim" fill="#404040">
                        <set attributeName="fill" to="#808080" begin="arrowLeft.mouseover" end="arrowLeft.mouseout"/>
                  </use>
                  <path fill="none" stroke="white" stroke-width="1.5" d="M0,-3.0v7 M-2.5,-0.5L0,-3.0L2.5,-0.5"/>
                </g>
        </g>
        <svg viewBox="0 0 15 15" width="100%" height="30px" preserveAspectRatio="xMaxYMin meet">
         <g id="arrow_out" transform="scale(0.3 0.3)">
          <a xlink:href="Gauss1DsModel_8cpp__incl_org.svg" target="_base">
           <rect id="button" ry="5" rx="5" y="6" x="6" height="38" width="38"
                fill="#f2f5e9" fill-opacity="0.5" stroke="#606060" stroke-width="1.0"/>
           <path id="arrow"
             d="M 11.500037,31.436501 C 11.940474,20.09759 22.043105,11.32322 32.158766,21.979434 L 37.068811,17.246167 C 37.068811,17.246167 37.088388,32 37.088388,32 L 22.160133,31.978069 C 22.160133,31.978069 26.997745,27.140456 26.997745,27.140456 C 18.528582,18.264221 13.291696,25.230495 11.500037,31.436501 z"
             style="fill:#404040;"/>
          </a>
         </g>
        </svg>
</svg>
