<?xml version="1.0" encoding="UTF-8" standalone="no"?>
<!DOCTYPE svg PUBLIC "-//W3C//DTD SVG 1.1//EN"
 "http://www.w3.org/Graphics/SVG/1.1/DTD/svg11.dtd">
<!-- Generated by graphviz version 2.38.0 (20140413.2041)
 -->
<!-- Title: Gauss1DModel.cpp Pages: 1 -->
<!--zoomable 442 -->
<svg id="main" version="1.1" xmlns="http://www.w3.org/2000/svg" xmlns:xlink="http://www.w3.org/1999/xlink" xml:space="preserve" onload="init(evt)">
<style type="text/css"><![CDATA[
.edge:hover path { stroke: red; }
.edge:hover polygon { stroke: red; fill: red; }
]]></style>
<script type="text/javascript"><![CDATA[
var edges = document.getElementsByTagName('g');
if (edges && edges.length) {
  for (var i=0;i<edges.length;i++) {
    if (edges[i].id.substr(0,4)=='edge') {
      edges[i].setAttribute('class','edge');
    }
  }
}
]]></script>
        <defs>
                <circle id="rim" cx="0" cy="0" r="7"/>
                <circle id="rim2" cx="0" cy="0" r="3.5"/>
                <g id="zoomPlus">
                        <use xlink:href="#rim" fill="#404040">
                                <set attributeName="fill" to="#808080" begin="zoomplus.mouseover" end="zoomplus.mouseout"/>
                        </use>
                        <path d="M-4,0h8M0,-4v8" fill="none" stroke="white" stroke-width="1.5" pointer-events="none"/>
                </g>
                <g id="zoomMin">
                        <use xlink:href="#rim" fill="#404040">
                                <set attributeName="fill" to="#808080" begin="zoomminus.mouseover" end="zoomminus.mouseout"/>
                        </use>
                        <path d="M-4,0h8" fill="none" stroke="white" stroke-width="1.5" pointer-events="none"/>
                </g>
                <g id="dirArrow">
                        <path fill="none" stroke="white" stroke-width="1.5" d="M0,-3.0v7 M-2.5,-0.5L0,-3.0L2.5,-0.5"/>
                </g>
               <g id="resetDef">
                       <use xlink:href="#rim2" fill="#404040">
                               <set attributeName="fill" to="#808080" begin="reset.mouseover" end="reset.mouseout"/>
                       </use>
               </g>
        </defs>

<script type="text/javascript">
var viewWidth = 1354;
var viewHeight = 442;
var sectionId = 'dynsection-0';
</script>
<script xlink:href="svgpan.js"/>
<svg id="graph" class="graph">
<g id="viewport">
<title>Gauss1DModel.cpp</title>
<polygon fill="white" stroke="none" points="-4,4 -4,-438 1349.76,-438 1349.76,4 -4,4"/>
<!-- Node1 -->
<g id="node1" class="node"><title>Node1</title>
<polygon fill="#bfbfbf" stroke="black" points="128.238,-415.5 128.238,-433.5 226.238,-433.5 226.238,-415.5 128.238,-415.5"/>
<text text-anchor="middle" x="177.238" y="-422.3" font-family="Helvetica,sans-Serif" font-size="9.00">Gauss1DModel.cpp</text>
</g>
<!-- Node2 -->
<g id="node2" class="node"><title>Node2</title>
<g id="a_node2"><a xlink:href="Gauss1DModel_8h.html" target="_top" xlink:title="The class declaration and inline and templated functions for Gauss1DModel. ">
<polygon fill="white" stroke="black" points="237.738,-360.5 237.738,-378.5 358.738,-378.5 358.738,-360.5 237.738,-360.5"/>
<text text-anchor="middle" x="298.238" y="-367.3" font-family="Helvetica,sans-Serif" font-size="9.00">Mappel/Gauss1DModel.h</text>
</a>
</g>
</g>
<!-- Node1&#45;&gt;Node2 -->
<g id="edge1" class="edge"><title>Node1&#45;&gt;Node2</title>
<path fill="none" stroke="midnightblue" d="M195.615,-415.45C215.515,-406.734 247.485,-392.731 270.456,-382.669"/>
<polygon fill="midnightblue" stroke="midnightblue" points="271.932,-385.843 279.688,-378.625 269.124,-379.432 271.932,-385.843"/>
</g>
<!-- Node20 -->
<g id="node20" class="node"><title>Node20</title>
<g id="a_node20"><a xlink:href="stencil_8h.html" target="_top" xlink:title="The stencils for pixel based computations. ">
<polygon fill="white" stroke="black" points="14.7381,-190.5 14.7381,-208.5 97.7381,-208.5 97.7381,-190.5 14.7381,-190.5"/>
<text text-anchor="middle" x="56.2381" y="-197.3" font-family="Helvetica,sans-Serif" font-size="9.00">Mappel/stencil.h</text>
</a>
</g>
</g>
<!-- Node1&#45;&gt;Node20 -->
<g id="edge43" class="edge"><title>Node1&#45;&gt;Node20</title>
<path fill="none" stroke="midnightblue" d="M170.487,-415.342C152.477,-393.198 102.794,-329.557 75.2381,-269 67.8168,-252.691 62.7021,-232.848 59.6646,-218.726"/>
<polygon fill="midnightblue" stroke="midnightblue" points="63.0721,-217.917 57.6696,-208.803 56.2094,-219.296 63.0721,-217.917"/>
</g>
<!-- Node3 -->
<g id="node3" class="node"><title>Node3</title>
<g id="a_node3"><a xlink:href="PointEmitterModel_8h.html" target="_top" xlink:title="The class declaration and inline and templated functions for PointEmitterModel. ">
<polygon fill="white" stroke="black" points="631.238,-250.5 631.238,-268.5 763.238,-268.5 763.238,-250.5 631.238,-250.5"/>
<text text-anchor="middle" x="697.238" y="-257.3" font-family="Helvetica,sans-Serif" font-size="9.00">Mappel/PointEmitterModel.h</text>
</a>
</g>
</g>
<!-- Node2&#45;&gt;Node3 -->
<g id="edge2" class="edge"><title>Node2&#45;&gt;Node3</title>
<path fill="none" stroke="midnightblue" d="M327.902,-360.471C398.826,-341.273 578.229,-292.713 657.98,-271.126"/>
<polygon fill="midnightblue" stroke="midnightblue" points="658.912,-274.5 667.65,-268.509 657.083,-267.743 658.912,-274.5"/>
</g>
<!-- Node28 -->
<g id="node28" class="node"><title>Node28</title>
<g id="a_node28"><a xlink:href="ImageFormat1DBase_8h.html" target="_top" xlink:title="The class declaration and inline and templated functions for ImageFormat1DBase. ">
<polygon fill="white" stroke="black" points="116.238,-190.5 116.238,-208.5 260.238,-208.5 260.238,-190.5 116.238,-190.5"/>
<text text-anchor="middle" x="188.238" y="-197.3" font-family="Helvetica,sans-Serif" font-size="9.00">Mappel/ImageFormat1DBase.h</text>
</a>
</g>
</g>
<!-- Node2&#45;&gt;Node28 -->
<g id="edge35" class="edge"><title>Node2&#45;&gt;Node28</title>
<path fill="none" stroke="midnightblue" d="M293.112,-360.386C287.567,-351.532 278.54,-336.896 271.238,-324 252.921,-291.649 253.409,-280.56 232.238,-250 223.832,-237.865 212.79,-225.451 203.871,-216.091"/>
<polygon fill="midnightblue" stroke="midnightblue" points="206.186,-213.452 196.699,-208.735 201.174,-218.338 206.186,-213.452"/>
</g>
<!-- Node30 -->
<g id="node30" class="node"><title>Node30</title>
<g id="a_node30"><a xlink:href="MCMCAdaptor1D_8h.html" target="_top" xlink:title="The class declaration and inline and templated functions for MCMCAdaptor1D. ">
<polygon fill="white" stroke="black" points="280.238,-305.5 280.238,-323.5 410.238,-323.5 410.238,-305.5 280.238,-305.5"/>
<text text-anchor="middle" x="345.238" y="-312.3" font-family="Helvetica,sans-Serif" font-size="9.00">Mappel/MCMCAdaptor1D.h</text>
</a>
</g>
</g>
<!-- Node2&#45;&gt;Node30 -->
<g id="edge39" class="edge"><title>Node2&#45;&gt;Node30</title>
<path fill="none" stroke="midnightblue" d="M305.582,-360.219C312.451,-352.473 322.89,-340.701 331.333,-331.18"/>
<polygon fill="midnightblue" stroke="midnightblue" points="334.084,-333.354 338.1,-323.55 328.846,-328.709 334.084,-333.354"/>
</g>
<!-- Node4 -->
<g id="node4" class="node"><title>Node4</title>
<polygon fill="white" stroke="#bfbfbf" points="962.238,-130.5 962.238,-148.5 1014.24,-148.5 1014.24,-130.5 962.238,-130.5"/>
<text text-anchor="middle" x="988.238" y="-137.3" font-family="Helvetica,sans-Serif" font-size="9.00">iostream</text>
</g>
<!-- Node3&#45;&gt;Node4 -->
<g id="edge3" class="edge"><title>Node3&#45;&gt;Node4</title>
<path fill="none" stroke="midnightblue" d="M763.473,-257.876C839.91,-255.595 958.776,-246.71 987.238,-214 1000.31,-198.982 997.819,-174.973 993.882,-158.509"/>
<polygon fill="midnightblue" stroke="midnightblue" points="997.154,-157.212 991.098,-148.519 990.411,-159.091 997.154,-157.212"/>
</g>
<!-- Node5 -->
<g id="node5" class="node"><title>Node5</title>
<polygon fill="white" stroke="#bfbfbf" points="792.738,-5.5 792.738,-23.5 831.738,-23.5 831.738,-5.5 792.738,-5.5"/>
<text text-anchor="middle" x="812.238" y="-12.3" font-family="Helvetica,sans-Serif" font-size="9.00">string</text>
</g>
<!-- Node3&#45;&gt;Node5 -->
<g id="edge4" class="edge"><title>Node3&#45;&gt;Node5</title>
<path fill="none" stroke="midnightblue" d="M763.336,-256.47C878.308,-252.253 1105.22,-240.625 1129.24,-214 1222.63,-110.492 936.4,-40.9826 841.618,-21.2497"/>
<polygon fill="midnightblue" stroke="midnightblue" points="842.294,-17.8156 831.796,-19.2412 840.892,-24.6737 842.294,-17.8156"/>
</g>
<!-- Node6 -->
<g id="node6" class="node"><title>Node6</title>
<polygon fill="white" stroke="#bfbfbf" points="1082.74,-5.5 1082.74,-23.5 1137.74,-23.5 1137.74,-5.5 1082.74,-5.5"/>
<text text-anchor="middle" x="1110.24" y="-12.3" font-family="Helvetica,sans-Serif" font-size="9.00">armadillo</text>
</g>
<!-- Node3&#45;&gt;Node6 -->
<g id="edge5" class="edge"><title>Node3&#45;&gt;Node6</title>
<path fill="none" stroke="midnightblue" d="M763.248,-258.819C917.462,-258.875 1291.25,-254.759 1329.24,-214 1400.56,-137.48 1219.44,-56.9616 1142.68,-27.3307"/>
<polygon fill="midnightblue" stroke="midnightblue" points="1143.6,-23.9346 1133.01,-23.6523 1141.11,-30.4776 1143.6,-23.9346"/>
</g>
<!-- Node7 -->
<g id="node7" class="node"><title>Node7</title>
<polygon fill="white" stroke="#bfbfbf" points="676.238,-190.5 676.238,-208.5 816.238,-208.5 816.238,-190.5 676.238,-190.5"/>
<text text-anchor="middle" x="746.238" y="-197.3" font-family="Helvetica,sans-Serif" font-size="9.00">PriorHessian/CompositeDist.h</text>
</g>
<!-- Node3&#45;&gt;Node7 -->
<g id="edge6" class="edge"><title>Node3&#45;&gt;Node7</title>
<path fill="none" stroke="midnightblue" d="M704.051,-250.435C711.428,-241.704 723.384,-227.552 732.687,-216.54"/>
<polygon fill="midnightblue" stroke="midnightblue" points="735.385,-218.769 739.165,-208.872 730.038,-214.252 735.385,-218.769"/>
</g>
<!-- Node8 -->
<g id="node8" class="node"><title>Node8</title>
<polygon fill="white" stroke="#bfbfbf" points="834.738,-185.5 834.738,-213.5 977.738,-213.5 977.738,-185.5 834.738,-185.5"/>
<text text-anchor="start" x="842.738" y="-202.3" font-family="Helvetica,sans-Serif" font-size="9.00">PriorHessian/TruncatedNormal</text>
<text text-anchor="middle" x="906.238" y="-192.3" font-family="Helvetica,sans-Serif" font-size="9.00">Dist.h</text>
</g>
<!-- Node3&#45;&gt;Node8 -->
<g id="edge7" class="edge"><title>Node3&#45;&gt;Node8</title>
<path fill="none" stroke="midnightblue" d="M726.299,-250.435C758.043,-241.626 809.673,-227.298 849.505,-216.244"/>
<polygon fill="midnightblue" stroke="midnightblue" points="850.659,-219.556 859.359,-213.51 848.787,-212.811 850.659,-219.556"/>
</g>
<!-- Node9 -->
<g id="node9" class="node"><title>Node9</title>
<polygon fill="white" stroke="#bfbfbf" points="1176.74,-185.5 1176.74,-213.5 1319.74,-213.5 1319.74,-185.5 1176.74,-185.5"/>
<text text-anchor="start" x="1184.74" y="-202.3" font-family="Helvetica,sans-Serif" font-size="9.00">PriorHessian/ScaledSymmetric</text>
<text text-anchor="middle" x="1248.24" y="-192.3" font-family="Helvetica,sans-Serif" font-size="9.00">BetaDist.h</text>
</g>
<!-- Node3&#45;&gt;Node9 -->
<g id="edge8" class="edge"><title>Node3&#45;&gt;Node9</title>
<path fill="none" stroke="midnightblue" d="M763.6,-253.415C853.947,-246.204 1020.63,-231.874 1162.24,-214 1163.55,-213.835 1164.86,-213.666 1166.19,-213.492"/>
<polygon fill="midnightblue" stroke="midnightblue" points="1167.05,-216.908 1176.49,-212.094 1166.11,-209.971 1167.05,-216.908"/>
</g>
<!-- Node10 -->
<g id="node10" class="node"><title>Node10</title>
<polygon fill="white" stroke="#bfbfbf" points="278.238,-185.5 278.238,-213.5 424.238,-213.5 424.238,-185.5 278.238,-185.5"/>
<text text-anchor="start" x="286.238" y="-202.3" font-family="Helvetica,sans-Serif" font-size="9.00">PriorHessian/TruncatedGamma</text>
<text text-anchor="middle" x="351.238" y="-192.3" font-family="Helvetica,sans-Serif" font-size="9.00">Dist.h</text>
</g>
<!-- Node3&#45;&gt;Node10 -->
<g id="edge9" class="edge"><title>Node3&#45;&gt;Node10</title>
<path fill="none" stroke="midnightblue" d="M649.492,-250.496C594.123,-241.215 501.862,-225.749 434.59,-214.472"/>
<polygon fill="midnightblue" stroke="midnightblue" points="434.877,-210.972 424.436,-212.77 433.719,-217.875 434.877,-210.972"/>
</g>
<!-- Node11 -->
<g id="node11" class="node"><title>Node11</title>
<polygon fill="white" stroke="#bfbfbf" points="442.238,-185.5 442.238,-213.5 582.238,-213.5 582.238,-185.5 442.238,-185.5"/>
<text text-anchor="start" x="450.238" y="-202.3" font-family="Helvetica,sans-Serif" font-size="9.00">PriorHessian/TruncatedPareto</text>
<text text-anchor="middle" x="512.238" y="-192.3" font-family="Helvetica,sans-Serif" font-size="9.00">Dist.h</text>
</g>
<!-- Node3&#45;&gt;Node11 -->
<g id="edge10" class="edge"><title>Node3&#45;&gt;Node11</title>
<path fill="none" stroke="midnightblue" d="M671.515,-250.435C643.654,-241.701 598.488,-227.54 563.355,-216.526"/>
<polygon fill="midnightblue" stroke="midnightblue" points="564.323,-213.161 553.734,-213.51 562.229,-219.841 564.323,-213.161"/>
</g>
<!-- Node12 -->
<g id="node12" class="node"><title>Node12</title>
<g id="a_node12"><a xlink:href="util_8h.html" target="_top" xlink:title="Mappel/util.h">
<polygon fill="white" stroke="black" points="255.738,-70.5 255.738,-88.5 324.738,-88.5 324.738,-70.5 255.738,-70.5"/>
<text text-anchor="middle" x="290.238" y="-77.3" font-family="Helvetica,sans-Serif" font-size="9.00">Mappel/util.h</text>
</a>
</g>
</g>
<!-- Node3&#45;&gt;Node12 -->
<g id="edge11" class="edge"><title>Node3&#45;&gt;Node12</title>
<path fill="none" stroke="midnightblue" d="M687.582,-250.439C669.607,-235.755 629.368,-204.379 591.238,-185 503.366,-140.34 391.988,-107.222 332.401,-91.2157"/>
<polygon fill="midnightblue" stroke="midnightblue" points="333.158,-87.7953 322.594,-88.6107 331.361,-94.5607 333.158,-87.7953"/>
</g>
<!-- Node3&#45;&gt;Node20 -->
<g id="edge21" class="edge"><title>Node3&#45;&gt;Node20</title>
<path fill="none" stroke="midnightblue" d="M630.84,-257.452C521.12,-254.838 295.388,-245.721 107.238,-214 102.465,-213.195 97.4901,-212.148 92.599,-210.992"/>
<polygon fill="midnightblue" stroke="midnightblue" points="93.3224,-207.564 82.7698,-208.509 91.6084,-214.351 93.3224,-207.564"/>
</g>
<!-- Node22 -->
<g id="node22" class="node"><title>Node22</title>
<g id="a_node22"><a xlink:href="rng_8h.html" target="_top" xlink:title="Random number generation usign sfmt. ">
<polygon fill="white" stroke="black" points="625.738,-130.5 625.738,-148.5 696.738,-148.5 696.738,-130.5 625.738,-130.5"/>
<text text-anchor="middle" x="661.238" y="-137.3" font-family="Helvetica,sans-Serif" font-size="9.00">Mappel/rng.h</text>
</a>
</g>
</g>
<!-- Node3&#45;&gt;Node22 -->
<g id="edge34" class="edge"><title>Node3&#45;&gt;Node22</title>
<path fill="none" stroke="midnightblue" d="M689.827,-250.355C682.657,-241.934 672.172,-228.068 667.238,-214 660.958,-196.093 659.939,-174.283 660.194,-159.092"/>
<polygon fill="midnightblue" stroke="midnightblue" points="663.697,-159.064 660.571,-148.941 656.702,-158.804 663.697,-159.064"/>
</g>
<!-- Node26 -->
<g id="node26" class="node"><title>Node26</title>
<g id="a_node26"><a xlink:href="display_8h.html" target="_top" xlink:title="Mappel/display.h">
<polygon fill="white" stroke="black" points="1034.24,-190.5 1034.24,-208.5 1120.24,-208.5 1120.24,-190.5 1034.24,-190.5"/>
<text text-anchor="middle" x="1077.24" y="-197.3" font-family="Helvetica,sans-Serif" font-size="9.00">Mappel/display.h</text>
</a>
</g>
</g>
<!-- Node3&#45;&gt;Node26 -->
<g id="edge30" class="edge"><title>Node3&#45;&gt;Node26</title>
<path fill="none" stroke="midnightblue" d="M763.419,-251.26C828.917,-243.653 931.905,-230.506 1020.24,-214 1025.29,-213.055 1030.58,-211.957 1035.8,-210.802"/>
<polygon fill="midnightblue" stroke="midnightblue" points="1036.73,-214.181 1045.7,-208.539 1035.17,-207.357 1036.73,-214.181"/>
</g>
<!-- Node12&#45;&gt;Node5 -->
<g id="edge16" class="edge"><title>Node12&#45;&gt;Node5</title>
<path fill="none" stroke="midnightblue" d="M324.892,-74.3176C421.389,-62.6715 692.009,-30.0104 782.408,-19.1001"/>
<polygon fill="midnightblue" stroke="midnightblue" points="783.007,-22.5534 792.516,-17.8803 782.168,-15.6038 783.007,-22.5534"/>
</g>
<!-- Node12&#45;&gt;Node6 -->
<g id="edge19" class="edge"><title>Node12&#45;&gt;Node6</title>
<path fill="none" stroke="midnightblue" d="M324.949,-75.8332C457.898,-65.6188 934.166,-29.0275 1072.38,-18.4084"/>
<polygon fill="midnightblue" stroke="midnightblue" points="1072.78,-21.8881 1082.48,-17.6323 1072.25,-14.9087 1072.78,-21.8881"/>
</g>
<!-- Node13 -->
<g id="node13" class="node"><title>Node13</title>
<polygon fill="white" stroke="#bfbfbf" points="128.738,-5.5 128.738,-23.5 171.738,-23.5 171.738,-5.5 128.738,-5.5"/>
<text text-anchor="middle" x="150.238" y="-12.3" font-family="Helvetica,sans-Serif" font-size="9.00">cstdint</text>
</g>
<!-- Node12&#45;&gt;Node13 -->
<g id="edge12" class="edge"><title>Node12&#45;&gt;Node13</title>
<path fill="none" stroke="midnightblue" d="M272.222,-70.3928C248.176,-59.5718 205.379,-40.3134 177.406,-27.7256"/>
<polygon fill="midnightblue" stroke="midnightblue" points="178.74,-24.488 168.185,-23.5761 175.868,-30.8715 178.74,-24.488"/>
</g>
<!-- Node14 -->
<g id="node14" class="node"><title>Node14</title>
<polygon fill="white" stroke="#bfbfbf" points="57.7381,-5.5 57.7381,-23.5 98.7381,-23.5 98.7381,-5.5 57.7381,-5.5"/>
<text text-anchor="middle" x="78.2381" y="-12.3" font-family="Helvetica,sans-Serif" font-size="9.00">cmath</text>
</g>
<!-- Node12&#45;&gt;Node14 -->
<g id="edge13" class="edge"><title>Node12&#45;&gt;Node14</title>
<path fill="none" stroke="midnightblue" d="M261.4,-70.4971C227.331,-60.963 168.99,-44.3863 119.238,-29 115.842,-27.9497 112.296,-26.8251 108.774,-25.6897"/>
<polygon fill="midnightblue" stroke="midnightblue" points="109.641,-22.2913 99.049,-22.5146 107.469,-28.9456 109.641,-22.2913"/>
</g>
<!-- Node15 -->
<g id="node15" class="node"><title>Node15</title>
<polygon fill="white" stroke="#bfbfbf" points="190.238,-5.5 190.238,-23.5 240.238,-23.5 240.238,-5.5 190.238,-5.5"/>
<text text-anchor="middle" x="215.238" y="-12.3" font-family="Helvetica,sans-Serif" font-size="9.00">memory</text>
</g>
<!-- Node12&#45;&gt;Node15 -->
<g id="edge14" class="edge"><title>Node12&#45;&gt;Node15</title>
<path fill="none" stroke="midnightblue" d="M280.433,-70.2639C268.351,-60.1151 247.604,-42.687 232.757,-30.2162"/>
<polygon fill="midnightblue" stroke="midnightblue" points="234.717,-27.291 224.808,-23.539 230.214,-32.6509 234.717,-27.291"/>
</g>
<!-- Node16 -->
<g id="node16" class="node"><title>Node16</title>
<polygon fill="white" stroke="#bfbfbf" points="258.238,-5.5 258.238,-23.5 296.238,-23.5 296.238,-5.5 258.238,-5.5"/>
<text text-anchor="middle" x="277.238" y="-12.3" font-family="Helvetica,sans-Serif" font-size="9.00">utility</text>
</g>
<!-- Node12&#45;&gt;Node16 -->
<g id="edge15" class="edge"><title>Node12&#45;&gt;Node16</title>
<path fill="none" stroke="midnightblue" d="M288.539,-70.2639C286.621,-60.9687 283.442,-45.5673 280.944,-33.461"/>
<polygon fill="midnightblue" stroke="midnightblue" points="284.346,-32.6253 278.897,-23.539 277.49,-34.04 284.346,-32.6253"/>
</g>
<!-- Node17 -->
<g id="node17" class="node"><title>Node17</title>
<polygon fill="white" stroke="#bfbfbf" points="314.738,-5.5 314.738,-23.5 349.738,-23.5 349.738,-5.5 314.738,-5.5"/>
<text text-anchor="middle" x="332.238" y="-12.3" font-family="Helvetica,sans-Serif" font-size="9.00">map</text>
</g>
<!-- Node12&#45;&gt;Node17 -->
<g id="edge17" class="edge"><title>Node12&#45;&gt;Node17</title>
<path fill="none" stroke="midnightblue" d="M295.729,-70.2639C302.179,-60.5893 313.038,-44.2999 321.241,-31.9957"/>
<polygon fill="midnightblue" stroke="midnightblue" points="324.244,-33.801 326.879,-23.539 318.42,-29.918 324.244,-33.801"/>
</g>
<!-- Node18 -->
<g id="node18" class="node"><title>Node18</title>
<polygon fill="white" stroke="#bfbfbf" points="367.738,-5.5 367.738,-23.5 416.738,-23.5 416.738,-5.5 367.738,-5.5"/>
<text text-anchor="middle" x="392.238" y="-12.3" font-family="Helvetica,sans-Serif" font-size="9.00">sstream</text>
</g>
<!-- Node12&#45;&gt;Node18 -->
<g id="edge18" class="edge"><title>Node12&#45;&gt;Node18</title>
<path fill="none" stroke="midnightblue" d="M303.573,-70.2639C320.618,-59.7357 350.347,-41.3738 370.642,-28.8391"/>
<polygon fill="midnightblue" stroke="midnightblue" points="372.554,-31.7718 379.223,-23.539 368.875,-25.8162 372.554,-31.7718"/>
</g>
<!-- Node19 -->
<g id="node19" class="node"><title>Node19</title>
<polygon fill="white" stroke="#bfbfbf" points="434.738,-0.5 434.738,-28.5 541.738,-28.5 541.738,-0.5 434.738,-0.5"/>
<text text-anchor="start" x="442.738" y="-17.3" font-family="Helvetica,sans-Serif" font-size="9.00">BacktraceException</text>
<text text-anchor="middle" x="488.238" y="-7.3" font-family="Helvetica,sans-Serif" font-size="9.00">/BacktraceException.h</text>
</g>
<!-- Node12&#45;&gt;Node19 -->
<g id="edge20" class="edge"><title>Node12&#45;&gt;Node19</title>
<path fill="none" stroke="midnightblue" d="M315.718,-70.3928C346.433,-60.6197 398.779,-43.9641 437.775,-31.5564"/>
<polygon fill="midnightblue" stroke="midnightblue" points="438.912,-34.8676 447.38,-28.5002 436.79,-28.1971 438.912,-34.8676"/>
</g>
<!-- Node20&#45;&gt;Node12 -->
<g id="edge24" class="edge"><title>Node20&#45;&gt;Node12</title>
<path fill="none" stroke="midnightblue" d="M72.3219,-190.389C112.411,-170.173 217.008,-117.428 265.228,-93.1122"/>
<polygon fill="midnightblue" stroke="midnightblue" points="266.998,-96.1392 274.351,-88.5113 263.846,-89.8889 266.998,-96.1392"/>
</g>
<!-- Node20&#45;&gt;Node14 -->
<g id="edge22" class="edge"><title>Node20&#45;&gt;Node14</title>
<path fill="none" stroke="midnightblue" d="M57.2406,-190.161C60.5763,-162.414 71.3547,-72.7574 76.035,-33.8256"/>
<polygon fill="midnightblue" stroke="midnightblue" points="79.5111,-34.2339 77.2298,-23.8876 72.5611,-33.3984 79.5111,-34.2339"/>
</g>
<!-- Node21 -->
<g id="node21" class="node"><title>Node21</title>
<polygon fill="white" stroke="#bfbfbf" points="82.2381,-130.5 82.2381,-148.5 124.238,-148.5 124.238,-130.5 82.2381,-130.5"/>
<text text-anchor="middle" x="103.238" y="-137.3" font-family="Helvetica,sans-Serif" font-size="9.00">climits</text>
</g>
<!-- Node20&#45;&gt;Node21 -->
<g id="edge23" class="edge"><title>Node20&#45;&gt;Node21</title>
<path fill="none" stroke="midnightblue" d="M62.7733,-190.435C69.779,-181.79 81.092,-167.829 89.9774,-156.864"/>
<polygon fill="midnightblue" stroke="midnightblue" points="92.8775,-158.845 96.4541,-148.872 87.439,-154.438 92.8775,-158.845"/>
</g>
<!-- Node20&#45;&gt;Node22 -->
<g id="edge25" class="edge"><title>Node20&#45;&gt;Node22</title>
<path fill="none" stroke="midnightblue" d="M83.0378,-190.445C90.7845,-188.379 99.2935,-186.359 107.238,-185 294.019,-153.041 520.257,-143.928 615.492,-141.416"/>
<polygon fill="midnightblue" stroke="midnightblue" points="615.733,-144.911 625.642,-141.161 615.557,-137.914 615.733,-144.911"/>
</g>
<!-- Node22&#45;&gt;Node12 -->
<g id="edge27" class="edge"><title>Node22&#45;&gt;Node12</title>
<path fill="none" stroke="midnightblue" d="M625.47,-132.351C620.687,-131.549 615.845,-130.747 611.238,-130 512.844,-114.051 397.277,-96.5256 335.17,-87.2058"/>
<polygon fill="midnightblue" stroke="midnightblue" points="335.35,-83.6937 324.942,-85.6726 334.312,-90.6164 335.35,-83.6937"/>
</g>
<!-- Node23 -->
<g id="node23" class="node"><title>Node23</title>
<polygon fill="white" stroke="#bfbfbf" points="637.238,-70.5 637.238,-88.5 685.238,-88.5 685.238,-70.5 637.238,-70.5"/>
<text text-anchor="middle" x="661.238" y="-77.3" font-family="Helvetica,sans-Serif" font-size="9.00">random</text>
</g>
<!-- Node22&#45;&gt;Node23 -->
<g id="edge26" class="edge"><title>Node22&#45;&gt;Node23</title>
<path fill="none" stroke="midnightblue" d="M661.238,-130.435C661.238,-122.389 661.238,-109.739 661.238,-99.1846"/>
<polygon fill="midnightblue" stroke="midnightblue" points="664.738,-98.8717 661.238,-88.8718 657.738,-98.8718 664.738,-98.8717"/>
</g>
<!-- Node24 -->
<g id="node24" class="node"><title>Node24</title>
<polygon fill="white" stroke="#bfbfbf" points="703.738,-70.5 703.738,-88.5 800.738,-88.5 800.738,-70.5 703.738,-70.5"/>
<text text-anchor="middle" x="752.238" y="-77.3" font-family="Helvetica,sans-Serif" font-size="9.00">trng/lcg64_shift.hpp</text>
</g>
<!-- Node22&#45;&gt;Node24 -->
<g id="edge28" class="edge"><title>Node22&#45;&gt;Node24</title>
<path fill="none" stroke="midnightblue" d="M673.891,-130.435C688.613,-121.052 713.159,-105.408 730.857,-94.1277"/>
<polygon fill="midnightblue" stroke="midnightblue" points="732.847,-97.0094 739.399,-88.6831 729.085,-91.1064 732.847,-97.0094"/>
</g>
<!-- Node25 -->
<g id="node25" class="node"><title>Node25</title>
<polygon fill="white" stroke="#bfbfbf" points="507.238,-65.5 507.238,-93.5 619.238,-93.5 619.238,-65.5 507.238,-65.5"/>
<text text-anchor="start" x="515.238" y="-82.3" font-family="Helvetica,sans-Serif" font-size="9.00">ParallelRngManager</text>
<text text-anchor="middle" x="563.238" y="-72.3" font-family="Helvetica,sans-Serif" font-size="9.00">/ParallelRngManager.h</text>
</g>
<!-- Node22&#45;&gt;Node25 -->
<g id="edge29" class="edge"><title>Node22&#45;&gt;Node25</title>
<path fill="none" stroke="midnightblue" d="M647.612,-130.435C633.907,-122.324 612.298,-109.535 594.379,-98.9304"/>
<polygon fill="midnightblue" stroke="midnightblue" points="595.795,-95.7016 585.407,-93.6203 592.23,-101.726 595.795,-95.7016"/>
</g>
<!-- Node26&#45;&gt;Node4 -->
<g id="edge31" class="edge"><title>Node26&#45;&gt;Node4</title>
<path fill="none" stroke="midnightblue" d="M1064.86,-190.435C1050.6,-181.138 1026.9,-165.694 1009.63,-154.439"/>
<polygon fill="midnightblue" stroke="midnightblue" points="1011.08,-151.211 1000.79,-148.683 1007.26,-157.075 1011.08,-151.211"/>
</g>
<!-- Node26&#45;&gt;Node6 -->
<g id="edge33" class="edge"><title>Node26&#45;&gt;Node6</title>
<path fill="none" stroke="midnightblue" d="M1079.96,-190.177C1083.07,-180.41 1088.13,-163.679 1091.24,-149 1099.85,-108.283 1105.67,-59.7386 1108.41,-33.8726"/>
<polygon fill="midnightblue" stroke="midnightblue" points="1111.92,-33.9991 1109.46,-23.6937 1104.96,-33.2835 1111.92,-33.9991"/>
</g>
<!-- Node27 -->
<g id="node27" class="node"><title>Node27</title>
<polygon fill="white" stroke="#bfbfbf" points="1032.24,-130.5 1032.24,-148.5 1082.24,-148.5 1082.24,-130.5 1032.24,-130.5"/>
<text text-anchor="middle" x="1057.24" y="-137.3" font-family="Helvetica,sans-Serif" font-size="9.00">iomanip</text>
</g>
<!-- Node26&#45;&gt;Node27 -->
<g id="edge32" class="edge"><title>Node26&#45;&gt;Node27</title>
<path fill="none" stroke="midnightblue" d="M1074.46,-190.435C1071.62,-182.218 1067.13,-169.198 1063.45,-158.514"/>
<polygon fill="midnightblue" stroke="midnightblue" points="1066.69,-157.185 1060.12,-148.872 1060.08,-159.466 1066.69,-157.185"/>
</g>
<!-- Node28&#45;&gt;Node12 -->
<g id="edge36" class="edge"><title>Node28&#45;&gt;Node12</title>
<path fill="none" stroke="midnightblue" d="M188.862,-190.479C190.297,-176.758 194.903,-148.476 209.238,-130 222.075,-113.455 242.123,-101.14 259.062,-92.931"/>
<polygon fill="midnightblue" stroke="midnightblue" points="260.959,-95.9124 268.598,-88.5714 258.048,-89.5461 260.959,-95.9124"/>
</g>
<!-- Node29 -->
<g id="node29" class="node"><title>Node29</title>
<g id="a_node29"><a xlink:href="ImageFormat2DBase_8h.html" target="_top" xlink:title="The class declaration and inline and templated functions for ImageFormat2DBase. ">
<polygon fill="white" stroke="black" points="218.238,-130.5 218.238,-148.5 362.238,-148.5 362.238,-130.5 218.238,-130.5"/>
<text text-anchor="middle" x="290.238" y="-137.3" font-family="Helvetica,sans-Serif" font-size="9.00">Mappel/ImageFormat2DBase.h</text>
</a>
</g>
</g>
<!-- Node28&#45;&gt;Node29 -->
<g id="edge37" class="edge"><title>Node28&#45;&gt;Node29</title>
<path fill="none" stroke="midnightblue" d="M202.421,-190.435C219.149,-180.923 247.194,-164.976 267.087,-153.665"/>
<polygon fill="midnightblue" stroke="midnightblue" points="268.884,-156.669 275.847,-148.683 265.424,-150.584 268.884,-156.669"/>
</g>
<!-- Node29&#45;&gt;Node12 -->
<g id="edge38" class="edge"><title>Node29&#45;&gt;Node12</title>
<path fill="none" stroke="midnightblue" d="M290.238,-130.435C290.238,-122.389 290.238,-109.739 290.238,-99.1846"/>
<polygon fill="midnightblue" stroke="midnightblue" points="293.738,-98.8717 290.238,-88.8718 286.738,-98.8718 293.738,-98.8717"/>
</g>
<!-- Node30&#45;&gt;Node3 -->
<g id="edge42" class="edge"><title>Node30&#45;&gt;Node3</title>
<path fill="none" stroke="midnightblue" d="M398.699,-305.45C461.812,-295.948 566.659,-280.161 633.818,-270.049"/>
<polygon fill="midnightblue" stroke="midnightblue" points="634.484,-273.488 643.852,-268.538 633.442,-266.566 634.484,-273.488"/>
</g>
<!-- Node31 -->
<g id="node31" class="node"><title>Node31</title>
<g id="a_node31"><a xlink:href="MCMCAdaptorBase_8h.html" target="_top" xlink:title="The class declaration and inline and templated functions for MCMCAdaptorBase. ">
<polygon fill="white" stroke="black" points="84.7381,-250.5 84.7381,-268.5 223.738,-268.5 223.738,-250.5 84.7381,-250.5"/>
<text text-anchor="middle" x="154.238" y="-257.3" font-family="Helvetica,sans-Serif" font-size="9.00">Mappel/MCMCAdaptorBase.h</text>
</a>
</g>
</g>
<!-- Node30&#45;&gt;Node31 -->
<g id="edge40" class="edge"><title>Node30&#45;&gt;Node31</title>
<path fill="none" stroke="midnightblue" d="M316.229,-305.45C283.32,-296.318 229.497,-281.383 193.007,-271.258"/>
<polygon fill="midnightblue" stroke="midnightblue" points="193.778,-267.84 183.206,-268.538 191.906,-274.585 193.778,-267.84"/>
</g>
<!-- Node31&#45;&gt;Node12 -->
<g id="edge41" class="edge"><title>Node31&#45;&gt;Node12</title>
<path fill="none" stroke="midnightblue" d="M84.5358,-255.395C55.1831,-250.205 23.6249,-238.681 5.23812,-214 -2.46202,-203.664 -0.314069,-196.632 5.23812,-185 47.0754,-97.3518 176.372,-81.7413 245.526,-79.8731"/>
<polygon fill="midnightblue" stroke="midnightblue" points="245.747,-83.3697 255.681,-79.6862 245.618,-76.3709 245.747,-83.3697"/>
</g>
</g>
</svg>
        <g id="navigator" transform="translate(0 0)" fill="#404254">
                <rect fill="#f2f5e9" fill-opacity="0.5" stroke="#606060" stroke-width=".5" x="0" y="0" width="60" height="60"/>
                <use id="zoomplus" xlink:href="#zoomPlus" x="17" y="9" onmousedown="handleZoom(evt,'in')"/>
                <use id="zoomminus" xlink:href="#zoomMin" x="42" y="9" onmousedown="handleZoom(evt,'out')"/>
                <use id="reset" xlink:href="#resetDef" x="30" y="36" onmousedown="handleReset()"/>
                <g id="arrowUp" xlink:href="#dirArrow" transform="translate(30 24)" onmousedown="handlePan(0,-1)">
                  <use xlink:href="#rim" fill="#404040">
                        <set attributeName="fill" to="#808080" begin="arrowUp.mouseover" end="arrowUp.mouseout"/>
                  </use>
                  <path fill="none" stroke="white" stroke-width="1.5" d="M0,-3.0v7 M-2.5,-0.5L0,-3.0L2.5,-0.5"/>
                </g>
                <g id="arrowRight" xlink:href="#dirArrow" transform="rotate(90) translate(36 -43)" onmousedown="handlePan(1,0)">
                  <use xlink:href="#rim" fill="#404040">
                        <set attributeName="fill" to="#808080" begin="arrowRight.mouseover" end="arrowRight.mouseout"/>
                  </use>
                  <path fill="none" stroke="white" stroke-width="1.5" d="M0,-3.0v7 M-2.5,-0.5L0,-3.0L2.5,-0.5"/>
                </g>
                <g id="arrowDown" xlink:href="#dirArrow" transform="rotate(180) translate(-30 -48)" onmousedown="handlePan(0,1)">
                  <use xlink:href="#rim" fill="#404040">
                        <set attributeName="fill" to="#808080" begin="arrowDown.mouseover" end="arrowDown.mouseout"/>
                  </use>
                  <path fill="none" stroke="white" stroke-width="1.5" d="M0,-3.0v7 M-2.5,-0.5L0,-3.0L2.5,-0.5"/>
                </g>
                <g id="arrowLeft" xlink:href="#dirArrow" transform="rotate(270) translate(-36 17)" onmousedown="handlePan(-1,0)">
                  <use xlink:href="#rim" fill="#404040">
                        <set attributeName="fill" to="#808080" begin="arrowLeft.mouseover" end="arrowLeft.mouseout"/>
                  </use>
                  <path fill="none" stroke="white" stroke-width="1.5" d="M0,-3.0v7 M-2.5,-0.5L0,-3.0L2.5,-0.5"/>
                </g>
        </g>
        <svg viewBox="0 0 15 15" width="100%" height="30px" preserveAspectRatio="xMaxYMin meet">
         <g id="arrow_out" transform="scale(0.3 0.3)">
          <a xlink:href="Gauss1DModel_8cpp__incl_org.svg" target="_base">
           <rect id="button" ry="5" rx="5" y="6" x="6" height="38" width="38"
                fill="#f2f5e9" fill-opacity="0.5" stroke="#606060" stroke-width="1.0"/>
           <path id="arrow"
             d="M 11.500037,31.436501 C 11.940474,20.09759 22.043105,11.32322 32.158766,21.979434 L 37.068811,17.246167 C 37.068811,17.246167 37.088388,32 37.088388,32 L 22.160133,31.978069 C 22.160133,31.978069 26.997745,27.140456 26.997745,27.140456 C 18.528582,18.264221 13.291696,25.230495 11.500037,31.436501 z"
             style="fill:#404040;"/>
          </a>
         </g>
        </svg>
</svg>
