<?xml version="1.0" encoding="UTF-8" standalone="no"?>
<!DOCTYPE svg PUBLIC "-//W3C//DTD SVG 1.1//EN"
 "http://www.w3.org/Graphics/SVG/1.1/DTD/svg11.dtd">
<!-- Generated by graphviz version 2.38.0 (20140413.2041)
 -->
<!-- Title: Gauss1DModel.h Pages: 1 -->
<svg width="482pt" height="247pt"
 viewBox="0.00 0.00 481.50 247.00" xmlns="http://www.w3.org/2000/svg" xmlns:xlink="http://www.w3.org/1999/xlink">
<g id="graph0" class="graph" transform="scale(1 1) rotate(0) translate(4 243)">
<title>Gauss1DModel.h</title>
<polygon fill="white" stroke="none" points="-4,4 -4,-243 477.5,-243 477.5,4 -4,4"/>
<!-- Node1 -->
<g id="node1" class="node"><title>Node1</title>
<polygon fill="#bfbfbf" stroke="black" points="226,-220.5 226,-238.5 314,-238.5 314,-220.5 226,-220.5"/>
<text text-anchor="middle" x="270" y="-227.3" font-family="Helvetica,sans-Serif" font-size="9.00">Gauss1DModel.h</text>
</g>
<!-- Node2 -->
<g id="node2" class="node"><title>Node2</title>
<g id="a_node2"><a xlink:href="Gauss1DModel_8cpp.html" target="_top" xlink:title="The class definition and template Specializations for Gauss1DModel. ">
<polygon fill="white" stroke="black" points="63,-165.5 63,-183.5 161,-183.5 161,-165.5 63,-165.5"/>
<text text-anchor="middle" x="112" y="-172.3" font-family="Helvetica,sans-Serif" font-size="9.00">Gauss1DModel.cpp</text>
</a>
</g>
</g>
<!-- Node1&#45;&gt;Node2 -->
<g id="edge1" class="edge"><title>Node1&#45;&gt;Node2</title>
<path fill="none" stroke="midnightblue" d="M236.331,-217.206C206.178,-207.091 162.708,-192.51 135.963,-183.538"/>
<polygon fill="midnightblue" stroke="midnightblue" points="235.409,-220.588 246.003,-220.45 237.635,-213.952 235.409,-220.588"/>
</g>
<!-- Node3 -->
<g id="node3" class="node"><title>Node3</title>
<g id="a_node3"><a xlink:href="Gauss1DMAP_8h.html" target="_top" xlink:title="The class declaration and inline and templated functions for Gauss1DMAP. ">
<polygon fill="white" stroke="black" points="179,-165.5 179,-183.5 261,-183.5 261,-165.5 179,-165.5"/>
<text text-anchor="middle" x="220" y="-172.3" font-family="Helvetica,sans-Serif" font-size="9.00">Gauss1DMAP.h</text>
</a>
</g>
</g>
<!-- Node1&#45;&gt;Node3 -->
<g id="edge2" class="edge"><title>Node1&#45;&gt;Node3</title>
<path fill="none" stroke="midnightblue" d="M255.21,-212.822C246.137,-203.205 234.898,-191.292 227.594,-183.55"/>
<polygon fill="midnightblue" stroke="midnightblue" points="252.779,-215.347 262.188,-220.219 257.871,-210.543 252.779,-215.347"/>
</g>
<!-- Node12 -->
<g id="node12" class="node"><title>Node12</title>
<g id="a_node12"><a xlink:href="Gauss1DMLE_8h.html" target="_top" xlink:title="The class declaration and inline and templated functions for Gauss1DMLE. ">
<polygon fill="white" stroke="black" points="279.5,-165.5 279.5,-183.5 360.5,-183.5 360.5,-165.5 279.5,-165.5"/>
<text text-anchor="middle" x="320" y="-172.3" font-family="Helvetica,sans-Serif" font-size="9.00">Gauss1DMLE.h</text>
</a>
</g>
</g>
<!-- Node1&#45;&gt;Node12 -->
<g id="edge11" class="edge"><title>Node1&#45;&gt;Node12</title>
<path fill="none" stroke="midnightblue" d="M284.79,-212.822C293.863,-203.205 305.102,-191.292 312.406,-183.55"/>
<polygon fill="midnightblue" stroke="midnightblue" points="282.129,-210.543 277.812,-220.219 287.221,-215.347 282.129,-210.543"/>
</g>
<!-- Node14 -->
<g id="node14" class="node"><title>Node14</title>
<g id="a_node14"><a xlink:href="Gauss2DsxyMAP_8h.html" target="_top" xlink:title="The class declaration and inline and templated functions for Gauss2DsxyMAP. ">
<polygon fill="white" stroke="black" points="378.5,-165.5 378.5,-183.5 473.5,-183.5 473.5,-165.5 378.5,-165.5"/>
<text text-anchor="middle" x="426" y="-172.3" font-family="Helvetica,sans-Serif" font-size="9.00">Gauss2DsxyMAP.h</text>
</a>
</g>
</g>
<!-- Node1&#45;&gt;Node14 -->
<g id="edge13" class="edge"><title>Node1&#45;&gt;Node14</title>
<path fill="none" stroke="midnightblue" d="M303.243,-217.206C333.014,-207.091 375.934,-192.51 402.34,-183.538"/>
<polygon fill="midnightblue" stroke="midnightblue" points="302.036,-213.92 293.693,-220.45 304.287,-220.547 302.036,-213.92"/>
</g>
<!-- Node4 -->
<g id="node4" class="node"><title>Node4</title>
<g id="a_node4"><a xlink:href="estimator__statics_8cpp.html" target="_top" xlink:title="estimator_statics.cpp">
<polygon fill="white" stroke="black" points="0,-110.5 0,-128.5 102,-128.5 102,-110.5 0,-110.5"/>
<text text-anchor="middle" x="51" y="-117.3" font-family="Helvetica,sans-Serif" font-size="9.00">estimator_statics.cpp</text>
</a>
</g>
</g>
<!-- Node3&#45;&gt;Node4 -->
<g id="edge3" class="edge"><title>Node3&#45;&gt;Node4</title>
<path fill="none" stroke="midnightblue" d="M184.407,-162.338C152.14,-152.218 105.362,-137.549 76.6316,-128.538"/>
<polygon fill="midnightblue" stroke="midnightblue" points="183.743,-165.798 194.333,-165.45 185.838,-159.118 183.743,-165.798"/>
</g>
<!-- Node5 -->
<g id="node5" class="node"><title>Node5</title>
<g id="a_node5"><a xlink:href="Gauss1DMAP_8cpp.html" target="_top" xlink:title="The class definition and template Specializations for Gauss1DMAP. ">
<polygon fill="white" stroke="black" points="120,-110.5 120,-128.5 212,-128.5 212,-110.5 120,-110.5"/>
<text text-anchor="middle" x="166" y="-117.3" font-family="Helvetica,sans-Serif" font-size="9.00">Gauss1DMAP.cpp</text>
</a>
</g>
</g>
<!-- Node3&#45;&gt;Node5 -->
<g id="edge4" class="edge"><title>Node3&#45;&gt;Node5</title>
<path fill="none" stroke="midnightblue" d="M204.32,-158.11C194.471,-148.444 182.169,-136.369 174.201,-128.55"/>
<polygon fill="midnightblue" stroke="midnightblue" points="201.974,-160.712 211.562,-165.219 206.877,-155.716 201.974,-160.712"/>
</g>
<!-- Node6 -->
<g id="node6" class="node"><title>Node6</title>
<g id="a_node6"><a xlink:href="Gauss2DModel_8h.html" target="_top" xlink:title="The class declaration and inline and templated functions for Gauss2DModel. ">
<polygon fill="white" stroke="black" points="230,-110.5 230,-128.5 318,-128.5 318,-110.5 230,-110.5"/>
<text text-anchor="middle" x="274" y="-117.3" font-family="Helvetica,sans-Serif" font-size="9.00">Gauss2DModel.h</text>
</a>
</g>
</g>
<!-- Node3&#45;&gt;Node6 -->
<g id="edge5" class="edge"><title>Node3&#45;&gt;Node6</title>
<path fill="none" stroke="midnightblue" d="M235.68,-158.11C245.529,-148.444 257.831,-136.369 265.799,-128.55"/>
<polygon fill="midnightblue" stroke="midnightblue" points="233.123,-155.716 228.438,-165.219 238.026,-160.712 233.123,-155.716"/>
</g>
<!-- Node7 -->
<g id="node7" class="node"><title>Node7</title>
<g id="a_node7"><a xlink:href="Gauss2DModel_8cpp.html" target="_top" xlink:title="The class definition and template Specializations for Gauss2DModel. ">
<polygon fill="white" stroke="black" points="117,-55.5 117,-73.5 215,-73.5 215,-55.5 117,-55.5"/>
<text text-anchor="middle" x="166" y="-62.3" font-family="Helvetica,sans-Serif" font-size="9.00">Gauss2DModel.cpp</text>
</a>
</g>
</g>
<!-- Node6&#45;&gt;Node7 -->
<g id="edge6" class="edge"><title>Node6&#45;&gt;Node7</title>
<path fill="none" stroke="midnightblue" d="M248.554,-106.013C228.161,-96.0052 200.142,-82.2551 182.557,-73.6253"/>
<polygon fill="midnightblue" stroke="midnightblue" points="247.078,-109.187 257.597,-110.45 250.162,-102.903 247.078,-109.187"/>
</g>
<!-- Node8 -->
<g id="node8" class="node"><title>Node8</title>
<g id="a_node8"><a xlink:href="Gauss2DMAP_8h.html" target="_top" xlink:title="The class declaration and inline and templated functions for Gauss2DMAP. ">
<polygon fill="white" stroke="black" points="233,-55.5 233,-73.5 315,-73.5 315,-55.5 233,-55.5"/>
<text text-anchor="middle" x="274" y="-62.3" font-family="Helvetica,sans-Serif" font-size="9.00">Gauss2DMAP.h</text>
</a>
</g>
</g>
<!-- Node6&#45;&gt;Node8 -->
<g id="edge7" class="edge"><title>Node6&#45;&gt;Node8</title>
<path fill="none" stroke="midnightblue" d="M274,-100.175C274,-91.0945 274,-80.5949 274,-73.5496"/>
<polygon fill="midnightblue" stroke="midnightblue" points="270.5,-100.219 274,-110.219 277.5,-100.219 270.5,-100.219"/>
</g>
<!-- Node10 -->
<g id="node10" class="node"><title>Node10</title>
<g id="a_node10"><a xlink:href="Gauss2DMLE_8h.html" target="_top" xlink:title="The class declaration and inline and templated functions for Gauss2DMLE. ">
<polygon fill="white" stroke="black" points="338.5,-55.5 338.5,-73.5 419.5,-73.5 419.5,-55.5 338.5,-55.5"/>
<text text-anchor="middle" x="379" y="-62.3" font-family="Helvetica,sans-Serif" font-size="9.00">Gauss2DMLE.h</text>
</a>
</g>
</g>
<!-- Node6&#45;&gt;Node10 -->
<g id="edge9" class="edge"><title>Node6&#45;&gt;Node10</title>
<path fill="none" stroke="midnightblue" d="M299.009,-105.877C318.812,-95.8808 345.883,-82.216 362.903,-73.6253"/>
<polygon fill="midnightblue" stroke="midnightblue" points="297.297,-102.82 289.947,-110.45 300.452,-109.069 297.297,-102.82"/>
</g>
<!-- Node9 -->
<g id="node9" class="node"><title>Node9</title>
<g id="a_node9"><a xlink:href="Gauss2DMAP_8cpp.html" target="_top" xlink:title="The class definition and template Specializations for Gauss2DMAP. ">
<polygon fill="white" stroke="black" points="226,-0.5 226,-18.5 318,-18.5 318,-0.5 226,-0.5"/>
<text text-anchor="middle" x="272" y="-7.3" font-family="Helvetica,sans-Serif" font-size="9.00">Gauss2DMAP.cpp</text>
</a>
</g>
</g>
<!-- Node8&#45;&gt;Node9 -->
<g id="edge8" class="edge"><title>Node8&#45;&gt;Node9</title>
<path fill="none" stroke="midnightblue" d="M273.308,-45.1746C272.966,-36.0945 272.57,-25.5949 272.304,-18.5496"/>
<polygon fill="midnightblue" stroke="midnightblue" points="269.813,-45.3579 273.688,-55.2188 276.808,-45.0938 269.813,-45.3579"/>
</g>
<!-- Node11 -->
<g id="node11" class="node"><title>Node11</title>
<g id="a_node11"><a xlink:href="Gauss2DMLE_8cpp.html" target="_top" xlink:title="The class definition and template Specializations for Gauss2DMLE. ">
<polygon fill="white" stroke="black" points="336.5,-0.5 336.5,-18.5 427.5,-18.5 427.5,-0.5 336.5,-0.5"/>
<text text-anchor="middle" x="382" y="-7.3" font-family="Helvetica,sans-Serif" font-size="9.00">Gauss2DMLE.cpp</text>
</a>
</g>
</g>
<!-- Node10&#45;&gt;Node11 -->
<g id="edge10" class="edge"><title>Node10&#45;&gt;Node11</title>
<path fill="none" stroke="midnightblue" d="M380.037,-45.1746C380.551,-36.0945 381.146,-25.5949 381.544,-18.5496"/>
<polygon fill="midnightblue" stroke="midnightblue" points="376.54,-45.0369 379.469,-55.2188 383.528,-45.4326 376.54,-45.0369"/>
</g>
<!-- Node13 -->
<g id="node13" class="node"><title>Node13</title>
<g id="a_node13"><a xlink:href="Gauss1DMLE_8cpp.html" target="_top" xlink:title="The class definition and template Specializations for Gauss1DMLE. ">
<polygon fill="white" stroke="black" points="336.5,-110.5 336.5,-128.5 427.5,-128.5 427.5,-110.5 336.5,-110.5"/>
<text text-anchor="middle" x="382" y="-117.3" font-family="Helvetica,sans-Serif" font-size="9.00">Gauss1DMLE.cpp</text>
</a>
</g>
</g>
<!-- Node12&#45;&gt;Node13 -->
<g id="edge12" class="edge"><title>Node12&#45;&gt;Node13</title>
<path fill="none" stroke="midnightblue" d="M337.049,-158.926C348.471,-149.162 363.085,-136.669 372.495,-128.625"/>
<polygon fill="midnightblue" stroke="midnightblue" points="334.743,-156.292 329.416,-165.45 339.292,-161.613 334.743,-156.292"/>
</g>
</g>
</svg>
