<?xml version="1.0" encoding="UTF-8" standalone="no"?>
<!DOCTYPE svg PUBLIC "-//W3C//DTD SVG 1.1//EN"
 "http://www.w3.org/Graphics/SVG/1.1/DTD/svg11.dtd">
<!-- Generated by graphviz version 2.38.0 (20140413.2041)
 -->
<!-- Title: Gauss1DsModel.h Pages: 1 -->
<svg width="1508pt" height="442pt"
 viewBox="0.00 0.00 1507.50 442.00" xmlns="http://www.w3.org/2000/svg" xmlns:xlink="http://www.w3.org/1999/xlink">
<g id="graph0" class="graph" transform="scale(1 1) rotate(0) translate(4 438)">
<title>Gauss1DsModel.h</title>
<polygon fill="white" stroke="none" points="-4,4 -4,-438 1503.5,-438 1503.5,4 -4,4"/>
<!-- Node1 -->
<g id="node1" class="node"><title>Node1</title>
<polygon fill="#bfbfbf" stroke="black" points="451.5,-415.5 451.5,-433.5 543.5,-433.5 543.5,-415.5 451.5,-415.5"/>
<text text-anchor="middle" x="497.5" y="-422.3" font-family="Helvetica,sans-Serif" font-size="9.00">Gauss1DsModel.h</text>
</g>
<!-- Node2 -->
<g id="node2" class="node"><title>Node2</title>
<g id="a_node2"><a xlink:href="PointEmitterModel_8h.html" target="_top" xlink:title="The class declaration and inline and templated functions for PointEmitterModel. ">
<polygon fill="white" stroke="black" points="706.5,-250.5 706.5,-268.5 838.5,-268.5 838.5,-250.5 706.5,-250.5"/>
<text text-anchor="middle" x="772.5" y="-257.3" font-family="Helvetica,sans-Serif" font-size="9.00">Mappel/PointEmitterModel.h</text>
</a>
</g>
</g>
<!-- Node1&#45;&gt;Node2 -->
<g id="edge1" class="edge"><title>Node1&#45;&gt;Node2</title>
<path fill="none" stroke="midnightblue" d="M511.247,-415.491C526.484,-406.606 551.776,-391.828 573.5,-379 637.704,-341.088 713.305,-295.926 750.107,-273.907"/>
<polygon fill="midnightblue" stroke="midnightblue" points="752.225,-276.719 759.008,-268.581 748.63,-270.713 752.225,-276.719"/>
</g>
<!-- Node27 -->
<g id="node27" class="node"><title>Node27</title>
<g id="a_node27"><a xlink:href="ImageFormat1DBase_8h.html" target="_top" xlink:title="The class declaration and inline and templated functions for ImageFormat1DBase. ">
<polygon fill="white" stroke="black" points="84.5,-190.5 84.5,-208.5 228.5,-208.5 228.5,-190.5 84.5,-190.5"/>
<text text-anchor="middle" x="156.5" y="-197.3" font-family="Helvetica,sans-Serif" font-size="9.00">Mappel/ImageFormat1DBase.h</text>
</a>
</g>
</g>
<!-- Node1&#45;&gt;Node27 -->
<g id="edge34" class="edge"><title>Node1&#45;&gt;Node27</title>
<path fill="none" stroke="midnightblue" d="M483.051,-415.4C467.641,-406.678 442.599,-392.265 421.5,-379 328.115,-320.291 219.912,-245.085 176.259,-214.436"/>
<polygon fill="midnightblue" stroke="midnightblue" points="178.145,-211.484 167.952,-208.594 174.118,-217.209 178.145,-211.484"/>
</g>
<!-- Node29 -->
<g id="node29" class="node"><title>Node29</title>
<g id="a_node29"><a xlink:href="MCMCAdaptor1Ds_8h.html" target="_top" xlink:title="The class declaration and inline and templated functions for MCMCAdaptor1Ds. ">
<polygon fill="white" stroke="black" points="430.5,-360.5 430.5,-378.5 564.5,-378.5 564.5,-360.5 430.5,-360.5"/>
<text text-anchor="middle" x="497.5" y="-367.3" font-family="Helvetica,sans-Serif" font-size="9.00">Mappel/MCMCAdaptor1Ds.h</text>
</a>
</g>
</g>
<!-- Node1&#45;&gt;Node29 -->
<g id="edge38" class="edge"><title>Node1&#45;&gt;Node29</title>
<path fill="none" stroke="midnightblue" d="M497.5,-415.219C497.5,-408.177 497.5,-397.808 497.5,-388.828"/>
<polygon fill="midnightblue" stroke="midnightblue" points="501,-388.55 497.5,-378.55 494,-388.55 501,-388.55"/>
</g>
<!-- Node3 -->
<g id="node3" class="node"><title>Node3</title>
<polygon fill="white" stroke="#bfbfbf" points="1341.5,-130.5 1341.5,-148.5 1393.5,-148.5 1393.5,-130.5 1341.5,-130.5"/>
<text text-anchor="middle" x="1367.5" y="-137.3" font-family="Helvetica,sans-Serif" font-size="9.00">iostream</text>
</g>
<!-- Node2&#45;&gt;Node3 -->
<g id="edge2" class="edge"><title>Node2&#45;&gt;Node3</title>
<path fill="none" stroke="midnightblue" d="M838.616,-256.705C976.924,-252.449 1287.35,-240.086 1327.5,-214 1346.89,-201.403 1357.63,-176.065 1362.98,-158.694"/>
<polygon fill="midnightblue" stroke="midnightblue" points="1366.47,-159.214 1365.76,-148.643 1359.72,-157.35 1366.47,-159.214"/>
</g>
<!-- Node4 -->
<g id="node4" class="node"><title>Node4</title>
<polygon fill="white" stroke="#bfbfbf" points="860,-5.5 860,-23.5 899,-23.5 899,-5.5 860,-5.5"/>
<text text-anchor="middle" x="879.5" y="-12.3" font-family="Helvetica,sans-Serif" font-size="9.00">string</text>
</g>
<!-- Node2&#45;&gt;Node4 -->
<g id="edge3" class="edge"><title>Node2&#45;&gt;Node4</title>
<path fill="none" stroke="midnightblue" d="M838.575,-257.266C964.508,-254.226 1228.88,-244.273 1256.5,-214 1365.18,-94.864 1015.34,-34.6826 909.119,-19.4454"/>
<polygon fill="midnightblue" stroke="midnightblue" points="909.455,-15.9584 899.066,-18.034 908.482,-22.8904 909.455,-15.9584"/>
</g>
<!-- Node5 -->
<g id="node5" class="node"><title>Node5</title>
<polygon fill="white" stroke="#bfbfbf" points="1286,-5.5 1286,-23.5 1341,-23.5 1341,-5.5 1286,-5.5"/>
<text text-anchor="middle" x="1313.5" y="-12.3" font-family="Helvetica,sans-Serif" font-size="9.00">armadillo</text>
</g>
<!-- Node2&#45;&gt;Node5 -->
<g id="edge4" class="edge"><title>Node2&#45;&gt;Node5</title>
<path fill="none" stroke="midnightblue" d="M838.601,-257.099C968.387,-253.719 1246.73,-243.126 1278.5,-214 1329.68,-167.081 1322.55,-73.6506 1316.75,-33.9913"/>
<polygon fill="midnightblue" stroke="midnightblue" points="1320.18,-33.2324 1315.13,-23.9151 1313.26,-34.344 1320.18,-33.2324"/>
</g>
<!-- Node6 -->
<g id="node6" class="node"><title>Node6</title>
<polygon fill="white" stroke="#bfbfbf" points="462.5,-190.5 462.5,-208.5 602.5,-208.5 602.5,-190.5 462.5,-190.5"/>
<text text-anchor="middle" x="532.5" y="-197.3" font-family="Helvetica,sans-Serif" font-size="9.00">PriorHessian/CompositeDist.h</text>
</g>
<!-- Node2&#45;&gt;Node6 -->
<g id="edge5" class="edge"><title>Node2&#45;&gt;Node6</title>
<path fill="none" stroke="midnightblue" d="M739.381,-250.496C696.732,-240.189 622.526,-222.256 575.543,-210.902"/>
<polygon fill="midnightblue" stroke="midnightblue" points="576.207,-207.462 565.664,-208.515 574.562,-214.266 576.207,-207.462"/>
</g>
<!-- Node7 -->
<g id="node7" class="node"><title>Node7</title>
<polygon fill="white" stroke="#bfbfbf" points="621,-185.5 621,-213.5 764,-213.5 764,-185.5 621,-185.5"/>
<text text-anchor="start" x="629" y="-202.3" font-family="Helvetica,sans-Serif" font-size="9.00">PriorHessian/TruncatedNormal</text>
<text text-anchor="middle" x="692.5" y="-192.3" font-family="Helvetica,sans-Serif" font-size="9.00">Dist.h</text>
</g>
<!-- Node2&#45;&gt;Node7 -->
<g id="edge6" class="edge"><title>Node2&#45;&gt;Node7</title>
<path fill="none" stroke="midnightblue" d="M761.376,-250.435C750.394,-242.473 733.194,-230.003 718.729,-219.516"/>
<polygon fill="midnightblue" stroke="midnightblue" points="720.748,-216.656 710.597,-213.62 716.639,-222.324 720.748,-216.656"/>
</g>
<!-- Node8 -->
<g id="node8" class="node"><title>Node8</title>
<polygon fill="white" stroke="#bfbfbf" points="782,-185.5 782,-213.5 925,-213.5 925,-185.5 782,-185.5"/>
<text text-anchor="start" x="790" y="-202.3" font-family="Helvetica,sans-Serif" font-size="9.00">PriorHessian/ScaledSymmetric</text>
<text text-anchor="middle" x="853.5" y="-192.3" font-family="Helvetica,sans-Serif" font-size="9.00">BetaDist.h</text>
</g>
<!-- Node2&#45;&gt;Node8 -->
<g id="edge7" class="edge"><title>Node2&#45;&gt;Node8</title>
<path fill="none" stroke="midnightblue" d="M783.763,-250.435C794.882,-242.473 812.298,-230.003 826.943,-219.516"/>
<polygon fill="midnightblue" stroke="midnightblue" points="829.084,-222.288 835.177,-213.62 825.009,-216.597 829.084,-222.288"/>
</g>
<!-- Node9 -->
<g id="node9" class="node"><title>Node9</title>
<polygon fill="white" stroke="#bfbfbf" points="943.5,-185.5 943.5,-213.5 1089.5,-213.5 1089.5,-185.5 943.5,-185.5"/>
<text text-anchor="start" x="951.5" y="-202.3" font-family="Helvetica,sans-Serif" font-size="9.00">PriorHessian/TruncatedGamma</text>
<text text-anchor="middle" x="1016.5" y="-192.3" font-family="Helvetica,sans-Serif" font-size="9.00">Dist.h</text>
</g>
<!-- Node2&#45;&gt;Node9 -->
<g id="edge8" class="edge"><title>Node2&#45;&gt;Node9</title>
<path fill="none" stroke="midnightblue" d="M806.171,-250.496C843.641,-241.589 905.07,-226.987 951.893,-215.857"/>
<polygon fill="midnightblue" stroke="midnightblue" points="952.729,-219.256 961.648,-213.538 951.11,-212.446 952.729,-219.256"/>
</g>
<!-- Node10 -->
<g id="node10" class="node"><title>Node10</title>
<polygon fill="white" stroke="#bfbfbf" points="1107.5,-185.5 1107.5,-213.5 1247.5,-213.5 1247.5,-185.5 1107.5,-185.5"/>
<text text-anchor="start" x="1115.5" y="-202.3" font-family="Helvetica,sans-Serif" font-size="9.00">PriorHessian/TruncatedPareto</text>
<text text-anchor="middle" x="1177.5" y="-192.3" font-family="Helvetica,sans-Serif" font-size="9.00">Dist.h</text>
</g>
<!-- Node2&#45;&gt;Node10 -->
<g id="edge9" class="edge"><title>Node2&#45;&gt;Node10</title>
<path fill="none" stroke="midnightblue" d="M836.002,-250.473C899.583,-242.291 1000.48,-228.913 1097.35,-214.147"/>
<polygon fill="midnightblue" stroke="midnightblue" points="1097.95,-217.594 1107.31,-212.621 1096.89,-210.675 1097.95,-217.594"/>
</g>
<!-- Node11 -->
<g id="node11" class="node"><title>Node11</title>
<g id="a_node11"><a xlink:href="util_8h.html" target="_top" xlink:title="Mappel/util.h">
<polygon fill="white" stroke="black" points="260,-70.5 260,-88.5 329,-88.5 329,-70.5 260,-70.5"/>
<text text-anchor="middle" x="294.5" y="-77.3" font-family="Helvetica,sans-Serif" font-size="9.00">Mappel/util.h</text>
</a>
</g>
</g>
<!-- Node2&#45;&gt;Node11 -->
<g id="edge10" class="edge"><title>Node2&#45;&gt;Node11</title>
<path fill="none" stroke="midnightblue" d="M706.459,-256.543C586.211,-252.341 341.311,-240.594 313.5,-214 282.132,-184.005 286.232,-127.441 290.88,-98.5201"/>
<polygon fill="midnightblue" stroke="midnightblue" points="294.34,-99.0547 292.678,-88.591 287.452,-97.8072 294.34,-99.0547"/>
</g>
<!-- Node19 -->
<g id="node19" class="node"><title>Node19</title>
<g id="a_node19"><a xlink:href="stencil_8h.html" target="_top" xlink:title="The stencils for pixel based computations. ">
<polygon fill="white" stroke="black" points="323,-190.5 323,-208.5 406,-208.5 406,-190.5 323,-190.5"/>
<text text-anchor="middle" x="364.5" y="-197.3" font-family="Helvetica,sans-Serif" font-size="9.00">Mappel/stencil.h</text>
</a>
</g>
</g>
<!-- Node2&#45;&gt;Node19 -->
<g id="edge20" class="edge"><title>Node2&#45;&gt;Node19</title>
<path fill="none" stroke="midnightblue" d="M706.316,-252.343C635.316,-245.224 519.412,-232.117 420.5,-214 415.465,-213.078 410.204,-211.985 405.01,-210.826"/>
<polygon fill="midnightblue" stroke="midnightblue" points="405.711,-207.395 395.178,-208.544 404.128,-214.214 405.711,-207.395"/>
</g>
<!-- Node21 -->
<g id="node21" class="node"><title>Node21</title>
<g id="a_node21"><a xlink:href="rng_8h.html" target="_top" xlink:title="Random number generation usign sfmt. ">
<polygon fill="white" stroke="black" points="469,-130.5 469,-148.5 540,-148.5 540,-130.5 469,-130.5"/>
<text text-anchor="middle" x="504.5" y="-137.3" font-family="Helvetica,sans-Serif" font-size="9.00">Mappel/rng.h</text>
</a>
</g>
</g>
<!-- Node2&#45;&gt;Node21 -->
<g id="edge33" class="edge"><title>Node2&#45;&gt;Node21</title>
<path fill="none" stroke="midnightblue" d="M706.189,-259.036C622.502,-258.131 485.573,-250.858 453.5,-214 436.728,-194.726 462.569,-169.874 483.184,-154.57"/>
<polygon fill="midnightblue" stroke="midnightblue" points="485.42,-157.275 491.559,-148.64 481.375,-151.562 485.42,-157.275"/>
</g>
<!-- Node25 -->
<g id="node25" class="node"><title>Node25</title>
<g id="a_node25"><a xlink:href="display_8h.html" target="_top" xlink:title="Mappel/display.h">
<polygon fill="white" stroke="black" points="1379.5,-190.5 1379.5,-208.5 1465.5,-208.5 1465.5,-190.5 1379.5,-190.5"/>
<text text-anchor="middle" x="1422.5" y="-197.3" font-family="Helvetica,sans-Serif" font-size="9.00">Mappel/display.h</text>
</a>
</g>
</g>
<!-- Node2&#45;&gt;Node25 -->
<g id="edge29" class="edge"><title>Node2&#45;&gt;Node25</title>
<path fill="none" stroke="midnightblue" d="M838.701,-256.934C948.683,-253.572 1175.74,-243.404 1365.5,-214 1371.03,-213.144 1376.81,-212.032 1382.48,-210.814"/>
<polygon fill="midnightblue" stroke="midnightblue" points="1383.52,-214.168 1392.5,-208.541 1381.97,-207.341 1383.52,-214.168"/>
</g>
<!-- Node11&#45;&gt;Node4 -->
<g id="edge15" class="edge"><title>Node11&#45;&gt;Node4</title>
<path fill="none" stroke="midnightblue" d="M329.342,-74.7477C435.084,-63.3602 751.099,-29.3278 849.745,-18.7044"/>
<polygon fill="midnightblue" stroke="midnightblue" points="850.332,-22.1615 859.9,-17.6108 849.583,-15.2017 850.332,-22.1615"/>
</g>
<!-- Node11&#45;&gt;Node5 -->
<g id="edge18" class="edge"><title>Node11&#45;&gt;Node5</title>
<path fill="none" stroke="midnightblue" d="M329.258,-75.176C360.656,-72.244 408.145,-67.9849 449.5,-65 768.797,-41.9537 1155.11,-22.9804 1275.69,-17.2649"/>
<polygon fill="midnightblue" stroke="midnightblue" points="1276.05,-20.752 1285.88,-16.7839 1275.72,-13.7598 1276.05,-20.752"/>
</g>
<!-- Node12 -->
<g id="node12" class="node"><title>Node12</title>
<polygon fill="white" stroke="#bfbfbf" points="125,-5.5 125,-23.5 168,-23.5 168,-5.5 125,-5.5"/>
<text text-anchor="middle" x="146.5" y="-12.3" font-family="Helvetica,sans-Serif" font-size="9.00">cstdint</text>
</g>
<!-- Node11&#45;&gt;Node12 -->
<g id="edge11" class="edge"><title>Node11&#45;&gt;Node12</title>
<path fill="none" stroke="midnightblue" d="M275.014,-70.3292C251.77,-60.5659 211.752,-43.7031 177.5,-29 176.475,-28.56 175.432,-28.111 174.378,-27.6567"/>
<polygon fill="midnightblue" stroke="midnightblue" points="175.413,-24.2908 164.845,-23.5269 172.63,-30.7139 175.413,-24.2908"/>
</g>
<!-- Node13 -->
<g id="node13" class="node"><title>Node13</title>
<polygon fill="white" stroke="#bfbfbf" points="431,-5.5 431,-23.5 472,-23.5 472,-5.5 431,-5.5"/>
<text text-anchor="middle" x="451.5" y="-12.3" font-family="Helvetica,sans-Serif" font-size="9.00">cmath</text>
</g>
<!-- Node11&#45;&gt;Node13 -->
<g id="edge12" class="edge"><title>Node11&#45;&gt;Node13</title>
<path fill="none" stroke="midnightblue" d="M316.208,-70.4263C341.602,-60.8923 384.84,-44.381 421.5,-29 422.527,-28.5691 423.572,-28.1255 424.625,-27.6737"/>
<polygon fill="midnightblue" stroke="midnightblue" points="426.368,-30.7308 434.116,-23.5041 423.553,-24.322 426.368,-30.7308"/>
</g>
<!-- Node14 -->
<g id="node14" class="node"><title>Node14</title>
<polygon fill="white" stroke="#bfbfbf" points="186.5,-5.5 186.5,-23.5 236.5,-23.5 236.5,-5.5 186.5,-5.5"/>
<text text-anchor="middle" x="211.5" y="-12.3" font-family="Helvetica,sans-Serif" font-size="9.00">memory</text>
</g>
<!-- Node11&#45;&gt;Node14 -->
<g id="edge13" class="edge"><title>Node11&#45;&gt;Node14</title>
<path fill="none" stroke="midnightblue" d="M283.649,-70.2639C270.154,-60.0202 246.888,-42.3606 230.429,-29.8679"/>
<polygon fill="midnightblue" stroke="midnightblue" points="232.172,-26.7971 222.091,-23.539 227.94,-32.3729 232.172,-26.7971"/>
</g>
<!-- Node15 -->
<g id="node15" class="node"><title>Node15</title>
<polygon fill="white" stroke="#bfbfbf" points="254.5,-5.5 254.5,-23.5 292.5,-23.5 292.5,-5.5 254.5,-5.5"/>
<text text-anchor="middle" x="273.5" y="-12.3" font-family="Helvetica,sans-Serif" font-size="9.00">utility</text>
</g>
<!-- Node11&#45;&gt;Node15 -->
<g id="edge14" class="edge"><title>Node11&#45;&gt;Node15</title>
<path fill="none" stroke="midnightblue" d="M291.755,-70.2639C288.625,-60.8738 283.417,-45.2524 279.364,-33.0914"/>
<polygon fill="midnightblue" stroke="midnightblue" points="282.662,-31.919 276.18,-23.539 276.022,-34.1326 282.662,-31.919"/>
</g>
<!-- Node16 -->
<g id="node16" class="node"><title>Node16</title>
<polygon fill="white" stroke="#bfbfbf" points="311,-5.5 311,-23.5 346,-23.5 346,-5.5 311,-5.5"/>
<text text-anchor="middle" x="328.5" y="-12.3" font-family="Helvetica,sans-Serif" font-size="9.00">map</text>
</g>
<!-- Node11&#45;&gt;Node16 -->
<g id="edge16" class="edge"><title>Node11&#45;&gt;Node16</title>
<path fill="none" stroke="midnightblue" d="M298.945,-70.2639C304.115,-60.6842 312.785,-44.6186 319.402,-32.3587"/>
<polygon fill="midnightblue" stroke="midnightblue" points="322.492,-34.0015 324.162,-23.539 316.332,-30.6769 322.492,-34.0015"/>
</g>
<!-- Node17 -->
<g id="node17" class="node"><title>Node17</title>
<polygon fill="white" stroke="#bfbfbf" points="364,-5.5 364,-23.5 413,-23.5 413,-5.5 364,-5.5"/>
<text text-anchor="middle" x="388.5" y="-12.3" font-family="Helvetica,sans-Serif" font-size="9.00">sstream</text>
</g>
<!-- Node11&#45;&gt;Node17 -->
<g id="edge17" class="edge"><title>Node11&#45;&gt;Node17</title>
<path fill="none" stroke="midnightblue" d="M306.789,-70.2639C322.356,-59.8305 349.402,-41.704 368.09,-29.1792"/>
<polygon fill="midnightblue" stroke="midnightblue" points="370.147,-32.0138 376.505,-23.539 366.25,-26.199 370.147,-32.0138"/>
</g>
<!-- Node18 -->
<g id="node18" class="node"><title>Node18</title>
<polygon fill="white" stroke="#bfbfbf" points="0,-0.5 0,-28.5 107,-28.5 107,-0.5 0,-0.5"/>
<text text-anchor="start" x="8" y="-17.3" font-family="Helvetica,sans-Serif" font-size="9.00">BacktraceException</text>
<text text-anchor="middle" x="53.5" y="-7.3" font-family="Helvetica,sans-Serif" font-size="9.00">/BacktraceException.h</text>
</g>
<!-- Node11&#45;&gt;Node18 -->
<g id="edge19" class="edge"><title>Node11&#45;&gt;Node18</title>
<path fill="none" stroke="midnightblue" d="M263.487,-70.3928C225.626,-60.4955 160.762,-43.5396 113.12,-31.0853"/>
<polygon fill="midnightblue" stroke="midnightblue" points="113.791,-27.6432 103.231,-28.5002 112.021,-34.4156 113.791,-27.6432"/>
</g>
<!-- Node19&#45;&gt;Node11 -->
<g id="edge23" class="edge"><title>Node19&#45;&gt;Node11</title>
<path fill="none" stroke="midnightblue" d="M359.689,-190.389C348.349,-171.275 319.758,-123.078 304.483,-97.3293"/>
<polygon fill="midnightblue" stroke="midnightblue" points="307.457,-95.4822 299.345,-88.6674 301.437,-99.0537 307.457,-95.4822"/>
</g>
<!-- Node19&#45;&gt;Node13 -->
<g id="edge21" class="edge"><title>Node19&#45;&gt;Node13</title>
<path fill="none" stroke="midnightblue" d="M374.571,-190.431C385.206,-181.4 401.754,-165.814 411.5,-149 433.378,-111.255 444.281,-60.4493 448.816,-33.7084"/>
<polygon fill="midnightblue" stroke="midnightblue" points="452.319,-33.9623 450.425,-23.5381 445.405,-32.868 452.319,-33.9623"/>
</g>
<!-- Node20 -->
<g id="node20" class="node"><title>Node20</title>
<polygon fill="white" stroke="#bfbfbf" points="360.5,-130.5 360.5,-148.5 402.5,-148.5 402.5,-130.5 360.5,-130.5"/>
<text text-anchor="middle" x="381.5" y="-137.3" font-family="Helvetica,sans-Serif" font-size="9.00">climits</text>
</g>
<!-- Node19&#45;&gt;Node20 -->
<g id="edge22" class="edge"><title>Node19&#45;&gt;Node20</title>
<path fill="none" stroke="midnightblue" d="M366.864,-190.435C369.272,-182.218 373.088,-169.198 376.22,-158.514"/>
<polygon fill="midnightblue" stroke="midnightblue" points="379.592,-159.453 379.046,-148.872 372.875,-157.484 379.592,-159.453"/>
</g>
<!-- Node19&#45;&gt;Node21 -->
<g id="edge24" class="edge"><title>Node19&#45;&gt;Node21</title>
<path fill="none" stroke="midnightblue" d="M383.966,-190.435C407.654,-180.622 447.874,-163.959 475.283,-152.604"/>
<polygon fill="midnightblue" stroke="midnightblue" points="476.849,-155.744 484.748,-148.683 474.169,-149.277 476.849,-155.744"/>
</g>
<!-- Node21&#45;&gt;Node11 -->
<g id="edge26" class="edge"><title>Node21&#45;&gt;Node11</title>
<path fill="none" stroke="midnightblue" d="M475.3,-130.435C438.34,-120.227 374.547,-102.608 333.461,-91.2607"/>
<polygon fill="midnightblue" stroke="midnightblue" points="334.36,-87.8781 323.789,-88.5894 332.497,-94.6254 334.36,-87.8781"/>
</g>
<!-- Node22 -->
<g id="node22" class="node"><title>Node22</title>
<polygon fill="white" stroke="#bfbfbf" points="588.5,-70.5 588.5,-88.5 636.5,-88.5 636.5,-70.5 588.5,-70.5"/>
<text text-anchor="middle" x="612.5" y="-77.3" font-family="Helvetica,sans-Serif" font-size="9.00">random</text>
</g>
<!-- Node21&#45;&gt;Node22 -->
<g id="edge25" class="edge"><title>Node21&#45;&gt;Node22</title>
<path fill="none" stroke="midnightblue" d="M519.517,-130.435C537.31,-120.88 567.193,-104.832 588.272,-93.5113"/>
<polygon fill="midnightblue" stroke="midnightblue" points="590.108,-96.4979 597.262,-88.6831 586.797,-90.331 590.108,-96.4979"/>
</g>
<!-- Node23 -->
<g id="node23" class="node"><title>Node23</title>
<polygon fill="white" stroke="#bfbfbf" points="655,-70.5 655,-88.5 752,-88.5 752,-70.5 655,-70.5"/>
<text text-anchor="middle" x="703.5" y="-77.3" font-family="Helvetica,sans-Serif" font-size="9.00">trng/lcg64_shift.hpp</text>
</g>
<!-- Node21&#45;&gt;Node23 -->
<g id="edge27" class="edge"><title>Node21&#45;&gt;Node23</title>
<path fill="none" stroke="midnightblue" d="M532.17,-130.435C566.973,-120.292 626.88,-102.831 665.836,-91.4774"/>
<polygon fill="midnightblue" stroke="midnightblue" points="667.124,-94.7478 675.745,-88.5894 665.165,-88.0275 667.124,-94.7478"/>
</g>
<!-- Node24 -->
<g id="node24" class="node"><title>Node24</title>
<polygon fill="white" stroke="#bfbfbf" points="458.5,-65.5 458.5,-93.5 570.5,-93.5 570.5,-65.5 458.5,-65.5"/>
<text text-anchor="start" x="466.5" y="-82.3" font-family="Helvetica,sans-Serif" font-size="9.00">ParallelRngManager</text>
<text text-anchor="middle" x="514.5" y="-72.3" font-family="Helvetica,sans-Serif" font-size="9.00">/ParallelRngManager.h</text>
</g>
<!-- Node21&#45;&gt;Node24 -->
<g id="edge28" class="edge"><title>Node21&#45;&gt;Node24</title>
<path fill="none" stroke="midnightblue" d="M505.89,-130.435C507.076,-123.56 508.841,-113.324 510.465,-103.906"/>
<polygon fill="midnightblue" stroke="midnightblue" points="513.949,-104.292 512.2,-93.8428 507.051,-103.103 513.949,-104.292"/>
</g>
<!-- Node25&#45;&gt;Node3 -->
<g id="edge30" class="edge"><title>Node25&#45;&gt;Node3</title>
<path fill="none" stroke="midnightblue" d="M1414.85,-190.435C1406.49,-181.619 1392.89,-167.274 1382.4,-156.217"/>
<polygon fill="midnightblue" stroke="midnightblue" points="1384.86,-153.72 1375.44,-148.872 1379.78,-158.536 1384.86,-153.72"/>
</g>
<!-- Node25&#45;&gt;Node5 -->
<g id="edge32" class="edge"><title>Node25&#45;&gt;Node5</title>
<path fill="none" stroke="midnightblue" d="M1421.11,-190.11C1418.67,-176.805 1412.87,-150.299 1402.5,-130 1382.47,-90.8109 1348.3,-51.7567 1328.64,-30.9238"/>
<polygon fill="midnightblue" stroke="midnightblue" points="1331.09,-28.4246 1321.64,-23.633 1326.04,-33.2715 1331.09,-28.4246"/>
</g>
<!-- Node26 -->
<g id="node26" class="node"><title>Node26</title>
<polygon fill="white" stroke="#bfbfbf" points="1449.5,-130.5 1449.5,-148.5 1499.5,-148.5 1499.5,-130.5 1449.5,-130.5"/>
<text text-anchor="middle" x="1474.5" y="-137.3" font-family="Helvetica,sans-Serif" font-size="9.00">iomanip</text>
</g>
<!-- Node25&#45;&gt;Node26 -->
<g id="edge31" class="edge"><title>Node25&#45;&gt;Node26</title>
<path fill="none" stroke="midnightblue" d="M1429.73,-190.435C1437.56,-181.704 1450.25,-167.552 1460.12,-156.54"/>
<polygon fill="midnightblue" stroke="midnightblue" points="1462.92,-158.654 1466.99,-148.872 1457.71,-153.981 1462.92,-158.654"/>
</g>
<!-- Node27&#45;&gt;Node11 -->
<g id="edge35" class="edge"><title>Node27&#45;&gt;Node11</title>
<path fill="none" stroke="midnightblue" d="M132.824,-190.43C102.189,-178.722 55.0337,-155.609 75.5,-130 96.8634,-103.269 191.933,-89.9209 249.56,-84.1722"/>
<polygon fill="midnightblue" stroke="midnightblue" points="250.238,-87.6234 259.858,-83.1857 249.57,-80.6553 250.238,-87.6234"/>
</g>
<!-- Node28 -->
<g id="node28" class="node"><title>Node28</title>
<g id="a_node28"><a xlink:href="ImageFormat2DBase_8h.html" target="_top" xlink:title="The class declaration and inline and templated functions for ImageFormat2DBase. ">
<polygon fill="white" stroke="black" points="84.5,-130.5 84.5,-148.5 228.5,-148.5 228.5,-130.5 84.5,-130.5"/>
<text text-anchor="middle" x="156.5" y="-137.3" font-family="Helvetica,sans-Serif" font-size="9.00">Mappel/ImageFormat2DBase.h</text>
</a>
</g>
</g>
<!-- Node27&#45;&gt;Node28 -->
<g id="edge36" class="edge"><title>Node27&#45;&gt;Node28</title>
<path fill="none" stroke="midnightblue" d="M156.5,-190.435C156.5,-182.389 156.5,-169.739 156.5,-159.185"/>
<polygon fill="midnightblue" stroke="midnightblue" points="160,-158.872 156.5,-148.872 153,-158.872 160,-158.872"/>
</g>
<!-- Node28&#45;&gt;Node11 -->
<g id="edge37" class="edge"><title>Node28&#45;&gt;Node11</title>
<path fill="none" stroke="midnightblue" d="M175.688,-130.435C199.038,-120.622 238.683,-103.959 265.701,-92.604"/>
<polygon fill="midnightblue" stroke="midnightblue" points="267.167,-95.7844 275.03,-88.6831 264.455,-89.3312 267.167,-95.7844"/>
</g>
<!-- Node30 -->
<g id="node30" class="node"><title>Node30</title>
<g id="a_node30"><a xlink:href="MCMCAdaptor1D_8h.html" target="_top" xlink:title="The class declaration and inline and templated functions for MCMCAdaptor1D. ">
<polygon fill="white" stroke="black" points="432.5,-305.5 432.5,-323.5 562.5,-323.5 562.5,-305.5 432.5,-305.5"/>
<text text-anchor="middle" x="497.5" y="-312.3" font-family="Helvetica,sans-Serif" font-size="9.00">Mappel/MCMCAdaptor1D.h</text>
</a>
</g>
</g>
<!-- Node29&#45;&gt;Node30 -->
<g id="edge39" class="edge"><title>Node29&#45;&gt;Node30</title>
<path fill="none" stroke="midnightblue" d="M497.5,-360.219C497.5,-353.177 497.5,-342.808 497.5,-333.828"/>
<polygon fill="midnightblue" stroke="midnightblue" points="501,-333.55 497.5,-323.55 494,-333.55 501,-333.55"/>
</g>
<!-- Node30&#45;&gt;Node2 -->
<g id="edge42" class="edge"><title>Node30&#45;&gt;Node2</title>
<path fill="none" stroke="midnightblue" d="M539.267,-305.45C587.865,-296.084 668.137,-280.614 720.672,-270.489"/>
<polygon fill="midnightblue" stroke="midnightblue" points="721.635,-273.868 730.792,-268.538 720.31,-266.994 721.635,-273.868"/>
</g>
<!-- Node31 -->
<g id="node31" class="node"><title>Node31</title>
<g id="a_node31"><a xlink:href="MCMCAdaptorBase_8h.html" target="_top" xlink:title="The class declaration and inline and templated functions for MCMCAdaptorBase. ">
<polygon fill="white" stroke="black" points="368,-250.5 368,-268.5 507,-268.5 507,-250.5 368,-250.5"/>
<text text-anchor="middle" x="437.5" y="-257.3" font-family="Helvetica,sans-Serif" font-size="9.00">Mappel/MCMCAdaptorBase.h</text>
</a>
</g>
</g>
<!-- Node30&#45;&gt;Node31 -->
<g id="edge40" class="edge"><title>Node30&#45;&gt;Node31</title>
<path fill="none" stroke="midnightblue" d="M488.387,-305.45C479.401,-297.512 465.45,-285.189 454.427,-275.452"/>
<polygon fill="midnightblue" stroke="midnightblue" points="456.51,-272.623 446.698,-268.625 451.876,-277.869 456.51,-272.623"/>
</g>
<!-- Node31&#45;&gt;Node11 -->
<g id="edge41" class="edge"><title>Node31&#45;&gt;Node11</title>
<path fill="none" stroke="midnightblue" d="M384.408,-250.426C343.983,-243.067 293.185,-230.78 280.5,-214 254.581,-179.713 273.276,-125.536 285.753,-97.926"/>
<polygon fill="midnightblue" stroke="midnightblue" points="288.987,-99.2754 290.125,-88.7419 282.667,-96.2668 288.987,-99.2754"/>
</g>
</g>
</svg>
