<?xml version="1.0" encoding="UTF-8" standalone="no"?>
<!DOCTYPE svg PUBLIC "-//W3C//DTD SVG 1.1//EN"
 "http://www.w3.org/Graphics/SVG/1.1/DTD/svg11.dtd">
<!-- Generated by graphviz version 2.38.0 (20140413.2041)
 -->
<!-- Title: Gauss1DsMAP.h Pages: 1 -->
<svg width="337pt" height="192pt"
 viewBox="0.00 0.00 336.50 192.00" xmlns="http://www.w3.org/2000/svg" xmlns:xlink="http://www.w3.org/1999/xlink">
<g id="graph0" class="graph" transform="scale(1 1) rotate(0) translate(4 188)">
<title>Gauss1DsMAP.h</title>
<polygon fill="white" stroke="none" points="-4,4 -4,-188 332.5,-188 332.5,4 -4,4"/>
<!-- Node1 -->
<g id="node1" class="node"><title>Node1</title>
<polygon fill="#bfbfbf" stroke="black" points="120,-165.5 120,-183.5 206,-183.5 206,-165.5 120,-165.5"/>
<text text-anchor="middle" x="163" y="-172.3" font-family="Helvetica,sans-Serif" font-size="9.00">Gauss1DsMAP.h</text>
</g>
<!-- Node2 -->
<g id="node2" class="node"><title>Node2</title>
<g id="a_node2"><a xlink:href="Gauss1DsMAP_8cpp.html" target="_top" xlink:title="The class definition and template Specializations for Gauss1DsMAP. ">
<polygon fill="white" stroke="black" points="3,-110.5 3,-128.5 99,-128.5 99,-110.5 3,-110.5"/>
<text text-anchor="middle" x="51" y="-117.3" font-family="Helvetica,sans-Serif" font-size="9.00">Gauss1DsMAP.cpp</text>
</a>
</g>
</g>
<!-- Node1&#45;&gt;Node2 -->
<g id="edge1" class="edge"><title>Node1&#45;&gt;Node2</title>
<path fill="none" stroke="midnightblue" d="M136.898,-161.148C115.727,-151.13 86.4895,-137.294 68.1705,-128.625"/>
<polygon fill="midnightblue" stroke="midnightblue" points="135.453,-164.337 145.99,-165.45 138.448,-158.009 135.453,-164.337"/>
</g>
<!-- Node3 -->
<g id="node3" class="node"><title>Node3</title>
<g id="a_node3"><a xlink:href="Gauss2DsModel_8h.html" target="_top" xlink:title="The class declaration and inline and templated functions for Gauss2DsModel. ">
<polygon fill="white" stroke="black" points="117,-110.5 117,-128.5 209,-128.5 209,-110.5 117,-110.5"/>
<text text-anchor="middle" x="163" y="-117.3" font-family="Helvetica,sans-Serif" font-size="9.00">Gauss2DsModel.h</text>
</a>
</g>
</g>
<!-- Node1&#45;&gt;Node3 -->
<g id="edge2" class="edge"><title>Node1&#45;&gt;Node3</title>
<path fill="none" stroke="midnightblue" d="M163,-155.175C163,-146.094 163,-135.595 163,-128.55"/>
<polygon fill="midnightblue" stroke="midnightblue" points="159.5,-155.219 163,-165.219 166.5,-155.219 159.5,-155.219"/>
</g>
<!-- Node9 -->
<g id="node9" class="node"><title>Node9</title>
<g id="a_node9"><a xlink:href="Gauss2DsxyModel_8h.html" target="_top" xlink:title="The class declaration and inline and templated functions for Gauss2DsxyModel. ">
<polygon fill="white" stroke="black" points="227.5,-110.5 227.5,-128.5 328.5,-128.5 328.5,-110.5 227.5,-110.5"/>
<text text-anchor="middle" x="278" y="-117.3" font-family="Helvetica,sans-Serif" font-size="9.00">Gauss2DsxyModel.h</text>
</a>
</g>
</g>
<!-- Node1&#45;&gt;Node9 -->
<g id="edge8" class="edge"><title>Node1&#45;&gt;Node9</title>
<path fill="none" stroke="midnightblue" d="M189.801,-161.148C211.539,-151.13 241.56,-137.294 260.37,-128.625"/>
<polygon fill="midnightblue" stroke="midnightblue" points="188.083,-158.086 180.466,-165.45 191.013,-164.443 188.083,-158.086"/>
</g>
<!-- Node4 -->
<g id="node4" class="node"><title>Node4</title>
<g id="a_node4"><a xlink:href="Gauss2DsModel_8cpp.html" target="_top" xlink:title="The class definition and template Specializations for Gauss2DsModel. ">
<polygon fill="white" stroke="black" points="0,-55.5 0,-73.5 102,-73.5 102,-55.5 0,-55.5"/>
<text text-anchor="middle" x="51" y="-62.3" font-family="Helvetica,sans-Serif" font-size="9.00">Gauss2DsModel.cpp</text>
</a>
</g>
</g>
<!-- Node3&#45;&gt;Node4 -->
<g id="edge3" class="edge"><title>Node3&#45;&gt;Node4</title>
<path fill="none" stroke="midnightblue" d="M136.898,-106.148C115.727,-96.1297 86.4895,-82.2941 68.1705,-73.6253"/>
<polygon fill="midnightblue" stroke="midnightblue" points="135.453,-109.337 145.99,-110.45 138.448,-103.009 135.453,-109.337"/>
</g>
<!-- Node5 -->
<g id="node5" class="node"><title>Node5</title>
<g id="a_node5"><a xlink:href="Gauss2DsMAP_8h.html" target="_top" xlink:title="The class declaration and inline and templated functions for Gauss2DsMAP. ">
<polygon fill="white" stroke="black" points="120,-55.5 120,-73.5 206,-73.5 206,-55.5 120,-55.5"/>
<text text-anchor="middle" x="163" y="-62.3" font-family="Helvetica,sans-Serif" font-size="9.00">Gauss2DsMAP.h</text>
</a>
</g>
</g>
<!-- Node3&#45;&gt;Node5 -->
<g id="edge4" class="edge"><title>Node3&#45;&gt;Node5</title>
<path fill="none" stroke="midnightblue" d="M163,-100.175C163,-91.0945 163,-80.5949 163,-73.5496"/>
<polygon fill="midnightblue" stroke="midnightblue" points="159.5,-100.219 163,-110.219 166.5,-100.219 159.5,-100.219"/>
</g>
<!-- Node7 -->
<g id="node7" class="node"><title>Node7</title>
<g id="a_node7"><a xlink:href="Gauss2DsMLE_8h.html" target="_top" xlink:title="The class declaration and inline and templated functions for Gauss2DsMLE. ">
<polygon fill="white" stroke="black" points="229,-55.5 229,-73.5 315,-73.5 315,-55.5 229,-55.5"/>
<text text-anchor="middle" x="272" y="-62.3" font-family="Helvetica,sans-Serif" font-size="9.00">Gauss2DsMLE.h</text>
</a>
</g>
</g>
<!-- Node3&#45;&gt;Node7 -->
<g id="edge6" class="edge"><title>Node3&#45;&gt;Node7</title>
<path fill="none" stroke="midnightblue" d="M188.682,-106.013C209.263,-96.0052 237.541,-82.2551 255.289,-73.6253"/>
<polygon fill="midnightblue" stroke="midnightblue" points="187.017,-102.93 179.555,-110.45 190.079,-109.225 187.017,-102.93"/>
</g>
<!-- Node6 -->
<g id="node6" class="node"><title>Node6</title>
<g id="a_node6"><a xlink:href="Gauss2DsMAP_8cpp.html" target="_top" xlink:title="The class definition and template Specializations for Gauss2DsMAP. ">
<polygon fill="white" stroke="black" points="113,-0.5 113,-18.5 209,-18.5 209,-0.5 113,-0.5"/>
<text text-anchor="middle" x="161" y="-7.3" font-family="Helvetica,sans-Serif" font-size="9.00">Gauss2DsMAP.cpp</text>
</a>
</g>
</g>
<!-- Node5&#45;&gt;Node6 -->
<g id="edge5" class="edge"><title>Node5&#45;&gt;Node6</title>
<path fill="none" stroke="midnightblue" d="M162.308,-45.1746C161.966,-36.0945 161.57,-25.5949 161.304,-18.5496"/>
<polygon fill="midnightblue" stroke="midnightblue" points="158.813,-45.3579 162.688,-55.2188 165.808,-45.0938 158.813,-45.3579"/>
</g>
<!-- Node8 -->
<g id="node8" class="node"><title>Node8</title>
<g id="a_node8"><a xlink:href="Gauss2DsMLE_8cpp.html" target="_top" xlink:title="The class definition and template Specializations for Gauss2DsMLE. ">
<polygon fill="white" stroke="black" points="227.5,-0.5 227.5,-18.5 322.5,-18.5 322.5,-0.5 227.5,-0.5"/>
<text text-anchor="middle" x="275" y="-7.3" font-family="Helvetica,sans-Serif" font-size="9.00">Gauss2DsMLE.cpp</text>
</a>
</g>
</g>
<!-- Node7&#45;&gt;Node8 -->
<g id="edge7" class="edge"><title>Node7&#45;&gt;Node8</title>
<path fill="none" stroke="midnightblue" d="M273.037,-45.1746C273.551,-36.0945 274.146,-25.5949 274.544,-18.5496"/>
<polygon fill="midnightblue" stroke="midnightblue" points="269.54,-45.0369 272.469,-55.2188 276.528,-45.4326 269.54,-45.0369"/>
</g>
</g>
</svg>
