<?xml version="1.0" encoding="UTF-8" standalone="no"?>
<!DOCTYPE svg PUBLIC "-//W3C//DTD SVG 1.1//EN"
 "http://www.w3.org/Graphics/SVG/1.1/DTD/svg11.dtd">
<!-- Generated by graphviz version 2.38.0 (20140413.2041)
 -->
<!-- Title: ImageFormat2DBase.h Pages: 1 -->
<!--zoomable 357 -->
<svg id="main" version="1.1" xmlns="http://www.w3.org/2000/svg" xmlns:xlink="http://www.w3.org/1999/xlink" xml:space="preserve" onload="init(evt)">
<style type="text/css"><![CDATA[
.edge:hover path { stroke: red; }
.edge:hover polygon { stroke: red; fill: red; }
]]></style>
<script type="text/javascript"><![CDATA[
var edges = document.getElementsByTagName('g');
if (edges && edges.length) {
  for (var i=0;i<edges.length;i++) {
    if (edges[i].id.substr(0,4)=='edge') {
      edges[i].setAttribute('class','edge');
    }
  }
}
]]></script>
        <defs>
                <circle id="rim" cx="0" cy="0" r="7"/>
                <circle id="rim2" cx="0" cy="0" r="3.5"/>
                <g id="zoomPlus">
                        <use xlink:href="#rim" fill="#404040">
                                <set attributeName="fill" to="#808080" begin="zoomplus.mouseover" end="zoomplus.mouseout"/>
                        </use>
                        <path d="M-4,0h8M0,-4v8" fill="none" stroke="white" stroke-width="1.5" pointer-events="none"/>
                </g>
                <g id="zoomMin">
                        <use xlink:href="#rim" fill="#404040">
                                <set attributeName="fill" to="#808080" begin="zoomminus.mouseover" end="zoomminus.mouseout"/>
                        </use>
                        <path d="M-4,0h8" fill="none" stroke="white" stroke-width="1.5" pointer-events="none"/>
                </g>
                <g id="dirArrow">
                        <path fill="none" stroke="white" stroke-width="1.5" d="M0,-3.0v7 M-2.5,-0.5L0,-3.0L2.5,-0.5"/>
                </g>
               <g id="resetDef">
                       <use xlink:href="#rim2" fill="#404040">
                               <set attributeName="fill" to="#808080" begin="reset.mouseover" end="reset.mouseout"/>
                       </use>
               </g>
        </defs>

<script type="text/javascript">
var viewWidth = 1479;
var viewHeight = 357;
var sectionId = 'dynsection-1';
</script>
<script xlink:href="svgpan.js"/>
<svg id="graph" class="graph">
<g id="viewport">
<title>ImageFormat2DBase.h</title>
<polygon fill="white" stroke="none" points="-4,4 -4,-353 1474.5,-353 1474.5,4 -4,4"/>
<!-- Node1 -->
<g id="node1" class="node"><title>Node1</title>
<polygon fill="#bfbfbf" stroke="black" points="621,-330.5 621,-348.5 732,-348.5 732,-330.5 621,-330.5"/>
<text text-anchor="middle" x="676.5" y="-337.3" font-family="Helvetica,sans-Serif" font-size="9.00">ImageFormat2DBase.h</text>
</g>
<!-- Node2 -->
<g id="node2" class="node"><title>Node2</title>
<g id="a_node2"><a xlink:href="ImageFormat2DBase_8cpp.html" target="_top" xlink:title="The class definition and template Specializations for ImageFormat2DBase. ">
<polygon fill="white" stroke="black" points="0,-275.5 0,-293.5 121,-293.5 121,-275.5 0,-275.5"/>
<text text-anchor="middle" x="60.5" y="-282.3" font-family="Helvetica,sans-Serif" font-size="9.00">ImageFormat2DBase.cpp</text>
</a>
</g>
</g>
<!-- Node1&#45;&gt;Node2 -->
<g id="edge1" class="edge"><title>Node1&#45;&gt;Node2</title>
<path fill="none" stroke="midnightblue" d="M610.623,-333.738C508.696,-326.223 306.657,-310.734 135.5,-294 130.805,-293.541 125.947,-293.043 121.065,-292.526"/>
<polygon fill="midnightblue" stroke="midnightblue" points="610.535,-337.241 620.765,-334.484 611.048,-330.26 610.535,-337.241"/>
</g>
<!-- Node3 -->
<g id="node3" class="node"><title>Node3</title>
<g id="a_node3"><a xlink:href="Gauss2DModel_8h.html" target="_top" xlink:title="The class declaration and inline and templated functions for Gauss2DModel. ">
<polygon fill="white" stroke="black" points="238.5,-110.5 238.5,-128.5 326.5,-128.5 326.5,-110.5 238.5,-110.5"/>
<text text-anchor="middle" x="282.5" y="-117.3" font-family="Helvetica,sans-Serif" font-size="9.00">Gauss2DModel.h</text>
</a>
</g>
</g>
<!-- Node1&#45;&gt;Node3 -->
<g id="edge2" class="edge"><title>Node1&#45;&gt;Node3</title>
<path fill="none" stroke="midnightblue" d="M610.728,-335.095C492.71,-327.392 252.935,-303.933 206.5,-239 177.782,-198.842 241.704,-148.278 269.948,-128.733"/>
<polygon fill="midnightblue" stroke="midnightblue" points="610.527,-338.59 620.729,-335.729 610.97,-331.604 610.527,-338.59"/>
</g>
<!-- Node9 -->
<g id="node9" class="node"><title>Node9</title>
<g id="a_node9"><a xlink:href="Gauss2DsModel_8h.html" target="_top" xlink:title="The class declaration and inline and templated functions for Gauss2DsModel. ">
<polygon fill="white" stroke="black" points="920.5,-110.5 920.5,-128.5 1012.5,-128.5 1012.5,-110.5 920.5,-110.5"/>
<text text-anchor="middle" x="966.5" y="-117.3" font-family="Helvetica,sans-Serif" font-size="9.00">Gauss2DsModel.h</text>
</a>
</g>
</g>
<!-- Node1&#45;&gt;Node9 -->
<g id="edge8" class="edge"><title>Node1&#45;&gt;Node9</title>
<path fill="none" stroke="midnightblue" d="M700.056,-325.571C743.721,-301.041 839.176,-244.74 909.5,-184 930.129,-166.182 950.55,-141.173 960.405,-128.515"/>
<polygon fill="midnightblue" stroke="midnightblue" points="698.341,-322.52 691.311,-330.447 701.75,-328.634 698.341,-322.52"/>
</g>
<!-- Node15 -->
<g id="node15" class="node"><title>Node15</title>
<g id="a_node15"><a xlink:href="Gauss2DsxyModel_8h.html" target="_top" xlink:title="The class declaration and inline and templated functions for Gauss2DsxyModel. ">
<polygon fill="white" stroke="black" points="1031,-110.5 1031,-128.5 1132,-128.5 1132,-110.5 1031,-110.5"/>
<text text-anchor="middle" x="1081.5" y="-117.3" font-family="Helvetica,sans-Serif" font-size="9.00">Gauss2DsxyModel.h</text>
</a>
</g>
</g>
<!-- Node1&#45;&gt;Node15 -->
<g id="edge14" class="edge"><title>Node1&#45;&gt;Node15</title>
<path fill="none" stroke="midnightblue" d="M708.503,-326.831C730.109,-318.557 759.036,-306.705 783.5,-294 878.7,-244.559 893.514,-216.712 987.5,-165 1012.97,-150.987 1043.58,-136.999 1062.8,-128.547"/>
<polygon fill="midnightblue" stroke="midnightblue" points="707.251,-323.562 699.134,-330.37 709.725,-330.11 707.251,-323.562"/>
</g>
<!-- Node16 -->
<g id="node16" class="node"><title>Node16</title>
<g id="a_node16"><a xlink:href="ImageFormat1DBase_8h.html" target="_top" xlink:title="The class declaration and inline and templated functions for ImageFormat1DBase. ">
<polygon fill="white" stroke="black" points="1006,-275.5 1006,-293.5 1117,-293.5 1117,-275.5 1006,-275.5"/>
<text text-anchor="middle" x="1061.5" y="-282.3" font-family="Helvetica,sans-Serif" font-size="9.00">ImageFormat1DBase.h</text>
</a>
</g>
</g>
<!-- Node1&#45;&gt;Node16 -->
<g id="edge15" class="edge"><title>Node1&#45;&gt;Node16</title>
<path fill="none" stroke="midnightblue" d="M742.242,-329.45C816.526,-319.224 936.145,-302.757 1005.95,-293.148"/>
<polygon fill="midnightblue" stroke="midnightblue" points="741.5,-326.019 732.071,-330.85 742.455,-332.953 741.5,-326.019"/>
</g>
<!-- Node34 -->
<g id="node34" class="node"><title>Node34</title>
<g id="a_node34"><a xlink:href="PoissonNoise2DObjective_8h.html" target="_top" xlink:title="The class declaration and inline and templated functions for PoissonNoise2DObjective. ">
<polygon fill="white" stroke="black" points="377,-275.5 377,-293.5 508,-293.5 508,-275.5 377,-275.5"/>
<text text-anchor="middle" x="442.5" y="-282.3" font-family="Helvetica,sans-Serif" font-size="9.00">PoissonNoise2DObjective.h</text>
</a>
</g>
</g>
<!-- Node1&#45;&gt;Node34 -->
<g id="edge40" class="edge"><title>Node1&#45;&gt;Node34</title>
<path fill="none" stroke="midnightblue" d="M630.94,-328.181C586.204,-318.048 518.89,-302.802 477.99,-293.538"/>
<polygon fill="midnightblue" stroke="midnightblue" points="630.434,-331.655 640.96,-330.45 631.981,-324.828 630.434,-331.655"/>
</g>
<!-- Node4 -->
<g id="node4" class="node"><title>Node4</title>
<g id="a_node4"><a xlink:href="Gauss2DModel_8cpp.html" target="_top" xlink:title="The class definition and template Specializations for Gauss2DModel. ">
<polygon fill="white" stroke="black" points="233.5,-55.5 233.5,-73.5 331.5,-73.5 331.5,-55.5 233.5,-55.5"/>
<text text-anchor="middle" x="282.5" y="-62.3" font-family="Helvetica,sans-Serif" font-size="9.00">Gauss2DModel.cpp</text>
</a>
</g>
</g>
<!-- Node3&#45;&gt;Node4 -->
<g id="edge3" class="edge"><title>Node3&#45;&gt;Node4</title>
<path fill="none" stroke="midnightblue" d="M282.5,-100.175C282.5,-91.0945 282.5,-80.5949 282.5,-73.5496"/>
<polygon fill="midnightblue" stroke="midnightblue" points="279,-100.219 282.5,-110.219 286,-100.219 279,-100.219"/>
</g>
<!-- Node5 -->
<g id="node5" class="node"><title>Node5</title>
<g id="a_node5"><a xlink:href="Gauss2DMAP_8h.html" target="_top" xlink:title="The class declaration and inline and templated functions for Gauss2DMAP. ">
<polygon fill="white" stroke="black" points="133.5,-55.5 133.5,-73.5 215.5,-73.5 215.5,-55.5 133.5,-55.5"/>
<text text-anchor="middle" x="174.5" y="-62.3" font-family="Helvetica,sans-Serif" font-size="9.00">Gauss2DMAP.h</text>
</a>
</g>
</g>
<!-- Node3&#45;&gt;Node5 -->
<g id="edge4" class="edge"><title>Node3&#45;&gt;Node5</title>
<path fill="none" stroke="midnightblue" d="M257.054,-106.013C236.661,-96.0052 208.642,-82.2551 191.057,-73.6253"/>
<polygon fill="midnightblue" stroke="midnightblue" points="255.578,-109.187 266.097,-110.45 258.662,-102.903 255.578,-109.187"/>
</g>
<!-- Node7 -->
<g id="node7" class="node"><title>Node7</title>
<g id="a_node7"><a xlink:href="Gauss2DMLE_8h.html" target="_top" xlink:title="The class declaration and inline and templated functions for Gauss2DMLE. ">
<polygon fill="white" stroke="black" points="350,-55.5 350,-73.5 431,-73.5 431,-55.5 350,-55.5"/>
<text text-anchor="middle" x="390.5" y="-62.3" font-family="Helvetica,sans-Serif" font-size="9.00">Gauss2DMLE.h</text>
</a>
</g>
</g>
<!-- Node3&#45;&gt;Node7 -->
<g id="edge6" class="edge"><title>Node3&#45;&gt;Node7</title>
<path fill="none" stroke="midnightblue" d="M307.946,-106.013C328.339,-96.0052 356.358,-82.2551 373.943,-73.6253"/>
<polygon fill="midnightblue" stroke="midnightblue" points="306.338,-102.903 298.903,-110.45 309.422,-109.187 306.338,-102.903"/>
</g>
<!-- Node6 -->
<g id="node6" class="node"><title>Node6</title>
<g id="a_node6"><a xlink:href="Gauss2DMAP_8cpp.html" target="_top" xlink:title="The class definition and template Specializations for Gauss2DMAP. ">
<polygon fill="white" stroke="black" points="128.5,-0.5 128.5,-18.5 220.5,-18.5 220.5,-0.5 128.5,-0.5"/>
<text text-anchor="middle" x="174.5" y="-7.3" font-family="Helvetica,sans-Serif" font-size="9.00">Gauss2DMAP.cpp</text>
</a>
</g>
</g>
<!-- Node5&#45;&gt;Node6 -->
<g id="edge5" class="edge"><title>Node5&#45;&gt;Node6</title>
<path fill="none" stroke="midnightblue" d="M174.5,-45.1746C174.5,-36.0945 174.5,-25.5949 174.5,-18.5496"/>
<polygon fill="midnightblue" stroke="midnightblue" points="171,-45.2187 174.5,-55.2188 178,-45.2188 171,-45.2187"/>
</g>
<!-- Node8 -->
<g id="node8" class="node"><title>Node8</title>
<g id="a_node8"><a xlink:href="Gauss2DMLE_8cpp.html" target="_top" xlink:title="The class definition and template Specializations for Gauss2DMLE. ">
<polygon fill="white" stroke="black" points="345,-0.5 345,-18.5 436,-18.5 436,-0.5 345,-0.5"/>
<text text-anchor="middle" x="390.5" y="-7.3" font-family="Helvetica,sans-Serif" font-size="9.00">Gauss2DMLE.cpp</text>
</a>
</g>
</g>
<!-- Node7&#45;&gt;Node8 -->
<g id="edge7" class="edge"><title>Node7&#45;&gt;Node8</title>
<path fill="none" stroke="midnightblue" d="M390.5,-45.1746C390.5,-36.0945 390.5,-25.5949 390.5,-18.5496"/>
<polygon fill="midnightblue" stroke="midnightblue" points="387,-45.2187 390.5,-55.2188 394,-45.2188 387,-45.2187"/>
</g>
<!-- Node10 -->
<g id="node10" class="node"><title>Node10</title>
<g id="a_node10"><a xlink:href="Gauss2DsModel_8cpp.html" target="_top" xlink:title="The class definition and template Specializations for Gauss2DsModel. ">
<polygon fill="white" stroke="black" points="915.5,-55.5 915.5,-73.5 1017.5,-73.5 1017.5,-55.5 915.5,-55.5"/>
<text text-anchor="middle" x="966.5" y="-62.3" font-family="Helvetica,sans-Serif" font-size="9.00">Gauss2DsModel.cpp</text>
</a>
</g>
</g>
<!-- Node9&#45;&gt;Node10 -->
<g id="edge9" class="edge"><title>Node9&#45;&gt;Node10</title>
<path fill="none" stroke="midnightblue" d="M966.5,-100.175C966.5,-91.0945 966.5,-80.5949 966.5,-73.5496"/>
<polygon fill="midnightblue" stroke="midnightblue" points="963,-100.219 966.5,-110.219 970,-100.219 963,-100.219"/>
</g>
<!-- Node11 -->
<g id="node11" class="node"><title>Node11</title>
<g id="a_node11"><a xlink:href="Gauss2DsMAP_8h.html" target="_top" xlink:title="The class declaration and inline and templated functions for Gauss2DsMAP. ">
<polygon fill="white" stroke="black" points="578.5,-55.5 578.5,-73.5 664.5,-73.5 664.5,-55.5 578.5,-55.5"/>
<text text-anchor="middle" x="621.5" y="-62.3" font-family="Helvetica,sans-Serif" font-size="9.00">Gauss2DsMAP.h</text>
</a>
</g>
</g>
<!-- Node9&#45;&gt;Node11 -->
<g id="edge10" class="edge"><title>Node9&#45;&gt;Node11</title>
<path fill="none" stroke="midnightblue" d="M910.123,-109.839C841.405,-99.2826 726.789,-81.6748 664.681,-72.1336"/>
<polygon fill="midnightblue" stroke="midnightblue" points="909.914,-113.348 920.33,-111.407 910.977,-106.429 909.914,-113.348"/>
</g>
<!-- Node13 -->
<g id="node13" class="node"><title>Node13</title>
<g id="a_node13"><a xlink:href="Gauss2DsMLE_8h.html" target="_top" xlink:title="The class declaration and inline and templated functions for Gauss2DsMLE. ">
<polygon fill="white" stroke="black" points="751.5,-55.5 751.5,-73.5 837.5,-73.5 837.5,-55.5 751.5,-55.5"/>
<text text-anchor="middle" x="794.5" y="-62.3" font-family="Helvetica,sans-Serif" font-size="9.00">Gauss2DsMLE.h</text>
</a>
</g>
</g>
<!-- Node9&#45;&gt;Node13 -->
<g id="edge12" class="edge"><title>Node9&#45;&gt;Node13</title>
<path fill="none" stroke="midnightblue" d="M930.701,-107.469C897.847,-97.3454 849.954,-82.5875 820.587,-73.5383"/>
<polygon fill="midnightblue" stroke="midnightblue" points="929.79,-110.85 940.377,-110.45 931.851,-104.161 929.79,-110.85"/>
</g>
<!-- Node12 -->
<g id="node12" class="node"><title>Node12</title>
<g id="a_node12"><a xlink:href="Gauss2DsMAP_8cpp.html" target="_top" xlink:title="The class definition and template Specializations for Gauss2DsMAP. ">
<polygon fill="white" stroke="black" points="573.5,-0.5 573.5,-18.5 669.5,-18.5 669.5,-0.5 573.5,-0.5"/>
<text text-anchor="middle" x="621.5" y="-7.3" font-family="Helvetica,sans-Serif" font-size="9.00">Gauss2DsMAP.cpp</text>
</a>
</g>
</g>
<!-- Node11&#45;&gt;Node12 -->
<g id="edge11" class="edge"><title>Node11&#45;&gt;Node12</title>
<path fill="none" stroke="midnightblue" d="M621.5,-45.1746C621.5,-36.0945 621.5,-25.5949 621.5,-18.5496"/>
<polygon fill="midnightblue" stroke="midnightblue" points="618,-45.2187 621.5,-55.2188 625,-45.2188 618,-45.2187"/>
</g>
<!-- Node14 -->
<g id="node14" class="node"><title>Node14</title>
<g id="a_node14"><a xlink:href="Gauss2DsMLE_8cpp.html" target="_top" xlink:title="The class definition and template Specializations for Gauss2DsMLE. ">
<polygon fill="white" stroke="black" points="747,-0.5 747,-18.5 842,-18.5 842,-0.5 747,-0.5"/>
<text text-anchor="middle" x="794.5" y="-7.3" font-family="Helvetica,sans-Serif" font-size="9.00">Gauss2DsMLE.cpp</text>
</a>
</g>
</g>
<!-- Node13&#45;&gt;Node14 -->
<g id="edge13" class="edge"><title>Node13&#45;&gt;Node14</title>
<path fill="none" stroke="midnightblue" d="M794.5,-45.1746C794.5,-36.0945 794.5,-25.5949 794.5,-18.5496"/>
<polygon fill="midnightblue" stroke="midnightblue" points="791,-45.2187 794.5,-55.2188 798,-45.2188 791,-45.2187"/>
</g>
<!-- Node17 -->
<g id="node17" class="node"><title>Node17</title>
<g id="a_node17"><a xlink:href="ImageFormat1DBase_8cpp.html" target="_top" xlink:title="The class definition and template Specializations for ImageFormat1DBase. ">
<polygon fill="white" stroke="black" points="1145,-220.5 1145,-238.5 1266,-238.5 1266,-220.5 1145,-220.5"/>
<text text-anchor="middle" x="1205.5" y="-227.3" font-family="Helvetica,sans-Serif" font-size="9.00">ImageFormat1DBase.cpp</text>
</a>
</g>
</g>
<!-- Node16&#45;&gt;Node17 -->
<g id="edge16" class="edge"><title>Node16&#45;&gt;Node17</title>
<path fill="none" stroke="midnightblue" d="M1092.88,-271.952C1120.24,-261.881 1159.23,-247.528 1183.42,-238.625"/>
<polygon fill="midnightblue" stroke="midnightblue" points="1091.55,-268.712 1083.37,-275.45 1093.96,-275.281 1091.55,-268.712"/>
</g>
<!-- Node18 -->
<g id="node18" class="node"><title>Node18</title>
<g id="a_node18"><a xlink:href="Gauss1DModel_8h.html" target="_top" xlink:title="The class declaration and inline and templated functions for Gauss1DModel. ">
<polygon fill="white" stroke="black" points="716.5,-220.5 716.5,-238.5 804.5,-238.5 804.5,-220.5 716.5,-220.5"/>
<text text-anchor="middle" x="760.5" y="-227.3" font-family="Helvetica,sans-Serif" font-size="9.00">Gauss1DModel.h</text>
</a>
</g>
</g>
<!-- Node16&#45;&gt;Node18 -->
<g id="edge17" class="edge"><title>Node16&#45;&gt;Node18</title>
<path fill="none" stroke="midnightblue" d="M1005.69,-273.673C947.654,-263.454 857.985,-247.665 804.681,-238.279"/>
<polygon fill="midnightblue" stroke="midnightblue" points="1005.33,-277.163 1015.78,-275.45 1006.54,-270.269 1005.33,-277.163"/>
</g>
<!-- Node26 -->
<g id="node26" class="node"><title>Node26</title>
<g id="a_node26"><a xlink:href="Gauss1DsModel_8h.html" target="_top" xlink:title="The class declaration and inline and templated functions for Gauss1DsModel. ">
<polygon fill="white" stroke="black" points="1284.5,-220.5 1284.5,-238.5 1376.5,-238.5 1376.5,-220.5 1284.5,-220.5"/>
<text text-anchor="middle" x="1330.5" y="-227.3" font-family="Helvetica,sans-Serif" font-size="9.00">Gauss1DsModel.h</text>
</a>
</g>
</g>
<!-- Node16&#45;&gt;Node26 -->
<g id="edge26" class="edge"><title>Node16&#45;&gt;Node26</title>
<path fill="none" stroke="midnightblue" d="M1112.26,-273.499C1163.67,-263.37 1242.19,-247.9 1289.7,-238.538"/>
<polygon fill="midnightblue" stroke="midnightblue" points="1111.49,-270.083 1102.36,-275.45 1112.84,-276.951 1111.49,-270.083"/>
</g>
<!-- Node32 -->
<g id="node32" class="node"><title>Node32</title>
<g id="a_node32"><a xlink:href="PoissonNoise1DObjective_8h.html" target="_top" xlink:title="The class declaration and inline and templated functions for PoissonNoise1DObjective. ">
<polygon fill="white" stroke="black" points="996,-220.5 996,-238.5 1127,-238.5 1127,-220.5 996,-220.5"/>
<text text-anchor="middle" x="1061.5" y="-227.3" font-family="Helvetica,sans-Serif" font-size="9.00">PoissonNoise1DObjective.h</text>
</a>
</g>
</g>
<!-- Node16&#45;&gt;Node32 -->
<g id="edge34" class="edge"><title>Node16&#45;&gt;Node32</title>
<path fill="none" stroke="midnightblue" d="M1061.5,-265.175C1061.5,-256.094 1061.5,-245.595 1061.5,-238.55"/>
<polygon fill="midnightblue" stroke="midnightblue" points="1058,-265.219 1061.5,-275.219 1065,-265.219 1058,-265.219"/>
</g>
<!-- Node19 -->
<g id="node19" class="node"><title>Node19</title>
<g id="a_node19"><a xlink:href="Gauss1DModel_8cpp.html" target="_top" xlink:title="The class definition and template Specializations for Gauss1DModel. ">
<polygon fill="white" stroke="black" points="603.5,-165.5 603.5,-183.5 701.5,-183.5 701.5,-165.5 603.5,-165.5"/>
<text text-anchor="middle" x="652.5" y="-172.3" font-family="Helvetica,sans-Serif" font-size="9.00">Gauss1DModel.cpp</text>
</a>
</g>
</g>
<!-- Node18&#45;&gt;Node19 -->
<g id="edge18" class="edge"><title>Node18&#45;&gt;Node19</title>
<path fill="none" stroke="midnightblue" d="M735.054,-216.013C714.661,-206.005 686.642,-192.255 669.057,-183.625"/>
<polygon fill="midnightblue" stroke="midnightblue" points="733.578,-219.187 744.097,-220.45 736.662,-212.903 733.578,-219.187"/>
</g>
<!-- Node20 -->
<g id="node20" class="node"><title>Node20</title>
<g id="a_node20"><a xlink:href="Gauss1DMAP_8h.html" target="_top" xlink:title="The class declaration and inline and templated functions for Gauss1DMAP. ">
<polygon fill="white" stroke="black" points="719.5,-165.5 719.5,-183.5 801.5,-183.5 801.5,-165.5 719.5,-165.5"/>
<text text-anchor="middle" x="760.5" y="-172.3" font-family="Helvetica,sans-Serif" font-size="9.00">Gauss1DMAP.h</text>
</a>
</g>
</g>
<!-- Node18&#45;&gt;Node20 -->
<g id="edge19" class="edge"><title>Node18&#45;&gt;Node20</title>
<path fill="none" stroke="midnightblue" d="M760.5,-210.175C760.5,-201.094 760.5,-190.595 760.5,-183.55"/>
<polygon fill="midnightblue" stroke="midnightblue" points="757,-210.219 760.5,-220.219 764,-210.219 757,-210.219"/>
</g>
<!-- Node23 -->
<g id="node23" class="node"><title>Node23</title>
<g id="a_node23"><a xlink:href="Gauss1DMLE_8h.html" target="_top" xlink:title="The class declaration and inline and templated functions for Gauss1DMLE. ">
<polygon fill="white" stroke="black" points="820,-165.5 820,-183.5 901,-183.5 901,-165.5 820,-165.5"/>
<text text-anchor="middle" x="860.5" y="-172.3" font-family="Helvetica,sans-Serif" font-size="9.00">Gauss1DMLE.h</text>
</a>
</g>
</g>
<!-- Node18&#45;&gt;Node23 -->
<g id="edge23" class="edge"><title>Node18&#45;&gt;Node23</title>
<path fill="none" stroke="midnightblue" d="M784.575,-215.74C803.412,-205.757 829.034,-192.177 845.169,-183.625"/>
<polygon fill="midnightblue" stroke="midnightblue" points="782.885,-212.675 775.688,-220.45 786.163,-218.86 782.885,-212.675"/>
</g>
<!-- Node25 -->
<g id="node25" class="node"><title>Node25</title>
<g id="a_node25"><a xlink:href="Gauss2DsxyMAP_8h.html" target="_top" xlink:title="The class declaration and inline and templated functions for Gauss2DsxyMAP. ">
<polygon fill="white" stroke="black" points="490,-165.5 490,-183.5 585,-183.5 585,-165.5 490,-165.5"/>
<text text-anchor="middle" x="537.5" y="-172.3" font-family="Helvetica,sans-Serif" font-size="9.00">Gauss2DsxyMAP.h</text>
</a>
</g>
</g>
<!-- Node18&#45;&gt;Node25 -->
<g id="edge25" class="edge"><title>Node18&#45;&gt;Node25</title>
<path fill="none" stroke="midnightblue" d="M716.813,-218.117C674.179,-207.984 610.217,-192.783 571.322,-183.538"/>
<polygon fill="midnightblue" stroke="midnightblue" points="716.093,-221.543 726.631,-220.45 717.711,-214.733 716.093,-221.543"/>
</g>
<!-- Node20&#45;&gt;Node3 -->
<g id="edge22" class="edge"><title>Node20&#45;&gt;Node3</title>
<path fill="none" stroke="midnightblue" d="M709.297,-164.917C563.366,-145.208 402.685,-130.616 326.667,-124.141"/>
<polygon fill="midnightblue" stroke="midnightblue" points="708.951,-168.402 719.332,-166.284 709.896,-161.467 708.951,-168.402"/>
</g>
<!-- Node21 -->
<g id="node21" class="node"><title>Node21</title>
<g id="a_node21"><a xlink:href="estimator__statics_8cpp.html" target="_top" xlink:title="estimator_statics.cpp">
<polygon fill="white" stroke="black" points="580.5,-110.5 580.5,-128.5 682.5,-128.5 682.5,-110.5 580.5,-110.5"/>
<text text-anchor="middle" x="631.5" y="-117.3" font-family="Helvetica,sans-Serif" font-size="9.00">estimator_statics.cpp</text>
</a>
</g>
</g>
<!-- Node20&#45;&gt;Node21 -->
<g id="edge20" class="edge"><title>Node20&#45;&gt;Node21</title>
<path fill="none" stroke="midnightblue" d="M731.42,-161.552C706.964,-151.505 672.661,-137.411 651.277,-128.625"/>
<polygon fill="midnightblue" stroke="midnightblue" points="730.328,-164.888 740.908,-165.45 732.988,-158.413 730.328,-164.888"/>
</g>
<!-- Node22 -->
<g id="node22" class="node"><title>Node22</title>
<g id="a_node22"><a xlink:href="Gauss1DMAP_8cpp.html" target="_top" xlink:title="The class definition and template Specializations for Gauss1DMAP. ">
<polygon fill="white" stroke="black" points="700.5,-110.5 700.5,-128.5 792.5,-128.5 792.5,-110.5 700.5,-110.5"/>
<text text-anchor="middle" x="746.5" y="-117.3" font-family="Helvetica,sans-Serif" font-size="9.00">Gauss1DMAP.cpp</text>
</a>
</g>
</g>
<!-- Node20&#45;&gt;Node22 -->
<g id="edge21" class="edge"><title>Node20&#45;&gt;Node22</title>
<path fill="none" stroke="midnightblue" d="M755.738,-155.473C753.322,-146.326 750.508,-135.672 748.626,-128.55"/>
<polygon fill="midnightblue" stroke="midnightblue" points="752.375,-156.444 758.312,-165.219 759.142,-154.656 752.375,-156.444"/>
</g>
<!-- Node24 -->
<g id="node24" class="node"><title>Node24</title>
<g id="a_node24"><a xlink:href="Gauss1DMLE_8cpp.html" target="_top" xlink:title="The class definition and template Specializations for Gauss1DMLE. ">
<polygon fill="white" stroke="black" points="811,-110.5 811,-128.5 902,-128.5 902,-110.5 811,-110.5"/>
<text text-anchor="middle" x="856.5" y="-117.3" font-family="Helvetica,sans-Serif" font-size="9.00">Gauss1DMLE.cpp</text>
</a>
</g>
</g>
<!-- Node23&#45;&gt;Node24 -->
<g id="edge24" class="edge"><title>Node23&#45;&gt;Node24</title>
<path fill="none" stroke="midnightblue" d="M859.117,-155.175C858.432,-146.094 857.639,-135.595 857.108,-128.55"/>
<polygon fill="midnightblue" stroke="midnightblue" points="855.632,-155.511 859.875,-165.219 862.612,-154.984 855.632,-155.511"/>
</g>
<!-- Node27 -->
<g id="node27" class="node"><title>Node27</title>
<g id="a_node27"><a xlink:href="Gauss1DsModel_8cpp.html" target="_top" xlink:title="The class definition and template Specializations for Gauss1DsModel. ">
<polygon fill="white" stroke="black" points="1368.5,-165.5 1368.5,-183.5 1470.5,-183.5 1470.5,-165.5 1368.5,-165.5"/>
<text text-anchor="middle" x="1419.5" y="-172.3" font-family="Helvetica,sans-Serif" font-size="9.00">Gauss1DsModel.cpp</text>
</a>
</g>
</g>
<!-- Node26&#45;&gt;Node27 -->
<g id="edge27" class="edge"><title>Node26&#45;&gt;Node27</title>
<path fill="none" stroke="midnightblue" d="M1352.62,-215.328C1369.31,-205.386 1391.69,-192.06 1405.86,-183.625"/>
<polygon fill="midnightblue" stroke="midnightblue" points="1350.82,-212.327 1344.02,-220.45 1354.4,-218.341 1350.82,-212.327"/>
</g>
<!-- Node28 -->
<g id="node28" class="node"><title>Node28</title>
<g id="a_node28"><a xlink:href="Gauss1DsMAP_8h.html" target="_top" xlink:title="The class declaration and inline and templated functions for Gauss1DsMAP. ">
<polygon fill="white" stroke="black" points="1155.5,-165.5 1155.5,-183.5 1241.5,-183.5 1241.5,-165.5 1155.5,-165.5"/>
<text text-anchor="middle" x="1198.5" y="-172.3" font-family="Helvetica,sans-Serif" font-size="9.00">Gauss1DsMAP.h</text>
</a>
</g>
</g>
<!-- Node26&#45;&gt;Node28 -->
<g id="edge28" class="edge"><title>Node26&#45;&gt;Node28</title>
<path fill="none" stroke="midnightblue" d="M1301.08,-216.686C1276.03,-206.63 1240.72,-192.45 1218.74,-183.625"/>
<polygon fill="midnightblue" stroke="midnightblue" points="1299.87,-219.972 1310.45,-220.45 1302.48,-213.476 1299.87,-219.972"/>
</g>
<!-- Node30 -->
<g id="node30" class="node"><title>Node30</title>
<g id="a_node30"><a xlink:href="Gauss1DsMLE_8h.html" target="_top" xlink:title="The class declaration and inline and templated functions for Gauss1DsMLE. ">
<polygon fill="white" stroke="black" points="1264.5,-165.5 1264.5,-183.5 1350.5,-183.5 1350.5,-165.5 1264.5,-165.5"/>
<text text-anchor="middle" x="1307.5" y="-172.3" font-family="Helvetica,sans-Serif" font-size="9.00">Gauss1DsMLE.h</text>
</a>
</g>
</g>
<!-- Node26&#45;&gt;Node30 -->
<g id="edge32" class="edge"><title>Node26&#45;&gt;Node30</title>
<path fill="none" stroke="midnightblue" d="M1322.81,-210.771C1318.81,-201.558 1314.12,-190.75 1310.99,-183.55"/>
<polygon fill="midnightblue" stroke="midnightblue" points="1319.71,-212.439 1326.91,-220.219 1326.14,-209.652 1319.71,-212.439"/>
</g>
<!-- Node28&#45;&gt;Node9 -->
<g id="edge30" class="edge"><title>Node28&#45;&gt;Node9</title>
<path fill="none" stroke="midnightblue" d="M1153.33,-163.181C1108.98,-153.048 1042.24,-137.802 1001.69,-128.538"/>
<polygon fill="midnightblue" stroke="midnightblue" points="1152.74,-166.635 1163.26,-165.45 1154.29,-159.811 1152.74,-166.635"/>
</g>
<!-- Node28&#45;&gt;Node15 -->
<g id="edge31" class="edge"><title>Node28&#45;&gt;Node15</title>
<path fill="none" stroke="midnightblue" d="M1171.53,-161.283C1149.39,-151.254 1118.66,-137.333 1099.44,-128.625"/>
<polygon fill="midnightblue" stroke="midnightblue" points="1170.18,-164.512 1180.73,-165.45 1173.07,-158.136 1170.18,-164.512"/>
</g>
<!-- Node29 -->
<g id="node29" class="node"><title>Node29</title>
<g id="a_node29"><a xlink:href="Gauss1DsMAP_8cpp.html" target="_top" xlink:title="The class definition and template Specializations for Gauss1DsMAP. ">
<polygon fill="white" stroke="black" points="1150.5,-110.5 1150.5,-128.5 1246.5,-128.5 1246.5,-110.5 1150.5,-110.5"/>
<text text-anchor="middle" x="1198.5" y="-117.3" font-family="Helvetica,sans-Serif" font-size="9.00">Gauss1DsMAP.cpp</text>
</a>
</g>
</g>
<!-- Node28&#45;&gt;Node29 -->
<g id="edge29" class="edge"><title>Node28&#45;&gt;Node29</title>
<path fill="none" stroke="midnightblue" d="M1198.5,-155.175C1198.5,-146.094 1198.5,-135.595 1198.5,-128.55"/>
<polygon fill="midnightblue" stroke="midnightblue" points="1195,-155.219 1198.5,-165.219 1202,-155.219 1195,-155.219"/>
</g>
<!-- Node31 -->
<g id="node31" class="node"><title>Node31</title>
<g id="a_node31"><a xlink:href="Gauss1DsMLE_8cpp.html" target="_top" xlink:title="The class definition and template Specializations for Gauss1DsMLE. ">
<polygon fill="white" stroke="black" points="1265,-110.5 1265,-128.5 1360,-128.5 1360,-110.5 1265,-110.5"/>
<text text-anchor="middle" x="1312.5" y="-117.3" font-family="Helvetica,sans-Serif" font-size="9.00">Gauss1DsMLE.cpp</text>
</a>
</g>
</g>
<!-- Node30&#45;&gt;Node31 -->
<g id="edge33" class="edge"><title>Node30&#45;&gt;Node31</title>
<path fill="none" stroke="midnightblue" d="M1309.23,-155.175C1310.09,-146.094 1311.08,-135.595 1311.74,-128.55"/>
<polygon fill="midnightblue" stroke="midnightblue" points="1305.74,-154.934 1308.28,-165.219 1312.71,-155.592 1305.74,-154.934"/>
</g>
<!-- Node32&#45;&gt;Node20 -->
<g id="edge36" class="edge"><title>Node32&#45;&gt;Node20</title>
<path fill="none" stroke="midnightblue" d="M1005.87,-218.705C946.786,-208.301 854.752,-192.096 801.795,-182.771"/>
<polygon fill="midnightblue" stroke="midnightblue" points="1005.33,-222.163 1015.78,-220.45 1006.54,-215.269 1005.33,-222.163"/>
</g>
<!-- Node32&#45;&gt;Node23 -->
<g id="edge37" class="edge"><title>Node32&#45;&gt;Node23</title>
<path fill="none" stroke="midnightblue" d="M1021.15,-217.859C982.723,-207.728 925.747,-192.705 890.985,-183.538"/>
<polygon fill="midnightblue" stroke="midnightblue" points="1020.41,-221.285 1030.97,-220.45 1022.2,-214.516 1020.41,-221.285"/>
</g>
<!-- Node32&#45;&gt;Node28 -->
<g id="edge38" class="edge"><title>Node32&#45;&gt;Node28</title>
<path fill="none" stroke="midnightblue" d="M1091.69,-216.819C1117.71,-206.756 1154.58,-192.489 1177.5,-183.625"/>
<polygon fill="midnightblue" stroke="midnightblue" points="1090.37,-213.578 1082.31,-220.45 1092.9,-220.107 1090.37,-213.578"/>
</g>
<!-- Node32&#45;&gt;Node30 -->
<g id="edge39" class="edge"><title>Node32&#45;&gt;Node30</title>
<path fill="none" stroke="midnightblue" d="M1108.8,-218.309C1155.83,-208.177 1227.01,-192.841 1270.19,-183.538"/>
<polygon fill="midnightblue" stroke="midnightblue" points="1107.9,-214.923 1098.86,-220.45 1109.37,-221.766 1107.9,-214.923"/>
</g>
<!-- Node33 -->
<g id="node33" class="node"><title>Node33</title>
<g id="a_node33"><a xlink:href="PoissonNoise1DObjective_8cpp.html" target="_top" xlink:title="The class definition and template Specializations for PoissonNoise1DObjective. ">
<polygon fill="white" stroke="black" points="996,-165.5 996,-183.5 1137,-183.5 1137,-165.5 996,-165.5"/>
<text text-anchor="middle" x="1066.5" y="-172.3" font-family="Helvetica,sans-Serif" font-size="9.00">PoissonNoise1DObjective.cpp</text>
</a>
</g>
</g>
<!-- Node32&#45;&gt;Node33 -->
<g id="edge35" class="edge"><title>Node32&#45;&gt;Node33</title>
<path fill="none" stroke="midnightblue" d="M1063.23,-210.175C1064.09,-201.094 1065.08,-190.595 1065.74,-183.55"/>
<polygon fill="midnightblue" stroke="midnightblue" points="1059.74,-209.934 1062.28,-220.219 1066.71,-210.592 1059.74,-209.934"/>
</g>
<!-- Node34&#45;&gt;Node5 -->
<g id="edge42" class="edge"><title>Node34&#45;&gt;Node5</title>
<path fill="none" stroke="midnightblue" d="M366.623,-278.387C306.357,-272.708 228.647,-261.236 206.5,-239 160.027,-192.342 169.043,-101.679 173.123,-73.835"/>
<polygon fill="midnightblue" stroke="midnightblue" points="366.619,-281.901 376.893,-279.315 367.249,-274.929 366.619,-281.901"/>
</g>
<!-- Node34&#45;&gt;Node7 -->
<g id="edge43" class="edge"><title>Node34&#45;&gt;Node7</title>
<path fill="none" stroke="midnightblue" d="M427.596,-267.758C420.915,-259.76 413.624,-249.522 409.5,-239 386.056,-179.191 388.411,-99.4561 389.913,-73.8138"/>
<polygon fill="midnightblue" stroke="midnightblue" points="425.175,-270.303 434.428,-275.464 430.413,-265.66 425.175,-270.303"/>
</g>
<!-- Node34&#45;&gt;Node11 -->
<g id="edge44" class="edge"><title>Node34&#45;&gt;Node11</title>
<path fill="none" stroke="midnightblue" d="M436.685,-265.489C426.806,-231.096 411.143,-155.458 447.5,-110 463.664,-89.7891 532.028,-77.0783 578.098,-70.6389"/>
<polygon fill="midnightblue" stroke="midnightblue" points="433.464,-266.925 439.73,-275.468 440.159,-264.882 433.464,-266.925"/>
</g>
<!-- Node34&#45;&gt;Node13 -->
<g id="edge45" class="edge"><title>Node34&#45;&gt;Node13</title>
<path fill="none" stroke="midnightblue" d="M444.351,-265.171C447.704,-240.152 456.795,-194.999 480.5,-165 509.799,-127.921 527.446,-127.103 571.5,-110 631.488,-86.7117 705.492,-75.0388 751.343,-69.6312"/>
<polygon fill="midnightblue" stroke="midnightblue" points="440.84,-265.063 443.154,-275.402 447.792,-265.877 440.84,-265.063"/>
</g>
<!-- Node34&#45;&gt;Node25 -->
<g id="edge46" class="edge"><title>Node34&#45;&gt;Node25</title>
<path fill="none" stroke="midnightblue" d="M456.34,-267.766C476.833,-244.469 514.52,-201.625 530.277,-183.712"/>
<polygon fill="midnightblue" stroke="midnightblue" points="453.617,-265.562 449.64,-275.382 458.873,-270.186 453.617,-265.562"/>
</g>
<!-- Node34&#45;&gt;Node32 -->
<g id="edge47" class="edge"><title>Node34&#45;&gt;Node32</title>
<path fill="none" stroke="midnightblue" d="M518.196,-277.019C640.564,-266.541 879.792,-246.058 995.584,-236.144"/>
<polygon fill="midnightblue" stroke="midnightblue" points="517.823,-273.538 508.158,-277.878 518.42,-280.512 517.823,-273.538"/>
</g>
<!-- Node35 -->
<g id="node35" class="node"><title>Node35</title>
<g id="a_node35"><a xlink:href="PoissonNoise2DObjective_8cpp.html" target="_top" xlink:title="The class definition and template Specializations for PoissonNoise2DObjective. ">
<polygon fill="white" stroke="black" points="216,-220.5 216,-238.5 357,-238.5 357,-220.5 216,-220.5"/>
<text text-anchor="middle" x="286.5" y="-227.3" font-family="Helvetica,sans-Serif" font-size="9.00">PoissonNoise2DObjective.cpp</text>
</a>
</g>
</g>
<!-- Node34&#45;&gt;Node35 -->
<g id="edge41" class="edge"><title>Node34&#45;&gt;Node35</title>
<path fill="none" stroke="midnightblue" d="M409.257,-272.206C379.486,-262.091 336.566,-247.51 310.16,-238.538"/>
<polygon fill="midnightblue" stroke="midnightblue" points="408.213,-275.547 418.807,-275.45 410.464,-268.92 408.213,-275.547"/>
</g>
</g>
</svg>
        <g id="navigator" transform="translate(0 0)" fill="#404254">
                <rect fill="#f2f5e9" fill-opacity="0.5" stroke="#606060" stroke-width=".5" x="0" y="0" width="60" height="60"/>
                <use id="zoomplus" xlink:href="#zoomPlus" x="17" y="9" onmousedown="handleZoom(evt,'in')"/>
                <use id="zoomminus" xlink:href="#zoomMin" x="42" y="9" onmousedown="handleZoom(evt,'out')"/>
                <use id="reset" xlink:href="#resetDef" x="30" y="36" onmousedown="handleReset()"/>
                <g id="arrowUp" xlink:href="#dirArrow" transform="translate(30 24)" onmousedown="handlePan(0,-1)">
                  <use xlink:href="#rim" fill="#404040">
                        <set attributeName="fill" to="#808080" begin="arrowUp.mouseover" end="arrowUp.mouseout"/>
                  </use>
                  <path fill="none" stroke="white" stroke-width="1.5" d="M0,-3.0v7 M-2.5,-0.5L0,-3.0L2.5,-0.5"/>
                </g>
                <g id="arrowRight" xlink:href="#dirArrow" transform="rotate(90) translate(36 -43)" onmousedown="handlePan(1,0)">
                  <use xlink:href="#rim" fill="#404040">
                        <set attributeName="fill" to="#808080" begin="arrowRight.mouseover" end="arrowRight.mouseout"/>
                  </use>
                  <path fill="none" stroke="white" stroke-width="1.5" d="M0,-3.0v7 M-2.5,-0.5L0,-3.0L2.5,-0.5"/>
                </g>
                <g id="arrowDown" xlink:href="#dirArrow" transform="rotate(180) translate(-30 -48)" onmousedown="handlePan(0,1)">
                  <use xlink:href="#rim" fill="#404040">
                        <set attributeName="fill" to="#808080" begin="arrowDown.mouseover" end="arrowDown.mouseout"/>
                  </use>
                  <path fill="none" stroke="white" stroke-width="1.5" d="M0,-3.0v7 M-2.5,-0.5L0,-3.0L2.5,-0.5"/>
                </g>
                <g id="arrowLeft" xlink:href="#dirArrow" transform="rotate(270) translate(-36 17)" onmousedown="handlePan(-1,0)">
                  <use xlink:href="#rim" fill="#404040">
                        <set attributeName="fill" to="#808080" begin="arrowLeft.mouseover" end="arrowLeft.mouseout"/>
                  </use>
                  <path fill="none" stroke="white" stroke-width="1.5" d="M0,-3.0v7 M-2.5,-0.5L0,-3.0L2.5,-0.5"/>
                </g>
        </g>
        <svg viewBox="0 0 15 15" width="100%" height="30px" preserveAspectRatio="xMaxYMin meet">
         <g id="arrow_out" transform="scale(0.3 0.3)">
          <a xlink:href="ImageFormat2DBase_8h__dep__incl_org.svg" target="_base">
           <rect id="button" ry="5" rx="5" y="6" x="6" height="38" width="38"
                fill="#f2f5e9" fill-opacity="0.5" stroke="#606060" stroke-width="1.0"/>
           <path id="arrow"
             d="M 11.500037,31.436501 C 11.940474,20.09759 22.043105,11.32322 32.158766,21.979434 L 37.068811,17.246167 C 37.068811,17.246167 37.088388,32 37.088388,32 L 22.160133,31.978069 C 22.160133,31.978069 26.997745,27.140456 26.997745,27.140456 C 18.528582,18.264221 13.291696,25.230495 11.500037,31.436501 z"
             style="fill:#404040;"/>
          </a>
         </g>
        </svg>
</svg>
