<?xml version="1.0" encoding="UTF-8" standalone="no"?>
<!DOCTYPE svg PUBLIC "-//W3C//DTD SVG 1.1//EN"
 "http://www.w3.org/Graphics/SVG/1.1/DTD/svg11.dtd">
<!-- Generated by graphviz version 2.38.0 (20140413.2041)
 -->
<!-- Title: ImageFormat1DBase.cpp Pages: 1 -->
<!--zoomable 257 -->
<svg id="main" version="1.1" xmlns="http://www.w3.org/2000/svg" xmlns:xlink="http://www.w3.org/1999/xlink" xml:space="preserve" onload="init(evt)">
<style type="text/css"><![CDATA[
.edge:hover path { stroke: red; }
.edge:hover polygon { stroke: red; fill: red; }
]]></style>
<script type="text/javascript"><![CDATA[
var edges = document.getElementsByTagName('g');
if (edges && edges.length) {
  for (var i=0;i<edges.length;i++) {
    if (edges[i].id.substr(0,4)=='edge') {
      edges[i].setAttribute('class','edge');
    }
  }
}
]]></script>
        <defs>
                <circle id="rim" cx="0" cy="0" r="7"/>
                <circle id="rim2" cx="0" cy="0" r="3.5"/>
                <g id="zoomPlus">
                        <use xlink:href="#rim" fill="#404040">
                                <set attributeName="fill" to="#808080" begin="zoomplus.mouseover" end="zoomplus.mouseout"/>
                        </use>
                        <path d="M-4,0h8M0,-4v8" fill="none" stroke="white" stroke-width="1.5" pointer-events="none"/>
                </g>
                <g id="zoomMin">
                        <use xlink:href="#rim" fill="#404040">
                                <set attributeName="fill" to="#808080" begin="zoomminus.mouseover" end="zoomminus.mouseout"/>
                        </use>
                        <path d="M-4,0h8" fill="none" stroke="white" stroke-width="1.5" pointer-events="none"/>
                </g>
                <g id="dirArrow">
                        <path fill="none" stroke="white" stroke-width="1.5" d="M0,-3.0v7 M-2.5,-0.5L0,-3.0L2.5,-0.5"/>
                </g>
               <g id="resetDef">
                       <use xlink:href="#rim2" fill="#404040">
                               <set attributeName="fill" to="#808080" begin="reset.mouseover" end="reset.mouseout"/>
                       </use>
               </g>
        </defs>

<script type="text/javascript">
var viewWidth = 610;
var viewHeight = 257;
var sectionId = 'dynsection-0';
</script>
<script xlink:href="svgpan.js"/>
<svg id="graph" class="graph">
<g id="viewport">
<title>ImageFormat1DBase.cpp</title>
<polygon fill="white" stroke="none" points="-4,4 -4,-253 606,-253 606,4 -4,4"/>
<!-- Node1 -->
<g id="node1" class="node"><title>Node1</title>
<polygon fill="#bfbfbf" stroke="black" points="204,-230.5 204,-248.5 325,-248.5 325,-230.5 204,-230.5"/>
<text text-anchor="middle" x="264.5" y="-237.3" font-family="Helvetica,sans-Serif" font-size="9.00">ImageFormat1DBase.cpp</text>
</g>
<!-- Node2 -->
<g id="node2" class="node"><title>Node2</title>
<g id="a_node2"><a xlink:href="ImageFormat1DBase_8h.html" target="_top" xlink:title="The class declaration and inline and templated functions for ImageFormat1DBase. ">
<polygon fill="white" stroke="black" points="192.5,-175.5 192.5,-193.5 336.5,-193.5 336.5,-175.5 192.5,-175.5"/>
<text text-anchor="middle" x="264.5" y="-182.3" font-family="Helvetica,sans-Serif" font-size="9.00">Mappel/ImageFormat1DBase.h</text>
</a>
</g>
</g>
<!-- Node1&#45;&gt;Node2 -->
<g id="edge1" class="edge"><title>Node1&#45;&gt;Node2</title>
<path fill="none" stroke="midnightblue" d="M264.5,-230.219C264.5,-223.177 264.5,-212.808 264.5,-203.828"/>
<polygon fill="midnightblue" stroke="midnightblue" points="268,-203.55 264.5,-193.55 261,-203.55 268,-203.55"/>
</g>
<!-- Node3 -->
<g id="node3" class="node"><title>Node3</title>
<g id="a_node3"><a xlink:href="util_8h.html" target="_top" xlink:title="Mappel/util.h">
<polygon fill="white" stroke="black" points="230,-65.5 230,-83.5 299,-83.5 299,-65.5 230,-65.5"/>
<text text-anchor="middle" x="264.5" y="-72.3" font-family="Helvetica,sans-Serif" font-size="9.00">Mappel/util.h</text>
</a>
</g>
</g>
<!-- Node2&#45;&gt;Node3 -->
<g id="edge2" class="edge"><title>Node2&#45;&gt;Node3</title>
<path fill="none" stroke="midnightblue" d="M255.798,-175.21C244.501,-163.395 226.959,-140.834 233.5,-120 236.814,-109.445 243.617,-99.2043 250.007,-91.2132"/>
<polygon fill="midnightblue" stroke="midnightblue" points="252.751,-93.3895 256.595,-83.5165 247.434,-88.8375 252.751,-93.3895"/>
</g>
<!-- Node13 -->
<g id="node13" class="node"><title>Node13</title>
<g id="a_node13"><a xlink:href="ImageFormat2DBase_8h.html" target="_top" xlink:title="The class declaration and inline and templated functions for ImageFormat2DBase. ">
<polygon fill="white" stroke="black" points="242.5,-120.5 242.5,-138.5 386.5,-138.5 386.5,-120.5 242.5,-120.5"/>
<text text-anchor="middle" x="314.5" y="-127.3" font-family="Helvetica,sans-Serif" font-size="9.00">Mappel/ImageFormat2DBase.h</text>
</a>
</g>
</g>
<!-- Node2&#45;&gt;Node13 -->
<g id="edge12" class="edge"><title>Node2&#45;&gt;Node13</title>
<path fill="none" stroke="midnightblue" d="M272.312,-175.219C279.694,-167.394 290.95,-155.463 299.979,-145.892"/>
<polygon fill="midnightblue" stroke="midnightblue" points="302.59,-148.225 306.906,-138.55 297.498,-143.422 302.59,-148.225"/>
</g>
<!-- Node4 -->
<g id="node4" class="node"><title>Node4</title>
<polygon fill="white" stroke="#bfbfbf" points="0,-5.5 0,-23.5 43,-23.5 43,-5.5 0,-5.5"/>
<text text-anchor="middle" x="21.5" y="-12.3" font-family="Helvetica,sans-Serif" font-size="9.00">cstdint</text>
</g>
<!-- Node3&#45;&gt;Node4 -->
<g id="edge3" class="edge"><title>Node3&#45;&gt;Node4</title>
<path fill="none" stroke="midnightblue" d="M229.965,-68.6474C187.332,-62.1214 112.933,-48.9775 51.5,-29 50.0743,-28.5364 48.6255,-28.0259 47.1734,-27.483"/>
<polygon fill="midnightblue" stroke="midnightblue" points="48.3296,-24.1736 37.7511,-23.5841 45.6531,-30.6418 48.3296,-24.1736"/>
</g>
<!-- Node5 -->
<g id="node5" class="node"><title>Node5</title>
<polygon fill="white" stroke="#bfbfbf" points="61,-5.5 61,-23.5 102,-23.5 102,-5.5 61,-5.5"/>
<text text-anchor="middle" x="81.5" y="-12.3" font-family="Helvetica,sans-Serif" font-size="9.00">cmath</text>
</g>
<!-- Node3&#45;&gt;Node5 -->
<g id="edge4" class="edge"><title>Node3&#45;&gt;Node5</title>
<path fill="none" stroke="midnightblue" d="M232.136,-65.4946C200.874,-57.4333 152.384,-44.0605 111.5,-29 110.294,-28.5558 109.069,-28.0854 107.836,-27.5968"/>
<polygon fill="midnightblue" stroke="midnightblue" points="109.036,-24.3042 98.4625,-23.6294 106.307,-30.7505 109.036,-24.3042"/>
</g>
<!-- Node6 -->
<g id="node6" class="node"><title>Node6</title>
<polygon fill="white" stroke="#bfbfbf" points="120.5,-5.5 120.5,-23.5 170.5,-23.5 170.5,-5.5 120.5,-5.5"/>
<text text-anchor="middle" x="145.5" y="-12.3" font-family="Helvetica,sans-Serif" font-size="9.00">memory</text>
</g>
<!-- Node3&#45;&gt;Node6 -->
<g id="edge5" class="edge"><title>Node3&#45;&gt;Node6</title>
<path fill="none" stroke="midnightblue" d="M247.954,-65.4353C228.172,-55.7939 194.827,-39.5418 171.57,-28.2065"/>
<polygon fill="midnightblue" stroke="midnightblue" points="172.812,-24.9182 162.29,-23.6831 169.745,-31.2107 172.812,-24.9182"/>
</g>
<!-- Node7 -->
<g id="node7" class="node"><title>Node7</title>
<polygon fill="white" stroke="#bfbfbf" points="188.5,-5.5 188.5,-23.5 226.5,-23.5 226.5,-5.5 188.5,-5.5"/>
<text text-anchor="middle" x="207.5" y="-12.3" font-family="Helvetica,sans-Serif" font-size="9.00">utility</text>
</g>
<!-- Node3&#45;&gt;Node7 -->
<g id="edge6" class="edge"><title>Node3&#45;&gt;Node7</title>
<path fill="none" stroke="midnightblue" d="M256.574,-65.4353C247.91,-56.6187 233.813,-42.2743 222.946,-31.2165"/>
<polygon fill="midnightblue" stroke="midnightblue" points="225.233,-28.5508 215.727,-23.8718 220.24,-33.4573 225.233,-28.5508"/>
</g>
<!-- Node8 -->
<g id="node8" class="node"><title>Node8</title>
<polygon fill="white" stroke="#bfbfbf" points="245,-5.5 245,-23.5 284,-23.5 284,-5.5 245,-5.5"/>
<text text-anchor="middle" x="264.5" y="-12.3" font-family="Helvetica,sans-Serif" font-size="9.00">string</text>
</g>
<!-- Node3&#45;&gt;Node8 -->
<g id="edge7" class="edge"><title>Node3&#45;&gt;Node8</title>
<path fill="none" stroke="midnightblue" d="M264.5,-65.4353C264.5,-57.3891 264.5,-44.7388 264.5,-34.1846"/>
<polygon fill="midnightblue" stroke="midnightblue" points="268,-33.8717 264.5,-23.8718 261,-33.8718 268,-33.8717"/>
</g>
<!-- Node9 -->
<g id="node9" class="node"><title>Node9</title>
<polygon fill="white" stroke="#bfbfbf" points="302,-5.5 302,-23.5 337,-23.5 337,-5.5 302,-5.5"/>
<text text-anchor="middle" x="319.5" y="-12.3" font-family="Helvetica,sans-Serif" font-size="9.00">map</text>
</g>
<!-- Node3&#45;&gt;Node9 -->
<g id="edge8" class="edge"><title>Node3&#45;&gt;Node9</title>
<path fill="none" stroke="midnightblue" d="M272.148,-65.4353C280.508,-56.6187 294.111,-42.2743 304.596,-31.2165"/>
<polygon fill="midnightblue" stroke="midnightblue" points="307.22,-33.5364 311.561,-23.8718 302.141,-28.7197 307.22,-33.5364"/>
</g>
<!-- Node10 -->
<g id="node10" class="node"><title>Node10</title>
<polygon fill="white" stroke="#bfbfbf" points="355,-5.5 355,-23.5 404,-23.5 404,-5.5 355,-5.5"/>
<text text-anchor="middle" x="379.5" y="-12.3" font-family="Helvetica,sans-Serif" font-size="9.00">sstream</text>
</g>
<!-- Node3&#45;&gt;Node10 -->
<g id="edge9" class="edge"><title>Node3&#45;&gt;Node10</title>
<path fill="none" stroke="midnightblue" d="M280.49,-65.4353C299.607,-55.7939 331.831,-39.5418 354.306,-28.2065"/>
<polygon fill="midnightblue" stroke="midnightblue" points="355.922,-31.3114 363.275,-23.6831 352.77,-25.0613 355.922,-31.3114"/>
</g>
<!-- Node11 -->
<g id="node11" class="node"><title>Node11</title>
<polygon fill="white" stroke="#bfbfbf" points="422,-5.5 422,-23.5 477,-23.5 477,-5.5 422,-5.5"/>
<text text-anchor="middle" x="449.5" y="-12.3" font-family="Helvetica,sans-Serif" font-size="9.00">armadillo</text>
</g>
<!-- Node3&#45;&gt;Node11 -->
<g id="edge10" class="edge"><title>Node3&#45;&gt;Node11</title>
<path fill="none" stroke="midnightblue" d="M293.527,-65.4682C323.691,-56.9733 372.175,-42.9012 413.5,-29 415.351,-28.3775 417.248,-27.721 419.158,-27.0464"/>
<polygon fill="midnightblue" stroke="midnightblue" points="420.445,-30.3028 428.647,-23.5963 418.053,-23.7241 420.445,-30.3028"/>
</g>
<!-- Node12 -->
<g id="node12" class="node"><title>Node12</title>
<polygon fill="white" stroke="#bfbfbf" points="495,-0.5 495,-28.5 602,-28.5 602,-0.5 495,-0.5"/>
<text text-anchor="start" x="503" y="-17.3" font-family="Helvetica,sans-Serif" font-size="9.00">BacktraceException</text>
<text text-anchor="middle" x="548.5" y="-7.3" font-family="Helvetica,sans-Serif" font-size="9.00">/BacktraceException.h</text>
</g>
<!-- Node3&#45;&gt;Node12 -->
<g id="edge11" class="edge"><title>Node3&#45;&gt;Node12</title>
<path fill="none" stroke="midnightblue" d="M299.144,-66.74C340.892,-58.5535 413.429,-44.2007 484.698,-29.359"/>
<polygon fill="midnightblue" stroke="midnightblue" points="485.669,-32.7319 494.743,-27.2622 484.239,-25.8796 485.669,-32.7319"/>
</g>
<!-- Node13&#45;&gt;Node3 -->
<g id="edge13" class="edge"><title>Node13&#45;&gt;Node3</title>
<path fill="none" stroke="midnightblue" d="M306.688,-120.219C299.306,-112.394 288.05,-100.463 279.021,-90.8921"/>
<polygon fill="midnightblue" stroke="midnightblue" points="281.502,-88.4217 272.094,-83.5496 276.41,-93.2253 281.502,-88.4217"/>
</g>
</g>
</svg>
        <g id="navigator" transform="translate(0 0)" fill="#404254">
                <rect fill="#f2f5e9" fill-opacity="0.5" stroke="#606060" stroke-width=".5" x="0" y="0" width="60" height="60"/>
                <use id="zoomplus" xlink:href="#zoomPlus" x="17" y="9" onmousedown="handleZoom(evt,'in')"/>
                <use id="zoomminus" xlink:href="#zoomMin" x="42" y="9" onmousedown="handleZoom(evt,'out')"/>
                <use id="reset" xlink:href="#resetDef" x="30" y="36" onmousedown="handleReset()"/>
                <g id="arrowUp" xlink:href="#dirArrow" transform="translate(30 24)" onmousedown="handlePan(0,-1)">
                  <use xlink:href="#rim" fill="#404040">
                        <set attributeName="fill" to="#808080" begin="arrowUp.mouseover" end="arrowUp.mouseout"/>
                  </use>
                  <path fill="none" stroke="white" stroke-width="1.5" d="M0,-3.0v7 M-2.5,-0.5L0,-3.0L2.5,-0.5"/>
                </g>
                <g id="arrowRight" xlink:href="#dirArrow" transform="rotate(90) translate(36 -43)" onmousedown="handlePan(1,0)">
                  <use xlink:href="#rim" fill="#404040">
                        <set attributeName="fill" to="#808080" begin="arrowRight.mouseover" end="arrowRight.mouseout"/>
                  </use>
                  <path fill="none" stroke="white" stroke-width="1.5" d="M0,-3.0v7 M-2.5,-0.5L0,-3.0L2.5,-0.5"/>
                </g>
                <g id="arrowDown" xlink:href="#dirArrow" transform="rotate(180) translate(-30 -48)" onmousedown="handlePan(0,1)">
                  <use xlink:href="#rim" fill="#404040">
                        <set attributeName="fill" to="#808080" begin="arrowDown.mouseover" end="arrowDown.mouseout"/>
                  </use>
                  <path fill="none" stroke="white" stroke-width="1.5" d="M0,-3.0v7 M-2.5,-0.5L0,-3.0L2.5,-0.5"/>
                </g>
                <g id="arrowLeft" xlink:href="#dirArrow" transform="rotate(270) translate(-36 17)" onmousedown="handlePan(-1,0)">
                  <use xlink:href="#rim" fill="#404040">
                        <set attributeName="fill" to="#808080" begin="arrowLeft.mouseover" end="arrowLeft.mouseout"/>
                  </use>
                  <path fill="none" stroke="white" stroke-width="1.5" d="M0,-3.0v7 M-2.5,-0.5L0,-3.0L2.5,-0.5"/>
                </g>
        </g>
        <svg viewBox="0 0 15 15" width="100%" height="30px" preserveAspectRatio="xMaxYMin meet">
         <g id="arrow_out" transform="scale(0.3 0.3)">
          <a xlink:href="ImageFormat1DBase_8cpp__incl_org.svg" target="_base">
           <rect id="button" ry="5" rx="5" y="6" x="6" height="38" width="38"
                fill="#f2f5e9" fill-opacity="0.5" stroke="#606060" stroke-width="1.0"/>
           <path id="arrow"
             d="M 11.500037,31.436501 C 11.940474,20.09759 22.043105,11.32322 32.158766,21.979434 L 37.068811,17.246167 C 37.068811,17.246167 37.088388,32 37.088388,32 L 22.160133,31.978069 C 22.160133,31.978069 26.997745,27.140456 26.997745,27.140456 C 18.528582,18.264221 13.291696,25.230495 11.500037,31.436501 z"
             style="fill:#404040;"/>
          </a>
         </g>
        </svg>
</svg>
