<?xml version="1.0" encoding="UTF-8" standalone="no"?>
<!DOCTYPE svg PUBLIC "-//W3C//DTD SVG 1.1//EN"
 "http://www.w3.org/Graphics/SVG/1.1/DTD/svg11.dtd">
<!-- Generated by graphviz version 2.38.0 (20140413.2041)
 -->
<!-- Title: ImageFormat1DBase.h Pages: 1 -->
<!--zoomable 302 -->
<svg id="main" version="1.1" xmlns="http://www.w3.org/2000/svg" xmlns:xlink="http://www.w3.org/1999/xlink" xml:space="preserve" onload="init(evt)">
<style type="text/css"><![CDATA[
.edge:hover path { stroke: red; }
.edge:hover polygon { stroke: red; fill: red; }
]]></style>
<script type="text/javascript"><![CDATA[
var edges = document.getElementsByTagName('g');
if (edges && edges.length) {
  for (var i=0;i<edges.length;i++) {
    if (edges[i].id.substr(0,4)=='edge') {
      edges[i].setAttribute('class','edge');
    }
  }
}
]]></script>
        <defs>
                <circle id="rim" cx="0" cy="0" r="7"/>
                <circle id="rim2" cx="0" cy="0" r="3.5"/>
                <g id="zoomPlus">
                        <use xlink:href="#rim" fill="#404040">
                                <set attributeName="fill" to="#808080" begin="zoomplus.mouseover" end="zoomplus.mouseout"/>
                        </use>
                        <path d="M-4,0h8M0,-4v8" fill="none" stroke="white" stroke-width="1.5" pointer-events="none"/>
                </g>
                <g id="zoomMin">
                        <use xlink:href="#rim" fill="#404040">
                                <set attributeName="fill" to="#808080" begin="zoomminus.mouseover" end="zoomminus.mouseout"/>
                        </use>
                        <path d="M-4,0h8" fill="none" stroke="white" stroke-width="1.5" pointer-events="none"/>
                </g>
                <g id="dirArrow">
                        <path fill="none" stroke="white" stroke-width="1.5" d="M0,-3.0v7 M-2.5,-0.5L0,-3.0L2.5,-0.5"/>
                </g>
               <g id="resetDef">
                       <use xlink:href="#rim2" fill="#404040">
                               <set attributeName="fill" to="#808080" begin="reset.mouseover" end="reset.mouseout"/>
                       </use>
               </g>
        </defs>

<script type="text/javascript">
var viewWidth = 911;
var viewHeight = 302;
var sectionId = 'dynsection-1';
</script>
<script xlink:href="svgpan.js"/>
<svg id="graph" class="graph">
<g id="viewport">
<title>ImageFormat1DBase.h</title>
<polygon fill="white" stroke="none" points="-4,4 -4,-298 906.5,-298 906.5,4 -4,4"/>
<!-- Node1 -->
<g id="node1" class="node"><title>Node1</title>
<polygon fill="#bfbfbf" stroke="black" points="342.5,-275.5 342.5,-293.5 453.5,-293.5 453.5,-275.5 342.5,-275.5"/>
<text text-anchor="middle" x="398" y="-282.3" font-family="Helvetica,sans-Serif" font-size="9.00">ImageFormat1DBase.h</text>
</g>
<!-- Node2 -->
<g id="node2" class="node"><title>Node2</title>
<g id="a_node2"><a xlink:href="ImageFormat1DBase_8cpp.html" target="_top" xlink:title="The class definition and template Specializations for ImageFormat1DBase. ">
<polygon fill="white" stroke="black" points="138.5,-220.5 138.5,-238.5 259.5,-238.5 259.5,-220.5 138.5,-220.5"/>
<text text-anchor="middle" x="199" y="-227.3" font-family="Helvetica,sans-Serif" font-size="9.00">ImageFormat1DBase.cpp</text>
</a>
</g>
</g>
<!-- Node1&#45;&gt;Node2 -->
<g id="edge1" class="edge"><title>Node1&#45;&gt;Node2</title>
<path fill="none" stroke="midnightblue" d="M358.047,-272.859C320.007,-262.728 263.598,-247.705 229.182,-238.538"/>
<polygon fill="midnightblue" stroke="midnightblue" points="357.212,-276.259 367.776,-275.45 359.014,-269.495 357.212,-276.259"/>
</g>
<!-- Node3 -->
<g id="node3" class="node"><title>Node3</title>
<g id="a_node3"><a xlink:href="Gauss1DModel_8h.html" target="_top" xlink:title="The class declaration and inline and templated functions for Gauss1DModel. ">
<polygon fill="white" stroke="black" points="277,-220.5 277,-238.5 365,-238.5 365,-220.5 277,-220.5"/>
<text text-anchor="middle" x="321" y="-227.3" font-family="Helvetica,sans-Serif" font-size="9.00">Gauss1DModel.h</text>
</a>
</g>
</g>
<!-- Node1&#45;&gt;Node3 -->
<g id="edge2" class="edge"><title>Node1&#45;&gt;Node3</title>
<path fill="none" stroke="midnightblue" d="M378.055,-269.772C363.704,-259.894 344.832,-246.904 332.805,-238.625"/>
<polygon fill="midnightblue" stroke="midnightblue" points="376.084,-272.664 386.305,-275.45 380.052,-266.898 376.084,-272.664"/>
</g>
<!-- Node17 -->
<g id="node17" class="node"><title>Node17</title>
<g id="a_node17"><a xlink:href="Gauss1DsModel_8h.html" target="_top" xlink:title="The class declaration and inline and templated functions for Gauss1DsModel. ">
<polygon fill="white" stroke="black" points="638,-220.5 638,-238.5 730,-238.5 730,-220.5 638,-220.5"/>
<text text-anchor="middle" x="684" y="-227.3" font-family="Helvetica,sans-Serif" font-size="9.00">Gauss1DsModel.h</text>
</a>
</g>
</g>
<!-- Node1&#45;&gt;Node17 -->
<g id="edge16" class="edge"><title>Node1&#45;&gt;Node17</title>
<path fill="none" stroke="midnightblue" d="M451.285,-273.626C505.93,-263.499 589.897,-247.939 640.623,-238.538"/>
<polygon fill="midnightblue" stroke="midnightblue" points="450.632,-270.187 441.437,-275.45 451.908,-277.07 450.632,-270.187"/>
</g>
<!-- Node30 -->
<g id="node30" class="node"><title>Node30</title>
<g id="a_node30"><a xlink:href="PoissonNoise1DObjective_8h.html" target="_top" xlink:title="The class declaration and inline and templated functions for PoissonNoise1DObjective. ">
<polygon fill="white" stroke="black" points="409.5,-220.5 409.5,-238.5 540.5,-238.5 540.5,-220.5 409.5,-220.5"/>
<text text-anchor="middle" x="475" y="-227.3" font-family="Helvetica,sans-Serif" font-size="9.00">PoissonNoise1DObjective.h</text>
</a>
</g>
</g>
<!-- Node1&#45;&gt;Node30 -->
<g id="edge29" class="edge"><title>Node1&#45;&gt;Node30</title>
<path fill="none" stroke="midnightblue" d="M417.945,-269.772C432.296,-259.894 451.168,-246.904 463.195,-238.625"/>
<polygon fill="midnightblue" stroke="midnightblue" points="415.948,-266.898 409.695,-275.45 419.916,-272.664 415.948,-266.898"/>
</g>
<!-- Node4 -->
<g id="node4" class="node"><title>Node4</title>
<g id="a_node4"><a xlink:href="Gauss1DModel_8cpp.html" target="_top" xlink:title="The class definition and template Specializations for Gauss1DModel. ">
<polygon fill="white" stroke="black" points="0,-165.5 0,-183.5 98,-183.5 98,-165.5 0,-165.5"/>
<text text-anchor="middle" x="49" y="-172.3" font-family="Helvetica,sans-Serif" font-size="9.00">Gauss1DModel.cpp</text>
</a>
</g>
</g>
<!-- Node3&#45;&gt;Node4 -->
<g id="edge3" class="edge"><title>Node3&#45;&gt;Node4</title>
<path fill="none" stroke="midnightblue" d="M269.675,-218.499C217.691,-208.37 138.296,-192.9 90.2532,-183.538"/>
<polygon fill="midnightblue" stroke="midnightblue" points="269.204,-221.973 279.689,-220.45 270.543,-215.102 269.204,-221.973"/>
</g>
<!-- Node5 -->
<g id="node5" class="node"><title>Node5</title>
<g id="a_node5"><a xlink:href="Gauss1DMAP_8h.html" target="_top" xlink:title="The class declaration and inline and templated functions for Gauss1DMAP. ">
<polygon fill="white" stroke="black" points="230,-165.5 230,-183.5 312,-183.5 312,-165.5 230,-165.5"/>
<text text-anchor="middle" x="271" y="-172.3" font-family="Helvetica,sans-Serif" font-size="9.00">Gauss1DMAP.h</text>
</a>
</g>
</g>
<!-- Node3&#45;&gt;Node5 -->
<g id="edge4" class="edge"><title>Node3&#45;&gt;Node5</title>
<path fill="none" stroke="midnightblue" d="M306.21,-212.822C297.137,-203.205 285.898,-191.292 278.594,-183.55"/>
<polygon fill="midnightblue" stroke="midnightblue" points="303.779,-215.347 313.188,-220.219 308.871,-210.543 303.779,-215.347"/>
</g>
<!-- Node14 -->
<g id="node14" class="node"><title>Node14</title>
<g id="a_node14"><a xlink:href="Gauss1DMLE_8h.html" target="_top" xlink:title="The class declaration and inline and templated functions for Gauss1DMLE. ">
<polygon fill="white" stroke="black" points="330.5,-165.5 330.5,-183.5 411.5,-183.5 411.5,-165.5 330.5,-165.5"/>
<text text-anchor="middle" x="371" y="-172.3" font-family="Helvetica,sans-Serif" font-size="9.00">Gauss1DMLE.h</text>
</a>
</g>
</g>
<!-- Node3&#45;&gt;Node14 -->
<g id="edge13" class="edge"><title>Node3&#45;&gt;Node14</title>
<path fill="none" stroke="midnightblue" d="M335.79,-212.822C344.863,-203.205 356.102,-191.292 363.406,-183.55"/>
<polygon fill="midnightblue" stroke="midnightblue" points="333.129,-210.543 328.812,-220.219 338.221,-215.347 333.129,-210.543"/>
</g>
<!-- Node16 -->
<g id="node16" class="node"><title>Node16</title>
<g id="a_node16"><a xlink:href="Gauss2DsxyMAP_8h.html" target="_top" xlink:title="The class declaration and inline and templated functions for Gauss2DsxyMAP. ">
<polygon fill="white" stroke="black" points="116.5,-165.5 116.5,-183.5 211.5,-183.5 211.5,-165.5 116.5,-165.5"/>
<text text-anchor="middle" x="164" y="-172.3" font-family="Helvetica,sans-Serif" font-size="9.00">Gauss2DsxyMAP.h</text>
</a>
</g>
</g>
<!-- Node3&#45;&gt;Node16 -->
<g id="edge15" class="edge"><title>Node3&#45;&gt;Node16</title>
<path fill="none" stroke="midnightblue" d="M287.544,-217.206C257.582,-207.091 214.387,-192.51 187.812,-183.538"/>
<polygon fill="midnightblue" stroke="midnightblue" points="286.561,-220.568 297.155,-220.45 288.8,-213.936 286.561,-220.568"/>
</g>
<!-- Node6 -->
<g id="node6" class="node"><title>Node6</title>
<g id="a_node6"><a xlink:href="estimator__statics_8cpp.html" target="_top" xlink:title="estimator_statics.cpp">
<polygon fill="white" stroke="black" points="4,-110.5 4,-128.5 106,-128.5 106,-110.5 4,-110.5"/>
<text text-anchor="middle" x="55" y="-117.3" font-family="Helvetica,sans-Serif" font-size="9.00">estimator_statics.cpp</text>
</a>
</g>
</g>
<!-- Node5&#45;&gt;Node6 -->
<g id="edge5" class="edge"><title>Node5&#45;&gt;Node6</title>
<path fill="none" stroke="midnightblue" d="M228.422,-163.053C187.127,-152.92 125.355,-137.763 87.7599,-128.538"/>
<polygon fill="midnightblue" stroke="midnightblue" points="227.648,-166.467 238.194,-165.45 229.316,-159.668 227.648,-166.467"/>
</g>
<!-- Node7 -->
<g id="node7" class="node"><title>Node7</title>
<g id="a_node7"><a xlink:href="Gauss1DMAP_8cpp.html" target="_top" xlink:title="The class definition and template Specializations for Gauss1DMAP. ">
<polygon fill="white" stroke="black" points="124,-110.5 124,-128.5 216,-128.5 216,-110.5 124,-110.5"/>
<text text-anchor="middle" x="170" y="-117.3" font-family="Helvetica,sans-Serif" font-size="9.00">Gauss1DMAP.cpp</text>
</a>
</g>
</g>
<!-- Node5&#45;&gt;Node7 -->
<g id="edge6" class="edge"><title>Node5&#45;&gt;Node7</title>
<path fill="none" stroke="midnightblue" d="M246.684,-160.74C227.659,-150.757 201.781,-137.177 185.484,-128.625"/>
<polygon fill="midnightblue" stroke="midnightblue" points="245.179,-163.903 255.66,-165.45 248.432,-157.705 245.179,-163.903"/>
</g>
<!-- Node8 -->
<g id="node8" class="node"><title>Node8</title>
<g id="a_node8"><a xlink:href="Gauss2DModel_8h.html" target="_top" xlink:title="The class declaration and inline and templated functions for Gauss2DModel. ">
<polygon fill="white" stroke="black" points="234,-110.5 234,-128.5 322,-128.5 322,-110.5 234,-110.5"/>
<text text-anchor="middle" x="278" y="-117.3" font-family="Helvetica,sans-Serif" font-size="9.00">Gauss2DModel.h</text>
</a>
</g>
</g>
<!-- Node5&#45;&gt;Node8 -->
<g id="edge7" class="edge"><title>Node5&#45;&gt;Node8</title>
<path fill="none" stroke="midnightblue" d="M273.42,-155.175C274.62,-146.094 276.006,-135.595 276.937,-128.55"/>
<polygon fill="midnightblue" stroke="midnightblue" points="269.933,-154.847 272.094,-165.219 276.873,-155.763 269.933,-154.847"/>
</g>
<!-- Node9 -->
<g id="node9" class="node"><title>Node9</title>
<g id="a_node9"><a xlink:href="Gauss2DModel_8cpp.html" target="_top" xlink:title="The class definition and template Specializations for Gauss2DModel. ">
<polygon fill="white" stroke="black" points="121,-55.5 121,-73.5 219,-73.5 219,-55.5 121,-55.5"/>
<text text-anchor="middle" x="170" y="-62.3" font-family="Helvetica,sans-Serif" font-size="9.00">Gauss2DModel.cpp</text>
</a>
</g>
</g>
<!-- Node8&#45;&gt;Node9 -->
<g id="edge8" class="edge"><title>Node8&#45;&gt;Node9</title>
<path fill="none" stroke="midnightblue" d="M252.554,-106.013C232.161,-96.0052 204.142,-82.2551 186.557,-73.6253"/>
<polygon fill="midnightblue" stroke="midnightblue" points="251.078,-109.187 261.597,-110.45 254.162,-102.903 251.078,-109.187"/>
</g>
<!-- Node10 -->
<g id="node10" class="node"><title>Node10</title>
<g id="a_node10"><a xlink:href="Gauss2DMAP_8h.html" target="_top" xlink:title="The class declaration and inline and templated functions for Gauss2DMAP. ">
<polygon fill="white" stroke="black" points="237,-55.5 237,-73.5 319,-73.5 319,-55.5 237,-55.5"/>
<text text-anchor="middle" x="278" y="-62.3" font-family="Helvetica,sans-Serif" font-size="9.00">Gauss2DMAP.h</text>
</a>
</g>
</g>
<!-- Node8&#45;&gt;Node10 -->
<g id="edge9" class="edge"><title>Node8&#45;&gt;Node10</title>
<path fill="none" stroke="midnightblue" d="M278,-100.175C278,-91.0945 278,-80.5949 278,-73.5496"/>
<polygon fill="midnightblue" stroke="midnightblue" points="274.5,-100.219 278,-110.219 281.5,-100.219 274.5,-100.219"/>
</g>
<!-- Node12 -->
<g id="node12" class="node"><title>Node12</title>
<g id="a_node12"><a xlink:href="Gauss2DMLE_8h.html" target="_top" xlink:title="The class declaration and inline and templated functions for Gauss2DMLE. ">
<polygon fill="white" stroke="black" points="342.5,-55.5 342.5,-73.5 423.5,-73.5 423.5,-55.5 342.5,-55.5"/>
<text text-anchor="middle" x="383" y="-62.3" font-family="Helvetica,sans-Serif" font-size="9.00">Gauss2DMLE.h</text>
</a>
</g>
</g>
<!-- Node8&#45;&gt;Node12 -->
<g id="edge11" class="edge"><title>Node8&#45;&gt;Node12</title>
<path fill="none" stroke="midnightblue" d="M303.009,-105.877C322.812,-95.8808 349.883,-82.216 366.903,-73.6253"/>
<polygon fill="midnightblue" stroke="midnightblue" points="301.297,-102.82 293.947,-110.45 304.452,-109.069 301.297,-102.82"/>
</g>
<!-- Node11 -->
<g id="node11" class="node"><title>Node11</title>
<g id="a_node11"><a xlink:href="Gauss2DMAP_8cpp.html" target="_top" xlink:title="The class definition and template Specializations for Gauss2DMAP. ">
<polygon fill="white" stroke="black" points="230,-0.5 230,-18.5 322,-18.5 322,-0.5 230,-0.5"/>
<text text-anchor="middle" x="276" y="-7.3" font-family="Helvetica,sans-Serif" font-size="9.00">Gauss2DMAP.cpp</text>
</a>
</g>
</g>
<!-- Node10&#45;&gt;Node11 -->
<g id="edge10" class="edge"><title>Node10&#45;&gt;Node11</title>
<path fill="none" stroke="midnightblue" d="M277.308,-45.1746C276.966,-36.0945 276.57,-25.5949 276.304,-18.5496"/>
<polygon fill="midnightblue" stroke="midnightblue" points="273.813,-45.3579 277.688,-55.2188 280.808,-45.0938 273.813,-45.3579"/>
</g>
<!-- Node13 -->
<g id="node13" class="node"><title>Node13</title>
<g id="a_node13"><a xlink:href="Gauss2DMLE_8cpp.html" target="_top" xlink:title="The class definition and template Specializations for Gauss2DMLE. ">
<polygon fill="white" stroke="black" points="340.5,-0.5 340.5,-18.5 431.5,-18.5 431.5,-0.5 340.5,-0.5"/>
<text text-anchor="middle" x="386" y="-7.3" font-family="Helvetica,sans-Serif" font-size="9.00">Gauss2DMLE.cpp</text>
</a>
</g>
</g>
<!-- Node12&#45;&gt;Node13 -->
<g id="edge12" class="edge"><title>Node12&#45;&gt;Node13</title>
<path fill="none" stroke="midnightblue" d="M384.037,-45.1746C384.551,-36.0945 385.146,-25.5949 385.544,-18.5496"/>
<polygon fill="midnightblue" stroke="midnightblue" points="380.54,-45.0369 383.469,-55.2188 387.528,-45.4326 380.54,-45.0369"/>
</g>
<!-- Node15 -->
<g id="node15" class="node"><title>Node15</title>
<g id="a_node15"><a xlink:href="Gauss1DMLE_8cpp.html" target="_top" xlink:title="The class definition and template Specializations for Gauss1DMLE. ">
<polygon fill="white" stroke="black" points="340.5,-110.5 340.5,-128.5 431.5,-128.5 431.5,-110.5 340.5,-110.5"/>
<text text-anchor="middle" x="386" y="-117.3" font-family="Helvetica,sans-Serif" font-size="9.00">Gauss1DMLE.cpp</text>
</a>
</g>
</g>
<!-- Node14&#45;&gt;Node15 -->
<g id="edge14" class="edge"><title>Node14&#45;&gt;Node15</title>
<path fill="none" stroke="midnightblue" d="M376.102,-155.473C378.691,-146.326 381.706,-135.672 383.722,-128.55"/>
<polygon fill="midnightblue" stroke="midnightblue" points="372.699,-154.644 373.344,-165.219 379.435,-156.55 372.699,-154.644"/>
</g>
<!-- Node18 -->
<g id="node18" class="node"><title>Node18</title>
<g id="a_node18"><a xlink:href="Gauss1DsModel_8cpp.html" target="_top" xlink:title="The class definition and template Specializations for Gauss1DsModel. ">
<polygon fill="white" stroke="black" points="797,-165.5 797,-183.5 899,-183.5 899,-165.5 797,-165.5"/>
<text text-anchor="middle" x="848" y="-172.3" font-family="Helvetica,sans-Serif" font-size="9.00">Gauss1DsModel.cpp</text>
</a>
</g>
</g>
<!-- Node17&#45;&gt;Node18 -->
<g id="edge17" class="edge"><title>Node17&#45;&gt;Node18</title>
<path fill="none" stroke="midnightblue" d="M718.54,-217.338C749.853,-207.218 795.246,-192.549 823.127,-183.538"/>
<polygon fill="midnightblue" stroke="midnightblue" points="717.347,-214.045 708.908,-220.45 719.5,-220.706 717.347,-214.045"/>
</g>
<!-- Node19 -->
<g id="node19" class="node"><title>Node19</title>
<g id="a_node19"><a xlink:href="Gauss1DsMAP_8h.html" target="_top" xlink:title="The class declaration and inline and templated functions for Gauss1DsMAP. ">
<polygon fill="white" stroke="black" points="589,-165.5 589,-183.5 675,-183.5 675,-165.5 589,-165.5"/>
<text text-anchor="middle" x="632" y="-172.3" font-family="Helvetica,sans-Serif" font-size="9.00">Gauss1DsMAP.h</text>
</a>
</g>
</g>
<!-- Node17&#45;&gt;Node19 -->
<g id="edge18" class="edge"><title>Node17&#45;&gt;Node19</title>
<path fill="none" stroke="midnightblue" d="M668.618,-212.822C659.182,-203.205 647.494,-191.292 639.898,-183.55"/>
<polygon fill="midnightblue" stroke="midnightblue" points="666.373,-215.532 675.875,-220.219 671.37,-210.629 666.373,-215.532"/>
</g>
<!-- Node28 -->
<g id="node28" class="node"><title>Node28</title>
<g id="a_node28"><a xlink:href="Gauss1DsMLE_8h.html" target="_top" xlink:title="The class declaration and inline and templated functions for Gauss1DsMLE. ">
<polygon fill="white" stroke="black" points="693,-165.5 693,-183.5 779,-183.5 779,-165.5 693,-165.5"/>
<text text-anchor="middle" x="736" y="-172.3" font-family="Helvetica,sans-Serif" font-size="9.00">Gauss1DsMLE.h</text>
</a>
</g>
</g>
<!-- Node17&#45;&gt;Node28 -->
<g id="edge27" class="edge"><title>Node17&#45;&gt;Node28</title>
<path fill="none" stroke="midnightblue" d="M699.382,-212.822C708.818,-203.205 720.506,-191.292 728.102,-183.55"/>
<polygon fill="midnightblue" stroke="midnightblue" points="696.63,-210.629 692.125,-220.219 701.627,-215.532 696.63,-210.629"/>
</g>
<!-- Node20 -->
<g id="node20" class="node"><title>Node20</title>
<g id="a_node20"><a xlink:href="Gauss1DsMAP_8cpp.html" target="_top" xlink:title="The class definition and template Specializations for Gauss1DsMAP. ">
<polygon fill="white" stroke="black" points="464,-110.5 464,-128.5 560,-128.5 560,-110.5 464,-110.5"/>
<text text-anchor="middle" x="512" y="-117.3" font-family="Helvetica,sans-Serif" font-size="9.00">Gauss1DsMAP.cpp</text>
</a>
</g>
</g>
<!-- Node19&#45;&gt;Node20 -->
<g id="edge19" class="edge"><title>Node19&#45;&gt;Node20</title>
<path fill="none" stroke="midnightblue" d="M604.34,-161.283C581.633,-151.254 550.113,-137.333 530.397,-128.625"/>
<polygon fill="midnightblue" stroke="midnightblue" points="603.213,-164.612 613.775,-165.45 606.041,-158.209 603.213,-164.612"/>
</g>
<!-- Node21 -->
<g id="node21" class="node"><title>Node21</title>
<g id="a_node21"><a xlink:href="Gauss2DsModel_8h.html" target="_top" xlink:title="The class declaration and inline and templated functions for Gauss2DsModel. ">
<polygon fill="white" stroke="black" points="578,-110.5 578,-128.5 670,-128.5 670,-110.5 578,-110.5"/>
<text text-anchor="middle" x="624" y="-117.3" font-family="Helvetica,sans-Serif" font-size="9.00">Gauss2DsModel.h</text>
</a>
</g>
</g>
<!-- Node19&#45;&gt;Node21 -->
<g id="edge20" class="edge"><title>Node19&#45;&gt;Node21</title>
<path fill="none" stroke="midnightblue" d="M629.234,-155.175C627.863,-146.094 626.278,-135.595 625.215,-128.55"/>
<polygon fill="midnightblue" stroke="midnightblue" points="625.797,-155.853 630.75,-165.219 632.718,-154.808 625.797,-155.853"/>
</g>
<!-- Node27 -->
<g id="node27" class="node"><title>Node27</title>
<g id="a_node27"><a xlink:href="Gauss2DsxyModel_8h.html" target="_top" xlink:title="The class declaration and inline and templated functions for Gauss2DsxyModel. ">
<polygon fill="white" stroke="black" points="688.5,-110.5 688.5,-128.5 789.5,-128.5 789.5,-110.5 688.5,-110.5"/>
<text text-anchor="middle" x="739" y="-117.3" font-family="Helvetica,sans-Serif" font-size="9.00">Gauss2DsxyModel.h</text>
</a>
</g>
</g>
<!-- Node19&#45;&gt;Node27 -->
<g id="edge26" class="edge"><title>Node19&#45;&gt;Node27</title>
<path fill="none" stroke="midnightblue" d="M657.485,-160.877C677.665,-150.881 705.253,-137.216 722.596,-128.625"/>
<polygon fill="midnightblue" stroke="midnightblue" points="655.658,-157.875 648.251,-165.45 658.765,-164.148 655.658,-157.875"/>
</g>
<!-- Node22 -->
<g id="node22" class="node"><title>Node22</title>
<g id="a_node22"><a xlink:href="Gauss2DsModel_8cpp.html" target="_top" xlink:title="The class definition and template Specializations for Gauss2DsModel. ">
<polygon fill="white" stroke="black" points="461,-55.5 461,-73.5 563,-73.5 563,-55.5 461,-55.5"/>
<text text-anchor="middle" x="512" y="-62.3" font-family="Helvetica,sans-Serif" font-size="9.00">Gauss2DsModel.cpp</text>
</a>
</g>
</g>
<!-- Node21&#45;&gt;Node22 -->
<g id="edge21" class="edge"><title>Node21&#45;&gt;Node22</title>
<path fill="none" stroke="midnightblue" d="M597.898,-106.148C576.727,-96.1297 547.489,-82.2941 529.17,-73.6253"/>
<polygon fill="midnightblue" stroke="midnightblue" points="596.453,-109.337 606.99,-110.45 599.448,-103.009 596.453,-109.337"/>
</g>
<!-- Node23 -->
<g id="node23" class="node"><title>Node23</title>
<g id="a_node23"><a xlink:href="Gauss2DsMAP_8h.html" target="_top" xlink:title="The class declaration and inline and templated functions for Gauss2DsMAP. ">
<polygon fill="white" stroke="black" points="581,-55.5 581,-73.5 667,-73.5 667,-55.5 581,-55.5"/>
<text text-anchor="middle" x="624" y="-62.3" font-family="Helvetica,sans-Serif" font-size="9.00">Gauss2DsMAP.h</text>
</a>
</g>
</g>
<!-- Node21&#45;&gt;Node23 -->
<g id="edge22" class="edge"><title>Node21&#45;&gt;Node23</title>
<path fill="none" stroke="midnightblue" d="M624,-100.175C624,-91.0945 624,-80.5949 624,-73.5496"/>
<polygon fill="midnightblue" stroke="midnightblue" points="620.5,-100.219 624,-110.219 627.5,-100.219 620.5,-100.219"/>
</g>
<!-- Node25 -->
<g id="node25" class="node"><title>Node25</title>
<g id="a_node25"><a xlink:href="Gauss2DsMLE_8h.html" target="_top" xlink:title="The class declaration and inline and templated functions for Gauss2DsMLE. ">
<polygon fill="white" stroke="black" points="690,-55.5 690,-73.5 776,-73.5 776,-55.5 690,-55.5"/>
<text text-anchor="middle" x="733" y="-62.3" font-family="Helvetica,sans-Serif" font-size="9.00">Gauss2DsMLE.h</text>
</a>
</g>
</g>
<!-- Node21&#45;&gt;Node25 -->
<g id="edge24" class="edge"><title>Node21&#45;&gt;Node25</title>
<path fill="none" stroke="midnightblue" d="M649.682,-106.013C670.263,-96.0052 698.541,-82.2551 716.289,-73.6253"/>
<polygon fill="midnightblue" stroke="midnightblue" points="648.017,-102.93 640.555,-110.45 651.079,-109.225 648.017,-102.93"/>
</g>
<!-- Node24 -->
<g id="node24" class="node"><title>Node24</title>
<g id="a_node24"><a xlink:href="Gauss2DsMAP_8cpp.html" target="_top" xlink:title="The class definition and template Specializations for Gauss2DsMAP. ">
<polygon fill="white" stroke="black" points="573,-0.5 573,-18.5 669,-18.5 669,-0.5 573,-0.5"/>
<text text-anchor="middle" x="621" y="-7.3" font-family="Helvetica,sans-Serif" font-size="9.00">Gauss2DsMAP.cpp</text>
</a>
</g>
</g>
<!-- Node23&#45;&gt;Node24 -->
<g id="edge23" class="edge"><title>Node23&#45;&gt;Node24</title>
<path fill="none" stroke="midnightblue" d="M622.963,-45.1746C622.449,-36.0945 621.854,-25.5949 621.456,-18.5496"/>
<polygon fill="midnightblue" stroke="midnightblue" points="619.472,-45.4326 623.531,-55.2188 626.46,-45.0369 619.472,-45.4326"/>
</g>
<!-- Node26 -->
<g id="node26" class="node"><title>Node26</title>
<g id="a_node26"><a xlink:href="Gauss2DsMLE_8cpp.html" target="_top" xlink:title="The class definition and template Specializations for Gauss2DsMLE. ">
<polygon fill="white" stroke="black" points="687.5,-0.5 687.5,-18.5 782.5,-18.5 782.5,-0.5 687.5,-0.5"/>
<text text-anchor="middle" x="735" y="-7.3" font-family="Helvetica,sans-Serif" font-size="9.00">Gauss2DsMLE.cpp</text>
</a>
</g>
</g>
<!-- Node25&#45;&gt;Node26 -->
<g id="edge25" class="edge"><title>Node25&#45;&gt;Node26</title>
<path fill="none" stroke="midnightblue" d="M733.692,-45.1746C734.034,-36.0945 734.43,-25.5949 734.696,-18.5496"/>
<polygon fill="midnightblue" stroke="midnightblue" points="730.192,-45.0938 733.312,-55.2188 737.187,-45.3579 730.192,-45.0938"/>
</g>
<!-- Node29 -->
<g id="node29" class="node"><title>Node29</title>
<g id="a_node29"><a xlink:href="Gauss1DsMLE_8cpp.html" target="_top" xlink:title="The class definition and template Specializations for Gauss1DsMLE. ">
<polygon fill="white" stroke="black" points="807.5,-110.5 807.5,-128.5 902.5,-128.5 902.5,-110.5 807.5,-110.5"/>
<text text-anchor="middle" x="855" y="-117.3" font-family="Helvetica,sans-Serif" font-size="9.00">Gauss1DsMLE.cpp</text>
</a>
</g>
</g>
<!-- Node28&#45;&gt;Node29 -->
<g id="edge28" class="edge"><title>Node28&#45;&gt;Node29</title>
<path fill="none" stroke="midnightblue" d="M763.43,-161.283C785.948,-151.254 817.205,-137.333 836.756,-128.625"/>
<polygon fill="midnightblue" stroke="midnightblue" points="761.784,-158.185 754.074,-165.45 764.632,-164.579 761.784,-158.185"/>
</g>
<!-- Node30&#45;&gt;Node5 -->
<g id="edge31" class="edge"><title>Node30&#45;&gt;Node5</title>
<path fill="none" stroke="midnightblue" d="M434.043,-217.859C395.048,-207.728 337.221,-192.705 301.94,-183.538"/>
<polygon fill="midnightblue" stroke="midnightblue" points="433.458,-221.323 444.017,-220.45 435.218,-214.548 433.458,-221.323"/>
</g>
<!-- Node30&#45;&gt;Node14 -->
<g id="edge32" class="edge"><title>Node30&#45;&gt;Node14</title>
<path fill="none" stroke="midnightblue" d="M450.229,-215.877C430.615,-205.881 403.801,-192.216 386.944,-183.625"/>
<polygon fill="midnightblue" stroke="midnightblue" points="448.706,-219.028 459.205,-220.45 451.884,-212.791 448.706,-219.028"/>
</g>
<!-- Node30&#45;&gt;Node19 -->
<g id="edge33" class="edge"><title>Node30&#45;&gt;Node19</title>
<path fill="none" stroke="midnightblue" d="M508.456,-217.206C538.418,-207.091 581.613,-192.51 608.188,-183.538"/>
<polygon fill="midnightblue" stroke="midnightblue" points="507.2,-213.936 498.845,-220.45 509.439,-220.568 507.2,-213.936"/>
</g>
<!-- Node30&#45;&gt;Node28 -->
<g id="edge34" class="edge"><title>Node30&#45;&gt;Node28</title>
<path fill="none" stroke="midnightblue" d="M524.561,-218.436C574.448,-208.306 650.411,-192.88 696.415,-183.538"/>
<polygon fill="midnightblue" stroke="midnightblue" points="523.744,-215.03 514.64,-220.45 525.137,-221.89 523.744,-215.03"/>
</g>
<!-- Node31 -->
<g id="node31" class="node"><title>Node31</title>
<g id="a_node31"><a xlink:href="PoissonNoise1DObjective_8cpp.html" target="_top" xlink:title="The class definition and template Specializations for PoissonNoise1DObjective. ">
<polygon fill="white" stroke="black" points="429.5,-165.5 429.5,-183.5 570.5,-183.5 570.5,-165.5 429.5,-165.5"/>
<text text-anchor="middle" x="500" y="-172.3" font-family="Helvetica,sans-Serif" font-size="9.00">PoissonNoise1DObjective.cpp</text>
</a>
</g>
</g>
<!-- Node30&#45;&gt;Node31 -->
<g id="edge30" class="edge"><title>Node30&#45;&gt;Node31</title>
<path fill="none" stroke="midnightblue" d="M483.223,-211.068C487.599,-201.791 492.77,-190.827 496.203,-183.55"/>
<polygon fill="midnightblue" stroke="midnightblue" points="480.007,-209.681 478.906,-220.219 486.338,-212.668 480.007,-209.681"/>
</g>
</g>
</svg>
        <g id="navigator" transform="translate(0 0)" fill="#404254">
                <rect fill="#f2f5e9" fill-opacity="0.5" stroke="#606060" stroke-width=".5" x="0" y="0" width="60" height="60"/>
                <use id="zoomplus" xlink:href="#zoomPlus" x="17" y="9" onmousedown="handleZoom(evt,'in')"/>
                <use id="zoomminus" xlink:href="#zoomMin" x="42" y="9" onmousedown="handleZoom(evt,'out')"/>
                <use id="reset" xlink:href="#resetDef" x="30" y="36" onmousedown="handleReset()"/>
                <g id="arrowUp" xlink:href="#dirArrow" transform="translate(30 24)" onmousedown="handlePan(0,-1)">
                  <use xlink:href="#rim" fill="#404040">
                        <set attributeName="fill" to="#808080" begin="arrowUp.mouseover" end="arrowUp.mouseout"/>
                  </use>
                  <path fill="none" stroke="white" stroke-width="1.5" d="M0,-3.0v7 M-2.5,-0.5L0,-3.0L2.5,-0.5"/>
                </g>
                <g id="arrowRight" xlink:href="#dirArrow" transform="rotate(90) translate(36 -43)" onmousedown="handlePan(1,0)">
                  <use xlink:href="#rim" fill="#404040">
                        <set attributeName="fill" to="#808080" begin="arrowRight.mouseover" end="arrowRight.mouseout"/>
                  </use>
                  <path fill="none" stroke="white" stroke-width="1.5" d="M0,-3.0v7 M-2.5,-0.5L0,-3.0L2.5,-0.5"/>
                </g>
                <g id="arrowDown" xlink:href="#dirArrow" transform="rotate(180) translate(-30 -48)" onmousedown="handlePan(0,1)">
                  <use xlink:href="#rim" fill="#404040">
                        <set attributeName="fill" to="#808080" begin="arrowDown.mouseover" end="arrowDown.mouseout"/>
                  </use>
                  <path fill="none" stroke="white" stroke-width="1.5" d="M0,-3.0v7 M-2.5,-0.5L0,-3.0L2.5,-0.5"/>
                </g>
                <g id="arrowLeft" xlink:href="#dirArrow" transform="rotate(270) translate(-36 17)" onmousedown="handlePan(-1,0)">
                  <use xlink:href="#rim" fill="#404040">
                        <set attributeName="fill" to="#808080" begin="arrowLeft.mouseover" end="arrowLeft.mouseout"/>
                  </use>
                  <path fill="none" stroke="white" stroke-width="1.5" d="M0,-3.0v7 M-2.5,-0.5L0,-3.0L2.5,-0.5"/>
                </g>
        </g>
        <svg viewBox="0 0 15 15" width="100%" height="30px" preserveAspectRatio="xMaxYMin meet">
         <g id="arrow_out" transform="scale(0.3 0.3)">
          <a xlink:href="ImageFormat1DBase_8h__dep__incl_org.svg" target="_base">
           <rect id="button" ry="5" rx="5" y="6" x="6" height="38" width="38"
                fill="#f2f5e9" fill-opacity="0.5" stroke="#606060" stroke-width="1.0"/>
           <path id="arrow"
             d="M 11.500037,31.436501 C 11.940474,20.09759 22.043105,11.32322 32.158766,21.979434 L 37.068811,17.246167 C 37.068811,17.246167 37.088388,32 37.088388,32 L 22.160133,31.978069 C 22.160133,31.978069 26.997745,27.140456 26.997745,27.140456 C 18.528582,18.264221 13.291696,25.230495 11.500037,31.436501 z"
             style="fill:#404040;"/>
          </a>
         </g>
        </svg>
</svg>
