<?xml version="1.0" encoding="UTF-8" standalone="no"?>
<!DOCTYPE svg PUBLIC "-//W3C//DTD SVG 1.1//EN"
 "http://www.w3.org/Graphics/SVG/1.1/DTD/svg11.dtd">
<!-- Generated by graphviz version 2.38.0 (20140413.2041)
 -->
<!-- Title: Graphical Class Hierarchy Pages: 1 -->
<svg width="982pt" height="462pt"
 viewBox="0.00 0.00 982.00 461.54" xmlns="http://www.w3.org/2000/svg" xmlns:xlink="http://www.w3.org/1999/xlink">
<g id="graph0" class="graph" transform="scale(1 1) rotate(0) translate(4 457.545)">
<title>Graphical Class Hierarchy</title>
<polygon fill="white" stroke="none" points="-4,4 -4,-457.545 978,-457.545 978,4 -4,4"/>
<!-- Node1 -->
<g id="node1" class="node"><title>Node1</title>
<g id="a_node1"><a xlink:href="classmappel_1_1ImageFormat1DBase.html" target="_top" xlink:title="A virtual base class for 2D image localization objectives. ">
<polygon fill="white" stroke="black" points="331,-362.045 331,-380.045 470,-380.045 470,-362.045 331,-362.045"/>
<text text-anchor="middle" x="400.5" y="-368.845" font-family="Helvetica,sans-Serif" font-size="9.00">mappel::ImageFormat1DBase</text>
</a>
</g>
</g>
<!-- Node2 -->
<g id="node2" class="node"><title>Node2</title>
<g id="a_node2"><a xlink:href="classmappel_1_1Gauss1DModel.html" target="_top" xlink:title="A base class for 1D Gaussian PSF with a fixed sigma (standard dev.) ">
<polygon fill="white" stroke="black" points="527.5,-324.045 527.5,-342.045 643.5,-342.045 643.5,-324.045 527.5,-324.045"/>
<text text-anchor="middle" x="585.5" y="-330.845" font-family="Helvetica,sans-Serif" font-size="9.00">mappel::Gauss1DModel</text>
</a>
</g>
</g>
<!-- Node1&#45;&gt;Node2 -->
<g id="edge1" class="edge"><title>Node1&#45;&gt;Node2</title>
<path fill="none" stroke="midnightblue" d="M454.707,-359.996C482.166,-354.295 515.238,-347.427 541.126,-342.052"/>
<polygon fill="midnightblue" stroke="midnightblue" points="453.948,-356.579 444.868,-362.039 455.371,-363.433 453.948,-356.579"/>
</g>
<!-- Node6 -->
<g id="node6" class="node"><title>Node6</title>
<g id="a_node6"><a xlink:href="classmappel_1_1Gauss1DsModel.html" target="_top" xlink:title="Base class for 1D Gaussian PSF with variable Gaussian sigma (standard deviation) measured in units of...">
<polygon fill="white" stroke="black" points="525.5,-399.045 525.5,-417.045 645.5,-417.045 645.5,-399.045 525.5,-399.045"/>
<text text-anchor="middle" x="585.5" y="-405.845" font-family="Helvetica,sans-Serif" font-size="9.00">mappel::Gauss1DsModel</text>
</a>
</g>
</g>
<!-- Node1&#45;&gt;Node6 -->
<g id="edge5" class="edge"><title>Node1&#45;&gt;Node6</title>
<path fill="none" stroke="midnightblue" d="M456.234,-382.111C482.942,-387.511 514.664,-393.925 539.879,-399.023"/>
<polygon fill="midnightblue" stroke="midnightblue" points="456.762,-378.647 446.267,-380.096 455.375,-385.509 456.762,-378.647"/>
</g>
<!-- Node9 -->
<g id="node9" class="node"><title>Node9</title>
<g id="a_node9"><a xlink:href="classmappel_1_1PoissonNoise1DObjective.html" target="_top" xlink:title="A base class for 1D objectives with Poisson read noise. This objective function and its subclasses ar...">
<polygon fill="white" stroke="black" points="506,-361.045 506,-379.045 665,-379.045 665,-361.045 506,-361.045"/>
<text text-anchor="middle" x="585.5" y="-367.845" font-family="Helvetica,sans-Serif" font-size="9.00">mappel::PoissonNoise1DObjective</text>
</a>
</g>
</g>
<!-- Node1&#45;&gt;Node9 -->
<g id="edge8" class="edge"><title>Node1&#45;&gt;Node9</title>
<path fill="none" stroke="midnightblue" d="M480.39,-370.614C488.85,-370.568 497.457,-370.521 505.914,-370.474"/>
<polygon fill="midnightblue" stroke="midnightblue" points="480.144,-367.115 470.163,-370.67 480.182,-374.115 480.144,-367.115"/>
</g>
<!-- Node3 -->
<g id="node3" class="node"><title>Node3</title>
<g id="a_node3"><a xlink:href="classmappel_1_1Gauss1DMAP.html" target="_top" xlink:title="A 1D Gaussian with fixed PSF under an Poisson Read Noise assumption and MAP Objective. ">
<polygon fill="white" stroke="black" points="707.5,-324.045 707.5,-342.045 817.5,-342.045 817.5,-324.045 707.5,-324.045"/>
<text text-anchor="middle" x="762.5" y="-330.845" font-family="Helvetica,sans-Serif" font-size="9.00">mappel::Gauss1DMAP</text>
</a>
</g>
</g>
<!-- Node2&#45;&gt;Node3 -->
<g id="edge2" class="edge"><title>Node2&#45;&gt;Node3</title>
<path fill="none" stroke="midnightblue" d="M654.038,-333.045C671.689,-333.045 690.484,-333.045 707.339,-333.045"/>
<polygon fill="midnightblue" stroke="midnightblue" points="653.802,-329.545 643.802,-333.045 653.802,-336.545 653.802,-329.545"/>
</g>
<!-- Node4 -->
<g id="node4" class="node"><title>Node4</title>
<g id="a_node4"><a xlink:href="classmappel_1_1Gauss1DMLE.html" target="_top" xlink:title="A 1D Gaussian with fixed PSF under an Poisson noise assumption and maximum&#45;likelihood objective...">
<polygon fill="white" stroke="black" points="708,-287.045 708,-305.045 817,-305.045 817,-287.045 708,-287.045"/>
<text text-anchor="middle" x="762.5" y="-293.845" font-family="Helvetica,sans-Serif" font-size="9.00">mappel::Gauss1DMLE</text>
</a>
</g>
</g>
<!-- Node2&#45;&gt;Node4 -->
<g id="edge3" class="edge"><title>Node2&#45;&gt;Node4</title>
<path fill="none" stroke="midnightblue" d="M639.179,-321.907C664.649,-316.522 694.823,-310.142 718.829,-305.067"/>
<polygon fill="midnightblue" stroke="midnightblue" points="638.37,-318.501 629.31,-323.994 639.818,-325.349 638.37,-318.501"/>
</g>
<!-- Node5 -->
<g id="node5" class="node"><title>Node5</title>
<g id="a_node5"><a xlink:href="classmappel_1_1Gauss2DsxyMAP.html" target="_top" xlink:title="A 1D Gaussian with fixed PSF under an Poisson Read Noise assumption and MAP Objective. ">
<polygon fill="white" stroke="black" points="701,-361.045 701,-379.045 824,-379.045 824,-361.045 701,-361.045"/>
<text text-anchor="middle" x="762.5" y="-367.845" font-family="Helvetica,sans-Serif" font-size="9.00">mappel::Gauss2DsxyMAP</text>
</a>
</g>
</g>
<!-- Node2&#45;&gt;Node5 -->
<g id="edge4" class="edge"><title>Node2&#45;&gt;Node5</title>
<path fill="none" stroke="midnightblue" d="M639.179,-344.183C664.649,-349.568 694.823,-355.948 718.829,-361.023"/>
<polygon fill="midnightblue" stroke="midnightblue" points="639.818,-340.74 629.31,-342.096 638.37,-347.589 639.818,-340.74"/>
</g>
<!-- Node7 -->
<g id="node7" class="node"><title>Node7</title>
<g id="a_node7"><a xlink:href="classmappel_1_1Gauss1DsMAP.html" target="_top" xlink:title="A 1D Gaussian with variable PSF sigma under an Poisson read noise assumption and MAP Objective...">
<polygon fill="white" stroke="black" points="705.5,-435.045 705.5,-453.045 819.5,-453.045 819.5,-435.045 705.5,-435.045"/>
<text text-anchor="middle" x="762.5" y="-441.845" font-family="Helvetica,sans-Serif" font-size="9.00">mappel::Gauss1DsMAP</text>
</a>
</g>
</g>
<!-- Node6&#45;&gt;Node7 -->
<g id="edge6" class="edge"><title>Node6&#45;&gt;Node7</title>
<path fill="none" stroke="midnightblue" d="M640.624,-419.179C665.369,-424.269 694.303,-430.222 717.658,-435.026"/>
<polygon fill="midnightblue" stroke="midnightblue" points="641.16,-415.716 630.66,-417.129 639.75,-422.573 641.16,-415.716"/>
</g>
<!-- Node8 -->
<g id="node8" class="node"><title>Node8</title>
<g id="a_node8"><a xlink:href="classmappel_1_1Gauss1DsMLE.html" target="_top" xlink:title="A 1D Gaussian with variable PSF under an Poisson noise assumption and maximum&#45;likelihood estimator...">
<polygon fill="white" stroke="black" points="706,-398.045 706,-416.045 819,-416.045 819,-398.045 706,-398.045"/>
<text text-anchor="middle" x="762.5" y="-404.845" font-family="Helvetica,sans-Serif" font-size="9.00">mappel::Gauss1DsMLE</text>
</a>
</g>
</g>
<!-- Node6&#45;&gt;Node8 -->
<g id="edge7" class="edge"><title>Node6&#45;&gt;Node8</title>
<path fill="none" stroke="midnightblue" d="M655.93,-407.648C672.509,-407.553 689.993,-407.454 705.858,-407.363"/>
<polygon fill="midnightblue" stroke="midnightblue" points="655.727,-404.149 645.747,-407.706 655.767,-411.149 655.727,-404.149"/>
</g>
<!-- Node9&#45;&gt;Node3 -->
<g id="edge9" class="edge"><title>Node9&#45;&gt;Node3</title>
<path fill="none" stroke="midnightblue" d="M639.179,-358.907C664.649,-353.522 694.823,-347.142 718.829,-342.067"/>
<polygon fill="midnightblue" stroke="midnightblue" points="638.37,-355.501 629.31,-360.994 639.818,-362.349 638.37,-355.501"/>
</g>
<!-- Node9&#45;&gt;Node4 -->
<g id="edge10" class="edge"><title>Node9&#45;&gt;Node4</title>
<path fill="none" stroke="midnightblue" d="M650.837,-357.695C655.764,-355.787 660.547,-353.585 665,-351.045 684.931,-339.679 681.37,-325.923 701,-314.045 707.001,-310.414 713.782,-307.474 720.579,-305.106"/>
<polygon fill="midnightblue" stroke="midnightblue" points="649.54,-354.44 641.233,-361.016 651.828,-361.056 649.54,-354.44"/>
</g>
<!-- Node9&#45;&gt;Node5 -->
<g id="edge13" class="edge"><title>Node9&#45;&gt;Node5</title>
<path fill="none" stroke="midnightblue" d="M675.195,-370.045C683.856,-370.045 692.501,-370.045 700.79,-370.045"/>
<polygon fill="midnightblue" stroke="midnightblue" points="675.042,-366.545 665.042,-370.045 675.042,-373.545 675.042,-366.545"/>
</g>
<!-- Node9&#45;&gt;Node7 -->
<g id="edge11" class="edge"><title>Node9&#45;&gt;Node7</title>
<path fill="none" stroke="midnightblue" d="M650.799,-382.462C655.734,-384.356 660.529,-386.536 665,-389.045 684.732,-400.119 681.649,-413.317 701,-425.045 707.685,-429.096 715.315,-432.362 722.853,-434.966"/>
<polygon fill="midnightblue" stroke="midnightblue" points="651.778,-379.098 641.183,-379.162 649.505,-385.719 651.778,-379.098"/>
</g>
<!-- Node9&#45;&gt;Node8 -->
<g id="edge12" class="edge"><title>Node9&#45;&gt;Node8</title>
<path fill="none" stroke="midnightblue" d="M639.179,-381.183C664.649,-386.568 694.823,-392.948 718.829,-398.023"/>
<polygon fill="midnightblue" stroke="midnightblue" points="639.818,-377.74 629.31,-379.096 638.37,-384.589 639.818,-377.74"/>
</g>
<!-- Node10 -->
<g id="node10" class="node"><title>Node10</title>
<g id="a_node10"><a xlink:href="classmappel_1_1ImageFormat2DBase.html" target="_top" xlink:title="A virtual base class for 2D image localization objectives. ">
<polygon fill="white" stroke="black" points="331,-87.0449 331,-105.045 470,-105.045 470,-87.0449 331,-87.0449"/>
<text text-anchor="middle" x="400.5" y="-93.8449" font-family="Helvetica,sans-Serif" font-size="9.00">mappel::ImageFormat2DBase</text>
</a>
</g>
</g>
<!-- Node11 -->
<g id="node11" class="node"><title>Node11</title>
<g id="a_node11"><a xlink:href="classmappel_1_1Gauss2DModel.html" target="_top" xlink:title="A base class for 2D Gaussian PSF with fixed but possibly asymmetric sigma. ">
<polygon fill="white" stroke="black" points="527.5,-173.045 527.5,-191.045 643.5,-191.045 643.5,-173.045 527.5,-173.045"/>
<text text-anchor="middle" x="585.5" y="-179.845" font-family="Helvetica,sans-Serif" font-size="9.00">mappel::Gauss2DModel</text>
</a>
</g>
</g>
<!-- Node10&#45;&gt;Node11 -->
<g id="edge14" class="edge"><title>Node10&#45;&gt;Node11</title>
<path fill="none" stroke="midnightblue" d="M434.153,-109.284C445.895,-114.679 458.957,-121.443 470,-129.045 488.128,-141.524 486.656,-152.549 506,-163.045 513.641,-167.191 522.186,-170.443 530.748,-172.992"/>
<polygon fill="midnightblue" stroke="midnightblue" points="435.235,-105.936 424.675,-105.087 432.401,-112.336 435.235,-105.936"/>
</g>
<!-- Node14 -->
<g id="node14" class="node"><title>Node14</title>
<g id="a_node14"><a xlink:href="classmappel_1_1Gauss2DsModel.html" target="_top" xlink:title="A base class for 2D Gaussian PSF where the gaussian sigma is controlled by a single scalar parameter ...">
<polygon fill="white" stroke="black" points="702.5,-22.0449 702.5,-40.0449 822.5,-40.0449 822.5,-22.0449 702.5,-22.0449"/>
<text text-anchor="middle" x="762.5" y="-28.8449" font-family="Helvetica,sans-Serif" font-size="9.00">mappel::Gauss2DsModel</text>
</a>
</g>
</g>
<!-- Node10&#45;&gt;Node14 -->
<g id="edge17" class="edge"><title>Node10&#45;&gt;Node14</title>
<path fill="none" stroke="midnightblue" d="M465.063,-85.3438C518.477,-76.2567 596.8,-62.7104 665,-50.0449 681.788,-46.9272 700.185,-43.3461 716.373,-40.1392"/>
<polygon fill="midnightblue" stroke="midnightblue" points="464.328,-81.9184 455.056,-87.0438 465.501,-88.8196 464.328,-81.9184"/>
</g>
<!-- Node17 -->
<g id="node17" class="node"><title>Node17</title>
<g id="a_node17"><a xlink:href="classmappel_1_1Gauss2DsxyModel.html" target="_top" xlink:title="A base class for 2D Gaussian PSF with axis&#45;aligned gaussian with free parameters for both sigma_x and...">
<polygon fill="white" stroke="black" points="521,-23.0449 521,-41.0449 650,-41.0449 650,-23.0449 521,-23.0449"/>
<text text-anchor="middle" x="585.5" y="-29.8449" font-family="Helvetica,sans-Serif" font-size="9.00">mappel::Gauss2DsxyModel</text>
</a>
</g>
</g>
<!-- Node10&#45;&gt;Node17 -->
<g id="edge20" class="edge"><title>Node10&#45;&gt;Node17</title>
<path fill="none" stroke="midnightblue" d="M433.278,-83.2278C453.88,-75.0807 481.372,-64.5121 506,-56.0449 521.364,-50.7629 538.611,-45.4259 553.017,-41.1304"/>
<polygon fill="midnightblue" stroke="midnightblue" points="431.759,-80.0652 423.76,-87.0129 434.346,-86.5697 431.759,-80.0652"/>
</g>
<!-- Node18 -->
<g id="node18" class="node"><title>Node18</title>
<g id="a_node18"><a xlink:href="classmappel_1_1PoissonNoise2DObjective.html" target="_top" xlink:title="A base class for 2D objectives with Poisson read noise. This objective function and its subclasses ar...">
<polygon fill="white" stroke="black" points="506,-136.045 506,-154.045 665,-154.045 665,-136.045 506,-136.045"/>
<text text-anchor="middle" x="585.5" y="-142.845" font-family="Helvetica,sans-Serif" font-size="9.00">mappel::PoissonNoise2DObjective</text>
</a>
</g>
</g>
<!-- Node10&#45;&gt;Node18 -->
<g id="edge21" class="edge"><title>Node10&#45;&gt;Node18</title>
<path fill="none" stroke="midnightblue" d="M441.33,-107.906C460.779,-113.588 484.556,-120.374 506,-126.045 518.878,-129.45 533.009,-132.945 545.689,-135.993"/>
<polygon fill="midnightblue" stroke="midnightblue" points="442.17,-104.505 431.589,-105.046 440.198,-111.221 442.17,-104.505"/>
</g>
<!-- Node12 -->
<g id="node12" class="node"><title>Node12</title>
<g id="a_node12"><a xlink:href="classmappel_1_1Gauss2DMAP.html" target="_top" xlink:title="A 2D Gaussian with fixed PSF under an Poisson Read Noise assumption and MAP Objective. ">
<polygon fill="white" stroke="black" points="707.5,-173.045 707.5,-191.045 817.5,-191.045 817.5,-173.045 707.5,-173.045"/>
<text text-anchor="middle" x="762.5" y="-179.845" font-family="Helvetica,sans-Serif" font-size="9.00">mappel::Gauss2DMAP</text>
</a>
</g>
</g>
<!-- Node11&#45;&gt;Node12 -->
<g id="edge15" class="edge"><title>Node11&#45;&gt;Node12</title>
<path fill="none" stroke="midnightblue" d="M654.038,-182.045C671.689,-182.045 690.484,-182.045 707.339,-182.045"/>
<polygon fill="midnightblue" stroke="midnightblue" points="653.802,-178.545 643.802,-182.045 653.802,-185.545 653.802,-178.545"/>
</g>
<!-- Node13 -->
<g id="node13" class="node"><title>Node13</title>
<g id="a_node13"><a xlink:href="classmappel_1_1Gauss2DMLE.html" target="_top" xlink:title="A 2D Gaussian with fixed PSF under an Poisson noise assumption and maximum&#45;likelihood objective...">
<polygon fill="white" stroke="black" points="708,-136.045 708,-154.045 817,-154.045 817,-136.045 708,-136.045"/>
<text text-anchor="middle" x="762.5" y="-142.845" font-family="Helvetica,sans-Serif" font-size="9.00">mappel::Gauss2DMLE</text>
</a>
</g>
</g>
<!-- Node11&#45;&gt;Node13 -->
<g id="edge16" class="edge"><title>Node11&#45;&gt;Node13</title>
<path fill="none" stroke="midnightblue" d="M639.179,-170.907C664.649,-165.522 694.823,-159.142 718.829,-154.067"/>
<polygon fill="midnightblue" stroke="midnightblue" points="638.37,-167.501 629.31,-172.994 639.818,-174.349 638.37,-167.501"/>
</g>
<!-- Node15 -->
<g id="node15" class="node"><title>Node15</title>
<g id="a_node15"><a xlink:href="classmappel_1_1Gauss2DsMAP.html" target="_top" xlink:title="A 2D Gaussian with a variable scalar PSF sigma under a Poisson noise assumption using a maximum a&#45;pos...">
<polygon fill="white" stroke="black" points="860,-98.0449 860,-116.045 974,-116.045 974,-98.0449 860,-98.0449"/>
<text text-anchor="middle" x="917" y="-104.845" font-family="Helvetica,sans-Serif" font-size="9.00">mappel::Gauss2DsMAP</text>
</a>
</g>
</g>
<!-- Node14&#45;&gt;Node15 -->
<g id="edge18" class="edge"><title>Node14&#45;&gt;Node15</title>
<path fill="none" stroke="midnightblue" d="M786.057,-45.7209C805.222,-57.7988 833.726,-74.8543 860,-87.0449 868.709,-91.0859 878.481,-94.8303 887.394,-97.9603"/>
<polygon fill="midnightblue" stroke="midnightblue" points="787.763,-42.6582 777.449,-40.2347 784.001,-48.5611 787.763,-42.6582"/>
</g>
<!-- Node16 -->
<g id="node16" class="node"><title>Node16</title>
<g id="a_node16"><a xlink:href="classmappel_1_1Gauss2DsMLE.html" target="_top" xlink:title="A 2D Gaussian with a variable scalar PSF sigma under a Poisson noise assumption using a maximum&#45;likel...">
<polygon fill="white" stroke="black" points="860.5,-60.0449 860.5,-78.0449 973.5,-78.0449 973.5,-60.0449 860.5,-60.0449"/>
<text text-anchor="middle" x="917" y="-66.8449" font-family="Helvetica,sans-Serif" font-size="9.00">mappel::Gauss2DsMLE</text>
</a>
</g>
</g>
<!-- Node14&#45;&gt;Node16 -->
<g id="edge19" class="edge"><title>Node14&#45;&gt;Node16</title>
<path fill="none" stroke="midnightblue" d="M809.351,-42.4702C831.927,-48.0957 858.755,-54.7806 879.855,-60.0383"/>
<polygon fill="midnightblue" stroke="midnightblue" points="810.19,-39.0722 799.64,-40.0504 808.497,-45.8645 810.19,-39.0722"/>
</g>
<!-- Node18&#45;&gt;Node12 -->
<g id="edge22" class="edge"><title>Node18&#45;&gt;Node12</title>
<path fill="none" stroke="midnightblue" d="M639.179,-156.183C664.649,-161.568 694.823,-167.948 718.829,-173.023"/>
<polygon fill="midnightblue" stroke="midnightblue" points="639.818,-152.74 629.31,-154.096 638.37,-159.589 639.818,-152.74"/>
</g>
<!-- Node18&#45;&gt;Node13 -->
<g id="edge23" class="edge"><title>Node18&#45;&gt;Node13</title>
<path fill="none" stroke="midnightblue" d="M675.234,-145.045C686.346,-145.045 697.432,-145.045 707.774,-145.045"/>
<polygon fill="midnightblue" stroke="midnightblue" points="675.042,-141.545 665.042,-145.045 675.042,-148.545 675.042,-141.545"/>
</g>
<!-- Node18&#45;&gt;Node15 -->
<g id="edge24" class="edge"><title>Node18&#45;&gt;Node15</title>
<path fill="none" stroke="midnightblue" d="M645.882,-134.307C663.576,-131.346 683.036,-128.326 701,-126.045 754.716,-119.225 816.292,-114.05 859.741,-110.837"/>
<polygon fill="midnightblue" stroke="midnightblue" points="644.966,-130.912 635.693,-136.036 646.138,-137.813 644.966,-130.912"/>
</g>
<!-- Node18&#45;&gt;Node16 -->
<g id="edge25" class="edge"><title>Node18&#45;&gt;Node16</title>
<path fill="none" stroke="midnightblue" d="M639.92,-133.492C648.385,-131.268 656.985,-128.771 665,-126.045 681.577,-120.407 684.29,-115.275 701,-110.045 753.946,-93.4735 816.43,-82.4684 860.353,-76.0704"/>
<polygon fill="midnightblue" stroke="midnightblue" points="638.928,-130.133 630.09,-135.976 640.642,-136.92 638.928,-130.133"/>
</g>
<!-- Node19 -->
<g id="node19" class="node"><title>Node19</title>
<g id="a_node19"><a xlink:href="classmappel_1_1MCMCAdaptorBase.html" target="_top" xlink:title="mappel::MCMCAdaptorBase">
<polygon fill="white" stroke="black" points="0,-324.045 0,-342.045 134,-342.045 134,-324.045 0,-324.045"/>
<text text-anchor="middle" x="67" y="-330.845" font-family="Helvetica,sans-Serif" font-size="9.00">mappel::MCMCAdaptorBase</text>
</a>
</g>
</g>
<!-- Node20 -->
<g id="node20" class="node"><title>Node20</title>
<g id="a_node20"><a xlink:href="classmappel_1_1MCMCAdaptor1D.html" target="_top" xlink:title="mappel::MCMCAdaptor1D">
<polygon fill="white" stroke="black" points="170,-324.045 170,-342.045 295,-342.045 295,-324.045 170,-324.045"/>
<text text-anchor="middle" x="232.5" y="-330.845" font-family="Helvetica,sans-Serif" font-size="9.00">mappel::MCMCAdaptor1D</text>
</a>
</g>
</g>
<!-- Node19&#45;&gt;Node20 -->
<g id="edge26" class="edge"><title>Node19&#45;&gt;Node20</title>
<path fill="none" stroke="midnightblue" d="M144.137,-333.045C152.799,-333.045 161.545,-333.045 169.984,-333.045"/>
<polygon fill="midnightblue" stroke="midnightblue" points="144.03,-329.545 134.03,-333.045 144.03,-336.545 144.03,-329.545"/>
</g>
<!-- Node20&#45;&gt;Node2 -->
<g id="edge27" class="edge"><title>Node20&#45;&gt;Node2</title>
<path fill="none" stroke="midnightblue" d="M305.31,-333.045C370.967,-333.045 466.813,-333.045 527.394,-333.045"/>
<polygon fill="midnightblue" stroke="midnightblue" points="305.041,-329.545 295.041,-333.045 305.041,-336.545 305.041,-329.545"/>
</g>
<!-- Node21 -->
<g id="node21" class="node"><title>Node21</title>
<g id="a_node21"><a xlink:href="classmappel_1_1MCMCAdaptor1Ds.html" target="_top" xlink:title="mappel::MCMCAdaptor1Ds">
<polygon fill="white" stroke="black" points="336,-399.045 336,-417.045 465,-417.045 465,-399.045 336,-399.045"/>
<text text-anchor="middle" x="400.5" y="-405.845" font-family="Helvetica,sans-Serif" font-size="9.00">mappel::MCMCAdaptor1Ds</text>
</a>
</g>
</g>
<!-- Node20&#45;&gt;Node21 -->
<g id="edge28" class="edge"><title>Node20&#45;&gt;Node21</title>
<path fill="none" stroke="midnightblue" d="M255.431,-347.78C274.674,-360.178 303.76,-377.657 331,-389.045 340.223,-392.901 350.467,-396.218 360.163,-398.953"/>
<polygon fill="midnightblue" stroke="midnightblue" points="257.112,-344.697 246.827,-342.151 253.279,-350.555 257.112,-344.697"/>
</g>
<!-- Node22 -->
<g id="node22" class="node"><title>Node22</title>
<g id="a_node22"><a xlink:href="classmappel_1_1MCMCAdaptor2D.html" target="_top" xlink:title="mappel::MCMCAdaptor2D">
<polygon fill="white" stroke="black" points="338,-172.045 338,-190.045 463,-190.045 463,-172.045 338,-172.045"/>
<text text-anchor="middle" x="400.5" y="-178.845" font-family="Helvetica,sans-Serif" font-size="9.00">mappel::MCMCAdaptor2D</text>
</a>
</g>
</g>
<!-- Node20&#45;&gt;Node22 -->
<g id="edge30" class="edge"><title>Node20&#45;&gt;Node22</title>
<path fill="none" stroke="midnightblue" d="M250.848,-317.16C285.433,-285.491 361.997,-215.385 389.455,-190.243"/>
<polygon fill="midnightblue" stroke="midnightblue" points="248.399,-314.657 243.387,-323.992 253.126,-319.82 248.399,-314.657"/>
</g>
<!-- Node21&#45;&gt;Node6 -->
<g id="edge29" class="edge"><title>Node21&#45;&gt;Node6</title>
<path fill="none" stroke="midnightblue" d="M475.444,-408.045C492.019,-408.045 509.392,-408.045 525.277,-408.045"/>
<polygon fill="midnightblue" stroke="midnightblue" points="475.248,-404.545 465.248,-408.045 475.248,-411.545 475.248,-404.545"/>
</g>
<!-- Node22&#45;&gt;Node11 -->
<g id="edge31" class="edge"><title>Node22&#45;&gt;Node11</title>
<path fill="none" stroke="midnightblue" d="M473.328,-181.437C491.267,-181.535 510.266,-181.639 527.386,-181.733"/>
<polygon fill="midnightblue" stroke="midnightblue" points="473.219,-177.937 463.2,-181.382 473.181,-184.937 473.219,-177.937"/>
</g>
<!-- Node23 -->
<g id="node23" class="node"><title>Node23</title>
<g id="a_node23"><a xlink:href="classmappel_1_1MCMCAdaptor2Ds.html" target="_top" xlink:title="mappel::MCMCAdaptor2Ds">
<polygon fill="white" stroke="black" points="521,-99.0449 521,-117.045 650,-117.045 650,-99.0449 521,-99.0449"/>
<text text-anchor="middle" x="585.5" y="-105.845" font-family="Helvetica,sans-Serif" font-size="9.00">mappel::MCMCAdaptor2Ds</text>
</a>
</g>
</g>
<!-- Node22&#45;&gt;Node23 -->
<g id="edge32" class="edge"><title>Node22&#45;&gt;Node23</title>
<path fill="none" stroke="midnightblue" d="M424.505,-166.703C445.16,-154.377 476.66,-136.92 506,-126.045 515.571,-122.498 526.066,-119.51 536.181,-117.051"/>
<polygon fill="midnightblue" stroke="midnightblue" points="422.563,-163.787 415.825,-171.962 426.191,-169.773 422.563,-163.787"/>
</g>
<!-- Node23&#45;&gt;Node14 -->
<g id="edge33" class="edge"><title>Node23&#45;&gt;Node14</title>
<path fill="none" stroke="midnightblue" d="M636.125,-96.0177C645.97,-92.768 656.028,-88.8005 665,-84.0449 683.153,-74.4226 683.251,-65.394 701,-55.0449 711.152,-49.1255 723.04,-44.0547 733.579,-40.1199"/>
<polygon fill="midnightblue" stroke="midnightblue" points="634.915,-92.7283 626.399,-99.0308 636.987,-99.4148 634.915,-92.7283"/>
</g>
<!-- Node24 -->
<g id="node24" class="node"><title>Node24</title>
<g id="a_node24"><a xlink:href="classmappel_1_1PointEmitterModel.html" target="_top" xlink:title="A virtual Base type for point emitter localization models. ">
<polygon fill="white" stroke="black" points="3.5,-229.045 3.5,-247.045 130.5,-247.045 130.5,-229.045 3.5,-229.045"/>
<text text-anchor="middle" x="67" y="-235.845" font-family="Helvetica,sans-Serif" font-size="9.00">mappel::PointEmitterModel</text>
</a>
</g>
</g>
<!-- Node24&#45;&gt;Node2 -->
<g id="edge34" class="edge"><title>Node24&#45;&gt;Node2</title>
<path fill="none" stroke="midnightblue" d="M108.945,-249.846C127.488,-254.942 149.747,-260.714 170,-265.045 296.577,-292.115 446.897,-314.337 527.184,-325.42"/>
<polygon fill="midnightblue" stroke="midnightblue" points="109.634,-246.405 99.0622,-247.099 107.759,-253.15 109.634,-246.405"/>
</g>
<!-- Node24&#45;&gt;Node6 -->
<g id="edge35" class="edge"><title>Node24&#45;&gt;Node6</title>
<path fill="none" stroke="midnightblue" d="M82.7393,-255.113C108.487,-284.816 159.891,-343.577 170,-351.045 233.494,-397.948 253.929,-408.974 331,-426.045 407.031,-442.885 498.723,-427.948 548.339,-417.047"/>
<polygon fill="midnightblue" stroke="midnightblue" points="85.1192,-252.514 75.9287,-247.243 79.8262,-257.095 85.1192,-252.514"/>
</g>
<!-- Node24&#45;&gt;Node11 -->
<g id="edge36" class="edge"><title>Node24&#45;&gt;Node11</title>
<path fill="none" stroke="midnightblue" d="M100.539,-225.412C149.59,-207.114 245.811,-174.107 331,-162.045 392.168,-153.384 408.453,-156.71 470,-162.045 494.426,-164.162 521.458,-168.775 543.121,-173.037"/>
<polygon fill="midnightblue" stroke="midnightblue" points="99.2143,-222.17 91.0913,-228.972 101.683,-228.721 99.2143,-222.17"/>
</g>
<!-- Node24&#45;&gt;Node14 -->
<g id="edge37" class="edge"><title>Node24&#45;&gt;Node14</title>
<path fill="none" stroke="midnightblue" d="M75.4837,-219.628C89.3217,-187.903 121.949,-122.994 170,-88.0449 340.829,36.2019 616.773,-1.83549 720.413,-22.0449"/>
<polygon fill="midnightblue" stroke="midnightblue" points="72.182,-218.45 71.5159,-229.024 78.6306,-221.173 72.182,-218.45"/>
</g>
<!-- Node24&#45;&gt;Node17 -->
<g id="edge38" class="edge"><title>Node24&#45;&gt;Node17</title>
<path fill="none" stroke="midnightblue" d="M87.7187,-222.844C107.912,-207.541 140.441,-183.606 170,-165.045 239.061,-121.68 254.066,-104.082 331,-77.0449 393.517,-55.0743 468.64,-43.459 520.803,-37.5735"/>
<polygon fill="midnightblue" stroke="midnightblue" points="85.4426,-220.179 79.6141,-229.026 89.6879,-225.744 85.4426,-220.179"/>
</g>
<!-- Node24&#45;&gt;Node20 -->
<g id="edge45" class="edge"><title>Node24&#45;&gt;Node20</title>
<path fill="none" stroke="midnightblue" d="M86.996,-253.322C106.848,-268.782 139.322,-292.679 170,-309.045 180.82,-314.817 193.339,-319.957 204.247,-323.985"/>
<polygon fill="midnightblue" stroke="midnightblue" points="89.0786,-250.507 79.0587,-247.064 84.7447,-256.004 89.0786,-250.507"/>
</g>
<!-- Node25 -->
<g id="node25" class="node"><title>Node25</title>
<g id="a_node25"><a xlink:href="classmappel_1_1MAPEstimator.html" target="_top" xlink:title="A Mixin class to configure a for MLE estimation (null prior). ">
<polygon fill="white" stroke="black" points="530.5,-268.045 530.5,-286.045 640.5,-286.045 640.5,-268.045 530.5,-268.045"/>
<text text-anchor="middle" x="585.5" y="-274.845" font-family="Helvetica,sans-Serif" font-size="9.00">mappel::MAPEstimator</text>
</a>
</g>
</g>
<!-- Node24&#45;&gt;Node25 -->
<g id="edge39" class="edge"><title>Node24&#45;&gt;Node25</title>
<path fill="none" stroke="midnightblue" d="M140.74,-243.537C245.599,-251.455 436.871,-265.898 530.273,-272.95"/>
<polygon fill="midnightblue" stroke="midnightblue" points="140.794,-240.032 130.559,-242.769 140.267,-247.012 140.794,-240.032"/>
</g>
<!-- Node26 -->
<g id="node26" class="node"><title>Node26</title>
<g id="a_node26"><a xlink:href="classmappel_1_1MLEstimator.html" target="_top" xlink:title="A Mixin class to configure a for MLE estimation (null prior). ">
<polygon fill="white" stroke="black" points="534,-211.045 534,-229.045 637,-229.045 637,-211.045 534,-211.045"/>
<text text-anchor="middle" x="585.5" y="-217.845" font-family="Helvetica,sans-Serif" font-size="9.00">mappel::MLEstimator</text>
</a>
</g>
</g>
<!-- Node24&#45;&gt;Node26 -->
<g id="edge46" class="edge"><title>Node24&#45;&gt;Node26</title>
<path fill="none" stroke="midnightblue" d="M140.864,-235.506C247.032,-231.806 441.595,-225.025 533.653,-221.817"/>
<polygon fill="midnightblue" stroke="midnightblue" points="140.431,-232.019 130.559,-235.865 140.675,-239.014 140.431,-232.019"/>
</g>
<!-- Node25&#45;&gt;Node3 -->
<g id="edge40" class="edge"><title>Node25&#45;&gt;Node3</title>
<path fill="none" stroke="midnightblue" d="M624.011,-289.253C646.355,-296.503 675.281,-305.851 701,-314.045 711.28,-317.32 722.555,-320.872 732.558,-324.009"/>
<polygon fill="midnightblue" stroke="midnightblue" points="624.836,-285.841 614.244,-286.081 622.674,-292.498 624.836,-285.841"/>
</g>
<!-- Node25&#45;&gt;Node5 -->
<g id="edge44" class="edge"><title>Node25&#45;&gt;Node5</title>
<path fill="none" stroke="midnightblue" d="M620.933,-290.081C635.212,-296.28 651.548,-304.446 665,-314.045 683.676,-327.372 681.46,-339.019 701,-351.045 707.657,-355.142 715.275,-358.428 722.809,-361.037"/>
<polygon fill="midnightblue" stroke="midnightblue" points="622.013,-286.739 611.437,-286.111 619.313,-293.198 622.013,-286.739"/>
</g>
<!-- Node25&#45;&gt;Node7 -->
<g id="edge41" class="edge"><title>Node25&#45;&gt;Node7</title>
<path fill="none" stroke="midnightblue" d="M629.388,-289.803C642.305,-295.446 655.546,-303.308 665,-314.045 699.275,-352.968 664.157,-388.544 701,-425.045 705.223,-429.229 710.357,-432.493 715.829,-435.04"/>
<polygon fill="midnightblue" stroke="midnightblue" points="630.682,-286.551 620.098,-286.077 628.076,-293.048 630.682,-286.551"/>
</g>
<!-- Node25&#45;&gt;Node12 -->
<g id="edge42" class="edge"><title>Node25&#45;&gt;Node12</title>
<path fill="none" stroke="midnightblue" d="M614.985,-263.444C629.985,-256.143 648.619,-246.855 665,-238.045 694.342,-222.264 727.817,-202.409 746.626,-191.079"/>
<polygon fill="midnightblue" stroke="midnightblue" points="613.19,-260.424 605.712,-267.93 616.238,-266.726 613.19,-260.424"/>
</g>
<!-- Node25&#45;&gt;Node15 -->
<g id="edge43" class="edge"><title>Node25&#45;&gt;Node15</title>
<path fill="none" stroke="midnightblue" d="M650.732,-277.385C701.345,-274.851 771.833,-264.881 824,-232.045 870.977,-202.476 901.922,-139.554 912.218,-116.104"/>
<polygon fill="midnightblue" stroke="midnightblue" points="650.413,-273.895 640.567,-277.807 650.704,-280.889 650.413,-273.895"/>
</g>
<!-- Node26&#45;&gt;Node4 -->
<g id="edge47" class="edge"><title>Node26&#45;&gt;Node4</title>
<path fill="none" stroke="midnightblue" d="M616.624,-233.127C652.074,-248.523 709.995,-273.677 740.765,-287.04"/>
<polygon fill="midnightblue" stroke="midnightblue" points="617.829,-229.835 607.262,-229.062 615.04,-236.255 617.829,-229.835"/>
</g>
<!-- Node26&#45;&gt;Node8 -->
<g id="edge48" class="edge"><title>Node26&#45;&gt;Node8</title>
<path fill="none" stroke="midnightblue" d="M629.352,-232.983C642.392,-238.788 655.714,-246.91 665,-258.045 703.395,-304.089 659.337,-344.935 701,-388.045 704.978,-392.162 709.837,-395.39 715.053,-397.92"/>
<polygon fill="midnightblue" stroke="midnightblue" points="630.55,-229.692 619.968,-229.156 627.906,-236.173 630.55,-229.692"/>
</g>
<!-- Node26&#45;&gt;Node13 -->
<g id="edge49" class="edge"><title>Node26&#45;&gt;Node13</title>
<path fill="none" stroke="midnightblue" d="M647.027,-208.279C653.294,-205.996 659.407,-203.279 665,-200.045 684.862,-188.559 681.37,-174.923 701,-163.045 707.001,-159.414 713.782,-156.474 720.579,-154.106"/>
<polygon fill="midnightblue" stroke="midnightblue" points="645.525,-205.087 637.105,-211.518 647.698,-211.741 645.525,-205.087"/>
</g>
<!-- Node26&#45;&gt;Node16 -->
<g id="edge50" class="edge"><title>Node26&#45;&gt;Node16</title>
<path fill="none" stroke="midnightblue" d="M637.191,-230.717C689.707,-238.671 771.325,-241.941 824,-200.045 864.921,-167.498 823.327,-125.313 860,-88.0449 864.105,-83.8738 869.157,-80.6182 874.533,-78.0772"/>
<polygon fill="midnightblue" stroke="midnightblue" points="637.525,-227.226 627.093,-229.076 636.402,-234.135 637.525,-227.226"/>
</g>
</g>
</svg>
