<?xml version="1.0" encoding="UTF-8" standalone="no"?>
<!DOCTYPE svg PUBLIC "-//W3C//DTD SVG 1.1//EN"
 "http://www.w3.org/Graphics/SVG/1.1/DTD/svg11.dtd">
<!-- Generated by graphviz version 2.38.0 (20140413.2041)
 -->
<!-- Title: Graphical Class Hierarchy Pages: 1 -->
<svg width="252pt" height="249pt"
 viewBox="0.00 0.00 252.00 249.00" xmlns="http://www.w3.org/2000/svg" xmlns:xlink="http://www.w3.org/1999/xlink">
<g id="graph0" class="graph" transform="scale(1 1) rotate(0) translate(4 245)">
<title>Graphical Class Hierarchy</title>
<polygon fill="white" stroke="none" points="-4,4 -4,-245 248,-245 248,4 -4,4"/>
<!-- Node1 -->
<g id="node1" class="node"><title>Node1</title>
<polygon fill="white" stroke="#bfbfbf" points="0,-111.5 0,-129.5 68,-129.5 68,-111.5 0,-111.5"/>
<text text-anchor="middle" x="34" y="-118.3" font-family="Helvetica,sans-Serif" font-size="9.00">MappelError</text>
</g>
<!-- Node2 -->
<g id="node2" class="node"><title>Node2</title>
<g id="a_node2"><a xlink:href="structmappel_1_1ArrayShapeError.html" target="_top" xlink:title="Array is not of the right dimensionality. ">
<polygon fill="white" stroke="black" points="113.5,-222.5 113.5,-240.5 234.5,-240.5 234.5,-222.5 113.5,-222.5"/>
<text text-anchor="middle" x="174" y="-229.3" font-family="Helvetica,sans-Serif" font-size="9.00">mappel::ArrayShapeError</text>
</a>
</g>
</g>
<!-- Node1&#45;&gt;Node2 -->
<g id="edge1" class="edge"><title>Node1&#45;&gt;Node2</title>
<path fill="none" stroke="midnightblue" d="M43.6757,-138.724C54.7155,-159.927 75.7907,-194.455 104,-213.5 109.438,-217.171 115.582,-220.094 121.906,-222.421"/>
<polygon fill="midnightblue" stroke="midnightblue" points="46.6741,-136.894 39.075,-129.511 40.4116,-140.021 46.6741,-136.894"/>
</g>
<!-- Node3 -->
<g id="node3" class="node"><title>Node3</title>
<g id="a_node3"><a xlink:href="structmappel_1_1ArraySizeError.html" target="_top" xlink:title="Array is not of the right size. ">
<polygon fill="white" stroke="black" points="118,-185.5 118,-203.5 230,-203.5 230,-185.5 118,-185.5"/>
<text text-anchor="middle" x="174" y="-192.3" font-family="Helvetica,sans-Serif" font-size="9.00">mappel::ArraySizeError</text>
</a>
</g>
</g>
<!-- Node1&#45;&gt;Node3 -->
<g id="edge2" class="edge"><title>Node1&#45;&gt;Node3</title>
<path fill="none" stroke="midnightblue" d="M51.2061,-137.064C64.3528,-149.603 83.9365,-166.347 104,-176.5 111.18,-180.133 119.162,-183.082 127.076,-185.46"/>
<polygon fill="midnightblue" stroke="midnightblue" points="53.4934,-134.404 43.9055,-129.896 48.5894,-139.4 53.4934,-134.404"/>
</g>
<!-- Node4 -->
<g id="node4" class="node"><title>Node4</title>
<g id="a_node4"><a xlink:href="structmappel_1_1LogicalError.html" target="_top" xlink:title="Failure of code or algorithm logic. ">
<polygon fill="white" stroke="black" points="123,-148.5 123,-166.5 225,-166.5 225,-148.5 123,-148.5"/>
<text text-anchor="middle" x="174" y="-155.3" font-family="Helvetica,sans-Serif" font-size="9.00">mappel::LogicalError</text>
</a>
</g>
</g>
<!-- Node1&#45;&gt;Node4 -->
<g id="edge3" class="edge"><title>Node1&#45;&gt;Node4</title>
<path fill="none" stroke="midnightblue" d="M77.3303,-132.253C86.1388,-134.672 95.3676,-137.186 104,-139.5 115.001,-142.449 127.007,-145.604 137.874,-148.435"/>
<polygon fill="midnightblue" stroke="midnightblue" points="78.1883,-128.859 67.618,-129.579 76.33,-135.608 78.1883,-128.859"/>
</g>
<!-- Node5 -->
<g id="node5" class="node"><title>Node5</title>
<g id="a_node5"><a xlink:href="structmappel_1_1ModelBoundsError.html" target="_top" xlink:title="Access outside the model bounds is attempted. ">
<polygon fill="white" stroke="black" points="109.5,-111.5 109.5,-129.5 238.5,-129.5 238.5,-111.5 109.5,-111.5"/>
<text text-anchor="middle" x="174" y="-118.3" font-family="Helvetica,sans-Serif" font-size="9.00">mappel::ModelBoundsError</text>
</a>
</g>
</g>
<!-- Node1&#45;&gt;Node5 -->
<g id="edge4" class="edge"><title>Node1&#45;&gt;Node5</title>
<path fill="none" stroke="midnightblue" d="M78.0642,-120.5C88.002,-120.5 98.7798,-120.5 109.387,-120.5"/>
<polygon fill="midnightblue" stroke="midnightblue" points="78.0545,-117 68.0544,-120.5 78.0544,-124 78.0545,-117"/>
</g>
<!-- Node6 -->
<g id="node6" class="node"><title>Node6</title>
<g id="a_node6"><a xlink:href="structmappel_1_1NotImplementedError.html" target="_top" xlink:title="Feature not yet implemented. ">
<polygon fill="white" stroke="black" points="104,-74.5 104,-92.5 244,-92.5 244,-74.5 104,-74.5"/>
<text text-anchor="middle" x="174" y="-81.3" font-family="Helvetica,sans-Serif" font-size="9.00">mappel::NotImplementedError</text>
</a>
</g>
</g>
<!-- Node1&#45;&gt;Node6 -->
<g id="edge5" class="edge"><title>Node1&#45;&gt;Node6</title>
<path fill="none" stroke="midnightblue" d="M77.7567,-109.036C97.5471,-103.73 120.722,-97.5165 139.257,-92.5471"/>
<polygon fill="midnightblue" stroke="midnightblue" points="76.8069,-105.667 68.0544,-111.638 78.6197,-112.428 76.8069,-105.667"/>
</g>
<!-- Node7 -->
<g id="node7" class="node"><title>Node7</title>
<g id="a_node7"><a xlink:href="structmappel_1_1NumericalError.html" target="_top" xlink:title="Expected numerical condition does not hold. ">
<polygon fill="white" stroke="black" points="117,-37.5 117,-55.5 231,-55.5 231,-37.5 117,-37.5"/>
<text text-anchor="middle" x="174" y="-44.3" font-family="Helvetica,sans-Serif" font-size="9.00">mappel::NumericalError</text>
</a>
</g>
</g>
<!-- Node1&#45;&gt;Node7 -->
<g id="edge6" class="edge"><title>Node1&#45;&gt;Node7</title>
<path fill="none" stroke="midnightblue" d="M51.2981,-104.319C64.4953,-92.0519 84.1018,-75.6286 104,-65.5 111.973,-61.4418 120.919,-58.1634 129.66,-55.5472"/>
<polygon fill="midnightblue" stroke="midnightblue" points="48.7762,-101.888 43.964,-111.327 53.6121,-106.949 48.7762,-101.888"/>
</g>
<!-- Node8 -->
<g id="node8" class="node"><title>Node8</title>
<g id="a_node8"><a xlink:href="structmappel_1_1ParameterValueError.html" target="_top" xlink:title="Parameter value is not valid. ">
<polygon fill="white" stroke="black" points="104.5,-0.5 104.5,-18.5 243.5,-18.5 243.5,-0.5 104.5,-0.5"/>
<text text-anchor="middle" x="174" y="-7.3" font-family="Helvetica,sans-Serif" font-size="9.00">mappel::ParameterValueError</text>
</a>
</g>
</g>
<!-- Node1&#45;&gt;Node8 -->
<g id="edge7" class="edge"><title>Node1&#45;&gt;Node8</title>
<path fill="none" stroke="midnightblue" d="M43.9404,-102.218C55.1164,-81.2793 76.2068,-47.4328 104,-28.5 110.059,-24.3729 116.99,-21.1389 124.069,-18.6056"/>
<polygon fill="midnightblue" stroke="midnightblue" points="40.7123,-100.843 39.2645,-111.338 46.9414,-104.037 40.7123,-100.843"/>
</g>
</g>
</svg>
