<?xml version="1.0" encoding="UTF-8" standalone="no"?>
<!DOCTYPE svg PUBLIC "-//W3C//DTD SVG 1.1//EN"
 "http://www.w3.org/Graphics/SVG/1.1/DTD/svg11.dtd">
<!-- Generated by graphviz version 2.38.0 (20140413.2041)
 -->
<!-- Title: MAPEstimator.h Pages: 1 -->
<svg width="918pt" height="247pt"
 viewBox="0.00 0.00 917.50 247.00" xmlns="http://www.w3.org/2000/svg" xmlns:xlink="http://www.w3.org/1999/xlink">
<g id="graph0" class="graph" transform="scale(1 1) rotate(0) translate(4 243)">
<title>MAPEstimator.h</title>
<polygon fill="white" stroke="none" points="-4,4 -4,-243 913.5,-243 913.5,4 -4,4"/>
<!-- Node1 -->
<g id="node1" class="node"><title>Node1</title>
<polygon fill="#bfbfbf" stroke="black" points="487,-220.5 487,-238.5 569,-238.5 569,-220.5 487,-220.5"/>
<text text-anchor="middle" x="528" y="-227.3" font-family="Helvetica,sans-Serif" font-size="9.00">MAPEstimator.h</text>
</g>
<!-- Node2 -->
<g id="node2" class="node"><title>Node2</title>
<g id="a_node2"><a xlink:href="Gauss1DMAP_8h.html" target="_top" xlink:title="The class declaration and inline and templated functions for Gauss1DMAP. ">
<polygon fill="white" stroke="black" points="179,-165.5 179,-183.5 261,-183.5 261,-165.5 179,-165.5"/>
<text text-anchor="middle" x="220" y="-172.3" font-family="Helvetica,sans-Serif" font-size="9.00">Gauss1DMAP.h</text>
</a>
</g>
</g>
<!-- Node1&#45;&gt;Node2 -->
<g id="edge1" class="edge"><title>Node1&#45;&gt;Node2</title>
<path fill="none" stroke="midnightblue" d="M476.706,-219.673C416.323,-209.283 317.224,-192.23 261.466,-182.635"/>
<polygon fill="midnightblue" stroke="midnightblue" points="476.333,-223.161 486.781,-221.407 477.52,-216.262 476.333,-223.161"/>
</g>
<!-- Node7 -->
<g id="node7" class="node"><title>Node7</title>
<g id="a_node7"><a xlink:href="Gauss2DMAP_8h.html" target="_top" xlink:title="The class declaration and inline and templated functions for Gauss2DMAP. ">
<polygon fill="white" stroke="black" points="183,-55.5 183,-73.5 265,-73.5 265,-55.5 183,-55.5"/>
<text text-anchor="middle" x="224" y="-62.3" font-family="Helvetica,sans-Serif" font-size="9.00">Gauss2DMAP.h</text>
</a>
</g>
</g>
<!-- Node1&#45;&gt;Node7 -->
<g id="edge19" class="edge"><title>Node1&#45;&gt;Node7</title>
<path fill="none" stroke="midnightblue" d="M506.936,-214.893C470.869,-191.867 394.625,-144.373 327,-110 299.216,-95.8776 265.928,-82.0254 244.868,-73.6222"/>
<polygon fill="midnightblue" stroke="midnightblue" points="505.301,-218.002 515.608,-220.453 509.079,-212.109 505.301,-218.002"/>
</g>
<!-- Node11 -->
<g id="node11" class="node"><title>Node11</title>
<g id="a_node11"><a xlink:href="Gauss1DsMAP_8h.html" target="_top" xlink:title="The class declaration and inline and templated functions for Gauss1DsMAP. ">
<polygon fill="white" stroke="black" points="587,-165.5 587,-183.5 673,-183.5 673,-165.5 587,-165.5"/>
<text text-anchor="middle" x="630" y="-172.3" font-family="Helvetica,sans-Serif" font-size="9.00">Gauss1DsMAP.h</text>
</a>
</g>
</g>
<!-- Node1&#45;&gt;Node11 -->
<g id="edge10" class="edge"><title>Node1&#45;&gt;Node11</title>
<path fill="none" stroke="midnightblue" d="M552.557,-215.74C571.77,-205.757 597.905,-192.177 614.363,-183.625"/>
<polygon fill="midnightblue" stroke="midnightblue" points="550.751,-212.734 543.492,-220.45 553.979,-218.945 550.751,-212.734"/>
</g>
<!-- Node20 -->
<g id="node20" class="node"><title>Node20</title>
<g id="a_node20"><a xlink:href="Gauss2DsxyMAP_8h.html" target="_top" xlink:title="The class declaration and inline and templated functions for Gauss2DsxyMAP. ">
<polygon fill="white" stroke="black" points="691.5,-165.5 691.5,-183.5 786.5,-183.5 786.5,-165.5 691.5,-165.5"/>
<text text-anchor="middle" x="739" y="-172.3" font-family="Helvetica,sans-Serif" font-size="9.00">Gauss2DsxyMAP.h</text>
</a>
</g>
</g>
<!-- Node1&#45;&gt;Node20 -->
<g id="edge20" class="edge"><title>Node1&#45;&gt;Node20</title>
<path fill="none" stroke="midnightblue" d="M569.848,-217.988C610.186,-207.856 670.351,-192.744 706.998,-183.538"/>
<polygon fill="midnightblue" stroke="midnightblue" points="568.892,-214.62 560.046,-220.45 570.598,-221.409 568.892,-214.62"/>
</g>
<!-- Node21 -->
<g id="node21" class="node"><title>Node21</title>
<g id="a_node21"><a xlink:href="MLEstimator_8h.html" target="_top" xlink:title="Class declaration and inline and templated functions for MLEstimator. ">
<polygon fill="white" stroke="black" points="490.5,-110.5 490.5,-128.5 565.5,-128.5 565.5,-110.5 490.5,-110.5"/>
<text text-anchor="middle" x="528" y="-117.3" font-family="Helvetica,sans-Serif" font-size="9.00">MLEstimator.h</text>
</a>
</g>
</g>
<!-- Node1&#45;&gt;Node21 -->
<g id="edge21" class="edge"><title>Node1&#45;&gt;Node21</title>
<path fill="none" stroke="midnightblue" d="M522.79,-210.243C520.34,-186.493 520.813,-145.997 524.208,-128.712"/>
<polygon fill="midnightblue" stroke="midnightblue" points="519.358,-210.973 524.227,-220.382 526.289,-209.99 519.358,-210.973"/>
</g>
<!-- Node3 -->
<g id="node3" class="node"><title>Node3</title>
<g id="a_node3"><a xlink:href="estimator__statics_8cpp.html" target="_top" xlink:title="estimator_statics.cpp">
<polygon fill="white" stroke="black" points="0,-110.5 0,-128.5 102,-128.5 102,-110.5 0,-110.5"/>
<text text-anchor="middle" x="51" y="-117.3" font-family="Helvetica,sans-Serif" font-size="9.00">estimator_statics.cpp</text>
</a>
</g>
</g>
<!-- Node2&#45;&gt;Node3 -->
<g id="edge2" class="edge"><title>Node2&#45;&gt;Node3</title>
<path fill="none" stroke="midnightblue" d="M184.407,-162.338C152.14,-152.218 105.362,-137.549 76.6316,-128.538"/>
<polygon fill="midnightblue" stroke="midnightblue" points="183.743,-165.798 194.333,-165.45 185.838,-159.118 183.743,-165.798"/>
</g>
<!-- Node4 -->
<g id="node4" class="node"><title>Node4</title>
<g id="a_node4"><a xlink:href="Gauss1DMAP_8cpp.html" target="_top" xlink:title="The class definition and template Specializations for Gauss1DMAP. ">
<polygon fill="white" stroke="black" points="120,-110.5 120,-128.5 212,-128.5 212,-110.5 120,-110.5"/>
<text text-anchor="middle" x="166" y="-117.3" font-family="Helvetica,sans-Serif" font-size="9.00">Gauss1DMAP.cpp</text>
</a>
</g>
</g>
<!-- Node2&#45;&gt;Node4 -->
<g id="edge3" class="edge"><title>Node2&#45;&gt;Node4</title>
<path fill="none" stroke="midnightblue" d="M204.32,-158.11C194.471,-148.444 182.169,-136.369 174.201,-128.55"/>
<polygon fill="midnightblue" stroke="midnightblue" points="201.974,-160.712 211.562,-165.219 206.877,-155.716 201.974,-160.712"/>
</g>
<!-- Node5 -->
<g id="node5" class="node"><title>Node5</title>
<g id="a_node5"><a xlink:href="Gauss2DModel_8h.html" target="_top" xlink:title="The class declaration and inline and templated functions for Gauss2DModel. ">
<polygon fill="white" stroke="black" points="230,-110.5 230,-128.5 318,-128.5 318,-110.5 230,-110.5"/>
<text text-anchor="middle" x="274" y="-117.3" font-family="Helvetica,sans-Serif" font-size="9.00">Gauss2DModel.h</text>
</a>
</g>
</g>
<!-- Node2&#45;&gt;Node5 -->
<g id="edge4" class="edge"><title>Node2&#45;&gt;Node5</title>
<path fill="none" stroke="midnightblue" d="M235.68,-158.11C245.529,-148.444 257.831,-136.369 265.799,-128.55"/>
<polygon fill="midnightblue" stroke="midnightblue" points="233.123,-155.716 228.438,-165.219 238.026,-160.712 233.123,-155.716"/>
</g>
<!-- Node6 -->
<g id="node6" class="node"><title>Node6</title>
<g id="a_node6"><a xlink:href="Gauss2DModel_8cpp.html" target="_top" xlink:title="The class definition and template Specializations for Gauss2DModel. ">
<polygon fill="white" stroke="black" points="67,-55.5 67,-73.5 165,-73.5 165,-55.5 67,-55.5"/>
<text text-anchor="middle" x="116" y="-62.3" font-family="Helvetica,sans-Serif" font-size="9.00">Gauss2DModel.cpp</text>
</a>
</g>
</g>
<!-- Node5&#45;&gt;Node6 -->
<g id="edge5" class="edge"><title>Node5&#45;&gt;Node6</title>
<path fill="none" stroke="midnightblue" d="M240.331,-107.206C210.178,-97.0914 166.708,-82.5095 139.963,-73.5383"/>
<polygon fill="midnightblue" stroke="midnightblue" points="239.409,-110.588 250.003,-110.45 241.635,-103.952 239.409,-110.588"/>
</g>
<!-- Node5&#45;&gt;Node7 -->
<g id="edge6" class="edge"><title>Node5&#45;&gt;Node7</title>
<path fill="none" stroke="midnightblue" d="M259.21,-102.822C250.137,-93.2051 238.898,-81.2917 231.594,-73.5496"/>
<polygon fill="midnightblue" stroke="midnightblue" points="256.779,-105.347 266.188,-110.219 261.871,-100.543 256.779,-105.347"/>
</g>
<!-- Node9 -->
<g id="node9" class="node"><title>Node9</title>
<g id="a_node9"><a xlink:href="Gauss2DMLE_8h.html" target="_top" xlink:title="The class declaration and inline and templated functions for Gauss2DMLE. ">
<polygon fill="white" stroke="black" points="283.5,-55.5 283.5,-73.5 364.5,-73.5 364.5,-55.5 283.5,-55.5"/>
<text text-anchor="middle" x="324" y="-62.3" font-family="Helvetica,sans-Serif" font-size="9.00">Gauss2DMLE.h</text>
</a>
</g>
</g>
<!-- Node5&#45;&gt;Node9 -->
<g id="edge8" class="edge"><title>Node5&#45;&gt;Node9</title>
<path fill="none" stroke="midnightblue" d="M288.79,-102.822C297.863,-93.2051 309.102,-81.2917 316.406,-73.5496"/>
<polygon fill="midnightblue" stroke="midnightblue" points="286.129,-100.543 281.812,-110.219 291.221,-105.347 286.129,-100.543"/>
</g>
<!-- Node8 -->
<g id="node8" class="node"><title>Node8</title>
<g id="a_node8"><a xlink:href="Gauss2DMAP_8cpp.html" target="_top" xlink:title="The class definition and template Specializations for Gauss2DMAP. ">
<polygon fill="white" stroke="black" points="155,-0.5 155,-18.5 247,-18.5 247,-0.5 155,-0.5"/>
<text text-anchor="middle" x="201" y="-7.3" font-family="Helvetica,sans-Serif" font-size="9.00">Gauss2DMAP.cpp</text>
</a>
</g>
</g>
<!-- Node7&#45;&gt;Node8 -->
<g id="edge7" class="edge"><title>Node7&#45;&gt;Node8</title>
<path fill="none" stroke="midnightblue" d="M216.306,-45.7712C212.308,-36.5577 207.618,-25.7498 204.493,-18.5496"/>
<polygon fill="midnightblue" stroke="midnightblue" points="213.215,-47.4386 220.406,-55.2188 219.636,-44.6519 213.215,-47.4386"/>
</g>
<!-- Node10 -->
<g id="node10" class="node"><title>Node10</title>
<g id="a_node10"><a xlink:href="Gauss2DMLE_8cpp.html" target="_top" xlink:title="The class definition and template Specializations for Gauss2DMLE. ">
<polygon fill="white" stroke="black" points="265.5,-0.5 265.5,-18.5 356.5,-18.5 356.5,-0.5 265.5,-0.5"/>
<text text-anchor="middle" x="311" y="-7.3" font-family="Helvetica,sans-Serif" font-size="9.00">Gauss2DMLE.cpp</text>
</a>
</g>
</g>
<!-- Node9&#45;&gt;Node10 -->
<g id="edge9" class="edge"><title>Node9&#45;&gt;Node10</title>
<path fill="none" stroke="midnightblue" d="M319.578,-45.4734C317.335,-36.3257 314.722,-25.6724 312.974,-18.5496"/>
<polygon fill="midnightblue" stroke="midnightblue" points="316.187,-46.3404 321.969,-55.2188 322.986,-44.6728 316.187,-46.3404"/>
</g>
<!-- Node12 -->
<g id="node12" class="node"><title>Node12</title>
<g id="a_node12"><a xlink:href="Gauss1DsMAP_8cpp.html" target="_top" xlink:title="The class definition and template Specializations for Gauss1DsMAP. ">
<polygon fill="white" stroke="black" points="694,-110.5 694,-128.5 790,-128.5 790,-110.5 694,-110.5"/>
<text text-anchor="middle" x="742" y="-117.3" font-family="Helvetica,sans-Serif" font-size="9.00">Gauss1DsMAP.cpp</text>
</a>
</g>
</g>
<!-- Node11&#45;&gt;Node12 -->
<g id="edge11" class="edge"><title>Node11&#45;&gt;Node12</title>
<path fill="none" stroke="midnightblue" d="M656.102,-161.148C677.273,-151.13 706.511,-137.294 724.83,-128.625"/>
<polygon fill="midnightblue" stroke="midnightblue" points="654.552,-158.009 647.01,-165.45 657.547,-164.337 654.552,-158.009"/>
</g>
<!-- Node13 -->
<g id="node13" class="node"><title>Node13</title>
<g id="a_node13"><a xlink:href="Gauss2DsModel_8h.html" target="_top" xlink:title="The class declaration and inline and templated functions for Gauss2DsModel. ">
<polygon fill="white" stroke="black" points="584,-110.5 584,-128.5 676,-128.5 676,-110.5 584,-110.5"/>
<text text-anchor="middle" x="630" y="-117.3" font-family="Helvetica,sans-Serif" font-size="9.00">Gauss2DsModel.h</text>
</a>
</g>
</g>
<!-- Node11&#45;&gt;Node13 -->
<g id="edge12" class="edge"><title>Node11&#45;&gt;Node13</title>
<path fill="none" stroke="midnightblue" d="M630,-155.175C630,-146.094 630,-135.595 630,-128.55"/>
<polygon fill="midnightblue" stroke="midnightblue" points="626.5,-155.219 630,-165.219 633.5,-155.219 626.5,-155.219"/>
</g>
<!-- Node19 -->
<g id="node19" class="node"><title>Node19</title>
<g id="a_node19"><a xlink:href="Gauss2DsxyModel_8h.html" target="_top" xlink:title="The class declaration and inline and templated functions for Gauss2DsxyModel. ">
<polygon fill="white" stroke="black" points="808.5,-110.5 808.5,-128.5 909.5,-128.5 909.5,-110.5 808.5,-110.5"/>
<text text-anchor="middle" x="859" y="-117.3" font-family="Helvetica,sans-Serif" font-size="9.00">Gauss2DsxyModel.h</text>
</a>
</g>
</g>
<!-- Node11&#45;&gt;Node19 -->
<g id="edge18" class="edge"><title>Node11&#45;&gt;Node19</title>
<path fill="none" stroke="midnightblue" d="M674.586,-163.181C718.367,-153.048 784.242,-137.802 824.268,-128.538"/>
<polygon fill="midnightblue" stroke="midnightblue" points="673.733,-159.786 664.78,-165.45 675.312,-166.605 673.733,-159.786"/>
</g>
<!-- Node14 -->
<g id="node14" class="node"><title>Node14</title>
<g id="a_node14"><a xlink:href="Gauss2DsModel_8cpp.html" target="_top" xlink:title="The class definition and template Specializations for Gauss2DsModel. ">
<polygon fill="white" stroke="black" points="795,-55.5 795,-73.5 897,-73.5 897,-55.5 795,-55.5"/>
<text text-anchor="middle" x="846" y="-62.3" font-family="Helvetica,sans-Serif" font-size="9.00">Gauss2DsModel.cpp</text>
</a>
</g>
</g>
<!-- Node13&#45;&gt;Node14 -->
<g id="edge13" class="edge"><title>Node13&#45;&gt;Node14</title>
<path fill="none" stroke="midnightblue" d="M672.578,-108.053C713.873,-97.9201 775.645,-82.7631 813.24,-73.5383"/>
<polygon fill="midnightblue" stroke="midnightblue" points="671.684,-104.668 662.806,-110.45 673.352,-111.467 671.684,-104.668"/>
</g>
<!-- Node15 -->
<g id="node15" class="node"><title>Node15</title>
<g id="a_node15"><a xlink:href="Gauss2DsMAP_8h.html" target="_top" xlink:title="The class declaration and inline and templated functions for Gauss2DsMAP. ">
<polygon fill="white" stroke="black" points="691,-55.5 691,-73.5 777,-73.5 777,-55.5 691,-55.5"/>
<text text-anchor="middle" x="734" y="-62.3" font-family="Helvetica,sans-Serif" font-size="9.00">Gauss2DsMAP.h</text>
</a>
</g>
</g>
<!-- Node13&#45;&gt;Node15 -->
<g id="edge14" class="edge"><title>Node13&#45;&gt;Node15</title>
<path fill="none" stroke="midnightblue" d="M654.771,-105.877C674.385,-95.8808 701.199,-82.216 718.056,-73.6253"/>
<polygon fill="midnightblue" stroke="midnightblue" points="653.116,-102.791 645.795,-110.45 656.294,-109.028 653.116,-102.791"/>
</g>
<!-- Node17 -->
<g id="node17" class="node"><title>Node17</title>
<g id="a_node17"><a xlink:href="Gauss2DsMLE_8h.html" target="_top" xlink:title="The class declaration and inline and templated functions for Gauss2DsMLE. ">
<polygon fill="white" stroke="black" points="587,-55.5 587,-73.5 673,-73.5 673,-55.5 587,-55.5"/>
<text text-anchor="middle" x="630" y="-62.3" font-family="Helvetica,sans-Serif" font-size="9.00">Gauss2DsMLE.h</text>
</a>
</g>
</g>
<!-- Node13&#45;&gt;Node17 -->
<g id="edge16" class="edge"><title>Node13&#45;&gt;Node17</title>
<path fill="none" stroke="midnightblue" d="M630,-100.175C630,-91.0945 630,-80.5949 630,-73.5496"/>
<polygon fill="midnightblue" stroke="midnightblue" points="626.5,-100.219 630,-110.219 633.5,-100.219 626.5,-100.219"/>
</g>
<!-- Node16 -->
<g id="node16" class="node"><title>Node16</title>
<g id="a_node16"><a xlink:href="Gauss2DsMAP_8cpp.html" target="_top" xlink:title="The class definition and template Specializations for Gauss2DsMAP. ">
<polygon fill="white" stroke="black" points="710,-0.5 710,-18.5 806,-18.5 806,-0.5 710,-0.5"/>
<text text-anchor="middle" x="758" y="-7.3" font-family="Helvetica,sans-Serif" font-size="9.00">Gauss2DsMAP.cpp</text>
</a>
</g>
</g>
<!-- Node15&#45;&gt;Node16 -->
<g id="edge15" class="edge"><title>Node15&#45;&gt;Node16</title>
<path fill="none" stroke="midnightblue" d="M741.894,-46.0678C746.095,-36.7905 751.059,-25.8272 754.355,-18.5496"/>
<polygon fill="midnightblue" stroke="midnightblue" points="738.687,-44.6654 737.75,-55.2188 745.063,-47.553 738.687,-44.6654"/>
</g>
<!-- Node18 -->
<g id="node18" class="node"><title>Node18</title>
<g id="a_node18"><a xlink:href="Gauss2DsMLE_8cpp.html" target="_top" xlink:title="The class definition and template Specializations for Gauss2DsMLE. ">
<polygon fill="white" stroke="black" points="596.5,-0.5 596.5,-18.5 691.5,-18.5 691.5,-0.5 596.5,-0.5"/>
<text text-anchor="middle" x="644" y="-7.3" font-family="Helvetica,sans-Serif" font-size="9.00">Gauss2DsMLE.cpp</text>
</a>
</g>
</g>
<!-- Node17&#45;&gt;Node18 -->
<g id="edge17" class="edge"><title>Node17&#45;&gt;Node18</title>
<path fill="none" stroke="midnightblue" d="M634.762,-45.4734C637.178,-36.3257 639.992,-25.6724 641.874,-18.5496"/>
<polygon fill="midnightblue" stroke="midnightblue" points="631.358,-44.6565 632.188,-55.2188 638.125,-46.4443 631.358,-44.6565"/>
</g>
<!-- Node21&#45;&gt;Node1 -->
<g id="edge29" class="edge"><title>Node21&#45;&gt;Node1</title>
<path fill="none" stroke="midnightblue" d="M533.224,-138.887C535.662,-162.698 535.179,-203.182 531.773,-220.382"/>
<polygon fill="midnightblue" stroke="midnightblue" points="536.651,-138.126 531.792,-128.712 529.72,-139.102 536.651,-138.126"/>
</g>
<!-- Node21&#45;&gt;Node9 -->
<g id="edge26" class="edge"><title>Node21&#45;&gt;Node9</title>
<path fill="none" stroke="midnightblue" d="M487.043,-107.859C448.048,-97.728 390.221,-82.7046 354.94,-73.5383"/>
<polygon fill="midnightblue" stroke="midnightblue" points="486.458,-111.323 497.017,-110.45 488.218,-104.548 486.458,-111.323"/>
</g>
<!-- Node21&#45;&gt;Node15 -->
<g id="edge27" class="edge"><title>Node21&#45;&gt;Node15</title>
<path fill="none" stroke="midnightblue" d="M569.107,-107.924C608.488,-97.792 667.054,-82.7241 702.757,-73.5383"/>
<polygon fill="midnightblue" stroke="midnightblue" points="568.099,-104.569 559.287,-110.45 569.844,-111.348 568.099,-104.569"/>
</g>
<!-- Node21&#45;&gt;Node17 -->
<g id="edge28" class="edge"><title>Node21&#45;&gt;Node17</title>
<path fill="none" stroke="midnightblue" d="M552.557,-105.74C571.77,-95.7567 597.905,-82.177 614.363,-73.6253"/>
<polygon fill="midnightblue" stroke="midnightblue" points="550.751,-102.734 543.492,-110.45 553.979,-108.945 550.751,-102.734"/>
</g>
<!-- Node22 -->
<g id="node22" class="node"><title>Node22</title>
<g id="a_node22"><a xlink:href="Gauss1DMLE_8h.html" target="_top" xlink:title="The class declaration and inline and templated functions for Gauss1DMLE. ">
<polygon fill="white" stroke="black" points="487.5,-55.5 487.5,-73.5 568.5,-73.5 568.5,-55.5 487.5,-55.5"/>
<text text-anchor="middle" x="528" y="-62.3" font-family="Helvetica,sans-Serif" font-size="9.00">Gauss1DMLE.h</text>
</a>
</g>
</g>
<!-- Node21&#45;&gt;Node22 -->
<g id="edge22" class="edge"><title>Node21&#45;&gt;Node22</title>
<path fill="none" stroke="midnightblue" d="M528,-100.175C528,-91.0945 528,-80.5949 528,-73.5496"/>
<polygon fill="midnightblue" stroke="midnightblue" points="524.5,-100.219 528,-110.219 531.5,-100.219 524.5,-100.219"/>
</g>
<!-- Node24 -->
<g id="node24" class="node"><title>Node24</title>
<g id="a_node24"><a xlink:href="Gauss1DsMLE_8h.html" target="_top" xlink:title="The class declaration and inline and templated functions for Gauss1DsMLE. ">
<polygon fill="white" stroke="black" points="383,-55.5 383,-73.5 469,-73.5 469,-55.5 383,-55.5"/>
<text text-anchor="middle" x="426" y="-62.3" font-family="Helvetica,sans-Serif" font-size="9.00">Gauss1DsMLE.h</text>
</a>
</g>
</g>
<!-- Node21&#45;&gt;Node24 -->
<g id="edge24" class="edge"><title>Node21&#45;&gt;Node24</title>
<path fill="none" stroke="midnightblue" d="M503.443,-105.74C484.23,-95.7567 458.095,-82.177 441.637,-73.6253"/>
<polygon fill="midnightblue" stroke="midnightblue" points="502.021,-108.945 512.508,-110.45 505.249,-102.734 502.021,-108.945"/>
</g>
<!-- Node23 -->
<g id="node23" class="node"><title>Node23</title>
<g id="a_node23"><a xlink:href="Gauss1DMLE_8cpp.html" target="_top" xlink:title="The class definition and template Specializations for Gauss1DMLE. ">
<polygon fill="white" stroke="black" points="487.5,-0.5 487.5,-18.5 578.5,-18.5 578.5,-0.5 487.5,-0.5"/>
<text text-anchor="middle" x="533" y="-7.3" font-family="Helvetica,sans-Serif" font-size="9.00">Gauss1DMLE.cpp</text>
</a>
</g>
</g>
<!-- Node22&#45;&gt;Node23 -->
<g id="edge23" class="edge"><title>Node22&#45;&gt;Node23</title>
<path fill="none" stroke="midnightblue" d="M529.729,-45.1746C530.585,-36.0945 531.576,-25.5949 532.241,-18.5496"/>
<polygon fill="midnightblue" stroke="midnightblue" points="526.236,-44.9342 528.781,-55.2188 533.205,-45.5917 526.236,-44.9342"/>
</g>
<!-- Node25 -->
<g id="node25" class="node"><title>Node25</title>
<g id="a_node25"><a xlink:href="Gauss1DsMLE_8cpp.html" target="_top" xlink:title="The class definition and template Specializations for Gauss1DsMLE. ">
<polygon fill="white" stroke="black" points="374.5,-0.5 374.5,-18.5 469.5,-18.5 469.5,-0.5 374.5,-0.5"/>
<text text-anchor="middle" x="422" y="-7.3" font-family="Helvetica,sans-Serif" font-size="9.00">Gauss1DsMLE.cpp</text>
</a>
</g>
</g>
<!-- Node24&#45;&gt;Node25 -->
<g id="edge25" class="edge"><title>Node24&#45;&gt;Node25</title>
<path fill="none" stroke="midnightblue" d="M424.617,-45.1746C423.932,-36.0945 423.139,-25.5949 422.608,-18.5496"/>
<polygon fill="midnightblue" stroke="midnightblue" points="421.132,-45.5105 425.375,-55.2188 428.112,-44.9837 421.132,-45.5105"/>
</g>
</g>
</svg>
