<?xml version="1.0" encoding="UTF-8" standalone="no"?>
<!DOCTYPE svg PUBLIC "-//W3C//DTD SVG 1.1//EN"
 "http://www.w3.org/Graphics/SVG/1.1/DTD/svg11.dtd">
<!-- Generated by graphviz version 2.38.0 (20140413.2041)
 -->
<!-- Title: MCMCAdaptor1D.h Pages: 1 -->
<!--zoomable 357 -->
<svg id="main" version="1.1" xmlns="http://www.w3.org/2000/svg" xmlns:xlink="http://www.w3.org/1999/xlink" xml:space="preserve" onload="init(evt)">
<style type="text/css"><![CDATA[
.edge:hover path { stroke: red; }
.edge:hover polygon { stroke: red; fill: red; }
]]></style>
<script type="text/javascript"><![CDATA[
var edges = document.getElementsByTagName('g');
if (edges && edges.length) {
  for (var i=0;i<edges.length;i++) {
    if (edges[i].id.substr(0,4)=='edge') {
      edges[i].setAttribute('class','edge');
    }
  }
}
]]></script>
        <defs>
                <circle id="rim" cx="0" cy="0" r="7"/>
                <circle id="rim2" cx="0" cy="0" r="3.5"/>
                <g id="zoomPlus">
                        <use xlink:href="#rim" fill="#404040">
                                <set attributeName="fill" to="#808080" begin="zoomplus.mouseover" end="zoomplus.mouseout"/>
                        </use>
                        <path d="M-4,0h8M0,-4v8" fill="none" stroke="white" stroke-width="1.5" pointer-events="none"/>
                </g>
                <g id="zoomMin">
                        <use xlink:href="#rim" fill="#404040">
                                <set attributeName="fill" to="#808080" begin="zoomminus.mouseover" end="zoomminus.mouseout"/>
                        </use>
                        <path d="M-4,0h8" fill="none" stroke="white" stroke-width="1.5" pointer-events="none"/>
                </g>
                <g id="dirArrow">
                        <path fill="none" stroke="white" stroke-width="1.5" d="M0,-3.0v7 M-2.5,-0.5L0,-3.0L2.5,-0.5"/>
                </g>
               <g id="resetDef">
                       <use xlink:href="#rim2" fill="#404040">
                               <set attributeName="fill" to="#808080" begin="reset.mouseover" end="reset.mouseout"/>
                       </use>
               </g>
        </defs>

<script type="text/javascript">
var viewWidth = 1022;
var viewHeight = 357;
var sectionId = 'dynsection-1';
</script>
<script xlink:href="svgpan.js"/>
<svg id="graph" class="graph">
<g id="viewport">
<title>MCMCAdaptor1D.h</title>
<polygon fill="white" stroke="none" points="-4,4 -4,-353 1017.5,-353 1017.5,4 -4,4"/>
<!-- Node1 -->
<g id="node1" class="node"><title>Node1</title>
<polygon fill="#bfbfbf" stroke="black" points="335.5,-330.5 335.5,-348.5 432.5,-348.5 432.5,-330.5 335.5,-330.5"/>
<text text-anchor="middle" x="384" y="-337.3" font-family="Helvetica,sans-Serif" font-size="9.00">MCMCAdaptor1D.h</text>
</g>
<!-- Node2 -->
<g id="node2" class="node"><title>Node2</title>
<g id="a_node2"><a xlink:href="MCMCAdaptor1D_8cpp.html" target="_top" xlink:title="The class definition and template Specializations for MCMCAdaptor1D. ">
<polygon fill="white" stroke="black" points="143.5,-275.5 143.5,-293.5 250.5,-293.5 250.5,-275.5 143.5,-275.5"/>
<text text-anchor="middle" x="197" y="-282.3" font-family="Helvetica,sans-Serif" font-size="9.00">MCMCAdaptor1D.cpp</text>
</a>
</g>
</g>
<!-- Node1&#45;&gt;Node2 -->
<g id="edge1" class="edge"><title>Node1&#45;&gt;Node2</title>
<path fill="none" stroke="midnightblue" d="M345.54,-327.6C309.81,-317.473 257.428,-302.627 225.362,-293.538"/>
<polygon fill="midnightblue" stroke="midnightblue" points="345.023,-331.091 355.599,-330.45 346.932,-324.356 345.023,-331.091"/>
</g>
<!-- Node3 -->
<g id="node3" class="node"><title>Node3</title>
<g id="a_node3"><a xlink:href="Gauss1DModel_8h.html" target="_top" xlink:title="The class declaration and inline and templated functions for Gauss1DModel. ">
<polygon fill="white" stroke="black" points="268,-275.5 268,-293.5 356,-293.5 356,-275.5 268,-275.5"/>
<text text-anchor="middle" x="312" y="-282.3" font-family="Helvetica,sans-Serif" font-size="9.00">Gauss1DModel.h</text>
</a>
</g>
</g>
<!-- Node1&#45;&gt;Node3 -->
<g id="edge2" class="edge"><title>Node1&#45;&gt;Node3</title>
<path fill="none" stroke="midnightblue" d="M364.97,-324.492C351.599,-314.649 334.178,-301.826 323.038,-293.625"/>
<polygon fill="midnightblue" stroke="midnightblue" points="362.936,-327.341 373.065,-330.45 367.086,-321.704 362.936,-327.341"/>
</g>
<!-- Node17 -->
<g id="node17" class="node"><title>Node17</title>
<g id="a_node17"><a xlink:href="MCMCAdaptor1Ds_8h.html" target="_top" xlink:title="The class declaration and inline and templated functions for MCMCAdaptor1Ds. ">
<polygon fill="white" stroke="black" points="622.5,-275.5 622.5,-293.5 723.5,-293.5 723.5,-275.5 622.5,-275.5"/>
<text text-anchor="middle" x="673" y="-282.3" font-family="Helvetica,sans-Serif" font-size="9.00">MCMCAdaptor1Ds.h</text>
</a>
</g>
</g>
<!-- Node1&#45;&gt;Node17 -->
<g id="edge16" class="edge"><title>Node1&#45;&gt;Node17</title>
<path fill="none" stroke="midnightblue" d="M437.844,-328.626C493.062,-318.499 577.91,-302.939 629.168,-293.538"/>
<polygon fill="midnightblue" stroke="midnightblue" points="437.097,-325.204 427.893,-330.45 438.36,-332.089 437.097,-325.204"/>
</g>
<!-- Node32 -->
<g id="node32" class="node"><title>Node32</title>
<g id="a_node32"><a xlink:href="MCMCAdaptor2D_8h.html" target="_top" xlink:title="The class declaration and inline and templated functions for MCMCAdaptor2D. ">
<polygon fill="white" stroke="black" points="443.5,-220.5 443.5,-238.5 540.5,-238.5 540.5,-220.5 443.5,-220.5"/>
<text text-anchor="middle" x="492" y="-227.3" font-family="Helvetica,sans-Serif" font-size="9.00">MCMCAdaptor2D.h</text>
</a>
</g>
</g>
<!-- Node1&#45;&gt;Node32 -->
<g id="edge31" class="edge"><title>Node1&#45;&gt;Node32</title>
<path fill="none" stroke="midnightblue" d="M399.429,-323.071C422.655,-299.845 465.796,-256.704 483.788,-238.712"/>
<polygon fill="midnightblue" stroke="midnightblue" points="396.714,-320.836 392.118,-330.382 401.664,-325.786 396.714,-320.836"/>
</g>
<!-- Node4 -->
<g id="node4" class="node"><title>Node4</title>
<g id="a_node4"><a xlink:href="Gauss1DModel_8cpp.html" target="_top" xlink:title="The class definition and template Specializations for Gauss1DModel. ">
<polygon fill="white" stroke="black" points="119,-220.5 119,-238.5 217,-238.5 217,-220.5 119,-220.5"/>
<text text-anchor="middle" x="168" y="-227.3" font-family="Helvetica,sans-Serif" font-size="9.00">Gauss1DModel.cpp</text>
</a>
</g>
</g>
<!-- Node3&#45;&gt;Node4 -->
<g id="edge3" class="edge"><title>Node3&#45;&gt;Node4</title>
<path fill="none" stroke="midnightblue" d="M280.624,-271.952C253.263,-261.881 214.266,-247.528 190.076,-238.625"/>
<polygon fill="midnightblue" stroke="midnightblue" points="279.536,-275.281 290.129,-275.45 281.954,-268.712 279.536,-275.281"/>
</g>
<!-- Node5 -->
<g id="node5" class="node"><title>Node5</title>
<g id="a_node5"><a xlink:href="Gauss1DMAP_8h.html" target="_top" xlink:title="The class declaration and inline and templated functions for Gauss1DMAP. ">
<polygon fill="white" stroke="black" points="235,-220.5 235,-238.5 317,-238.5 317,-220.5 235,-220.5"/>
<text text-anchor="middle" x="276" y="-227.3" font-family="Helvetica,sans-Serif" font-size="9.00">Gauss1DMAP.h</text>
</a>
</g>
</g>
<!-- Node3&#45;&gt;Node5 -->
<g id="edge4" class="edge"><title>Node3&#45;&gt;Node5</title>
<path fill="none" stroke="midnightblue" d="M300.56,-266.658C294.176,-257.259 286.516,-245.982 281.468,-238.55"/>
<polygon fill="midnightblue" stroke="midnightblue" points="297.861,-268.913 306.375,-275.219 303.651,-264.98 297.861,-268.913"/>
</g>
<!-- Node14 -->
<g id="node14" class="node"><title>Node14</title>
<g id="a_node14"><a xlink:href="Gauss1DMLE_8h.html" target="_top" xlink:title="The class declaration and inline and templated functions for Gauss1DMLE. ">
<polygon fill="white" stroke="black" points="337.5,-220.5 337.5,-238.5 418.5,-238.5 418.5,-220.5 337.5,-220.5"/>
<text text-anchor="middle" x="378" y="-227.3" font-family="Helvetica,sans-Serif" font-size="9.00">Gauss1DMLE.h</text>
</a>
</g>
</g>
<!-- Node3&#45;&gt;Node14 -->
<g id="edge13" class="edge"><title>Node3&#45;&gt;Node14</title>
<path fill="none" stroke="midnightblue" d="M330.149,-268.926C342.307,-259.162 357.865,-246.669 367.882,-238.625"/>
<polygon fill="midnightblue" stroke="midnightblue" points="327.63,-266.46 322.024,-275.45 332.013,-271.918 327.63,-266.46"/>
</g>
<!-- Node16 -->
<g id="node16" class="node"><title>Node16</title>
<g id="a_node16"><a xlink:href="Gauss2DsxyMAP_8h.html" target="_top" xlink:title="The class declaration and inline and templated functions for Gauss2DsxyMAP. ">
<polygon fill="white" stroke="black" points="5.5,-220.5 5.5,-238.5 100.5,-238.5 100.5,-220.5 5.5,-220.5"/>
<text text-anchor="middle" x="53" y="-227.3" font-family="Helvetica,sans-Serif" font-size="9.00">Gauss2DsxyMAP.h</text>
</a>
</g>
</g>
<!-- Node3&#45;&gt;Node16 -->
<g id="edge15" class="edge"><title>Node3&#45;&gt;Node16</title>
<path fill="none" stroke="midnightblue" d="M262.818,-273.436C213.314,-263.306 137.933,-247.88 92.2815,-238.538"/>
<polygon fill="midnightblue" stroke="midnightblue" points="262.165,-276.875 272.663,-275.45 263.568,-270.017 262.165,-276.875"/>
</g>
<!-- Node6 -->
<g id="node6" class="node"><title>Node6</title>
<g id="a_node6"><a xlink:href="estimator__statics_8cpp.html" target="_top" xlink:title="estimator_statics.cpp">
<polygon fill="white" stroke="black" points="110,-165.5 110,-183.5 212,-183.5 212,-165.5 110,-165.5"/>
<text text-anchor="middle" x="161" y="-172.3" font-family="Helvetica,sans-Serif" font-size="9.00">estimator_statics.cpp</text>
</a>
</g>
</g>
<!-- Node5&#45;&gt;Node6 -->
<g id="edge5" class="edge"><title>Node5&#45;&gt;Node6</title>
<path fill="none" stroke="midnightblue" d="M249.199,-216.148C227.461,-206.13 197.44,-192.294 178.63,-183.625"/>
<polygon fill="midnightblue" stroke="midnightblue" points="247.987,-219.443 258.534,-220.45 250.917,-213.086 247.987,-219.443"/>
</g>
<!-- Node7 -->
<g id="node7" class="node"><title>Node7</title>
<g id="a_node7"><a xlink:href="Gauss1DMAP_8cpp.html" target="_top" xlink:title="The class definition and template Specializations for Gauss1DMAP. ">
<polygon fill="white" stroke="black" points="0,-165.5 0,-183.5 92,-183.5 92,-165.5 0,-165.5"/>
<text text-anchor="middle" x="46" y="-172.3" font-family="Helvetica,sans-Serif" font-size="9.00">Gauss1DMAP.cpp</text>
</a>
</g>
</g>
<!-- Node5&#45;&gt;Node7 -->
<g id="edge6" class="edge"><title>Node5&#45;&gt;Node7</title>
<path fill="none" stroke="midnightblue" d="M231.219,-218.181C187.248,-208.048 121.084,-192.802 80.8832,-183.538"/>
<polygon fill="midnightblue" stroke="midnightblue" points="230.537,-221.615 241.068,-220.45 232.109,-214.794 230.537,-221.615"/>
</g>
<!-- Node8 -->
<g id="node8" class="node"><title>Node8</title>
<g id="a_node8"><a xlink:href="Gauss2DModel_8h.html" target="_top" xlink:title="The class declaration and inline and templated functions for Gauss2DModel. ">
<polygon fill="white" stroke="black" points="230,-165.5 230,-183.5 318,-183.5 318,-165.5 230,-165.5"/>
<text text-anchor="middle" x="274" y="-172.3" font-family="Helvetica,sans-Serif" font-size="9.00">Gauss2DModel.h</text>
</a>
</g>
</g>
<!-- Node5&#45;&gt;Node8 -->
<g id="edge7" class="edge"><title>Node5&#45;&gt;Node8</title>
<path fill="none" stroke="midnightblue" d="M275.308,-210.175C274.966,-201.094 274.57,-190.595 274.304,-183.55"/>
<polygon fill="midnightblue" stroke="midnightblue" points="271.813,-210.358 275.688,-220.219 278.808,-210.094 271.813,-210.358"/>
</g>
<!-- Node9 -->
<g id="node9" class="node"><title>Node9</title>
<g id="a_node9"><a xlink:href="Gauss2DModel_8cpp.html" target="_top" xlink:title="The class definition and template Specializations for Gauss2DModel. ">
<polygon fill="white" stroke="black" points="117,-110.5 117,-128.5 215,-128.5 215,-110.5 117,-110.5"/>
<text text-anchor="middle" x="166" y="-117.3" font-family="Helvetica,sans-Serif" font-size="9.00">Gauss2DModel.cpp</text>
</a>
</g>
</g>
<!-- Node8&#45;&gt;Node9 -->
<g id="edge8" class="edge"><title>Node8&#45;&gt;Node9</title>
<path fill="none" stroke="midnightblue" d="M248.554,-161.013C228.161,-151.005 200.142,-137.255 182.557,-128.625"/>
<polygon fill="midnightblue" stroke="midnightblue" points="247.078,-164.187 257.597,-165.45 250.162,-157.903 247.078,-164.187"/>
</g>
<!-- Node10 -->
<g id="node10" class="node"><title>Node10</title>
<g id="a_node10"><a xlink:href="Gauss2DMAP_8h.html" target="_top" xlink:title="The class declaration and inline and templated functions for Gauss2DMAP. ">
<polygon fill="white" stroke="black" points="233,-110.5 233,-128.5 315,-128.5 315,-110.5 233,-110.5"/>
<text text-anchor="middle" x="274" y="-117.3" font-family="Helvetica,sans-Serif" font-size="9.00">Gauss2DMAP.h</text>
</a>
</g>
</g>
<!-- Node8&#45;&gt;Node10 -->
<g id="edge9" class="edge"><title>Node8&#45;&gt;Node10</title>
<path fill="none" stroke="midnightblue" d="M274,-155.175C274,-146.094 274,-135.595 274,-128.55"/>
<polygon fill="midnightblue" stroke="midnightblue" points="270.5,-155.219 274,-165.219 277.5,-155.219 270.5,-155.219"/>
</g>
<!-- Node12 -->
<g id="node12" class="node"><title>Node12</title>
<g id="a_node12"><a xlink:href="Gauss2DMLE_8h.html" target="_top" xlink:title="The class declaration and inline and templated functions for Gauss2DMLE. ">
<polygon fill="white" stroke="black" points="338.5,-110.5 338.5,-128.5 419.5,-128.5 419.5,-110.5 338.5,-110.5"/>
<text text-anchor="middle" x="379" y="-117.3" font-family="Helvetica,sans-Serif" font-size="9.00">Gauss2DMLE.h</text>
</a>
</g>
</g>
<!-- Node8&#45;&gt;Node12 -->
<g id="edge11" class="edge"><title>Node8&#45;&gt;Node12</title>
<path fill="none" stroke="midnightblue" d="M299.009,-160.877C318.812,-150.881 345.883,-137.216 362.903,-128.625"/>
<polygon fill="midnightblue" stroke="midnightblue" points="297.297,-157.82 289.947,-165.45 300.452,-164.069 297.297,-157.82"/>
</g>
<!-- Node11 -->
<g id="node11" class="node"><title>Node11</title>
<g id="a_node11"><a xlink:href="Gauss2DMAP_8cpp.html" target="_top" xlink:title="The class definition and template Specializations for Gauss2DMAP. ">
<polygon fill="white" stroke="black" points="226,-55.5 226,-73.5 318,-73.5 318,-55.5 226,-55.5"/>
<text text-anchor="middle" x="272" y="-62.3" font-family="Helvetica,sans-Serif" font-size="9.00">Gauss2DMAP.cpp</text>
</a>
</g>
</g>
<!-- Node10&#45;&gt;Node11 -->
<g id="edge10" class="edge"><title>Node10&#45;&gt;Node11</title>
<path fill="none" stroke="midnightblue" d="M273.308,-100.175C272.966,-91.0945 272.57,-80.5949 272.304,-73.5496"/>
<polygon fill="midnightblue" stroke="midnightblue" points="269.813,-100.358 273.688,-110.219 276.808,-100.094 269.813,-100.358"/>
</g>
<!-- Node13 -->
<g id="node13" class="node"><title>Node13</title>
<g id="a_node13"><a xlink:href="Gauss2DMLE_8cpp.html" target="_top" xlink:title="The class definition and template Specializations for Gauss2DMLE. ">
<polygon fill="white" stroke="black" points="336.5,-55.5 336.5,-73.5 427.5,-73.5 427.5,-55.5 336.5,-55.5"/>
<text text-anchor="middle" x="382" y="-62.3" font-family="Helvetica,sans-Serif" font-size="9.00">Gauss2DMLE.cpp</text>
</a>
</g>
</g>
<!-- Node12&#45;&gt;Node13 -->
<g id="edge12" class="edge"><title>Node12&#45;&gt;Node13</title>
<path fill="none" stroke="midnightblue" d="M380.037,-100.175C380.551,-91.0945 381.146,-80.5949 381.544,-73.5496"/>
<polygon fill="midnightblue" stroke="midnightblue" points="376.54,-100.037 379.469,-110.219 383.528,-100.433 376.54,-100.037"/>
</g>
<!-- Node15 -->
<g id="node15" class="node"><title>Node15</title>
<g id="a_node15"><a xlink:href="Gauss1DMLE_8cpp.html" target="_top" xlink:title="The class definition and template Specializations for Gauss1DMLE. ">
<polygon fill="white" stroke="black" points="336.5,-165.5 336.5,-183.5 427.5,-183.5 427.5,-165.5 336.5,-165.5"/>
<text text-anchor="middle" x="382" y="-172.3" font-family="Helvetica,sans-Serif" font-size="9.00">Gauss1DMLE.cpp</text>
</a>
</g>
</g>
<!-- Node14&#45;&gt;Node15 -->
<g id="edge14" class="edge"><title>Node14&#45;&gt;Node15</title>
<path fill="none" stroke="midnightblue" d="M379.383,-210.175C380.068,-201.094 380.861,-190.595 381.392,-183.55"/>
<polygon fill="midnightblue" stroke="midnightblue" points="375.888,-209.984 378.625,-220.219 382.868,-210.511 375.888,-209.984"/>
</g>
<!-- Node18 -->
<g id="node18" class="node"><title>Node18</title>
<g id="a_node18"><a xlink:href="MCMCAdaptor1Ds_8cpp.html" target="_top" xlink:title="The class definition and template Specializations for MCMCAdaptor1Ds. ">
<polygon fill="white" stroke="black" points="617.5,-220.5 617.5,-238.5 728.5,-238.5 728.5,-220.5 617.5,-220.5"/>
<text text-anchor="middle" x="673" y="-227.3" font-family="Helvetica,sans-Serif" font-size="9.00">MCMCAdaptor1Ds.cpp</text>
</a>
</g>
</g>
<!-- Node17&#45;&gt;Node18 -->
<g id="edge17" class="edge"><title>Node17&#45;&gt;Node18</title>
<path fill="none" stroke="midnightblue" d="M673,-265.175C673,-256.094 673,-245.595 673,-238.55"/>
<polygon fill="midnightblue" stroke="midnightblue" points="669.5,-265.219 673,-275.219 676.5,-265.219 669.5,-265.219"/>
</g>
<!-- Node19 -->
<g id="node19" class="node"><title>Node19</title>
<g id="a_node19"><a xlink:href="Gauss1DsModel_8h.html" target="_top" xlink:title="The class declaration and inline and templated functions for Gauss1DsModel. ">
<polygon fill="white" stroke="black" points="773,-220.5 773,-238.5 865,-238.5 865,-220.5 773,-220.5"/>
<text text-anchor="middle" x="819" y="-227.3" font-family="Helvetica,sans-Serif" font-size="9.00">Gauss1DsModel.h</text>
</a>
</g>
</g>
<!-- Node17&#45;&gt;Node19 -->
<g id="edge18" class="edge"><title>Node17&#45;&gt;Node19</title>
<path fill="none" stroke="midnightblue" d="M704.812,-271.952C732.553,-261.881 772.092,-247.528 796.617,-238.625"/>
<polygon fill="midnightblue" stroke="midnightblue" points="703.38,-268.748 695.174,-275.45 705.768,-275.328 703.38,-268.748"/>
</g>
<!-- Node20 -->
<g id="node20" class="node"><title>Node20</title>
<g id="a_node20"><a xlink:href="Gauss1DsModel_8cpp.html" target="_top" xlink:title="The class definition and template Specializations for Gauss1DsModel. ">
<polygon fill="white" stroke="black" points="794,-165.5 794,-183.5 896,-183.5 896,-165.5 794,-165.5"/>
<text text-anchor="middle" x="845" y="-172.3" font-family="Helvetica,sans-Serif" font-size="9.00">Gauss1DsModel.cpp</text>
</a>
</g>
</g>
<!-- Node19&#45;&gt;Node20 -->
<g id="edge19" class="edge"><title>Node19&#45;&gt;Node20</title>
<path fill="none" stroke="midnightblue" d="M827.552,-211.068C832.103,-201.791 837.481,-190.827 841.051,-183.55"/>
<polygon fill="midnightblue" stroke="midnightblue" points="824.325,-209.699 823.062,-220.219 830.609,-212.782 824.325,-209.699"/>
</g>
<!-- Node21 -->
<g id="node21" class="node"><title>Node21</title>
<g id="a_node21"><a xlink:href="Gauss1DsMAP_8h.html" target="_top" xlink:title="The class declaration and inline and templated functions for Gauss1DsMAP. ">
<polygon fill="white" stroke="black" points="690,-165.5 690,-183.5 776,-183.5 776,-165.5 690,-165.5"/>
<text text-anchor="middle" x="733" y="-172.3" font-family="Helvetica,sans-Serif" font-size="9.00">Gauss1DsMAP.h</text>
</a>
</g>
</g>
<!-- Node19&#45;&gt;Node21 -->
<g id="edge20" class="edge"><title>Node19&#45;&gt;Node21</title>
<path fill="none" stroke="midnightblue" d="M797.177,-215.051C781.094,-205.139 759.744,-191.982 746.184,-183.625"/>
<polygon fill="midnightblue" stroke="midnightblue" points="795.589,-218.184 805.938,-220.45 799.262,-212.224 795.589,-218.184"/>
</g>
<!-- Node30 -->
<g id="node30" class="node"><title>Node30</title>
<g id="a_node30"><a xlink:href="Gauss1DsMLE_8h.html" target="_top" xlink:title="The class declaration and inline and templated functions for Gauss1DsMLE. ">
<polygon fill="white" stroke="black" points="919,-165.5 919,-183.5 1005,-183.5 1005,-165.5 919,-165.5"/>
<text text-anchor="middle" x="962" y="-172.3" font-family="Helvetica,sans-Serif" font-size="9.00">Gauss1DsMLE.h</text>
</a>
</g>
</g>
<!-- Node19&#45;&gt;Node30 -->
<g id="edge29" class="edge"><title>Node19&#45;&gt;Node30</title>
<path fill="none" stroke="midnightblue" d="M850.158,-216.952C877.33,-206.881 916.055,-192.528 940.077,-183.625"/>
<polygon fill="midnightblue" stroke="midnightblue" points="848.879,-213.693 840.719,-220.45 851.312,-220.257 848.879,-213.693"/>
</g>
<!-- Node22 -->
<g id="node22" class="node"><title>Node22</title>
<g id="a_node22"><a xlink:href="Gauss1DsMAP_8cpp.html" target="_top" xlink:title="The class definition and template Specializations for Gauss1DsMAP. ">
<polygon fill="white" stroke="black" points="685,-110.5 685,-128.5 781,-128.5 781,-110.5 685,-110.5"/>
<text text-anchor="middle" x="733" y="-117.3" font-family="Helvetica,sans-Serif" font-size="9.00">Gauss1DsMAP.cpp</text>
</a>
</g>
</g>
<!-- Node21&#45;&gt;Node22 -->
<g id="edge21" class="edge"><title>Node21&#45;&gt;Node22</title>
<path fill="none" stroke="midnightblue" d="M733,-155.175C733,-146.094 733,-135.595 733,-128.55"/>
<polygon fill="midnightblue" stroke="midnightblue" points="729.5,-155.219 733,-165.219 736.5,-155.219 729.5,-155.219"/>
</g>
<!-- Node23 -->
<g id="node23" class="node"><title>Node23</title>
<g id="a_node23"><a xlink:href="Gauss2DsModel_8h.html" target="_top" xlink:title="The class declaration and inline and templated functions for Gauss2DsModel. ">
<polygon fill="white" stroke="black" points="575,-110.5 575,-128.5 667,-128.5 667,-110.5 575,-110.5"/>
<text text-anchor="middle" x="621" y="-117.3" font-family="Helvetica,sans-Serif" font-size="9.00">Gauss2DsModel.h</text>
</a>
</g>
</g>
<!-- Node21&#45;&gt;Node23 -->
<g id="edge22" class="edge"><title>Node21&#45;&gt;Node23</title>
<path fill="none" stroke="midnightblue" d="M706.898,-161.148C685.727,-151.13 656.489,-137.294 638.17,-128.625"/>
<polygon fill="midnightblue" stroke="midnightblue" points="705.453,-164.337 715.99,-165.45 708.448,-158.009 705.453,-164.337"/>
</g>
<!-- Node29 -->
<g id="node29" class="node"><title>Node29</title>
<g id="a_node29"><a xlink:href="Gauss2DsxyModel_8h.html" target="_top" xlink:title="The class declaration and inline and templated functions for Gauss2DsxyModel. ">
<polygon fill="white" stroke="black" points="799.5,-110.5 799.5,-128.5 900.5,-128.5 900.5,-110.5 799.5,-110.5"/>
<text text-anchor="middle" x="850" y="-117.3" font-family="Helvetica,sans-Serif" font-size="9.00">Gauss2DsxyModel.h</text>
</a>
</g>
</g>
<!-- Node21&#45;&gt;Node29 -->
<g id="edge28" class="edge"><title>Node21&#45;&gt;Node29</title>
<path fill="none" stroke="midnightblue" d="M759.969,-161.283C782.108,-151.254 812.84,-137.333 832.063,-128.625"/>
<polygon fill="midnightblue" stroke="midnightblue" points="758.435,-158.136 750.77,-165.45 761.323,-164.512 758.435,-158.136"/>
</g>
<!-- Node24 -->
<g id="node24" class="node"><title>Node24</title>
<g id="a_node24"><a xlink:href="Gauss2DsModel_8cpp.html" target="_top" xlink:title="The class definition and template Specializations for Gauss2DsModel. ">
<polygon fill="white" stroke="black" points="458,-55.5 458,-73.5 560,-73.5 560,-55.5 458,-55.5"/>
<text text-anchor="middle" x="509" y="-62.3" font-family="Helvetica,sans-Serif" font-size="9.00">Gauss2DsModel.cpp</text>
</a>
</g>
</g>
<!-- Node23&#45;&gt;Node24 -->
<g id="edge23" class="edge"><title>Node23&#45;&gt;Node24</title>
<path fill="none" stroke="midnightblue" d="M594.898,-106.148C573.727,-96.1297 544.489,-82.2941 526.17,-73.6253"/>
<polygon fill="midnightblue" stroke="midnightblue" points="593.453,-109.337 603.99,-110.45 596.448,-103.009 593.453,-109.337"/>
</g>
<!-- Node25 -->
<g id="node25" class="node"><title>Node25</title>
<g id="a_node25"><a xlink:href="Gauss2DsMAP_8h.html" target="_top" xlink:title="The class declaration and inline and templated functions for Gauss2DsMAP. ">
<polygon fill="white" stroke="black" points="578,-55.5 578,-73.5 664,-73.5 664,-55.5 578,-55.5"/>
<text text-anchor="middle" x="621" y="-62.3" font-family="Helvetica,sans-Serif" font-size="9.00">Gauss2DsMAP.h</text>
</a>
</g>
</g>
<!-- Node23&#45;&gt;Node25 -->
<g id="edge24" class="edge"><title>Node23&#45;&gt;Node25</title>
<path fill="none" stroke="midnightblue" d="M621,-100.175C621,-91.0945 621,-80.5949 621,-73.5496"/>
<polygon fill="midnightblue" stroke="midnightblue" points="617.5,-100.219 621,-110.219 624.5,-100.219 617.5,-100.219"/>
</g>
<!-- Node27 -->
<g id="node27" class="node"><title>Node27</title>
<g id="a_node27"><a xlink:href="Gauss2DsMLE_8h.html" target="_top" xlink:title="The class declaration and inline and templated functions for Gauss2DsMLE. ">
<polygon fill="white" stroke="black" points="687,-55.5 687,-73.5 773,-73.5 773,-55.5 687,-55.5"/>
<text text-anchor="middle" x="730" y="-62.3" font-family="Helvetica,sans-Serif" font-size="9.00">Gauss2DsMLE.h</text>
</a>
</g>
</g>
<!-- Node23&#45;&gt;Node27 -->
<g id="edge26" class="edge"><title>Node23&#45;&gt;Node27</title>
<path fill="none" stroke="midnightblue" d="M646.682,-106.013C667.263,-96.0052 695.541,-82.2551 713.289,-73.6253"/>
<polygon fill="midnightblue" stroke="midnightblue" points="645.017,-102.93 637.555,-110.45 648.079,-109.225 645.017,-102.93"/>
</g>
<!-- Node26 -->
<g id="node26" class="node"><title>Node26</title>
<g id="a_node26"><a xlink:href="Gauss2DsMAP_8cpp.html" target="_top" xlink:title="The class definition and template Specializations for Gauss2DsMAP. ">
<polygon fill="white" stroke="black" points="570,-0.5 570,-18.5 666,-18.5 666,-0.5 570,-0.5"/>
<text text-anchor="middle" x="618" y="-7.3" font-family="Helvetica,sans-Serif" font-size="9.00">Gauss2DsMAP.cpp</text>
</a>
</g>
</g>
<!-- Node25&#45;&gt;Node26 -->
<g id="edge25" class="edge"><title>Node25&#45;&gt;Node26</title>
<path fill="none" stroke="midnightblue" d="M619.963,-45.1746C619.449,-36.0945 618.854,-25.5949 618.456,-18.5496"/>
<polygon fill="midnightblue" stroke="midnightblue" points="616.472,-45.4326 620.531,-55.2188 623.46,-45.0369 616.472,-45.4326"/>
</g>
<!-- Node28 -->
<g id="node28" class="node"><title>Node28</title>
<g id="a_node28"><a xlink:href="Gauss2DsMLE_8cpp.html" target="_top" xlink:title="The class definition and template Specializations for Gauss2DsMLE. ">
<polygon fill="white" stroke="black" points="684.5,-0.5 684.5,-18.5 779.5,-18.5 779.5,-0.5 684.5,-0.5"/>
<text text-anchor="middle" x="732" y="-7.3" font-family="Helvetica,sans-Serif" font-size="9.00">Gauss2DsMLE.cpp</text>
</a>
</g>
</g>
<!-- Node27&#45;&gt;Node28 -->
<g id="edge27" class="edge"><title>Node27&#45;&gt;Node28</title>
<path fill="none" stroke="midnightblue" d="M730.692,-45.1746C731.034,-36.0945 731.43,-25.5949 731.696,-18.5496"/>
<polygon fill="midnightblue" stroke="midnightblue" points="727.192,-45.0938 730.312,-55.2188 734.187,-45.3579 727.192,-45.0938"/>
</g>
<!-- Node31 -->
<g id="node31" class="node"><title>Node31</title>
<g id="a_node31"><a xlink:href="Gauss1DsMLE_8cpp.html" target="_top" xlink:title="The class definition and template Specializations for Gauss1DsMLE. ">
<polygon fill="white" stroke="black" points="918.5,-110.5 918.5,-128.5 1013.5,-128.5 1013.5,-110.5 918.5,-110.5"/>
<text text-anchor="middle" x="966" y="-117.3" font-family="Helvetica,sans-Serif" font-size="9.00">Gauss1DsMLE.cpp</text>
</a>
</g>
</g>
<!-- Node30&#45;&gt;Node31 -->
<g id="edge30" class="edge"><title>Node30&#45;&gt;Node31</title>
<path fill="none" stroke="midnightblue" d="M963.383,-155.175C964.068,-146.094 964.861,-135.595 965.392,-128.55"/>
<polygon fill="midnightblue" stroke="midnightblue" points="959.888,-154.984 962.625,-165.219 966.868,-155.511 959.888,-154.984"/>
</g>
<!-- Node32&#45;&gt;Node8 -->
<g id="edge33" class="edge"><title>Node32&#45;&gt;Node8</title>
<path fill="none" stroke="midnightblue" d="M449.028,-218.053C407.35,-207.92 345.007,-192.763 307.063,-183.538"/>
<polygon fill="midnightblue" stroke="midnightblue" points="448.347,-221.489 458.89,-220.45 450,-214.687 448.347,-221.489"/>
</g>
<!-- Node33 -->
<g id="node33" class="node"><title>Node33</title>
<g id="a_node33"><a xlink:href="MCMCAdaptor2D_8cpp.html" target="_top" xlink:title="The class definition and template Specializations for MCMCAdaptor2D. ">
<polygon fill="white" stroke="black" points="445.5,-165.5 445.5,-183.5 552.5,-183.5 552.5,-165.5 445.5,-165.5"/>
<text text-anchor="middle" x="499" y="-172.3" font-family="Helvetica,sans-Serif" font-size="9.00">MCMCAdaptor2D.cpp</text>
</a>
</g>
</g>
<!-- Node32&#45;&gt;Node33 -->
<g id="edge32" class="edge"><title>Node32&#45;&gt;Node33</title>
<path fill="none" stroke="midnightblue" d="M494.42,-210.175C495.62,-201.094 497.006,-190.595 497.937,-183.55"/>
<polygon fill="midnightblue" stroke="midnightblue" points="490.933,-209.847 493.094,-220.219 497.873,-210.763 490.933,-209.847"/>
</g>
<!-- Node34 -->
<g id="node34" class="node"><title>Node34</title>
<g id="a_node34"><a xlink:href="MCMCAdaptor2Ds_8h.html" target="_top" xlink:title="The class declaration and inline and templated functions for MCMCAdaptor2Ds. ">
<polygon fill="white" stroke="black" points="570.5,-165.5 570.5,-183.5 671.5,-183.5 671.5,-165.5 570.5,-165.5"/>
<text text-anchor="middle" x="621" y="-172.3" font-family="Helvetica,sans-Serif" font-size="9.00">MCMCAdaptor2Ds.h</text>
</a>
</g>
</g>
<!-- Node32&#45;&gt;Node34 -->
<g id="edge34" class="edge"><title>Node32&#45;&gt;Node34</title>
<path fill="none" stroke="midnightblue" d="M521.08,-216.552C545.536,-206.505 579.839,-192.411 601.223,-183.625"/>
<polygon fill="midnightblue" stroke="midnightblue" points="519.512,-213.413 511.592,-220.45 522.172,-219.888 519.512,-213.413"/>
</g>
<!-- Node34&#45;&gt;Node23 -->
<g id="edge36" class="edge"><title>Node34&#45;&gt;Node23</title>
<path fill="none" stroke="midnightblue" d="M621,-155.175C621,-146.094 621,-135.595 621,-128.55"/>
<polygon fill="midnightblue" stroke="midnightblue" points="617.5,-155.219 621,-165.219 624.5,-155.219 617.5,-155.219"/>
</g>
<!-- Node35 -->
<g id="node35" class="node"><title>Node35</title>
<g id="a_node35"><a xlink:href="MCMCAdaptor2Ds_8cpp.html" target="_top" xlink:title="The class definition and template Specializations for MCMCAdaptor2Ds. ">
<polygon fill="white" stroke="black" points="445.5,-110.5 445.5,-128.5 556.5,-128.5 556.5,-110.5 445.5,-110.5"/>
<text text-anchor="middle" x="501" y="-117.3" font-family="Helvetica,sans-Serif" font-size="9.00">MCMCAdaptor2Ds.cpp</text>
</a>
</g>
</g>
<!-- Node34&#45;&gt;Node35 -->
<g id="edge35" class="edge"><title>Node34&#45;&gt;Node35</title>
<path fill="none" stroke="midnightblue" d="M593.34,-161.283C570.633,-151.254 539.113,-137.333 519.397,-128.625"/>
<polygon fill="midnightblue" stroke="midnightblue" points="592.213,-164.612 602.775,-165.45 595.041,-158.209 592.213,-164.612"/>
</g>
</g>
</svg>
        <g id="navigator" transform="translate(0 0)" fill="#404254">
                <rect fill="#f2f5e9" fill-opacity="0.5" stroke="#606060" stroke-width=".5" x="0" y="0" width="60" height="60"/>
                <use id="zoomplus" xlink:href="#zoomPlus" x="17" y="9" onmousedown="handleZoom(evt,'in')"/>
                <use id="zoomminus" xlink:href="#zoomMin" x="42" y="9" onmousedown="handleZoom(evt,'out')"/>
                <use id="reset" xlink:href="#resetDef" x="30" y="36" onmousedown="handleReset()"/>
                <g id="arrowUp" xlink:href="#dirArrow" transform="translate(30 24)" onmousedown="handlePan(0,-1)">
                  <use xlink:href="#rim" fill="#404040">
                        <set attributeName="fill" to="#808080" begin="arrowUp.mouseover" end="arrowUp.mouseout"/>
                  </use>
                  <path fill="none" stroke="white" stroke-width="1.5" d="M0,-3.0v7 M-2.5,-0.5L0,-3.0L2.5,-0.5"/>
                </g>
                <g id="arrowRight" xlink:href="#dirArrow" transform="rotate(90) translate(36 -43)" onmousedown="handlePan(1,0)">
                  <use xlink:href="#rim" fill="#404040">
                        <set attributeName="fill" to="#808080" begin="arrowRight.mouseover" end="arrowRight.mouseout"/>
                  </use>
                  <path fill="none" stroke="white" stroke-width="1.5" d="M0,-3.0v7 M-2.5,-0.5L0,-3.0L2.5,-0.5"/>
                </g>
                <g id="arrowDown" xlink:href="#dirArrow" transform="rotate(180) translate(-30 -48)" onmousedown="handlePan(0,1)">
                  <use xlink:href="#rim" fill="#404040">
                        <set attributeName="fill" to="#808080" begin="arrowDown.mouseover" end="arrowDown.mouseout"/>
                  </use>
                  <path fill="none" stroke="white" stroke-width="1.5" d="M0,-3.0v7 M-2.5,-0.5L0,-3.0L2.5,-0.5"/>
                </g>
                <g id="arrowLeft" xlink:href="#dirArrow" transform="rotate(270) translate(-36 17)" onmousedown="handlePan(-1,0)">
                  <use xlink:href="#rim" fill="#404040">
                        <set attributeName="fill" to="#808080" begin="arrowLeft.mouseover" end="arrowLeft.mouseout"/>
                  </use>
                  <path fill="none" stroke="white" stroke-width="1.5" d="M0,-3.0v7 M-2.5,-0.5L0,-3.0L2.5,-0.5"/>
                </g>
        </g>
        <svg viewBox="0 0 15 15" width="100%" height="30px" preserveAspectRatio="xMaxYMin meet">
         <g id="arrow_out" transform="scale(0.3 0.3)">
          <a xlink:href="MCMCAdaptor1D_8h__dep__incl_org.svg" target="_base">
           <rect id="button" ry="5" rx="5" y="6" x="6" height="38" width="38"
                fill="#f2f5e9" fill-opacity="0.5" stroke="#606060" stroke-width="1.0"/>
           <path id="arrow"
             d="M 11.500037,31.436501 C 11.940474,20.09759 22.043105,11.32322 32.158766,21.979434 L 37.068811,17.246167 C 37.068811,17.246167 37.088388,32 37.088388,32 L 22.160133,31.978069 C 22.160133,31.978069 26.997745,27.140456 26.997745,27.140456 C 18.528582,18.264221 13.291696,25.230495 11.500037,31.436501 z"
             style="fill:#404040;"/>
          </a>
         </g>
        </svg>
</svg>
