<?xml version="1.0" encoding="UTF-8" standalone="no"?>
<!DOCTYPE svg PUBLIC "-//W3C//DTD SVG 1.1//EN"
 "http://www.w3.org/Graphics/SVG/1.1/DTD/svg11.dtd">
<!-- Generated by graphviz version 2.38.0 (20140413.2041)
 -->
<!-- Title: MCMCAdaptor2D.h Pages: 1 -->
<svg width="1421pt" height="387pt"
 viewBox="0.00 0.00 1421.22 387.00" xmlns="http://www.w3.org/2000/svg" xmlns:xlink="http://www.w3.org/1999/xlink">
<g id="graph0" class="graph" transform="scale(1 1) rotate(0) translate(4 383)">
<title>MCMCAdaptor2D.h</title>
<polygon fill="white" stroke="none" points="-4,4 -4,-383 1417.22,-383 1417.22,4 -4,4"/>
<!-- Node1 -->
<g id="node1" class="node"><title>Node1</title>
<polygon fill="#bfbfbf" stroke="black" points="374,-360.5 374,-378.5 471,-378.5 471,-360.5 374,-360.5"/>
<text text-anchor="middle" x="422.5" y="-367.3" font-family="Helvetica,sans-Serif" font-size="9.00">MCMCAdaptor2D.h</text>
</g>
<!-- Node2 -->
<g id="node2" class="node"><title>Node2</title>
<g id="a_node2"><a xlink:href="MCMCAdaptor1D_8h.html" target="_top" xlink:title="The class declaration and inline and templated functions for MCMCAdaptor1D. ">
<polygon fill="white" stroke="black" points="357.5,-305.5 357.5,-323.5 487.5,-323.5 487.5,-305.5 357.5,-305.5"/>
<text text-anchor="middle" x="422.5" y="-312.3" font-family="Helvetica,sans-Serif" font-size="9.00">Mappel/MCMCAdaptor1D.h</text>
</a>
</g>
</g>
<!-- Node1&#45;&gt;Node2 -->
<g id="edge1" class="edge"><title>Node1&#45;&gt;Node2</title>
<path fill="none" stroke="midnightblue" d="M422.5,-360.219C422.5,-353.177 422.5,-342.808 422.5,-333.828"/>
<polygon fill="midnightblue" stroke="midnightblue" points="426,-333.55 422.5,-323.55 419,-333.55 426,-333.55"/>
</g>
<!-- Node3 -->
<g id="node3" class="node"><title>Node3</title>
<g id="a_node3"><a xlink:href="MCMCAdaptorBase_8h.html" target="_top" xlink:title="The class declaration and inline and templated functions for MCMCAdaptorBase. ">
<polygon fill="white" stroke="black" points="212,-250.5 212,-268.5 351,-268.5 351,-250.5 212,-250.5"/>
<text text-anchor="middle" x="281.5" y="-257.3" font-family="Helvetica,sans-Serif" font-size="9.00">Mappel/MCMCAdaptorBase.h</text>
</a>
</g>
</g>
<!-- Node2&#45;&gt;Node3 -->
<g id="edge2" class="edge"><title>Node2&#45;&gt;Node3</title>
<path fill="none" stroke="midnightblue" d="M401.085,-305.45C377.586,-296.617 339.642,-282.355 312.805,-272.267"/>
<polygon fill="midnightblue" stroke="midnightblue" points="313.708,-268.868 303.116,-268.625 311.245,-275.42 313.708,-268.868"/>
</g>
<!-- Node14 -->
<g id="node14" class="node"><title>Node14</title>
<g id="a_node14"><a xlink:href="PointEmitterModel_8h.html" target="_top" xlink:title="The class declaration and inline and templated functions for PointEmitterModel. ">
<polygon fill="white" stroke="black" points="498.5,-250.5 498.5,-268.5 630.5,-268.5 630.5,-250.5 498.5,-250.5"/>
<text text-anchor="middle" x="564.5" y="-257.3" font-family="Helvetica,sans-Serif" font-size="9.00">Mappel/PointEmitterModel.h</text>
</a>
</g>
</g>
<!-- Node2&#45;&gt;Node14 -->
<g id="edge13" class="edge"><title>Node2&#45;&gt;Node14</title>
<path fill="none" stroke="midnightblue" d="M444.067,-305.45C467.837,-296.578 506.283,-282.229 533.33,-272.134"/>
<polygon fill="midnightblue" stroke="midnightblue" points="534.585,-275.401 542.73,-268.625 532.138,-268.843 534.585,-275.401"/>
</g>
<!-- Node4 -->
<g id="node4" class="node"><title>Node4</title>
<g id="a_node4"><a xlink:href="util_8h.html" target="_top" xlink:title="Mappel/util.h">
<polygon fill="white" stroke="black" points="203,-70.5 203,-88.5 272,-88.5 272,-70.5 203,-70.5"/>
<text text-anchor="middle" x="237.5" y="-77.3" font-family="Helvetica,sans-Serif" font-size="9.00">Mappel/util.h</text>
</a>
</g>
</g>
<!-- Node3&#45;&gt;Node4 -->
<g id="edge3" class="edge"><title>Node3&#45;&gt;Node4</title>
<path fill="none" stroke="midnightblue" d="M257.128,-250.459C239.99,-243.521 217.97,-231.773 205.5,-214 183.839,-183.129 180.098,-165.251 193.5,-130 198.672,-116.398 209.484,-104.146 219.096,-95.2348"/>
<polygon fill="midnightblue" stroke="midnightblue" points="221.496,-97.7859 226.737,-88.5782 216.898,-92.5077 221.496,-97.7859"/>
</g>
<!-- Node5 -->
<g id="node5" class="node"><title>Node5</title>
<polygon fill="white" stroke="#bfbfbf" points="184,-5.5 184,-23.5 227,-23.5 227,-5.5 184,-5.5"/>
<text text-anchor="middle" x="205.5" y="-12.3" font-family="Helvetica,sans-Serif" font-size="9.00">cstdint</text>
</g>
<!-- Node4&#45;&gt;Node5 -->
<g id="edge4" class="edge"><title>Node4&#45;&gt;Node5</title>
<path fill="none" stroke="midnightblue" d="M233.317,-70.2639C228.499,-60.779 220.452,-44.9361 214.249,-32.724"/>
<polygon fill="midnightblue" stroke="midnightblue" points="217.233,-30.8697 209.583,-23.539 210.991,-34.0398 217.233,-30.8697"/>
</g>
<!-- Node6 -->
<g id="node6" class="node"><title>Node6</title>
<polygon fill="white" stroke="#bfbfbf" points="0,-5.5 0,-23.5 41,-23.5 41,-5.5 0,-5.5"/>
<text text-anchor="middle" x="20.5" y="-12.3" font-family="Helvetica,sans-Serif" font-size="9.00">cmath</text>
</g>
<!-- Node4&#45;&gt;Node6 -->
<g id="edge5" class="edge"><title>Node4&#45;&gt;Node6</title>
<path fill="none" stroke="midnightblue" d="M208.501,-70.4309C201.929,-68.6245 194.979,-66.7314 188.5,-65 126.847,-48.5243 109.565,-50.5556 49.5,-29 48.2945,-28.5674 47.0708,-28.1031 45.8421,-27.6165"/>
<polygon fill="midnightblue" stroke="midnightblue" points="47.1077,-24.3507 36.5395,-23.6002 44.3331,-30.7773 47.1077,-24.3507"/>
</g>
<!-- Node7 -->
<g id="node7" class="node"><title>Node7</title>
<polygon fill="white" stroke="#bfbfbf" points="245.5,-5.5 245.5,-23.5 295.5,-23.5 295.5,-5.5 245.5,-5.5"/>
<text text-anchor="middle" x="270.5" y="-12.3" font-family="Helvetica,sans-Serif" font-size="9.00">memory</text>
</g>
<!-- Node4&#45;&gt;Node7 -->
<g id="edge6" class="edge"><title>Node4&#45;&gt;Node7</title>
<path fill="none" stroke="midnightblue" d="M241.814,-70.2639C246.782,-60.779 255.081,-44.9361 261.478,-32.724"/>
<polygon fill="midnightblue" stroke="midnightblue" points="264.749,-34.0213 266.289,-23.539 258.549,-30.7733 264.749,-34.0213"/>
</g>
<!-- Node8 -->
<g id="node8" class="node"><title>Node8</title>
<polygon fill="white" stroke="#bfbfbf" points="313.5,-5.5 313.5,-23.5 351.5,-23.5 351.5,-5.5 313.5,-5.5"/>
<text text-anchor="middle" x="332.5" y="-12.3" font-family="Helvetica,sans-Serif" font-size="9.00">utility</text>
</g>
<!-- Node4&#45;&gt;Node8 -->
<g id="edge7" class="edge"><title>Node4&#45;&gt;Node8</title>
<path fill="none" stroke="midnightblue" d="M249.92,-70.2639C265.652,-59.8305 292.986,-41.704 311.873,-29.1792"/>
<polygon fill="midnightblue" stroke="midnightblue" points="313.978,-31.9827 320.378,-23.539 310.109,-26.1489 313.978,-31.9827"/>
</g>
<!-- Node9 -->
<g id="node9" class="node"><title>Node9</title>
<polygon fill="white" stroke="#bfbfbf" points="540,-5.5 540,-23.5 579,-23.5 579,-5.5 540,-5.5"/>
<text text-anchor="middle" x="559.5" y="-12.3" font-family="Helvetica,sans-Serif" font-size="9.00">string</text>
</g>
<!-- Node4&#45;&gt;Node9 -->
<g id="edge8" class="edge"><title>Node4&#45;&gt;Node9</title>
<path fill="none" stroke="midnightblue" d="M261.453,-70.3808C267.616,-68.4575 274.268,-66.5245 280.5,-65 292.602,-62.0398 460.292,-32.7621 529.725,-20.6766"/>
<polygon fill="midnightblue" stroke="midnightblue" points="530.355,-24.1197 539.607,-18.9571 529.155,-17.2233 530.355,-24.1197"/>
</g>
<!-- Node10 -->
<g id="node10" class="node"><title>Node10</title>
<polygon fill="white" stroke="#bfbfbf" points="370,-5.5 370,-23.5 405,-23.5 405,-5.5 370,-5.5"/>
<text text-anchor="middle" x="387.5" y="-12.3" font-family="Helvetica,sans-Serif" font-size="9.00">map</text>
</g>
<!-- Node4&#45;&gt;Node10 -->
<g id="edge9" class="edge"><title>Node4&#45;&gt;Node10</title>
<path fill="none" stroke="midnightblue" d="M259.053,-70.4348C283.786,-61.0399 325.449,-44.7844 360.5,-29 361.199,-28.6853 361.906,-28.3625 362.618,-28.0335"/>
<polygon fill="midnightblue" stroke="midnightblue" points="364.404,-31.0585 371.898,-23.5694 361.369,-24.7504 364.404,-31.0585"/>
</g>
<!-- Node11 -->
<g id="node11" class="node"><title>Node11</title>
<polygon fill="white" stroke="#bfbfbf" points="423,-5.5 423,-23.5 472,-23.5 472,-5.5 423,-5.5"/>
<text text-anchor="middle" x="447.5" y="-12.3" font-family="Helvetica,sans-Serif" font-size="9.00">sstream</text>
</g>
<!-- Node4&#45;&gt;Node11 -->
<g id="edge10" class="edge"><title>Node4&#45;&gt;Node11</title>
<path fill="none" stroke="midnightblue" d="M262.46,-70.4787C268.362,-68.6336 274.642,-66.7117 280.5,-65 339.28,-47.825 355.393,-48.3307 413.5,-29 415.157,-28.4487 416.851,-27.86 418.554,-27.2484"/>
<polygon fill="midnightblue" stroke="midnightblue" points="420.105,-30.4039 428.222,-23.5947 417.63,-23.8559 420.105,-30.4039"/>
</g>
<!-- Node12 -->
<g id="node12" class="node"><title>Node12</title>
<polygon fill="white" stroke="#bfbfbf" points="1329,-5.5 1329,-23.5 1384,-23.5 1384,-5.5 1329,-5.5"/>
<text text-anchor="middle" x="1356.5" y="-12.3" font-family="Helvetica,sans-Serif" font-size="9.00">armadillo</text>
</g>
<!-- Node4&#45;&gt;Node12 -->
<g id="edge11" class="edge"><title>Node4&#45;&gt;Node12</title>
<path fill="none" stroke="midnightblue" d="M259.546,-70.3798C266.192,-68.2594 273.566,-66.2267 280.5,-65 486.139,-28.6221 1151.97,-18.0422 1318.48,-15.935"/>
<polygon fill="midnightblue" stroke="midnightblue" points="1318.76,-19.4319 1328.72,-15.8083 1318.68,-12.4325 1318.76,-19.4319"/>
</g>
<!-- Node13 -->
<g id="node13" class="node"><title>Node13</title>
<polygon fill="white" stroke="#bfbfbf" points="59,-0.5 59,-28.5 166,-28.5 166,-0.5 59,-0.5"/>
<text text-anchor="start" x="67" y="-17.3" font-family="Helvetica,sans-Serif" font-size="9.00">BacktraceException</text>
<text text-anchor="middle" x="112.5" y="-7.3" font-family="Helvetica,sans-Serif" font-size="9.00">/BacktraceException.h</text>
</g>
<!-- Node4&#45;&gt;Node13 -->
<g id="edge12" class="edge"><title>Node4&#45;&gt;Node13</title>
<path fill="none" stroke="midnightblue" d="M221.414,-70.3928C202.903,-61.0632 171.947,-45.4614 147.759,-33.2706"/>
<polygon fill="midnightblue" stroke="midnightblue" points="149.035,-29.9941 138.529,-28.6188 145.884,-36.245 149.035,-29.9941"/>
</g>
<!-- Node14&#45;&gt;Node4 -->
<g id="edge22" class="edge"><title>Node14&#45;&gt;Node4</title>
<path fill="none" stroke="midnightblue" d="M509.01,-250.465C474.629,-243.944 430.349,-232.679 394.5,-214 334.114,-182.536 276.744,-124.073 251.278,-96.1432"/>
<polygon fill="midnightblue" stroke="midnightblue" points="253.717,-93.6207 244.432,-88.5191 248.509,-98.2979 253.717,-93.6207"/>
</g>
<!-- Node14&#45;&gt;Node9 -->
<g id="edge15" class="edge"><title>Node14&#45;&gt;Node9</title>
<path fill="none" stroke="midnightblue" d="M529.557,-250.401C510.323,-243.965 488.068,-232.813 476.5,-214 437.218,-150.117 556.297,-166.747 591.5,-94 601.669,-72.9858 586.95,-47.8743 574.281,-31.8113"/>
<polygon fill="midnightblue" stroke="midnightblue" points="576.742,-29.2995 567.625,-23.9019 571.386,-33.8067 576.742,-29.2995"/>
</g>
<!-- Node14&#45;&gt;Node12 -->
<g id="edge16" class="edge"><title>Node14&#45;&gt;Node12</title>
<path fill="none" stroke="midnightblue" d="M630.518,-257.401C822.119,-253.89 1366.41,-241.526 1392.5,-214 1440.71,-163.127 1391.55,-70.4929 1367.79,-32.4744"/>
<polygon fill="midnightblue" stroke="midnightblue" points="1370.47,-30.1738 1362.12,-23.6594 1364.59,-33.9625 1370.47,-30.1738"/>
</g>
<!-- Node15 -->
<g id="node15" class="node"><title>Node15</title>
<polygon fill="white" stroke="#bfbfbf" points="931.5,-130.5 931.5,-148.5 983.5,-148.5 983.5,-130.5 931.5,-130.5"/>
<text text-anchor="middle" x="957.5" y="-137.3" font-family="Helvetica,sans-Serif" font-size="9.00">iostream</text>
</g>
<!-- Node14&#45;&gt;Node15 -->
<g id="edge14" class="edge"><title>Node14&#45;&gt;Node15</title>
<path fill="none" stroke="midnightblue" d="M535.424,-250.37C517.606,-243.719 496.223,-232.347 485.5,-214 478.996,-202.872 476.824,-194.532 485.5,-185 514.691,-152.927 815.74,-143.502 921.226,-141.173"/>
<polygon fill="midnightblue" stroke="midnightblue" points="921.46,-144.669 931.384,-140.958 921.312,-137.671 921.46,-144.669"/>
</g>
<!-- Node16 -->
<g id="node16" class="node"><title>Node16</title>
<polygon fill="white" stroke="#bfbfbf" points="494.5,-190.5 494.5,-208.5 634.5,-208.5 634.5,-190.5 494.5,-190.5"/>
<text text-anchor="middle" x="564.5" y="-197.3" font-family="Helvetica,sans-Serif" font-size="9.00">PriorHessian/CompositeDist.h</text>
</g>
<!-- Node14&#45;&gt;Node16 -->
<g id="edge17" class="edge"><title>Node14&#45;&gt;Node16</title>
<path fill="none" stroke="midnightblue" d="M564.5,-250.435C564.5,-242.389 564.5,-229.739 564.5,-219.185"/>
<polygon fill="midnightblue" stroke="midnightblue" points="568,-218.872 564.5,-208.872 561,-218.872 568,-218.872"/>
</g>
<!-- Node17 -->
<g id="node17" class="node"><title>Node17</title>
<polygon fill="white" stroke="#bfbfbf" points="653,-185.5 653,-213.5 796,-213.5 796,-185.5 653,-185.5"/>
<text text-anchor="start" x="661" y="-202.3" font-family="Helvetica,sans-Serif" font-size="9.00">PriorHessian/TruncatedNormal</text>
<text text-anchor="middle" x="724.5" y="-192.3" font-family="Helvetica,sans-Serif" font-size="9.00">Dist.h</text>
</g>
<!-- Node14&#45;&gt;Node17 -->
<g id="edge18" class="edge"><title>Node14&#45;&gt;Node17</title>
<path fill="none" stroke="midnightblue" d="M586.747,-250.435C610.534,-241.813 648.907,-227.903 679.118,-216.951"/>
<polygon fill="midnightblue" stroke="midnightblue" points="680.403,-220.208 688.612,-213.51 678.017,-213.627 680.403,-220.208"/>
</g>
<!-- Node18 -->
<g id="node18" class="node"><title>Node18</title>
<polygon fill="white" stroke="#bfbfbf" points="814,-185.5 814,-213.5 957,-213.5 957,-185.5 814,-185.5"/>
<text text-anchor="start" x="822" y="-202.3" font-family="Helvetica,sans-Serif" font-size="9.00">PriorHessian/ScaledSymmetric</text>
<text text-anchor="middle" x="885.5" y="-192.3" font-family="Helvetica,sans-Serif" font-size="9.00">BetaDist.h</text>
</g>
<!-- Node14&#45;&gt;Node18 -->
<g id="edge19" class="edge"><title>Node14&#45;&gt;Node18</title>
<path fill="none" stroke="midnightblue" d="M608.797,-250.496C658.976,-241.43 741.817,-226.461 803.802,-215.262"/>
<polygon fill="midnightblue" stroke="midnightblue" points="804.733,-218.65 813.951,-213.428 803.488,-211.762 804.733,-218.65"/>
</g>
<!-- Node19 -->
<g id="node19" class="node"><title>Node19</title>
<polygon fill="white" stroke="#bfbfbf" points="975.5,-185.5 975.5,-213.5 1121.5,-213.5 1121.5,-185.5 975.5,-185.5"/>
<text text-anchor="start" x="983.5" y="-202.3" font-family="Helvetica,sans-Serif" font-size="9.00">PriorHessian/TruncatedGamma</text>
<text text-anchor="middle" x="1048.5" y="-192.3" font-family="Helvetica,sans-Serif" font-size="9.00">Dist.h</text>
</g>
<!-- Node14&#45;&gt;Node19 -->
<g id="edge20" class="edge"><title>Node14&#45;&gt;Node19</title>
<path fill="none" stroke="midnightblue" d="M630.788,-252.247C708.483,-244.675 841.354,-230.967 965.173,-214.137"/>
<polygon fill="midnightblue" stroke="midnightblue" points="965.779,-217.587 975.212,-212.763 964.829,-210.652 965.779,-217.587"/>
</g>
<!-- Node20 -->
<g id="node20" class="node"><title>Node20</title>
<polygon fill="white" stroke="#bfbfbf" points="1139.5,-185.5 1139.5,-213.5 1279.5,-213.5 1279.5,-185.5 1139.5,-185.5"/>
<text text-anchor="start" x="1147.5" y="-202.3" font-family="Helvetica,sans-Serif" font-size="9.00">PriorHessian/TruncatedPareto</text>
<text text-anchor="middle" x="1209.5" y="-192.3" font-family="Helvetica,sans-Serif" font-size="9.00">Dist.h</text>
</g>
<!-- Node14&#45;&gt;Node20 -->
<g id="edge21" class="edge"><title>Node14&#45;&gt;Node20</title>
<path fill="none" stroke="midnightblue" d="M630.922,-255.237C735.006,-249.691 943.048,-236.867 1129.36,-214.063"/>
<polygon fill="midnightblue" stroke="midnightblue" points="1129.84,-217.53 1139.34,-212.83 1128.98,-210.583 1129.84,-217.53"/>
</g>
<!-- Node21 -->
<g id="node21" class="node"><title>Node21</title>
<g id="a_node21"><a xlink:href="stencil_8h.html" target="_top" xlink:title="The stencils for pixel based computations. ">
<polygon fill="white" stroke="black" points="215,-190.5 215,-208.5 298,-208.5 298,-190.5 215,-190.5"/>
<text text-anchor="middle" x="256.5" y="-197.3" font-family="Helvetica,sans-Serif" font-size="9.00">Mappel/stencil.h</text>
</a>
</g>
</g>
<!-- Node14&#45;&gt;Node21 -->
<g id="edge23" class="edge"><title>Node14&#45;&gt;Node21</title>
<path fill="none" stroke="midnightblue" d="M513.643,-250.467C462.62,-242.185 381.867,-228.472 312.5,-214 307.85,-213.03 302.997,-211.955 298.178,-210.848"/>
<polygon fill="midnightblue" stroke="midnightblue" points="298.942,-207.432 288.406,-208.552 297.341,-214.246 298.942,-207.432"/>
</g>
<!-- Node23 -->
<g id="node23" class="node"><title>Node23</title>
<g id="a_node23"><a xlink:href="rng_8h.html" target="_top" xlink:title="Random number generation usign sfmt. ">
<polygon fill="white" stroke="black" points="355,-130.5 355,-148.5 426,-148.5 426,-130.5 355,-130.5"/>
<text text-anchor="middle" x="390.5" y="-137.3" font-family="Helvetica,sans-Serif" font-size="9.00">Mappel/rng.h</text>
</a>
</g>
</g>
<!-- Node14&#45;&gt;Node23 -->
<g id="edge36" class="edge"><title>Node14&#45;&gt;Node23</title>
<path fill="none" stroke="midnightblue" d="M498.488,-252.699C469.43,-246.979 436.887,-235.786 414.5,-214 399.493,-199.396 393.863,-175.297 391.755,-158.698"/>
<polygon fill="midnightblue" stroke="midnightblue" points="395.227,-158.234 390.787,-148.614 388.259,-158.903 395.227,-158.234"/>
</g>
<!-- Node27 -->
<g id="node27" class="node"><title>Node27</title>
<g id="a_node27"><a xlink:href="display_8h.html" target="_top" xlink:title="Mappel/display.h">
<polygon fill="white" stroke="black" points="1297.5,-190.5 1297.5,-208.5 1383.5,-208.5 1383.5,-190.5 1297.5,-190.5"/>
<text text-anchor="middle" x="1340.5" y="-197.3" font-family="Helvetica,sans-Serif" font-size="9.00">Mappel/display.h</text>
</a>
</g>
</g>
<!-- Node14&#45;&gt;Node27 -->
<g id="edge32" class="edge"><title>Node14&#45;&gt;Node27</title>
<path fill="none" stroke="midnightblue" d="M630.849,-258.676C758.856,-258.079 1048.47,-252.169 1288.5,-214 1293.55,-213.197 1298.83,-212.118 1303.99,-210.919"/>
<polygon fill="midnightblue" stroke="midnightblue" points="1304.86,-214.311 1313.72,-208.505 1303.17,-207.517 1304.86,-214.311"/>
</g>
<!-- Node21&#45;&gt;Node4 -->
<g id="edge26" class="edge"><title>Node21&#45;&gt;Node4</title>
<path fill="none" stroke="midnightblue" d="M256.843,-190.408C257.234,-177.512 257.382,-151.556 253.5,-130 251.567,-119.267 247.898,-107.646 244.56,-98.3632"/>
<polygon fill="midnightblue" stroke="midnightblue" points="247.729,-96.8483 240.919,-88.7326 241.182,-99.3241 247.729,-96.8483"/>
</g>
<!-- Node21&#45;&gt;Node6 -->
<g id="edge24" class="edge"><title>Node21&#45;&gt;Node6</title>
<path fill="none" stroke="midnightblue" d="M246.055,-190.401C209.349,-161.938 85.9584,-66.258 38.9235,-29.786"/>
<polygon fill="midnightblue" stroke="midnightblue" points="40.8718,-26.8678 30.8245,-23.5059 36.5823,-32.3996 40.8718,-26.8678"/>
</g>
<!-- Node22 -->
<g id="node22" class="node"><title>Node22</title>
<polygon fill="white" stroke="#bfbfbf" points="202.5,-130.5 202.5,-148.5 244.5,-148.5 244.5,-130.5 202.5,-130.5"/>
<text text-anchor="middle" x="223.5" y="-137.3" font-family="Helvetica,sans-Serif" font-size="9.00">climits</text>
</g>
<!-- Node21&#45;&gt;Node22 -->
<g id="edge25" class="edge"><title>Node21&#45;&gt;Node22</title>
<path fill="none" stroke="midnightblue" d="M251.911,-190.435C247.139,-182.047 239.519,-168.654 233.371,-157.849"/>
<polygon fill="midnightblue" stroke="midnightblue" points="236.251,-155.833 228.263,-148.872 230.166,-159.294 236.251,-155.833"/>
</g>
<!-- Node21&#45;&gt;Node23 -->
<g id="edge27" class="edge"><title>Node21&#45;&gt;Node23</title>
<path fill="none" stroke="midnightblue" d="M275.132,-190.435C297.706,-180.665 335.964,-164.105 362.19,-152.754"/>
<polygon fill="midnightblue" stroke="midnightblue" points="363.807,-155.867 371.594,-148.683 361.027,-149.443 363.807,-155.867"/>
</g>
<!-- Node23&#45;&gt;Node4 -->
<g id="edge29" class="edge"><title>Node23&#45;&gt;Node4</title>
<path fill="none" stroke="midnightblue" d="M369.226,-130.435C343.111,-120.536 298.611,-103.666 268.645,-92.3064"/>
<polygon fill="midnightblue" stroke="midnightblue" points="269.678,-88.9552 259.087,-88.6831 267.197,-95.5006 269.678,-88.9552"/>
</g>
<!-- Node24 -->
<g id="node24" class="node"><title>Node24</title>
<polygon fill="white" stroke="#bfbfbf" points="534.5,-70.5 534.5,-88.5 582.5,-88.5 582.5,-70.5 534.5,-70.5"/>
<text text-anchor="middle" x="558.5" y="-77.3" font-family="Helvetica,sans-Serif" font-size="9.00">random</text>
</g>
<!-- Node23&#45;&gt;Node24 -->
<g id="edge28" class="edge"><title>Node23&#45;&gt;Node24</title>
<path fill="none" stroke="midnightblue" d="M416.82,-130.424C444.166,-121.893 488.108,-107.792 525.5,-94 526.916,-93.4779 528.361,-92.9328 529.817,-92.3738"/>
<polygon fill="midnightblue" stroke="midnightblue" points="531.386,-95.5172 539.394,-88.5806 528.808,-89.0091 531.386,-95.5172"/>
</g>
<!-- Node25 -->
<g id="node25" class="node"><title>Node25</title>
<polygon fill="white" stroke="#bfbfbf" points="290,-70.5 290,-88.5 387,-88.5 387,-70.5 290,-70.5"/>
<text text-anchor="middle" x="338.5" y="-77.3" font-family="Helvetica,sans-Serif" font-size="9.00">trng/lcg64_shift.hpp</text>
</g>
<!-- Node23&#45;&gt;Node25 -->
<g id="edge30" class="edge"><title>Node23&#45;&gt;Node25</title>
<path fill="none" stroke="midnightblue" d="M383.27,-130.435C375.442,-121.704 362.754,-107.552 352.88,-96.5395"/>
<polygon fill="midnightblue" stroke="midnightblue" points="355.287,-93.9811 346.006,-88.8718 350.075,-98.6539 355.287,-93.9811"/>
</g>
<!-- Node26 -->
<g id="node26" class="node"><title>Node26</title>
<polygon fill="white" stroke="#bfbfbf" points="404.5,-65.5 404.5,-93.5 516.5,-93.5 516.5,-65.5 404.5,-65.5"/>
<text text-anchor="start" x="412.5" y="-82.3" font-family="Helvetica,sans-Serif" font-size="9.00">ParallelRngManager</text>
<text text-anchor="middle" x="460.5" y="-72.3" font-family="Helvetica,sans-Serif" font-size="9.00">/ParallelRngManager.h</text>
</g>
<!-- Node23&#45;&gt;Node26 -->
<g id="edge31" class="edge"><title>Node23&#45;&gt;Node26</title>
<path fill="none" stroke="midnightblue" d="M400.233,-130.435C409.663,-122.622 424.332,-110.468 436.837,-100.106"/>
<polygon fill="midnightblue" stroke="midnightblue" points="439.198,-102.696 444.665,-93.6203 434.732,-97.3055 439.198,-102.696"/>
</g>
<!-- Node27&#45;&gt;Node12 -->
<g id="edge35" class="edge"><title>Node27&#45;&gt;Node12</title>
<path fill="none" stroke="midnightblue" d="M1341.23,-190.161C1343.64,-162.533 1351.43,-73.5258 1354.85,-34.3297"/>
<polygon fill="midnightblue" stroke="midnightblue" points="1358.38,-34.1545 1355.77,-23.8876 1351.41,-33.5448 1358.38,-34.1545"/>
</g>
<!-- Node27&#45;&gt;Node15 -->
<g id="edge33" class="edge"><title>Node27&#45;&gt;Node15</title>
<path fill="none" stroke="midnightblue" d="M1312.03,-190.45C1304.43,-188.481 1296.19,-186.509 1288.5,-185 1182.49,-164.192 1055.47,-150.101 994.163,-143.972"/>
<polygon fill="midnightblue" stroke="midnightblue" points="994.146,-140.453 983.85,-142.954 993.458,-147.419 994.146,-140.453"/>
</g>
<!-- Node28 -->
<g id="node28" class="node"><title>Node28</title>
<polygon fill="white" stroke="#bfbfbf" points="1278.5,-130.5 1278.5,-148.5 1328.5,-148.5 1328.5,-130.5 1278.5,-130.5"/>
<text text-anchor="middle" x="1303.5" y="-137.3" font-family="Helvetica,sans-Serif" font-size="9.00">iomanip</text>
</g>
<!-- Node27&#45;&gt;Node28 -->
<g id="edge34" class="edge"><title>Node27&#45;&gt;Node28</title>
<path fill="none" stroke="midnightblue" d="M1335.36,-190.435C1329.95,-181.961 1321.29,-168.38 1314.36,-157.519"/>
<polygon fill="midnightblue" stroke="midnightblue" points="1317.17,-155.42 1308.84,-148.872 1311.27,-159.185 1317.17,-155.42"/>
</g>
</g>
</svg>
