<?xml version="1.0" encoding="UTF-8" standalone="no"?>
<!DOCTYPE svg PUBLIC "-//W3C//DTD SVG 1.1//EN"
 "http://www.w3.org/Graphics/SVG/1.1/DTD/svg11.dtd">
<!-- Generated by graphviz version 2.38.0 (20140413.2041)
 -->
<!-- Title: MCMCAdaptor1Ds.h Pages: 1 -->
<svg width="450pt" height="302pt"
 viewBox="0.00 0.00 449.50 302.00" xmlns="http://www.w3.org/2000/svg" xmlns:xlink="http://www.w3.org/1999/xlink">
<g id="graph0" class="graph" transform="scale(1 1) rotate(0) translate(4 298)">
<title>MCMCAdaptor1Ds.h</title>
<polygon fill="white" stroke="none" points="-4,4 -4,-298 445.5,-298 445.5,4 -4,4"/>
<!-- Node1 -->
<g id="node1" class="node"><title>Node1</title>
<polygon fill="#bfbfbf" stroke="black" points="84.5,-275.5 84.5,-293.5 185.5,-293.5 185.5,-275.5 84.5,-275.5"/>
<text text-anchor="middle" x="135" y="-282.3" font-family="Helvetica,sans-Serif" font-size="9.00">MCMCAdaptor1Ds.h</text>
</g>
<!-- Node2 -->
<g id="node2" class="node"><title>Node2</title>
<g id="a_node2"><a xlink:href="MCMCAdaptor1Ds_8cpp.html" target="_top" xlink:title="The class definition and template Specializations for MCMCAdaptor1Ds. ">
<polygon fill="white" stroke="black" points="19.5,-220.5 19.5,-238.5 130.5,-238.5 130.5,-220.5 19.5,-220.5"/>
<text text-anchor="middle" x="75" y="-227.3" font-family="Helvetica,sans-Serif" font-size="9.00">MCMCAdaptor1Ds.cpp</text>
</a>
</g>
</g>
<!-- Node1&#45;&gt;Node2 -->
<g id="edge1" class="edge"><title>Node1&#45;&gt;Node2</title>
<path fill="none" stroke="midnightblue" d="M118.178,-268.641C107.174,-258.92 93.2165,-246.591 84.1985,-238.625"/>
<polygon fill="midnightblue" stroke="midnightblue" points="116.075,-271.453 125.887,-275.45 120.71,-266.207 116.075,-271.453"/>
</g>
<!-- Node3 -->
<g id="node3" class="node"><title>Node3</title>
<g id="a_node3"><a xlink:href="Gauss1DsModel_8h.html" target="_top" xlink:title="The class declaration and inline and templated functions for Gauss1DsModel. ">
<polygon fill="white" stroke="black" points="149,-220.5 149,-238.5 241,-238.5 241,-220.5 149,-220.5"/>
<text text-anchor="middle" x="195" y="-227.3" font-family="Helvetica,sans-Serif" font-size="9.00">Gauss1DsModel.h</text>
</a>
</g>
</g>
<!-- Node1&#45;&gt;Node3 -->
<g id="edge2" class="edge"><title>Node1&#45;&gt;Node3</title>
<path fill="none" stroke="midnightblue" d="M151.822,-268.641C162.826,-258.92 176.783,-246.591 185.802,-238.625"/>
<polygon fill="midnightblue" stroke="midnightblue" points="149.29,-266.207 144.113,-275.45 153.925,-271.453 149.29,-266.207"/>
</g>
<!-- Node4 -->
<g id="node4" class="node"><title>Node4</title>
<g id="a_node4"><a xlink:href="Gauss1DsModel_8cpp.html" target="_top" xlink:title="The class definition and template Specializations for Gauss1DsModel. ">
<polygon fill="white" stroke="black" points="32,-165.5 32,-183.5 134,-183.5 134,-165.5 32,-165.5"/>
<text text-anchor="middle" x="83" y="-172.3" font-family="Helvetica,sans-Serif" font-size="9.00">Gauss1DsModel.cpp</text>
</a>
</g>
</g>
<!-- Node3&#45;&gt;Node4 -->
<g id="edge3" class="edge"><title>Node3&#45;&gt;Node4</title>
<path fill="none" stroke="midnightblue" d="M168.898,-216.148C147.727,-206.13 118.489,-192.294 100.17,-183.625"/>
<polygon fill="midnightblue" stroke="midnightblue" points="167.453,-219.337 177.99,-220.45 170.448,-213.009 167.453,-219.337"/>
</g>
<!-- Node5 -->
<g id="node5" class="node"><title>Node5</title>
<g id="a_node5"><a xlink:href="Gauss1DsMAP_8h.html" target="_top" xlink:title="The class declaration and inline and templated functions for Gauss1DsMAP. ">
<polygon fill="white" stroke="black" points="152,-165.5 152,-183.5 238,-183.5 238,-165.5 152,-165.5"/>
<text text-anchor="middle" x="195" y="-172.3" font-family="Helvetica,sans-Serif" font-size="9.00">Gauss1DsMAP.h</text>
</a>
</g>
</g>
<!-- Node3&#45;&gt;Node5 -->
<g id="edge4" class="edge"><title>Node3&#45;&gt;Node5</title>
<path fill="none" stroke="midnightblue" d="M195,-210.175C195,-201.094 195,-190.595 195,-183.55"/>
<polygon fill="midnightblue" stroke="midnightblue" points="191.5,-210.219 195,-220.219 198.5,-210.219 191.5,-210.219"/>
</g>
<!-- Node14 -->
<g id="node14" class="node"><title>Node14</title>
<g id="a_node14"><a xlink:href="Gauss1DsMLE_8h.html" target="_top" xlink:title="The class declaration and inline and templated functions for Gauss1DsMLE. ">
<polygon fill="white" stroke="black" points="319,-165.5 319,-183.5 405,-183.5 405,-165.5 319,-165.5"/>
<text text-anchor="middle" x="362" y="-172.3" font-family="Helvetica,sans-Serif" font-size="9.00">Gauss1DsMLE.h</text>
</a>
</g>
</g>
<!-- Node3&#45;&gt;Node14 -->
<g id="edge13" class="edge"><title>Node3&#45;&gt;Node14</title>
<path fill="none" stroke="midnightblue" d="M230.172,-217.338C262.057,-207.218 308.281,-192.549 336.672,-183.538"/>
<polygon fill="midnightblue" stroke="midnightblue" points="228.836,-214.089 220.364,-220.45 230.954,-220.761 228.836,-214.089"/>
</g>
<!-- Node6 -->
<g id="node6" class="node"><title>Node6</title>
<g id="a_node6"><a xlink:href="Gauss1DsMAP_8cpp.html" target="_top" xlink:title="The class definition and template Specializations for Gauss1DsMAP. ">
<polygon fill="white" stroke="black" points="3,-110.5 3,-128.5 99,-128.5 99,-110.5 3,-110.5"/>
<text text-anchor="middle" x="51" y="-117.3" font-family="Helvetica,sans-Serif" font-size="9.00">Gauss1DsMAP.cpp</text>
</a>
</g>
</g>
<!-- Node5&#45;&gt;Node6 -->
<g id="edge5" class="edge"><title>Node5&#45;&gt;Node6</title>
<path fill="none" stroke="midnightblue" d="M163.624,-161.952C136.263,-151.881 97.2659,-137.528 73.0763,-128.625"/>
<polygon fill="midnightblue" stroke="midnightblue" points="162.536,-165.281 173.129,-165.45 164.954,-158.712 162.536,-165.281"/>
</g>
<!-- Node7 -->
<g id="node7" class="node"><title>Node7</title>
<g id="a_node7"><a xlink:href="Gauss2DsModel_8h.html" target="_top" xlink:title="The class declaration and inline and templated functions for Gauss2DsModel. ">
<polygon fill="white" stroke="black" points="117,-110.5 117,-128.5 209,-128.5 209,-110.5 117,-110.5"/>
<text text-anchor="middle" x="163" y="-117.3" font-family="Helvetica,sans-Serif" font-size="9.00">Gauss2DsModel.h</text>
</a>
</g>
</g>
<!-- Node5&#45;&gt;Node7 -->
<g id="edge6" class="edge"><title>Node5&#45;&gt;Node7</title>
<path fill="none" stroke="midnightblue" d="M184.831,-156.658C179.156,-147.259 172.348,-135.982 167.86,-128.55"/>
<polygon fill="midnightblue" stroke="midnightblue" points="181.835,-158.467 190,-165.219 187.827,-154.849 181.835,-158.467"/>
</g>
<!-- Node13 -->
<g id="node13" class="node"><title>Node13</title>
<g id="a_node13"><a xlink:href="Gauss2DsxyModel_8h.html" target="_top" xlink:title="The class declaration and inline and templated functions for Gauss2DsxyModel. ">
<polygon fill="white" stroke="black" points="227.5,-110.5 227.5,-128.5 328.5,-128.5 328.5,-110.5 227.5,-110.5"/>
<text text-anchor="middle" x="278" y="-117.3" font-family="Helvetica,sans-Serif" font-size="9.00">Gauss2DsxyModel.h</text>
</a>
</g>
</g>
<!-- Node5&#45;&gt;Node13 -->
<g id="edge12" class="edge"><title>Node5&#45;&gt;Node13</title>
<path fill="none" stroke="midnightblue" d="M216.062,-160.051C231.584,-150.139 252.189,-136.982 265.275,-128.625"/>
<polygon fill="midnightblue" stroke="midnightblue" points="214.15,-157.119 207.606,-165.45 217.918,-163.018 214.15,-157.119"/>
</g>
<!-- Node8 -->
<g id="node8" class="node"><title>Node8</title>
<g id="a_node8"><a xlink:href="Gauss2DsModel_8cpp.html" target="_top" xlink:title="The class definition and template Specializations for Gauss2DsModel. ">
<polygon fill="white" stroke="black" points="0,-55.5 0,-73.5 102,-73.5 102,-55.5 0,-55.5"/>
<text text-anchor="middle" x="51" y="-62.3" font-family="Helvetica,sans-Serif" font-size="9.00">Gauss2DsModel.cpp</text>
</a>
</g>
</g>
<!-- Node7&#45;&gt;Node8 -->
<g id="edge7" class="edge"><title>Node7&#45;&gt;Node8</title>
<path fill="none" stroke="midnightblue" d="M136.898,-106.148C115.727,-96.1297 86.4895,-82.2941 68.1705,-73.6253"/>
<polygon fill="midnightblue" stroke="midnightblue" points="135.453,-109.337 145.99,-110.45 138.448,-103.009 135.453,-109.337"/>
</g>
<!-- Node9 -->
<g id="node9" class="node"><title>Node9</title>
<g id="a_node9"><a xlink:href="Gauss2DsMAP_8h.html" target="_top" xlink:title="The class declaration and inline and templated functions for Gauss2DsMAP. ">
<polygon fill="white" stroke="black" points="120,-55.5 120,-73.5 206,-73.5 206,-55.5 120,-55.5"/>
<text text-anchor="middle" x="163" y="-62.3" font-family="Helvetica,sans-Serif" font-size="9.00">Gauss2DsMAP.h</text>
</a>
</g>
</g>
<!-- Node7&#45;&gt;Node9 -->
<g id="edge8" class="edge"><title>Node7&#45;&gt;Node9</title>
<path fill="none" stroke="midnightblue" d="M163,-100.175C163,-91.0945 163,-80.5949 163,-73.5496"/>
<polygon fill="midnightblue" stroke="midnightblue" points="159.5,-100.219 163,-110.219 166.5,-100.219 159.5,-100.219"/>
</g>
<!-- Node11 -->
<g id="node11" class="node"><title>Node11</title>
<g id="a_node11"><a xlink:href="Gauss2DsMLE_8h.html" target="_top" xlink:title="The class declaration and inline and templated functions for Gauss2DsMLE. ">
<polygon fill="white" stroke="black" points="229,-55.5 229,-73.5 315,-73.5 315,-55.5 229,-55.5"/>
<text text-anchor="middle" x="272" y="-62.3" font-family="Helvetica,sans-Serif" font-size="9.00">Gauss2DsMLE.h</text>
</a>
</g>
</g>
<!-- Node7&#45;&gt;Node11 -->
<g id="edge10" class="edge"><title>Node7&#45;&gt;Node11</title>
<path fill="none" stroke="midnightblue" d="M188.682,-106.013C209.263,-96.0052 237.541,-82.2551 255.289,-73.6253"/>
<polygon fill="midnightblue" stroke="midnightblue" points="187.017,-102.93 179.555,-110.45 190.079,-109.225 187.017,-102.93"/>
</g>
<!-- Node10 -->
<g id="node10" class="node"><title>Node10</title>
<g id="a_node10"><a xlink:href="Gauss2DsMAP_8cpp.html" target="_top" xlink:title="The class definition and template Specializations for Gauss2DsMAP. ">
<polygon fill="white" stroke="black" points="113,-0.5 113,-18.5 209,-18.5 209,-0.5 113,-0.5"/>
<text text-anchor="middle" x="161" y="-7.3" font-family="Helvetica,sans-Serif" font-size="9.00">Gauss2DsMAP.cpp</text>
</a>
</g>
</g>
<!-- Node9&#45;&gt;Node10 -->
<g id="edge9" class="edge"><title>Node9&#45;&gt;Node10</title>
<path fill="none" stroke="midnightblue" d="M162.308,-45.1746C161.966,-36.0945 161.57,-25.5949 161.304,-18.5496"/>
<polygon fill="midnightblue" stroke="midnightblue" points="158.813,-45.3579 162.688,-55.2188 165.808,-45.0938 158.813,-45.3579"/>
</g>
<!-- Node12 -->
<g id="node12" class="node"><title>Node12</title>
<g id="a_node12"><a xlink:href="Gauss2DsMLE_8cpp.html" target="_top" xlink:title="The class definition and template Specializations for Gauss2DsMLE. ">
<polygon fill="white" stroke="black" points="227.5,-0.5 227.5,-18.5 322.5,-18.5 322.5,-0.5 227.5,-0.5"/>
<text text-anchor="middle" x="275" y="-7.3" font-family="Helvetica,sans-Serif" font-size="9.00">Gauss2DsMLE.cpp</text>
</a>
</g>
</g>
<!-- Node11&#45;&gt;Node12 -->
<g id="edge11" class="edge"><title>Node11&#45;&gt;Node12</title>
<path fill="none" stroke="midnightblue" d="M273.037,-45.1746C273.551,-36.0945 274.146,-25.5949 274.544,-18.5496"/>
<polygon fill="midnightblue" stroke="midnightblue" points="269.54,-45.0369 272.469,-55.2188 276.528,-45.4326 269.54,-45.0369"/>
</g>
<!-- Node15 -->
<g id="node15" class="node"><title>Node15</title>
<g id="a_node15"><a xlink:href="Gauss1DsMLE_8cpp.html" target="_top" xlink:title="The class definition and template Specializations for Gauss1DsMLE. ">
<polygon fill="white" stroke="black" points="346.5,-110.5 346.5,-128.5 441.5,-128.5 441.5,-110.5 346.5,-110.5"/>
<text text-anchor="middle" x="394" y="-117.3" font-family="Helvetica,sans-Serif" font-size="9.00">Gauss1DsMLE.cpp</text>
</a>
</g>
</g>
<!-- Node14&#45;&gt;Node15 -->
<g id="edge14" class="edge"><title>Node14&#45;&gt;Node15</title>
<path fill="none" stroke="midnightblue" d="M372.169,-156.658C377.844,-147.259 384.652,-135.982 389.14,-128.55"/>
<polygon fill="midnightblue" stroke="midnightblue" points="369.173,-154.849 367,-165.219 375.165,-158.467 369.173,-154.849"/>
</g>
</g>
</svg>
