<?xml version="1.0" encoding="UTF-8" standalone="no"?>
<!DOCTYPE svg PUBLIC "-//W3C//DTD SVG 1.1//EN"
 "http://www.w3.org/Graphics/SVG/1.1/DTD/svg11.dtd">
<!-- Generated by graphviz version 2.38.0 (20140413.2041)
 -->
<!-- Title: MCMCAdaptor2D.h Pages: 1 -->
<!--zoomable 247 -->
<svg id="main" version="1.1" xmlns="http://www.w3.org/2000/svg" xmlns:xlink="http://www.w3.org/1999/xlink" xml:space="preserve" onload="init(evt)">
<style type="text/css"><![CDATA[
.edge:hover path { stroke: red; }
.edge:hover polygon { stroke: red; fill: red; }
]]></style>
<script type="text/javascript"><![CDATA[
var edges = document.getElementsByTagName('g');
if (edges && edges.length) {
  for (var i=0;i<edges.length;i++) {
    if (edges[i].id.substr(0,4)=='edge') {
      edges[i].setAttribute('class','edge');
    }
  }
}
]]></script>
        <defs>
                <circle id="rim" cx="0" cy="0" r="7"/>
                <circle id="rim2" cx="0" cy="0" r="3.5"/>
                <g id="zoomPlus">
                        <use xlink:href="#rim" fill="#404040">
                                <set attributeName="fill" to="#808080" begin="zoomplus.mouseover" end="zoomplus.mouseout"/>
                        </use>
                        <path d="M-4,0h8M0,-4v8" fill="none" stroke="white" stroke-width="1.5" pointer-events="none"/>
                </g>
                <g id="zoomMin">
                        <use xlink:href="#rim" fill="#404040">
                                <set attributeName="fill" to="#808080" begin="zoomminus.mouseover" end="zoomminus.mouseout"/>
                        </use>
                        <path d="M-4,0h8" fill="none" stroke="white" stroke-width="1.5" pointer-events="none"/>
                </g>
                <g id="dirArrow">
                        <path fill="none" stroke="white" stroke-width="1.5" d="M0,-3.0v7 M-2.5,-0.5L0,-3.0L2.5,-0.5"/>
                </g>
               <g id="resetDef">
                       <use xlink:href="#rim2" fill="#404040">
                               <set attributeName="fill" to="#808080" begin="reset.mouseover" end="reset.mouseout"/>
                       </use>
               </g>
        </defs>

<script type="text/javascript">
var viewWidth = 658;
var viewHeight = 247;
var sectionId = 'dynsection-1';
</script>
<script xlink:href="svgpan.js"/>
<svg id="graph" class="graph">
<g id="viewport">
<title>MCMCAdaptor2D.h</title>
<polygon fill="white" stroke="none" points="-4,4 -4,-243 653.5,-243 653.5,4 -4,4"/>
<!-- Node1 -->
<g id="node1" class="node"><title>Node1</title>
<polygon fill="#bfbfbf" stroke="black" points="158.5,-220.5 158.5,-238.5 255.5,-238.5 255.5,-220.5 158.5,-220.5"/>
<text text-anchor="middle" x="207" y="-227.3" font-family="Helvetica,sans-Serif" font-size="9.00">MCMCAdaptor2D.h</text>
</g>
<!-- Node2 -->
<g id="node2" class="node"><title>Node2</title>
<g id="a_node2"><a xlink:href="MCMCAdaptor2D_8cpp.html" target="_top" xlink:title="The class definition and template Specializations for MCMCAdaptor2D. ">
<polygon fill="white" stroke="black" points="38.5,-165.5 38.5,-183.5 145.5,-183.5 145.5,-165.5 38.5,-165.5"/>
<text text-anchor="middle" x="92" y="-172.3" font-family="Helvetica,sans-Serif" font-size="9.00">MCMCAdaptor2D.cpp</text>
</a>
</g>
</g>
<!-- Node1&#45;&gt;Node2 -->
<g id="edge1" class="edge"><title>Node1&#45;&gt;Node2</title>
<path fill="none" stroke="midnightblue" d="M180.199,-216.148C158.461,-206.13 128.44,-192.294 109.63,-183.625"/>
<polygon fill="midnightblue" stroke="midnightblue" points="178.987,-219.443 189.534,-220.45 181.917,-213.086 178.987,-219.443"/>
</g>
<!-- Node3 -->
<g id="node3" class="node"><title>Node3</title>
<g id="a_node3"><a xlink:href="Gauss2DModel_8h.html" target="_top" xlink:title="The class declaration and inline and templated functions for Gauss2DModel. ">
<polygon fill="white" stroke="black" points="163,-165.5 163,-183.5 251,-183.5 251,-165.5 163,-165.5"/>
<text text-anchor="middle" x="207" y="-172.3" font-family="Helvetica,sans-Serif" font-size="9.00">Gauss2DModel.h</text>
</a>
</g>
</g>
<!-- Node1&#45;&gt;Node3 -->
<g id="edge2" class="edge"><title>Node1&#45;&gt;Node3</title>
<path fill="none" stroke="midnightblue" d="M207,-210.175C207,-201.094 207,-190.595 207,-183.55"/>
<polygon fill="midnightblue" stroke="midnightblue" points="203.5,-210.219 207,-220.219 210.5,-210.219 203.5,-210.219"/>
</g>
<!-- Node9 -->
<g id="node9" class="node"><title>Node9</title>
<g id="a_node9"><a xlink:href="MCMCAdaptor2Ds_8h.html" target="_top" xlink:title="The class declaration and inline and templated functions for MCMCAdaptor2Ds. ">
<polygon fill="white" stroke="black" points="320.5,-165.5 320.5,-183.5 421.5,-183.5 421.5,-165.5 320.5,-165.5"/>
<text text-anchor="middle" x="371" y="-172.3" font-family="Helvetica,sans-Serif" font-size="9.00">MCMCAdaptor2Ds.h</text>
</a>
</g>
</g>
<!-- Node1&#45;&gt;Node9 -->
<g id="edge8" class="edge"><title>Node1&#45;&gt;Node9</title>
<path fill="none" stroke="midnightblue" d="M241.54,-217.338C272.853,-207.218 318.246,-192.549 346.127,-183.538"/>
<polygon fill="midnightblue" stroke="midnightblue" points="240.347,-214.045 231.908,-220.45 242.5,-220.706 240.347,-214.045"/>
</g>
<!-- Node4 -->
<g id="node4" class="node"><title>Node4</title>
<g id="a_node4"><a xlink:href="Gauss2DModel_8cpp.html" target="_top" xlink:title="The class definition and template Specializations for Gauss2DModel. ">
<polygon fill="white" stroke="black" points="0,-110.5 0,-128.5 98,-128.5 98,-110.5 0,-110.5"/>
<text text-anchor="middle" x="49" y="-117.3" font-family="Helvetica,sans-Serif" font-size="9.00">Gauss2DModel.cpp</text>
</a>
</g>
</g>
<!-- Node3&#45;&gt;Node4 -->
<g id="edge3" class="edge"><title>Node3&#45;&gt;Node4</title>
<path fill="none" stroke="midnightblue" d="M173.331,-162.206C143.178,-152.091 99.7076,-137.51 72.9633,-128.538"/>
<polygon fill="midnightblue" stroke="midnightblue" points="172.409,-165.588 183.003,-165.45 174.635,-158.952 172.409,-165.588"/>
</g>
<!-- Node5 -->
<g id="node5" class="node"><title>Node5</title>
<g id="a_node5"><a xlink:href="Gauss2DMAP_8h.html" target="_top" xlink:title="The class declaration and inline and templated functions for Gauss2DMAP. ">
<polygon fill="white" stroke="black" points="116,-110.5 116,-128.5 198,-128.5 198,-110.5 116,-110.5"/>
<text text-anchor="middle" x="157" y="-117.3" font-family="Helvetica,sans-Serif" font-size="9.00">Gauss2DMAP.h</text>
</a>
</g>
</g>
<!-- Node3&#45;&gt;Node5 -->
<g id="edge4" class="edge"><title>Node3&#45;&gt;Node5</title>
<path fill="none" stroke="midnightblue" d="M192.21,-157.822C183.137,-148.205 171.898,-136.292 164.594,-128.55"/>
<polygon fill="midnightblue" stroke="midnightblue" points="189.779,-160.347 199.188,-165.219 194.871,-155.543 189.779,-160.347"/>
</g>
<!-- Node7 -->
<g id="node7" class="node"><title>Node7</title>
<g id="a_node7"><a xlink:href="Gauss2DMLE_8h.html" target="_top" xlink:title="The class declaration and inline and templated functions for Gauss2DMLE. ">
<polygon fill="white" stroke="black" points="216.5,-110.5 216.5,-128.5 297.5,-128.5 297.5,-110.5 216.5,-110.5"/>
<text text-anchor="middle" x="257" y="-117.3" font-family="Helvetica,sans-Serif" font-size="9.00">Gauss2DMLE.h</text>
</a>
</g>
</g>
<!-- Node3&#45;&gt;Node7 -->
<g id="edge6" class="edge"><title>Node3&#45;&gt;Node7</title>
<path fill="none" stroke="midnightblue" d="M221.79,-157.822C230.863,-148.205 242.102,-136.292 249.406,-128.55"/>
<polygon fill="midnightblue" stroke="midnightblue" points="219.129,-155.543 214.812,-165.219 224.221,-160.347 219.129,-155.543"/>
</g>
<!-- Node6 -->
<g id="node6" class="node"><title>Node6</title>
<g id="a_node6"><a xlink:href="Gauss2DMAP_8cpp.html" target="_top" xlink:title="The class definition and template Specializations for Gauss2DMAP. ">
<polygon fill="white" stroke="black" points="105,-55.5 105,-73.5 197,-73.5 197,-55.5 105,-55.5"/>
<text text-anchor="middle" x="151" y="-62.3" font-family="Helvetica,sans-Serif" font-size="9.00">Gauss2DMAP.cpp</text>
</a>
</g>
</g>
<!-- Node5&#45;&gt;Node6 -->
<g id="edge5" class="edge"><title>Node5&#45;&gt;Node6</title>
<path fill="none" stroke="midnightblue" d="M154.925,-100.175C153.897,-91.0945 152.709,-80.5949 151.911,-73.5496"/>
<polygon fill="midnightblue" stroke="midnightblue" points="151.46,-100.676 156.062,-110.219 158.415,-99.8885 151.46,-100.676"/>
</g>
<!-- Node8 -->
<g id="node8" class="node"><title>Node8</title>
<g id="a_node8"><a xlink:href="Gauss2DMLE_8cpp.html" target="_top" xlink:title="The class definition and template Specializations for Gauss2DMLE. ">
<polygon fill="white" stroke="black" points="215.5,-55.5 215.5,-73.5 306.5,-73.5 306.5,-55.5 215.5,-55.5"/>
<text text-anchor="middle" x="261" y="-62.3" font-family="Helvetica,sans-Serif" font-size="9.00">Gauss2DMLE.cpp</text>
</a>
</g>
</g>
<!-- Node7&#45;&gt;Node8 -->
<g id="edge7" class="edge"><title>Node7&#45;&gt;Node8</title>
<path fill="none" stroke="midnightblue" d="M258.383,-100.175C259.068,-91.0945 259.861,-80.5949 260.392,-73.5496"/>
<polygon fill="midnightblue" stroke="midnightblue" points="254.888,-99.9837 257.625,-110.219 261.868,-100.511 254.888,-99.9837"/>
</g>
<!-- Node10 -->
<g id="node10" class="node"><title>Node10</title>
<g id="a_node10"><a xlink:href="MCMCAdaptor2Ds_8cpp.html" target="_top" xlink:title="The class definition and template Specializations for MCMCAdaptor2Ds. ">
<polygon fill="white" stroke="black" points="315.5,-110.5 315.5,-128.5 426.5,-128.5 426.5,-110.5 315.5,-110.5"/>
<text text-anchor="middle" x="371" y="-117.3" font-family="Helvetica,sans-Serif" font-size="9.00">MCMCAdaptor2Ds.cpp</text>
</a>
</g>
</g>
<!-- Node9&#45;&gt;Node10 -->
<g id="edge9" class="edge"><title>Node9&#45;&gt;Node10</title>
<path fill="none" stroke="midnightblue" d="M371,-155.175C371,-146.094 371,-135.595 371,-128.55"/>
<polygon fill="midnightblue" stroke="midnightblue" points="367.5,-155.219 371,-165.219 374.5,-155.219 367.5,-155.219"/>
</g>
<!-- Node11 -->
<g id="node11" class="node"><title>Node11</title>
<g id="a_node11"><a xlink:href="Gauss2DsModel_8h.html" target="_top" xlink:title="The class declaration and inline and templated functions for Gauss2DsModel. ">
<polygon fill="white" stroke="black" points="445,-110.5 445,-128.5 537,-128.5 537,-110.5 445,-110.5"/>
<text text-anchor="middle" x="491" y="-117.3" font-family="Helvetica,sans-Serif" font-size="9.00">Gauss2DsModel.h</text>
</a>
</g>
</g>
<!-- Node9&#45;&gt;Node11 -->
<g id="edge10" class="edge"><title>Node9&#45;&gt;Node11</title>
<path fill="none" stroke="midnightblue" d="M398.66,-161.283C421.367,-151.254 452.887,-137.333 472.603,-128.625"/>
<polygon fill="midnightblue" stroke="midnightblue" points="396.959,-158.209 389.225,-165.45 399.787,-164.612 396.959,-158.209"/>
</g>
<!-- Node12 -->
<g id="node12" class="node"><title>Node12</title>
<g id="a_node12"><a xlink:href="Gauss2DsModel_8cpp.html" target="_top" xlink:title="The class definition and template Specializations for Gauss2DsModel. ">
<polygon fill="white" stroke="black" points="328,-55.5 328,-73.5 430,-73.5 430,-55.5 328,-55.5"/>
<text text-anchor="middle" x="379" y="-62.3" font-family="Helvetica,sans-Serif" font-size="9.00">Gauss2DsModel.cpp</text>
</a>
</g>
</g>
<!-- Node11&#45;&gt;Node12 -->
<g id="edge11" class="edge"><title>Node11&#45;&gt;Node12</title>
<path fill="none" stroke="midnightblue" d="M464.898,-106.148C443.727,-96.1297 414.489,-82.2941 396.17,-73.6253"/>
<polygon fill="midnightblue" stroke="midnightblue" points="463.453,-109.337 473.99,-110.45 466.448,-103.009 463.453,-109.337"/>
</g>
<!-- Node13 -->
<g id="node13" class="node"><title>Node13</title>
<g id="a_node13"><a xlink:href="Gauss2DsMAP_8h.html" target="_top" xlink:title="The class declaration and inline and templated functions for Gauss2DsMAP. ">
<polygon fill="white" stroke="black" points="448,-55.5 448,-73.5 534,-73.5 534,-55.5 448,-55.5"/>
<text text-anchor="middle" x="491" y="-62.3" font-family="Helvetica,sans-Serif" font-size="9.00">Gauss2DsMAP.h</text>
</a>
</g>
</g>
<!-- Node11&#45;&gt;Node13 -->
<g id="edge12" class="edge"><title>Node11&#45;&gt;Node13</title>
<path fill="none" stroke="midnightblue" d="M491,-100.175C491,-91.0945 491,-80.5949 491,-73.5496"/>
<polygon fill="midnightblue" stroke="midnightblue" points="487.5,-100.219 491,-110.219 494.5,-100.219 487.5,-100.219"/>
</g>
<!-- Node15 -->
<g id="node15" class="node"><title>Node15</title>
<g id="a_node15"><a xlink:href="Gauss2DsMLE_8h.html" target="_top" xlink:title="The class declaration and inline and templated functions for Gauss2DsMLE. ">
<polygon fill="white" stroke="black" points="557,-55.5 557,-73.5 643,-73.5 643,-55.5 557,-55.5"/>
<text text-anchor="middle" x="600" y="-62.3" font-family="Helvetica,sans-Serif" font-size="9.00">Gauss2DsMLE.h</text>
</a>
</g>
</g>
<!-- Node11&#45;&gt;Node15 -->
<g id="edge14" class="edge"><title>Node11&#45;&gt;Node15</title>
<path fill="none" stroke="midnightblue" d="M516.682,-106.013C537.263,-96.0052 565.541,-82.2551 583.289,-73.6253"/>
<polygon fill="midnightblue" stroke="midnightblue" points="515.017,-102.93 507.555,-110.45 518.079,-109.225 515.017,-102.93"/>
</g>
<!-- Node14 -->
<g id="node14" class="node"><title>Node14</title>
<g id="a_node14"><a xlink:href="Gauss2DsMAP_8cpp.html" target="_top" xlink:title="The class definition and template Specializations for Gauss2DsMAP. ">
<polygon fill="white" stroke="black" points="440,-0.5 440,-18.5 536,-18.5 536,-0.5 440,-0.5"/>
<text text-anchor="middle" x="488" y="-7.3" font-family="Helvetica,sans-Serif" font-size="9.00">Gauss2DsMAP.cpp</text>
</a>
</g>
</g>
<!-- Node13&#45;&gt;Node14 -->
<g id="edge13" class="edge"><title>Node13&#45;&gt;Node14</title>
<path fill="none" stroke="midnightblue" d="M489.963,-45.1746C489.449,-36.0945 488.854,-25.5949 488.456,-18.5496"/>
<polygon fill="midnightblue" stroke="midnightblue" points="486.472,-45.4326 490.531,-55.2188 493.46,-45.0369 486.472,-45.4326"/>
</g>
<!-- Node16 -->
<g id="node16" class="node"><title>Node16</title>
<g id="a_node16"><a xlink:href="Gauss2DsMLE_8cpp.html" target="_top" xlink:title="The class definition and template Specializations for Gauss2DsMLE. ">
<polygon fill="white" stroke="black" points="554.5,-0.5 554.5,-18.5 649.5,-18.5 649.5,-0.5 554.5,-0.5"/>
<text text-anchor="middle" x="602" y="-7.3" font-family="Helvetica,sans-Serif" font-size="9.00">Gauss2DsMLE.cpp</text>
</a>
</g>
</g>
<!-- Node15&#45;&gt;Node16 -->
<g id="edge15" class="edge"><title>Node15&#45;&gt;Node16</title>
<path fill="none" stroke="midnightblue" d="M600.692,-45.1746C601.034,-36.0945 601.43,-25.5949 601.696,-18.5496"/>
<polygon fill="midnightblue" stroke="midnightblue" points="597.192,-45.0938 600.312,-55.2188 604.187,-45.3579 597.192,-45.0938"/>
</g>
</g>
</svg>
        <g id="navigator" transform="translate(0 0)" fill="#404254">
                <rect fill="#f2f5e9" fill-opacity="0.5" stroke="#606060" stroke-width=".5" x="0" y="0" width="60" height="60"/>
                <use id="zoomplus" xlink:href="#zoomPlus" x="17" y="9" onmousedown="handleZoom(evt,'in')"/>
                <use id="zoomminus" xlink:href="#zoomMin" x="42" y="9" onmousedown="handleZoom(evt,'out')"/>
                <use id="reset" xlink:href="#resetDef" x="30" y="36" onmousedown="handleReset()"/>
                <g id="arrowUp" xlink:href="#dirArrow" transform="translate(30 24)" onmousedown="handlePan(0,-1)">
                  <use xlink:href="#rim" fill="#404040">
                        <set attributeName="fill" to="#808080" begin="arrowUp.mouseover" end="arrowUp.mouseout"/>
                  </use>
                  <path fill="none" stroke="white" stroke-width="1.5" d="M0,-3.0v7 M-2.5,-0.5L0,-3.0L2.5,-0.5"/>
                </g>
                <g id="arrowRight" xlink:href="#dirArrow" transform="rotate(90) translate(36 -43)" onmousedown="handlePan(1,0)">
                  <use xlink:href="#rim" fill="#404040">
                        <set attributeName="fill" to="#808080" begin="arrowRight.mouseover" end="arrowRight.mouseout"/>
                  </use>
                  <path fill="none" stroke="white" stroke-width="1.5" d="M0,-3.0v7 M-2.5,-0.5L0,-3.0L2.5,-0.5"/>
                </g>
                <g id="arrowDown" xlink:href="#dirArrow" transform="rotate(180) translate(-30 -48)" onmousedown="handlePan(0,1)">
                  <use xlink:href="#rim" fill="#404040">
                        <set attributeName="fill" to="#808080" begin="arrowDown.mouseover" end="arrowDown.mouseout"/>
                  </use>
                  <path fill="none" stroke="white" stroke-width="1.5" d="M0,-3.0v7 M-2.5,-0.5L0,-3.0L2.5,-0.5"/>
                </g>
                <g id="arrowLeft" xlink:href="#dirArrow" transform="rotate(270) translate(-36 17)" onmousedown="handlePan(-1,0)">
                  <use xlink:href="#rim" fill="#404040">
                        <set attributeName="fill" to="#808080" begin="arrowLeft.mouseover" end="arrowLeft.mouseout"/>
                  </use>
                  <path fill="none" stroke="white" stroke-width="1.5" d="M0,-3.0v7 M-2.5,-0.5L0,-3.0L2.5,-0.5"/>
                </g>
        </g>
        <svg viewBox="0 0 15 15" width="100%" height="30px" preserveAspectRatio="xMaxYMin meet">
         <g id="arrow_out" transform="scale(0.3 0.3)">
          <a xlink:href="MCMCAdaptor2D_8h__dep__incl_org.svg" target="_base">
           <rect id="button" ry="5" rx="5" y="6" x="6" height="38" width="38"
                fill="#f2f5e9" fill-opacity="0.5" stroke="#606060" stroke-width="1.0"/>
           <path id="arrow"
             d="M 11.500037,31.436501 C 11.940474,20.09759 22.043105,11.32322 32.158766,21.979434 L 37.068811,17.246167 C 37.068811,17.246167 37.088388,32 37.088388,32 L 22.160133,31.978069 C 22.160133,31.978069 26.997745,27.140456 26.997745,27.140456 C 18.528582,18.264221 13.291696,25.230495 11.500037,31.436501 z"
             style="fill:#404040;"/>
          </a>
         </g>
        </svg>
</svg>
