<?xml version="1.0" encoding="UTF-8" standalone="no"?>
<!DOCTYPE svg PUBLIC "-//W3C//DTD SVG 1.1//EN"
 "http://www.w3.org/Graphics/SVG/1.1/DTD/svg11.dtd">
<!-- Generated by graphviz version 2.38.0 (20140413.2041)
 -->
<!-- Title: MLEstimator.h Pages: 1 -->
<!--zoomable 302 -->
<svg id="main" version="1.1" xmlns="http://www.w3.org/2000/svg" xmlns:xlink="http://www.w3.org/1999/xlink" xml:space="preserve" onload="init(evt)">
<style type="text/css"><![CDATA[
.edge:hover path { stroke: red; }
.edge:hover polygon { stroke: red; fill: red; }
]]></style>
<script type="text/javascript"><![CDATA[
var edges = document.getElementsByTagName('g');
if (edges && edges.length) {
  for (var i=0;i<edges.length;i++) {
    if (edges[i].id.substr(0,4)=='edge') {
      edges[i].setAttribute('class','edge');
    }
  }
}
]]></script>
        <defs>
                <circle id="rim" cx="0" cy="0" r="7"/>
                <circle id="rim2" cx="0" cy="0" r="3.5"/>
                <g id="zoomPlus">
                        <use xlink:href="#rim" fill="#404040">
                                <set attributeName="fill" to="#808080" begin="zoomplus.mouseover" end="zoomplus.mouseout"/>
                        </use>
                        <path d="M-4,0h8M0,-4v8" fill="none" stroke="white" stroke-width="1.5" pointer-events="none"/>
                </g>
                <g id="zoomMin">
                        <use xlink:href="#rim" fill="#404040">
                                <set attributeName="fill" to="#808080" begin="zoomminus.mouseover" end="zoomminus.mouseout"/>
                        </use>
                        <path d="M-4,0h8" fill="none" stroke="white" stroke-width="1.5" pointer-events="none"/>
                </g>
                <g id="dirArrow">
                        <path fill="none" stroke="white" stroke-width="1.5" d="M0,-3.0v7 M-2.5,-0.5L0,-3.0L2.5,-0.5"/>
                </g>
               <g id="resetDef">
                       <use xlink:href="#rim2" fill="#404040">
                               <set attributeName="fill" to="#808080" begin="reset.mouseover" end="reset.mouseout"/>
                       </use>
               </g>
        </defs>

<script type="text/javascript">
var viewWidth = 1080;
var viewHeight = 302;
var sectionId = 'dynsection-1';
</script>
<script xlink:href="svgpan.js"/>
<svg id="graph" class="graph">
<g id="viewport">
<title>MLEstimator.h</title>
<polygon fill="white" stroke="none" points="-4,4 -4,-298 1076,-298 1076,4 -4,4"/>
<!-- Node1 -->
<g id="node1" class="node"><title>Node1</title>
<polygon fill="#bfbfbf" stroke="black" points="569,-275.5 569,-293.5 644,-293.5 644,-275.5 569,-275.5"/>
<text text-anchor="middle" x="606.5" y="-282.3" font-family="Helvetica,sans-Serif" font-size="9.00">MLEstimator.h</text>
</g>
<!-- Node2 -->
<g id="node2" class="node"><title>Node2</title>
<g id="a_node2"><a xlink:href="Gauss1DMLE_8h.html" target="_top" xlink:title="The class declaration and inline and templated functions for Gauss1DMLE. ">
<polygon fill="white" stroke="black" points="11,-220.5 11,-238.5 92,-238.5 92,-220.5 11,-220.5"/>
<text text-anchor="middle" x="51.5" y="-227.3" font-family="Helvetica,sans-Serif" font-size="9.00">Gauss1DMLE.h</text>
</a>
</g>
</g>
<!-- Node1&#45;&gt;Node2 -->
<g id="edge1" class="edge"><title>Node1&#45;&gt;Node2</title>
<path fill="none" stroke="midnightblue" d="M558.814,-280.232C469.893,-273.919 272.797,-258.896 107.5,-239 102.521,-238.401 97.303,-237.703 92.1392,-236.969"/>
<polygon fill="midnightblue" stroke="midnightblue" points="558.637,-283.728 568.859,-280.94 559.13,-276.745 558.637,-283.728"/>
</g>
<!-- Node4 -->
<g id="node4" class="node"><title>Node4</title>
<g id="a_node4"><a xlink:href="Gauss1DsMLE_8h.html" target="_top" xlink:title="The class declaration and inline and templated functions for Gauss1DsMLE. ">
<polygon fill="white" stroke="black" points="116.5,-220.5 116.5,-238.5 202.5,-238.5 202.5,-220.5 116.5,-220.5"/>
<text text-anchor="middle" x="159.5" y="-227.3" font-family="Helvetica,sans-Serif" font-size="9.00">Gauss1DsMLE.h</text>
</a>
</g>
</g>
<!-- Node1&#45;&gt;Node4 -->
<g id="edge3" class="edge"><title>Node1&#45;&gt;Node4</title>
<path fill="none" stroke="midnightblue" d="M558.428,-278.438C485.056,-270.61 340.753,-254.814 218.5,-239 213.368,-238.336 207.991,-237.607 202.659,-236.864"/>
<polygon fill="midnightblue" stroke="midnightblue" points="558.414,-281.956 568.728,-279.534 559.155,-274.996 558.414,-281.956"/>
</g>
<!-- Node6 -->
<g id="node6" class="node"><title>Node6</title>
<g id="a_node6"><a xlink:href="Gauss2DMLE_8h.html" target="_top" xlink:title="The class declaration and inline and templated functions for Gauss2DMLE. ">
<polygon fill="white" stroke="black" points="192,-55.5 192,-73.5 273,-73.5 273,-55.5 192,-55.5"/>
<text text-anchor="middle" x="232.5" y="-62.3" font-family="Helvetica,sans-Serif" font-size="9.00">Gauss2DMLE.h</text>
</a>
</g>
</g>
<!-- Node1&#45;&gt;Node6 -->
<g id="edge5" class="edge"><title>Node1&#45;&gt;Node6</title>
<path fill="none" stroke="midnightblue" d="M558.529,-275.862C482.35,-261.207 333.923,-221.936 251.5,-129 237.298,-112.987 233.703,-86.7217 232.799,-73.5551"/>
<polygon fill="midnightblue" stroke="midnightblue" points="558.313,-279.382 568.785,-277.77 559.593,-272.5 558.313,-279.382"/>
</g>
<!-- Node8 -->
<g id="node8" class="node"><title>Node8</title>
<g id="a_node8"><a xlink:href="Gauss2DsMAP_8h.html" target="_top" xlink:title="The class declaration and inline and templated functions for Gauss2DsMAP. ">
<polygon fill="white" stroke="black" points="866.5,-55.5 866.5,-73.5 952.5,-73.5 952.5,-55.5 866.5,-55.5"/>
<text text-anchor="middle" x="909.5" y="-62.3" font-family="Helvetica,sans-Serif" font-size="9.00">Gauss2DsMAP.h</text>
</a>
</g>
</g>
<!-- Node1&#45;&gt;Node8 -->
<g id="edge7" class="edge"><title>Node1&#45;&gt;Node8</title>
<path fill="none" stroke="midnightblue" d="M653.953,-279.555C735.145,-269.938 898.7,-237.4 968.5,-129 982.92,-106.605 949.195,-84.8226 927.008,-73.5112"/>
<polygon fill="midnightblue" stroke="midnightblue" points="653.55,-276.078 644.001,-280.668 654.328,-283.035 653.55,-276.078"/>
</g>
<!-- Node10 -->
<g id="node10" class="node"><title>Node10</title>
<g id="a_node10"><a xlink:href="Gauss2DsMLE_8h.html" target="_top" xlink:title="The class declaration and inline and templated functions for Gauss2DsMLE. ">
<polygon fill="white" stroke="black" points="981.5,-55.5 981.5,-73.5 1067.5,-73.5 1067.5,-55.5 981.5,-55.5"/>
<text text-anchor="middle" x="1024.5" y="-62.3" font-family="Helvetica,sans-Serif" font-size="9.00">Gauss2DsMLE.h</text>
</a>
</g>
</g>
<!-- Node1&#45;&gt;Node10 -->
<g id="edge9" class="edge"><title>Node1&#45;&gt;Node10</title>
<path fill="none" stroke="midnightblue" d="M654.265,-282.435C726.456,-278.283 863.601,-260.116 945.5,-184 982.628,-149.493 1010.95,-94.263 1020.76,-73.6267"/>
<polygon fill="midnightblue" stroke="midnightblue" points="653.909,-278.948 644.099,-282.951 654.264,-285.939 653.909,-278.948"/>
</g>
<!-- Node12 -->
<g id="node12" class="node"><title>Node12</title>
<g id="a_node12"><a xlink:href="MAPEstimator_8h.html" target="_top" xlink:title="Class declaration and inline and templated functions for MAPEstimator. ">
<polygon fill="white" stroke="black" points="565.5,-220.5 565.5,-238.5 647.5,-238.5 647.5,-220.5 565.5,-220.5"/>
<text text-anchor="middle" x="606.5" y="-227.3" font-family="Helvetica,sans-Serif" font-size="9.00">MAPEstimator.h</text>
</a>
</g>
</g>
<!-- Node1&#45;&gt;Node12 -->
<g id="edge11" class="edge"><title>Node1&#45;&gt;Node12</title>
<path fill="none" stroke="midnightblue" d="M600.044,-265.175C599.371,-256.094 599.853,-245.595 601.491,-238.55"/>
<polygon fill="midnightblue" stroke="midnightblue" points="596.596,-265.795 601.438,-275.219 603.53,-264.833 596.596,-265.795"/>
</g>
<!-- Node3 -->
<g id="node3" class="node"><title>Node3</title>
<g id="a_node3"><a xlink:href="Gauss1DMLE_8cpp.html" target="_top" xlink:title="The class definition and template Specializations for Gauss1DMLE. ">
<polygon fill="white" stroke="black" points="0,-165.5 0,-183.5 91,-183.5 91,-165.5 0,-165.5"/>
<text text-anchor="middle" x="45.5" y="-172.3" font-family="Helvetica,sans-Serif" font-size="9.00">Gauss1DMLE.cpp</text>
</a>
</g>
</g>
<!-- Node2&#45;&gt;Node3 -->
<g id="edge2" class="edge"><title>Node2&#45;&gt;Node3</title>
<path fill="none" stroke="midnightblue" d="M49.4254,-210.175C48.3975,-201.094 47.2089,-190.595 46.4113,-183.55"/>
<polygon fill="midnightblue" stroke="midnightblue" points="45.9597,-210.676 50.5625,-220.219 52.9153,-209.888 45.9597,-210.676"/>
</g>
<!-- Node5 -->
<g id="node5" class="node"><title>Node5</title>
<g id="a_node5"><a xlink:href="Gauss1DsMLE_8cpp.html" target="_top" xlink:title="The class definition and template Specializations for Gauss1DsMLE. ">
<polygon fill="white" stroke="black" points="109,-165.5 109,-183.5 204,-183.5 204,-165.5 109,-165.5"/>
<text text-anchor="middle" x="156.5" y="-172.3" font-family="Helvetica,sans-Serif" font-size="9.00">Gauss1DsMLE.cpp</text>
</a>
</g>
</g>
<!-- Node4&#45;&gt;Node5 -->
<g id="edge4" class="edge"><title>Node4&#45;&gt;Node5</title>
<path fill="none" stroke="midnightblue" d="M158.463,-210.175C157.949,-201.094 157.354,-190.595 156.956,-183.55"/>
<polygon fill="midnightblue" stroke="midnightblue" points="154.972,-210.433 159.031,-220.219 161.96,-210.037 154.972,-210.433"/>
</g>
<!-- Node7 -->
<g id="node7" class="node"><title>Node7</title>
<g id="a_node7"><a xlink:href="Gauss2DMLE_8cpp.html" target="_top" xlink:title="The class definition and template Specializations for Gauss2DMLE. ">
<polygon fill="white" stroke="black" points="187,-0.5 187,-18.5 278,-18.5 278,-0.5 187,-0.5"/>
<text text-anchor="middle" x="232.5" y="-7.3" font-family="Helvetica,sans-Serif" font-size="9.00">Gauss2DMLE.cpp</text>
</a>
</g>
</g>
<!-- Node6&#45;&gt;Node7 -->
<g id="edge6" class="edge"><title>Node6&#45;&gt;Node7</title>
<path fill="none" stroke="midnightblue" d="M232.5,-45.1746C232.5,-36.0945 232.5,-25.5949 232.5,-18.5496"/>
<polygon fill="midnightblue" stroke="midnightblue" points="229,-45.2187 232.5,-55.2188 236,-45.2188 229,-45.2187"/>
</g>
<!-- Node9 -->
<g id="node9" class="node"><title>Node9</title>
<g id="a_node9"><a xlink:href="Gauss2DsMAP_8cpp.html" target="_top" xlink:title="The class definition and template Specializations for Gauss2DsMAP. ">
<polygon fill="white" stroke="black" points="861.5,-0.5 861.5,-18.5 957.5,-18.5 957.5,-0.5 861.5,-0.5"/>
<text text-anchor="middle" x="909.5" y="-7.3" font-family="Helvetica,sans-Serif" font-size="9.00">Gauss2DsMAP.cpp</text>
</a>
</g>
</g>
<!-- Node8&#45;&gt;Node9 -->
<g id="edge8" class="edge"><title>Node8&#45;&gt;Node9</title>
<path fill="none" stroke="midnightblue" d="M909.5,-45.1746C909.5,-36.0945 909.5,-25.5949 909.5,-18.5496"/>
<polygon fill="midnightblue" stroke="midnightblue" points="906,-45.2187 909.5,-55.2188 913,-45.2188 906,-45.2187"/>
</g>
<!-- Node11 -->
<g id="node11" class="node"><title>Node11</title>
<g id="a_node11"><a xlink:href="Gauss2DsMLE_8cpp.html" target="_top" xlink:title="The class definition and template Specializations for Gauss2DsMLE. ">
<polygon fill="white" stroke="black" points="977,-0.5 977,-18.5 1072,-18.5 1072,-0.5 977,-0.5"/>
<text text-anchor="middle" x="1024.5" y="-7.3" font-family="Helvetica,sans-Serif" font-size="9.00">Gauss2DsMLE.cpp</text>
</a>
</g>
</g>
<!-- Node10&#45;&gt;Node11 -->
<g id="edge10" class="edge"><title>Node10&#45;&gt;Node11</title>
<path fill="none" stroke="midnightblue" d="M1024.5,-45.1746C1024.5,-36.0945 1024.5,-25.5949 1024.5,-18.5496"/>
<polygon fill="midnightblue" stroke="midnightblue" points="1021,-45.2187 1024.5,-55.2188 1028,-45.2188 1021,-45.2187"/>
</g>
<!-- Node12&#45;&gt;Node1 -->
<g id="edge29" class="edge"><title>Node12&#45;&gt;Node1</title>
<path fill="none" stroke="midnightblue" d="M612.934,-248.529C613.632,-257.577 613.175,-268.099 611.562,-275.219"/>
<polygon fill="midnightblue" stroke="midnightblue" points="616.387,-247.955 611.509,-238.55 609.457,-248.944 616.387,-247.955"/>
</g>
<!-- Node13 -->
<g id="node13" class="node"><title>Node13</title>
<g id="a_node13"><a xlink:href="Gauss1DMAP_8h.html" target="_top" xlink:title="The class declaration and inline and templated functions for Gauss1DMAP. ">
<polygon fill="white" stroke="black" points="434.5,-165.5 434.5,-183.5 516.5,-183.5 516.5,-165.5 434.5,-165.5"/>
<text text-anchor="middle" x="475.5" y="-172.3" font-family="Helvetica,sans-Serif" font-size="9.00">Gauss1DMAP.h</text>
</a>
</g>
</g>
<!-- Node12&#45;&gt;Node13 -->
<g id="edge12" class="edge"><title>Node12&#45;&gt;Node13</title>
<path fill="none" stroke="midnightblue" d="M577.299,-216.686C552.444,-206.63 517.396,-192.45 495.583,-183.625"/>
<polygon fill="midnightblue" stroke="midnightblue" points="576.021,-219.944 586.604,-220.45 578.647,-213.455 576.021,-219.944"/>
</g>
<!-- Node18 -->
<g id="node18" class="node"><title>Node18</title>
<g id="a_node18"><a xlink:href="Gauss2DMAP_8h.html" target="_top" xlink:title="The class declaration and inline and templated functions for Gauss2DMAP. ">
<polygon fill="white" stroke="black" points="486.5,-55.5 486.5,-73.5 568.5,-73.5 568.5,-55.5 486.5,-55.5"/>
<text text-anchor="middle" x="527.5" y="-62.3" font-family="Helvetica,sans-Serif" font-size="9.00">Gauss2DMAP.h</text>
</a>
</g>
</g>
<!-- Node12&#45;&gt;Node18 -->
<g id="edge27" class="edge"><title>Node12&#45;&gt;Node18</title>
<path fill="none" stroke="midnightblue" d="M607.669,-210.244C608.381,-185.654 606.548,-141.362 587.5,-110 577.401,-93.3731 558.538,-80.953 544.648,-73.5182"/>
<polygon fill="midnightblue" stroke="midnightblue" points="604.169,-210.163 607.198,-220.315 611.161,-210.49 604.169,-210.163"/>
</g>
<!-- Node20 -->
<g id="node20" class="node"><title>Node20</title>
<g id="a_node20"><a xlink:href="Gauss1DsMAP_8h.html" target="_top" xlink:title="The class declaration and inline and templated functions for Gauss1DsMAP. ">
<polygon fill="white" stroke="black" points="639.5,-165.5 639.5,-183.5 725.5,-183.5 725.5,-165.5 639.5,-165.5"/>
<text text-anchor="middle" x="682.5" y="-172.3" font-family="Helvetica,sans-Serif" font-size="9.00">Gauss1DsMAP.h</text>
</a>
</g>
</g>
<!-- Node12&#45;&gt;Node20 -->
<g id="edge20" class="edge"><title>Node12&#45;&gt;Node20</title>
<path fill="none" stroke="midnightblue" d="M626.588,-214.492C640.701,-204.649 659.09,-191.826 670.849,-183.625"/>
<polygon fill="midnightblue" stroke="midnightblue" points="624.243,-211.859 618.043,-220.45 628.247,-217.601 624.243,-211.859"/>
</g>
<!-- Node25 -->
<g id="node25" class="node"><title>Node25</title>
<g id="a_node25"><a xlink:href="Gauss2DsxyMAP_8h.html" target="_top" xlink:title="The class declaration and inline and templated functions for Gauss2DsxyMAP. ">
<polygon fill="white" stroke="black" points="744,-165.5 744,-183.5 839,-183.5 839,-165.5 744,-165.5"/>
<text text-anchor="middle" x="791.5" y="-172.3" font-family="Helvetica,sans-Serif" font-size="9.00">Gauss2DsxyMAP.h</text>
</a>
</g>
</g>
<!-- Node12&#45;&gt;Node25 -->
<g id="edge28" class="edge"><title>Node12&#45;&gt;Node25</title>
<path fill="none" stroke="midnightblue" d="M644.549,-217.6C679.897,-207.473 731.719,-192.627 763.442,-183.538"/>
<polygon fill="midnightblue" stroke="midnightblue" points="643.247,-214.332 634.598,-220.45 645.175,-221.061 643.247,-214.332"/>
</g>
<!-- Node14 -->
<g id="node14" class="node"><title>Node14</title>
<g id="a_node14"><a xlink:href="estimator__statics_8cpp.html" target="_top" xlink:title="estimator_statics.cpp">
<polygon fill="white" stroke="black" points="366.5,-110.5 366.5,-128.5 468.5,-128.5 468.5,-110.5 366.5,-110.5"/>
<text text-anchor="middle" x="417.5" y="-117.3" font-family="Helvetica,sans-Serif" font-size="9.00">estimator_statics.cpp</text>
</a>
</g>
</g>
<!-- Node13&#45;&gt;Node14 -->
<g id="edge13" class="edge"><title>Node13&#45;&gt;Node14</title>
<path fill="none" stroke="midnightblue" d="M458.972,-158.397C448.342,-148.683 434.951,-136.447 426.309,-128.55"/>
<polygon fill="midnightblue" stroke="midnightblue" points="456.694,-161.057 466.438,-165.219 461.416,-155.889 456.694,-161.057"/>
</g>
<!-- Node15 -->
<g id="node15" class="node"><title>Node15</title>
<g id="a_node15"><a xlink:href="Gauss1DMAP_8cpp.html" target="_top" xlink:title="The class definition and template Specializations for Gauss1DMAP. ">
<polygon fill="white" stroke="black" points="486.5,-110.5 486.5,-128.5 578.5,-128.5 578.5,-110.5 486.5,-110.5"/>
<text text-anchor="middle" x="532.5" y="-117.3" font-family="Helvetica,sans-Serif" font-size="9.00">Gauss1DMAP.cpp</text>
</a>
</g>
</g>
<!-- Node13&#45;&gt;Node15 -->
<g id="edge14" class="edge"><title>Node13&#45;&gt;Node15</title>
<path fill="none" stroke="midnightblue" d="M491.743,-158.397C502.19,-148.683 515.35,-136.447 523.843,-128.55"/>
<polygon fill="midnightblue" stroke="midnightblue" points="489.346,-155.846 484.406,-165.219 494.113,-160.972 489.346,-155.846"/>
</g>
<!-- Node16 -->
<g id="node16" class="node"><title>Node16</title>
<g id="a_node16"><a xlink:href="Gauss2DModel_8h.html" target="_top" xlink:title="The class declaration and inline and templated functions for Gauss2DModel. ">
<polygon fill="white" stroke="black" points="260.5,-110.5 260.5,-128.5 348.5,-128.5 348.5,-110.5 260.5,-110.5"/>
<text text-anchor="middle" x="304.5" y="-117.3" font-family="Helvetica,sans-Serif" font-size="9.00">Gauss2DModel.h</text>
</a>
</g>
</g>
<!-- Node13&#45;&gt;Node16 -->
<g id="edge15" class="edge"><title>Node13&#45;&gt;Node16</title>
<path fill="none" stroke="midnightblue" d="M439.909,-162.469C407.247,-152.345 359.631,-137.588 330.435,-128.538"/>
<polygon fill="midnightblue" stroke="midnightblue" points="438.941,-165.833 449.529,-165.45 441.013,-159.147 438.941,-165.833"/>
</g>
<!-- Node16&#45;&gt;Node6 -->
<g id="edge19" class="edge"><title>Node16&#45;&gt;Node6</title>
<path fill="none" stroke="midnightblue" d="M285.47,-104.492C272.099,-94.6491 254.678,-81.8255 243.538,-73.6253"/>
<polygon fill="midnightblue" stroke="midnightblue" points="283.436,-107.341 293.565,-110.45 287.586,-101.704 283.436,-107.341"/>
</g>
<!-- Node17 -->
<g id="node17" class="node"><title>Node17</title>
<g id="a_node17"><a xlink:href="Gauss2DModel_8cpp.html" target="_top" xlink:title="The class definition and template Specializations for Gauss2DModel. ">
<polygon fill="white" stroke="black" points="291.5,-55.5 291.5,-73.5 389.5,-73.5 389.5,-55.5 291.5,-55.5"/>
<text text-anchor="middle" x="340.5" y="-62.3" font-family="Helvetica,sans-Serif" font-size="9.00">Gauss2DModel.cpp</text>
</a>
</g>
</g>
<!-- Node16&#45;&gt;Node17 -->
<g id="edge16" class="edge"><title>Node16&#45;&gt;Node17</title>
<path fill="none" stroke="midnightblue" d="M315.94,-101.658C322.324,-92.2587 329.984,-80.9821 335.032,-73.5496"/>
<polygon fill="midnightblue" stroke="midnightblue" points="312.849,-99.98 310.125,-110.219 318.639,-103.913 312.849,-99.98"/>
</g>
<!-- Node16&#45;&gt;Node18 -->
<g id="edge17" class="edge"><title>Node16&#45;&gt;Node18</title>
<path fill="none" stroke="midnightblue" d="M348.187,-108.117C390.821,-97.9842 454.783,-82.7826 493.678,-73.5383"/>
<polygon fill="midnightblue" stroke="midnightblue" points="347.289,-104.733 338.369,-110.45 348.907,-111.543 347.289,-104.733"/>
</g>
<!-- Node19 -->
<g id="node19" class="node"><title>Node19</title>
<g id="a_node19"><a xlink:href="Gauss2DMAP_8cpp.html" target="_top" xlink:title="The class definition and template Specializations for Gauss2DMAP. ">
<polygon fill="white" stroke="black" points="481.5,-0.5 481.5,-18.5 573.5,-18.5 573.5,-0.5 481.5,-0.5"/>
<text text-anchor="middle" x="527.5" y="-7.3" font-family="Helvetica,sans-Serif" font-size="9.00">Gauss2DMAP.cpp</text>
</a>
</g>
</g>
<!-- Node18&#45;&gt;Node19 -->
<g id="edge18" class="edge"><title>Node18&#45;&gt;Node19</title>
<path fill="none" stroke="midnightblue" d="M527.5,-45.1746C527.5,-36.0945 527.5,-25.5949 527.5,-18.5496"/>
<polygon fill="midnightblue" stroke="midnightblue" points="524,-45.2187 527.5,-55.2188 531,-45.2188 524,-45.2187"/>
</g>
<!-- Node21 -->
<g id="node21" class="node"><title>Node21</title>
<g id="a_node21"><a xlink:href="Gauss1DsMAP_8cpp.html" target="_top" xlink:title="The class definition and template Specializations for Gauss1DsMAP. ">
<polygon fill="white" stroke="black" points="634.5,-110.5 634.5,-128.5 730.5,-128.5 730.5,-110.5 634.5,-110.5"/>
<text text-anchor="middle" x="682.5" y="-117.3" font-family="Helvetica,sans-Serif" font-size="9.00">Gauss1DsMAP.cpp</text>
</a>
</g>
</g>
<!-- Node20&#45;&gt;Node21 -->
<g id="edge21" class="edge"><title>Node20&#45;&gt;Node21</title>
<path fill="none" stroke="midnightblue" d="M682.5,-155.175C682.5,-146.094 682.5,-135.595 682.5,-128.55"/>
<polygon fill="midnightblue" stroke="midnightblue" points="679,-155.219 682.5,-165.219 686,-155.219 679,-155.219"/>
</g>
<!-- Node22 -->
<g id="node22" class="node"><title>Node22</title>
<g id="a_node22"><a xlink:href="Gauss2DsModel_8h.html" target="_top" xlink:title="The class declaration and inline and templated functions for Gauss2DsModel. ">
<polygon fill="white" stroke="black" points="748.5,-110.5 748.5,-128.5 840.5,-128.5 840.5,-110.5 748.5,-110.5"/>
<text text-anchor="middle" x="794.5" y="-117.3" font-family="Helvetica,sans-Serif" font-size="9.00">Gauss2DsModel.h</text>
</a>
</g>
</g>
<!-- Node20&#45;&gt;Node22 -->
<g id="edge22" class="edge"><title>Node20&#45;&gt;Node22</title>
<path fill="none" stroke="midnightblue" d="M708.602,-161.148C729.773,-151.13 759.011,-137.294 777.33,-128.625"/>
<polygon fill="midnightblue" stroke="midnightblue" points="707.052,-158.009 699.51,-165.45 710.047,-164.337 707.052,-158.009"/>
</g>
<!-- Node24 -->
<g id="node24" class="node"><title>Node24</title>
<g id="a_node24"><a xlink:href="Gauss2DsxyModel_8h.html" target="_top" xlink:title="The class declaration and inline and templated functions for Gauss2DsxyModel. ">
<polygon fill="white" stroke="black" points="859,-110.5 859,-128.5 960,-128.5 960,-110.5 859,-110.5"/>
<text text-anchor="middle" x="909.5" y="-117.3" font-family="Helvetica,sans-Serif" font-size="9.00">Gauss2DsxyModel.h</text>
</a>
</g>
</g>
<!-- Node20&#45;&gt;Node24 -->
<g id="edge26" class="edge"><title>Node20&#45;&gt;Node24</title>
<path fill="none" stroke="midnightblue" d="M726.971,-163.117C770.37,-152.984 835.478,-137.783 875.072,-128.538"/>
<polygon fill="midnightblue" stroke="midnightblue" points="725.919,-159.768 716.976,-165.45 727.51,-166.585 725.919,-159.768"/>
</g>
<!-- Node22&#45;&gt;Node8 -->
<g id="edge24" class="edge"><title>Node22&#45;&gt;Node8</title>
<path fill="none" stroke="midnightblue" d="M821.301,-106.148C843.039,-96.1297 873.06,-82.2941 891.87,-73.6253"/>
<polygon fill="midnightblue" stroke="midnightblue" points="819.583,-103.086 811.966,-110.45 822.513,-109.443 819.583,-103.086"/>
</g>
<!-- Node22&#45;&gt;Node10 -->
<g id="edge25" class="edge"><title>Node22&#45;&gt;Node10</title>
<path fill="none" stroke="midnightblue" d="M839.281,-108.181C883.252,-98.0484 949.416,-82.8021 989.617,-73.5383"/>
<polygon fill="midnightblue" stroke="midnightblue" points="838.391,-104.794 829.432,-110.45 839.963,-111.615 838.391,-104.794"/>
</g>
<!-- Node23 -->
<g id="node23" class="node"><title>Node23</title>
<g id="a_node23"><a xlink:href="Gauss2DsModel_8cpp.html" target="_top" xlink:title="The class definition and template Specializations for Gauss2DsModel. ">
<polygon fill="white" stroke="black" points="743.5,-55.5 743.5,-73.5 845.5,-73.5 845.5,-55.5 743.5,-55.5"/>
<text text-anchor="middle" x="794.5" y="-62.3" font-family="Helvetica,sans-Serif" font-size="9.00">Gauss2DsModel.cpp</text>
</a>
</g>
</g>
<!-- Node22&#45;&gt;Node23 -->
<g id="edge23" class="edge"><title>Node22&#45;&gt;Node23</title>
<path fill="none" stroke="midnightblue" d="M794.5,-100.175C794.5,-91.0945 794.5,-80.5949 794.5,-73.5496"/>
<polygon fill="midnightblue" stroke="midnightblue" points="791,-100.219 794.5,-110.219 798,-100.219 791,-100.219"/>
</g>
</g>
</svg>
        <g id="navigator" transform="translate(0 0)" fill="#404254">
                <rect fill="#f2f5e9" fill-opacity="0.5" stroke="#606060" stroke-width=".5" x="0" y="0" width="60" height="60"/>
                <use id="zoomplus" xlink:href="#zoomPlus" x="17" y="9" onmousedown="handleZoom(evt,'in')"/>
                <use id="zoomminus" xlink:href="#zoomMin" x="42" y="9" onmousedown="handleZoom(evt,'out')"/>
                <use id="reset" xlink:href="#resetDef" x="30" y="36" onmousedown="handleReset()"/>
                <g id="arrowUp" xlink:href="#dirArrow" transform="translate(30 24)" onmousedown="handlePan(0,-1)">
                  <use xlink:href="#rim" fill="#404040">
                        <set attributeName="fill" to="#808080" begin="arrowUp.mouseover" end="arrowUp.mouseout"/>
                  </use>
                  <path fill="none" stroke="white" stroke-width="1.5" d="M0,-3.0v7 M-2.5,-0.5L0,-3.0L2.5,-0.5"/>
                </g>
                <g id="arrowRight" xlink:href="#dirArrow" transform="rotate(90) translate(36 -43)" onmousedown="handlePan(1,0)">
                  <use xlink:href="#rim" fill="#404040">
                        <set attributeName="fill" to="#808080" begin="arrowRight.mouseover" end="arrowRight.mouseout"/>
                  </use>
                  <path fill="none" stroke="white" stroke-width="1.5" d="M0,-3.0v7 M-2.5,-0.5L0,-3.0L2.5,-0.5"/>
                </g>
                <g id="arrowDown" xlink:href="#dirArrow" transform="rotate(180) translate(-30 -48)" onmousedown="handlePan(0,1)">
                  <use xlink:href="#rim" fill="#404040">
                        <set attributeName="fill" to="#808080" begin="arrowDown.mouseover" end="arrowDown.mouseout"/>
                  </use>
                  <path fill="none" stroke="white" stroke-width="1.5" d="M0,-3.0v7 M-2.5,-0.5L0,-3.0L2.5,-0.5"/>
                </g>
                <g id="arrowLeft" xlink:href="#dirArrow" transform="rotate(270) translate(-36 17)" onmousedown="handlePan(-1,0)">
                  <use xlink:href="#rim" fill="#404040">
                        <set attributeName="fill" to="#808080" begin="arrowLeft.mouseover" end="arrowLeft.mouseout"/>
                  </use>
                  <path fill="none" stroke="white" stroke-width="1.5" d="M0,-3.0v7 M-2.5,-0.5L0,-3.0L2.5,-0.5"/>
                </g>
        </g>
        <svg viewBox="0 0 15 15" width="100%" height="30px" preserveAspectRatio="xMaxYMin meet">
         <g id="arrow_out" transform="scale(0.3 0.3)">
          <a xlink:href="MLEstimator_8h__dep__incl_org.svg" target="_base">
           <rect id="button" ry="5" rx="5" y="6" x="6" height="38" width="38"
                fill="#f2f5e9" fill-opacity="0.5" stroke="#606060" stroke-width="1.0"/>
           <path id="arrow"
             d="M 11.500037,31.436501 C 11.940474,20.09759 22.043105,11.32322 32.158766,21.979434 L 37.068811,17.246167 C 37.068811,17.246167 37.088388,32 37.088388,32 L 22.160133,31.978069 C 22.160133,31.978069 26.997745,27.140456 26.997745,27.140456 C 18.528582,18.264221 13.291696,25.230495 11.500037,31.436501 z"
             style="fill:#404040;"/>
          </a>
         </g>
        </svg>
</svg>
