<?xml version="1.0" encoding="UTF-8" standalone="no"?>
<!DOCTYPE svg PUBLIC "-//W3C//DTD SVG 1.1//EN"
 "http://www.w3.org/Graphics/SVG/1.1/DTD/svg11.dtd">
<!-- Generated by graphviz version 2.38.0 (20140413.2041)
 -->
<!-- Title: model_methods.h Pages: 1 -->
<!--zoomable 332 -->
<svg id="main" version="1.1" xmlns="http://www.w3.org/2000/svg" xmlns:xlink="http://www.w3.org/1999/xlink" xml:space="preserve" onload="init(evt)">
<style type="text/css"><![CDATA[
.edge:hover path { stroke: red; }
.edge:hover polygon { stroke: red; fill: red; }
]]></style>
<script type="text/javascript"><![CDATA[
var edges = document.getElementsByTagName('g');
if (edges && edges.length) {
  for (var i=0;i<edges.length;i++) {
    if (edges[i].id.substr(0,4)=='edge') {
      edges[i].setAttribute('class','edge');
    }
  }
}
]]></script>
        <defs>
                <circle id="rim" cx="0" cy="0" r="7"/>
                <circle id="rim2" cx="0" cy="0" r="3.5"/>
                <g id="zoomPlus">
                        <use xlink:href="#rim" fill="#404040">
                                <set attributeName="fill" to="#808080" begin="zoomplus.mouseover" end="zoomplus.mouseout"/>
                        </use>
                        <path d="M-4,0h8M0,-4v8" fill="none" stroke="white" stroke-width="1.5" pointer-events="none"/>
                </g>
                <g id="zoomMin">
                        <use xlink:href="#rim" fill="#404040">
                                <set attributeName="fill" to="#808080" begin="zoomminus.mouseover" end="zoomminus.mouseout"/>
                        </use>
                        <path d="M-4,0h8" fill="none" stroke="white" stroke-width="1.5" pointer-events="none"/>
                </g>
                <g id="dirArrow">
                        <path fill="none" stroke="white" stroke-width="1.5" d="M0,-3.0v7 M-2.5,-0.5L0,-3.0L2.5,-0.5"/>
                </g>
               <g id="resetDef">
                       <use xlink:href="#rim2" fill="#404040">
                               <set attributeName="fill" to="#808080" begin="reset.mouseover" end="reset.mouseout"/>
                       </use>
               </g>
        </defs>

<script type="text/javascript">
var viewWidth = 1340;
var viewHeight = 332;
var sectionId = 'dynsection-0';
</script>
<script xlink:href="svgpan.js"/>
<svg id="graph" class="graph">
<g id="viewport">
<title>model_methods.h</title>
<polygon fill="white" stroke="none" points="-4,4 -4,-328 1336,-328 1336,4 -4,4"/>
<!-- Node1 -->
<g id="node1" class="node"><title>Node1</title>
<polygon fill="#bfbfbf" stroke="black" points="729,-305.5 729,-323.5 819,-323.5 819,-305.5 729,-305.5"/>
<text text-anchor="middle" x="774" y="-312.3" font-family="Helvetica,sans-Serif" font-size="9.00">model_methods.h</text>
</g>
<!-- Node2 -->
<g id="node2" class="node"><title>Node2</title>
<polygon fill="white" stroke="#bfbfbf" points="517.5,-240.5 517.5,-268.5 660.5,-268.5 660.5,-240.5 517.5,-240.5"/>
<text text-anchor="start" x="525.5" y="-257.3" font-family="Helvetica,sans-Serif" font-size="9.00">Mappel/OMPExceptionCatcher</text>
<text text-anchor="middle" x="589" y="-247.3" font-family="Helvetica,sans-Serif" font-size="9.00">/OMPExceptionCatcher.h</text>
</g>
<!-- Node1&#45;&gt;Node2 -->
<g id="edge1" class="edge"><title>Node1&#45;&gt;Node2</title>
<path fill="none" stroke="midnightblue" d="M748.277,-305.435C720.416,-296.701 675.25,-282.54 640.117,-271.526"/>
<polygon fill="midnightblue" stroke="midnightblue" points="641.085,-268.161 630.496,-268.51 638.991,-274.841 641.085,-268.161"/>
</g>
<!-- Node3 -->
<g id="node3" class="node"><title>Node3</title>
<g id="a_node3"><a xlink:href="estimator_8h.html" target="_top" xlink:title="The class declaration and inline and templated functions for the Estimator class hierarchy. ">
<polygon fill="white" stroke="black" points="294.5,-185.5 294.5,-203.5 389.5,-203.5 389.5,-185.5 294.5,-185.5"/>
<text text-anchor="middle" x="342" y="-192.3" font-family="Helvetica,sans-Serif" font-size="9.00">Mappel/estimator.h</text>
</a>
</g>
</g>
<!-- Node1&#45;&gt;Node3 -->
<g id="edge2" class="edge"><title>Node1&#45;&gt;Node3</title>
<path fill="none" stroke="midnightblue" d="M765.581,-305.423C748.771,-289.829 709.2,-255.73 669,-240 579.611,-205.021 467.17,-196.767 400.134,-195.238"/>
<polygon fill="midnightblue" stroke="midnightblue" points="399.838,-191.733 389.775,-195.048 399.709,-198.731 399.838,-191.733"/>
</g>
<!-- Node24 -->
<g id="node24" class="node"><title>Node24</title>
<g id="a_node24"><a xlink:href="mcmc_8h.html" target="_top" xlink:title="Templated MCMC methods for posterior estimation. ">
<polygon fill="white" stroke="black" points="699.5,-185.5 699.5,-203.5 780.5,-203.5 780.5,-185.5 699.5,-185.5"/>
<text text-anchor="middle" x="740" y="-192.3" font-family="Helvetica,sans-Serif" font-size="9.00">Mappel/mcmc.h</text>
</a>
</g>
</g>
<!-- Node1&#45;&gt;Node24 -->
<g id="edge27" class="edge"><title>Node1&#45;&gt;Node24</title>
<path fill="none" stroke="midnightblue" d="M767.088,-305.265C760.399,-296.775 750.615,-282.856 746,-269 740.003,-250.996 738.939,-229.202 739.106,-214.041"/>
<polygon fill="midnightblue" stroke="midnightblue" points="742.608,-214.015 739.412,-203.913 735.612,-213.803 742.608,-214.015"/>
</g>
<!-- Node26 -->
<g id="node26" class="node"><title>Node26</title>
<g id="a_node26"><a xlink:href="openmp__methods_8h.html" target="_top" xlink:title="Namespaces for OpenMP parallelized versions of the mappel::model namespace functions (external method...">
<polygon fill="white" stroke="black" points="755.5,-245.5 755.5,-263.5 886.5,-263.5 886.5,-245.5 755.5,-245.5"/>
<text text-anchor="middle" x="821" y="-252.3" font-family="Helvetica,sans-Serif" font-size="9.00">Mappel/openmp_methods.h</text>
</a>
</g>
</g>
<!-- Node1&#45;&gt;Node26 -->
<g id="edge32" class="edge"><title>Node1&#45;&gt;Node26</title>
<path fill="none" stroke="midnightblue" d="M780.535,-305.435C787.541,-296.79 798.854,-282.829 807.739,-271.864"/>
<polygon fill="midnightblue" stroke="midnightblue" points="810.639,-273.845 814.216,-263.872 805.201,-269.438 810.639,-273.845"/>
</g>
<!-- Node28 -->
<g id="node28" class="node"><title>Node28</title>
<g id="a_node28"><a xlink:href="model__methods__impl_8h.html" target="_top" xlink:title="Mappel/model_methods\l_impl.h">
<polygon fill="white" stroke="black" points="905,-240.5 905,-268.5 1021,-268.5 1021,-240.5 905,-240.5"/>
<text text-anchor="start" x="913" y="-257.3" font-family="Helvetica,sans-Serif" font-size="9.00">Mappel/model_methods</text>
<text text-anchor="middle" x="963" y="-247.3" font-family="Helvetica,sans-Serif" font-size="9.00">_impl.h</text>
</a>
</g>
</g>
<!-- Node1&#45;&gt;Node28 -->
<g id="edge36" class="edge"><title>Node1&#45;&gt;Node28</title>
<path fill="none" stroke="midnightblue" d="M800.28,-305.435C828.743,-296.701 874.885,-282.54 910.778,-271.526"/>
<polygon fill="midnightblue" stroke="midnightblue" points="912.074,-274.789 920.607,-268.51 910.02,-268.097 912.074,-274.789"/>
</g>
<!-- Node31 -->
<g id="node31" class="node"><title>Node31</title>
<g id="a_node31"><a xlink:href="estimator__impl_8h.html" target="_top" xlink:title="Mappel/estimator_impl.h">
<polygon fill="white" stroke="black" points="1039.5,-245.5 1039.5,-263.5 1156.5,-263.5 1156.5,-245.5 1039.5,-245.5"/>
<text text-anchor="middle" x="1098" y="-252.3" font-family="Helvetica,sans-Serif" font-size="9.00">Mappel/estimator_impl.h</text>
</a>
</g>
</g>
<!-- Node1&#45;&gt;Node31 -->
<g id="edge42" class="edge"><title>Node1&#45;&gt;Node31</title>
<path fill="none" stroke="midnightblue" d="M819.377,-305.949C870.596,-297.347 956.381,-282.704 1030,-269 1035.91,-267.899 1042.11,-266.714 1048.25,-265.519"/>
<polygon fill="midnightblue" stroke="midnightblue" points="1049.34,-268.872 1058.48,-263.512 1047.99,-262.003 1049.34,-268.872"/>
</g>
<!-- Node4 -->
<g id="node4" class="node"><title>Node4</title>
<polygon fill="white" stroke="#bfbfbf" points="0,-130.5 0,-148.5 56,-148.5 56,-130.5 0,-130.5"/>
<text text-anchor="middle" x="28" y="-137.3" font-family="Helvetica,sans-Serif" font-size="9.00">exception</text>
</g>
<!-- Node3&#45;&gt;Node4 -->
<g id="edge3" class="edge"><title>Node3&#45;&gt;Node4</title>
<path fill="none" stroke="midnightblue" d="M294.285,-186.82C241.004,-179.141 151.99,-165.66 66.149,-149.117"/>
<polygon fill="midnightblue" stroke="midnightblue" points="66.7247,-145.664 56.2405,-147.191 65.3889,-152.535 66.7247,-145.664"/>
</g>
<!-- Node5 -->
<g id="node5" class="node"><title>Node5</title>
<polygon fill="white" stroke="#bfbfbf" points="74.5,-130.5 74.5,-148.5 121.5,-148.5 121.5,-130.5 74.5,-130.5"/>
<text text-anchor="middle" x="98" y="-137.3" font-family="Helvetica,sans-Serif" font-size="9.00">fstream</text>
</g>
<!-- Node3&#45;&gt;Node5 -->
<g id="edge4" class="edge"><title>Node3&#45;&gt;Node5</title>
<path fill="none" stroke="midnightblue" d="M304.392,-185.462C263.081,-176.613 194.785,-161.924 136,-149 134.556,-148.682 133.081,-148.357 131.591,-148.028"/>
<polygon fill="midnightblue" stroke="midnightblue" points="132.232,-144.585 121.711,-145.832 130.713,-151.418 132.232,-144.585"/>
</g>
<!-- Node6 -->
<g id="node6" class="node"><title>Node6</title>
<polygon fill="white" stroke="#bfbfbf" points="187.5,-5.5 187.5,-23.5 226.5,-23.5 226.5,-5.5 187.5,-5.5"/>
<text text-anchor="middle" x="207" y="-12.3" font-family="Helvetica,sans-Serif" font-size="9.00">string</text>
</g>
<!-- Node3&#45;&gt;Node6 -->
<g id="edge5" class="edge"><title>Node3&#45;&gt;Node6</title>
<path fill="none" stroke="midnightblue" d="M294.103,-187.753C248.379,-181.166 184.249,-168.668 169,-149 141.407,-113.411 174.348,-58.6423 194.149,-31.6598"/>
<polygon fill="midnightblue" stroke="midnightblue" points="196.98,-33.7187 200.254,-23.6422 191.411,-29.4779 196.98,-33.7187"/>
</g>
<!-- Node7 -->
<g id="node7" class="node"><title>Node7</title>
<polygon fill="white" stroke="#bfbfbf" points="178,-130.5 178,-148.5 216,-148.5 216,-130.5 178,-130.5"/>
<text text-anchor="middle" x="197" y="-137.3" font-family="Helvetica,sans-Serif" font-size="9.00">limits</text>
</g>
<!-- Node3&#45;&gt;Node7 -->
<g id="edge6" class="edge"><title>Node3&#45;&gt;Node7</title>
<path fill="none" stroke="midnightblue" d="M319.978,-185.45C294.858,-176.269 253.69,-161.221 225.982,-151.093"/>
<polygon fill="midnightblue" stroke="midnightblue" points="227.032,-147.751 216.438,-147.605 224.628,-154.325 227.032,-147.751"/>
</g>
<!-- Node8 -->
<g id="node8" class="node"><title>Node8</title>
<polygon fill="white" stroke="#bfbfbf" points="302,-5.5 302,-23.5 352,-23.5 352,-5.5 302,-5.5"/>
<text text-anchor="middle" x="327" y="-12.3" font-family="Helvetica,sans-Serif" font-size="9.00">memory</text>
</g>
<!-- Node3&#45;&gt;Node8 -->
<g id="edge7" class="edge"><title>Node3&#45;&gt;Node8</title>
<path fill="none" stroke="midnightblue" d="M312.924,-185.37C295.106,-178.719 273.723,-167.347 263,-149 238.788,-107.573 283.924,-55.5712 310.141,-30.4492"/>
<polygon fill="midnightblue" stroke="midnightblue" points="312.62,-32.9235 317.572,-23.5571 307.86,-27.7911 312.62,-32.9235"/>
</g>
<!-- Node9 -->
<g id="node9" class="node"><title>Node9</title>
<polygon fill="white" stroke="#bfbfbf" points="272.5,-130.5 272.5,-148.5 313.5,-148.5 313.5,-130.5 272.5,-130.5"/>
<text text-anchor="middle" x="293" y="-137.3" font-family="Helvetica,sans-Serif" font-size="9.00">mutex</text>
</g>
<!-- Node3&#45;&gt;Node9 -->
<g id="edge8" class="edge"><title>Node3&#45;&gt;Node9</title>
<path fill="none" stroke="midnightblue" d="M334.344,-185.219C327.182,-177.473 316.299,-165.701 307.497,-156.18"/>
<polygon fill="midnightblue" stroke="midnightblue" points="309.801,-153.516 300.442,-148.55 304.661,-158.268 309.801,-153.516"/>
</g>
<!-- Node10 -->
<g id="node10" class="node"><title>Node10</title>
<polygon fill="white" stroke="#bfbfbf" points="381.5,-5.5 381.5,-23.5 416.5,-23.5 416.5,-5.5 381.5,-5.5"/>
<text text-anchor="middle" x="399" y="-12.3" font-family="Helvetica,sans-Serif" font-size="9.00">map</text>
</g>
<!-- Node3&#45;&gt;Node10 -->
<g id="edge9" class="edge"><title>Node3&#45;&gt;Node10</title>
<path fill="none" stroke="midnightblue" d="M344.597,-185.389C353.24,-158.4 381.166,-71.193 393.292,-33.3249"/>
<polygon fill="midnightblue" stroke="midnightblue" points="396.671,-34.2495 396.387,-23.6585 390.004,-32.1147 396.671,-34.2495"/>
</g>
<!-- Node11 -->
<g id="node11" class="node"><title>Node11</title>
<g id="a_node11"><a xlink:href="rng_8h.html" target="_top" xlink:title="Random number generation usign sfmt. ">
<polygon fill="white" stroke="black" points="653.5,-130.5 653.5,-148.5 724.5,-148.5 724.5,-130.5 653.5,-130.5"/>
<text text-anchor="middle" x="689" y="-137.3" font-family="Helvetica,sans-Serif" font-size="9.00">Mappel/rng.h</text>
</a>
</g>
</g>
<!-- Node3&#45;&gt;Node11 -->
<g id="edge10" class="edge"><title>Node3&#45;&gt;Node11</title>
<path fill="none" stroke="midnightblue" d="M389.521,-186.242C456.297,-176.043 577.089,-157.593 643.021,-147.523"/>
<polygon fill="midnightblue" stroke="midnightblue" points="643.758,-150.951 653.115,-145.981 642.701,-144.031 643.758,-150.951"/>
</g>
<!-- Node13 -->
<g id="node13" class="node"><title>Node13</title>
<g id="a_node13"><a xlink:href="util_8h.html" target="_top" xlink:title="Mappel/util.h">
<polygon fill="white" stroke="black" points="511.5,-70.5 511.5,-88.5 580.5,-88.5 580.5,-70.5 511.5,-70.5"/>
<text text-anchor="middle" x="546" y="-77.3" font-family="Helvetica,sans-Serif" font-size="9.00">Mappel/util.h</text>
</a>
</g>
</g>
<!-- Node3&#45;&gt;Node13 -->
<g id="edge26" class="edge"><title>Node3&#45;&gt;Node13</title>
<path fill="none" stroke="midnightblue" d="M347.292,-185.251C356.322,-171.805 375.983,-145.148 399,-130 408.513,-123.739 469.642,-104.138 510.017,-91.5614"/>
<polygon fill="midnightblue" stroke="midnightblue" points="511.278,-94.8348 519.791,-88.5276 509.203,-88.1495 511.278,-94.8348"/>
</g>
<!-- Node22 -->
<g id="node22" class="node"><title>Node22</title>
<polygon fill="white" stroke="#bfbfbf" points="408.5,-130.5 408.5,-148.5 533.5,-148.5 533.5,-130.5 408.5,-130.5"/>
<text text-anchor="middle" x="471" y="-137.3" font-family="Helvetica,sans-Serif" font-size="9.00">cGaussMLE/cGaussMLE.h</text>
</g>
<!-- Node3&#45;&gt;Node22 -->
<g id="edge24" class="edge"><title>Node3&#45;&gt;Node22</title>
<path fill="none" stroke="midnightblue" d="M361.592,-185.45C382.902,-176.695 417.196,-162.606 441.708,-152.535"/>
<polygon fill="midnightblue" stroke="midnightblue" points="443.304,-155.663 451.223,-148.625 440.643,-149.188 443.304,-155.663"/>
</g>
<!-- Node23 -->
<g id="node23" class="node"><title>Node23</title>
<polygon fill="white" stroke="#bfbfbf" points="551.5,-130.5 551.5,-148.5 596.5,-148.5 596.5,-130.5 551.5,-130.5"/>
<text text-anchor="middle" x="574" y="-137.3" font-family="Helvetica,sans-Serif" font-size="9.00">chrono</text>
</g>
<!-- Node3&#45;&gt;Node23 -->
<g id="edge25" class="edge"><title>Node3&#45;&gt;Node23</title>
<path fill="none" stroke="midnightblue" d="M380.449,-185.431C418.748,-177.286 479.457,-164.084 541.361,-149.075"/>
<polygon fill="midnightblue" stroke="midnightblue" points="542.417,-152.42 551.304,-146.651 540.759,-145.619 542.417,-152.42"/>
</g>
<!-- Node12 -->
<g id="node12" class="node"><title>Node12</title>
<polygon fill="white" stroke="#bfbfbf" points="445,-70.5 445,-88.5 493,-88.5 493,-70.5 445,-70.5"/>
<text text-anchor="middle" x="469" y="-77.3" font-family="Helvetica,sans-Serif" font-size="9.00">random</text>
</g>
<!-- Node11&#45;&gt;Node12 -->
<g id="edge11" class="edge"><title>Node11&#45;&gt;Node12</title>
<path fill="none" stroke="midnightblue" d="M653.397,-131.738C615.438,-124.134 553.787,-110.644 502,-94 500.339,-93.4661 498.643,-92.8861 496.941,-92.2767"/>
<polygon fill="midnightblue" stroke="midnightblue" points="497.904,-88.8973 487.314,-88.5795 495.395,-95.432 497.904,-88.8973"/>
</g>
<!-- Node11&#45;&gt;Node13 -->
<g id="edge12" class="edge"><title>Node11&#45;&gt;Node13</title>
<path fill="none" stroke="midnightblue" d="M669.116,-130.435C644.815,-120.579 603.479,-103.813 575.475,-92.4549"/>
<polygon fill="midnightblue" stroke="midnightblue" points="576.758,-89.1984 566.176,-88.6831 574.127,-95.6851 576.758,-89.1984"/>
</g>
<!-- Node20 -->
<g id="node20" class="node"><title>Node20</title>
<polygon fill="white" stroke="#bfbfbf" points="598.5,-70.5 598.5,-88.5 695.5,-88.5 695.5,-70.5 598.5,-70.5"/>
<text text-anchor="middle" x="647" y="-77.3" font-family="Helvetica,sans-Serif" font-size="9.00">trng/lcg64_shift.hpp</text>
</g>
<!-- Node11&#45;&gt;Node20 -->
<g id="edge22" class="edge"><title>Node11&#45;&gt;Node20</title>
<path fill="none" stroke="midnightblue" d="M683.16,-130.435C676.962,-121.876 666.99,-108.105 659.087,-97.1909"/>
<polygon fill="midnightblue" stroke="midnightblue" points="661.762,-94.9184 653.062,-88.8718 656.093,-99.024 661.762,-94.9184"/>
</g>
<!-- Node21 -->
<g id="node21" class="node"><title>Node21</title>
<polygon fill="white" stroke="#bfbfbf" points="713,-65.5 713,-93.5 825,-93.5 825,-65.5 713,-65.5"/>
<text text-anchor="start" x="721" y="-82.3" font-family="Helvetica,sans-Serif" font-size="9.00">ParallelRngManager</text>
<text text-anchor="middle" x="769" y="-72.3" font-family="Helvetica,sans-Serif" font-size="9.00">/ParallelRngManager.h</text>
</g>
<!-- Node11&#45;&gt;Node21 -->
<g id="edge23" class="edge"><title>Node11&#45;&gt;Node21</title>
<path fill="none" stroke="midnightblue" d="M700.124,-130.435C711.106,-122.473 728.306,-110.003 742.771,-99.5163"/>
<polygon fill="midnightblue" stroke="midnightblue" points="744.861,-102.324 750.903,-93.6203 740.752,-96.6564 744.861,-102.324"/>
</g>
<!-- Node13&#45;&gt;Node6 -->
<g id="edge17" class="edge"><title>Node13&#45;&gt;Node6</title>
<path fill="none" stroke="midnightblue" d="M521.949,-70.4963C515.515,-68.527 508.532,-66.5431 502,-65 476.401,-58.9529 306.556,-31.4743 236.811,-20.2736"/>
<polygon fill="midnightblue" stroke="midnightblue" points="237.323,-16.811 226.895,-18.6824 236.214,-23.7226 237.323,-16.811"/>
</g>
<!-- Node13&#45;&gt;Node8 -->
<g id="edge15" class="edge"><title>Node13&#45;&gt;Node8</title>
<path fill="none" stroke="midnightblue" d="M519.977,-70.386C514.076,-68.582 507.83,-66.7011 502,-65 444.448,-48.2057 429.604,-45.6145 372,-29 368.686,-28.0443 365.24,-27.036 361.795,-26.0186"/>
<polygon fill="midnightblue" stroke="midnightblue" points="362.783,-22.6611 352.2,-23.1632 360.786,-29.3703 362.783,-22.6611"/>
</g>
<!-- Node13&#45;&gt;Node10 -->
<g id="edge18" class="edge"><title>Node13&#45;&gt;Node10</title>
<path fill="none" stroke="midnightblue" d="M527.083,-70.3928C501.445,-59.4052 455.509,-39.718 426.18,-27.1487"/>
<polygon fill="midnightblue" stroke="midnightblue" points="427.494,-23.904 416.924,-23.1817 424.737,-30.338 427.494,-23.904"/>
</g>
<!-- Node14 -->
<g id="node14" class="node"><title>Node14</title>
<polygon fill="white" stroke="#bfbfbf" points="455.5,-5.5 455.5,-23.5 498.5,-23.5 498.5,-5.5 455.5,-5.5"/>
<text text-anchor="middle" x="477" y="-12.3" font-family="Helvetica,sans-Serif" font-size="9.00">cstdint</text>
</g>
<!-- Node13&#45;&gt;Node14 -->
<g id="edge13" class="edge"><title>Node13&#45;&gt;Node14</title>
<path fill="none" stroke="midnightblue" d="M536.979,-70.2639C525.968,-60.2099 507.132,-43.0121 493.502,-30.5672"/>
<polygon fill="midnightblue" stroke="midnightblue" points="495.549,-27.697 485.805,-23.539 490.83,-32.8664 495.549,-27.697"/>
</g>
<!-- Node15 -->
<g id="node15" class="node"><title>Node15</title>
<polygon fill="white" stroke="#bfbfbf" points="874.5,-5.5 874.5,-23.5 915.5,-23.5 915.5,-5.5 874.5,-5.5"/>
<text text-anchor="middle" x="895" y="-12.3" font-family="Helvetica,sans-Serif" font-size="9.00">cmath</text>
</g>
<!-- Node13&#45;&gt;Node15 -->
<g id="edge14" class="edge"><title>Node13&#45;&gt;Node15</title>
<path fill="none" stroke="midnightblue" d="M569.487,-70.4557C575.776,-68.4867 582.604,-66.5131 589,-65 688.422,-41.4806 808.666,-25.6222 864.175,-18.9966"/>
<polygon fill="midnightblue" stroke="midnightblue" points="864.865,-22.4396 874.388,-17.795 864.047,-15.4875 864.865,-22.4396"/>
</g>
<!-- Node16 -->
<g id="node16" class="node"><title>Node16</title>
<polygon fill="white" stroke="#bfbfbf" points="517,-5.5 517,-23.5 555,-23.5 555,-5.5 517,-5.5"/>
<text text-anchor="middle" x="536" y="-12.3" font-family="Helvetica,sans-Serif" font-size="9.00">utility</text>
</g>
<!-- Node13&#45;&gt;Node16 -->
<g id="edge16" class="edge"><title>Node13&#45;&gt;Node16</title>
<path fill="none" stroke="midnightblue" d="M544.693,-70.2639C543.217,-60.9687 540.773,-45.5673 538.851,-33.461"/>
<polygon fill="midnightblue" stroke="midnightblue" points="542.301,-32.8666 537.276,-23.539 535.387,-33.9641 542.301,-32.8666"/>
</g>
<!-- Node17 -->
<g id="node17" class="node"><title>Node17</title>
<polygon fill="white" stroke="#bfbfbf" points="573.5,-5.5 573.5,-23.5 622.5,-23.5 622.5,-5.5 573.5,-5.5"/>
<text text-anchor="middle" x="598" y="-12.3" font-family="Helvetica,sans-Serif" font-size="9.00">sstream</text>
</g>
<!-- Node13&#45;&gt;Node17 -->
<g id="edge19" class="edge"><title>Node13&#45;&gt;Node17</title>
<path fill="none" stroke="midnightblue" d="M552.798,-70.2639C560.94,-60.3996 574.758,-43.6585 584.978,-31.2766"/>
<polygon fill="midnightblue" stroke="midnightblue" points="587.698,-33.4792 591.365,-23.539 582.3,-29.0232 587.698,-33.4792"/>
</g>
<!-- Node18 -->
<g id="node18" class="node"><title>Node18</title>
<polygon fill="white" stroke="#bfbfbf" points="1019.5,-5.5 1019.5,-23.5 1074.5,-23.5 1074.5,-5.5 1019.5,-5.5"/>
<text text-anchor="middle" x="1047" y="-12.3" font-family="Helvetica,sans-Serif" font-size="9.00">armadillo</text>
</g>
<!-- Node13&#45;&gt;Node18 -->
<g id="edge20" class="edge"><title>Node13&#45;&gt;Node18</title>
<path fill="none" stroke="midnightblue" d="M568.988,-70.3647C575.398,-68.3483 582.413,-66.374 589,-65 735.591,-34.4242 775.129,-45.1687 924,-29 952.464,-25.9086 984.628,-22.377 1008.93,-19.7015"/>
<polygon fill="midnightblue" stroke="midnightblue" points="1009.6,-23.1483 1019.16,-18.5741 1008.83,-16.1904 1009.6,-23.1483"/>
</g>
<!-- Node19 -->
<g id="node19" class="node"><title>Node19</title>
<polygon fill="white" stroke="#bfbfbf" points="640.5,-0.5 640.5,-28.5 747.5,-28.5 747.5,-0.5 640.5,-0.5"/>
<text text-anchor="start" x="648.5" y="-17.3" font-family="Helvetica,sans-Serif" font-size="9.00">BacktraceException</text>
<text text-anchor="middle" x="694" y="-7.3" font-family="Helvetica,sans-Serif" font-size="9.00">/BacktraceException.h</text>
</g>
<!-- Node13&#45;&gt;Node19 -->
<g id="edge21" class="edge"><title>Node13&#45;&gt;Node19</title>
<path fill="none" stroke="midnightblue" d="M565.045,-70.3928C587.421,-60.8682 625.153,-44.8066 654.038,-32.5108"/>
<polygon fill="midnightblue" stroke="midnightblue" points="655.63,-35.6373 663.46,-28.5002 652.888,-29.1966 655.63,-35.6373"/>
</g>
<!-- Node24&#45;&gt;Node11 -->
<g id="edge30" class="edge"><title>Node24&#45;&gt;Node11</title>
<path fill="none" stroke="midnightblue" d="M732.031,-185.219C724.502,-177.394 713.021,-165.463 703.811,-155.892"/>
<polygon fill="midnightblue" stroke="midnightblue" points="706.202,-153.328 696.746,-148.55 701.158,-158.182 706.202,-153.328"/>
</g>
<!-- Node24&#45;&gt;Node13 -->
<g id="edge29" class="edge"><title>Node24&#45;&gt;Node13</title>
<path fill="none" stroke="midnightblue" d="M720.001,-185.448C700.219,-177.204 669.318,-163.565 644,-149 614.953,-132.29 583.57,-109.415 564.347,-94.7953"/>
<polygon fill="midnightblue" stroke="midnightblue" points="566.25,-91.8434 556.187,-88.5278 561.986,-97.3949 566.25,-91.8434"/>
</g>
<!-- Node24&#45;&gt;Node15 -->
<g id="edge28" class="edge"><title>Node24&#45;&gt;Node15</title>
<path fill="none" stroke="midnightblue" d="M742.473,-185.179C746.706,-172.103 756.421,-146.531 772,-130 793.854,-106.811 810.005,-114.966 834,-94 854.86,-75.7731 873.541,-49.545 884.576,-32.5129"/>
<polygon fill="midnightblue" stroke="midnightblue" points="887.774,-34.0028 890.148,-23.6773 881.853,-30.2688 887.774,-34.0028"/>
</g>
<!-- Node25 -->
<g id="node25" class="node"><title>Node25</title>
<polygon fill="white" stroke="#bfbfbf" points="781.5,-130.5 781.5,-148.5 894.5,-148.5 894.5,-130.5 781.5,-130.5"/>
<text text-anchor="middle" x="838" y="-137.3" font-family="Helvetica,sans-Serif" font-size="9.00">trng/uniform01_dist.hpp</text>
</g>
<!-- Node24&#45;&gt;Node25 -->
<g id="edge31" class="edge"><title>Node24&#45;&gt;Node25</title>
<path fill="none" stroke="midnightblue" d="M754.884,-185.45C770.57,-176.968 795.514,-163.477 813.988,-153.486"/>
<polygon fill="midnightblue" stroke="midnightblue" points="815.845,-156.461 822.976,-148.625 812.515,-150.304 815.845,-156.461"/>
</g>
<!-- Node26&#45;&gt;Node13 -->
<g id="edge34" class="edge"><title>Node26&#45;&gt;Node13</title>
<path fill="none" stroke="midnightblue" d="M829.386,-245.272C853.648,-221.022 921.073,-150.264 903,-130 856.25,-77.5843 657.704,-108.585 589,-94 585.606,-93.2795 582.098,-92.4035 578.616,-91.4476"/>
<polygon fill="midnightblue" stroke="midnightblue" points="579.576,-88.0817 568.994,-88.6044 577.592,-94.7948 579.576,-88.0817"/>
</g>
<!-- Node26&#45;&gt;Node24 -->
<g id="edge35" class="edge"><title>Node26&#45;&gt;Node24</title>
<path fill="none" stroke="midnightblue" d="M809.737,-245.435C796.874,-236.224 775.584,-220.98 759.905,-209.753"/>
<polygon fill="midnightblue" stroke="midnightblue" points="761.596,-206.659 751.428,-203.683 757.521,-212.351 761.596,-206.659"/>
</g>
<!-- Node27 -->
<g id="node27" class="node"><title>Node27</title>
<polygon fill="white" stroke="#bfbfbf" points="893,-185.5 893,-203.5 935,-203.5 935,-185.5 893,-185.5"/>
<text text-anchor="middle" x="914" y="-192.3" font-family="Helvetica,sans-Serif" font-size="9.00">omp.h</text>
</g>
<!-- Node26&#45;&gt;Node27 -->
<g id="edge33" class="edge"><title>Node26&#45;&gt;Node27</title>
<path fill="none" stroke="midnightblue" d="M833.931,-245.435C848.977,-236.052 874.062,-220.408 892.149,-209.128"/>
<polygon fill="midnightblue" stroke="midnightblue" points="894.246,-211.945 900.879,-203.683 890.542,-206.005 894.246,-211.945"/>
</g>
<!-- Node29 -->
<g id="node29" class="node"><title>Node29</title>
<g id="a_node29"><a xlink:href="numerical_8h.html" target="_top" xlink:title="Numerical matrix operations. ">
<polygon fill="white" stroke="black" points="951,-130.5 951,-148.5 1049,-148.5 1049,-130.5 951,-130.5"/>
<text text-anchor="middle" x="1000" y="-137.3" font-family="Helvetica,sans-Serif" font-size="9.00">Mappel/numerical.h</text>
</a>
</g>
</g>
<!-- Node28&#45;&gt;Node29 -->
<g id="edge37" class="edge"><title>Node28&#45;&gt;Node29</title>
<path fill="none" stroke="midnightblue" d="M967.39,-240.094C974.036,-219.796 986.663,-181.231 994.104,-158.506"/>
<polygon fill="midnightblue" stroke="midnightblue" points="997.506,-159.365 997.291,-148.772 990.853,-157.186 997.506,-159.365"/>
</g>
<!-- Node29&#45;&gt;Node13 -->
<g id="edge41" class="edge"><title>Node29&#45;&gt;Node13</title>
<path fill="none" stroke="midnightblue" d="M950.838,-131.717C946.163,-131.117 941.493,-130.535 937,-130 782.6,-111.602 741.279,-125.447 589,-94 585.523,-93.282 581.928,-92.3944 578.365,-91.4198"/>
<polygon fill="midnightblue" stroke="midnightblue" points="579.12,-87.9932 568.538,-88.5119 577.134,-94.7055 579.12,-87.9932"/>
</g>
<!-- Node29&#45;&gt;Node15 -->
<g id="edge38" class="edge"><title>Node29&#45;&gt;Node15</title>
<path fill="none" stroke="midnightblue" d="M993.111,-130.43C975.984,-110.367 931.235,-57.9462 908.571,-31.398"/>
<polygon fill="midnightblue" stroke="midnightblue" points="911.207,-29.0946 902.052,-23.7614 905.883,-33.6395 911.207,-29.0946"/>
</g>
<!-- Node29&#45;&gt;Node18 -->
<g id="edge40" class="edge"><title>Node29&#45;&gt;Node18</title>
<path fill="none" stroke="midnightblue" d="M997.72,-130.395C994.23,-116.43 988.872,-87.1949 998,-65 1003.81,-50.8809 1015.8,-38.649 1026.47,-29.8767"/>
<polygon fill="midnightblue" stroke="midnightblue" points="1028.82,-32.4895 1034.6,-23.6133 1024.54,-26.9447 1028.82,-32.4895"/>
</g>
<!-- Node30 -->
<g id="node30" class="node"><title>Node30</title>
<polygon fill="white" stroke="#bfbfbf" points="1007,-70.5 1007,-88.5 1049,-88.5 1049,-70.5 1007,-70.5"/>
<text text-anchor="middle" x="1028" y="-77.3" font-family="Helvetica,sans-Serif" font-size="9.00">climits</text>
</g>
<!-- Node29&#45;&gt;Node30 -->
<g id="edge39" class="edge"><title>Node29&#45;&gt;Node30</title>
<path fill="none" stroke="midnightblue" d="M1003.89,-130.435C1007.9,-122.132 1014.28,-108.927 1019.46,-98.1807"/>
<polygon fill="midnightblue" stroke="midnightblue" points="1022.76,-99.3989 1023.96,-88.8718 1016.46,-96.3556 1022.76,-99.3989"/>
</g>
<!-- Node31&#45;&gt;Node3 -->
<g id="edge46" class="edge"><title>Node31&#45;&gt;Node3</title>
<path fill="none" stroke="midnightblue" d="M1062.15,-245.467C1051.82,-243.401 1040.5,-241.376 1030,-240 797.867,-209.584 518.821,-199.669 400.063,-196.683"/>
<polygon fill="midnightblue" stroke="midnightblue" points="399.836,-193.177 389.754,-196.431 399.665,-200.175 399.836,-193.177"/>
</g>
<!-- Node31&#45;&gt;Node11 -->
<g id="edge47" class="edge"><title>Node31&#45;&gt;Node11</title>
<path fill="none" stroke="midnightblue" d="M1083.18,-245.419C1056.25,-231.085 997.185,-201.199 944,-185 872.611,-163.257 786.541,-150.997 734.874,-145.067"/>
<polygon fill="midnightblue" stroke="midnightblue" points="735.029,-141.563 724.702,-143.931 734.251,-148.519 735.029,-141.563"/>
</g>
<!-- Node31&#45;&gt;Node15 -->
<g id="edge44" class="edge"><title>Node31&#45;&gt;Node15</title>
<path fill="none" stroke="midnightblue" d="M1098.92,-245.432C1101.7,-216.738 1107.09,-118.486 1058,-65 1023.87,-27.8154 962.812,-18.2099 925.891,-15.9381"/>
<polygon fill="midnightblue" stroke="midnightblue" points="925.865,-12.4331 915.712,-15.4602 925.537,-19.4254 925.865,-12.4331"/>
</g>
<!-- Node31&#45;&gt;Node18 -->
<g id="edge45" class="edge"><title>Node31&#45;&gt;Node18</title>
<path fill="none" stroke="midnightblue" d="M1099.61,-245.195C1104.46,-218.061 1117.12,-130.033 1091,-65 1085.58,-51.496 1074.76,-39.2458 1065.21,-30.3102"/>
<polygon fill="midnightblue" stroke="midnightblue" points="1067.45,-27.6166 1057.63,-23.6291 1062.82,-32.8675 1067.45,-27.6166"/>
</g>
<!-- Node31&#45;&gt;Node29 -->
<g id="edge48" class="edge"><title>Node31&#45;&gt;Node29</title>
<path fill="none" stroke="midnightblue" d="M1090.95,-245.373C1074.78,-226.723 1034.76,-180.583 1013.61,-156.193"/>
<polygon fill="midnightblue" stroke="midnightblue" points="1016.18,-153.815 1006.98,-148.553 1010.89,-158.401 1016.18,-153.815"/>
</g>
<!-- Node32 -->
<g id="node32" class="node"><title>Node32</title>
<polygon fill="white" stroke="#bfbfbf" points="1143.5,-185.5 1143.5,-203.5 1186.5,-203.5 1186.5,-185.5 1143.5,-185.5"/>
<text text-anchor="middle" x="1165" y="-192.3" font-family="Helvetica,sans-Serif" font-size="9.00">thread</text>
</g>
<!-- Node31&#45;&gt;Node32 -->
<g id="edge43" class="edge"><title>Node31&#45;&gt;Node32</title>
<path fill="none" stroke="midnightblue" d="M1107.32,-245.435C1117.7,-236.448 1134.72,-221.715 1147.58,-210.576"/>
<polygon fill="midnightblue" stroke="midnightblue" points="1150.06,-213.063 1155.33,-203.872 1145.48,-207.771 1150.06,-213.063"/>
</g>
<!-- Node33 -->
<g id="node33" class="node"><title>Node33</title>
<g id="a_node33"><a xlink:href="display_8h.html" target="_top" xlink:title="Mappel/display.h">
<polygon fill="white" stroke="black" points="1205,-185.5 1205,-203.5 1291,-203.5 1291,-185.5 1205,-185.5"/>
<text text-anchor="middle" x="1248" y="-192.3" font-family="Helvetica,sans-Serif" font-size="9.00">Mappel/display.h</text>
</a>
</g>
</g>
<!-- Node31&#45;&gt;Node33 -->
<g id="edge49" class="edge"><title>Node31&#45;&gt;Node33</title>
<path fill="none" stroke="midnightblue" d="M1118.86,-245.435C1144.46,-235.536 1188.09,-218.666 1217.47,-207.306"/>
<polygon fill="midnightblue" stroke="midnightblue" points="1218.77,-210.554 1226.84,-203.683 1216.25,-204.025 1218.77,-210.554"/>
</g>
<!-- Node33&#45;&gt;Node18 -->
<g id="edge52" class="edge"><title>Node33&#45;&gt;Node18</title>
<path fill="none" stroke="midnightblue" d="M1239.53,-185.466C1230.36,-176.681 1215.37,-162.103 1203,-149 1168.85,-112.82 1167.19,-96.8944 1129,-65 1111.72,-50.5643 1089.77,-37.5496 1072.94,-28.4921"/>
<polygon fill="midnightblue" stroke="midnightblue" points="1074.17,-25.1855 1063.69,-23.6357 1070.91,-31.3832 1074.17,-25.1855"/>
</g>
<!-- Node34 -->
<g id="node34" class="node"><title>Node34</title>
<polygon fill="white" stroke="#bfbfbf" points="1212,-130.5 1212,-148.5 1264,-148.5 1264,-130.5 1212,-130.5"/>
<text text-anchor="middle" x="1238" y="-137.3" font-family="Helvetica,sans-Serif" font-size="9.00">iostream</text>
</g>
<!-- Node33&#45;&gt;Node34 -->
<g id="edge50" class="edge"><title>Node33&#45;&gt;Node34</title>
<path fill="none" stroke="midnightblue" d="M1246.44,-185.219C1245.09,-178.099 1243.11,-167.577 1241.4,-158.529"/>
<polygon fill="midnightblue" stroke="midnightblue" points="1244.81,-157.727 1239.52,-148.55 1237.93,-159.025 1244.81,-157.727"/>
</g>
<!-- Node35 -->
<g id="node35" class="node"><title>Node35</title>
<polygon fill="white" stroke="#bfbfbf" points="1282,-130.5 1282,-148.5 1332,-148.5 1332,-130.5 1282,-130.5"/>
<text text-anchor="middle" x="1307" y="-137.3" font-family="Helvetica,sans-Serif" font-size="9.00">iomanip</text>
</g>
<!-- Node33&#45;&gt;Node35 -->
<g id="edge51" class="edge"><title>Node33&#45;&gt;Node35</title>
<path fill="none" stroke="midnightblue" d="M1256.96,-185.45C1265.8,-177.512 1279.52,-165.189 1290.36,-155.452"/>
<polygon fill="midnightblue" stroke="midnightblue" points="1292.85,-157.912 1297.95,-148.625 1288.18,-152.704 1292.85,-157.912"/>
</g>
</g>
</svg>
        <g id="navigator" transform="translate(0 0)" fill="#404254">
                <rect fill="#f2f5e9" fill-opacity="0.5" stroke="#606060" stroke-width=".5" x="0" y="0" width="60" height="60"/>
                <use id="zoomplus" xlink:href="#zoomPlus" x="17" y="9" onmousedown="handleZoom(evt,'in')"/>
                <use id="zoomminus" xlink:href="#zoomMin" x="42" y="9" onmousedown="handleZoom(evt,'out')"/>
                <use id="reset" xlink:href="#resetDef" x="30" y="36" onmousedown="handleReset()"/>
                <g id="arrowUp" xlink:href="#dirArrow" transform="translate(30 24)" onmousedown="handlePan(0,-1)">
                  <use xlink:href="#rim" fill="#404040">
                        <set attributeName="fill" to="#808080" begin="arrowUp.mouseover" end="arrowUp.mouseout"/>
                  </use>
                  <path fill="none" stroke="white" stroke-width="1.5" d="M0,-3.0v7 M-2.5,-0.5L0,-3.0L2.5,-0.5"/>
                </g>
                <g id="arrowRight" xlink:href="#dirArrow" transform="rotate(90) translate(36 -43)" onmousedown="handlePan(1,0)">
                  <use xlink:href="#rim" fill="#404040">
                        <set attributeName="fill" to="#808080" begin="arrowRight.mouseover" end="arrowRight.mouseout"/>
                  </use>
                  <path fill="none" stroke="white" stroke-width="1.5" d="M0,-3.0v7 M-2.5,-0.5L0,-3.0L2.5,-0.5"/>
                </g>
                <g id="arrowDown" xlink:href="#dirArrow" transform="rotate(180) translate(-30 -48)" onmousedown="handlePan(0,1)">
                  <use xlink:href="#rim" fill="#404040">
                        <set attributeName="fill" to="#808080" begin="arrowDown.mouseover" end="arrowDown.mouseout"/>
                  </use>
                  <path fill="none" stroke="white" stroke-width="1.5" d="M0,-3.0v7 M-2.5,-0.5L0,-3.0L2.5,-0.5"/>
                </g>
                <g id="arrowLeft" xlink:href="#dirArrow" transform="rotate(270) translate(-36 17)" onmousedown="handlePan(-1,0)">
                  <use xlink:href="#rim" fill="#404040">
                        <set attributeName="fill" to="#808080" begin="arrowLeft.mouseover" end="arrowLeft.mouseout"/>
                  </use>
                  <path fill="none" stroke="white" stroke-width="1.5" d="M0,-3.0v7 M-2.5,-0.5L0,-3.0L2.5,-0.5"/>
                </g>
        </g>
        <svg viewBox="0 0 15 15" width="100%" height="30px" preserveAspectRatio="xMaxYMin meet">
         <g id="arrow_out" transform="scale(0.3 0.3)">
          <a xlink:href="model__methods_8h__incl_org.svg" target="_base">
           <rect id="button" ry="5" rx="5" y="6" x="6" height="38" width="38"
                fill="#f2f5e9" fill-opacity="0.5" stroke="#606060" stroke-width="1.0"/>
           <path id="arrow"
             d="M 11.500037,31.436501 C 11.940474,20.09759 22.043105,11.32322 32.158766,21.979434 L 37.068811,17.246167 C 37.068811,17.246167 37.088388,32 37.088388,32 L 22.160133,31.978069 C 22.160133,31.978069 26.997745,27.140456 26.997745,27.140456 C 18.528582,18.264221 13.291696,25.230495 11.500037,31.436501 z"
             style="fill:#404040;"/>
          </a>
         </g>
        </svg>
</svg>
