<?xml version="1.0" encoding="UTF-8" standalone="no"?>
<!DOCTYPE svg PUBLIC "-//W3C//DTD SVG 1.1//EN"
 "http://www.w3.org/Graphics/SVG/1.1/DTD/svg11.dtd">
<!-- Generated by graphviz version 2.38.0 (20140413.2041)
 -->
<!-- Title: mappel::beta_prior_grad Pages: 1 -->
<svg width="480pt" height="37pt"
 viewBox="0.00 0.00 480.00 37.00" xmlns="http://www.w3.org/2000/svg" xmlns:xlink="http://www.w3.org/1999/xlink">
<g id="graph0" class="graph" transform="scale(1 1) rotate(0) translate(4 33)">
<title>mappel::beta_prior_grad</title>
<polygon fill="white" stroke="none" points="-4,4 -4,-33 476,-33 476,4 -4,4"/>
<!-- Node1 -->
<g id="node1" class="node"><title>Node1</title>
<polygon fill="#bfbfbf" stroke="black" points="0,-5.5 0,-23.5 118,-23.5 118,-5.5 0,-5.5"/>
<text text-anchor="middle" x="59" y="-12.3" font-family="Helvetica,sans-Serif" font-size="9.00">mappel::beta_prior_grad</text>
</g>
<!-- Node2 -->
<g id="node2" class="node"><title>Node2</title>
<g id="a_node2"><a xlink:href="classmappel_1_1PriorMAP1DObjective.html#ae12cf228193e345f3382bc916e3c60ee" target="_top" xlink:title="mappel::PriorMAP1DObjective\l::prior_grad_update">
<polygon fill="white" stroke="black" points="154,-0.5 154,-28.5 295,-28.5 295,-0.5 154,-0.5"/>
<text text-anchor="start" x="162" y="-17.3" font-family="Helvetica,sans-Serif" font-size="9.00">mappel::PriorMAP1DObjective</text>
<text text-anchor="middle" x="224.5" y="-7.3" font-family="Helvetica,sans-Serif" font-size="9.00">::prior_grad_update</text>
</a>
</g>
</g>
<!-- Node1&#45;&gt;Node2 -->
<g id="edge1" class="edge"><title>Node1&#45;&gt;Node2</title>
<path fill="none" stroke="midnightblue" d="M128.281,-14.5C136.726,-14.5 145.367,-14.5 153.832,-14.5"/>
<polygon fill="midnightblue" stroke="midnightblue" points="128.104,-11.0001 118.104,-14.5 128.104,-18.0001 128.104,-11.0001"/>
</g>
<!-- Node3 -->
<g id="node3" class="node"><title>Node3</title>
<g id="a_node3"><a xlink:href="classmappel_1_1PriorMAP1DObjective.html#ac5b20bb93fe2f2eddd75d19bf34283c7" target="_top" xlink:title="mappel::PriorMAP1DObjective\l::set_hyperparameters">
<polygon fill="white" stroke="black" points="331,-0.5 331,-28.5 472,-28.5 472,-0.5 331,-0.5"/>
<text text-anchor="start" x="339" y="-17.3" font-family="Helvetica,sans-Serif" font-size="9.00">mappel::PriorMAP1DObjective</text>
<text text-anchor="middle" x="401.5" y="-7.3" font-family="Helvetica,sans-Serif" font-size="9.00">::set_hyperparameters</text>
</a>
</g>
</g>
<!-- Node2&#45;&gt;Node3 -->
<g id="edge2" class="edge"><title>Node2&#45;&gt;Node3</title>
<path fill="none" stroke="midnightblue" d="M305.425,-14.5C313.89,-14.5 322.451,-14.5 330.786,-14.5"/>
<polygon fill="midnightblue" stroke="midnightblue" points="305.168,-11.0001 295.167,-14.5 305.167,-18.0001 305.168,-11.0001"/>
</g>
</g>
</svg>
