<?xml version="1.0" encoding="UTF-8" standalone="no"?>
<!DOCTYPE svg PUBLIC "-//W3C//DTD SVG 1.1//EN"
 "http://www.w3.org/Graphics/SVG/1.1/DTD/svg11.dtd">
<!-- Generated by graphviz version 2.38.0 (20140413.2041)
 -->
<!-- Title: mappel::cholesky_make_negative_definite Pages: 1 -->
<svg width="444pt" height="74pt"
 viewBox="0.00 0.00 444.00 74.00" xmlns="http://www.w3.org/2000/svg" xmlns:xlink="http://www.w3.org/1999/xlink">
<g id="graph0" class="graph" transform="scale(1 1) rotate(0) translate(4 70)">
<title>mappel::cholesky_make_negative_definite</title>
<polygon fill="white" stroke="none" points="-4,4 -4,-70 440,-70 440,4 -4,4"/>
<!-- Node1 -->
<g id="node1" class="node"><title>Node1</title>
<polygon fill="#bfbfbf" stroke="black" points="0,-16.5 0,-44.5 116,-44.5 116,-16.5 0,-16.5"/>
<text text-anchor="start" x="8" y="-33.3" font-family="Helvetica,sans-Serif" font-size="9.00">mappel::cholesky_make</text>
<text text-anchor="middle" x="58" y="-23.3" font-family="Helvetica,sans-Serif" font-size="9.00">_negative_definite</text>
</g>
<!-- Node2 -->
<g id="node2" class="node"><title>Node2</title>
<g id="a_node2"><a xlink:href="namespacemappel.html#a2f4256e721d1f22f2d72817ba3d2540d" target="_top" xlink:title="mappel::cholesky_convert\l_full_matrix">
<polygon fill="white" stroke="black" points="154.5,-37.5 154.5,-65.5 277.5,-65.5 277.5,-37.5 154.5,-37.5"/>
<text text-anchor="start" x="162.5" y="-54.3" font-family="Helvetica,sans-Serif" font-size="9.00">mappel::cholesky_convert</text>
<text text-anchor="middle" x="216" y="-44.3" font-family="Helvetica,sans-Serif" font-size="9.00">_full_matrix</text>
</a>
</g>
</g>
<!-- Node1&#45;&gt;Node2 -->
<g id="edge1" class="edge"><title>Node1&#45;&gt;Node2</title>
<path fill="none" stroke="midnightblue" d="M116.203,-38.2004C125.335,-39.4297 134.877,-40.7142 144.277,-41.9796"/>
<polygon fill="midnightblue" stroke="midnightblue" points="144.017,-45.4761 154.395,-43.3416 144.951,-38.5387 144.017,-45.4761"/>
</g>
<!-- Node4 -->
<g id="node4" class="node"><title>Node4</title>
<g id="a_node4"><a xlink:href="namespacemappel.html#a5b0ad6d46ef0173ae9e44a0ff9af7f0b" target="_top" xlink:title="mappel::modified_cholesky">
<polygon fill="white" stroke="black" points="152,-0.5 152,-18.5 280,-18.5 280,-0.5 152,-0.5"/>
<text text-anchor="middle" x="216" y="-7.3" font-family="Helvetica,sans-Serif" font-size="9.00">mappel::modified_cholesky</text>
</a>
</g>
</g>
<!-- Node1&#45;&gt;Node4 -->
<g id="edge3" class="edge"><title>Node1&#45;&gt;Node4</title>
<path fill="none" stroke="midnightblue" d="M116.203,-22.7996C124.515,-21.6806 133.168,-20.5158 141.744,-19.3614"/>
<polygon fill="midnightblue" stroke="midnightblue" points="142.307,-22.8172 151.751,-18.0143 141.373,-15.8798 142.307,-22.8172"/>
</g>
<!-- Node3 -->
<g id="node3" class="node"><title>Node3</title>
<g id="a_node3"><a xlink:href="namespacemappel.html#a7332bb151bb9ea23be4af80743009954" target="_top" xlink:title="mappel::copy_Usym_mat">
<polygon fill="white" stroke="black" points="316,-42.5 316,-60.5 436,-60.5 436,-42.5 316,-42.5"/>
<text text-anchor="middle" x="376" y="-49.3" font-family="Helvetica,sans-Serif" font-size="9.00">mappel::copy_Usym_mat</text>
</a>
</g>
</g>
<!-- Node2&#45;&gt;Node3 -->
<g id="edge2" class="edge"><title>Node2&#45;&gt;Node3</title>
<path fill="none" stroke="midnightblue" d="M277.635,-51.5C286.838,-51.5 296.393,-51.5 305.762,-51.5"/>
<polygon fill="midnightblue" stroke="midnightblue" points="305.83,-55.0001 315.83,-51.5 305.83,-48.0001 305.83,-55.0001"/>
</g>
</g>
</svg>
