<?xml version="1.0" encoding="UTF-8" standalone="no"?>
<!DOCTYPE svg PUBLIC "-//W3C//DTD SVG 1.1//EN"
 "http://www.w3.org/Graphics/SVG/1.1/DTD/svg11.dtd">
<!-- Generated by graphviz version 2.38.0 (20140413.2041)
 -->
<!-- Title: mappel::fill_X_stencil Pages: 1 -->
<svg width="421pt" height="178pt"
 viewBox="0.00 0.00 421.00 178.00" xmlns="http://www.w3.org/2000/svg" xmlns:xlink="http://www.w3.org/1999/xlink">
<g id="graph0" class="graph" transform="scale(1 1) rotate(0) translate(4 174)">
<title>mappel::fill_X_stencil</title>
<polygon fill="white" stroke="none" points="-4,4 -4,-174 417,-174 417,4 -4,4"/>
<!-- Node1 -->
<g id="node1" class="node"><title>Node1</title>
<polygon fill="#bfbfbf" stroke="black" points="0,-75.5 0,-93.5 104,-93.5 104,-75.5 0,-75.5"/>
<text text-anchor="middle" x="52" y="-82.3" font-family="Helvetica,sans-Serif" font-size="9.00">mappel::fill_X_stencil</text>
</g>
<!-- Node2 -->
<g id="node2" class="node"><title>Node2</title>
<g id="a_node2"><a xlink:href="namespacemappel.html#a7b50d0a17c085d9b25b91c2b17ecb1cc" target="_top" xlink:title="mappel::make_X_stencil">
<polygon fill="white" stroke="black" points="140,-75.5 140,-93.5 257,-93.5 257,-75.5 140,-75.5"/>
<text text-anchor="middle" x="198.5" y="-82.3" font-family="Helvetica,sans-Serif" font-size="9.00">mappel::make_X_stencil</text>
</a>
</g>
</g>
<!-- Node1&#45;&gt;Node2 -->
<g id="edge1" class="edge"><title>Node1&#45;&gt;Node2</title>
<path fill="none" stroke="midnightblue" d="M114.504,-84.5C122.934,-84.5 131.563,-84.5 139.919,-84.5"/>
<polygon fill="midnightblue" stroke="midnightblue" points="114.352,-81.0001 104.352,-84.5 114.352,-88.0001 114.352,-81.0001"/>
</g>
<!-- Node3 -->
<g id="node3" class="node"><title>Node3</title>
<g id="a_node3"><a xlink:href="classmappel_1_1Gauss1DModel_1_1Stencil.html#a6881e128436697dd57b41d20a1c8b56e" target="_top" xlink:title="mappel::Gauss1DModel\l::Stencil::Stencil">
<polygon fill="white" stroke="black" points="295,-141.5 295,-169.5 411,-169.5 411,-141.5 295,-141.5"/>
<text text-anchor="start" x="303" y="-158.3" font-family="Helvetica,sans-Serif" font-size="9.00">mappel::Gauss1DModel</text>
<text text-anchor="middle" x="353" y="-148.3" font-family="Helvetica,sans-Serif" font-size="9.00">::Stencil::Stencil</text>
</a>
</g>
</g>
<!-- Node2&#45;&gt;Node3 -->
<g id="edge2" class="edge"><title>Node2&#45;&gt;Node3</title>
<path fill="none" stroke="midnightblue" d="M224.808,-98.3864C243.426,-108.381 269.48,-121.912 293,-132.5 299.817,-135.569 307.175,-138.63 314.306,-141.471"/>
<polygon fill="midnightblue" stroke="midnightblue" points="226.263,-95.1945 215.802,-93.5162 222.933,-101.352 226.263,-95.1945"/>
</g>
<!-- Node4 -->
<g id="node4" class="node"><title>Node4</title>
<g id="a_node4"><a xlink:href="classmappel_1_1Gauss1DsModel_1_1Stencil.html#ae4f12261a80d8ed1a2d3652c0e7b629b" target="_top" xlink:title="mappel::Gauss1DsModel\l::Stencil::Stencil">
<polygon fill="white" stroke="black" points="293,-94.5 293,-122.5 413,-122.5 413,-94.5 293,-94.5"/>
<text text-anchor="start" x="301" y="-111.3" font-family="Helvetica,sans-Serif" font-size="9.00">mappel::Gauss1DsModel</text>
<text text-anchor="middle" x="353" y="-101.3" font-family="Helvetica,sans-Serif" font-size="9.00">::Stencil::Stencil</text>
</a>
</g>
</g>
<!-- Node2&#45;&gt;Node4 -->
<g id="edge3" class="edge"><title>Node2&#45;&gt;Node4</title>
<path fill="none" stroke="midnightblue" d="M266.83,-95.0962C275.528,-96.4651 284.383,-97.8586 292.934,-99.2043"/>
<polygon fill="midnightblue" stroke="midnightblue" points="267.142,-91.6023 256.719,-93.505 266.054,-98.5172 267.142,-91.6023"/>
</g>
<!-- Node5 -->
<g id="node5" class="node"><title>Node5</title>
<g id="a_node5"><a xlink:href="classmappel_1_1Gauss2DModel_1_1Stencil.html#a9e1f0ff585b5394d2d114a432b8c7d94" target="_top" xlink:title="mappel::Gauss2DModel\l::Stencil::Stencil">
<polygon fill="white" stroke="black" points="295,-47.5 295,-75.5 411,-75.5 411,-47.5 295,-47.5"/>
<text text-anchor="start" x="303" y="-64.3" font-family="Helvetica,sans-Serif" font-size="9.00">mappel::Gauss2DModel</text>
<text text-anchor="middle" x="353" y="-54.3" font-family="Helvetica,sans-Serif" font-size="9.00">::Stencil::Stencil</text>
</a>
</g>
</g>
<!-- Node2&#45;&gt;Node5 -->
<g id="edge4" class="edge"><title>Node2&#45;&gt;Node5</title>
<path fill="none" stroke="midnightblue" d="M267.087,-74.3066C276.327,-72.913 285.739,-71.4935 294.771,-70.1313"/>
<polygon fill="midnightblue" stroke="midnightblue" points="266.52,-70.8524 257.154,-75.8047 267.564,-77.7741 266.52,-70.8524"/>
</g>
<!-- Node6 -->
<g id="node6" class="node"><title>Node6</title>
<g id="a_node6"><a xlink:href="classmappel_1_1Gauss2DsModel_1_1Stencil.html#a924f5f8d4524831f1ef50041b85a842f" target="_top" xlink:title="mappel::Gauss2DsModel\l::Stencil::Stencil">
<polygon fill="white" stroke="black" points="293,-0.5 293,-28.5 413,-28.5 413,-0.5 293,-0.5"/>
<text text-anchor="start" x="301" y="-17.3" font-family="Helvetica,sans-Serif" font-size="9.00">mappel::Gauss2DsModel</text>
<text text-anchor="middle" x="353" y="-7.3" font-family="Helvetica,sans-Serif" font-size="9.00">::Stencil::Stencil</text>
</a>
</g>
</g>
<!-- Node2&#45;&gt;Node6 -->
<g id="edge5" class="edge"><title>Node2&#45;&gt;Node6</title>
<path fill="none" stroke="midnightblue" d="M225.94,-70.8685C244.536,-61.4355 270.09,-48.7799 293,-38.5 300.466,-35.1501 308.545,-31.7314 316.26,-28.5637"/>
<polygon fill="midnightblue" stroke="midnightblue" points="224.22,-67.817 216.901,-75.4779 227.4,-74.053 224.22,-67.817"/>
</g>
</g>
</svg>
