<?xml version="1.0" encoding="UTF-8" standalone="no"?>
<!DOCTYPE svg PUBLIC "-//W3C//DTD SVG 1.1//EN"
 "http://www.w3.org/Graphics/SVG/1.1/DTD/svg11.dtd">
<!-- Generated by graphviz version 2.38.0 (20140413.2041)
 -->
<!-- Title: mappel::print_vec_row Pages: 1 -->
<svg width="395pt" height="27pt"
 viewBox="0.00 0.00 395.00 27.00" xmlns="http://www.w3.org/2000/svg" xmlns:xlink="http://www.w3.org/1999/xlink">
<g id="graph0" class="graph" transform="scale(1 1) rotate(0) translate(4 23)">
<title>mappel::print_vec_row</title>
<polygon fill="white" stroke="none" points="-4,4 -4,-23 391,-23 391,4 -4,4"/>
<!-- Node1 -->
<g id="node1" class="node"><title>Node1</title>
<polygon fill="#bfbfbf" stroke="black" points="0,-0.5 0,-18.5 110,-18.5 110,-0.5 0,-0.5"/>
<text text-anchor="middle" x="55" y="-7.3" font-family="Helvetica,sans-Serif" font-size="9.00">mappel::print_vec_row</text>
</g>
<!-- Node2 -->
<g id="node2" class="node"><title>Node2</title>
<g id="a_node2"><a xlink:href="namespacemappel.html#ade30cb844a141741b110c52cdc433e69" target="_top" xlink:title="mappel::operator\&lt;\&lt;">
<polygon fill="white" stroke="black" points="146,-0.5 146,-18.5 243,-18.5 243,-0.5 146,-0.5"/>
<text text-anchor="middle" x="194.5" y="-7.3" font-family="Helvetica,sans-Serif" font-size="9.00">mappel::operator&lt;&lt;</text>
</a>
</g>
</g>
<!-- Node1&#45;&gt;Node2 -->
<g id="edge1" class="edge"><title>Node1&#45;&gt;Node2</title>
<path fill="none" stroke="midnightblue" d="M120.61,-9.5C129.09,-9.5 137.653,-9.5 145.783,-9.5"/>
<polygon fill="midnightblue" stroke="midnightblue" points="120.344,-6.0001 110.344,-9.5 120.344,-13.0001 120.344,-6.0001"/>
</g>
<!-- Node3 -->
<g id="node3" class="node"><title>Node3</title>
<g id="a_node3"><a xlink:href="namespacemappel.html#a965a7374aa364331ed67aae33205aa9c" target="_top" xlink:title="mappel::make_unique">
<polygon fill="white" stroke="black" points="279,-0.5 279,-18.5 387,-18.5 387,-0.5 279,-0.5"/>
<text text-anchor="middle" x="333" y="-7.3" font-family="Helvetica,sans-Serif" font-size="9.00">mappel::make_unique</text>
</a>
</g>
</g>
<!-- Node2&#45;&gt;Node3 -->
<g id="edge2" class="edge"><title>Node2&#45;&gt;Node3</title>
<path fill="none" stroke="midnightblue" d="M253.421,-9.5C261.885,-9.5 270.566,-9.5 278.926,-9.5"/>
<polygon fill="midnightblue" stroke="midnightblue" points="253.241,-6.0001 243.241,-9.5 253.241,-13.0001 253.241,-6.0001"/>
</g>
</g>
</svg>
