<?xml version="1.0" encoding="UTF-8" standalone="no"?>
<!DOCTYPE svg PUBLIC "-//W3C//DTD SVG 1.1//EN"
 "http://www.w3.org/Graphics/SVG/1.1/DTD/svg11.dtd">
<!-- Generated by graphviz version 2.38.0 (20140413.2041)
 -->
<!-- Title: mappel::make_d_stencil Pages: 1 -->
<svg width="280pt" height="178pt"
 viewBox="0.00 0.00 280.00 178.00" xmlns="http://www.w3.org/2000/svg" xmlns:xlink="http://www.w3.org/1999/xlink">
<g id="graph0" class="graph" transform="scale(1 1) rotate(0) translate(4 174)">
<title>mappel::make_d_stencil</title>
<polygon fill="white" stroke="none" points="-4,4 -4,-174 276,-174 276,4 -4,4"/>
<!-- Node1 -->
<g id="node1" class="node"><title>Node1</title>
<polygon fill="#bfbfbf" stroke="black" points="0,-75.5 0,-93.5 116,-93.5 116,-75.5 0,-75.5"/>
<text text-anchor="middle" x="58" y="-82.3" font-family="Helvetica,sans-Serif" font-size="9.00">mappel::make_d_stencil</text>
</g>
<!-- Node2 -->
<g id="node2" class="node"><title>Node2</title>
<g id="a_node2"><a xlink:href="classmappel_1_1Gauss1DsModel_1_1Stencil.html#ae4f12261a80d8ed1a2d3652c0e7b629b" target="_top" xlink:title="mappel::Gauss1DsModel\l::Stencil::Stencil">
<polygon fill="white" stroke="black" points="152,-141.5 152,-169.5 272,-169.5 272,-141.5 152,-141.5"/>
<text text-anchor="start" x="160" y="-158.3" font-family="Helvetica,sans-Serif" font-size="9.00">mappel::Gauss1DsModel</text>
<text text-anchor="middle" x="212" y="-148.3" font-family="Helvetica,sans-Serif" font-size="9.00">::Stencil::Stencil</text>
</a>
</g>
</g>
<!-- Node1&#45;&gt;Node2 -->
<g id="edge1" class="edge"><title>Node1&#45;&gt;Node2</title>
<path fill="none" stroke="midnightblue" d="M84.1634,-98.3979C102.678,-108.399 128.591,-121.931 152,-132.5 158.814,-135.576 166.17,-138.641 173.301,-141.483"/>
<polygon fill="midnightblue" stroke="midnightblue" points="85.6651,-95.2305 75.2085,-93.5246 82.319,-101.379 85.6651,-95.2305"/>
</g>
<!-- Node3 -->
<g id="node3" class="node"><title>Node3</title>
<g id="a_node3"><a xlink:href="classmappel_1_1Gauss2DModel_1_1Stencil.html#a9e1f0ff585b5394d2d114a432b8c7d94" target="_top" xlink:title="mappel::Gauss2DModel\l::Stencil::Stencil">
<polygon fill="white" stroke="black" points="154,-94.5 154,-122.5 270,-122.5 270,-94.5 154,-94.5"/>
<text text-anchor="start" x="162" y="-111.3" font-family="Helvetica,sans-Serif" font-size="9.00">mappel::Gauss2DModel</text>
<text text-anchor="middle" x="212" y="-101.3" font-family="Helvetica,sans-Serif" font-size="9.00">::Stencil::Stencil</text>
</a>
</g>
</g>
<!-- Node1&#45;&gt;Node3 -->
<g id="edge2" class="edge"><title>Node1&#45;&gt;Node3</title>
<path fill="none" stroke="midnightblue" d="M126.025,-95.0828C135.324,-96.5512 144.806,-98.0483 153.902,-99.4845"/>
<polygon fill="midnightblue" stroke="midnightblue" points="126.455,-91.6075 116.032,-93.505 125.363,-98.5219 126.455,-91.6075"/>
</g>
<!-- Node4 -->
<g id="node4" class="node"><title>Node4</title>
<g id="a_node4"><a xlink:href="classmappel_1_1Gauss1DModel_1_1Stencil.html#a6881e128436697dd57b41d20a1c8b56e" target="_top" xlink:title="mappel::Gauss1DModel\l::Stencil::Stencil">
<polygon fill="white" stroke="black" points="154,-47.5 154,-75.5 270,-75.5 270,-47.5 154,-47.5"/>
<text text-anchor="start" x="162" y="-64.3" font-family="Helvetica,sans-Serif" font-size="9.00">mappel::Gauss1DModel</text>
<text text-anchor="middle" x="212" y="-54.3" font-family="Helvetica,sans-Serif" font-size="9.00">::Stencil::Stencil</text>
</a>
</g>
</g>
<!-- Node1&#45;&gt;Node4 -->
<g id="edge3" class="edge"><title>Node1&#45;&gt;Node4</title>
<path fill="none" stroke="midnightblue" d="M126.025,-74.3581C135.324,-72.9509 144.806,-71.5162 153.902,-70.1399"/>
<polygon fill="midnightblue" stroke="midnightblue" points="125.395,-70.9134 116.032,-75.8702 126.443,-77.8346 125.395,-70.9134"/>
</g>
<!-- Node5 -->
<g id="node5" class="node"><title>Node5</title>
<g id="a_node5"><a xlink:href="classmappel_1_1Gauss2DsModel_1_1Stencil.html#a924f5f8d4524831f1ef50041b85a842f" target="_top" xlink:title="mappel::Gauss2DsModel\l::Stencil::Stencil">
<polygon fill="white" stroke="black" points="152,-0.5 152,-28.5 272,-28.5 272,-0.5 152,-0.5"/>
<text text-anchor="start" x="160" y="-17.3" font-family="Helvetica,sans-Serif" font-size="9.00">mappel::Gauss2DsModel</text>
<text text-anchor="middle" x="212" y="-7.3" font-family="Helvetica,sans-Serif" font-size="9.00">::Stencil::Stencil</text>
</a>
</g>
</g>
<!-- Node1&#45;&gt;Node5 -->
<g id="edge4" class="edge"><title>Node1&#45;&gt;Node5</title>
<path fill="none" stroke="midnightblue" d="M85.2908,-70.8559C103.783,-61.4172 129.199,-48.7599 152,-38.5 159.462,-35.1421 167.54,-31.7201 175.255,-28.5517"/>
<polygon fill="midnightblue" stroke="midnightblue" points="83.6012,-67.789 76.3022,-75.4686 86.7971,-74.0169 83.6012,-67.789"/>
</g>
</g>
</svg>
