<?xml version="1.0" encoding="UTF-8" standalone="no"?>
<!DOCTYPE svg PUBLIC "-//W3C//DTD SVG 1.1//EN"
 "http://www.w3.org/Graphics/SVG/1.1/DTD/svg11.dtd">
<!-- Generated by graphviz version 2.38.0 (20140413.2041)
 -->
<!-- Title: mappel::methods::debug::estimate_mcmc_sample_debug Pages: 1 -->
<svg width="470pt" height="37pt"
 viewBox="0.00 0.00 470.00 37.00" xmlns="http://www.w3.org/2000/svg" xmlns:xlink="http://www.w3.org/1999/xlink">
<g id="graph0" class="graph" transform="scale(1 1) rotate(0) translate(4 33)">
<title>mappel::methods::debug::estimate_mcmc_sample_debug</title>
<polygon fill="white" stroke="none" points="-4,4 -4,-33 466,-33 466,4 -4,4"/>
<!-- Node1 -->
<g id="node1" class="node"><title>Node1</title>
<polygon fill="#bfbfbf" stroke="black" points="0,-0.5 0,-28.5 152,-28.5 152,-0.5 0,-0.5"/>
<text text-anchor="start" x="8" y="-17.3" font-family="Helvetica,sans-Serif" font-size="9.00">mappel::methods::debug</text>
<text text-anchor="middle" x="76" y="-7.3" font-family="Helvetica,sans-Serif" font-size="9.00">::estimate_mcmc_sample_debug</text>
</g>
<!-- Node2 -->
<g id="node2" class="node"><title>Node2</title>
<g id="a_node2"><a xlink:href="namespacemappel_1_1mcmc.html#a7a9a1f1f24f538f594992438a9cea159" target="_top" xlink:title="mappel::mcmc::sample\l_posterior_debug">
<polygon fill="white" stroke="black" points="188,-0.5 188,-28.5 298,-28.5 298,-0.5 188,-0.5"/>
<text text-anchor="start" x="196" y="-17.3" font-family="Helvetica,sans-Serif" font-size="9.00">mappel::mcmc::sample</text>
<text text-anchor="middle" x="243" y="-7.3" font-family="Helvetica,sans-Serif" font-size="9.00">_posterior_debug</text>
</a>
</g>
</g>
<!-- Node1&#45;&gt;Node2 -->
<g id="edge1" class="edge"><title>Node1&#45;&gt;Node2</title>
<path fill="none" stroke="midnightblue" d="M152.257,-14.5C160.624,-14.5 169.091,-14.5 177.31,-14.5"/>
<polygon fill="midnightblue" stroke="midnightblue" points="177.562,-18.0001 187.562,-14.5 177.562,-11.0001 177.562,-18.0001"/>
</g>
<!-- Node3 -->
<g id="node3" class="node"><title>Node3</title>
<g id="a_node3"><a xlink:href="namespacemappel_1_1methods_1_1objective.html#a293c23ed6a623e59477bb67b6e40f5ad" target="_top" xlink:title="mappel::methods::objective\l::rllh">
<polygon fill="white" stroke="black" points="334,-0.5 334,-28.5 462,-28.5 462,-0.5 334,-0.5"/>
<text text-anchor="start" x="342" y="-17.3" font-family="Helvetica,sans-Serif" font-size="9.00">mappel::methods::objective</text>
<text text-anchor="middle" x="398" y="-7.3" font-family="Helvetica,sans-Serif" font-size="9.00">::rllh</text>
</a>
</g>
</g>
<!-- Node2&#45;&gt;Node3 -->
<g id="edge2" class="edge"><title>Node2&#45;&gt;Node3</title>
<path fill="none" stroke="midnightblue" d="M298.373,-14.5C306.645,-14.5 315.295,-14.5 323.889,-14.5"/>
<polygon fill="midnightblue" stroke="midnightblue" points="323.924,-18.0001 333.924,-14.5 323.924,-11.0001 323.924,-18.0001"/>
</g>
</g>
</svg>
