<?xml version="1.0" encoding="UTF-8" standalone="no"?>
<!DOCTYPE svg PUBLIC "-//W3C//DTD SVG 1.1//EN"
 "http://www.w3.org/Graphics/SVG/1.1/DTD/svg11.dtd">
<!-- Generated by graphviz version 2.38.0 (20140413.2041)
 -->
<!-- Title: mappel::methods::likelihood::hessian Pages: 1 -->
<svg width="481pt" height="84pt"
 viewBox="0.00 0.00 481.00 84.00" xmlns="http://www.w3.org/2000/svg" xmlns:xlink="http://www.w3.org/1999/xlink">
<g id="graph0" class="graph" transform="scale(1 1) rotate(0) translate(4 80)">
<title>mappel::methods::likelihood::hessian</title>
<polygon fill="white" stroke="none" points="-4,4 -4,-80 477,-80 477,4 -4,4"/>
<!-- Node1 -->
<g id="node1" class="node"><title>Node1</title>
<polygon fill="#bfbfbf" stroke="black" points="0,-23.5 0,-51.5 131,-51.5 131,-23.5 0,-23.5"/>
<text text-anchor="start" x="8" y="-40.3" font-family="Helvetica,sans-Serif" font-size="9.00">mappel::methods::likelihood</text>
<text text-anchor="middle" x="65.5" y="-30.3" font-family="Helvetica,sans-Serif" font-size="9.00">::hessian</text>
</g>
<!-- Node2 -->
<g id="node2" class="node"><title>Node2</title>
<g id="a_node2"><a xlink:href="namespacemappel_1_1methods.html#a5227b7c0f1c45c27cbebfcafefcab72b" target="_top" xlink:title="mappel::methods::aposteriori\l_objective">
<polygon fill="white" stroke="black" points="167,-47.5 167,-75.5 302,-75.5 302,-47.5 167,-47.5"/>
<text text-anchor="start" x="175" y="-64.3" font-family="Helvetica,sans-Serif" font-size="9.00">mappel::methods::aposteriori</text>
<text text-anchor="middle" x="234.5" y="-54.3" font-family="Helvetica,sans-Serif" font-size="9.00">_objective</text>
</a>
</g>
</g>
<!-- Node1&#45;&gt;Node2 -->
<g id="edge1" class="edge"><title>Node1&#45;&gt;Node2</title>
<path fill="none" stroke="midnightblue" d="M141.082,-48.2184C149.683,-49.4545 158.412,-50.7089 166.897,-51.9284"/>
<polygon fill="midnightblue" stroke="midnightblue" points="141.463,-44.7372 131.067,-46.779 140.467,-51.666 141.463,-44.7372"/>
</g>
<!-- Node4 -->
<g id="node4" class="node"><title>Node4</title>
<g id="a_node4"><a xlink:href="namespacemappel_1_1methods.html#a82eaea0b938b0daff819da153e1351e2" target="_top" xlink:title="mappel::methods::likelihood\l_objective">
<polygon fill="white" stroke="black" points="169,-0.5 169,-28.5 300,-28.5 300,-0.5 169,-0.5"/>
<text text-anchor="start" x="177" y="-17.3" font-family="Helvetica,sans-Serif" font-size="9.00">mappel::methods::likelihood</text>
<text text-anchor="middle" x="234.5" y="-7.3" font-family="Helvetica,sans-Serif" font-size="9.00">_objective</text>
</a>
</g>
</g>
<!-- Node1&#45;&gt;Node4 -->
<g id="edge3" class="edge"><title>Node1&#45;&gt;Node4</title>
<path fill="none" stroke="midnightblue" d="M141.043,-27.2336C150.311,-25.9572 159.728,-24.6602 168.83,-23.4067"/>
<polygon fill="midnightblue" stroke="midnightblue" points="140.495,-23.7759 131.067,-28.6076 141.451,-30.7104 140.495,-23.7759"/>
</g>
<!-- Node3 -->
<g id="node3" class="node"><title>Node3</title>
<g id="a_node3"><a xlink:href="namespacemappel_1_1methods.html#a3b0e13b783d21c08ba063a210b0a344b" target="_top" xlink:title="mappel::methods::aposteriori\l_objective">
<polygon fill="white" stroke="black" points="338,-47.5 338,-75.5 473,-75.5 473,-47.5 338,-47.5"/>
<text text-anchor="start" x="346" y="-64.3" font-family="Helvetica,sans-Serif" font-size="9.00">mappel::methods::aposteriori</text>
<text text-anchor="middle" x="405.5" y="-54.3" font-family="Helvetica,sans-Serif" font-size="9.00">_objective</text>
</a>
</g>
</g>
<!-- Node2&#45;&gt;Node3 -->
<g id="edge2" class="edge"><title>Node2&#45;&gt;Node3</title>
<path fill="none" stroke="midnightblue" d="M312.551,-61.5C321.019,-61.5 329.589,-61.5 337.915,-61.5"/>
<polygon fill="midnightblue" stroke="midnightblue" points="312.293,-58.0001 302.293,-61.5 312.293,-65.0001 312.293,-58.0001"/>
</g>
<!-- Node5 -->
<g id="node5" class="node"><title>Node5</title>
<g id="a_node5"><a xlink:href="namespacemappel_1_1methods.html#a496d45e1db23f89b54ae0bef016a19b0" target="_top" xlink:title="mappel::methods::likelihood\l_objective">
<polygon fill="white" stroke="black" points="340,-0.5 340,-28.5 471,-28.5 471,-0.5 340,-0.5"/>
<text text-anchor="start" x="348" y="-17.3" font-family="Helvetica,sans-Serif" font-size="9.00">mappel::methods::likelihood</text>
<text text-anchor="middle" x="405.5" y="-7.3" font-family="Helvetica,sans-Serif" font-size="9.00">_objective</text>
</a>
</g>
</g>
<!-- Node4&#45;&gt;Node5 -->
<g id="edge4" class="edge"><title>Node4&#45;&gt;Node5</title>
<path fill="none" stroke="midnightblue" d="M310.471,-14.5C320.258,-14.5 330.219,-14.5 339.817,-14.5"/>
<polygon fill="midnightblue" stroke="midnightblue" points="310.357,-11.0001 300.356,-14.5 310.356,-18.0001 310.357,-11.0001"/>
</g>
</g>
</svg>
