<?xml version="1.0" encoding="UTF-8" standalone="no"?>
<!DOCTYPE svg PUBLIC "-//W3C//DTD SVG 1.1//EN"
 "http://www.w3.org/Graphics/SVG/1.1/DTD/svg11.dtd">
<!-- Generated by graphviz version 2.38.0 (20140413.2041)
 -->
<!-- Title: mappel::fill_DX_stencil Pages: 1 -->
<svg width="608pt" height="178pt"
 viewBox="0.00 0.00 608.00 178.00" xmlns="http://www.w3.org/2000/svg" xmlns:xlink="http://www.w3.org/1999/xlink">
<g id="graph0" class="graph" transform="scale(1 1) rotate(0) translate(4 174)">
<title>mappel::fill_DX_stencil</title>
<polygon fill="white" stroke="none" points="-4,4 -4,-174 604,-174 604,4 -4,4"/>
<!-- Node1 -->
<g id="node1" class="node"><title>Node1</title>
<polygon fill="#bfbfbf" stroke="black" points="0,-75.5 0,-93.5 110,-93.5 110,-75.5 0,-75.5"/>
<text text-anchor="middle" x="55" y="-82.3" font-family="Helvetica,sans-Serif" font-size="9.00">mappel::fill_DX_stencil</text>
</g>
<!-- Node2 -->
<g id="node2" class="node"><title>Node2</title>
<g id="a_node2"><a xlink:href="namespacemappel.html#a8da88490d6ff7d5886b96b66c1bab369" target="_top" xlink:title="mappel::make_DX_stencil">
<polygon fill="white" stroke="black" points="146,-75.5 146,-93.5 270,-93.5 270,-75.5 146,-75.5"/>
<text text-anchor="middle" x="208" y="-82.3" font-family="Helvetica,sans-Serif" font-size="9.00">mappel::make_DX_stencil</text>
</a>
</g>
</g>
<!-- Node1&#45;&gt;Node2 -->
<g id="edge1" class="edge"><title>Node1&#45;&gt;Node2</title>
<path fill="none" stroke="midnightblue" d="M120.296,-84.5C128.768,-84.5 137.432,-84.5 145.849,-84.5"/>
<polygon fill="midnightblue" stroke="midnightblue" points="120.088,-81.0001 110.088,-84.5 120.088,-88.0001 120.088,-81.0001"/>
</g>
<!-- Node3 -->
<g id="node3" class="node"><title>Node3</title>
<g id="a_node3"><a xlink:href="classmappel_1_1Gauss1DModel_1_1Stencil.html#a4bc1fdd7b3c4df021ac4a519c4e659f8" target="_top" xlink:title="mappel::Gauss1DModel\l::Stencil::compute_derivatives">
<polygon fill="white" stroke="black" points="306,-141.5 306,-169.5 444,-169.5 444,-141.5 306,-141.5"/>
<text text-anchor="start" x="314" y="-158.3" font-family="Helvetica,sans-Serif" font-size="9.00">mappel::Gauss1DModel</text>
<text text-anchor="middle" x="375" y="-148.3" font-family="Helvetica,sans-Serif" font-size="9.00">::Stencil::compute_derivatives</text>
</a>
</g>
</g>
<!-- Node2&#45;&gt;Node3 -->
<g id="edge2" class="edge"><title>Node2&#45;&gt;Node3</title>
<path fill="none" stroke="midnightblue" d="M234.56,-98.3176C253.872,-108.469 281.202,-122.224 306,-132.5 313.484,-135.601 321.551,-138.61 329.423,-141.374"/>
<polygon fill="midnightblue" stroke="midnightblue" points="235.983,-95.1105 225.509,-93.5152 232.702,-101.294 235.983,-95.1105"/>
</g>
<!-- Node5 -->
<g id="node5" class="node"><title>Node5</title>
<g id="a_node5"><a xlink:href="classmappel_1_1Gauss1DsModel_1_1Stencil.html#a9e8b6059b84e28bea0ba3496bc95e7ce" target="_top" xlink:title="mappel::Gauss1DsModel\l::Stencil::compute_derivatives">
<polygon fill="white" stroke="black" points="306,-94.5 306,-122.5 444,-122.5 444,-94.5 306,-94.5"/>
<text text-anchor="start" x="314" y="-111.3" font-family="Helvetica,sans-Serif" font-size="9.00">mappel::Gauss1DsModel</text>
<text text-anchor="middle" x="375" y="-101.3" font-family="Helvetica,sans-Serif" font-size="9.00">::Stencil::compute_derivatives</text>
</a>
</g>
</g>
<!-- Node2&#45;&gt;Node5 -->
<g id="edge4" class="edge"><title>Node2&#45;&gt;Node5</title>
<path fill="none" stroke="midnightblue" d="M280.575,-94.9109C288.966,-96.1315 297.511,-97.3743 305.854,-98.5878"/>
<polygon fill="midnightblue" stroke="midnightblue" points="280.84,-91.4126 270.44,-93.4367 279.832,-98.3397 280.84,-91.4126"/>
</g>
<!-- Node7 -->
<g id="node7" class="node"><title>Node7</title>
<g id="a_node7"><a xlink:href="classmappel_1_1Gauss2DModel_1_1Stencil.html#aa454ad18859be0dcc48f5de8982c7ba7" target="_top" xlink:title="mappel::Gauss2DModel\l::Stencil::compute_derivatives">
<polygon fill="white" stroke="black" points="306,-47.5 306,-75.5 444,-75.5 444,-47.5 306,-47.5"/>
<text text-anchor="start" x="314" y="-64.3" font-family="Helvetica,sans-Serif" font-size="9.00">mappel::Gauss2DModel</text>
<text text-anchor="middle" x="375" y="-54.3" font-family="Helvetica,sans-Serif" font-size="9.00">::Stencil::compute_derivatives</text>
</a>
</g>
</g>
<!-- Node2&#45;&gt;Node7 -->
<g id="edge6" class="edge"><title>Node2&#45;&gt;Node7</title>
<path fill="none" stroke="midnightblue" d="M280.575,-74.5228C288.966,-73.3532 297.511,-72.1621 305.854,-70.9992"/>
<polygon fill="midnightblue" stroke="midnightblue" points="279.861,-71.0885 270.44,-75.9356 280.827,-78.0215 279.861,-71.0885"/>
</g>
<!-- Node9 -->
<g id="node9" class="node"><title>Node9</title>
<g id="a_node9"><a xlink:href="classmappel_1_1Gauss2DsModel_1_1Stencil.html#ab11c806f8335bbafeb3db7476526680d" target="_top" xlink:title="mappel::Gauss2DsModel\l::Stencil::compute_derivatives">
<polygon fill="white" stroke="black" points="306,-0.5 306,-28.5 444,-28.5 444,-0.5 306,-0.5"/>
<text text-anchor="start" x="314" y="-17.3" font-family="Helvetica,sans-Serif" font-size="9.00">mappel::Gauss2DsModel</text>
<text text-anchor="middle" x="375" y="-7.3" font-family="Helvetica,sans-Serif" font-size="9.00">::Stencil::compute_derivatives</text>
</a>
</g>
</g>
<!-- Node2&#45;&gt;Node9 -->
<g id="edge8" class="edge"><title>Node2&#45;&gt;Node9</title>
<path fill="none" stroke="midnightblue" d="M235.718,-70.9121C255.015,-61.3251 281.826,-48.4668 306,-38.5 314.333,-35.0642 323.358,-31.6626 332.026,-28.5478"/>
<polygon fill="midnightblue" stroke="midnightblue" points="234.005,-67.8553 226.63,-75.4614 237.139,-74.1149 234.005,-67.8553"/>
</g>
<!-- Node4 -->
<g id="node4" class="node"><title>Node4</title>
<g id="a_node4"><a xlink:href="classmappel_1_1Gauss1DModel_1_1Stencil.html#a6881e128436697dd57b41d20a1c8b56e" target="_top" xlink:title="mappel::Gauss1DModel\l::Stencil::Stencil">
<polygon fill="white" stroke="black" points="482,-141.5 482,-169.5 598,-169.5 598,-141.5 482,-141.5"/>
<text text-anchor="start" x="490" y="-158.3" font-family="Helvetica,sans-Serif" font-size="9.00">mappel::Gauss1DModel</text>
<text text-anchor="middle" x="540" y="-148.3" font-family="Helvetica,sans-Serif" font-size="9.00">::Stencil::Stencil</text>
</a>
</g>
</g>
<!-- Node3&#45;&gt;Node4 -->
<g id="edge3" class="edge"><title>Node3&#45;&gt;Node4</title>
<path fill="none" stroke="midnightblue" d="M454.262,-155.5C463.592,-155.5 472.979,-155.5 481.933,-155.5"/>
<polygon fill="midnightblue" stroke="midnightblue" points="454.182,-152 444.182,-155.5 454.182,-159 454.182,-152"/>
</g>
<!-- Node6 -->
<g id="node6" class="node"><title>Node6</title>
<g id="a_node6"><a xlink:href="classmappel_1_1Gauss1DsModel_1_1Stencil.html#ae4f12261a80d8ed1a2d3652c0e7b629b" target="_top" xlink:title="mappel::Gauss1DsModel\l::Stencil::Stencil">
<polygon fill="white" stroke="black" points="480,-94.5 480,-122.5 600,-122.5 600,-94.5 480,-94.5"/>
<text text-anchor="start" x="488" y="-111.3" font-family="Helvetica,sans-Serif" font-size="9.00">mappel::Gauss1DsModel</text>
<text text-anchor="middle" x="540" y="-101.3" font-family="Helvetica,sans-Serif" font-size="9.00">::Stencil::Stencil</text>
</a>
</g>
</g>
<!-- Node5&#45;&gt;Node6 -->
<g id="edge5" class="edge"><title>Node5&#45;&gt;Node6</title>
<path fill="none" stroke="midnightblue" d="M454.262,-108.5C462.886,-108.5 471.56,-108.5 479.894,-108.5"/>
<polygon fill="midnightblue" stroke="midnightblue" points="454.182,-105 444.182,-108.5 454.182,-112 454.182,-105"/>
</g>
<!-- Node8 -->
<g id="node8" class="node"><title>Node8</title>
<g id="a_node8"><a xlink:href="classmappel_1_1Gauss2DModel_1_1Stencil.html#a9e1f0ff585b5394d2d114a432b8c7d94" target="_top" xlink:title="mappel::Gauss2DModel\l::Stencil::Stencil">
<polygon fill="white" stroke="black" points="482,-47.5 482,-75.5 598,-75.5 598,-47.5 482,-47.5"/>
<text text-anchor="start" x="490" y="-64.3" font-family="Helvetica,sans-Serif" font-size="9.00">mappel::Gauss2DModel</text>
<text text-anchor="middle" x="540" y="-54.3" font-family="Helvetica,sans-Serif" font-size="9.00">::Stencil::Stencil</text>
</a>
</g>
</g>
<!-- Node7&#45;&gt;Node8 -->
<g id="edge7" class="edge"><title>Node7&#45;&gt;Node8</title>
<path fill="none" stroke="midnightblue" d="M454.262,-61.5C463.592,-61.5 472.979,-61.5 481.933,-61.5"/>
<polygon fill="midnightblue" stroke="midnightblue" points="454.182,-58.0001 444.182,-61.5 454.182,-65.0001 454.182,-58.0001"/>
</g>
<!-- Node10 -->
<g id="node10" class="node"><title>Node10</title>
<g id="a_node10"><a xlink:href="classmappel_1_1Gauss2DsModel_1_1Stencil.html#a924f5f8d4524831f1ef50041b85a842f" target="_top" xlink:title="mappel::Gauss2DsModel\l::Stencil::Stencil">
<polygon fill="white" stroke="black" points="480,-0.5 480,-28.5 600,-28.5 600,-0.5 480,-0.5"/>
<text text-anchor="start" x="488" y="-17.3" font-family="Helvetica,sans-Serif" font-size="9.00">mappel::Gauss2DsModel</text>
<text text-anchor="middle" x="540" y="-7.3" font-family="Helvetica,sans-Serif" font-size="9.00">::Stencil::Stencil</text>
</a>
</g>
</g>
<!-- Node9&#45;&gt;Node10 -->
<g id="edge9" class="edge"><title>Node9&#45;&gt;Node10</title>
<path fill="none" stroke="midnightblue" d="M454.262,-14.5C462.886,-14.5 471.56,-14.5 479.894,-14.5"/>
<polygon fill="midnightblue" stroke="midnightblue" points="454.182,-11.0001 444.182,-14.5 454.182,-18.0001 454.182,-11.0001"/>
</g>
</g>
</svg>
