<?xml version="1.0" encoding="UTF-8" standalone="no"?>
<!DOCTYPE svg PUBLIC "-//W3C//DTD SVG 1.1//EN"
 "http://www.w3.org/Graphics/SVG/1.1/DTD/svg11.dtd">
<!-- Generated by graphviz version 2.38.0 (20140413.2041)
 -->
<!-- Title: mappel::rllh_beta_prior Pages: 1 -->
<svg width="651pt" height="58pt"
 viewBox="0.00 0.00 651.00 58.00" xmlns="http://www.w3.org/2000/svg" xmlns:xlink="http://www.w3.org/1999/xlink">
<g id="graph0" class="graph" transform="scale(1 1) rotate(0) translate(4 54)">
<title>mappel::rllh_beta_prior</title>
<polygon fill="white" stroke="none" points="-4,4 -4,-54 647,-54 647,4 -4,4"/>
<!-- Node1 -->
<g id="node1" class="node"><title>Node1</title>
<polygon fill="#bfbfbf" stroke="black" points="0,-26.5 0,-44.5 112,-44.5 112,-26.5 0,-26.5"/>
<text text-anchor="middle" x="56" y="-33.3" font-family="Helvetica,sans-Serif" font-size="9.00">mappel::rllh_beta_prior</text>
</g>
<!-- Node2 -->
<g id="node2" class="node"><title>Node2</title>
<g id="a_node2"><a xlink:href="classmappel_1_1PriorMAP1DObjective.html#a08683df7a96febdeca35291129291b6d" target="_top" xlink:title="mappel::PriorMAP1DObjective\l::prior_relative_log_likelihood">
<polygon fill="white" stroke="black" points="148,-21.5 148,-49.5 289,-49.5 289,-21.5 148,-21.5"/>
<text text-anchor="start" x="156" y="-38.3" font-family="Helvetica,sans-Serif" font-size="9.00">mappel::PriorMAP1DObjective</text>
<text text-anchor="middle" x="218.5" y="-28.3" font-family="Helvetica,sans-Serif" font-size="9.00">::prior_relative_log_likelihood</text>
</a>
</g>
</g>
<!-- Node1&#45;&gt;Node2 -->
<g id="edge1" class="edge"><title>Node1&#45;&gt;Node2</title>
<path fill="none" stroke="midnightblue" d="M122.387,-35.5C130.823,-35.5 139.487,-35.5 147.987,-35.5"/>
<polygon fill="midnightblue" stroke="midnightblue" points="122.235,-32.0001 112.235,-35.5 122.235,-39.0001 122.235,-32.0001"/>
</g>
<!-- Node3 -->
<g id="node3" class="node"><title>Node3</title>
<g id="a_node3"><a xlink:href="classmappel_1_1PriorMAP1DObjective.html#ac5b20bb93fe2f2eddd75d19bf34283c7" target="_top" xlink:title="mappel::PriorMAP1DObjective\l::set_hyperparameters">
<polygon fill="white" stroke="black" points="502,-21.5 502,-49.5 643,-49.5 643,-21.5 502,-21.5"/>
<text text-anchor="start" x="510" y="-38.3" font-family="Helvetica,sans-Serif" font-size="9.00">mappel::PriorMAP1DObjective</text>
<text text-anchor="middle" x="572.5" y="-28.3" font-family="Helvetica,sans-Serif" font-size="9.00">::set_hyperparameters</text>
</a>
</g>
</g>
<!-- Node2&#45;&gt;Node3 -->
<g id="edge2" class="edge"><title>Node2&#45;&gt;Node3</title>
<path fill="none" stroke="midnightblue" d="M299.197,-38.0071C307.904,-38.2093 316.638,-38.3811 325,-38.5 387.66,-39.3907 403.34,-39.3907 466,-38.5 477.634,-38.3346 489.988,-38.0667 501.988,-37.7573"/>
<polygon fill="midnightblue" stroke="midnightblue" points="299.095,-34.5037 289.012,-37.7573 298.923,-41.5016 299.095,-34.5037"/>
</g>
<!-- Node4 -->
<g id="node4" class="node"><title>Node4</title>
<g id="a_node4"><a xlink:href="classmappel_1_1PriorMAP1DObjective.html#a3cb80b4c435d260e1a62ba666fbbb787" target="_top" xlink:title="mappel::PriorMAP1DObjective\l::prior_log_likelihood">
<polygon fill="white" stroke="black" points="325,-0.5 325,-28.5 466,-28.5 466,-0.5 325,-0.5"/>
<text text-anchor="start" x="333" y="-17.3" font-family="Helvetica,sans-Serif" font-size="9.00">mappel::PriorMAP1DObjective</text>
<text text-anchor="middle" x="395.5" y="-7.3" font-family="Helvetica,sans-Serif" font-size="9.00">::prior_log_likelihood</text>
</a>
</g>
</g>
<!-- Node2&#45;&gt;Node4 -->
<g id="edge3" class="edge"><title>Node2&#45;&gt;Node4</title>
<path fill="none" stroke="midnightblue" d="M299.146,-25.9425C307.702,-24.9158 316.359,-23.8769 324.786,-22.8656"/>
<polygon fill="midnightblue" stroke="midnightblue" points="298.679,-22.4733 289.167,-27.1399 299.513,-29.4234 298.679,-22.4733"/>
</g>
<!-- Node4&#45;&gt;Node3 -->
<g id="edge4" class="edge"><title>Node4&#45;&gt;Node3</title>
<path fill="none" stroke="midnightblue" d="M476.146,-24.0575C484.702,-25.0842 493.359,-26.1231 501.786,-27.1344"/>
<polygon fill="midnightblue" stroke="midnightblue" points="476.513,-20.5766 466.167,-22.8601 475.679,-27.5267 476.513,-20.5766"/>
</g>
</g>
</svg>
