<?xml version="1.0" encoding="UTF-8" standalone="no"?>
<!DOCTYPE svg PUBLIC "-//W3C//DTD SVG 1.1//EN"
 "http://www.w3.org/Graphics/SVG/1.1/DTD/svg11.dtd">
<!-- Generated by graphviz version 2.38.0 (20140413.2041)
 -->
<!-- Title: mappel::methods::make_estimator Pages: 1 -->
<svg width="594pt" height="223pt"
 viewBox="0.00 0.00 594.00 223.00" xmlns="http://www.w3.org/2000/svg" xmlns:xlink="http://www.w3.org/1999/xlink">
<g id="graph0" class="graph" transform="scale(1 1) rotate(0) translate(4 219)">
<title>mappel::methods::make_estimator</title>
<polygon fill="white" stroke="none" points="-4,4 -4,-219 590,-219 590,4 -4,4"/>
<!-- Node1 -->
<g id="node1" class="node"><title>Node1</title>
<polygon fill="#bfbfbf" stroke="black" points="0,-70.5 0,-98.5 114,-98.5 114,-70.5 0,-70.5"/>
<text text-anchor="start" x="8" y="-87.3" font-family="Helvetica,sans-Serif" font-size="9.00">mappel::methods::make</text>
<text text-anchor="middle" x="57" y="-77.3" font-family="Helvetica,sans-Serif" font-size="9.00">_estimator</text>
</g>
<!-- Node2 -->
<g id="node2" class="node"><title>Node2</title>
<g id="a_node2"><a xlink:href="namespacemappel_1_1methods.html#a7f4a5561497c243edaa6f55fddf0ec4e" target="_top" xlink:title="mappel::methods::estimate_max">
<polygon fill="white" stroke="black" points="150,-143.5 150,-161.5 299,-161.5 299,-143.5 150,-143.5"/>
<text text-anchor="middle" x="224.5" y="-150.3" font-family="Helvetica,sans-Serif" font-size="9.00">mappel::methods::estimate_max</text>
</a>
</g>
</g>
<!-- Node1&#45;&gt;Node2 -->
<g id="edge1" class="edge"><title>Node1&#45;&gt;Node2</title>
<path fill="none" stroke="midnightblue" d="M91.4327,-103.564C108.576,-112.824 130.006,-123.623 150,-131.5 161.606,-136.073 174.599,-140.119 186.395,-143.408"/>
<polygon fill="midnightblue" stroke="midnightblue" points="92.8377,-100.343 82.3862,-98.606 89.4734,-106.481 92.8377,-100.343"/>
</g>
<!-- Node7 -->
<g id="node7" class="node"><title>Node7</title>
<g id="a_node7"><a xlink:href="namespacemappel_1_1methods_1_1debug.html#a6a5604069f158badd94b0efadc3e0e7c" target="_top" xlink:title="mappel::methods::debug\l::estimate_max_debug">
<polygon fill="white" stroke="black" points="165.5,-94.5 165.5,-122.5 283.5,-122.5 283.5,-94.5 165.5,-94.5"/>
<text text-anchor="start" x="173.5" y="-111.3" font-family="Helvetica,sans-Serif" font-size="9.00">mappel::methods::debug</text>
<text text-anchor="middle" x="224.5" y="-101.3" font-family="Helvetica,sans-Serif" font-size="9.00">::estimate_max_debug</text>
</a>
</g>
</g>
<!-- Node1&#45;&gt;Node7 -->
<g id="edge6" class="edge"><title>Node1&#45;&gt;Node7</title>
<path fill="none" stroke="midnightblue" d="M124.259,-94.1086C137.825,-96.0759 152.008,-98.1326 165.267,-100.055"/>
<polygon fill="midnightblue" stroke="midnightblue" points="124.43,-90.5968 114.031,-92.6253 123.425,-97.5243 124.43,-90.5968"/>
</g>
<!-- Node8 -->
<g id="node8" class="node"><title>Node8</title>
<g id="a_node8"><a xlink:href="namespacemappel_1_1methods_1_1openmp.html#aaf30517efe932ae2e79b740658c1e63e" target="_top" xlink:title="mappel::methods::openmp\l::estimate_max_stack">
<polygon fill="white" stroke="black" points="162,-47.5 162,-75.5 287,-75.5 287,-47.5 162,-47.5"/>
<text text-anchor="start" x="170" y="-64.3" font-family="Helvetica,sans-Serif" font-size="9.00">mappel::methods::openmp</text>
<text text-anchor="middle" x="224.5" y="-54.3" font-family="Helvetica,sans-Serif" font-size="9.00">::estimate_max_stack</text>
</a>
</g>
</g>
<!-- Node1&#45;&gt;Node8 -->
<g id="edge7" class="edge"><title>Node1&#45;&gt;Node8</title>
<path fill="none" stroke="midnightblue" d="M124.296,-75.2867C136.69,-73.5642 149.597,-71.7704 161.844,-70.0684"/>
<polygon fill="midnightblue" stroke="midnightblue" points="123.454,-71.87 114.031,-76.7132 124.417,-78.8034 123.454,-71.87"/>
</g>
<!-- Node10 -->
<g id="node10" class="node"><title>Node10</title>
<g id="a_node10"><a xlink:href="namespacemappel_1_1methods_1_1openmp.html#a22579301b567235e0f8394de0e499347" target="_top" xlink:title="mappel::methods::openmp\l::estimate_profile_likelihood">
<polygon fill="white" stroke="black" points="159,-0.5 159,-28.5 290,-28.5 290,-0.5 159,-0.5"/>
<text text-anchor="start" x="167" y="-17.3" font-family="Helvetica,sans-Serif" font-size="9.00">mappel::methods::openmp</text>
<text text-anchor="middle" x="224.5" y="-7.3" font-family="Helvetica,sans-Serif" font-size="9.00">::estimate_profile_likelihood</text>
</a>
</g>
</g>
<!-- Node1&#45;&gt;Node10 -->
<g id="edge9" class="edge"><title>Node1&#45;&gt;Node10</title>
<path fill="none" stroke="midnightblue" d="M91.8808,-65.4527C108.984,-56.2885 130.246,-45.5688 150,-37.5 157.798,-34.3147 166.209,-31.3043 174.46,-28.5755"/>
<polygon fill="midnightblue" stroke="midnightblue" points="89.9629,-62.5112 82.843,-70.3572 93.3017,-68.6637 89.9629,-62.5112"/>
</g>
<!-- Node3 -->
<g id="node3" class="node"><title>Node3</title>
<g id="a_node3"><a xlink:href="classmappel_1_1Estimator.html#a4406c994d5b6239e75628ea5d479bfa2" target="_top" xlink:title="mappel::Estimator::\lestimate_max">
<polygon fill="white" stroke="black" points="347.5,-186.5 347.5,-214.5 442.5,-214.5 442.5,-186.5 347.5,-186.5"/>
<text text-anchor="start" x="355.5" y="-203.3" font-family="Helvetica,sans-Serif" font-size="9.00">mappel::Estimator::</text>
<text text-anchor="middle" x="395" y="-193.3" font-family="Helvetica,sans-Serif" font-size="9.00">estimate_max</text>
</a>
</g>
</g>
<!-- Node2&#45;&gt;Node3 -->
<g id="edge2" class="edge"><title>Node2&#45;&gt;Node3</title>
<path fill="none" stroke="midnightblue" d="M266.877,-164.287C291.285,-171.24 322.237,-180.057 347.488,-187.25"/>
<polygon fill="midnightblue" stroke="midnightblue" points="267.77,-160.902 257.194,-161.528 265.852,-167.634 267.77,-160.902"/>
</g>
<!-- Node5 -->
<g id="node5" class="node"><title>Node5</title>
<g id="a_node5"><a xlink:href="classmappel_1_1Gauss2DModel.html#a4bb4e53073e2c45b9a63b942214b787c" target="_top" xlink:title="mappel::Gauss2DModel\l::initial_theta_estimate">
<polygon fill="white" stroke="black" points="337,-139.5 337,-167.5 453,-167.5 453,-139.5 337,-139.5"/>
<text text-anchor="start" x="345" y="-156.3" font-family="Helvetica,sans-Serif" font-size="9.00">mappel::Gauss2DModel</text>
<text text-anchor="middle" x="395" y="-146.3" font-family="Helvetica,sans-Serif" font-size="9.00">::initial_theta_estimate</text>
</a>
</g>
</g>
<!-- Node2&#45;&gt;Node5 -->
<g id="edge4" class="edge"><title>Node2&#45;&gt;Node5</title>
<path fill="none" stroke="midnightblue" d="M309.457,-152.998C318.741,-153.053 328.029,-153.108 336.871,-153.161"/>
<polygon fill="midnightblue" stroke="midnightblue" points="309.427,-149.498 299.407,-152.939 309.386,-156.498 309.427,-149.498"/>
</g>
<!-- Node6 -->
<g id="node6" class="node"><title>Node6</title>
<g id="a_node6"><a xlink:href="classmappel_1_1Gauss2DsModel.html#a70e079fd6b31bc6af5b7c10d2a0d8fb5" target="_top" xlink:title="mappel::Gauss2DsModel\l::initial_theta_estimate">
<polygon fill="white" stroke="black" points="335,-92.5 335,-120.5 455,-120.5 455,-92.5 335,-92.5"/>
<text text-anchor="start" x="343" y="-109.3" font-family="Helvetica,sans-Serif" font-size="9.00">mappel::Gauss2DsModel</text>
<text text-anchor="middle" x="395" y="-99.3" font-family="Helvetica,sans-Serif" font-size="9.00">::initial_theta_estimate</text>
</a>
</g>
</g>
<!-- Node2&#45;&gt;Node6 -->
<g id="edge5" class="edge"><title>Node2&#45;&gt;Node6</title>
<path fill="none" stroke="midnightblue" d="M268.735,-140.697C291.244,-134.552 318.92,-126.997 342.527,-120.552"/>
<polygon fill="midnightblue" stroke="midnightblue" points="267.515,-137.402 258.79,-143.412 269.359,-144.155 267.515,-137.402"/>
</g>
<!-- Node4 -->
<g id="node4" class="node"><title>Node4</title>
<g id="a_node4"><a xlink:href="classmappel_1_1Estimator.html#a629823fa91d4b461b2b1f607d588e558" target="_top" xlink:title="mappel::Estimator::\l~Estimator">
<polygon fill="white" stroke="black" points="491,-186.5 491,-214.5 586,-214.5 586,-186.5 491,-186.5"/>
<text text-anchor="start" x="499" y="-203.3" font-family="Helvetica,sans-Serif" font-size="9.00">mappel::Estimator::</text>
<text text-anchor="middle" x="538.5" y="-193.3" font-family="Helvetica,sans-Serif" font-size="9.00">~Estimator</text>
</a>
</g>
</g>
<!-- Node3&#45;&gt;Node4 -->
<g id="edge3" class="edge"><title>Node3&#45;&gt;Node4</title>
<path fill="none" stroke="midnightblue" d="M453.08,-200.5C465.619,-200.5 478.752,-200.5 490.825,-200.5"/>
<polygon fill="midnightblue" stroke="midnightblue" points="452.725,-197 442.725,-200.5 452.725,-204 452.725,-197"/>
</g>
<!-- Node9 -->
<g id="node9" class="node"><title>Node9</title>
<g id="a_node9"><a xlink:href="classmappel_1_1Estimator.html#aa1b1c2677df2c6ea9fcf67b6a0856e46" target="_top" xlink:title="mappel::Estimator::\lestimate_max_stack">
<polygon fill="white" stroke="black" points="345,-45.5 345,-73.5 445,-73.5 445,-45.5 345,-45.5"/>
<text text-anchor="start" x="353" y="-62.3" font-family="Helvetica,sans-Serif" font-size="9.00">mappel::Estimator::</text>
<text text-anchor="middle" x="395" y="-52.3" font-family="Helvetica,sans-Serif" font-size="9.00">estimate_max_stack</text>
</a>
</g>
</g>
<!-- Node8&#45;&gt;Node9 -->
<g id="edge8" class="edge"><title>Node8&#45;&gt;Node9</title>
<path fill="none" stroke="midnightblue" d="M297.648,-60.6436C313.583,-60.4545 330.107,-60.2584 344.877,-60.0831"/>
<polygon fill="midnightblue" stroke="midnightblue" points="297.244,-57.1481 287.286,-60.7666 297.327,-64.1476 297.244,-57.1481"/>
</g>
</g>
</svg>
