<?xml version="1.0" encoding="UTF-8" standalone="no"?>
<!DOCTYPE svg PUBLIC "-//W3C//DTD SVG 1.1//EN"
 "http://www.w3.org/Graphics/SVG/1.1/DTD/svg11.dtd">
<!-- Generated by graphviz version 2.38.0 (20140413.2041)
 -->
<!-- Title: mappel::gamma_prior_grad Pages: 1 -->
<svg width="493pt" height="37pt"
 viewBox="0.00 0.00 493.00 37.00" xmlns="http://www.w3.org/2000/svg" xmlns:xlink="http://www.w3.org/1999/xlink">
<g id="graph0" class="graph" transform="scale(1 1) rotate(0) translate(4 33)">
<title>mappel::gamma_prior_grad</title>
<polygon fill="white" stroke="none" points="-4,4 -4,-33 489,-33 489,4 -4,4"/>
<!-- Node1 -->
<g id="node1" class="node"><title>Node1</title>
<polygon fill="#bfbfbf" stroke="black" points="0,-5.5 0,-23.5 131,-23.5 131,-5.5 0,-5.5"/>
<text text-anchor="middle" x="65.5" y="-12.3" font-family="Helvetica,sans-Serif" font-size="9.00">mappel::gamma_prior_grad</text>
</g>
<!-- Node2 -->
<g id="node2" class="node"><title>Node2</title>
<g id="a_node2"><a xlink:href="classmappel_1_1PriorMAP1DObjective.html#ae12cf228193e345f3382bc916e3c60ee" target="_top" xlink:title="mappel::PriorMAP1DObjective\l::prior_grad_update">
<polygon fill="white" stroke="black" points="167,-0.5 167,-28.5 308,-28.5 308,-0.5 167,-0.5"/>
<text text-anchor="start" x="175" y="-17.3" font-family="Helvetica,sans-Serif" font-size="9.00">mappel::PriorMAP1DObjective</text>
<text text-anchor="middle" x="237.5" y="-7.3" font-family="Helvetica,sans-Serif" font-size="9.00">::prior_grad_update</text>
</a>
</g>
</g>
<!-- Node1&#45;&gt;Node2 -->
<g id="edge1" class="edge"><title>Node1&#45;&gt;Node2</title>
<path fill="none" stroke="midnightblue" d="M141.456,-14.5C149.893,-14.5 158.464,-14.5 166.829,-14.5"/>
<polygon fill="midnightblue" stroke="midnightblue" points="141.255,-11.0001 131.255,-14.5 141.255,-18.0001 141.255,-11.0001"/>
</g>
<!-- Node3 -->
<g id="node3" class="node"><title>Node3</title>
<g id="a_node3"><a xlink:href="classmappel_1_1PriorMAP1DObjective.html#ac5b20bb93fe2f2eddd75d19bf34283c7" target="_top" xlink:title="mappel::PriorMAP1DObjective\l::set_hyperparameters">
<polygon fill="white" stroke="black" points="344,-0.5 344,-28.5 485,-28.5 485,-0.5 344,-0.5"/>
<text text-anchor="start" x="352" y="-17.3" font-family="Helvetica,sans-Serif" font-size="9.00">mappel::PriorMAP1DObjective</text>
<text text-anchor="middle" x="414.5" y="-7.3" font-family="Helvetica,sans-Serif" font-size="9.00">::set_hyperparameters</text>
</a>
</g>
</g>
<!-- Node2&#45;&gt;Node3 -->
<g id="edge2" class="edge"><title>Node2&#45;&gt;Node3</title>
<path fill="none" stroke="midnightblue" d="M318.425,-14.5C326.89,-14.5 335.451,-14.5 343.786,-14.5"/>
<polygon fill="midnightblue" stroke="midnightblue" points="318.168,-11.0001 308.167,-14.5 318.167,-18.0001 318.168,-11.0001"/>
</g>
</g>
</svg>
