<?xml version="1.0" encoding="UTF-8" standalone="no"?>
<!DOCTYPE svg PUBLIC "-//W3C//DTD SVG 1.1//EN"
 "http://www.w3.org/Graphics/SVG/1.1/DTD/svg11.dtd">
<!-- Generated by graphviz version 2.38.0 (20140413.2041)
 -->
<!-- Title: mappel::make_DX_stencil Pages: 1 -->
<svg width="462pt" height="178pt"
 viewBox="0.00 0.00 462.00 178.00" xmlns="http://www.w3.org/2000/svg" xmlns:xlink="http://www.w3.org/1999/xlink">
<g id="graph0" class="graph" transform="scale(1 1) rotate(0) translate(4 174)">
<title>mappel::make_DX_stencil</title>
<polygon fill="white" stroke="none" points="-4,4 -4,-174 458,-174 458,4 -4,4"/>
<!-- Node1 -->
<g id="node1" class="node"><title>Node1</title>
<polygon fill="#bfbfbf" stroke="black" points="0,-75.5 0,-93.5 124,-93.5 124,-75.5 0,-75.5"/>
<text text-anchor="middle" x="62" y="-82.3" font-family="Helvetica,sans-Serif" font-size="9.00">mappel::make_DX_stencil</text>
</g>
<!-- Node2 -->
<g id="node2" class="node"><title>Node2</title>
<g id="a_node2"><a xlink:href="classmappel_1_1Gauss1DsModel_1_1Stencil.html#a9e8b6059b84e28bea0ba3496bc95e7ce" target="_top" xlink:title="mappel::Gauss1DsModel\l::Stencil::compute_derivatives">
<polygon fill="white" stroke="black" points="160,-141.5 160,-169.5 298,-169.5 298,-141.5 160,-141.5"/>
<text text-anchor="start" x="168" y="-158.3" font-family="Helvetica,sans-Serif" font-size="9.00">mappel::Gauss1DsModel</text>
<text text-anchor="middle" x="229" y="-148.3" font-family="Helvetica,sans-Serif" font-size="9.00">::Stencil::compute_derivatives</text>
</a>
</g>
</g>
<!-- Node1&#45;&gt;Node2 -->
<g id="edge1" class="edge"><title>Node1&#45;&gt;Node2</title>
<path fill="none" stroke="midnightblue" d="M88.5601,-98.3176C107.872,-108.469 135.202,-122.224 160,-132.5 167.484,-135.601 175.551,-138.61 183.423,-141.374"/>
<polygon fill="midnightblue" stroke="midnightblue" points="89.9831,-95.1105 79.509,-93.5152 86.7022,-101.294 89.9831,-95.1105"/>
</g>
<!-- Node4 -->
<g id="node4" class="node"><title>Node4</title>
<g id="a_node4"><a xlink:href="classmappel_1_1Gauss2DModel_1_1Stencil.html#aa454ad18859be0dcc48f5de8982c7ba7" target="_top" xlink:title="mappel::Gauss2DModel\l::Stencil::compute_derivatives">
<polygon fill="white" stroke="black" points="160,-94.5 160,-122.5 298,-122.5 298,-94.5 160,-94.5"/>
<text text-anchor="start" x="168" y="-111.3" font-family="Helvetica,sans-Serif" font-size="9.00">mappel::Gauss2DModel</text>
<text text-anchor="middle" x="229" y="-101.3" font-family="Helvetica,sans-Serif" font-size="9.00">::Stencil::compute_derivatives</text>
</a>
</g>
</g>
<!-- Node1&#45;&gt;Node4 -->
<g id="edge3" class="edge"><title>Node1&#45;&gt;Node4</title>
<path fill="none" stroke="midnightblue" d="M134.575,-94.9109C142.966,-96.1315 151.511,-97.3743 159.854,-98.5878"/>
<polygon fill="midnightblue" stroke="midnightblue" points="134.84,-91.4126 124.44,-93.4367 133.832,-98.3397 134.84,-91.4126"/>
</g>
<!-- Node6 -->
<g id="node6" class="node"><title>Node6</title>
<g id="a_node6"><a xlink:href="classmappel_1_1Gauss1DModel_1_1Stencil.html#a4bc1fdd7b3c4df021ac4a519c4e659f8" target="_top" xlink:title="mappel::Gauss1DModel\l::Stencil::compute_derivatives">
<polygon fill="white" stroke="black" points="160,-47.5 160,-75.5 298,-75.5 298,-47.5 160,-47.5"/>
<text text-anchor="start" x="168" y="-64.3" font-family="Helvetica,sans-Serif" font-size="9.00">mappel::Gauss1DModel</text>
<text text-anchor="middle" x="229" y="-54.3" font-family="Helvetica,sans-Serif" font-size="9.00">::Stencil::compute_derivatives</text>
</a>
</g>
</g>
<!-- Node1&#45;&gt;Node6 -->
<g id="edge5" class="edge"><title>Node1&#45;&gt;Node6</title>
<path fill="none" stroke="midnightblue" d="M134.575,-74.5228C142.966,-73.3532 151.511,-72.1621 159.854,-70.9992"/>
<polygon fill="midnightblue" stroke="midnightblue" points="133.861,-71.0885 124.44,-75.9356 134.827,-78.0215 133.861,-71.0885"/>
</g>
<!-- Node8 -->
<g id="node8" class="node"><title>Node8</title>
<g id="a_node8"><a xlink:href="classmappel_1_1Gauss2DsModel_1_1Stencil.html#ab11c806f8335bbafeb3db7476526680d" target="_top" xlink:title="mappel::Gauss2DsModel\l::Stencil::compute_derivatives">
<polygon fill="white" stroke="black" points="160,-0.5 160,-28.5 298,-28.5 298,-0.5 160,-0.5"/>
<text text-anchor="start" x="168" y="-17.3" font-family="Helvetica,sans-Serif" font-size="9.00">mappel::Gauss2DsModel</text>
<text text-anchor="middle" x="229" y="-7.3" font-family="Helvetica,sans-Serif" font-size="9.00">::Stencil::compute_derivatives</text>
</a>
</g>
</g>
<!-- Node1&#45;&gt;Node8 -->
<g id="edge7" class="edge"><title>Node1&#45;&gt;Node8</title>
<path fill="none" stroke="midnightblue" d="M89.7179,-70.9121C109.015,-61.3251 135.826,-48.4668 160,-38.5 168.333,-35.0642 177.358,-31.6626 186.026,-28.5478"/>
<polygon fill="midnightblue" stroke="midnightblue" points="88.0052,-67.8553 80.6297,-75.4614 91.1386,-74.1149 88.0052,-67.8553"/>
</g>
<!-- Node3 -->
<g id="node3" class="node"><title>Node3</title>
<g id="a_node3"><a xlink:href="classmappel_1_1Gauss1DsModel_1_1Stencil.html#ae4f12261a80d8ed1a2d3652c0e7b629b" target="_top" xlink:title="mappel::Gauss1DsModel\l::Stencil::Stencil">
<polygon fill="white" stroke="black" points="334,-141.5 334,-169.5 454,-169.5 454,-141.5 334,-141.5"/>
<text text-anchor="start" x="342" y="-158.3" font-family="Helvetica,sans-Serif" font-size="9.00">mappel::Gauss1DsModel</text>
<text text-anchor="middle" x="394" y="-148.3" font-family="Helvetica,sans-Serif" font-size="9.00">::Stencil::Stencil</text>
</a>
</g>
</g>
<!-- Node2&#45;&gt;Node3 -->
<g id="edge2" class="edge"><title>Node2&#45;&gt;Node3</title>
<path fill="none" stroke="midnightblue" d="M308.262,-155.5C316.886,-155.5 325.56,-155.5 333.894,-155.5"/>
<polygon fill="midnightblue" stroke="midnightblue" points="308.182,-152 298.182,-155.5 308.182,-159 308.182,-152"/>
</g>
<!-- Node5 -->
<g id="node5" class="node"><title>Node5</title>
<g id="a_node5"><a xlink:href="classmappel_1_1Gauss2DModel_1_1Stencil.html#a9e1f0ff585b5394d2d114a432b8c7d94" target="_top" xlink:title="mappel::Gauss2DModel\l::Stencil::Stencil">
<polygon fill="white" stroke="black" points="336,-94.5 336,-122.5 452,-122.5 452,-94.5 336,-94.5"/>
<text text-anchor="start" x="344" y="-111.3" font-family="Helvetica,sans-Serif" font-size="9.00">mappel::Gauss2DModel</text>
<text text-anchor="middle" x="394" y="-101.3" font-family="Helvetica,sans-Serif" font-size="9.00">::Stencil::Stencil</text>
</a>
</g>
</g>
<!-- Node4&#45;&gt;Node5 -->
<g id="edge4" class="edge"><title>Node4&#45;&gt;Node5</title>
<path fill="none" stroke="midnightblue" d="M308.262,-108.5C317.592,-108.5 326.979,-108.5 335.933,-108.5"/>
<polygon fill="midnightblue" stroke="midnightblue" points="308.182,-105 298.182,-108.5 308.182,-112 308.182,-105"/>
</g>
<!-- Node7 -->
<g id="node7" class="node"><title>Node7</title>
<g id="a_node7"><a xlink:href="classmappel_1_1Gauss1DModel_1_1Stencil.html#a6881e128436697dd57b41d20a1c8b56e" target="_top" xlink:title="mappel::Gauss1DModel\l::Stencil::Stencil">
<polygon fill="white" stroke="black" points="336,-47.5 336,-75.5 452,-75.5 452,-47.5 336,-47.5"/>
<text text-anchor="start" x="344" y="-64.3" font-family="Helvetica,sans-Serif" font-size="9.00">mappel::Gauss1DModel</text>
<text text-anchor="middle" x="394" y="-54.3" font-family="Helvetica,sans-Serif" font-size="9.00">::Stencil::Stencil</text>
</a>
</g>
</g>
<!-- Node6&#45;&gt;Node7 -->
<g id="edge6" class="edge"><title>Node6&#45;&gt;Node7</title>
<path fill="none" stroke="midnightblue" d="M308.262,-61.5C317.592,-61.5 326.979,-61.5 335.933,-61.5"/>
<polygon fill="midnightblue" stroke="midnightblue" points="308.182,-58.0001 298.182,-61.5 308.182,-65.0001 308.182,-58.0001"/>
</g>
<!-- Node9 -->
<g id="node9" class="node"><title>Node9</title>
<g id="a_node9"><a xlink:href="classmappel_1_1Gauss2DsModel_1_1Stencil.html#a924f5f8d4524831f1ef50041b85a842f" target="_top" xlink:title="mappel::Gauss2DsModel\l::Stencil::Stencil">
<polygon fill="white" stroke="black" points="334,-0.5 334,-28.5 454,-28.5 454,-0.5 334,-0.5"/>
<text text-anchor="start" x="342" y="-17.3" font-family="Helvetica,sans-Serif" font-size="9.00">mappel::Gauss2DsModel</text>
<text text-anchor="middle" x="394" y="-7.3" font-family="Helvetica,sans-Serif" font-size="9.00">::Stencil::Stencil</text>
</a>
</g>
</g>
<!-- Node8&#45;&gt;Node9 -->
<g id="edge8" class="edge"><title>Node8&#45;&gt;Node9</title>
<path fill="none" stroke="midnightblue" d="M308.262,-14.5C316.886,-14.5 325.56,-14.5 333.894,-14.5"/>
<polygon fill="midnightblue" stroke="midnightblue" points="308.182,-11.0001 298.182,-14.5 308.182,-18.0001 308.182,-11.0001"/>
</g>
</g>
</svg>
