<?xml version="1.0" encoding="UTF-8" standalone="no"?>
<!DOCTYPE svg PUBLIC "-//W3C//DTD SVG 1.1//EN"
 "http://www.w3.org/Graphics/SVG/1.1/DTD/svg11.dtd">
<!-- Generated by graphviz version 2.38.0 (20140413.2041)
 -->
<!-- Title: mappel::fill_DXSX_stencil Pages: 1 -->
<svg width="632pt" height="84pt"
 viewBox="0.00 0.00 632.00 84.00" xmlns="http://www.w3.org/2000/svg" xmlns:xlink="http://www.w3.org/1999/xlink">
<g id="graph0" class="graph" transform="scale(1 1) rotate(0) translate(4 80)">
<title>mappel::fill_DXSX_stencil</title>
<polygon fill="white" stroke="none" points="-4,4 -4,-80 628,-80 628,4 -4,4"/>
<!-- Node1 -->
<g id="node1" class="node"><title>Node1</title>
<polygon fill="#bfbfbf" stroke="black" points="0,-28.5 0,-46.5 122,-46.5 122,-28.5 0,-28.5"/>
<text text-anchor="middle" x="61" y="-35.3" font-family="Helvetica,sans-Serif" font-size="9.00">mappel::fill_DXSX_stencil</text>
</g>
<!-- Node2 -->
<g id="node2" class="node"><title>Node2</title>
<g id="a_node2"><a xlink:href="namespacemappel.html#abccec04f04b0b10940779c9bbae0e570" target="_top" xlink:title="mappel::make_DXSX_stencil">
<polygon fill="white" stroke="black" points="158,-28.5 158,-46.5 294,-46.5 294,-28.5 158,-28.5"/>
<text text-anchor="middle" x="226" y="-35.3" font-family="Helvetica,sans-Serif" font-size="9.00">mappel::make_DXSX_stencil</text>
</a>
</g>
</g>
<!-- Node1&#45;&gt;Node2 -->
<g id="edge1" class="edge"><title>Node1&#45;&gt;Node2</title>
<path fill="none" stroke="midnightblue" d="M132.429,-37.5C140.874,-37.5 149.481,-37.5 157.878,-37.5"/>
<polygon fill="midnightblue" stroke="midnightblue" points="132.232,-34.0001 122.232,-37.5 132.232,-41.0001 132.232,-34.0001"/>
</g>
<!-- Node3 -->
<g id="node3" class="node"><title>Node3</title>
<g id="a_node3"><a xlink:href="classmappel_1_1Gauss1DsModel_1_1Stencil.html#a9e8b6059b84e28bea0ba3496bc95e7ce" target="_top" xlink:title="mappel::Gauss1DsModel\l::Stencil::compute_derivatives">
<polygon fill="white" stroke="black" points="330,-47.5 330,-75.5 468,-75.5 468,-47.5 330,-47.5"/>
<text text-anchor="start" x="338" y="-64.3" font-family="Helvetica,sans-Serif" font-size="9.00">mappel::Gauss1DsModel</text>
<text text-anchor="middle" x="399" y="-54.3" font-family="Helvetica,sans-Serif" font-size="9.00">::Stencil::compute_derivatives</text>
</a>
</g>
</g>
<!-- Node2&#45;&gt;Node3 -->
<g id="edge2" class="edge"><title>Node2&#45;&gt;Node3</title>
<path fill="none" stroke="midnightblue" d="M301.322,-47.9312C310.775,-49.2578 320.412,-50.6105 329.763,-51.9228"/>
<polygon fill="midnightblue" stroke="midnightblue" points="301.55,-44.4289 291.161,-46.505 300.577,-51.361 301.55,-44.4289"/>
</g>
<!-- Node5 -->
<g id="node5" class="node"><title>Node5</title>
<g id="a_node5"><a xlink:href="classmappel_1_1Gauss2DsModel_1_1Stencil.html#ab11c806f8335bbafeb3db7476526680d" target="_top" xlink:title="mappel::Gauss2DsModel\l::Stencil::compute_derivatives">
<polygon fill="white" stroke="black" points="330,-0.5 330,-28.5 468,-28.5 468,-0.5 330,-0.5"/>
<text text-anchor="start" x="338" y="-17.3" font-family="Helvetica,sans-Serif" font-size="9.00">mappel::Gauss2DsModel</text>
<text text-anchor="middle" x="399" y="-7.3" font-family="Helvetica,sans-Serif" font-size="9.00">::Stencil::compute_derivatives</text>
</a>
</g>
</g>
<!-- Node2&#45;&gt;Node5 -->
<g id="edge4" class="edge"><title>Node2&#45;&gt;Node5</title>
<path fill="none" stroke="midnightblue" d="M304.135,-27.1251C312.753,-25.966 321.485,-24.7915 329.977,-23.6493"/>
<polygon fill="midnightblue" stroke="midnightblue" points="303.537,-23.6739 294.093,-28.4758 304.47,-30.6115 303.537,-23.6739"/>
</g>
<!-- Node4 -->
<g id="node4" class="node"><title>Node4</title>
<g id="a_node4"><a xlink:href="classmappel_1_1Gauss1DsModel_1_1Stencil.html#ae4f12261a80d8ed1a2d3652c0e7b629b" target="_top" xlink:title="mappel::Gauss1DsModel\l::Stencil::Stencil">
<polygon fill="white" stroke="black" points="504,-47.5 504,-75.5 624,-75.5 624,-47.5 504,-47.5"/>
<text text-anchor="start" x="512" y="-64.3" font-family="Helvetica,sans-Serif" font-size="9.00">mappel::Gauss1DsModel</text>
<text text-anchor="middle" x="564" y="-54.3" font-family="Helvetica,sans-Serif" font-size="9.00">::Stencil::Stencil</text>
</a>
</g>
</g>
<!-- Node3&#45;&gt;Node4 -->
<g id="edge3" class="edge"><title>Node3&#45;&gt;Node4</title>
<path fill="none" stroke="midnightblue" d="M478.262,-61.5C486.886,-61.5 495.56,-61.5 503.894,-61.5"/>
<polygon fill="midnightblue" stroke="midnightblue" points="478.182,-58.0001 468.182,-61.5 478.182,-65.0001 478.182,-58.0001"/>
</g>
<!-- Node6 -->
<g id="node6" class="node"><title>Node6</title>
<g id="a_node6"><a xlink:href="classmappel_1_1Gauss2DsModel_1_1Stencil.html#a924f5f8d4524831f1ef50041b85a842f" target="_top" xlink:title="mappel::Gauss2DsModel\l::Stencil::Stencil">
<polygon fill="white" stroke="black" points="504,-0.5 504,-28.5 624,-28.5 624,-0.5 504,-0.5"/>
<text text-anchor="start" x="512" y="-17.3" font-family="Helvetica,sans-Serif" font-size="9.00">mappel::Gauss2DsModel</text>
<text text-anchor="middle" x="564" y="-7.3" font-family="Helvetica,sans-Serif" font-size="9.00">::Stencil::Stencil</text>
</a>
</g>
</g>
<!-- Node5&#45;&gt;Node6 -->
<g id="edge5" class="edge"><title>Node5&#45;&gt;Node6</title>
<path fill="none" stroke="midnightblue" d="M478.262,-14.5C486.886,-14.5 495.56,-14.5 503.894,-14.5"/>
<polygon fill="midnightblue" stroke="midnightblue" points="478.182,-11.0001 468.182,-14.5 478.182,-18.0001 478.182,-11.0001"/>
</g>
</g>
</svg>
