<?xml version="1.0" encoding="UTF-8" standalone="no"?>
<!DOCTYPE svg PUBLIC "-//W3C//DTD SVG 1.1//EN"
 "http://www.w3.org/Graphics/SVG/1.1/DTD/svg11.dtd">
<!-- Generated by graphviz version 2.38.0 (20140413.2041)
 -->
<!-- Title: mappel::methods::objective::negative_definite_hessian Pages: 1 -->
<svg width="302pt" height="84pt"
 viewBox="0.00 0.00 302.00 84.00" xmlns="http://www.w3.org/2000/svg" xmlns:xlink="http://www.w3.org/1999/xlink">
<g id="graph0" class="graph" transform="scale(1 1) rotate(0) translate(4 80)">
<title>mappel::methods::objective::negative_definite_hessian</title>
<polygon fill="white" stroke="none" points="-4,4 -4,-80 298,-80 298,4 -4,4"/>
<!-- Node1 -->
<g id="node1" class="node"><title>Node1</title>
<polygon fill="#bfbfbf" stroke="black" points="0,-23.5 0,-51.5 129,-51.5 129,-23.5 0,-23.5"/>
<text text-anchor="start" x="8" y="-40.3" font-family="Helvetica,sans-Serif" font-size="9.00">mappel::methods::objective</text>
<text text-anchor="middle" x="64.5" y="-30.3" font-family="Helvetica,sans-Serif" font-size="9.00">::negative_definite_hessian</text>
</g>
<!-- Node2 -->
<g id="node2" class="node"><title>Node2</title>
<g id="a_node2"><a xlink:href="namespacemappel_1_1methods_1_1objective.html#a8e120e5a79029803453cea5f9f2d8f67" target="_top" xlink:title="mappel::methods::objective\l::grad">
<polygon fill="white" stroke="black" points="165.5,-47.5 165.5,-75.5 293.5,-75.5 293.5,-47.5 165.5,-47.5"/>
<text text-anchor="start" x="173.5" y="-64.3" font-family="Helvetica,sans-Serif" font-size="9.00">mappel::methods::objective</text>
<text text-anchor="middle" x="229.5" y="-54.3" font-family="Helvetica,sans-Serif" font-size="9.00">::grad</text>
</a>
</g>
</g>
<!-- Node1&#45;&gt;Node2 -->
<g id="edge1" class="edge"><title>Node1&#45;&gt;Node2</title>
<path fill="none" stroke="midnightblue" d="M129.454,-46.9166C137.916,-48.1625 146.643,-49.4474 155.246,-50.7141"/>
<polygon fill="midnightblue" stroke="midnightblue" points="154.862,-54.1952 165.265,-52.1893 155.881,-47.2699 154.862,-54.1952"/>
</g>
<!-- Node3 -->
<g id="node3" class="node"><title>Node3</title>
<g id="a_node3"><a xlink:href="namespacemappel_1_1methods_1_1objective.html#a1ea67c58d320c1634d8c69f834359029" target="_top" xlink:title="mappel::methods::objective\l::negative_definite_hessian">
<polygon fill="white" stroke="black" points="165,-0.5 165,-28.5 294,-28.5 294,-0.5 165,-0.5"/>
<text text-anchor="start" x="173" y="-17.3" font-family="Helvetica,sans-Serif" font-size="9.00">mappel::methods::objective</text>
<text text-anchor="middle" x="229.5" y="-7.3" font-family="Helvetica,sans-Serif" font-size="9.00">::negative_definite_hessian</text>
</a>
</g>
</g>
<!-- Node1&#45;&gt;Node3 -->
<g id="edge2" class="edge"><title>Node1&#45;&gt;Node3</title>
<path fill="none" stroke="midnightblue" d="M129.454,-28.4758C137.852,-27.2908 146.511,-26.0691 155.05,-24.8641"/>
<polygon fill="midnightblue" stroke="midnightblue" points="155.585,-28.3234 164.998,-23.4604 154.607,-21.3921 155.585,-28.3234"/>
</g>
</g>
</svg>
