<?xml version="1.0" encoding="UTF-8" standalone="no"?>
<!DOCTYPE svg PUBLIC "-//W3C//DTD SVG 1.1//EN"
 "http://www.w3.org/Graphics/SVG/1.1/DTD/svg11.dtd">
<!-- Generated by graphviz version 2.38.0 (20140413.2041)
 -->
<!-- Title: mappel::methods::estimate_mcmc_sample Pages: 1 -->
<svg width="486pt" height="121pt"
 viewBox="0.00 0.00 486.00 121.00" xmlns="http://www.w3.org/2000/svg" xmlns:xlink="http://www.w3.org/1999/xlink">
<g id="graph0" class="graph" transform="scale(1 1) rotate(0) translate(4 117)">
<title>mappel::methods::estimate_mcmc_sample</title>
<polygon fill="white" stroke="none" points="-4,4 -4,-117 482,-117 482,4 -4,4"/>
<!-- Node1 -->
<g id="node1" class="node"><title>Node1</title>
<polygon fill="#bfbfbf" stroke="black" points="0,-47.5 0,-75.5 126,-75.5 126,-47.5 0,-47.5"/>
<text text-anchor="start" x="8" y="-64.3" font-family="Helvetica,sans-Serif" font-size="9.00">mappel::methods::estimate</text>
<text text-anchor="middle" x="63" y="-54.3" font-family="Helvetica,sans-Serif" font-size="9.00">_mcmc_sample</text>
</g>
<!-- Node2 -->
<g id="node2" class="node"><title>Node2</title>
<g id="a_node2"><a xlink:href="namespacemappel_1_1mcmc.html#a29219ed7564edad6489889dc2ec2a0d6" target="_top" xlink:title="mappel::mcmc::num_oversample">
<polygon fill="white" stroke="black" points="162,-94.5 162,-112.5 314,-112.5 314,-94.5 162,-94.5"/>
<text text-anchor="middle" x="238" y="-101.3" font-family="Helvetica,sans-Serif" font-size="9.00">mappel::mcmc::num_oversample</text>
</a>
</g>
</g>
<!-- Node1&#45;&gt;Node2 -->
<g id="edge1" class="edge"><title>Node1&#45;&gt;Node2</title>
<path fill="none" stroke="midnightblue" d="M120.992,-75.5044C134.437,-78.7951 148.722,-82.2807 162,-85.5 170.793,-87.6319 180.17,-89.8924 189.209,-92.0651"/>
<polygon fill="midnightblue" stroke="midnightblue" points="188.681,-95.5378 199.222,-94.4693 190.316,-88.7313 188.681,-95.5378"/>
</g>
<!-- Node3 -->
<g id="node3" class="node"><title>Node3</title>
<g id="a_node3"><a xlink:href="namespacemappel_1_1mcmc.html#a788cb1c156fa3b03724c3a44fe9e83ce" target="_top" xlink:title="mappel::mcmc::sample\l_posterior">
<polygon fill="white" stroke="black" points="183,-47.5 183,-75.5 293,-75.5 293,-47.5 183,-47.5"/>
<text text-anchor="start" x="191" y="-64.3" font-family="Helvetica,sans-Serif" font-size="9.00">mappel::mcmc::sample</text>
<text text-anchor="middle" x="238" y="-54.3" font-family="Helvetica,sans-Serif" font-size="9.00">_posterior</text>
</a>
</g>
</g>
<!-- Node1&#45;&gt;Node3 -->
<g id="edge2" class="edge"><title>Node1&#45;&gt;Node3</title>
<path fill="none" stroke="midnightblue" d="M126.457,-61.5C141.477,-61.5 157.547,-61.5 172.651,-61.5"/>
<polygon fill="midnightblue" stroke="midnightblue" points="172.929,-65.0001 182.929,-61.5 172.929,-58.0001 172.929,-65.0001"/>
</g>
<!-- Node5 -->
<g id="node5" class="node"><title>Node5</title>
<g id="a_node5"><a xlink:href="namespacemappel_1_1mcmc.html#a2930a61f34237af553702ddaaf72c5b5" target="_top" xlink:title="mappel::mcmc::thin\l_sample">
<polygon fill="white" stroke="black" points="190.5,-0.5 190.5,-28.5 285.5,-28.5 285.5,-0.5 190.5,-0.5"/>
<text text-anchor="start" x="198.5" y="-17.3" font-family="Helvetica,sans-Serif" font-size="9.00">mappel::mcmc::thin</text>
<text text-anchor="middle" x="238" y="-7.3" font-family="Helvetica,sans-Serif" font-size="9.00">_sample</text>
</a>
</g>
</g>
<!-- Node1&#45;&gt;Node5 -->
<g id="edge4" class="edge"><title>Node1&#45;&gt;Node5</title>
<path fill="none" stroke="midnightblue" d="M115.906,-47.3985C136.355,-41.8429 159.892,-35.4484 180.746,-29.7828"/>
<polygon fill="midnightblue" stroke="midnightblue" points="181.697,-33.1515 190.429,-27.1521 179.862,-26.3964 181.697,-33.1515"/>
</g>
<!-- Node4 -->
<g id="node4" class="node"><title>Node4</title>
<g id="a_node4"><a xlink:href="namespacemappel_1_1methods_1_1objective.html#a293c23ed6a623e59477bb67b6e40f5ad" target="_top" xlink:title="mappel::methods::objective\l::rllh">
<polygon fill="white" stroke="black" points="350,-47.5 350,-75.5 478,-75.5 478,-47.5 350,-47.5"/>
<text text-anchor="start" x="358" y="-64.3" font-family="Helvetica,sans-Serif" font-size="9.00">mappel::methods::objective</text>
<text text-anchor="middle" x="414" y="-54.3" font-family="Helvetica,sans-Serif" font-size="9.00">::rllh</text>
</a>
</g>
</g>
<!-- Node3&#45;&gt;Node4 -->
<g id="edge3" class="edge"><title>Node3&#45;&gt;Node4</title>
<path fill="none" stroke="midnightblue" d="M293.101,-61.5C307.831,-61.5 324.037,-61.5 339.643,-61.5"/>
<polygon fill="midnightblue" stroke="midnightblue" points="339.79,-65.0001 349.79,-61.5 339.79,-58.0001 339.79,-65.0001"/>
</g>
</g>
</svg>
