<?xml version="1.0" encoding="UTF-8" standalone="no"?>
<!DOCTYPE svg PUBLIC "-//W3C//DTD SVG 1.1//EN"
 "http://www.w3.org/Graphics/SVG/1.1/DTD/svg11.dtd">
<!-- Generated by graphviz version 2.38.0 (20140413.2041)
 -->
<!-- Title: mappel::methods::likelihood_objective Pages: 1 -->
<svg width="628pt" height="131pt"
 viewBox="0.00 0.00 628.00 131.00" xmlns="http://www.w3.org/2000/svg" xmlns:xlink="http://www.w3.org/1999/xlink">
<g id="graph0" class="graph" transform="scale(1 1) rotate(0) translate(4 127)">
<title>mappel::methods::likelihood_objective</title>
<polygon fill="white" stroke="none" points="-4,4 -4,-127 624,-127 624,4 -4,4"/>
<!-- Node1 -->
<g id="node1" class="node"><title>Node1</title>
<polygon fill="#bfbfbf" stroke="black" points="0,-47.5 0,-75.5 131,-75.5 131,-47.5 0,-47.5"/>
<text text-anchor="start" x="8" y="-64.3" font-family="Helvetica,sans-Serif" font-size="9.00">mappel::methods::likelihood</text>
<text text-anchor="middle" x="65.5" y="-54.3" font-family="Helvetica,sans-Serif" font-size="9.00">_objective</text>
</g>
<!-- Node2 -->
<g id="node2" class="node"><title>Node2</title>
<g id="a_node2"><a xlink:href="namespacemappel_1_1methods_1_1objective.html#a8e120e5a79029803453cea5f9f2d8f67" target="_top" xlink:title="mappel::methods::objective\l::grad">
<polygon fill="white" stroke="black" points="168.5,-94.5 168.5,-122.5 296.5,-122.5 296.5,-94.5 168.5,-94.5"/>
<text text-anchor="start" x="176.5" y="-111.3" font-family="Helvetica,sans-Serif" font-size="9.00">mappel::methods::objective</text>
<text text-anchor="middle" x="232.5" y="-101.3" font-family="Helvetica,sans-Serif" font-size="9.00">::grad</text>
</a>
</g>
</g>
<!-- Node1&#45;&gt;Node2 -->
<g id="edge1" class="edge"><title>Node1&#45;&gt;Node2</title>
<path fill="none" stroke="midnightblue" d="M116.005,-75.6015C133.788,-80.6669 154.019,-86.4297 172.527,-91.7015"/>
<polygon fill="midnightblue" stroke="midnightblue" points="171.738,-95.116 182.314,-94.4894 173.655,-88.3838 171.738,-95.116"/>
</g>
<!-- Node3 -->
<g id="node3" class="node"><title>Node3</title>
<g id="a_node3"><a xlink:href="namespacemappel_1_1methods.html#a82eaea0b938b0daff819da153e1351e2" target="_top" xlink:title="mappel::methods::likelihood\l_objective">
<polygon fill="white" stroke="black" points="167,-47.5 167,-75.5 298,-75.5 298,-47.5 167,-47.5"/>
<text text-anchor="start" x="175" y="-64.3" font-family="Helvetica,sans-Serif" font-size="9.00">mappel::methods::likelihood</text>
<text text-anchor="middle" x="232.5" y="-54.3" font-family="Helvetica,sans-Serif" font-size="9.00">_objective</text>
</a>
</g>
</g>
<!-- Node1&#45;&gt;Node3 -->
<g id="edge2" class="edge"><title>Node1&#45;&gt;Node3</title>
<path fill="none" stroke="midnightblue" d="M131.239,-61.5C139.583,-61.5 148.182,-61.5 156.671,-61.5"/>
<polygon fill="midnightblue" stroke="midnightblue" points="156.948,-65.0001 166.948,-61.5 156.948,-58.0001 156.948,-65.0001"/>
</g>
<!-- Node7 -->
<g id="node7" class="node"><title>Node7</title>
<g id="a_node7"><a xlink:href="namespacemappel_1_1methods_1_1objective.html#a293c23ed6a623e59477bb67b6e40f5ad" target="_top" xlink:title="mappel::methods::objective\l::rllh">
<polygon fill="white" stroke="black" points="168.5,-0.5 168.5,-28.5 296.5,-28.5 296.5,-0.5 168.5,-0.5"/>
<text text-anchor="start" x="176.5" y="-17.3" font-family="Helvetica,sans-Serif" font-size="9.00">mappel::methods::objective</text>
<text text-anchor="middle" x="232.5" y="-7.3" font-family="Helvetica,sans-Serif" font-size="9.00">::rllh</text>
</a>
</g>
</g>
<!-- Node1&#45;&gt;Node7 -->
<g id="edge6" class="edge"><title>Node1&#45;&gt;Node7</title>
<path fill="none" stroke="midnightblue" d="M116.005,-47.3985C133.788,-42.3331 154.019,-36.5703 172.527,-31.2985"/>
<polygon fill="midnightblue" stroke="midnightblue" points="173.655,-34.6162 182.314,-28.5106 171.738,-27.884 173.655,-34.6162"/>
</g>
<!-- Node4 -->
<g id="node4" class="node"><title>Node4</title>
<g id="a_node4"><a xlink:href="namespacemappel_1_1methods_1_1likelihood.html#a0233341d03d8f8d06cb852068942ba73" target="_top" xlink:title="mappel::methods::likelihood\l::hessian">
<polygon fill="white" stroke="black" points="334,-70.5 334,-98.5 465,-98.5 465,-70.5 334,-70.5"/>
<text text-anchor="start" x="342" y="-87.3" font-family="Helvetica,sans-Serif" font-size="9.00">mappel::methods::likelihood</text>
<text text-anchor="middle" x="399.5" y="-77.3" font-family="Helvetica,sans-Serif" font-size="9.00">::hessian</text>
</a>
</g>
</g>
<!-- Node3&#45;&gt;Node4 -->
<g id="edge3" class="edge"><title>Node3&#45;&gt;Node4</title>
<path fill="none" stroke="midnightblue" d="M298.239,-70.5242C306.675,-71.7001 315.371,-72.9123 323.951,-74.1083"/>
<polygon fill="midnightblue" stroke="midnightblue" points="323.56,-77.5876 333.948,-75.5018 324.527,-70.6547 323.56,-77.5876"/>
</g>
<!-- Node5 -->
<g id="node5" class="node"><title>Node5</title>
<g id="a_node5"><a xlink:href="namespacemappel_1_1methods_1_1likelihood.html#ae064b0a1e26a5626c62bde870e587ecb" target="_top" xlink:title="mappel::methods::likelihood\l::rllh">
<polygon fill="white" stroke="black" points="334,-23.5 334,-51.5 465,-51.5 465,-23.5 334,-23.5"/>
<text text-anchor="start" x="342" y="-40.3" font-family="Helvetica,sans-Serif" font-size="9.00">mappel::methods::likelihood</text>
<text text-anchor="middle" x="399.5" y="-30.3" font-family="Helvetica,sans-Serif" font-size="9.00">::rllh</text>
</a>
</g>
</g>
<!-- Node3&#45;&gt;Node5 -->
<g id="edge4" class="edge"><title>Node3&#45;&gt;Node5</title>
<path fill="none" stroke="midnightblue" d="M298.239,-52.0834C306.675,-50.8564 315.371,-49.5915 323.951,-48.3435"/>
<polygon fill="midnightblue" stroke="midnightblue" points="324.556,-51.7924 333.948,-46.8894 323.548,-44.8653 324.556,-51.7924"/>
</g>
<!-- Node6 -->
<g id="node6" class="node"><title>Node6</title>
<g id="a_node6"><a xlink:href="namespacemappel.html#a6e36ec38eee9f05906f51d4db8767b9e" target="_top" xlink:title="mappel::relative_poisson\l_log_likelihood">
<polygon fill="white" stroke="black" points="501,-23.5 501,-51.5 620,-51.5 620,-23.5 501,-23.5"/>
<text text-anchor="start" x="509" y="-40.3" font-family="Helvetica,sans-Serif" font-size="9.00">mappel::relative_poisson</text>
<text text-anchor="middle" x="560.5" y="-30.3" font-family="Helvetica,sans-Serif" font-size="9.00">_log_likelihood</text>
</a>
</g>
</g>
<!-- Node5&#45;&gt;Node6 -->
<g id="edge5" class="edge"><title>Node5&#45;&gt;Node6</title>
<path fill="none" stroke="midnightblue" d="M465.171,-37.5C473.545,-37.5 482.147,-37.5 490.586,-37.5"/>
<polygon fill="midnightblue" stroke="midnightblue" points="490.774,-41.0001 500.774,-37.5 490.774,-34.0001 490.774,-41.0001"/>
</g>
</g>
</svg>
