<?xml version="1.0" encoding="UTF-8" standalone="no"?>
<!DOCTYPE svg PUBLIC "-//W3C//DTD SVG 1.1//EN"
 "http://www.w3.org/Graphics/SVG/1.1/DTD/svg11.dtd">
<!-- Generated by graphviz version 2.38.0 (20140413.2041)
 -->
<!-- Title: mappel::print_labeled_image Pages: 1 -->
<svg width="413pt" height="37pt"
 viewBox="0.00 0.00 413.00 37.00" xmlns="http://www.w3.org/2000/svg" xmlns:xlink="http://www.w3.org/1999/xlink">
<g id="graph0" class="graph" transform="scale(1 1) rotate(0) translate(4 33)">
<title>mappel::print_labeled_image</title>
<polygon fill="white" stroke="none" points="-4,4 -4,-33 409,-33 409,4 -4,4"/>
<!-- Node1 -->
<g id="node1" class="node"><title>Node1</title>
<polygon fill="#bfbfbf" stroke="black" points="0,-0.5 0,-28.5 106,-28.5 106,-0.5 0,-0.5"/>
<text text-anchor="start" x="8" y="-17.3" font-family="Helvetica,sans-Serif" font-size="9.00">mappel::print_labeled</text>
<text text-anchor="middle" x="53" y="-7.3" font-family="Helvetica,sans-Serif" font-size="9.00">_image</text>
</g>
<!-- Node2 -->
<g id="node2" class="node"><title>Node2</title>
<g id="a_node2"><a xlink:href="namespacemappel.html#a846ffe01da2a5333d847cbb7845861e8" target="_top" xlink:title="mappel::print_image">
<polygon fill="white" stroke="black" points="142,-5.5 142,-23.5 243,-23.5 243,-5.5 142,-5.5"/>
<text text-anchor="middle" x="192.5" y="-12.3" font-family="Helvetica,sans-Serif" font-size="9.00">mappel::print_image</text>
</a>
</g>
</g>
<!-- Node1&#45;&gt;Node2 -->
<g id="edge1" class="edge"><title>Node1&#45;&gt;Node2</title>
<path fill="none" stroke="midnightblue" d="M116.643,-14.5C125.141,-14.5 133.764,-14.5 141.988,-14.5"/>
<polygon fill="midnightblue" stroke="midnightblue" points="116.375,-11.0001 106.375,-14.5 116.375,-18.0001 116.375,-11.0001"/>
</g>
<!-- Node3 -->
<g id="node3" class="node"><title>Node3</title>
<g id="a_node3"><a xlink:href="classmappel_1_1IterativeMaximizer.html#ad83f7b0a5b4d412f419b6089e73a66e0" target="_top" xlink:title="mappel::IterativeMaximizer\l::compute_estimate">
<polygon fill="white" stroke="black" points="279,-0.5 279,-28.5 405,-28.5 405,-0.5 279,-0.5"/>
<text text-anchor="start" x="287" y="-17.3" font-family="Helvetica,sans-Serif" font-size="9.00">mappel::IterativeMaximizer</text>
<text text-anchor="middle" x="342" y="-7.3" font-family="Helvetica,sans-Serif" font-size="9.00">::compute_estimate</text>
</a>
</g>
</g>
<!-- Node2&#45;&gt;Node3 -->
<g id="edge2" class="edge"><title>Node2&#45;&gt;Node3</title>
<path fill="none" stroke="midnightblue" d="M253.158,-14.5C261.594,-14.5 270.285,-14.5 278.768,-14.5"/>
<polygon fill="midnightblue" stroke="midnightblue" points="253.026,-11.0001 243.026,-14.5 253.026,-18.0001 253.026,-11.0001"/>
</g>
</g>
</svg>
