<?xml version="1.0" encoding="UTF-8" standalone="no"?>
<!DOCTYPE svg PUBLIC "-//W3C//DTD SVG 1.1//EN"
 "http://www.w3.org/Graphics/SVG/1.1/DTD/svg11.dtd">
<!-- Generated by graphviz version 2.38.0 (20140413.2041)
 -->
<!-- Title: mappel::make_X_stencil Pages: 1 -->
<svg width="281pt" height="178pt"
 viewBox="0.00 0.00 281.00 178.00" xmlns="http://www.w3.org/2000/svg" xmlns:xlink="http://www.w3.org/1999/xlink">
<g id="graph0" class="graph" transform="scale(1 1) rotate(0) translate(4 174)">
<title>mappel::make_X_stencil</title>
<polygon fill="white" stroke="none" points="-4,4 -4,-174 277,-174 277,4 -4,4"/>
<!-- Node1 -->
<g id="node1" class="node"><title>Node1</title>
<polygon fill="#bfbfbf" stroke="black" points="0,-75.5 0,-93.5 117,-93.5 117,-75.5 0,-75.5"/>
<text text-anchor="middle" x="58.5" y="-82.3" font-family="Helvetica,sans-Serif" font-size="9.00">mappel::make_X_stencil</text>
</g>
<!-- Node2 -->
<g id="node2" class="node"><title>Node2</title>
<g id="a_node2"><a xlink:href="classmappel_1_1Gauss1DsModel_1_1Stencil.html#ae4f12261a80d8ed1a2d3652c0e7b629b" target="_top" xlink:title="mappel::Gauss1DsModel\l::Stencil::Stencil">
<polygon fill="white" stroke="black" points="153,-141.5 153,-169.5 273,-169.5 273,-141.5 153,-141.5"/>
<text text-anchor="start" x="161" y="-158.3" font-family="Helvetica,sans-Serif" font-size="9.00">mappel::Gauss1DsModel</text>
<text text-anchor="middle" x="213" y="-148.3" font-family="Helvetica,sans-Serif" font-size="9.00">::Stencil::Stencil</text>
</a>
</g>
</g>
<!-- Node1&#45;&gt;Node2 -->
<g id="edge1" class="edge"><title>Node1&#45;&gt;Node2</title>
<path fill="none" stroke="midnightblue" d="M84.8076,-98.3864C103.426,-108.381 129.48,-121.912 153,-132.5 159.817,-135.569 167.175,-138.63 174.306,-141.471"/>
<polygon fill="midnightblue" stroke="midnightblue" points="86.2632,-95.1945 75.8021,-93.5162 82.9333,-101.352 86.2632,-95.1945"/>
</g>
<!-- Node3 -->
<g id="node3" class="node"><title>Node3</title>
<g id="a_node3"><a xlink:href="classmappel_1_1Gauss2DModel_1_1Stencil.html#a9e1f0ff585b5394d2d114a432b8c7d94" target="_top" xlink:title="mappel::Gauss2DModel\l::Stencil::Stencil">
<polygon fill="white" stroke="black" points="155,-94.5 155,-122.5 271,-122.5 271,-94.5 155,-94.5"/>
<text text-anchor="start" x="163" y="-111.3" font-family="Helvetica,sans-Serif" font-size="9.00">mappel::Gauss2DModel</text>
<text text-anchor="middle" x="213" y="-101.3" font-family="Helvetica,sans-Serif" font-size="9.00">::Stencil::Stencil</text>
</a>
</g>
</g>
<!-- Node1&#45;&gt;Node3 -->
<g id="edge2" class="edge"><title>Node1&#45;&gt;Node3</title>
<path fill="none" stroke="midnightblue" d="M126.814,-95.0937C136.209,-96.5722 145.787,-98.0795 154.967,-99.5244"/>
<polygon fill="midnightblue" stroke="midnightblue" points="127.142,-91.6023 116.719,-93.505 126.054,-98.5172 127.142,-91.6023"/>
</g>
<!-- Node4 -->
<g id="node4" class="node"><title>Node4</title>
<g id="a_node4"><a xlink:href="classmappel_1_1Gauss1DModel_1_1Stencil.html#a6881e128436697dd57b41d20a1c8b56e" target="_top" xlink:title="mappel::Gauss1DModel\l::Stencil::Stencil">
<polygon fill="white" stroke="black" points="155,-47.5 155,-75.5 271,-75.5 271,-47.5 155,-47.5"/>
<text text-anchor="start" x="163" y="-64.3" font-family="Helvetica,sans-Serif" font-size="9.00">mappel::Gauss1DModel</text>
<text text-anchor="middle" x="213" y="-54.3" font-family="Helvetica,sans-Serif" font-size="9.00">::Stencil::Stencil</text>
</a>
</g>
</g>
<!-- Node1&#45;&gt;Node4 -->
<g id="edge3" class="edge"><title>Node1&#45;&gt;Node4</title>
<path fill="none" stroke="midnightblue" d="M127.087,-74.3066C136.327,-72.913 145.739,-71.4935 154.771,-70.1313"/>
<polygon fill="midnightblue" stroke="midnightblue" points="126.52,-70.8524 117.154,-75.8047 127.564,-77.7741 126.52,-70.8524"/>
</g>
<!-- Node5 -->
<g id="node5" class="node"><title>Node5</title>
<g id="a_node5"><a xlink:href="classmappel_1_1Gauss2DsModel_1_1Stencil.html#a924f5f8d4524831f1ef50041b85a842f" target="_top" xlink:title="mappel::Gauss2DsModel\l::Stencil::Stencil">
<polygon fill="white" stroke="black" points="153,-0.5 153,-28.5 273,-28.5 273,-0.5 153,-0.5"/>
<text text-anchor="start" x="161" y="-17.3" font-family="Helvetica,sans-Serif" font-size="9.00">mappel::Gauss2DsModel</text>
<text text-anchor="middle" x="213" y="-7.3" font-family="Helvetica,sans-Serif" font-size="9.00">::Stencil::Stencil</text>
</a>
</g>
</g>
<!-- Node1&#45;&gt;Node5 -->
<g id="edge4" class="edge"><title>Node1&#45;&gt;Node5</title>
<path fill="none" stroke="midnightblue" d="M85.9404,-70.8685C104.536,-61.4355 130.09,-48.7799 153,-38.5 160.466,-35.1501 168.545,-31.7314 176.26,-28.5637"/>
<polygon fill="midnightblue" stroke="midnightblue" points="84.2199,-67.817 76.9013,-75.4779 87.3999,-74.053 84.2199,-67.817"/>
</g>
</g>
</svg>
