<?xml version="1.0" encoding="UTF-8" standalone="no"?>
<!DOCTYPE svg PUBLIC "-//W3C//DTD SVG 1.1//EN"
 "http://www.w3.org/Graphics/SVG/1.1/DTD/svg11.dtd">
<!-- Generated by graphviz version 2.38.0 (20140413.2041)
 -->
<!-- Title: mappel::cholesky_convert_full_matrix Pages: 1 -->
<svg width="448pt" height="84pt"
 viewBox="0.00 0.00 448.00 84.00" xmlns="http://www.w3.org/2000/svg" xmlns:xlink="http://www.w3.org/1999/xlink">
<g id="graph0" class="graph" transform="scale(1 1) rotate(0) translate(4 80)">
<title>mappel::cholesky_convert_full_matrix</title>
<polygon fill="white" stroke="none" points="-4,4 -4,-80 444,-80 444,4 -4,4"/>
<!-- Node1 -->
<g id="node1" class="node"><title>Node1</title>
<polygon fill="#bfbfbf" stroke="black" points="0,-23.5 0,-51.5 123,-51.5 123,-23.5 0,-23.5"/>
<text text-anchor="start" x="8" y="-40.3" font-family="Helvetica,sans-Serif" font-size="9.00">mappel::cholesky_convert</text>
<text text-anchor="middle" x="61.5" y="-30.3" font-family="Helvetica,sans-Serif" font-size="9.00">_full_matrix</text>
</g>
<!-- Node2 -->
<g id="node2" class="node"><title>Node2</title>
<g id="a_node2"><a xlink:href="namespacemappel.html#af0d85d0ac01f8397a555efb5912fc2ea" target="_top" xlink:title="mappel::cholesky_make\l_negative_definite">
<polygon fill="white" stroke="black" points="159,-47.5 159,-75.5 275,-75.5 275,-47.5 159,-47.5"/>
<text text-anchor="start" x="167" y="-64.3" font-family="Helvetica,sans-Serif" font-size="9.00">mappel::cholesky_make</text>
<text text-anchor="middle" x="217" y="-54.3" font-family="Helvetica,sans-Serif" font-size="9.00">_negative_definite</text>
</a>
</g>
</g>
<!-- Node1&#45;&gt;Node2 -->
<g id="edge1" class="edge"><title>Node1&#45;&gt;Node2</title>
<path fill="none" stroke="midnightblue" d="M133.165,-48.5486C141.743,-49.8898 150.424,-51.2471 158.774,-52.5526"/>
<polygon fill="midnightblue" stroke="midnightblue" points="133.588,-45.0723 123.167,-46.9854 132.507,-51.9883 133.588,-45.0723"/>
</g>
<!-- Node4 -->
<g id="node4" class="node"><title>Node4</title>
<g id="a_node4"><a xlink:href="namespacemappel.html#af22fb1e606ca14f8b46ffde3b8833a9f" target="_top" xlink:title="mappel::cholesky_make\l_positive_definite">
<polygon fill="white" stroke="black" points="159,-0.5 159,-28.5 275,-28.5 275,-0.5 159,-0.5"/>
<text text-anchor="start" x="167" y="-17.3" font-family="Helvetica,sans-Serif" font-size="9.00">mappel::cholesky_make</text>
<text text-anchor="middle" x="217" y="-7.3" font-family="Helvetica,sans-Serif" font-size="9.00">_positive_definite</text>
</a>
</g>
</g>
<!-- Node1&#45;&gt;Node4 -->
<g id="edge3" class="edge"><title>Node1&#45;&gt;Node4</title>
<path fill="none" stroke="midnightblue" d="M133.165,-26.9118C141.743,-25.6264 150.424,-24.3257 158.774,-23.0746"/>
<polygon fill="midnightblue" stroke="midnightblue" points="132.538,-23.4665 123.167,-28.4098 133.576,-30.3892 132.538,-23.4665"/>
</g>
<!-- Node3 -->
<g id="node3" class="node"><title>Node3</title>
<g id="a_node3"><a xlink:href="namespacemappel_1_1methods_1_1objective.html#a8c40861cc75e4165606b495a6c04c62a" target="_top" xlink:title="mappel::methods::objective\l::negative_definite_hessian">
<polygon fill="white" stroke="black" points="311,-47.5 311,-75.5 440,-75.5 440,-47.5 311,-47.5"/>
<text text-anchor="start" x="319" y="-64.3" font-family="Helvetica,sans-Serif" font-size="9.00">mappel::methods::objective</text>
<text text-anchor="middle" x="375.5" y="-54.3" font-family="Helvetica,sans-Serif" font-size="9.00">::negative_definite_hessian</text>
</a>
</g>
</g>
<!-- Node2&#45;&gt;Node3 -->
<g id="edge2" class="edge"><title>Node2&#45;&gt;Node3</title>
<path fill="none" stroke="midnightblue" d="M285.508,-61.5C293.897,-61.5 302.453,-61.5 310.782,-61.5"/>
<polygon fill="midnightblue" stroke="midnightblue" points="285.386,-58.0001 275.386,-61.5 285.386,-65.0001 285.386,-58.0001"/>
</g>
</g>
</svg>
