<?xml version="1.0" encoding="UTF-8" standalone="no"?>
<!DOCTYPE svg PUBLIC "-//W3C//DTD SVG 1.1//EN"
 "http://www.w3.org/Graphics/SVG/1.1/DTD/svg11.dtd">
<!-- Generated by graphviz version 2.38.0 (20140413.2041)
 -->
<!-- Title: mappel::methods::estimate_max Pages: 1 -->
<svg width="444pt" height="131pt"
 viewBox="0.00 0.00 444.00 131.00" xmlns="http://www.w3.org/2000/svg" xmlns:xlink="http://www.w3.org/1999/xlink">
<g id="graph0" class="graph" transform="scale(1 1) rotate(0) translate(4 127)">
<title>mappel::methods::estimate_max</title>
<polygon fill="white" stroke="none" points="-4,4 -4,-127 440,-127 440,4 -4,4"/>
<!-- Node1 -->
<g id="node1" class="node"><title>Node1</title>
<polygon fill="#bfbfbf" stroke="black" points="0,-52.5 0,-70.5 149,-70.5 149,-52.5 0,-52.5"/>
<text text-anchor="middle" x="74.5" y="-59.3" font-family="Helvetica,sans-Serif" font-size="9.00">mappel::methods::estimate_max</text>
</g>
<!-- Node2 -->
<g id="node2" class="node"><title>Node2</title>
<g id="a_node2"><a xlink:href="classmappel_1_1Estimator.html#a4406c994d5b6239e75628ea5d479bfa2" target="_top" xlink:title="mappel::Estimator::\lestimate_max">
<polygon fill="white" stroke="black" points="197.5,-94.5 197.5,-122.5 292.5,-122.5 292.5,-94.5 197.5,-94.5"/>
<text text-anchor="start" x="205.5" y="-111.3" font-family="Helvetica,sans-Serif" font-size="9.00">mappel::Estimator::</text>
<text text-anchor="middle" x="245" y="-101.3" font-family="Helvetica,sans-Serif" font-size="9.00">estimate_max</text>
</a>
</g>
</g>
<!-- Node1&#45;&gt;Node2 -->
<g id="edge1" class="edge"><title>Node1&#45;&gt;Node2</title>
<path fill="none" stroke="midnightblue" d="M117.936,-73.3368C142.106,-80.0785 172.426,-88.5356 197.273,-95.4664"/>
<polygon fill="midnightblue" stroke="midnightblue" points="118.561,-69.8776 107.988,-70.5621 116.68,-76.6202 118.561,-69.8776"/>
</g>
<!-- Node4 -->
<g id="node4" class="node"><title>Node4</title>
<g id="a_node4"><a xlink:href="classmappel_1_1Gauss2DModel.html#a4bb4e53073e2c45b9a63b942214b787c" target="_top" xlink:title="mappel::Gauss2DModel\l::initial_theta_estimate">
<polygon fill="white" stroke="black" points="187,-47.5 187,-75.5 303,-75.5 303,-47.5 187,-47.5"/>
<text text-anchor="start" x="195" y="-64.3" font-family="Helvetica,sans-Serif" font-size="9.00">mappel::Gauss2DModel</text>
<text text-anchor="middle" x="245" y="-54.3" font-family="Helvetica,sans-Serif" font-size="9.00">::initial_theta_estimate</text>
</a>
</g>
</g>
<!-- Node1&#45;&gt;Node4 -->
<g id="edge3" class="edge"><title>Node1&#45;&gt;Node4</title>
<path fill="none" stroke="midnightblue" d="M159.457,-61.5C168.741,-61.5 178.029,-61.5 186.871,-61.5"/>
<polygon fill="midnightblue" stroke="midnightblue" points="159.407,-58.0001 149.407,-61.5 159.407,-65.0001 159.407,-58.0001"/>
</g>
<!-- Node5 -->
<g id="node5" class="node"><title>Node5</title>
<g id="a_node5"><a xlink:href="classmappel_1_1Gauss2DsModel.html#a70e079fd6b31bc6af5b7c10d2a0d8fb5" target="_top" xlink:title="mappel::Gauss2DsModel\l::initial_theta_estimate">
<polygon fill="white" stroke="black" points="185,-0.5 185,-28.5 305,-28.5 305,-0.5 185,-0.5"/>
<text text-anchor="start" x="193" y="-17.3" font-family="Helvetica,sans-Serif" font-size="9.00">mappel::Gauss2DsModel</text>
<text text-anchor="middle" x="245" y="-7.3" font-family="Helvetica,sans-Serif" font-size="9.00">::initial_theta_estimate</text>
</a>
</g>
</g>
<!-- Node1&#45;&gt;Node5 -->
<g id="edge4" class="edge"><title>Node1&#45;&gt;Node5</title>
<path fill="none" stroke="midnightblue" d="M117.817,-49.6965C140.86,-43.269 169.521,-35.2746 193.701,-28.5299"/>
<polygon fill="midnightblue" stroke="midnightblue" points="116.68,-46.3798 107.988,-52.4379 118.561,-53.1224 116.68,-46.3798"/>
</g>
<!-- Node3 -->
<g id="node3" class="node"><title>Node3</title>
<g id="a_node3"><a xlink:href="classmappel_1_1Estimator.html#a629823fa91d4b461b2b1f607d588e558" target="_top" xlink:title="mappel::Estimator::\l~Estimator">
<polygon fill="white" stroke="black" points="341,-94.5 341,-122.5 436,-122.5 436,-94.5 341,-94.5"/>
<text text-anchor="start" x="349" y="-111.3" font-family="Helvetica,sans-Serif" font-size="9.00">mappel::Estimator::</text>
<text text-anchor="middle" x="388.5" y="-101.3" font-family="Helvetica,sans-Serif" font-size="9.00">~Estimator</text>
</a>
</g>
</g>
<!-- Node2&#45;&gt;Node3 -->
<g id="edge2" class="edge"><title>Node2&#45;&gt;Node3</title>
<path fill="none" stroke="midnightblue" d="M303.08,-108.5C315.619,-108.5 328.752,-108.5 340.825,-108.5"/>
<polygon fill="midnightblue" stroke="midnightblue" points="302.725,-105 292.725,-108.5 302.725,-112 302.725,-105"/>
</g>
</g>
</svg>
