<?xml version="1.0" encoding="UTF-8" standalone="no"?>
<!DOCTYPE svg PUBLIC "-//W3C//DTD SVG 1.1//EN"
 "http://www.w3.org/Graphics/SVG/1.1/DTD/svg11.dtd">
<!-- Generated by graphviz version 2.38.0 (20140413.2041)
 -->
<!-- Title: mappel::methods::likelihood::debug::rllh_components Pages: 1 -->
<svg width="294pt" height="37pt"
 viewBox="0.00 0.00 294.00 37.00" xmlns="http://www.w3.org/2000/svg" xmlns:xlink="http://www.w3.org/1999/xlink">
<g id="graph0" class="graph" transform="scale(1 1) rotate(0) translate(4 33)">
<title>mappel::methods::likelihood::debug::rllh_components</title>
<polygon fill="white" stroke="none" points="-4,4 -4,-33 290,-33 290,4 -4,4"/>
<!-- Node1 -->
<g id="node1" class="node"><title>Node1</title>
<polygon fill="#bfbfbf" stroke="black" points="0,-0.5 0,-28.5 131,-28.5 131,-0.5 0,-0.5"/>
<text text-anchor="start" x="8" y="-17.3" font-family="Helvetica,sans-Serif" font-size="9.00">mappel::methods::likelihood</text>
<text text-anchor="middle" x="65.5" y="-7.3" font-family="Helvetica,sans-Serif" font-size="9.00">::debug::rllh_components</text>
</g>
<!-- Node2 -->
<g id="node2" class="node"><title>Node2</title>
<g id="a_node2"><a xlink:href="namespacemappel.html#a6e36ec38eee9f05906f51d4db8767b9e" target="_top" xlink:title="mappel::relative_poisson\l_log_likelihood">
<polygon fill="white" stroke="black" points="167,-0.5 167,-28.5 286,-28.5 286,-0.5 167,-0.5"/>
<text text-anchor="start" x="175" y="-17.3" font-family="Helvetica,sans-Serif" font-size="9.00">mappel::relative_poisson</text>
<text text-anchor="middle" x="226.5" y="-7.3" font-family="Helvetica,sans-Serif" font-size="9.00">_log_likelihood</text>
</a>
</g>
</g>
<!-- Node1&#45;&gt;Node2 -->
<g id="edge1" class="edge"><title>Node1&#45;&gt;Node2</title>
<path fill="none" stroke="midnightblue" d="M131.171,-14.5C139.545,-14.5 148.147,-14.5 156.586,-14.5"/>
<polygon fill="midnightblue" stroke="midnightblue" points="156.774,-18.0001 166.774,-14.5 156.774,-11.0001 156.774,-18.0001"/>
</g>
</g>
</svg>
