<?xml version="1.0" encoding="UTF-8" standalone="no"?>
<!DOCTYPE svg PUBLIC "-//W3C//DTD SVG 1.1//EN"
 "http://www.w3.org/Graphics/SVG/1.1/DTD/svg11.dtd">
<!-- Generated by graphviz version 2.38.0 (20140413.2041)
 -->
<!-- Title: mappel::fill_d_stencil Pages: 1 -->
<svg width="419pt" height="178pt"
 viewBox="0.00 0.00 419.00 178.00" xmlns="http://www.w3.org/2000/svg" xmlns:xlink="http://www.w3.org/1999/xlink">
<g id="graph0" class="graph" transform="scale(1 1) rotate(0) translate(4 174)">
<title>mappel::fill_d_stencil</title>
<polygon fill="white" stroke="none" points="-4,4 -4,-174 415,-174 415,4 -4,4"/>
<!-- Node1 -->
<g id="node1" class="node"><title>Node1</title>
<polygon fill="#bfbfbf" stroke="black" points="0,-75.5 0,-93.5 103,-93.5 103,-75.5 0,-75.5"/>
<text text-anchor="middle" x="51.5" y="-82.3" font-family="Helvetica,sans-Serif" font-size="9.00">mappel::fill_d_stencil</text>
</g>
<!-- Node2 -->
<g id="node2" class="node"><title>Node2</title>
<g id="a_node2"><a xlink:href="namespacemappel.html#ac9d449b0121b33962da2c9c13cbb593c" target="_top" xlink:title="mappel::make_d_stencil">
<polygon fill="white" stroke="black" points="139,-75.5 139,-93.5 255,-93.5 255,-75.5 139,-75.5"/>
<text text-anchor="middle" x="197" y="-82.3" font-family="Helvetica,sans-Serif" font-size="9.00">mappel::make_d_stencil</text>
</a>
</g>
</g>
<!-- Node1&#45;&gt;Node2 -->
<g id="edge1" class="edge"><title>Node1&#45;&gt;Node2</title>
<path fill="none" stroke="midnightblue" d="M113.196,-84.5C121.588,-84.5 130.188,-84.5 138.52,-84.5"/>
<polygon fill="midnightblue" stroke="midnightblue" points="113.093,-81.0001 103.093,-84.5 113.093,-88.0001 113.093,-81.0001"/>
</g>
<!-- Node3 -->
<g id="node3" class="node"><title>Node3</title>
<g id="a_node3"><a xlink:href="classmappel_1_1Gauss1DModel_1_1Stencil.html#a6881e128436697dd57b41d20a1c8b56e" target="_top" xlink:title="mappel::Gauss1DModel\l::Stencil::Stencil">
<polygon fill="white" stroke="black" points="293,-141.5 293,-169.5 409,-169.5 409,-141.5 293,-141.5"/>
<text text-anchor="start" x="301" y="-158.3" font-family="Helvetica,sans-Serif" font-size="9.00">mappel::Gauss1DModel</text>
<text text-anchor="middle" x="351" y="-148.3" font-family="Helvetica,sans-Serif" font-size="9.00">::Stencil::Stencil</text>
</a>
</g>
</g>
<!-- Node2&#45;&gt;Node3 -->
<g id="edge2" class="edge"><title>Node2&#45;&gt;Node3</title>
<path fill="none" stroke="midnightblue" d="M223.163,-98.3979C241.678,-108.399 267.591,-121.931 291,-132.5 297.814,-135.576 305.17,-138.641 312.301,-141.483"/>
<polygon fill="midnightblue" stroke="midnightblue" points="224.665,-95.2305 214.208,-93.5246 221.319,-101.379 224.665,-95.2305"/>
</g>
<!-- Node4 -->
<g id="node4" class="node"><title>Node4</title>
<g id="a_node4"><a xlink:href="classmappel_1_1Gauss1DsModel_1_1Stencil.html#ae4f12261a80d8ed1a2d3652c0e7b629b" target="_top" xlink:title="mappel::Gauss1DsModel\l::Stencil::Stencil">
<polygon fill="white" stroke="black" points="291,-94.5 291,-122.5 411,-122.5 411,-94.5 291,-94.5"/>
<text text-anchor="start" x="299" y="-111.3" font-family="Helvetica,sans-Serif" font-size="9.00">mappel::Gauss1DsModel</text>
<text text-anchor="middle" x="351" y="-101.3" font-family="Helvetica,sans-Serif" font-size="9.00">::Stencil::Stencil</text>
</a>
</g>
</g>
<!-- Node2&#45;&gt;Node4 -->
<g id="edge3" class="edge"><title>Node2&#45;&gt;Node4</title>
<path fill="none" stroke="midnightblue" d="M265.037,-95.0847C273.643,-96.4437 282.405,-97.8272 290.873,-99.1642"/>
<polygon fill="midnightblue" stroke="midnightblue" points="265.455,-91.6075 255.032,-93.505 264.363,-98.5219 265.455,-91.6075"/>
</g>
<!-- Node5 -->
<g id="node5" class="node"><title>Node5</title>
<g id="a_node5"><a xlink:href="classmappel_1_1Gauss2DModel_1_1Stencil.html#a9e1f0ff585b5394d2d114a432b8c7d94" target="_top" xlink:title="mappel::Gauss2DModel\l::Stencil::Stencil">
<polygon fill="white" stroke="black" points="293,-47.5 293,-75.5 409,-75.5 409,-47.5 293,-47.5"/>
<text text-anchor="start" x="301" y="-64.3" font-family="Helvetica,sans-Serif" font-size="9.00">mappel::Gauss2DModel</text>
<text text-anchor="middle" x="351" y="-54.3" font-family="Helvetica,sans-Serif" font-size="9.00">::Stencil::Stencil</text>
</a>
</g>
</g>
<!-- Node2&#45;&gt;Node5 -->
<g id="edge4" class="edge"><title>Node2&#45;&gt;Node5</title>
<path fill="none" stroke="midnightblue" d="M265.025,-74.3581C274.324,-72.9509 283.806,-71.5162 292.902,-70.1399"/>
<polygon fill="midnightblue" stroke="midnightblue" points="264.395,-70.9134 255.032,-75.8702 265.443,-77.8346 264.395,-70.9134"/>
</g>
<!-- Node6 -->
<g id="node6" class="node"><title>Node6</title>
<g id="a_node6"><a xlink:href="classmappel_1_1Gauss2DsModel_1_1Stencil.html#a924f5f8d4524831f1ef50041b85a842f" target="_top" xlink:title="mappel::Gauss2DsModel\l::Stencil::Stencil">
<polygon fill="white" stroke="black" points="291,-0.5 291,-28.5 411,-28.5 411,-0.5 291,-0.5"/>
<text text-anchor="start" x="299" y="-17.3" font-family="Helvetica,sans-Serif" font-size="9.00">mappel::Gauss2DsModel</text>
<text text-anchor="middle" x="351" y="-7.3" font-family="Helvetica,sans-Serif" font-size="9.00">::Stencil::Stencil</text>
</a>
</g>
</g>
<!-- Node2&#45;&gt;Node6 -->
<g id="edge5" class="edge"><title>Node2&#45;&gt;Node6</title>
<path fill="none" stroke="midnightblue" d="M224.291,-70.8559C242.783,-61.4172 268.199,-48.7599 291,-38.5 298.462,-35.1421 306.54,-31.7201 314.255,-28.5517"/>
<polygon fill="midnightblue" stroke="midnightblue" points="222.601,-67.789 215.302,-75.4686 225.797,-74.0169 222.601,-67.789"/>
</g>
</g>
</svg>
