<?xml version="1.0" encoding="UTF-8" standalone="no"?>
<!DOCTYPE svg PUBLIC "-//W3C//DTD SVG 1.1//EN"
 "http://www.w3.org/Graphics/SVG/1.1/DTD/svg11.dtd">
<!-- Generated by graphviz version 2.38.0 (20140413.2041)
 -->
<!-- Title: mappel::is_positive_definite Pages: 1 -->
<svg width="288pt" height="84pt"
 viewBox="0.00 0.00 288.00 84.00" xmlns="http://www.w3.org/2000/svg" xmlns:xlink="http://www.w3.org/1999/xlink">
<g id="graph0" class="graph" transform="scale(1 1) rotate(0) translate(4 80)">
<title>mappel::is_positive_definite</title>
<polygon fill="white" stroke="none" points="-4,4 -4,-80 284,-80 284,4 -4,4"/>
<!-- Node1 -->
<g id="node1" class="node"><title>Node1</title>
<polygon fill="#bfbfbf" stroke="black" points="0,-23.5 0,-51.5 95,-51.5 95,-23.5 0,-23.5"/>
<text text-anchor="start" x="8" y="-40.3" font-family="Helvetica,sans-Serif" font-size="9.00">mappel::is_positive</text>
<text text-anchor="middle" x="47.5" y="-30.3" font-family="Helvetica,sans-Serif" font-size="9.00">_definite</text>
</g>
<!-- Node2 -->
<g id="node2" class="node"><title>Node2</title>
<g id="a_node2"><a xlink:href="namespacemappel.html#ad631839d6d2c62198d21364ca379f529" target="_top" xlink:title="mappel::is_negative\l_definite">
<polygon fill="white" stroke="black" points="156,-47.5 156,-75.5 255,-75.5 255,-47.5 156,-47.5"/>
<text text-anchor="start" x="164" y="-64.3" font-family="Helvetica,sans-Serif" font-size="9.00">mappel::is_negative</text>
<text text-anchor="middle" x="205.5" y="-54.3" font-family="Helvetica,sans-Serif" font-size="9.00">_definite</text>
</a>
</g>
</g>
<!-- Node1&#45;&gt;Node2 -->
<g id="edge1" class="edge"><title>Node1&#45;&gt;Node2</title>
<path fill="none" stroke="midnightblue" d="M105.398,-46.2535C121.939,-48.7982 139.848,-51.5536 155.834,-54.0129"/>
<polygon fill="midnightblue" stroke="midnightblue" points="105.721,-42.7621 95.3051,-44.7008 104.657,-49.6807 105.721,-42.7621"/>
</g>
<!-- Node3 -->
<g id="node3" class="node"><title>Node3</title>
<g id="a_node3"><a xlink:href="classmappel_1_1QuasiNewtonMaximizer.html#ab4d32d8ba90d4355262a228753619b9f" target="_top" xlink:title="mappel::QuasiNewtonMaximizer\l::maximize">
<polygon fill="white" stroke="black" points="131,-0.5 131,-28.5 280,-28.5 280,-0.5 131,-0.5"/>
<text text-anchor="start" x="139" y="-17.3" font-family="Helvetica,sans-Serif" font-size="9.00">mappel::QuasiNewtonMaximizer</text>
<text text-anchor="middle" x="205.5" y="-7.3" font-family="Helvetica,sans-Serif" font-size="9.00">::maximize</text>
</a>
</g>
</g>
<!-- Node1&#45;&gt;Node3 -->
<g id="edge2" class="edge"><title>Node1&#45;&gt;Node3</title>
<path fill="none" stroke="midnightblue" d="M105.264,-29.131C113.593,-27.9029 122.273,-26.6232 130.881,-25.3541"/>
<polygon fill="midnightblue" stroke="midnightblue" points="104.688,-25.678 95.3051,-30.5992 105.709,-32.6031 104.688,-25.678"/>
</g>
</g>
</svg>
