<?xml version="1.0" encoding="UTF-8" standalone="no"?>
<!DOCTYPE svg PUBLIC "-//W3C//DTD SVG 1.1//EN"
 "http://www.w3.org/Graphics/SVG/1.1/DTD/svg11.dtd">
<!-- Generated by graphviz version 2.38.0 (20140413.2041)
 -->
<!-- Title: mappel::generate_poisson Pages: 1 -->
<svg width="296pt" height="121pt"
 viewBox="0.00 0.00 296.00 121.00" xmlns="http://www.w3.org/2000/svg" xmlns:xlink="http://www.w3.org/1999/xlink">
<g id="graph0" class="graph" transform="scale(1 1) rotate(0) translate(4 117)">
<title>mappel::generate_poisson</title>
<polygon fill="white" stroke="none" points="-4,4 -4,-117 292,-117 292,4 -4,4"/>
<!-- Node1 -->
<g id="node1" class="node"><title>Node1</title>
<polygon fill="#bfbfbf" stroke="black" points="0,-47.5 0,-65.5 126,-65.5 126,-47.5 0,-47.5"/>
<text text-anchor="middle" x="63" y="-54.3" font-family="Helvetica,sans-Serif" font-size="9.00">mappel::generate_poisson</text>
</g>
<!-- Node2 -->
<g id="node2" class="node"><title>Node2</title>
<g id="a_node2"><a xlink:href="namespacemappel_1_1methods.html#abe1122f5c810f1b41c391a7e724fd74d" target="_top" xlink:title="Simulate an image at a given theta stencil, by generating Poisson noise Enabled for PoissonNoise1DObj...">
<polygon fill="white" stroke="black" points="162,-84.5 162,-112.5 288,-112.5 288,-84.5 162,-84.5"/>
<text text-anchor="start" x="170" y="-101.3" font-family="Helvetica,sans-Serif" font-size="9.00">mappel::methods::simulate</text>
<text text-anchor="middle" x="225" y="-91.3" font-family="Helvetica,sans-Serif" font-size="9.00">_image</text>
</a>
</g>
</g>
<!-- Node1&#45;&gt;Node2 -->
<g id="edge1" class="edge"><title>Node1&#45;&gt;Node2</title>
<path fill="none" stroke="midnightblue" d="M108.074,-68.0694C127.396,-73.1413 150.246,-79.1396 170.53,-84.4642"/>
<polygon fill="midnightblue" stroke="midnightblue" points="108.885,-64.6638 98.324,-65.5101 107.108,-71.4344 108.885,-64.6638"/>
</g>
<!-- Node3 -->
<g id="node3" class="node"><title>Node3</title>
<g id="a_node3"><a xlink:href="PoissonGaussianNoise2DObjective_8h.html#a478c3e580a937a0f89aeda93d890e17b" target="_top" xlink:title="Simulate an image using the PSF model, by generating Poisson noise. ">
<polygon fill="white" stroke="black" points="184,-47.5 184,-65.5 266,-65.5 266,-47.5 184,-47.5"/>
<text text-anchor="middle" x="225" y="-54.3" font-family="Helvetica,sans-Serif" font-size="9.00">simulate_image</text>
</a>
</g>
</g>
<!-- Node1&#45;&gt;Node3 -->
<g id="edge2" class="edge"><title>Node1&#45;&gt;Node3</title>
<path fill="none" stroke="midnightblue" d="M136.376,-56.5C152.656,-56.5 169.361,-56.5 183.761,-56.5"/>
<polygon fill="midnightblue" stroke="midnightblue" points="136.318,-53.0001 126.318,-56.5 136.318,-60.0001 136.318,-53.0001"/>
</g>
<!-- Node4 -->
<g id="node4" class="node"><title>Node4</title>
<g id="a_node4"><a xlink:href="namespacemappel_1_1methods.html#a4a6ea9893f28e1f5c2604d8c3e7b6852" target="_top" xlink:title="Simulate an image at a given theta stencil, by generating Poisson noise Enabled for PoissonNoise1DObj...">
<polygon fill="white" stroke="black" points="162,-0.5 162,-28.5 288,-28.5 288,-0.5 162,-0.5"/>
<text text-anchor="start" x="170" y="-17.3" font-family="Helvetica,sans-Serif" font-size="9.00">mappel::methods::simulate</text>
<text text-anchor="middle" x="225" y="-7.3" font-family="Helvetica,sans-Serif" font-size="9.00">_image_from_model</text>
</a>
</g>
</g>
<!-- Node1&#45;&gt;Node4 -->
<g id="edge3" class="edge"><title>Node1&#45;&gt;Node4</title>
<path fill="none" stroke="midnightblue" d="M108.074,-44.9306C127.396,-39.8587 150.246,-33.8604 170.53,-28.5358"/>
<polygon fill="midnightblue" stroke="midnightblue" points="107.108,-41.5656 98.324,-47.4899 108.885,-48.3362 107.108,-41.5656"/>
</g>
</g>
</svg>
