<?xml version="1.0" encoding="UTF-8" standalone="no"?>
<!DOCTYPE svg PUBLIC "-//W3C//DTD SVG 1.1//EN"
 "http://www.w3.org/Graphics/SVG/1.1/DTD/svg11.dtd">
<!-- Generated by graphviz version 2.38.0 (20140413.2041)
 -->
<!-- Title: mappel::copy_Usym_mat Pages: 1 -->
<svg width="604pt" height="84pt"
 viewBox="0.00 0.00 604.00 84.00" xmlns="http://www.w3.org/2000/svg" xmlns:xlink="http://www.w3.org/1999/xlink">
<g id="graph0" class="graph" transform="scale(1 1) rotate(0) translate(4 80)">
<title>mappel::copy_Usym_mat</title>
<polygon fill="white" stroke="none" points="-4,4 -4,-80 600,-80 600,4 -4,4"/>
<!-- Node1 -->
<g id="node1" class="node"><title>Node1</title>
<polygon fill="#bfbfbf" stroke="black" points="0,-28.5 0,-46.5 120,-46.5 120,-28.5 0,-28.5"/>
<text text-anchor="middle" x="60" y="-35.3" font-family="Helvetica,sans-Serif" font-size="9.00">mappel::copy_Usym_mat</text>
</g>
<!-- Node2 -->
<g id="node2" class="node"><title>Node2</title>
<g id="a_node2"><a xlink:href="namespacemappel.html#a2f4256e721d1f22f2d72817ba3d2540d" target="_top" xlink:title="mappel::cholesky_convert\l_full_matrix">
<polygon fill="white" stroke="black" points="156,-23.5 156,-51.5 279,-51.5 279,-23.5 156,-23.5"/>
<text text-anchor="start" x="164" y="-40.3" font-family="Helvetica,sans-Serif" font-size="9.00">mappel::cholesky_convert</text>
<text text-anchor="middle" x="217.5" y="-30.3" font-family="Helvetica,sans-Serif" font-size="9.00">_full_matrix</text>
</a>
</g>
</g>
<!-- Node1&#45;&gt;Node2 -->
<g id="edge1" class="edge"><title>Node1&#45;&gt;Node2</title>
<path fill="none" stroke="midnightblue" d="M130.475,-37.5C138.949,-37.5 147.555,-37.5 155.886,-37.5"/>
<polygon fill="midnightblue" stroke="midnightblue" points="130.232,-34.0001 120.231,-37.5 130.231,-41.0001 130.232,-34.0001"/>
</g>
<!-- Node3 -->
<g id="node3" class="node"><title>Node3</title>
<g id="a_node3"><a xlink:href="namespacemappel.html#af0d85d0ac01f8397a555efb5912fc2ea" target="_top" xlink:title="mappel::cholesky_make\l_negative_definite">
<polygon fill="white" stroke="black" points="315,-47.5 315,-75.5 431,-75.5 431,-47.5 315,-47.5"/>
<text text-anchor="start" x="323" y="-64.3" font-family="Helvetica,sans-Serif" font-size="9.00">mappel::cholesky_make</text>
<text text-anchor="middle" x="373" y="-54.3" font-family="Helvetica,sans-Serif" font-size="9.00">_negative_definite</text>
</a>
</g>
</g>
<!-- Node2&#45;&gt;Node3 -->
<g id="edge2" class="edge"><title>Node2&#45;&gt;Node3</title>
<path fill="none" stroke="midnightblue" d="M289.165,-48.5486C297.743,-49.8898 306.424,-51.2471 314.774,-52.5526"/>
<polygon fill="midnightblue" stroke="midnightblue" points="289.588,-45.0723 279.167,-46.9854 288.507,-51.9883 289.588,-45.0723"/>
</g>
<!-- Node5 -->
<g id="node5" class="node"><title>Node5</title>
<g id="a_node5"><a xlink:href="namespacemappel.html#af22fb1e606ca14f8b46ffde3b8833a9f" target="_top" xlink:title="mappel::cholesky_make\l_positive_definite">
<polygon fill="white" stroke="black" points="315,-0.5 315,-28.5 431,-28.5 431,-0.5 315,-0.5"/>
<text text-anchor="start" x="323" y="-17.3" font-family="Helvetica,sans-Serif" font-size="9.00">mappel::cholesky_make</text>
<text text-anchor="middle" x="373" y="-7.3" font-family="Helvetica,sans-Serif" font-size="9.00">_positive_definite</text>
</a>
</g>
</g>
<!-- Node2&#45;&gt;Node5 -->
<g id="edge4" class="edge"><title>Node2&#45;&gt;Node5</title>
<path fill="none" stroke="midnightblue" d="M289.165,-26.9118C297.743,-25.6264 306.424,-24.3257 314.774,-23.0746"/>
<polygon fill="midnightblue" stroke="midnightblue" points="288.538,-23.4665 279.167,-28.4098 289.576,-30.3892 288.538,-23.4665"/>
</g>
<!-- Node4 -->
<g id="node4" class="node"><title>Node4</title>
<g id="a_node4"><a xlink:href="namespacemappel_1_1methods_1_1objective.html#a8c40861cc75e4165606b495a6c04c62a" target="_top" xlink:title="mappel::methods::objective\l::negative_definite_hessian">
<polygon fill="white" stroke="black" points="467,-47.5 467,-75.5 596,-75.5 596,-47.5 467,-47.5"/>
<text text-anchor="start" x="475" y="-64.3" font-family="Helvetica,sans-Serif" font-size="9.00">mappel::methods::objective</text>
<text text-anchor="middle" x="531.5" y="-54.3" font-family="Helvetica,sans-Serif" font-size="9.00">::negative_definite_hessian</text>
</a>
</g>
</g>
<!-- Node3&#45;&gt;Node4 -->
<g id="edge3" class="edge"><title>Node3&#45;&gt;Node4</title>
<path fill="none" stroke="midnightblue" d="M441.508,-61.5C449.897,-61.5 458.453,-61.5 466.782,-61.5"/>
<polygon fill="midnightblue" stroke="midnightblue" points="441.386,-58.0001 431.386,-61.5 441.386,-65.0001 441.386,-58.0001"/>
</g>
</g>
</svg>
