<?xml version="1.0" encoding="UTF-8" standalone="no"?>
<!DOCTYPE svg PUBLIC "-//W3C//DTD SVG 1.1//EN"
 "http://www.w3.org/Graphics/SVG/1.1/DTD/svg11.dtd">
<!-- Generated by graphviz version 2.38.0 (20140413.2041)
 -->
<!-- Title: mappel::cholesky_solve Pages: 1 -->
<svg width="333pt" height="84pt"
 viewBox="0.00 0.00 333.00 84.00" xmlns="http://www.w3.org/2000/svg" xmlns:xlink="http://www.w3.org/1999/xlink">
<g id="graph0" class="graph" transform="scale(1 1) rotate(0) translate(4 80)">
<title>mappel::cholesky_solve</title>
<polygon fill="white" stroke="none" points="-4,4 -4,-80 329,-80 329,4 -4,4"/>
<!-- Node1 -->
<g id="node1" class="node"><title>Node1</title>
<polygon fill="#bfbfbf" stroke="black" points="0,-28.5 0,-46.5 115,-46.5 115,-28.5 0,-28.5"/>
<text text-anchor="middle" x="57.5" y="-35.3" font-family="Helvetica,sans-Serif" font-size="9.00">mappel::cholesky_solve</text>
</g>
<!-- Node2 -->
<g id="node2" class="node"><title>Node2</title>
<g id="a_node2"><a xlink:href="classmappel_1_1TrustRegionMaximizer.html#af32ed521848406591d8a77d5a8abb7be" target="_top" xlink:title="mappel::TrustRegionMaximizer\l::solve_restricted_step_length_newton">
<polygon fill="white" stroke="black" points="151,-47.5 151,-75.5 325,-75.5 325,-47.5 151,-47.5"/>
<text text-anchor="start" x="159" y="-64.3" font-family="Helvetica,sans-Serif" font-size="9.00">mappel::TrustRegionMaximizer</text>
<text text-anchor="middle" x="238" y="-54.3" font-family="Helvetica,sans-Serif" font-size="9.00">::solve_restricted_step_length_newton</text>
</a>
</g>
</g>
<!-- Node1&#45;&gt;Node2 -->
<g id="edge1" class="edge"><title>Node1&#45;&gt;Node2</title>
<path fill="none" stroke="midnightblue" d="M125.47,-46.5044C133.799,-47.6242 142.404,-48.7812 150.97,-49.9329"/>
<polygon fill="midnightblue" stroke="midnightblue" points="125.847,-43.0236 115.469,-45.1597 124.914,-49.9612 125.847,-43.0236"/>
</g>
<!-- Node3 -->
<g id="node3" class="node"><title>Node3</title>
<g id="a_node3"><a xlink:href="classmappel_1_1TrustRegionMaximizer.html#a3e6778bb5392353348ffe1c1c7a775b4" target="_top" xlink:title="Exactly solver the TR subproblem even for non&#45;positive definite H. ">
<polygon fill="white" stroke="black" points="166,-0.5 166,-28.5 310,-28.5 310,-0.5 166,-0.5"/>
<text text-anchor="start" x="174" y="-17.3" font-family="Helvetica,sans-Serif" font-size="9.00">mappel::TrustRegionMaximizer</text>
<text text-anchor="middle" x="238" y="-7.3" font-family="Helvetica,sans-Serif" font-size="9.00">::solve_TR_subproblem</text>
</a>
</g>
</g>
<!-- Node1&#45;&gt;Node3 -->
<g id="edge2" class="edge"><title>Node1&#45;&gt;Node3</title>
<path fill="none" stroke="midnightblue" d="M125.408,-28.8788C138.61,-27.1777 152.51,-25.3867 165.846,-23.6683"/>
<polygon fill="midnightblue" stroke="midnightblue" points="124.94,-25.4101 115.469,-30.1594 125.835,-32.3527 124.94,-25.4101"/>
</g>
</g>
</svg>
