<?xml version="1.0" encoding="UTF-8" standalone="no"?>
<!DOCTYPE svg PUBLIC "-//W3C//DTD SVG 1.1//EN"
 "http://www.w3.org/Graphics/SVG/1.1/DTD/svg11.dtd">
<!-- Generated by graphviz version 2.38.0 (20140413.2041)
 -->
<!-- Title: mappel::mcmc::sample_posterior_debug Pages: 1 -->
<svg width="306pt" height="37pt"
 viewBox="0.00 0.00 306.00 37.00" xmlns="http://www.w3.org/2000/svg" xmlns:xlink="http://www.w3.org/1999/xlink">
<g id="graph0" class="graph" transform="scale(1 1) rotate(0) translate(4 33)">
<title>mappel::mcmc::sample_posterior_debug</title>
<polygon fill="white" stroke="none" points="-4,4 -4,-33 302,-33 302,4 -4,4"/>
<!-- Node1 -->
<g id="node1" class="node"><title>Node1</title>
<polygon fill="#bfbfbf" stroke="black" points="0,-0.5 0,-28.5 110,-28.5 110,-0.5 0,-0.5"/>
<text text-anchor="start" x="8" y="-17.3" font-family="Helvetica,sans-Serif" font-size="9.00">mappel::mcmc::sample</text>
<text text-anchor="middle" x="55" y="-7.3" font-family="Helvetica,sans-Serif" font-size="9.00">_posterior_debug</text>
</g>
<!-- Node2 -->
<g id="node2" class="node"><title>Node2</title>
<g id="a_node2"><a xlink:href="namespacemappel_1_1methods_1_1debug.html#ab463288fab7e102729d075d60d9e15e0" target="_top" xlink:title="mappel::methods::debug\l::estimate_mcmc_sample_debug">
<polygon fill="white" stroke="black" points="146,-0.5 146,-28.5 298,-28.5 298,-0.5 146,-0.5"/>
<text text-anchor="start" x="154" y="-17.3" font-family="Helvetica,sans-Serif" font-size="9.00">mappel::methods::debug</text>
<text text-anchor="middle" x="222" y="-7.3" font-family="Helvetica,sans-Serif" font-size="9.00">::estimate_mcmc_sample_debug</text>
</a>
</g>
</g>
<!-- Node1&#45;&gt;Node2 -->
<g id="edge1" class="edge"><title>Node1&#45;&gt;Node2</title>
<path fill="none" stroke="midnightblue" d="M120.155,-14.5C128.588,-14.5 137.291,-14.5 145.886,-14.5"/>
<polygon fill="midnightblue" stroke="midnightblue" points="120.027,-11.0001 110.027,-14.5 120.027,-18.0001 120.027,-11.0001"/>
</g>
</g>
</svg>
