<?xml version="1.0" encoding="UTF-8" standalone="no"?>
<!DOCTYPE svg PUBLIC "-//W3C//DTD SVG 1.1//EN"
 "http://www.w3.org/Graphics/SVG/1.1/DTD/svg11.dtd">
<!-- Generated by graphviz version 2.38.0 (20140413.2041)
 -->
<!-- Title: mappel::methods::openmp::simulate_image_stack Pages: 1 -->
<svg width="295pt" height="102pt"
 viewBox="0.00 0.00 295.00 102.00" xmlns="http://www.w3.org/2000/svg" xmlns:xlink="http://www.w3.org/1999/xlink">
<g id="graph0" class="graph" transform="scale(1 1) rotate(0) translate(4 98)">
<title>mappel::methods::openmp::simulate_image_stack</title>
<polygon fill="white" stroke="none" points="-4,4 -4,-98 291,-98 291,4 -4,4"/>
<!-- Node1 -->
<g id="node1" class="node"><title>Node1</title>
<polygon fill="#bfbfbf" stroke="black" points="0,-32.5 0,-60.5 125,-60.5 125,-32.5 0,-32.5"/>
<text text-anchor="start" x="8" y="-49.3" font-family="Helvetica,sans-Serif" font-size="9.00">mappel::methods::openmp</text>
<text text-anchor="middle" x="62.5" y="-39.3" font-family="Helvetica,sans-Serif" font-size="9.00">::simulate_image_stack</text>
</g>
<!-- Node2 -->
<g id="node2" class="node"><title>Node2</title>
<g id="a_node2"><a xlink:href="namespacemappel_1_1methods.html#ae92825adbc9f0eea36c2b0afdbf40d66" target="_top" xlink:title="mappel::methods::model\l_image">
<polygon fill="white" stroke="black" points="165.5,-65.5 165.5,-93.5 282.5,-93.5 282.5,-65.5 165.5,-65.5"/>
<text text-anchor="start" x="173.5" y="-82.3" font-family="Helvetica,sans-Serif" font-size="9.00">mappel::methods::model</text>
<text text-anchor="middle" x="224" y="-72.3" font-family="Helvetica,sans-Serif" font-size="9.00">_image</text>
</a>
</g>
</g>
<!-- Node1&#45;&gt;Node2 -->
<g id="edge1" class="edge"><title>Node1&#45;&gt;Node2</title>
<path fill="none" stroke="midnightblue" d="M125.167,-59.2587C135.095,-61.3127 145.417,-63.4484 155.474,-65.5291"/>
<polygon fill="midnightblue" stroke="midnightblue" points="154.916,-68.9877 165.418,-67.5864 156.334,-62.1329 154.916,-68.9877"/>
</g>
<!-- Node3 -->
<g id="node3" class="node"><title>Node3</title>
<g id="a_node3"><a xlink:href="namespacemappel_1_1methods.html#a950d7858d6cc0ffb6e651776a24c9e35" target="_top" xlink:title="mappel::methods::simulate\l_image">
<polygon fill="white" stroke="black" points="161,-0.5 161,-28.5 287,-28.5 287,-0.5 161,-0.5"/>
<text text-anchor="start" x="169" y="-17.3" font-family="Helvetica,sans-Serif" font-size="9.00">mappel::methods::simulate</text>
<text text-anchor="middle" x="224" y="-7.3" font-family="Helvetica,sans-Serif" font-size="9.00">_image</text>
</a>
</g>
</g>
<!-- Node1&#45;&gt;Node3 -->
<g id="edge2" class="edge"><title>Node1&#45;&gt;Node3</title>
<path fill="none" stroke="midnightblue" d="M125.167,-34.128C133.61,-32.4341 142.338,-30.6829 150.946,-28.956"/>
<polygon fill="midnightblue" stroke="midnightblue" points="151.855,-32.3435 160.971,-26.9447 150.478,-25.4802 151.855,-32.3435"/>
</g>
<!-- Node3&#45;&gt;Node3 -->
<g id="edge3" class="edge"><title>Node3&#45;&gt;Node3</title>
<path fill="none" stroke="midnightblue" d="M196.644,-28.5305C188.944,-37.8898 198.062,-47 224,-47 240.211,-47 249.852,-43.4413 252.923,-38.4873"/>
<polygon fill="midnightblue" stroke="midnightblue" points="256.368,-37.8646 251.356,-28.5305 249.454,-38.9531 256.368,-37.8646"/>
</g>
</g>
</svg>
