<?xml version="1.0" encoding="UTF-8" standalone="no"?>
<!DOCTYPE svg PUBLIC "-//W3C//DTD SVG 1.1//EN"
 "http://www.w3.org/Graphics/SVG/1.1/DTD/svg11.dtd">
<!-- Generated by graphviz version 2.38.0 (20140413.2041)
 -->
<!-- Title: mappel::cgauss_compute_estimate_debug Pages: 1 -->
<svg width="289pt" height="37pt"
 viewBox="0.00 0.00 289.00 37.00" xmlns="http://www.w3.org/2000/svg" xmlns:xlink="http://www.w3.org/1999/xlink">
<g id="graph0" class="graph" transform="scale(1 1) rotate(0) translate(4 33)">
<title>mappel::cgauss_compute_estimate_debug</title>
<polygon fill="white" stroke="none" points="-4,4 -4,-33 285,-33 285,4 -4,4"/>
<!-- Node1 -->
<g id="node1" class="node"><title>Node1</title>
<polygon fill="#bfbfbf" stroke="black" points="0,-0.5 0,-28.5 122,-28.5 122,-0.5 0,-0.5"/>
<text text-anchor="start" x="8" y="-17.3" font-family="Helvetica,sans-Serif" font-size="9.00">mappel::cgauss_compute</text>
<text text-anchor="middle" x="61" y="-7.3" font-family="Helvetica,sans-Serif" font-size="9.00">_estimate_debug</text>
</g>
<!-- Node2 -->
<g id="node2" class="node"><title>Node2</title>
<g id="a_node2"><a xlink:href="classmappel_1_1CGaussMLE.html#a6bf98b8144f4cd5f548b49f32a95141e" target="_top" xlink:title="mappel::CGaussMLE::\lcompute_estimate_debug">
<polygon fill="white" stroke="black" points="158,-0.5 158,-28.5 281,-28.5 281,-0.5 158,-0.5"/>
<text text-anchor="start" x="166" y="-17.3" font-family="Helvetica,sans-Serif" font-size="9.00">mappel::CGaussMLE::</text>
<text text-anchor="middle" x="219.5" y="-7.3" font-family="Helvetica,sans-Serif" font-size="9.00">compute_estimate_debug</text>
</a>
</g>
</g>
<!-- Node1&#45;&gt;Node2 -->
<g id="edge1" class="edge"><title>Node1&#45;&gt;Node2</title>
<path fill="none" stroke="midnightblue" d="M132.062,-14.5C140.657,-14.5 149.385,-14.5 157.825,-14.5"/>
<polygon fill="midnightblue" stroke="midnightblue" points="132.059,-11.0001 122.059,-14.5 132.059,-18.0001 132.059,-11.0001"/>
</g>
</g>
</svg>
