<?xml version="1.0" encoding="UTF-8" standalone="no"?>
<!DOCTYPE svg PUBLIC "-//W3C//DTD SVG 1.1//EN"
 "http://www.w3.org/Graphics/SVG/1.1/DTD/svg11.dtd">
<!-- Generated by graphviz version 2.38.0 (20140413.2041)
 -->
<!-- Title: mappel::cholesky Pages: 1 -->
<svg width="491pt" height="154pt"
 viewBox="0.00 0.00 491.00 154.00" xmlns="http://www.w3.org/2000/svg" xmlns:xlink="http://www.w3.org/1999/xlink">
<g id="graph0" class="graph" transform="scale(1 1) rotate(0) translate(4 150)">
<title>mappel::cholesky</title>
<polygon fill="white" stroke="none" points="-4,4 -4,-150 487,-150 487,4 -4,4"/>
<!-- Node1 -->
<g id="node1" class="node"><title>Node1</title>
<polygon fill="#bfbfbf" stroke="black" points="0,-52.5 0,-70.5 88,-70.5 88,-52.5 0,-52.5"/>
<text text-anchor="middle" x="44" y="-59.3" font-family="Helvetica,sans-Serif" font-size="9.00">mappel::cholesky</text>
</g>
<!-- Node2 -->
<g id="node2" class="node"><title>Node2</title>
<g id="a_node2"><a xlink:href="namespacemappel.html#a3ffbe5273f0e95ef18a3bc26bc207489" target="_top" xlink:title="mappel::is_positive\l_definite">
<polygon fill="white" stroke="black" points="163.5,-94.5 163.5,-122.5 258.5,-122.5 258.5,-94.5 163.5,-94.5"/>
<text text-anchor="start" x="171.5" y="-111.3" font-family="Helvetica,sans-Serif" font-size="9.00">mappel::is_positive</text>
<text text-anchor="middle" x="211" y="-101.3" font-family="Helvetica,sans-Serif" font-size="9.00">_definite</text>
</a>
</g>
</g>
<!-- Node1&#45;&gt;Node2 -->
<g id="edge1" class="edge"><title>Node1&#45;&gt;Node2</title>
<path fill="none" stroke="midnightblue" d="M83.708,-73.5429C96.5078,-77.4494 110.84,-81.7424 124,-85.5 136.632,-89.1069 150.357,-92.8542 163.056,-96.2511"/>
<polygon fill="midnightblue" stroke="midnightblue" points="84.4099,-70.0973 73.8231,-70.5105 82.3569,-76.7895 84.4099,-70.0973"/>
</g>
<!-- Node5 -->
<g id="node5" class="node"><title>Node5</title>
<g id="a_node5"><a xlink:href="classmappel_1_1TrustRegionMaximizer.html#af32ed521848406591d8a77d5a8abb7be" target="_top" xlink:title="mappel::TrustRegionMaximizer\l::solve_restricted_step_length_newton">
<polygon fill="white" stroke="black" points="124,-47.5 124,-75.5 298,-75.5 298,-47.5 124,-47.5"/>
<text text-anchor="start" x="132" y="-64.3" font-family="Helvetica,sans-Serif" font-size="9.00">mappel::TrustRegionMaximizer</text>
<text text-anchor="middle" x="211" y="-54.3" font-family="Helvetica,sans-Serif" font-size="9.00">::solve_restricted_step_length_newton</text>
</a>
</g>
</g>
<!-- Node1&#45;&gt;Node5 -->
<g id="edge4" class="edge"><title>Node1&#45;&gt;Node5</title>
<path fill="none" stroke="midnightblue" d="M98.421,-61.5C106.577,-61.5 115.167,-61.5 123.811,-61.5"/>
<polygon fill="midnightblue" stroke="midnightblue" points="98.3518,-58.0001 88.3518,-61.5 98.3518,-65.0001 98.3518,-58.0001"/>
</g>
<!-- Node6 -->
<g id="node6" class="node"><title>Node6</title>
<g id="a_node6"><a xlink:href="classmappel_1_1TrustRegionMaximizer.html#a3e6778bb5392353348ffe1c1c7a775b4" target="_top" xlink:title="Exactly solver the TR subproblem even for non&#45;positive definite H. ">
<polygon fill="white" stroke="black" points="139,-0.5 139,-28.5 283,-28.5 283,-0.5 139,-0.5"/>
<text text-anchor="start" x="147" y="-17.3" font-family="Helvetica,sans-Serif" font-size="9.00">mappel::TrustRegionMaximizer</text>
<text text-anchor="middle" x="211" y="-7.3" font-family="Helvetica,sans-Serif" font-size="9.00">::solve_TR_subproblem</text>
</a>
</g>
</g>
<!-- Node1&#45;&gt;Node6 -->
<g id="edge5" class="edge"><title>Node1&#45;&gt;Node6</title>
<path fill="none" stroke="midnightblue" d="M85.3546,-49.6571C97.7444,-46.0464 111.426,-42.0848 124,-38.5 135.329,-35.2701 147.512,-31.8427 159.042,-28.6197"/>
<polygon fill="midnightblue" stroke="midnightblue" points="84.3594,-46.3014 75.741,-52.4637 86.3211,-53.021 84.3594,-46.3014"/>
</g>
<!-- Node3 -->
<g id="node3" class="node"><title>Node3</title>
<g id="a_node3"><a xlink:href="classmappel_1_1QuasiNewtonMaximizer.html#ab4d32d8ba90d4355262a228753619b9f" target="_top" xlink:title="mappel::QuasiNewtonMaximizer\l::maximize">
<polygon fill="white" stroke="black" points="334,-117.5 334,-145.5 483,-145.5 483,-117.5 334,-117.5"/>
<text text-anchor="start" x="342" y="-134.3" font-family="Helvetica,sans-Serif" font-size="9.00">mappel::QuasiNewtonMaximizer</text>
<text text-anchor="middle" x="408.5" y="-124.3" font-family="Helvetica,sans-Serif" font-size="9.00">::maximize</text>
</a>
</g>
</g>
<!-- Node2&#45;&gt;Node3 -->
<g id="edge2" class="edge"><title>Node2&#45;&gt;Node3</title>
<path fill="none" stroke="midnightblue" d="M268.865,-115.19C289.198,-117.582 312.41,-120.313 333.95,-122.847"/>
<polygon fill="midnightblue" stroke="midnightblue" points="269.168,-111.702 258.827,-114.009 268.35,-118.654 269.168,-111.702"/>
</g>
<!-- Node4 -->
<g id="node4" class="node"><title>Node4</title>
<g id="a_node4"><a xlink:href="namespacemappel.html#ad631839d6d2c62198d21364ca379f529" target="_top" xlink:title="mappel::is_negative\l_definite">
<polygon fill="white" stroke="black" points="359,-70.5 359,-98.5 458,-98.5 458,-70.5 359,-70.5"/>
<text text-anchor="start" x="367" y="-87.3" font-family="Helvetica,sans-Serif" font-size="9.00">mappel::is_negative</text>
<text text-anchor="middle" x="408.5" y="-77.3" font-family="Helvetica,sans-Serif" font-size="9.00">_definite</text>
</a>
</g>
</g>
<!-- Node2&#45;&gt;Node4 -->
<g id="edge3" class="edge"><title>Node2&#45;&gt;Node4</title>
<path fill="none" stroke="midnightblue" d="M269.023,-101.5C297.446,-98.0104 331.464,-93.8343 358.67,-90.4944"/>
<polygon fill="midnightblue" stroke="midnightblue" points="268.326,-98.0589 258.827,-102.751 269.179,-105.007 268.326,-98.0589"/>
</g>
</g>
</svg>
