<?xml version="1.0" encoding="UTF-8" standalone="no"?>
<!DOCTYPE svg PUBLIC "-//W3C//DTD SVG 1.1//EN"
 "http://www.w3.org/Graphics/SVG/1.1/DTD/svg11.dtd">
<!-- Generated by graphviz version 2.38.0 (20140413.2041)
 -->
<!-- Title: mappel::fill_DXS2_stencil Pages: 1 -->
<!--zoomable 84 -->
<svg id="main" version="1.1" xmlns="http://www.w3.org/2000/svg" xmlns:xlink="http://www.w3.org/1999/xlink" xml:space="preserve" onload="init(evt)">
<style type="text/css"><![CDATA[
.edge:hover path { stroke: red; }
.edge:hover polygon { stroke: red; fill: red; }
]]></style>
<script type="text/javascript"><![CDATA[
var edges = document.getElementsByTagName('g');
if (edges && edges.length) {
  for (var i=0;i<edges.length;i++) {
    if (edges[i].id.substr(0,4)=='edge') {
      edges[i].setAttribute('class','edge');
    }
  }
}
]]></script>
        <defs>
                <circle id="rim" cx="0" cy="0" r="7"/>
                <circle id="rim2" cx="0" cy="0" r="3.5"/>
                <g id="zoomPlus">
                        <use xlink:href="#rim" fill="#404040">
                                <set attributeName="fill" to="#808080" begin="zoomplus.mouseover" end="zoomplus.mouseout"/>
                        </use>
                        <path d="M-4,0h8M0,-4v8" fill="none" stroke="white" stroke-width="1.5" pointer-events="none"/>
                </g>
                <g id="zoomMin">
                        <use xlink:href="#rim" fill="#404040">
                                <set attributeName="fill" to="#808080" begin="zoomminus.mouseover" end="zoomminus.mouseout"/>
                        </use>
                        <path d="M-4,0h8" fill="none" stroke="white" stroke-width="1.5" pointer-events="none"/>
                </g>
                <g id="dirArrow">
                        <path fill="none" stroke="white" stroke-width="1.5" d="M0,-3.0v7 M-2.5,-0.5L0,-3.0L2.5,-0.5"/>
                </g>
               <g id="resetDef">
                       <use xlink:href="#rim2" fill="#404040">
                               <set attributeName="fill" to="#808080" begin="reset.mouseover" end="reset.mouseout"/>
                       </use>
               </g>
        </defs>

<script type="text/javascript">
var viewWidth = 631;
var viewHeight = 84;
var sectionId = 'dynsection-19';
</script>
<script xlink:href="svgpan.js"/>
<svg id="graph" class="graph">
<g id="viewport">
<title>mappel::fill_DXS2_stencil</title>
<polygon fill="white" stroke="none" points="-4,4 -4,-80 627,-80 627,4 -4,4"/>
<!-- Node1 -->
<g id="node1" class="node"><title>Node1</title>
<polygon fill="#bfbfbf" stroke="black" points="0,-28.5 0,-46.5 122,-46.5 122,-28.5 0,-28.5"/>
<text text-anchor="middle" x="61" y="-35.3" font-family="Helvetica,sans-Serif" font-size="9.00">mappel::fill_DXS2_stencil</text>
</g>
<!-- Node2 -->
<g id="node2" class="node"><title>Node2</title>
<g id="a_node2"><a xlink:href="namespacemappel.html#aef14b765af6f9b85d93f42ab8b84311b" target="_top" xlink:title="mappel::make_DXS2_stencil">
<polygon fill="white" stroke="black" points="158,-28.5 158,-46.5 293,-46.5 293,-28.5 158,-28.5"/>
<text text-anchor="middle" x="225.5" y="-35.3" font-family="Helvetica,sans-Serif" font-size="9.00">mappel::make_DXS2_stencil</text>
</a>
</g>
</g>
<!-- Node1&#45;&gt;Node2 -->
<g id="edge1" class="edge"><title>Node1&#45;&gt;Node2</title>
<path fill="none" stroke="midnightblue" d="M132.293,-37.5C140.779,-37.5 149.428,-37.5 157.86,-37.5"/>
<polygon fill="midnightblue" stroke="midnightblue" points="132.047,-34.0001 122.047,-37.5 132.047,-41.0001 132.047,-34.0001"/>
</g>
<!-- Node3 -->
<g id="node3" class="node"><title>Node3</title>
<g id="a_node3"><a xlink:href="classmappel_1_1Gauss1DsModel_1_1Stencil.html#a9e8b6059b84e28bea0ba3496bc95e7ce" target="_top" xlink:title="mappel::Gauss1DsModel\l::Stencil::compute_derivatives">
<polygon fill="white" stroke="black" points="329,-47.5 329,-75.5 467,-75.5 467,-47.5 329,-47.5"/>
<text text-anchor="start" x="337" y="-64.3" font-family="Helvetica,sans-Serif" font-size="9.00">mappel::Gauss1DsModel</text>
<text text-anchor="middle" x="398" y="-54.3" font-family="Helvetica,sans-Serif" font-size="9.00">::Stencil::compute_derivatives</text>
</a>
</g>
</g>
<!-- Node2&#45;&gt;Node3 -->
<g id="edge2" class="edge"><title>Node2&#45;&gt;Node3</title>
<path fill="none" stroke="midnightblue" d="M300.605,-47.9312C310.03,-49.2578 319.639,-50.6105 328.962,-51.9228"/>
<polygon fill="midnightblue" stroke="midnightblue" points="300.863,-44.4331 290.473,-46.505 299.887,-51.3648 300.863,-44.4331"/>
</g>
<!-- Node5 -->
<g id="node5" class="node"><title>Node5</title>
<g id="a_node5"><a xlink:href="classmappel_1_1Gauss2DsModel_1_1Stencil.html#ab11c806f8335bbafeb3db7476526680d" target="_top" xlink:title="mappel::Gauss2DsModel\l::Stencil::compute_derivatives">
<polygon fill="white" stroke="black" points="329,-0.5 329,-28.5 467,-28.5 467,-0.5 329,-0.5"/>
<text text-anchor="start" x="337" y="-17.3" font-family="Helvetica,sans-Serif" font-size="9.00">mappel::Gauss2DsModel</text>
<text text-anchor="middle" x="398" y="-7.3" font-family="Helvetica,sans-Serif" font-size="9.00">::Stencil::compute_derivatives</text>
</a>
</g>
</g>
<!-- Node2&#45;&gt;Node5 -->
<g id="edge4" class="edge"><title>Node2&#45;&gt;Node5</title>
<path fill="none" stroke="midnightblue" d="M303.33,-27.1359C311.853,-25.9861 320.49,-24.821 328.895,-23.6872"/>
<polygon fill="midnightblue" stroke="midnightblue" points="302.839,-23.6703 293.397,-28.4758 303.775,-30.6074 302.839,-23.6703"/>
</g>
<!-- Node4 -->
<g id="node4" class="node"><title>Node4</title>
<g id="a_node4"><a xlink:href="classmappel_1_1Gauss1DsModel_1_1Stencil.html#ae4f12261a80d8ed1a2d3652c0e7b629b" target="_top" xlink:title="mappel::Gauss1DsModel\l::Stencil::Stencil">
<polygon fill="white" stroke="black" points="503,-47.5 503,-75.5 623,-75.5 623,-47.5 503,-47.5"/>
<text text-anchor="start" x="511" y="-64.3" font-family="Helvetica,sans-Serif" font-size="9.00">mappel::Gauss1DsModel</text>
<text text-anchor="middle" x="563" y="-54.3" font-family="Helvetica,sans-Serif" font-size="9.00">::Stencil::Stencil</text>
</a>
</g>
</g>
<!-- Node3&#45;&gt;Node4 -->
<g id="edge3" class="edge"><title>Node3&#45;&gt;Node4</title>
<path fill="none" stroke="midnightblue" d="M477.262,-61.5C485.886,-61.5 494.56,-61.5 502.894,-61.5"/>
<polygon fill="midnightblue" stroke="midnightblue" points="477.182,-58.0001 467.182,-61.5 477.182,-65.0001 477.182,-58.0001"/>
</g>
<!-- Node6 -->
<g id="node6" class="node"><title>Node6</title>
<g id="a_node6"><a xlink:href="classmappel_1_1Gauss2DsModel_1_1Stencil.html#a924f5f8d4524831f1ef50041b85a842f" target="_top" xlink:title="mappel::Gauss2DsModel\l::Stencil::Stencil">
<polygon fill="white" stroke="black" points="503,-0.5 503,-28.5 623,-28.5 623,-0.5 503,-0.5"/>
<text text-anchor="start" x="511" y="-17.3" font-family="Helvetica,sans-Serif" font-size="9.00">mappel::Gauss2DsModel</text>
<text text-anchor="middle" x="563" y="-7.3" font-family="Helvetica,sans-Serif" font-size="9.00">::Stencil::Stencil</text>
</a>
</g>
</g>
<!-- Node5&#45;&gt;Node6 -->
<g id="edge5" class="edge"><title>Node5&#45;&gt;Node6</title>
<path fill="none" stroke="midnightblue" d="M477.262,-14.5C485.886,-14.5 494.56,-14.5 502.894,-14.5"/>
<polygon fill="midnightblue" stroke="midnightblue" points="477.182,-11.0001 467.182,-14.5 477.182,-18.0001 477.182,-11.0001"/>
</g>
</g>
</svg>
        <g id="navigator" transform="translate(0 0)" fill="#404254">
                <rect fill="#f2f5e9" fill-opacity="0.5" stroke="#606060" stroke-width=".5" x="0" y="0" width="60" height="60"/>
                <use id="zoomplus" xlink:href="#zoomPlus" x="17" y="9" onmousedown="handleZoom(evt,'in')"/>
                <use id="zoomminus" xlink:href="#zoomMin" x="42" y="9" onmousedown="handleZoom(evt,'out')"/>
                <use id="reset" xlink:href="#resetDef" x="30" y="36" onmousedown="handleReset()"/>
                <g id="arrowUp" xlink:href="#dirArrow" transform="translate(30 24)" onmousedown="handlePan(0,-1)">
                  <use xlink:href="#rim" fill="#404040">
                        <set attributeName="fill" to="#808080" begin="arrowUp.mouseover" end="arrowUp.mouseout"/>
                  </use>
                  <path fill="none" stroke="white" stroke-width="1.5" d="M0,-3.0v7 M-2.5,-0.5L0,-3.0L2.5,-0.5"/>
                </g>
                <g id="arrowRight" xlink:href="#dirArrow" transform="rotate(90) translate(36 -43)" onmousedown="handlePan(1,0)">
                  <use xlink:href="#rim" fill="#404040">
                        <set attributeName="fill" to="#808080" begin="arrowRight.mouseover" end="arrowRight.mouseout"/>
                  </use>
                  <path fill="none" stroke="white" stroke-width="1.5" d="M0,-3.0v7 M-2.5,-0.5L0,-3.0L2.5,-0.5"/>
                </g>
                <g id="arrowDown" xlink:href="#dirArrow" transform="rotate(180) translate(-30 -48)" onmousedown="handlePan(0,1)">
                  <use xlink:href="#rim" fill="#404040">
                        <set attributeName="fill" to="#808080" begin="arrowDown.mouseover" end="arrowDown.mouseout"/>
                  </use>
                  <path fill="none" stroke="white" stroke-width="1.5" d="M0,-3.0v7 M-2.5,-0.5L0,-3.0L2.5,-0.5"/>
                </g>
                <g id="arrowLeft" xlink:href="#dirArrow" transform="rotate(270) translate(-36 17)" onmousedown="handlePan(-1,0)">
                  <use xlink:href="#rim" fill="#404040">
                        <set attributeName="fill" to="#808080" begin="arrowLeft.mouseover" end="arrowLeft.mouseout"/>
                  </use>
                  <path fill="none" stroke="white" stroke-width="1.5" d="M0,-3.0v7 M-2.5,-0.5L0,-3.0L2.5,-0.5"/>
                </g>
        </g>
        <svg viewBox="0 0 15 15" width="100%" height="30px" preserveAspectRatio="xMaxYMin meet">
         <g id="arrow_out" transform="scale(0.3 0.3)">
          <a xlink:href="namespacemappel_a445e83c8273da9b3a50cc10d038ed612_icgraph_org.svg" target="_base">
           <rect id="button" ry="5" rx="5" y="6" x="6" height="38" width="38"
                fill="#f2f5e9" fill-opacity="0.5" stroke="#606060" stroke-width="1.0"/>
           <path id="arrow"
             d="M 11.500037,31.436501 C 11.940474,20.09759 22.043105,11.32322 32.158766,21.979434 L 37.068811,17.246167 C 37.068811,17.246167 37.088388,32 37.088388,32 L 22.160133,31.978069 C 22.160133,31.978069 26.997745,27.140456 26.997745,27.140456 C 18.528582,18.264221 13.291696,25.230495 11.500037,31.436501 z"
             style="fill:#404040;"/>
          </a>
         </g>
        </svg>
</svg>
