<?xml version="1.0" encoding="UTF-8" standalone="no"?>
<!DOCTYPE svg PUBLIC "-//W3C//DTD SVG 1.1//EN"
 "http://www.w3.org/Graphics/SVG/1.1/DTD/svg11.dtd">
<!-- Generated by graphviz version 2.38.0 (20140413.2041)
 -->
<!-- Title: mappel::gauss_norm Pages: 1 -->
<svg width="404pt" height="37pt"
 viewBox="0.00 0.00 404.00 37.00" xmlns="http://www.w3.org/2000/svg" xmlns:xlink="http://www.w3.org/1999/xlink">
<g id="graph0" class="graph" transform="scale(1 1) rotate(0) translate(4 33)">
<title>mappel::gauss_norm</title>
<polygon fill="white" stroke="none" points="-4,4 -4,-33 400,-33 400,4 -4,4"/>
<!-- Node1 -->
<g id="node1" class="node"><title>Node1</title>
<polygon fill="#bfbfbf" stroke="black" points="0,-5.5 0,-23.5 103,-23.5 103,-5.5 0,-5.5"/>
<text text-anchor="middle" x="51.5" y="-12.3" font-family="Helvetica,sans-Serif" font-size="9.00">mappel::gauss_norm</text>
</g>
<!-- Node2 -->
<g id="node2" class="node"><title>Node2</title>
<g id="a_node2"><a xlink:href="namespacemappel.html#a09a770c2a4eaa7c083abbac26ec70ff3" target="_top" xlink:title="mappel::fill_gaussian\l_stencil">
<polygon fill="white" stroke="black" points="139,-0.5 139,-28.5 243,-28.5 243,-0.5 139,-0.5"/>
<text text-anchor="start" x="147" y="-17.3" font-family="Helvetica,sans-Serif" font-size="9.00">mappel::fill_gaussian</text>
<text text-anchor="middle" x="191" y="-7.3" font-family="Helvetica,sans-Serif" font-size="9.00">_stencil</text>
</a>
</g>
</g>
<!-- Node1&#45;&gt;Node2 -->
<g id="edge1" class="edge"><title>Node1&#45;&gt;Node2</title>
<path fill="none" stroke="midnightblue" d="M113.542,-14.5C122.025,-14.5 130.666,-14.5 138.941,-14.5"/>
<polygon fill="midnightblue" stroke="midnightblue" points="113.309,-11.0001 103.309,-14.5 113.309,-18.0001 113.309,-11.0001"/>
</g>
<!-- Node3 -->
<g id="node3" class="node"><title>Node3</title>
<g id="a_node3"><a xlink:href="namespacemappel.html#ae7764483ad8e545319cacd2e91a1a849" target="_top" xlink:title="mappel::make_gaussian\l_stencil">
<polygon fill="white" stroke="black" points="279,-0.5 279,-28.5 396,-28.5 396,-0.5 279,-0.5"/>
<text text-anchor="start" x="287" y="-17.3" font-family="Helvetica,sans-Serif" font-size="9.00">mappel::make_gaussian</text>
<text text-anchor="middle" x="337.5" y="-7.3" font-family="Helvetica,sans-Serif" font-size="9.00">_stencil</text>
</a>
</g>
</g>
<!-- Node2&#45;&gt;Node3 -->
<g id="edge2" class="edge"><title>Node2&#45;&gt;Node3</title>
<path fill="none" stroke="midnightblue" d="M253.504,-14.5C261.934,-14.5 270.563,-14.5 278.919,-14.5"/>
<polygon fill="midnightblue" stroke="midnightblue" points="253.352,-11.0001 243.352,-14.5 253.352,-18.0001 253.352,-11.0001"/>
</g>
</g>
</svg>
