<?xml version="1.0" encoding="UTF-8" standalone="no"?>
<!DOCTYPE svg PUBLIC "-//W3C//DTD SVG 1.1//EN"
 "http://www.w3.org/Graphics/SVG/1.1/DTD/svg11.dtd">
<!-- Generated by graphviz version 2.38.0 (20140413.2041)
 -->
<!-- Title: mappel::methods::likelihood_objective Pages: 1 -->
<svg width="461pt" height="84pt"
 viewBox="0.00 0.00 461.00 84.00" xmlns="http://www.w3.org/2000/svg" xmlns:xlink="http://www.w3.org/1999/xlink">
<g id="graph0" class="graph" transform="scale(1 1) rotate(0) translate(4 80)">
<title>mappel::methods::likelihood_objective</title>
<polygon fill="white" stroke="none" points="-4,4 -4,-80 457,-80 457,4 -4,4"/>
<!-- Node1 -->
<g id="node1" class="node"><title>Node1</title>
<polygon fill="#bfbfbf" stroke="black" points="0,-23.5 0,-51.5 131,-51.5 131,-23.5 0,-23.5"/>
<text text-anchor="start" x="8" y="-40.3" font-family="Helvetica,sans-Serif" font-size="9.00">mappel::methods::likelihood</text>
<text text-anchor="middle" x="65.5" y="-30.3" font-family="Helvetica,sans-Serif" font-size="9.00">_objective</text>
</g>
<!-- Node2 -->
<g id="node2" class="node"><title>Node2</title>
<g id="a_node2"><a xlink:href="namespacemappel_1_1methods_1_1likelihood.html#a0233341d03d8f8d06cb852068942ba73" target="_top" xlink:title="mappel::methods::likelihood\l::hessian">
<polygon fill="white" stroke="black" points="167,-47.5 167,-75.5 298,-75.5 298,-47.5 167,-47.5"/>
<text text-anchor="start" x="175" y="-64.3" font-family="Helvetica,sans-Serif" font-size="9.00">mappel::methods::likelihood</text>
<text text-anchor="middle" x="232.5" y="-54.3" font-family="Helvetica,sans-Serif" font-size="9.00">::hessian</text>
</a>
</g>
</g>
<!-- Node1&#45;&gt;Node2 -->
<g id="edge1" class="edge"><title>Node1&#45;&gt;Node2</title>
<path fill="none" stroke="midnightblue" d="M131.239,-46.9166C139.675,-48.1436 148.371,-49.4085 156.951,-50.6565"/>
<polygon fill="midnightblue" stroke="midnightblue" points="156.548,-54.1347 166.948,-52.1106 157.556,-47.2076 156.548,-54.1347"/>
</g>
<!-- Node3 -->
<g id="node3" class="node"><title>Node3</title>
<g id="a_node3"><a xlink:href="namespacemappel_1_1methods_1_1likelihood.html#ae064b0a1e26a5626c62bde870e587ecb" target="_top" xlink:title="mappel::methods::likelihood\l::rllh">
<polygon fill="white" stroke="black" points="167,-0.5 167,-28.5 298,-28.5 298,-0.5 167,-0.5"/>
<text text-anchor="start" x="175" y="-17.3" font-family="Helvetica,sans-Serif" font-size="9.00">mappel::methods::likelihood</text>
<text text-anchor="middle" x="232.5" y="-7.3" font-family="Helvetica,sans-Serif" font-size="9.00">::rllh</text>
</a>
</g>
</g>
<!-- Node1&#45;&gt;Node3 -->
<g id="edge2" class="edge"><title>Node1&#45;&gt;Node3</title>
<path fill="none" stroke="midnightblue" d="M131.239,-28.4758C139.675,-27.2999 148.371,-26.0877 156.951,-24.8917"/>
<polygon fill="midnightblue" stroke="midnightblue" points="157.527,-28.3453 166.948,-23.4982 156.56,-21.4124 157.527,-28.3453"/>
</g>
<!-- Node4 -->
<g id="node4" class="node"><title>Node4</title>
<g id="a_node4"><a xlink:href="namespacemappel.html#a6e36ec38eee9f05906f51d4db8767b9e" target="_top" xlink:title="mappel::relative_poisson\l_log_likelihood">
<polygon fill="white" stroke="black" points="334,-0.5 334,-28.5 453,-28.5 453,-0.5 334,-0.5"/>
<text text-anchor="start" x="342" y="-17.3" font-family="Helvetica,sans-Serif" font-size="9.00">mappel::relative_poisson</text>
<text text-anchor="middle" x="393.5" y="-7.3" font-family="Helvetica,sans-Serif" font-size="9.00">_log_likelihood</text>
</a>
</g>
</g>
<!-- Node3&#45;&gt;Node4 -->
<g id="edge3" class="edge"><title>Node3&#45;&gt;Node4</title>
<path fill="none" stroke="midnightblue" d="M298.171,-14.5C306.545,-14.5 315.147,-14.5 323.586,-14.5"/>
<polygon fill="midnightblue" stroke="midnightblue" points="323.774,-18.0001 333.774,-14.5 323.774,-11.0001 323.774,-18.0001"/>
</g>
</g>
</svg>
