<?xml version="1.0" encoding="UTF-8" standalone="no"?>
<!DOCTYPE svg PUBLIC "-//W3C//DTD SVG 1.1//EN"
 "http://www.w3.org/Graphics/SVG/1.1/DTD/svg11.dtd">
<!-- Generated by graphviz version 2.38.0 (20140413.2041)
 -->
<!-- Title: mappel::fill_DXS_stencil Pages: 1 -->
<svg width="620pt" height="178pt"
 viewBox="0.00 0.00 620.00 178.00" xmlns="http://www.w3.org/2000/svg" xmlns:xlink="http://www.w3.org/1999/xlink">
<g id="graph0" class="graph" transform="scale(1 1) rotate(0) translate(4 174)">
<title>mappel::fill_DXS_stencil</title>
<polygon fill="white" stroke="none" points="-4,4 -4,-174 616,-174 616,4 -4,4"/>
<!-- Node1 -->
<g id="node1" class="node"><title>Node1</title>
<polygon fill="#bfbfbf" stroke="black" points="0,-75.5 0,-93.5 116,-93.5 116,-75.5 0,-75.5"/>
<text text-anchor="middle" x="58" y="-82.3" font-family="Helvetica,sans-Serif" font-size="9.00">mappel::fill_DXS_stencil</text>
</g>
<!-- Node2 -->
<g id="node2" class="node"><title>Node2</title>
<g id="a_node2"><a xlink:href="namespacemappel.html#af7636db506977133c8b30d108fede711" target="_top" xlink:title="mappel::make_DXS_stencil">
<polygon fill="white" stroke="black" points="152,-75.5 152,-93.5 282,-93.5 282,-75.5 152,-75.5"/>
<text text-anchor="middle" x="217" y="-82.3" font-family="Helvetica,sans-Serif" font-size="9.00">mappel::make_DXS_stencil</text>
</a>
</g>
</g>
<!-- Node1&#45;&gt;Node2 -->
<g id="edge1" class="edge"><title>Node1&#45;&gt;Node2</title>
<path fill="none" stroke="midnightblue" d="M126.302,-84.5C134.74,-84.5 143.353,-84.5 151.742,-84.5"/>
<polygon fill="midnightblue" stroke="midnightblue" points="126.125,-81.0001 116.125,-84.5 126.125,-88.0001 126.125,-81.0001"/>
</g>
<!-- Node3 -->
<g id="node3" class="node"><title>Node3</title>
<g id="a_node3"><a xlink:href="classmappel_1_1Gauss1DModel_1_1Stencil.html#a4bc1fdd7b3c4df021ac4a519c4e659f8" target="_top" xlink:title="mappel::Gauss1DModel\l::Stencil::compute_derivatives">
<polygon fill="white" stroke="black" points="318,-141.5 318,-169.5 456,-169.5 456,-141.5 318,-141.5"/>
<text text-anchor="start" x="326" y="-158.3" font-family="Helvetica,sans-Serif" font-size="9.00">mappel::Gauss1DModel</text>
<text text-anchor="middle" x="387" y="-148.3" font-family="Helvetica,sans-Serif" font-size="9.00">::Stencil::compute_derivatives</text>
</a>
</g>
</g>
<!-- Node2&#45;&gt;Node3 -->
<g id="edge2" class="edge"><title>Node2&#45;&gt;Node3</title>
<path fill="none" stroke="midnightblue" d="M244.488,-98.301C264.418,-108.417 292.558,-122.136 318,-132.5 325.618,-135.603 333.827,-138.635 341.817,-141.426"/>
<polygon fill="midnightblue" stroke="midnightblue" points="245.908,-95.0958 235.411,-93.6547 242.718,-101.327 245.908,-95.0958"/>
</g>
<!-- Node5 -->
<g id="node5" class="node"><title>Node5</title>
<g id="a_node5"><a xlink:href="classmappel_1_1Gauss1DsModel_1_1Stencil.html#a9e8b6059b84e28bea0ba3496bc95e7ce" target="_top" xlink:title="mappel::Gauss1DsModel\l::Stencil::compute_derivatives">
<polygon fill="white" stroke="black" points="318,-94.5 318,-122.5 456,-122.5 456,-94.5 318,-94.5"/>
<text text-anchor="start" x="326" y="-111.3" font-family="Helvetica,sans-Serif" font-size="9.00">mappel::Gauss1DsModel</text>
<text text-anchor="middle" x="387" y="-101.3" font-family="Helvetica,sans-Serif" font-size="9.00">::Stencil::compute_derivatives</text>
</a>
</g>
</g>
<!-- Node2&#45;&gt;Node5 -->
<g id="edge4" class="edge"><title>Node2&#45;&gt;Node5</title>
<path fill="none" stroke="midnightblue" d="M291.003,-94.929C299.914,-96.202 308.993,-97.499 317.83,-98.7614"/>
<polygon fill="midnightblue" stroke="midnightblue" points="291.429,-91.4545 281.035,-93.505 290.439,-98.3841 291.429,-91.4545"/>
</g>
<!-- Node7 -->
<g id="node7" class="node"><title>Node7</title>
<g id="a_node7"><a xlink:href="classmappel_1_1Gauss2DModel_1_1Stencil.html#aa454ad18859be0dcc48f5de8982c7ba7" target="_top" xlink:title="mappel::Gauss2DModel\l::Stencil::compute_derivatives">
<polygon fill="white" stroke="black" points="318,-47.5 318,-75.5 456,-75.5 456,-47.5 318,-47.5"/>
<text text-anchor="start" x="326" y="-64.3" font-family="Helvetica,sans-Serif" font-size="9.00">mappel::Gauss2DModel</text>
<text text-anchor="middle" x="387" y="-54.3" font-family="Helvetica,sans-Serif" font-size="9.00">::Stencil::compute_derivatives</text>
</a>
</g>
</g>
<!-- Node2&#45;&gt;Node7 -->
<g id="edge6" class="edge"><title>Node2&#45;&gt;Node7</title>
<path fill="none" stroke="midnightblue" d="M292.611,-74.2853C300.993,-73.1378 309.502,-71.973 317.797,-70.8374"/>
<polygon fill="midnightblue" stroke="midnightblue" points="291.906,-70.8492 282.473,-75.6734 292.855,-77.7846 291.906,-70.8492"/>
</g>
<!-- Node9 -->
<g id="node9" class="node"><title>Node9</title>
<g id="a_node9"><a xlink:href="classmappel_1_1Gauss2DsModel_1_1Stencil.html#ab11c806f8335bbafeb3db7476526680d" target="_top" xlink:title="mappel::Gauss2DsModel\l::Stencil::compute_derivatives">
<polygon fill="white" stroke="black" points="318,-0.5 318,-28.5 456,-28.5 456,-0.5 318,-0.5"/>
<text text-anchor="start" x="326" y="-17.3" font-family="Helvetica,sans-Serif" font-size="9.00">mappel::Gauss2DsModel</text>
<text text-anchor="middle" x="387" y="-7.3" font-family="Helvetica,sans-Serif" font-size="9.00">::Stencil::compute_derivatives</text>
</a>
</g>
</g>
<!-- Node2&#45;&gt;Node9 -->
<g id="edge8" class="edge"><title>Node2&#45;&gt;Node9</title>
<path fill="none" stroke="midnightblue" d="M245.684,-70.9332C265.593,-61.3821 293.193,-48.5586 318,-38.5 326.353,-35.113 335.387,-31.7327 344.057,-28.6233"/>
<polygon fill="midnightblue" stroke="midnightblue" points="244.057,-67.832 236.575,-75.3325 247.102,-74.1355 244.057,-67.832"/>
</g>
<!-- Node4 -->
<g id="node4" class="node"><title>Node4</title>
<g id="a_node4"><a xlink:href="classmappel_1_1Gauss1DModel_1_1Stencil.html#a6881e128436697dd57b41d20a1c8b56e" target="_top" xlink:title="mappel::Gauss1DModel\l::Stencil::Stencil">
<polygon fill="white" stroke="black" points="494,-141.5 494,-169.5 610,-169.5 610,-141.5 494,-141.5"/>
<text text-anchor="start" x="502" y="-158.3" font-family="Helvetica,sans-Serif" font-size="9.00">mappel::Gauss1DModel</text>
<text text-anchor="middle" x="552" y="-148.3" font-family="Helvetica,sans-Serif" font-size="9.00">::Stencil::Stencil</text>
</a>
</g>
</g>
<!-- Node3&#45;&gt;Node4 -->
<g id="edge3" class="edge"><title>Node3&#45;&gt;Node4</title>
<path fill="none" stroke="midnightblue" d="M466.262,-155.5C475.592,-155.5 484.979,-155.5 493.933,-155.5"/>
<polygon fill="midnightblue" stroke="midnightblue" points="466.182,-152 456.182,-155.5 466.182,-159 466.182,-152"/>
</g>
<!-- Node6 -->
<g id="node6" class="node"><title>Node6</title>
<g id="a_node6"><a xlink:href="classmappel_1_1Gauss1DsModel_1_1Stencil.html#ae4f12261a80d8ed1a2d3652c0e7b629b" target="_top" xlink:title="mappel::Gauss1DsModel\l::Stencil::Stencil">
<polygon fill="white" stroke="black" points="492,-94.5 492,-122.5 612,-122.5 612,-94.5 492,-94.5"/>
<text text-anchor="start" x="500" y="-111.3" font-family="Helvetica,sans-Serif" font-size="9.00">mappel::Gauss1DsModel</text>
<text text-anchor="middle" x="552" y="-101.3" font-family="Helvetica,sans-Serif" font-size="9.00">::Stencil::Stencil</text>
</a>
</g>
</g>
<!-- Node5&#45;&gt;Node6 -->
<g id="edge5" class="edge"><title>Node5&#45;&gt;Node6</title>
<path fill="none" stroke="midnightblue" d="M466.262,-108.5C474.886,-108.5 483.56,-108.5 491.894,-108.5"/>
<polygon fill="midnightblue" stroke="midnightblue" points="466.182,-105 456.182,-108.5 466.182,-112 466.182,-105"/>
</g>
<!-- Node8 -->
<g id="node8" class="node"><title>Node8</title>
<g id="a_node8"><a xlink:href="classmappel_1_1Gauss2DModel_1_1Stencil.html#a9e1f0ff585b5394d2d114a432b8c7d94" target="_top" xlink:title="mappel::Gauss2DModel\l::Stencil::Stencil">
<polygon fill="white" stroke="black" points="494,-47.5 494,-75.5 610,-75.5 610,-47.5 494,-47.5"/>
<text text-anchor="start" x="502" y="-64.3" font-family="Helvetica,sans-Serif" font-size="9.00">mappel::Gauss2DModel</text>
<text text-anchor="middle" x="552" y="-54.3" font-family="Helvetica,sans-Serif" font-size="9.00">::Stencil::Stencil</text>
</a>
</g>
</g>
<!-- Node7&#45;&gt;Node8 -->
<g id="edge7" class="edge"><title>Node7&#45;&gt;Node8</title>
<path fill="none" stroke="midnightblue" d="M466.262,-61.5C475.592,-61.5 484.979,-61.5 493.933,-61.5"/>
<polygon fill="midnightblue" stroke="midnightblue" points="466.182,-58.0001 456.182,-61.5 466.182,-65.0001 466.182,-58.0001"/>
</g>
<!-- Node10 -->
<g id="node10" class="node"><title>Node10</title>
<g id="a_node10"><a xlink:href="classmappel_1_1Gauss2DsModel_1_1Stencil.html#a924f5f8d4524831f1ef50041b85a842f" target="_top" xlink:title="mappel::Gauss2DsModel\l::Stencil::Stencil">
<polygon fill="white" stroke="black" points="492,-0.5 492,-28.5 612,-28.5 612,-0.5 492,-0.5"/>
<text text-anchor="start" x="500" y="-17.3" font-family="Helvetica,sans-Serif" font-size="9.00">mappel::Gauss2DsModel</text>
<text text-anchor="middle" x="552" y="-7.3" font-family="Helvetica,sans-Serif" font-size="9.00">::Stencil::Stencil</text>
</a>
</g>
</g>
<!-- Node9&#45;&gt;Node10 -->
<g id="edge9" class="edge"><title>Node9&#45;&gt;Node10</title>
<path fill="none" stroke="midnightblue" d="M466.262,-14.5C474.886,-14.5 483.56,-14.5 491.894,-14.5"/>
<polygon fill="midnightblue" stroke="midnightblue" points="466.182,-11.0001 456.182,-14.5 466.182,-18.0001 466.182,-11.0001"/>
</g>
</g>
</svg>
