<?xml version="1.0" encoding="UTF-8" standalone="no"?>
<!DOCTYPE svg PUBLIC "-//W3C//DTD SVG 1.1//EN"
 "http://www.w3.org/Graphics/SVG/1.1/DTD/svg11.dtd">
<!-- Generated by graphviz version 2.38.0 (20140413.2041)
 -->
<!-- Title: mappel::methods::simulate_image Pages: 1 -->
<svg width="295pt" height="84pt"
 viewBox="0.00 0.00 295.00 84.00" xmlns="http://www.w3.org/2000/svg" xmlns:xlink="http://www.w3.org/1999/xlink">
<g id="graph0" class="graph" transform="scale(1 1) rotate(0) translate(4 80)">
<title>mappel::methods::simulate_image</title>
<polygon fill="white" stroke="none" points="-4,4 -4,-80 291,-80 291,4 -4,4"/>
<!-- Node1 -->
<g id="node1" class="node"><title>Node1</title>
<polygon fill="#bfbfbf" stroke="black" points="0,-23.5 0,-51.5 126,-51.5 126,-23.5 0,-23.5"/>
<text text-anchor="start" x="8" y="-40.3" font-family="Helvetica,sans-Serif" font-size="9.00">mappel::methods::simulate</text>
<text text-anchor="middle" x="63" y="-30.3" font-family="Helvetica,sans-Serif" font-size="9.00">_image</text>
</g>
<!-- Node1&#45;&gt;Node1 -->
<g id="edge1" class="edge"><title>Node1&#45;&gt;Node1</title>
<path fill="none" stroke="midnightblue" d="M34.0768,-61.4873C37.148,-66.4413 46.7891,-70 63,-70 88.9375,-70 98.0562,-60.8898 90.356,-51.5305"/>
<polygon fill="midnightblue" stroke="midnightblue" points="37.5465,-61.9531 35.644,-51.5305 30.6316,-60.8646 37.5465,-61.9531"/>
</g>
<!-- Node2 -->
<g id="node2" class="node"><title>Node2</title>
<g id="a_node2"><a xlink:href="namespacemappel.html#a79ac0dd997da8729f9610aab0fdbb347" target="_top" xlink:title="Parallel simulation of images from one or more theta. ">
<polygon fill="white" stroke="black" points="166,-47.5 166,-75.5 283,-75.5 283,-47.5 166,-47.5"/>
<text text-anchor="start" x="174" y="-64.3" font-family="Helvetica,sans-Serif" font-size="9.00">mappel::simulate_image</text>
<text text-anchor="middle" x="224.5" y="-54.3" font-family="Helvetica,sans-Serif" font-size="9.00">_stack</text>
</a>
</g>
</g>
<!-- Node1&#45;&gt;Node2 -->
<g id="edge2" class="edge"><title>Node1&#45;&gt;Node2</title>
<path fill="none" stroke="midnightblue" d="M136.066,-48.3438C146.086,-49.8516 156.27,-51.3839 165.977,-52.8445"/>
<polygon fill="midnightblue" stroke="midnightblue" points="136.533,-44.8747 126.124,-46.8477 135.491,-51.7968 136.533,-44.8747"/>
</g>
<!-- Node3 -->
<g id="node3" class="node"><title>Node3</title>
<g id="a_node3"><a xlink:href="namespacemappel_1_1methods_1_1openmp.html#a49b53ce5958e1a69e5b4cf8d4b0b1420" target="_top" xlink:title="Parallel simulation of images from one or more theta. ">
<polygon fill="white" stroke="black" points="162,-0.5 162,-28.5 287,-28.5 287,-0.5 162,-0.5"/>
<text text-anchor="start" x="170" y="-17.3" font-family="Helvetica,sans-Serif" font-size="9.00">mappel::methods::openmp</text>
<text text-anchor="middle" x="224.5" y="-7.3" font-family="Helvetica,sans-Serif" font-size="9.00">::simulate_image_stack</text>
</a>
</g>
</g>
<!-- Node1&#45;&gt;Node3 -->
<g id="edge3" class="edge"><title>Node1&#45;&gt;Node3</title>
<path fill="none" stroke="midnightblue" d="M136.116,-27.1008C144.695,-25.8637 153.393,-24.6094 161.808,-23.396"/>
<polygon fill="midnightblue" stroke="midnightblue" points="135.522,-23.6502 126.124,-28.5417 136.521,-30.5786 135.522,-23.6502"/>
</g>
</g>
</svg>
