<?xml version="1.0" encoding="UTF-8" standalone="no"?>
<!DOCTYPE svg PUBLIC "-//W3C//DTD SVG 1.1//EN"
 "http://www.w3.org/Graphics/SVG/1.1/DTD/svg11.dtd">
<!-- Generated by graphviz version 2.38.0 (20140413.2041)
 -->
<!-- Title: mappel::methods::simulate_image_from_model Pages: 1 -->
<svg width="287pt" height="37pt"
 viewBox="0.00 0.00 287.00 37.00" xmlns="http://www.w3.org/2000/svg" xmlns:xlink="http://www.w3.org/1999/xlink">
<g id="graph0" class="graph" transform="scale(1 1) rotate(0) translate(4 33)">
<title>mappel::methods::simulate_image_from_model</title>
<polygon fill="white" stroke="none" points="-4,4 -4,-33 283,-33 283,4 -4,4"/>
<!-- Node1 -->
<g id="node1" class="node"><title>Node1</title>
<polygon fill="#bfbfbf" stroke="black" points="0,-0.5 0,-28.5 126,-28.5 126,-0.5 0,-0.5"/>
<text text-anchor="start" x="8" y="-17.3" font-family="Helvetica,sans-Serif" font-size="9.00">mappel::methods::simulate</text>
<text text-anchor="middle" x="63" y="-7.3" font-family="Helvetica,sans-Serif" font-size="9.00">_image_from_model</text>
</g>
<!-- Node2 -->
<g id="node2" class="node"><title>Node2</title>
<g id="a_node2"><a xlink:href="namespacemappel.html#a79ac0dd997da8729f9610aab0fdbb347" target="_top" xlink:title="Parallel simulation of images from one or more theta. ">
<polygon fill="white" stroke="black" points="162,-0.5 162,-28.5 279,-28.5 279,-0.5 162,-0.5"/>
<text text-anchor="start" x="170" y="-17.3" font-family="Helvetica,sans-Serif" font-size="9.00">mappel::simulate_image</text>
<text text-anchor="middle" x="220.5" y="-7.3" font-family="Helvetica,sans-Serif" font-size="9.00">_stack</text>
</a>
</g>
</g>
<!-- Node1&#45;&gt;Node2 -->
<g id="edge1" class="edge"><title>Node1&#45;&gt;Node2</title>
<path fill="none" stroke="midnightblue" d="M136.352,-14.5C144.927,-14.5 153.59,-14.5 161.92,-14.5"/>
<polygon fill="midnightblue" stroke="midnightblue" points="136.352,-11.0001 126.352,-14.5 136.352,-18.0001 136.352,-11.0001"/>
</g>
</g>
</svg>
