<?xml version="1.0" encoding="UTF-8" standalone="no"?>
<!DOCTYPE svg PUBLIC "-//W3C//DTD SVG 1.1//EN"
 "http://www.w3.org/Graphics/SVG/1.1/DTD/svg11.dtd">
<!-- Generated by graphviz version 2.38.0 (20140413.2041)
 -->
<!-- Title: mappel::make_unique Pages: 1 -->
<svg width="395pt" height="27pt"
 viewBox="0.00 0.00 395.00 27.00" xmlns="http://www.w3.org/2000/svg" xmlns:xlink="http://www.w3.org/1999/xlink">
<g id="graph0" class="graph" transform="scale(1 1) rotate(0) translate(4 23)">
<title>mappel::make_unique</title>
<polygon fill="white" stroke="none" points="-4,4 -4,-23 391,-23 391,4 -4,4"/>
<!-- Node1 -->
<g id="node1" class="node"><title>Node1</title>
<polygon fill="#bfbfbf" stroke="black" points="0,-0.5 0,-18.5 108,-18.5 108,-0.5 0,-0.5"/>
<text text-anchor="middle" x="54" y="-7.3" font-family="Helvetica,sans-Serif" font-size="9.00">mappel::make_unique</text>
</g>
<!-- Node2 -->
<g id="node2" class="node"><title>Node2</title>
<g id="a_node2"><a xlink:href="namespacemappel.html#ade30cb844a141741b110c52cdc433e69" target="_top" xlink:title="mappel::operator\&lt;\&lt;">
<polygon fill="white" stroke="black" points="144,-0.5 144,-18.5 241,-18.5 241,-0.5 144,-0.5"/>
<text text-anchor="middle" x="192.5" y="-7.3" font-family="Helvetica,sans-Serif" font-size="9.00">mappel::operator&lt;&lt;</text>
</a>
</g>
</g>
<!-- Node1&#45;&gt;Node2 -->
<g id="edge1" class="edge"><title>Node1&#45;&gt;Node2</title>
<path fill="none" stroke="midnightblue" d="M108.165,-9.5C116.467,-9.5 125.083,-9.5 133.487,-9.5"/>
<polygon fill="midnightblue" stroke="midnightblue" points="133.597,-13.0001 143.597,-9.5 133.597,-6.0001 133.597,-13.0001"/>
</g>
<!-- Node3 -->
<g id="node3" class="node"><title>Node3</title>
<g id="a_node3"><a xlink:href="namespacemappel.html#adb38bc84f5b9500d9019091e80e7ada8" target="_top" xlink:title="mappel::print_vec_row">
<polygon fill="white" stroke="black" points="277,-0.5 277,-18.5 387,-18.5 387,-0.5 277,-0.5"/>
<text text-anchor="middle" x="332" y="-7.3" font-family="Helvetica,sans-Serif" font-size="9.00">mappel::print_vec_row</text>
</a>
</g>
</g>
<!-- Node2&#45;&gt;Node3 -->
<g id="edge2" class="edge"><title>Node2&#45;&gt;Node3</title>
<path fill="none" stroke="midnightblue" d="M241.205,-9.5C249.456,-9.5 258.154,-9.5 266.758,-9.5"/>
<polygon fill="midnightblue" stroke="midnightblue" points="266.783,-13.0001 276.783,-9.5 266.783,-6.0001 266.783,-13.0001"/>
</g>
</g>
</svg>
