<?xml version="1.0" encoding="UTF-8" standalone="no"?>
<!DOCTYPE svg PUBLIC "-//W3C//DTD SVG 1.1//EN"
 "http://www.w3.org/Graphics/SVG/1.1/DTD/svg11.dtd">
<!-- Generated by graphviz version 2.38.0 (20140413.2041)
 -->
<!-- Title: mappel::methods::openmp::estimate_mcmc_posterior_stack Pages: 1 -->
<svg width="348pt" height="37pt"
 viewBox="0.00 0.00 348.00 37.00" xmlns="http://www.w3.org/2000/svg" xmlns:xlink="http://www.w3.org/1999/xlink">
<g id="graph0" class="graph" transform="scale(1 1) rotate(0) translate(4 33)">
<title>mappel::methods::openmp::estimate_mcmc_posterior_stack</title>
<polygon fill="white" stroke="none" points="-4,4 -4,-33 344,-33 344,4 -4,4"/>
<!-- Node1 -->
<g id="node1" class="node"><title>Node1</title>
<polygon fill="#bfbfbf" stroke="black" points="0,-0.5 0,-28.5 152,-28.5 152,-0.5 0,-0.5"/>
<text text-anchor="start" x="8" y="-17.3" font-family="Helvetica,sans-Serif" font-size="9.00">mappel::methods::openmp</text>
<text text-anchor="middle" x="76" y="-7.3" font-family="Helvetica,sans-Serif" font-size="9.00">::estimate_mcmc_posterior_stack</text>
</g>
<!-- Node2 -->
<g id="node2" class="node"><title>Node2</title>
<g id="a_node2"><a xlink:href="namespacemappel_1_1methods_1_1openmp.html#a29a123586d125b8d00613119017f9d7b" target="_top" xlink:title="mappel::methods::openmp\l::estimate_mcmc_posterior_stack">
<polygon fill="white" stroke="black" points="188,-0.5 188,-28.5 340,-28.5 340,-0.5 188,-0.5"/>
<text text-anchor="start" x="196" y="-17.3" font-family="Helvetica,sans-Serif" font-size="9.00">mappel::methods::openmp</text>
<text text-anchor="middle" x="264" y="-7.3" font-family="Helvetica,sans-Serif" font-size="9.00">::estimate_mcmc_posterior_stack</text>
</a>
</g>
</g>
<!-- Node1&#45;&gt;Node2 -->
<g id="edge1" class="edge"><title>Node1&#45;&gt;Node2</title>
<path fill="none" stroke="midnightblue" d="M152.117,-14.5C160.596,-14.5 169.281,-14.5 177.875,-14.5"/>
<polygon fill="midnightblue" stroke="midnightblue" points="177.905,-18.0001 187.905,-14.5 177.905,-11.0001 177.905,-18.0001"/>
</g>
</g>
</svg>
