<?xml version="1.0" encoding="UTF-8" standalone="no"?>
<!DOCTYPE svg PUBLIC "-//W3C//DTD SVG 1.1//EN"
 "http://www.w3.org/Graphics/SVG/1.1/DTD/svg11.dtd">
<!-- Generated by graphviz version 2.38.0 (20140413.2041)
 -->
<!-- Title: mappel::cgauss_heuristic_compute_estimate Pages: 1 -->
<svg width="457pt" height="37pt"
 viewBox="0.00 0.00 457.00 37.00" xmlns="http://www.w3.org/2000/svg" xmlns:xlink="http://www.w3.org/1999/xlink">
<g id="graph0" class="graph" transform="scale(1 1) rotate(0) translate(4 33)">
<title>mappel::cgauss_heuristic_compute_estimate</title>
<polygon fill="white" stroke="none" points="-4,4 -4,-33 453,-33 453,4 -4,4"/>
<!-- Node1 -->
<g id="node1" class="node"><title>Node1</title>
<polygon fill="#bfbfbf" stroke="black" points="0,-0.5 0,-28.5 121,-28.5 121,-0.5 0,-0.5"/>
<text text-anchor="start" x="8" y="-17.3" font-family="Helvetica,sans-Serif" font-size="9.00">mappel::cgauss_heuristic</text>
<text text-anchor="middle" x="60.5" y="-7.3" font-family="Helvetica,sans-Serif" font-size="9.00">_compute_estimate</text>
</g>
<!-- Node2 -->
<g id="node2" class="node"><title>Node2</title>
<g id="a_node2"><a xlink:href="classmappel_1_1ThreadedEstimator.html#a8acce3a5a89128403c97b53bc3698d61" target="_top" xlink:title="mappel::ThreadedEstimator\l::clear_stats">
<polygon fill="white" stroke="black" points="157,-0.5 157,-28.5 287,-28.5 287,-0.5 157,-0.5"/>
<text text-anchor="start" x="165" y="-17.3" font-family="Helvetica,sans-Serif" font-size="9.00">mappel::ThreadedEstimator</text>
<text text-anchor="middle" x="222" y="-7.3" font-family="Helvetica,sans-Serif" font-size="9.00">::clear_stats</text>
</a>
</g>
</g>
<!-- Node1&#45;&gt;Node2 -->
<g id="edge1" class="edge"><title>Node1&#45;&gt;Node2</title>
<path fill="none" stroke="midnightblue" d="M131.512,-14.5C139.927,-14.5 148.489,-14.5 156.816,-14.5"/>
<polygon fill="midnightblue" stroke="midnightblue" points="131.346,-11.0001 121.346,-14.5 131.346,-18.0001 131.346,-11.0001"/>
</g>
<!-- Node3 -->
<g id="node3" class="node"><title>Node3</title>
<g id="a_node3"><a xlink:href="classmappel_1_1IterativeMaximizer.html#af709331a98863a0d8a4003047f2b70a2" target="_top" xlink:title="mappel::IterativeMaximizer\l::clear_stats">
<polygon fill="white" stroke="black" points="323,-0.5 323,-28.5 449,-28.5 449,-0.5 323,-0.5"/>
<text text-anchor="start" x="331" y="-17.3" font-family="Helvetica,sans-Serif" font-size="9.00">mappel::IterativeMaximizer</text>
<text text-anchor="middle" x="386" y="-7.3" font-family="Helvetica,sans-Serif" font-size="9.00">::clear_stats</text>
</a>
</g>
</g>
<!-- Node2&#45;&gt;Node3 -->
<g id="edge2" class="edge"><title>Node2&#45;&gt;Node3</title>
<path fill="none" stroke="midnightblue" d="M297.047,-14.5C305.643,-14.5 314.345,-14.5 322.761,-14.5"/>
<polygon fill="midnightblue" stroke="midnightblue" points="297.027,-11.0001 287.027,-14.5 297.027,-18.0001 297.027,-11.0001"/>
</g>
</g>
</svg>
