<?xml version="1.0" encoding="UTF-8" standalone="no"?>
<!DOCTYPE svg PUBLIC "-//W3C//DTD SVG 1.1//EN"
 "http://www.w3.org/Graphics/SVG/1.1/DTD/svg11.dtd">
<!-- Generated by graphviz version 2.38.0 (20140413.2041)
 -->
<!-- Title: mappel::fill_gaussian_stencil Pages: 1 -->
<svg width="265pt" height="37pt"
 viewBox="0.00 0.00 265.00 37.00" xmlns="http://www.w3.org/2000/svg" xmlns:xlink="http://www.w3.org/1999/xlink">
<g id="graph0" class="graph" transform="scale(1 1) rotate(0) translate(4 33)">
<title>mappel::fill_gaussian_stencil</title>
<polygon fill="white" stroke="none" points="-4,4 -4,-33 261,-33 261,4 -4,4"/>
<!-- Node1 -->
<g id="node1" class="node"><title>Node1</title>
<polygon fill="#bfbfbf" stroke="black" points="0,-0.5 0,-28.5 104,-28.5 104,-0.5 0,-0.5"/>
<text text-anchor="start" x="8" y="-17.3" font-family="Helvetica,sans-Serif" font-size="9.00">mappel::fill_gaussian</text>
<text text-anchor="middle" x="52" y="-7.3" font-family="Helvetica,sans-Serif" font-size="9.00">_stencil</text>
</g>
<!-- Node2 -->
<g id="node2" class="node"><title>Node2</title>
<g id="a_node2"><a xlink:href="namespacemappel.html#ae7764483ad8e545319cacd2e91a1a849" target="_top" xlink:title="mappel::make_gaussian\l_stencil">
<polygon fill="white" stroke="black" points="140,-0.5 140,-28.5 257,-28.5 257,-0.5 140,-0.5"/>
<text text-anchor="start" x="148" y="-17.3" font-family="Helvetica,sans-Serif" font-size="9.00">mappel::make_gaussian</text>
<text text-anchor="middle" x="198.5" y="-7.3" font-family="Helvetica,sans-Serif" font-size="9.00">_stencil</text>
</a>
</g>
</g>
<!-- Node1&#45;&gt;Node2 -->
<g id="edge1" class="edge"><title>Node1&#45;&gt;Node2</title>
<path fill="none" stroke="midnightblue" d="M114.504,-14.5C122.934,-14.5 131.563,-14.5 139.919,-14.5"/>
<polygon fill="midnightblue" stroke="midnightblue" points="114.352,-11.0001 104.352,-14.5 114.352,-18.0001 114.352,-11.0001"/>
</g>
</g>
</svg>
