<?xml version="1.0" encoding="UTF-8" standalone="no"?>
<!DOCTYPE svg PUBLIC "-//W3C//DTD SVG 1.1//EN"
 "http://www.w3.org/Graphics/SVG/1.1/DTD/svg11.dtd">
<!-- Generated by graphviz version 2.38.0 (20140413.2041)
 -->
<!-- Title: mappel::methods::model_image Pages: 1 -->
<svg width="278pt" height="37pt"
 viewBox="0.00 0.00 278.00 37.00" xmlns="http://www.w3.org/2000/svg" xmlns:xlink="http://www.w3.org/1999/xlink">
<g id="graph0" class="graph" transform="scale(1 1) rotate(0) translate(4 33)">
<title>mappel::methods::model_image</title>
<polygon fill="white" stroke="none" points="-4,4 -4,-33 274,-33 274,4 -4,4"/>
<!-- Node1 -->
<g id="node1" class="node"><title>Node1</title>
<polygon fill="#bfbfbf" stroke="black" points="0,-0.5 0,-28.5 117,-28.5 117,-0.5 0,-0.5"/>
<text text-anchor="start" x="8" y="-17.3" font-family="Helvetica,sans-Serif" font-size="9.00">mappel::methods::model</text>
<text text-anchor="middle" x="58.5" y="-7.3" font-family="Helvetica,sans-Serif" font-size="9.00">_image</text>
</g>
<!-- Node2 -->
<g id="node2" class="node"><title>Node2</title>
<g id="a_node2"><a xlink:href="namespacemappel_1_1methods.html#ae92825adbc9f0eea36c2b0afdbf40d66" target="_top" xlink:title="mappel::methods::model\l_image">
<polygon fill="white" stroke="black" points="153,-0.5 153,-28.5 270,-28.5 270,-0.5 153,-0.5"/>
<text text-anchor="start" x="161" y="-17.3" font-family="Helvetica,sans-Serif" font-size="9.00">mappel::methods::model</text>
<text text-anchor="middle" x="211.5" y="-7.3" font-family="Helvetica,sans-Serif" font-size="9.00">_image</text>
</a>
</g>
</g>
<!-- Node1&#45;&gt;Node2 -->
<g id="edge1" class="edge"><title>Node1&#45;&gt;Node2</title>
<path fill="none" stroke="midnightblue" d="M117.017,-14.5C125.464,-14.5 134.229,-14.5 142.856,-14.5"/>
<polygon fill="midnightblue" stroke="midnightblue" points="142.893,-18.0001 152.893,-14.5 142.892,-11.0001 142.893,-18.0001"/>
</g>
</g>
</svg>
