<?xml version="1.0" encoding="UTF-8" standalone="no"?>
<!DOCTYPE svg PUBLIC "-//W3C//DTD SVG 1.1//EN"
 "http://www.w3.org/Graphics/SVG/1.1/DTD/svg11.dtd">
<!-- Generated by graphviz version 2.38.0 (20140413.2041)
 -->
<!-- Title: mappel::cr_lower_bound_stack Pages: 1 -->
<svg width="427pt" height="37pt"
 viewBox="0.00 0.00 427.00 37.00" xmlns="http://www.w3.org/2000/svg" xmlns:xlink="http://www.w3.org/1999/xlink">
<g id="graph0" class="graph" transform="scale(1 1) rotate(0) translate(4 33)">
<title>mappel::cr_lower_bound_stack</title>
<polygon fill="white" stroke="none" points="-4,4 -4,-33 423,-33 423,4 -4,4"/>
<!-- Node1 -->
<g id="node1" class="node"><title>Node1</title>
<polygon fill="#bfbfbf" stroke="black" points="0,-0.5 0,-28.5 119,-28.5 119,-0.5 0,-0.5"/>
<text text-anchor="start" x="8" y="-17.3" font-family="Helvetica,sans-Serif" font-size="9.00">mappel::cr_lower_bound</text>
<text text-anchor="middle" x="59.5" y="-7.3" font-family="Helvetica,sans-Serif" font-size="9.00">_stack</text>
</g>
<!-- Node2 -->
<g id="node2" class="node"><title>Node2</title>
<g id="a_node2"><a xlink:href="namespacemappel_1_1methods.html#ac1fe2927bc882d9a76138010f41df115" target="_top" xlink:title="Calculate the Cramer&#45;Rao lower bound at the given parameters. ">
<polygon fill="white" stroke="black" points="155,-0.5 155,-28.5 254,-28.5 254,-0.5 155,-0.5"/>
<text text-anchor="start" x="163" y="-17.3" font-family="Helvetica,sans-Serif" font-size="9.00">mappel::methods::cr</text>
<text text-anchor="middle" x="204.5" y="-7.3" font-family="Helvetica,sans-Serif" font-size="9.00">_lower_bound</text>
</a>
</g>
</g>
<!-- Node1&#45;&gt;Node2 -->
<g id="edge1" class="edge"><title>Node1&#45;&gt;Node2</title>
<path fill="none" stroke="midnightblue" d="M119.076,-14.5C127.521,-14.5 136.214,-14.5 144.664,-14.5"/>
<polygon fill="midnightblue" stroke="midnightblue" points="144.817,-18.0001 154.817,-14.5 144.817,-11.0001 144.817,-18.0001"/>
</g>
<!-- Node3 -->
<g id="node3" class="node"><title>Node3</title>
<g id="a_node3"><a xlink:href="namespacemappel_1_1methods.html#a6632adc36d8b32fd8d198669e268c767" target="_top" xlink:title="mappel::methods::expected\l_information">
<polygon fill="white" stroke="black" points="290,-0.5 290,-28.5 419,-28.5 419,-0.5 290,-0.5"/>
<text text-anchor="start" x="298" y="-17.3" font-family="Helvetica,sans-Serif" font-size="9.00">mappel::methods::expected</text>
<text text-anchor="middle" x="354.5" y="-7.3" font-family="Helvetica,sans-Serif" font-size="9.00">_information</text>
</a>
</g>
</g>
<!-- Node2&#45;&gt;Node3 -->
<g id="edge2" class="edge"><title>Node2&#45;&gt;Node3</title>
<path fill="none" stroke="midnightblue" d="M254.371,-14.5C262.541,-14.5 271.174,-14.5 279.802,-14.5"/>
<polygon fill="midnightblue" stroke="midnightblue" points="279.9,-18.0001 289.9,-14.5 279.9,-11.0001 279.9,-18.0001"/>
</g>
</g>
</svg>
