<?xml version="1.0" encoding="UTF-8" standalone="no"?>
<!DOCTYPE svg PUBLIC "-//W3C//DTD SVG 1.1//EN"
 "http://www.w3.org/Graphics/SVG/1.1/DTD/svg11.dtd">
<!-- Generated by graphviz version 2.38.0 (20140413.2041)
 -->
<!-- Title: mappel::normal_quantile_twosided Pages: 1 -->
<svg width="309pt" height="131pt"
 viewBox="0.00 0.00 309.00 131.00" xmlns="http://www.w3.org/2000/svg" xmlns:xlink="http://www.w3.org/1999/xlink">
<g id="graph0" class="graph" transform="scale(1 1) rotate(0) translate(4 127)">
<title>mappel::normal_quantile_twosided</title>
<polygon fill="white" stroke="none" points="-4,4 -4,-127 305,-127 305,4 -4,4"/>
<!-- Node1 -->
<g id="node1" class="node"><title>Node1</title>
<polygon fill="#bfbfbf" stroke="black" points="0,-47.5 0,-75.5 119,-75.5 119,-47.5 0,-47.5"/>
<text text-anchor="start" x="8" y="-64.3" font-family="Helvetica,sans-Serif" font-size="9.00">mappel::normal_quantile</text>
<text text-anchor="middle" x="59.5" y="-54.3" font-family="Helvetica,sans-Serif" font-size="9.00">_twosided</text>
</g>
<!-- Node2 -->
<g id="node2" class="node"><title>Node2</title>
<g id="a_node2"><a xlink:href="namespacemappel_1_1methods.html#a40f38c9be75ed5bbcc4066a289894ea1" target="_top" xlink:title="mappel::methods::error\l_bounds_expected">
<polygon fill="white" stroke="black" points="172.5,-94.5 172.5,-122.5 283.5,-122.5 283.5,-94.5 172.5,-94.5"/>
<text text-anchor="start" x="180.5" y="-111.3" font-family="Helvetica,sans-Serif" font-size="9.00">mappel::methods::error</text>
<text text-anchor="middle" x="228" y="-101.3" font-family="Helvetica,sans-Serif" font-size="9.00">_bounds_expected</text>
</a>
</g>
</g>
<!-- Node1&#45;&gt;Node2 -->
<g id="edge1" class="edge"><title>Node1&#45;&gt;Node2</title>
<path fill="none" stroke="midnightblue" d="M120.087,-78.3204C138.854,-83.6179 159.37,-89.4092 177.367,-94.4894"/>
<polygon fill="midnightblue" stroke="midnightblue" points="121.03,-74.9499 110.455,-75.6015 119.129,-81.6867 121.03,-74.9499"/>
</g>
<!-- Node3 -->
<g id="node3" class="node"><title>Node3</title>
<g id="a_node3"><a xlink:href="namespacemappel_1_1methods_1_1openmp.html#ac9aac4b2df768e850bee73aa5c7f2686" target="_top" xlink:title="mappel::methods::openmp\l::error_bounds_expected_stack">
<polygon fill="white" stroke="black" points="155,-47.5 155,-75.5 301,-75.5 301,-47.5 155,-47.5"/>
<text text-anchor="start" x="163" y="-64.3" font-family="Helvetica,sans-Serif" font-size="9.00">mappel::methods::openmp</text>
<text text-anchor="middle" x="228" y="-54.3" font-family="Helvetica,sans-Serif" font-size="9.00">::error_bounds_expected_stack</text>
</a>
</g>
</g>
<!-- Node1&#45;&gt;Node3 -->
<g id="edge2" class="edge"><title>Node1&#45;&gt;Node3</title>
<path fill="none" stroke="midnightblue" d="M129.337,-61.5C137.748,-61.5 146.361,-61.5 154.819,-61.5"/>
<polygon fill="midnightblue" stroke="midnightblue" points="129.202,-58.0001 119.202,-61.5 129.202,-65.0001 129.202,-58.0001"/>
</g>
<!-- Node4 -->
<g id="node4" class="node"><title>Node4</title>
<g id="a_node4"><a xlink:href="namespacemappel_1_1methods.html#afa9582bf7c7354506ba4976a70172ba7" target="_top" xlink:title="mappel::methods::error\l_bounds_observed">
<polygon fill="white" stroke="black" points="172.5,-0.5 172.5,-28.5 283.5,-28.5 283.5,-0.5 172.5,-0.5"/>
<text text-anchor="start" x="180.5" y="-17.3" font-family="Helvetica,sans-Serif" font-size="9.00">mappel::methods::error</text>
<text text-anchor="middle" x="228" y="-7.3" font-family="Helvetica,sans-Serif" font-size="9.00">_bounds_observed</text>
</a>
</g>
</g>
<!-- Node1&#45;&gt;Node4 -->
<g id="edge3" class="edge"><title>Node1&#45;&gt;Node4</title>
<path fill="none" stroke="midnightblue" d="M120.087,-44.6796C138.854,-39.3821 159.37,-33.5908 177.367,-28.5106"/>
<polygon fill="midnightblue" stroke="midnightblue" points="119.129,-41.3133 110.455,-47.3985 121.03,-48.0501 119.129,-41.3133"/>
</g>
</g>
</svg>
