<?xml version="1.0" encoding="UTF-8" standalone="no"?>
<!DOCTYPE svg PUBLIC "-//W3C//DTD SVG 1.1//EN"
 "http://www.w3.org/Graphics/SVG/1.1/DTD/svg11.dtd">
<!-- Generated by graphviz version 2.38.0 (20140413.2041)
 -->
<!-- Title: mappel::methods::objective::grad Pages: 1 -->
<svg width="498pt" height="543pt"
 viewBox="0.00 0.00 498.00 543.06" xmlns="http://www.w3.org/2000/svg" xmlns:xlink="http://www.w3.org/1999/xlink">
<g id="graph0" class="graph" transform="scale(1 1) rotate(0) translate(4 539.056)">
<title>mappel::methods::objective::grad</title>
<polygon fill="white" stroke="none" points="-4,4 -4,-539.056 494,-539.056 494,4 -4,4"/>
<!-- Node1 -->
<g id="node1" class="node"><title>Node1</title>
<polygon fill="#bfbfbf" stroke="black" points="0,-247.556 0,-275.556 128,-275.556 128,-247.556 0,-247.556"/>
<text text-anchor="start" x="8" y="-264.356" font-family="Helvetica,sans-Serif" font-size="9.00">mappel::methods::objective</text>
<text text-anchor="middle" x="64" y="-254.356" font-family="Helvetica,sans-Serif" font-size="9.00">::grad</text>
</g>
<!-- Node2 -->
<g id="node2" class="node"><title>Node2</title>
<g id="a_node2"><a xlink:href="namespacemappel_1_1methods.html#a3b0e13b783d21c08ba063a210b0a344b" target="_top" xlink:title="mappel::methods::aposteriori\l_objective">
<polygon fill="white" stroke="black" points="171,-506.556 171,-534.556 306,-534.556 306,-506.556 171,-506.556"/>
<text text-anchor="start" x="179" y="-523.356" font-family="Helvetica,sans-Serif" font-size="9.00">mappel::methods::aposteriori</text>
<text text-anchor="middle" x="238.5" y="-513.356" font-family="Helvetica,sans-Serif" font-size="9.00">_objective</text>
</a>
</g>
</g>
<!-- Node1&#45;&gt;Node2 -->
<g id="edge1" class="edge"><title>Node1&#45;&gt;Node2</title>
<path fill="none" stroke="midnightblue" d="M68.2915,-285.563C76.0671,-333.023 99.9849,-439.287 164,-497.556 167.757,-500.976 172.019,-503.887 176.552,-506.366"/>
<polygon fill="midnightblue" stroke="midnightblue" points="71.7376,-284.944 66.757,-275.593 64.8191,-286.009 71.7376,-284.944"/>
</g>
<!-- Node3 -->
<g id="node3" class="node"><title>Node3</title>
<g id="a_node3"><a xlink:href="namespacemappel_1_1methods_1_1objective.html#a7adc23453a6c075227b8bd4d3e7a494b" target="_top" xlink:title="mappel::methods::objective\l::grad">
<polygon fill="white" stroke="black" points="174.5,-459.556 174.5,-487.556 302.5,-487.556 302.5,-459.556 174.5,-459.556"/>
<text text-anchor="start" x="182.5" y="-476.356" font-family="Helvetica,sans-Serif" font-size="9.00">mappel::methods::objective</text>
<text text-anchor="middle" x="238.5" y="-466.356" font-family="Helvetica,sans-Serif" font-size="9.00">::grad</text>
</a>
</g>
</g>
<!-- Node1&#45;&gt;Node3 -->
<g id="edge2" class="edge"><title>Node1&#45;&gt;Node3</title>
<path fill="none" stroke="midnightblue" d="M71.0635,-285.498C82.4346,-325.546 110.758,-406.093 164,-450.556 168.105,-453.984 172.722,-456.902 177.59,-459.386"/>
<polygon fill="midnightblue" stroke="midnightblue" points="74.423,-284.514 68.4155,-275.787 67.6695,-286.355 74.423,-284.514"/>
</g>
<!-- Node4 -->
<g id="node4" class="node"><title>Node4</title>
<g id="a_node4"><a xlink:href="namespacemappel_1_1methods_1_1objective_1_1openmp.html#aab0aa1ca7dbd172a955148063a112f50" target="_top" xlink:title="Parallel model gradient calculations for a stack of images. ">
<polygon fill="white" stroke="black" points="174.5,-412.556 174.5,-440.556 302.5,-440.556 302.5,-412.556 174.5,-412.556"/>
<text text-anchor="start" x="182.5" y="-429.356" font-family="Helvetica,sans-Serif" font-size="9.00">mappel::methods::objective</text>
<text text-anchor="middle" x="238.5" y="-419.356" font-family="Helvetica,sans-Serif" font-size="9.00">::openmp::grad_stack</text>
</a>
</g>
</g>
<!-- Node1&#45;&gt;Node4 -->
<g id="edge3" class="edge"><title>Node1&#45;&gt;Node4</title>
<path fill="none" stroke="midnightblue" d="M75.2444,-284.867C90.2458,-316.351 121.135,-372.129 164,-403.556 168.745,-407.034 174.029,-409.996 179.529,-412.517"/>
<polygon fill="midnightblue" stroke="midnightblue" points="78.3136,-283.166 70.937,-275.561 71.961,-286.106 78.3136,-283.166"/>
</g>
<!-- Node5 -->
<g id="node5" class="node"><title>Node5</title>
<g id="a_node5"><a xlink:href="namespacemappel_1_1methods_1_1objective.html#a21e579dfc19a06952bf98bd9d684fbdc" target="_top" xlink:title="mappel::methods::objective\l::hessian">
<polygon fill="white" stroke="black" points="174.5,-365.556 174.5,-393.556 302.5,-393.556 302.5,-365.556 174.5,-365.556"/>
<text text-anchor="start" x="182.5" y="-382.356" font-family="Helvetica,sans-Serif" font-size="9.00">mappel::methods::objective</text>
<text text-anchor="middle" x="238.5" y="-372.356" font-family="Helvetica,sans-Serif" font-size="9.00">::hessian</text>
</a>
</g>
</g>
<!-- Node1&#45;&gt;Node5 -->
<g id="edge4" class="edge"><title>Node1&#45;&gt;Node5</title>
<path fill="none" stroke="midnightblue" d="M82.5562,-283.515C100.804,-304.981 131.237,-337.181 164,-356.556 169.754,-359.958 176.065,-362.909 182.495,-365.455"/>
<polygon fill="midnightblue" stroke="midnightblue" points="85.0451,-281.034 75.9567,-275.589 79.6656,-285.513 85.0451,-281.034"/>
</g>
<!-- Node6 -->
<g id="node6" class="node"><title>Node6</title>
<g id="a_node6"><a xlink:href="namespacemappel_1_1methods.html#a496d45e1db23f89b54ae0bef016a19b0" target="_top" xlink:title="mappel::methods::likelihood\l_objective">
<polygon fill="white" stroke="black" points="173,-318.556 173,-346.556 304,-346.556 304,-318.556 173,-318.556"/>
<text text-anchor="start" x="181" y="-335.356" font-family="Helvetica,sans-Serif" font-size="9.00">mappel::methods::likelihood</text>
<text text-anchor="middle" x="238.5" y="-325.356" font-family="Helvetica,sans-Serif" font-size="9.00">_objective</text>
</a>
</g>
</g>
<!-- Node1&#45;&gt;Node6 -->
<g id="edge5" class="edge"><title>Node1&#45;&gt;Node6</title>
<path fill="none" stroke="midnightblue" d="M100.412,-280.306C119.038,-289.762 142.429,-301.006 164,-309.556 171.955,-312.709 180.526,-315.723 188.909,-318.47"/>
<polygon fill="midnightblue" stroke="midnightblue" points="101.906,-277.139 91.4105,-275.688 98.7102,-283.367 101.906,-277.139"/>
</g>
<!-- Node7 -->
<g id="node7" class="node"><title>Node7</title>
<g id="a_node7"><a xlink:href="classmappel_1_1QuasiNewtonMaximizer.html#ab4d32d8ba90d4355262a228753619b9f" target="_top" xlink:title="mappel::QuasiNewtonMaximizer\l::maximize">
<polygon fill="white" stroke="black" points="164,-271.556 164,-299.556 313,-299.556 313,-271.556 164,-271.556"/>
<text text-anchor="start" x="172" y="-288.356" font-family="Helvetica,sans-Serif" font-size="9.00">mappel::QuasiNewtonMaximizer</text>
<text text-anchor="middle" x="238.5" y="-278.356" font-family="Helvetica,sans-Serif" font-size="9.00">::maximize</text>
</a>
</g>
</g>
<!-- Node1&#45;&gt;Node7 -->
<g id="edge6" class="edge"><title>Node1&#45;&gt;Node7</title>
<path fill="none" stroke="midnightblue" d="M138.386,-271.766C146.778,-272.933 155.337,-274.124 163.735,-275.293"/>
<polygon fill="midnightblue" stroke="midnightblue" points="138.64,-268.267 128.253,-270.356 137.675,-275.201 138.64,-268.267"/>
</g>
<!-- Node8 -->
<g id="node8" class="node"><title>Node8</title>
<g id="a_node8"><a xlink:href="namespacemappel.html#a053f2ea8e88ce464bb0c41657fac50ef" target="_top" xlink:title="Parallel model gradient calculations for a stack of images. ">
<polygon fill="white" stroke="black" points="188,-224.556 188,-252.556 289,-252.556 289,-224.556 188,-224.556"/>
<text text-anchor="start" x="196" y="-241.356" font-family="Helvetica,sans-Serif" font-size="9.00">mappel::model_grad</text>
<text text-anchor="middle" x="238.5" y="-231.356" font-family="Helvetica,sans-Serif" font-size="9.00">_stack</text>
</a>
</g>
</g>
<!-- Node1&#45;&gt;Node8 -->
<g id="edge7" class="edge"><title>Node1&#45;&gt;Node8</title>
<path fill="none" stroke="midnightblue" d="M138.496,-251.756C155.118,-249.54 172.387,-247.237 187.758,-245.188"/>
<polygon fill="midnightblue" stroke="midnightblue" points="137.703,-248.331 128.253,-253.122 138.628,-255.269 137.703,-248.331"/>
</g>
<!-- Node9 -->
<g id="node9" class="node"><title>Node9</title>
<g id="a_node9"><a xlink:href="namespacemappel.html#a74564859e87b485dda106ce035b9157b" target="_top" xlink:title="Parallel model Hessian calculations for a stack of images. ">
<polygon fill="white" stroke="black" points="181,-177.556 181,-205.556 296,-205.556 296,-177.556 181,-177.556"/>
<text text-anchor="start" x="189" y="-194.356" font-family="Helvetica,sans-Serif" font-size="9.00">mappel::model_hessian</text>
<text text-anchor="middle" x="238.5" y="-184.356" font-family="Helvetica,sans-Serif" font-size="9.00">_stack</text>
</a>
</g>
</g>
<!-- Node1&#45;&gt;Node9 -->
<g id="edge8" class="edge"><title>Node1&#45;&gt;Node9</title>
<path fill="none" stroke="midnightblue" d="M102.377,-242.903C120.719,-234.081 143.278,-223.719 164,-215.556 172.867,-212.062 182.47,-208.66 191.717,-205.568"/>
<polygon fill="midnightblue" stroke="midnightblue" points="100.669,-239.841 93.2009,-247.356 103.726,-246.138 100.669,-239.841"/>
</g>
<!-- Node10 -->
<g id="node10" class="node"><title>Node10</title>
<g id="a_node10"><a xlink:href="classmappel_1_1TrustRegionMaximizer.html#ac30ffdcd3f25cd0cbb066cdb5d28082a" target="_top" xlink:title="mappel::TrustRegionMaximizer\l::name">
<polygon fill="white" stroke="black" points="166.5,-130.556 166.5,-158.556 310.5,-158.556 310.5,-130.556 166.5,-130.556"/>
<text text-anchor="start" x="174.5" y="-147.356" font-family="Helvetica,sans-Serif" font-size="9.00">mappel::TrustRegionMaximizer</text>
<text text-anchor="middle" x="238.5" y="-137.356" font-family="Helvetica,sans-Serif" font-size="9.00">::name</text>
</a>
</g>
</g>
<!-- Node1&#45;&gt;Node10 -->
<g id="edge9" class="edge"><title>Node1&#45;&gt;Node10</title>
<path fill="none" stroke="midnightblue" d="M83.0079,-239.813C101.4,-218.878 131.761,-187.657 164,-168.556 170.467,-164.724 177.622,-161.42 184.854,-158.596"/>
<polygon fill="midnightblue" stroke="midnightblue" points="80.2147,-237.693 76.3397,-247.554 85.5182,-242.261 80.2147,-237.693"/>
</g>
<!-- Node11 -->
<g id="node11" class="node"><title>Node11</title>
<g id="a_node11"><a xlink:href="namespacemappel_1_1methods_1_1objective.html#aff95eac9143ee05d2611aa0c5b605f4c" target="_top" xlink:title="mappel::methods::objective\l::negative_definite_hessian">
<polygon fill="white" stroke="black" points="174,-83.5555 174,-111.556 303,-111.556 303,-83.5555 174,-83.5555"/>
<text text-anchor="start" x="182" y="-100.356" font-family="Helvetica,sans-Serif" font-size="9.00">mappel::methods::objective</text>
<text text-anchor="middle" x="238.5" y="-90.3555" font-family="Helvetica,sans-Serif" font-size="9.00">::negative_definite_hessian</text>
</a>
</g>
</g>
<!-- Node1&#45;&gt;Node11 -->
<g id="edge10" class="edge"><title>Node1&#45;&gt;Node11</title>
<path fill="none" stroke="midnightblue" d="M75.6193,-238.173C90.8685,-207.137 121.844,-152.645 164,-121.556 169.294,-117.652 175.253,-114.363 181.431,-111.597"/>
<polygon fill="midnightblue" stroke="midnightblue" points="72.3801,-236.834 71.2267,-247.366 78.6961,-239.852 72.3801,-236.834"/>
</g>
<!-- Node12 -->
<g id="node12" class="node"><title>Node12</title>
<g id="a_node12"><a xlink:href="classmappel_1_1PriorMAP1DObjective.html#ae12cf228193e345f3382bc916e3c60ee" target="_top" xlink:title="mappel::PriorMAP1DObjective\l::prior_grad_update">
<polygon fill="white" stroke="black" points="168,-36.5555 168,-64.5555 309,-64.5555 309,-36.5555 168,-36.5555"/>
<text text-anchor="start" x="176" y="-53.3555" font-family="Helvetica,sans-Serif" font-size="9.00">mappel::PriorMAP1DObjective</text>
<text text-anchor="middle" x="238.5" y="-43.3555" font-family="Helvetica,sans-Serif" font-size="9.00">::prior_grad_update</text>
</a>
</g>
</g>
<!-- Node1&#45;&gt;Node12 -->
<g id="edge11" class="edge"><title>Node1&#45;&gt;Node12</title>
<path fill="none" stroke="midnightblue" d="M71.2711,-237.681C82.888,-198.071 111.487,-118.765 164,-74.5555 168.621,-70.6652 173.889,-67.401 179.433,-64.663"/>
<polygon fill="midnightblue" stroke="midnightblue" points="67.843,-236.943 68.4988,-247.517 74.5805,-238.842 67.843,-236.943"/>
</g>
<!-- Node13 -->
<g id="node13" class="node"><title>Node13</title>
<g id="a_node13"><a xlink:href="classmappel_1_1PriorMAP1DObjective.html#ac5b20bb93fe2f2eddd75d19bf34283c7" target="_top" xlink:title="mappel::PriorMAP1DObjective\l::set_hyperparameters">
<polygon fill="white" stroke="black" points="349,-14.5555 349,-42.5555 490,-42.5555 490,-14.5555 349,-14.5555"/>
<text text-anchor="start" x="357" y="-31.3555" font-family="Helvetica,sans-Serif" font-size="9.00">mappel::PriorMAP1DObjective</text>
<text text-anchor="middle" x="419.5" y="-21.3555" font-family="Helvetica,sans-Serif" font-size="9.00">::set_hyperparameters</text>
</a>
</g>
</g>
<!-- Node1&#45;&gt;Node13 -->
<g id="edge13" class="edge"><title>Node1&#45;&gt;Node13</title>
<path fill="none" stroke="midnightblue" d="M66.8386,-237.367C72.06,-187.829 91.7009,-75.4709 164,-27.5555 226.98,14.1835 319.376,-0.284361 373.789,-14.4935"/>
<polygon fill="midnightblue" stroke="midnightblue" points="63.3399,-237.189 65.8848,-247.474 70.3089,-237.847 63.3399,-237.189"/>
</g>
<!-- Node12&#45;&gt;Node13 -->
<g id="edge12" class="edge"><title>Node12&#45;&gt;Node13</title>
<path fill="none" stroke="midnightblue" d="M319.414,-40.7337C329.272,-39.5222 339.286,-38.2913 348.972,-37.1009"/>
<polygon fill="midnightblue" stroke="midnightblue" points="318.717,-37.2929 309.219,-41.9868 319.571,-44.2407 318.717,-37.2929"/>
</g>
</g>
</svg>
