<?xml version="1.0" encoding="UTF-8" standalone="no"?>
<!DOCTYPE svg PUBLIC "-//W3C//DTD SVG 1.1//EN"
 "http://www.w3.org/Graphics/SVG/1.1/DTD/svg11.dtd">
<!-- Generated by graphviz version 2.38.0 (20140413.2041)
 -->
<!-- Title: mappel::print_centered_title Pages: 1 -->
<svg width="560pt" height="74pt"
 viewBox="0.00 0.00 560.00 74.00" xmlns="http://www.w3.org/2000/svg" xmlns:xlink="http://www.w3.org/1999/xlink">
<g id="graph0" class="graph" transform="scale(1 1) rotate(0) translate(4 70)">
<title>mappel::print_centered_title</title>
<polygon fill="white" stroke="none" points="-4,4 -4,-70 556,-70 556,4 -4,4"/>
<!-- Node1 -->
<g id="node1" class="node"><title>Node1</title>
<polygon fill="#bfbfbf" stroke="black" points="0,-21.5 0,-49.5 111,-49.5 111,-21.5 0,-21.5"/>
<text text-anchor="start" x="8" y="-38.3" font-family="Helvetica,sans-Serif" font-size="9.00">mappel::print_centered</text>
<text text-anchor="middle" x="55.5" y="-28.3" font-family="Helvetica,sans-Serif" font-size="9.00">_title</text>
</g>
<!-- Node2 -->
<g id="node2" class="node"><title>Node2</title>
<g id="a_node2"><a xlink:href="namespacemappel.html#a5c439f824ab91a6e426685d74ee90a33" target="_top" xlink:title="mappel::print_image">
<polygon fill="white" stroke="black" points="149.5,-47.5 149.5,-65.5 250.5,-65.5 250.5,-47.5 149.5,-47.5"/>
<text text-anchor="middle" x="200" y="-54.3" font-family="Helvetica,sans-Serif" font-size="9.00">mappel::print_image</text>
</a>
</g>
</g>
<!-- Node1&#45;&gt;Node2 -->
<g id="edge1" class="edge"><title>Node1&#45;&gt;Node2</title>
<path fill="none" stroke="midnightblue" d="M121.316,-45.0519C130.735,-46.4399 140.305,-47.8502 149.36,-49.1847"/>
<polygon fill="midnightblue" stroke="midnightblue" points="121.59,-41.5545 111.187,-43.5591 120.57,-48.4797 121.59,-41.5545"/>
</g>
<!-- Node3 -->
<g id="node3" class="node"><title>Node3</title>
<g id="a_node3"><a xlink:href="namespacemappel.html#ab2dadb64b79f80c01086ce2c3d42e642" target="_top" xlink:title="mappel::print_labeled\l_image">
<polygon fill="white" stroke="black" points="147,-0.5 147,-28.5 253,-28.5 253,-0.5 147,-0.5"/>
<text text-anchor="start" x="155" y="-17.3" font-family="Helvetica,sans-Serif" font-size="9.00">mappel::print_labeled</text>
<text text-anchor="middle" x="200" y="-7.3" font-family="Helvetica,sans-Serif" font-size="9.00">_image</text>
</a>
</g>
</g>
<!-- Node1&#45;&gt;Node3 -->
<g id="edge2" class="edge"><title>Node1&#45;&gt;Node3</title>
<path fill="none" stroke="midnightblue" d="M121.106,-25.9791C129.631,-24.7228 138.284,-23.4477 146.571,-22.2264"/>
<polygon fill="midnightblue" stroke="midnightblue" points="120.57,-22.5203 111.187,-27.4409 121.59,-29.4455 120.57,-22.5203"/>
</g>
<!-- Node4 -->
<g id="node4" class="node"><title>Node4</title>
<g id="a_node4"><a xlink:href="namespacemappel.html#a846ffe01da2a5333d847cbb7845861e8" target="_top" xlink:title="mappel::print_image">
<polygon fill="white" stroke="black" points="289,-5.5 289,-23.5 390,-23.5 390,-5.5 289,-5.5"/>
<text text-anchor="middle" x="339.5" y="-12.3" font-family="Helvetica,sans-Serif" font-size="9.00">mappel::print_image</text>
</a>
</g>
</g>
<!-- Node3&#45;&gt;Node4 -->
<g id="edge3" class="edge"><title>Node3&#45;&gt;Node4</title>
<path fill="none" stroke="midnightblue" d="M263.643,-14.5C272.141,-14.5 280.764,-14.5 288.988,-14.5"/>
<polygon fill="midnightblue" stroke="midnightblue" points="263.375,-11.0001 253.375,-14.5 263.375,-18.0001 263.375,-11.0001"/>
</g>
<!-- Node5 -->
<g id="node5" class="node"><title>Node5</title>
<g id="a_node5"><a xlink:href="classmappel_1_1IterativeMaximizer.html#ad83f7b0a5b4d412f419b6089e73a66e0" target="_top" xlink:title="mappel::IterativeMaximizer\l::compute_estimate">
<polygon fill="white" stroke="black" points="426,-0.5 426,-28.5 552,-28.5 552,-0.5 426,-0.5"/>
<text text-anchor="start" x="434" y="-17.3" font-family="Helvetica,sans-Serif" font-size="9.00">mappel::IterativeMaximizer</text>
<text text-anchor="middle" x="489" y="-7.3" font-family="Helvetica,sans-Serif" font-size="9.00">::compute_estimate</text>
</a>
</g>
</g>
<!-- Node4&#45;&gt;Node5 -->
<g id="edge4" class="edge"><title>Node4&#45;&gt;Node5</title>
<path fill="none" stroke="midnightblue" d="M400.158,-14.5C408.594,-14.5 417.285,-14.5 425.768,-14.5"/>
<polygon fill="midnightblue" stroke="midnightblue" points="400.026,-11.0001 390.026,-14.5 400.026,-18.0001 400.026,-11.0001"/>
</g>
</g>
</svg>
