<?xml version="1.0" encoding="UTF-8" standalone="no"?>
<!DOCTYPE svg PUBLIC "-//W3C//DTD SVG 1.1//EN"
 "http://www.w3.org/Graphics/SVG/1.1/DTD/svg11.dtd">
<!-- Generated by graphviz version 2.38.0 (20140413.2041)
 -->
<!-- Title: mappel::methods::objective::openmp::negative_definite_hessian_stack Pages: 1 -->
<svg width="303pt" height="47pt"
 viewBox="0.00 0.00 303.00 47.00" xmlns="http://www.w3.org/2000/svg" xmlns:xlink="http://www.w3.org/1999/xlink">
<g id="graph0" class="graph" transform="scale(1 1) rotate(0) translate(4 43)">
<title>mappel::methods::objective::openmp::negative_definite_hessian_stack</title>
<polygon fill="white" stroke="none" points="-4,4 -4,-43 299,-43 299,4 -4,4"/>
<!-- Node1 -->
<g id="node1" class="node"><title>Node1</title>
<polygon fill="#bfbfbf" stroke="black" points="0,-0.5 0,-38.5 130,-38.5 130,-0.5 0,-0.5"/>
<text text-anchor="start" x="8" y="-27.3" font-family="Helvetica,sans-Serif" font-size="9.00">mappel::methods::objective</text>
<text text-anchor="start" x="8" y="-17.3" font-family="Helvetica,sans-Serif" font-size="9.00">::openmp::negative_definite</text>
<text text-anchor="middle" x="65" y="-7.3" font-family="Helvetica,sans-Serif" font-size="9.00">_hessian_stack</text>
</g>
<!-- Node2 -->
<g id="node2" class="node"><title>Node2</title>
<g id="a_node2"><a xlink:href="namespacemappel_1_1methods_1_1objective.html#a1ea67c58d320c1634d8c69f834359029" target="_top" xlink:title="mappel::methods::objective\l::negative_definite_hessian">
<polygon fill="white" stroke="black" points="166,-5.5 166,-33.5 295,-33.5 295,-5.5 166,-5.5"/>
<text text-anchor="start" x="174" y="-22.3" font-family="Helvetica,sans-Serif" font-size="9.00">mappel::methods::objective</text>
<text text-anchor="middle" x="230.5" y="-12.3" font-family="Helvetica,sans-Serif" font-size="9.00">::negative_definite_hessian</text>
</a>
</g>
</g>
<!-- Node1&#45;&gt;Node2 -->
<g id="edge1" class="edge"><title>Node1&#45;&gt;Node2</title>
<path fill="none" stroke="midnightblue" d="M130.15,-19.5C138.482,-19.5 147.07,-19.5 155.546,-19.5"/>
<polygon fill="midnightblue" stroke="midnightblue" points="155.803,-23.0001 165.803,-19.5 155.803,-16.0001 155.803,-23.0001"/>
</g>
</g>
</svg>
