<?xml version="1.0" encoding="UTF-8" standalone="no"?>
<!DOCTYPE svg PUBLIC "-//W3C//DTD SVG 1.1//EN"
 "http://www.w3.org/Graphics/SVG/1.1/DTD/svg11.dtd">
<!-- Generated by graphviz version 2.38.0 (20140413.2041)
 -->
<!-- Title: mappel::methods::objective::openmp::rllh_stack Pages: 1 -->
<svg width="295pt" height="84pt"
 viewBox="0.00 0.00 295.00 84.00" xmlns="http://www.w3.org/2000/svg" xmlns:xlink="http://www.w3.org/1999/xlink">
<g id="graph0" class="graph" transform="scale(1 1) rotate(0) translate(4 80)">
<title>mappel::methods::objective::openmp::rllh_stack</title>
<polygon fill="white" stroke="none" points="-4,4 -4,-80 291,-80 291,4 -4,4"/>
<!-- Node1 -->
<g id="node1" class="node"><title>Node1</title>
<polygon fill="#bfbfbf" stroke="black" points="0,-23.5 0,-51.5 128,-51.5 128,-23.5 0,-23.5"/>
<text text-anchor="start" x="8" y="-40.3" font-family="Helvetica,sans-Serif" font-size="9.00">mappel::methods::objective</text>
<text text-anchor="middle" x="64" y="-30.3" font-family="Helvetica,sans-Serif" font-size="9.00">::openmp::rllh_stack</text>
</g>
<!-- Node2 -->
<g id="node2" class="node"><title>Node2</title>
<g id="a_node2"><a xlink:href="classmappel_1_1CGaussMLE.html#a6bf98b8144f4cd5f548b49f32a95141e" target="_top" xlink:title="mappel::CGaussMLE::\lcompute_estimate_debug">
<polygon fill="white" stroke="black" points="164,-47.5 164,-75.5 287,-75.5 287,-47.5 164,-47.5"/>
<text text-anchor="start" x="172" y="-64.3" font-family="Helvetica,sans-Serif" font-size="9.00">mappel::CGaussMLE::</text>
<text text-anchor="middle" x="225.5" y="-54.3" font-family="Helvetica,sans-Serif" font-size="9.00">compute_estimate_debug</text>
</a>
</g>
</g>
<!-- Node1&#45;&gt;Node2 -->
<g id="edge1" class="edge"><title>Node1&#45;&gt;Node2</title>
<path fill="none" stroke="midnightblue" d="M138.053,-48.4924C146.646,-49.7853 155.343,-51.0939 163.741,-52.3576"/>
<polygon fill="midnightblue" stroke="midnightblue" points="138.448,-45.0124 128.039,-46.9854 137.406,-51.9345 138.448,-45.0124"/>
</g>
<!-- Node3 -->
<g id="node3" class="node"><title>Node3</title>
<g id="a_node3"><a xlink:href="classmappel_1_1Estimator.html#a629823fa91d4b461b2b1f607d588e558" target="_top" xlink:title="mappel::Estimator::\l~Estimator">
<polygon fill="white" stroke="black" points="178,-0.5 178,-28.5 273,-28.5 273,-0.5 178,-0.5"/>
<text text-anchor="start" x="186" y="-17.3" font-family="Helvetica,sans-Serif" font-size="9.00">mappel::Estimator::</text>
<text text-anchor="middle" x="225.5" y="-7.3" font-family="Helvetica,sans-Serif" font-size="9.00">~Estimator</text>
</a>
</g>
</g>
<!-- Node1&#45;&gt;Node3 -->
<g id="edge2" class="edge"><title>Node1&#45;&gt;Node3</title>
<path fill="none" stroke="midnightblue" d="M138.219,-26.9417C151.629,-25.008 165.287,-23.0386 177.662,-21.2541"/>
<polygon fill="midnightblue" stroke="midnightblue" points="137.437,-23.5183 128.039,-28.4098 138.436,-30.4466 137.437,-23.5183"/>
</g>
</g>
</svg>
