<?xml version="1.0" encoding="UTF-8" standalone="no"?>
<!DOCTYPE svg PUBLIC "-//W3C//DTD SVG 1.1//EN"
 "http://www.w3.org/Graphics/SVG/1.1/DTD/svg11.dtd">
<!-- Generated by graphviz version 2.38.0 (20140413.2041)
 -->
<!-- Title: mappel::mcmc::sample_posterior Pages: 1 -->
<svg width="280pt" height="37pt"
 viewBox="0.00 0.00 280.00 37.00" xmlns="http://www.w3.org/2000/svg" xmlns:xlink="http://www.w3.org/1999/xlink">
<g id="graph0" class="graph" transform="scale(1 1) rotate(0) translate(4 33)">
<title>mappel::mcmc::sample_posterior</title>
<polygon fill="white" stroke="none" points="-4,4 -4,-33 276,-33 276,4 -4,4"/>
<!-- Node1 -->
<g id="node1" class="node"><title>Node1</title>
<polygon fill="#bfbfbf" stroke="black" points="0,-0.5 0,-28.5 110,-28.5 110,-0.5 0,-0.5"/>
<text text-anchor="start" x="8" y="-17.3" font-family="Helvetica,sans-Serif" font-size="9.00">mappel::mcmc::sample</text>
<text text-anchor="middle" x="55" y="-7.3" font-family="Helvetica,sans-Serif" font-size="9.00">_posterior</text>
</g>
<!-- Node2 -->
<g id="node2" class="node"><title>Node2</title>
<g id="a_node2"><a xlink:href="namespacemappel_1_1methods.html#abf7481af94ebff828622ec6b38a271ee" target="_top" xlink:title="mappel::methods::estimate\l_mcmc_sample">
<polygon fill="white" stroke="black" points="146,-0.5 146,-28.5 272,-28.5 272,-0.5 146,-0.5"/>
<text text-anchor="start" x="154" y="-17.3" font-family="Helvetica,sans-Serif" font-size="9.00">mappel::methods::estimate</text>
<text text-anchor="middle" x="209" y="-7.3" font-family="Helvetica,sans-Serif" font-size="9.00">_mcmc_sample</text>
</a>
</g>
</g>
<!-- Node1&#45;&gt;Node2 -->
<g id="edge1" class="edge"><title>Node1&#45;&gt;Node2</title>
<path fill="none" stroke="midnightblue" d="M120.239,-14.5C128.725,-14.5 137.411,-14.5 145.861,-14.5"/>
<polygon fill="midnightblue" stroke="midnightblue" points="120.018,-11.0001 110.017,-14.5 120.017,-18.0001 120.018,-11.0001"/>
</g>
</g>
</svg>
