<?xml version="1.0" encoding="UTF-8" standalone="no"?>
<!DOCTYPE svg PUBLIC "-//W3C//DTD SVG 1.1//EN"
 "http://www.w3.org/Graphics/SVG/1.1/DTD/svg11.dtd">
<!-- Generated by graphviz version 2.38.0 (20140413.2041)
 -->
<!-- Title: mappel::methods::objective::negative_definite_hessian Pages: 1 -->
<!--zoomable 105 -->
<svg id="main" version="1.1" xmlns="http://www.w3.org/2000/svg" xmlns:xlink="http://www.w3.org/1999/xlink" xml:space="preserve" onload="init(evt)">
<style type="text/css"><![CDATA[
.edge:hover path { stroke: red; }
.edge:hover polygon { stroke: red; fill: red; }
]]></style>
<script type="text/javascript"><![CDATA[
var edges = document.getElementsByTagName('g');
if (edges && edges.length) {
  for (var i=0;i<edges.length;i++) {
    if (edges[i].id.substr(0,4)=='edge') {
      edges[i].setAttribute('class','edge');
    }
  }
}
]]></script>
        <defs>
                <circle id="rim" cx="0" cy="0" r="7"/>
                <circle id="rim2" cx="0" cy="0" r="3.5"/>
                <g id="zoomPlus">
                        <use xlink:href="#rim" fill="#404040">
                                <set attributeName="fill" to="#808080" begin="zoomplus.mouseover" end="zoomplus.mouseout"/>
                        </use>
                        <path d="M-4,0h8M0,-4v8" fill="none" stroke="white" stroke-width="1.5" pointer-events="none"/>
                </g>
                <g id="zoomMin">
                        <use xlink:href="#rim" fill="#404040">
                                <set attributeName="fill" to="#808080" begin="zoomminus.mouseover" end="zoomminus.mouseout"/>
                        </use>
                        <path d="M-4,0h8" fill="none" stroke="white" stroke-width="1.5" pointer-events="none"/>
                </g>
                <g id="dirArrow">
                        <path fill="none" stroke="white" stroke-width="1.5" d="M0,-3.0v7 M-2.5,-0.5L0,-3.0L2.5,-0.5"/>
                </g>
               <g id="resetDef">
                       <use xlink:href="#rim2" fill="#404040">
                               <set attributeName="fill" to="#808080" begin="reset.mouseover" end="reset.mouseout"/>
                       </use>
               </g>
        </defs>

<script type="text/javascript">
var viewWidth = 621;
var viewHeight = 105;
var sectionId = 'dynsection-15';
</script>
<script xlink:href="svgpan.js"/>
<svg id="graph" class="graph">
<g id="viewport">
<title>mappel::methods::objective::negative_definite_hessian</title>
<polygon fill="white" stroke="none" points="-4,4 -4,-101 617,-101 617,4 -4,4"/>
<!-- Node1 -->
<g id="node1" class="node"><title>Node1</title>
<polygon fill="#bfbfbf" stroke="black" points="0,-23.5 0,-51.5 129,-51.5 129,-23.5 0,-23.5"/>
<text text-anchor="start" x="8" y="-40.3" font-family="Helvetica,sans-Serif" font-size="9.00">mappel::methods::objective</text>
<text text-anchor="middle" x="64.5" y="-30.3" font-family="Helvetica,sans-Serif" font-size="9.00">::negative_definite_hessian</text>
</g>
<!-- Node2 -->
<g id="node2" class="node"><title>Node2</title>
<g id="a_node2"><a xlink:href="namespacemappel.html#af0d85d0ac01f8397a555efb5912fc2ea" target="_top" xlink:title="mappel::cholesky_make\l_negative_definite">
<polygon fill="white" stroke="black" points="171,-47.5 171,-75.5 287,-75.5 287,-47.5 171,-47.5"/>
<text text-anchor="start" x="179" y="-64.3" font-family="Helvetica,sans-Serif" font-size="9.00">mappel::cholesky_make</text>
<text text-anchor="middle" x="229" y="-54.3" font-family="Helvetica,sans-Serif" font-size="9.00">_negative_definite</text>
</a>
</g>
</g>
<!-- Node1&#45;&gt;Node2 -->
<g id="edge1" class="edge"><title>Node1&#45;&gt;Node2</title>
<path fill="none" stroke="midnightblue" d="M129.258,-46.9166C139.635,-48.4491 150.411,-50.0407 160.866,-51.5848"/>
<polygon fill="midnightblue" stroke="midnightblue" points="160.363,-55.0485 170.768,-53.0472 161.386,-48.1236 160.363,-55.0485"/>
</g>
<!-- Node6 -->
<g id="node6" class="node"><title>Node6</title>
<g id="a_node6"><a xlink:href="namespacemappel_1_1methods_1_1objective.html#afbf93fa446606620d01747af3684f62d" target="_top" xlink:title="mappel::methods::objective\l::hessian">
<polygon fill="white" stroke="black" points="165,-0.5 165,-28.5 293,-28.5 293,-0.5 165,-0.5"/>
<text text-anchor="start" x="173" y="-17.3" font-family="Helvetica,sans-Serif" font-size="9.00">mappel::methods::objective</text>
<text text-anchor="middle" x="229" y="-7.3" font-family="Helvetica,sans-Serif" font-size="9.00">::hessian</text>
</a>
</g>
</g>
<!-- Node1&#45;&gt;Node6 -->
<g id="edge5" class="edge"><title>Node1&#45;&gt;Node6</title>
<path fill="none" stroke="midnightblue" d="M129.258,-28.4758C137.694,-27.2818 146.394,-26.0504 154.971,-24.8365"/>
<polygon fill="midnightblue" stroke="midnightblue" points="155.548,-28.2897 164.959,-23.4227 154.567,-21.3588 155.548,-28.2897"/>
</g>
<!-- Node3 -->
<g id="node3" class="node"><title>Node3</title>
<g id="a_node3"><a xlink:href="namespacemappel.html#a2f4256e721d1f22f2d72817ba3d2540d" target="_top" xlink:title="mappel::cholesky_convert\l_full_matrix">
<polygon fill="white" stroke="black" points="331.5,-68.5 331.5,-96.5 454.5,-96.5 454.5,-68.5 331.5,-68.5"/>
<text text-anchor="start" x="339.5" y="-85.3" font-family="Helvetica,sans-Serif" font-size="9.00">mappel::cholesky_convert</text>
<text text-anchor="middle" x="393" y="-75.3" font-family="Helvetica,sans-Serif" font-size="9.00">_full_matrix</text>
</a>
</g>
</g>
<!-- Node2&#45;&gt;Node3 -->
<g id="edge2" class="edge"><title>Node2&#45;&gt;Node3</title>
<path fill="none" stroke="midnightblue" d="M287.115,-68.9038C298.177,-70.3377 309.891,-71.8563 321.326,-73.3386"/>
<polygon fill="midnightblue" stroke="midnightblue" points="320.913,-76.8143 331.28,-74.6289 321.813,-69.8723 320.913,-76.8143"/>
</g>
<!-- Node5 -->
<g id="node5" class="node"><title>Node5</title>
<g id="a_node5"><a xlink:href="namespacemappel.html#a5b0ad6d46ef0173ae9e44a0ff9af7f0b" target="_top" xlink:title="mappel::modified_cholesky">
<polygon fill="white" stroke="black" points="329,-31.5 329,-49.5 457,-49.5 457,-31.5 329,-31.5"/>
<text text-anchor="middle" x="393" y="-38.3" font-family="Helvetica,sans-Serif" font-size="9.00">mappel::modified_cholesky</text>
</a>
</g>
</g>
<!-- Node2&#45;&gt;Node5 -->
<g id="edge4" class="edge"><title>Node2&#45;&gt;Node5</title>
<path fill="none" stroke="midnightblue" d="M287.115,-54.0962C297.332,-52.7718 308.106,-51.3752 318.702,-50.0016"/>
<polygon fill="midnightblue" stroke="midnightblue" points="319.316,-53.4514 328.783,-48.6948 318.416,-46.5095 319.316,-53.4514"/>
</g>
<!-- Node4 -->
<g id="node4" class="node"><title>Node4</title>
<g id="a_node4"><a xlink:href="namespacemappel.html#a7332bb151bb9ea23be4af80743009954" target="_top" xlink:title="mappel::copy_Usym_mat">
<polygon fill="white" stroke="black" points="493,-73.5 493,-91.5 613,-91.5 613,-73.5 493,-73.5"/>
<text text-anchor="middle" x="553" y="-80.3" font-family="Helvetica,sans-Serif" font-size="9.00">mappel::copy_Usym_mat</text>
</a>
</g>
</g>
<!-- Node3&#45;&gt;Node4 -->
<g id="edge3" class="edge"><title>Node3&#45;&gt;Node4</title>
<path fill="none" stroke="midnightblue" d="M454.635,-82.5C463.838,-82.5 473.393,-82.5 482.762,-82.5"/>
<polygon fill="midnightblue" stroke="midnightblue" points="482.83,-86.0001 492.83,-82.5 482.83,-79.0001 482.83,-86.0001"/>
</g>
</g>
</svg>
        <g id="navigator" transform="translate(0 0)" fill="#404254">
                <rect fill="#f2f5e9" fill-opacity="0.5" stroke="#606060" stroke-width=".5" x="0" y="0" width="60" height="60"/>
                <use id="zoomplus" xlink:href="#zoomPlus" x="17" y="9" onmousedown="handleZoom(evt,'in')"/>
                <use id="zoomminus" xlink:href="#zoomMin" x="42" y="9" onmousedown="handleZoom(evt,'out')"/>
                <use id="reset" xlink:href="#resetDef" x="30" y="36" onmousedown="handleReset()"/>
                <g id="arrowUp" xlink:href="#dirArrow" transform="translate(30 24)" onmousedown="handlePan(0,-1)">
                  <use xlink:href="#rim" fill="#404040">
                        <set attributeName="fill" to="#808080" begin="arrowUp.mouseover" end="arrowUp.mouseout"/>
                  </use>
                  <path fill="none" stroke="white" stroke-width="1.5" d="M0,-3.0v7 M-2.5,-0.5L0,-3.0L2.5,-0.5"/>
                </g>
                <g id="arrowRight" xlink:href="#dirArrow" transform="rotate(90) translate(36 -43)" onmousedown="handlePan(1,0)">
                  <use xlink:href="#rim" fill="#404040">
                        <set attributeName="fill" to="#808080" begin="arrowRight.mouseover" end="arrowRight.mouseout"/>
                  </use>
                  <path fill="none" stroke="white" stroke-width="1.5" d="M0,-3.0v7 M-2.5,-0.5L0,-3.0L2.5,-0.5"/>
                </g>
                <g id="arrowDown" xlink:href="#dirArrow" transform="rotate(180) translate(-30 -48)" onmousedown="handlePan(0,1)">
                  <use xlink:href="#rim" fill="#404040">
                        <set attributeName="fill" to="#808080" begin="arrowDown.mouseover" end="arrowDown.mouseout"/>
                  </use>
                  <path fill="none" stroke="white" stroke-width="1.5" d="M0,-3.0v7 M-2.5,-0.5L0,-3.0L2.5,-0.5"/>
                </g>
                <g id="arrowLeft" xlink:href="#dirArrow" transform="rotate(270) translate(-36 17)" onmousedown="handlePan(-1,0)">
                  <use xlink:href="#rim" fill="#404040">
                        <set attributeName="fill" to="#808080" begin="arrowLeft.mouseover" end="arrowLeft.mouseout"/>
                  </use>
                  <path fill="none" stroke="white" stroke-width="1.5" d="M0,-3.0v7 M-2.5,-0.5L0,-3.0L2.5,-0.5"/>
                </g>
        </g>
        <svg viewBox="0 0 15 15" width="100%" height="30px" preserveAspectRatio="xMaxYMin meet">
         <g id="arrow_out" transform="scale(0.3 0.3)">
          <a xlink:href="namespacemappel_1_1methods_1_1objective_a8c40861cc75e4165606b495a6c04c62a_cgraph_org.svg" target="_base">
           <rect id="button" ry="5" rx="5" y="6" x="6" height="38" width="38"
                fill="#f2f5e9" fill-opacity="0.5" stroke="#606060" stroke-width="1.0"/>
           <path id="arrow"
             d="M 11.500037,31.436501 C 11.940474,20.09759 22.043105,11.32322 32.158766,21.979434 L 37.068811,17.246167 C 37.068811,17.246167 37.088388,32 37.088388,32 L 22.160133,31.978069 C 22.160133,31.978069 26.997745,27.140456 26.997745,27.140456 C 18.528582,18.264221 13.291696,25.230495 11.500037,31.436501 z"
             style="fill:#404040;"/>
          </a>
         </g>
        </svg>
</svg>
