<?xml version="1.0" encoding="UTF-8" standalone="no"?>
<!DOCTYPE svg PUBLIC "-//W3C//DTD SVG 1.1//EN"
 "http://www.w3.org/Graphics/SVG/1.1/DTD/svg11.dtd">
<!-- Generated by graphviz version 2.38.0 (20140413.2041)
 -->
<!-- Title: mappel::methods::objective::openmp::llh_stack Pages: 1 -->
<svg width="282pt" height="37pt"
 viewBox="0.00 0.00 282.00 37.00" xmlns="http://www.w3.org/2000/svg" xmlns:xlink="http://www.w3.org/1999/xlink">
<g id="graph0" class="graph" transform="scale(1 1) rotate(0) translate(4 33)">
<title>mappel::methods::objective::openmp::llh_stack</title>
<polygon fill="white" stroke="none" points="-4,4 -4,-33 278,-33 278,4 -4,4"/>
<!-- Node1 -->
<g id="node1" class="node"><title>Node1</title>
<polygon fill="#bfbfbf" stroke="black" points="0,-0.5 0,-28.5 128,-28.5 128,-0.5 0,-0.5"/>
<text text-anchor="start" x="8" y="-17.3" font-family="Helvetica,sans-Serif" font-size="9.00">mappel::methods::objective</text>
<text text-anchor="middle" x="64" y="-7.3" font-family="Helvetica,sans-Serif" font-size="9.00">::openmp::llh_stack</text>
</g>
<!-- Node2 -->
<g id="node2" class="node"><title>Node2</title>
<g id="a_node2"><a xlink:href="namespacemappel.html#ac37bf1175da6d4a80cd4cb147bfb68e2" target="_top" xlink:title="Parallel log_likelihood calculations for a single image. ">
<polygon fill="white" stroke="black" points="164,-0.5 164,-28.5 274,-28.5 274,-0.5 164,-0.5"/>
<text text-anchor="start" x="172" y="-17.3" font-family="Helvetica,sans-Serif" font-size="9.00">mappel::log_likelihood</text>
<text text-anchor="middle" x="219" y="-7.3" font-family="Helvetica,sans-Serif" font-size="9.00">_stack</text>
</a>
</g>
</g>
<!-- Node1&#45;&gt;Node2 -->
<g id="edge1" class="edge"><title>Node1&#45;&gt;Node2</title>
<path fill="none" stroke="midnightblue" d="M138.194,-14.5C146.825,-14.5 155.513,-14.5 163.816,-14.5"/>
<polygon fill="midnightblue" stroke="midnightblue" points="138.114,-11.0001 128.114,-14.5 138.114,-18.0001 138.114,-11.0001"/>
</g>
</g>
</svg>
