<?xml version="1.0" encoding="UTF-8" standalone="no"?>
<!DOCTYPE svg PUBLIC "-//W3C//DTD SVG 1.1//EN"
 "http://www.w3.org/Graphics/SVG/1.1/DTD/svg11.dtd">
<!-- Generated by graphviz version 2.38.0 (20140413.2041)
 -->
<!-- Title: mappel::make_DXS_stencil Pages: 1 -->
<svg width="406pt" height="27pt"
 viewBox="0.00 0.00 406.00 27.00" xmlns="http://www.w3.org/2000/svg" xmlns:xlink="http://www.w3.org/1999/xlink">
<g id="graph0" class="graph" transform="scale(1 1) rotate(0) translate(4 23)">
<title>mappel::make_DXS_stencil</title>
<polygon fill="white" stroke="none" points="-4,4 -4,-23 402,-23 402,4 -4,4"/>
<!-- Node1 -->
<g id="node1" class="node"><title>Node1</title>
<polygon fill="#bfbfbf" stroke="black" points="0,-0.5 0,-18.5 130,-18.5 130,-0.5 0,-0.5"/>
<text text-anchor="middle" x="65" y="-7.3" font-family="Helvetica,sans-Serif" font-size="9.00">mappel::make_DXS_stencil</text>
</g>
<!-- Node2 -->
<g id="node2" class="node"><title>Node2</title>
<g id="a_node2"><a xlink:href="namespacemappel.html#ab0cb62f6dcecae5ff19468d87a283e7a" target="_top" xlink:title="mappel::fill_DXS_stencil">
<polygon fill="white" stroke="black" points="166,-0.5 166,-18.5 282,-18.5 282,-0.5 166,-0.5"/>
<text text-anchor="middle" x="224" y="-7.3" font-family="Helvetica,sans-Serif" font-size="9.00">mappel::fill_DXS_stencil</text>
</a>
</g>
</g>
<!-- Node1&#45;&gt;Node2 -->
<g id="edge1" class="edge"><title>Node1&#45;&gt;Node2</title>
<path fill="none" stroke="midnightblue" d="M130.311,-9.5C138.619,-9.5 147.147,-9.5 155.504,-9.5"/>
<polygon fill="midnightblue" stroke="midnightblue" points="155.589,-13.0001 165.589,-9.5 155.589,-6.0001 155.589,-13.0001"/>
</g>
<!-- Node3 -->
<g id="node3" class="node"><title>Node3</title>
<g id="a_node3"><a xlink:href="namespacemappel.html#a8475cdb3edacceb0ae215c3ebd1f33c1" target="_top" xlink:title="mappel::square">
<polygon fill="white" stroke="black" points="318,-0.5 318,-18.5 398,-18.5 398,-0.5 318,-0.5"/>
<text text-anchor="middle" x="358" y="-7.3" font-family="Helvetica,sans-Serif" font-size="9.00">mappel::square</text>
</a>
</g>
</g>
<!-- Node2&#45;&gt;Node3 -->
<g id="edge2" class="edge"><title>Node2&#45;&gt;Node3</title>
<path fill="none" stroke="midnightblue" d="M282.129,-9.5C290.556,-9.5 299.179,-9.5 307.435,-9.5"/>
<polygon fill="midnightblue" stroke="midnightblue" points="307.655,-13.0001 317.655,-9.5 307.655,-6.0001 307.655,-13.0001"/>
</g>
</g>
</svg>
