<?xml version="1.0" encoding="UTF-8" standalone="no"?>
<!DOCTYPE svg PUBLIC "-//W3C//DTD SVG 1.1//EN"
 "http://www.w3.org/Graphics/SVG/1.1/DTD/svg11.dtd">
<!-- Generated by graphviz version 2.38.0 (20140413.2041)
 -->
<!-- Title: mappel::relative_poisson_log_likelihood Pages: 1 -->
<svg width="636pt" height="121pt"
 viewBox="0.00 0.00 636.00 121.00" xmlns="http://www.w3.org/2000/svg" xmlns:xlink="http://www.w3.org/1999/xlink">
<g id="graph0" class="graph" transform="scale(1 1) rotate(0) translate(4 117)">
<title>mappel::relative_poisson_log_likelihood</title>
<polygon fill="white" stroke="none" points="-4,4 -4,-117 632,-117 632,4 -4,4"/>
<!-- Node1 -->
<g id="node1" class="node"><title>Node1</title>
<polygon fill="#bfbfbf" stroke="black" points="0,-47.5 0,-75.5 119,-75.5 119,-47.5 0,-47.5"/>
<text text-anchor="start" x="8" y="-64.3" font-family="Helvetica,sans-Serif" font-size="9.00">mappel::relative_poisson</text>
<text text-anchor="middle" x="59.5" y="-54.3" font-family="Helvetica,sans-Serif" font-size="9.00">_log_likelihood</text>
</g>
<!-- Node2 -->
<g id="node2" class="node"><title>Node2</title>
<g id="a_node2"><a xlink:href="PoissonGaussianNoise2DObjective_8h.html#aa87ae0a4dcfe77673013d48a2061d4a8" target="_top" xlink:title="relative_log_likelihood">
<polygon fill="white" stroke="black" points="165.5,-94.5 165.5,-112.5 275.5,-112.5 275.5,-94.5 165.5,-94.5"/>
<text text-anchor="middle" x="220.5" y="-101.3" font-family="Helvetica,sans-Serif" font-size="9.00">relative_log_likelihood</text>
</a>
</g>
</g>
<!-- Node1&#45;&gt;Node2 -->
<g id="edge1" class="edge"><title>Node1&#45;&gt;Node2</title>
<path fill="none" stroke="midnightblue" d="M123.675,-78.1877C144.576,-83.7088 167.051,-89.6455 184.978,-94.381"/>
<polygon fill="midnightblue" stroke="midnightblue" points="124.449,-74.7723 113.887,-75.6022 122.662,-81.5401 124.449,-74.7723"/>
</g>
<!-- Node3 -->
<g id="node3" class="node"><title>Node3</title>
<g id="a_node3"><a xlink:href="namespacemappel_1_1methods_1_1likelihood.html#ae064b0a1e26a5626c62bde870e587ecb" target="_top" xlink:title="mappel::methods::likelihood\l::rllh">
<polygon fill="white" stroke="black" points="155,-47.5 155,-75.5 286,-75.5 286,-47.5 155,-47.5"/>
<text text-anchor="start" x="163" y="-64.3" font-family="Helvetica,sans-Serif" font-size="9.00">mappel::methods::likelihood</text>
<text text-anchor="middle" x="220.5" y="-54.3" font-family="Helvetica,sans-Serif" font-size="9.00">::rllh</text>
</a>
</g>
</g>
<!-- Node1&#45;&gt;Node3 -->
<g id="edge2" class="edge"><title>Node1&#45;&gt;Node3</title>
<path fill="none" stroke="midnightblue" d="M129.436,-61.5C137.87,-61.5 146.466,-61.5 154.835,-61.5"/>
<polygon fill="midnightblue" stroke="midnightblue" points="129.254,-58.0001 119.254,-61.5 129.254,-65.0001 129.254,-58.0001"/>
</g>
<!-- Node8 -->
<g id="node8" class="node"><title>Node8</title>
<g id="a_node8"><a xlink:href="namespacemappel_1_1methods_1_1likelihood_1_1debug.html#abee134828904f67b599234ec96a4a907" target="_top" xlink:title="mappel::methods::likelihood\l::debug::rllh_components">
<polygon fill="white" stroke="black" points="155,-0.5 155,-28.5 286,-28.5 286,-0.5 155,-0.5"/>
<text text-anchor="start" x="163" y="-17.3" font-family="Helvetica,sans-Serif" font-size="9.00">mappel::methods::likelihood</text>
<text text-anchor="middle" x="220.5" y="-7.3" font-family="Helvetica,sans-Serif" font-size="9.00">::debug::rllh_components</text>
</a>
</g>
</g>
<!-- Node1&#45;&gt;Node8 -->
<g id="edge7" class="edge"><title>Node1&#45;&gt;Node8</title>
<path fill="none" stroke="midnightblue" d="M117.897,-44.5337C135.684,-39.2759 155.074,-33.5442 172.103,-28.5106"/>
<polygon fill="midnightblue" stroke="midnightblue" points="116.803,-41.2072 108.205,-47.3985 118.787,-47.9201 116.803,-41.2072"/>
</g>
<!-- Node4 -->
<g id="node4" class="node"><title>Node4</title>
<g id="a_node4"><a xlink:href="namespacemappel_1_1methods.html#a5227b7c0f1c45c27cbebfcafefcab72b" target="_top" xlink:title="mappel::methods::aposteriori\l_objective">
<polygon fill="white" stroke="black" points="322,-70.5 322,-98.5 457,-98.5 457,-70.5 322,-70.5"/>
<text text-anchor="start" x="330" y="-87.3" font-family="Helvetica,sans-Serif" font-size="9.00">mappel::methods::aposteriori</text>
<text text-anchor="middle" x="389.5" y="-77.3" font-family="Helvetica,sans-Serif" font-size="9.00">_objective</text>
</a>
</g>
</g>
<!-- Node3&#45;&gt;Node4 -->
<g id="edge3" class="edge"><title>Node3&#45;&gt;Node4</title>
<path fill="none" stroke="midnightblue" d="M296.082,-71.7718C304.683,-72.9564 313.412,-74.1585 321.897,-75.3272"/>
<polygon fill="midnightblue" stroke="midnightblue" points="296.451,-68.2896 286.067,-70.3924 295.495,-75.2241 296.451,-68.2896"/>
</g>
<!-- Node6 -->
<g id="node6" class="node"><title>Node6</title>
<g id="a_node6"><a xlink:href="namespacemappel_1_1methods.html#a82eaea0b938b0daff819da153e1351e2" target="_top" xlink:title="mappel::methods::likelihood\l_objective">
<polygon fill="white" stroke="black" points="324,-23.5 324,-51.5 455,-51.5 455,-23.5 324,-23.5"/>
<text text-anchor="start" x="332" y="-40.3" font-family="Helvetica,sans-Serif" font-size="9.00">mappel::methods::likelihood</text>
<text text-anchor="middle" x="389.5" y="-30.3" font-family="Helvetica,sans-Serif" font-size="9.00">_objective</text>
</a>
</g>
</g>
<!-- Node3&#45;&gt;Node6 -->
<g id="edge5" class="edge"><title>Node3&#45;&gt;Node6</title>
<path fill="none" stroke="midnightblue" d="M296.043,-50.7872C305.311,-49.4553 314.728,-48.102 323.83,-46.7939"/>
<polygon fill="midnightblue" stroke="midnightblue" points="295.467,-47.334 286.067,-52.221 296.463,-54.2628 295.467,-47.334"/>
</g>
<!-- Node5 -->
<g id="node5" class="node"><title>Node5</title>
<g id="a_node5"><a xlink:href="namespacemappel_1_1methods.html#a3b0e13b783d21c08ba063a210b0a344b" target="_top" xlink:title="mappel::methods::aposteriori\l_objective">
<polygon fill="white" stroke="black" points="493,-70.5 493,-98.5 628,-98.5 628,-70.5 493,-70.5"/>
<text text-anchor="start" x="501" y="-87.3" font-family="Helvetica,sans-Serif" font-size="9.00">mappel::methods::aposteriori</text>
<text text-anchor="middle" x="560.5" y="-77.3" font-family="Helvetica,sans-Serif" font-size="9.00">_objective</text>
</a>
</g>
</g>
<!-- Node4&#45;&gt;Node5 -->
<g id="edge4" class="edge"><title>Node4&#45;&gt;Node5</title>
<path fill="none" stroke="midnightblue" d="M467.551,-84.5C476.019,-84.5 484.589,-84.5 492.915,-84.5"/>
<polygon fill="midnightblue" stroke="midnightblue" points="467.293,-81.0001 457.293,-84.5 467.293,-88.0001 467.293,-81.0001"/>
</g>
<!-- Node7 -->
<g id="node7" class="node"><title>Node7</title>
<g id="a_node7"><a xlink:href="namespacemappel_1_1methods.html#a496d45e1db23f89b54ae0bef016a19b0" target="_top" xlink:title="mappel::methods::likelihood\l_objective">
<polygon fill="white" stroke="black" points="495,-23.5 495,-51.5 626,-51.5 626,-23.5 495,-23.5"/>
<text text-anchor="start" x="503" y="-40.3" font-family="Helvetica,sans-Serif" font-size="9.00">mappel::methods::likelihood</text>
<text text-anchor="middle" x="560.5" y="-30.3" font-family="Helvetica,sans-Serif" font-size="9.00">_objective</text>
</a>
</g>
</g>
<!-- Node6&#45;&gt;Node7 -->
<g id="edge6" class="edge"><title>Node6&#45;&gt;Node7</title>
<path fill="none" stroke="midnightblue" d="M465.471,-37.5C475.258,-37.5 485.219,-37.5 494.817,-37.5"/>
<polygon fill="midnightblue" stroke="midnightblue" points="465.357,-34.0001 455.356,-37.5 465.356,-41.0001 465.357,-34.0001"/>
</g>
</g>
</svg>
