<?xml version="1.0" encoding="UTF-8" standalone="no"?>
<!DOCTYPE svg PUBLIC "-//W3C//DTD SVG 1.1//EN"
 "http://www.w3.org/Graphics/SVG/1.1/DTD/svg11.dtd">
<!-- Generated by graphviz version 2.38.0 (20140413.2041)
 -->
<!-- Title: mappel::make_G_stencil Pages: 1 -->
<svg width="382pt" height="27pt"
 viewBox="0.00 0.00 382.00 27.00" xmlns="http://www.w3.org/2000/svg" xmlns:xlink="http://www.w3.org/1999/xlink">
<g id="graph0" class="graph" transform="scale(1 1) rotate(0) translate(4 23)">
<title>mappel::make_G_stencil</title>
<polygon fill="white" stroke="none" points="-4,4 -4,-23 378,-23 378,4 -4,4"/>
<!-- Node1 -->
<g id="node1" class="node"><title>Node1</title>
<polygon fill="#bfbfbf" stroke="black" points="0,-0.5 0,-18.5 118,-18.5 118,-0.5 0,-0.5"/>
<text text-anchor="middle" x="59" y="-7.3" font-family="Helvetica,sans-Serif" font-size="9.00">mappel::make_G_stencil</text>
</g>
<!-- Node2 -->
<g id="node2" class="node"><title>Node2</title>
<g id="a_node2"><a xlink:href="namespacemappel.html#a5ca82edc201e8605107a991493ad0d5e" target="_top" xlink:title="mappel::fill_G_stencil">
<polygon fill="white" stroke="black" points="154,-0.5 154,-18.5 258,-18.5 258,-0.5 154,-0.5"/>
<text text-anchor="middle" x="206" y="-7.3" font-family="Helvetica,sans-Serif" font-size="9.00">mappel::fill_G_stencil</text>
</a>
</g>
</g>
<!-- Node1&#45;&gt;Node2 -->
<g id="edge1" class="edge"><title>Node1&#45;&gt;Node2</title>
<path fill="none" stroke="midnightblue" d="M118.142,-9.5C126.544,-9.5 135.214,-9.5 143.676,-9.5"/>
<polygon fill="midnightblue" stroke="midnightblue" points="143.863,-13.0001 153.862,-9.5 143.862,-6.0001 143.863,-13.0001"/>
</g>
<!-- Node3 -->
<g id="node3" class="node"><title>Node3</title>
<g id="a_node3"><a xlink:href="namespacemappel.html#a8475cdb3edacceb0ae215c3ebd1f33c1" target="_top" xlink:title="mappel::square">
<polygon fill="white" stroke="black" points="294,-0.5 294,-18.5 374,-18.5 374,-0.5 294,-0.5"/>
<text text-anchor="middle" x="334" y="-7.3" font-family="Helvetica,sans-Serif" font-size="9.00">mappel::square</text>
</a>
</g>
</g>
<!-- Node2&#45;&gt;Node3 -->
<g id="edge2" class="edge"><title>Node2&#45;&gt;Node3</title>
<path fill="none" stroke="midnightblue" d="M258.249,-9.5C266.677,-9.5 275.396,-9.5 283.774,-9.5"/>
<polygon fill="midnightblue" stroke="midnightblue" points="283.78,-13.0001 293.78,-9.5 283.78,-6.0001 283.78,-13.0001"/>
</g>
</g>
</svg>
