<?xml version="1.0" encoding="UTF-8" standalone="no"?>
<!DOCTYPE svg PUBLIC "-//W3C//DTD SVG 1.1//EN"
 "http://www.w3.org/Graphics/SVG/1.1/DTD/svg11.dtd">
<!-- Generated by graphviz version 2.38.0 (20140413.2041)
 -->
<!-- Title: mappel::model_grad_stack Pages: 1 -->
<svg width="273pt" height="74pt"
 viewBox="0.00 0.00 273.00 74.00" xmlns="http://www.w3.org/2000/svg" xmlns:xlink="http://www.w3.org/1999/xlink">
<g id="graph0" class="graph" transform="scale(1 1) rotate(0) translate(4 70)">
<title>mappel::model_grad_stack</title>
<polygon fill="white" stroke="none" points="-4,4 -4,-70 269,-70 269,4 -4,4"/>
<!-- Node1 -->
<g id="node1" class="node"><title>Node1</title>
<polygon fill="#bfbfbf" stroke="black" points="0,-16.5 0,-44.5 101,-44.5 101,-16.5 0,-16.5"/>
<text text-anchor="start" x="8" y="-33.3" font-family="Helvetica,sans-Serif" font-size="9.00">mappel::model_grad</text>
<text text-anchor="middle" x="50.5" y="-23.3" font-family="Helvetica,sans-Serif" font-size="9.00">_stack</text>
</g>
<!-- Node2 -->
<g id="node2" class="node"><title>Node2</title>
<g id="a_node2"><a xlink:href="namespacemappel_1_1methods_1_1objective.html#a8e120e5a79029803453cea5f9f2d8f67" target="_top" xlink:title="mappel::methods::objective\l::grad">
<polygon fill="white" stroke="black" points="137,-37.5 137,-65.5 265,-65.5 265,-37.5 137,-37.5"/>
<text text-anchor="start" x="145" y="-54.3" font-family="Helvetica,sans-Serif" font-size="9.00">mappel::methods::objective</text>
<text text-anchor="middle" x="201" y="-44.3" font-family="Helvetica,sans-Serif" font-size="9.00">::grad</text>
</a>
</g>
</g>
<!-- Node1&#45;&gt;Node2 -->
<g id="edge1" class="edge"><title>Node1&#45;&gt;Node2</title>
<path fill="none" stroke="midnightblue" d="M101.361,-37.5511C109.537,-38.7073 118.157,-39.9262 126.758,-41.1426"/>
<polygon fill="midnightblue" stroke="midnightblue" points="126.428,-44.6307 136.82,-42.5654 127.409,-37.6996 126.428,-44.6307"/>
</g>
<!-- Node3 -->
<g id="node3" class="node"><title>Node3</title>
<g id="a_node3"><a xlink:href="PoissonGaussianNoise2DObjective_8h.html#a52e6c2397c471181decd3f5e5f888b78" target="_top" xlink:title="model_grad">
<polygon fill="white" stroke="black" points="168,-0.5 168,-18.5 234,-18.5 234,-0.5 168,-0.5"/>
<text text-anchor="middle" x="201" y="-7.3" font-family="Helvetica,sans-Serif" font-size="9.00">model_grad</text>
</a>
</g>
</g>
<!-- Node1&#45;&gt;Node3 -->
<g id="edge2" class="edge"><title>Node1&#45;&gt;Node3</title>
<path fill="none" stroke="midnightblue" d="M101.361,-23.4489C119.675,-20.8591 140.215,-17.9545 157.791,-15.469"/>
<polygon fill="midnightblue" stroke="midnightblue" points="158.346,-18.9253 167.758,-14.0595 157.366,-11.9943 158.346,-18.9253"/>
</g>
</g>
</svg>
