<?xml version="1.0" encoding="UTF-8" standalone="no"?>
<!DOCTYPE svg PUBLIC "-//W3C//DTD SVG 1.1//EN"
 "http://www.w3.org/Graphics/SVG/1.1/DTD/svg11.dtd">
<!-- Generated by graphviz version 2.38.0 (20140413.2041)
 -->
<!-- Title: mappel::methods::estimate_mcmc_posterior Pages: 1 -->
<svg width="296pt" height="84pt"
 viewBox="0.00 0.00 296.00 84.00" xmlns="http://www.w3.org/2000/svg" xmlns:xlink="http://www.w3.org/1999/xlink">
<g id="graph0" class="graph" transform="scale(1 1) rotate(0) translate(4 80)">
<title>mappel::methods::estimate_mcmc_posterior</title>
<polygon fill="white" stroke="none" points="-4,4 -4,-80 292,-80 292,4 -4,4"/>
<!-- Node1 -->
<g id="node1" class="node"><title>Node1</title>
<polygon fill="#bfbfbf" stroke="black" points="0,-23.5 0,-51.5 126,-51.5 126,-23.5 0,-23.5"/>
<text text-anchor="start" x="8" y="-40.3" font-family="Helvetica,sans-Serif" font-size="9.00">mappel::methods::estimate</text>
<text text-anchor="middle" x="63" y="-30.3" font-family="Helvetica,sans-Serif" font-size="9.00">_mcmc_posterior</text>
</g>
<!-- Node2 -->
<g id="node2" class="node"><title>Node2</title>
<g id="a_node2"><a xlink:href="namespacemappel_1_1methods.html#a224995eff4bf3ee7652f2ed9116d8cf7" target="_top" xlink:title="mappel::methods::estimate\l_mcmc_posterior">
<polygon fill="white" stroke="black" points="162,-47.5 162,-75.5 288,-75.5 288,-47.5 162,-47.5"/>
<text text-anchor="start" x="170" y="-64.3" font-family="Helvetica,sans-Serif" font-size="9.00">mappel::methods::estimate</text>
<text text-anchor="middle" x="225" y="-54.3" font-family="Helvetica,sans-Serif" font-size="9.00">_mcmc_posterior</text>
</a>
</g>
</g>
<!-- Node1&#45;&gt;Node2 -->
<g id="edge1" class="edge"><title>Node1&#45;&gt;Node2</title>
<path fill="none" stroke="midnightblue" d="M126.318,-46.8477C134.706,-48.1059 143.367,-49.4051 151.907,-50.686"/>
<polygon fill="midnightblue" stroke="midnightblue" points="151.443,-54.1556 161.852,-52.1778 152.482,-47.233 151.443,-54.1556"/>
</g>
<!-- Node3 -->
<g id="node3" class="node"><title>Node3</title>
<g id="a_node3"><a xlink:href="namespacemappel_1_1mcmc.html#a5bcba6b4606530ab7c6b03e91accc735" target="_top" xlink:title="mappel::mcmc::estimate\l_sample_posterior">
<polygon fill="white" stroke="black" points="167.5,-0.5 167.5,-28.5 282.5,-28.5 282.5,-0.5 167.5,-0.5"/>
<text text-anchor="start" x="175.5" y="-17.3" font-family="Helvetica,sans-Serif" font-size="9.00">mappel::mcmc::estimate</text>
<text text-anchor="middle" x="225" y="-7.3" font-family="Helvetica,sans-Serif" font-size="9.00">_sample_posterior</text>
</a>
</g>
</g>
<!-- Node1&#45;&gt;Node3 -->
<g id="edge2" class="edge"><title>Node1&#45;&gt;Node3</title>
<path fill="none" stroke="midnightblue" d="M126.318,-28.5417C136.453,-27.0849 146.986,-25.5708 157.222,-24.0994"/>
<polygon fill="midnightblue" stroke="midnightblue" points="157.933,-27.5332 167.333,-22.6459 156.937,-20.6044 157.933,-27.5332"/>
</g>
</g>
</svg>
