<?xml version="1.0" encoding="UTF-8" standalone="no"?>
<!DOCTYPE svg PUBLIC "-//W3C//DTD SVG 1.1//EN"
 "http://www.w3.org/Graphics/SVG/1.1/DTD/svg11.dtd">
<!-- Generated by graphviz version 2.38.0 (20140413.2041)
 -->
<!-- Title: mappel::methods::objective::openmp::rllh_stack Pages: 1 -->
<svg width="300pt" height="84pt"
 viewBox="0.00 0.00 300.00 84.00" xmlns="http://www.w3.org/2000/svg" xmlns:xlink="http://www.w3.org/1999/xlink">
<g id="graph0" class="graph" transform="scale(1 1) rotate(0) translate(4 80)">
<title>mappel::methods::objective::openmp::rllh_stack</title>
<polygon fill="white" stroke="none" points="-4,4 -4,-80 296,-80 296,4 -4,4"/>
<!-- Node1 -->
<g id="node1" class="node"><title>Node1</title>
<polygon fill="#bfbfbf" stroke="black" points="0,-23.5 0,-51.5 128,-51.5 128,-23.5 0,-23.5"/>
<text text-anchor="start" x="8" y="-40.3" font-family="Helvetica,sans-Serif" font-size="9.00">mappel::methods::objective</text>
<text text-anchor="middle" x="64" y="-30.3" font-family="Helvetica,sans-Serif" font-size="9.00">::openmp::rllh_stack</text>
</g>
<!-- Node2 -->
<g id="node2" class="node"><title>Node2</title>
<g id="a_node2"><a xlink:href="namespacemappel_1_1methods_1_1objective.html#a293c23ed6a623e59477bb67b6e40f5ad" target="_top" xlink:title="mappel::methods::objective\l::rllh">
<polygon fill="white" stroke="black" points="164,-47.5 164,-75.5 292,-75.5 292,-47.5 164,-47.5"/>
<text text-anchor="start" x="172" y="-64.3" font-family="Helvetica,sans-Serif" font-size="9.00">mappel::methods::objective</text>
<text text-anchor="middle" x="228" y="-54.3" font-family="Helvetica,sans-Serif" font-size="9.00">::rllh</text>
</a>
</g>
</g>
<!-- Node1&#45;&gt;Node2 -->
<g id="edge1" class="edge"><title>Node1&#45;&gt;Node2</title>
<path fill="none" stroke="midnightblue" d="M128.097,-46.8477C136.526,-48.0965 145.227,-49.3855 153.81,-50.6571"/>
<polygon fill="midnightblue" stroke="midnightblue" points="153.403,-54.1349 163.808,-52.1383 154.429,-47.2105 153.403,-54.1349"/>
</g>
<!-- Node3 -->
<g id="node3" class="node"><title>Node3</title>
<g id="a_node3"><a xlink:href="namespacemappel_1_1methods_1_1objective_1_1openmp.html#afc8658d8593725d7de99dc533fa74274" target="_top" xlink:title="mappel::methods::objective\l::openmp::rllh_stack">
<polygon fill="white" stroke="black" points="164,-0.5 164,-28.5 292,-28.5 292,-0.5 164,-0.5"/>
<text text-anchor="start" x="172" y="-17.3" font-family="Helvetica,sans-Serif" font-size="9.00">mappel::methods::objective</text>
<text text-anchor="middle" x="228" y="-7.3" font-family="Helvetica,sans-Serif" font-size="9.00">::openmp::rllh_stack</text>
</a>
</g>
</g>
<!-- Node1&#45;&gt;Node3 -->
<g id="edge2" class="edge"><title>Node1&#45;&gt;Node3</title>
<path fill="none" stroke="midnightblue" d="M128.097,-28.5417C136.526,-27.3451 145.227,-26.1097 153.81,-24.8911"/>
<polygon fill="midnightblue" stroke="midnightblue" points="154.4,-28.3426 163.808,-23.4716 153.416,-21.4121 154.4,-28.3426"/>
</g>
</g>
</svg>
