<?xml version="1.0" encoding="UTF-8" standalone="no"?>
<!DOCTYPE svg PUBLIC "-//W3C//DTD SVG 1.1//EN"
 "http://www.w3.org/Graphics/SVG/1.1/DTD/svg11.dtd">
<!-- Generated by graphviz version 2.38.0 (20140413.2041)
 -->
<!-- Title: mappel::gaussian_convolution Pages: 1 -->
<svg width="315pt" height="84pt"
 viewBox="0.00 0.00 315.00 84.00" xmlns="http://www.w3.org/2000/svg" xmlns:xlink="http://www.w3.org/1999/xlink">
<g id="graph0" class="graph" transform="scale(1 1) rotate(0) translate(4 80)">
<title>mappel::gaussian_convolution</title>
<polygon fill="white" stroke="none" points="-4,4 -4,-80 311,-80 311,4 -4,4"/>
<!-- Node1 -->
<g id="node1" class="node"><title>Node1</title>
<polygon fill="#bfbfbf" stroke="black" points="0,-28.5 0,-46.5 142,-46.5 142,-28.5 0,-28.5"/>
<text text-anchor="middle" x="71" y="-35.3" font-family="Helvetica,sans-Serif" font-size="9.00">mappel::gaussian_convolution</text>
</g>
<!-- Node2 -->
<g id="node2" class="node"><title>Node2</title>
<g id="a_node2"><a xlink:href="namespacemappel.html#a3b80821e227772c7480e6d5d27090593" target="_top" xlink:title="mappel::estimate_gaussian\l_2Dmax">
<polygon fill="white" stroke="black" points="178,-47.5 178,-75.5 307,-75.5 307,-47.5 178,-47.5"/>
<text text-anchor="start" x="186" y="-64.3" font-family="Helvetica,sans-Serif" font-size="9.00">mappel::estimate_gaussian</text>
<text text-anchor="middle" x="242.5" y="-54.3" font-family="Helvetica,sans-Serif" font-size="9.00">_2Dmax</text>
</a>
</g>
</g>
<!-- Node1&#45;&gt;Node2 -->
<g id="edge1" class="edge"><title>Node1&#45;&gt;Node2</title>
<path fill="none" stroke="midnightblue" d="M145.749,-47.9423C156.436,-49.4556 167.361,-51.0024 177.828,-52.4845"/>
<polygon fill="midnightblue" stroke="midnightblue" points="145.99,-44.4416 135.598,-46.505 145.008,-51.3725 145.99,-44.4416"/>
</g>
<!-- Node3 -->
<g id="node3" class="node"><title>Node3</title>
<g id="a_node3"><a xlink:href="namespacemappel.html#ae0365a07ea08b7deae147915077091c8" target="_top" xlink:title="mappel::refine_gaussian\l_2Dmax">
<polygon fill="white" stroke="black" points="183.5,-0.5 183.5,-28.5 301.5,-28.5 301.5,-0.5 183.5,-0.5"/>
<text text-anchor="start" x="191.5" y="-17.3" font-family="Helvetica,sans-Serif" font-size="9.00">mappel::refine_gaussian</text>
<text text-anchor="middle" x="242.5" y="-7.3" font-family="Helvetica,sans-Serif" font-size="9.00">_2Dmax</text>
</a>
</g>
</g>
<!-- Node1&#45;&gt;Node3 -->
<g id="edge2" class="edge"><title>Node1&#45;&gt;Node3</title>
<path fill="none" stroke="midnightblue" d="M148.689,-27.0939C160.364,-25.5096 172.245,-23.8975 183.434,-22.3791"/>
<polygon fill="midnightblue" stroke="midnightblue" points="147.943,-23.6629 138.504,-28.4758 148.884,-30.5993 147.943,-23.6629"/>
</g>
</g>
</svg>
