<?xml version="1.0" encoding="UTF-8" standalone="no"?>
<!DOCTYPE svg PUBLIC "-//W3C//DTD SVG 1.1//EN"
 "http://www.w3.org/Graphics/SVG/1.1/DTD/svg11.dtd">
<!-- Generated by graphviz version 2.38.0 (20140413.2041)
 -->
<!-- Title: mappel::methods::simulate_image Pages: 1 -->
<svg width="458pt" height="84pt"
 viewBox="0.00 0.00 458.00 84.00" xmlns="http://www.w3.org/2000/svg" xmlns:xlink="http://www.w3.org/1999/xlink">
<g id="graph0" class="graph" transform="scale(1 1) rotate(0) translate(4 80)">
<title>mappel::methods::simulate_image</title>
<polygon fill="white" stroke="none" points="-4,4 -4,-80 454,-80 454,4 -4,4"/>
<!-- Node1 -->
<g id="node1" class="node"><title>Node1</title>
<polygon fill="#bfbfbf" stroke="black" points="0,-23.5 0,-51.5 126,-51.5 126,-23.5 0,-23.5"/>
<text text-anchor="start" x="8" y="-40.3" font-family="Helvetica,sans-Serif" font-size="9.00">mappel::methods::simulate</text>
<text text-anchor="middle" x="63" y="-30.3" font-family="Helvetica,sans-Serif" font-size="9.00">_image</text>
</g>
<!-- Node2 -->
<g id="node2" class="node"><title>Node2</title>
<g id="a_node2"><a xlink:href="namespacemappel.html#adc1e3a6c0fd4804406d162c48d805d44" target="_top" xlink:title="mappel::generate_poisson">
<polygon fill="white" stroke="black" points="162,-28.5 162,-46.5 288,-46.5 288,-28.5 162,-28.5"/>
<text text-anchor="middle" x="225" y="-35.3" font-family="Helvetica,sans-Serif" font-size="9.00">mappel::generate_poisson</text>
</a>
</g>
</g>
<!-- Node1&#45;&gt;Node2 -->
<g id="edge1" class="edge"><title>Node1&#45;&gt;Node2</title>
<path fill="none" stroke="midnightblue" d="M126.318,-37.5C134.615,-37.5 143.179,-37.5 151.628,-37.5"/>
<polygon fill="midnightblue" stroke="midnightblue" points="151.852,-41.0001 161.852,-37.5 151.852,-34.0001 151.852,-41.0001"/>
</g>
<!-- Node3 -->
<g id="node3" class="node"><title>Node3</title>
<g id="a_node3"><a xlink:href="namespacemappel.html#ae776a0d92c466702788b7405a4a166e0" target="_top" xlink:title="mappel::generate_poisson\l_large">
<polygon fill="white" stroke="black" points="324,-47.5 324,-75.5 450,-75.5 450,-47.5 324,-47.5"/>
<text text-anchor="start" x="332" y="-64.3" font-family="Helvetica,sans-Serif" font-size="9.00">mappel::generate_poisson</text>
<text text-anchor="middle" x="387" y="-54.3" font-family="Helvetica,sans-Serif" font-size="9.00">_large</text>
</a>
</g>
</g>
<!-- Node2&#45;&gt;Node3 -->
<g id="edge2" class="edge"><title>Node2&#45;&gt;Node3</title>
<path fill="none" stroke="midnightblue" d="M286.033,-46.505C295.085,-47.8627 304.501,-49.2751 313.776,-50.6664"/>
<polygon fill="midnightblue" stroke="midnightblue" points="313.353,-54.142 323.761,-52.1642 314.391,-47.2194 313.353,-54.142"/>
</g>
<!-- Node4 -->
<g id="node4" class="node"><title>Node4</title>
<g id="a_node4"><a xlink:href="namespacemappel.html#af5deeb186fbcfbd0f449064cc70e8a86" target="_top" xlink:title="Genrates a single poisson disributed int from distribution with mean mu. ">
<polygon fill="white" stroke="black" points="324,-0.5 324,-28.5 450,-28.5 450,-0.5 324,-0.5"/>
<text text-anchor="start" x="332" y="-17.3" font-family="Helvetica,sans-Serif" font-size="9.00">mappel::generate_poisson</text>
<text text-anchor="middle" x="387" y="-7.3" font-family="Helvetica,sans-Serif" font-size="9.00">_small</text>
</a>
</g>
</g>
<!-- Node2&#45;&gt;Node4 -->
<g id="edge3" class="edge"><title>Node2&#45;&gt;Node4</title>
<path fill="none" stroke="midnightblue" d="M288.318,-28.5417C296.706,-27.336 305.367,-26.091 313.907,-24.8634"/>
<polygon fill="midnightblue" stroke="midnightblue" points="314.452,-28.3212 323.852,-23.4338 313.455,-21.3924 314.452,-28.3212"/>
</g>
</g>
</svg>
