<?xml version="1.0" encoding="UTF-8" standalone="no"?>
<!DOCTYPE svg PUBLIC "-//W3C//DTD SVG 1.1//EN"
 "http://www.w3.org/Graphics/SVG/1.1/DTD/svg11.dtd">
<!-- Generated by graphviz version 2.38.0 (20140413.2041)
 -->
<!-- Title: mappel::methods::likelihood::debug::llh_components Pages: 1 -->
<svg width="277pt" height="37pt"
 viewBox="0.00 0.00 277.00 37.00" xmlns="http://www.w3.org/2000/svg" xmlns:xlink="http://www.w3.org/1999/xlink">
<g id="graph0" class="graph" transform="scale(1 1) rotate(0) translate(4 33)">
<title>mappel::methods::likelihood::debug::llh_components</title>
<polygon fill="white" stroke="none" points="-4,4 -4,-33 273,-33 273,4 -4,4"/>
<!-- Node1 -->
<g id="node1" class="node"><title>Node1</title>
<polygon fill="#bfbfbf" stroke="black" points="0,-0.5 0,-28.5 131,-28.5 131,-0.5 0,-0.5"/>
<text text-anchor="start" x="8" y="-17.3" font-family="Helvetica,sans-Serif" font-size="9.00">mappel::methods::likelihood</text>
<text text-anchor="middle" x="65.5" y="-7.3" font-family="Helvetica,sans-Serif" font-size="9.00">::debug::llh_components</text>
</g>
<!-- Node2 -->
<g id="node2" class="node"><title>Node2</title>
<g id="a_node2"><a xlink:href="namespacemappel.html#ad6479b1e317a5f3bd2b92bfb562938d5" target="_top" xlink:title="mappel::poisson_log\l_likelihood">
<polygon fill="white" stroke="black" points="167,-0.5 167,-28.5 269,-28.5 269,-0.5 167,-0.5"/>
<text text-anchor="start" x="175" y="-17.3" font-family="Helvetica,sans-Serif" font-size="9.00">mappel::poisson_log</text>
<text text-anchor="middle" x="218" y="-7.3" font-family="Helvetica,sans-Serif" font-size="9.00">_likelihood</text>
</a>
</g>
</g>
<!-- Node1&#45;&gt;Node2 -->
<g id="edge1" class="edge"><title>Node1&#45;&gt;Node2</title>
<path fill="none" stroke="midnightblue" d="M131.199,-14.5C139.695,-14.5 148.374,-14.5 156.791,-14.5"/>
<polygon fill="midnightblue" stroke="midnightblue" points="156.899,-18.0001 166.899,-14.5 156.899,-11.0001 156.899,-18.0001"/>
</g>
</g>
</svg>
