<?xml version="1.0" encoding="UTF-8" standalone="no"?>
<!DOCTYPE svg PUBLIC "-//W3C//DTD SVG 1.1//EN"
 "http://www.w3.org/Graphics/SVG/1.1/DTD/svg11.dtd">
<!-- Generated by graphviz version 2.38.0 (20140413.2041)
 -->
<!-- Title: mappel::methods::objective::rllh Pages: 1 -->
<svg width="559pt" height="902pt"
 viewBox="0.00 0.00 559.00 902.00" xmlns="http://www.w3.org/2000/svg" xmlns:xlink="http://www.w3.org/1999/xlink">
<g id="graph0" class="graph" transform="scale(1 1) rotate(0) translate(4 898)">
<title>mappel::methods::objective::rllh</title>
<polygon fill="white" stroke="none" points="-4,4 -4,-898 555,-898 555,4 -4,4"/>
<!-- Node1 -->
<g id="node1" class="node"><title>Node1</title>
<polygon fill="#bfbfbf" stroke="black" points="0,-426.5 0,-454.5 128,-454.5 128,-426.5 0,-426.5"/>
<text text-anchor="start" x="8" y="-443.3" font-family="Helvetica,sans-Serif" font-size="9.00">mappel::methods::objective</text>
<text text-anchor="middle" x="64" y="-433.3" font-family="Helvetica,sans-Serif" font-size="9.00">::rllh</text>
</g>
<!-- Node2 -->
<g id="node2" class="node"><title>Node2</title>
<g id="a_node2"><a xlink:href="classmappel_1_1SimulatedAnnealingMaximizer.html#a90132981350dc35facb8c292493ada74" target="_top" xlink:title="mappel::SimulatedAnnealing\lMaximizer::anneal">
<polygon fill="white" stroke="black" points="190.5,-865.5 190.5,-893.5 325.5,-893.5 325.5,-865.5 190.5,-865.5"/>
<text text-anchor="start" x="198.5" y="-882.3" font-family="Helvetica,sans-Serif" font-size="9.00">mappel::SimulatedAnnealing</text>
<text text-anchor="middle" x="258" y="-872.3" font-family="Helvetica,sans-Serif" font-size="9.00">Maximizer::anneal</text>
</a>
</g>
</g>
<!-- Node1&#45;&gt;Node2 -->
<g id="edge1" class="edge"><title>Node1&#45;&gt;Node2</title>
<path fill="none" stroke="midnightblue" d="M67.4944,-464.852C76.2071,-545.179 107.845,-799.848 164,-856.5 171.259,-863.824 180.458,-868.949 190.229,-872.511"/>
<polygon fill="midnightblue" stroke="midnightblue" points="70.9542,-464.288 66.417,-454.714 63.9934,-465.027 70.9542,-464.288"/>
</g>
<!-- Node3 -->
<g id="node3" class="node"><title>Node3</title>
<g id="a_node3"><a xlink:href="namespacemappel_1_1methods.html#a3b0e13b783d21c08ba063a210b0a344b" target="_top" xlink:title="mappel::methods::aposteriori\l_objective">
<polygon fill="white" stroke="black" points="190.5,-818.5 190.5,-846.5 325.5,-846.5 325.5,-818.5 190.5,-818.5"/>
<text text-anchor="start" x="198.5" y="-835.3" font-family="Helvetica,sans-Serif" font-size="9.00">mappel::methods::aposteriori</text>
<text text-anchor="middle" x="258" y="-825.3" font-family="Helvetica,sans-Serif" font-size="9.00">_objective</text>
</a>
</g>
</g>
<!-- Node1&#45;&gt;Node3 -->
<g id="edge2" class="edge"><title>Node1&#45;&gt;Node3</title>
<path fill="none" stroke="midnightblue" d="M68.3028,-464.975C78.8132,-539.291 113.772,-760.25 164,-809.5 171.363,-816.72 180.615,-821.791 190.408,-825.332"/>
<polygon fill="midnightblue" stroke="midnightblue" points="71.7225,-464.156 66.8786,-454.733 64.7892,-465.12 71.7225,-464.156"/>
</g>
<!-- Node4 -->
<g id="node4" class="node"><title>Node4</title>
<g id="a_node4"><a xlink:href="classmappel_1_1IterativeMaximizer.html#ac033d2b23a6a861e6d7adbe35f17624e" target="_top" xlink:title="mappel::IterativeMaximizer\l::backtrack">
<polygon fill="white" stroke="black" points="195,-771.5 195,-799.5 321,-799.5 321,-771.5 195,-771.5"/>
<text text-anchor="start" x="203" y="-788.3" font-family="Helvetica,sans-Serif" font-size="9.00">mappel::IterativeMaximizer</text>
<text text-anchor="middle" x="258" y="-778.3" font-family="Helvetica,sans-Serif" font-size="9.00">::backtrack</text>
</a>
</g>
</g>
<!-- Node1&#45;&gt;Node4 -->
<g id="edge3" class="edge"><title>Node1&#45;&gt;Node4</title>
<path fill="none" stroke="midnightblue" d="M64.8668,-464.935C65.933,-524.935 77.372,-680.579 164,-762.5 172.58,-770.614 183.554,-775.996 194.935,-779.538"/>
<polygon fill="midnightblue" stroke="midnightblue" points="68.3635,-464.539 64.7726,-454.571 61.3638,-464.603 68.3635,-464.539"/>
</g>
<!-- Node8 -->
<g id="node8" class="node"><title>Node8</title>
<g id="a_node8"><a xlink:href="classmappel_1_1ThreadedEstimator.html#a8acce3a5a89128403c97b53bc3698d61" target="_top" xlink:title="mappel::ThreadedEstimator\l::clear_stats">
<polygon fill="white" stroke="black" points="193,-724.5 193,-752.5 323,-752.5 323,-724.5 193,-724.5"/>
<text text-anchor="start" x="201" y="-741.3" font-family="Helvetica,sans-Serif" font-size="9.00">mappel::ThreadedEstimator</text>
<text text-anchor="middle" x="258" y="-731.3" font-family="Helvetica,sans-Serif" font-size="9.00">::clear_stats</text>
</a>
</g>
</g>
<!-- Node1&#45;&gt;Node8 -->
<g id="edge7" class="edge"><title>Node1&#45;&gt;Node8</title>
<path fill="none" stroke="midnightblue" d="M66.3646,-465.009C70.7266,-518.795 88.8919,-647.763 164,-715.5 172.152,-722.852 182.282,-727.942 192.828,-731.447"/>
<polygon fill="midnightblue" stroke="midnightblue" points="69.8333,-464.447 65.6278,-454.722 62.8512,-464.947 69.8333,-464.447"/>
</g>
<!-- Node10 -->
<g id="node10" class="node"><title>Node10</title>
<g id="a_node10"><a xlink:href="classmappel_1_1CGaussMLE.html#aa4e4761873c14cfe848f04ec8dc896d6" target="_top" xlink:title="mappel::CGaussMLE::\lcompute_estimate">
<polygon fill="white" stroke="black" points="204,-677.5 204,-705.5 312,-705.5 312,-677.5 204,-677.5"/>
<text text-anchor="start" x="212" y="-694.3" font-family="Helvetica,sans-Serif" font-size="9.00">mappel::CGaussMLE::</text>
<text text-anchor="middle" x="258" y="-684.3" font-family="Helvetica,sans-Serif" font-size="9.00">compute_estimate</text>
</a>
</g>
</g>
<!-- Node1&#45;&gt;Node10 -->
<g id="edge9" class="edge"><title>Node1&#45;&gt;Node10</title>
<path fill="none" stroke="midnightblue" d="M68.3636,-464.667C76.1902,-511.437 100.082,-614.466 164,-668.5 175.178,-677.949 189.66,-683.62 203.854,-686.993"/>
<polygon fill="midnightblue" stroke="midnightblue" points="71.7853,-463.895 66.7786,-454.558 64.8698,-464.979 71.7853,-463.895"/>
</g>
<!-- Node11 -->
<g id="node11" class="node"><title>Node11</title>
<g id="a_node11"><a xlink:href="classmappel_1_1Estimator.html#aa8aa62047bfc28b1df3a9261da4f38a1" target="_top" xlink:title="mappel::Estimator::\lestimate_max">
<polygon fill="white" stroke="black" points="210.5,-630.5 210.5,-658.5 305.5,-658.5 305.5,-630.5 210.5,-630.5"/>
<text text-anchor="start" x="218.5" y="-647.3" font-family="Helvetica,sans-Serif" font-size="9.00">mappel::Estimator::</text>
<text text-anchor="middle" x="258" y="-637.3" font-family="Helvetica,sans-Serif" font-size="9.00">estimate_max</text>
</a>
</g>
</g>
<!-- Node1&#45;&gt;Node11 -->
<g id="edge10" class="edge"><title>Node1&#45;&gt;Node11</title>
<path fill="none" stroke="midnightblue" d="M72.0982,-464.275C84.5404,-501.895 113.848,-575.017 164,-615.5 177.16,-626.123 194.23,-632.872 210.146,-637.152"/>
<polygon fill="midnightblue" stroke="midnightblue" points="75.4056,-463.127 69.0327,-454.663 68.7365,-465.254 75.4056,-463.127"/>
</g>
<!-- Node12 -->
<g id="node12" class="node"><title>Node12</title>
<g id="a_node12"><a xlink:href="classmappel_1_1Estimator.html#a4a581372a320f1c13eeffacf6309911b" target="_top" xlink:title="mappel::Estimator::\lestimate_max_debug">
<polygon fill="white" stroke="black" points="205.5,-544.5 205.5,-572.5 310.5,-572.5 310.5,-544.5 205.5,-544.5"/>
<text text-anchor="start" x="213.5" y="-561.3" font-family="Helvetica,sans-Serif" font-size="9.00">mappel::Estimator::</text>
<text text-anchor="middle" x="258" y="-551.3" font-family="Helvetica,sans-Serif" font-size="9.00">estimate_max_debug</text>
</a>
</g>
</g>
<!-- Node1&#45;&gt;Node12 -->
<g id="edge11" class="edge"><title>Node1&#45;&gt;Node12</title>
<path fill="none" stroke="midnightblue" d="M82.3129,-462.885C100.372,-484.681 130.663,-517.131 164,-535.5 176.674,-542.483 191.474,-547.376 205.492,-550.794"/>
<polygon fill="midnightblue" stroke="midnightblue" points="84.8016,-460.397 75.7893,-454.826 79.3608,-464.801 84.8016,-460.397"/>
</g>
<!-- Node13 -->
<g id="node13" class="node"><title>Node13</title>
<g id="a_node13"><a xlink:href="classmappel_1_1Estimator.html#a629823fa91d4b461b2b1f607d588e558" target="_top" xlink:title="mappel::Estimator::\l~Estimator">
<polygon fill="white" stroke="black" points="422,-544.5 422,-572.5 517,-572.5 517,-544.5 422,-544.5"/>
<text text-anchor="start" x="430" y="-561.3" font-family="Helvetica,sans-Serif" font-size="9.00">mappel::Estimator::</text>
<text text-anchor="middle" x="469.5" y="-551.3" font-family="Helvetica,sans-Serif" font-size="9.00">~Estimator</text>
</a>
</g>
</g>
<!-- Node1&#45;&gt;Node13 -->
<g id="edge30" class="edge"><title>Node1&#45;&gt;Node13</title>
<path fill="none" stroke="midnightblue" d="M73.44,-464.312C86.7655,-497.812 116.192,-557.551 164,-582.5 252.147,-628.501 374.519,-594.243 433.696,-572.616"/>
<polygon fill="midnightblue" stroke="midnightblue" points="76.6549,-462.919 69.819,-454.825 70.1151,-465.415 76.6549,-462.919"/>
</g>
<!-- Node14 -->
<g id="node14" class="node"><title>Node14</title>
<g id="a_node14"><a xlink:href="namespacemappel_1_1methods.html#a496d45e1db23f89b54ae0bef016a19b0" target="_top" xlink:title="mappel::methods::likelihood\l_objective">
<polygon fill="white" stroke="black" points="192.5,-450.5 192.5,-478.5 323.5,-478.5 323.5,-450.5 192.5,-450.5"/>
<text text-anchor="start" x="200.5" y="-467.3" font-family="Helvetica,sans-Serif" font-size="9.00">mappel::methods::likelihood</text>
<text text-anchor="middle" x="258" y="-457.3" font-family="Helvetica,sans-Serif" font-size="9.00">_objective</text>
</a>
</g>
</g>
<!-- Node1&#45;&gt;Node14 -->
<g id="edge13" class="edge"><title>Node1&#45;&gt;Node14</title>
<path fill="none" stroke="midnightblue" d="M138.412,-449.677C156.116,-451.889 174.906,-454.238 192.184,-456.398"/>
<polygon fill="midnightblue" stroke="midnightblue" points="138.491,-446.159 128.134,-448.392 137.623,-453.105 138.491,-446.159"/>
</g>
<!-- Node15 -->
<g id="node15" class="node"><title>Node15</title>
<g id="a_node15"><a xlink:href="classmappel_1_1TrustRegionMaximizer.html#ae4f4499f81a4d3213e7ea863243e926c" target="_top" xlink:title="mappel::TrustRegionMaximizer\l::maximize">
<polygon fill="white" stroke="black" points="186,-403.5 186,-431.5 330,-431.5 330,-403.5 186,-403.5"/>
<text text-anchor="start" x="194" y="-420.3" font-family="Helvetica,sans-Serif" font-size="9.00">mappel::TrustRegionMaximizer</text>
<text text-anchor="middle" x="258" y="-410.3" font-family="Helvetica,sans-Serif" font-size="9.00">::maximize</text>
</a>
</g>
</g>
<!-- Node1&#45;&gt;Node15 -->
<g id="edge14" class="edge"><title>Node1&#45;&gt;Node15</title>
<path fill="none" stroke="midnightblue" d="M138.251,-431.725C153.862,-429.855 170.325,-427.883 185.855,-426.023"/>
<polygon fill="midnightblue" stroke="midnightblue" points="137.647,-428.272 128.134,-432.937 138.479,-435.223 137.647,-428.272"/>
</g>
<!-- Node16 -->
<g id="node16" class="node"><title>Node16</title>
<g id="a_node16"><a xlink:href="classmappel_1_1HeuristicEstimator.html#a6c9efb24639627b3f3b3eb151e02d43b" target="_top" xlink:title="mappel::HeuristicEstimator\l::name">
<polygon fill="white" stroke="black" points="195,-356.5 195,-384.5 321,-384.5 321,-356.5 195,-356.5"/>
<text text-anchor="start" x="203" y="-373.3" font-family="Helvetica,sans-Serif" font-size="9.00">mappel::HeuristicEstimator</text>
<text text-anchor="middle" x="258" y="-363.3" font-family="Helvetica,sans-Serif" font-size="9.00">::name</text>
</a>
</g>
</g>
<!-- Node1&#45;&gt;Node16 -->
<g id="edge15" class="edge"><title>Node1&#45;&gt;Node16</title>
<path fill="none" stroke="midnightblue" d="M99.8572,-421.84C118.502,-412.403 142.08,-401.324 164,-393.5 173.869,-389.978 184.512,-386.796 194.952,-384.001"/>
<polygon fill="midnightblue" stroke="midnightblue" points="98.1586,-418.777 90.861,-426.458 101.356,-425.004 98.1586,-418.777"/>
</g>
<!-- Node17 -->
<g id="node17" class="node"><title>Node17</title>
<g id="a_node17"><a xlink:href="classmappel_1_1CGaussHeuristicEstimator.html#aaff25d03e3c0f6f41d72f161c4d2f78a" target="_top" xlink:title="mappel::CGaussHeuristicEstimator\l::name">
<polygon fill="white" stroke="black" points="178.5,-309.5 178.5,-337.5 337.5,-337.5 337.5,-309.5 178.5,-309.5"/>
<text text-anchor="start" x="186.5" y="-326.3" font-family="Helvetica,sans-Serif" font-size="9.00">mappel::CGaussHeuristicEstimator</text>
<text text-anchor="middle" x="258" y="-316.3" font-family="Helvetica,sans-Serif" font-size="9.00">::name</text>
</a>
</g>
</g>
<!-- Node1&#45;&gt;Node17 -->
<g id="edge16" class="edge"><title>Node1&#45;&gt;Node17</title>
<path fill="none" stroke="midnightblue" d="M82.3636,-418.356C100.462,-396.794 130.782,-364.689 164,-346.5 170.273,-343.065 177.063,-340.135 184.018,-337.638"/>
<polygon fill="midnightblue" stroke="midnightblue" points="79.4602,-416.377 75.8242,-426.328 84.8723,-420.816 79.4602,-416.377"/>
</g>
<!-- Node18 -->
<g id="node18" class="node"><title>Node18</title>
<g id="a_node18"><a xlink:href="classmappel_1_1CGaussMLE.html#af18f123ff581a8ef7332c38d66c6bd42" target="_top" xlink:title="mappel::CGaussMLE::name">
<polygon fill="white" stroke="black" points="192.5,-272.5 192.5,-290.5 323.5,-290.5 323.5,-272.5 192.5,-272.5"/>
<text text-anchor="middle" x="258" y="-279.3" font-family="Helvetica,sans-Serif" font-size="9.00">mappel::CGaussMLE::name</text>
</a>
</g>
</g>
<!-- Node1&#45;&gt;Node18 -->
<g id="edge17" class="edge"><title>Node1&#45;&gt;Node18</title>
<path fill="none" stroke="midnightblue" d="M74.8058,-416.653C89.2999,-384.582 119.605,-328.265 164,-299.5 172.557,-293.956 182.424,-290.041 192.465,-287.292"/>
<polygon fill="midnightblue" stroke="midnightblue" points="71.4538,-415.583 70.6576,-426.148 77.8683,-418.385 71.4538,-415.583"/>
</g>
<!-- Node19 -->
<g id="node19" class="node"><title>Node19</title>
<g id="a_node19"><a xlink:href="classmappel_1_1PriorMAP1DObjective.html#a3cb80b4c435d260e1a62ba666fbbb787" target="_top" xlink:title="mappel::PriorMAP1DObjective\l::prior_log_likelihood">
<polygon fill="white" stroke="black" points="187.5,-225.5 187.5,-253.5 328.5,-253.5 328.5,-225.5 187.5,-225.5"/>
<text text-anchor="start" x="195.5" y="-242.3" font-family="Helvetica,sans-Serif" font-size="9.00">mappel::PriorMAP1DObjective</text>
<text text-anchor="middle" x="258" y="-232.3" font-family="Helvetica,sans-Serif" font-size="9.00">::prior_log_likelihood</text>
</a>
</g>
</g>
<!-- Node1&#45;&gt;Node19 -->
<g id="edge18" class="edge"><title>Node1&#45;&gt;Node19</title>
<path fill="none" stroke="midnightblue" d="M71.5236,-416.536C83.3034,-377.951 111.879,-302.356 164,-262.5 170.87,-257.246 178.787,-253.178 187.041,-250.03"/>
<polygon fill="midnightblue" stroke="midnightblue" points="68.0931,-415.797 68.6408,-426.378 74.8109,-417.765 68.0931,-415.797"/>
</g>
<!-- Node21 -->
<g id="node21" class="node"><title>Node21</title>
<g id="a_node21"><a xlink:href="PoissonGaussianNoise2DObjective_8h.html#aa87ae0a4dcfe77673013d48a2061d4a8" target="_top" xlink:title="relative_log_likelihood">
<polygon fill="white" stroke="black" points="203,-188.5 203,-206.5 313,-206.5 313,-188.5 203,-188.5"/>
<text text-anchor="middle" x="258" y="-195.3" font-family="Helvetica,sans-Serif" font-size="9.00">relative_log_likelihood</text>
</a>
</g>
</g>
<!-- Node1&#45;&gt;Node21 -->
<g id="edge20" class="edge"><title>Node1&#45;&gt;Node21</title>
<path fill="none" stroke="midnightblue" d="M68.2283,-416.355C75.8181,-369.682 99.3143,-267.142 164,-215.5 174.924,-206.779 188.847,-201.864 202.572,-199.191"/>
<polygon fill="midnightblue" stroke="midnightblue" points="64.7367,-416.036 66.6965,-426.448 71.6574,-417.086 64.7367,-416.036"/>
</g>
<!-- Node22 -->
<g id="node22" class="node"><title>Node22</title>
<g id="a_node22"><a xlink:href="namespacemappel_1_1methods_1_1objective.html#ae5d28913a8f6ce2c042edd810cb17e13" target="_top" xlink:title="mappel::methods::objective\l::rllh">
<polygon fill="white" stroke="black" points="194,-141.5 194,-169.5 322,-169.5 322,-141.5 194,-141.5"/>
<text text-anchor="start" x="202" y="-158.3" font-family="Helvetica,sans-Serif" font-size="9.00">mappel::methods::objective</text>
<text text-anchor="middle" x="258" y="-148.3" font-family="Helvetica,sans-Serif" font-size="9.00">::rllh</text>
</a>
</g>
</g>
<!-- Node1&#45;&gt;Node22 -->
<g id="edge21" class="edge"><title>Node1&#45;&gt;Node22</title>
<path fill="none" stroke="midnightblue" d="M66.8571,-416.07C72.1575,-364.159 92.0086,-242.407 164,-178.5 172.458,-170.992 182.985,-165.849 193.884,-162.346"/>
<polygon fill="midnightblue" stroke="midnightblue" points="63.3452,-416.039 65.9105,-426.318 70.3155,-416.683 63.3452,-416.039"/>
</g>
<!-- Node23 -->
<g id="node23" class="node"><title>Node23</title>
<g id="a_node23"><a xlink:href="namespacemappel_1_1methods_1_1objective_1_1openmp.html#a8223d746bf91530f8cff4ec168e50b1d" target="_top" xlink:title="Parallel relative log_likelihood calculations for a stack of images. ">
<polygon fill="white" stroke="black" points="194,-497.5 194,-525.5 322,-525.5 322,-497.5 194,-497.5"/>
<text text-anchor="start" x="202" y="-514.3" font-family="Helvetica,sans-Serif" font-size="9.00">mappel::methods::objective</text>
<text text-anchor="middle" x="258" y="-504.3" font-family="Helvetica,sans-Serif" font-size="9.00">::openmp::rllh_stack</text>
</a>
</g>
</g>
<!-- Node1&#45;&gt;Node23 -->
<g id="edge22" class="edge"><title>Node1&#45;&gt;Node23</title>
<path fill="none" stroke="midnightblue" d="M99.4228,-459.392C118.116,-469.084 141.872,-480.499 164,-488.5 173.541,-491.95 183.816,-495.062 193.932,-497.8"/>
<polygon fill="midnightblue" stroke="midnightblue" points="100.894,-456.211 90.4139,-454.653 97.6343,-462.406 100.894,-456.211"/>
</g>
<!-- Node25 -->
<g id="node25" class="node"><title>Node25</title>
<g id="a_node25"><a xlink:href="namespacemappel_1_1mcmc.html#a788cb1c156fa3b03724c3a44fe9e83ce" target="_top" xlink:title="mappel::mcmc::sample\l_posterior">
<polygon fill="white" stroke="black" points="203,-94.5 203,-122.5 313,-122.5 313,-94.5 203,-94.5"/>
<text text-anchor="start" x="211" y="-111.3" font-family="Helvetica,sans-Serif" font-size="9.00">mappel::mcmc::sample</text>
<text text-anchor="middle" x="258" y="-101.3" font-family="Helvetica,sans-Serif" font-size="9.00">_posterior</text>
</a>
</g>
</g>
<!-- Node1&#45;&gt;Node25 -->
<g id="edge25" class="edge"><title>Node1&#45;&gt;Node25</title>
<path fill="none" stroke="midnightblue" d="M65.2323,-416.224C67.1654,-358.015 80.4851,-209.551 164,-131.5 174.572,-121.62 188.699,-115.799 202.744,-112.419"/>
<polygon fill="midnightblue" stroke="midnightblue" points="61.7312,-416.228 64.9846,-426.311 68.7291,-416.4 61.7312,-416.228"/>
</g>
<!-- Node27 -->
<g id="node27" class="node"><title>Node27</title>
<g id="a_node27"><a xlink:href="namespacemappel_1_1mcmc.html#a7a9a1f1f24f538f594992438a9cea159" target="_top" xlink:title="mappel::mcmc::sample\l_posterior_debug">
<polygon fill="white" stroke="black" points="203,-47.5 203,-75.5 313,-75.5 313,-47.5 203,-47.5"/>
<text text-anchor="start" x="211" y="-64.3" font-family="Helvetica,sans-Serif" font-size="9.00">mappel::mcmc::sample</text>
<text text-anchor="middle" x="258" y="-54.3" font-family="Helvetica,sans-Serif" font-size="9.00">_posterior_debug</text>
</a>
</g>
</g>
<!-- Node1&#45;&gt;Node27 -->
<g id="edge27" class="edge"><title>Node1&#45;&gt;Node27</title>
<path fill="none" stroke="midnightblue" d="M68.5026,-416.393C79.4652,-344.199 115.313,-131.805 164,-84.5 174.497,-74.3005 188.767,-68.3954 202.975,-65.0375"/>
<polygon fill="midnightblue" stroke="midnightblue" points="65.0294,-415.954 67.0126,-426.362 71.9525,-416.989 65.0294,-415.954"/>
</g>
<!-- Node29 -->
<g id="node29" class="node"><title>Node29</title>
<g id="a_node29"><a xlink:href="classmappel_1_1SimulatedAnnealingMaximizer.html#a76e0c1b5ca19fc31d10dded7b992e0cb" target="_top" xlink:title="mappel::SimulatedAnnealing\lMaximizer::SimulatedAnnealingMaximizer">
<polygon fill="white" stroke="black" points="164,-0.5 164,-28.5 352,-28.5 352,-0.5 164,-0.5"/>
<text text-anchor="start" x="172" y="-17.3" font-family="Helvetica,sans-Serif" font-size="9.00">mappel::SimulatedAnnealing</text>
<text text-anchor="middle" x="258" y="-7.3" font-family="Helvetica,sans-Serif" font-size="9.00">Maximizer::SimulatedAnnealingMaximizer</text>
</a>
</g>
</g>
<!-- Node1&#45;&gt;Node29 -->
<g id="edge29" class="edge"><title>Node1&#45;&gt;Node29</title>
<path fill="none" stroke="midnightblue" d="M67.7247,-415.896C76.9547,-336.959 109.539,-92.0464 164,-37.5 167.408,-34.0867 171.237,-31.1516 175.349,-28.6301"/>
<polygon fill="midnightblue" stroke="midnightblue" points="64.1942,-415.963 66.5325,-426.296 71.1487,-416.76 64.1942,-415.963"/>
</g>
<!-- Node5 -->
<g id="node5" class="node"><title>Node5</title>
<g id="a_node5"><a xlink:href="classmappel_1_1NewtonDiagonalMaximizer.html#ac445064041b5c7f3c147c08a0065cd68" target="_top" xlink:title="mappel::NewtonDiagonalMaximizer\l::maximize">
<polygon fill="white" stroke="black" points="388,-841.5 388,-869.5 551,-869.5 551,-841.5 388,-841.5"/>
<text text-anchor="start" x="396" y="-858.3" font-family="Helvetica,sans-Serif" font-size="9.00">mappel::NewtonDiagonalMaximizer</text>
<text text-anchor="middle" x="469.5" y="-848.3" font-family="Helvetica,sans-Serif" font-size="9.00">::maximize</text>
</a>
</g>
</g>
<!-- Node4&#45;&gt;Node5 -->
<g id="edge4" class="edge"><title>Node4&#45;&gt;Node5</title>
<path fill="none" stroke="midnightblue" d="M331.202,-801.703C338.334,-804.023 345.378,-806.618 352,-809.5 369.409,-817.078 370.69,-824.699 388,-832.5 395.421,-835.844 403.447,-838.826 411.459,-841.444"/>
<polygon fill="midnightblue" stroke="midnightblue" points="332.038,-798.298 321.451,-798.706 329.982,-804.989 332.038,-798.298"/>
</g>
<!-- Node6 -->
<g id="node6" class="node"><title>Node6</title>
<g id="a_node6"><a xlink:href="classmappel_1_1NewtonMaximizer.html#aca7e3071f17ef6f381878eb6151c86d7" target="_top" xlink:title="mappel::NewtonMaximizer\l::maximize">
<polygon fill="white" stroke="black" points="407,-794.5 407,-822.5 532,-822.5 532,-794.5 407,-794.5"/>
<text text-anchor="start" x="415" y="-811.3" font-family="Helvetica,sans-Serif" font-size="9.00">mappel::NewtonMaximizer</text>
<text text-anchor="middle" x="469.5" y="-801.3" font-family="Helvetica,sans-Serif" font-size="9.00">::maximize</text>
</a>
</g>
</g>
<!-- Node4&#45;&gt;Node6 -->
<g id="edge5" class="edge"><title>Node4&#45;&gt;Node6</title>
<path fill="none" stroke="midnightblue" d="M331.01,-793.406C355.622,-796.108 382.914,-799.104 406.653,-801.71"/>
<polygon fill="midnightblue" stroke="midnightblue" points="331.329,-789.92 321.007,-792.307 330.565,-796.878 331.329,-789.92"/>
</g>
<!-- Node7 -->
<g id="node7" class="node"><title>Node7</title>
<g id="a_node7"><a xlink:href="classmappel_1_1QuasiNewtonMaximizer.html#ab4d32d8ba90d4355262a228753619b9f" target="_top" xlink:title="mappel::QuasiNewtonMaximizer\l::maximize">
<polygon fill="white" stroke="black" points="395,-747.5 395,-775.5 544,-775.5 544,-747.5 395,-747.5"/>
<text text-anchor="start" x="403" y="-764.3" font-family="Helvetica,sans-Serif" font-size="9.00">mappel::QuasiNewtonMaximizer</text>
<text text-anchor="middle" x="469.5" y="-754.3" font-family="Helvetica,sans-Serif" font-size="9.00">::maximize</text>
</a>
</g>
</g>
<!-- Node4&#45;&gt;Node7 -->
<g id="edge6" class="edge"><title>Node4&#45;&gt;Node7</title>
<path fill="none" stroke="midnightblue" d="M330.963,-777.256C351.587,-774.893 374.097,-772.315 394.822,-769.94"/>
<polygon fill="midnightblue" stroke="midnightblue" points="330.543,-773.781 321.007,-778.397 331.34,-780.736 330.543,-773.781"/>
</g>
<!-- Node9 -->
<g id="node9" class="node"><title>Node9</title>
<g id="a_node9"><a xlink:href="classmappel_1_1IterativeMaximizer.html#af709331a98863a0d8a4003047f2b70a2" target="_top" xlink:title="mappel::IterativeMaximizer\l::clear_stats">
<polygon fill="white" stroke="black" points="406.5,-700.5 406.5,-728.5 532.5,-728.5 532.5,-700.5 406.5,-700.5"/>
<text text-anchor="start" x="414.5" y="-717.3" font-family="Helvetica,sans-Serif" font-size="9.00">mappel::IterativeMaximizer</text>
<text text-anchor="middle" x="469.5" y="-707.3" font-family="Helvetica,sans-Serif" font-size="9.00">::clear_stats</text>
</a>
</g>
</g>
<!-- Node8&#45;&gt;Node9 -->
<g id="edge8" class="edge"><title>Node8&#45;&gt;Node9</title>
<path fill="none" stroke="midnightblue" d="M333.378,-729.979C357.308,-727.238 383.553,-724.231 406.496,-721.603"/>
<polygon fill="midnightblue" stroke="midnightblue" points="332.817,-726.521 323.281,-731.136 333.614,-733.475 332.817,-726.521"/>
</g>
<!-- Node12&#45;&gt;Node13 -->
<g id="edge12" class="edge"><title>Node12&#45;&gt;Node13</title>
<path fill="none" stroke="midnightblue" d="M320.764,-558.5C353.1,-558.5 392.047,-558.5 421.833,-558.5"/>
<polygon fill="midnightblue" stroke="midnightblue" points="320.518,-555 310.518,-558.5 320.518,-562 320.518,-555"/>
</g>
<!-- Node20 -->
<g id="node20" class="node"><title>Node20</title>
<g id="a_node20"><a xlink:href="classmappel_1_1PriorMAP1DObjective.html#ac5b20bb93fe2f2eddd75d19bf34283c7" target="_top" xlink:title="mappel::PriorMAP1DObjective\l::set_hyperparameters">
<polygon fill="white" stroke="black" points="399,-225.5 399,-253.5 540,-253.5 540,-225.5 399,-225.5"/>
<text text-anchor="start" x="407" y="-242.3" font-family="Helvetica,sans-Serif" font-size="9.00">mappel::PriorMAP1DObjective</text>
<text text-anchor="middle" x="469.5" y="-232.3" font-family="Helvetica,sans-Serif" font-size="9.00">::set_hyperparameters</text>
</a>
</g>
</g>
<!-- Node19&#45;&gt;Node20 -->
<g id="edge19" class="edge"><title>Node19&#45;&gt;Node20</title>
<path fill="none" stroke="midnightblue" d="M338.923,-239.5C358.605,-239.5 379.527,-239.5 398.687,-239.5"/>
<polygon fill="midnightblue" stroke="midnightblue" points="338.761,-236 328.76,-239.5 338.76,-243 338.761,-236"/>
</g>
<!-- Node23&#45;&gt;Node13 -->
<g id="edge23" class="edge"><title>Node23&#45;&gt;Node13</title>
<path fill="none" stroke="midnightblue" d="M331.563,-527.779C361.508,-534.497 395.339,-542.087 421.883,-548.042"/>
<polygon fill="midnightblue" stroke="midnightblue" points="332.097,-524.312 321.573,-525.538 330.564,-531.142 332.097,-524.312"/>
</g>
<!-- Node24 -->
<g id="node24" class="node"><title>Node24</title>
<g id="a_node24"><a xlink:href="classmappel_1_1CGaussMLE.html#a6bf98b8144f4cd5f548b49f32a95141e" target="_top" xlink:title="mappel::CGaussMLE::\lcompute_estimate_debug">
<polygon fill="white" stroke="black" points="408,-497.5 408,-525.5 531,-525.5 531,-497.5 408,-497.5"/>
<text text-anchor="start" x="416" y="-514.3" font-family="Helvetica,sans-Serif" font-size="9.00">mappel::CGaussMLE::</text>
<text text-anchor="middle" x="469.5" y="-504.3" font-family="Helvetica,sans-Serif" font-size="9.00">compute_estimate_debug</text>
</a>
</g>
</g>
<!-- Node23&#45;&gt;Node24 -->
<g id="edge24" class="edge"><title>Node23&#45;&gt;Node24</title>
<path fill="none" stroke="midnightblue" d="M332.168,-511.5C356.82,-511.5 384.048,-511.5 407.646,-511.5"/>
<polygon fill="midnightblue" stroke="midnightblue" points="332.141,-508 322.141,-511.5 332.141,-515 332.141,-508"/>
</g>
<!-- Node26 -->
<g id="node26" class="node"><title>Node26</title>
<g id="a_node26"><a xlink:href="namespacemappel_1_1methods.html#abf7481af94ebff828622ec6b38a271ee" target="_top" xlink:title="mappel::methods::estimate\l_mcmc_sample">
<polygon fill="white" stroke="black" points="406.5,-94.5 406.5,-122.5 532.5,-122.5 532.5,-94.5 406.5,-94.5"/>
<text text-anchor="start" x="414.5" y="-111.3" font-family="Helvetica,sans-Serif" font-size="9.00">mappel::methods::estimate</text>
<text text-anchor="middle" x="469.5" y="-101.3" font-family="Helvetica,sans-Serif" font-size="9.00">_mcmc_sample</text>
</a>
</g>
</g>
<!-- Node25&#45;&gt;Node26 -->
<g id="edge26" class="edge"><title>Node25&#45;&gt;Node26</title>
<path fill="none" stroke="midnightblue" d="M323.491,-108.5C349.854,-108.5 380.23,-108.5 406.348,-108.5"/>
<polygon fill="midnightblue" stroke="midnightblue" points="323.224,-105 313.224,-108.5 323.224,-112 323.224,-105"/>
</g>
<!-- Node28 -->
<g id="node28" class="node"><title>Node28</title>
<g id="a_node28"><a xlink:href="namespacemappel_1_1methods_1_1debug.html#ab463288fab7e102729d075d60d9e15e0" target="_top" xlink:title="mappel::methods::debug\l::estimate_mcmc_sample_debug">
<polygon fill="white" stroke="black" points="393.5,-47.5 393.5,-75.5 545.5,-75.5 545.5,-47.5 393.5,-47.5"/>
<text text-anchor="start" x="401.5" y="-64.3" font-family="Helvetica,sans-Serif" font-size="9.00">mappel::methods::debug</text>
<text text-anchor="middle" x="469.5" y="-54.3" font-family="Helvetica,sans-Serif" font-size="9.00">::estimate_mcmc_sample_debug</text>
</a>
</g>
</g>
<!-- Node27&#45;&gt;Node28 -->
<g id="edge28" class="edge"><title>Node27&#45;&gt;Node28</title>
<path fill="none" stroke="midnightblue" d="M323.469,-61.5C345.517,-61.5 370.374,-61.5 393.2,-61.5"/>
<polygon fill="midnightblue" stroke="midnightblue" points="323.224,-58.0001 313.224,-61.5 323.224,-65.0001 323.224,-58.0001"/>
</g>
</g>
</svg>
