<?xml version="1.0" encoding="UTF-8" standalone="no"?>
<!DOCTYPE svg PUBLIC "-//W3C//DTD SVG 1.1//EN"
 "http://www.w3.org/Graphics/SVG/1.1/DTD/svg11.dtd">
<!-- Generated by graphviz version 2.38.0 (20140413.2041)
 -->
<!-- Title: mappel::gamma_prior_grad2 Pages: 1 -->
<svg width="469pt" height="84pt"
 viewBox="0.00 0.00 469.00 84.00" xmlns="http://www.w3.org/2000/svg" xmlns:xlink="http://www.w3.org/1999/xlink">
<g id="graph0" class="graph" transform="scale(1 1) rotate(0) translate(4 80)">
<title>mappel::gamma_prior_grad2</title>
<polygon fill="white" stroke="none" points="-4,4 -4,-80 465,-80 465,4 -4,4"/>
<!-- Node1 -->
<g id="node1" class="node"><title>Node1</title>
<polygon fill="#bfbfbf" stroke="black" points="0,-23.5 0,-51.5 107,-51.5 107,-23.5 0,-23.5"/>
<text text-anchor="start" x="8" y="-40.3" font-family="Helvetica,sans-Serif" font-size="9.00">mappel::gamma_prior</text>
<text text-anchor="middle" x="53.5" y="-30.3" font-family="Helvetica,sans-Serif" font-size="9.00">_grad2</text>
</g>
<!-- Node2 -->
<g id="node2" class="node"><title>Node2</title>
<g id="a_node2"><a xlink:href="classmappel_1_1PriorMAP1DObjective.html#af21177beb6afa9a865289f4d49362d55" target="_top" xlink:title="mappel::PriorMAP1DObjective\l::prior_grad2_update">
<polygon fill="white" stroke="black" points="143,-47.5 143,-75.5 284,-75.5 284,-47.5 143,-47.5"/>
<text text-anchor="start" x="151" y="-64.3" font-family="Helvetica,sans-Serif" font-size="9.00">mappel::PriorMAP1DObjective</text>
<text text-anchor="middle" x="213.5" y="-54.3" font-family="Helvetica,sans-Serif" font-size="9.00">::prior_grad2_update</text>
</a>
</g>
</g>
<!-- Node1&#45;&gt;Node2 -->
<g id="edge1" class="edge"><title>Node1&#45;&gt;Node2</title>
<path fill="none" stroke="midnightblue" d="M117.26,-47.0331C125.707,-48.3162 134.413,-49.6387 142.969,-50.9383"/>
<polygon fill="midnightblue" stroke="midnightblue" points="117.524,-43.5332 107.112,-45.4917 116.473,-50.4538 117.524,-43.5332"/>
</g>
<!-- Node4 -->
<g id="node4" class="node"><title>Node4</title>
<g id="a_node4"><a xlink:href="classmappel_1_1PriorMAP1DObjective.html#af7dd7f0d9c0ccb34b988e63bd356dcfb" target="_top" xlink:title="mappel::PriorMAP1DObjective\l::prior_hess_update">
<polygon fill="white" stroke="black" points="143,-0.5 143,-28.5 284,-28.5 284,-0.5 143,-0.5"/>
<text text-anchor="start" x="151" y="-17.3" font-family="Helvetica,sans-Serif" font-size="9.00">mappel::PriorMAP1DObjective</text>
<text text-anchor="middle" x="213.5" y="-7.3" font-family="Helvetica,sans-Serif" font-size="9.00">::prior_hess_update</text>
</a>
</g>
</g>
<!-- Node1&#45;&gt;Node4 -->
<g id="edge3" class="edge"><title>Node1&#45;&gt;Node4</title>
<path fill="none" stroke="midnightblue" d="M117.26,-28.3641C125.707,-27.1344 134.413,-25.8671 142.969,-24.6216"/>
<polygon fill="midnightblue" stroke="midnightblue" points="116.503,-24.9372 107.112,-29.8413 117.512,-31.8642 116.503,-24.9372"/>
</g>
<!-- Node3 -->
<g id="node3" class="node"><title>Node3</title>
<g id="a_node3"><a xlink:href="classmappel_1_1PriorMAP1DObjective.html#ac5b20bb93fe2f2eddd75d19bf34283c7" target="_top" xlink:title="mappel::PriorMAP1DObjective\l::set_hyperparameters">
<polygon fill="white" stroke="black" points="320,-23.5 320,-51.5 461,-51.5 461,-23.5 320,-23.5"/>
<text text-anchor="start" x="328" y="-40.3" font-family="Helvetica,sans-Serif" font-size="9.00">mappel::PriorMAP1DObjective</text>
<text text-anchor="middle" x="390.5" y="-30.3" font-family="Helvetica,sans-Serif" font-size="9.00">::set_hyperparameters</text>
</a>
</g>
</g>
<!-- Node2&#45;&gt;Node3 -->
<g id="edge2" class="edge"><title>Node2&#45;&gt;Node3</title>
<path fill="none" stroke="midnightblue" d="M294.146,-50.5772C302.702,-49.4038 311.359,-48.2165 319.786,-47.0607"/>
<polygon fill="midnightblue" stroke="midnightblue" points="293.599,-47.1193 284.167,-51.9456 294.55,-54.0544 293.599,-47.1193"/>
</g>
<!-- Node4&#45;&gt;Node3 -->
<g id="edge4" class="edge"><title>Node4&#45;&gt;Node3</title>
<path fill="none" stroke="midnightblue" d="M294.146,-24.9677C302.702,-26.0922 311.359,-27.23 319.786,-28.3376"/>
<polygon fill="midnightblue" stroke="midnightblue" points="294.538,-21.4893 284.167,-23.6563 293.626,-28.4296 294.538,-21.4893"/>
</g>
</g>
</svg>
