<?xml version="1.0" encoding="UTF-8" standalone="no"?>
<!DOCTYPE svg PUBLIC "-//W3C//DTD SVG 1.1//EN"
 "http://www.w3.org/Graphics/SVG/1.1/DTD/svg11.dtd">
<!-- Generated by graphviz version 2.38.0 (20140413.2041)
 -->
<!-- Title: mappel::print_image Pages: 1 -->
<svg width="398pt" height="37pt"
 viewBox="0.00 0.00 398.00 37.00" xmlns="http://www.w3.org/2000/svg" xmlns:xlink="http://www.w3.org/1999/xlink">
<g id="graph0" class="graph" transform="scale(1 1) rotate(0) translate(4 33)">
<title>mappel::print_image</title>
<polygon fill="white" stroke="none" points="-4,4 -4,-33 394,-33 394,4 -4,4"/>
<!-- Node1 -->
<g id="node1" class="node"><title>Node1</title>
<polygon fill="#bfbfbf" stroke="black" points="0,-5.5 0,-23.5 101,-23.5 101,-5.5 0,-5.5"/>
<text text-anchor="middle" x="50.5" y="-12.3" font-family="Helvetica,sans-Serif" font-size="9.00">mappel::print_image</text>
</g>
<!-- Node2 -->
<g id="node2" class="node"><title>Node2</title>
<g id="a_node2"><a xlink:href="namespacemappel.html#ab2dadb64b79f80c01086ce2c3d42e642" target="_top" xlink:title="mappel::print_labeled\l_image">
<polygon fill="white" stroke="black" points="137,-0.5 137,-28.5 243,-28.5 243,-0.5 137,-0.5"/>
<text text-anchor="start" x="145" y="-17.3" font-family="Helvetica,sans-Serif" font-size="9.00">mappel::print_labeled</text>
<text text-anchor="middle" x="190" y="-7.3" font-family="Helvetica,sans-Serif" font-size="9.00">_image</text>
</a>
</g>
</g>
<!-- Node1&#45;&gt;Node2 -->
<g id="edge1" class="edge"><title>Node1&#45;&gt;Node2</title>
<path fill="none" stroke="midnightblue" d="M101.141,-14.5C109.344,-14.5 117.941,-14.5 126.413,-14.5"/>
<polygon fill="midnightblue" stroke="midnightblue" points="126.649,-18.0001 136.649,-14.5 126.649,-11.0001 126.649,-18.0001"/>
</g>
<!-- Node3 -->
<g id="node3" class="node"><title>Node3</title>
<g id="a_node3"><a xlink:href="namespacemappel.html#a88fc8fe46dcf69cc0e0861d2f6f28a4e" target="_top" xlink:title="mappel::print_centered\l_title">
<polygon fill="white" stroke="black" points="279,-0.5 279,-28.5 390,-28.5 390,-0.5 279,-0.5"/>
<text text-anchor="start" x="287" y="-17.3" font-family="Helvetica,sans-Serif" font-size="9.00">mappel::print_centered</text>
<text text-anchor="middle" x="334.5" y="-7.3" font-family="Helvetica,sans-Serif" font-size="9.00">_title</text>
</a>
</g>
</g>
<!-- Node2&#45;&gt;Node3 -->
<g id="edge2" class="edge"><title>Node2&#45;&gt;Node3</title>
<path fill="none" stroke="midnightblue" d="M243.253,-14.5C251.497,-14.5 260.108,-14.5 268.598,-14.5"/>
<polygon fill="midnightblue" stroke="midnightblue" points="268.861,-18.0001 278.861,-14.5 268.861,-11.0001 268.861,-18.0001"/>
</g>
</g>
</svg>
