<?xml version="1.0" encoding="UTF-8" standalone="no"?>
<!DOCTYPE svg PUBLIC "-//W3C//DTD SVG 1.1//EN"
 "http://www.w3.org/Graphics/SVG/1.1/DTD/svg11.dtd">
<!-- Generated by graphviz version 2.38.0 (20140413.2041)
 -->
<!-- Title: mappel::rllh_gamma_prior Pages: 1 -->
<!--zoomable 58 -->
<svg id="main" version="1.1" xmlns="http://www.w3.org/2000/svg" xmlns:xlink="http://www.w3.org/1999/xlink" xml:space="preserve" onload="init(evt)">
<style type="text/css"><![CDATA[
.edge:hover path { stroke: red; }
.edge:hover polygon { stroke: red; fill: red; }
]]></style>
<script type="text/javascript"><![CDATA[
var edges = document.getElementsByTagName('g');
if (edges && edges.length) {
  for (var i=0;i<edges.length;i++) {
    if (edges[i].id.substr(0,4)=='edge') {
      edges[i].setAttribute('class','edge');
    }
  }
}
]]></script>
        <defs>
                <circle id="rim" cx="0" cy="0" r="7"/>
                <circle id="rim2" cx="0" cy="0" r="3.5"/>
                <g id="zoomPlus">
                        <use xlink:href="#rim" fill="#404040">
                                <set attributeName="fill" to="#808080" begin="zoomplus.mouseover" end="zoomplus.mouseout"/>
                        </use>
                        <path d="M-4,0h8M0,-4v8" fill="none" stroke="white" stroke-width="1.5" pointer-events="none"/>
                </g>
                <g id="zoomMin">
                        <use xlink:href="#rim" fill="#404040">
                                <set attributeName="fill" to="#808080" begin="zoomminus.mouseover" end="zoomminus.mouseout"/>
                        </use>
                        <path d="M-4,0h8" fill="none" stroke="white" stroke-width="1.5" pointer-events="none"/>
                </g>
                <g id="dirArrow">
                        <path fill="none" stroke="white" stroke-width="1.5" d="M0,-3.0v7 M-2.5,-0.5L0,-3.0L2.5,-0.5"/>
                </g>
               <g id="resetDef">
                       <use xlink:href="#rim2" fill="#404040">
                               <set attributeName="fill" to="#808080" begin="reset.mouseover" end="reset.mouseout"/>
                       </use>
               </g>
        </defs>

<script type="text/javascript">
var viewWidth = 640;
var viewHeight = 58;
var sectionId = 'dynsection-85';
</script>
<script xlink:href="svgpan.js"/>
<svg id="graph" class="graph">
<g id="viewport">
<title>mappel::rllh_gamma_prior</title>
<polygon fill="white" stroke="none" points="-4,4 -4,-54 636,-54 636,4 -4,4"/>
<!-- Node1 -->
<g id="node1" class="node"><title>Node1</title>
<polygon fill="#bfbfbf" stroke="black" points="0,-21.5 0,-49.5 101,-49.5 101,-21.5 0,-21.5"/>
<text text-anchor="start" x="8" y="-38.3" font-family="Helvetica,sans-Serif" font-size="9.00">mappel::rllh_gamma</text>
<text text-anchor="middle" x="50.5" y="-28.3" font-family="Helvetica,sans-Serif" font-size="9.00">_prior</text>
</g>
<!-- Node2 -->
<g id="node2" class="node"><title>Node2</title>
<g id="a_node2"><a xlink:href="classmappel_1_1PriorMAP1DObjective.html#a08683df7a96febdeca35291129291b6d" target="_top" xlink:title="mappel::PriorMAP1DObjective\l::prior_relative_log_likelihood">
<polygon fill="white" stroke="black" points="137,-21.5 137,-49.5 278,-49.5 278,-21.5 137,-21.5"/>
<text text-anchor="start" x="145" y="-38.3" font-family="Helvetica,sans-Serif" font-size="9.00">mappel::PriorMAP1DObjective</text>
<text text-anchor="middle" x="207.5" y="-28.3" font-family="Helvetica,sans-Serif" font-size="9.00">::prior_relative_log_likelihood</text>
</a>
</g>
</g>
<!-- Node1&#45;&gt;Node2 -->
<g id="edge1" class="edge"><title>Node1&#45;&gt;Node2</title>
<path fill="none" stroke="midnightblue" d="M111.418,-35.5C119.775,-35.5 128.419,-35.5 136.934,-35.5"/>
<polygon fill="midnightblue" stroke="midnightblue" points="111.396,-32.0001 101.396,-35.5 111.396,-39.0001 111.396,-32.0001"/>
</g>
<!-- Node3 -->
<g id="node3" class="node"><title>Node3</title>
<g id="a_node3"><a xlink:href="classmappel_1_1PriorMAP1DObjective.html#ac5b20bb93fe2f2eddd75d19bf34283c7" target="_top" xlink:title="mappel::PriorMAP1DObjective\l::set_hyperparameters">
<polygon fill="white" stroke="black" points="491,-21.5 491,-49.5 632,-49.5 632,-21.5 491,-21.5"/>
<text text-anchor="start" x="499" y="-38.3" font-family="Helvetica,sans-Serif" font-size="9.00">mappel::PriorMAP1DObjective</text>
<text text-anchor="middle" x="561.5" y="-28.3" font-family="Helvetica,sans-Serif" font-size="9.00">::set_hyperparameters</text>
</a>
</g>
</g>
<!-- Node2&#45;&gt;Node3 -->
<g id="edge2" class="edge"><title>Node2&#45;&gt;Node3</title>
<path fill="none" stroke="midnightblue" d="M288.197,-38.0071C296.904,-38.2093 305.638,-38.3811 314,-38.5 376.66,-39.3907 392.34,-39.3907 455,-38.5 466.634,-38.3346 478.988,-38.0667 490.988,-37.7573"/>
<polygon fill="midnightblue" stroke="midnightblue" points="288.095,-34.5037 278.012,-37.7573 287.923,-41.5016 288.095,-34.5037"/>
</g>
<!-- Node4 -->
<g id="node4" class="node"><title>Node4</title>
<g id="a_node4"><a xlink:href="classmappel_1_1PriorMAP1DObjective.html#a3cb80b4c435d260e1a62ba666fbbb787" target="_top" xlink:title="mappel::PriorMAP1DObjective\l::prior_log_likelihood">
<polygon fill="white" stroke="black" points="314,-0.5 314,-28.5 455,-28.5 455,-0.5 314,-0.5"/>
<text text-anchor="start" x="322" y="-17.3" font-family="Helvetica,sans-Serif" font-size="9.00">mappel::PriorMAP1DObjective</text>
<text text-anchor="middle" x="384.5" y="-7.3" font-family="Helvetica,sans-Serif" font-size="9.00">::prior_log_likelihood</text>
</a>
</g>
</g>
<!-- Node2&#45;&gt;Node4 -->
<g id="edge3" class="edge"><title>Node2&#45;&gt;Node4</title>
<path fill="none" stroke="midnightblue" d="M288.146,-25.9425C296.702,-24.9158 305.359,-23.8769 313.786,-22.8656"/>
<polygon fill="midnightblue" stroke="midnightblue" points="287.679,-22.4733 278.167,-27.1399 288.513,-29.4234 287.679,-22.4733"/>
</g>
<!-- Node4&#45;&gt;Node3 -->
<g id="edge4" class="edge"><title>Node4&#45;&gt;Node3</title>
<path fill="none" stroke="midnightblue" d="M465.146,-24.0575C473.702,-25.0842 482.359,-26.1231 490.786,-27.1344"/>
<polygon fill="midnightblue" stroke="midnightblue" points="465.513,-20.5766 455.167,-22.8601 464.679,-27.5267 465.513,-20.5766"/>
</g>
</g>
</svg>
        <g id="navigator" transform="translate(0 0)" fill="#404254">
                <rect fill="#f2f5e9" fill-opacity="0.5" stroke="#606060" stroke-width=".5" x="0" y="0" width="60" height="60"/>
                <use id="zoomplus" xlink:href="#zoomPlus" x="17" y="9" onmousedown="handleZoom(evt,'in')"/>
                <use id="zoomminus" xlink:href="#zoomMin" x="42" y="9" onmousedown="handleZoom(evt,'out')"/>
                <use id="reset" xlink:href="#resetDef" x="30" y="36" onmousedown="handleReset()"/>
                <g id="arrowUp" xlink:href="#dirArrow" transform="translate(30 24)" onmousedown="handlePan(0,-1)">
                  <use xlink:href="#rim" fill="#404040">
                        <set attributeName="fill" to="#808080" begin="arrowUp.mouseover" end="arrowUp.mouseout"/>
                  </use>
                  <path fill="none" stroke="white" stroke-width="1.5" d="M0,-3.0v7 M-2.5,-0.5L0,-3.0L2.5,-0.5"/>
                </g>
                <g id="arrowRight" xlink:href="#dirArrow" transform="rotate(90) translate(36 -43)" onmousedown="handlePan(1,0)">
                  <use xlink:href="#rim" fill="#404040">
                        <set attributeName="fill" to="#808080" begin="arrowRight.mouseover" end="arrowRight.mouseout"/>
                  </use>
                  <path fill="none" stroke="white" stroke-width="1.5" d="M0,-3.0v7 M-2.5,-0.5L0,-3.0L2.5,-0.5"/>
                </g>
                <g id="arrowDown" xlink:href="#dirArrow" transform="rotate(180) translate(-30 -48)" onmousedown="handlePan(0,1)">
                  <use xlink:href="#rim" fill="#404040">
                        <set attributeName="fill" to="#808080" begin="arrowDown.mouseover" end="arrowDown.mouseout"/>
                  </use>
                  <path fill="none" stroke="white" stroke-width="1.5" d="M0,-3.0v7 M-2.5,-0.5L0,-3.0L2.5,-0.5"/>
                </g>
                <g id="arrowLeft" xlink:href="#dirArrow" transform="rotate(270) translate(-36 17)" onmousedown="handlePan(-1,0)">
                  <use xlink:href="#rim" fill="#404040">
                        <set attributeName="fill" to="#808080" begin="arrowLeft.mouseover" end="arrowLeft.mouseout"/>
                  </use>
                  <path fill="none" stroke="white" stroke-width="1.5" d="M0,-3.0v7 M-2.5,-0.5L0,-3.0L2.5,-0.5"/>
                </g>
        </g>
        <svg viewBox="0 0 15 15" width="100%" height="30px" preserveAspectRatio="xMaxYMin meet">
         <g id="arrow_out" transform="scale(0.3 0.3)">
          <a xlink:href="namespacemappel_ac76807de851d24f1b720629ad9062cb2_icgraph_org.svg" target="_base">
           <rect id="button" ry="5" rx="5" y="6" x="6" height="38" width="38"
                fill="#f2f5e9" fill-opacity="0.5" stroke="#606060" stroke-width="1.0"/>
           <path id="arrow"
             d="M 11.500037,31.436501 C 11.940474,20.09759 22.043105,11.32322 32.158766,21.979434 L 37.068811,17.246167 C 37.068811,17.246167 37.088388,32 37.088388,32 L 22.160133,31.978069 C 22.160133,31.978069 26.997745,27.140456 26.997745,27.140456 C 18.528582,18.264221 13.291696,25.230495 11.500037,31.436501 z"
             style="fill:#404040;"/>
          </a>
         </g>
        </svg>
</svg>
