<?xml version="1.0" encoding="UTF-8" standalone="no"?>
<!DOCTYPE svg PUBLIC "-//W3C//DTD SVG 1.1//EN"
 "http://www.w3.org/Graphics/SVG/1.1/DTD/svg11.dtd">
<!-- Generated by graphviz version 2.38.0 (20140413.2041)
 -->
<!-- Title: mappel::cholesky_convert_lower_triangular Pages: 1 -->
<svg width="341pt" height="37pt"
 viewBox="0.00 0.00 341.00 37.00" xmlns="http://www.w3.org/2000/svg" xmlns:xlink="http://www.w3.org/1999/xlink">
<g id="graph0" class="graph" transform="scale(1 1) rotate(0) translate(4 33)">
<title>mappel::cholesky_convert_lower_triangular</title>
<polygon fill="white" stroke="none" points="-4,4 -4,-33 337,-33 337,4 -4,4"/>
<!-- Node1 -->
<g id="node1" class="node"><title>Node1</title>
<polygon fill="#bfbfbf" stroke="black" points="0,-0.5 0,-28.5 123,-28.5 123,-0.5 0,-0.5"/>
<text text-anchor="start" x="8" y="-17.3" font-family="Helvetica,sans-Serif" font-size="9.00">mappel::cholesky_convert</text>
<text text-anchor="middle" x="61.5" y="-7.3" font-family="Helvetica,sans-Serif" font-size="9.00">_lower_triangular</text>
</g>
<!-- Node2 -->
<g id="node2" class="node"><title>Node2</title>
<g id="a_node2"><a xlink:href="classmappel_1_1TrustRegionMaximizer.html#af32ed521848406591d8a77d5a8abb7be" target="_top" xlink:title="mappel::TrustRegionMaximizer\l::solve_restricted_step_length_newton">
<polygon fill="white" stroke="black" points="159,-0.5 159,-28.5 333,-28.5 333,-0.5 159,-0.5"/>
<text text-anchor="start" x="167" y="-17.3" font-family="Helvetica,sans-Serif" font-size="9.00">mappel::TrustRegionMaximizer</text>
<text text-anchor="middle" x="246" y="-7.3" font-family="Helvetica,sans-Serif" font-size="9.00">::solve_restricted_step_length_newton</text>
</a>
</g>
</g>
<!-- Node1&#45;&gt;Node2 -->
<g id="edge1" class="edge"><title>Node1&#45;&gt;Node2</title>
<path fill="none" stroke="midnightblue" d="M133.168,-14.5C141.609,-14.5 150.298,-14.5 158.925,-14.5"/>
<polygon fill="midnightblue" stroke="midnightblue" points="133.016,-11.0001 123.016,-14.5 133.016,-18.0001 133.016,-11.0001"/>
</g>
</g>
</svg>
