<?xml version="1.0" encoding="UTF-8" standalone="no"?>
<!DOCTYPE svg PUBLIC "-//W3C//DTD SVG 1.1//EN"
 "http://www.w3.org/Graphics/SVG/1.1/DTD/svg11.dtd">
<!-- Generated by graphviz version 2.38.0 (20140413.2041)
 -->
<!-- Title: mappel::methods::observed_information Pages: 1 -->
<svg width="302pt" height="37pt"
 viewBox="0.00 0.00 302.00 37.00" xmlns="http://www.w3.org/2000/svg" xmlns:xlink="http://www.w3.org/1999/xlink">
<g id="graph0" class="graph" transform="scale(1 1) rotate(0) translate(4 33)">
<title>mappel::methods::observed_information</title>
<polygon fill="white" stroke="none" points="-4,4 -4,-33 298,-33 298,4 -4,4"/>
<!-- Node1 -->
<g id="node1" class="node"><title>Node1</title>
<polygon fill="#bfbfbf" stroke="black" points="0,-0.5 0,-28.5 130,-28.5 130,-0.5 0,-0.5"/>
<text text-anchor="start" x="8" y="-17.3" font-family="Helvetica,sans-Serif" font-size="9.00">mappel::methods::observed</text>
<text text-anchor="middle" x="65" y="-7.3" font-family="Helvetica,sans-Serif" font-size="9.00">_information</text>
</g>
<!-- Node2 -->
<g id="node2" class="node"><title>Node2</title>
<g id="a_node2"><a xlink:href="namespacemappel_1_1methods_1_1objective.html#afbf93fa446606620d01747af3684f62d" target="_top" xlink:title="mappel::methods::objective\l::hessian">
<polygon fill="white" stroke="black" points="166,-0.5 166,-28.5 294,-28.5 294,-0.5 166,-0.5"/>
<text text-anchor="start" x="174" y="-17.3" font-family="Helvetica,sans-Serif" font-size="9.00">mappel::methods::objective</text>
<text text-anchor="middle" x="230" y="-7.3" font-family="Helvetica,sans-Serif" font-size="9.00">::hessian</text>
</a>
</g>
</g>
<!-- Node1&#45;&gt;Node2 -->
<g id="edge1" class="edge"><title>Node1&#45;&gt;Node2</title>
<path fill="none" stroke="midnightblue" d="M130.422,-14.5C138.71,-14.5 147.244,-14.5 155.661,-14.5"/>
<polygon fill="midnightblue" stroke="midnightblue" points="155.845,-18.0001 165.845,-14.5 155.845,-11.0001 155.845,-18.0001"/>
</g>
</g>
</svg>
