<?xml version="1.0" encoding="UTF-8" standalone="no"?>
<!DOCTYPE svg PUBLIC "-//W3C//DTD SVG 1.1//EN"
 "http://www.w3.org/Graphics/SVG/1.1/DTD/svg11.dtd">
<!-- Generated by graphviz version 2.38.0 (20140413.2041)
 -->
<!-- Title: mappel::make_gaussian_stencil Pages: 1 -->
<svg width="404pt" height="37pt"
 viewBox="0.00 0.00 404.00 37.00" xmlns="http://www.w3.org/2000/svg" xmlns:xlink="http://www.w3.org/1999/xlink">
<g id="graph0" class="graph" transform="scale(1 1) rotate(0) translate(4 33)">
<title>mappel::make_gaussian_stencil</title>
<polygon fill="white" stroke="none" points="-4,4 -4,-33 400,-33 400,4 -4,4"/>
<!-- Node1 -->
<g id="node1" class="node"><title>Node1</title>
<polygon fill="#bfbfbf" stroke="black" points="0,-0.5 0,-28.5 117,-28.5 117,-0.5 0,-0.5"/>
<text text-anchor="start" x="8" y="-17.3" font-family="Helvetica,sans-Serif" font-size="9.00">mappel::make_gaussian</text>
<text text-anchor="middle" x="58.5" y="-7.3" font-family="Helvetica,sans-Serif" font-size="9.00">_stencil</text>
</g>
<!-- Node2 -->
<g id="node2" class="node"><title>Node2</title>
<g id="a_node2"><a xlink:href="namespacemappel.html#a09a770c2a4eaa7c083abbac26ec70ff3" target="_top" xlink:title="mappel::fill_gaussian\l_stencil">
<polygon fill="white" stroke="black" points="153,-0.5 153,-28.5 257,-28.5 257,-0.5 153,-0.5"/>
<text text-anchor="start" x="161" y="-17.3" font-family="Helvetica,sans-Serif" font-size="9.00">mappel::fill_gaussian</text>
<text text-anchor="middle" x="205" y="-7.3" font-family="Helvetica,sans-Serif" font-size="9.00">_stencil</text>
</a>
</g>
</g>
<!-- Node1&#45;&gt;Node2 -->
<g id="edge1" class="edge"><title>Node1&#45;&gt;Node2</title>
<path fill="none" stroke="midnightblue" d="M117.025,-14.5C125.418,-14.5 134.088,-14.5 142.556,-14.5"/>
<polygon fill="midnightblue" stroke="midnightblue" points="142.751,-18.0001 152.751,-14.5 142.751,-11.0001 142.751,-18.0001"/>
</g>
<!-- Node3 -->
<g id="node3" class="node"><title>Node3</title>
<g id="a_node3"><a xlink:href="namespacemappel.html#afdf826a9bc6ea906415c89f1e7087f1a" target="_top" xlink:title="mappel::gauss_norm">
<polygon fill="white" stroke="black" points="293,-5.5 293,-23.5 396,-23.5 396,-5.5 293,-5.5"/>
<text text-anchor="middle" x="344.5" y="-12.3" font-family="Helvetica,sans-Serif" font-size="9.00">mappel::gauss_norm</text>
</a>
</g>
</g>
<!-- Node2&#45;&gt;Node3 -->
<g id="edge2" class="edge"><title>Node2&#45;&gt;Node3</title>
<path fill="none" stroke="midnightblue" d="M257.2,-14.5C265.451,-14.5 274.063,-14.5 282.517,-14.5"/>
<polygon fill="midnightblue" stroke="midnightblue" points="282.715,-18.0001 292.715,-14.5 282.715,-11.0001 282.715,-18.0001"/>
</g>
</g>
</svg>
