<?xml version="1.0" encoding="UTF-8" standalone="no"?>
<!DOCTYPE svg PUBLIC "-//W3C//DTD SVG 1.1//EN"
 "http://www.w3.org/Graphics/SVG/1.1/DTD/svg11.dtd">
<!-- Generated by graphviz version 2.38.0 (20140413.2041)
 -->
<!-- Title: mappel::modified_cholesky Pages: 1 -->
<svg width="453pt" height="84pt"
 viewBox="0.00 0.00 453.00 84.00" xmlns="http://www.w3.org/2000/svg" xmlns:xlink="http://www.w3.org/1999/xlink">
<g id="graph0" class="graph" transform="scale(1 1) rotate(0) translate(4 80)">
<title>mappel::modified_cholesky</title>
<polygon fill="white" stroke="none" points="-4,4 -4,-80 449,-80 449,4 -4,4"/>
<!-- Node1 -->
<g id="node1" class="node"><title>Node1</title>
<polygon fill="#bfbfbf" stroke="black" points="0,-28.5 0,-46.5 128,-46.5 128,-28.5 0,-28.5"/>
<text text-anchor="middle" x="64" y="-35.3" font-family="Helvetica,sans-Serif" font-size="9.00">mappel::modified_cholesky</text>
</g>
<!-- Node2 -->
<g id="node2" class="node"><title>Node2</title>
<g id="a_node2"><a xlink:href="namespacemappel.html#af0d85d0ac01f8397a555efb5912fc2ea" target="_top" xlink:title="mappel::cholesky_make\l_negative_definite">
<polygon fill="white" stroke="black" points="164,-47.5 164,-75.5 280,-75.5 280,-47.5 164,-47.5"/>
<text text-anchor="start" x="172" y="-64.3" font-family="Helvetica,sans-Serif" font-size="9.00">mappel::cholesky_make</text>
<text text-anchor="middle" x="222" y="-54.3" font-family="Helvetica,sans-Serif" font-size="9.00">_negative_definite</text>
</a>
</g>
</g>
<!-- Node1&#45;&gt;Node2 -->
<g id="edge1" class="edge"><title>Node1&#45;&gt;Node2</title>
<path fill="none" stroke="midnightblue" d="M133.577,-48.0503C143.719,-49.6107 154.078,-51.2042 163.952,-52.7233"/>
<polygon fill="midnightblue" stroke="midnightblue" points="133.948,-44.5664 123.532,-46.505 132.884,-51.485 133.948,-44.5664"/>
</g>
<!-- Node4 -->
<g id="node4" class="node"><title>Node4</title>
<g id="a_node4"><a xlink:href="namespacemappel.html#af22fb1e606ca14f8b46ffde3b8833a9f" target="_top" xlink:title="mappel::cholesky_make\l_positive_definite">
<polygon fill="white" stroke="black" points="164,-0.5 164,-28.5 280,-28.5 280,-0.5 164,-0.5"/>
<text text-anchor="start" x="172" y="-17.3" font-family="Helvetica,sans-Serif" font-size="9.00">mappel::cholesky_make</text>
<text text-anchor="middle" x="222" y="-7.3" font-family="Helvetica,sans-Serif" font-size="9.00">_positive_definite</text>
</a>
</g>
</g>
<!-- Node1&#45;&gt;Node4 -->
<g id="edge3" class="edge"><title>Node1&#45;&gt;Node4</title>
<path fill="none" stroke="midnightblue" d="M136.171,-27.0068C145.423,-25.6428 154.804,-24.2597 163.788,-22.9352"/>
<polygon fill="midnightblue" stroke="midnightblue" points="135.59,-23.5546 126.208,-28.4758 136.611,-30.4797 135.59,-23.5546"/>
</g>
<!-- Node3 -->
<g id="node3" class="node"><title>Node3</title>
<g id="a_node3"><a xlink:href="namespacemappel_1_1methods_1_1objective.html#a8c40861cc75e4165606b495a6c04c62a" target="_top" xlink:title="mappel::methods::objective\l::negative_definite_hessian">
<polygon fill="white" stroke="black" points="316,-47.5 316,-75.5 445,-75.5 445,-47.5 316,-47.5"/>
<text text-anchor="start" x="324" y="-64.3" font-family="Helvetica,sans-Serif" font-size="9.00">mappel::methods::objective</text>
<text text-anchor="middle" x="380.5" y="-54.3" font-family="Helvetica,sans-Serif" font-size="9.00">::negative_definite_hessian</text>
</a>
</g>
</g>
<!-- Node2&#45;&gt;Node3 -->
<g id="edge2" class="edge"><title>Node2&#45;&gt;Node3</title>
<path fill="none" stroke="midnightblue" d="M290.508,-61.5C298.897,-61.5 307.453,-61.5 315.782,-61.5"/>
<polygon fill="midnightblue" stroke="midnightblue" points="290.386,-58.0001 280.386,-61.5 290.386,-65.0001 290.386,-58.0001"/>
</g>
</g>
</svg>
