<?xml version="1.0" encoding="UTF-8" standalone="no"?>
<!DOCTYPE svg PUBLIC "-//W3C//DTD SVG 1.1//EN"
 "http://www.w3.org/Graphics/SVG/1.1/DTD/svg11.dtd">
<!-- Generated by graphviz version 2.38.0 (20140413.2041)
 -->
<!-- Title: mappel::methods::simulate_image Pages: 1 -->
<svg width="457pt" height="102pt"
 viewBox="0.00 0.00 457.00 102.00" xmlns="http://www.w3.org/2000/svg" xmlns:xlink="http://www.w3.org/1999/xlink">
<g id="graph0" class="graph" transform="scale(1 1) rotate(0) translate(4 98)">
<title>mappel::methods::simulate_image</title>
<polygon fill="white" stroke="none" points="-4,4 -4,-98 453,-98 453,4 -4,4"/>
<!-- Node1 -->
<g id="node1" class="node"><title>Node1</title>
<polygon fill="#bfbfbf" stroke="black" points="0,-22.5 0,-50.5 126,-50.5 126,-22.5 0,-22.5"/>
<text text-anchor="start" x="8" y="-39.3" font-family="Helvetica,sans-Serif" font-size="9.00">mappel::methods::simulate</text>
<text text-anchor="middle" x="63" y="-29.3" font-family="Helvetica,sans-Serif" font-size="9.00">_image</text>
</g>
<!-- Node2 -->
<g id="node2" class="node"><title>Node2</title>
<g id="a_node2"><a xlink:href="namespacemappel_1_1methods.html#a3809077f8bb3dca1fdf43ccc67dde62d" target="_top" xlink:title="mappel::methods::simulate\l_image">
<polygon fill="white" stroke="black" points="162,-22.5 162,-50.5 288,-50.5 288,-22.5 162,-22.5"/>
<text text-anchor="start" x="170" y="-39.3" font-family="Helvetica,sans-Serif" font-size="9.00">mappel::methods::simulate</text>
<text text-anchor="middle" x="225" y="-29.3" font-family="Helvetica,sans-Serif" font-size="9.00">_image</text>
</a>
</g>
</g>
<!-- Node1&#45;&gt;Node2 -->
<g id="edge1" class="edge"><title>Node1&#45;&gt;Node2</title>
<path fill="none" stroke="midnightblue" d="M136.545,-36.5C144.996,-36.5 153.559,-36.5 161.852,-36.5"/>
<polygon fill="midnightblue" stroke="midnightblue" points="136.318,-33.0001 126.318,-36.5 136.318,-40.0001 136.318,-33.0001"/>
</g>
<!-- Node3 -->
<g id="node3" class="node"><title>Node3</title>
<g id="a_node3"><a xlink:href="namespacemappel.html#a79ac0dd997da8729f9610aab0fdbb347" target="_top" xlink:title="Parallel simulation of images from one or more theta. ">
<polygon fill="white" stroke="black" points="328,-65.5 328,-93.5 445,-93.5 445,-65.5 328,-65.5"/>
<text text-anchor="start" x="336" y="-82.3" font-family="Helvetica,sans-Serif" font-size="9.00">mappel::simulate_image</text>
<text text-anchor="middle" x="386.5" y="-72.3" font-family="Helvetica,sans-Serif" font-size="9.00">_stack</text>
</a>
</g>
</g>
<!-- Node1&#45;&gt;Node3 -->
<g id="edge5" class="edge"><title>Node1&#45;&gt;Node3</title>
<path fill="none" stroke="midnightblue" d="M98.3702,-55.2525C116.682,-64.1922 139.93,-73.9184 162,-78.5 217.469,-90.0148 282.363,-88.7208 327.891,-85.4828"/>
<polygon fill="midnightblue" stroke="midnightblue" points="99.7834,-52.0456 89.2769,-50.6806 96.6391,-58.2996 99.7834,-52.0456"/>
</g>
<!-- Node4 -->
<g id="node4" class="node"><title>Node4</title>
<g id="a_node4"><a xlink:href="namespacemappel_1_1methods_1_1openmp.html#a49b53ce5958e1a69e5b4cf8d4b0b1420" target="_top" xlink:title="Parallel simulation of images from one or more theta. ">
<polygon fill="white" stroke="black" points="324,-0.5 324,-28.5 449,-28.5 449,-0.5 324,-0.5"/>
<text text-anchor="start" x="332" y="-17.3" font-family="Helvetica,sans-Serif" font-size="9.00">mappel::methods::openmp</text>
<text text-anchor="middle" x="386.5" y="-7.3" font-family="Helvetica,sans-Serif" font-size="9.00">::simulate_image_stack</text>
</a>
</g>
</g>
<!-- Node1&#45;&gt;Node4 -->
<g id="edge6" class="edge"><title>Node1&#45;&gt;Node4</title>
<path fill="none" stroke="midnightblue" d="M121.355,-20.0163C134.592,-16.8944 148.696,-14.1053 162,-12.5 216.319,-5.94553 278.603,-7.21793 323.6,-9.68379"/>
<polygon fill="midnightblue" stroke="midnightblue" points="120.304,-16.6701 111.428,-22.4545 121.974,-23.4681 120.304,-16.6701"/>
</g>
<!-- Node2&#45;&gt;Node2 -->
<g id="edge2" class="edge"><title>Node2&#45;&gt;Node2</title>
<path fill="none" stroke="midnightblue" d="M196.077,-60.4873C199.148,-65.4413 208.789,-69 225,-69 250.938,-69 260.056,-59.8898 252.356,-50.5305"/>
<polygon fill="midnightblue" stroke="midnightblue" points="199.546,-60.9531 197.644,-50.5305 192.632,-59.8646 199.546,-60.9531"/>
</g>
<!-- Node2&#45;&gt;Node3 -->
<g id="edge3" class="edge"><title>Node2&#45;&gt;Node3</title>
<path fill="none" stroke="midnightblue" d="M287.953,-53.2019C302.985,-57.2545 318.906,-61.5467 333.429,-65.462"/>
<polygon fill="midnightblue" stroke="midnightblue" points="288.793,-49.8035 278.226,-50.5798 286.97,-56.5622 288.793,-49.8035"/>
</g>
<!-- Node2&#45;&gt;Node4 -->
<g id="edge4" class="edge"><title>Node2&#45;&gt;Node4</title>
<path fill="none" stroke="midnightblue" d="M298.116,-26.553C306.695,-25.3696 315.393,-24.1699 323.808,-23.0092"/>
<polygon fill="midnightblue" stroke="midnightblue" points="297.552,-23.0976 288.124,-27.9312 298.508,-30.0319 297.552,-23.0976"/>
</g>
</g>
</svg>
