<?xml version="1.0" encoding="UTF-8" standalone="no"?>
<!DOCTYPE svg PUBLIC "-//W3C//DTD SVG 1.1//EN"
 "http://www.w3.org/Graphics/SVG/1.1/DTD/svg11.dtd">
<!-- Generated by graphviz version 2.38.0 (20140413.2041)
 -->
<!-- Title: mappel::methods::objective::negative_definite_hessian Pages: 1 -->
<svg width="621pt" height="105pt"
 viewBox="0.00 0.00 621.00 105.00" xmlns="http://www.w3.org/2000/svg" xmlns:xlink="http://www.w3.org/1999/xlink">
<g id="graph0" class="graph" transform="scale(1 1) rotate(0) translate(4 101)">
<title>mappel::methods::objective::negative_definite_hessian</title>
<polygon fill="white" stroke="none" points="-4,4 -4,-101 617,-101 617,4 -4,4"/>
<!-- Node1 -->
<g id="node1" class="node"><title>Node1</title>
<polygon fill="#bfbfbf" stroke="black" points="0,-23.5 0,-51.5 129,-51.5 129,-23.5 0,-23.5"/>
<text text-anchor="start" x="8" y="-40.3" font-family="Helvetica,sans-Serif" font-size="9.00">mappel::methods::objective</text>
<text text-anchor="middle" x="64.5" y="-30.3" font-family="Helvetica,sans-Serif" font-size="9.00">::negative_definite_hessian</text>
</g>
<!-- Node2 -->
<g id="node2" class="node"><title>Node2</title>
<g id="a_node2"><a xlink:href="namespacemappel.html#af0d85d0ac01f8397a555efb5912fc2ea" target="_top" xlink:title="mappel::cholesky_make\l_negative_definite">
<polygon fill="white" stroke="black" points="171,-47.5 171,-75.5 287,-75.5 287,-47.5 171,-47.5"/>
<text text-anchor="start" x="179" y="-64.3" font-family="Helvetica,sans-Serif" font-size="9.00">mappel::cholesky_make</text>
<text text-anchor="middle" x="229" y="-54.3" font-family="Helvetica,sans-Serif" font-size="9.00">_negative_definite</text>
</a>
</g>
</g>
<!-- Node1&#45;&gt;Node2 -->
<g id="edge1" class="edge"><title>Node1&#45;&gt;Node2</title>
<path fill="none" stroke="midnightblue" d="M129.258,-46.9166C139.635,-48.4491 150.411,-50.0407 160.866,-51.5848"/>
<polygon fill="midnightblue" stroke="midnightblue" points="160.363,-55.0485 170.768,-53.0472 161.386,-48.1236 160.363,-55.0485"/>
</g>
<!-- Node6 -->
<g id="node6" class="node"><title>Node6</title>
<g id="a_node6"><a xlink:href="namespacemappel_1_1methods_1_1objective.html#afbf93fa446606620d01747af3684f62d" target="_top" xlink:title="mappel::methods::objective\l::hessian">
<polygon fill="white" stroke="black" points="165,-0.5 165,-28.5 293,-28.5 293,-0.5 165,-0.5"/>
<text text-anchor="start" x="173" y="-17.3" font-family="Helvetica,sans-Serif" font-size="9.00">mappel::methods::objective</text>
<text text-anchor="middle" x="229" y="-7.3" font-family="Helvetica,sans-Serif" font-size="9.00">::hessian</text>
</a>
</g>
</g>
<!-- Node1&#45;&gt;Node6 -->
<g id="edge5" class="edge"><title>Node1&#45;&gt;Node6</title>
<path fill="none" stroke="midnightblue" d="M129.258,-28.4758C137.694,-27.2818 146.394,-26.0504 154.971,-24.8365"/>
<polygon fill="midnightblue" stroke="midnightblue" points="155.548,-28.2897 164.959,-23.4227 154.567,-21.3588 155.548,-28.2897"/>
</g>
<!-- Node3 -->
<g id="node3" class="node"><title>Node3</title>
<g id="a_node3"><a xlink:href="namespacemappel.html#a2f4256e721d1f22f2d72817ba3d2540d" target="_top" xlink:title="mappel::cholesky_convert\l_full_matrix">
<polygon fill="white" stroke="black" points="331.5,-68.5 331.5,-96.5 454.5,-96.5 454.5,-68.5 331.5,-68.5"/>
<text text-anchor="start" x="339.5" y="-85.3" font-family="Helvetica,sans-Serif" font-size="9.00">mappel::cholesky_convert</text>
<text text-anchor="middle" x="393" y="-75.3" font-family="Helvetica,sans-Serif" font-size="9.00">_full_matrix</text>
</a>
</g>
</g>
<!-- Node2&#45;&gt;Node3 -->
<g id="edge2" class="edge"><title>Node2&#45;&gt;Node3</title>
<path fill="none" stroke="midnightblue" d="M287.115,-68.9038C298.177,-70.3377 309.891,-71.8563 321.326,-73.3386"/>
<polygon fill="midnightblue" stroke="midnightblue" points="320.913,-76.8143 331.28,-74.6289 321.813,-69.8723 320.913,-76.8143"/>
</g>
<!-- Node5 -->
<g id="node5" class="node"><title>Node5</title>
<g id="a_node5"><a xlink:href="namespacemappel.html#a5b0ad6d46ef0173ae9e44a0ff9af7f0b" target="_top" xlink:title="mappel::modified_cholesky">
<polygon fill="white" stroke="black" points="329,-31.5 329,-49.5 457,-49.5 457,-31.5 329,-31.5"/>
<text text-anchor="middle" x="393" y="-38.3" font-family="Helvetica,sans-Serif" font-size="9.00">mappel::modified_cholesky</text>
</a>
</g>
</g>
<!-- Node2&#45;&gt;Node5 -->
<g id="edge4" class="edge"><title>Node2&#45;&gt;Node5</title>
<path fill="none" stroke="midnightblue" d="M287.115,-54.0962C297.332,-52.7718 308.106,-51.3752 318.702,-50.0016"/>
<polygon fill="midnightblue" stroke="midnightblue" points="319.316,-53.4514 328.783,-48.6948 318.416,-46.5095 319.316,-53.4514"/>
</g>
<!-- Node4 -->
<g id="node4" class="node"><title>Node4</title>
<g id="a_node4"><a xlink:href="namespacemappel.html#a7332bb151bb9ea23be4af80743009954" target="_top" xlink:title="mappel::copy_Usym_mat">
<polygon fill="white" stroke="black" points="493,-73.5 493,-91.5 613,-91.5 613,-73.5 493,-73.5"/>
<text text-anchor="middle" x="553" y="-80.3" font-family="Helvetica,sans-Serif" font-size="9.00">mappel::copy_Usym_mat</text>
</a>
</g>
</g>
<!-- Node3&#45;&gt;Node4 -->
<g id="edge3" class="edge"><title>Node3&#45;&gt;Node4</title>
<path fill="none" stroke="midnightblue" d="M454.635,-82.5C463.838,-82.5 473.393,-82.5 482.762,-82.5"/>
<polygon fill="midnightblue" stroke="midnightblue" points="482.83,-86.0001 492.83,-82.5 482.83,-79.0001 482.83,-86.0001"/>
</g>
</g>
</svg>
