<?xml version="1.0" encoding="UTF-8" standalone="no"?>
<!DOCTYPE svg PUBLIC "-//W3C//DTD SVG 1.1//EN"
 "http://www.w3.org/Graphics/SVG/1.1/DTD/svg11.dtd">
<!-- Generated by graphviz version 2.38.0 (20140413.2041)
 -->
<!-- Title: mappel::methods::error_bounds_expected Pages: 1 -->
<svg width="439pt" height="84pt"
 viewBox="0.00 0.00 439.00 84.00" xmlns="http://www.w3.org/2000/svg" xmlns:xlink="http://www.w3.org/1999/xlink">
<g id="graph0" class="graph" transform="scale(1 1) rotate(0) translate(4 80)">
<title>mappel::methods::error_bounds_expected</title>
<polygon fill="white" stroke="none" points="-4,4 -4,-80 435,-80 435,4 -4,4"/>
<!-- Node1 -->
<g id="node1" class="node"><title>Node1</title>
<polygon fill="#bfbfbf" stroke="black" points="0,-23.5 0,-51.5 111,-51.5 111,-23.5 0,-23.5"/>
<text text-anchor="start" x="8" y="-40.3" font-family="Helvetica,sans-Serif" font-size="9.00">mappel::methods::error</text>
<text text-anchor="middle" x="55.5" y="-30.3" font-family="Helvetica,sans-Serif" font-size="9.00">_bounds_expected</text>
</g>
<!-- Node2 -->
<g id="node2" class="node"><title>Node2</title>
<g id="a_node2"><a xlink:href="namespacemappel_1_1methods.html#ac1fe2927bc882d9a76138010f41df115" target="_top" xlink:title="Calculate the Cramer&#45;Rao lower bound at the given parameters. ">
<polygon fill="white" stroke="black" points="157,-47.5 157,-75.5 256,-75.5 256,-47.5 157,-47.5"/>
<text text-anchor="start" x="165" y="-64.3" font-family="Helvetica,sans-Serif" font-size="9.00">mappel::methods::cr</text>
<text text-anchor="middle" x="206.5" y="-54.3" font-family="Helvetica,sans-Serif" font-size="9.00">_lower_bound</text>
</a>
</g>
</g>
<!-- Node1&#45;&gt;Node2 -->
<g id="edge1" class="edge"><title>Node1&#45;&gt;Node2</title>
<path fill="none" stroke="midnightblue" d="M111.136,-46.3004C122.699,-48.1629 134.951,-50.1363 146.661,-52.0226"/>
<polygon fill="midnightblue" stroke="midnightblue" points="146.353,-55.5181 156.783,-53.6529 147.467,-48.6071 146.353,-55.5181"/>
</g>
<!-- Node4 -->
<g id="node4" class="node"><title>Node4</title>
<g id="a_node4"><a xlink:href="namespacemappel.html#a69b8109164dc63d76f99ad0d9c149148" target="_top" xlink:title="mappel::normal_quantile\l_twosided">
<polygon fill="white" stroke="black" points="147,-0.5 147,-28.5 266,-28.5 266,-0.5 147,-0.5"/>
<text text-anchor="start" x="155" y="-17.3" font-family="Helvetica,sans-Serif" font-size="9.00">mappel::normal_quantile</text>
<text text-anchor="middle" x="206.5" y="-7.3" font-family="Helvetica,sans-Serif" font-size="9.00">_twosided</text>
</a>
</g>
</g>
<!-- Node1&#45;&gt;Node4 -->
<g id="edge3" class="edge"><title>Node1&#45;&gt;Node4</title>
<path fill="none" stroke="midnightblue" d="M111.136,-29.0662C119.494,-27.7762 128.211,-26.4305 136.824,-25.1011"/>
<polygon fill="midnightblue" stroke="midnightblue" points="137.51,-28.5367 146.859,-23.552 136.442,-21.6186 137.51,-28.5367"/>
</g>
<!-- Node3 -->
<g id="node3" class="node"><title>Node3</title>
<g id="a_node3"><a xlink:href="namespacemappel_1_1methods.html#a6632adc36d8b32fd8d198669e268c767" target="_top" xlink:title="mappel::methods::expected\l_information">
<polygon fill="white" stroke="black" points="302,-47.5 302,-75.5 431,-75.5 431,-47.5 302,-47.5"/>
<text text-anchor="start" x="310" y="-64.3" font-family="Helvetica,sans-Serif" font-size="9.00">mappel::methods::expected</text>
<text text-anchor="middle" x="366.5" y="-54.3" font-family="Helvetica,sans-Serif" font-size="9.00">_information</text>
</a>
</g>
</g>
<!-- Node2&#45;&gt;Node3 -->
<g id="edge2" class="edge"><title>Node2&#45;&gt;Node3</title>
<path fill="none" stroke="midnightblue" d="M256.194,-61.5C267.458,-61.5 279.69,-61.5 291.757,-61.5"/>
<polygon fill="midnightblue" stroke="midnightblue" points="291.83,-65.0001 301.83,-61.5 291.83,-58.0001 291.83,-65.0001"/>
</g>
</g>
</svg>
