<?xml version="1.0" encoding="UTF-8" standalone="no"?>
<!DOCTYPE svg PUBLIC "-//W3C//DTD SVG 1.1//EN"
 "http://www.w3.org/Graphics/SVG/1.1/DTD/svg11.dtd">
<!-- Generated by graphviz version 2.38.0 (20140413.2041)
 -->
<!-- Title: mappel::poisson_log_likelihood Pages: 1 -->
<svg width="438pt" height="116pt"
 viewBox="0.00 0.00 438.00 116.00" xmlns="http://www.w3.org/2000/svg" xmlns:xlink="http://www.w3.org/1999/xlink">
<g id="graph0" class="graph" transform="scale(1 1) rotate(0) translate(4 112)">
<title>mappel::poisson_log_likelihood</title>
<polygon fill="white" stroke="none" points="-4,4 -4,-112 434,-112 434,4 -4,4"/>
<!-- Node1 -->
<g id="node1" class="node"><title>Node1</title>
<polygon fill="#bfbfbf" stroke="black" points="0,-42.5 0,-70.5 102,-70.5 102,-42.5 0,-42.5"/>
<text text-anchor="start" x="8" y="-59.3" font-family="Helvetica,sans-Serif" font-size="9.00">mappel::poisson_log</text>
<text text-anchor="middle" x="51" y="-49.3" font-family="Helvetica,sans-Serif" font-size="9.00">_likelihood</text>
</g>
<!-- Node2 -->
<g id="node2" class="node"><title>Node2</title>
<g id="a_node2"><a xlink:href="namespacemappel_1_1methods_1_1likelihood.html#a447a9c4b4bdcd45bed3f2df281efc5a5" target="_top" xlink:title="mappel::methods::likelihood::llh">
<polygon fill="white" stroke="black" points="138,-89.5 138,-107.5 284,-107.5 284,-89.5 138,-89.5"/>
<text text-anchor="middle" x="211" y="-96.3" font-family="Helvetica,sans-Serif" font-size="9.00">mappel::methods::likelihood::llh</text>
</a>
</g>
</g>
<!-- Node1&#45;&gt;Node2 -->
<g id="edge1" class="edge"><title>Node1&#45;&gt;Node2</title>
<path fill="none" stroke="midnightblue" d="M111.151,-73.2349C120.136,-75.7107 129.306,-78.2006 138,-80.5 149.335,-83.498 161.71,-86.639 172.952,-89.4426"/>
<polygon fill="midnightblue" stroke="midnightblue" points="112.078,-69.86 101.507,-70.5636 110.21,-76.606 112.078,-69.86"/>
</g>
<!-- Node3 -->
<g id="node3" class="node"><title>Node3</title>
<g id="a_node3"><a xlink:href="namespacemappel_1_1methods_1_1likelihood_1_1debug.html#a3ebb5c59ce538767de0717dbb543547a" target="_top" xlink:title="mappel::methods::likelihood\l::debug::llh_components">
<polygon fill="white" stroke="black" points="145.5,-42.5 145.5,-70.5 276.5,-70.5 276.5,-42.5 145.5,-42.5"/>
<text text-anchor="start" x="153.5" y="-59.3" font-family="Helvetica,sans-Serif" font-size="9.00">mappel::methods::likelihood</text>
<text text-anchor="middle" x="211" y="-49.3" font-family="Helvetica,sans-Serif" font-size="9.00">::debug::llh_components</text>
</a>
</g>
</g>
<!-- Node1&#45;&gt;Node3 -->
<g id="edge2" class="edge"><title>Node1&#45;&gt;Node3</title>
<path fill="none" stroke="midnightblue" d="M112.538,-56.5C123.267,-56.5 134.478,-56.5 145.316,-56.5"/>
<polygon fill="midnightblue" stroke="midnightblue" points="112.427,-53.0001 102.427,-56.5 112.427,-60.0001 112.427,-53.0001"/>
</g>
<!-- Node4 -->
<g id="node4" class="node"><title>Node4</title>
<g id="a_node4"><a xlink:href="PoissonGaussianNoise2DObjective_8h.html#a8eb230d5181ae8cf5b5b9ed794d3b64c" target="_top" xlink:title="log_likelihood">
<polygon fill="white" stroke="black" points="174,-5.5 174,-23.5 248,-23.5 248,-5.5 174,-5.5"/>
<text text-anchor="middle" x="211" y="-12.3" font-family="Helvetica,sans-Serif" font-size="9.00">log_likelihood</text>
</a>
</g>
</g>
<!-- Node1&#45;&gt;Node4 -->
<g id="edge3" class="edge"><title>Node1&#45;&gt;Node4</title>
<path fill="none" stroke="midnightblue" d="M111.826,-40.4726C120.603,-38.1292 129.535,-35.7489 138,-33.5 150.245,-30.247 163.666,-26.7003 175.568,-23.5613"/>
<polygon fill="midnightblue" stroke="midnightblue" points="110.773,-37.1311 102.015,-43.0937 112.58,-43.8939 110.773,-37.1311"/>
</g>
<!-- Node5 -->
<g id="node5" class="node"><title>Node5</title>
<g id="a_node5"><a xlink:href="namespacemappel.html#ac37bf1175da6d4a80cd4cb147bfb68e2" target="_top" xlink:title="Parallel log_likelihood calculations for a single image. ">
<polygon fill="white" stroke="black" points="320,-0.5 320,-28.5 430,-28.5 430,-0.5 320,-0.5"/>
<text text-anchor="start" x="328" y="-17.3" font-family="Helvetica,sans-Serif" font-size="9.00">mappel::log_likelihood</text>
<text text-anchor="middle" x="375" y="-7.3" font-family="Helvetica,sans-Serif" font-size="9.00">_stack</text>
</a>
</g>
</g>
<!-- Node4&#45;&gt;Node5 -->
<g id="edge4" class="edge"><title>Node4&#45;&gt;Node5</title>
<path fill="none" stroke="midnightblue" d="M258.367,-14.5C277.571,-14.5 299.975,-14.5 319.921,-14.5"/>
<polygon fill="midnightblue" stroke="midnightblue" points="258.356,-11.0001 248.356,-14.5 258.356,-18.0001 258.356,-11.0001"/>
</g>
</g>
</svg>
