<?xml version="1.0" encoding="UTF-8" standalone="no"?>
<!DOCTYPE svg PUBLIC "-//W3C//DTD SVG 1.1//EN"
 "http://www.w3.org/Graphics/SVG/1.1/DTD/svg11.dtd">
<!-- Generated by graphviz version 2.38.0 (20140413.2041)
 -->
<!-- Title: mappel::methods::simulate_image Pages: 1 -->
<svg width="296pt" height="55pt"
 viewBox="0.00 0.00 296.00 55.00" xmlns="http://www.w3.org/2000/svg" xmlns:xlink="http://www.w3.org/1999/xlink">
<g id="graph0" class="graph" transform="scale(1 1) rotate(0) translate(4 51)">
<title>mappel::methods::simulate_image</title>
<polygon fill="white" stroke="none" points="-4,4 -4,-51 292,-51 292,4 -4,4"/>
<!-- Node1 -->
<g id="node1" class="node"><title>Node1</title>
<polygon fill="#bfbfbf" stroke="black" points="0,-0.5 0,-28.5 126,-28.5 126,-0.5 0,-0.5"/>
<text text-anchor="start" x="8" y="-17.3" font-family="Helvetica,sans-Serif" font-size="9.00">mappel::methods::simulate</text>
<text text-anchor="middle" x="63" y="-7.3" font-family="Helvetica,sans-Serif" font-size="9.00">_image</text>
</g>
<!-- Node2 -->
<g id="node2" class="node"><title>Node2</title>
<g id="a_node2"><a xlink:href="namespacemappel_1_1methods.html#a950d7858d6cc0ffb6e651776a24c9e35" target="_top" xlink:title="mappel::methods::simulate\l_image">
<polygon fill="white" stroke="black" points="162,-0.5 162,-28.5 288,-28.5 288,-0.5 162,-0.5"/>
<text text-anchor="start" x="170" y="-17.3" font-family="Helvetica,sans-Serif" font-size="9.00">mappel::methods::simulate</text>
<text text-anchor="middle" x="225" y="-7.3" font-family="Helvetica,sans-Serif" font-size="9.00">_image</text>
</a>
</g>
</g>
<!-- Node1&#45;&gt;Node2 -->
<g id="edge1" class="edge"><title>Node1&#45;&gt;Node2</title>
<path fill="none" stroke="midnightblue" d="M126.318,-14.5C134.615,-14.5 143.179,-14.5 151.628,-14.5"/>
<polygon fill="midnightblue" stroke="midnightblue" points="151.852,-18.0001 161.852,-14.5 151.852,-11.0001 151.852,-18.0001"/>
</g>
<!-- Node2&#45;&gt;Node2 -->
<g id="edge2" class="edge"><title>Node2&#45;&gt;Node2</title>
<path fill="none" stroke="midnightblue" d="M197.302,-28.5305C189.506,-37.8898 198.738,-47 225,-47 241.414,-47 251.175,-43.4413 254.285,-38.4873"/>
<polygon fill="midnightblue" stroke="midnightblue" points="257.728,-37.855 252.698,-28.5305 250.815,-38.9567 257.728,-37.855"/>
</g>
</g>
</svg>
