<?xml version="1.0" encoding="UTF-8" standalone="no"?>
<!DOCTYPE svg PUBLIC "-//W3C//DTD SVG 1.1//EN"
 "http://www.w3.org/Graphics/SVG/1.1/DTD/svg11.dtd">
<!-- Generated by graphviz version 2.38.0 (20140413.2041)
 -->
<!-- Title: mappel::methods::openmp::estimate_profile_likelihood Pages: 1 -->
<svg width="423pt" height="37pt"
 viewBox="0.00 0.00 423.00 37.00" xmlns="http://www.w3.org/2000/svg" xmlns:xlink="http://www.w3.org/1999/xlink">
<g id="graph0" class="graph" transform="scale(1 1) rotate(0) translate(4 33)">
<title>mappel::methods::openmp::estimate_profile_likelihood</title>
<polygon fill="white" stroke="none" points="-4,4 -4,-33 419,-33 419,4 -4,4"/>
<!-- Node1 -->
<g id="node1" class="node"><title>Node1</title>
<polygon fill="#bfbfbf" stroke="black" points="0,-0.5 0,-28.5 131,-28.5 131,-0.5 0,-0.5"/>
<text text-anchor="start" x="8" y="-17.3" font-family="Helvetica,sans-Serif" font-size="9.00">mappel::methods::openmp</text>
<text text-anchor="middle" x="65.5" y="-7.3" font-family="Helvetica,sans-Serif" font-size="9.00">::estimate_profile_likelihood</text>
</g>
<!-- Node2 -->
<g id="node2" class="node"><title>Node2</title>
<g id="a_node2"><a xlink:href="namespacemappel_1_1methods.html#a0f47a66f366b6e5841f1224e839ed828" target="_top" xlink:title="mappel::methods::make\l_estimator">
<polygon fill="white" stroke="black" points="167,-0.5 167,-28.5 281,-28.5 281,-0.5 167,-0.5"/>
<text text-anchor="start" x="175" y="-17.3" font-family="Helvetica,sans-Serif" font-size="9.00">mappel::methods::make</text>
<text text-anchor="middle" x="224" y="-7.3" font-family="Helvetica,sans-Serif" font-size="9.00">_estimator</text>
</a>
</g>
</g>
<!-- Node1&#45;&gt;Node2 -->
<g id="edge1" class="edge"><title>Node1&#45;&gt;Node2</title>
<path fill="none" stroke="midnightblue" d="M131.058,-14.5C139.438,-14.5 148.035,-14.5 156.447,-14.5"/>
<polygon fill="midnightblue" stroke="midnightblue" points="156.59,-18.0001 166.59,-14.5 156.59,-11.0001 156.59,-18.0001"/>
</g>
<!-- Node3 -->
<g id="node3" class="node"><title>Node3</title>
<g id="a_node3"><a xlink:href="namespacemappel.html#a610296a93ba507763bc770d39049f323" target="_top" xlink:title="mappel::istarts_with">
<polygon fill="white" stroke="black" points="317,-5.5 317,-23.5 415,-23.5 415,-5.5 317,-5.5"/>
<text text-anchor="middle" x="366" y="-12.3" font-family="Helvetica,sans-Serif" font-size="9.00">mappel::istarts_with</text>
</a>
</g>
</g>
<!-- Node2&#45;&gt;Node3 -->
<g id="edge2" class="edge"><title>Node2&#45;&gt;Node3</title>
<path fill="none" stroke="midnightblue" d="M281.137,-14.5C289.574,-14.5 298.29,-14.5 306.77,-14.5"/>
<polygon fill="midnightblue" stroke="midnightblue" points="306.961,-18.0001 316.961,-14.5 306.961,-11.0001 306.961,-18.0001"/>
</g>
</g>
</svg>
