<?xml version="1.0" encoding="UTF-8" standalone="no"?>
<!DOCTYPE svg PUBLIC "-//W3C//DTD SVG 1.1//EN"
 "http://www.w3.org/Graphics/SVG/1.1/DTD/svg11.dtd">
<!-- Generated by graphviz version 2.38.0 (20140413.2041)
 -->
<!-- Title: mappel::make_DXSX_stencil Pages: 1 -->
<svg width="474pt" height="84pt"
 viewBox="0.00 0.00 474.00 84.00" xmlns="http://www.w3.org/2000/svg" xmlns:xlink="http://www.w3.org/1999/xlink">
<g id="graph0" class="graph" transform="scale(1 1) rotate(0) translate(4 80)">
<title>mappel::make_DXSX_stencil</title>
<polygon fill="white" stroke="none" points="-4,4 -4,-80 470,-80 470,4 -4,4"/>
<!-- Node1 -->
<g id="node1" class="node"><title>Node1</title>
<polygon fill="#bfbfbf" stroke="black" points="0,-28.5 0,-46.5 136,-46.5 136,-28.5 0,-28.5"/>
<text text-anchor="middle" x="68" y="-35.3" font-family="Helvetica,sans-Serif" font-size="9.00">mappel::make_DXSX_stencil</text>
</g>
<!-- Node2 -->
<g id="node2" class="node"><title>Node2</title>
<g id="a_node2"><a xlink:href="classmappel_1_1Gauss1DsModel_1_1Stencil.html#a9e8b6059b84e28bea0ba3496bc95e7ce" target="_top" xlink:title="mappel::Gauss1DsModel\l::Stencil::compute_derivatives">
<polygon fill="white" stroke="black" points="172,-47.5 172,-75.5 310,-75.5 310,-47.5 172,-47.5"/>
<text text-anchor="start" x="180" y="-64.3" font-family="Helvetica,sans-Serif" font-size="9.00">mappel::Gauss1DsModel</text>
<text text-anchor="middle" x="241" y="-54.3" font-family="Helvetica,sans-Serif" font-size="9.00">::Stencil::compute_derivatives</text>
</a>
</g>
</g>
<!-- Node1&#45;&gt;Node2 -->
<g id="edge1" class="edge"><title>Node1&#45;&gt;Node2</title>
<path fill="none" stroke="midnightblue" d="M143.322,-47.9312C152.775,-49.2578 162.412,-50.6105 171.763,-51.9228"/>
<polygon fill="midnightblue" stroke="midnightblue" points="143.55,-44.4289 133.161,-46.505 142.577,-51.361 143.55,-44.4289"/>
</g>
<!-- Node4 -->
<g id="node4" class="node"><title>Node4</title>
<g id="a_node4"><a xlink:href="classmappel_1_1Gauss2DsModel_1_1Stencil.html#ab11c806f8335bbafeb3db7476526680d" target="_top" xlink:title="mappel::Gauss2DsModel\l::Stencil::compute_derivatives">
<polygon fill="white" stroke="black" points="172,-0.5 172,-28.5 310,-28.5 310,-0.5 172,-0.5"/>
<text text-anchor="start" x="180" y="-17.3" font-family="Helvetica,sans-Serif" font-size="9.00">mappel::Gauss2DsModel</text>
<text text-anchor="middle" x="241" y="-7.3" font-family="Helvetica,sans-Serif" font-size="9.00">::Stencil::compute_derivatives</text>
</a>
</g>
</g>
<!-- Node1&#45;&gt;Node4 -->
<g id="edge3" class="edge"><title>Node1&#45;&gt;Node4</title>
<path fill="none" stroke="midnightblue" d="M146.135,-27.1251C154.753,-25.966 163.485,-24.7915 171.977,-23.6493"/>
<polygon fill="midnightblue" stroke="midnightblue" points="145.537,-23.6739 136.093,-28.4758 146.47,-30.6115 145.537,-23.6739"/>
</g>
<!-- Node3 -->
<g id="node3" class="node"><title>Node3</title>
<g id="a_node3"><a xlink:href="classmappel_1_1Gauss1DsModel_1_1Stencil.html#ae4f12261a80d8ed1a2d3652c0e7b629b" target="_top" xlink:title="mappel::Gauss1DsModel\l::Stencil::Stencil">
<polygon fill="white" stroke="black" points="346,-47.5 346,-75.5 466,-75.5 466,-47.5 346,-47.5"/>
<text text-anchor="start" x="354" y="-64.3" font-family="Helvetica,sans-Serif" font-size="9.00">mappel::Gauss1DsModel</text>
<text text-anchor="middle" x="406" y="-54.3" font-family="Helvetica,sans-Serif" font-size="9.00">::Stencil::Stencil</text>
</a>
</g>
</g>
<!-- Node2&#45;&gt;Node3 -->
<g id="edge2" class="edge"><title>Node2&#45;&gt;Node3</title>
<path fill="none" stroke="midnightblue" d="M320.262,-61.5C328.886,-61.5 337.56,-61.5 345.894,-61.5"/>
<polygon fill="midnightblue" stroke="midnightblue" points="320.182,-58.0001 310.182,-61.5 320.182,-65.0001 320.182,-58.0001"/>
</g>
<!-- Node5 -->
<g id="node5" class="node"><title>Node5</title>
<g id="a_node5"><a xlink:href="classmappel_1_1Gauss2DsModel_1_1Stencil.html#a924f5f8d4524831f1ef50041b85a842f" target="_top" xlink:title="mappel::Gauss2DsModel\l::Stencil::Stencil">
<polygon fill="white" stroke="black" points="346,-0.5 346,-28.5 466,-28.5 466,-0.5 346,-0.5"/>
<text text-anchor="start" x="354" y="-17.3" font-family="Helvetica,sans-Serif" font-size="9.00">mappel::Gauss2DsModel</text>
<text text-anchor="middle" x="406" y="-7.3" font-family="Helvetica,sans-Serif" font-size="9.00">::Stencil::Stencil</text>
</a>
</g>
</g>
<!-- Node4&#45;&gt;Node5 -->
<g id="edge4" class="edge"><title>Node4&#45;&gt;Node5</title>
<path fill="none" stroke="midnightblue" d="M320.262,-14.5C328.886,-14.5 337.56,-14.5 345.894,-14.5"/>
<polygon fill="midnightblue" stroke="midnightblue" points="320.182,-11.0001 310.182,-14.5 320.182,-18.0001 320.182,-11.0001"/>
</g>
</g>
</svg>
