<?xml version="1.0" encoding="UTF-8" standalone="no"?>
<!DOCTYPE svg PUBLIC "-//W3C//DTD SVG 1.1//EN"
 "http://www.w3.org/Graphics/SVG/1.1/DTD/svg11.dtd">
<!-- Generated by graphviz version 2.38.0 (20140413.2041)
 -->
<!-- Title: mappel::methods::error_bounds_observed Pages: 1 -->
<svg width="274pt" height="37pt"
 viewBox="0.00 0.00 274.00 37.00" xmlns="http://www.w3.org/2000/svg" xmlns:xlink="http://www.w3.org/1999/xlink">
<g id="graph0" class="graph" transform="scale(1 1) rotate(0) translate(4 33)">
<title>mappel::methods::error_bounds_observed</title>
<polygon fill="white" stroke="none" points="-4,4 -4,-33 270,-33 270,4 -4,4"/>
<!-- Node1 -->
<g id="node1" class="node"><title>Node1</title>
<polygon fill="#bfbfbf" stroke="black" points="0,-0.5 0,-28.5 111,-28.5 111,-0.5 0,-0.5"/>
<text text-anchor="start" x="8" y="-17.3" font-family="Helvetica,sans-Serif" font-size="9.00">mappel::methods::error</text>
<text text-anchor="middle" x="55.5" y="-7.3" font-family="Helvetica,sans-Serif" font-size="9.00">_bounds_observed</text>
</g>
<!-- Node2 -->
<g id="node2" class="node"><title>Node2</title>
<g id="a_node2"><a xlink:href="namespacemappel.html#a69b8109164dc63d76f99ad0d9c149148" target="_top" xlink:title="mappel::normal_quantile\l_twosided">
<polygon fill="white" stroke="black" points="147,-0.5 147,-28.5 266,-28.5 266,-0.5 147,-0.5"/>
<text text-anchor="start" x="155" y="-17.3" font-family="Helvetica,sans-Serif" font-size="9.00">mappel::normal_quantile</text>
<text text-anchor="middle" x="206.5" y="-7.3" font-family="Helvetica,sans-Serif" font-size="9.00">_twosided</text>
</a>
</g>
</g>
<!-- Node1&#45;&gt;Node2 -->
<g id="edge1" class="edge"><title>Node1&#45;&gt;Node2</title>
<path fill="none" stroke="midnightblue" d="M111.136,-14.5C119.494,-14.5 128.211,-14.5 136.824,-14.5"/>
<polygon fill="midnightblue" stroke="midnightblue" points="136.859,-18.0001 146.859,-14.5 136.859,-11.0001 136.859,-18.0001"/>
</g>
</g>
</svg>
