<?xml version="1.0" encoding="UTF-8" standalone="no"?>
<!DOCTYPE svg PUBLIC "-//W3C//DTD SVG 1.1//EN"
 "http://www.w3.org/Graphics/SVG/1.1/DTD/svg11.dtd">
<!-- Generated by graphviz version 2.38.0 (20140413.2041)
 -->
<!-- Title: mappel::beta_prior_grad2 Pages: 1 -->
<svg width="456pt" height="84pt"
 viewBox="0.00 0.00 456.00 84.00" xmlns="http://www.w3.org/2000/svg" xmlns:xlink="http://www.w3.org/1999/xlink">
<g id="graph0" class="graph" transform="scale(1 1) rotate(0) translate(4 80)">
<title>mappel::beta_prior_grad2</title>
<polygon fill="white" stroke="none" points="-4,4 -4,-80 452,-80 452,4 -4,4"/>
<!-- Node1 -->
<g id="node1" class="node"><title>Node1</title>
<polygon fill="#bfbfbf" stroke="black" points="0,-23.5 0,-51.5 94,-51.5 94,-23.5 0,-23.5"/>
<text text-anchor="start" x="8" y="-40.3" font-family="Helvetica,sans-Serif" font-size="9.00">mappel::beta_prior</text>
<text text-anchor="middle" x="47" y="-30.3" font-family="Helvetica,sans-Serif" font-size="9.00">_grad2</text>
</g>
<!-- Node2 -->
<g id="node2" class="node"><title>Node2</title>
<g id="a_node2"><a xlink:href="classmappel_1_1PriorMAP1DObjective.html#af21177beb6afa9a865289f4d49362d55" target="_top" xlink:title="mappel::PriorMAP1DObjective\l::prior_grad2_update">
<polygon fill="white" stroke="black" points="130,-47.5 130,-75.5 271,-75.5 271,-47.5 130,-47.5"/>
<text text-anchor="start" x="138" y="-64.3" font-family="Helvetica,sans-Serif" font-size="9.00">mappel::PriorMAP1DObjective</text>
<text text-anchor="middle" x="200.5" y="-54.3" font-family="Helvetica,sans-Serif" font-size="9.00">::prior_grad2_update</text>
</a>
</g>
</g>
<!-- Node1&#45;&gt;Node2 -->
<g id="edge1" class="edge"><title>Node1&#45;&gt;Node2</title>
<path fill="none" stroke="midnightblue" d="M104.239,-46.4092C112.568,-47.7285 121.233,-49.1013 129.795,-50.4577"/>
<polygon fill="midnightblue" stroke="midnightblue" points="104.703,-42.939 94.2782,-44.8312 103.607,-49.8528 104.703,-42.939"/>
</g>
<!-- Node4 -->
<g id="node4" class="node"><title>Node4</title>
<g id="a_node4"><a xlink:href="classmappel_1_1PriorMAP1DObjective.html#af7dd7f0d9c0ccb34b988e63bd356dcfb" target="_top" xlink:title="mappel::PriorMAP1DObjective\l::prior_hess_update">
<polygon fill="white" stroke="black" points="130,-0.5 130,-28.5 271,-28.5 271,-0.5 130,-0.5"/>
<text text-anchor="start" x="138" y="-17.3" font-family="Helvetica,sans-Serif" font-size="9.00">mappel::PriorMAP1DObjective</text>
<text text-anchor="middle" x="200.5" y="-7.3" font-family="Helvetica,sans-Serif" font-size="9.00">::prior_hess_update</text>
</a>
</g>
</g>
<!-- Node1&#45;&gt;Node4 -->
<g id="edge3" class="edge"><title>Node1&#45;&gt;Node4</title>
<path fill="none" stroke="midnightblue" d="M104.239,-28.962C112.568,-27.6977 121.233,-26.3821 129.795,-25.0823"/>
<polygon fill="midnightblue" stroke="midnightblue" points="103.64,-25.5129 94.2782,-30.4743 104.69,-32.4336 103.64,-25.5129"/>
</g>
<!-- Node3 -->
<g id="node3" class="node"><title>Node3</title>
<g id="a_node3"><a xlink:href="classmappel_1_1PriorMAP1DObjective.html#ac5b20bb93fe2f2eddd75d19bf34283c7" target="_top" xlink:title="mappel::PriorMAP1DObjective\l::set_hyperparameters">
<polygon fill="white" stroke="black" points="307,-23.5 307,-51.5 448,-51.5 448,-23.5 307,-23.5"/>
<text text-anchor="start" x="315" y="-40.3" font-family="Helvetica,sans-Serif" font-size="9.00">mappel::PriorMAP1DObjective</text>
<text text-anchor="middle" x="377.5" y="-30.3" font-family="Helvetica,sans-Serif" font-size="9.00">::set_hyperparameters</text>
</a>
</g>
</g>
<!-- Node2&#45;&gt;Node3 -->
<g id="edge2" class="edge"><title>Node2&#45;&gt;Node3</title>
<path fill="none" stroke="midnightblue" d="M281.146,-50.5772C289.702,-49.4038 298.359,-48.2165 306.786,-47.0607"/>
<polygon fill="midnightblue" stroke="midnightblue" points="280.599,-47.1193 271.167,-51.9456 281.55,-54.0544 280.599,-47.1193"/>
</g>
<!-- Node4&#45;&gt;Node3 -->
<g id="edge4" class="edge"><title>Node4&#45;&gt;Node3</title>
<path fill="none" stroke="midnightblue" d="M281.146,-24.9677C289.702,-26.0922 298.359,-27.23 306.786,-28.3376"/>
<polygon fill="midnightblue" stroke="midnightblue" points="281.538,-21.4893 271.167,-23.6563 280.626,-28.4296 281.538,-21.4893"/>
</g>
</g>
</svg>
