<?xml version="1.0" encoding="UTF-8" standalone="no"?>
<!DOCTYPE svg PUBLIC "-//W3C//DTD SVG 1.1//EN"
 "http://www.w3.org/Graphics/SVG/1.1/DTD/svg11.dtd">
<!-- Generated by graphviz version 2.38.0 (20140413.2041)
 -->
<!-- Title: mappel::generate_poisson Pages: 1 -->
<svg width="296pt" height="84pt"
 viewBox="0.00 0.00 296.00 84.00" xmlns="http://www.w3.org/2000/svg" xmlns:xlink="http://www.w3.org/1999/xlink">
<g id="graph0" class="graph" transform="scale(1 1) rotate(0) translate(4 80)">
<title>mappel::generate_poisson</title>
<polygon fill="white" stroke="none" points="-4,4 -4,-80 292,-80 292,4 -4,4"/>
<!-- Node1 -->
<g id="node1" class="node"><title>Node1</title>
<polygon fill="#bfbfbf" stroke="black" points="0,-28.5 0,-46.5 126,-46.5 126,-28.5 0,-28.5"/>
<text text-anchor="middle" x="63" y="-35.3" font-family="Helvetica,sans-Serif" font-size="9.00">mappel::generate_poisson</text>
</g>
<!-- Node2 -->
<g id="node2" class="node"><title>Node2</title>
<g id="a_node2"><a xlink:href="namespacemappel.html#ae776a0d92c466702788b7405a4a166e0" target="_top" xlink:title="mappel::generate_poisson\l_large">
<polygon fill="white" stroke="black" points="162,-47.5 162,-75.5 288,-75.5 288,-47.5 162,-47.5"/>
<text text-anchor="start" x="170" y="-64.3" font-family="Helvetica,sans-Serif" font-size="9.00">mappel::generate_poisson</text>
<text text-anchor="middle" x="225" y="-54.3" font-family="Helvetica,sans-Serif" font-size="9.00">_large</text>
</a>
</g>
</g>
<!-- Node1&#45;&gt;Node2 -->
<g id="edge1" class="edge"><title>Node1&#45;&gt;Node2</title>
<path fill="none" stroke="midnightblue" d="M124.033,-46.505C133.085,-47.8627 142.501,-49.2751 151.776,-50.6664"/>
<polygon fill="midnightblue" stroke="midnightblue" points="151.353,-54.142 161.761,-52.1642 152.391,-47.2194 151.353,-54.142"/>
</g>
<!-- Node3 -->
<g id="node3" class="node"><title>Node3</title>
<g id="a_node3"><a xlink:href="namespacemappel.html#af5deeb186fbcfbd0f449064cc70e8a86" target="_top" xlink:title="Genrates a single poisson disributed int from distribution with mean mu. ">
<polygon fill="white" stroke="black" points="162,-0.5 162,-28.5 288,-28.5 288,-0.5 162,-0.5"/>
<text text-anchor="start" x="170" y="-17.3" font-family="Helvetica,sans-Serif" font-size="9.00">mappel::generate_poisson</text>
<text text-anchor="middle" x="225" y="-7.3" font-family="Helvetica,sans-Serif" font-size="9.00">_small</text>
</a>
</g>
</g>
<!-- Node1&#45;&gt;Node3 -->
<g id="edge2" class="edge"><title>Node1&#45;&gt;Node3</title>
<path fill="none" stroke="midnightblue" d="M126.318,-28.5417C134.706,-27.336 143.367,-26.091 151.907,-24.8634"/>
<polygon fill="midnightblue" stroke="midnightblue" points="152.452,-28.3212 161.852,-23.4338 151.455,-21.3924 152.452,-28.3212"/>
</g>
</g>
</svg>
