<?xml version="1.0" encoding="UTF-8" standalone="no"?>
<!DOCTYPE svg PUBLIC "-//W3C//DTD SVG 1.1//EN"
 "http://www.w3.org/Graphics/SVG/1.1/DTD/svg11.dtd">
<!-- Generated by graphviz version 2.38.0 (20140413.2041)
 -->
<!-- Title: mappel::model_hessian_stack Pages: 1 -->
<svg width="287pt" height="74pt"
 viewBox="0.00 0.00 287.00 74.00" xmlns="http://www.w3.org/2000/svg" xmlns:xlink="http://www.w3.org/1999/xlink">
<g id="graph0" class="graph" transform="scale(1 1) rotate(0) translate(4 70)">
<title>mappel::model_hessian_stack</title>
<polygon fill="white" stroke="none" points="-4,4 -4,-70 283,-70 283,4 -4,4"/>
<!-- Node1 -->
<g id="node1" class="node"><title>Node1</title>
<polygon fill="#bfbfbf" stroke="black" points="0,-16.5 0,-44.5 115,-44.5 115,-16.5 0,-16.5"/>
<text text-anchor="start" x="8" y="-33.3" font-family="Helvetica,sans-Serif" font-size="9.00">mappel::model_hessian</text>
<text text-anchor="middle" x="57.5" y="-23.3" font-family="Helvetica,sans-Serif" font-size="9.00">_stack</text>
</g>
<!-- Node2 -->
<g id="node2" class="node"><title>Node2</title>
<g id="a_node2"><a xlink:href="namespacemappel_1_1methods_1_1objective.html#a8e120e5a79029803453cea5f9f2d8f67" target="_top" xlink:title="mappel::methods::objective\l::grad">
<polygon fill="white" stroke="black" points="151,-37.5 151,-65.5 279,-65.5 279,-37.5 151,-37.5"/>
<text text-anchor="start" x="159" y="-54.3" font-family="Helvetica,sans-Serif" font-size="9.00">mappel::methods::objective</text>
<text text-anchor="middle" x="215" y="-44.3" font-family="Helvetica,sans-Serif" font-size="9.00">::grad</text>
</a>
</g>
</g>
<!-- Node1&#45;&gt;Node2 -->
<g id="edge1" class="edge"><title>Node1&#45;&gt;Node2</title>
<path fill="none" stroke="midnightblue" d="M115.079,-38.1409C123.443,-39.2704 132.16,-40.4477 140.802,-41.6148"/>
<polygon fill="midnightblue" stroke="midnightblue" points="140.509,-45.1068 150.887,-42.9767 141.445,-38.1698 140.509,-45.1068"/>
</g>
<!-- Node3 -->
<g id="node3" class="node"><title>Node3</title>
<g id="a_node3"><a xlink:href="PoissonGaussianNoise2DObjective_8h.html#a6bc9a84f7098ab89db58be02c0780a63" target="_top" xlink:title="model_hessian">
<polygon fill="white" stroke="black" points="175,-0.5 175,-18.5 255,-18.5 255,-0.5 175,-0.5"/>
<text text-anchor="middle" x="215" y="-7.3" font-family="Helvetica,sans-Serif" font-size="9.00">model_hessian</text>
</a>
</g>
</g>
<!-- Node1&#45;&gt;Node3 -->
<g id="edge2" class="edge"><title>Node1&#45;&gt;Node3</title>
<path fill="none" stroke="midnightblue" d="M115.079,-22.8591C131.32,-20.6657 148.896,-18.2922 164.664,-16.1627"/>
<polygon fill="midnightblue" stroke="midnightblue" points="165.291,-19.6099 174.733,-14.803 164.354,-12.6729 165.291,-19.6099"/>
</g>
</g>
</svg>
