<?xml version="1.0" encoding="UTF-8" standalone="no"?>
<!DOCTYPE svg PUBLIC "-//W3C//DTD SVG 1.1//EN"
 "http://www.w3.org/Graphics/SVG/1.1/DTD/svg11.dtd">
<!-- Generated by graphviz version 2.38.0 (20140413.2041)
 -->
<!-- Title: mappel::methods::aposteriori_objective Pages: 1 -->
<svg width="465pt" height="84pt"
 viewBox="0.00 0.00 465.00 84.00" xmlns="http://www.w3.org/2000/svg" xmlns:xlink="http://www.w3.org/1999/xlink">
<g id="graph0" class="graph" transform="scale(1 1) rotate(0) translate(4 80)">
<title>mappel::methods::aposteriori_objective</title>
<polygon fill="white" stroke="none" points="-4,4 -4,-80 461,-80 461,4 -4,4"/>
<!-- Node1 -->
<g id="node1" class="node"><title>Node1</title>
<polygon fill="#bfbfbf" stroke="black" points="0,-23.5 0,-51.5 135,-51.5 135,-23.5 0,-23.5"/>
<text text-anchor="start" x="8" y="-40.3" font-family="Helvetica,sans-Serif" font-size="9.00">mappel::methods::aposteriori</text>
<text text-anchor="middle" x="67.5" y="-30.3" font-family="Helvetica,sans-Serif" font-size="9.00">_objective</text>
</g>
<!-- Node2 -->
<g id="node2" class="node"><title>Node2</title>
<g id="a_node2"><a xlink:href="namespacemappel_1_1methods_1_1likelihood.html#a0233341d03d8f8d06cb852068942ba73" target="_top" xlink:title="mappel::methods::likelihood\l::hessian">
<polygon fill="white" stroke="black" points="171,-47.5 171,-75.5 302,-75.5 302,-47.5 171,-47.5"/>
<text text-anchor="start" x="179" y="-64.3" font-family="Helvetica,sans-Serif" font-size="9.00">mappel::methods::likelihood</text>
<text text-anchor="middle" x="236.5" y="-54.3" font-family="Helvetica,sans-Serif" font-size="9.00">::hessian</text>
</a>
</g>
</g>
<!-- Node1&#45;&gt;Node2 -->
<g id="edge1" class="edge"><title>Node1&#45;&gt;Node2</title>
<path fill="none" stroke="midnightblue" d="M135.463,-47.1234C143.877,-48.3326 152.524,-49.5753 161.044,-50.7997"/>
<polygon fill="midnightblue" stroke="midnightblue" points="160.569,-54.2673 170.965,-52.2255 161.565,-47.3385 160.569,-54.2673"/>
</g>
<!-- Node3 -->
<g id="node3" class="node"><title>Node3</title>
<g id="a_node3"><a xlink:href="namespacemappel_1_1methods_1_1likelihood.html#ae064b0a1e26a5626c62bde870e587ecb" target="_top" xlink:title="mappel::methods::likelihood\l::rllh">
<polygon fill="white" stroke="black" points="171,-0.5 171,-28.5 302,-28.5 302,-0.5 171,-0.5"/>
<text text-anchor="start" x="179" y="-17.3" font-family="Helvetica,sans-Serif" font-size="9.00">mappel::methods::likelihood</text>
<text text-anchor="middle" x="236.5" y="-7.3" font-family="Helvetica,sans-Serif" font-size="9.00">::rllh</text>
</a>
</g>
</g>
<!-- Node1&#45;&gt;Node3 -->
<g id="edge2" class="edge"><title>Node1&#45;&gt;Node3</title>
<path fill="none" stroke="midnightblue" d="M135.463,-28.2775C143.877,-27.1188 152.524,-25.9279 161.044,-24.7545"/>
<polygon fill="midnightblue" stroke="midnightblue" points="161.536,-28.2198 170.965,-23.388 160.581,-21.2852 161.536,-28.2198"/>
</g>
<!-- Node4 -->
<g id="node4" class="node"><title>Node4</title>
<g id="a_node4"><a xlink:href="namespacemappel.html#a6e36ec38eee9f05906f51d4db8767b9e" target="_top" xlink:title="mappel::relative_poisson\l_log_likelihood">
<polygon fill="white" stroke="black" points="338,-0.5 338,-28.5 457,-28.5 457,-0.5 338,-0.5"/>
<text text-anchor="start" x="346" y="-17.3" font-family="Helvetica,sans-Serif" font-size="9.00">mappel::relative_poisson</text>
<text text-anchor="middle" x="397.5" y="-7.3" font-family="Helvetica,sans-Serif" font-size="9.00">_log_likelihood</text>
</a>
</g>
</g>
<!-- Node3&#45;&gt;Node4 -->
<g id="edge3" class="edge"><title>Node3&#45;&gt;Node4</title>
<path fill="none" stroke="midnightblue" d="M302.171,-14.5C310.545,-14.5 319.147,-14.5 327.586,-14.5"/>
<polygon fill="midnightblue" stroke="midnightblue" points="327.774,-18.0001 337.774,-14.5 327.774,-11.0001 327.774,-18.0001"/>
</g>
</g>
</svg>
