<?xml version="1.0" encoding="UTF-8" standalone="no"?>
<!DOCTYPE svg PUBLIC "-//W3C//DTD SVG 1.1//EN"
 "http://www.w3.org/Graphics/SVG/1.1/DTD/svg11.dtd">
<!-- Generated by graphviz version 2.38.0 (20140413.2041)
 -->
<!-- Title: mappel::methods::openmp::cr_lower_bound_stack Pages: 1 -->
<svg width="315pt" height="37pt"
 viewBox="0.00 0.00 315.00 37.00" xmlns="http://www.w3.org/2000/svg" xmlns:xlink="http://www.w3.org/1999/xlink">
<g id="graph0" class="graph" transform="scale(1 1) rotate(0) translate(4 33)">
<title>mappel::methods::openmp::cr_lower_bound_stack</title>
<polygon fill="white" stroke="none" points="-4,4 -4,-33 311,-33 311,4 -4,4"/>
<!-- Node1 -->
<g id="node1" class="node"><title>Node1</title>
<polygon fill="#bfbfbf" stroke="black" points="0,-0.5 0,-28.5 125,-28.5 125,-0.5 0,-0.5"/>
<text text-anchor="start" x="8" y="-17.3" font-family="Helvetica,sans-Serif" font-size="9.00">mappel::methods::openmp</text>
<text text-anchor="middle" x="62.5" y="-7.3" font-family="Helvetica,sans-Serif" font-size="9.00">::cr_lower_bound_stack</text>
</g>
<!-- Node2 -->
<g id="node2" class="node"><title>Node2</title>
<g id="a_node2"><a xlink:href="namespacemappel_1_1methods_1_1openmp.html#ac9aac4b2df768e850bee73aa5c7f2686" target="_top" xlink:title="mappel::methods::openmp\l::error_bounds_expected_stack">
<polygon fill="white" stroke="black" points="161,-0.5 161,-28.5 307,-28.5 307,-0.5 161,-0.5"/>
<text text-anchor="start" x="169" y="-17.3" font-family="Helvetica,sans-Serif" font-size="9.00">mappel::methods::openmp</text>
<text text-anchor="middle" x="234" y="-7.3" font-family="Helvetica,sans-Serif" font-size="9.00">::error_bounds_expected_stack</text>
</a>
</g>
</g>
<!-- Node1&#45;&gt;Node2 -->
<g id="edge1" class="edge"><title>Node1&#45;&gt;Node2</title>
<path fill="none" stroke="midnightblue" d="M135.319,-14.5C143.727,-14.5 152.309,-14.5 160.723,-14.5"/>
<polygon fill="midnightblue" stroke="midnightblue" points="135.173,-11.0001 125.173,-14.5 135.173,-18.0001 135.173,-11.0001"/>
</g>
</g>
</svg>
