<?xml version="1.0" encoding="UTF-8" standalone="no"?>
<!DOCTYPE svg PUBLIC "-//W3C//DTD SVG 1.1//EN"
 "http://www.w3.org/Graphics/SVG/1.1/DTD/svg11.dtd">
<!-- Generated by graphviz version 2.38.0 (20140413.2041)
 -->
<!-- Title: mappel::methods::objective::hessian Pages: 1 -->
<svg width="321pt" height="319pt"
 viewBox="0.00 0.00 321.00 319.00" xmlns="http://www.w3.org/2000/svg" xmlns:xlink="http://www.w3.org/1999/xlink">
<g id="graph0" class="graph" transform="scale(1 1) rotate(0) translate(4 315)">
<title>mappel::methods::objective::hessian</title>
<polygon fill="white" stroke="none" points="-4,4 -4,-315 317,-315 317,4 -4,4"/>
<!-- Node1 -->
<g id="node1" class="node"><title>Node1</title>
<polygon fill="#bfbfbf" stroke="black" points="0,-141.5 0,-169.5 128,-169.5 128,-141.5 0,-141.5"/>
<text text-anchor="start" x="8" y="-158.3" font-family="Helvetica,sans-Serif" font-size="9.00">mappel::methods::objective</text>
<text text-anchor="middle" x="64" y="-148.3" font-family="Helvetica,sans-Serif" font-size="9.00">::hessian</text>
</g>
<!-- Node2 -->
<g id="node2" class="node"><title>Node2</title>
<g id="a_node2"><a xlink:href="namespacemappel_1_1methods_1_1objective.html#aff0530b529e752a4c9039a8aef0eac20" target="_top" xlink:title="mappel::methods::objective\l::hessian">
<polygon fill="white" stroke="black" points="174.5,-282.5 174.5,-310.5 302.5,-310.5 302.5,-282.5 174.5,-282.5"/>
<text text-anchor="start" x="182.5" y="-299.3" font-family="Helvetica,sans-Serif" font-size="9.00">mappel::methods::objective</text>
<text text-anchor="middle" x="238.5" y="-289.3" font-family="Helvetica,sans-Serif" font-size="9.00">::hessian</text>
</a>
</g>
</g>
<!-- Node1&#45;&gt;Node2 -->
<g id="edge1" class="edge"><title>Node1&#45;&gt;Node2</title>
<path fill="none" stroke="midnightblue" d="M78.4818,-178.405C95.2728,-205.002 126.383,-248.422 164,-273.5 169.118,-276.912 174.769,-279.84 180.597,-282.348"/>
<polygon fill="midnightblue" stroke="midnightblue" points="81.3784,-176.434 73.1526,-169.756 75.4189,-180.106 81.3784,-176.434"/>
</g>
<!-- Node3 -->
<g id="node3" class="node"><title>Node3</title>
<g id="a_node3"><a xlink:href="namespacemappel_1_1methods_1_1objective_1_1openmp.html#a134e673cbfdb9ac4e2d9ebec23ca2841" target="_top" xlink:title="Parallel model Hessian calculations for a stack of images. ">
<polygon fill="white" stroke="black" points="174.5,-235.5 174.5,-263.5 302.5,-263.5 302.5,-235.5 174.5,-235.5"/>
<text text-anchor="start" x="182.5" y="-252.3" font-family="Helvetica,sans-Serif" font-size="9.00">mappel::methods::objective</text>
<text text-anchor="middle" x="238.5" y="-242.3" font-family="Helvetica,sans-Serif" font-size="9.00">::openmp::hessian_stack</text>
</a>
</g>
</g>
<!-- Node1&#45;&gt;Node3 -->
<g id="edge2" class="edge"><title>Node1&#45;&gt;Node3</title>
<path fill="none" stroke="midnightblue" d="M89.0306,-176.096C108.257,-191.714 136.467,-212.766 164,-226.5 170.7,-229.842 177.986,-232.823 185.281,-235.44"/>
<polygon fill="midnightblue" stroke="midnightblue" points="91.0558,-173.229 81.1164,-169.56 86.5987,-178.627 91.0558,-173.229"/>
</g>
<!-- Node4 -->
<g id="node4" class="node"><title>Node4</title>
<g id="a_node4"><a xlink:href="classmappel_1_1NewtonMaximizer.html#aca7e3071f17ef6f381878eb6151c86d7" target="_top" xlink:title="mappel::NewtonMaximizer\l::maximize">
<polygon fill="white" stroke="black" points="176,-188.5 176,-216.5 301,-216.5 301,-188.5 176,-188.5"/>
<text text-anchor="start" x="184" y="-205.3" font-family="Helvetica,sans-Serif" font-size="9.00">mappel::NewtonMaximizer</text>
<text text-anchor="middle" x="238.5" y="-195.3" font-family="Helvetica,sans-Serif" font-size="9.00">::maximize</text>
</a>
</g>
</g>
<!-- Node1&#45;&gt;Node4 -->
<g id="edge3" class="edge"><title>Node1&#45;&gt;Node4</title>
<path fill="none" stroke="midnightblue" d="M126.467,-172.248C145.982,-177.565 167.347,-183.386 186.078,-188.489"/>
<polygon fill="midnightblue" stroke="midnightblue" points="127.324,-168.854 116.756,-169.602 125.484,-175.607 127.324,-168.854"/>
</g>
<!-- Node5 -->
<g id="node5" class="node"><title>Node5</title>
<g id="a_node5"><a xlink:href="classmappel_1_1QuasiNewtonMaximizer.html#ab4d32d8ba90d4355262a228753619b9f" target="_top" xlink:title="mappel::QuasiNewtonMaximizer\l::maximize">
<polygon fill="white" stroke="black" points="164,-141.5 164,-169.5 313,-169.5 313,-141.5 164,-141.5"/>
<text text-anchor="start" x="172" y="-158.3" font-family="Helvetica,sans-Serif" font-size="9.00">mappel::QuasiNewtonMaximizer</text>
<text text-anchor="middle" x="238.5" y="-148.3" font-family="Helvetica,sans-Serif" font-size="9.00">::maximize</text>
</a>
</g>
</g>
<!-- Node1&#45;&gt;Node5 -->
<g id="edge4" class="edge"><title>Node1&#45;&gt;Node5</title>
<path fill="none" stroke="midnightblue" d="M138.386,-155.5C146.778,-155.5 155.337,-155.5 163.735,-155.5"/>
<polygon fill="midnightblue" stroke="midnightblue" points="138.253,-152 128.253,-155.5 138.253,-159 138.253,-152"/>
</g>
<!-- Node6 -->
<g id="node6" class="node"><title>Node6</title>
<g id="a_node6"><a xlink:href="classmappel_1_1TrustRegionMaximizer.html#ae4f4499f81a4d3213e7ea863243e926c" target="_top" xlink:title="mappel::TrustRegionMaximizer\l::maximize">
<polygon fill="white" stroke="black" points="166.5,-94.5 166.5,-122.5 310.5,-122.5 310.5,-94.5 166.5,-94.5"/>
<text text-anchor="start" x="174.5" y="-111.3" font-family="Helvetica,sans-Serif" font-size="9.00">mappel::TrustRegionMaximizer</text>
<text text-anchor="middle" x="238.5" y="-101.3" font-family="Helvetica,sans-Serif" font-size="9.00">::maximize</text>
</a>
</g>
</g>
<!-- Node1&#45;&gt;Node6 -->
<g id="edge5" class="edge"><title>Node1&#45;&gt;Node6</title>
<path fill="none" stroke="midnightblue" d="M126.467,-138.752C145.982,-133.435 167.347,-127.614 186.078,-122.511"/>
<polygon fill="midnightblue" stroke="midnightblue" points="125.484,-135.393 116.756,-141.398 127.324,-142.146 125.484,-135.393"/>
</g>
<!-- Node7 -->
<g id="node7" class="node"><title>Node7</title>
<g id="a_node7"><a xlink:href="namespacemappel_1_1methods_1_1objective.html#a8c40861cc75e4165606b495a6c04c62a" target="_top" xlink:title="mappel::methods::objective\l::negative_definite_hessian">
<polygon fill="white" stroke="black" points="174,-47.5 174,-75.5 303,-75.5 303,-47.5 174,-47.5"/>
<text text-anchor="start" x="182" y="-64.3" font-family="Helvetica,sans-Serif" font-size="9.00">mappel::methods::objective</text>
<text text-anchor="middle" x="238.5" y="-54.3" font-family="Helvetica,sans-Serif" font-size="9.00">::negative_definite_hessian</text>
</a>
</g>
</g>
<!-- Node1&#45;&gt;Node7 -->
<g id="edge6" class="edge"><title>Node1&#45;&gt;Node7</title>
<path fill="none" stroke="midnightblue" d="M89.4728,-135.033C108.742,-119.726 136.801,-99.1639 164,-85.5 171.437,-81.764 179.583,-78.4299 187.658,-75.5222"/>
<polygon fill="midnightblue" stroke="midnightblue" points="87.1118,-132.441 81.527,-141.444 91.5074,-137.889 87.1118,-132.441"/>
</g>
<!-- Node8 -->
<g id="node8" class="node"><title>Node8</title>
<g id="a_node8"><a xlink:href="namespacemappel_1_1methods.html#a0e3bec3c7363eb6005abdeaa151decb9" target="_top" xlink:title="mappel::methods::observed\l_information">
<polygon fill="white" stroke="black" points="173.5,-0.5 173.5,-28.5 303.5,-28.5 303.5,-0.5 173.5,-0.5"/>
<text text-anchor="start" x="181.5" y="-17.3" font-family="Helvetica,sans-Serif" font-size="9.00">mappel::methods::observed</text>
<text text-anchor="middle" x="238.5" y="-7.3" font-family="Helvetica,sans-Serif" font-size="9.00">_information</text>
</a>
</g>
</g>
<!-- Node1&#45;&gt;Node8 -->
<g id="edge7" class="edge"><title>Node1&#45;&gt;Node8</title>
<path fill="none" stroke="midnightblue" d="M78.5817,-132.872C95.4689,-106.581 126.671,-63.606 164,-38.5 169.792,-34.6044 176.264,-31.3012 182.9,-28.5104"/>
<polygon fill="midnightblue" stroke="midnightblue" points="75.5689,-131.089 73.219,-141.42 81.4985,-134.809 75.5689,-131.089"/>
</g>
</g>
</svg>
