<?xml version="1.0" encoding="UTF-8" standalone="no"?>
<!DOCTYPE svg PUBLIC "-//W3C//DTD SVG 1.1//EN"
 "http://www.w3.org/Graphics/SVG/1.1/DTD/svg11.dtd">
<!-- Generated by graphviz version 2.38.0 (20140413.2041)
 -->
<!-- Title: mappel::fill_G_stencil Pages: 1 -->
<svg width="596pt" height="178pt"
 viewBox="0.00 0.00 596.00 178.00" xmlns="http://www.w3.org/2000/svg" xmlns:xlink="http://www.w3.org/1999/xlink">
<g id="graph0" class="graph" transform="scale(1 1) rotate(0) translate(4 174)">
<title>mappel::fill_G_stencil</title>
<polygon fill="white" stroke="none" points="-4,4 -4,-174 592,-174 592,4 -4,4"/>
<!-- Node1 -->
<g id="node1" class="node"><title>Node1</title>
<polygon fill="#bfbfbf" stroke="black" points="0,-75.5 0,-93.5 104,-93.5 104,-75.5 0,-75.5"/>
<text text-anchor="middle" x="52" y="-82.3" font-family="Helvetica,sans-Serif" font-size="9.00">mappel::fill_G_stencil</text>
</g>
<!-- Node2 -->
<g id="node2" class="node"><title>Node2</title>
<g id="a_node2"><a xlink:href="namespacemappel.html#aa5c2f294298c875605ee1e9876b7d116" target="_top" xlink:title="mappel::make_G_stencil">
<polygon fill="white" stroke="black" points="140,-75.5 140,-93.5 258,-93.5 258,-75.5 140,-75.5"/>
<text text-anchor="middle" x="199" y="-82.3" font-family="Helvetica,sans-Serif" font-size="9.00">mappel::make_G_stencil</text>
</a>
</g>
</g>
<!-- Node1&#45;&gt;Node2 -->
<g id="edge1" class="edge"><title>Node1&#45;&gt;Node2</title>
<path fill="none" stroke="midnightblue" d="M114.33,-84.5C122.81,-84.5 131.5,-84.5 139.919,-84.5"/>
<polygon fill="midnightblue" stroke="midnightblue" points="114.122,-81.0001 104.122,-84.5 114.122,-88.0001 114.122,-81.0001"/>
</g>
<!-- Node3 -->
<g id="node3" class="node"><title>Node3</title>
<g id="a_node3"><a xlink:href="classmappel_1_1Gauss1DModel_1_1Stencil.html#a4bc1fdd7b3c4df021ac4a519c4e659f8" target="_top" xlink:title="mappel::Gauss1DModel\l::Stencil::compute_derivatives">
<polygon fill="white" stroke="black" points="294,-141.5 294,-169.5 432,-169.5 432,-141.5 294,-141.5"/>
<text text-anchor="start" x="302" y="-158.3" font-family="Helvetica,sans-Serif" font-size="9.00">mappel::Gauss1DModel</text>
<text text-anchor="middle" x="363" y="-148.3" font-family="Helvetica,sans-Serif" font-size="9.00">::Stencil::compute_derivatives</text>
</a>
</g>
</g>
<!-- Node2&#45;&gt;Node3 -->
<g id="edge2" class="edge"><title>Node2&#45;&gt;Node3</title>
<path fill="none" stroke="midnightblue" d="M224.974,-98.5172C243.648,-108.685 269.99,-122.373 294,-132.5 301.464,-135.648 309.521,-138.68 317.39,-141.453"/>
<polygon fill="midnightblue" stroke="midnightblue" points="226.409,-95.3122 215.961,-93.5586 223.035,-101.445 226.409,-95.3122"/>
</g>
<!-- Node5 -->
<g id="node5" class="node"><title>Node5</title>
<g id="a_node5"><a xlink:href="classmappel_1_1Gauss1DsModel_1_1Stencil.html#a9e8b6059b84e28bea0ba3496bc95e7ce" target="_top" xlink:title="mappel::Gauss1DsModel\l::Stencil::compute_derivatives">
<polygon fill="white" stroke="black" points="294,-94.5 294,-122.5 432,-122.5 432,-94.5 294,-94.5"/>
<text text-anchor="start" x="302" y="-111.3" font-family="Helvetica,sans-Serif" font-size="9.00">mappel::Gauss1DsModel</text>
<text text-anchor="middle" x="363" y="-101.3" font-family="Helvetica,sans-Serif" font-size="9.00">::Stencil::compute_derivatives</text>
</a>
</g>
</g>
<!-- Node2&#45;&gt;Node5 -->
<g id="edge4" class="edge"><title>Node2&#45;&gt;Node5</title>
<path fill="none" stroke="midnightblue" d="M267.973,-94.57C276.543,-95.8396 285.312,-97.1388 293.884,-98.4088"/>
<polygon fill="midnightblue" stroke="midnightblue" points="268.433,-91.1001 258.028,-93.0968 267.407,-98.0245 268.433,-91.1001"/>
</g>
<!-- Node7 -->
<g id="node7" class="node"><title>Node7</title>
<g id="a_node7"><a xlink:href="classmappel_1_1Gauss2DModel_1_1Stencil.html#aa454ad18859be0dcc48f5de8982c7ba7" target="_top" xlink:title="mappel::Gauss2DModel\l::Stencil::compute_derivatives">
<polygon fill="white" stroke="black" points="294,-47.5 294,-75.5 432,-75.5 432,-47.5 294,-47.5"/>
<text text-anchor="start" x="302" y="-64.3" font-family="Helvetica,sans-Serif" font-size="9.00">mappel::Gauss2DModel</text>
<text text-anchor="middle" x="363" y="-54.3" font-family="Helvetica,sans-Serif" font-size="9.00">::Stencil::compute_derivatives</text>
</a>
</g>
</g>
<!-- Node2&#45;&gt;Node7 -->
<g id="edge6" class="edge"><title>Node2&#45;&gt;Node7</title>
<path fill="none" stroke="midnightblue" d="M267.973,-74.8495C276.543,-73.6328 285.312,-72.3878 293.884,-71.1708"/>
<polygon fill="midnightblue" stroke="midnightblue" points="267.437,-71.3904 258.028,-76.2614 268.421,-78.3209 267.437,-71.3904"/>
</g>
<!-- Node9 -->
<g id="node9" class="node"><title>Node9</title>
<g id="a_node9"><a xlink:href="classmappel_1_1Gauss2DsModel_1_1Stencil.html#ab11c806f8335bbafeb3db7476526680d" target="_top" xlink:title="mappel::Gauss2DsModel\l::Stencil::compute_derivatives">
<polygon fill="white" stroke="black" points="294,-0.5 294,-28.5 432,-28.5 432,-0.5 294,-0.5"/>
<text text-anchor="start" x="302" y="-17.3" font-family="Helvetica,sans-Serif" font-size="9.00">mappel::Gauss2DsModel</text>
<text text-anchor="middle" x="363" y="-7.3" font-family="Helvetica,sans-Serif" font-size="9.00">::Stencil::compute_derivatives</text>
</a>
</g>
</g>
<!-- Node2&#45;&gt;Node9 -->
<g id="edge8" class="edge"><title>Node2&#45;&gt;Node9</title>
<path fill="none" stroke="midnightblue" d="M226.1,-70.7149C244.757,-61.1115 270.602,-48.3154 294,-38.5 302.197,-35.0615 311.077,-31.6843 319.632,-28.5988"/>
<polygon fill="midnightblue" stroke="midnightblue" points="224.312,-67.6995 217.049,-75.4132 227.537,-73.9123 224.312,-67.6995"/>
</g>
<!-- Node4 -->
<g id="node4" class="node"><title>Node4</title>
<g id="a_node4"><a xlink:href="classmappel_1_1Gauss1DModel_1_1Stencil.html#a6881e128436697dd57b41d20a1c8b56e" target="_top" xlink:title="mappel::Gauss1DModel\l::Stencil::Stencil">
<polygon fill="white" stroke="black" points="470,-141.5 470,-169.5 586,-169.5 586,-141.5 470,-141.5"/>
<text text-anchor="start" x="478" y="-158.3" font-family="Helvetica,sans-Serif" font-size="9.00">mappel::Gauss1DModel</text>
<text text-anchor="middle" x="528" y="-148.3" font-family="Helvetica,sans-Serif" font-size="9.00">::Stencil::Stencil</text>
</a>
</g>
</g>
<!-- Node3&#45;&gt;Node4 -->
<g id="edge3" class="edge"><title>Node3&#45;&gt;Node4</title>
<path fill="none" stroke="midnightblue" d="M442.262,-155.5C451.592,-155.5 460.979,-155.5 469.933,-155.5"/>
<polygon fill="midnightblue" stroke="midnightblue" points="442.182,-152 432.182,-155.5 442.182,-159 442.182,-152"/>
</g>
<!-- Node6 -->
<g id="node6" class="node"><title>Node6</title>
<g id="a_node6"><a xlink:href="classmappel_1_1Gauss1DsModel_1_1Stencil.html#ae4f12261a80d8ed1a2d3652c0e7b629b" target="_top" xlink:title="mappel::Gauss1DsModel\l::Stencil::Stencil">
<polygon fill="white" stroke="black" points="468,-94.5 468,-122.5 588,-122.5 588,-94.5 468,-94.5"/>
<text text-anchor="start" x="476" y="-111.3" font-family="Helvetica,sans-Serif" font-size="9.00">mappel::Gauss1DsModel</text>
<text text-anchor="middle" x="528" y="-101.3" font-family="Helvetica,sans-Serif" font-size="9.00">::Stencil::Stencil</text>
</a>
</g>
</g>
<!-- Node5&#45;&gt;Node6 -->
<g id="edge5" class="edge"><title>Node5&#45;&gt;Node6</title>
<path fill="none" stroke="midnightblue" d="M442.262,-108.5C450.886,-108.5 459.56,-108.5 467.894,-108.5"/>
<polygon fill="midnightblue" stroke="midnightblue" points="442.182,-105 432.182,-108.5 442.182,-112 442.182,-105"/>
</g>
<!-- Node8 -->
<g id="node8" class="node"><title>Node8</title>
<g id="a_node8"><a xlink:href="classmappel_1_1Gauss2DModel_1_1Stencil.html#a9e1f0ff585b5394d2d114a432b8c7d94" target="_top" xlink:title="mappel::Gauss2DModel\l::Stencil::Stencil">
<polygon fill="white" stroke="black" points="470,-47.5 470,-75.5 586,-75.5 586,-47.5 470,-47.5"/>
<text text-anchor="start" x="478" y="-64.3" font-family="Helvetica,sans-Serif" font-size="9.00">mappel::Gauss2DModel</text>
<text text-anchor="middle" x="528" y="-54.3" font-family="Helvetica,sans-Serif" font-size="9.00">::Stencil::Stencil</text>
</a>
</g>
</g>
<!-- Node7&#45;&gt;Node8 -->
<g id="edge7" class="edge"><title>Node7&#45;&gt;Node8</title>
<path fill="none" stroke="midnightblue" d="M442.262,-61.5C451.592,-61.5 460.979,-61.5 469.933,-61.5"/>
<polygon fill="midnightblue" stroke="midnightblue" points="442.182,-58.0001 432.182,-61.5 442.182,-65.0001 442.182,-58.0001"/>
</g>
<!-- Node10 -->
<g id="node10" class="node"><title>Node10</title>
<g id="a_node10"><a xlink:href="classmappel_1_1Gauss2DsModel_1_1Stencil.html#a924f5f8d4524831f1ef50041b85a842f" target="_top" xlink:title="mappel::Gauss2DsModel\l::Stencil::Stencil">
<polygon fill="white" stroke="black" points="468,-0.5 468,-28.5 588,-28.5 588,-0.5 468,-0.5"/>
<text text-anchor="start" x="476" y="-17.3" font-family="Helvetica,sans-Serif" font-size="9.00">mappel::Gauss2DsModel</text>
<text text-anchor="middle" x="528" y="-7.3" font-family="Helvetica,sans-Serif" font-size="9.00">::Stencil::Stencil</text>
</a>
</g>
</g>
<!-- Node9&#45;&gt;Node10 -->
<g id="edge9" class="edge"><title>Node9&#45;&gt;Node10</title>
<path fill="none" stroke="midnightblue" d="M442.262,-14.5C450.886,-14.5 459.56,-14.5 467.894,-14.5"/>
<polygon fill="midnightblue" stroke="midnightblue" points="442.182,-11.0001 432.182,-14.5 442.182,-18.0001 442.182,-11.0001"/>
</g>
</g>
</svg>
