<?xml version="1.0" encoding="UTF-8" standalone="no"?>
<!DOCTYPE svg PUBLIC "-//W3C//DTD SVG 1.1//EN"
 "http://www.w3.org/Graphics/SVG/1.1/DTD/svg11.dtd">
<!-- Generated by graphviz version 2.38.0 (20140413.2041)
 -->
<!-- Title: mappel::gaussian_3D_convolution Pages: 1 -->
<svg width="280pt" height="84pt"
 viewBox="0.00 0.00 280.00 84.00" xmlns="http://www.w3.org/2000/svg" xmlns:xlink="http://www.w3.org/1999/xlink">
<g id="graph0" class="graph" transform="scale(1 1) rotate(0) translate(4 80)">
<title>mappel::gaussian_3D_convolution</title>
<polygon fill="white" stroke="none" points="-4,4 -4,-80 276,-80 276,4 -4,4"/>
<!-- Node1 -->
<g id="node1" class="node"><title>Node1</title>
<polygon fill="#bfbfbf" stroke="black" points="0,-23.5 0,-51.5 107,-51.5 107,-23.5 0,-23.5"/>
<text text-anchor="start" x="8" y="-40.3" font-family="Helvetica,sans-Serif" font-size="9.00">mappel::gaussian_3D</text>
<text text-anchor="middle" x="53.5" y="-30.3" font-family="Helvetica,sans-Serif" font-size="9.00">_convolution</text>
</g>
<!-- Node2 -->
<g id="node2" class="node"><title>Node2</title>
<g id="a_node2"><a xlink:href="namespacemappel.html#a2d597c426bd6287ad1a506511a68c9c2" target="_top" xlink:title="mappel::estimate_gaussian\l_3Dmax">
<polygon fill="white" stroke="black" points="143,-47.5 143,-75.5 272,-75.5 272,-47.5 143,-47.5"/>
<text text-anchor="start" x="151" y="-64.3" font-family="Helvetica,sans-Serif" font-size="9.00">mappel::estimate_gaussian</text>
<text text-anchor="middle" x="207.5" y="-54.3" font-family="Helvetica,sans-Serif" font-size="9.00">_3Dmax</text>
</a>
</g>
</g>
<!-- Node1&#45;&gt;Node2 -->
<g id="edge1" class="edge"><title>Node1&#45;&gt;Node2</title>
<path fill="none" stroke="midnightblue" d="M117.367,-47.4264C125.787,-48.7559 134.429,-50.1204 142.862,-51.4519"/>
<polygon fill="midnightblue" stroke="midnightblue" points="117.659,-43.9292 107.236,-45.8267 116.567,-50.8436 117.659,-43.9292"/>
</g>
<!-- Node3 -->
<g id="node3" class="node"><title>Node3</title>
<g id="a_node3"><a xlink:href="namespacemappel.html#ab65cc5c100590b4b5246984162e3e678" target="_top" xlink:title="mappel::refine_gaussian\l_3Dmax">
<polygon fill="white" stroke="black" points="148.5,-0.5 148.5,-28.5 266.5,-28.5 266.5,-0.5 148.5,-0.5"/>
<text text-anchor="start" x="156.5" y="-17.3" font-family="Helvetica,sans-Serif" font-size="9.00">mappel::refine_gaussian</text>
<text text-anchor="middle" x="207.5" y="-7.3" font-family="Helvetica,sans-Serif" font-size="9.00">_3Dmax</text>
</a>
</g>
</g>
<!-- Node1&#45;&gt;Node3 -->
<g id="edge2" class="edge"><title>Node1&#45;&gt;Node3</title>
<path fill="none" stroke="midnightblue" d="M117.371,-27.9866C127.646,-26.4318 138.251,-24.8271 148.404,-23.2908"/>
<polygon fill="midnightblue" stroke="midnightblue" points="116.599,-24.5634 107.236,-29.5203 117.647,-31.4847 116.599,-24.5634"/>
</g>
</g>
</svg>
