<?xml version="1.0" encoding="UTF-8" standalone="no"?>
<!DOCTYPE svg PUBLIC "-//W3C//DTD SVG 1.1//EN"
 "http://www.w3.org/Graphics/SVG/1.1/DTD/svg11.dtd">
<!-- Generated by graphviz version 2.38.0 (20140413.2041)
 -->
<!-- Title: mappel::methods::objective::llh Pages: 1 -->
<svg width="476pt" height="116pt"
 viewBox="0.00 0.00 476.00 116.00" xmlns="http://www.w3.org/2000/svg" xmlns:xlink="http://www.w3.org/1999/xlink">
<g id="graph0" class="graph" transform="scale(1 1) rotate(0) translate(4 112)">
<title>mappel::methods::objective::llh</title>
<polygon fill="white" stroke="none" points="-4,4 -4,-112 472,-112 472,4 -4,4"/>
<!-- Node1 -->
<g id="node1" class="node"><title>Node1</title>
<polygon fill="#bfbfbf" stroke="black" points="0,-47.5 0,-65.5 143,-65.5 143,-47.5 0,-47.5"/>
<text text-anchor="middle" x="71.5" y="-54.3" font-family="Helvetica,sans-Serif" font-size="9.00">mappel::methods::objective::llh</text>
</g>
<!-- Node2 -->
<g id="node2" class="node"><title>Node2</title>
<g id="a_node2"><a xlink:href="namespacemappel_1_1methods_1_1objective.html#a6f6dafac3df60b7d1c1dfa1eb7491eb8" target="_top" xlink:title="mappel::methods::objective::llh">
<polygon fill="white" stroke="black" points="179,-89.5 179,-107.5 322,-107.5 322,-89.5 179,-89.5"/>
<text text-anchor="middle" x="250.5" y="-96.3" font-family="Helvetica,sans-Serif" font-size="9.00">mappel::methods::objective::llh</text>
</a>
</g>
</g>
<!-- Node1&#45;&gt;Node2 -->
<g id="edge1" class="edge"><title>Node1&#45;&gt;Node2</title>
<path fill="none" stroke="midnightblue" d="M120.244,-67.829C148.803,-74.6059 184.608,-83.1019 211.287,-89.4325"/>
<polygon fill="midnightblue" stroke="midnightblue" points="121.009,-64.4135 110.471,-65.5101 119.393,-71.2243 121.009,-64.4135"/>
</g>
<!-- Node3 -->
<g id="node3" class="node"><title>Node3</title>
<g id="a_node3"><a xlink:href="namespacemappel_1_1methods_1_1objective_1_1openmp.html#aacd838da9a8dd9462fe970b4e3fae0f0" target="_top" xlink:title="Parallel log_likelihood calculations for a stack of images. ">
<polygon fill="white" stroke="black" points="186.5,-42.5 186.5,-70.5 314.5,-70.5 314.5,-42.5 186.5,-42.5"/>
<text text-anchor="start" x="194.5" y="-59.3" font-family="Helvetica,sans-Serif" font-size="9.00">mappel::methods::objective</text>
<text text-anchor="middle" x="250.5" y="-49.3" font-family="Helvetica,sans-Serif" font-size="9.00">::openmp::llh_stack</text>
</a>
</g>
</g>
<!-- Node1&#45;&gt;Node3 -->
<g id="edge2" class="edge"><title>Node1&#45;&gt;Node3</title>
<path fill="none" stroke="midnightblue" d="M153.324,-56.5C164.4,-56.5 175.637,-56.5 186.335,-56.5"/>
<polygon fill="midnightblue" stroke="midnightblue" points="153.218,-53.0001 143.218,-56.5 153.218,-60.0001 153.218,-53.0001"/>
</g>
<!-- Node4 -->
<g id="node4" class="node"><title>Node4</title>
<g id="a_node4"><a xlink:href="PoissonGaussianNoise2DObjective_8h.html#a8eb230d5181ae8cf5b5b9ed794d3b64c" target="_top" xlink:title="log_likelihood">
<polygon fill="white" stroke="black" points="213.5,-5.5 213.5,-23.5 287.5,-23.5 287.5,-5.5 213.5,-5.5"/>
<text text-anchor="middle" x="250.5" y="-12.3" font-family="Helvetica,sans-Serif" font-size="9.00">log_likelihood</text>
</a>
</g>
</g>
<!-- Node1&#45;&gt;Node4 -->
<g id="edge3" class="edge"><title>Node1&#45;&gt;Node4</title>
<path fill="none" stroke="midnightblue" d="M120.485,-45.1136C149.769,-38.165 186.599,-29.4256 213.405,-23.065"/>
<polygon fill="midnightblue" stroke="midnightblue" points="119.393,-41.7757 110.471,-47.4899 121.009,-48.5865 119.393,-41.7757"/>
</g>
<!-- Node5 -->
<g id="node5" class="node"><title>Node5</title>
<g id="a_node5"><a xlink:href="namespacemappel.html#ac37bf1175da6d4a80cd4cb147bfb68e2" target="_top" xlink:title="Parallel log_likelihood calculations for a single image. ">
<polygon fill="white" stroke="black" points="358,-0.5 358,-28.5 468,-28.5 468,-0.5 358,-0.5"/>
<text text-anchor="start" x="366" y="-17.3" font-family="Helvetica,sans-Serif" font-size="9.00">mappel::log_likelihood</text>
<text text-anchor="middle" x="413" y="-7.3" font-family="Helvetica,sans-Serif" font-size="9.00">_stack</text>
</a>
</g>
</g>
<!-- Node4&#45;&gt;Node5 -->
<g id="edge4" class="edge"><title>Node4&#45;&gt;Node5</title>
<path fill="none" stroke="midnightblue" d="M297.608,-14.5C316.397,-14.5 338.256,-14.5 357.802,-14.5"/>
<polygon fill="midnightblue" stroke="midnightblue" points="297.519,-11.0001 287.519,-14.5 297.519,-18.0001 297.519,-11.0001"/>
</g>
</g>
</svg>
