<?xml version="1.0" encoding="UTF-8" standalone="no"?>
<!DOCTYPE svg PUBLIC "-//W3C//DTD SVG 1.1//EN"
 "http://www.w3.org/Graphics/SVG/1.1/DTD/svg11.dtd">
<!-- Generated by graphviz version 2.38.0 (20140413.2041)
 -->
<!-- Title: numerical.h Pages: 1 -->
<!--zoomable 147 -->
<svg id="main" version="1.1" xmlns="http://www.w3.org/2000/svg" xmlns:xlink="http://www.w3.org/1999/xlink" xml:space="preserve" onload="init(evt)">
<style type="text/css"><![CDATA[
.edge:hover path { stroke: red; }
.edge:hover polygon { stroke: red; fill: red; }
]]></style>
<script type="text/javascript"><![CDATA[
var edges = document.getElementsByTagName('g');
if (edges && edges.length) {
  for (var i=0;i<edges.length;i++) {
    if (edges[i].id.substr(0,4)=='edge') {
      edges[i].setAttribute('class','edge');
    }
  }
}
]]></script>
        <defs>
                <circle id="rim" cx="0" cy="0" r="7"/>
                <circle id="rim2" cx="0" cy="0" r="3.5"/>
                <g id="zoomPlus">
                        <use xlink:href="#rim" fill="#404040">
                                <set attributeName="fill" to="#808080" begin="zoomplus.mouseover" end="zoomplus.mouseout"/>
                        </use>
                        <path d="M-4,0h8M0,-4v8" fill="none" stroke="white" stroke-width="1.5" pointer-events="none"/>
                </g>
                <g id="zoomMin">
                        <use xlink:href="#rim" fill="#404040">
                                <set attributeName="fill" to="#808080" begin="zoomminus.mouseover" end="zoomminus.mouseout"/>
                        </use>
                        <path d="M-4,0h8" fill="none" stroke="white" stroke-width="1.5" pointer-events="none"/>
                </g>
                <g id="dirArrow">
                        <path fill="none" stroke="white" stroke-width="1.5" d="M0,-3.0v7 M-2.5,-0.5L0,-3.0L2.5,-0.5"/>
                </g>
               <g id="resetDef">
                       <use xlink:href="#rim2" fill="#404040">
                               <set attributeName="fill" to="#808080" begin="reset.mouseover" end="reset.mouseout"/>
                       </use>
               </g>
        </defs>

<script type="text/javascript">
var viewWidth = 610;
var viewHeight = 147;
var sectionId = 'dynsection-0';
</script>
<script xlink:href="svgpan.js"/>
<svg id="graph" class="graph">
<g id="viewport">
<title>numerical.h</title>
<polygon fill="white" stroke="none" points="-4,4 -4,-143 606,-143 606,4 -4,4"/>
<!-- Node1 -->
<g id="node1" class="node"><title>Node1</title>
<polygon fill="#bfbfbf" stroke="black" points="182,-120.5 182,-138.5 247,-138.5 247,-120.5 182,-120.5"/>
<text text-anchor="middle" x="214.5" y="-127.3" font-family="Helvetica,sans-Serif" font-size="9.00">numerical.h</text>
</g>
<!-- Node2 -->
<g id="node2" class="node"><title>Node2</title>
<polygon fill="white" stroke="#bfbfbf" points="0,-5.5 0,-23.5 41,-23.5 41,-5.5 0,-5.5"/>
<text text-anchor="middle" x="20.5" y="-12.3" font-family="Helvetica,sans-Serif" font-size="9.00">cmath</text>
</g>
<!-- Node1&#45;&gt;Node2 -->
<g id="edge1" class="edge"><title>Node1&#45;&gt;Node2</title>
<path fill="none" stroke="midnightblue" d="M200.548,-120.373C167.41,-101.071 83.7237,-52.3262 43.1931,-28.7181"/>
<polygon fill="midnightblue" stroke="midnightblue" points="44.7282,-25.5619 34.3256,-23.553 41.205,-31.6106 44.7282,-25.5619"/>
</g>
<!-- Node3 -->
<g id="node3" class="node"><title>Node3</title>
<polygon fill="white" stroke="#bfbfbf" points="331.5,-65.5 331.5,-83.5 373.5,-83.5 373.5,-65.5 331.5,-65.5"/>
<text text-anchor="middle" x="352.5" y="-72.3" font-family="Helvetica,sans-Serif" font-size="9.00">climits</text>
</g>
<!-- Node1&#45;&gt;Node3 -->
<g id="edge2" class="edge"><title>Node1&#45;&gt;Node3</title>
<path fill="none" stroke="midnightblue" d="M235.459,-120.45C258.459,-111.617 295.596,-97.3546 321.861,-87.267"/>
<polygon fill="midnightblue" stroke="midnightblue" points="323.263,-90.478 331.344,-83.6253 320.753,-83.9433 323.263,-90.478"/>
</g>
<!-- Node4 -->
<g id="node4" class="node"><title>Node4</title>
<polygon fill="white" stroke="#bfbfbf" points="59,-5.5 59,-23.5 114,-23.5 114,-5.5 59,-5.5"/>
<text text-anchor="middle" x="86.5" y="-12.3" font-family="Helvetica,sans-Serif" font-size="9.00">armadillo</text>
</g>
<!-- Node1&#45;&gt;Node4 -->
<g id="edge3" class="edge"><title>Node1&#45;&gt;Node4</title>
<path fill="none" stroke="midnightblue" d="M205.295,-120.373C183.892,-101.479 130.53,-54.3698 103.203,-30.2454"/>
<polygon fill="midnightblue" stroke="midnightblue" points="105.435,-27.5474 95.622,-23.553 100.802,-32.7951 105.435,-27.5474"/>
</g>
<!-- Node5 -->
<g id="node5" class="node"><title>Node5</title>
<g id="a_node5"><a xlink:href="util_8h.html" target="_top" xlink:title="Mappel/util.h">
<polygon fill="white" stroke="black" points="244,-65.5 244,-83.5 313,-83.5 313,-65.5 244,-65.5"/>
<text text-anchor="middle" x="278.5" y="-72.3" font-family="Helvetica,sans-Serif" font-size="9.00">Mappel/util.h</text>
</a>
</g>
</g>
<!-- Node1&#45;&gt;Node5 -->
<g id="edge4" class="edge"><title>Node1&#45;&gt;Node5</title>
<path fill="none" stroke="midnightblue" d="M224.22,-120.45C233.9,-112.434 248.979,-99.9471 260.79,-90.1663"/>
<polygon fill="midnightblue" stroke="midnightblue" points="263.219,-92.6992 268.688,-83.6253 258.754,-87.3078 263.219,-92.6992"/>
</g>
<!-- Node5&#45;&gt;Node2 -->
<g id="edge6" class="edge"><title>Node5&#45;&gt;Node2</title>
<path fill="none" stroke="midnightblue" d="M243.697,-69.4234C198.233,-63.4935 116.53,-50.7532 49.5,-29 48.0804,-28.5393 46.6392,-28.0265 45.1967,-27.4777"/>
<polygon fill="midnightblue" stroke="midnightblue" points="46.4424,-24.204 35.8708,-23.5027 43.6976,-30.6435 46.4424,-24.204"/>
</g>
<!-- Node5&#45;&gt;Node4 -->
<g id="edge12" class="edge"><title>Node5&#45;&gt;Node4</title>
<path fill="none" stroke="midnightblue" d="M248.014,-65.4282C216.617,-56.9563 166.361,-42.9528 123.5,-29 121.598,-28.3809 119.648,-27.727 117.685,-27.0544"/>
<polygon fill="midnightblue" stroke="midnightblue" points="118.528,-23.6401 107.933,-23.6094 116.196,-30.2404 118.528,-23.6401"/>
</g>
<!-- Node6 -->
<g id="node6" class="node"><title>Node6</title>
<polygon fill="white" stroke="#bfbfbf" points="257,-5.5 257,-23.5 300,-23.5 300,-5.5 257,-5.5"/>
<text text-anchor="middle" x="278.5" y="-12.3" font-family="Helvetica,sans-Serif" font-size="9.00">cstdint</text>
</g>
<!-- Node5&#45;&gt;Node6 -->
<g id="edge5" class="edge"><title>Node5&#45;&gt;Node6</title>
<path fill="none" stroke="midnightblue" d="M278.5,-65.4353C278.5,-57.3891 278.5,-44.7388 278.5,-34.1846"/>
<polygon fill="midnightblue" stroke="midnightblue" points="282,-33.8717 278.5,-23.8718 275,-33.8718 282,-33.8717"/>
</g>
<!-- Node7 -->
<g id="node7" class="node"><title>Node7</title>
<polygon fill="white" stroke="#bfbfbf" points="318.5,-5.5 318.5,-23.5 368.5,-23.5 368.5,-5.5 318.5,-5.5"/>
<text text-anchor="middle" x="343.5" y="-12.3" font-family="Helvetica,sans-Serif" font-size="9.00">memory</text>
</g>
<!-- Node5&#45;&gt;Node7 -->
<g id="edge7" class="edge"><title>Node5&#45;&gt;Node7</title>
<path fill="none" stroke="midnightblue" d="M287.538,-65.4353C297.611,-56.4475 314.121,-41.7151 326.604,-30.5762"/>
<polygon fill="midnightblue" stroke="midnightblue" points="328.987,-33.1412 334.118,-23.8718 324.326,-27.9182 328.987,-33.1412"/>
</g>
<!-- Node8 -->
<g id="node8" class="node"><title>Node8</title>
<polygon fill="white" stroke="#bfbfbf" points="386.5,-5.5 386.5,-23.5 424.5,-23.5 424.5,-5.5 386.5,-5.5"/>
<text text-anchor="middle" x="405.5" y="-12.3" font-family="Helvetica,sans-Serif" font-size="9.00">utility</text>
</g>
<!-- Node5&#45;&gt;Node8 -->
<g id="edge8" class="edge"><title>Node5&#45;&gt;Node8</title>
<path fill="none" stroke="midnightblue" d="M296.813,-65.4443C316.735,-56.6404 349.485,-42.0471 377.5,-29 378.197,-28.6753 378.903,-28.345 379.616,-28.0106"/>
<polygon fill="midnightblue" stroke="midnightblue" points="381.426,-31.0254 388.952,-23.5689 378.419,-24.7042 381.426,-31.0254"/>
</g>
<!-- Node9 -->
<g id="node9" class="node"><title>Node9</title>
<polygon fill="white" stroke="#bfbfbf" points="443,-5.5 443,-23.5 482,-23.5 482,-5.5 443,-5.5"/>
<text text-anchor="middle" x="462.5" y="-12.3" font-family="Helvetica,sans-Serif" font-size="9.00">string</text>
</g>
<!-- Node5&#45;&gt;Node9 -->
<g id="edge9" class="edge"><title>Node5&#45;&gt;Node9</title>
<path fill="none" stroke="midnightblue" d="M312.248,-65.4329C343.98,-57.4688 392.588,-44.2887 433.5,-29 434.7,-28.5517 435.919,-28.0745 437.144,-27.5774"/>
<polygon fill="midnightblue" stroke="midnightblue" points="438.668,-30.7312 446.432,-23.5227 435.867,-24.3158 438.668,-30.7312"/>
</g>
<!-- Node10 -->
<g id="node10" class="node"><title>Node10</title>
<polygon fill="white" stroke="#bfbfbf" points="500,-5.5 500,-23.5 535,-23.5 535,-5.5 500,-5.5"/>
<text text-anchor="middle" x="517.5" y="-12.3" font-family="Helvetica,sans-Serif" font-size="9.00">map</text>
</g>
<!-- Node5&#45;&gt;Node10 -->
<g id="edge10" class="edge"><title>Node5&#45;&gt;Node10</title>
<path fill="none" stroke="midnightblue" d="M313.404,-66.7491C369.445,-55.829 474.909,-34.9144 491.5,-29 492.53,-28.6328 493.57,-28.2321 494.612,-27.806"/>
<polygon fill="midnightblue" stroke="midnightblue" points="496.211,-30.922 503.782,-23.51 493.241,-24.5832 496.211,-30.922"/>
</g>
<!-- Node11 -->
<g id="node11" class="node"><title>Node11</title>
<polygon fill="white" stroke="#bfbfbf" points="553,-5.5 553,-23.5 602,-23.5 602,-5.5 553,-5.5"/>
<text text-anchor="middle" x="577.5" y="-12.3" font-family="Helvetica,sans-Serif" font-size="9.00">sstream</text>
</g>
<!-- Node5&#45;&gt;Node11 -->
<g id="edge11" class="edge"><title>Node5&#45;&gt;Node11</title>
<path fill="none" stroke="midnightblue" d="M313.069,-66.7201C316.255,-66.126 319.436,-65.5443 322.5,-65 420.915,-47.5185 448.288,-56.0984 544.5,-29 546.422,-28.4588 548.383,-27.8397 550.343,-27.1709"/>
<polygon fill="midnightblue" stroke="midnightblue" points="551.83,-30.3506 559.949,-23.5438 549.357,-23.8019 551.83,-30.3506"/>
</g>
<!-- Node12 -->
<g id="node12" class="node"><title>Node12</title>
<polygon fill="white" stroke="#bfbfbf" points="132,-0.5 132,-28.5 239,-28.5 239,-0.5 132,-0.5"/>
<text text-anchor="start" x="140" y="-17.3" font-family="Helvetica,sans-Serif" font-size="9.00">BacktraceException</text>
<text text-anchor="middle" x="185.5" y="-7.3" font-family="Helvetica,sans-Serif" font-size="9.00">/BacktraceException.h</text>
</g>
<!-- Node5&#45;&gt;Node12 -->
<g id="edge13" class="edge"><title>Node5&#45;&gt;Node12</title>
<path fill="none" stroke="midnightblue" d="M265.569,-65.4353C252.563,-57.3244 232.056,-44.5352 215.052,-33.9304"/>
<polygon fill="midnightblue" stroke="midnightblue" points="216.875,-30.9424 206.538,-28.6203 213.171,-36.882 216.875,-30.9424"/>
</g>
</g>
</svg>
        <g id="navigator" transform="translate(0 0)" fill="#404254">
                <rect fill="#f2f5e9" fill-opacity="0.5" stroke="#606060" stroke-width=".5" x="0" y="0" width="60" height="60"/>
                <use id="zoomplus" xlink:href="#zoomPlus" x="17" y="9" onmousedown="handleZoom(evt,'in')"/>
                <use id="zoomminus" xlink:href="#zoomMin" x="42" y="9" onmousedown="handleZoom(evt,'out')"/>
                <use id="reset" xlink:href="#resetDef" x="30" y="36" onmousedown="handleReset()"/>
                <g id="arrowUp" xlink:href="#dirArrow" transform="translate(30 24)" onmousedown="handlePan(0,-1)">
                  <use xlink:href="#rim" fill="#404040">
                        <set attributeName="fill" to="#808080" begin="arrowUp.mouseover" end="arrowUp.mouseout"/>
                  </use>
                  <path fill="none" stroke="white" stroke-width="1.5" d="M0,-3.0v7 M-2.5,-0.5L0,-3.0L2.5,-0.5"/>
                </g>
                <g id="arrowRight" xlink:href="#dirArrow" transform="rotate(90) translate(36 -43)" onmousedown="handlePan(1,0)">
                  <use xlink:href="#rim" fill="#404040">
                        <set attributeName="fill" to="#808080" begin="arrowRight.mouseover" end="arrowRight.mouseout"/>
                  </use>
                  <path fill="none" stroke="white" stroke-width="1.5" d="M0,-3.0v7 M-2.5,-0.5L0,-3.0L2.5,-0.5"/>
                </g>
                <g id="arrowDown" xlink:href="#dirArrow" transform="rotate(180) translate(-30 -48)" onmousedown="handlePan(0,1)">
                  <use xlink:href="#rim" fill="#404040">
                        <set attributeName="fill" to="#808080" begin="arrowDown.mouseover" end="arrowDown.mouseout"/>
                  </use>
                  <path fill="none" stroke="white" stroke-width="1.5" d="M0,-3.0v7 M-2.5,-0.5L0,-3.0L2.5,-0.5"/>
                </g>
                <g id="arrowLeft" xlink:href="#dirArrow" transform="rotate(270) translate(-36 17)" onmousedown="handlePan(-1,0)">
                  <use xlink:href="#rim" fill="#404040">
                        <set attributeName="fill" to="#808080" begin="arrowLeft.mouseover" end="arrowLeft.mouseout"/>
                  </use>
                  <path fill="none" stroke="white" stroke-width="1.5" d="M0,-3.0v7 M-2.5,-0.5L0,-3.0L2.5,-0.5"/>
                </g>
        </g>
        <svg viewBox="0 0 15 15" width="100%" height="30px" preserveAspectRatio="xMaxYMin meet">
         <g id="arrow_out" transform="scale(0.3 0.3)">
          <a xlink:href="numerical_8h__incl_org.svg" target="_base">
           <rect id="button" ry="5" rx="5" y="6" x="6" height="38" width="38"
                fill="#f2f5e9" fill-opacity="0.5" stroke="#606060" stroke-width="1.0"/>
           <path id="arrow"
             d="M 11.500037,31.436501 C 11.940474,20.09759 22.043105,11.32322 32.158766,21.979434 L 37.068811,17.246167 C 37.068811,17.246167 37.088388,32 37.088388,32 L 22.160133,31.978069 C 22.160133,31.978069 26.997745,27.140456 26.997745,27.140456 C 18.528582,18.264221 13.291696,25.230495 11.500037,31.436501 z"
             style="fill:#404040;"/>
          </a>
         </g>
        </svg>
</svg>
