<?xml version="1.0" encoding="UTF-8" standalone="no"?>
<!DOCTYPE svg PUBLIC "-//W3C//DTD SVG 1.1//EN"
 "http://www.w3.org/Graphics/SVG/1.1/DTD/svg11.dtd">
<!-- Generated by graphviz version 2.38.0 (20140413.2041)
 -->
<!-- Title: numerical.h Pages: 1 -->
<!--zoomable 357 -->
<svg id="main" version="1.1" xmlns="http://www.w3.org/2000/svg" xmlns:xlink="http://www.w3.org/1999/xlink" xml:space="preserve" onload="init(evt)">
<style type="text/css"><![CDATA[
.edge:hover path { stroke: red; }
.edge:hover polygon { stroke: red; fill: red; }
]]></style>
<script type="text/javascript"><![CDATA[
var edges = document.getElementsByTagName('g');
if (edges && edges.length) {
  for (var i=0;i<edges.length;i++) {
    if (edges[i].id.substr(0,4)=='edge') {
      edges[i].setAttribute('class','edge');
    }
  }
}
]]></script>
        <defs>
                <circle id="rim" cx="0" cy="0" r="7"/>
                <circle id="rim2" cx="0" cy="0" r="3.5"/>
                <g id="zoomPlus">
                        <use xlink:href="#rim" fill="#404040">
                                <set attributeName="fill" to="#808080" begin="zoomplus.mouseover" end="zoomplus.mouseout"/>
                        </use>
                        <path d="M-4,0h8M0,-4v8" fill="none" stroke="white" stroke-width="1.5" pointer-events="none"/>
                </g>
                <g id="zoomMin">
                        <use xlink:href="#rim" fill="#404040">
                                <set attributeName="fill" to="#808080" begin="zoomminus.mouseover" end="zoomminus.mouseout"/>
                        </use>
                        <path d="M-4,0h8" fill="none" stroke="white" stroke-width="1.5" pointer-events="none"/>
                </g>
                <g id="dirArrow">
                        <path fill="none" stroke="white" stroke-width="1.5" d="M0,-3.0v7 M-2.5,-0.5L0,-3.0L2.5,-0.5"/>
                </g>
               <g id="resetDef">
                       <use xlink:href="#rim2" fill="#404040">
                               <set attributeName="fill" to="#808080" begin="reset.mouseover" end="reset.mouseout"/>
                       </use>
               </g>
        </defs>

<script type="text/javascript">
var viewWidth = 1127;
var viewHeight = 357;
var sectionId = 'dynsection-1';
</script>
<script xlink:href="svgpan.js"/>
<svg id="graph" class="graph">
<g id="viewport">
<title>numerical.h</title>
<polygon fill="white" stroke="none" points="-4,4 -4,-353 1122.97,-353 1122.97,4 -4,4"/>
<!-- Node1 -->
<g id="node1" class="node"><title>Node1</title>
<polygon fill="#bfbfbf" stroke="black" points="519.468,-330.5 519.468,-348.5 584.468,-348.5 584.468,-330.5 519.468,-330.5"/>
<text text-anchor="middle" x="551.968" y="-337.3" font-family="Helvetica,sans-Serif" font-size="9.00">numerical.h</text>
</g>
<!-- Node2 -->
<g id="node2" class="node"><title>Node2</title>
<g id="a_node2"><a xlink:href="numerical_8cpp.html" target="_top" xlink:title="Numerical matrix operations. ">
<polygon fill="white" stroke="black" points="402.968,-275.5 402.968,-293.5 476.968,-293.5 476.968,-275.5 402.968,-275.5"/>
<text text-anchor="middle" x="439.968" y="-282.3" font-family="Helvetica,sans-Serif" font-size="9.00">numerical.cpp</text>
</a>
</g>
</g>
<!-- Node1&#45;&gt;Node2 -->
<g id="edge1" class="edge"><title>Node1&#45;&gt;Node2</title>
<path fill="none" stroke="midnightblue" d="M525.866,-326.148C504.695,-316.13 475.457,-302.294 457.138,-293.625"/>
<polygon fill="midnightblue" stroke="midnightblue" points="524.421,-329.337 534.957,-330.45 527.415,-323.009 524.421,-329.337"/>
</g>
<!-- Node3 -->
<g id="node3" class="node"><title>Node3</title>
<g id="a_node3"><a xlink:href="estimator__impl_8h.html" target="_top" xlink:title="estimator_impl.h">
<polygon fill="white" stroke="black" points="626.968,-275.5 626.968,-293.5 710.968,-293.5 710.968,-275.5 626.968,-275.5"/>
<text text-anchor="middle" x="668.968" y="-282.3" font-family="Helvetica,sans-Serif" font-size="9.00">estimator_impl.h</text>
</a>
</g>
</g>
<!-- Node1&#45;&gt;Node3 -->
<g id="edge2" class="edge"><title>Node1&#45;&gt;Node3</title>
<path fill="none" stroke="midnightblue" d="M578.936,-326.283C601.076,-316.254 631.808,-302.333 651.031,-293.625"/>
<polygon fill="midnightblue" stroke="midnightblue" points="577.402,-323.136 569.737,-330.45 580.291,-329.512 577.402,-323.136"/>
</g>
<!-- Node28 -->
<g id="node28" class="node"><title>Node28</title>
<g id="a_node28"><a xlink:href="model__methods__impl_8h.html" target="_top" xlink:title="model_methods_impl.h">
<polygon fill="white" stroke="black" points="495.468,-275.5 495.468,-293.5 608.468,-293.5 608.468,-275.5 495.468,-275.5"/>
<text text-anchor="middle" x="551.968" y="-282.3" font-family="Helvetica,sans-Serif" font-size="9.00">model_methods_impl.h</text>
</a>
</g>
</g>
<!-- Node1&#45;&gt;Node28 -->
<g id="edge32" class="edge"><title>Node1&#45;&gt;Node28</title>
<path fill="none" stroke="midnightblue" d="M551.968,-320.175C551.968,-311.094 551.968,-300.595 551.968,-293.55"/>
<polygon fill="midnightblue" stroke="midnightblue" points="548.468,-320.219 551.968,-330.219 555.468,-320.219 548.468,-320.219"/>
</g>
<!-- Node4 -->
<g id="node4" class="node"><title>Node4</title>
<g id="a_node4"><a xlink:href="estimator__statics_8cpp.html" target="_top" xlink:title="estimator_statics.cpp">
<polygon fill="white" stroke="black" points="1016.97,-110.5 1016.97,-128.5 1118.97,-128.5 1118.97,-110.5 1016.97,-110.5"/>
<text text-anchor="middle" x="1067.97" y="-117.3" font-family="Helvetica,sans-Serif" font-size="9.00">estimator_statics.cpp</text>
</a>
</g>
</g>
<!-- Node3&#45;&gt;Node4 -->
<g id="edge3" class="edge"><title>Node3&#45;&gt;Node4</title>
<path fill="none" stroke="midnightblue" d="M701.84,-272.057C752.105,-254.348 850.878,-218.712 932.968,-184 976.624,-165.54 1026.85,-141.023 1051.95,-128.542"/>
<polygon fill="midnightblue" stroke="midnightblue" points="700.439,-268.84 692.163,-275.456 702.758,-275.444 700.439,-268.84"/>
</g>
<!-- Node5 -->
<g id="node5" class="node"><title>Node5</title>
<g id="a_node5"><a xlink:href="model__methods_8h.html" target="_top" xlink:title="model_methods.h">
<polygon fill="white" stroke="black" points="506.968,-220.5 506.968,-238.5 596.968,-238.5 596.968,-220.5 506.968,-220.5"/>
<text text-anchor="middle" x="551.968" y="-227.3" font-family="Helvetica,sans-Serif" font-size="9.00">model_methods.h</text>
</a>
</g>
</g>
<!-- Node3&#45;&gt;Node5 -->
<g id="edge4" class="edge"><title>Node3&#45;&gt;Node5</title>
<path fill="none" stroke="midnightblue" d="M641.999,-271.283C619.86,-261.254 589.128,-247.333 569.905,-238.625"/>
<polygon fill="midnightblue" stroke="midnightblue" points="640.645,-274.512 651.198,-275.45 643.533,-268.136 640.645,-274.512"/>
</g>
<!-- Node6 -->
<g id="node6" class="node"><title>Node6</title>
<g id="a_node6"><a xlink:href="Gauss1DMAP_8h.html" target="_top" xlink:title="The class declaration and inline and templated functions for Gauss1DMAP. ">
<polygon fill="white" stroke="black" points="841.968,-165.5 841.968,-183.5 923.968,-183.5 923.968,-165.5 841.968,-165.5"/>
<text text-anchor="middle" x="882.968" y="-172.3" font-family="Helvetica,sans-Serif" font-size="9.00">Gauss1DMAP.h</text>
</a>
</g>
</g>
<!-- Node5&#45;&gt;Node6 -->
<g id="edge5" class="edge"><title>Node5&#45;&gt;Node6</title>
<path fill="none" stroke="midnightblue" d="M607.539,-219.602C673.731,-209.003 782.749,-191.547 841.826,-182.088"/>
<polygon fill="midnightblue" stroke="midnightblue" points="606.619,-216.205 597.298,-221.242 607.725,-223.117 606.619,-216.205"/>
</g>
<!-- Node10 -->
<g id="node10" class="node"><title>Node10</title>
<g id="a_node10"><a xlink:href="Gauss2DMAP_8h.html" target="_top" xlink:title="The class declaration and inline and templated functions for Gauss2DMAP. ">
<polygon fill="white" stroke="black" points="585.968,-55.5 585.968,-73.5 667.968,-73.5 667.968,-55.5 585.968,-55.5"/>
<text text-anchor="middle" x="626.968" y="-62.3" font-family="Helvetica,sans-Serif" font-size="9.00">Gauss2DMAP.h</text>
</a>
</g>
</g>
<!-- Node5&#45;&gt;Node10 -->
<g id="edge27" class="edge"><title>Node5&#45;&gt;Node10</title>
<path fill="none" stroke="midnightblue" d="M543.228,-211.091C532.263,-186.542 517.152,-141.265 536.968,-110 548.911,-91.1549 571.411,-80.0299 590.925,-73.6162"/>
<polygon fill="midnightblue" stroke="midnightblue" points="540.117,-212.7 547.559,-220.241 546.444,-209.705 540.117,-212.7"/>
</g>
<!-- Node12 -->
<g id="node12" class="node"><title>Node12</title>
<g id="a_node12"><a xlink:href="Gauss2DMLE_8h.html" target="_top" xlink:title="The class declaration and inline and templated functions for Gauss2DMLE. ">
<polygon fill="white" stroke="black" points="732.468,-55.5 732.468,-73.5 813.468,-73.5 813.468,-55.5 732.468,-55.5"/>
<text text-anchor="middle" x="772.968" y="-62.3" font-family="Helvetica,sans-Serif" font-size="9.00">Gauss2DMLE.h</text>
</a>
</g>
</g>
<!-- Node5&#45;&gt;Node12 -->
<g id="edge28" class="edge"><title>Node5&#45;&gt;Node12</title>
<path fill="none" stroke="midnightblue" d="M607.255,-223.27C659.984,-217.1 734.211,-204.934 753.968,-184 783.427,-152.785 777.778,-95.0752 774.448,-73.7232"/>
<polygon fill="midnightblue" stroke="midnightblue" points="606.562,-219.826 597.018,-224.425 607.347,-226.782 606.562,-219.826"/>
</g>
<!-- Node14 -->
<g id="node14" class="node"><title>Node14</title>
<g id="a_node14"><a xlink:href="Gauss1DMLE_8h.html" target="_top" xlink:title="The class declaration and inline and templated functions for Gauss1DMLE. ">
<polygon fill="white" stroke="black" points="86.4676,-165.5 86.4676,-183.5 167.468,-183.5 167.468,-165.5 86.4676,-165.5"/>
<text text-anchor="middle" x="126.968" y="-172.3" font-family="Helvetica,sans-Serif" font-size="9.00">Gauss1DMLE.h</text>
</a>
</g>
</g>
<!-- Node5&#45;&gt;Node14 -->
<g id="edge14" class="edge"><title>Node5&#45;&gt;Node14</title>
<path fill="none" stroke="midnightblue" d="M496.721,-221.61C410.039,-210.801 244.087,-190.106 167.516,-180.557"/>
<polygon fill="midnightblue" stroke="midnightblue" points="496.531,-225.114 506.888,-222.878 497.398,-218.168 496.531,-225.114"/>
</g>
<!-- Node16 -->
<g id="node16" class="node"><title>Node16</title>
<g id="a_node16"><a xlink:href="Gauss1DsMAP_8h.html" target="_top" xlink:title="The class declaration and inline and templated functions for Gauss1DsMAP. ">
<polygon fill="white" stroke="black" points="305.968,-165.5 305.968,-183.5 391.968,-183.5 391.968,-165.5 305.968,-165.5"/>
<text text-anchor="middle" x="348.968" y="-172.3" font-family="Helvetica,sans-Serif" font-size="9.00">Gauss1DsMAP.h</text>
</a>
</g>
</g>
<!-- Node5&#45;&gt;Node16 -->
<g id="edge16" class="edge"><title>Node5&#45;&gt;Node16</title>
<path fill="none" stroke="midnightblue" d="M511.212,-217.859C472.407,-207.728 414.864,-192.705 379.756,-183.538"/>
<polygon fill="midnightblue" stroke="midnightblue" points="510.576,-221.311 521.136,-220.45 512.345,-214.538 510.576,-221.311"/>
</g>
<!-- Node20 -->
<g id="node20" class="node"><title>Node20</title>
<g id="a_node20"><a xlink:href="Gauss2DsMAP_8h.html" target="_top" xlink:title="The class declaration and inline and templated functions for Gauss2DsMAP. ">
<polygon fill="white" stroke="black" points="435.968,-55.5 435.968,-73.5 521.968,-73.5 521.968,-55.5 435.968,-55.5"/>
<text text-anchor="middle" x="478.968" y="-62.3" font-family="Helvetica,sans-Serif" font-size="9.00">Gauss2DsMAP.h</text>
</a>
</g>
</g>
<!-- Node5&#45;&gt;Node20 -->
<g id="edge29" class="edge"><title>Node5&#45;&gt;Node20</title>
<path fill="none" stroke="midnightblue" d="M530.719,-214.144C520.806,-206.361 509.729,-195.901 502.968,-184 481.815,-146.768 479.134,-93.626 478.918,-73.5731"/>
<polygon fill="midnightblue" stroke="midnightblue" points="528.872,-217.131 538.993,-220.264 533.035,-211.504 528.872,-217.131"/>
</g>
<!-- Node22 -->
<g id="node22" class="node"><title>Node22</title>
<g id="a_node22"><a xlink:href="Gauss2DsMLE_8h.html" target="_top" xlink:title="The class declaration and inline and templated functions for Gauss2DsMLE. ">
<polygon fill="white" stroke="black" points="78.9676,-55.5 78.9676,-73.5 164.968,-73.5 164.968,-55.5 78.9676,-55.5"/>
<text text-anchor="middle" x="121.968" y="-62.3" font-family="Helvetica,sans-Serif" font-size="9.00">Gauss2DsMLE.h</text>
</a>
</g>
</g>
<!-- Node5&#45;&gt;Node22 -->
<g id="edge30" class="edge"><title>Node5&#45;&gt;Node22</title>
<path fill="none" stroke="midnightblue" d="M496.622,-227.221C388.219,-224.079 151.957,-213.925 76.9676,-184 34.9196,-167.221 -18.6246,-147.345 6.96762,-110 23.0025,-86.6017 53.2458,-75.5033 78.694,-70.2406"/>
<polygon fill="midnightblue" stroke="midnightblue" points="496.61,-230.721 506.704,-227.503 496.806,-223.724 496.61,-230.721"/>
</g>
<!-- Node25 -->
<g id="node25" class="node"><title>Node25</title>
<g id="a_node25"><a xlink:href="Gauss1DsMLE_8h.html" target="_top" xlink:title="The class declaration and inline and templated functions for Gauss1DsMLE. ">
<polygon fill="white" stroke="black" points="544.968,-165.5 544.968,-183.5 630.968,-183.5 630.968,-165.5 544.968,-165.5"/>
<text text-anchor="middle" x="587.968" y="-172.3" font-family="Helvetica,sans-Serif" font-size="9.00">Gauss1DsMLE.h</text>
</a>
</g>
</g>
<!-- Node5&#45;&gt;Node25 -->
<g id="edge25" class="edge"><title>Node5&#45;&gt;Node25</title>
<path fill="none" stroke="midnightblue" d="M563.408,-211.658C569.792,-202.259 577.452,-190.982 582.5,-183.55"/>
<polygon fill="midnightblue" stroke="midnightblue" points="560.316,-209.98 557.593,-220.219 566.107,-213.913 560.316,-209.98"/>
</g>
<!-- Node27 -->
<g id="node27" class="node"><title>Node27</title>
<g id="a_node27"><a xlink:href="Gauss2DsxyMAP_8h.html" target="_top" xlink:title="The class declaration and inline and templated functions for Gauss2DsxyMAP. ">
<polygon fill="white" stroke="black" points="649.468,-165.5 649.468,-183.5 744.468,-183.5 744.468,-165.5 649.468,-165.5"/>
<text text-anchor="middle" x="696.968" y="-172.3" font-family="Helvetica,sans-Serif" font-size="9.00">Gauss2DsxyMAP.h</text>
</a>
</g>
</g>
<!-- Node5&#45;&gt;Node27 -->
<g id="edge31" class="edge"><title>Node5&#45;&gt;Node27</title>
<path fill="none" stroke="midnightblue" d="M583.561,-216.952C611.113,-206.881 650.38,-192.528 674.738,-183.625"/>
<polygon fill="midnightblue" stroke="midnightblue" points="582.181,-213.73 573.99,-220.45 584.584,-220.305 582.181,-213.73"/>
</g>
<!-- Node6&#45;&gt;Node4 -->
<g id="edge6" class="edge"><title>Node6&#45;&gt;Node4</title>
<path fill="none" stroke="midnightblue" d="M921.016,-162.6C956.365,-152.473 1008.19,-137.627 1039.91,-128.538"/>
<polygon fill="midnightblue" stroke="midnightblue" points="919.714,-159.332 911.065,-165.45 921.642,-166.061 919.714,-159.332"/>
</g>
<!-- Node7 -->
<g id="node7" class="node"><title>Node7</title>
<g id="a_node7"><a xlink:href="Gauss1DMAP_8cpp.html" target="_top" xlink:title="The class definition and template Specializations for Gauss1DMAP. ">
<polygon fill="white" stroke="black" points="906.968,-110.5 906.968,-128.5 998.968,-128.5 998.968,-110.5 906.968,-110.5"/>
<text text-anchor="middle" x="952.968" y="-117.3" font-family="Helvetica,sans-Serif" font-size="9.00">Gauss1DMAP.cpp</text>
</a>
</g>
</g>
<!-- Node6&#45;&gt;Node7 -->
<g id="edge7" class="edge"><title>Node6&#45;&gt;Node7</title>
<path fill="none" stroke="midnightblue" d="M901.842,-159.21C914.791,-149.405 931.509,-136.747 942.236,-128.625"/>
<polygon fill="midnightblue" stroke="midnightblue" points="899.459,-156.624 893.599,-165.45 903.684,-162.204 899.459,-156.624"/>
</g>
<!-- Node8 -->
<g id="node8" class="node"><title>Node8</title>
<g id="a_node8"><a xlink:href="Gauss2DModel_8h.html" target="_top" xlink:title="The class declaration and inline and templated functions for Gauss2DModel. ">
<polygon fill="white" stroke="black" points="800.968,-110.5 800.968,-128.5 888.968,-128.5 888.968,-110.5 800.968,-110.5"/>
<text text-anchor="middle" x="844.968" y="-117.3" font-family="Helvetica,sans-Serif" font-size="9.00">Gauss2DModel.h</text>
</a>
</g>
</g>
<!-- Node6&#45;&gt;Node8 -->
<g id="edge8" class="edge"><title>Node6&#45;&gt;Node8</title>
<path fill="none" stroke="midnightblue" d="M871.102,-156.951C864.322,-147.494 856.123,-136.059 850.739,-128.55"/>
<polygon fill="midnightblue" stroke="midnightblue" points="868.359,-159.131 877.03,-165.219 874.048,-155.052 868.359,-159.131"/>
</g>
<!-- Node9 -->
<g id="node9" class="node"><title>Node9</title>
<g id="a_node9"><a xlink:href="Gauss2DModel_8cpp.html" target="_top" xlink:title="The class definition and template Specializations for Gauss2DModel. ">
<polygon fill="white" stroke="black" points="831.968,-55.5 831.968,-73.5 929.968,-73.5 929.968,-55.5 831.968,-55.5"/>
<text text-anchor="middle" x="880.968" y="-62.3" font-family="Helvetica,sans-Serif" font-size="9.00">Gauss2DModel.cpp</text>
</a>
</g>
</g>
<!-- Node8&#45;&gt;Node9 -->
<g id="edge9" class="edge"><title>Node8&#45;&gt;Node9</title>
<path fill="none" stroke="midnightblue" d="M856.408,-101.658C862.792,-92.2587 870.452,-80.9821 875.5,-73.5496"/>
<polygon fill="midnightblue" stroke="midnightblue" points="853.316,-99.98 850.593,-110.219 859.107,-103.913 853.316,-99.98"/>
</g>
<!-- Node8&#45;&gt;Node10 -->
<g id="edge10" class="edge"><title>Node8&#45;&gt;Node10</title>
<path fill="none" stroke="midnightblue" d="M801.996,-108.053C760.318,-97.9201 697.974,-82.7631 660.031,-73.5383"/>
<polygon fill="midnightblue" stroke="midnightblue" points="801.314,-111.489 811.858,-110.45 802.968,-104.687 801.314,-111.489"/>
</g>
<!-- Node8&#45;&gt;Node12 -->
<g id="edge12" class="edge"><title>Node8&#45;&gt;Node12</title>
<path fill="none" stroke="midnightblue" d="M825.937,-104.492C812.566,-94.6491 795.146,-81.8255 784.006,-73.6253"/>
<polygon fill="midnightblue" stroke="midnightblue" points="823.904,-107.341 834.032,-110.45 828.054,-101.704 823.904,-107.341"/>
</g>
<!-- Node11 -->
<g id="node11" class="node"><title>Node11</title>
<g id="a_node11"><a xlink:href="Gauss2DMAP_8cpp.html" target="_top" xlink:title="The class definition and template Specializations for Gauss2DMAP. ">
<polygon fill="white" stroke="black" points="580.968,-0.5 580.968,-18.5 672.968,-18.5 672.968,-0.5 580.968,-0.5"/>
<text text-anchor="middle" x="626.968" y="-7.3" font-family="Helvetica,sans-Serif" font-size="9.00">Gauss2DMAP.cpp</text>
</a>
</g>
</g>
<!-- Node10&#45;&gt;Node11 -->
<g id="edge11" class="edge"><title>Node10&#45;&gt;Node11</title>
<path fill="none" stroke="midnightblue" d="M626.968,-45.1746C626.968,-36.0945 626.968,-25.5949 626.968,-18.5496"/>
<polygon fill="midnightblue" stroke="midnightblue" points="623.468,-45.2187 626.968,-55.2188 630.468,-45.2188 623.468,-45.2187"/>
</g>
<!-- Node13 -->
<g id="node13" class="node"><title>Node13</title>
<g id="a_node13"><a xlink:href="Gauss2DMLE_8cpp.html" target="_top" xlink:title="The class definition and template Specializations for Gauss2DMLE. ">
<polygon fill="white" stroke="black" points="727.468,-0.5 727.468,-18.5 818.468,-18.5 818.468,-0.5 727.468,-0.5"/>
<text text-anchor="middle" x="772.968" y="-7.3" font-family="Helvetica,sans-Serif" font-size="9.00">Gauss2DMLE.cpp</text>
</a>
</g>
</g>
<!-- Node12&#45;&gt;Node13 -->
<g id="edge13" class="edge"><title>Node12&#45;&gt;Node13</title>
<path fill="none" stroke="midnightblue" d="M772.968,-45.1746C772.968,-36.0945 772.968,-25.5949 772.968,-18.5496"/>
<polygon fill="midnightblue" stroke="midnightblue" points="769.468,-45.2187 772.968,-55.2188 776.468,-45.2188 769.468,-45.2187"/>
</g>
<!-- Node15 -->
<g id="node15" class="node"><title>Node15</title>
<g id="a_node15"><a xlink:href="Gauss1DMLE_8cpp.html" target="_top" xlink:title="The class definition and template Specializations for Gauss1DMLE. ">
<polygon fill="white" stroke="black" points="16.4676,-110.5 16.4676,-128.5 107.468,-128.5 107.468,-110.5 16.4676,-110.5"/>
<text text-anchor="middle" x="61.9676" y="-117.3" font-family="Helvetica,sans-Serif" font-size="9.00">Gauss1DMLE.cpp</text>
</a>
</g>
</g>
<!-- Node14&#45;&gt;Node15 -->
<g id="edge15" class="edge"><title>Node14&#45;&gt;Node15</title>
<path fill="none" stroke="midnightblue" d="M109.094,-158.926C97.1194,-149.162 81.798,-136.669 71.9326,-128.625"/>
<polygon fill="midnightblue" stroke="midnightblue" points="107.134,-161.844 117.096,-165.45 111.557,-156.418 107.134,-161.844"/>
</g>
<!-- Node17 -->
<g id="node17" class="node"><title>Node17</title>
<g id="a_node17"><a xlink:href="Gauss1DsMAP_8cpp.html" target="_top" xlink:title="The class definition and template Specializations for Gauss1DsMAP. ">
<polygon fill="white" stroke="black" points="244.968,-110.5 244.968,-128.5 340.968,-128.5 340.968,-110.5 244.968,-110.5"/>
<text text-anchor="middle" x="292.968" y="-117.3" font-family="Helvetica,sans-Serif" font-size="9.00">Gauss1DsMAP.cpp</text>
</a>
</g>
</g>
<!-- Node16&#45;&gt;Node17 -->
<g id="edge17" class="edge"><title>Node16&#45;&gt;Node17</title>
<path fill="none" stroke="midnightblue" d="M332.707,-158.11C322.493,-148.444 309.735,-136.369 301.473,-128.55"/>
<polygon fill="midnightblue" stroke="midnightblue" points="330.549,-160.887 340.218,-165.219 335.361,-155.803 330.549,-160.887"/>
</g>
<!-- Node18 -->
<g id="node18" class="node"><title>Node18</title>
<g id="a_node18"><a xlink:href="Gauss2DsModel_8h.html" target="_top" xlink:title="The class declaration and inline and templated functions for Gauss2DsModel. ">
<polygon fill="white" stroke="black" points="358.968,-110.5 358.968,-128.5 450.968,-128.5 450.968,-110.5 358.968,-110.5"/>
<text text-anchor="middle" x="404.968" y="-117.3" font-family="Helvetica,sans-Serif" font-size="9.00">Gauss2DsModel.h</text>
</a>
</g>
</g>
<!-- Node16&#45;&gt;Node18 -->
<g id="edge18" class="edge"><title>Node16&#45;&gt;Node18</title>
<path fill="none" stroke="midnightblue" d="M365.229,-158.11C375.442,-148.444 388.2,-136.369 396.462,-128.55"/>
<polygon fill="midnightblue" stroke="midnightblue" points="362.575,-155.803 357.718,-165.219 367.386,-160.887 362.575,-155.803"/>
</g>
<!-- Node24 -->
<g id="node24" class="node"><title>Node24</title>
<g id="a_node24"><a xlink:href="Gauss2DsxyModel_8h.html" target="_top" xlink:title="The class declaration and inline and templated functions for Gauss2DsxyModel. ">
<polygon fill="white" stroke="black" points="125.468,-110.5 125.468,-128.5 226.468,-128.5 226.468,-110.5 125.468,-110.5"/>
<text text-anchor="middle" x="175.968" y="-117.3" font-family="Helvetica,sans-Serif" font-size="9.00">Gauss2DsxyModel.h</text>
</a>
</g>
</g>
<!-- Node16&#45;&gt;Node24 -->
<g id="edge24" class="edge"><title>Node16&#45;&gt;Node24</title>
<path fill="none" stroke="midnightblue" d="M312.96,-162.469C279.916,-152.345 231.744,-137.588 202.206,-128.538"/>
<polygon fill="midnightblue" stroke="midnightblue" points="312.106,-165.868 322.693,-165.45 314.157,-159.175 312.106,-165.868"/>
</g>
<!-- Node19 -->
<g id="node19" class="node"><title>Node19</title>
<g id="a_node19"><a xlink:href="Gauss2DsModel_8cpp.html" target="_top" xlink:title="The class definition and template Specializations for Gauss2DsModel. ">
<polygon fill="white" stroke="black" points="315.968,-55.5 315.968,-73.5 417.968,-73.5 417.968,-55.5 315.968,-55.5"/>
<text text-anchor="middle" x="366.968" y="-62.3" font-family="Helvetica,sans-Serif" font-size="9.00">Gauss2DsModel.cpp</text>
</a>
</g>
</g>
<!-- Node18&#45;&gt;Node19 -->
<g id="edge19" class="edge"><title>Node18&#45;&gt;Node19</title>
<path fill="none" stroke="midnightblue" d="M393.102,-101.951C386.322,-92.4941 378.123,-81.0595 372.739,-73.5496"/>
<polygon fill="midnightblue" stroke="midnightblue" points="390.359,-104.131 399.03,-110.219 396.048,-100.052 390.359,-104.131"/>
</g>
<!-- Node18&#45;&gt;Node20 -->
<g id="edge20" class="edge"><title>Node18&#45;&gt;Node20</title>
<path fill="none" stroke="midnightblue" d="M424.527,-104.492C438.269,-94.6491 456.173,-81.8255 467.623,-73.6253"/>
<polygon fill="midnightblue" stroke="midnightblue" points="422.299,-101.782 416.207,-110.45 426.375,-107.473 422.299,-101.782"/>
</g>
<!-- Node18&#45;&gt;Node22 -->
<g id="edge22" class="edge"><title>Node18&#45;&gt;Node22</title>
<path fill="none" stroke="midnightblue" d="M351.905,-108.562C297.825,-98.4345 214.979,-82.9191 164.889,-73.5383"/>
<polygon fill="midnightblue" stroke="midnightblue" points="351.513,-112.05 361.986,-110.45 352.801,-105.169 351.513,-112.05"/>
</g>
<!-- Node21 -->
<g id="node21" class="node"><title>Node21</title>
<g id="a_node21"><a xlink:href="Gauss2DsMAP_8cpp.html" target="_top" xlink:title="The class definition and template Specializations for Gauss2DsMAP. ">
<polygon fill="white" stroke="black" points="430.968,-0.5 430.968,-18.5 526.968,-18.5 526.968,-0.5 430.968,-0.5"/>
<text text-anchor="middle" x="478.968" y="-7.3" font-family="Helvetica,sans-Serif" font-size="9.00">Gauss2DsMAP.cpp</text>
</a>
</g>
</g>
<!-- Node20&#45;&gt;Node21 -->
<g id="edge21" class="edge"><title>Node20&#45;&gt;Node21</title>
<path fill="none" stroke="midnightblue" d="M478.968,-45.1746C478.968,-36.0945 478.968,-25.5949 478.968,-18.5496"/>
<polygon fill="midnightblue" stroke="midnightblue" points="475.468,-45.2187 478.968,-55.2188 482.468,-45.2188 475.468,-45.2187"/>
</g>
<!-- Node23 -->
<g id="node23" class="node"><title>Node23</title>
<g id="a_node23"><a xlink:href="Gauss2DsMLE_8cpp.html" target="_top" xlink:title="The class definition and template Specializations for Gauss2DsMLE. ">
<polygon fill="white" stroke="black" points="74.4676,-0.5 74.4676,-18.5 169.468,-18.5 169.468,-0.5 74.4676,-0.5"/>
<text text-anchor="middle" x="121.968" y="-7.3" font-family="Helvetica,sans-Serif" font-size="9.00">Gauss2DsMLE.cpp</text>
</a>
</g>
</g>
<!-- Node22&#45;&gt;Node23 -->
<g id="edge23" class="edge"><title>Node22&#45;&gt;Node23</title>
<path fill="none" stroke="midnightblue" d="M121.968,-45.1746C121.968,-36.0945 121.968,-25.5949 121.968,-18.5496"/>
<polygon fill="midnightblue" stroke="midnightblue" points="118.468,-45.2187 121.968,-55.2188 125.468,-45.2188 118.468,-45.2187"/>
</g>
<!-- Node26 -->
<g id="node26" class="node"><title>Node26</title>
<g id="a_node26"><a xlink:href="Gauss1DsMLE_8cpp.html" target="_top" xlink:title="The class definition and template Specializations for Gauss1DsMLE. ">
<polygon fill="white" stroke="black" points="545.468,-110.5 545.468,-128.5 640.468,-128.5 640.468,-110.5 545.468,-110.5"/>
<text text-anchor="middle" x="592.968" y="-117.3" font-family="Helvetica,sans-Serif" font-size="9.00">Gauss1DsMLE.cpp</text>
</a>
</g>
</g>
<!-- Node25&#45;&gt;Node26 -->
<g id="edge26" class="edge"><title>Node25&#45;&gt;Node26</title>
<path fill="none" stroke="midnightblue" d="M589.696,-155.175C590.553,-146.094 591.544,-135.595 592.208,-128.55"/>
<polygon fill="midnightblue" stroke="midnightblue" points="586.204,-154.934 588.749,-165.219 593.173,-155.592 586.204,-154.934"/>
</g>
<!-- Node28&#45;&gt;Node5 -->
<g id="edge33" class="edge"><title>Node28&#45;&gt;Node5</title>
<path fill="none" stroke="midnightblue" d="M551.968,-265.175C551.968,-256.094 551.968,-245.595 551.968,-238.55"/>
<polygon fill="midnightblue" stroke="midnightblue" points="548.468,-265.219 551.968,-275.219 555.468,-265.219 548.468,-265.219"/>
</g>
</g>
</svg>
        <g id="navigator" transform="translate(0 0)" fill="#404254">
                <rect fill="#f2f5e9" fill-opacity="0.5" stroke="#606060" stroke-width=".5" x="0" y="0" width="60" height="60"/>
                <use id="zoomplus" xlink:href="#zoomPlus" x="17" y="9" onmousedown="handleZoom(evt,'in')"/>
                <use id="zoomminus" xlink:href="#zoomMin" x="42" y="9" onmousedown="handleZoom(evt,'out')"/>
                <use id="reset" xlink:href="#resetDef" x="30" y="36" onmousedown="handleReset()"/>
                <g id="arrowUp" xlink:href="#dirArrow" transform="translate(30 24)" onmousedown="handlePan(0,-1)">
                  <use xlink:href="#rim" fill="#404040">
                        <set attributeName="fill" to="#808080" begin="arrowUp.mouseover" end="arrowUp.mouseout"/>
                  </use>
                  <path fill="none" stroke="white" stroke-width="1.5" d="M0,-3.0v7 M-2.5,-0.5L0,-3.0L2.5,-0.5"/>
                </g>
                <g id="arrowRight" xlink:href="#dirArrow" transform="rotate(90) translate(36 -43)" onmousedown="handlePan(1,0)">
                  <use xlink:href="#rim" fill="#404040">
                        <set attributeName="fill" to="#808080" begin="arrowRight.mouseover" end="arrowRight.mouseout"/>
                  </use>
                  <path fill="none" stroke="white" stroke-width="1.5" d="M0,-3.0v7 M-2.5,-0.5L0,-3.0L2.5,-0.5"/>
                </g>
                <g id="arrowDown" xlink:href="#dirArrow" transform="rotate(180) translate(-30 -48)" onmousedown="handlePan(0,1)">
                  <use xlink:href="#rim" fill="#404040">
                        <set attributeName="fill" to="#808080" begin="arrowDown.mouseover" end="arrowDown.mouseout"/>
                  </use>
                  <path fill="none" stroke="white" stroke-width="1.5" d="M0,-3.0v7 M-2.5,-0.5L0,-3.0L2.5,-0.5"/>
                </g>
                <g id="arrowLeft" xlink:href="#dirArrow" transform="rotate(270) translate(-36 17)" onmousedown="handlePan(-1,0)">
                  <use xlink:href="#rim" fill="#404040">
                        <set attributeName="fill" to="#808080" begin="arrowLeft.mouseover" end="arrowLeft.mouseout"/>
                  </use>
                  <path fill="none" stroke="white" stroke-width="1.5" d="M0,-3.0v7 M-2.5,-0.5L0,-3.0L2.5,-0.5"/>
                </g>
        </g>
        <svg viewBox="0 0 15 15" width="100%" height="30px" preserveAspectRatio="xMaxYMin meet">
         <g id="arrow_out" transform="scale(0.3 0.3)">
          <a xlink:href="numerical_8h__dep__incl_org.svg" target="_base">
           <rect id="button" ry="5" rx="5" y="6" x="6" height="38" width="38"
                fill="#f2f5e9" fill-opacity="0.5" stroke="#606060" stroke-width="1.0"/>
           <path id="arrow"
             d="M 11.500037,31.436501 C 11.940474,20.09759 22.043105,11.32322 32.158766,21.979434 L 37.068811,17.246167 C 37.068811,17.246167 37.088388,32 37.088388,32 L 22.160133,31.978069 C 22.160133,31.978069 26.997745,27.140456 26.997745,27.140456 C 18.528582,18.264221 13.291696,25.230495 11.500037,31.436501 z"
             style="fill:#404040;"/>
          </a>
         </g>
        </svg>
</svg>
