<?xml version="1.0" encoding="UTF-8" standalone="no"?>
<!DOCTYPE svg PUBLIC "-//W3C//DTD SVG 1.1//EN"
 "http://www.w3.org/Graphics/SVG/1.1/DTD/svg11.dtd">
<!-- Generated by graphviz version 2.38.0 (20140413.2041)
 -->
<!-- Title: openmp_methods.h Pages: 1 -->
<!--zoomable 267 -->
<svg id="main" version="1.1" xmlns="http://www.w3.org/2000/svg" xmlns:xlink="http://www.w3.org/1999/xlink" xml:space="preserve" onload="init(evt)">
<style type="text/css"><![CDATA[
.edge:hover path { stroke: red; }
.edge:hover polygon { stroke: red; fill: red; }
]]></style>
<script type="text/javascript"><![CDATA[
var edges = document.getElementsByTagName('g');
if (edges && edges.length) {
  for (var i=0;i<edges.length;i++) {
    if (edges[i].id.substr(0,4)=='edge') {
      edges[i].setAttribute('class','edge');
    }
  }
}
]]></script>
        <defs>
                <circle id="rim" cx="0" cy="0" r="7"/>
                <circle id="rim2" cx="0" cy="0" r="3.5"/>
                <g id="zoomPlus">
                        <use xlink:href="#rim" fill="#404040">
                                <set attributeName="fill" to="#808080" begin="zoomplus.mouseover" end="zoomplus.mouseout"/>
                        </use>
                        <path d="M-4,0h8M0,-4v8" fill="none" stroke="white" stroke-width="1.5" pointer-events="none"/>
                </g>
                <g id="zoomMin">
                        <use xlink:href="#rim" fill="#404040">
                                <set attributeName="fill" to="#808080" begin="zoomminus.mouseover" end="zoomminus.mouseout"/>
                        </use>
                        <path d="M-4,0h8" fill="none" stroke="white" stroke-width="1.5" pointer-events="none"/>
                </g>
                <g id="dirArrow">
                        <path fill="none" stroke="white" stroke-width="1.5" d="M0,-3.0v7 M-2.5,-0.5L0,-3.0L2.5,-0.5"/>
                </g>
               <g id="resetDef">
                       <use xlink:href="#rim2" fill="#404040">
                               <set attributeName="fill" to="#808080" begin="reset.mouseover" end="reset.mouseout"/>
                       </use>
               </g>
        </defs>

<script type="text/javascript">
var viewWidth = 623;
var viewHeight = 267;
var sectionId = 'dynsection-0';
</script>
<script xlink:href="svgpan.js"/>
<svg id="graph" class="graph">
<g id="viewport">
<title>openmp_methods.h</title>
<polygon fill="white" stroke="none" points="-4,4 -4,-263 619,-263 619,4 -4,4"/>
<!-- Node1 -->
<g id="node1" class="node"><title>Node1</title>
<polygon fill="#bfbfbf" stroke="black" points="198.5,-240.5 198.5,-258.5 296.5,-258.5 296.5,-240.5 198.5,-240.5"/>
<text text-anchor="middle" x="247.5" y="-247.3" font-family="Helvetica,sans-Serif" font-size="9.00">openmp_methods.h</text>
</g>
<!-- Node2 -->
<g id="node2" class="node"><title>Node2</title>
<polygon fill="white" stroke="#bfbfbf" points="177.5,-185.5 177.5,-203.5 219.5,-203.5 219.5,-185.5 177.5,-185.5"/>
<text text-anchor="middle" x="198.5" y="-192.3" font-family="Helvetica,sans-Serif" font-size="9.00">omp.h</text>
</g>
<!-- Node1&#45;&gt;Node2 -->
<g id="edge1" class="edge"><title>Node1&#45;&gt;Node2</title>
<path fill="none" stroke="midnightblue" d="M239.844,-240.219C232.682,-232.473 221.799,-220.701 212.997,-211.18"/>
<polygon fill="midnightblue" stroke="midnightblue" points="215.301,-208.516 205.942,-203.55 210.161,-213.268 215.301,-208.516"/>
</g>
<!-- Node3 -->
<g id="node3" class="node"><title>Node3</title>
<g id="a_node3"><a xlink:href="util_8h.html" target="_top" xlink:title="Mappel/util.h">
<polygon fill="white" stroke="black" points="213,-70.5 213,-88.5 282,-88.5 282,-70.5 213,-70.5"/>
<text text-anchor="middle" x="247.5" y="-77.3" font-family="Helvetica,sans-Serif" font-size="9.00">Mappel/util.h</text>
</a>
</g>
</g>
<!-- Node1&#45;&gt;Node3 -->
<g id="edge2" class="edge"><title>Node1&#45;&gt;Node3</title>
<path fill="none" stroke="midnightblue" d="M247.5,-240.397C247.5,-214.729 247.5,-134.781 247.5,-98.6048"/>
<polygon fill="midnightblue" stroke="midnightblue" points="251,-98.5216 247.5,-88.5217 244,-98.5217 251,-98.5216"/>
</g>
<!-- Node13 -->
<g id="node13" class="node"><title>Node13</title>
<g id="a_node13"><a xlink:href="mcmc_8h.html" target="_top" xlink:title="Templated MCMC methods for posterior estimation. ">
<polygon fill="white" stroke="black" points="309,-185.5 309,-203.5 390,-203.5 390,-185.5 309,-185.5"/>
<text text-anchor="middle" x="349.5" y="-192.3" font-family="Helvetica,sans-Serif" font-size="9.00">Mappel/mcmc.h</text>
</a>
</g>
</g>
<!-- Node1&#45;&gt;Node13 -->
<g id="edge12" class="edge"><title>Node1&#45;&gt;Node13</title>
<path fill="none" stroke="midnightblue" d="M262.992,-240.45C279.392,-231.929 305.518,-218.353 324.772,-208.349"/>
<polygon fill="midnightblue" stroke="midnightblue" points="326.603,-211.342 333.863,-203.625 323.375,-205.13 326.603,-211.342"/>
</g>
<!-- Node4 -->
<g id="node4" class="node"><title>Node4</title>
<polygon fill="white" stroke="#bfbfbf" points="0,-5.5 0,-23.5 43,-23.5 43,-5.5 0,-5.5"/>
<text text-anchor="middle" x="21.5" y="-12.3" font-family="Helvetica,sans-Serif" font-size="9.00">cstdint</text>
</g>
<!-- Node3&#45;&gt;Node4 -->
<g id="edge3" class="edge"><title>Node3&#45;&gt;Node4</title>
<path fill="none" stroke="midnightblue" d="M212.839,-71.4828C173.46,-63.1022 107.524,-47.8258 52.5,-29 51.0768,-28.5131 49.6279,-27.9883 48.1727,-27.4383"/>
<polygon fill="midnightblue" stroke="midnightblue" points="49.2653,-24.1041 38.6838,-23.5725 46.6242,-30.5868 49.2653,-24.1041"/>
</g>
<!-- Node5 -->
<g id="node5" class="node"><title>Node5</title>
<polygon fill="white" stroke="#bfbfbf" points="574,-5.5 574,-23.5 615,-23.5 615,-5.5 574,-5.5"/>
<text text-anchor="middle" x="594.5" y="-12.3" font-family="Helvetica,sans-Serif" font-size="9.00">cmath</text>
</g>
<!-- Node3&#45;&gt;Node5 -->
<g id="edge4" class="edge"><title>Node3&#45;&gt;Node5</title>
<path fill="none" stroke="midnightblue" d="M270.515,-70.493C276.926,-68.4772 283.934,-66.471 290.5,-65 405.196,-39.3061 437.892,-55.0831 552.5,-29 556.229,-28.1512 560.102,-27.1199 563.92,-26.0096"/>
<polygon fill="midnightblue" stroke="midnightblue" points="565.249,-29.262 573.763,-22.9568 563.175,-22.5762 565.249,-29.262"/>
</g>
<!-- Node6 -->
<g id="node6" class="node"><title>Node6</title>
<polygon fill="white" stroke="#bfbfbf" points="61.5,-5.5 61.5,-23.5 111.5,-23.5 111.5,-5.5 61.5,-5.5"/>
<text text-anchor="middle" x="86.5" y="-12.3" font-family="Helvetica,sans-Serif" font-size="9.00">memory</text>
</g>
<!-- Node3&#45;&gt;Node6 -->
<g id="edge5" class="edge"><title>Node3&#45;&gt;Node6</title>
<path fill="none" stroke="midnightblue" d="M226.807,-70.4807C201.657,-60.7236 157.936,-43.7277 120.5,-29 119.096,-28.4478 117.66,-27.8818 116.211,-27.3095"/>
<polygon fill="midnightblue" stroke="midnightblue" points="117.214,-23.9424 106.628,-23.5162 114.637,-30.4511 117.214,-23.9424"/>
</g>
<!-- Node7 -->
<g id="node7" class="node"><title>Node7</title>
<polygon fill="white" stroke="#bfbfbf" points="129.5,-5.5 129.5,-23.5 167.5,-23.5 167.5,-5.5 129.5,-5.5"/>
<text text-anchor="middle" x="148.5" y="-12.3" font-family="Helvetica,sans-Serif" font-size="9.00">utility</text>
</g>
<!-- Node3&#45;&gt;Node7 -->
<g id="edge6" class="edge"><title>Node3&#45;&gt;Node7</title>
<path fill="none" stroke="midnightblue" d="M234.557,-70.2639C218.088,-59.7831 189.418,-41.539 169.728,-29.0088"/>
<polygon fill="midnightblue" stroke="midnightblue" points="171.448,-25.955 161.133,-23.539 167.69,-31.8606 171.448,-25.955"/>
</g>
<!-- Node8 -->
<g id="node8" class="node"><title>Node8</title>
<polygon fill="white" stroke="#bfbfbf" points="186,-5.5 186,-23.5 225,-23.5 225,-5.5 186,-5.5"/>
<text text-anchor="middle" x="205.5" y="-12.3" font-family="Helvetica,sans-Serif" font-size="9.00">string</text>
</g>
<!-- Node3&#45;&gt;Node8 -->
<g id="edge7" class="edge"><title>Node3&#45;&gt;Node8</title>
<path fill="none" stroke="midnightblue" d="M242.009,-70.2639C235.56,-60.5893 224.7,-44.2999 216.497,-31.9957"/>
<polygon fill="midnightblue" stroke="midnightblue" points="219.319,-29.918 210.859,-23.539 213.494,-33.801 219.319,-29.918"/>
</g>
<!-- Node9 -->
<g id="node9" class="node"><title>Node9</title>
<polygon fill="white" stroke="#bfbfbf" points="243,-5.5 243,-23.5 278,-23.5 278,-5.5 243,-5.5"/>
<text text-anchor="middle" x="260.5" y="-12.3" font-family="Helvetica,sans-Serif" font-size="9.00">map</text>
</g>
<!-- Node3&#45;&gt;Node9 -->
<g id="edge8" class="edge"><title>Node3&#45;&gt;Node9</title>
<path fill="none" stroke="midnightblue" d="M249.2,-70.2639C251.118,-60.9687 254.296,-45.5673 256.794,-33.461"/>
<polygon fill="midnightblue" stroke="midnightblue" points="260.248,-34.04 258.841,-23.539 253.392,-32.6253 260.248,-34.04"/>
</g>
<!-- Node10 -->
<g id="node10" class="node"><title>Node10</title>
<polygon fill="white" stroke="#bfbfbf" points="296,-5.5 296,-23.5 345,-23.5 345,-5.5 296,-5.5"/>
<text text-anchor="middle" x="320.5" y="-12.3" font-family="Helvetica,sans-Serif" font-size="9.00">sstream</text>
</g>
<!-- Node3&#45;&gt;Node10 -->
<g id="edge9" class="edge"><title>Node3&#45;&gt;Node10</title>
<path fill="none" stroke="midnightblue" d="M257.043,-70.2639C268.803,-60.1151 288.998,-42.687 303.448,-30.2162"/>
<polygon fill="midnightblue" stroke="midnightblue" points="305.901,-32.7222 311.185,-23.539 301.328,-27.4228 305.901,-32.7222"/>
</g>
<!-- Node11 -->
<g id="node11" class="node"><title>Node11</title>
<polygon fill="white" stroke="#bfbfbf" points="363,-5.5 363,-23.5 418,-23.5 418,-5.5 363,-5.5"/>
<text text-anchor="middle" x="390.5" y="-12.3" font-family="Helvetica,sans-Serif" font-size="9.00">armadillo</text>
</g>
<!-- Node3&#45;&gt;Node11 -->
<g id="edge10" class="edge"><title>Node3&#45;&gt;Node11</title>
<path fill="none" stroke="midnightblue" d="M265.902,-70.3928C290.464,-59.5718 334.178,-40.3134 362.75,-27.7256"/>
<polygon fill="midnightblue" stroke="midnightblue" points="364.428,-30.8107 372.169,-23.5761 361.606,-24.4048 364.428,-30.8107"/>
</g>
<!-- Node12 -->
<g id="node12" class="node"><title>Node12</title>
<polygon fill="white" stroke="#bfbfbf" points="436,-0.5 436,-28.5 543,-28.5 543,-0.5 436,-0.5"/>
<text text-anchor="start" x="444" y="-17.3" font-family="Helvetica,sans-Serif" font-size="9.00">BacktraceException</text>
<text text-anchor="middle" x="489.5" y="-7.3" font-family="Helvetica,sans-Serif" font-size="9.00">/BacktraceException.h</text>
</g>
<!-- Node3&#45;&gt;Node12 -->
<g id="edge11" class="edge"><title>Node3&#45;&gt;Node12</title>
<path fill="none" stroke="midnightblue" d="M272.435,-70.3913C278.338,-68.5498 284.625,-66.6514 290.5,-65 335.428,-52.3719 386.524,-39.6971 425.691,-30.3348"/>
<polygon fill="midnightblue" stroke="midnightblue" points="426.718,-33.6881 435.636,-27.9673 425.097,-26.8784 426.718,-33.6881"/>
</g>
<!-- Node13&#45;&gt;Node3 -->
<g id="edge14" class="edge"><title>Node13&#45;&gt;Node3</title>
<path fill="none" stroke="midnightblue" d="M340.622,-185.211C331.358,-176.451 316.535,-162.114 304.5,-149 288.711,-131.795 271.726,-111.066 260.443,-96.9487"/>
<polygon fill="midnightblue" stroke="midnightblue" points="262.88,-94.3887 253.923,-88.7303 257.396,-98.7395 262.88,-94.3887"/>
</g>
<!-- Node13&#45;&gt;Node5 -->
<g id="edge13" class="edge"><title>Node13&#45;&gt;Node5</title>
<path fill="none" stroke="midnightblue" d="M390.113,-187.72C426.768,-181.474 481.526,-169.544 525.5,-149 563.276,-131.352 582.536,-131.133 601.5,-94 611.199,-75.0079 606.494,-50.0441 601.328,-33.4198"/>
<polygon fill="midnightblue" stroke="midnightblue" points="604.592,-32.1508 598.014,-23.8461 597.978,-34.4408 604.592,-32.1508"/>
</g>
<!-- Node14 -->
<g id="node14" class="node"><title>Node14</title>
<g id="a_node14"><a xlink:href="rng_8h.html" target="_top" xlink:title="Random number generation usign sfmt. ">
<polygon fill="white" stroke="black" points="314,-130.5 314,-148.5 385,-148.5 385,-130.5 314,-130.5"/>
<text text-anchor="middle" x="349.5" y="-137.3" font-family="Helvetica,sans-Serif" font-size="9.00">Mappel/rng.h</text>
</a>
</g>
</g>
<!-- Node13&#45;&gt;Node14 -->
<g id="edge15" class="edge"><title>Node13&#45;&gt;Node14</title>
<path fill="none" stroke="midnightblue" d="M349.5,-185.219C349.5,-178.177 349.5,-167.808 349.5,-158.828"/>
<polygon fill="midnightblue" stroke="midnightblue" points="353,-158.55 349.5,-148.55 346,-158.55 353,-158.55"/>
</g>
<!-- Node18 -->
<g id="node18" class="node"><title>Node18</title>
<polygon fill="white" stroke="#bfbfbf" points="403,-130.5 403,-148.5 516,-148.5 516,-130.5 403,-130.5"/>
<text text-anchor="middle" x="459.5" y="-137.3" font-family="Helvetica,sans-Serif" font-size="9.00">trng/uniform01_dist.hpp</text>
</g>
<!-- Node13&#45;&gt;Node18 -->
<g id="edge20" class="edge"><title>Node13&#45;&gt;Node18</title>
<path fill="none" stroke="midnightblue" d="M366.207,-185.45C384.055,-176.851 412.584,-163.105 433.4,-153.075"/>
<polygon fill="midnightblue" stroke="midnightblue" points="435.147,-156.119 442.636,-148.625 432.108,-149.813 435.147,-156.119"/>
</g>
<!-- Node14&#45;&gt;Node3 -->
<g id="edge17" class="edge"><title>Node14&#45;&gt;Node3</title>
<path fill="none" stroke="midnightblue" d="M335.317,-130.435C318.589,-120.923 290.544,-104.976 270.651,-93.6645"/>
<polygon fill="midnightblue" stroke="midnightblue" points="272.314,-90.5837 261.891,-88.6831 268.854,-96.6687 272.314,-90.5837"/>
</g>
<!-- Node15 -->
<g id="node15" class="node"><title>Node15</title>
<polygon fill="white" stroke="#bfbfbf" points="544.5,-70.5 544.5,-88.5 592.5,-88.5 592.5,-70.5 544.5,-70.5"/>
<text text-anchor="middle" x="568.5" y="-77.3" font-family="Helvetica,sans-Serif" font-size="9.00">random</text>
</g>
<!-- Node14&#45;&gt;Node15 -->
<g id="edge16" class="edge"><title>Node14&#45;&gt;Node15</title>
<path fill="none" stroke="midnightblue" d="M385.258,-131.647C423.041,-124.012 484.143,-110.54 535.5,-94 537.161,-93.4651 538.856,-92.8843 540.558,-92.2743"/>
<polygon fill="midnightblue" stroke="midnightblue" points="542.105,-95.4293 550.184,-88.5755 539.594,-88.895 542.105,-95.4293"/>
</g>
<!-- Node16 -->
<g id="node16" class="node"><title>Node16</title>
<polygon fill="white" stroke="#bfbfbf" points="300,-70.5 300,-88.5 397,-88.5 397,-70.5 300,-70.5"/>
<text text-anchor="middle" x="348.5" y="-77.3" font-family="Helvetica,sans-Serif" font-size="9.00">trng/lcg64_shift.hpp</text>
</g>
<!-- Node14&#45;&gt;Node16 -->
<g id="edge18" class="edge"><title>Node14&#45;&gt;Node16</title>
<path fill="none" stroke="midnightblue" d="M349.361,-130.435C349.222,-122.389 349.004,-109.739 348.822,-99.1846"/>
<polygon fill="midnightblue" stroke="midnightblue" points="352.316,-98.8099 348.644,-88.8718 345.317,-98.9306 352.316,-98.8099"/>
</g>
<!-- Node17 -->
<g id="node17" class="node"><title>Node17</title>
<polygon fill="white" stroke="#bfbfbf" points="414.5,-65.5 414.5,-93.5 526.5,-93.5 526.5,-65.5 414.5,-65.5"/>
<text text-anchor="start" x="422.5" y="-82.3" font-family="Helvetica,sans-Serif" font-size="9.00">ParallelRngManager</text>
<text text-anchor="middle" x="470.5" y="-72.3" font-family="Helvetica,sans-Serif" font-size="9.00">/ParallelRngManager.h</text>
</g>
<!-- Node14&#45;&gt;Node17 -->
<g id="edge19" class="edge"><title>Node14&#45;&gt;Node17</title>
<path fill="none" stroke="midnightblue" d="M366.325,-130.435C383.711,-122.101 411.403,-108.828 433.866,-98.0599"/>
<polygon fill="midnightblue" stroke="midnightblue" points="435.624,-101.099 443.128,-93.6203 432.598,-94.7867 435.624,-101.099"/>
</g>
</g>
</svg>
        <g id="navigator" transform="translate(0 0)" fill="#404254">
                <rect fill="#f2f5e9" fill-opacity="0.5" stroke="#606060" stroke-width=".5" x="0" y="0" width="60" height="60"/>
                <use id="zoomplus" xlink:href="#zoomPlus" x="17" y="9" onmousedown="handleZoom(evt,'in')"/>
                <use id="zoomminus" xlink:href="#zoomMin" x="42" y="9" onmousedown="handleZoom(evt,'out')"/>
                <use id="reset" xlink:href="#resetDef" x="30" y="36" onmousedown="handleReset()"/>
                <g id="arrowUp" xlink:href="#dirArrow" transform="translate(30 24)" onmousedown="handlePan(0,-1)">
                  <use xlink:href="#rim" fill="#404040">
                        <set attributeName="fill" to="#808080" begin="arrowUp.mouseover" end="arrowUp.mouseout"/>
                  </use>
                  <path fill="none" stroke="white" stroke-width="1.5" d="M0,-3.0v7 M-2.5,-0.5L0,-3.0L2.5,-0.5"/>
                </g>
                <g id="arrowRight" xlink:href="#dirArrow" transform="rotate(90) translate(36 -43)" onmousedown="handlePan(1,0)">
                  <use xlink:href="#rim" fill="#404040">
                        <set attributeName="fill" to="#808080" begin="arrowRight.mouseover" end="arrowRight.mouseout"/>
                  </use>
                  <path fill="none" stroke="white" stroke-width="1.5" d="M0,-3.0v7 M-2.5,-0.5L0,-3.0L2.5,-0.5"/>
                </g>
                <g id="arrowDown" xlink:href="#dirArrow" transform="rotate(180) translate(-30 -48)" onmousedown="handlePan(0,1)">
                  <use xlink:href="#rim" fill="#404040">
                        <set attributeName="fill" to="#808080" begin="arrowDown.mouseover" end="arrowDown.mouseout"/>
                  </use>
                  <path fill="none" stroke="white" stroke-width="1.5" d="M0,-3.0v7 M-2.5,-0.5L0,-3.0L2.5,-0.5"/>
                </g>
                <g id="arrowLeft" xlink:href="#dirArrow" transform="rotate(270) translate(-36 17)" onmousedown="handlePan(-1,0)">
                  <use xlink:href="#rim" fill="#404040">
                        <set attributeName="fill" to="#808080" begin="arrowLeft.mouseover" end="arrowLeft.mouseout"/>
                  </use>
                  <path fill="none" stroke="white" stroke-width="1.5" d="M0,-3.0v7 M-2.5,-0.5L0,-3.0L2.5,-0.5"/>
                </g>
        </g>
        <svg viewBox="0 0 15 15" width="100%" height="30px" preserveAspectRatio="xMaxYMin meet">
         <g id="arrow_out" transform="scale(0.3 0.3)">
          <a xlink:href="openmp__methods_8h__incl_org.svg" target="_base">
           <rect id="button" ry="5" rx="5" y="6" x="6" height="38" width="38"
                fill="#f2f5e9" fill-opacity="0.5" stroke="#606060" stroke-width="1.0"/>
           <path id="arrow"
             d="M 11.500037,31.436501 C 11.940474,20.09759 22.043105,11.32322 32.158766,21.979434 L 37.068811,17.246167 C 37.068811,17.246167 37.088388,32 37.088388,32 L 22.160133,31.978069 C 22.160133,31.978069 26.997745,27.140456 26.997745,27.140456 C 18.528582,18.264221 13.291696,25.230495 11.500037,31.436501 z"
             style="fill:#404040;"/>
          </a>
         </g>
        </svg>
</svg>
