<?xml version="1.0" encoding="UTF-8" standalone="no"?>
<!DOCTYPE svg PUBLIC "-//W3C//DTD SVG 1.1//EN"
 "http://www.w3.org/Graphics/SVG/1.1/DTD/svg11.dtd">
<!-- Generated by graphviz version 2.38.0 (20140413.2041)
 -->
<!-- Title: openmp_methods.h Pages: 1 -->
<!--zoomable 302 -->
<svg id="main" version="1.1" xmlns="http://www.w3.org/2000/svg" xmlns:xlink="http://www.w3.org/1999/xlink" xml:space="preserve" onload="init(evt)">
<style type="text/css"><![CDATA[
.edge:hover path { stroke: red; }
.edge:hover polygon { stroke: red; fill: red; }
]]></style>
<script type="text/javascript"><![CDATA[
var edges = document.getElementsByTagName('g');
if (edges && edges.length) {
  for (var i=0;i<edges.length;i++) {
    if (edges[i].id.substr(0,4)=='edge') {
      edges[i].setAttribute('class','edge');
    }
  }
}
]]></script>
        <defs>
                <circle id="rim" cx="0" cy="0" r="7"/>
                <circle id="rim2" cx="0" cy="0" r="3.5"/>
                <g id="zoomPlus">
                        <use xlink:href="#rim" fill="#404040">
                                <set attributeName="fill" to="#808080" begin="zoomplus.mouseover" end="zoomplus.mouseout"/>
                        </use>
                        <path d="M-4,0h8M0,-4v8" fill="none" stroke="white" stroke-width="1.5" pointer-events="none"/>
                </g>
                <g id="zoomMin">
                        <use xlink:href="#rim" fill="#404040">
                                <set attributeName="fill" to="#808080" begin="zoomminus.mouseover" end="zoomminus.mouseout"/>
                        </use>
                        <path d="M-4,0h8" fill="none" stroke="white" stroke-width="1.5" pointer-events="none"/>
                </g>
                <g id="dirArrow">
                        <path fill="none" stroke="white" stroke-width="1.5" d="M0,-3.0v7 M-2.5,-0.5L0,-3.0L2.5,-0.5"/>
                </g>
               <g id="resetDef">
                       <use xlink:href="#rim2" fill="#404040">
                               <set attributeName="fill" to="#808080" begin="reset.mouseover" end="reset.mouseout"/>
                       </use>
               </g>
        </defs>

<script type="text/javascript">
var viewWidth = 1150;
var viewHeight = 302;
var sectionId = 'dynsection-1';
</script>
<script xlink:href="svgpan.js"/>
<svg id="graph" class="graph">
<g id="viewport">
<title>openmp_methods.h</title>
<polygon fill="white" stroke="none" points="-4,4 -4,-298 1145.5,-298 1145.5,4 -4,4"/>
<!-- Node1 -->
<g id="node1" class="node"><title>Node1</title>
<polygon fill="#bfbfbf" stroke="black" points="633,-275.5 633,-293.5 731,-293.5 731,-275.5 633,-275.5"/>
<text text-anchor="middle" x="682" y="-282.3" font-family="Helvetica,sans-Serif" font-size="9.00">openmp_methods.h</text>
</g>
<!-- Node2 -->
<g id="node2" class="node"><title>Node2</title>
<g id="a_node2"><a xlink:href="model__methods_8h.html" target="_top" xlink:title="model_methods.h">
<polygon fill="white" stroke="black" points="637,-220.5 637,-238.5 727,-238.5 727,-220.5 637,-220.5"/>
<text text-anchor="middle" x="682" y="-227.3" font-family="Helvetica,sans-Serif" font-size="9.00">model_methods.h</text>
</a>
</g>
</g>
<!-- Node1&#45;&gt;Node2 -->
<g id="edge1" class="edge"><title>Node1&#45;&gt;Node2</title>
<path fill="none" stroke="midnightblue" d="M682,-265.175C682,-256.094 682,-245.595 682,-238.55"/>
<polygon fill="midnightblue" stroke="midnightblue" points="678.5,-265.219 682,-275.219 685.5,-265.219 678.5,-265.219"/>
</g>
<!-- Node3 -->
<g id="node3" class="node"><title>Node3</title>
<g id="a_node3"><a xlink:href="Gauss1DMAP_8h.html" target="_top" xlink:title="The class declaration and inline and templated functions for Gauss1DMAP. ">
<polygon fill="white" stroke="black" points="179,-165.5 179,-183.5 261,-183.5 261,-165.5 179,-165.5"/>
<text text-anchor="middle" x="220" y="-172.3" font-family="Helvetica,sans-Serif" font-size="9.00">Gauss1DMAP.h</text>
</a>
</g>
</g>
<!-- Node2&#45;&gt;Node3 -->
<g id="edge2" class="edge"><title>Node2&#45;&gt;Node3</title>
<path fill="none" stroke="midnightblue" d="M626.719,-222.158C532.911,-211.397 344.637,-189.798 261.306,-180.239"/>
<polygon fill="midnightblue" stroke="midnightblue" points="626.527,-225.659 636.86,-223.322 627.324,-218.705 626.527,-225.659"/>
</g>
<!-- Node8 -->
<g id="node8" class="node"><title>Node8</title>
<g id="a_node8"><a xlink:href="Gauss2DMAP_8h.html" target="_top" xlink:title="The class declaration and inline and templated functions for Gauss2DMAP. ">
<polygon fill="white" stroke="black" points="238,-55.5 238,-73.5 320,-73.5 320,-55.5 238,-55.5"/>
<text text-anchor="middle" x="279" y="-62.3" font-family="Helvetica,sans-Serif" font-size="9.00">Gauss2DMAP.h</text>
</a>
</g>
</g>
<!-- Node2&#45;&gt;Node8 -->
<g id="edge24" class="edge"><title>Node2&#45;&gt;Node8</title>
<path fill="none" stroke="midnightblue" d="M626.701,-226.243C574.517,-222.389 495.09,-211.991 432,-184 399.447,-169.557 315.884,-97.769 288.121,-73.5185"/>
<polygon fill="midnightblue" stroke="midnightblue" points="626.547,-229.741 636.762,-226.93 627.024,-222.757 626.547,-229.741"/>
</g>
<!-- Node10 -->
<g id="node10" class="node"><title>Node10</title>
<g id="a_node10"><a xlink:href="Gauss2DMLE_8h.html" target="_top" xlink:title="The class declaration and inline and templated functions for Gauss2DMLE. ">
<polygon fill="white" stroke="black" points="343.5,-55.5 343.5,-73.5 424.5,-73.5 424.5,-55.5 343.5,-55.5"/>
<text text-anchor="middle" x="384" y="-62.3" font-family="Helvetica,sans-Serif" font-size="9.00">Gauss2DMLE.h</text>
</a>
</g>
</g>
<!-- Node2&#45;&gt;Node10 -->
<g id="edge25" class="edge"><title>Node2&#45;&gt;Node10</title>
<path fill="none" stroke="midnightblue" d="M626.692,-224.367C582.243,-219.334 519.17,-208.256 469,-184 434.624,-167.38 424.034,-160.868 403,-129 391.336,-111.329 386.624,-86.2558 384.896,-73.55"/>
<polygon fill="midnightblue" stroke="midnightblue" points="626.41,-227.856 636.725,-225.436 627.152,-220.896 626.41,-227.856"/>
</g>
<!-- Node12 -->
<g id="node12" class="node"><title>Node12</title>
<g id="a_node12"><a xlink:href="Gauss1DMLE_8h.html" target="_top" xlink:title="The class declaration and inline and templated functions for Gauss1DMLE. ">
<polygon fill="white" stroke="black" points="478.5,-165.5 478.5,-183.5 559.5,-183.5 559.5,-165.5 478.5,-165.5"/>
<text text-anchor="middle" x="519" y="-172.3" font-family="Helvetica,sans-Serif" font-size="9.00">Gauss1DMLE.h</text>
</a>
</g>
</g>
<!-- Node2&#45;&gt;Node12 -->
<g id="edge11" class="edge"><title>Node2&#45;&gt;Node12</title>
<path fill="none" stroke="midnightblue" d="M647.671,-217.338C616.549,-207.218 571.432,-192.549 543.722,-183.538"/>
<polygon fill="midnightblue" stroke="midnightblue" points="646.652,-220.687 657.244,-220.45 648.816,-214.03 646.652,-220.687"/>
</g>
<!-- Node14 -->
<g id="node14" class="node"><title>Node14</title>
<g id="a_node14"><a xlink:href="Gauss1DsMAP_8h.html" target="_top" xlink:title="The class declaration and inline and templated functions for Gauss1DsMAP. ">
<polygon fill="white" stroke="black" points="639,-165.5 639,-183.5 725,-183.5 725,-165.5 639,-165.5"/>
<text text-anchor="middle" x="682" y="-172.3" font-family="Helvetica,sans-Serif" font-size="9.00">Gauss1DsMAP.h</text>
</a>
</g>
</g>
<!-- Node2&#45;&gt;Node14 -->
<g id="edge13" class="edge"><title>Node2&#45;&gt;Node14</title>
<path fill="none" stroke="midnightblue" d="M682,-210.175C682,-201.094 682,-190.595 682,-183.55"/>
<polygon fill="midnightblue" stroke="midnightblue" points="678.5,-210.219 682,-220.219 685.5,-210.219 678.5,-210.219"/>
</g>
<!-- Node18 -->
<g id="node18" class="node"><title>Node18</title>
<g id="a_node18"><a xlink:href="Gauss2DsMAP_8h.html" target="_top" xlink:title="The class declaration and inline and templated functions for Gauss2DsMAP. ">
<polygon fill="white" stroke="black" points="754,-55.5 754,-73.5 840,-73.5 840,-55.5 754,-55.5"/>
<text text-anchor="middle" x="797" y="-62.3" font-family="Helvetica,sans-Serif" font-size="9.00">Gauss2DsMAP.h</text>
</a>
</g>
</g>
<!-- Node2&#45;&gt;Node18 -->
<g id="edge26" class="edge"><title>Node2&#45;&gt;Node18</title>
<path fill="none" stroke="midnightblue" d="M724.78,-217.491C766.602,-204.196 827.952,-177.348 856,-129 869.29,-106.091 836.42,-84.6679 814.578,-73.516"/>
<polygon fill="midnightblue" stroke="midnightblue" points="723.673,-214.169 715.126,-220.431 725.712,-220.866 723.673,-214.169"/>
</g>
<!-- Node20 -->
<g id="node20" class="node"><title>Node20</title>
<g id="a_node20"><a xlink:href="Gauss2DsMLE_8h.html" target="_top" xlink:title="The class declaration and inline and templated functions for Gauss2DsMLE. ">
<polygon fill="white" stroke="black" points="869,-55.5 869,-73.5 955,-73.5 955,-55.5 869,-55.5"/>
<text text-anchor="middle" x="912" y="-62.3" font-family="Helvetica,sans-Serif" font-size="9.00">Gauss2DsMLE.h</text>
</a>
</g>
</g>
<!-- Node2&#45;&gt;Node20 -->
<g id="edge27" class="edge"><title>Node2&#45;&gt;Node20</title>
<path fill="none" stroke="midnightblue" d="M736.975,-219.569C765.59,-213.036 800.113,-202.058 827,-184 870.507,-154.78 899.23,-95.3361 908.632,-73.6507"/>
<polygon fill="midnightblue" stroke="midnightblue" points="736.157,-216.165 727.123,-221.699 737.636,-223.007 736.157,-216.165"/>
</g>
<!-- Node23 -->
<g id="node23" class="node"><title>Node23</title>
<g id="a_node23"><a xlink:href="Gauss1DsMLE_8h.html" target="_top" xlink:title="The class declaration and inline and templated functions for Gauss1DsMLE. ">
<polygon fill="white" stroke="black" points="942,-165.5 942,-183.5 1028,-183.5 1028,-165.5 942,-165.5"/>
<text text-anchor="middle" x="985" y="-172.3" font-family="Helvetica,sans-Serif" font-size="9.00">Gauss1DsMLE.h</text>
</a>
</g>
</g>
<!-- Node2&#45;&gt;Node23 -->
<g id="edge22" class="edge"><title>Node2&#45;&gt;Node23</title>
<path fill="none" stroke="midnightblue" d="M736.89,-218.899C795.683,-208.615 887.782,-192.505 941.684,-183.077"/>
<polygon fill="midnightblue" stroke="midnightblue" points="736.282,-215.452 727.035,-220.623 737.489,-222.347 736.282,-215.452"/>
</g>
<!-- Node25 -->
<g id="node25" class="node"><title>Node25</title>
<g id="a_node25"><a xlink:href="Gauss2DsxyMAP_8h.html" target="_top" xlink:title="The class declaration and inline and templated functions for Gauss2DsxyMAP. ">
<polygon fill="white" stroke="black" points="1046.5,-165.5 1046.5,-183.5 1141.5,-183.5 1141.5,-165.5 1046.5,-165.5"/>
<text text-anchor="middle" x="1094" y="-172.3" font-family="Helvetica,sans-Serif" font-size="9.00">Gauss2DsxyMAP.h</text>
</a>
</g>
</g>
<!-- Node2&#45;&gt;Node25 -->
<g id="edge28" class="edge"><title>Node2&#45;&gt;Node25</title>
<path fill="none" stroke="midnightblue" d="M737.486,-221.951C807.396,-213.606 931.202,-198.517 1037,-184 1040.07,-183.578 1043.24,-183.134 1046.43,-182.679"/>
<polygon fill="midnightblue" stroke="midnightblue" points="736.671,-218.523 727.156,-223.182 737.499,-225.474 736.671,-218.523"/>
</g>
<!-- Node4 -->
<g id="node4" class="node"><title>Node4</title>
<g id="a_node4"><a xlink:href="estimator__statics_8cpp.html" target="_top" xlink:title="estimator_statics.cpp">
<polygon fill="white" stroke="black" points="0,-110.5 0,-128.5 102,-128.5 102,-110.5 0,-110.5"/>
<text text-anchor="middle" x="51" y="-117.3" font-family="Helvetica,sans-Serif" font-size="9.00">estimator_statics.cpp</text>
</a>
</g>
</g>
<!-- Node3&#45;&gt;Node4 -->
<g id="edge3" class="edge"><title>Node3&#45;&gt;Node4</title>
<path fill="none" stroke="midnightblue" d="M184.407,-162.338C152.14,-152.218 105.362,-137.549 76.6316,-128.538"/>
<polygon fill="midnightblue" stroke="midnightblue" points="183.743,-165.798 194.333,-165.45 185.838,-159.118 183.743,-165.798"/>
</g>
<!-- Node5 -->
<g id="node5" class="node"><title>Node5</title>
<g id="a_node5"><a xlink:href="Gauss1DMAP_8cpp.html" target="_top" xlink:title="The class definition and template Specializations for Gauss1DMAP. ">
<polygon fill="white" stroke="black" points="120,-110.5 120,-128.5 212,-128.5 212,-110.5 120,-110.5"/>
<text text-anchor="middle" x="166" y="-117.3" font-family="Helvetica,sans-Serif" font-size="9.00">Gauss1DMAP.cpp</text>
</a>
</g>
</g>
<!-- Node3&#45;&gt;Node5 -->
<g id="edge4" class="edge"><title>Node3&#45;&gt;Node5</title>
<path fill="none" stroke="midnightblue" d="M204.32,-158.11C194.471,-148.444 182.169,-136.369 174.201,-128.55"/>
<polygon fill="midnightblue" stroke="midnightblue" points="201.974,-160.712 211.562,-165.219 206.877,-155.716 201.974,-160.712"/>
</g>
<!-- Node6 -->
<g id="node6" class="node"><title>Node6</title>
<g id="a_node6"><a xlink:href="Gauss2DModel_8h.html" target="_top" xlink:title="The class declaration and inline and templated functions for Gauss2DModel. ">
<polygon fill="white" stroke="black" points="230,-110.5 230,-128.5 318,-128.5 318,-110.5 230,-110.5"/>
<text text-anchor="middle" x="274" y="-117.3" font-family="Helvetica,sans-Serif" font-size="9.00">Gauss2DModel.h</text>
</a>
</g>
</g>
<!-- Node3&#45;&gt;Node6 -->
<g id="edge5" class="edge"><title>Node3&#45;&gt;Node6</title>
<path fill="none" stroke="midnightblue" d="M235.68,-158.11C245.529,-148.444 257.831,-136.369 265.799,-128.55"/>
<polygon fill="midnightblue" stroke="midnightblue" points="233.123,-155.716 228.438,-165.219 238.026,-160.712 233.123,-155.716"/>
</g>
<!-- Node7 -->
<g id="node7" class="node"><title>Node7</title>
<g id="a_node7"><a xlink:href="Gauss2DModel_8cpp.html" target="_top" xlink:title="The class definition and template Specializations for Gauss2DModel. ">
<polygon fill="white" stroke="black" points="122,-55.5 122,-73.5 220,-73.5 220,-55.5 122,-55.5"/>
<text text-anchor="middle" x="171" y="-62.3" font-family="Helvetica,sans-Serif" font-size="9.00">Gauss2DModel.cpp</text>
</a>
</g>
</g>
<!-- Node6&#45;&gt;Node7 -->
<g id="edge6" class="edge"><title>Node6&#45;&gt;Node7</title>
<path fill="none" stroke="midnightblue" d="M249.202,-105.74C229.801,-95.7567 203.41,-82.177 186.791,-73.6253"/>
<polygon fill="midnightblue" stroke="midnightblue" points="247.863,-108.987 258.357,-110.45 251.066,-102.763 247.863,-108.987"/>
</g>
<!-- Node6&#45;&gt;Node8 -->
<g id="edge7" class="edge"><title>Node6&#45;&gt;Node8</title>
<path fill="none" stroke="midnightblue" d="M275.729,-100.175C276.585,-91.0945 277.576,-80.5949 278.241,-73.5496"/>
<polygon fill="midnightblue" stroke="midnightblue" points="272.236,-99.9342 274.781,-110.219 279.205,-100.592 272.236,-99.9342"/>
</g>
<!-- Node6&#45;&gt;Node10 -->
<g id="edge9" class="edge"><title>Node6&#45;&gt;Node10</title>
<path fill="none" stroke="midnightblue" d="M299.917,-106.013C320.687,-96.0052 349.225,-82.2551 367.136,-73.6253"/>
<polygon fill="midnightblue" stroke="midnightblue" points="298.196,-102.957 290.707,-110.45 301.235,-109.263 298.196,-102.957"/>
</g>
<!-- Node9 -->
<g id="node9" class="node"><title>Node9</title>
<g id="a_node9"><a xlink:href="Gauss2DMAP_8cpp.html" target="_top" xlink:title="The class definition and template Specializations for Gauss2DMAP. ">
<polygon fill="white" stroke="black" points="231,-0.5 231,-18.5 323,-18.5 323,-0.5 231,-0.5"/>
<text text-anchor="middle" x="277" y="-7.3" font-family="Helvetica,sans-Serif" font-size="9.00">Gauss2DMAP.cpp</text>
</a>
</g>
</g>
<!-- Node8&#45;&gt;Node9 -->
<g id="edge8" class="edge"><title>Node8&#45;&gt;Node9</title>
<path fill="none" stroke="midnightblue" d="M278.308,-45.1746C277.966,-36.0945 277.57,-25.5949 277.304,-18.5496"/>
<polygon fill="midnightblue" stroke="midnightblue" points="274.813,-45.3579 278.688,-55.2188 281.808,-45.0938 274.813,-45.3579"/>
</g>
<!-- Node11 -->
<g id="node11" class="node"><title>Node11</title>
<g id="a_node11"><a xlink:href="Gauss2DMLE_8cpp.html" target="_top" xlink:title="The class definition and template Specializations for Gauss2DMLE. ">
<polygon fill="white" stroke="black" points="341.5,-0.5 341.5,-18.5 432.5,-18.5 432.5,-0.5 341.5,-0.5"/>
<text text-anchor="middle" x="387" y="-7.3" font-family="Helvetica,sans-Serif" font-size="9.00">Gauss2DMLE.cpp</text>
</a>
</g>
</g>
<!-- Node10&#45;&gt;Node11 -->
<g id="edge10" class="edge"><title>Node10&#45;&gt;Node11</title>
<path fill="none" stroke="midnightblue" d="M385.037,-45.1746C385.551,-36.0945 386.146,-25.5949 386.544,-18.5496"/>
<polygon fill="midnightblue" stroke="midnightblue" points="381.54,-45.0369 384.469,-55.2188 388.528,-45.4326 381.54,-45.0369"/>
</g>
<!-- Node13 -->
<g id="node13" class="node"><title>Node13</title>
<g id="a_node13"><a xlink:href="Gauss1DMLE_8cpp.html" target="_top" xlink:title="The class definition and template Specializations for Gauss1DMLE. ">
<polygon fill="white" stroke="black" points="412.5,-110.5 412.5,-128.5 503.5,-128.5 503.5,-110.5 412.5,-110.5"/>
<text text-anchor="middle" x="458" y="-117.3" font-family="Helvetica,sans-Serif" font-size="9.00">Gauss1DMLE.cpp</text>
</a>
</g>
</g>
<!-- Node12&#45;&gt;Node13 -->
<g id="edge12" class="edge"><title>Node12&#45;&gt;Node13</title>
<path fill="none" stroke="midnightblue" d="M501.898,-158.641C490.71,-148.92 476.52,-136.591 467.352,-128.625"/>
<polygon fill="midnightblue" stroke="midnightblue" points="499.891,-161.534 509.735,-165.45 504.482,-156.25 499.891,-161.534"/>
</g>
<!-- Node15 -->
<g id="node15" class="node"><title>Node15</title>
<g id="a_node15"><a xlink:href="Gauss1DsMAP_8cpp.html" target="_top" xlink:title="The class definition and template Specializations for Gauss1DsMAP. ">
<polygon fill="white" stroke="black" points="522,-110.5 522,-128.5 618,-128.5 618,-110.5 522,-110.5"/>
<text text-anchor="middle" x="570" y="-117.3" font-family="Helvetica,sans-Serif" font-size="9.00">Gauss1DsMAP.cpp</text>
</a>
</g>
</g>
<!-- Node14&#45;&gt;Node15 -->
<g id="edge14" class="edge"><title>Node14&#45;&gt;Node15</title>
<path fill="none" stroke="midnightblue" d="M655.898,-161.148C634.727,-151.13 605.489,-137.294 587.17,-128.625"/>
<polygon fill="midnightblue" stroke="midnightblue" points="654.453,-164.337 664.99,-165.45 657.448,-158.009 654.453,-164.337"/>
</g>
<!-- Node16 -->
<g id="node16" class="node"><title>Node16</title>
<g id="a_node16"><a xlink:href="Gauss2DsModel_8h.html" target="_top" xlink:title="The class declaration and inline and templated functions for Gauss2DsModel. ">
<polygon fill="white" stroke="black" points="636,-110.5 636,-128.5 728,-128.5 728,-110.5 636,-110.5"/>
<text text-anchor="middle" x="682" y="-117.3" font-family="Helvetica,sans-Serif" font-size="9.00">Gauss2DsModel.h</text>
</a>
</g>
</g>
<!-- Node14&#45;&gt;Node16 -->
<g id="edge15" class="edge"><title>Node14&#45;&gt;Node16</title>
<path fill="none" stroke="midnightblue" d="M682,-155.175C682,-146.094 682,-135.595 682,-128.55"/>
<polygon fill="midnightblue" stroke="midnightblue" points="678.5,-155.219 682,-165.219 685.5,-155.219 678.5,-155.219"/>
</g>
<!-- Node22 -->
<g id="node22" class="node"><title>Node22</title>
<g id="a_node22"><a xlink:href="Gauss2DsxyModel_8h.html" target="_top" xlink:title="The class declaration and inline and templated functions for Gauss2DsxyModel. ">
<polygon fill="white" stroke="black" points="746.5,-110.5 746.5,-128.5 847.5,-128.5 847.5,-110.5 746.5,-110.5"/>
<text text-anchor="middle" x="797" y="-117.3" font-family="Helvetica,sans-Serif" font-size="9.00">Gauss2DsxyModel.h</text>
</a>
</g>
</g>
<!-- Node14&#45;&gt;Node22 -->
<g id="edge21" class="edge"><title>Node14&#45;&gt;Node22</title>
<path fill="none" stroke="midnightblue" d="M708.801,-161.148C730.539,-151.13 760.56,-137.294 779.37,-128.625"/>
<polygon fill="midnightblue" stroke="midnightblue" points="707.083,-158.086 699.466,-165.45 710.013,-164.443 707.083,-158.086"/>
</g>
<!-- Node17 -->
<g id="node17" class="node"><title>Node17</title>
<g id="a_node17"><a xlink:href="Gauss2DsModel_8cpp.html" target="_top" xlink:title="The class definition and template Specializations for Gauss2DsModel. ">
<polygon fill="white" stroke="black" points="631,-55.5 631,-73.5 733,-73.5 733,-55.5 631,-55.5"/>
<text text-anchor="middle" x="682" y="-62.3" font-family="Helvetica,sans-Serif" font-size="9.00">Gauss2DsModel.cpp</text>
</a>
</g>
</g>
<!-- Node16&#45;&gt;Node17 -->
<g id="edge16" class="edge"><title>Node16&#45;&gt;Node17</title>
<path fill="none" stroke="midnightblue" d="M682,-100.175C682,-91.0945 682,-80.5949 682,-73.5496"/>
<polygon fill="midnightblue" stroke="midnightblue" points="678.5,-100.219 682,-110.219 685.5,-100.219 678.5,-100.219"/>
</g>
<!-- Node16&#45;&gt;Node18 -->
<g id="edge17" class="edge"><title>Node16&#45;&gt;Node18</title>
<path fill="none" stroke="midnightblue" d="M708.801,-106.148C730.539,-96.1297 760.56,-82.2941 779.37,-73.6253"/>
<polygon fill="midnightblue" stroke="midnightblue" points="707.083,-103.086 699.466,-110.45 710.013,-109.443 707.083,-103.086"/>
</g>
<!-- Node16&#45;&gt;Node20 -->
<g id="edge19" class="edge"><title>Node16&#45;&gt;Node20</title>
<path fill="none" stroke="midnightblue" d="M726.781,-108.181C770.752,-98.0484 836.916,-82.8021 877.117,-73.5383"/>
<polygon fill="midnightblue" stroke="midnightblue" points="725.891,-104.794 716.932,-110.45 727.463,-111.615 725.891,-104.794"/>
</g>
<!-- Node19 -->
<g id="node19" class="node"><title>Node19</title>
<g id="a_node19"><a xlink:href="Gauss2DsMAP_8cpp.html" target="_top" xlink:title="The class definition and template Specializations for Gauss2DsMAP. ">
<polygon fill="white" stroke="black" points="749,-0.5 749,-18.5 845,-18.5 845,-0.5 749,-0.5"/>
<text text-anchor="middle" x="797" y="-7.3" font-family="Helvetica,sans-Serif" font-size="9.00">Gauss2DsMAP.cpp</text>
</a>
</g>
</g>
<!-- Node18&#45;&gt;Node19 -->
<g id="edge18" class="edge"><title>Node18&#45;&gt;Node19</title>
<path fill="none" stroke="midnightblue" d="M797,-45.1746C797,-36.0945 797,-25.5949 797,-18.5496"/>
<polygon fill="midnightblue" stroke="midnightblue" points="793.5,-45.2187 797,-55.2188 800.5,-45.2188 793.5,-45.2187"/>
</g>
<!-- Node21 -->
<g id="node21" class="node"><title>Node21</title>
<g id="a_node21"><a xlink:href="Gauss2DsMLE_8cpp.html" target="_top" xlink:title="The class definition and template Specializations for Gauss2DsMLE. ">
<polygon fill="white" stroke="black" points="864.5,-0.5 864.5,-18.5 959.5,-18.5 959.5,-0.5 864.5,-0.5"/>
<text text-anchor="middle" x="912" y="-7.3" font-family="Helvetica,sans-Serif" font-size="9.00">Gauss2DsMLE.cpp</text>
</a>
</g>
</g>
<!-- Node20&#45;&gt;Node21 -->
<g id="edge20" class="edge"><title>Node20&#45;&gt;Node21</title>
<path fill="none" stroke="midnightblue" d="M912,-45.1746C912,-36.0945 912,-25.5949 912,-18.5496"/>
<polygon fill="midnightblue" stroke="midnightblue" points="908.5,-45.2187 912,-55.2188 915.5,-45.2188 908.5,-45.2187"/>
</g>
<!-- Node24 -->
<g id="node24" class="node"><title>Node24</title>
<g id="a_node24"><a xlink:href="Gauss1DsMLE_8cpp.html" target="_top" xlink:title="The class definition and template Specializations for Gauss1DsMLE. ">
<polygon fill="white" stroke="black" points="942.5,-110.5 942.5,-128.5 1037.5,-128.5 1037.5,-110.5 942.5,-110.5"/>
<text text-anchor="middle" x="990" y="-117.3" font-family="Helvetica,sans-Serif" font-size="9.00">Gauss1DsMLE.cpp</text>
</a>
</g>
</g>
<!-- Node23&#45;&gt;Node24 -->
<g id="edge23" class="edge"><title>Node23&#45;&gt;Node24</title>
<path fill="none" stroke="midnightblue" d="M986.729,-155.175C987.585,-146.094 988.576,-135.595 989.241,-128.55"/>
<polygon fill="midnightblue" stroke="midnightblue" points="983.236,-154.934 985.781,-165.219 990.205,-155.592 983.236,-154.934"/>
</g>
</g>
</svg>
        <g id="navigator" transform="translate(0 0)" fill="#404254">
                <rect fill="#f2f5e9" fill-opacity="0.5" stroke="#606060" stroke-width=".5" x="0" y="0" width="60" height="60"/>
                <use id="zoomplus" xlink:href="#zoomPlus" x="17" y="9" onmousedown="handleZoom(evt,'in')"/>
                <use id="zoomminus" xlink:href="#zoomMin" x="42" y="9" onmousedown="handleZoom(evt,'out')"/>
                <use id="reset" xlink:href="#resetDef" x="30" y="36" onmousedown="handleReset()"/>
                <g id="arrowUp" xlink:href="#dirArrow" transform="translate(30 24)" onmousedown="handlePan(0,-1)">
                  <use xlink:href="#rim" fill="#404040">
                        <set attributeName="fill" to="#808080" begin="arrowUp.mouseover" end="arrowUp.mouseout"/>
                  </use>
                  <path fill="none" stroke="white" stroke-width="1.5" d="M0,-3.0v7 M-2.5,-0.5L0,-3.0L2.5,-0.5"/>
                </g>
                <g id="arrowRight" xlink:href="#dirArrow" transform="rotate(90) translate(36 -43)" onmousedown="handlePan(1,0)">
                  <use xlink:href="#rim" fill="#404040">
                        <set attributeName="fill" to="#808080" begin="arrowRight.mouseover" end="arrowRight.mouseout"/>
                  </use>
                  <path fill="none" stroke="white" stroke-width="1.5" d="M0,-3.0v7 M-2.5,-0.5L0,-3.0L2.5,-0.5"/>
                </g>
                <g id="arrowDown" xlink:href="#dirArrow" transform="rotate(180) translate(-30 -48)" onmousedown="handlePan(0,1)">
                  <use xlink:href="#rim" fill="#404040">
                        <set attributeName="fill" to="#808080" begin="arrowDown.mouseover" end="arrowDown.mouseout"/>
                  </use>
                  <path fill="none" stroke="white" stroke-width="1.5" d="M0,-3.0v7 M-2.5,-0.5L0,-3.0L2.5,-0.5"/>
                </g>
                <g id="arrowLeft" xlink:href="#dirArrow" transform="rotate(270) translate(-36 17)" onmousedown="handlePan(-1,0)">
                  <use xlink:href="#rim" fill="#404040">
                        <set attributeName="fill" to="#808080" begin="arrowLeft.mouseover" end="arrowLeft.mouseout"/>
                  </use>
                  <path fill="none" stroke="white" stroke-width="1.5" d="M0,-3.0v7 M-2.5,-0.5L0,-3.0L2.5,-0.5"/>
                </g>
        </g>
        <svg viewBox="0 0 15 15" width="100%" height="30px" preserveAspectRatio="xMaxYMin meet">
         <g id="arrow_out" transform="scale(0.3 0.3)">
          <a xlink:href="openmp__methods_8h__dep__incl_org.svg" target="_base">
           <rect id="button" ry="5" rx="5" y="6" x="6" height="38" width="38"
                fill="#f2f5e9" fill-opacity="0.5" stroke="#606060" stroke-width="1.0"/>
           <path id="arrow"
             d="M 11.500037,31.436501 C 11.940474,20.09759 22.043105,11.32322 32.158766,21.979434 L 37.068811,17.246167 C 37.068811,17.246167 37.088388,32 37.088388,32 L 22.160133,31.978069 C 22.160133,31.978069 26.997745,27.140456 26.997745,27.140456 C 18.528582,18.264221 13.291696,25.230495 11.500037,31.436501 z"
             style="fill:#404040;"/>
          </a>
         </g>
        </svg>
</svg>
