<?xml version="1.0" encoding="UTF-8" standalone="no"?>
<!DOCTYPE svg PUBLIC "-//W3C//DTD SVG 1.1//EN"
 "http://www.w3.org/Graphics/SVG/1.1/DTD/svg11.dtd">
<!-- Generated by graphviz version 2.38.0 (20140413.2041)
 -->
<!-- Title: PointEmitterModel.cpp Pages: 1 -->
<!--zoomable 332 -->
<svg id="main" version="1.1" xmlns="http://www.w3.org/2000/svg" xmlns:xlink="http://www.w3.org/1999/xlink" xml:space="preserve" onload="init(evt)">
<style type="text/css"><![CDATA[
.edge:hover path { stroke: red; }
.edge:hover polygon { stroke: red; fill: red; }
]]></style>
<script type="text/javascript"><![CDATA[
var edges = document.getElementsByTagName('g');
if (edges && edges.length) {
  for (var i=0;i<edges.length;i++) {
    if (edges[i].id.substr(0,4)=='edge') {
      edges[i].setAttribute('class','edge');
    }
  }
}
]]></script>
        <defs>
                <circle id="rim" cx="0" cy="0" r="7"/>
                <circle id="rim2" cx="0" cy="0" r="3.5"/>
                <g id="zoomPlus">
                        <use xlink:href="#rim" fill="#404040">
                                <set attributeName="fill" to="#808080" begin="zoomplus.mouseover" end="zoomplus.mouseout"/>
                        </use>
                        <path d="M-4,0h8M0,-4v8" fill="none" stroke="white" stroke-width="1.5" pointer-events="none"/>
                </g>
                <g id="zoomMin">
                        <use xlink:href="#rim" fill="#404040">
                                <set attributeName="fill" to="#808080" begin="zoomminus.mouseover" end="zoomminus.mouseout"/>
                        </use>
                        <path d="M-4,0h8" fill="none" stroke="white" stroke-width="1.5" pointer-events="none"/>
                </g>
                <g id="dirArrow">
                        <path fill="none" stroke="white" stroke-width="1.5" d="M0,-3.0v7 M-2.5,-0.5L0,-3.0L2.5,-0.5"/>
                </g>
               <g id="resetDef">
                       <use xlink:href="#rim2" fill="#404040">
                               <set attributeName="fill" to="#808080" begin="reset.mouseover" end="reset.mouseout"/>
                       </use>
               </g>
        </defs>

<script type="text/javascript">
var viewWidth = 1328;
var viewHeight = 332;
var sectionId = 'dynsection-0';
</script>
<script xlink:href="svgpan.js"/>
<svg id="graph" class="graph">
<g id="viewport">
<title>PointEmitterModel.cpp</title>
<polygon fill="white" stroke="none" points="-4,4 -4,-328 1324.3,-328 1324.3,4 -4,4"/>
<!-- Node1 -->
<g id="node1" class="node"><title>Node1</title>
<polygon fill="#bfbfbf" stroke="black" points="417,-305.5 417,-323.5 526,-323.5 526,-305.5 417,-305.5"/>
<text text-anchor="middle" x="471.5" y="-312.3" font-family="Helvetica,sans-Serif" font-size="9.00">PointEmitterModel.cpp</text>
</g>
<!-- Node2 -->
<g id="node2" class="node"><title>Node2</title>
<polygon fill="white" stroke="#bfbfbf" points="0,-5.5 0,-23.5 41,-23.5 41,-5.5 0,-5.5"/>
<text text-anchor="middle" x="20.5" y="-12.3" font-family="Helvetica,sans-Serif" font-size="9.00">cmath</text>
</g>
<!-- Node1&#45;&gt;Node2 -->
<g id="edge1" class="edge"><title>Node1&#45;&gt;Node2</title>
<path fill="none" stroke="midnightblue" d="M416.934,-311.087C298.106,-304.342 26.5,-280.209 26.5,-200.5 26.5,-200.5 26.5,-200.5 26.5,-138.5 26.5,-101.203 23.7137,-57.6192 21.9386,-33.6373"/>
<polygon fill="midnightblue" stroke="midnightblue" points="25.4197,-33.2554 21.165,-23.5524 18.4402,-33.7908 25.4197,-33.2554"/>
</g>
<!-- Node3 -->
<g id="node3" class="node"><title>Node3</title>
<polygon fill="white" stroke="#bfbfbf" points="556,-250.5 556,-268.5 611,-268.5 611,-250.5 556,-250.5"/>
<text text-anchor="middle" x="583.5" y="-257.3" font-family="Helvetica,sans-Serif" font-size="9.00">algorithm</text>
</g>
<!-- Node1&#45;&gt;Node3 -->
<g id="edge2" class="edge"><title>Node1&#45;&gt;Node3</title>
<path fill="none" stroke="midnightblue" d="M488.51,-305.45C506.766,-296.812 535.994,-282.98 557.213,-272.94"/>
<polygon fill="midnightblue" stroke="midnightblue" points="558.788,-276.066 566.33,-268.625 555.793,-269.739 558.788,-276.066"/>
</g>
<!-- Node4 -->
<g id="node4" class="node"><title>Node4</title>
<g id="a_node4"><a xlink:href="PointEmitterModel_8h.html" target="_top" xlink:title="The class declaration and inline and templated functions for PointEmitterModel. ">
<polygon fill="white" stroke="black" points="405.5,-250.5 405.5,-268.5 537.5,-268.5 537.5,-250.5 405.5,-250.5"/>
<text text-anchor="middle" x="471.5" y="-257.3" font-family="Helvetica,sans-Serif" font-size="9.00">Mappel/PointEmitterModel.h</text>
</a>
</g>
</g>
<!-- Node1&#45;&gt;Node4 -->
<g id="edge3" class="edge"><title>Node1&#45;&gt;Node4</title>
<path fill="none" stroke="midnightblue" d="M471.5,-305.219C471.5,-298.177 471.5,-287.808 471.5,-278.828"/>
<polygon fill="midnightblue" stroke="midnightblue" points="475,-278.55 471.5,-268.55 468,-278.55 475,-278.55"/>
</g>
<!-- Node5 -->
<g id="node5" class="node"><title>Node5</title>
<polygon fill="white" stroke="#bfbfbf" points="856.5,-130.5 856.5,-148.5 908.5,-148.5 908.5,-130.5 856.5,-130.5"/>
<text text-anchor="middle" x="882.5" y="-137.3" font-family="Helvetica,sans-Serif" font-size="9.00">iostream</text>
</g>
<!-- Node4&#45;&gt;Node5 -->
<g id="edge4" class="edge"><title>Node4&#45;&gt;Node5</title>
<path fill="none" stroke="midnightblue" d="M442.424,-250.37C424.606,-243.719 403.223,-232.347 392.5,-214 385.996,-202.872 383.808,-194.517 392.5,-185 422.987,-151.619 738.14,-143.015 846.298,-141.038"/>
<polygon fill="midnightblue" stroke="midnightblue" points="846.459,-144.535 856.397,-140.861 846.337,-137.537 846.459,-144.535"/>
</g>
<!-- Node6 -->
<g id="node6" class="node"><title>Node6</title>
<polygon fill="white" stroke="#bfbfbf" points="512,-5.5 512,-23.5 551,-23.5 551,-5.5 512,-5.5"/>
<text text-anchor="middle" x="531.5" y="-12.3" font-family="Helvetica,sans-Serif" font-size="9.00">string</text>
</g>
<!-- Node4&#45;&gt;Node6 -->
<g id="edge5" class="edge"><title>Node4&#45;&gt;Node6</title>
<path fill="none" stroke="midnightblue" d="M436.557,-250.401C417.323,-243.965 395.068,-232.813 383.5,-214 376.749,-203.021 377.177,-196.231 383.5,-185 421.753,-117.052 495.247,-161.948 533.5,-94 543.924,-75.4843 540.914,-50.4168 536.964,-33.6385"/>
<polygon fill="midnightblue" stroke="midnightblue" points="540.339,-32.7113 534.364,-23.9619 533.579,-34.5276 540.339,-32.7113"/>
</g>
<!-- Node7 -->
<g id="node7" class="node"><title>Node7</title>
<polygon fill="white" stroke="#bfbfbf" points="1236,-5.5 1236,-23.5 1291,-23.5 1291,-5.5 1236,-5.5"/>
<text text-anchor="middle" x="1263.5" y="-12.3" font-family="Helvetica,sans-Serif" font-size="9.00">armadillo</text>
</g>
<!-- Node4&#45;&gt;Node7 -->
<g id="edge6" class="edge"><title>Node4&#45;&gt;Node7</title>
<path fill="none" stroke="midnightblue" d="M537.731,-250.757C540.693,-250.486 543.626,-250.231 546.5,-250 588.246,-246.64 1270.6,-244.313 1299.5,-214 1347.86,-163.27 1298.62,-70.5553 1274.81,-32.4948"/>
<polygon fill="midnightblue" stroke="midnightblue" points="1277.48,-30.1814 1269.13,-23.6697 1271.6,-33.9719 1277.48,-30.1814"/>
</g>
<!-- Node8 -->
<g id="node8" class="node"><title>Node8</title>
<polygon fill="white" stroke="#bfbfbf" points="401.5,-190.5 401.5,-208.5 541.5,-208.5 541.5,-190.5 401.5,-190.5"/>
<text text-anchor="middle" x="471.5" y="-197.3" font-family="Helvetica,sans-Serif" font-size="9.00">PriorHessian/CompositeDist.h</text>
</g>
<!-- Node4&#45;&gt;Node8 -->
<g id="edge7" class="edge"><title>Node4&#45;&gt;Node8</title>
<path fill="none" stroke="midnightblue" d="M471.5,-250.435C471.5,-242.389 471.5,-229.739 471.5,-219.185"/>
<polygon fill="midnightblue" stroke="midnightblue" points="475,-218.872 471.5,-208.872 468,-218.872 475,-218.872"/>
</g>
<!-- Node9 -->
<g id="node9" class="node"><title>Node9</title>
<polygon fill="white" stroke="#bfbfbf" points="560,-185.5 560,-213.5 703,-213.5 703,-185.5 560,-185.5"/>
<text text-anchor="start" x="568" y="-202.3" font-family="Helvetica,sans-Serif" font-size="9.00">PriorHessian/TruncatedNormal</text>
<text text-anchor="middle" x="631.5" y="-192.3" font-family="Helvetica,sans-Serif" font-size="9.00">Dist.h</text>
</g>
<!-- Node4&#45;&gt;Node9 -->
<g id="edge8" class="edge"><title>Node4&#45;&gt;Node9</title>
<path fill="none" stroke="midnightblue" d="M493.747,-250.435C517.534,-241.813 555.907,-227.903 586.118,-216.951"/>
<polygon fill="midnightblue" stroke="midnightblue" points="587.403,-220.208 595.612,-213.51 585.017,-213.627 587.403,-220.208"/>
</g>
<!-- Node10 -->
<g id="node10" class="node"><title>Node10</title>
<polygon fill="white" stroke="#bfbfbf" points="721,-185.5 721,-213.5 864,-213.5 864,-185.5 721,-185.5"/>
<text text-anchor="start" x="729" y="-202.3" font-family="Helvetica,sans-Serif" font-size="9.00">PriorHessian/ScaledSymmetric</text>
<text text-anchor="middle" x="792.5" y="-192.3" font-family="Helvetica,sans-Serif" font-size="9.00">BetaDist.h</text>
</g>
<!-- Node4&#45;&gt;Node10 -->
<g id="edge9" class="edge"><title>Node4&#45;&gt;Node10</title>
<path fill="none" stroke="midnightblue" d="M515.797,-250.496C565.976,-241.43 648.817,-226.461 710.802,-215.262"/>
<polygon fill="midnightblue" stroke="midnightblue" points="711.733,-218.65 720.951,-213.428 710.488,-211.762 711.733,-218.65"/>
</g>
<!-- Node11 -->
<g id="node11" class="node"><title>Node11</title>
<polygon fill="white" stroke="#bfbfbf" points="882.5,-185.5 882.5,-213.5 1028.5,-213.5 1028.5,-185.5 882.5,-185.5"/>
<text text-anchor="start" x="890.5" y="-202.3" font-family="Helvetica,sans-Serif" font-size="9.00">PriorHessian/TruncatedGamma</text>
<text text-anchor="middle" x="955.5" y="-192.3" font-family="Helvetica,sans-Serif" font-size="9.00">Dist.h</text>
</g>
<!-- Node4&#45;&gt;Node11 -->
<g id="edge10" class="edge"><title>Node4&#45;&gt;Node11</title>
<path fill="none" stroke="midnightblue" d="M537.752,-250.98C540.708,-250.648 543.635,-250.32 546.5,-250 688.544,-234.132 726.937,-233.886 872.038,-214.156"/>
<polygon fill="midnightblue" stroke="midnightblue" points="872.778,-217.588 882.212,-212.765 871.83,-210.653 872.778,-217.588"/>
</g>
<!-- Node12 -->
<g id="node12" class="node"><title>Node12</title>
<polygon fill="white" stroke="#bfbfbf" points="1046.5,-185.5 1046.5,-213.5 1186.5,-213.5 1186.5,-185.5 1046.5,-185.5"/>
<text text-anchor="start" x="1054.5" y="-202.3" font-family="Helvetica,sans-Serif" font-size="9.00">PriorHessian/TruncatedPareto</text>
<text text-anchor="middle" x="1116.5" y="-192.3" font-family="Helvetica,sans-Serif" font-size="9.00">Dist.h</text>
</g>
<!-- Node4&#45;&gt;Node12 -->
<g id="edge11" class="edge"><title>Node4&#45;&gt;Node12</title>
<path fill="none" stroke="midnightblue" d="M537.739,-250.849C540.699,-250.552 543.63,-250.268 546.5,-250 761.064,-229.983 818.567,-240.14 1036.19,-214.077"/>
<polygon fill="midnightblue" stroke="midnightblue" points="1036.83,-217.525 1046.34,-212.849 1035.99,-210.575 1036.83,-217.525"/>
</g>
<!-- Node13 -->
<g id="node13" class="node"><title>Node13</title>
<g id="a_node13"><a xlink:href="util_8h.html" target="_top" xlink:title="Mappel/util.h">
<polygon fill="white" stroke="black" points="145,-70.5 145,-88.5 214,-88.5 214,-70.5 145,-70.5"/>
<text text-anchor="middle" x="179.5" y="-77.3" font-family="Helvetica,sans-Serif" font-size="9.00">Mappel/util.h</text>
</a>
</g>
</g>
<!-- Node4&#45;&gt;Node13 -->
<g id="edge12" class="edge"><title>Node4&#45;&gt;Node13</title>
<path fill="none" stroke="midnightblue" d="M406.718,-250.5C373.465,-244.246 333.363,-233.238 301.5,-214 250.789,-183.381 208.559,-125.382 189.854,-96.9915"/>
<polygon fill="midnightblue" stroke="midnightblue" points="192.793,-95.0909 184.434,-88.5811 186.909,-98.8828 192.793,-95.0909"/>
</g>
<!-- Node20 -->
<g id="node20" class="node"><title>Node20</title>
<g id="a_node20"><a xlink:href="stencil_8h.html" target="_top" xlink:title="The stencils for pixel based computations. ">
<polygon fill="white" stroke="black" points="122,-190.5 122,-208.5 205,-208.5 205,-190.5 122,-190.5"/>
<text text-anchor="middle" x="163.5" y="-197.3" font-family="Helvetica,sans-Serif" font-size="9.00">Mappel/stencil.h</text>
</a>
</g>
</g>
<!-- Node4&#45;&gt;Node20 -->
<g id="edge22" class="edge"><title>Node4&#45;&gt;Node20</title>
<path fill="none" stroke="midnightblue" d="M420.643,-250.467C369.62,-242.185 288.867,-228.472 219.5,-214 214.85,-213.03 209.997,-211.955 205.178,-210.848"/>
<polygon fill="midnightblue" stroke="midnightblue" points="205.942,-207.432 195.406,-208.552 204.341,-214.246 205.942,-207.432"/>
</g>
<!-- Node22 -->
<g id="node22" class="node"><title>Node22</title>
<g id="a_node22"><a xlink:href="rng_8h.html" target="_top" xlink:title="Random number generation usign sfmt. ">
<polygon fill="white" stroke="black" points="262,-130.5 262,-148.5 333,-148.5 333,-130.5 262,-130.5"/>
<text text-anchor="middle" x="297.5" y="-137.3" font-family="Helvetica,sans-Serif" font-size="9.00">Mappel/rng.h</text>
</a>
</g>
</g>
<!-- Node4&#45;&gt;Node22 -->
<g id="edge35" class="edge"><title>Node4&#45;&gt;Node22</title>
<path fill="none" stroke="midnightblue" d="M405.488,-252.699C376.43,-246.979 343.887,-235.786 321.5,-214 306.493,-199.396 300.863,-175.297 298.755,-158.698"/>
<polygon fill="midnightblue" stroke="midnightblue" points="302.227,-158.234 297.787,-148.614 295.259,-158.903 302.227,-158.234"/>
</g>
<!-- Node26 -->
<g id="node26" class="node"><title>Node26</title>
<g id="a_node26"><a xlink:href="display_8h.html" target="_top" xlink:title="Mappel/display.h">
<polygon fill="white" stroke="black" points="1204.5,-190.5 1204.5,-208.5 1290.5,-208.5 1290.5,-190.5 1204.5,-190.5"/>
<text text-anchor="middle" x="1247.5" y="-197.3" font-family="Helvetica,sans-Serif" font-size="9.00">Mappel/display.h</text>
</a>
</g>
</g>
<!-- Node4&#45;&gt;Node26 -->
<g id="edge31" class="edge"><title>Node4&#45;&gt;Node26</title>
<path fill="none" stroke="midnightblue" d="M537.733,-250.785C540.694,-250.506 543.627,-250.242 546.5,-250 834.366,-225.724 910.063,-258.516 1195.5,-214 1200.55,-213.212 1205.83,-212.142 1211,-210.947"/>
<polygon fill="midnightblue" stroke="midnightblue" points="1211.86,-214.339 1220.72,-208.536 1210.18,-207.545 1211.86,-214.339"/>
</g>
<!-- Node13&#45;&gt;Node2 -->
<g id="edge14" class="edge"><title>Node13&#45;&gt;Node2</title>
<path fill="none" stroke="midnightblue" d="M156.759,-70.4029C130.653,-60.9787 86.6511,-44.6963 49.5,-29 48.5024,-28.5785 47.4886,-28.1429 46.4667,-27.6978"/>
<polygon fill="midnightblue" stroke="midnightblue" points="47.8319,-24.4741 37.2766,-23.5588 44.9572,-30.8566 47.8319,-24.4741"/>
</g>
<!-- Node13&#45;&gt;Node6 -->
<g id="edge17" class="edge"><title>Node13&#45;&gt;Node6</title>
<path fill="none" stroke="midnightblue" d="M202.966,-70.3614C209.254,-68.3932 216.088,-66.4435 222.5,-65 335.451,-39.573 367.001,-51.8545 480.5,-29 487.498,-27.5909 494.962,-25.7885 501.959,-23.9629"/>
<polygon fill="midnightblue" stroke="midnightblue" points="503.027,-27.3 511.77,-21.3147 501.203,-20.5419 503.027,-27.3"/>
</g>
<!-- Node13&#45;&gt;Node7 -->
<g id="edge20" class="edge"><title>Node13&#45;&gt;Node7</title>
<path fill="none" stroke="midnightblue" d="M201.547,-70.3866C208.194,-68.2664 215.567,-66.2321 222.5,-65 421.002,-29.7268 1062.8,-18.3541 1225.65,-16.0005"/>
<polygon fill="midnightblue" stroke="midnightblue" points="1225.73,-19.4999 1235.68,-15.8584 1225.63,-12.5006 1225.73,-19.4999"/>
</g>
<!-- Node14 -->
<g id="node14" class="node"><title>Node14</title>
<polygon fill="white" stroke="#bfbfbf" points="251,-5.5 251,-23.5 294,-23.5 294,-5.5 251,-5.5"/>
<text text-anchor="middle" x="272.5" y="-12.3" font-family="Helvetica,sans-Serif" font-size="9.00">cstdint</text>
</g>
<!-- Node13&#45;&gt;Node14 -->
<g id="edge13" class="edge"><title>Node13&#45;&gt;Node14</title>
<path fill="none" stroke="midnightblue" d="M191.658,-70.2639C207.06,-59.8305 233.818,-41.704 252.307,-29.1792"/>
<polygon fill="midnightblue" stroke="midnightblue" points="254.317,-32.0452 260.633,-23.539 250.391,-26.2498 254.317,-32.0452"/>
</g>
<!-- Node15 -->
<g id="node15" class="node"><title>Node15</title>
<polygon fill="white" stroke="#bfbfbf" points="312.5,-5.5 312.5,-23.5 362.5,-23.5 362.5,-5.5 312.5,-5.5"/>
<text text-anchor="middle" x="337.5" y="-12.3" font-family="Helvetica,sans-Serif" font-size="9.00">memory</text>
</g>
<!-- Node13&#45;&gt;Node15 -->
<g id="edge15" class="edge"><title>Node13&#45;&gt;Node15</title>
<path fill="none" stroke="midnightblue" d="M199.832,-70.3928C227.208,-59.4773 276.115,-39.9763 307.662,-27.3973"/>
<polygon fill="midnightblue" stroke="midnightblue" points="309.253,-30.531 317.246,-23.5761 306.661,-24.0288 309.253,-30.531"/>
</g>
<!-- Node16 -->
<g id="node16" class="node"><title>Node16</title>
<polygon fill="white" stroke="#bfbfbf" points="380.5,-5.5 380.5,-23.5 418.5,-23.5 418.5,-5.5 380.5,-5.5"/>
<text text-anchor="middle" x="399.5" y="-12.3" font-family="Helvetica,sans-Serif" font-size="9.00">utility</text>
</g>
<!-- Node13&#45;&gt;Node16 -->
<g id="edge16" class="edge"><title>Node13&#45;&gt;Node16</title>
<path fill="none" stroke="midnightblue" d="M204.427,-70.3626C210.33,-68.5223 216.619,-66.6317 222.5,-65 288.148,-46.7863 307.344,-51.9228 371.5,-29 372.701,-28.571 373.918,-28.1062 375.139,-27.6159"/>
<polygon fill="midnightblue" stroke="midnightblue" points="376.627,-30.7847 384.347,-23.5278 373.787,-24.3869 376.627,-30.7847"/>
</g>
<!-- Node17 -->
<g id="node17" class="node"><title>Node17</title>
<polygon fill="white" stroke="#bfbfbf" points="437,-5.5 437,-23.5 472,-23.5 472,-5.5 437,-5.5"/>
<text text-anchor="middle" x="454.5" y="-12.3" font-family="Helvetica,sans-Serif" font-size="9.00">map</text>
</g>
<!-- Node13&#45;&gt;Node17 -->
<g id="edge18" class="edge"><title>Node13&#45;&gt;Node17</title>
<path fill="none" stroke="midnightblue" d="M203.451,-70.3732C209.614,-68.45 216.266,-66.519 222.5,-65 312.375,-43.0991 339.654,-57.9886 427.5,-29 428.57,-28.6469 429.651,-28.2579 430.733,-27.8415"/>
<polygon fill="midnightblue" stroke="midnightblue" points="432.555,-30.8608 440.256,-23.5845 429.698,-24.4702 432.555,-30.8608"/>
</g>
<!-- Node18 -->
<g id="node18" class="node"><title>Node18</title>
<polygon fill="white" stroke="#bfbfbf" points="59,-5.5 59,-23.5 108,-23.5 108,-5.5 59,-5.5"/>
<text text-anchor="middle" x="83.5" y="-12.3" font-family="Helvetica,sans-Serif" font-size="9.00">sstream</text>
</g>
<!-- Node13&#45;&gt;Node18 -->
<g id="edge19" class="edge"><title>Node13&#45;&gt;Node18</title>
<path fill="none" stroke="midnightblue" d="M166.95,-70.2639C151.051,-59.8305 123.43,-41.704 104.345,-29.1792"/>
<polygon fill="midnightblue" stroke="midnightblue" points="106.031,-26.0994 95.7499,-23.539 102.19,-31.9518 106.031,-26.0994"/>
</g>
<!-- Node19 -->
<g id="node19" class="node"><title>Node19</title>
<polygon fill="white" stroke="#bfbfbf" points="126,-0.5 126,-28.5 233,-28.5 233,-0.5 126,-0.5"/>
<text text-anchor="start" x="134" y="-17.3" font-family="Helvetica,sans-Serif" font-size="9.00">BacktraceException</text>
<text text-anchor="middle" x="179.5" y="-7.3" font-family="Helvetica,sans-Serif" font-size="9.00">/BacktraceException.h</text>
</g>
<!-- Node13&#45;&gt;Node19 -->
<g id="edge21" class="edge"><title>Node13&#45;&gt;Node19</title>
<path fill="none" stroke="midnightblue" d="M179.5,-70.2639C179.5,-62.3591 179.5,-50.0383 179.5,-39.0835"/>
<polygon fill="midnightblue" stroke="midnightblue" points="183,-38.7981 179.5,-28.7981 176,-38.7982 183,-38.7981"/>
</g>
<!-- Node20&#45;&gt;Node2 -->
<g id="edge23" class="edge"><title>Node20&#45;&gt;Node2</title>
<path fill="none" stroke="midnightblue" d="M150.533,-190.383C136.932,-181.427 115.49,-166.01 100.5,-149 67.8546,-111.955 41.0511,-59.7714 28.3841,-32.9391"/>
<polygon fill="midnightblue" stroke="midnightblue" points="31.4805,-31.296 24.1064,-23.6885 25.1269,-34.234 31.4805,-31.296"/>
</g>
<!-- Node20&#45;&gt;Node13 -->
<g id="edge25" class="edge"><title>Node20&#45;&gt;Node13</title>
<path fill="none" stroke="midnightblue" d="M164.6,-190.389C167.146,-171.611 173.498,-124.768 177.031,-98.7111"/>
<polygon fill="midnightblue" stroke="midnightblue" points="180.517,-99.047 178.393,-88.6674 173.581,-98.1064 180.517,-99.047"/>
</g>
<!-- Node21 -->
<g id="node21" class="node"><title>Node21</title>
<polygon fill="white" stroke="#bfbfbf" points="109.5,-130.5 109.5,-148.5 151.5,-148.5 151.5,-130.5 109.5,-130.5"/>
<text text-anchor="middle" x="130.5" y="-137.3" font-family="Helvetica,sans-Serif" font-size="9.00">climits</text>
</g>
<!-- Node20&#45;&gt;Node21 -->
<g id="edge24" class="edge"><title>Node20&#45;&gt;Node21</title>
<path fill="none" stroke="midnightblue" d="M158.911,-190.435C154.139,-182.047 146.519,-168.654 140.371,-157.849"/>
<polygon fill="midnightblue" stroke="midnightblue" points="143.251,-155.833 135.263,-148.872 137.166,-159.294 143.251,-155.833"/>
</g>
<!-- Node20&#45;&gt;Node22 -->
<g id="edge26" class="edge"><title>Node20&#45;&gt;Node22</title>
<path fill="none" stroke="midnightblue" d="M182.132,-190.435C204.706,-180.665 242.964,-164.105 269.19,-152.754"/>
<polygon fill="midnightblue" stroke="midnightblue" points="270.807,-155.867 278.594,-148.683 268.027,-149.443 270.807,-155.867"/>
</g>
<!-- Node22&#45;&gt;Node13 -->
<g id="edge28" class="edge"><title>Node22&#45;&gt;Node13</title>
<path fill="none" stroke="midnightblue" d="M281.093,-130.435C261.477,-120.794 228.413,-104.542 205.351,-93.2065"/>
<polygon fill="midnightblue" stroke="midnightblue" points="206.667,-89.9533 196.148,-88.6831 203.579,-96.2355 206.667,-89.9533"/>
</g>
<!-- Node23 -->
<g id="node23" class="node"><title>Node23</title>
<polygon fill="white" stroke="#bfbfbf" points="476.5,-70.5 476.5,-88.5 524.5,-88.5 524.5,-70.5 476.5,-70.5"/>
<text text-anchor="middle" x="500.5" y="-77.3" font-family="Helvetica,sans-Serif" font-size="9.00">random</text>
</g>
<!-- Node22&#45;&gt;Node23 -->
<g id="edge27" class="edge"><title>Node22&#45;&gt;Node23</title>
<path fill="none" stroke="midnightblue" d="M333.063,-130.639C367.737,-122.636 421.777,-109.262 467.5,-94 469.155,-93.4475 470.846,-92.8531 472.544,-92.2326"/>
<polygon fill="midnightblue" stroke="midnightblue" points="474.102,-95.3824 482.161,-88.5047 471.572,-88.8556 474.102,-95.3824"/>
</g>
<!-- Node24 -->
<g id="node24" class="node"><title>Node24</title>
<polygon fill="white" stroke="#bfbfbf" points="232,-70.5 232,-88.5 329,-88.5 329,-70.5 232,-70.5"/>
<text text-anchor="middle" x="280.5" y="-77.3" font-family="Helvetica,sans-Serif" font-size="9.00">trng/lcg64_shift.hpp</text>
</g>
<!-- Node22&#45;&gt;Node24 -->
<g id="edge29" class="edge"><title>Node22&#45;&gt;Node24</title>
<path fill="none" stroke="midnightblue" d="M295.136,-130.435C292.728,-122.218 288.912,-109.198 285.78,-98.5138"/>
<polygon fill="midnightblue" stroke="midnightblue" points="289.125,-97.4836 282.954,-88.8718 282.408,-99.4525 289.125,-97.4836"/>
</g>
<!-- Node25 -->
<g id="node25" class="node"><title>Node25</title>
<polygon fill="white" stroke="#bfbfbf" points="346.5,-65.5 346.5,-93.5 458.5,-93.5 458.5,-65.5 346.5,-65.5"/>
<text text-anchor="start" x="354.5" y="-82.3" font-family="Helvetica,sans-Serif" font-size="9.00">ParallelRngManager</text>
<text text-anchor="middle" x="402.5" y="-72.3" font-family="Helvetica,sans-Serif" font-size="9.00">/ParallelRngManager.h</text>
</g>
<!-- Node22&#45;&gt;Node25 -->
<g id="edge30" class="edge"><title>Node22&#45;&gt;Node25</title>
<path fill="none" stroke="midnightblue" d="M312.1,-130.435C326.985,-122.213 350.575,-109.182 369.925,-98.4939"/>
<polygon fill="midnightblue" stroke="midnightblue" points="371.687,-101.519 378.748,-93.6203 368.302,-95.3919 371.687,-101.519"/>
</g>
<!-- Node26&#45;&gt;Node5 -->
<g id="edge32" class="edge"><title>Node26&#45;&gt;Node5</title>
<path fill="none" stroke="midnightblue" d="M1219.03,-190.49C1211.42,-188.52 1203.18,-186.538 1195.5,-185 1096.2,-165.116 977.438,-150.778 918.858,-144.32"/>
<polygon fill="midnightblue" stroke="midnightblue" points="918.958,-140.811 908.638,-143.207 918.2,-147.77 918.958,-140.811"/>
</g>
<!-- Node26&#45;&gt;Node7 -->
<g id="edge34" class="edge"><title>Node26&#45;&gt;Node7</title>
<path fill="none" stroke="midnightblue" d="M1248.23,-190.161C1250.64,-162.533 1258.43,-73.5258 1261.85,-34.3297"/>
<polygon fill="midnightblue" stroke="midnightblue" points="1265.38,-34.1545 1262.77,-23.8876 1258.41,-33.5448 1265.38,-34.1545"/>
</g>
<!-- Node27 -->
<g id="node27" class="node"><title>Node27</title>
<polygon fill="white" stroke="#bfbfbf" points="1185.5,-130.5 1185.5,-148.5 1235.5,-148.5 1235.5,-130.5 1185.5,-130.5"/>
<text text-anchor="middle" x="1210.5" y="-137.3" font-family="Helvetica,sans-Serif" font-size="9.00">iomanip</text>
</g>
<!-- Node26&#45;&gt;Node27 -->
<g id="edge33" class="edge"><title>Node26&#45;&gt;Node27</title>
<path fill="none" stroke="midnightblue" d="M1242.36,-190.435C1236.95,-181.961 1228.29,-168.38 1221.36,-157.519"/>
<polygon fill="midnightblue" stroke="midnightblue" points="1224.17,-155.42 1215.84,-148.872 1218.27,-159.185 1224.17,-155.42"/>
</g>
</g>
</svg>
        <g id="navigator" transform="translate(0 0)" fill="#404254">
                <rect fill="#f2f5e9" fill-opacity="0.5" stroke="#606060" stroke-width=".5" x="0" y="0" width="60" height="60"/>
                <use id="zoomplus" xlink:href="#zoomPlus" x="17" y="9" onmousedown="handleZoom(evt,'in')"/>
                <use id="zoomminus" xlink:href="#zoomMin" x="42" y="9" onmousedown="handleZoom(evt,'out')"/>
                <use id="reset" xlink:href="#resetDef" x="30" y="36" onmousedown="handleReset()"/>
                <g id="arrowUp" xlink:href="#dirArrow" transform="translate(30 24)" onmousedown="handlePan(0,-1)">
                  <use xlink:href="#rim" fill="#404040">
                        <set attributeName="fill" to="#808080" begin="arrowUp.mouseover" end="arrowUp.mouseout"/>
                  </use>
                  <path fill="none" stroke="white" stroke-width="1.5" d="M0,-3.0v7 M-2.5,-0.5L0,-3.0L2.5,-0.5"/>
                </g>
                <g id="arrowRight" xlink:href="#dirArrow" transform="rotate(90) translate(36 -43)" onmousedown="handlePan(1,0)">
                  <use xlink:href="#rim" fill="#404040">
                        <set attributeName="fill" to="#808080" begin="arrowRight.mouseover" end="arrowRight.mouseout"/>
                  </use>
                  <path fill="none" stroke="white" stroke-width="1.5" d="M0,-3.0v7 M-2.5,-0.5L0,-3.0L2.5,-0.5"/>
                </g>
                <g id="arrowDown" xlink:href="#dirArrow" transform="rotate(180) translate(-30 -48)" onmousedown="handlePan(0,1)">
                  <use xlink:href="#rim" fill="#404040">
                        <set attributeName="fill" to="#808080" begin="arrowDown.mouseover" end="arrowDown.mouseout"/>
                  </use>
                  <path fill="none" stroke="white" stroke-width="1.5" d="M0,-3.0v7 M-2.5,-0.5L0,-3.0L2.5,-0.5"/>
                </g>
                <g id="arrowLeft" xlink:href="#dirArrow" transform="rotate(270) translate(-36 17)" onmousedown="handlePan(-1,0)">
                  <use xlink:href="#rim" fill="#404040">
                        <set attributeName="fill" to="#808080" begin="arrowLeft.mouseover" end="arrowLeft.mouseout"/>
                  </use>
                  <path fill="none" stroke="white" stroke-width="1.5" d="M0,-3.0v7 M-2.5,-0.5L0,-3.0L2.5,-0.5"/>
                </g>
        </g>
        <svg viewBox="0 0 15 15" width="100%" height="30px" preserveAspectRatio="xMaxYMin meet">
         <g id="arrow_out" transform="scale(0.3 0.3)">
          <a xlink:href="PointEmitterModel_8cpp__incl_org.svg" target="_base">
           <rect id="button" ry="5" rx="5" y="6" x="6" height="38" width="38"
                fill="#f2f5e9" fill-opacity="0.5" stroke="#606060" stroke-width="1.0"/>
           <path id="arrow"
             d="M 11.500037,31.436501 C 11.940474,20.09759 22.043105,11.32322 32.158766,21.979434 L 37.068811,17.246167 C 37.068811,17.246167 37.088388,32 37.088388,32 L 22.160133,31.978069 C 22.160133,31.978069 26.997745,27.140456 26.997745,27.140456 C 18.528582,18.264221 13.291696,25.230495 11.500037,31.436501 z"
             style="fill:#404040;"/>
          </a>
         </g>
        </svg>
</svg>
