<?xml version="1.0" encoding="UTF-8" standalone="no"?>
<!DOCTYPE svg PUBLIC "-//W3C//DTD SVG 1.1//EN"
 "http://www.w3.org/Graphics/SVG/1.1/DTD/svg11.dtd">
<!-- Generated by graphviz version 2.38.0 (20140413.2041)
 -->
<!-- Title: PointEmitterModel.h Pages: 1 -->
<!--zoomable 412 -->
<svg id="main" version="1.1" xmlns="http://www.w3.org/2000/svg" xmlns:xlink="http://www.w3.org/1999/xlink" xml:space="preserve" onload="init(evt)">
<style type="text/css"><![CDATA[
.edge:hover path { stroke: red; }
.edge:hover polygon { stroke: red; fill: red; }
]]></style>
<script type="text/javascript"><![CDATA[
var edges = document.getElementsByTagName('g');
if (edges && edges.length) {
  for (var i=0;i<edges.length;i++) {
    if (edges[i].id.substr(0,4)=='edge') {
      edges[i].setAttribute('class','edge');
    }
  }
}
]]></script>
        <defs>
                <circle id="rim" cx="0" cy="0" r="7"/>
                <circle id="rim2" cx="0" cy="0" r="3.5"/>
                <g id="zoomPlus">
                        <use xlink:href="#rim" fill="#404040">
                                <set attributeName="fill" to="#808080" begin="zoomplus.mouseover" end="zoomplus.mouseout"/>
                        </use>
                        <path d="M-4,0h8M0,-4v8" fill="none" stroke="white" stroke-width="1.5" pointer-events="none"/>
                </g>
                <g id="zoomMin">
                        <use xlink:href="#rim" fill="#404040">
                                <set attributeName="fill" to="#808080" begin="zoomminus.mouseover" end="zoomminus.mouseout"/>
                        </use>
                        <path d="M-4,0h8" fill="none" stroke="white" stroke-width="1.5" pointer-events="none"/>
                </g>
                <g id="dirArrow">
                        <path fill="none" stroke="white" stroke-width="1.5" d="M0,-3.0v7 M-2.5,-0.5L0,-3.0L2.5,-0.5"/>
                </g>
               <g id="resetDef">
                       <use xlink:href="#rim2" fill="#404040">
                               <set attributeName="fill" to="#808080" begin="reset.mouseover" end="reset.mouseout"/>
                       </use>
               </g>
        </defs>

<script type="text/javascript">
var viewWidth = 1268;
var viewHeight = 412;
var sectionId = 'dynsection-1';
</script>
<script xlink:href="svgpan.js"/>
<svg id="graph" class="graph">
<g id="viewport">
<title>PointEmitterModel.h</title>
<polygon fill="white" stroke="none" points="-4,4 -4,-408 1263.5,-408 1263.5,4 -4,4"/>
<!-- Node1 -->
<g id="node1" class="node"><title>Node1</title>
<polygon fill="#bfbfbf" stroke="black" points="563,-385.5 563,-403.5 662,-403.5 662,-385.5 563,-385.5"/>
<text text-anchor="middle" x="612.5" y="-392.3" font-family="Helvetica,sans-Serif" font-size="9.00">PointEmitterModel.h</text>
</g>
<!-- Node2 -->
<g id="node2" class="node"><title>Node2</title>
<g id="a_node2"><a xlink:href="PointEmitterModel_8cpp.html" target="_top" xlink:title="The class definition and template Specializations for PointEmitterModel. ">
<polygon fill="white" stroke="black" points="0,-330.5 0,-348.5 109,-348.5 109,-330.5 0,-330.5"/>
<text text-anchor="middle" x="54.5" y="-337.3" font-family="Helvetica,sans-Serif" font-size="9.00">PointEmitterModel.cpp</text>
</a>
</g>
</g>
<!-- Node1&#45;&gt;Node2 -->
<g id="edge1" class="edge"><title>Node1&#45;&gt;Node2</title>
<path fill="none" stroke="midnightblue" d="M552.84,-388.687C460.666,-381.111 278.116,-365.554 123.5,-349 118.82,-348.499 113.964,-347.953 109.095,-347.388"/>
<polygon fill="midnightblue" stroke="midnightblue" points="552.566,-392.176 562.818,-389.505 553.138,-385.199 552.566,-392.176"/>
</g>
<!-- Node3 -->
<g id="node3" class="node"><title>Node3</title>
<g id="a_node3"><a xlink:href="Gauss1DModel_8h.html" target="_top" xlink:title="The class declaration and inline and templated functions for Gauss1DModel. ">
<polygon fill="white" stroke="black" points="371.5,-275.5 371.5,-293.5 459.5,-293.5 459.5,-275.5 371.5,-275.5"/>
<text text-anchor="middle" x="415.5" y="-282.3" font-family="Helvetica,sans-Serif" font-size="9.00">Gauss1DModel.h</text>
</a>
</g>
</g>
<!-- Node1&#45;&gt;Node3 -->
<g id="edge2" class="edge"><title>Node1&#45;&gt;Node3</title>
<path fill="none" stroke="midnightblue" d="M588.897,-380.56C547.755,-358.005 464.068,-312.126 430.21,-293.564"/>
<polygon fill="midnightblue" stroke="midnightblue" points="587.242,-383.644 597.693,-385.382 590.607,-377.506 587.242,-383.644"/>
</g>
<!-- Node8 -->
<g id="node8" class="node"><title>Node8</title>
<g id="a_node8"><a xlink:href="Gauss2DModel_8h.html" target="_top" xlink:title="The class declaration and inline and templated functions for Gauss2DModel. ">
<polygon fill="white" stroke="black" points="170.5,-165.5 170.5,-183.5 258.5,-183.5 258.5,-165.5 170.5,-165.5"/>
<text text-anchor="middle" x="214.5" y="-172.3" font-family="Helvetica,sans-Serif" font-size="9.00">Gauss2DModel.h</text>
</a>
</g>
</g>
<!-- Node1&#45;&gt;Node8 -->
<g id="edge29" class="edge"><title>Node1&#45;&gt;Node8</title>
<path fill="none" stroke="midnightblue" d="M552.912,-393.636C451.683,-390.238 248.208,-366.901 156.5,-239 141.013,-217.402 175.104,-195.139 197.315,-183.577"/>
<polygon fill="midnightblue" stroke="midnightblue" points="552.876,-397.136 562.971,-393.918 553.073,-390.139 552.876,-397.136"/>
</g>
<!-- Node17 -->
<g id="node17" class="node"><title>Node17</title>
<g id="a_node17"><a xlink:href="Gauss1DsModel_8h.html" target="_top" xlink:title="The class declaration and inline and templated functions for Gauss1DsModel. ">
<polygon fill="white" stroke="black" points="956.5,-220.5 956.5,-238.5 1048.5,-238.5 1048.5,-220.5 956.5,-220.5"/>
<text text-anchor="middle" x="1002.5" y="-227.3" font-family="Helvetica,sans-Serif" font-size="9.00">Gauss1DsModel.h</text>
</a>
</g>
</g>
<!-- Node1&#45;&gt;Node17 -->
<g id="edge16" class="edge"><title>Node1&#45;&gt;Node17</title>
<path fill="none" stroke="midnightblue" d="M672.363,-386.974C743.937,-376.813 864.899,-351.961 951.5,-294 973.356,-279.372 990.375,-252.479 998.048,-238.866"/>
<polygon fill="midnightblue" stroke="midnightblue" points="671.605,-383.545 662.172,-388.369 672.554,-390.481 671.605,-383.545"/>
</g>
<!-- Node21 -->
<g id="node21" class="node"><title>Node21</title>
<g id="a_node21"><a xlink:href="Gauss2DsModel_8h.html" target="_top" xlink:title="The class declaration and inline and templated functions for Gauss2DsModel. ">
<polygon fill="white" stroke="black" points="995.5,-110.5 995.5,-128.5 1087.5,-128.5 1087.5,-110.5 995.5,-110.5"/>
<text text-anchor="middle" x="1041.5" y="-117.3" font-family="Helvetica,sans-Serif" font-size="9.00">Gauss2DsModel.h</text>
</a>
</g>
</g>
<!-- Node1&#45;&gt;Node21 -->
<g id="edge30" class="edge"><title>Node1&#45;&gt;Node21</title>
<path fill="none" stroke="midnightblue" d="M672.263,-389.145C825.692,-377.169 1221.5,-340.903 1221.5,-285.5 1221.5,-285.5 1221.5,-285.5 1221.5,-228.5 1221.5,-199.042 1223.55,-185.61 1202.5,-165 1172.04,-135.176 1123.48,-124.93 1087.64,-121.612"/>
<polygon fill="midnightblue" stroke="midnightblue" points="671.779,-385.672 662.079,-389.932 672.319,-392.651 671.779,-385.672"/>
</g>
<!-- Node27 -->
<g id="node27" class="node"><title>Node27</title>
<g id="a_node27"><a xlink:href="Gauss2DsxyModel_8h.html" target="_top" xlink:title="The class declaration and inline and templated functions for Gauss2DsxyModel. ">
<polygon fill="white" stroke="black" points="1157,-110.5 1157,-128.5 1258,-128.5 1258,-110.5 1157,-110.5"/>
<text text-anchor="middle" x="1207.5" y="-117.3" font-family="Helvetica,sans-Serif" font-size="9.00">Gauss2DsxyModel.h</text>
</a>
</g>
</g>
<!-- Node1&#45;&gt;Node27 -->
<g id="edge31" class="edge"><title>Node1&#45;&gt;Node27</title>
<path fill="none" stroke="midnightblue" d="M672.231,-393.179C763.996,-391.525 944.661,-383.662 1093.5,-349 1170.43,-331.084 1259.5,-364.491 1259.5,-285.5 1259.5,-285.5 1259.5,-285.5 1259.5,-228.5 1259.5,-187.504 1228.71,-145.648 1214.51,-128.533"/>
<polygon fill="midnightblue" stroke="midnightblue" points="671.966,-389.683 662.024,-393.344 672.079,-396.682 671.966,-389.683"/>
</g>
<!-- Node30 -->
<g id="node30" class="node"><title>Node30</title>
<g id="a_node30"><a xlink:href="MAPEstimator_8h.html" target="_top" xlink:title="Class declaration and inline and templated functions for MAPEstimator. ">
<polygon fill="white" stroke="black" points="502.5,-275.5 502.5,-293.5 584.5,-293.5 584.5,-275.5 502.5,-275.5"/>
<text text-anchor="middle" x="543.5" y="-282.3" font-family="Helvetica,sans-Serif" font-size="9.00">MAPEstimator.h</text>
</a>
</g>
</g>
<!-- Node1&#45;&gt;Node30 -->
<g id="edge32" class="edge"><title>Node1&#45;&gt;Node30</title>
<path fill="none" stroke="midnightblue" d="M601.854,-376.836C586.846,-353.346 560.041,-311.389 548.746,-293.712"/>
<polygon fill="midnightblue" stroke="midnightblue" points="598.98,-378.84 607.314,-385.382 604.879,-375.071 598.98,-378.84"/>
</g>
<!-- Node31 -->
<g id="node31" class="node"><title>Node31</title>
<g id="a_node31"><a xlink:href="MLEstimator_8h.html" target="_top" xlink:title="Class declaration and inline and templated functions for MLEstimator. ">
<polygon fill="white" stroke="black" points="572,-220.5 572,-238.5 647,-238.5 647,-220.5 572,-220.5"/>
<text text-anchor="middle" x="609.5" y="-227.3" font-family="Helvetica,sans-Serif" font-size="9.00">MLEstimator.h</text>
</a>
</g>
</g>
<!-- Node1&#45;&gt;Node31 -->
<g id="edge56" class="edge"><title>Node1&#45;&gt;Node31</title>
<path fill="none" stroke="midnightblue" d="M612.157,-374.841C611.504,-339.362 610.107,-263.492 609.649,-238.597"/>
<polygon fill="midnightblue" stroke="midnightblue" points="608.664,-375.259 612.347,-385.193 615.662,-375.13 608.664,-375.259"/>
</g>
<!-- Node32 -->
<g id="node32" class="node"><title>Node32</title>
<g id="a_node32"><a xlink:href="MCMCAdaptor1D_8h.html" target="_top" xlink:title="The class declaration and inline and templated functions for MCMCAdaptor1D. ">
<polygon fill="white" stroke="black" points="641,-330.5 641,-348.5 738,-348.5 738,-330.5 641,-330.5"/>
<text text-anchor="middle" x="689.5" y="-337.3" font-family="Helvetica,sans-Serif" font-size="9.00">MCMCAdaptor1D.h</text>
</a>
</g>
</g>
<!-- Node1&#45;&gt;Node32 -->
<g id="edge44" class="edge"><title>Node1&#45;&gt;Node32</title>
<path fill="none" stroke="midnightblue" d="M632.445,-379.772C646.796,-369.894 665.668,-356.904 677.695,-348.625"/>
<polygon fill="midnightblue" stroke="midnightblue" points="630.448,-376.898 624.195,-385.45 634.416,-382.664 630.448,-376.898"/>
</g>
<!-- Node4 -->
<g id="node4" class="node"><title>Node4</title>
<g id="a_node4"><a xlink:href="Gauss1DModel_8cpp.html" target="_top" xlink:title="The class definition and template Specializations for Gauss1DModel. ">
<polygon fill="white" stroke="black" points="165.5,-220.5 165.5,-238.5 263.5,-238.5 263.5,-220.5 165.5,-220.5"/>
<text text-anchor="middle" x="214.5" y="-227.3" font-family="Helvetica,sans-Serif" font-size="9.00">Gauss1DModel.cpp</text>
</a>
</g>
</g>
<!-- Node3&#45;&gt;Node4 -->
<g id="edge3" class="edge"><title>Node3&#45;&gt;Node4</title>
<path fill="none" stroke="midnightblue" d="M375.146,-272.859C336.723,-262.728 279.747,-247.705 244.985,-238.538"/>
<polygon fill="midnightblue" stroke="midnightblue" points="374.411,-276.285 384.972,-275.45 376.195,-269.516 374.411,-276.285"/>
</g>
<!-- Node5 -->
<g id="node5" class="node"><title>Node5</title>
<g id="a_node5"><a xlink:href="Gauss1DMAP_8h.html" target="_top" xlink:title="The class declaration and inline and templated functions for Gauss1DMAP. ">
<polygon fill="white" stroke="black" points="281.5,-220.5 281.5,-238.5 363.5,-238.5 363.5,-220.5 281.5,-220.5"/>
<text text-anchor="middle" x="322.5" y="-227.3" font-family="Helvetica,sans-Serif" font-size="9.00">Gauss1DMAP.h</text>
</a>
</g>
</g>
<!-- Node3&#45;&gt;Node5 -->
<g id="edge4" class="edge"><title>Node3&#45;&gt;Node5</title>
<path fill="none" stroke="midnightblue" d="M392.386,-270.328C374.941,-260.386 351.558,-247.06 336.758,-238.625"/>
<polygon fill="midnightblue" stroke="midnightblue" points="390.954,-273.54 401.375,-275.45 394.42,-267.458 390.954,-273.54"/>
</g>
<!-- Node14 -->
<g id="node14" class="node"><title>Node14</title>
<g id="a_node14"><a xlink:href="Gauss1DMLE_8h.html" target="_top" xlink:title="The class declaration and inline and templated functions for Gauss1DMLE. ">
<polygon fill="white" stroke="black" points="425,-165.5 425,-183.5 506,-183.5 506,-165.5 425,-165.5"/>
<text text-anchor="middle" x="465.5" y="-172.3" font-family="Helvetica,sans-Serif" font-size="9.00">Gauss1DMLE.h</text>
</a>
</g>
</g>
<!-- Node3&#45;&gt;Node14 -->
<g id="edge13" class="edge"><title>Node3&#45;&gt;Node14</title>
<path fill="none" stroke="midnightblue" d="M409.858,-265.43C406.776,-252.22 404.799,-234.205 411.5,-220 419.274,-203.519 436.478,-191.074 449.391,-183.593"/>
<polygon fill="midnightblue" stroke="midnightblue" points="406.519,-266.49 412.54,-275.208 413.27,-264.638 406.519,-266.49"/>
</g>
<!-- Node16 -->
<g id="node16" class="node"><title>Node16</title>
<g id="a_node16"><a xlink:href="Gauss2DsxyMAP_8h.html" target="_top" xlink:title="The class declaration and inline and templated functions for Gauss2DsxyMAP. ">
<polygon fill="white" stroke="black" points="420,-220.5 420,-238.5 515,-238.5 515,-220.5 420,-220.5"/>
<text text-anchor="middle" x="467.5" y="-227.3" font-family="Helvetica,sans-Serif" font-size="9.00">Gauss2DsxyMAP.h</text>
</a>
</g>
</g>
<!-- Node3&#45;&gt;Node16 -->
<g id="edge15" class="edge"><title>Node3&#45;&gt;Node16</title>
<path fill="none" stroke="midnightblue" d="M430.882,-267.822C440.318,-258.205 452.006,-246.292 459.602,-238.55"/>
<polygon fill="midnightblue" stroke="midnightblue" points="428.13,-265.629 423.625,-275.219 433.127,-270.532 428.13,-265.629"/>
</g>
<!-- Node6 -->
<g id="node6" class="node"><title>Node6</title>
<g id="a_node6"><a xlink:href="estimator__statics_8cpp.html" target="_top" xlink:title="estimator_statics.cpp">
<polygon fill="white" stroke="black" points="50.5,-165.5 50.5,-183.5 152.5,-183.5 152.5,-165.5 50.5,-165.5"/>
<text text-anchor="middle" x="101.5" y="-172.3" font-family="Helvetica,sans-Serif" font-size="9.00">estimator_statics.cpp</text>
</a>
</g>
</g>
<!-- Node5&#45;&gt;Node6 -->
<g id="edge5" class="edge"><title>Node5&#45;&gt;Node6</title>
<path fill="none" stroke="midnightblue" d="M279.204,-218.117C236.953,-207.984 173.565,-192.783 135.018,-183.538"/>
<polygon fill="midnightblue" stroke="midnightblue" points="278.394,-221.522 288.935,-220.45 280.027,-214.715 278.394,-221.522"/>
</g>
<!-- Node7 -->
<g id="node7" class="node"><title>Node7</title>
<g id="a_node7"><a xlink:href="Gauss1DMAP_8cpp.html" target="_top" xlink:title="The class definition and template Specializations for Gauss1DMAP. ">
<polygon fill="white" stroke="black" points="276.5,-165.5 276.5,-183.5 368.5,-183.5 368.5,-165.5 276.5,-165.5"/>
<text text-anchor="middle" x="322.5" y="-172.3" font-family="Helvetica,sans-Serif" font-size="9.00">Gauss1DMAP.cpp</text>
</a>
</g>
</g>
<!-- Node5&#45;&gt;Node7 -->
<g id="edge6" class="edge"><title>Node5&#45;&gt;Node7</title>
<path fill="none" stroke="midnightblue" d="M322.5,-210.175C322.5,-201.094 322.5,-190.595 322.5,-183.55"/>
<polygon fill="midnightblue" stroke="midnightblue" points="319,-210.219 322.5,-220.219 326,-210.219 319,-210.219"/>
</g>
<!-- Node5&#45;&gt;Node8 -->
<g id="edge7" class="edge"><title>Node5&#45;&gt;Node8</title>
<path fill="none" stroke="midnightblue" d="M297.054,-216.013C276.661,-206.005 248.642,-192.255 231.057,-183.625"/>
<polygon fill="midnightblue" stroke="midnightblue" points="295.578,-219.187 306.097,-220.45 298.662,-212.903 295.578,-219.187"/>
</g>
<!-- Node9 -->
<g id="node9" class="node"><title>Node9</title>
<g id="a_node9"><a xlink:href="Gauss2DModel_8cpp.html" target="_top" xlink:title="The class definition and template Specializations for Gauss2DModel. ">
<polygon fill="white" stroke="black" points="116.5,-110.5 116.5,-128.5 214.5,-128.5 214.5,-110.5 116.5,-110.5"/>
<text text-anchor="middle" x="165.5" y="-117.3" font-family="Helvetica,sans-Serif" font-size="9.00">Gauss2DModel.cpp</text>
</a>
</g>
</g>
<!-- Node8&#45;&gt;Node9 -->
<g id="edge8" class="edge"><title>Node8&#45;&gt;Node9</title>
<path fill="none" stroke="midnightblue" d="M200.006,-157.822C191.114,-148.205 180.1,-136.292 172.942,-128.55"/>
<polygon fill="midnightblue" stroke="midnightblue" points="197.485,-160.252 206.844,-165.219 202.625,-155.5 197.485,-160.252"/>
</g>
<!-- Node10 -->
<g id="node10" class="node"><title>Node10</title>
<g id="a_node10"><a xlink:href="Gauss2DMAP_8h.html" target="_top" xlink:title="The class declaration and inline and templated functions for Gauss2DMAP. ">
<polygon fill="white" stroke="black" points="232.5,-110.5 232.5,-128.5 314.5,-128.5 314.5,-110.5 232.5,-110.5"/>
<text text-anchor="middle" x="273.5" y="-117.3" font-family="Helvetica,sans-Serif" font-size="9.00">Gauss2DMAP.h</text>
</a>
</g>
</g>
<!-- Node8&#45;&gt;Node10 -->
<g id="edge9" class="edge"><title>Node8&#45;&gt;Node10</title>
<path fill="none" stroke="midnightblue" d="M231.041,-158.641C241.863,-148.92 255.587,-136.591 264.455,-128.625"/>
<polygon fill="midnightblue" stroke="midnightblue" points="228.561,-156.164 223.461,-165.45 233.239,-161.371 228.561,-156.164"/>
</g>
<!-- Node12 -->
<g id="node12" class="node"><title>Node12</title>
<g id="a_node12"><a xlink:href="Gauss2DMLE_8h.html" target="_top" xlink:title="The class declaration and inline and templated functions for Gauss2DMLE. ">
<polygon fill="white" stroke="black" points="338,-110.5 338,-128.5 419,-128.5 419,-110.5 338,-110.5"/>
<text text-anchor="middle" x="378.5" y="-117.3" font-family="Helvetica,sans-Serif" font-size="9.00">Gauss2DMLE.h</text>
</a>
</g>
</g>
<!-- Node8&#45;&gt;Node12 -->
<g id="edge11" class="edge"><title>Node8&#45;&gt;Node12</title>
<path fill="none" stroke="midnightblue" d="M249.04,-162.338C280.353,-152.218 325.746,-137.549 353.627,-128.538"/>
<polygon fill="midnightblue" stroke="midnightblue" points="247.847,-159.045 239.408,-165.45 250,-165.706 247.847,-159.045"/>
</g>
<!-- Node11 -->
<g id="node11" class="node"><title>Node11</title>
<g id="a_node11"><a xlink:href="Gauss2DMAP_8cpp.html" target="_top" xlink:title="The class definition and template Specializations for Gauss2DMAP. ">
<polygon fill="white" stroke="black" points="225.5,-55.5 225.5,-73.5 317.5,-73.5 317.5,-55.5 225.5,-55.5"/>
<text text-anchor="middle" x="271.5" y="-62.3" font-family="Helvetica,sans-Serif" font-size="9.00">Gauss2DMAP.cpp</text>
</a>
</g>
</g>
<!-- Node10&#45;&gt;Node11 -->
<g id="edge10" class="edge"><title>Node10&#45;&gt;Node11</title>
<path fill="none" stroke="midnightblue" d="M272.808,-100.175C272.466,-91.0945 272.07,-80.5949 271.804,-73.5496"/>
<polygon fill="midnightblue" stroke="midnightblue" points="269.313,-100.358 273.188,-110.219 276.308,-100.094 269.313,-100.358"/>
</g>
<!-- Node13 -->
<g id="node13" class="node"><title>Node13</title>
<g id="a_node13"><a xlink:href="Gauss2DMLE_8cpp.html" target="_top" xlink:title="The class definition and template Specializations for Gauss2DMLE. ">
<polygon fill="white" stroke="black" points="336,-55.5 336,-73.5 427,-73.5 427,-55.5 336,-55.5"/>
<text text-anchor="middle" x="381.5" y="-62.3" font-family="Helvetica,sans-Serif" font-size="9.00">Gauss2DMLE.cpp</text>
</a>
</g>
</g>
<!-- Node12&#45;&gt;Node13 -->
<g id="edge12" class="edge"><title>Node12&#45;&gt;Node13</title>
<path fill="none" stroke="midnightblue" d="M379.537,-100.175C380.051,-91.0945 380.646,-80.5949 381.044,-73.5496"/>
<polygon fill="midnightblue" stroke="midnightblue" points="376.04,-100.037 378.969,-110.219 383.028,-100.433 376.04,-100.037"/>
</g>
<!-- Node15 -->
<g id="node15" class="node"><title>Node15</title>
<g id="a_node15"><a xlink:href="Gauss1DMLE_8cpp.html" target="_top" xlink:title="The class definition and template Specializations for Gauss1DMLE. ">
<polygon fill="white" stroke="black" points="437,-110.5 437,-128.5 528,-128.5 528,-110.5 437,-110.5"/>
<text text-anchor="middle" x="482.5" y="-117.3" font-family="Helvetica,sans-Serif" font-size="9.00">Gauss1DMLE.cpp</text>
</a>
</g>
</g>
<!-- Node14&#45;&gt;Node15 -->
<g id="edge14" class="edge"><title>Node14&#45;&gt;Node15</title>
<path fill="none" stroke="midnightblue" d="M471.282,-155.473C474.216,-146.326 477.633,-135.672 479.918,-128.55"/>
<polygon fill="midnightblue" stroke="midnightblue" points="467.878,-154.628 468.156,-165.219 474.543,-156.766 467.878,-154.628"/>
</g>
<!-- Node18 -->
<g id="node18" class="node"><title>Node18</title>
<g id="a_node18"><a xlink:href="Gauss1DsModel_8cpp.html" target="_top" xlink:title="The class definition and template Specializations for Gauss1DsModel. ">
<polygon fill="white" stroke="black" points="1091.5,-165.5 1091.5,-183.5 1193.5,-183.5 1193.5,-165.5 1091.5,-165.5"/>
<text text-anchor="middle" x="1142.5" y="-172.3" font-family="Helvetica,sans-Serif" font-size="9.00">Gauss1DsModel.cpp</text>
</a>
</g>
</g>
<!-- Node17&#45;&gt;Node18 -->
<g id="edge17" class="edge"><title>Node17&#45;&gt;Node18</title>
<path fill="none" stroke="midnightblue" d="M1033.35,-216.819C1059.94,-206.756 1097.62,-192.489 1121.04,-183.625"/>
<polygon fill="midnightblue" stroke="midnightblue" points="1031.88,-213.637 1023.76,-220.45 1034.35,-220.183 1031.88,-213.637"/>
</g>
<!-- Node19 -->
<g id="node19" class="node"><title>Node19</title>
<g id="a_node19"><a xlink:href="Gauss1DsMAP_8h.html" target="_top" xlink:title="The class declaration and inline and templated functions for Gauss1DsMAP. ">
<polygon fill="white" stroke="black" points="987.5,-165.5 987.5,-183.5 1073.5,-183.5 1073.5,-165.5 987.5,-165.5"/>
<text text-anchor="middle" x="1030.5" y="-172.3" font-family="Helvetica,sans-Serif" font-size="9.00">Gauss1DsMAP.h</text>
</a>
</g>
</g>
<!-- Node17&#45;&gt;Node19 -->
<g id="edge18" class="edge"><title>Node17&#45;&gt;Node19</title>
<path fill="none" stroke="midnightblue" d="M1011.55,-211.363C1016.49,-202.024 1022.36,-190.905 1026.25,-183.55"/>
<polygon fill="midnightblue" stroke="midnightblue" points="1008.45,-209.742 1006.88,-220.219 1014.64,-213.012 1008.45,-209.742"/>
</g>
<!-- Node28 -->
<g id="node28" class="node"><title>Node28</title>
<g id="a_node28"><a xlink:href="Gauss1DsMLE_8h.html" target="_top" xlink:title="The class declaration and inline and templated functions for Gauss1DsMLE. ">
<polygon fill="white" stroke="black" points="638.5,-165.5 638.5,-183.5 724.5,-183.5 724.5,-165.5 638.5,-165.5"/>
<text text-anchor="middle" x="681.5" y="-172.3" font-family="Helvetica,sans-Serif" font-size="9.00">Gauss1DsMLE.h</text>
</a>
</g>
</g>
<!-- Node17&#45;&gt;Node28 -->
<g id="edge27" class="edge"><title>Node17&#45;&gt;Node28</title>
<path fill="none" stroke="midnightblue" d="M945.982,-219.168C882.814,-208.739 781.917,-192.08 724.735,-182.638"/>
<polygon fill="midnightblue" stroke="midnightblue" points="945.73,-222.674 956.167,-220.85 946.87,-215.768 945.73,-222.674"/>
</g>
<!-- Node20 -->
<g id="node20" class="node"><title>Node20</title>
<g id="a_node20"><a xlink:href="Gauss1DsMAP_8cpp.html" target="_top" xlink:title="The class definition and template Specializations for Gauss1DsMAP. ">
<polygon fill="white" stroke="black" points="881.5,-110.5 881.5,-128.5 977.5,-128.5 977.5,-110.5 881.5,-110.5"/>
<text text-anchor="middle" x="929.5" y="-117.3" font-family="Helvetica,sans-Serif" font-size="9.00">Gauss1DsMAP.cpp</text>
</a>
</g>
</g>
<!-- Node19&#45;&gt;Node20 -->
<g id="edge19" class="edge"><title>Node19&#45;&gt;Node20</title>
<path fill="none" stroke="midnightblue" d="M1006.18,-160.74C987.159,-150.757 961.281,-137.177 944.984,-128.625"/>
<polygon fill="midnightblue" stroke="midnightblue" points="1004.68,-163.903 1015.16,-165.45 1007.93,-157.705 1004.68,-163.903"/>
</g>
<!-- Node19&#45;&gt;Node21 -->
<g id="edge20" class="edge"><title>Node19&#45;&gt;Node21</title>
<path fill="none" stroke="midnightblue" d="M1034.3,-155.175C1036.19,-146.094 1038.37,-135.595 1039.83,-128.55"/>
<polygon fill="midnightblue" stroke="midnightblue" points="1030.82,-154.716 1032.22,-165.219 1037.68,-156.139 1030.82,-154.716"/>
</g>
<!-- Node19&#45;&gt;Node27 -->
<g id="edge26" class="edge"><title>Node19&#45;&gt;Node27</title>
<path fill="none" stroke="midnightblue" d="M1067.34,-162.469C1101.15,-152.345 1150.43,-137.588 1180.66,-128.538"/>
<polygon fill="midnightblue" stroke="midnightblue" points="1065.96,-159.229 1057.38,-165.45 1067.97,-165.935 1065.96,-159.229"/>
</g>
<!-- Node22 -->
<g id="node22" class="node"><title>Node22</title>
<g id="a_node22"><a xlink:href="Gauss2DsModel_8cpp.html" target="_top" xlink:title="The class definition and template Specializations for Gauss2DsModel. ">
<polygon fill="white" stroke="black" points="990.5,-55.5 990.5,-73.5 1092.5,-73.5 1092.5,-55.5 990.5,-55.5"/>
<text text-anchor="middle" x="1041.5" y="-62.3" font-family="Helvetica,sans-Serif" font-size="9.00">Gauss2DsModel.cpp</text>
</a>
</g>
</g>
<!-- Node21&#45;&gt;Node22 -->
<g id="edge21" class="edge"><title>Node21&#45;&gt;Node22</title>
<path fill="none" stroke="midnightblue" d="M1041.5,-100.175C1041.5,-91.0945 1041.5,-80.5949 1041.5,-73.5496"/>
<polygon fill="midnightblue" stroke="midnightblue" points="1038,-100.219 1041.5,-110.219 1045,-100.219 1038,-100.219"/>
</g>
<!-- Node23 -->
<g id="node23" class="node"><title>Node23</title>
<g id="a_node23"><a xlink:href="Gauss2DsMAP_8h.html" target="_top" xlink:title="The class declaration and inline and templated functions for Gauss2DsMAP. ">
<polygon fill="white" stroke="black" points="825.5,-55.5 825.5,-73.5 911.5,-73.5 911.5,-55.5 825.5,-55.5"/>
<text text-anchor="middle" x="868.5" y="-62.3" font-family="Helvetica,sans-Serif" font-size="9.00">Gauss2DsMAP.h</text>
</a>
</g>
</g>
<!-- Node21&#45;&gt;Node23 -->
<g id="edge22" class="edge"><title>Node21&#45;&gt;Node23</title>
<path fill="none" stroke="midnightblue" d="M1005.49,-107.469C972.448,-97.3454 924.276,-82.5875 894.738,-73.5383"/>
<polygon fill="midnightblue" stroke="midnightblue" points="1004.64,-110.868 1015.23,-110.45 1006.69,-104.175 1004.64,-110.868"/>
</g>
<!-- Node25 -->
<g id="node25" class="node"><title>Node25</title>
<g id="a_node25"><a xlink:href="Gauss2DsMLE_8h.html" target="_top" xlink:title="The class declaration and inline and templated functions for Gauss2DsMLE. ">
<polygon fill="white" stroke="black" points="650.5,-55.5 650.5,-73.5 736.5,-73.5 736.5,-55.5 650.5,-55.5"/>
<text text-anchor="middle" x="693.5" y="-62.3" font-family="Helvetica,sans-Serif" font-size="9.00">Gauss2DsMLE.h</text>
</a>
</g>
</g>
<!-- Node21&#45;&gt;Node25 -->
<g id="edge24" class="edge"><title>Node21&#45;&gt;Node25</title>
<path fill="none" stroke="midnightblue" d="M985.267,-109.814C890.705,-95.3355 791.902,-80.3709 736.697,-72.0246"/>
<polygon fill="midnightblue" stroke="midnightblue" points="984.873,-113.295 995.288,-111.349 985.933,-106.375 984.873,-113.295"/>
</g>
<!-- Node24 -->
<g id="node24" class="node"><title>Node24</title>
<g id="a_node24"><a xlink:href="Gauss2DsMAP_8cpp.html" target="_top" xlink:title="The class definition and template Specializations for Gauss2DsMAP. ">
<polygon fill="white" stroke="black" points="820.5,-0.5 820.5,-18.5 916.5,-18.5 916.5,-0.5 820.5,-0.5"/>
<text text-anchor="middle" x="868.5" y="-7.3" font-family="Helvetica,sans-Serif" font-size="9.00">Gauss2DsMAP.cpp</text>
</a>
</g>
</g>
<!-- Node23&#45;&gt;Node24 -->
<g id="edge23" class="edge"><title>Node23&#45;&gt;Node24</title>
<path fill="none" stroke="midnightblue" d="M868.5,-45.1746C868.5,-36.0945 868.5,-25.5949 868.5,-18.5496"/>
<polygon fill="midnightblue" stroke="midnightblue" points="865,-45.2187 868.5,-55.2188 872,-45.2188 865,-45.2187"/>
</g>
<!-- Node26 -->
<g id="node26" class="node"><title>Node26</title>
<g id="a_node26"><a xlink:href="Gauss2DsMLE_8cpp.html" target="_top" xlink:title="The class definition and template Specializations for Gauss2DsMLE. ">
<polygon fill="white" stroke="black" points="646,-0.5 646,-18.5 741,-18.5 741,-0.5 646,-0.5"/>
<text text-anchor="middle" x="693.5" y="-7.3" font-family="Helvetica,sans-Serif" font-size="9.00">Gauss2DsMLE.cpp</text>
</a>
</g>
</g>
<!-- Node25&#45;&gt;Node26 -->
<g id="edge25" class="edge"><title>Node25&#45;&gt;Node26</title>
<path fill="none" stroke="midnightblue" d="M693.5,-45.1746C693.5,-36.0945 693.5,-25.5949 693.5,-18.5496"/>
<polygon fill="midnightblue" stroke="midnightblue" points="690,-45.2187 693.5,-55.2188 697,-45.2188 690,-45.2187"/>
</g>
<!-- Node29 -->
<g id="node29" class="node"><title>Node29</title>
<g id="a_node29"><a xlink:href="Gauss1DsMLE_8cpp.html" target="_top" xlink:title="The class definition and template Specializations for Gauss1DsMLE. ">
<polygon fill="white" stroke="black" points="639,-110.5 639,-128.5 734,-128.5 734,-110.5 639,-110.5"/>
<text text-anchor="middle" x="686.5" y="-117.3" font-family="Helvetica,sans-Serif" font-size="9.00">Gauss1DsMLE.cpp</text>
</a>
</g>
</g>
<!-- Node28&#45;&gt;Node29 -->
<g id="edge28" class="edge"><title>Node28&#45;&gt;Node29</title>
<path fill="none" stroke="midnightblue" d="M683.229,-155.175C684.085,-146.094 685.076,-135.595 685.741,-128.55"/>
<polygon fill="midnightblue" stroke="midnightblue" points="679.736,-154.934 682.281,-165.219 686.705,-155.592 679.736,-154.934"/>
</g>
<!-- Node30&#45;&gt;Node5 -->
<g id="edge33" class="edge"><title>Node30&#45;&gt;Node5</title>
<path fill="none" stroke="midnightblue" d="M500.204,-273.117C457.953,-262.984 394.565,-247.783 356.018,-238.538"/>
<polygon fill="midnightblue" stroke="midnightblue" points="499.394,-276.522 509.935,-275.45 501.027,-269.715 499.394,-276.522"/>
</g>
<!-- Node30&#45;&gt;Node10 -->
<g id="edge35" class="edge"><title>Node30&#45;&gt;Node10</title>
<path fill="none" stroke="midnightblue" d="M542.495,-265.305C540.777,-251.219 536.255,-232.126 524.5,-220 489.282,-183.672 463.344,-203.121 416.5,-184 398.649,-176.713 395.035,-173.017 377.5,-165 348.387,-151.69 314.185,-137.288 293.177,-128.582"/>
<polygon fill="midnightblue" stroke="midnightblue" points="539.011,-265.638 543.357,-275.3 545.985,-265.036 539.011,-265.638"/>
</g>
<!-- Node30&#45;&gt;Node16 -->
<g id="edge36" class="edge"><title>Node30&#45;&gt;Node16</title>
<path fill="none" stroke="midnightblue" d="M523.412,-269.492C509.299,-259.649 490.91,-246.826 479.151,-238.625"/>
<polygon fill="midnightblue" stroke="midnightblue" points="521.753,-272.601 531.957,-275.45 525.757,-266.859 521.753,-272.601"/>
</g>
<!-- Node30&#45;&gt;Node19 -->
<g id="edge34" class="edge"><title>Node30&#45;&gt;Node19</title>
<path fill="none" stroke="midnightblue" d="M594.73,-277.262C642.52,-270.616 715.418,-258.349 776.5,-239 796.031,-232.813 799.026,-226.364 818.5,-220 849.332,-209.924 934.87,-193.222 987.391,-183.398"/>
<polygon fill="midnightblue" stroke="midnightblue" points="594.068,-273.82 584.63,-278.635 595.011,-280.756 594.068,-273.82"/>
</g>
<!-- Node30&#45;&gt;Node31 -->
<g id="edge37" class="edge"><title>Node30&#45;&gt;Node31</title>
<path fill="none" stroke="midnightblue" d="M556.147,-268.397C567.175,-258.683 582.797,-246.447 594.467,-238.55"/>
<polygon fill="midnightblue" stroke="midnightblue" points="553.728,-265.866 548.75,-275.219 558.474,-271.012 553.728,-265.866"/>
</g>
<!-- Node31&#45;&gt;Node12 -->
<g id="edge40" class="edge"><title>Node31&#45;&gt;Node12</title>
<path fill="none" stroke="midnightblue" d="M591.651,-214.198C573.399,-200.129 543.79,-178.809 515.5,-165 481.677,-148.491 440.273,-136.013 411.892,-128.532"/>
<polygon fill="midnightblue" stroke="midnightblue" points="589.612,-217.047 599.643,-220.457 593.928,-211.536 589.612,-217.047"/>
</g>
<!-- Node31&#45;&gt;Node14 -->
<g id="edge38" class="edge"><title>Node31&#45;&gt;Node14</title>
<path fill="none" stroke="midnightblue" d="M578.124,-216.952C550.763,-206.881 511.766,-192.528 487.576,-183.625"/>
<polygon fill="midnightblue" stroke="midnightblue" points="577.036,-220.281 587.629,-220.45 579.454,-213.712 577.036,-220.281"/>
</g>
<!-- Node31&#45;&gt;Node23 -->
<g id="edge41" class="edge"><title>Node31&#45;&gt;Node23</title>
<path fill="none" stroke="midnightblue" d="M606.932,-210.193C604.401,-184.155 604.114,-136.636 630.5,-110 657.162,-83.0854 764.269,-72.0107 825.32,-67.8133"/>
<polygon fill="midnightblue" stroke="midnightblue" points="603.466,-210.688 608.124,-220.204 610.417,-209.86 603.466,-210.688"/>
</g>
<!-- Node31&#45;&gt;Node25 -->
<g id="edge42" class="edge"><title>Node31&#45;&gt;Node25</title>
<path fill="none" stroke="midnightblue" d="M601.163,-211.044C590.744,-186.44 576.554,-141.096 596.5,-110 608.804,-90.8179 631.677,-79.7957 652.123,-73.5206"/>
<polygon fill="midnightblue" stroke="midnightblue" points="597.994,-212.532 605.287,-220.217 604.379,-209.661 597.994,-212.532"/>
</g>
<!-- Node31&#45;&gt;Node28 -->
<g id="edge39" class="edge"><title>Node31&#45;&gt;Node28</title>
<path fill="none" stroke="midnightblue" d="M628.53,-214.492C641.901,-204.649 659.322,-191.826 670.462,-183.625"/>
<polygon fill="midnightblue" stroke="midnightblue" points="626.414,-211.704 620.435,-220.45 630.564,-217.341 626.414,-211.704"/>
</g>
<!-- Node31&#45;&gt;Node30 -->
<g id="edge43" class="edge"><title>Node31&#45;&gt;Node30</title>
<path fill="none" stroke="midnightblue" d="M597.025,-245.452C585.988,-255.189 570.263,-267.512 558.533,-275.45"/>
<polygon fill="midnightblue" stroke="midnightblue" points="599.442,-247.984 604.409,-238.625 594.69,-242.844 599.442,-247.984"/>
</g>
<!-- Node32&#45;&gt;Node3 -->
<g id="edge46" class="edge"><title>Node32&#45;&gt;Node3</title>
<path fill="none" stroke="midnightblue" d="M637.798,-328.499C585.432,-318.37 505.453,-302.9 457.057,-293.538"/>
<polygon fill="midnightblue" stroke="midnightblue" points="637.403,-331.988 647.885,-330.45 638.732,-325.115 637.403,-331.988"/>
</g>
<!-- Node33 -->
<g id="node33" class="node"><title>Node33</title>
<g id="a_node33"><a xlink:href="MCMCAdaptor1D_8cpp.html" target="_top" xlink:title="The class definition and template Specializations for MCMCAdaptor1D. ">
<polygon fill="white" stroke="black" points="716,-275.5 716,-293.5 823,-293.5 823,-275.5 716,-275.5"/>
<text text-anchor="middle" x="769.5" y="-282.3" font-family="Helvetica,sans-Serif" font-size="9.00">MCMCAdaptor1D.cpp</text>
</a>
</g>
</g>
<!-- Node32&#45;&gt;Node33 -->
<g id="edge45" class="edge"><title>Node32&#45;&gt;Node33</title>
<path fill="none" stroke="midnightblue" d="M710.222,-324.772C725.132,-314.894 744.74,-301.904 757.235,-293.625"/>
<polygon fill="midnightblue" stroke="midnightblue" points="708.054,-322.01 701.65,-330.45 711.92,-327.845 708.054,-322.01"/>
</g>
<!-- Node34 -->
<g id="node34" class="node"><title>Node34</title>
<g id="a_node34"><a xlink:href="MCMCAdaptor1Ds_8h.html" target="_top" xlink:title="The class declaration and inline and templated functions for MCMCAdaptor1Ds. ">
<polygon fill="white" stroke="black" points="841,-275.5 841,-293.5 942,-293.5 942,-275.5 841,-275.5"/>
<text text-anchor="middle" x="891.5" y="-282.3" font-family="Helvetica,sans-Serif" font-size="9.00">MCMCAdaptor1Ds.h</text>
</a>
</g>
</g>
<!-- Node32&#45;&gt;Node34 -->
<g id="edge47" class="edge"><title>Node32&#45;&gt;Node34</title>
<path fill="none" stroke="midnightblue" d="M730.055,-327.859C768.669,-317.728 825.928,-302.705 860.863,-293.538"/>
<polygon fill="midnightblue" stroke="midnightblue" points="728.964,-324.527 720.179,-330.45 730.74,-331.298 728.964,-324.527"/>
</g>
<!-- Node36 -->
<g id="node36" class="node"><title>Node36</title>
<g id="a_node36"><a xlink:href="MCMCAdaptor2D_8h.html" target="_top" xlink:title="The class declaration and inline and templated functions for MCMCAdaptor2D. ">
<polygon fill="white" stroke="black" points="670,-220.5 670,-238.5 767,-238.5 767,-220.5 670,-220.5"/>
<text text-anchor="middle" x="718.5" y="-227.3" font-family="Helvetica,sans-Serif" font-size="9.00">MCMCAdaptor2D.h</text>
</a>
</g>
</g>
<!-- Node32&#45;&gt;Node36 -->
<g id="edge50" class="edge"><title>Node32&#45;&gt;Node36</title>
<path fill="none" stroke="midnightblue" d="M694.316,-320.566C700.681,-296.861 711.633,-256.075 716.295,-238.712"/>
<polygon fill="midnightblue" stroke="midnightblue" points="690.893,-319.817 691.68,-330.382 697.653,-321.632 690.893,-319.817"/>
</g>
<!-- Node34&#45;&gt;Node17 -->
<g id="edge49" class="edge"><title>Node34&#45;&gt;Node17</title>
<path fill="none" stroke="midnightblue" d="M917.653,-271.013C938.612,-261.005 967.409,-247.255 985.483,-238.625"/>
<polygon fill="midnightblue" stroke="midnightblue" points="915.875,-267.983 908.359,-275.45 918.891,-274.3 915.875,-267.983"/>
</g>
<!-- Node35 -->
<g id="node35" class="node"><title>Node35</title>
<g id="a_node35"><a xlink:href="MCMCAdaptor1Ds_8cpp.html" target="_top" xlink:title="The class definition and template Specializations for MCMCAdaptor1Ds. ">
<polygon fill="white" stroke="black" points="827,-220.5 827,-238.5 938,-238.5 938,-220.5 827,-220.5"/>
<text text-anchor="middle" x="882.5" y="-227.3" font-family="Helvetica,sans-Serif" font-size="9.00">MCMCAdaptor1Ds.cpp</text>
</a>
</g>
</g>
<!-- Node34&#45;&gt;Node35 -->
<g id="edge48" class="edge"><title>Node34&#45;&gt;Node35</title>
<path fill="none" stroke="midnightblue" d="M888.388,-265.175C886.846,-256.094 885.063,-245.595 883.867,-238.55"/>
<polygon fill="midnightblue" stroke="midnightblue" points="884.969,-265.946 890.094,-275.219 891.87,-264.774 884.969,-265.946"/>
</g>
<!-- Node36&#45;&gt;Node8 -->
<g id="edge52" class="edge"><title>Node36&#45;&gt;Node8</title>
<path fill="none" stroke="midnightblue" d="M659.767,-220.381C658.669,-220.251 657.579,-220.124 656.5,-220 484.005,-200.204 439.759,-205.759 267.5,-184 264.634,-183.638 261.685,-183.239 258.715,-182.817"/>
<polygon fill="midnightblue" stroke="midnightblue" points="659.436,-223.867 669.789,-221.616 660.292,-216.919 659.436,-223.867"/>
</g>
<!-- Node37 -->
<g id="node37" class="node"><title>Node37</title>
<g id="a_node37"><a xlink:href="MCMCAdaptor2D_8cpp.html" target="_top" xlink:title="The class definition and template Specializations for MCMCAdaptor2D. ">
<polygon fill="white" stroke="black" points="743,-165.5 743,-183.5 850,-183.5 850,-165.5 743,-165.5"/>
<text text-anchor="middle" x="796.5" y="-172.3" font-family="Helvetica,sans-Serif" font-size="9.00">MCMCAdaptor2D.cpp</text>
</a>
</g>
</g>
<!-- Node36&#45;&gt;Node37 -->
<g id="edge51" class="edge"><title>Node36&#45;&gt;Node37</title>
<path fill="none" stroke="midnightblue" d="M738.704,-214.772C753.241,-204.894 772.359,-191.904 784.542,-183.625"/>
<polygon fill="midnightblue" stroke="midnightblue" points="736.651,-211.935 730.347,-220.45 740.585,-217.725 736.651,-211.935"/>
</g>
<!-- Node38 -->
<g id="node38" class="node"><title>Node38</title>
<g id="a_node38"><a xlink:href="MCMCAdaptor2Ds_8h.html" target="_top" xlink:title="The class declaration and inline and templated functions for MCMCAdaptor2Ds. ">
<polygon fill="white" stroke="black" points="868,-165.5 868,-183.5 969,-183.5 969,-165.5 868,-165.5"/>
<text text-anchor="middle" x="918.5" y="-172.3" font-family="Helvetica,sans-Serif" font-size="9.00">MCMCAdaptor2Ds.h</text>
</a>
</g>
</g>
<!-- Node36&#45;&gt;Node38 -->
<g id="edge53" class="edge"><title>Node36&#45;&gt;Node38</title>
<path fill="none" stroke="midnightblue" d="M758.654,-217.859C796.885,-207.728 853.577,-192.705 888.167,-183.538"/>
<polygon fill="midnightblue" stroke="midnightblue" points="757.645,-214.506 748.876,-220.45 759.439,-221.272 757.645,-214.506"/>
</g>
<!-- Node38&#45;&gt;Node21 -->
<g id="edge55" class="edge"><title>Node38&#45;&gt;Node21</title>
<path fill="none" stroke="midnightblue" d="M946.539,-161.418C969.836,-151.379 1002.34,-137.372 1022.64,-128.625"/>
<polygon fill="midnightblue" stroke="midnightblue" points="944.98,-158.279 937.181,-165.45 947.75,-164.707 944.98,-158.279"/>
</g>
<!-- Node39 -->
<g id="node39" class="node"><title>Node39</title>
<g id="a_node39"><a xlink:href="MCMCAdaptor2Ds_8cpp.html" target="_top" xlink:title="The class definition and template Specializations for MCMCAdaptor2Ds. ">
<polygon fill="white" stroke="black" points="752,-110.5 752,-128.5 863,-128.5 863,-110.5 752,-110.5"/>
<text text-anchor="middle" x="807.5" y="-117.3" font-family="Helvetica,sans-Serif" font-size="9.00">MCMCAdaptor2Ds.cpp</text>
</a>
</g>
</g>
<!-- Node38&#45;&gt;Node39 -->
<g id="edge54" class="edge"><title>Node38&#45;&gt;Node39</title>
<path fill="none" stroke="midnightblue" d="M892.347,-161.013C871.388,-151.005 842.591,-137.255 824.517,-128.625"/>
<polygon fill="midnightblue" stroke="midnightblue" points="891.109,-164.3 901.641,-165.45 894.125,-157.983 891.109,-164.3"/>
</g>
</g>
</svg>
        <g id="navigator" transform="translate(0 0)" fill="#404254">
                <rect fill="#f2f5e9" fill-opacity="0.5" stroke="#606060" stroke-width=".5" x="0" y="0" width="60" height="60"/>
                <use id="zoomplus" xlink:href="#zoomPlus" x="17" y="9" onmousedown="handleZoom(evt,'in')"/>
                <use id="zoomminus" xlink:href="#zoomMin" x="42" y="9" onmousedown="handleZoom(evt,'out')"/>
                <use id="reset" xlink:href="#resetDef" x="30" y="36" onmousedown="handleReset()"/>
                <g id="arrowUp" xlink:href="#dirArrow" transform="translate(30 24)" onmousedown="handlePan(0,-1)">
                  <use xlink:href="#rim" fill="#404040">
                        <set attributeName="fill" to="#808080" begin="arrowUp.mouseover" end="arrowUp.mouseout"/>
                  </use>
                  <path fill="none" stroke="white" stroke-width="1.5" d="M0,-3.0v7 M-2.5,-0.5L0,-3.0L2.5,-0.5"/>
                </g>
                <g id="arrowRight" xlink:href="#dirArrow" transform="rotate(90) translate(36 -43)" onmousedown="handlePan(1,0)">
                  <use xlink:href="#rim" fill="#404040">
                        <set attributeName="fill" to="#808080" begin="arrowRight.mouseover" end="arrowRight.mouseout"/>
                  </use>
                  <path fill="none" stroke="white" stroke-width="1.5" d="M0,-3.0v7 M-2.5,-0.5L0,-3.0L2.5,-0.5"/>
                </g>
                <g id="arrowDown" xlink:href="#dirArrow" transform="rotate(180) translate(-30 -48)" onmousedown="handlePan(0,1)">
                  <use xlink:href="#rim" fill="#404040">
                        <set attributeName="fill" to="#808080" begin="arrowDown.mouseover" end="arrowDown.mouseout"/>
                  </use>
                  <path fill="none" stroke="white" stroke-width="1.5" d="M0,-3.0v7 M-2.5,-0.5L0,-3.0L2.5,-0.5"/>
                </g>
                <g id="arrowLeft" xlink:href="#dirArrow" transform="rotate(270) translate(-36 17)" onmousedown="handlePan(-1,0)">
                  <use xlink:href="#rim" fill="#404040">
                        <set attributeName="fill" to="#808080" begin="arrowLeft.mouseover" end="arrowLeft.mouseout"/>
                  </use>
                  <path fill="none" stroke="white" stroke-width="1.5" d="M0,-3.0v7 M-2.5,-0.5L0,-3.0L2.5,-0.5"/>
                </g>
        </g>
        <svg viewBox="0 0 15 15" width="100%" height="30px" preserveAspectRatio="xMaxYMin meet">
         <g id="arrow_out" transform="scale(0.3 0.3)">
          <a xlink:href="PointEmitterModel_8h__dep__incl_org.svg" target="_base">
           <rect id="button" ry="5" rx="5" y="6" x="6" height="38" width="38"
                fill="#f2f5e9" fill-opacity="0.5" stroke="#606060" stroke-width="1.0"/>
           <path id="arrow"
             d="M 11.500037,31.436501 C 11.940474,20.09759 22.043105,11.32322 32.158766,21.979434 L 37.068811,17.246167 C 37.068811,17.246167 37.088388,32 37.088388,32 L 22.160133,31.978069 C 22.160133,31.978069 26.997745,27.140456 26.997745,27.140456 C 18.528582,18.264221 13.291696,25.230495 11.500037,31.436501 z"
             style="fill:#404040;"/>
          </a>
         </g>
        </svg>
</svg>
