<?xml version="1.0" encoding="UTF-8" standalone="no"?>
<!DOCTYPE svg PUBLIC "-//W3C//DTD SVG 1.1//EN"
 "http://www.w3.org/Graphics/SVG/1.1/DTD/svg11.dtd">
<!-- Generated by graphviz version 2.38.0 (20140413.2041)
 -->
<!-- Title: PointEmitterModel.h Pages: 1 -->
<!--zoomable 277 -->
<svg id="main" version="1.1" xmlns="http://www.w3.org/2000/svg" xmlns:xlink="http://www.w3.org/1999/xlink" xml:space="preserve" onload="init(evt)">
<style type="text/css"><![CDATA[
.edge:hover path { stroke: red; }
.edge:hover polygon { stroke: red; fill: red; }
]]></style>
<script type="text/javascript"><![CDATA[
var edges = document.getElementsByTagName('g');
if (edges && edges.length) {
  for (var i=0;i<edges.length;i++) {
    if (edges[i].id.substr(0,4)=='edge') {
      edges[i].setAttribute('class','edge');
    }
  }
}
]]></script>
        <defs>
                <circle id="rim" cx="0" cy="0" r="7"/>
                <circle id="rim2" cx="0" cy="0" r="3.5"/>
                <g id="zoomPlus">
                        <use xlink:href="#rim" fill="#404040">
                                <set attributeName="fill" to="#808080" begin="zoomplus.mouseover" end="zoomplus.mouseout"/>
                        </use>
                        <path d="M-4,0h8M0,-4v8" fill="none" stroke="white" stroke-width="1.5" pointer-events="none"/>
                </g>
                <g id="zoomMin">
                        <use xlink:href="#rim" fill="#404040">
                                <set attributeName="fill" to="#808080" begin="zoomminus.mouseover" end="zoomminus.mouseout"/>
                        </use>
                        <path d="M-4,0h8" fill="none" stroke="white" stroke-width="1.5" pointer-events="none"/>
                </g>
                <g id="dirArrow">
                        <path fill="none" stroke="white" stroke-width="1.5" d="M0,-3.0v7 M-2.5,-0.5L0,-3.0L2.5,-0.5"/>
                </g>
               <g id="resetDef">
                       <use xlink:href="#rim2" fill="#404040">
                               <set attributeName="fill" to="#808080" begin="reset.mouseover" end="reset.mouseout"/>
                       </use>
               </g>
        </defs>

<script type="text/javascript">
var viewWidth = 1202;
var viewHeight = 277;
var sectionId = 'dynsection-0';
</script>
<script xlink:href="svgpan.js"/>
<svg id="graph" class="graph">
<g id="viewport">
<title>PointEmitterModel.h</title>
<polygon fill="white" stroke="none" points="-4,4 -4,-273 1197.5,-273 1197.5,4 -4,4"/>
<!-- Node1 -->
<g id="node1" class="node"><title>Node1</title>
<polygon fill="#bfbfbf" stroke="black" points="296,-250.5 296,-268.5 395,-268.5 395,-250.5 296,-250.5"/>
<text text-anchor="middle" x="345.5" y="-257.3" font-family="Helvetica,sans-Serif" font-size="9.00">PointEmitterModel.h</text>
</g>
<!-- Node2 -->
<g id="node2" class="node"><title>Node2</title>
<polygon fill="white" stroke="#bfbfbf" points="16.5,-130.5 16.5,-148.5 68.5,-148.5 68.5,-130.5 16.5,-130.5"/>
<text text-anchor="middle" x="42.5" y="-137.3" font-family="Helvetica,sans-Serif" font-size="9.00">iostream</text>
</g>
<!-- Node1&#45;&gt;Node2 -->
<g id="edge1" class="edge"><title>Node1&#45;&gt;Node2</title>
<path fill="none" stroke="midnightblue" d="M295.812,-256.315C226.153,-252.294 104.2,-241.454 70.5,-214 53.9849,-200.546 47.2002,-176.195 44.4195,-159.225"/>
<polygon fill="midnightblue" stroke="midnightblue" points="47.8336,-158.34 43.0638,-148.88 40.8929,-159.25 47.8336,-158.34"/>
</g>
<!-- Node3 -->
<g id="node3" class="node"><title>Node3</title>
<polygon fill="white" stroke="#bfbfbf" points="73,-5.5 73,-23.5 112,-23.5 112,-5.5 73,-5.5"/>
<text text-anchor="middle" x="92.5" y="-12.3" font-family="Helvetica,sans-Serif" font-size="9.00">string</text>
</g>
<!-- Node1&#45;&gt;Node3 -->
<g id="edge2" class="edge"><title>Node1&#45;&gt;Node3</title>
<path fill="none" stroke="midnightblue" d="M318.271,-250.434C297.161,-243.246 267.981,-231.189 246.5,-214 210.063,-184.843 212.021,-166.937 183.5,-130 156.222,-94.6715 123.499,-53.8746 105.671,-31.7758"/>
<polygon fill="midnightblue" stroke="midnightblue" points="108.21,-29.349 99.2029,-23.7696 102.765,-33.7479 108.21,-29.349"/>
</g>
<!-- Node4 -->
<g id="node4" class="node"><title>Node4</title>
<polygon fill="white" stroke="#bfbfbf" points="0,-5.5 0,-23.5 55,-23.5 55,-5.5 0,-5.5"/>
<text text-anchor="middle" x="27.5" y="-12.3" font-family="Helvetica,sans-Serif" font-size="9.00">armadillo</text>
</g>
<!-- Node1&#45;&gt;Node4 -->
<g id="edge3" class="edge"><title>Node1&#45;&gt;Node4</title>
<path fill="none" stroke="midnightblue" d="M295.963,-256.034C222.315,-251.55 88.3374,-240.009 48.5,-214 19.8999,-195.328 16.9841,-181.813 7.5,-149 -4.17268,-108.615 10.3315,-59.2815 20.0599,-33.3668"/>
<polygon fill="midnightblue" stroke="midnightblue" points="23.4248,-34.3752 23.8466,-23.7887 16.9151,-31.8015 23.4248,-34.3752"/>
</g>
<!-- Node5 -->
<g id="node5" class="node"><title>Node5</title>
<polygon fill="white" stroke="#bfbfbf" points="408.5,-190.5 408.5,-208.5 548.5,-208.5 548.5,-190.5 408.5,-190.5"/>
<text text-anchor="middle" x="478.5" y="-197.3" font-family="Helvetica,sans-Serif" font-size="9.00">PriorHessian/CompositeDist.h</text>
</g>
<!-- Node1&#45;&gt;Node5 -->
<g id="edge4" class="edge"><title>Node1&#45;&gt;Node5</title>
<path fill="none" stroke="midnightblue" d="M363.993,-250.435C386.398,-240.665 424.371,-224.105 450.401,-212.754"/>
<polygon fill="midnightblue" stroke="midnightblue" points="451.968,-215.889 459.735,-208.683 449.17,-209.472 451.968,-215.889"/>
</g>
<!-- Node6 -->
<g id="node6" class="node"><title>Node6</title>
<polygon fill="white" stroke="#bfbfbf" points="567,-185.5 567,-213.5 710,-213.5 710,-185.5 567,-185.5"/>
<text text-anchor="start" x="575" y="-202.3" font-family="Helvetica,sans-Serif" font-size="9.00">PriorHessian/TruncatedNormal</text>
<text text-anchor="middle" x="638.5" y="-192.3" font-family="Helvetica,sans-Serif" font-size="9.00">Dist.h</text>
</g>
<!-- Node1&#45;&gt;Node6 -->
<g id="edge5" class="edge"><title>Node1&#45;&gt;Node6</title>
<path fill="none" stroke="midnightblue" d="M385.933,-250.496C431.398,-241.496 506.239,-226.681 562.677,-215.509"/>
<polygon fill="midnightblue" stroke="midnightblue" points="563.503,-218.914 572.633,-213.538 562.144,-212.047 563.503,-218.914"/>
</g>
<!-- Node7 -->
<g id="node7" class="node"><title>Node7</title>
<polygon fill="white" stroke="#bfbfbf" points="728,-185.5 728,-213.5 871,-213.5 871,-185.5 728,-185.5"/>
<text text-anchor="start" x="736" y="-202.3" font-family="Helvetica,sans-Serif" font-size="9.00">PriorHessian/ScaledSymmetric</text>
<text text-anchor="middle" x="799.5" y="-192.3" font-family="Helvetica,sans-Serif" font-size="9.00">BetaDist.h</text>
</g>
<!-- Node1&#45;&gt;Node7 -->
<g id="edge6" class="edge"><title>Node1&#45;&gt;Node7</title>
<path fill="none" stroke="midnightblue" d="M395.209,-253.365C464.994,-245.984 596.219,-231.479 717.771,-214.207"/>
<polygon fill="midnightblue" stroke="midnightblue" points="718.594,-217.625 727.998,-212.744 717.603,-210.695 718.594,-217.625"/>
</g>
<!-- Node8 -->
<g id="node8" class="node"><title>Node8</title>
<polygon fill="white" stroke="#bfbfbf" points="889.5,-185.5 889.5,-213.5 1035.5,-213.5 1035.5,-185.5 889.5,-185.5"/>
<text text-anchor="start" x="897.5" y="-202.3" font-family="Helvetica,sans-Serif" font-size="9.00">PriorHessian/TruncatedGamma</text>
<text text-anchor="middle" x="962.5" y="-192.3" font-family="Helvetica,sans-Serif" font-size="9.00">Dist.h</text>
</g>
<!-- Node1&#45;&gt;Node8 -->
<g id="edge7" class="edge"><title>Node1&#45;&gt;Node8</title>
<path fill="none" stroke="midnightblue" d="M395.055,-255.71C487.95,-250.191 694.792,-236.532 879.076,-214.109"/>
<polygon fill="midnightblue" stroke="midnightblue" points="879.726,-217.556 889.224,-212.862 878.872,-210.608 879.726,-217.556"/>
</g>
<!-- Node9 -->
<g id="node9" class="node"><title>Node9</title>
<polygon fill="white" stroke="#bfbfbf" points="1053.5,-185.5 1053.5,-213.5 1193.5,-213.5 1193.5,-185.5 1053.5,-185.5"/>
<text text-anchor="start" x="1061.5" y="-202.3" font-family="Helvetica,sans-Serif" font-size="9.00">PriorHessian/TruncatedPareto</text>
<text text-anchor="middle" x="1123.5" y="-192.3" font-family="Helvetica,sans-Serif" font-size="9.00">Dist.h</text>
</g>
<!-- Node1&#45;&gt;Node9 -->
<g id="edge8" class="edge"><title>Node1&#45;&gt;Node9</title>
<path fill="none" stroke="midnightblue" d="M395.241,-257.138C508.49,-253.65 794.371,-242.649 1043.38,-214.04"/>
<polygon fill="midnightblue" stroke="midnightblue" points="1043.81,-217.514 1053.34,-212.884 1043.01,-210.561 1043.81,-217.514"/>
</g>
<!-- Node10 -->
<g id="node10" class="node"><title>Node10</title>
<g id="a_node10"><a xlink:href="util_8h.html" target="_top" xlink:title="Mappel/util.h">
<polygon fill="white" stroke="black" points="244,-70.5 244,-88.5 313,-88.5 313,-70.5 244,-70.5"/>
<text text-anchor="middle" x="278.5" y="-77.3" font-family="Helvetica,sans-Serif" font-size="9.00">Mappel/util.h</text>
</a>
</g>
</g>
<!-- Node1&#45;&gt;Node10 -->
<g id="edge9" class="edge"><title>Node1&#45;&gt;Node10</title>
<path fill="none" stroke="midnightblue" d="M312.2,-250.488C293.199,-244.025 270.948,-232.813 259.5,-214 237.163,-177.292 256.625,-124.593 269.429,-97.7047"/>
<polygon fill="midnightblue" stroke="midnightblue" points="272.565,-99.2597 273.91,-88.7505 266.305,-96.1272 272.565,-99.2597"/>
</g>
<!-- Node18 -->
<g id="node18" class="node"><title>Node18</title>
<g id="a_node18"><a xlink:href="stencil_8h.html" target="_top" xlink:title="The stencils for pixel based computations. ">
<polygon fill="white" stroke="black" points="269,-190.5 269,-208.5 352,-208.5 352,-190.5 269,-190.5"/>
<text text-anchor="middle" x="310.5" y="-197.3" font-family="Helvetica,sans-Serif" font-size="9.00">Mappel/stencil.h</text>
</a>
</g>
</g>
<!-- Node1&#45;&gt;Node18 -->
<g id="edge19" class="edge"><title>Node1&#45;&gt;Node18</title>
<path fill="none" stroke="midnightblue" d="M340.633,-250.435C335.52,-241.961 327.324,-228.38 320.77,-217.519"/>
<polygon fill="midnightblue" stroke="midnightblue" points="323.715,-215.625 315.552,-208.872 317.722,-219.242 323.715,-215.625"/>
</g>
<!-- Node20 -->
<g id="node20" class="node"><title>Node20</title>
<g id="a_node20"><a xlink:href="rng_8h.html" target="_top" xlink:title="Random number generation usign sfmt. ">
<polygon fill="white" stroke="black" points="405,-130.5 405,-148.5 476,-148.5 476,-130.5 405,-130.5"/>
<text text-anchor="middle" x="440.5" y="-137.3" font-family="Helvetica,sans-Serif" font-size="9.00">Mappel/rng.h</text>
</a>
</g>
</g>
<!-- Node1&#45;&gt;Node20 -->
<g id="edge32" class="edge"><title>Node1&#45;&gt;Node20</title>
<path fill="none" stroke="midnightblue" d="M351.204,-250.118C360.753,-236.232 380.774,-207.732 399.5,-185 407.7,-175.046 417.464,-164.405 425.406,-156.025"/>
<polygon fill="midnightblue" stroke="midnightblue" points="427.958,-158.421 432.352,-148.78 422.905,-153.577 427.958,-158.421"/>
</g>
<!-- Node24 -->
<g id="node24" class="node"><title>Node24</title>
<g id="a_node24"><a xlink:href="display_8h.html" target="_top" xlink:title="Mappel/display.h">
<polygon fill="white" stroke="black" points="79.5,-190.5 79.5,-208.5 165.5,-208.5 165.5,-190.5 79.5,-190.5"/>
<text text-anchor="middle" x="122.5" y="-197.3" font-family="Helvetica,sans-Serif" font-size="9.00">Mappel/display.h</text>
</a>
</g>
</g>
<!-- Node1&#45;&gt;Node24 -->
<g id="edge28" class="edge"><title>Node1&#45;&gt;Node24</title>
<path fill="none" stroke="midnightblue" d="M314.493,-250.435C275.078,-240.184 206.929,-222.459 163.321,-211.117"/>
<polygon fill="midnightblue" stroke="midnightblue" points="164.162,-207.719 153.603,-208.589 162.399,-214.494 164.162,-207.719"/>
</g>
<!-- Node10&#45;&gt;Node3 -->
<g id="edge14" class="edge"><title>Node10&#45;&gt;Node3</title>
<path fill="none" stroke="midnightblue" d="M248.347,-70.4677C216.214,-61.5822 164.074,-46.224 120.5,-29 119.496,-28.6032 118.478,-28.1861 117.455,-27.7541"/>
<polygon fill="midnightblue" stroke="midnightblue" points="118.866,-24.5512 108.313,-23.6185 115.981,-30.929 118.866,-24.5512"/>
</g>
<!-- Node10&#45;&gt;Node4 -->
<g id="edge17" class="edge"><title>Node10&#45;&gt;Node4</title>
<path fill="none" stroke="midnightblue" d="M243.874,-71.9994C201.076,-63.6288 126.215,-47.888 63.5,-29 61.3709,-28.3588 59.1862,-27.6558 56.9966,-26.9181"/>
<polygon fill="midnightblue" stroke="midnightblue" points="58.1165,-23.6016 47.5218,-23.5444 55.7684,-30.1961 58.1165,-23.6016"/>
</g>
<!-- Node11 -->
<g id="node11" class="node"><title>Node11</title>
<polygon fill="white" stroke="#bfbfbf" points="130,-5.5 130,-23.5 173,-23.5 173,-5.5 130,-5.5"/>
<text text-anchor="middle" x="151.5" y="-12.3" font-family="Helvetica,sans-Serif" font-size="9.00">cstdint</text>
</g>
<!-- Node10&#45;&gt;Node11 -->
<g id="edge10" class="edge"><title>Node10&#45;&gt;Node11</title>
<path fill="none" stroke="midnightblue" d="M262.157,-70.3928C240.534,-59.6664 202.197,-40.6491 176.813,-28.0569"/>
<polygon fill="midnightblue" stroke="midnightblue" points="178.294,-24.8846 167.78,-23.5761 175.183,-31.1554 178.294,-24.8846"/>
</g>
<!-- Node12 -->
<g id="node12" class="node"><title>Node12</title>
<polygon fill="white" stroke="#bfbfbf" points="561,-5.5 561,-23.5 602,-23.5 602,-5.5 561,-5.5"/>
<text text-anchor="middle" x="581.5" y="-12.3" font-family="Helvetica,sans-Serif" font-size="9.00">cmath</text>
</g>
<!-- Node10&#45;&gt;Node12 -->
<g id="edge11" class="edge"><title>Node10&#45;&gt;Node12</title>
<path fill="none" stroke="midnightblue" d="M313.14,-72.7538C381.682,-61.3092 529.951,-36.1535 552.5,-29 553.923,-28.5487 555.366,-28.0433 556.811,-27.5003"/>
<polygon fill="midnightblue" stroke="midnightblue" points="558.303,-30.6693 566.142,-23.5424 555.569,-24.225 558.303,-30.6693"/>
</g>
<!-- Node13 -->
<g id="node13" class="node"><title>Node13</title>
<polygon fill="white" stroke="#bfbfbf" points="191.5,-5.5 191.5,-23.5 241.5,-23.5 241.5,-5.5 191.5,-5.5"/>
<text text-anchor="middle" x="216.5" y="-12.3" font-family="Helvetica,sans-Serif" font-size="9.00">memory</text>
</g>
<!-- Node10&#45;&gt;Node13 -->
<g id="edge12" class="edge"><title>Node10&#45;&gt;Node13</title>
<path fill="none" stroke="midnightblue" d="M270.395,-70.2639C260.594,-60.3048 243.894,-43.3359 231.676,-30.9206"/>
<polygon fill="midnightblue" stroke="midnightblue" points="233.92,-28.2114 224.411,-23.539 228.931,-33.1214 233.92,-28.2114"/>
</g>
<!-- Node14 -->
<g id="node14" class="node"><title>Node14</title>
<polygon fill="white" stroke="#bfbfbf" points="259.5,-5.5 259.5,-23.5 297.5,-23.5 297.5,-5.5 259.5,-5.5"/>
<text text-anchor="middle" x="278.5" y="-12.3" font-family="Helvetica,sans-Serif" font-size="9.00">utility</text>
</g>
<!-- Node10&#45;&gt;Node14 -->
<g id="edge13" class="edge"><title>Node10&#45;&gt;Node14</title>
<path fill="none" stroke="midnightblue" d="M278.5,-70.2639C278.5,-61.0635 278.5,-45.881 278.5,-33.8326"/>
<polygon fill="midnightblue" stroke="midnightblue" points="282,-33.5389 278.5,-23.539 275,-33.539 282,-33.5389"/>
</g>
<!-- Node15 -->
<g id="node15" class="node"><title>Node15</title>
<polygon fill="white" stroke="#bfbfbf" points="316,-5.5 316,-23.5 351,-23.5 351,-5.5 316,-5.5"/>
<text text-anchor="middle" x="333.5" y="-12.3" font-family="Helvetica,sans-Serif" font-size="9.00">map</text>
</g>
<!-- Node10&#45;&gt;Node15 -->
<g id="edge15" class="edge"><title>Node10&#45;&gt;Node15</title>
<path fill="none" stroke="midnightblue" d="M285.69,-70.2639C294.302,-60.3996 308.917,-43.6585 319.727,-31.2766"/>
<polygon fill="midnightblue" stroke="midnightblue" points="322.542,-33.374 326.482,-23.539 317.269,-28.7704 322.542,-33.374"/>
</g>
<!-- Node16 -->
<g id="node16" class="node"><title>Node16</title>
<polygon fill="white" stroke="#bfbfbf" points="369,-5.5 369,-23.5 418,-23.5 418,-5.5 369,-5.5"/>
<text text-anchor="middle" x="393.5" y="-12.3" font-family="Helvetica,sans-Serif" font-size="9.00">sstream</text>
</g>
<!-- Node10&#45;&gt;Node16 -->
<g id="edge16" class="edge"><title>Node10&#45;&gt;Node16</title>
<path fill="none" stroke="midnightblue" d="M293.534,-70.2639C312.925,-59.6408 346.875,-41.0423 369.767,-28.5017"/>
<polygon fill="midnightblue" stroke="midnightblue" points="371.737,-31.4131 378.826,-23.539 368.374,-25.274 371.737,-31.4131"/>
</g>
<!-- Node17 -->
<g id="node17" class="node"><title>Node17</title>
<polygon fill="white" stroke="#bfbfbf" points="436,-0.5 436,-28.5 543,-28.5 543,-0.5 436,-0.5"/>
<text text-anchor="start" x="444" y="-17.3" font-family="Helvetica,sans-Serif" font-size="9.00">BacktraceException</text>
<text text-anchor="middle" x="489.5" y="-7.3" font-family="Helvetica,sans-Serif" font-size="9.00">/BacktraceException.h</text>
</g>
<!-- Node10&#45;&gt;Node17 -->
<g id="edge18" class="edge"><title>Node10&#45;&gt;Node17</title>
<path fill="none" stroke="midnightblue" d="M305.653,-70.3928C338.523,-60.5783 394.641,-43.8229 436.251,-31.3989"/>
<polygon fill="midnightblue" stroke="midnightblue" points="437.379,-34.715 445.96,-28.5002 435.376,-28.0076 437.379,-34.715"/>
</g>
<!-- Node18&#45;&gt;Node10 -->
<g id="edge22" class="edge"><title>Node18&#45;&gt;Node10</title>
<path fill="none" stroke="midnightblue" d="M308.301,-190.389C303.185,-171.527 290.391,-124.347 283.344,-98.3618"/>
<polygon fill="midnightblue" stroke="midnightblue" points="286.71,-97.4027 280.715,-88.6674 279.954,-99.2349 286.71,-97.4027"/>
</g>
<!-- Node18&#45;&gt;Node12 -->
<g id="edge20" class="edge"><title>Node18&#45;&gt;Node12</title>
<path fill="none" stroke="midnightblue" d="M319.771,-190.5C330.018,-181.29 346.52,-165.322 357.5,-149 380.371,-115.001 363.785,-90.9459 395.5,-65 450.909,-19.6699 484.787,-52.2346 552.5,-29 553.741,-28.5742 555,-28.112 556.263,-27.6237"/>
<polygon fill="midnightblue" stroke="midnightblue" points="557.978,-30.6966 565.793,-23.543 555.223,-24.2617 557.978,-30.6966"/>
</g>
<!-- Node19 -->
<g id="node19" class="node"><title>Node19</title>
<polygon fill="white" stroke="#bfbfbf" points="306.5,-130.5 306.5,-148.5 348.5,-148.5 348.5,-130.5 306.5,-130.5"/>
<text text-anchor="middle" x="327.5" y="-137.3" font-family="Helvetica,sans-Serif" font-size="9.00">climits</text>
</g>
<!-- Node18&#45;&gt;Node19 -->
<g id="edge21" class="edge"><title>Node18&#45;&gt;Node19</title>
<path fill="none" stroke="midnightblue" d="M312.864,-190.435C315.272,-182.218 319.088,-169.198 322.22,-158.514"/>
<polygon fill="midnightblue" stroke="midnightblue" points="325.592,-159.453 325.046,-148.872 318.875,-157.484 325.592,-159.453"/>
</g>
<!-- Node18&#45;&gt;Node20 -->
<g id="edge23" class="edge"><title>Node18&#45;&gt;Node20</title>
<path fill="none" stroke="midnightblue" d="M328.576,-190.435C350.379,-180.708 387.265,-164.251 412.698,-152.904"/>
<polygon fill="midnightblue" stroke="midnightblue" points="414.452,-155.954 422.158,-148.683 411.6,-149.561 414.452,-155.954"/>
</g>
<!-- Node20&#45;&gt;Node10 -->
<g id="edge25" class="edge"><title>Node20&#45;&gt;Node10</title>
<path fill="none" stroke="midnightblue" d="M417.975,-130.435C390.125,-120.465 342.528,-103.424 310.795,-92.0624"/>
<polygon fill="midnightblue" stroke="midnightblue" points="311.689,-88.6651 301.095,-88.5894 309.33,-95.2554 311.689,-88.6651"/>
</g>
<!-- Node21 -->
<g id="node21" class="node"><title>Node21</title>
<polygon fill="white" stroke="#bfbfbf" points="404.5,-70.5 404.5,-88.5 452.5,-88.5 452.5,-70.5 404.5,-70.5"/>
<text text-anchor="middle" x="428.5" y="-77.3" font-family="Helvetica,sans-Serif" font-size="9.00">random</text>
</g>
<!-- Node20&#45;&gt;Node21 -->
<g id="edge24" class="edge"><title>Node20&#45;&gt;Node21</title>
<path fill="none" stroke="midnightblue" d="M438.831,-130.435C437.149,-122.304 434.494,-109.469 432.296,-98.8485"/>
<polygon fill="midnightblue" stroke="midnightblue" points="435.686,-97.9552 430.232,-88.8718 428.831,-99.3735 435.686,-97.9552"/>
</g>
<!-- Node22 -->
<g id="node22" class="node"><title>Node22</title>
<polygon fill="white" stroke="#bfbfbf" points="471,-70.5 471,-88.5 568,-88.5 568,-70.5 471,-70.5"/>
<text text-anchor="middle" x="519.5" y="-77.3" font-family="Helvetica,sans-Serif" font-size="9.00">trng/lcg64_shift.hpp</text>
</g>
<!-- Node20&#45;&gt;Node22 -->
<g id="edge26" class="edge"><title>Node20&#45;&gt;Node22</title>
<path fill="none" stroke="midnightblue" d="M451.485,-130.435C464.031,-121.224 484.795,-105.98 500.086,-94.753"/>
<polygon fill="midnightblue" stroke="midnightblue" points="502.365,-97.4225 508.354,-88.6831 498.222,-91.7799 502.365,-97.4225"/>
</g>
<!-- Node23 -->
<g id="node23" class="node"><title>Node23</title>
<polygon fill="white" stroke="#bfbfbf" points="585.5,-65.5 585.5,-93.5 697.5,-93.5 697.5,-65.5 585.5,-65.5"/>
<text text-anchor="start" x="593.5" y="-82.3" font-family="Helvetica,sans-Serif" font-size="9.00">ParallelRngManager</text>
<text text-anchor="middle" x="641.5" y="-72.3" font-family="Helvetica,sans-Serif" font-size="9.00">/ParallelRngManager.h</text>
</g>
<!-- Node20&#45;&gt;Node23 -->
<g id="edge27" class="edge"><title>Node20&#45;&gt;Node23</title>
<path fill="none" stroke="midnightblue" d="M468.448,-130.435C498.848,-121.663 548.211,-107.419 586.451,-96.3847"/>
<polygon fill="midnightblue" stroke="midnightblue" points="587.778,-99.6449 596.415,-93.5096 585.837,-92.9193 587.778,-99.6449"/>
</g>
<!-- Node24&#45;&gt;Node2 -->
<g id="edge29" class="edge"><title>Node24&#45;&gt;Node2</title>
<path fill="none" stroke="midnightblue" d="M111.376,-190.435C98.6715,-181.224 77.6444,-165.98 62.1593,-154.753"/>
<polygon fill="midnightblue" stroke="midnightblue" points="63.9376,-151.719 53.7871,-148.683 59.8288,-157.386 63.9376,-151.719"/>
</g>
<!-- Node24&#45;&gt;Node4 -->
<g id="edge31" class="edge"><title>Node24&#45;&gt;Node4</title>
<path fill="none" stroke="midnightblue" d="M118.171,-190.161C103.643,-162.176 56.4224,-71.2136 36.4987,-32.8344"/>
<polygon fill="midnightblue" stroke="midnightblue" points="39.5681,-31.1504 31.8542,-23.8876 33.3553,-34.3756 39.5681,-31.1504"/>
</g>
<!-- Node25 -->
<g id="node25" class="node"><title>Node25</title>
<polygon fill="white" stroke="#bfbfbf" points="124.5,-130.5 124.5,-148.5 174.5,-148.5 174.5,-130.5 124.5,-130.5"/>
<text text-anchor="middle" x="149.5" y="-137.3" font-family="Helvetica,sans-Serif" font-size="9.00">iomanip</text>
</g>
<!-- Node24&#45;&gt;Node25 -->
<g id="edge30" class="edge"><title>Node24&#45;&gt;Node25</title>
<path fill="none" stroke="midnightblue" d="M126.254,-190.435C130.119,-182.132 136.267,-168.927 141.269,-158.181"/>
<polygon fill="midnightblue" stroke="midnightblue" points="144.555,-159.415 145.603,-148.872 138.209,-156.46 144.555,-159.415"/>
</g>
</g>
</svg>
        <g id="navigator" transform="translate(0 0)" fill="#404254">
                <rect fill="#f2f5e9" fill-opacity="0.5" stroke="#606060" stroke-width=".5" x="0" y="0" width="60" height="60"/>
                <use id="zoomplus" xlink:href="#zoomPlus" x="17" y="9" onmousedown="handleZoom(evt,'in')"/>
                <use id="zoomminus" xlink:href="#zoomMin" x="42" y="9" onmousedown="handleZoom(evt,'out')"/>
                <use id="reset" xlink:href="#resetDef" x="30" y="36" onmousedown="handleReset()"/>
                <g id="arrowUp" xlink:href="#dirArrow" transform="translate(30 24)" onmousedown="handlePan(0,-1)">
                  <use xlink:href="#rim" fill="#404040">
                        <set attributeName="fill" to="#808080" begin="arrowUp.mouseover" end="arrowUp.mouseout"/>
                  </use>
                  <path fill="none" stroke="white" stroke-width="1.5" d="M0,-3.0v7 M-2.5,-0.5L0,-3.0L2.5,-0.5"/>
                </g>
                <g id="arrowRight" xlink:href="#dirArrow" transform="rotate(90) translate(36 -43)" onmousedown="handlePan(1,0)">
                  <use xlink:href="#rim" fill="#404040">
                        <set attributeName="fill" to="#808080" begin="arrowRight.mouseover" end="arrowRight.mouseout"/>
                  </use>
                  <path fill="none" stroke="white" stroke-width="1.5" d="M0,-3.0v7 M-2.5,-0.5L0,-3.0L2.5,-0.5"/>
                </g>
                <g id="arrowDown" xlink:href="#dirArrow" transform="rotate(180) translate(-30 -48)" onmousedown="handlePan(0,1)">
                  <use xlink:href="#rim" fill="#404040">
                        <set attributeName="fill" to="#808080" begin="arrowDown.mouseover" end="arrowDown.mouseout"/>
                  </use>
                  <path fill="none" stroke="white" stroke-width="1.5" d="M0,-3.0v7 M-2.5,-0.5L0,-3.0L2.5,-0.5"/>
                </g>
                <g id="arrowLeft" xlink:href="#dirArrow" transform="rotate(270) translate(-36 17)" onmousedown="handlePan(-1,0)">
                  <use xlink:href="#rim" fill="#404040">
                        <set attributeName="fill" to="#808080" begin="arrowLeft.mouseover" end="arrowLeft.mouseout"/>
                  </use>
                  <path fill="none" stroke="white" stroke-width="1.5" d="M0,-3.0v7 M-2.5,-0.5L0,-3.0L2.5,-0.5"/>
                </g>
        </g>
        <svg viewBox="0 0 15 15" width="100%" height="30px" preserveAspectRatio="xMaxYMin meet">
         <g id="arrow_out" transform="scale(0.3 0.3)">
          <a xlink:href="PointEmitterModel_8h__incl_org.svg" target="_base">
           <rect id="button" ry="5" rx="5" y="6" x="6" height="38" width="38"
                fill="#f2f5e9" fill-opacity="0.5" stroke="#606060" stroke-width="1.0"/>
           <path id="arrow"
             d="M 11.500037,31.436501 C 11.940474,20.09759 22.043105,11.32322 32.158766,21.979434 L 37.068811,17.246167 C 37.068811,17.246167 37.088388,32 37.088388,32 L 22.160133,31.978069 C 22.160133,31.978069 26.997745,27.140456 26.997745,27.140456 C 18.528582,18.264221 13.291696,25.230495 11.500037,31.436501 z"
             style="fill:#404040;"/>
          </a>
         </g>
        </svg>
</svg>
