<?xml version="1.0" encoding="UTF-8" standalone="no"?>
<!DOCTYPE svg PUBLIC "-//W3C//DTD SVG 1.1//EN"
 "http://www.w3.org/Graphics/SVG/1.1/DTD/svg11.dtd">
<!-- Generated by graphviz version 2.38.0 (20140413.2041)
 -->
<!-- Title: model_image Pages: 1 -->
<svg width="234pt" height="84pt"
 viewBox="0.00 0.00 234.00 84.00" xmlns="http://www.w3.org/2000/svg" xmlns:xlink="http://www.w3.org/1999/xlink">
<g id="graph0" class="graph" transform="scale(1 1) rotate(0) translate(4 80)">
<title>model_image</title>
<polygon fill="white" stroke="none" points="-4,4 -4,-80 230,-80 230,4 -4,4"/>
<!-- Node1 -->
<g id="node1" class="node"><title>Node1</title>
<polygon fill="#bfbfbf" stroke="black" points="0,-28.5 0,-46.5 73,-46.5 73,-28.5 0,-28.5"/>
<text text-anchor="middle" x="36.5" y="-35.3" font-family="Helvetica,sans-Serif" font-size="9.00">model_image</text>
</g>
<!-- Node2 -->
<g id="node2" class="node"><title>Node2</title>
<g id="a_node2"><a xlink:href="namespacemappel.html#ac0a6248ecc5b41b2d7fe10231dcc00cb" target="_top" xlink:title="Parallel computation of the model image. ">
<polygon fill="white" stroke="black" points="113.5,-47.5 113.5,-75.5 221.5,-75.5 221.5,-47.5 113.5,-47.5"/>
<text text-anchor="start" x="121.5" y="-64.3" font-family="Helvetica,sans-Serif" font-size="9.00">mappel::model_image</text>
<text text-anchor="middle" x="167.5" y="-54.3" font-family="Helvetica,sans-Serif" font-size="9.00">_stack</text>
</a>
</g>
</g>
<!-- Node1&#45;&gt;Node2 -->
<g id="edge1" class="edge"><title>Node1&#45;&gt;Node2</title>
<path fill="none" stroke="midnightblue" d="M82.9812,-45.9616C92.7334,-47.776 103.123,-49.7088 113.142,-51.5729"/>
<polygon fill="midnightblue" stroke="midnightblue" points="83.5628,-42.5098 73.0913,-44.1216 82.2824,-49.3918 83.5628,-42.5098"/>
</g>
<!-- Node3 -->
<g id="node3" class="node"><title>Node3</title>
<g id="a_node3"><a xlink:href="namespacemappel.html#a79ac0dd997da8729f9610aab0fdbb347" target="_top" xlink:title="Parallel simulation of images from one or more theta. ">
<polygon fill="white" stroke="black" points="109,-0.5 109,-28.5 226,-28.5 226,-0.5 109,-0.5"/>
<text text-anchor="start" x="117" y="-17.3" font-family="Helvetica,sans-Serif" font-size="9.00">mappel::simulate_image</text>
<text text-anchor="middle" x="167.5" y="-7.3" font-family="Helvetica,sans-Serif" font-size="9.00">_stack</text>
</a>
</g>
</g>
<!-- Node1&#45;&gt;Node3 -->
<g id="edge2" class="edge"><title>Node1&#45;&gt;Node3</title>
<path fill="none" stroke="midnightblue" d="M82.9775,-29.3916C91.306,-27.9067 100.099,-26.3389 108.73,-24.8001"/>
<polygon fill="midnightblue" stroke="midnightblue" points="82.3217,-25.9533 73.0913,-31.1543 83.5504,-32.8446 82.3217,-25.9533"/>
</g>
</g>
</svg>
