<?xml version="1.0" encoding="UTF-8" standalone="no"?>
<!DOCTYPE svg PUBLIC "-//W3C//DTD SVG 1.1//EN"
 "http://www.w3.org/Graphics/SVG/1.1/DTD/svg11.dtd">
<!-- Generated by graphviz version 2.38.0 (20140413.2041)
 -->
<!-- Title: PoissonNoise1DObjective.h Pages: 1 -->
<svg width="893pt" height="247pt"
 viewBox="0.00 0.00 892.50 247.00" xmlns="http://www.w3.org/2000/svg" xmlns:xlink="http://www.w3.org/1999/xlink">
<g id="graph0" class="graph" transform="scale(1 1) rotate(0) translate(4 243)">
<title>PoissonNoise1DObjective.h</title>
<polygon fill="white" stroke="none" points="-4,4 -4,-243 888.5,-243 888.5,4 -4,4"/>
<!-- Node1 -->
<g id="node1" class="node"><title>Node1</title>
<polygon fill="#bfbfbf" stroke="black" points="316.5,-220.5 316.5,-238.5 447.5,-238.5 447.5,-220.5 316.5,-220.5"/>
<text text-anchor="middle" x="382" y="-227.3" font-family="Helvetica,sans-Serif" font-size="9.00">PoissonNoise1DObjective.h</text>
</g>
<!-- Node2 -->
<g id="node2" class="node"><title>Node2</title>
<g id="a_node2"><a xlink:href="PoissonNoise1DObjective_8cpp.html" target="_top" xlink:title="The class definition and template Specializations for PoissonNoise1DObjective. ">
<polygon fill="white" stroke="black" points="73.5,-165.5 73.5,-183.5 214.5,-183.5 214.5,-165.5 73.5,-165.5"/>
<text text-anchor="middle" x="144" y="-172.3" font-family="Helvetica,sans-Serif" font-size="9.00">PoissonNoise1DObjective.cpp</text>
</a>
</g>
</g>
<!-- Node1&#45;&gt;Node2 -->
<g id="edge1" class="edge"><title>Node1&#45;&gt;Node2</title>
<path fill="none" stroke="midnightblue" d="M335.949,-218.245C290.449,-208.113 221.784,-192.822 180.097,-183.538"/>
<polygon fill="midnightblue" stroke="midnightblue" points="335.331,-221.693 345.853,-220.45 336.853,-214.86 335.331,-221.693"/>
</g>
<!-- Node3 -->
<g id="node3" class="node"><title>Node3</title>
<g id="a_node3"><a xlink:href="Gauss1DMAP_8h.html" target="_top" xlink:title="The class declaration and inline and templated functions for Gauss1DMAP. ">
<polygon fill="white" stroke="black" points="233,-165.5 233,-183.5 315,-183.5 315,-165.5 233,-165.5"/>
<text text-anchor="middle" x="274" y="-172.3" font-family="Helvetica,sans-Serif" font-size="9.00">Gauss1DMAP.h</text>
</a>
</g>
</g>
<!-- Node1&#45;&gt;Node3 -->
<g id="edge2" class="edge"><title>Node1&#45;&gt;Node3</title>
<path fill="none" stroke="midnightblue" d="M356.554,-216.013C336.161,-206.005 308.142,-192.255 290.557,-183.625"/>
<polygon fill="midnightblue" stroke="midnightblue" points="355.078,-219.187 365.597,-220.45 358.162,-212.903 355.078,-219.187"/>
</g>
<!-- Node12 -->
<g id="node12" class="node"><title>Node12</title>
<g id="a_node12"><a xlink:href="Gauss1DMLE_8h.html" target="_top" xlink:title="The class declaration and inline and templated functions for Gauss1DMLE. ">
<polygon fill="white" stroke="black" points="341.5,-165.5 341.5,-183.5 422.5,-183.5 422.5,-165.5 341.5,-165.5"/>
<text text-anchor="middle" x="382" y="-172.3" font-family="Helvetica,sans-Serif" font-size="9.00">Gauss1DMLE.h</text>
</a>
</g>
</g>
<!-- Node1&#45;&gt;Node12 -->
<g id="edge11" class="edge"><title>Node1&#45;&gt;Node12</title>
<path fill="none" stroke="midnightblue" d="M382,-210.175C382,-201.094 382,-190.595 382,-183.55"/>
<polygon fill="midnightblue" stroke="midnightblue" points="378.5,-210.219 382,-220.219 385.5,-210.219 378.5,-210.219"/>
</g>
<!-- Node14 -->
<g id="node14" class="node"><title>Node14</title>
<g id="a_node14"><a xlink:href="Gauss1DsMAP_8h.html" target="_top" xlink:title="The class declaration and inline and templated functions for Gauss1DsMAP. ">
<polygon fill="white" stroke="black" points="507,-165.5 507,-183.5 593,-183.5 593,-165.5 507,-165.5"/>
<text text-anchor="middle" x="550" y="-172.3" font-family="Helvetica,sans-Serif" font-size="9.00">Gauss1DsMAP.h</text>
</a>
</g>
</g>
<!-- Node1&#45;&gt;Node14 -->
<g id="edge13" class="edge"><title>Node1&#45;&gt;Node14</title>
<path fill="none" stroke="midnightblue" d="M417.382,-217.338C449.459,-207.218 495.959,-192.549 524.52,-183.538"/>
<polygon fill="midnightblue" stroke="midnightblue" points="415.999,-214.104 407.516,-220.45 418.105,-220.78 415.999,-214.104"/>
</g>
<!-- Node23 -->
<g id="node23" class="node"><title>Node23</title>
<g id="a_node23"><a xlink:href="Gauss1DsMLE_8h.html" target="_top" xlink:title="The class declaration and inline and templated functions for Gauss1DsMLE. ">
<polygon fill="white" stroke="black" points="731,-165.5 731,-183.5 817,-183.5 817,-165.5 731,-165.5"/>
<text text-anchor="middle" x="774" y="-172.3" font-family="Helvetica,sans-Serif" font-size="9.00">Gauss1DsMLE.h</text>
</a>
</g>
</g>
<!-- Node1&#45;&gt;Node23 -->
<g id="edge22" class="edge"><title>Node1&#45;&gt;Node23</title>
<path fill="none" stroke="midnightblue" d="M451.633,-219.085C532.531,-208.148 663.497,-190.441 730.893,-181.328"/>
<polygon fill="midnightblue" stroke="midnightblue" points="450.977,-215.642 441.536,-220.45 451.915,-222.579 450.977,-215.642"/>
</g>
<!-- Node4 -->
<g id="node4" class="node"><title>Node4</title>
<g id="a_node4"><a xlink:href="estimator__statics_8cpp.html" target="_top" xlink:title="estimator_statics.cpp">
<polygon fill="white" stroke="black" points="0,-110.5 0,-128.5 102,-128.5 102,-110.5 0,-110.5"/>
<text text-anchor="middle" x="51" y="-117.3" font-family="Helvetica,sans-Serif" font-size="9.00">estimator_statics.cpp</text>
</a>
</g>
</g>
<!-- Node3&#45;&gt;Node4 -->
<g id="edge3" class="edge"><title>Node3&#45;&gt;Node4</title>
<path fill="none" stroke="midnightblue" d="M230.313,-163.117C187.679,-152.984 123.717,-137.783 84.8216,-128.538"/>
<polygon fill="midnightblue" stroke="midnightblue" points="229.593,-166.543 240.131,-165.45 231.211,-159.733 229.593,-166.543"/>
</g>
<!-- Node5 -->
<g id="node5" class="node"><title>Node5</title>
<g id="a_node5"><a xlink:href="Gauss1DMAP_8cpp.html" target="_top" xlink:title="The class definition and template Specializations for Gauss1DMAP. ">
<polygon fill="white" stroke="black" points="120,-110.5 120,-128.5 212,-128.5 212,-110.5 120,-110.5"/>
<text text-anchor="middle" x="166" y="-117.3" font-family="Helvetica,sans-Serif" font-size="9.00">Gauss1DMAP.cpp</text>
</a>
</g>
</g>
<!-- Node3&#45;&gt;Node5 -->
<g id="edge4" class="edge"><title>Node3&#45;&gt;Node5</title>
<path fill="none" stroke="midnightblue" d="M248.554,-161.013C228.161,-151.005 200.142,-137.255 182.557,-128.625"/>
<polygon fill="midnightblue" stroke="midnightblue" points="247.078,-164.187 257.597,-165.45 250.162,-157.903 247.078,-164.187"/>
</g>
<!-- Node6 -->
<g id="node6" class="node"><title>Node6</title>
<g id="a_node6"><a xlink:href="Gauss2DModel_8h.html" target="_top" xlink:title="The class declaration and inline and templated functions for Gauss2DModel. ">
<polygon fill="white" stroke="black" points="230,-110.5 230,-128.5 318,-128.5 318,-110.5 230,-110.5"/>
<text text-anchor="middle" x="274" y="-117.3" font-family="Helvetica,sans-Serif" font-size="9.00">Gauss2DModel.h</text>
</a>
</g>
</g>
<!-- Node3&#45;&gt;Node6 -->
<g id="edge5" class="edge"><title>Node3&#45;&gt;Node6</title>
<path fill="none" stroke="midnightblue" d="M274,-155.175C274,-146.094 274,-135.595 274,-128.55"/>
<polygon fill="midnightblue" stroke="midnightblue" points="270.5,-155.219 274,-165.219 277.5,-155.219 270.5,-155.219"/>
</g>
<!-- Node7 -->
<g id="node7" class="node"><title>Node7</title>
<g id="a_node7"><a xlink:href="Gauss2DModel_8cpp.html" target="_top" xlink:title="The class definition and template Specializations for Gauss2DModel. ">
<polygon fill="white" stroke="black" points="117,-55.5 117,-73.5 215,-73.5 215,-55.5 117,-55.5"/>
<text text-anchor="middle" x="166" y="-62.3" font-family="Helvetica,sans-Serif" font-size="9.00">Gauss2DModel.cpp</text>
</a>
</g>
</g>
<!-- Node6&#45;&gt;Node7 -->
<g id="edge6" class="edge"><title>Node6&#45;&gt;Node7</title>
<path fill="none" stroke="midnightblue" d="M248.554,-106.013C228.161,-96.0052 200.142,-82.2551 182.557,-73.6253"/>
<polygon fill="midnightblue" stroke="midnightblue" points="247.078,-109.187 257.597,-110.45 250.162,-102.903 247.078,-109.187"/>
</g>
<!-- Node8 -->
<g id="node8" class="node"><title>Node8</title>
<g id="a_node8"><a xlink:href="Gauss2DMAP_8h.html" target="_top" xlink:title="The class declaration and inline and templated functions for Gauss2DMAP. ">
<polygon fill="white" stroke="black" points="233,-55.5 233,-73.5 315,-73.5 315,-55.5 233,-55.5"/>
<text text-anchor="middle" x="274" y="-62.3" font-family="Helvetica,sans-Serif" font-size="9.00">Gauss2DMAP.h</text>
</a>
</g>
</g>
<!-- Node6&#45;&gt;Node8 -->
<g id="edge7" class="edge"><title>Node6&#45;&gt;Node8</title>
<path fill="none" stroke="midnightblue" d="M274,-100.175C274,-91.0945 274,-80.5949 274,-73.5496"/>
<polygon fill="midnightblue" stroke="midnightblue" points="270.5,-100.219 274,-110.219 277.5,-100.219 270.5,-100.219"/>
</g>
<!-- Node10 -->
<g id="node10" class="node"><title>Node10</title>
<g id="a_node10"><a xlink:href="Gauss2DMLE_8h.html" target="_top" xlink:title="The class declaration and inline and templated functions for Gauss2DMLE. ">
<polygon fill="white" stroke="black" points="338.5,-55.5 338.5,-73.5 419.5,-73.5 419.5,-55.5 338.5,-55.5"/>
<text text-anchor="middle" x="379" y="-62.3" font-family="Helvetica,sans-Serif" font-size="9.00">Gauss2DMLE.h</text>
</a>
</g>
</g>
<!-- Node6&#45;&gt;Node10 -->
<g id="edge9" class="edge"><title>Node6&#45;&gt;Node10</title>
<path fill="none" stroke="midnightblue" d="M299.009,-105.877C318.812,-95.8808 345.883,-82.216 362.903,-73.6253"/>
<polygon fill="midnightblue" stroke="midnightblue" points="297.297,-102.82 289.947,-110.45 300.452,-109.069 297.297,-102.82"/>
</g>
<!-- Node9 -->
<g id="node9" class="node"><title>Node9</title>
<g id="a_node9"><a xlink:href="Gauss2DMAP_8cpp.html" target="_top" xlink:title="The class definition and template Specializations for Gauss2DMAP. ">
<polygon fill="white" stroke="black" points="226,-0.5 226,-18.5 318,-18.5 318,-0.5 226,-0.5"/>
<text text-anchor="middle" x="272" y="-7.3" font-family="Helvetica,sans-Serif" font-size="9.00">Gauss2DMAP.cpp</text>
</a>
</g>
</g>
<!-- Node8&#45;&gt;Node9 -->
<g id="edge8" class="edge"><title>Node8&#45;&gt;Node9</title>
<path fill="none" stroke="midnightblue" d="M273.308,-45.1746C272.966,-36.0945 272.57,-25.5949 272.304,-18.5496"/>
<polygon fill="midnightblue" stroke="midnightblue" points="269.813,-45.3579 273.688,-55.2188 276.808,-45.0938 269.813,-45.3579"/>
</g>
<!-- Node11 -->
<g id="node11" class="node"><title>Node11</title>
<g id="a_node11"><a xlink:href="Gauss2DMLE_8cpp.html" target="_top" xlink:title="The class definition and template Specializations for Gauss2DMLE. ">
<polygon fill="white" stroke="black" points="336.5,-0.5 336.5,-18.5 427.5,-18.5 427.5,-0.5 336.5,-0.5"/>
<text text-anchor="middle" x="382" y="-7.3" font-family="Helvetica,sans-Serif" font-size="9.00">Gauss2DMLE.cpp</text>
</a>
</g>
</g>
<!-- Node10&#45;&gt;Node11 -->
<g id="edge10" class="edge"><title>Node10&#45;&gt;Node11</title>
<path fill="none" stroke="midnightblue" d="M380.037,-45.1746C380.551,-36.0945 381.146,-25.5949 381.544,-18.5496"/>
<polygon fill="midnightblue" stroke="midnightblue" points="376.54,-45.0369 379.469,-55.2188 383.528,-45.4326 376.54,-45.0369"/>
</g>
<!-- Node13 -->
<g id="node13" class="node"><title>Node13</title>
<g id="a_node13"><a xlink:href="Gauss1DMLE_8cpp.html" target="_top" xlink:title="The class definition and template Specializations for Gauss1DMLE. ">
<polygon fill="white" stroke="black" points="336.5,-110.5 336.5,-128.5 427.5,-128.5 427.5,-110.5 336.5,-110.5"/>
<text text-anchor="middle" x="382" y="-117.3" font-family="Helvetica,sans-Serif" font-size="9.00">Gauss1DMLE.cpp</text>
</a>
</g>
</g>
<!-- Node12&#45;&gt;Node13 -->
<g id="edge12" class="edge"><title>Node12&#45;&gt;Node13</title>
<path fill="none" stroke="midnightblue" d="M382,-155.175C382,-146.094 382,-135.595 382,-128.55"/>
<polygon fill="midnightblue" stroke="midnightblue" points="378.5,-155.219 382,-165.219 385.5,-155.219 378.5,-155.219"/>
</g>
<!-- Node15 -->
<g id="node15" class="node"><title>Node15</title>
<g id="a_node15"><a xlink:href="Gauss1DsMAP_8cpp.html" target="_top" xlink:title="The class definition and template Specializations for Gauss1DsMAP. ">
<polygon fill="white" stroke="black" points="446,-110.5 446,-128.5 542,-128.5 542,-110.5 446,-110.5"/>
<text text-anchor="middle" x="494" y="-117.3" font-family="Helvetica,sans-Serif" font-size="9.00">Gauss1DsMAP.cpp</text>
</a>
</g>
</g>
<!-- Node14&#45;&gt;Node15 -->
<g id="edge14" class="edge"><title>Node14&#45;&gt;Node15</title>
<path fill="none" stroke="midnightblue" d="M533.739,-158.11C523.526,-148.444 510.767,-136.369 502.505,-128.55"/>
<polygon fill="midnightblue" stroke="midnightblue" points="531.581,-160.887 541.25,-165.219 536.393,-155.803 531.581,-160.887"/>
</g>
<!-- Node16 -->
<g id="node16" class="node"><title>Node16</title>
<g id="a_node16"><a xlink:href="Gauss2DsModel_8h.html" target="_top" xlink:title="The class declaration and inline and templated functions for Gauss2DsModel. ">
<polygon fill="white" stroke="black" points="560,-110.5 560,-128.5 652,-128.5 652,-110.5 560,-110.5"/>
<text text-anchor="middle" x="606" y="-117.3" font-family="Helvetica,sans-Serif" font-size="9.00">Gauss2DsModel.h</text>
</a>
</g>
</g>
<!-- Node14&#45;&gt;Node16 -->
<g id="edge15" class="edge"><title>Node14&#45;&gt;Node16</title>
<path fill="none" stroke="midnightblue" d="M566.261,-158.11C576.474,-148.444 589.233,-136.369 597.495,-128.55"/>
<polygon fill="midnightblue" stroke="midnightblue" points="563.607,-155.803 558.75,-165.219 568.419,-160.887 563.607,-155.803"/>
</g>
<!-- Node22 -->
<g id="node22" class="node"><title>Node22</title>
<g id="a_node22"><a xlink:href="Gauss2DsxyModel_8h.html" target="_top" xlink:title="The class declaration and inline and templated functions for Gauss2DsxyModel. ">
<polygon fill="white" stroke="black" points="670.5,-110.5 670.5,-128.5 771.5,-128.5 771.5,-110.5 670.5,-110.5"/>
<text text-anchor="middle" x="721" y="-117.3" font-family="Helvetica,sans-Serif" font-size="9.00">Gauss2DsxyModel.h</text>
</a>
</g>
</g>
<!-- Node14&#45;&gt;Node22 -->
<g id="edge21" class="edge"><title>Node14&#45;&gt;Node22</title>
<path fill="none" stroke="midnightblue" d="M585.591,-162.469C618.253,-152.345 665.869,-137.588 695.065,-128.538"/>
<polygon fill="midnightblue" stroke="midnightblue" points="584.487,-159.147 575.971,-165.45 586.559,-165.833 584.487,-159.147"/>
</g>
<!-- Node17 -->
<g id="node17" class="node"><title>Node17</title>
<g id="a_node17"><a xlink:href="Gauss2DsModel_8cpp.html" target="_top" xlink:title="The class definition and template Specializations for Gauss2DsModel. ">
<polygon fill="white" stroke="black" points="443,-55.5 443,-73.5 545,-73.5 545,-55.5 443,-55.5"/>
<text text-anchor="middle" x="494" y="-62.3" font-family="Helvetica,sans-Serif" font-size="9.00">Gauss2DsModel.cpp</text>
</a>
</g>
</g>
<!-- Node16&#45;&gt;Node17 -->
<g id="edge16" class="edge"><title>Node16&#45;&gt;Node17</title>
<path fill="none" stroke="midnightblue" d="M579.898,-106.148C558.727,-96.1297 529.489,-82.2941 511.17,-73.6253"/>
<polygon fill="midnightblue" stroke="midnightblue" points="578.453,-109.337 588.99,-110.45 581.448,-103.009 578.453,-109.337"/>
</g>
<!-- Node18 -->
<g id="node18" class="node"><title>Node18</title>
<g id="a_node18"><a xlink:href="Gauss2DsMAP_8h.html" target="_top" xlink:title="The class declaration and inline and templated functions for Gauss2DsMAP. ">
<polygon fill="white" stroke="black" points="563,-55.5 563,-73.5 649,-73.5 649,-55.5 563,-55.5"/>
<text text-anchor="middle" x="606" y="-62.3" font-family="Helvetica,sans-Serif" font-size="9.00">Gauss2DsMAP.h</text>
</a>
</g>
</g>
<!-- Node16&#45;&gt;Node18 -->
<g id="edge17" class="edge"><title>Node16&#45;&gt;Node18</title>
<path fill="none" stroke="midnightblue" d="M606,-100.175C606,-91.0945 606,-80.5949 606,-73.5496"/>
<polygon fill="midnightblue" stroke="midnightblue" points="602.5,-100.219 606,-110.219 609.5,-100.219 602.5,-100.219"/>
</g>
<!-- Node20 -->
<g id="node20" class="node"><title>Node20</title>
<g id="a_node20"><a xlink:href="Gauss2DsMLE_8h.html" target="_top" xlink:title="The class declaration and inline and templated functions for Gauss2DsMLE. ">
<polygon fill="white" stroke="black" points="672,-55.5 672,-73.5 758,-73.5 758,-55.5 672,-55.5"/>
<text text-anchor="middle" x="715" y="-62.3" font-family="Helvetica,sans-Serif" font-size="9.00">Gauss2DsMLE.h</text>
</a>
</g>
</g>
<!-- Node16&#45;&gt;Node20 -->
<g id="edge19" class="edge"><title>Node16&#45;&gt;Node20</title>
<path fill="none" stroke="midnightblue" d="M631.682,-106.013C652.263,-96.0052 680.541,-82.2551 698.289,-73.6253"/>
<polygon fill="midnightblue" stroke="midnightblue" points="630.017,-102.93 622.555,-110.45 633.079,-109.225 630.017,-102.93"/>
</g>
<!-- Node19 -->
<g id="node19" class="node"><title>Node19</title>
<g id="a_node19"><a xlink:href="Gauss2DsMAP_8cpp.html" target="_top" xlink:title="The class definition and template Specializations for Gauss2DsMAP. ">
<polygon fill="white" stroke="black" points="555,-0.5 555,-18.5 651,-18.5 651,-0.5 555,-0.5"/>
<text text-anchor="middle" x="603" y="-7.3" font-family="Helvetica,sans-Serif" font-size="9.00">Gauss2DsMAP.cpp</text>
</a>
</g>
</g>
<!-- Node18&#45;&gt;Node19 -->
<g id="edge18" class="edge"><title>Node18&#45;&gt;Node19</title>
<path fill="none" stroke="midnightblue" d="M604.963,-45.1746C604.449,-36.0945 603.854,-25.5949 603.456,-18.5496"/>
<polygon fill="midnightblue" stroke="midnightblue" points="601.472,-45.4326 605.531,-55.2188 608.46,-45.0369 601.472,-45.4326"/>
</g>
<!-- Node21 -->
<g id="node21" class="node"><title>Node21</title>
<g id="a_node21"><a xlink:href="Gauss2DsMLE_8cpp.html" target="_top" xlink:title="The class definition and template Specializations for Gauss2DsMLE. ">
<polygon fill="white" stroke="black" points="669.5,-0.5 669.5,-18.5 764.5,-18.5 764.5,-0.5 669.5,-0.5"/>
<text text-anchor="middle" x="717" y="-7.3" font-family="Helvetica,sans-Serif" font-size="9.00">Gauss2DsMLE.cpp</text>
</a>
</g>
</g>
<!-- Node20&#45;&gt;Node21 -->
<g id="edge20" class="edge"><title>Node20&#45;&gt;Node21</title>
<path fill="none" stroke="midnightblue" d="M715.692,-45.1746C716.034,-36.0945 716.43,-25.5949 716.696,-18.5496"/>
<polygon fill="midnightblue" stroke="midnightblue" points="712.192,-45.0938 715.312,-55.2188 719.187,-45.3579 712.192,-45.0938"/>
</g>
<!-- Node24 -->
<g id="node24" class="node"><title>Node24</title>
<g id="a_node24"><a xlink:href="Gauss1DsMLE_8cpp.html" target="_top" xlink:title="The class definition and template Specializations for Gauss1DsMLE. ">
<polygon fill="white" stroke="black" points="789.5,-110.5 789.5,-128.5 884.5,-128.5 884.5,-110.5 789.5,-110.5"/>
<text text-anchor="middle" x="837" y="-117.3" font-family="Helvetica,sans-Serif" font-size="9.00">Gauss1DsMLE.cpp</text>
</a>
</g>
</g>
<!-- Node23&#45;&gt;Node24 -->
<g id="edge23" class="edge"><title>Node23&#45;&gt;Node24</title>
<path fill="none" stroke="midnightblue" d="M791.324,-158.926C802.93,-149.162 817.78,-136.669 827.342,-128.625"/>
<polygon fill="midnightblue" stroke="midnightblue" points="788.967,-156.334 783.568,-165.45 793.474,-161.691 788.967,-156.334"/>
</g>
</g>
</svg>
