<?xml version="1.0" encoding="UTF-8" standalone="no"?>
<!DOCTYPE svg PUBLIC "-//W3C//DTD SVG 1.1//EN"
 "http://www.w3.org/Graphics/SVG/1.1/DTD/svg11.dtd">
<!-- Generated by graphviz version 2.38.0 (20140413.2041)
 -->
<!-- Title: PoissonNoise2DObjective.cpp Pages: 1 -->
<!--zoomable 322 -->
<svg id="main" version="1.1" xmlns="http://www.w3.org/2000/svg" xmlns:xlink="http://www.w3.org/1999/xlink" xml:space="preserve" onload="init(evt)">
<style type="text/css"><![CDATA[
.edge:hover path { stroke: red; }
.edge:hover polygon { stroke: red; fill: red; }
]]></style>
<script type="text/javascript"><![CDATA[
var edges = document.getElementsByTagName('g');
if (edges && edges.length) {
  for (var i=0;i<edges.length;i++) {
    if (edges[i].id.substr(0,4)=='edge') {
      edges[i].setAttribute('class','edge');
    }
  }
}
]]></script>
        <defs>
                <circle id="rim" cx="0" cy="0" r="7"/>
                <circle id="rim2" cx="0" cy="0" r="3.5"/>
                <g id="zoomPlus">
                        <use xlink:href="#rim" fill="#404040">
                                <set attributeName="fill" to="#808080" begin="zoomplus.mouseover" end="zoomplus.mouseout"/>
                        </use>
                        <path d="M-4,0h8M0,-4v8" fill="none" stroke="white" stroke-width="1.5" pointer-events="none"/>
                </g>
                <g id="zoomMin">
                        <use xlink:href="#rim" fill="#404040">
                                <set attributeName="fill" to="#808080" begin="zoomminus.mouseover" end="zoomminus.mouseout"/>
                        </use>
                        <path d="M-4,0h8" fill="none" stroke="white" stroke-width="1.5" pointer-events="none"/>
                </g>
                <g id="dirArrow">
                        <path fill="none" stroke="white" stroke-width="1.5" d="M0,-3.0v7 M-2.5,-0.5L0,-3.0L2.5,-0.5"/>
                </g>
               <g id="resetDef">
                       <use xlink:href="#rim2" fill="#404040">
                               <set attributeName="fill" to="#808080" begin="reset.mouseover" end="reset.mouseout"/>
                       </use>
               </g>
        </defs>

<script type="text/javascript">
var viewWidth = 700;
var viewHeight = 322;
var sectionId = 'dynsection-0';
</script>
<script xlink:href="svgpan.js"/>
<svg id="graph" class="graph">
<g id="viewport">
<title>PoissonNoise2DObjective.cpp</title>
<polygon fill="white" stroke="none" points="-4,4 -4,-318 695.5,-318 695.5,4 -4,4"/>
<!-- Node1 -->
<g id="node1" class="node"><title>Node1</title>
<polygon fill="#bfbfbf" stroke="black" points="101.5,-295.5 101.5,-313.5 242.5,-313.5 242.5,-295.5 101.5,-295.5"/>
<text text-anchor="middle" x="172" y="-302.3" font-family="Helvetica,sans-Serif" font-size="9.00">PoissonNoise2DObjective.cpp</text>
</g>
<!-- Node2 -->
<g id="node2" class="node"><title>Node2</title>
<g id="a_node2"><a xlink:href="PoissonNoise2DObjective_8h.html" target="_top" xlink:title="The class declaration and inline and templated functions for PoissonNoise2DObjective. ">
<polygon fill="white" stroke="black" points="90,-240.5 90,-258.5 254,-258.5 254,-240.5 90,-240.5"/>
<text text-anchor="middle" x="172" y="-247.3" font-family="Helvetica,sans-Serif" font-size="9.00">Mappel/PoissonNoise2DObjective.h</text>
</a>
</g>
</g>
<!-- Node1&#45;&gt;Node2 -->
<g id="edge1" class="edge"><title>Node1&#45;&gt;Node2</title>
<path fill="none" stroke="midnightblue" d="M172,-295.219C172,-288.177 172,-277.808 172,-268.828"/>
<polygon fill="midnightblue" stroke="midnightblue" points="175.5,-268.55 172,-258.55 168.5,-268.55 175.5,-268.55"/>
</g>
<!-- Node3 -->
<g id="node3" class="node"><title>Node3</title>
<g id="a_node3"><a xlink:href="ImageFormat2DBase_8h.html" target="_top" xlink:title="The class declaration and inline and templated functions for ImageFormat2DBase. ">
<polygon fill="white" stroke="black" points="0,-185.5 0,-203.5 144,-203.5 144,-185.5 0,-185.5"/>
<text text-anchor="middle" x="72" y="-192.3" font-family="Helvetica,sans-Serif" font-size="9.00">Mappel/ImageFormat2DBase.h</text>
</a>
</g>
</g>
<!-- Node2&#45;&gt;Node3 -->
<g id="edge2" class="edge"><title>Node2&#45;&gt;Node3</title>
<path fill="none" stroke="midnightblue" d="M156.812,-240.45C140.733,-231.929 115.119,-218.353 96.2428,-208.349"/>
<polygon fill="midnightblue" stroke="midnightblue" points="97.8056,-205.216 87.3308,-203.625 94.5275,-211.401 97.8056,-205.216"/>
</g>
<!-- Node14 -->
<g id="node14" class="node"><title>Node14</title>
<g id="a_node14"><a xlink:href="estimator_8h.html" target="_top" xlink:title="The class declaration and inline and templated functions for the Estimator class hierarchy. ">
<polygon fill="white" stroke="black" points="224.5,-185.5 224.5,-203.5 319.5,-203.5 319.5,-185.5 224.5,-185.5"/>
<text text-anchor="middle" x="272" y="-192.3" font-family="Helvetica,sans-Serif" font-size="9.00">Mappel/estimator.h</text>
</a>
</g>
</g>
<!-- Node2&#45;&gt;Node14 -->
<g id="edge13" class="edge"><title>Node2&#45;&gt;Node14</title>
<path fill="none" stroke="midnightblue" d="M187.188,-240.45C203.267,-231.929 228.881,-218.353 247.757,-208.349"/>
<polygon fill="midnightblue" stroke="midnightblue" points="249.473,-211.401 256.669,-203.625 246.194,-205.216 249.473,-211.401"/>
</g>
<!-- Node4 -->
<g id="node4" class="node"><title>Node4</title>
<g id="a_node4"><a xlink:href="util_8h.html" target="_top" xlink:title="Mappel/util.h">
<polygon fill="white" stroke="black" points="225.5,-70.5 225.5,-88.5 294.5,-88.5 294.5,-70.5 225.5,-70.5"/>
<text text-anchor="middle" x="260" y="-77.3" font-family="Helvetica,sans-Serif" font-size="9.00">Mappel/util.h</text>
</a>
</g>
</g>
<!-- Node3&#45;&gt;Node4 -->
<g id="edge3" class="edge"><title>Node3&#45;&gt;Node4</title>
<path fill="none" stroke="midnightblue" d="M67.275,-185.09C60.5627,-171.892 50.4014,-146.156 63,-130 81.5006,-106.276 162.853,-92.1868 215.056,-85.4283"/>
<polygon fill="midnightblue" stroke="midnightblue" points="215.593,-88.8885 225.081,-84.1736 214.724,-81.9427 215.593,-88.8885"/>
</g>
<!-- Node5 -->
<g id="node5" class="node"><title>Node5</title>
<polygon fill="white" stroke="#bfbfbf" points="491.5,-5.5 491.5,-23.5 534.5,-23.5 534.5,-5.5 491.5,-5.5"/>
<text text-anchor="middle" x="513" y="-12.3" font-family="Helvetica,sans-Serif" font-size="9.00">cstdint</text>
</g>
<!-- Node4&#45;&gt;Node5 -->
<g id="edge4" class="edge"><title>Node4&#45;&gt;Node5</title>
<path fill="none" stroke="midnightblue" d="M291.366,-70.4675C298.776,-68.6229 306.658,-66.704 314,-65 388.385,-47.7373 409.299,-52.3606 482,-29 483.614,-28.4815 485.258,-27.9082 486.905,-27.299"/>
<polygon fill="midnightblue" stroke="midnightblue" points="488.22,-30.5426 496.18,-23.5505 485.597,-24.0525 488.22,-30.5426"/>
</g>
<!-- Node6 -->
<g id="node6" class="node"><title>Node6</title>
<polygon fill="white" stroke="#bfbfbf" points="110.5,-5.5 110.5,-23.5 151.5,-23.5 151.5,-5.5 110.5,-5.5"/>
<text text-anchor="middle" x="131" y="-12.3" font-family="Helvetica,sans-Serif" font-size="9.00">cmath</text>
</g>
<!-- Node4&#45;&gt;Node6 -->
<g id="edge5" class="edge"><title>Node4&#45;&gt;Node6</title>
<path fill="none" stroke="midnightblue" d="M243.4,-70.3928C221.436,-59.6664 182.496,-40.6491 156.712,-28.0569"/>
<polygon fill="midnightblue" stroke="midnightblue" points="158.058,-24.8195 147.537,-23.5761 154.986,-31.1095 158.058,-24.8195"/>
</g>
<!-- Node7 -->
<g id="node7" class="node"><title>Node7</title>
<polygon fill="white" stroke="#bfbfbf" points="574,-5.5 574,-23.5 624,-23.5 624,-5.5 574,-5.5"/>
<text text-anchor="middle" x="599" y="-12.3" font-family="Helvetica,sans-Serif" font-size="9.00">memory</text>
</g>
<!-- Node4&#45;&gt;Node7 -->
<g id="edge6" class="edge"><title>Node4&#45;&gt;Node7</title>
<path fill="none" stroke="midnightblue" d="M290.166,-70.4547C297.903,-68.5299 306.235,-66.5778 314,-65 414.965,-44.4857 441.95,-49.089 543,-29 549.788,-27.6505 556.998,-26.0441 563.907,-24.4183"/>
<polygon fill="midnightblue" stroke="midnightblue" points="564.827,-27.7969 573.727,-22.0501 563.186,-20.9919 564.827,-27.7969"/>
</g>
<!-- Node8 -->
<g id="node8" class="node"><title>Node8</title>
<polygon fill="white" stroke="#bfbfbf" points="170,-5.5 170,-23.5 208,-23.5 208,-5.5 170,-5.5"/>
<text text-anchor="middle" x="189" y="-12.3" font-family="Helvetica,sans-Serif" font-size="9.00">utility</text>
</g>
<!-- Node4&#45;&gt;Node8 -->
<g id="edge7" class="edge"><title>Node4&#45;&gt;Node8</title>
<path fill="none" stroke="midnightblue" d="M250.718,-70.2639C239.28,-60.1151 219.639,-42.687 205.585,-30.2162"/>
<polygon fill="midnightblue" stroke="midnightblue" points="207.863,-27.5581 198.06,-23.539 203.217,-32.7941 207.863,-27.5581"/>
</g>
<!-- Node9 -->
<g id="node9" class="node"><title>Node9</title>
<polygon fill="white" stroke="#bfbfbf" points="652.5,-5.5 652.5,-23.5 691.5,-23.5 691.5,-5.5 652.5,-5.5"/>
<text text-anchor="middle" x="672" y="-12.3" font-family="Helvetica,sans-Serif" font-size="9.00">string</text>
</g>
<!-- Node4&#45;&gt;Node9 -->
<g id="edge8" class="edge"><title>Node4&#45;&gt;Node9</title>
<path fill="none" stroke="midnightblue" d="M289.274,-70.4307C297.248,-68.4386 305.917,-66.4599 314,-65 454.406,-39.6421 493.849,-60.5278 633,-29 636.214,-28.2717 639.533,-27.3692 642.814,-26.3787"/>
<polygon fill="midnightblue" stroke="midnightblue" points="643.997,-29.6744 652.406,-23.2292 641.813,-23.0238 643.997,-29.6744"/>
</g>
<!-- Node10 -->
<g id="node10" class="node"><title>Node10</title>
<polygon fill="white" stroke="#bfbfbf" points="38.5,-5.5 38.5,-23.5 73.5,-23.5 73.5,-5.5 38.5,-5.5"/>
<text text-anchor="middle" x="56" y="-12.3" font-family="Helvetica,sans-Serif" font-size="9.00">map</text>
</g>
<!-- Node4&#45;&gt;Node10 -->
<g id="edge9" class="edge"><title>Node4&#45;&gt;Node10</title>
<path fill="none" stroke="midnightblue" d="M233.748,-70.3928C195.025,-58.4341 122.933,-36.1704 83.5041,-23.9939"/>
<polygon fill="midnightblue" stroke="midnightblue" points="84.351,-20.5924 73.7635,-20.9858 82.2854,-27.2807 84.351,-20.5924"/>
</g>
<!-- Node11 -->
<g id="node11" class="node"><title>Node11</title>
<polygon fill="white" stroke="#bfbfbf" points="226.5,-5.5 226.5,-23.5 275.5,-23.5 275.5,-5.5 226.5,-5.5"/>
<text text-anchor="middle" x="251" y="-12.3" font-family="Helvetica,sans-Serif" font-size="9.00">sstream</text>
</g>
<!-- Node4&#45;&gt;Node11 -->
<g id="edge10" class="edge"><title>Node4&#45;&gt;Node11</title>
<path fill="none" stroke="midnightblue" d="M258.823,-70.2639C257.496,-60.9687 255.295,-45.5673 253.566,-33.461"/>
<polygon fill="midnightblue" stroke="midnightblue" points="257.028,-32.9435 252.148,-23.539 250.098,-33.9335 257.028,-32.9435"/>
</g>
<!-- Node12 -->
<g id="node12" class="node"><title>Node12</title>
<polygon fill="white" stroke="#bfbfbf" points="293.5,-5.5 293.5,-23.5 348.5,-23.5 348.5,-5.5 293.5,-5.5"/>
<text text-anchor="middle" x="321" y="-12.3" font-family="Helvetica,sans-Serif" font-size="9.00">armadillo</text>
</g>
<!-- Node4&#45;&gt;Node12 -->
<g id="edge11" class="edge"><title>Node4&#45;&gt;Node12</title>
<path fill="none" stroke="midnightblue" d="M267.975,-70.2639C277.618,-60.3048 294.048,-43.3359 306.069,-30.9206"/>
<polygon fill="midnightblue" stroke="midnightblue" points="308.775,-33.1578 313.216,-23.539 303.746,-28.2885 308.775,-33.1578"/>
</g>
<!-- Node13 -->
<g id="node13" class="node"><title>Node13</title>
<polygon fill="white" stroke="#bfbfbf" points="366.5,-0.5 366.5,-28.5 473.5,-28.5 473.5,-0.5 366.5,-0.5"/>
<text text-anchor="start" x="374.5" y="-17.3" font-family="Helvetica,sans-Serif" font-size="9.00">BacktraceException</text>
<text text-anchor="middle" x="420" y="-7.3" font-family="Helvetica,sans-Serif" font-size="9.00">/BacktraceException.h</text>
</g>
<!-- Node4&#45;&gt;Node13 -->
<g id="edge12" class="edge"><title>Node4&#45;&gt;Node13</title>
<path fill="none" stroke="midnightblue" d="M280.59,-70.3928C304.99,-60.7854 346.281,-44.5267 377.61,-32.1909"/>
<polygon fill="midnightblue" stroke="midnightblue" points="378.961,-35.4206 386.984,-28.5002 376.397,-28.9074 378.961,-35.4206"/>
</g>
<!-- Node14&#45;&gt;Node4 -->
<g id="edge28" class="edge"><title>Node14&#45;&gt;Node4</title>
<path fill="none" stroke="midnightblue" d="M224.221,-189.446C172.013,-183.91 93.3347,-171.938 75,-149 35.6219,-99.7347 148.621,-85.9011 215.154,-82.0166"/>
<polygon fill="midnightblue" stroke="midnightblue" points="215.602,-85.4979 225.403,-81.4747 215.232,-78.5077 215.602,-85.4979"/>
</g>
<!-- Node14&#45;&gt;Node7 -->
<g id="edge18" class="edge"><title>Node14&#45;&gt;Node7</title>
<path fill="none" stroke="midnightblue" d="M319.536,-190.951C411.19,-185.547 605.109,-171.556 625,-149 654.198,-115.89 626.883,-59.9397 610.025,-32.1686"/>
<polygon fill="midnightblue" stroke="midnightblue" points="612.912,-30.1848 604.608,-23.6044 606.996,-33.9267 612.912,-30.1848"/>
</g>
<!-- Node14&#45;&gt;Node9 -->
<g id="edge16" class="edge"><title>Node14&#45;&gt;Node9</title>
<path fill="none" stroke="midnightblue" d="M319.852,-190.86C414.924,-185.176 620.497,-170.527 644,-149 676.375,-119.346 676.543,-62.6292 674.174,-33.598"/>
<polygon fill="midnightblue" stroke="midnightblue" points="677.654,-33.2254 673.165,-23.6285 670.689,-33.93 677.654,-33.2254"/>
</g>
<!-- Node14&#45;&gt;Node10 -->
<g id="edge20" class="edge"><title>Node14&#45;&gt;Node10</title>
<path fill="none" stroke="midnightblue" d="M224.02,-189.927C168.922,-184.736 83.4754,-172.981 63,-149 35.1944,-116.433 43.8334,-61.4629 50.8272,-33.3"/>
<polygon fill="midnightblue" stroke="midnightblue" points="54.214,-34.1832 53.4363,-23.6169 47.4551,-32.362 54.214,-34.1832"/>
</g>
<!-- Node15 -->
<g id="node15" class="node"><title>Node15</title>
<polygon fill="white" stroke="#bfbfbf" points="84,-130.5 84,-148.5 140,-148.5 140,-130.5 84,-130.5"/>
<text text-anchor="middle" x="112" y="-137.3" font-family="Helvetica,sans-Serif" font-size="9.00">exception</text>
</g>
<!-- Node14&#45;&gt;Node15 -->
<g id="edge14" class="edge"><title>Node14&#45;&gt;Node15</title>
<path fill="none" stroke="midnightblue" d="M247.699,-185.45C220.602,-176.475 176.58,-161.892 146.057,-151.781"/>
<polygon fill="midnightblue" stroke="midnightblue" points="146.86,-148.36 136.267,-148.538 144.659,-155.005 146.86,-148.36"/>
</g>
<!-- Node16 -->
<g id="node16" class="node"><title>Node16</title>
<polygon fill="white" stroke="#bfbfbf" points="158.5,-130.5 158.5,-148.5 205.5,-148.5 205.5,-130.5 158.5,-130.5"/>
<text text-anchor="middle" x="182" y="-137.3" font-family="Helvetica,sans-Serif" font-size="9.00">fstream</text>
</g>
<!-- Node14&#45;&gt;Node16 -->
<g id="edge15" class="edge"><title>Node14&#45;&gt;Node16</title>
<path fill="none" stroke="midnightblue" d="M258.331,-185.45C244.058,-177.045 221.437,-163.724 204.52,-153.762"/>
<polygon fill="midnightblue" stroke="midnightblue" points="206.191,-150.684 195.798,-148.625 202.639,-156.716 206.191,-150.684"/>
</g>
<!-- Node17 -->
<g id="node17" class="node"><title>Node17</title>
<polygon fill="white" stroke="#bfbfbf" points="224,-130.5 224,-148.5 262,-148.5 262,-130.5 224,-130.5"/>
<text text-anchor="middle" x="243" y="-137.3" font-family="Helvetica,sans-Serif" font-size="9.00">limits</text>
</g>
<!-- Node14&#45;&gt;Node17 -->
<g id="edge17" class="edge"><title>Node14&#45;&gt;Node17</title>
<path fill="none" stroke="midnightblue" d="M267.469,-185.219C263.402,-177.786 257.306,-166.646 252.217,-157.345"/>
<polygon fill="midnightblue" stroke="midnightblue" points="255.275,-155.642 247.404,-148.55 249.134,-159.002 255.275,-155.642"/>
</g>
<!-- Node18 -->
<g id="node18" class="node"><title>Node18</title>
<polygon fill="white" stroke="#bfbfbf" points="280.5,-130.5 280.5,-148.5 321.5,-148.5 321.5,-130.5 280.5,-130.5"/>
<text text-anchor="middle" x="301" y="-137.3" font-family="Helvetica,sans-Serif" font-size="9.00">mutex</text>
</g>
<!-- Node14&#45;&gt;Node18 -->
<g id="edge19" class="edge"><title>Node14&#45;&gt;Node18</title>
<path fill="none" stroke="midnightblue" d="M276.531,-185.219C280.598,-177.786 286.694,-166.646 291.783,-157.345"/>
<polygon fill="midnightblue" stroke="midnightblue" points="294.866,-159.002 296.596,-148.55 288.725,-155.642 294.866,-159.002"/>
</g>
<!-- Node19 -->
<g id="node19" class="node"><title>Node19</title>
<g id="a_node19"><a xlink:href="rng_8h.html" target="_top" xlink:title="Random number generation usign sfmt. ">
<polygon fill="white" stroke="black" points="545.5,-130.5 545.5,-148.5 616.5,-148.5 616.5,-130.5 545.5,-130.5"/>
<text text-anchor="middle" x="581" y="-137.3" font-family="Helvetica,sans-Serif" font-size="9.00">Mappel/rng.h</text>
</a>
</g>
</g>
<!-- Node14&#45;&gt;Node19 -->
<g id="edge21" class="edge"><title>Node14&#45;&gt;Node19</title>
<path fill="none" stroke="midnightblue" d="M319.741,-185.743C370.589,-177.416 453.694,-163.622 535.218,-149.11"/>
<polygon fill="midnightblue" stroke="midnightblue" points="535.921,-152.54 545.15,-147.337 534.691,-145.649 535.921,-152.54"/>
</g>
<!-- Node23 -->
<g id="node23" class="node"><title>Node23</title>
<polygon fill="white" stroke="#bfbfbf" points="339.5,-130.5 339.5,-148.5 464.5,-148.5 464.5,-130.5 339.5,-130.5"/>
<text text-anchor="middle" x="402" y="-137.3" font-family="Helvetica,sans-Serif" font-size="9.00">cGaussMLE/cGaussMLE.h</text>
</g>
<!-- Node14&#45;&gt;Node23 -->
<g id="edge26" class="edge"><title>Node14&#45;&gt;Node23</title>
<path fill="none" stroke="midnightblue" d="M291.744,-185.45C313.315,-176.656 348.086,-162.48 372.81,-152.401"/>
<polygon fill="midnightblue" stroke="midnightblue" points="374.131,-155.642 382.07,-148.625 371.489,-149.16 374.131,-155.642"/>
</g>
<!-- Node24 -->
<g id="node24" class="node"><title>Node24</title>
<polygon fill="white" stroke="#bfbfbf" points="482.5,-130.5 482.5,-148.5 527.5,-148.5 527.5,-130.5 482.5,-130.5"/>
<text text-anchor="middle" x="505" y="-137.3" font-family="Helvetica,sans-Serif" font-size="9.00">chrono</text>
</g>
<!-- Node14&#45;&gt;Node24 -->
<g id="edge27" class="edge"><title>Node14&#45;&gt;Node24</title>
<path fill="none" stroke="midnightblue" d="M310.644,-185.445C349.136,-177.311 410.15,-164.119 472.32,-149.082"/>
<polygon fill="midnightblue" stroke="midnightblue" points="473.415,-152.418 482.304,-146.654 471.76,-145.616 473.415,-152.418"/>
</g>
<!-- Node19&#45;&gt;Node4 -->
<g id="edge23" class="edge"><title>Node19&#45;&gt;Node4</title>
<path fill="none" stroke="midnightblue" d="M545.154,-131.642C542.06,-131.077 538.976,-130.522 536,-130 437.549,-112.722 411.906,-114.139 314,-94 309.513,-93.077 304.836,-92.0329 300.193,-90.9442"/>
<polygon fill="midnightblue" stroke="midnightblue" points="300.714,-87.4693 290.171,-88.5193 299.068,-94.2729 300.714,-87.4693"/>
</g>
<!-- Node20 -->
<g id="node20" class="node"><title>Node20</title>
<polygon fill="white" stroke="#bfbfbf" points="453,-70.5 453,-88.5 501,-88.5 501,-70.5 453,-70.5"/>
<text text-anchor="middle" x="477" y="-77.3" font-family="Helvetica,sans-Serif" font-size="9.00">random</text>
</g>
<!-- Node19&#45;&gt;Node20 -->
<g id="edge22" class="edge"><title>Node19&#45;&gt;Node20</title>
<path fill="none" stroke="midnightblue" d="M566.539,-130.435C549.483,-120.923 520.888,-104.976 500.605,-93.6645"/>
<polygon fill="midnightblue" stroke="midnightblue" points="502.112,-90.4971 491.673,-88.6831 498.702,-96.6106 502.112,-90.4971"/>
</g>
<!-- Node21 -->
<g id="node21" class="node"><title>Node21</title>
<polygon fill="white" stroke="#bfbfbf" points="519.5,-70.5 519.5,-88.5 616.5,-88.5 616.5,-70.5 519.5,-70.5"/>
<text text-anchor="middle" x="568" y="-77.3" font-family="Helvetica,sans-Serif" font-size="9.00">trng/lcg64_shift.hpp</text>
</g>
<!-- Node19&#45;&gt;Node21 -->
<g id="edge24" class="edge"><title>Node19&#45;&gt;Node21</title>
<path fill="none" stroke="midnightblue" d="M579.192,-130.435C577.37,-122.304 574.493,-109.469 572.113,-98.8485"/>
<polygon fill="midnightblue" stroke="midnightblue" points="575.479,-97.8641 569.876,-88.8718 568.648,-99.3952 575.479,-97.8641"/>
</g>
<!-- Node22 -->
<g id="node22" class="node"><title>Node22</title>
<polygon fill="white" stroke="#bfbfbf" points="323,-65.5 323,-93.5 435,-93.5 435,-65.5 323,-65.5"/>
<text text-anchor="start" x="331" y="-82.3" font-family="Helvetica,sans-Serif" font-size="9.00">ParallelRngManager</text>
<text text-anchor="middle" x="379" y="-72.3" font-family="Helvetica,sans-Serif" font-size="9.00">/ParallelRngManager.h</text>
</g>
<!-- Node19&#45;&gt;Node22 -->
<g id="edge25" class="edge"><title>Node19&#45;&gt;Node22</title>
<path fill="none" stroke="midnightblue" d="M552.913,-130.435C522.362,-121.663 472.753,-107.419 434.323,-96.3847"/>
<polygon fill="midnightblue" stroke="midnightblue" points="434.887,-92.9053 424.309,-93.5096 432.955,-99.6335 434.887,-92.9053"/>
</g>
</g>
</svg>
        <g id="navigator" transform="translate(0 0)" fill="#404254">
                <rect fill="#f2f5e9" fill-opacity="0.5" stroke="#606060" stroke-width=".5" x="0" y="0" width="60" height="60"/>
                <use id="zoomplus" xlink:href="#zoomPlus" x="17" y="9" onmousedown="handleZoom(evt,'in')"/>
                <use id="zoomminus" xlink:href="#zoomMin" x="42" y="9" onmousedown="handleZoom(evt,'out')"/>
                <use id="reset" xlink:href="#resetDef" x="30" y="36" onmousedown="handleReset()"/>
                <g id="arrowUp" xlink:href="#dirArrow" transform="translate(30 24)" onmousedown="handlePan(0,-1)">
                  <use xlink:href="#rim" fill="#404040">
                        <set attributeName="fill" to="#808080" begin="arrowUp.mouseover" end="arrowUp.mouseout"/>
                  </use>
                  <path fill="none" stroke="white" stroke-width="1.5" d="M0,-3.0v7 M-2.5,-0.5L0,-3.0L2.5,-0.5"/>
                </g>
                <g id="arrowRight" xlink:href="#dirArrow" transform="rotate(90) translate(36 -43)" onmousedown="handlePan(1,0)">
                  <use xlink:href="#rim" fill="#404040">
                        <set attributeName="fill" to="#808080" begin="arrowRight.mouseover" end="arrowRight.mouseout"/>
                  </use>
                  <path fill="none" stroke="white" stroke-width="1.5" d="M0,-3.0v7 M-2.5,-0.5L0,-3.0L2.5,-0.5"/>
                </g>
                <g id="arrowDown" xlink:href="#dirArrow" transform="rotate(180) translate(-30 -48)" onmousedown="handlePan(0,1)">
                  <use xlink:href="#rim" fill="#404040">
                        <set attributeName="fill" to="#808080" begin="arrowDown.mouseover" end="arrowDown.mouseout"/>
                  </use>
                  <path fill="none" stroke="white" stroke-width="1.5" d="M0,-3.0v7 M-2.5,-0.5L0,-3.0L2.5,-0.5"/>
                </g>
                <g id="arrowLeft" xlink:href="#dirArrow" transform="rotate(270) translate(-36 17)" onmousedown="handlePan(-1,0)">
                  <use xlink:href="#rim" fill="#404040">
                        <set attributeName="fill" to="#808080" begin="arrowLeft.mouseover" end="arrowLeft.mouseout"/>
                  </use>
                  <path fill="none" stroke="white" stroke-width="1.5" d="M0,-3.0v7 M-2.5,-0.5L0,-3.0L2.5,-0.5"/>
                </g>
        </g>
        <svg viewBox="0 0 15 15" width="100%" height="30px" preserveAspectRatio="xMaxYMin meet">
         <g id="arrow_out" transform="scale(0.3 0.3)">
          <a xlink:href="PoissonNoise2DObjective_8cpp__incl_org.svg" target="_base">
           <rect id="button" ry="5" rx="5" y="6" x="6" height="38" width="38"
                fill="#f2f5e9" fill-opacity="0.5" stroke="#606060" stroke-width="1.0"/>
           <path id="arrow"
             d="M 11.500037,31.436501 C 11.940474,20.09759 22.043105,11.32322 32.158766,21.979434 L 37.068811,17.246167 C 37.068811,17.246167 37.088388,32 37.088388,32 L 22.160133,31.978069 C 22.160133,31.978069 26.997745,27.140456 26.997745,27.140456 C 18.528582,18.264221 13.291696,25.230495 11.500037,31.436501 z"
             style="fill:#404040;"/>
          </a>
         </g>
        </svg>
</svg>
