<?xml version="1.0" encoding="UTF-8" standalone="no"?>
<!DOCTYPE svg PUBLIC "-//W3C//DTD SVG 1.1//EN"
 "http://www.w3.org/Graphics/SVG/1.1/DTD/svg11.dtd">
<!-- Generated by graphviz version 2.38.0 (20140413.2041)
 -->
<!-- Title: simulate_image Pages: 1 -->
<svg width="414pt" height="84pt"
 viewBox="0.00 0.00 414.00 84.00" xmlns="http://www.w3.org/2000/svg" xmlns:xlink="http://www.w3.org/1999/xlink">
<g id="graph0" class="graph" transform="scale(1 1) rotate(0) translate(4 80)">
<title>simulate_image</title>
<polygon fill="white" stroke="none" points="-4,4 -4,-80 410,-80 410,4 -4,4"/>
<!-- Node1 -->
<g id="node1" class="node"><title>Node1</title>
<polygon fill="#bfbfbf" stroke="black" points="0,-28.5 0,-46.5 82,-46.5 82,-28.5 0,-28.5"/>
<text text-anchor="middle" x="41" y="-35.3" font-family="Helvetica,sans-Serif" font-size="9.00">simulate_image</text>
</g>
<!-- Node2 -->
<g id="node2" class="node"><title>Node2</title>
<g id="a_node2"><a xlink:href="namespacemappel.html#adc1e3a6c0fd4804406d162c48d805d44" target="_top" xlink:title="mappel::generate_poisson">
<polygon fill="white" stroke="black" points="118,-28.5 118,-46.5 244,-46.5 244,-28.5 118,-28.5"/>
<text text-anchor="middle" x="181" y="-35.3" font-family="Helvetica,sans-Serif" font-size="9.00">mappel::generate_poisson</text>
</a>
</g>
</g>
<!-- Node1&#45;&gt;Node2 -->
<g id="edge1" class="edge"><title>Node1&#45;&gt;Node2</title>
<path fill="none" stroke="midnightblue" d="M82.2863,-37.5C90.2916,-37.5 98.9245,-37.5 107.629,-37.5"/>
<polygon fill="midnightblue" stroke="midnightblue" points="107.847,-41.0001 117.847,-37.5 107.847,-34.0001 107.847,-41.0001"/>
</g>
<!-- Node3 -->
<g id="node3" class="node"><title>Node3</title>
<g id="a_node3"><a xlink:href="namespacemappel.html#af5deeb186fbcfbd0f449064cc70e8a86" target="_top" xlink:title="Genrates a single poisson disributed int from distribution with mean mu. ">
<polygon fill="white" stroke="black" points="280,-47.5 280,-75.5 406,-75.5 406,-47.5 280,-47.5"/>
<text text-anchor="start" x="288" y="-64.3" font-family="Helvetica,sans-Serif" font-size="9.00">mappel::generate_poisson</text>
<text text-anchor="middle" x="343" y="-54.3" font-family="Helvetica,sans-Serif" font-size="9.00">_small</text>
</a>
</g>
</g>
<!-- Node2&#45;&gt;Node3 -->
<g id="edge2" class="edge"><title>Node2&#45;&gt;Node3</title>
<path fill="none" stroke="midnightblue" d="M242.033,-46.505C251.085,-47.8627 260.501,-49.2751 269.776,-50.6664"/>
<polygon fill="midnightblue" stroke="midnightblue" points="269.353,-54.142 279.761,-52.1642 270.391,-47.2194 269.353,-54.142"/>
</g>
<!-- Node4 -->
<g id="node4" class="node"><title>Node4</title>
<g id="a_node4"><a xlink:href="namespacemappel.html#ae776a0d92c466702788b7405a4a166e0" target="_top" xlink:title="mappel::generate_poisson\l_large">
<polygon fill="white" stroke="black" points="280,-0.5 280,-28.5 406,-28.5 406,-0.5 280,-0.5"/>
<text text-anchor="start" x="288" y="-17.3" font-family="Helvetica,sans-Serif" font-size="9.00">mappel::generate_poisson</text>
<text text-anchor="middle" x="343" y="-7.3" font-family="Helvetica,sans-Serif" font-size="9.00">_large</text>
</a>
</g>
</g>
<!-- Node2&#45;&gt;Node4 -->
<g id="edge3" class="edge"><title>Node2&#45;&gt;Node4</title>
<path fill="none" stroke="midnightblue" d="M244.318,-28.5417C252.706,-27.336 261.367,-26.091 269.907,-24.8634"/>
<polygon fill="midnightblue" stroke="midnightblue" points="270.452,-28.3212 279.852,-23.4338 269.455,-21.3924 270.452,-28.3212"/>
</g>
</g>
</svg>
