<?xml version="1.0" encoding="UTF-8" standalone="no"?>
<!DOCTYPE svg PUBLIC "-//W3C//DTD SVG 1.1//EN"
 "http://www.w3.org/Graphics/SVG/1.1/DTD/svg11.dtd">
<!-- Generated by graphviz version 2.38.0 (20140413.2041)
 -->
<!-- Title: relative_log_likelihood Pages: 1 -->
<svg width="282pt" height="84pt"
 viewBox="0.00 0.00 282.00 84.00" xmlns="http://www.w3.org/2000/svg" xmlns:xlink="http://www.w3.org/1999/xlink">
<g id="graph0" class="graph" transform="scale(1 1) rotate(0) translate(4 80)">
<title>relative_log_likelihood</title>
<polygon fill="white" stroke="none" points="-4,4 -4,-80 278,-80 278,4 -4,4"/>
<!-- Node1 -->
<g id="node1" class="node"><title>Node1</title>
<polygon fill="#bfbfbf" stroke="black" points="0,-28.5 0,-46.5 110,-46.5 110,-28.5 0,-28.5"/>
<text text-anchor="middle" x="55" y="-35.3" font-family="Helvetica,sans-Serif" font-size="9.00">relative_log_likelihood</text>
</g>
<!-- Node2 -->
<g id="node2" class="node"><title>Node2</title>
<g id="a_node2"><a xlink:href="namespacemappel.html#a6e36ec38eee9f05906f51d4db8767b9e" target="_top" xlink:title="mappel::relative_poisson\l_log_likelihood">
<polygon fill="white" stroke="black" points="150.5,-47.5 150.5,-75.5 269.5,-75.5 269.5,-47.5 150.5,-47.5"/>
<text text-anchor="start" x="158.5" y="-64.3" font-family="Helvetica,sans-Serif" font-size="9.00">mappel::relative_poisson</text>
<text text-anchor="middle" x="210" y="-54.3" font-family="Helvetica,sans-Serif" font-size="9.00">_log_likelihood</text>
</a>
</g>
</g>
<!-- Node1&#45;&gt;Node2 -->
<g id="edge1" class="edge"><title>Node1&#45;&gt;Node2</title>
<path fill="none" stroke="midnightblue" d="M110.373,-46.0291C120.1,-47.5549 130.35,-49.1627 140.414,-50.7415"/>
<polygon fill="midnightblue" stroke="midnightblue" points="139.97,-54.2144 150.391,-52.3065 141.055,-47.299 139.97,-54.2144"/>
</g>
<!-- Node3 -->
<g id="node3" class="node"><title>Node3</title>
<g id="a_node3"><a xlink:href="namespacemappel_1_1methods_1_1objective.html#a293c23ed6a623e59477bb67b6e40f5ad" target="_top" xlink:title="mappel::methods::objective\l::rllh">
<polygon fill="white" stroke="black" points="146,-0.5 146,-28.5 274,-28.5 274,-0.5 146,-0.5"/>
<text text-anchor="start" x="154" y="-17.3" font-family="Helvetica,sans-Serif" font-size="9.00">mappel::methods::objective</text>
<text text-anchor="middle" x="210" y="-7.3" font-family="Helvetica,sans-Serif" font-size="9.00">::rllh</text>
</a>
</g>
</g>
<!-- Node1&#45;&gt;Node3 -->
<g id="edge2" class="edge"><title>Node1&#45;&gt;Node3</title>
<path fill="none" stroke="midnightblue" d="M110.373,-29.3263C118.645,-28.0827 127.295,-26.7824 135.889,-25.4906"/>
<polygon fill="midnightblue" stroke="midnightblue" points="136.555,-28.9298 145.924,-23.9821 135.514,-22.0076 136.555,-28.9298"/>
</g>
</g>
</svg>
