<?xml version="1.0" encoding="UTF-8" standalone="no"?>
<!DOCTYPE svg PUBLIC "-//W3C//DTD SVG 1.1//EN"
 "http://www.w3.org/Graphics/SVG/1.1/DTD/svg11.dtd">
<!-- Generated by graphviz version 2.38.0 (20140413.2041)
 -->
<!-- Title: PoissonNoise1DObjective.cpp Pages: 1 -->
<svg width="970pt" height="377pt"
 viewBox="0.00 0.00 970.00 377.00" xmlns="http://www.w3.org/2000/svg" xmlns:xlink="http://www.w3.org/1999/xlink">
<g id="graph0" class="graph" transform="scale(1 1) rotate(0) translate(4 373)">
<title>PoissonNoise1DObjective.cpp</title>
<polygon fill="white" stroke="none" points="-4,4 -4,-373 966,-373 966,4 -4,4"/>
<!-- Node1 -->
<g id="node1" class="node"><title>Node1</title>
<polygon fill="#bfbfbf" stroke="black" points="371,-350.5 371,-368.5 512,-368.5 512,-350.5 371,-350.5"/>
<text text-anchor="middle" x="441.5" y="-357.3" font-family="Helvetica,sans-Serif" font-size="9.00">PoissonNoise1DObjective.cpp</text>
</g>
<!-- Node2 -->
<g id="node2" class="node"><title>Node2</title>
<g id="a_node2"><a xlink:href="PoissonNoise1DObjective_8h.html" target="_top" xlink:title="The class declaration and inline and templated functions for PoissonNoise1DObjective. ">
<polygon fill="white" stroke="black" points="359.5,-295.5 359.5,-313.5 523.5,-313.5 523.5,-295.5 359.5,-295.5"/>
<text text-anchor="middle" x="441.5" y="-302.3" font-family="Helvetica,sans-Serif" font-size="9.00">Mappel/PoissonNoise1DObjective.h</text>
</a>
</g>
</g>
<!-- Node1&#45;&gt;Node2 -->
<g id="edge1" class="edge"><title>Node1&#45;&gt;Node2</title>
<path fill="none" stroke="midnightblue" d="M441.5,-350.219C441.5,-343.177 441.5,-332.808 441.5,-323.828"/>
<polygon fill="midnightblue" stroke="midnightblue" points="445,-323.55 441.5,-313.55 438,-323.55 445,-323.55"/>
</g>
<!-- Node3 -->
<g id="node3" class="node"><title>Node3</title>
<g id="a_node3"><a xlink:href="ImageFormat1DBase_8h.html" target="_top" xlink:title="The class declaration and inline and templated functions for ImageFormat1DBase. ">
<polygon fill="white" stroke="black" points="196.5,-240.5 196.5,-258.5 340.5,-258.5 340.5,-240.5 196.5,-240.5"/>
<text text-anchor="middle" x="268.5" y="-247.3" font-family="Helvetica,sans-Serif" font-size="9.00">Mappel/ImageFormat1DBase.h</text>
</a>
</g>
</g>
<!-- Node2&#45;&gt;Node3 -->
<g id="edge2" class="edge"><title>Node2&#45;&gt;Node3</title>
<path fill="none" stroke="midnightblue" d="M415.225,-295.45C385.672,-286.396 337.498,-271.638 304.466,-261.519"/>
<polygon fill="midnightblue" stroke="midnightblue" points="305.325,-258.121 294.738,-258.538 303.274,-264.814 305.325,-258.121"/>
</g>
<!-- Node15 -->
<g id="node15" class="node"><title>Node15</title>
<g id="a_node15"><a xlink:href="PoissonNoise2DObjective_8h.html" target="_top" xlink:title="The class declaration and inline and templated functions for PoissonNoise2DObjective. ">
<polygon fill="white" stroke="black" points="359.5,-240.5 359.5,-258.5 523.5,-258.5 523.5,-240.5 359.5,-240.5"/>
<text text-anchor="middle" x="441.5" y="-247.3" font-family="Helvetica,sans-Serif" font-size="9.00">Mappel/PoissonNoise2DObjective.h</text>
</a>
</g>
</g>
<!-- Node2&#45;&gt;Node15 -->
<g id="edge15" class="edge"><title>Node2&#45;&gt;Node15</title>
<path fill="none" stroke="midnightblue" d="M441.5,-295.219C441.5,-288.177 441.5,-277.808 441.5,-268.828"/>
<polygon fill="midnightblue" stroke="midnightblue" points="445,-268.55 441.5,-258.55 438,-268.55 445,-268.55"/>
</g>
<!-- Node16 -->
<g id="node16" class="node"><title>Node16</title>
<g id="a_node16"><a xlink:href="estimator_8h.html" target="_top" xlink:title="The class declaration and inline and templated functions for the Estimator class hierarchy. ">
<polygon fill="white" stroke="black" points="505,-185.5 505,-203.5 600,-203.5 600,-185.5 505,-185.5"/>
<text text-anchor="middle" x="552.5" y="-192.3" font-family="Helvetica,sans-Serif" font-size="9.00">Mappel/estimator.h</text>
</a>
</g>
</g>
<!-- Node2&#45;&gt;Node16 -->
<g id="edge33" class="edge"><title>Node2&#45;&gt;Node16</title>
<path fill="none" stroke="midnightblue" d="M472.022,-295.432C491.828,-288.723 516.785,-277.263 532.5,-259 543.337,-246.406 548.31,-227.933 550.587,-214.155"/>
<polygon fill="midnightblue" stroke="midnightblue" points="554.1,-214.289 551.936,-203.918 547.16,-213.375 554.1,-214.289"/>
</g>
<!-- Node4 -->
<g id="node4" class="node"><title>Node4</title>
<g id="a_node4"><a xlink:href="util_8h.html" target="_top" xlink:title="Mappel/util.h">
<polygon fill="white" stroke="black" points="209,-70.5 209,-88.5 278,-88.5 278,-70.5 209,-70.5"/>
<text text-anchor="middle" x="243.5" y="-77.3" font-family="Helvetica,sans-Serif" font-size="9.00">Mappel/util.h</text>
</a>
</g>
</g>
<!-- Node3&#45;&gt;Node4 -->
<g id="edge3" class="edge"><title>Node3&#45;&gt;Node4</title>
<path fill="none" stroke="midnightblue" d="M238.304,-240.421C220.127,-233.83 198.447,-222.505 187.5,-204 165.53,-166.863 203.723,-119.599 227.193,-95.7444"/>
<polygon fill="midnightblue" stroke="midnightblue" points="229.79,-98.1003 234.48,-88.6003 224.889,-93.1018 229.79,-98.1003"/>
</g>
<!-- Node14 -->
<g id="node14" class="node"><title>Node14</title>
<g id="a_node14"><a xlink:href="ImageFormat2DBase_8h.html" target="_top" xlink:title="The class declaration and inline and templated functions for ImageFormat2DBase. ">
<polygon fill="white" stroke="black" points="196.5,-185.5 196.5,-203.5 340.5,-203.5 340.5,-185.5 196.5,-185.5"/>
<text text-anchor="middle" x="268.5" y="-192.3" font-family="Helvetica,sans-Serif" font-size="9.00">Mappel/ImageFormat2DBase.h</text>
</a>
</g>
</g>
<!-- Node3&#45;&gt;Node14 -->
<g id="edge13" class="edge"><title>Node3&#45;&gt;Node14</title>
<path fill="none" stroke="midnightblue" d="M268.5,-240.219C268.5,-233.177 268.5,-222.808 268.5,-213.828"/>
<polygon fill="midnightblue" stroke="midnightblue" points="272,-213.55 268.5,-203.55 265,-213.55 272,-213.55"/>
</g>
<!-- Node5 -->
<g id="node5" class="node"><title>Node5</title>
<polygon fill="white" stroke="#bfbfbf" points="381,-5.5 381,-23.5 424,-23.5 424,-5.5 381,-5.5"/>
<text text-anchor="middle" x="402.5" y="-12.3" font-family="Helvetica,sans-Serif" font-size="9.00">cstdint</text>
</g>
<!-- Node4&#45;&gt;Node5 -->
<g id="edge4" class="edge"><title>Node4&#45;&gt;Node5</title>
<path fill="none" stroke="midnightblue" d="M265.352,-70.3668C290.921,-60.7768 334.476,-44.2129 371.5,-29 372.532,-28.5761 373.581,-28.1408 374.639,-27.698"/>
<polygon fill="midnightblue" stroke="midnightblue" points="376.37,-30.7652 384.195,-23.6222 373.623,-24.3265 376.37,-30.7652"/>
</g>
<!-- Node6 -->
<g id="node6" class="node"><title>Node6</title>
<polygon fill="white" stroke="#bfbfbf" points="0,-5.5 0,-23.5 41,-23.5 41,-5.5 0,-5.5"/>
<text text-anchor="middle" x="20.5" y="-12.3" font-family="Helvetica,sans-Serif" font-size="9.00">cmath</text>
</g>
<!-- Node4&#45;&gt;Node6 -->
<g id="edge5" class="edge"><title>Node4&#45;&gt;Node6</title>
<path fill="none" stroke="midnightblue" d="M208.804,-71.487C169.755,-63.162 104.693,-47.9847 50.5,-29 49.2569,-28.5645 47.9943,-28.0979 46.7258,-27.6094"/>
<polygon fill="midnightblue" stroke="midnightblue" points="47.6881,-24.218 37.1121,-23.5861 44.9856,-30.6753 47.6881,-24.218"/>
</g>
<!-- Node7 -->
<g id="node7" class="node"><title>Node7</title>
<polygon fill="white" stroke="#bfbfbf" points="593.5,-5.5 593.5,-23.5 643.5,-23.5 643.5,-5.5 593.5,-5.5"/>
<text text-anchor="middle" x="618.5" y="-12.3" font-family="Helvetica,sans-Serif" font-size="9.00">memory</text>
</g>
<!-- Node4&#45;&gt;Node7 -->
<g id="edge6" class="edge"><title>Node4&#45;&gt;Node7</title>
<path fill="none" stroke="midnightblue" d="M278.107,-72.686C349.308,-60.7243 511.524,-33.472 583.26,-21.4202"/>
<polygon fill="midnightblue" stroke="midnightblue" points="583.885,-24.8645 593.166,-19.756 582.725,-17.9613 583.885,-24.8645"/>
</g>
<!-- Node8 -->
<g id="node8" class="node"><title>Node8</title>
<polygon fill="white" stroke="#bfbfbf" points="59.5,-5.5 59.5,-23.5 97.5,-23.5 97.5,-5.5 59.5,-5.5"/>
<text text-anchor="middle" x="78.5" y="-12.3" font-family="Helvetica,sans-Serif" font-size="9.00">utility</text>
</g>
<!-- Node4&#45;&gt;Node8 -->
<g id="edge7" class="edge"><title>Node4&#45;&gt;Node8</title>
<path fill="none" stroke="midnightblue" d="M218.957,-70.4805C191.315,-61.2534 145.2,-45.2703 106.5,-29 105.651,-28.6431 104.791,-28.2739 103.925,-27.8954"/>
<polygon fill="midnightblue" stroke="midnightblue" points="105.206,-24.6322 94.6579,-23.6378 102.284,-30.993 105.206,-24.6322"/>
</g>
<!-- Node9 -->
<g id="node9" class="node"><title>Node9</title>
<polygon fill="white" stroke="#bfbfbf" points="711,-5.5 711,-23.5 750,-23.5 750,-5.5 711,-5.5"/>
<text text-anchor="middle" x="730.5" y="-12.3" font-family="Helvetica,sans-Serif" font-size="9.00">string</text>
</g>
<!-- Node4&#45;&gt;Node9 -->
<g id="edge8" class="edge"><title>Node4&#45;&gt;Node9</title>
<path fill="none" stroke="midnightblue" d="M278.052,-74.9193C348.583,-67.4775 514.154,-49.3305 652.5,-29 668.584,-26.6364 686.457,-23.5748 701.033,-20.9648"/>
<polygon fill="midnightblue" stroke="midnightblue" points="701.775,-24.3875 710.99,-19.1606 700.527,-17.4996 701.775,-24.3875"/>
</g>
<!-- Node10 -->
<g id="node10" class="node"><title>Node10</title>
<polygon fill="white" stroke="#bfbfbf" points="442,-5.5 442,-23.5 477,-23.5 477,-5.5 442,-5.5"/>
<text text-anchor="middle" x="459.5" y="-12.3" font-family="Helvetica,sans-Serif" font-size="9.00">map</text>
</g>
<!-- Node4&#45;&gt;Node10 -->
<g id="edge9" class="edge"><title>Node4&#45;&gt;Node10</title>
<path fill="none" stroke="midnightblue" d="M278.31,-71.6542C316.746,-63.5762 380.119,-48.7104 432.5,-29 433.38,-28.6689 434.269,-28.318 435.162,-27.9515"/>
<polygon fill="midnightblue" stroke="midnightblue" points="436.969,-30.9737 444.61,-23.6345 434.06,-24.6068 436.969,-30.9737"/>
</g>
<!-- Node11 -->
<g id="node11" class="node"><title>Node11</title>
<polygon fill="white" stroke="#bfbfbf" points="116,-5.5 116,-23.5 165,-23.5 165,-5.5 116,-5.5"/>
<text text-anchor="middle" x="140.5" y="-12.3" font-family="Helvetica,sans-Serif" font-size="9.00">sstream</text>
</g>
<!-- Node4&#45;&gt;Node11 -->
<g id="edge10" class="edge"><title>Node4&#45;&gt;Node11</title>
<path fill="none" stroke="midnightblue" d="M230.035,-70.2639C212.822,-59.7357 182.802,-41.3738 162.308,-28.8391"/>
<polygon fill="midnightblue" stroke="midnightblue" points="164,-25.7711 153.643,-23.539 160.348,-31.7427 164,-25.7711"/>
</g>
<!-- Node12 -->
<g id="node12" class="node"><title>Node12</title>
<polygon fill="white" stroke="#bfbfbf" points="183,-5.5 183,-23.5 238,-23.5 238,-5.5 183,-5.5"/>
<text text-anchor="middle" x="210.5" y="-12.3" font-family="Helvetica,sans-Serif" font-size="9.00">armadillo</text>
</g>
<!-- Node4&#45;&gt;Node12 -->
<g id="edge11" class="edge"><title>Node4&#45;&gt;Node12</title>
<path fill="none" stroke="midnightblue" d="M239.186,-70.2639C234.218,-60.779 225.919,-44.9361 219.522,-32.724"/>
<polygon fill="midnightblue" stroke="midnightblue" points="222.451,-30.7733 214.711,-23.539 216.251,-34.0213 222.451,-30.7733"/>
</g>
<!-- Node13 -->
<g id="node13" class="node"><title>Node13</title>
<polygon fill="white" stroke="#bfbfbf" points="256,-0.5 256,-28.5 363,-28.5 363,-0.5 256,-0.5"/>
<text text-anchor="start" x="264" y="-17.3" font-family="Helvetica,sans-Serif" font-size="9.00">BacktraceException</text>
<text text-anchor="middle" x="309.5" y="-7.3" font-family="Helvetica,sans-Serif" font-size="9.00">/BacktraceException.h</text>
</g>
<!-- Node4&#45;&gt;Node13 -->
<g id="edge12" class="edge"><title>Node4&#45;&gt;Node13</title>
<path fill="none" stroke="midnightblue" d="M252.128,-70.2639C261.33,-61.4805 276.244,-47.2447 288.559,-35.489"/>
<polygon fill="midnightblue" stroke="midnightblue" points="291,-37.9974 295.817,-28.5608 286.167,-32.9338 291,-37.9974"/>
</g>
<!-- Node14&#45;&gt;Node4 -->
<g id="edge14" class="edge"><title>Node14&#45;&gt;Node4</title>
<path fill="none" stroke="midnightblue" d="M257.879,-185.3C248.39,-177.243 235.143,-163.999 229.5,-149 223.233,-132.342 228.738,-112.295 234.585,-98.2051"/>
<polygon fill="midnightblue" stroke="midnightblue" points="237.937,-99.2946 238.935,-88.7469 231.577,-96.3702 237.937,-99.2946"/>
</g>
<!-- Node15&#45;&gt;Node14 -->
<g id="edge16" class="edge"><title>Node15&#45;&gt;Node14</title>
<path fill="none" stroke="midnightblue" d="M415.225,-240.45C385.672,-231.396 337.498,-216.638 304.466,-206.519"/>
<polygon fill="midnightblue" stroke="midnightblue" points="305.325,-203.121 294.738,-203.538 303.274,-209.814 305.325,-203.121"/>
</g>
<!-- Node15&#45;&gt;Node16 -->
<g id="edge17" class="edge"><title>Node15&#45;&gt;Node16</title>
<path fill="none" stroke="midnightblue" d="M458.359,-240.45C476.451,-231.812 505.419,-217.98 526.447,-207.94"/>
<polygon fill="midnightblue" stroke="midnightblue" points="527.967,-211.093 535.483,-203.625 524.951,-204.776 527.967,-211.093"/>
</g>
<!-- Node16&#45;&gt;Node4 -->
<g id="edge32" class="edge"><title>Node16&#45;&gt;Node4</title>
<path fill="none" stroke="midnightblue" d="M504.9,-192.305C432.023,-189.493 297.537,-180.119 262.5,-149 248.392,-136.47 244.359,-114.474 243.398,-98.7876"/>
<polygon fill="midnightblue" stroke="midnightblue" points="246.895,-98.6141 243.142,-88.7064 239.897,-98.7922 246.895,-98.6141"/>
</g>
<!-- Node16&#45;&gt;Node7 -->
<g id="edge22" class="edge"><title>Node16&#45;&gt;Node7</title>
<path fill="none" stroke="midnightblue" d="M600.253,-188.247C633.917,-182.718 678.823,-171.513 712.5,-149 738.296,-131.756 745.393,-123.336 755.5,-94 759.698,-81.814 762.905,-75.5493 755.5,-65 743.481,-47.8772 689.776,-32.2119 653.287,-23.2718"/>
<polygon fill="midnightblue" stroke="midnightblue" points="654.04,-19.8533 643.501,-20.9329 652.413,-26.6616 654.04,-19.8533"/>
</g>
<!-- Node16&#45;&gt;Node9 -->
<g id="edge20" class="edge"><title>Node16&#45;&gt;Node9</title>
<path fill="none" stroke="midnightblue" d="M600.343,-191.91C640.368,-188.408 697.228,-178.153 737.5,-149 770.125,-125.383 785.154,-102.89 771.5,-65 766.76,-51.8464 756.838,-39.7107 747.943,-30.7476"/>
<polygon fill="midnightblue" stroke="midnightblue" points="750.213,-28.0769 740.545,-23.7417 745.399,-33.1593 750.213,-28.0769"/>
</g>
<!-- Node16&#45;&gt;Node10 -->
<g id="edge24" class="edge"><title>Node16&#45;&gt;Node10</title>
<path fill="none" stroke="midnightblue" d="M561.756,-185.493C575.257,-172.845 597.316,-147.851 583.5,-130 544.44,-79.5344 483.56,-144.466 444.5,-94 430.869,-76.3894 440.226,-50.0048 449.104,-32.7702"/>
<polygon fill="midnightblue" stroke="midnightblue" points="452.284,-34.2539 454.099,-23.8156 446.171,-30.8441 452.284,-34.2539"/>
</g>
<!-- Node17 -->
<g id="node17" class="node"><title>Node17</title>
<polygon fill="white" stroke="#bfbfbf" points="840.5,-130.5 840.5,-148.5 896.5,-148.5 896.5,-130.5 840.5,-130.5"/>
<text text-anchor="middle" x="868.5" y="-137.3" font-family="Helvetica,sans-Serif" font-size="9.00">exception</text>
</g>
<!-- Node16&#45;&gt;Node17 -->
<g id="edge18" class="edge"><title>Node16&#45;&gt;Node17</title>
<path fill="none" stroke="midnightblue" d="M600.115,-186.339C654.846,-177.974 747.323,-163.436 826.5,-149 827.598,-148.8 828.711,-148.594 829.835,-148.384"/>
<polygon fill="midnightblue" stroke="midnightblue" points="830.907,-151.741 840.062,-146.41 829.58,-144.868 830.907,-151.741"/>
</g>
<!-- Node18 -->
<g id="node18" class="node"><title>Node18</title>
<polygon fill="white" stroke="#bfbfbf" points="915,-130.5 915,-148.5 962,-148.5 962,-130.5 915,-130.5"/>
<text text-anchor="middle" x="938.5" y="-137.3" font-family="Helvetica,sans-Serif" font-size="9.00">fstream</text>
</g>
<!-- Node16&#45;&gt;Node18 -->
<g id="edge19" class="edge"><title>Node16&#45;&gt;Node18</title>
<path fill="none" stroke="midnightblue" d="M600.191,-189.422C666.377,-183.338 789.947,-170.445 904.772,-148.897"/>
<polygon fill="midnightblue" stroke="midnightblue" points="905.619,-152.299 914.788,-146.991 904.31,-145.422 905.619,-152.299"/>
</g>
<!-- Node19 -->
<g id="node19" class="node"><title>Node19</title>
<polygon fill="white" stroke="#bfbfbf" points="271.5,-130.5 271.5,-148.5 309.5,-148.5 309.5,-130.5 271.5,-130.5"/>
<text text-anchor="middle" x="290.5" y="-137.3" font-family="Helvetica,sans-Serif" font-size="9.00">limits</text>
</g>
<!-- Node16&#45;&gt;Node19 -->
<g id="edge21" class="edge"><title>Node16&#45;&gt;Node19</title>
<path fill="none" stroke="midnightblue" d="M504.672,-185.943C459.285,-178.428 389.012,-165.903 319.505,-149.034"/>
<polygon fill="midnightblue" stroke="midnightblue" points="320.251,-145.613 309.705,-146.625 318.58,-152.411 320.251,-145.613"/>
</g>
<!-- Node20 -->
<g id="node20" class="node"><title>Node20</title>
<polygon fill="white" stroke="#bfbfbf" points="328,-130.5 328,-148.5 369,-148.5 369,-130.5 328,-130.5"/>
<text text-anchor="middle" x="348.5" y="-137.3" font-family="Helvetica,sans-Serif" font-size="9.00">mutex</text>
</g>
<!-- Node16&#45;&gt;Node20 -->
<g id="edge23" class="edge"><title>Node16&#45;&gt;Node20</title>
<path fill="none" stroke="midnightblue" d="M519.508,-185.487C486.254,-177.328 433.226,-164.093 378.87,-149.308"/>
<polygon fill="midnightblue" stroke="midnightblue" points="379.638,-145.889 369.069,-146.628 377.792,-152.641 379.638,-145.889"/>
</g>
<!-- Node21 -->
<g id="node21" class="node"><title>Node21</title>
<g id="a_node21"><a xlink:href="rng_8h.html" target="_top" xlink:title="Random number generation usign sfmt. ">
<polygon fill="white" stroke="black" points="632,-130.5 632,-148.5 703,-148.5 703,-130.5 632,-130.5"/>
<text text-anchor="middle" x="667.5" y="-137.3" font-family="Helvetica,sans-Serif" font-size="9.00">Mappel/rng.h</text>
</a>
</g>
</g>
<!-- Node16&#45;&gt;Node21 -->
<g id="edge25" class="edge"><title>Node16&#45;&gt;Node21</title>
<path fill="none" stroke="midnightblue" d="M569.966,-185.45C588.71,-176.812 618.722,-162.98 640.508,-152.94"/>
<polygon fill="midnightblue" stroke="midnightblue" points="642.253,-155.99 649.87,-148.625 639.323,-149.632 642.253,-155.99"/>
</g>
<!-- Node25 -->
<g id="node25" class="node"><title>Node25</title>
<polygon fill="white" stroke="#bfbfbf" points="387,-130.5 387,-148.5 512,-148.5 512,-130.5 387,-130.5"/>
<text text-anchor="middle" x="449.5" y="-137.3" font-family="Helvetica,sans-Serif" font-size="9.00">cGaussMLE/cGaussMLE.h</text>
</g>
<!-- Node16&#45;&gt;Node25 -->
<g id="edge30" class="edge"><title>Node16&#45;&gt;Node25</title>
<path fill="none" stroke="midnightblue" d="M536.857,-185.45C520.22,-176.89 493.672,-163.229 474.204,-153.212"/>
<polygon fill="midnightblue" stroke="midnightblue" points="475.784,-150.089 465.291,-148.625 472.581,-156.313 475.784,-150.089"/>
</g>
<!-- Node26 -->
<g id="node26" class="node"><title>Node26</title>
<polygon fill="white" stroke="#bfbfbf" points="530,-130.5 530,-148.5 575,-148.5 575,-130.5 530,-130.5"/>
<text text-anchor="middle" x="552.5" y="-137.3" font-family="Helvetica,sans-Serif" font-size="9.00">chrono</text>
</g>
<!-- Node16&#45;&gt;Node26 -->
<g id="edge31" class="edge"><title>Node16&#45;&gt;Node26</title>
<path fill="none" stroke="midnightblue" d="M552.5,-185.219C552.5,-178.177 552.5,-167.808 552.5,-158.828"/>
<polygon fill="midnightblue" stroke="midnightblue" points="556,-158.55 552.5,-148.55 549,-158.55 556,-158.55"/>
</g>
<!-- Node21&#45;&gt;Node4 -->
<g id="edge27" class="edge"><title>Node21&#45;&gt;Node4</title>
<path fill="none" stroke="midnightblue" d="M631.715,-133.605C554.574,-123.053 372.772,-98.1834 288.207,-86.6156"/>
<polygon fill="midnightblue" stroke="midnightblue" points="288.53,-83.1273 278.148,-85.2396 287.581,-90.0627 288.53,-83.1273"/>
</g>
<!-- Node22 -->
<g id="node22" class="node"><title>Node22</title>
<polygon fill="white" stroke="#bfbfbf" points="698.5,-70.5 698.5,-88.5 746.5,-88.5 746.5,-70.5 698.5,-70.5"/>
<text text-anchor="middle" x="722.5" y="-77.3" font-family="Helvetica,sans-Serif" font-size="9.00">random</text>
</g>
<!-- Node21&#45;&gt;Node22 -->
<g id="edge26" class="edge"><title>Node21&#45;&gt;Node22</title>
<path fill="none" stroke="midnightblue" d="M675.148,-130.435C683.508,-121.619 697.111,-107.274 707.596,-96.2165"/>
<polygon fill="midnightblue" stroke="midnightblue" points="710.22,-98.5364 714.561,-88.8718 705.141,-93.7197 710.22,-98.5364"/>
</g>
<!-- Node23 -->
<g id="node23" class="node"><title>Node23</title>
<polygon fill="white" stroke="#bfbfbf" points="454,-70.5 454,-88.5 551,-88.5 551,-70.5 454,-70.5"/>
<text text-anchor="middle" x="502.5" y="-77.3" font-family="Helvetica,sans-Serif" font-size="9.00">trng/lcg64_shift.hpp</text>
</g>
<!-- Node21&#45;&gt;Node23 -->
<g id="edge28" class="edge"><title>Node21&#45;&gt;Node23</title>
<path fill="none" stroke="midnightblue" d="M644.557,-130.435C616.069,-120.421 567.294,-103.276 534.974,-91.9152"/>
<polygon fill="midnightblue" stroke="midnightblue" points="536.108,-88.6038 525.513,-88.5894 533.786,-95.2077 536.108,-88.6038"/>
</g>
<!-- Node24 -->
<g id="node24" class="node"><title>Node24</title>
<polygon fill="white" stroke="#bfbfbf" points="568.5,-65.5 568.5,-93.5 680.5,-93.5 680.5,-65.5 568.5,-65.5"/>
<text text-anchor="start" x="576.5" y="-82.3" font-family="Helvetica,sans-Serif" font-size="9.00">ParallelRngManager</text>
<text text-anchor="middle" x="624.5" y="-72.3" font-family="Helvetica,sans-Serif" font-size="9.00">/ParallelRngManager.h</text>
</g>
<!-- Node21&#45;&gt;Node24 -->
<g id="edge29" class="edge"><title>Node21&#45;&gt;Node24</title>
<path fill="none" stroke="midnightblue" d="M661.521,-130.435C656.095,-123.117 647.845,-111.989 640.509,-102.094"/>
<polygon fill="midnightblue" stroke="midnightblue" points="643.159,-99.7914 634.392,-93.8428 637.536,-103.96 643.159,-99.7914"/>
</g>
</g>
</svg>
