<?xml version="1.0" encoding="UTF-8" standalone="no"?>
<!DOCTYPE svg PUBLIC "-//W3C//DTD SVG 1.1//EN"
 "http://www.w3.org/Graphics/SVG/1.1/DTD/svg11.dtd">
<!-- Generated by graphviz version 2.38.0 (20140413.2041)
 -->
<!-- Title: PoissonGaussianNoise2DObjective.cpp Pages: 1 -->
<svg width="188pt" height="147pt"
 viewBox="0.00 0.00 188.00 147.00" xmlns="http://www.w3.org/2000/svg" xmlns:xlink="http://www.w3.org/1999/xlink">
<g id="graph0" class="graph" transform="scale(1 1) rotate(0) translate(4 143)">
<title>PoissonGaussianNoise2DObjective.cpp</title>
<polygon fill="white" stroke="none" points="-4,4 -4,-143 184,-143 184,4 -4,4"/>
<!-- Node1 -->
<g id="node1" class="node"><title>Node1</title>
<polygon fill="#bfbfbf" stroke="black" points="0,-120.5 0,-138.5 180,-138.5 180,-120.5 0,-120.5"/>
<text text-anchor="middle" x="90" y="-127.3" font-family="Helvetica,sans-Serif" font-size="9.00">PoissonGaussianNoise2DObjective.cpp</text>
</g>
<!-- Node2 -->
<g id="node2" class="node"><title>Node2</title>
<g id="a_node2"><a xlink:href="PoissonGaussianNoise2DObjective_8h.html" target="_top" xlink:title="The class declaration and inline and templated functions for PoissonGaussianNoise2DObjective. ">
<polygon fill="white" stroke="black" points="14.5,-55.5 14.5,-83.5 165.5,-83.5 165.5,-55.5 14.5,-55.5"/>
<text text-anchor="start" x="22.5" y="-72.3" font-family="Helvetica,sans-Serif" font-size="9.00">Mappel/PoissonGaussianNoise2</text>
<text text-anchor="middle" x="90" y="-62.3" font-family="Helvetica,sans-Serif" font-size="9.00">DObjective.h</text>
</a>
</g>
</g>
<!-- Node1&#45;&gt;Node2 -->
<g id="edge1" class="edge"><title>Node1&#45;&gt;Node2</title>
<path fill="none" stroke="midnightblue" d="M90,-120.435C90,-113.56 90,-103.324 90,-93.9057"/>
<polygon fill="midnightblue" stroke="midnightblue" points="93.5001,-93.8427 90,-83.8428 86.5001,-93.8428 93.5001,-93.8427"/>
</g>
<!-- Node3 -->
<g id="node3" class="node"><title>Node3</title>
<polygon fill="white" stroke="#bfbfbf" points="27,-0.5 27,-18.5 153,-18.5 153,-0.5 27,-0.5"/>
<text text-anchor="middle" x="90" y="-7.3" font-family="Helvetica,sans-Serif" font-size="9.00">Mappel/PoissonNoise2D.h</text>
</g>
<!-- Node2&#45;&gt;Node3 -->
<g id="edge2" class="edge"><title>Node2&#45;&gt;Node3</title>
<path fill="none" stroke="midnightblue" d="M90,-55.3389C90,-47.5305 90,-37.5122 90,-28.9265"/>
<polygon fill="midnightblue" stroke="midnightblue" points="93.5001,-28.7714 90,-18.7715 86.5001,-28.7715 93.5001,-28.7714"/>
</g>
</g>
</svg>
