<?xml version="1.0" encoding="UTF-8" standalone="no"?>
<!DOCTYPE svg PUBLIC "-//W3C//DTD SVG 1.1//EN"
 "http://www.w3.org/Graphics/SVG/1.1/DTD/svg11.dtd">
<!-- Generated by graphviz version 2.38.0 (20140413.2041)
 -->
<!-- Title: log_likelihood Pages: 1 -->
<svg width="261pt" height="74pt"
 viewBox="0.00 0.00 261.00 74.00" xmlns="http://www.w3.org/2000/svg" xmlns:xlink="http://www.w3.org/1999/xlink">
<g id="graph0" class="graph" transform="scale(1 1) rotate(0) translate(4 70)">
<title>log_likelihood</title>
<polygon fill="white" stroke="none" points="-4,4 -4,-70 257,-70 257,4 -4,4"/>
<!-- Node1 -->
<g id="node1" class="node"><title>Node1</title>
<polygon fill="#bfbfbf" stroke="black" points="0,-26.5 0,-44.5 74,-44.5 74,-26.5 0,-26.5"/>
<text text-anchor="middle" x="37" y="-33.3" font-family="Helvetica,sans-Serif" font-size="9.00">log_likelihood</text>
</g>
<!-- Node2 -->
<g id="node2" class="node"><title>Node2</title>
<g id="a_node2"><a xlink:href="namespacemappel_1_1methods_1_1objective.html#a94105ec313ae34d4b30ef78369056eaa" target="_top" xlink:title="mappel::methods::objective::llh">
<polygon fill="white" stroke="black" points="110,-47.5 110,-65.5 253,-65.5 253,-47.5 110,-47.5"/>
<text text-anchor="middle" x="181.5" y="-54.3" font-family="Helvetica,sans-Serif" font-size="9.00">mappel::methods::objective::llh</text>
</a>
</g>
</g>
<!-- Node1&#45;&gt;Node2 -->
<g id="edge1" class="edge"><title>Node1&#45;&gt;Node2</title>
<path fill="none" stroke="midnightblue" d="M74.3275,-40.8535C85.0214,-42.4295 97.1098,-44.2109 109.2,-45.9926"/>
<polygon fill="midnightblue" stroke="midnightblue" points="108.922,-49.4894 119.326,-47.4849 109.943,-42.5642 108.922,-49.4894"/>
</g>
<!-- Node3 -->
<g id="node3" class="node"><title>Node3</title>
<g id="a_node3"><a xlink:href="namespacemappel.html#ad6479b1e317a5f3bd2b92bfb562938d5" target="_top" xlink:title="mappel::poisson_log\l_likelihood">
<polygon fill="white" stroke="black" points="130.5,-0.5 130.5,-28.5 232.5,-28.5 232.5,-0.5 130.5,-0.5"/>
<text text-anchor="start" x="138.5" y="-17.3" font-family="Helvetica,sans-Serif" font-size="9.00">mappel::poisson_log</text>
<text text-anchor="middle" x="181.5" y="-7.3" font-family="Helvetica,sans-Serif" font-size="9.00">_likelihood</text>
</a>
</g>
</g>
<!-- Node1&#45;&gt;Node3 -->
<g id="edge2" class="edge"><title>Node1&#45;&gt;Node3</title>
<path fill="none" stroke="midnightblue" d="M74.3275,-30.1465C88.2618,-28.093 104.564,-25.6906 120.152,-23.3933"/>
<polygon fill="midnightblue" stroke="midnightblue" points="120.879,-26.8242 130.261,-21.9036 119.858,-19.899 120.879,-26.8242"/>
</g>
</g>
</svg>
