<?xml version="1.0" encoding="UTF-8" standalone="no"?>
<!DOCTYPE svg PUBLIC "-//W3C//DTD SVG 1.1//EN"
 "http://www.w3.org/Graphics/SVG/1.1/DTD/svg11.dtd">
<!-- Generated by graphviz version 2.38.0 (20140413.2041)
 -->
<!-- Title: PriorMAP1DObjective.h Pages: 1 -->
<!--zoomable 267 -->
<svg id="main" version="1.1" xmlns="http://www.w3.org/2000/svg" xmlns:xlink="http://www.w3.org/1999/xlink" xml:space="preserve" onload="init(evt)">
<style type="text/css"><![CDATA[
.edge:hover path { stroke: red; }
.edge:hover polygon { stroke: red; fill: red; }
]]></style>
<script type="text/javascript"><![CDATA[
var edges = document.getElementsByTagName('g');
if (edges && edges.length) {
  for (var i=0;i<edges.length;i++) {
    if (edges[i].id.substr(0,4)=='edge') {
      edges[i].setAttribute('class','edge');
    }
  }
}
]]></script>
        <defs>
                <circle id="rim" cx="0" cy="0" r="7"/>
                <circle id="rim2" cx="0" cy="0" r="3.5"/>
                <g id="zoomPlus">
                        <use xlink:href="#rim" fill="#404040">
                                <set attributeName="fill" to="#808080" begin="zoomplus.mouseover" end="zoomplus.mouseout"/>
                        </use>
                        <path d="M-4,0h8M0,-4v8" fill="none" stroke="white" stroke-width="1.5" pointer-events="none"/>
                </g>
                <g id="zoomMin">
                        <use xlink:href="#rim" fill="#404040">
                                <set attributeName="fill" to="#808080" begin="zoomminus.mouseover" end="zoomminus.mouseout"/>
                        </use>
                        <path d="M-4,0h8" fill="none" stroke="white" stroke-width="1.5" pointer-events="none"/>
                </g>
                <g id="dirArrow">
                        <path fill="none" stroke="white" stroke-width="1.5" d="M0,-3.0v7 M-2.5,-0.5L0,-3.0L2.5,-0.5"/>
                </g>
               <g id="resetDef">
                       <use xlink:href="#rim2" fill="#404040">
                               <set attributeName="fill" to="#808080" begin="reset.mouseover" end="reset.mouseout"/>
                       </use>
               </g>
        </defs>

<script type="text/javascript">
var viewWidth = 615;
var viewHeight = 267;
var sectionId = 'dynsection-0';
</script>
<script xlink:href="svgpan.js"/>
<svg id="graph" class="graph">
<g id="viewport">
<title>PriorMAP1DObjective.h</title>
<polygon fill="white" stroke="none" points="-4,4 -4,-263 611,-263 611,4 -4,4"/>
<!-- Node1 -->
<g id="node1" class="node"><title>Node1</title>
<polygon fill="#bfbfbf" stroke="black" points="129,-240.5 129,-258.5 242,-258.5 242,-240.5 129,-240.5"/>
<text text-anchor="middle" x="185.5" y="-247.3" font-family="Helvetica,sans-Serif" font-size="9.00">PriorMAP1DObjective.h</text>
</g>
<!-- Node2 -->
<g id="node2" class="node"><title>Node2</title>
<polygon fill="white" stroke="#bfbfbf" points="0,-5.5 0,-23.5 55,-23.5 55,-5.5 0,-5.5"/>
<text text-anchor="middle" x="27.5" y="-12.3" font-family="Helvetica,sans-Serif" font-size="9.00">armadillo</text>
</g>
<!-- Node1&#45;&gt;Node2 -->
<g id="edge1" class="edge"><title>Node1&#45;&gt;Node2</title>
<path fill="none" stroke="midnightblue" d="M180.061,-240.48C157.42,-207.091 70.3593,-78.7039 38.9133,-32.3311"/>
<polygon fill="midnightblue" stroke="midnightblue" points="41.7545,-30.2846 33.2452,-23.9724 35.9609,-34.2133 41.7545,-30.2846"/>
</g>
<!-- Node3 -->
<g id="node3" class="node"><title>Node3</title>
<g id="a_node3"><a xlink:href="stencil_8h.html" target="_top" xlink:title="The stencils for pixel based computations. ">
<polygon fill="white" stroke="black" points="196,-185.5 196,-203.5 279,-203.5 279,-185.5 196,-185.5"/>
<text text-anchor="middle" x="237.5" y="-192.3" font-family="Helvetica,sans-Serif" font-size="9.00">Mappel/stencil.h</text>
</a>
</g>
</g>
<!-- Node1&#45;&gt;Node3 -->
<g id="edge2" class="edge"><title>Node1&#45;&gt;Node3</title>
<path fill="none" stroke="midnightblue" d="M193.625,-240.219C201.302,-232.394 213.008,-220.463 222.398,-210.892"/>
<polygon fill="midnightblue" stroke="midnightblue" points="225.097,-213.139 229.602,-203.55 220.101,-208.236 225.097,-213.139"/>
</g>
<!-- Node4 -->
<g id="node4" class="node"><title>Node4</title>
<polygon fill="white" stroke="#bfbfbf" points="566,-5.5 566,-23.5 607,-23.5 607,-5.5 566,-5.5"/>
<text text-anchor="middle" x="586.5" y="-12.3" font-family="Helvetica,sans-Serif" font-size="9.00">cmath</text>
</g>
<!-- Node3&#45;&gt;Node4 -->
<g id="edge3" class="edge"><title>Node3&#45;&gt;Node4</title>
<path fill="none" stroke="midnightblue" d="M279.195,-194.181C350.684,-192.917 496.295,-179.276 572.5,-94 587.18,-77.5728 589.019,-51.2338 588.309,-33.6543"/>
<polygon fill="midnightblue" stroke="midnightblue" points="591.791,-33.2826 587.583,-23.5592 584.809,-33.7843 591.791,-33.2826"/>
</g>
<!-- Node5 -->
<g id="node5" class="node"><title>Node5</title>
<polygon fill="white" stroke="#bfbfbf" points="167.5,-130.5 167.5,-148.5 209.5,-148.5 209.5,-130.5 167.5,-130.5"/>
<text text-anchor="middle" x="188.5" y="-137.3" font-family="Helvetica,sans-Serif" font-size="9.00">climits</text>
</g>
<!-- Node3&#45;&gt;Node5 -->
<g id="edge4" class="edge"><title>Node3&#45;&gt;Node5</title>
<path fill="none" stroke="midnightblue" d="M229.844,-185.219C222.682,-177.473 211.799,-165.701 202.997,-156.18"/>
<polygon fill="midnightblue" stroke="midnightblue" points="205.301,-153.516 195.942,-148.55 200.161,-158.268 205.301,-153.516"/>
</g>
<!-- Node6 -->
<g id="node6" class="node"><title>Node6</title>
<g id="a_node6"><a xlink:href="util_8h.html" target="_top" xlink:title="Mappel/util.h">
<polygon fill="white" stroke="black" points="183,-70.5 183,-88.5 252,-88.5 252,-70.5 183,-70.5"/>
<text text-anchor="middle" x="217.5" y="-77.3" font-family="Helvetica,sans-Serif" font-size="9.00">Mappel/util.h</text>
</a>
</g>
</g>
<!-- Node3&#45;&gt;Node6 -->
<g id="edge5" class="edge"><title>Node3&#45;&gt;Node6</title>
<path fill="none" stroke="midnightblue" d="M236.062,-185.373C232.862,-167.293 225.089,-123.379 220.684,-98.4889"/>
<polygon fill="midnightblue" stroke="midnightblue" points="224.115,-97.79 218.925,-88.553 217.222,-99.01 224.115,-97.79"/>
</g>
<!-- Node14 -->
<g id="node14" class="node"><title>Node14</title>
<g id="a_node14"><a xlink:href="rng_8h.html" target="_top" xlink:title="Random number generation usign sfmt. ">
<polygon fill="white" stroke="black" points="291,-130.5 291,-148.5 362,-148.5 362,-130.5 291,-130.5"/>
<text text-anchor="middle" x="326.5" y="-137.3" font-family="Helvetica,sans-Serif" font-size="9.00">Mappel/rng.h</text>
</a>
</g>
</g>
<!-- Node3&#45;&gt;Node14 -->
<g id="edge15" class="edge"><title>Node3&#45;&gt;Node14</title>
<path fill="none" stroke="midnightblue" d="M251.017,-185.45C265.131,-177.045 287.501,-163.724 304.23,-153.762"/>
<polygon fill="midnightblue" stroke="midnightblue" points="306.054,-156.749 312.856,-148.625 302.473,-150.735 306.054,-156.749"/>
</g>
<!-- Node6&#45;&gt;Node2 -->
<g id="edge13" class="edge"><title>Node6&#45;&gt;Node2</title>
<path fill="none" stroke="midnightblue" d="M191.686,-70.4686C161.192,-60.9073 108.983,-44.3049 64.5,-29 62.6572,-28.366 60.7662,-27.7058 58.8605,-27.0331"/>
<polygon fill="midnightblue" stroke="midnightblue" points="59.9595,-23.7091 49.365,-23.6294 57.5974,-30.2985 59.9595,-23.7091"/>
</g>
<!-- Node6&#45;&gt;Node4 -->
<g id="edge7" class="edge"><title>Node6&#45;&gt;Node4</title>
<path fill="none" stroke="midnightblue" d="M241.05,-70.4474C247.61,-68.4314 254.78,-66.4365 261.5,-65 388.509,-37.849 425.526,-60.6059 551.5,-29 553.845,-28.4116 556.246,-27.71 558.638,-26.9403"/>
<polygon fill="midnightblue" stroke="midnightblue" points="560.006,-30.1684 568.246,-23.5091 557.651,-23.5761 560.006,-30.1684"/>
</g>
<!-- Node7 -->
<g id="node7" class="node"><title>Node7</title>
<polygon fill="white" stroke="#bfbfbf" points="500,-5.5 500,-23.5 543,-23.5 543,-5.5 500,-5.5"/>
<text text-anchor="middle" x="521.5" y="-12.3" font-family="Helvetica,sans-Serif" font-size="9.00">cstdint</text>
</g>
<!-- Node6&#45;&gt;Node7 -->
<g id="edge6" class="edge"><title>Node6&#45;&gt;Node7</title>
<path fill="none" stroke="midnightblue" d="M241.54,-70.4506C247.975,-68.4817 254.96,-66.5093 261.5,-65 361.889,-41.8316 391.58,-57.8012 490.5,-29 492.166,-28.5149 493.861,-27.9618 495.555,-27.3629"/>
<polygon fill="midnightblue" stroke="midnightblue" points="497.057,-30.5323 505.057,-23.586 494.472,-24.0274 497.057,-30.5323"/>
</g>
<!-- Node8 -->
<g id="node8" class="node"><title>Node8</title>
<polygon fill="white" stroke="#bfbfbf" points="73.5,-5.5 73.5,-23.5 123.5,-23.5 123.5,-5.5 73.5,-5.5"/>
<text text-anchor="middle" x="98.5" y="-12.3" font-family="Helvetica,sans-Serif" font-size="9.00">memory</text>
</g>
<!-- Node6&#45;&gt;Node8 -->
<g id="edge8" class="edge"><title>Node6&#45;&gt;Node8</title>
<path fill="none" stroke="midnightblue" d="M201.943,-70.2639C181.788,-59.5934 146.433,-40.8761 122.742,-28.3341"/>
<polygon fill="midnightblue" stroke="midnightblue" points="124.16,-25.1246 113.685,-23.539 120.885,-31.3112 124.16,-25.1246"/>
</g>
<!-- Node9 -->
<g id="node9" class="node"><title>Node9</title>
<polygon fill="white" stroke="#bfbfbf" points="141.5,-5.5 141.5,-23.5 179.5,-23.5 179.5,-5.5 141.5,-5.5"/>
<text text-anchor="middle" x="160.5" y="-12.3" font-family="Helvetica,sans-Serif" font-size="9.00">utility</text>
</g>
<!-- Node6&#45;&gt;Node9 -->
<g id="edge9" class="edge"><title>Node6&#45;&gt;Node9</title>
<path fill="none" stroke="midnightblue" d="M210.048,-70.2639C201.123,-60.3996 185.977,-43.6585 174.774,-31.2766"/>
<polygon fill="midnightblue" stroke="midnightblue" points="177.078,-28.6062 167.773,-23.539 171.887,-33.3026 177.078,-28.6062"/>
</g>
<!-- Node10 -->
<g id="node10" class="node"><title>Node10</title>
<polygon fill="white" stroke="#bfbfbf" points="198,-5.5 198,-23.5 237,-23.5 237,-5.5 198,-5.5"/>
<text text-anchor="middle" x="217.5" y="-12.3" font-family="Helvetica,sans-Serif" font-size="9.00">string</text>
</g>
<!-- Node6&#45;&gt;Node10 -->
<g id="edge10" class="edge"><title>Node6&#45;&gt;Node10</title>
<path fill="none" stroke="midnightblue" d="M217.5,-70.2639C217.5,-61.0635 217.5,-45.881 217.5,-33.8326"/>
<polygon fill="midnightblue" stroke="midnightblue" points="221,-33.5389 217.5,-23.539 214,-33.539 221,-33.5389"/>
</g>
<!-- Node11 -->
<g id="node11" class="node"><title>Node11</title>
<polygon fill="white" stroke="#bfbfbf" points="255,-5.5 255,-23.5 290,-23.5 290,-5.5 255,-5.5"/>
<text text-anchor="middle" x="272.5" y="-12.3" font-family="Helvetica,sans-Serif" font-size="9.00">map</text>
</g>
<!-- Node6&#45;&gt;Node11 -->
<g id="edge11" class="edge"><title>Node6&#45;&gt;Node11</title>
<path fill="none" stroke="midnightblue" d="M224.69,-70.2639C233.302,-60.3996 247.917,-43.6585 258.727,-31.2766"/>
<polygon fill="midnightblue" stroke="midnightblue" points="261.542,-33.374 265.482,-23.539 256.269,-28.7704 261.542,-33.374"/>
</g>
<!-- Node12 -->
<g id="node12" class="node"><title>Node12</title>
<polygon fill="white" stroke="#bfbfbf" points="308,-5.5 308,-23.5 357,-23.5 357,-5.5 308,-5.5"/>
<text text-anchor="middle" x="332.5" y="-12.3" font-family="Helvetica,sans-Serif" font-size="9.00">sstream</text>
</g>
<!-- Node6&#45;&gt;Node12 -->
<g id="edge12" class="edge"><title>Node6&#45;&gt;Node12</title>
<path fill="none" stroke="midnightblue" d="M232.534,-70.2639C251.925,-59.6408 285.875,-41.0423 308.767,-28.5017"/>
<polygon fill="midnightblue" stroke="midnightblue" points="310.737,-31.4131 317.826,-23.539 307.374,-25.274 310.737,-31.4131"/>
</g>
<!-- Node13 -->
<g id="node13" class="node"><title>Node13</title>
<polygon fill="white" stroke="#bfbfbf" points="375,-0.5 375,-28.5 482,-28.5 482,-0.5 375,-0.5"/>
<text text-anchor="start" x="383" y="-17.3" font-family="Helvetica,sans-Serif" font-size="9.00">BacktraceException</text>
<text text-anchor="middle" x="428.5" y="-7.3" font-family="Helvetica,sans-Serif" font-size="9.00">/BacktraceException.h</text>
</g>
<!-- Node6&#45;&gt;Node13 -->
<g id="edge14" class="edge"><title>Node6&#45;&gt;Node13</title>
<path fill="none" stroke="midnightblue" d="M243.546,-70.4638C249.446,-68.6557 255.686,-66.7535 261.5,-65 299.151,-53.6443 341.645,-41.052 374.345,-31.4098"/>
<polygon fill="midnightblue" stroke="midnightblue" points="375.56,-34.7007 384.163,-28.5168 373.581,-27.9862 375.56,-34.7007"/>
</g>
<!-- Node14&#45;&gt;Node6 -->
<g id="edge17" class="edge"><title>Node14&#45;&gt;Node6</title>
<path fill="none" stroke="midnightblue" d="M311.344,-130.435C293.386,-120.88 263.226,-104.832 241.952,-93.5113"/>
<polygon fill="midnightblue" stroke="midnightblue" points="243.351,-90.2909 232.879,-88.6831 240.063,-96.4705 243.351,-90.2909"/>
</g>
<!-- Node15 -->
<g id="node15" class="node"><title>Node15</title>
<polygon fill="white" stroke="#bfbfbf" points="400.5,-70.5 400.5,-88.5 448.5,-88.5 448.5,-70.5 400.5,-70.5"/>
<text text-anchor="middle" x="424.5" y="-77.3" font-family="Helvetica,sans-Serif" font-size="9.00">random</text>
</g>
<!-- Node14&#45;&gt;Node15 -->
<g id="edge16" class="edge"><title>Node14&#45;&gt;Node15</title>
<path fill="none" stroke="midnightblue" d="M340.126,-130.435C356.126,-120.966 382.9,-105.12 401.997,-93.8184"/>
<polygon fill="midnightblue" stroke="midnightblue" points="403.85,-96.7884 410.673,-88.6831 400.285,-90.7644 403.85,-96.7884"/>
</g>
<!-- Node16 -->
<g id="node16" class="node"><title>Node16</title>
<polygon fill="white" stroke="#bfbfbf" points="467,-70.5 467,-88.5 564,-88.5 564,-70.5 467,-70.5"/>
<text text-anchor="middle" x="515.5" y="-77.3" font-family="Helvetica,sans-Serif" font-size="9.00">trng/lcg64_shift.hpp</text>
</g>
<!-- Node14&#45;&gt;Node16 -->
<g id="edge18" class="edge"><title>Node14&#45;&gt;Node16</title>
<path fill="none" stroke="midnightblue" d="M352.78,-130.435C385.693,-120.335 442.247,-102.98 479.255,-91.6227"/>
<polygon fill="midnightblue" stroke="midnightblue" points="480.606,-94.8693 489.14,-88.5894 478.553,-88.1773 480.606,-94.8693"/>
</g>
<!-- Node17 -->
<g id="node17" class="node"><title>Node17</title>
<polygon fill="white" stroke="#bfbfbf" points="270.5,-65.5 270.5,-93.5 382.5,-93.5 382.5,-65.5 270.5,-65.5"/>
<text text-anchor="start" x="278.5" y="-82.3" font-family="Helvetica,sans-Serif" font-size="9.00">ParallelRngManager</text>
<text text-anchor="middle" x="326.5" y="-72.3" font-family="Helvetica,sans-Serif" font-size="9.00">/ParallelRngManager.h</text>
</g>
<!-- Node14&#45;&gt;Node17 -->
<g id="edge19" class="edge"><title>Node14&#45;&gt;Node17</title>
<path fill="none" stroke="midnightblue" d="M326.5,-130.435C326.5,-123.56 326.5,-113.324 326.5,-103.906"/>
<polygon fill="midnightblue" stroke="midnightblue" points="330,-103.843 326.5,-93.8428 323,-103.843 330,-103.843"/>
</g>
</g>
</svg>
        <g id="navigator" transform="translate(0 0)" fill="#404254">
                <rect fill="#f2f5e9" fill-opacity="0.5" stroke="#606060" stroke-width=".5" x="0" y="0" width="60" height="60"/>
                <use id="zoomplus" xlink:href="#zoomPlus" x="17" y="9" onmousedown="handleZoom(evt,'in')"/>
                <use id="zoomminus" xlink:href="#zoomMin" x="42" y="9" onmousedown="handleZoom(evt,'out')"/>
                <use id="reset" xlink:href="#resetDef" x="30" y="36" onmousedown="handleReset()"/>
                <g id="arrowUp" xlink:href="#dirArrow" transform="translate(30 24)" onmousedown="handlePan(0,-1)">
                  <use xlink:href="#rim" fill="#404040">
                        <set attributeName="fill" to="#808080" begin="arrowUp.mouseover" end="arrowUp.mouseout"/>
                  </use>
                  <path fill="none" stroke="white" stroke-width="1.5" d="M0,-3.0v7 M-2.5,-0.5L0,-3.0L2.5,-0.5"/>
                </g>
                <g id="arrowRight" xlink:href="#dirArrow" transform="rotate(90) translate(36 -43)" onmousedown="handlePan(1,0)">
                  <use xlink:href="#rim" fill="#404040">
                        <set attributeName="fill" to="#808080" begin="arrowRight.mouseover" end="arrowRight.mouseout"/>
                  </use>
                  <path fill="none" stroke="white" stroke-width="1.5" d="M0,-3.0v7 M-2.5,-0.5L0,-3.0L2.5,-0.5"/>
                </g>
                <g id="arrowDown" xlink:href="#dirArrow" transform="rotate(180) translate(-30 -48)" onmousedown="handlePan(0,1)">
                  <use xlink:href="#rim" fill="#404040">
                        <set attributeName="fill" to="#808080" begin="arrowDown.mouseover" end="arrowDown.mouseout"/>
                  </use>
                  <path fill="none" stroke="white" stroke-width="1.5" d="M0,-3.0v7 M-2.5,-0.5L0,-3.0L2.5,-0.5"/>
                </g>
                <g id="arrowLeft" xlink:href="#dirArrow" transform="rotate(270) translate(-36 17)" onmousedown="handlePan(-1,0)">
                  <use xlink:href="#rim" fill="#404040">
                        <set attributeName="fill" to="#808080" begin="arrowLeft.mouseover" end="arrowLeft.mouseout"/>
                  </use>
                  <path fill="none" stroke="white" stroke-width="1.5" d="M0,-3.0v7 M-2.5,-0.5L0,-3.0L2.5,-0.5"/>
                </g>
        </g>
        <svg viewBox="0 0 15 15" width="100%" height="30px" preserveAspectRatio="xMaxYMin meet">
         <g id="arrow_out" transform="scale(0.3 0.3)">
          <a xlink:href="PriorMAP1DObjective_8h__incl_org.svg" target="_base">
           <rect id="button" ry="5" rx="5" y="6" x="6" height="38" width="38"
                fill="#f2f5e9" fill-opacity="0.5" stroke="#606060" stroke-width="1.0"/>
           <path id="arrow"
             d="M 11.500037,31.436501 C 11.940474,20.09759 22.043105,11.32322 32.158766,21.979434 L 37.068811,17.246167 C 37.068811,17.246167 37.088388,32 37.088388,32 L 22.160133,31.978069 C 22.160133,31.978069 26.997745,27.140456 26.997745,27.140456 C 18.528582,18.264221 13.291696,25.230495 11.500037,31.436501 z"
             style="fill:#404040;"/>
          </a>
         </g>
        </svg>
</svg>
