<?xml version="1.0" encoding="UTF-8" standalone="no"?>
<!DOCTYPE svg PUBLIC "-//W3C//DTD SVG 1.1//EN"
 "http://www.w3.org/Graphics/SVG/1.1/DTD/svg11.dtd">
<!-- Generated by graphviz version 2.38.0 (20140413.2041)
 -->
<!-- Title: stackcomp.h Pages: 1 -->
<svg width="610pt" height="212pt"
 viewBox="0.00 0.00 610.00 212.00" xmlns="http://www.w3.org/2000/svg" xmlns:xlink="http://www.w3.org/1999/xlink">
<g id="graph0" class="graph" transform="scale(1 1) rotate(0) translate(4 208)">
<title>stackcomp.h</title>
<polygon fill="white" stroke="none" points="-4,4 -4,-208 606,-208 606,4 -4,4"/>
<!-- Node1 -->
<g id="node1" class="node"><title>Node1</title>
<polygon fill="#bfbfbf" stroke="black" points="242.5,-185.5 242.5,-203.5 310.5,-203.5 310.5,-185.5 242.5,-185.5"/>
<text text-anchor="middle" x="276.5" y="-192.3" font-family="Helvetica,sans-Serif" font-size="9.00">stackcomp.h</text>
</g>
<!-- Node2 -->
<g id="node2" class="node"><title>Node2</title>
<polygon fill="white" stroke="#bfbfbf" points="218.5,-130.5 218.5,-148.5 260.5,-148.5 260.5,-130.5 218.5,-130.5"/>
<text text-anchor="middle" x="239.5" y="-137.3" font-family="Helvetica,sans-Serif" font-size="9.00">omp.h</text>
</g>
<!-- Node1&#45;&gt;Node2 -->
<g id="edge1" class="edge"><title>Node1&#45;&gt;Node2</title>
<path fill="none" stroke="midnightblue" d="M270.719,-185.219C265.42,-177.629 257.424,-166.175 250.851,-156.76"/>
<polygon fill="midnightblue" stroke="midnightblue" points="253.714,-154.746 245.12,-148.55 247.974,-158.753 253.714,-154.746"/>
</g>
<!-- Node3 -->
<g id="node3" class="node"><title>Node3</title>
<g id="a_node3"><a xlink:href="rng_8h.html" target="_top" xlink:title="Random number generation usign sfmt. ">
<polygon fill="white" stroke="black" points="279,-130.5 279,-148.5 350,-148.5 350,-130.5 279,-130.5"/>
<text text-anchor="middle" x="314.5" y="-137.3" font-family="Helvetica,sans-Serif" font-size="9.00">Mappel/rng.h</text>
</a>
</g>
</g>
<!-- Node1&#45;&gt;Node3 -->
<g id="edge2" class="edge"><title>Node1&#45;&gt;Node3</title>
<path fill="none" stroke="midnightblue" d="M282.438,-185.219C287.879,-177.629 296.091,-166.175 302.842,-156.76"/>
<polygon fill="midnightblue" stroke="midnightblue" points="305.746,-158.716 308.729,-148.55 300.057,-154.637 305.746,-158.716"/>
</g>
<!-- Node4 -->
<g id="node4" class="node"><title>Node4</title>
<polygon fill="white" stroke="#bfbfbf" points="163.5,-70.5 163.5,-88.5 211.5,-88.5 211.5,-70.5 163.5,-70.5"/>
<text text-anchor="middle" x="187.5" y="-77.3" font-family="Helvetica,sans-Serif" font-size="9.00">random</text>
</g>
<!-- Node3&#45;&gt;Node4 -->
<g id="edge3" class="edge"><title>Node3&#45;&gt;Node4</title>
<path fill="none" stroke="midnightblue" d="M296.841,-130.435C275.541,-120.708 239.507,-104.251 214.661,-92.9041"/>
<polygon fill="midnightblue" stroke="midnightblue" points="215.969,-89.6537 205.418,-88.6831 213.061,-96.0211 215.969,-89.6537"/>
</g>
<!-- Node5 -->
<g id="node5" class="node"><title>Node5</title>
<g id="a_node5"><a xlink:href="util_8h.html" target="_top" xlink:title="Mappel/util.h">
<polygon fill="white" stroke="black" points="230,-70.5 230,-88.5 299,-88.5 299,-70.5 230,-70.5"/>
<text text-anchor="middle" x="264.5" y="-77.3" font-family="Helvetica,sans-Serif" font-size="9.00">Mappel/util.h</text>
</a>
</g>
</g>
<!-- Node3&#45;&gt;Node5 -->
<g id="edge4" class="edge"><title>Node3&#45;&gt;Node5</title>
<path fill="none" stroke="midnightblue" d="M307.548,-130.435C300.021,-121.704 287.821,-107.552 278.327,-96.5395"/>
<polygon fill="midnightblue" stroke="midnightblue" points="280.897,-94.1606 271.717,-88.8718 275.596,-98.7312 280.897,-94.1606"/>
</g>
<!-- Node15 -->
<g id="node15" class="node"><title>Node15</title>
<polygon fill="white" stroke="#bfbfbf" points="317,-70.5 317,-88.5 414,-88.5 414,-70.5 317,-70.5"/>
<text text-anchor="middle" x="365.5" y="-77.3" font-family="Helvetica,sans-Serif" font-size="9.00">trng/lcg64_shift.hpp</text>
</g>
<!-- Node3&#45;&gt;Node15 -->
<g id="edge14" class="edge"><title>Node3&#45;&gt;Node15</title>
<path fill="none" stroke="midnightblue" d="M321.591,-130.435C329.269,-121.704 341.713,-107.552 351.396,-96.5395"/>
<polygon fill="midnightblue" stroke="midnightblue" points="354.164,-98.6927 358.139,-88.8718 348.907,-94.0703 354.164,-98.6927"/>
</g>
<!-- Node16 -->
<g id="node16" class="node"><title>Node16</title>
<polygon fill="white" stroke="#bfbfbf" points="431.5,-65.5 431.5,-93.5 543.5,-93.5 543.5,-65.5 431.5,-65.5"/>
<text text-anchor="start" x="439.5" y="-82.3" font-family="Helvetica,sans-Serif" font-size="9.00">ParallelRngManager</text>
<text text-anchor="middle" x="487.5" y="-72.3" font-family="Helvetica,sans-Serif" font-size="9.00">/ParallelRngManager.h</text>
</g>
<!-- Node3&#45;&gt;Node16 -->
<g id="edge15" class="edge"><title>Node3&#45;&gt;Node16</title>
<path fill="none" stroke="midnightblue" d="M338.555,-130.435C364.386,-121.775 406.124,-107.782 438.855,-96.8088"/>
<polygon fill="midnightblue" stroke="midnightblue" points="440.327,-100.007 448.696,-93.5096 438.102,-93.3699 440.327,-100.007"/>
</g>
<!-- Node6 -->
<g id="node6" class="node"><title>Node6</title>
<polygon fill="white" stroke="#bfbfbf" points="0,-5.5 0,-23.5 43,-23.5 43,-5.5 0,-5.5"/>
<text text-anchor="middle" x="21.5" y="-12.3" font-family="Helvetica,sans-Serif" font-size="9.00">cstdint</text>
</g>
<!-- Node5&#45;&gt;Node6 -->
<g id="edge5" class="edge"><title>Node5&#45;&gt;Node6</title>
<path fill="none" stroke="midnightblue" d="M239.479,-70.4069C233.305,-68.5252 226.688,-66.6049 220.5,-65 146.164,-45.7184 124.485,-52.8926 51.5,-29 50.0752,-28.5336 48.6271,-28.0208 47.1756,-27.4762"/>
<polygon fill="midnightblue" stroke="midnightblue" points="48.3332,-24.1674 37.7551,-23.572 45.6531,-30.634 48.3332,-24.1674"/>
</g>
<!-- Node7 -->
<g id="node7" class="node"><title>Node7</title>
<polygon fill="white" stroke="#bfbfbf" points="61,-5.5 61,-23.5 102,-23.5 102,-5.5 61,-5.5"/>
<text text-anchor="middle" x="81.5" y="-12.3" font-family="Helvetica,sans-Serif" font-size="9.00">cmath</text>
</g>
<!-- Node5&#45;&gt;Node7 -->
<g id="edge6" class="edge"><title>Node5&#45;&gt;Node7</title>
<path fill="none" stroke="midnightblue" d="M238.561,-70.4876C201.429,-58.953 135.01,-38.0614 111.5,-29 110.301,-28.5378 109.081,-28.0526 107.853,-27.552"/>
<polygon fill="midnightblue" stroke="midnightblue" points="109.067,-24.2643 98.4966,-23.5389 106.307,-30.6975 109.067,-24.2643"/>
</g>
<!-- Node8 -->
<g id="node8" class="node"><title>Node8</title>
<polygon fill="white" stroke="#bfbfbf" points="120.5,-5.5 120.5,-23.5 170.5,-23.5 170.5,-5.5 120.5,-5.5"/>
<text text-anchor="middle" x="145.5" y="-12.3" font-family="Helvetica,sans-Serif" font-size="9.00">memory</text>
</g>
<!-- Node5&#45;&gt;Node8 -->
<g id="edge7" class="edge"><title>Node5&#45;&gt;Node8</title>
<path fill="none" stroke="midnightblue" d="M248.943,-70.2639C228.788,-59.5934 193.433,-40.8761 169.742,-28.3341"/>
<polygon fill="midnightblue" stroke="midnightblue" points="171.16,-25.1246 160.685,-23.539 167.885,-31.3112 171.16,-25.1246"/>
</g>
<!-- Node9 -->
<g id="node9" class="node"><title>Node9</title>
<polygon fill="white" stroke="#bfbfbf" points="188.5,-5.5 188.5,-23.5 226.5,-23.5 226.5,-5.5 188.5,-5.5"/>
<text text-anchor="middle" x="207.5" y="-12.3" font-family="Helvetica,sans-Serif" font-size="9.00">utility</text>
</g>
<!-- Node5&#45;&gt;Node9 -->
<g id="edge8" class="edge"><title>Node5&#45;&gt;Node9</title>
<path fill="none" stroke="midnightblue" d="M257.048,-70.2639C248.123,-60.3996 232.977,-43.6585 221.774,-31.2766"/>
<polygon fill="midnightblue" stroke="midnightblue" points="224.078,-28.6062 214.773,-23.539 218.887,-33.3026 224.078,-28.6062"/>
</g>
<!-- Node10 -->
<g id="node10" class="node"><title>Node10</title>
<polygon fill="white" stroke="#bfbfbf" points="245,-5.5 245,-23.5 284,-23.5 284,-5.5 245,-5.5"/>
<text text-anchor="middle" x="264.5" y="-12.3" font-family="Helvetica,sans-Serif" font-size="9.00">string</text>
</g>
<!-- Node5&#45;&gt;Node10 -->
<g id="edge9" class="edge"><title>Node5&#45;&gt;Node10</title>
<path fill="none" stroke="midnightblue" d="M264.5,-70.2639C264.5,-61.0635 264.5,-45.881 264.5,-33.8326"/>
<polygon fill="midnightblue" stroke="midnightblue" points="268,-33.5389 264.5,-23.539 261,-33.539 268,-33.5389"/>
</g>
<!-- Node11 -->
<g id="node11" class="node"><title>Node11</title>
<polygon fill="white" stroke="#bfbfbf" points="302,-5.5 302,-23.5 337,-23.5 337,-5.5 302,-5.5"/>
<text text-anchor="middle" x="319.5" y="-12.3" font-family="Helvetica,sans-Serif" font-size="9.00">map</text>
</g>
<!-- Node5&#45;&gt;Node11 -->
<g id="edge10" class="edge"><title>Node5&#45;&gt;Node11</title>
<path fill="none" stroke="midnightblue" d="M271.69,-70.2639C280.302,-60.3996 294.917,-43.6585 305.727,-31.2766"/>
<polygon fill="midnightblue" stroke="midnightblue" points="308.542,-33.374 312.482,-23.539 303.269,-28.7704 308.542,-33.374"/>
</g>
<!-- Node12 -->
<g id="node12" class="node"><title>Node12</title>
<polygon fill="white" stroke="#bfbfbf" points="355,-5.5 355,-23.5 404,-23.5 404,-5.5 355,-5.5"/>
<text text-anchor="middle" x="379.5" y="-12.3" font-family="Helvetica,sans-Serif" font-size="9.00">sstream</text>
</g>
<!-- Node5&#45;&gt;Node12 -->
<g id="edge11" class="edge"><title>Node5&#45;&gt;Node12</title>
<path fill="none" stroke="midnightblue" d="M279.534,-70.2639C298.925,-59.6408 332.875,-41.0423 355.767,-28.5017"/>
<polygon fill="midnightblue" stroke="midnightblue" points="357.737,-31.4131 364.826,-23.539 354.374,-25.274 357.737,-31.4131"/>
</g>
<!-- Node13 -->
<g id="node13" class="node"><title>Node13</title>
<polygon fill="white" stroke="#bfbfbf" points="422,-5.5 422,-23.5 477,-23.5 477,-5.5 422,-5.5"/>
<text text-anchor="middle" x="449.5" y="-12.3" font-family="Helvetica,sans-Serif" font-size="9.00">armadillo</text>
</g>
<!-- Node5&#45;&gt;Node13 -->
<g id="edge12" class="edge"><title>Node5&#45;&gt;Node13</title>
<path fill="none" stroke="midnightblue" d="M289.644,-70.4692C319.346,-60.9084 370.196,-44.3066 413.5,-29 415.144,-28.4188 416.828,-27.8157 418.525,-27.2011"/>
<polygon fill="midnightblue" stroke="midnightblue" points="420.053,-30.3684 428.229,-23.6295 417.635,-23.7993 420.053,-30.3684"/>
</g>
<!-- Node14 -->
<g id="node14" class="node"><title>Node14</title>
<polygon fill="white" stroke="#bfbfbf" points="495,-0.5 495,-28.5 602,-28.5 602,-0.5 495,-0.5"/>
<text text-anchor="start" x="503" y="-17.3" font-family="Helvetica,sans-Serif" font-size="9.00">BacktraceException</text>
<text text-anchor="middle" x="548.5" y="-7.3" font-family="Helvetica,sans-Serif" font-size="9.00">/BacktraceException.h</text>
</g>
<!-- Node5&#45;&gt;Node14 -->
<g id="edge13" class="edge"><title>Node5&#45;&gt;Node14</title>
<path fill="none" stroke="midnightblue" d="M289.51,-70.3615C295.684,-68.4812 302.304,-66.573 308.5,-65 383.675,-45.9145 405.799,-45.5826 484.816,-29.3209"/>
<polygon fill="midnightblue" stroke="midnightblue" points="485.664,-32.7195 494.742,-27.2565 484.239,-25.8662 485.664,-32.7195"/>
</g>
</g>
</svg>
