<?xml version="1.0" encoding="UTF-8" standalone="no"?>
<!DOCTYPE svg PUBLIC "-//W3C//DTD SVG 1.1//EN"
 "http://www.w3.org/Graphics/SVG/1.1/DTD/svg11.dtd">
<!-- Generated by graphviz version 2.38.0 (20140413.2041)
 -->
<!-- Title: stencil.h Pages: 1 -->
<svg width="1653pt" height="467pt"
 viewBox="0.00 0.00 1652.50 467.00" xmlns="http://www.w3.org/2000/svg" xmlns:xlink="http://www.w3.org/1999/xlink">
<g id="graph0" class="graph" transform="scale(1 1) rotate(0) translate(4 463)">
<title>stencil.h</title>
<polygon fill="white" stroke="none" points="-4,4 -4,-463 1648.5,-463 1648.5,4 -4,4"/>
<!-- Node1 -->
<g id="node1" class="node"><title>Node1</title>
<polygon fill="#bfbfbf" stroke="black" points="1288,-440.5 1288,-458.5 1338,-458.5 1338,-440.5 1288,-440.5"/>
<text text-anchor="middle" x="1313" y="-447.3" font-family="Helvetica,sans-Serif" font-size="9.00">stencil.h</text>
</g>
<!-- Node2 -->
<g id="node2" class="node"><title>Node2</title>
<g id="a_node2"><a xlink:href="Gauss1DModel_8cpp.html" target="_top" xlink:title="The class definition and template Specializations for Gauss1DModel. ">
<polygon fill="white" stroke="black" points="226,-220.5 226,-238.5 324,-238.5 324,-220.5 226,-220.5"/>
<text text-anchor="middle" x="275" y="-227.3" font-family="Helvetica,sans-Serif" font-size="9.00">Gauss1DModel.cpp</text>
</a>
</g>
</g>
<!-- Node1&#45;&gt;Node2 -->
<g id="edge1" class="edge"><title>Node1&#45;&gt;Node2</title>
<path fill="none" stroke="midnightblue" d="M1277.71,-446.642C1173.72,-440.505 860.097,-417.223 610,-349 487.694,-315.637 345.878,-259.478 294.687,-238.62"/>
<polygon fill="midnightblue" stroke="midnightblue" points="1277.77,-450.151 1287.95,-447.231 1278.17,-443.163 1277.77,-450.151"/>
</g>
<!-- Node3 -->
<g id="node3" class="node"><title>Node3</title>
<g id="a_node3"><a xlink:href="Gauss1DsModel_8cpp.html" target="_top" xlink:title="The class definition and template Specializations for Gauss1DsModel. ">
<polygon fill="white" stroke="black" points="1257,-165.5 1257,-183.5 1359,-183.5 1359,-165.5 1257,-165.5"/>
<text text-anchor="middle" x="1308" y="-172.3" font-family="Helvetica,sans-Serif" font-size="9.00">Gauss1DsModel.cpp</text>
</a>
</g>
</g>
<!-- Node1&#45;&gt;Node3 -->
<g id="edge2" class="edge"><title>Node1&#45;&gt;Node3</title>
<path fill="none" stroke="midnightblue" d="M1313,-430.119C1313,-408.627 1313,-371.982 1313,-340.5 1313,-340.5 1313,-340.5 1313,-283.5 1313,-246.148 1309.98,-201.606 1308.63,-183.623"/>
<polygon fill="midnightblue" stroke="midnightblue" points="1309.5,-430.371 1313,-440.371 1316.5,-430.371 1309.5,-430.371"/>
</g>
<!-- Node4 -->
<g id="node4" class="node"><title>Node4</title>
<g id="a_node4"><a xlink:href="Gauss2DModel_8cpp.html" target="_top" xlink:title="The class definition and template Specializations for Gauss2DModel. ">
<polygon fill="white" stroke="black" points="0,-110.5 0,-128.5 98,-128.5 98,-110.5 0,-110.5"/>
<text text-anchor="middle" x="49" y="-117.3" font-family="Helvetica,sans-Serif" font-size="9.00">Gauss2DModel.cpp</text>
</a>
</g>
</g>
<!-- Node1&#45;&gt;Node4 -->
<g id="edge3" class="edge"><title>Node1&#45;&gt;Node4</title>
<path fill="none" stroke="midnightblue" d="M1277.7,-447.257C1078.04,-439.998 99,-401.306 99,-340.5 99,-340.5 99,-340.5 99,-228.5 99,-187.796 69.3911,-145.783 55.7432,-128.579"/>
<polygon fill="midnightblue" stroke="midnightblue" points="1277.8,-450.763 1287.92,-447.626 1278.06,-443.767 1277.8,-450.763"/>
</g>
<!-- Node5 -->
<g id="node5" class="node"><title>Node5</title>
<g id="a_node5"><a xlink:href="Gauss2DsModel_8cpp.html" target="_top" xlink:title="The class definition and template Specializations for Gauss2DsModel. ">
<polygon fill="white" stroke="black" points="1109,-55.5 1109,-73.5 1211,-73.5 1211,-55.5 1109,-55.5"/>
<text text-anchor="middle" x="1160" y="-62.3" font-family="Helvetica,sans-Serif" font-size="9.00">Gauss2DsModel.cpp</text>
</a>
</g>
</g>
<!-- Node1&#45;&gt;Node5 -->
<g id="edge4" class="edge"><title>Node1&#45;&gt;Node5</title>
<path fill="none" stroke="midnightblue" d="M1341.78,-435.996C1374.96,-419.403 1425,-386.72 1425,-340.5 1425,-340.5 1425,-340.5 1425,-173.5 1425,-141.275 1416.06,-128.961 1390,-110 1362.09,-89.6886 1270.07,-76.7477 1211.23,-70.3334"/>
<polygon fill="midnightblue" stroke="midnightblue" points="1340.02,-432.96 1332.51,-440.437 1343.04,-439.273 1340.02,-432.96"/>
</g>
<!-- Node6 -->
<g id="node6" class="node"><title>Node6</title>
<g id="a_node6"><a xlink:href="stencil_8cpp.html" target="_top" xlink:title="The stencils for pixel based computations. ">
<polygon fill="white" stroke="black" points="1453,-385.5 1453,-403.5 1513,-403.5 1513,-385.5 1453,-385.5"/>
<text text-anchor="middle" x="1483" y="-392.3" font-family="Helvetica,sans-Serif" font-size="9.00">stencil.cpp</text>
</a>
</g>
</g>
<!-- Node1&#45;&gt;Node6 -->
<g id="edge5" class="edge"><title>Node1&#45;&gt;Node6</title>
<path fill="none" stroke="midnightblue" d="M1347.64,-437.7C1380.14,-427.567 1428.01,-412.643 1457.26,-403.526"/>
<polygon fill="midnightblue" stroke="midnightblue" points="1346.59,-434.362 1338.08,-440.68 1348.67,-441.045 1346.59,-434.362"/>
</g>
<!-- Node7 -->
<g id="node7" class="node"><title>Node7</title>
<g id="a_node7"><a xlink:href="PointEmitterModel_8h.html" target="_top" xlink:title="The class declaration and inline and templated functions for PointEmitterModel. ">
<polygon fill="white" stroke="black" points="901.5,-385.5 901.5,-403.5 1000.5,-403.5 1000.5,-385.5 901.5,-385.5"/>
<text text-anchor="middle" x="951" y="-392.3" font-family="Helvetica,sans-Serif" font-size="9.00">PointEmitterModel.h</text>
</a>
</g>
</g>
<!-- Node1&#45;&gt;Node7 -->
<g id="edge6" class="edge"><title>Node1&#45;&gt;Node7</title>
<path fill="none" stroke="midnightblue" d="M1277.72,-443.334C1212.94,-433.85 1074.89,-413.638 1000.67,-402.772"/>
<polygon fill="midnightblue" stroke="midnightblue" points="1277.43,-446.83 1287.83,-444.815 1278.44,-439.903 1277.43,-446.83"/>
</g>
<!-- Node42 -->
<g id="node42" class="node"><title>Node42</title>
<g id="a_node42"><a xlink:href="PriorMAP1DObjective_8h.html" target="_top" xlink:title="The class declaration and inline and templated functions for PriorMAP1DObjective. ...">
<polygon fill="white" stroke="black" points="1531.5,-385.5 1531.5,-403.5 1644.5,-403.5 1644.5,-385.5 1531.5,-385.5"/>
<text text-anchor="middle" x="1588" y="-392.3" font-family="Helvetica,sans-Serif" font-size="9.00">PriorMAP1DObjective.h</text>
</a>
</g>
</g>
<!-- Node1&#45;&gt;Node42 -->
<g id="edge63" class="edge"><title>Node1&#45;&gt;Node42</title>
<path fill="none" stroke="midnightblue" d="M1348.22,-441.713C1398.89,-431.946 1492.2,-413.962 1546.27,-403.542"/>
<polygon fill="midnightblue" stroke="midnightblue" points="1347.54,-438.28 1338.38,-443.609 1348.86,-445.153 1347.54,-438.28"/>
</g>
<!-- Node8 -->
<g id="node8" class="node"><title>Node8</title>
<g id="a_node8"><a xlink:href="PointEmitterModel_8cpp.html" target="_top" xlink:title="The class definition and template Specializations for PointEmitterModel. ">
<polygon fill="white" stroke="black" points="854.5,-330.5 854.5,-348.5 963.5,-348.5 963.5,-330.5 854.5,-330.5"/>
<text text-anchor="middle" x="909" y="-337.3" font-family="Helvetica,sans-Serif" font-size="9.00">PointEmitterModel.cpp</text>
</a>
</g>
</g>
<!-- Node7&#45;&gt;Node8 -->
<g id="edge7" class="edge"><title>Node7&#45;&gt;Node8</title>
<path fill="none" stroke="midnightblue" d="M938.117,-377.243C930.579,-367.73 921.392,-356.137 915.379,-348.55"/>
<polygon fill="midnightblue" stroke="midnightblue" points="935.484,-379.555 944.438,-385.219 940.97,-375.207 935.484,-379.555"/>
</g>
<!-- Node9 -->
<g id="node9" class="node"><title>Node9</title>
<g id="a_node9"><a xlink:href="Gauss1DModel_8h.html" target="_top" xlink:title="The class declaration and inline and templated functions for Gauss1DModel. ">
<polygon fill="white" stroke="black" points="549,-275.5 549,-293.5 637,-293.5 637,-275.5 549,-275.5"/>
<text text-anchor="middle" x="593" y="-282.3" font-family="Helvetica,sans-Serif" font-size="9.00">Gauss1DModel.h</text>
</a>
</g>
</g>
<!-- Node7&#45;&gt;Node9 -->
<g id="edge8" class="edge"><title>Node7&#45;&gt;Node9</title>
<path fill="none" stroke="midnightblue" d="M913.862,-382.571C883.492,-373.613 839.442,-360.57 801,-349 735.561,-329.305 658.679,-305.716 619.248,-293.586"/>
<polygon fill="midnightblue" stroke="midnightblue" points="913.027,-385.974 923.609,-385.445 915.007,-379.26 913.027,-385.974"/>
</g>
<!-- Node13 -->
<g id="node13" class="node"><title>Node13</title>
<g id="a_node13"><a xlink:href="Gauss2DModel_8h.html" target="_top" xlink:title="The class declaration and inline and templated functions for Gauss2DModel. ">
<polygon fill="white" stroke="black" points="392,-165.5 392,-183.5 480,-183.5 480,-165.5 392,-165.5"/>
<text text-anchor="middle" x="436" y="-172.3" font-family="Helvetica,sans-Serif" font-size="9.00">Gauss2DModel.h</text>
</a>
</g>
</g>
<!-- Node7&#45;&gt;Node13 -->
<g id="edge35" class="edge"><title>Node7&#45;&gt;Node13</title>
<path fill="none" stroke="midnightblue" d="M891.077,-390.766C806.742,-384.439 650.954,-363.473 540,-294 491.976,-263.93 453.618,-205.011 440.694,-183.557"/>
<polygon fill="midnightblue" stroke="midnightblue" points="891.027,-394.271 901.248,-391.483 891.519,-387.288 891.027,-394.271"/>
</g>
<!-- Node21 -->
<g id="node21" class="node"><title>Node21</title>
<g id="a_node21"><a xlink:href="Gauss1DsModel_8h.html" target="_top" xlink:title="The class declaration and inline and templated functions for Gauss1DsModel. ">
<polygon fill="white" stroke="black" points="1190,-220.5 1190,-238.5 1282,-238.5 1282,-220.5 1190,-220.5"/>
<text text-anchor="middle" x="1236" y="-227.3" font-family="Helvetica,sans-Serif" font-size="9.00">Gauss1DsModel.h</text>
</a>
</g>
</g>
<!-- Node7&#45;&gt;Node21 -->
<g id="edge22" class="edge"><title>Node7&#45;&gt;Node21</title>
<path fill="none" stroke="midnightblue" d="M1007.48,-383.56C1087.53,-368.14 1227.37,-335.822 1255,-294 1266.67,-276.335 1251.75,-251.259 1242.43,-238.551"/>
<polygon fill="midnightblue" stroke="midnightblue" points="1006.72,-380.141 997.551,-385.445 1008.03,-387.018 1006.72,-380.141"/>
</g>
<!-- Node24 -->
<g id="node24" class="node"><title>Node24</title>
<g id="a_node24"><a xlink:href="Gauss2DsModel_8h.html" target="_top" xlink:title="The class declaration and inline and templated functions for Gauss2DsModel. ">
<polygon fill="white" stroke="black" points="1018,-110.5 1018,-128.5 1110,-128.5 1110,-110.5 1018,-110.5"/>
<text text-anchor="middle" x="1064" y="-117.3" font-family="Helvetica,sans-Serif" font-size="9.00">Gauss2DsModel.h</text>
</a>
</g>
</g>
<!-- Node7&#45;&gt;Node24 -->
<g id="edge36" class="edge"><title>Node7&#45;&gt;Node24</title>
<path fill="none" stroke="midnightblue" d="M959.269,-376.338C972.913,-348.164 999.752,-293.398 1011,-275 1026.77,-249.212 1029.2,-240.932 1051,-220 1071.81,-200.024 1091.39,-209.431 1105,-184 1116.08,-163.29 1091.62,-140.496 1075.9,-128.658"/>
<polygon fill="midnightblue" stroke="midnightblue" points="956.091,-374.871 954.892,-385.398 962.394,-377.916 956.091,-374.871"/>
</g>
<!-- Node29 -->
<g id="node29" class="node"><title>Node29</title>
<g id="a_node29"><a xlink:href="Gauss2DsxyModel_8h.html" target="_top" xlink:title="The class declaration and inline and templated functions for Gauss2DsxyModel. ">
<polygon fill="white" stroke="black" points="1279.5,-110.5 1279.5,-128.5 1380.5,-128.5 1380.5,-110.5 1279.5,-110.5"/>
<text text-anchor="middle" x="1330" y="-117.3" font-family="Helvetica,sans-Serif" font-size="9.00">Gauss2DsxyModel.h</text>
</a>
</g>
</g>
<!-- Node7&#45;&gt;Node29 -->
<g id="edge37" class="edge"><title>Node7&#45;&gt;Node29</title>
<path fill="none" stroke="midnightblue" d="M1010.67,-391.128C1130.06,-384.751 1387,-362.126 1387,-285.5 1387,-285.5 1387,-285.5 1387,-228.5 1387,-199.042 1382.09,-190.87 1368,-165 1360.22,-150.725 1347.32,-136.911 1338.74,-128.558"/>
<polygon fill="midnightblue" stroke="midnightblue" points="1010.4,-387.638 1000.59,-391.645 1010.76,-394.628 1010.4,-387.638"/>
</g>
<!-- Node32 -->
<g id="node32" class="node"><title>Node32</title>
<g id="a_node32"><a xlink:href="MAPEstimator_8h.html" target="_top" xlink:title="Class declaration and inline and templated functions for MAPEstimator. ">
<polygon fill="white" stroke="black" points="655,-275.5 655,-293.5 737,-293.5 737,-275.5 655,-275.5"/>
<text text-anchor="middle" x="696" y="-282.3" font-family="Helvetica,sans-Serif" font-size="9.00">MAPEstimator.h</text>
</a>
</g>
</g>
<!-- Node7&#45;&gt;Node32 -->
<g id="edge38" class="edge"><title>Node7&#45;&gt;Node32</title>
<path fill="none" stroke="midnightblue" d="M922.388,-381.537C901.046,-372.603 871.183,-360.075 845,-349 798.125,-329.172 743.05,-305.639 714.803,-293.552"/>
<polygon fill="midnightblue" stroke="midnightblue" points="921.262,-384.86 931.838,-385.492 923.964,-378.403 921.262,-384.86"/>
</g>
<!-- Node33 -->
<g id="node33" class="node"><title>Node33</title>
<g id="a_node33"><a xlink:href="MLEstimator_8h.html" target="_top" xlink:title="Class declaration and inline and templated functions for MLEstimator. ">
<polygon fill="white" stroke="black" points="341.5,-220.5 341.5,-238.5 416.5,-238.5 416.5,-220.5 341.5,-220.5"/>
<text text-anchor="middle" x="379" y="-227.3" font-family="Helvetica,sans-Serif" font-size="9.00">MLEstimator.h</text>
</a>
</g>
</g>
<!-- Node7&#45;&gt;Node33 -->
<g id="edge62" class="edge"><title>Node7&#45;&gt;Node33</title>
<path fill="none" stroke="midnightblue" d="M897.195,-383.498C817.894,-368.081 665.467,-335.86 540,-294 487.556,-276.503 427.327,-251.354 397.597,-238.591"/>
<polygon fill="midnightblue" stroke="midnightblue" points="896.943,-387.014 907.425,-385.472 898.269,-380.141 896.943,-387.014"/>
</g>
<!-- Node34 -->
<g id="node34" class="node"><title>Node34</title>
<g id="a_node34"><a xlink:href="MCMCAdaptor1D_8h.html" target="_top" xlink:title="The class declaration and inline and templated functions for MCMCAdaptor1D. ">
<polygon fill="white" stroke="black" points="1020.5,-330.5 1020.5,-348.5 1117.5,-348.5 1117.5,-330.5 1020.5,-330.5"/>
<text text-anchor="middle" x="1069" y="-337.3" font-family="Helvetica,sans-Serif" font-size="9.00">MCMCAdaptor1D.h</text>
</a>
</g>
</g>
<!-- Node7&#45;&gt;Node34 -->
<g id="edge50" class="edge"><title>Node7&#45;&gt;Node34</title>
<path fill="none" stroke="midnightblue" d="M978.199,-381.283C1000.53,-371.254 1031.52,-357.333 1050.91,-348.625"/>
<polygon fill="midnightblue" stroke="midnightblue" points="976.61,-378.16 968.922,-385.45 979.478,-384.546 976.61,-378.16"/>
</g>
<!-- Node9&#45;&gt;Node2 -->
<g id="edge9" class="edge"><title>Node9&#45;&gt;Node2</title>
<path fill="none" stroke="midnightblue" d="M538.659,-274.443C478.134,-264.356 381.206,-248.201 323.26,-238.543"/>
<polygon fill="midnightblue" stroke="midnightblue" points="538.344,-277.939 548.783,-276.131 539.495,-271.034 538.344,-277.939"/>
</g>
<!-- Node10 -->
<g id="node10" class="node"><title>Node10</title>
<g id="a_node10"><a xlink:href="Gauss1DMAP_8h.html" target="_top" xlink:title="The class declaration and inline and templated functions for Gauss1DMAP. ">
<polygon fill="white" stroke="black" points="625,-220.5 625,-238.5 707,-238.5 707,-220.5 625,-220.5"/>
<text text-anchor="middle" x="666" y="-227.3" font-family="Helvetica,sans-Serif" font-size="9.00">Gauss1DMAP.h</text>
</a>
</g>
</g>
<!-- Node9&#45;&gt;Node10 -->
<g id="edge10" class="edge"><title>Node9&#45;&gt;Node10</title>
<path fill="none" stroke="midnightblue" d="M612.295,-269.492C625.851,-259.649 643.514,-246.826 654.809,-238.625"/>
<polygon fill="midnightblue" stroke="midnightblue" points="610.123,-266.743 604.087,-275.45 614.236,-272.408 610.123,-266.743"/>
</g>
<!-- Node18 -->
<g id="node18" class="node"><title>Node18</title>
<g id="a_node18"><a xlink:href="Gauss1DMLE_8h.html" target="_top" xlink:title="The class declaration and inline and templated functions for Gauss1DMLE. ">
<polygon fill="white" stroke="black" points="292.5,-165.5 292.5,-183.5 373.5,-183.5 373.5,-165.5 292.5,-165.5"/>
<text text-anchor="middle" x="333" y="-172.3" font-family="Helvetica,sans-Serif" font-size="9.00">Gauss1DMLE.h</text>
</a>
</g>
</g>
<!-- Node9&#45;&gt;Node18 -->
<g id="edge19" class="edge"><title>Node9&#45;&gt;Node18</title>
<path fill="none" stroke="midnightblue" d="M564.212,-271.542C510.82,-249.364 397.759,-202.4 352.414,-183.564"/>
<polygon fill="midnightblue" stroke="midnightblue" points="562.88,-274.779 573.458,-275.382 565.565,-268.314 562.88,-274.779"/>
</g>
<!-- Node20 -->
<g id="node20" class="node"><title>Node20</title>
<g id="a_node20"><a xlink:href="Gauss2DsxyMAP_8h.html" target="_top" xlink:title="The class declaration and inline and templated functions for Gauss2DsxyMAP. ">
<polygon fill="white" stroke="black" points="511.5,-220.5 511.5,-238.5 606.5,-238.5 606.5,-220.5 511.5,-220.5"/>
<text text-anchor="middle" x="559" y="-227.3" font-family="Helvetica,sans-Serif" font-size="9.00">Gauss2DsxyMAP.h</text>
</a>
</g>
</g>
<!-- Node9&#45;&gt;Node20 -->
<g id="edge21" class="edge"><title>Node9&#45;&gt;Node20</title>
<path fill="none" stroke="midnightblue" d="M582.195,-266.658C576.166,-257.259 568.932,-245.982 564.164,-238.55"/>
<polygon fill="midnightblue" stroke="midnightblue" points="579.342,-268.692 587.688,-275.219 585.234,-264.912 579.342,-268.692"/>
</g>
<!-- Node11 -->
<g id="node11" class="node"><title>Node11</title>
<g id="a_node11"><a xlink:href="estimator__statics_8cpp.html" target="_top" xlink:title="estimator_statics.cpp">
<polygon fill="white" stroke="black" points="498,-165.5 498,-183.5 600,-183.5 600,-165.5 498,-165.5"/>
<text text-anchor="middle" x="549" y="-172.3" font-family="Helvetica,sans-Serif" font-size="9.00">estimator_statics.cpp</text>
</a>
</g>
</g>
<!-- Node10&#45;&gt;Node11 -->
<g id="edge11" class="edge"><title>Node10&#45;&gt;Node11</title>
<path fill="none" stroke="midnightblue" d="M639.031,-216.283C616.892,-206.254 586.16,-192.333 566.937,-183.625"/>
<polygon fill="midnightblue" stroke="midnightblue" points="637.677,-219.512 648.23,-220.45 640.565,-213.136 637.677,-219.512"/>
</g>
<!-- Node12 -->
<g id="node12" class="node"><title>Node12</title>
<g id="a_node12"><a xlink:href="Gauss1DMAP_8cpp.html" target="_top" xlink:title="The class definition and template Specializations for Gauss1DMAP. ">
<polygon fill="white" stroke="black" points="618,-165.5 618,-183.5 710,-183.5 710,-165.5 618,-165.5"/>
<text text-anchor="middle" x="664" y="-172.3" font-family="Helvetica,sans-Serif" font-size="9.00">Gauss1DMAP.cpp</text>
</a>
</g>
</g>
<!-- Node10&#45;&gt;Node12 -->
<g id="edge12" class="edge"><title>Node10&#45;&gt;Node12</title>
<path fill="none" stroke="midnightblue" d="M665.308,-210.175C664.966,-201.094 664.57,-190.595 664.304,-183.55"/>
<polygon fill="midnightblue" stroke="midnightblue" points="661.813,-210.358 665.688,-220.219 668.808,-210.094 661.813,-210.358"/>
</g>
<!-- Node10&#45;&gt;Node13 -->
<g id="edge13" class="edge"><title>Node10&#45;&gt;Node13</title>
<path fill="none" stroke="midnightblue" d="M621.219,-218.181C577.248,-208.048 511.084,-192.802 470.883,-183.538"/>
<polygon fill="midnightblue" stroke="midnightblue" points="620.537,-221.615 631.068,-220.45 622.109,-214.794 620.537,-221.615"/>
</g>
<!-- Node13&#45;&gt;Node4 -->
<g id="edge14" class="edge"><title>Node13&#45;&gt;Node4</title>
<path fill="none" stroke="midnightblue" d="M381.59,-164.979C258.303,-147.326 225.877,-145.491 107,-129 104.077,-128.594 101.071,-128.172 98.0402,-127.741"/>
<polygon fill="midnightblue" stroke="midnightblue" points="381.413,-168.489 391.81,-166.448 382.41,-161.561 381.413,-168.489"/>
</g>
<!-- Node14 -->
<g id="node14" class="node"><title>Node14</title>
<g id="a_node14"><a xlink:href="Gauss2DMAP_8h.html" target="_top" xlink:title="The class declaration and inline and templated functions for Gauss2DMAP. ">
<polygon fill="white" stroke="black" points="529,-110.5 529,-128.5 611,-128.5 611,-110.5 529,-110.5"/>
<text text-anchor="middle" x="570" y="-117.3" font-family="Helvetica,sans-Serif" font-size="9.00">Gauss2DMAP.h</text>
</a>
</g>
</g>
<!-- Node13&#45;&gt;Node14 -->
<g id="edge15" class="edge"><title>Node13&#45;&gt;Node14</title>
<path fill="none" stroke="midnightblue" d="M465.869,-161.686C491.294,-151.63 527.144,-137.45 549.457,-128.625"/>
<polygon fill="midnightblue" stroke="midnightblue" points="464.363,-158.518 456.352,-165.45 466.938,-165.027 464.363,-158.518"/>
</g>
<!-- Node16 -->
<g id="node16" class="node"><title>Node16</title>
<g id="a_node16"><a xlink:href="Gauss2DMLE_8h.html" target="_top" xlink:title="The class declaration and inline and templated functions for Gauss2DMLE. ">
<polygon fill="white" stroke="black" points="116.5,-110.5 116.5,-128.5 197.5,-128.5 197.5,-110.5 116.5,-110.5"/>
<text text-anchor="middle" x="157" y="-117.3" font-family="Helvetica,sans-Serif" font-size="9.00">Gauss2DMLE.h</text>
</a>
</g>
</g>
<!-- Node13&#45;&gt;Node16 -->
<g id="edge17" class="edge"><title>Node13&#45;&gt;Node16</title>
<path fill="none" stroke="midnightblue" d="M383.568,-163.54C329.592,-153.286 246.64,-137.528 197.501,-128.194"/>
<polygon fill="midnightblue" stroke="midnightblue" points="383.148,-167.023 393.626,-165.45 384.455,-160.146 383.148,-167.023"/>
</g>
<!-- Node15 -->
<g id="node15" class="node"><title>Node15</title>
<g id="a_node15"><a xlink:href="Gauss2DMAP_8cpp.html" target="_top" xlink:title="The class definition and template Specializations for Gauss2DMAP. ">
<polygon fill="white" stroke="black" points="524,-55.5 524,-73.5 616,-73.5 616,-55.5 524,-55.5"/>
<text text-anchor="middle" x="570" y="-62.3" font-family="Helvetica,sans-Serif" font-size="9.00">Gauss2DMAP.cpp</text>
</a>
</g>
</g>
<!-- Node14&#45;&gt;Node15 -->
<g id="edge16" class="edge"><title>Node14&#45;&gt;Node15</title>
<path fill="none" stroke="midnightblue" d="M570,-100.175C570,-91.0945 570,-80.5949 570,-73.5496"/>
<polygon fill="midnightblue" stroke="midnightblue" points="566.5,-100.219 570,-110.219 573.5,-100.219 566.5,-100.219"/>
</g>
<!-- Node17 -->
<g id="node17" class="node"><title>Node17</title>
<g id="a_node17"><a xlink:href="Gauss2DMLE_8cpp.html" target="_top" xlink:title="The class definition and template Specializations for Gauss2DMLE. ">
<polygon fill="white" stroke="black" points="111.5,-55.5 111.5,-73.5 202.5,-73.5 202.5,-55.5 111.5,-55.5"/>
<text text-anchor="middle" x="157" y="-62.3" font-family="Helvetica,sans-Serif" font-size="9.00">Gauss2DMLE.cpp</text>
</a>
</g>
</g>
<!-- Node16&#45;&gt;Node17 -->
<g id="edge18" class="edge"><title>Node16&#45;&gt;Node17</title>
<path fill="none" stroke="midnightblue" d="M157,-100.175C157,-91.0945 157,-80.5949 157,-73.5496"/>
<polygon fill="midnightblue" stroke="midnightblue" points="153.5,-100.219 157,-110.219 160.5,-100.219 153.5,-100.219"/>
</g>
<!-- Node19 -->
<g id="node19" class="node"><title>Node19</title>
<g id="a_node19"><a xlink:href="Gauss1DMLE_8cpp.html" target="_top" xlink:title="The class definition and template Specializations for Gauss1DMLE. ">
<polygon fill="white" stroke="black" points="292.5,-110.5 292.5,-128.5 383.5,-128.5 383.5,-110.5 292.5,-110.5"/>
<text text-anchor="middle" x="338" y="-117.3" font-family="Helvetica,sans-Serif" font-size="9.00">Gauss1DMLE.cpp</text>
</a>
</g>
</g>
<!-- Node18&#45;&gt;Node19 -->
<g id="edge20" class="edge"><title>Node18&#45;&gt;Node19</title>
<path fill="none" stroke="midnightblue" d="M334.729,-155.175C335.585,-146.094 336.576,-135.595 337.241,-128.55"/>
<polygon fill="midnightblue" stroke="midnightblue" points="331.236,-154.934 333.781,-165.219 338.205,-155.592 331.236,-154.934"/>
</g>
<!-- Node21&#45;&gt;Node3 -->
<g id="edge23" class="edge"><title>Node21&#45;&gt;Node3</title>
<path fill="none" stroke="midnightblue" d="M1255.03,-214.492C1268.4,-204.649 1285.82,-191.826 1296.96,-183.625"/>
<polygon fill="midnightblue" stroke="midnightblue" points="1252.91,-211.704 1246.94,-220.45 1257.06,-217.341 1252.91,-211.704"/>
</g>
<!-- Node22 -->
<g id="node22" class="node"><title>Node22</title>
<g id="a_node22"><a xlink:href="Gauss1DsMAP_8h.html" target="_top" xlink:title="The class declaration and inline and templated functions for Gauss1DsMAP. ">
<polygon fill="white" stroke="black" points="1153,-165.5 1153,-183.5 1239,-183.5 1239,-165.5 1153,-165.5"/>
<text text-anchor="middle" x="1196" y="-172.3" font-family="Helvetica,sans-Serif" font-size="9.00">Gauss1DsMAP.h</text>
</a>
</g>
</g>
<!-- Node21&#45;&gt;Node22 -->
<g id="edge24" class="edge"><title>Node21&#45;&gt;Node22</title>
<path fill="none" stroke="midnightblue" d="M1223.51,-211.951C1216.37,-202.494 1207.74,-191.059 1202.08,-183.55"/>
<polygon fill="midnightblue" stroke="midnightblue" points="1220.93,-214.345 1229.75,-220.219 1226.52,-210.128 1220.93,-214.345"/>
</g>
<!-- Node30 -->
<g id="node30" class="node"><title>Node30</title>
<g id="a_node30"><a xlink:href="Gauss1DsMLE_8h.html" target="_top" xlink:title="The class declaration and inline and templated functions for Gauss1DsMLE. ">
<polygon fill="white" stroke="black" points="766,-165.5 766,-183.5 852,-183.5 852,-165.5 766,-165.5"/>
<text text-anchor="middle" x="809" y="-172.3" font-family="Helvetica,sans-Serif" font-size="9.00">Gauss1DsMLE.h</text>
</a>
</g>
</g>
<!-- Node21&#45;&gt;Node30 -->
<g id="edge33" class="edge"><title>Node21&#45;&gt;Node30</title>
<path fill="none" stroke="midnightblue" d="M1179.85,-220.037C1036.87,-201.38 999.162,-203.076 861,-184 858.1,-183.6 855.113,-183.167 852.105,-182.715"/>
<polygon fill="midnightblue" stroke="midnightblue" points="1179.5,-223.522 1189.88,-221.356 1180.42,-216.581 1179.5,-223.522"/>
</g>
<!-- Node23 -->
<g id="node23" class="node"><title>Node23</title>
<g id="a_node23"><a xlink:href="Gauss1DsMAP_8cpp.html" target="_top" xlink:title="The class definition and template Specializations for Gauss1DsMAP. ">
<polygon fill="white" stroke="black" points="1148,-110.5 1148,-128.5 1244,-128.5 1244,-110.5 1148,-110.5"/>
<text text-anchor="middle" x="1196" y="-117.3" font-family="Helvetica,sans-Serif" font-size="9.00">Gauss1DsMAP.cpp</text>
</a>
</g>
</g>
<!-- Node22&#45;&gt;Node23 -->
<g id="edge25" class="edge"><title>Node22&#45;&gt;Node23</title>
<path fill="none" stroke="midnightblue" d="M1196,-155.175C1196,-146.094 1196,-135.595 1196,-128.55"/>
<polygon fill="midnightblue" stroke="midnightblue" points="1192.5,-155.219 1196,-165.219 1199.5,-155.219 1192.5,-155.219"/>
</g>
<!-- Node22&#45;&gt;Node24 -->
<g id="edge26" class="edge"><title>Node22&#45;&gt;Node24</title>
<path fill="none" stroke="midnightblue" d="M1166.58,-161.686C1141.53,-151.63 1106.22,-137.45 1084.24,-128.625"/>
<polygon fill="midnightblue" stroke="midnightblue" points="1165.37,-164.972 1175.95,-165.45 1167.98,-158.476 1165.37,-164.972"/>
</g>
<!-- Node22&#45;&gt;Node29 -->
<g id="edge32" class="edge"><title>Node22&#45;&gt;Node29</title>
<path fill="none" stroke="midnightblue" d="M1225.87,-161.686C1251.29,-151.63 1287.14,-137.45 1309.46,-128.625"/>
<polygon fill="midnightblue" stroke="midnightblue" points="1224.36,-158.518 1216.35,-165.45 1226.94,-165.027 1224.36,-158.518"/>
</g>
<!-- Node24&#45;&gt;Node5 -->
<g id="edge27" class="edge"><title>Node24&#45;&gt;Node5</title>
<path fill="none" stroke="midnightblue" d="M1087.36,-105.603C1105.42,-95.6328 1129.86,-82.1379 1145.28,-73.6253"/>
<polygon fill="midnightblue" stroke="midnightblue" points="1085.64,-102.553 1078.58,-110.45 1089.03,-108.681 1085.64,-102.553"/>
</g>
<!-- Node25 -->
<g id="node25" class="node"><title>Node25</title>
<g id="a_node25"><a xlink:href="Gauss2DsMAP_8h.html" target="_top" xlink:title="The class declaration and inline and templated functions for Gauss2DsMAP. ">
<polygon fill="white" stroke="black" points="723,-55.5 723,-73.5 809,-73.5 809,-55.5 723,-55.5"/>
<text text-anchor="middle" x="766" y="-62.3" font-family="Helvetica,sans-Serif" font-size="9.00">Gauss2DsMAP.h</text>
</a>
</g>
</g>
<!-- Node24&#45;&gt;Node25 -->
<g id="edge28" class="edge"><title>Node24&#45;&gt;Node25</title>
<path fill="none" stroke="midnightblue" d="M1008.71,-108.667C951.083,-98.4174 861.963,-82.5672 809.26,-73.1938"/>
<polygon fill="midnightblue" stroke="midnightblue" points="1008.28,-112.145 1018.74,-110.45 1009.51,-105.253 1008.28,-112.145"/>
</g>
<!-- Node27 -->
<g id="node27" class="node"><title>Node27</title>
<g id="a_node27"><a xlink:href="Gauss2DsMLE_8h.html" target="_top" xlink:title="The class declaration and inline and templated functions for Gauss2DsMLE. ">
<polygon fill="white" stroke="black" points="925,-55.5 925,-73.5 1011,-73.5 1011,-55.5 925,-55.5"/>
<text text-anchor="middle" x="968" y="-62.3" font-family="Helvetica,sans-Serif" font-size="9.00">Gauss2DsMLE.h</text>
</a>
</g>
</g>
<!-- Node24&#45;&gt;Node27 -->
<g id="edge30" class="edge"><title>Node24&#45;&gt;Node27</title>
<path fill="none" stroke="midnightblue" d="M1040.64,-105.603C1022.58,-95.6328 998.137,-82.1379 982.718,-73.6253"/>
<polygon fill="midnightblue" stroke="midnightblue" points="1038.97,-108.681 1049.42,-110.45 1042.36,-102.553 1038.97,-108.681"/>
</g>
<!-- Node26 -->
<g id="node26" class="node"><title>Node26</title>
<g id="a_node26"><a xlink:href="Gauss2DsMAP_8cpp.html" target="_top" xlink:title="The class definition and template Specializations for Gauss2DsMAP. ">
<polygon fill="white" stroke="black" points="718,-0.5 718,-18.5 814,-18.5 814,-0.5 718,-0.5"/>
<text text-anchor="middle" x="766" y="-7.3" font-family="Helvetica,sans-Serif" font-size="9.00">Gauss2DsMAP.cpp</text>
</a>
</g>
</g>
<!-- Node25&#45;&gt;Node26 -->
<g id="edge29" class="edge"><title>Node25&#45;&gt;Node26</title>
<path fill="none" stroke="midnightblue" d="M766,-45.1746C766,-36.0945 766,-25.5949 766,-18.5496"/>
<polygon fill="midnightblue" stroke="midnightblue" points="762.5,-45.2187 766,-55.2188 769.5,-45.2188 762.5,-45.2187"/>
</g>
<!-- Node28 -->
<g id="node28" class="node"><title>Node28</title>
<g id="a_node28"><a xlink:href="Gauss2DsMLE_8cpp.html" target="_top" xlink:title="The class definition and template Specializations for Gauss2DsMLE. ">
<polygon fill="white" stroke="black" points="920.5,-0.5 920.5,-18.5 1015.5,-18.5 1015.5,-0.5 920.5,-0.5"/>
<text text-anchor="middle" x="968" y="-7.3" font-family="Helvetica,sans-Serif" font-size="9.00">Gauss2DsMLE.cpp</text>
</a>
</g>
</g>
<!-- Node27&#45;&gt;Node28 -->
<g id="edge31" class="edge"><title>Node27&#45;&gt;Node28</title>
<path fill="none" stroke="midnightblue" d="M968,-45.1746C968,-36.0945 968,-25.5949 968,-18.5496"/>
<polygon fill="midnightblue" stroke="midnightblue" points="964.5,-45.2187 968,-55.2188 971.5,-45.2188 964.5,-45.2187"/>
</g>
<!-- Node31 -->
<g id="node31" class="node"><title>Node31</title>
<g id="a_node31"><a xlink:href="Gauss1DsMLE_8cpp.html" target="_top" xlink:title="The class definition and template Specializations for Gauss1DsMLE. ">
<polygon fill="white" stroke="black" points="756.5,-110.5 756.5,-128.5 851.5,-128.5 851.5,-110.5 756.5,-110.5"/>
<text text-anchor="middle" x="804" y="-117.3" font-family="Helvetica,sans-Serif" font-size="9.00">Gauss1DsMLE.cpp</text>
</a>
</g>
</g>
<!-- Node30&#45;&gt;Node31 -->
<g id="edge34" class="edge"><title>Node30&#45;&gt;Node31</title>
<path fill="none" stroke="midnightblue" d="M807.271,-155.175C806.415,-146.094 805.424,-135.595 804.759,-128.55"/>
<polygon fill="midnightblue" stroke="midnightblue" points="803.795,-155.592 808.219,-165.219 810.764,-154.934 803.795,-155.592"/>
</g>
<!-- Node32&#45;&gt;Node10 -->
<g id="edge39" class="edge"><title>Node32&#45;&gt;Node10</title>
<path fill="none" stroke="midnightblue" d="M686.3,-266.363C681.014,-257.024 674.72,-245.905 670.556,-238.55"/>
<polygon fill="midnightblue" stroke="midnightblue" points="683.341,-268.24 691.312,-275.219 689.432,-264.792 683.341,-268.24"/>
</g>
<!-- Node32&#45;&gt;Node14 -->
<g id="edge41" class="edge"><title>Node32&#45;&gt;Node14</title>
<path fill="none" stroke="midnightblue" d="M706.606,-266.77C720.786,-242.049 741.659,-195.415 719,-165 694.404,-131.984 646.237,-122.512 611.31,-120.25"/>
<polygon fill="midnightblue" stroke="midnightblue" points="703.59,-264.994 701.431,-275.367 709.587,-268.605 703.59,-264.994"/>
</g>
<!-- Node32&#45;&gt;Node20 -->
<g id="edge42" class="edge"><title>Node32&#45;&gt;Node20</title>
<path fill="none" stroke="midnightblue" d="M665.806,-271.819C639.793,-261.756 602.916,-247.489 580.003,-238.625"/>
<polygon fill="midnightblue" stroke="midnightblue" points="664.603,-275.107 675.193,-275.45 667.129,-268.578 664.603,-275.107"/>
</g>
<!-- Node32&#45;&gt;Node22 -->
<g id="edge40" class="edge"><title>Node32&#45;&gt;Node22</title>
<path fill="none" stroke="midnightblue" d="M747.305,-277.164C803.356,-269.806 895.617,-256.418 974,-239 1046.79,-222.826 1131,-196.633 1171.61,-183.519"/>
<polygon fill="midnightblue" stroke="midnightblue" points="746.737,-273.708 737.272,-278.467 747.639,-280.649 746.737,-273.708"/>
</g>
<!-- Node32&#45;&gt;Node33 -->
<g id="edge43" class="edge"><title>Node32&#45;&gt;Node33</title>
<path fill="none" stroke="midnightblue" d="M644.978,-276.344C642.269,-275.888 639.597,-275.437 637,-275 558.451,-261.778 466.868,-246.556 416.559,-237.78"/>
<polygon fill="midnightblue" stroke="midnightblue" points="644.441,-279.802 654.881,-277.998 645.594,-272.898 644.441,-279.802"/>
</g>
<!-- Node33&#45;&gt;Node16 -->
<g id="edge46" class="edge"><title>Node33&#45;&gt;Node16</title>
<path fill="none" stroke="midnightblue" d="M331.275,-219.056C289.27,-210.158 231.802,-196.38 212,-184 188.998,-169.62 170.386,-142.615 161.928,-128.921"/>
<polygon fill="midnightblue" stroke="midnightblue" points="330.815,-222.536 341.32,-221.154 332.247,-215.683 330.815,-222.536"/>
</g>
<!-- Node33&#45;&gt;Node18 -->
<g id="edge44" class="edge"><title>Node33&#45;&gt;Node18</title>
<path fill="none" stroke="midnightblue" d="M365.142,-212.533C356.84,-202.967 346.639,-191.214 339.986,-183.55"/>
<polygon fill="midnightblue" stroke="midnightblue" points="362.614,-214.961 371.812,-220.219 367.901,-210.372 362.614,-214.961"/>
</g>
<!-- Node33&#45;&gt;Node25 -->
<g id="edge47" class="edge"><title>Node33&#45;&gt;Node25</title>
<path fill="none" stroke="midnightblue" d="M331.352,-218.16C298.787,-210.016 259.814,-197.767 250,-184 230.909,-157.219 227.766,-134.234 250,-110 257.978,-101.304 600.09,-76.9303 722.779,-68.4517"/>
<polygon fill="midnightblue" stroke="midnightblue" points="330.67,-221.596 341.213,-220.553 332.32,-214.793 330.67,-221.596"/>
</g>
<!-- Node33&#45;&gt;Node27 -->
<g id="edge48" class="edge"><title>Node33&#45;&gt;Node27</title>
<path fill="none" stroke="midnightblue" d="M331.908,-218.331C313.377,-211.777 293.946,-201.139 283,-184 265.297,-156.282 260.51,-133.998 283,-110 285.76,-107.055 774.9,-77.1964 924.825,-68.1097"/>
<polygon fill="midnightblue" stroke="midnightblue" points="330.875,-221.675 341.467,-221.398 333.015,-215.01 330.875,-221.675"/>
</g>
<!-- Node33&#45;&gt;Node30 -->
<g id="edge45" class="edge"><title>Node33&#45;&gt;Node30</title>
<path fill="none" stroke="midnightblue" d="M426.852,-222.602C511.155,-212.211 684.865,-190.8 765.771,-180.828"/>
<polygon fill="midnightblue" stroke="midnightblue" points="426.279,-219.146 416.783,-223.843 427.136,-226.093 426.279,-219.146"/>
</g>
<!-- Node33&#45;&gt;Node32 -->
<g id="edge49" class="edge"><title>Node33&#45;&gt;Node32</title>
<path fill="none" stroke="midnightblue" d="M426.978,-237.408C482.251,-246.121 575.33,-261.589 655,-275 655.955,-275.161 656.92,-275.323 657.893,-275.488"/>
<polygon fill="midnightblue" stroke="midnightblue" points="427.197,-233.899 416.775,-235.809 426.113,-240.815 427.197,-233.899"/>
</g>
<!-- Node34&#45;&gt;Node9 -->
<g id="edge52" class="edge"><title>Node34&#45;&gt;Node9</title>
<path fill="none" stroke="midnightblue" d="M1010.27,-333.336C928.476,-325.912 775.692,-311.209 646,-294 643.136,-293.62 640.189,-293.207 637.22,-292.776"/>
<polygon fill="midnightblue" stroke="midnightblue" points="1010.09,-336.834 1020.37,-334.248 1010.72,-329.862 1010.09,-336.834"/>
</g>
<!-- Node35 -->
<g id="node35" class="node"><title>Node35</title>
<g id="a_node35"><a xlink:href="MCMCAdaptor1D_8cpp.html" target="_top" xlink:title="The class definition and template Specializations for MCMCAdaptor1D. ">
<polygon fill="white" stroke="black" points="1139.5,-275.5 1139.5,-293.5 1246.5,-293.5 1246.5,-275.5 1139.5,-275.5"/>
<text text-anchor="middle" x="1193" y="-282.3" font-family="Helvetica,sans-Serif" font-size="9.00">MCMCAdaptor1D.cpp</text>
</a>
</g>
</g>
<!-- Node34&#45;&gt;Node35 -->
<g id="edge51" class="edge"><title>Node34&#45;&gt;Node35</title>
<path fill="none" stroke="midnightblue" d="M1097.27,-326.418C1120.75,-316.379 1153.53,-302.372 1173.99,-293.625"/>
<polygon fill="midnightblue" stroke="midnightblue" points="1095.65,-323.302 1087.83,-330.45 1098.4,-329.738 1095.65,-323.302"/>
</g>
<!-- Node36 -->
<g id="node36" class="node"><title>Node36</title>
<g id="a_node36"><a xlink:href="MCMCAdaptor1Ds_8h.html" target="_top" xlink:title="The class declaration and inline and templated functions for MCMCAdaptor1Ds. ">
<polygon fill="white" stroke="black" points="1020.5,-275.5 1020.5,-293.5 1121.5,-293.5 1121.5,-275.5 1020.5,-275.5"/>
<text text-anchor="middle" x="1071" y="-282.3" font-family="Helvetica,sans-Serif" font-size="9.00">MCMCAdaptor1Ds.h</text>
</a>
</g>
</g>
<!-- Node34&#45;&gt;Node36 -->
<g id="edge53" class="edge"><title>Node34&#45;&gt;Node36</title>
<path fill="none" stroke="midnightblue" d="M1069.69,-320.175C1070.03,-311.094 1070.43,-300.595 1070.7,-293.55"/>
<polygon fill="midnightblue" stroke="midnightblue" points="1066.19,-320.094 1069.31,-330.219 1073.19,-320.358 1066.19,-320.094"/>
</g>
<!-- Node38 -->
<g id="node38" class="node"><title>Node38</title>
<g id="a_node38"><a xlink:href="MCMCAdaptor2D_8h.html" target="_top" xlink:title="The class declaration and inline and templated functions for MCMCAdaptor2D. ">
<polygon fill="white" stroke="black" points="868.5,-220.5 868.5,-238.5 965.5,-238.5 965.5,-220.5 868.5,-220.5"/>
<text text-anchor="middle" x="917" y="-227.3" font-family="Helvetica,sans-Serif" font-size="9.00">MCMCAdaptor2D.h</text>
</a>
</g>
</g>
<!-- Node34&#45;&gt;Node38 -->
<g id="edge56" class="edge"><title>Node34&#45;&gt;Node38</title>
<path fill="none" stroke="midnightblue" d="M1049.39,-324.564C1017.26,-301.741 954.432,-257.097 928.557,-238.712"/>
<polygon fill="midnightblue" stroke="midnightblue" points="1047.4,-327.443 1057.58,-330.382 1051.45,-321.737 1047.4,-327.443"/>
</g>
<!-- Node36&#45;&gt;Node21 -->
<g id="edge55" class="edge"><title>Node36&#45;&gt;Node21</title>
<path fill="none" stroke="midnightblue" d="M1105.75,-272.338C1137.25,-262.218 1182.92,-247.549 1210.98,-238.538"/>
<polygon fill="midnightblue" stroke="midnightblue" points="1104.51,-269.06 1096.06,-275.45 1106.65,-275.724 1104.51,-269.06"/>
</g>
<!-- Node37 -->
<g id="node37" class="node"><title>Node37</title>
<g id="a_node37"><a xlink:href="MCMCAdaptor1Ds_8cpp.html" target="_top" xlink:title="The class definition and template Specializations for MCMCAdaptor1Ds. ">
<polygon fill="white" stroke="black" points="1060.5,-220.5 1060.5,-238.5 1171.5,-238.5 1171.5,-220.5 1060.5,-220.5"/>
<text text-anchor="middle" x="1116" y="-227.3" font-family="Helvetica,sans-Serif" font-size="9.00">MCMCAdaptor1Ds.cpp</text>
</a>
</g>
</g>
<!-- Node36&#45;&gt;Node37 -->
<g id="edge54" class="edge"><title>Node36&#45;&gt;Node37</title>
<path fill="none" stroke="midnightblue" d="M1084.56,-267.533C1092.68,-257.967 1102.66,-246.214 1109.17,-238.55"/>
<polygon fill="midnightblue" stroke="midnightblue" points="1081.84,-265.33 1078.03,-275.219 1087.17,-269.861 1081.84,-265.33"/>
</g>
<!-- Node38&#45;&gt;Node13 -->
<g id="edge58" class="edge"><title>Node38&#45;&gt;Node13</title>
<path fill="none" stroke="midnightblue" d="M858.244,-223.43C775.648,-216.066 620.574,-201.377 489,-184 486.136,-183.622 483.188,-183.21 480.22,-182.78"/>
<polygon fill="midnightblue" stroke="midnightblue" points="858.166,-226.937 868.436,-224.334 858.785,-219.964 858.166,-226.937"/>
</g>
<!-- Node39 -->
<g id="node39" class="node"><title>Node39</title>
<g id="a_node39"><a xlink:href="MCMCAdaptor2D_8cpp.html" target="_top" xlink:title="The class definition and template Specializations for MCMCAdaptor2D. ">
<polygon fill="white" stroke="black" points="989.5,-165.5 989.5,-183.5 1096.5,-183.5 1096.5,-165.5 989.5,-165.5"/>
<text text-anchor="middle" x="1043" y="-172.3" font-family="Helvetica,sans-Serif" font-size="9.00">MCMCAdaptor2D.cpp</text>
</a>
</g>
</g>
<!-- Node38&#45;&gt;Node39 -->
<g id="edge57" class="edge"><title>Node38&#45;&gt;Node39</title>
<path fill="none" stroke="midnightblue" d="M945.404,-216.552C969.291,-206.505 1002.8,-192.411 1023.68,-183.625"/>
<polygon fill="midnightblue" stroke="midnightblue" points="943.997,-213.347 936.137,-220.45 946.712,-219.799 943.997,-213.347"/>
</g>
<!-- Node40 -->
<g id="node40" class="node"><title>Node40</title>
<g id="a_node40"><a xlink:href="MCMCAdaptor2Ds_8h.html" target="_top" xlink:title="The class declaration and inline and templated functions for MCMCAdaptor2Ds. ">
<polygon fill="white" stroke="black" points="870.5,-165.5 870.5,-183.5 971.5,-183.5 971.5,-165.5 870.5,-165.5"/>
<text text-anchor="middle" x="921" y="-172.3" font-family="Helvetica,sans-Serif" font-size="9.00">MCMCAdaptor2Ds.h</text>
</a>
</g>
</g>
<!-- Node38&#45;&gt;Node40 -->
<g id="edge59" class="edge"><title>Node38&#45;&gt;Node40</title>
<path fill="none" stroke="midnightblue" d="M918.383,-210.175C919.068,-201.094 919.861,-190.595 920.392,-183.55"/>
<polygon fill="midnightblue" stroke="midnightblue" points="914.888,-209.984 917.625,-220.219 921.868,-210.511 914.888,-209.984"/>
</g>
<!-- Node40&#45;&gt;Node24 -->
<g id="edge61" class="edge"><title>Node40&#45;&gt;Node24</title>
<path fill="none" stroke="midnightblue" d="M952.158,-161.952C979.33,-151.881 1018.06,-137.528 1042.08,-128.625"/>
<polygon fill="midnightblue" stroke="midnightblue" points="950.879,-158.693 942.719,-165.45 953.312,-165.257 950.879,-158.693"/>
</g>
<!-- Node41 -->
<g id="node41" class="node"><title>Node41</title>
<g id="a_node41"><a xlink:href="MCMCAdaptor2Ds_8cpp.html" target="_top" xlink:title="The class definition and template Specializations for MCMCAdaptor2Ds. ">
<polygon fill="white" stroke="black" points="869.5,-110.5 869.5,-128.5 980.5,-128.5 980.5,-110.5 869.5,-110.5"/>
<text text-anchor="middle" x="925" y="-117.3" font-family="Helvetica,sans-Serif" font-size="9.00">MCMCAdaptor2Ds.cpp</text>
</a>
</g>
</g>
<!-- Node40&#45;&gt;Node41 -->
<g id="edge60" class="edge"><title>Node40&#45;&gt;Node41</title>
<path fill="none" stroke="midnightblue" d="M922.383,-155.175C923.068,-146.094 923.861,-135.595 924.392,-128.55"/>
<polygon fill="midnightblue" stroke="midnightblue" points="918.888,-154.984 921.625,-165.219 925.868,-155.511 918.888,-154.984"/>
</g>
</g>
</svg>
