<?xml version="1.0" encoding="UTF-8" standalone="no"?>
<!DOCTYPE svg PUBLIC "-//W3C//DTD SVG 1.1//EN"
 "http://www.w3.org/Graphics/SVG/1.1/DTD/svg11.dtd">
<!-- Generated by graphviz version 2.38.0 (20140413.2041)
 -->
<!-- Title: stencil.cpp Pages: 1 -->
<svg width="761pt" height="267pt"
 viewBox="0.00 0.00 760.50 267.00" xmlns="http://www.w3.org/2000/svg" xmlns:xlink="http://www.w3.org/1999/xlink">
<g id="graph0" class="graph" transform="scale(1 1) rotate(0) translate(4 263)">
<title>stencil.cpp</title>
<polygon fill="white" stroke="none" points="-4,4 -4,-263 756.5,-263 756.5,4 -4,4"/>
<!-- Node1 -->
<g id="node1" class="node"><title>Node1</title>
<polygon fill="#bfbfbf" stroke="black" points="206.5,-240.5 206.5,-258.5 266.5,-258.5 266.5,-240.5 206.5,-240.5"/>
<text text-anchor="middle" x="236.5" y="-247.3" font-family="Helvetica,sans-Serif" font-size="9.00">stencil.cpp</text>
</g>
<!-- Node2 -->
<g id="node2" class="node"><title>Node2</title>
<polygon fill="white" stroke="#bfbfbf" points="0,-5.5 0,-23.5 49,-23.5 49,-5.5 0,-5.5"/>
<text text-anchor="middle" x="24.5" y="-12.3" font-family="Helvetica,sans-Serif" font-size="9.00">sstream</text>
</g>
<!-- Node1&#45;&gt;Node2 -->
<g id="edge1" class="edge"><title>Node1&#45;&gt;Node2</title>
<path fill="none" stroke="midnightblue" d="M229.202,-240.48C198.632,-206.881 80.5407,-77.092 39.0302,-31.4695"/>
<polygon fill="midnightblue" stroke="midnightblue" points="41.5275,-29.0135 32.2088,-23.9724 36.3499,-33.7244 41.5275,-29.0135"/>
</g>
<!-- Node3 -->
<g id="node3" class="node"><title>Node3</title>
<g id="a_node3"><a xlink:href="util_8h.html" target="_top" xlink:title="Mappel/util.h">
<polygon fill="white" stroke="black" points="159,-70.5 159,-88.5 228,-88.5 228,-70.5 159,-70.5"/>
<text text-anchor="middle" x="193.5" y="-77.3" font-family="Helvetica,sans-Serif" font-size="9.00">Mappel/util.h</text>
</a>
</g>
</g>
<!-- Node1&#45;&gt;Node3 -->
<g id="edge2" class="edge"><title>Node1&#45;&gt;Node3</title>
<path fill="none" stroke="midnightblue" d="M234.426,-240.397C227.856,-214.729 207.393,-134.781 198.134,-98.6048"/>
<polygon fill="midnightblue" stroke="midnightblue" points="201.424,-97.3415 195.553,-88.5217 194.642,-99.0773 201.424,-97.3415"/>
</g>
<!-- Node12 -->
<g id="node12" class="node"><title>Node12</title>
<g id="a_node12"><a xlink:href="stencil_8h.html" target="_top" xlink:title="The stencils for pixel based computations. ">
<polygon fill="white" stroke="black" points="239,-185.5 239,-203.5 322,-203.5 322,-185.5 239,-185.5"/>
<text text-anchor="middle" x="280.5" y="-192.3" font-family="Helvetica,sans-Serif" font-size="9.00">Mappel/stencil.h</text>
</a>
</g>
</g>
<!-- Node1&#45;&gt;Node12 -->
<g id="edge12" class="edge"><title>Node1&#45;&gt;Node12</title>
<path fill="none" stroke="midnightblue" d="M243.375,-240.219C249.741,-232.551 259.381,-220.939 267.243,-211.469"/>
<polygon fill="midnightblue" stroke="midnightblue" points="270.123,-213.479 273.817,-203.55 264.737,-209.008 270.123,-213.479"/>
</g>
<!-- Node18 -->
<g id="node18" class="node"><title>Node18</title>
<g id="a_node18"><a xlink:href="display_8h.html" target="_top" xlink:title="Mappel/display.h">
<polygon fill="white" stroke="black" points="588.5,-185.5 588.5,-203.5 674.5,-203.5 674.5,-185.5 588.5,-185.5"/>
<text text-anchor="middle" x="631.5" y="-192.3" font-family="Helvetica,sans-Serif" font-size="9.00">Mappel/display.h</text>
</a>
</g>
</g>
<!-- Node1&#45;&gt;Node18 -->
<g id="edge21" class="edge"><title>Node1&#45;&gt;Node18</title>
<path fill="none" stroke="midnightblue" d="M266.513,-244.473C333.139,-235.533 494.127,-213.932 578.265,-202.643"/>
<polygon fill="midnightblue" stroke="midnightblue" points="578.933,-206.085 588.379,-201.286 578.003,-199.147 578.933,-206.085"/>
</g>
<!-- Node3&#45;&gt;Node2 -->
<g id="edge9" class="edge"><title>Node3&#45;&gt;Node2</title>
<path fill="none" stroke="midnightblue" d="M170.978,-70.4486C144.123,-60.8 97.9133,-44.0474 58.5,-29 57.0908,-28.462 55.6505,-27.9076 54.1969,-27.3446"/>
<polygon fill="midnightblue" stroke="midnightblue" points="55.1891,-23.9742 44.6014,-23.5836 52.6346,-30.4915 55.1891,-23.9742"/>
</g>
<!-- Node4 -->
<g id="node4" class="node"><title>Node4</title>
<polygon fill="white" stroke="#bfbfbf" points="359,-5.5 359,-23.5 402,-23.5 402,-5.5 359,-5.5"/>
<text text-anchor="middle" x="380.5" y="-12.3" font-family="Helvetica,sans-Serif" font-size="9.00">cstdint</text>
</g>
<!-- Node3&#45;&gt;Node4 -->
<g id="edge3" class="edge"><title>Node3&#45;&gt;Node4</title>
<path fill="none" stroke="midnightblue" d="M219.01,-70.4812C261.615,-57.0783 343.232,-31.3522 349.5,-29 350.874,-28.4844 352.275,-27.9408 353.685,-27.3795"/>
<polygon fill="midnightblue" stroke="midnightblue" points="355.04,-30.6068 362.924,-23.5294 352.347,-24.1453 355.04,-30.6068"/>
</g>
<!-- Node5 -->
<g id="node5" class="node"><title>Node5</title>
<polygon fill="white" stroke="#bfbfbf" points="497,-5.5 497,-23.5 538,-23.5 538,-5.5 497,-5.5"/>
<text text-anchor="middle" x="517.5" y="-12.3" font-family="Helvetica,sans-Serif" font-size="9.00">cmath</text>
</g>
<!-- Node3&#45;&gt;Node5 -->
<g id="edge4" class="edge"><title>Node3&#45;&gt;Node5</title>
<path fill="none" stroke="midnightblue" d="M216.974,-70.3981C223.262,-68.4295 230.094,-66.4705 236.5,-65 342.911,-40.5731 373.561,-55.3991 479.5,-29 482.147,-28.3403 484.869,-27.5686 487.582,-26.7344"/>
<polygon fill="midnightblue" stroke="midnightblue" points="488.831,-30.0073 497.213,-23.527 486.62,-23.3659 488.831,-30.0073"/>
</g>
<!-- Node6 -->
<g id="node6" class="node"><title>Node6</title>
<polygon fill="white" stroke="#bfbfbf" points="420.5,-5.5 420.5,-23.5 470.5,-23.5 470.5,-5.5 420.5,-5.5"/>
<text text-anchor="middle" x="445.5" y="-12.3" font-family="Helvetica,sans-Serif" font-size="9.00">memory</text>
</g>
<!-- Node3&#45;&gt;Node6 -->
<g id="edge5" class="edge"><title>Node3&#45;&gt;Node6</title>
<path fill="none" stroke="midnightblue" d="M217.936,-70.3624C223.97,-68.482 230.441,-66.5736 236.5,-65 312.935,-45.1477 334.738,-51.2847 410.5,-29 412.632,-28.3728 414.818,-27.673 417.005,-26.931"/>
<polygon fill="midnightblue" stroke="midnightblue" points="418.236,-30.2075 426.44,-23.5027 415.845,-23.6284 418.236,-30.2075"/>
</g>
<!-- Node7 -->
<g id="node7" class="node"><title>Node7</title>
<polygon fill="white" stroke="#bfbfbf" points="67.5,-5.5 67.5,-23.5 105.5,-23.5 105.5,-5.5 67.5,-5.5"/>
<text text-anchor="middle" x="86.5" y="-12.3" font-family="Helvetica,sans-Serif" font-size="9.00">utility</text>
</g>
<!-- Node3&#45;&gt;Node7 -->
<g id="edge6" class="edge"><title>Node3&#45;&gt;Node7</title>
<path fill="none" stroke="midnightblue" d="M179.512,-70.2639C161.55,-59.6882 130.163,-41.2082 108.868,-28.67"/>
<polygon fill="midnightblue" stroke="midnightblue" points="110.547,-25.5967 100.154,-23.539 106.995,-31.6288 110.547,-25.5967"/>
</g>
<!-- Node8 -->
<g id="node8" class="node"><title>Node8</title>
<polygon fill="white" stroke="#bfbfbf" points="124,-5.5 124,-23.5 163,-23.5 163,-5.5 124,-5.5"/>
<text text-anchor="middle" x="143.5" y="-12.3" font-family="Helvetica,sans-Serif" font-size="9.00">string</text>
</g>
<!-- Node3&#45;&gt;Node8 -->
<g id="edge7" class="edge"><title>Node3&#45;&gt;Node8</title>
<path fill="none" stroke="midnightblue" d="M186.963,-70.2639C179.21,-60.4945 166.103,-43.9798 156.306,-31.635"/>
<polygon fill="midnightblue" stroke="midnightblue" points="158.838,-29.1961 149.88,-23.539 153.355,-33.5477 158.838,-29.1961"/>
</g>
<!-- Node9 -->
<g id="node9" class="node"><title>Node9</title>
<polygon fill="white" stroke="#bfbfbf" points="181,-5.5 181,-23.5 216,-23.5 216,-5.5 181,-5.5"/>
<text text-anchor="middle" x="198.5" y="-12.3" font-family="Helvetica,sans-Serif" font-size="9.00">map</text>
</g>
<!-- Node3&#45;&gt;Node9 -->
<g id="edge8" class="edge"><title>Node3&#45;&gt;Node9</title>
<path fill="none" stroke="midnightblue" d="M194.154,-70.2639C194.884,-61.0635 196.089,-45.881 197.045,-33.8326"/>
<polygon fill="midnightblue" stroke="midnightblue" points="200.56,-33.7846 197.862,-23.539 193.582,-33.2307 200.56,-33.7846"/>
</g>
<!-- Node10 -->
<g id="node10" class="node"><title>Node10</title>
<polygon fill="white" stroke="#bfbfbf" points="560,-5.5 560,-23.5 615,-23.5 615,-5.5 560,-5.5"/>
<text text-anchor="middle" x="587.5" y="-12.3" font-family="Helvetica,sans-Serif" font-size="9.00">armadillo</text>
</g>
<!-- Node3&#45;&gt;Node10 -->
<g id="edge10" class="edge"><title>Node3&#45;&gt;Node10</title>
<path fill="none" stroke="midnightblue" d="M216.495,-70.4019C222.906,-68.3858 229.919,-66.4022 236.5,-65 372.159,-36.0981 411.045,-58.8426 546.5,-29 549.549,-28.3284 552.691,-27.5178 555.815,-26.6314"/>
<polygon fill="midnightblue" stroke="midnightblue" points="557.072,-29.9067 565.599,-23.6186 555.011,-23.2167 557.072,-29.9067"/>
</g>
<!-- Node11 -->
<g id="node11" class="node"><title>Node11</title>
<polygon fill="white" stroke="#bfbfbf" points="234,-0.5 234,-28.5 341,-28.5 341,-0.5 234,-0.5"/>
<text text-anchor="start" x="242" y="-17.3" font-family="Helvetica,sans-Serif" font-size="9.00">BacktraceException</text>
<text text-anchor="middle" x="287.5" y="-7.3" font-family="Helvetica,sans-Serif" font-size="9.00">/BacktraceException.h</text>
</g>
<!-- Node3&#45;&gt;Node11 -->
<g id="edge11" class="edge"><title>Node3&#45;&gt;Node11</title>
<path fill="none" stroke="midnightblue" d="M205.789,-70.2639C219.389,-61.149 241.75,-46.1625 259.644,-34.1692"/>
<polygon fill="midnightblue" stroke="midnightblue" points="261.654,-37.0356 268.012,-28.5608 257.757,-31.2208 261.654,-37.0356"/>
</g>
<!-- Node12&#45;&gt;Node3 -->
<g id="edge15" class="edge"><title>Node12&#45;&gt;Node3</title>
<path fill="none" stroke="midnightblue" d="M274.243,-185.373C259.947,-166.804 224.671,-120.986 205.829,-96.5134"/>
<polygon fill="midnightblue" stroke="midnightblue" points="208.574,-94.3415 199.7,-88.553 203.027,-98.6119 208.574,-94.3415"/>
</g>
<!-- Node12&#45;&gt;Node5 -->
<g id="edge13" class="edge"><title>Node12&#45;&gt;Node5</title>
<path fill="none" stroke="midnightblue" d="M322.163,-191.861C383.48,-186.936 496.283,-167.744 547.5,-94 560.966,-74.6116 545.427,-48.3742 532.167,-31.6899"/>
<polygon fill="midnightblue" stroke="midnightblue" points="534.734,-29.3039 525.607,-23.9227 529.386,-33.8208 534.734,-29.3039"/>
</g>
<!-- Node13 -->
<g id="node13" class="node"><title>Node13</title>
<polygon fill="white" stroke="#bfbfbf" points="259.5,-130.5 259.5,-148.5 301.5,-148.5 301.5,-130.5 259.5,-130.5"/>
<text text-anchor="middle" x="280.5" y="-137.3" font-family="Helvetica,sans-Serif" font-size="9.00">climits</text>
</g>
<!-- Node12&#45;&gt;Node13 -->
<g id="edge14" class="edge"><title>Node12&#45;&gt;Node13</title>
<path fill="none" stroke="midnightblue" d="M280.5,-185.219C280.5,-178.177 280.5,-167.808 280.5,-158.828"/>
<polygon fill="midnightblue" stroke="midnightblue" points="284,-158.55 280.5,-148.55 277,-158.55 284,-158.55"/>
</g>
<!-- Node14 -->
<g id="node14" class="node"><title>Node14</title>
<g id="a_node14"><a xlink:href="rng_8h.html" target="_top" xlink:title="Random number generation usign sfmt. ">
<polygon fill="white" stroke="black" points="320,-130.5 320,-148.5 391,-148.5 391,-130.5 320,-130.5"/>
<text text-anchor="middle" x="355.5" y="-137.3" font-family="Helvetica,sans-Serif" font-size="9.00">Mappel/rng.h</text>
</a>
</g>
</g>
<!-- Node12&#45;&gt;Node14 -->
<g id="edge16" class="edge"><title>Node12&#45;&gt;Node14</title>
<path fill="none" stroke="midnightblue" d="M291.891,-185.45C303.455,-177.279 321.594,-164.46 335.548,-154.6"/>
<polygon fill="midnightblue" stroke="midnightblue" points="337.855,-157.255 344.002,-148.625 333.815,-151.538 337.855,-157.255"/>
</g>
<!-- Node14&#45;&gt;Node3 -->
<g id="edge18" class="edge"><title>Node14&#45;&gt;Node3</title>
<path fill="none" stroke="midnightblue" d="M332.975,-130.435C305.125,-120.465 257.528,-103.424 225.795,-92.0624"/>
<polygon fill="midnightblue" stroke="midnightblue" points="226.689,-88.6651 216.095,-88.5894 224.33,-95.2554 226.689,-88.6651"/>
</g>
<!-- Node15 -->
<g id="node15" class="node"><title>Node15</title>
<polygon fill="white" stroke="#bfbfbf" points="490.5,-70.5 490.5,-88.5 538.5,-88.5 538.5,-70.5 490.5,-70.5"/>
<text text-anchor="middle" x="514.5" y="-77.3" font-family="Helvetica,sans-Serif" font-size="9.00">random</text>
</g>
<!-- Node14&#45;&gt;Node15 -->
<g id="edge17" class="edge"><title>Node14&#45;&gt;Node15</title>
<path fill="none" stroke="midnightblue" d="M379.313,-130.477C404.743,-121.82 446.162,-107.459 481.5,-94 482.91,-93.463 484.351,-92.9058 485.803,-92.3372"/>
<polygon fill="midnightblue" stroke="midnightblue" points="487.383,-95.4751 495.368,-88.5114 484.783,-88.9757 487.383,-95.4751"/>
</g>
<!-- Node16 -->
<g id="node16" class="node"><title>Node16</title>
<polygon fill="white" stroke="#bfbfbf" points="246,-70.5 246,-88.5 343,-88.5 343,-70.5 246,-70.5"/>
<text text-anchor="middle" x="294.5" y="-77.3" font-family="Helvetica,sans-Serif" font-size="9.00">trng/lcg64_shift.hpp</text>
</g>
<!-- Node14&#45;&gt;Node16 -->
<g id="edge19" class="edge"><title>Node14&#45;&gt;Node16</title>
<path fill="none" stroke="midnightblue" d="M347.018,-130.435C337.656,-121.533 322.366,-106.995 310.692,-95.8954"/>
<polygon fill="midnightblue" stroke="midnightblue" points="312.964,-93.2259 303.305,-88.8718 308.14,-98.2989 312.964,-93.2259"/>
</g>
<!-- Node17 -->
<g id="node17" class="node"><title>Node17</title>
<polygon fill="white" stroke="#bfbfbf" points="360.5,-65.5 360.5,-93.5 472.5,-93.5 472.5,-65.5 360.5,-65.5"/>
<text text-anchor="start" x="368.5" y="-82.3" font-family="Helvetica,sans-Serif" font-size="9.00">ParallelRngManager</text>
<text text-anchor="middle" x="416.5" y="-72.3" font-family="Helvetica,sans-Serif" font-size="9.00">/ParallelRngManager.h</text>
</g>
<!-- Node14&#45;&gt;Node17 -->
<g id="edge20" class="edge"><title>Node14&#45;&gt;Node17</title>
<path fill="none" stroke="midnightblue" d="M363.982,-130.435C371.99,-122.821 384.334,-111.084 395.044,-100.901"/>
<polygon fill="midnightblue" stroke="midnightblue" points="397.632,-103.27 402.467,-93.8428 392.808,-98.1969 397.632,-103.27"/>
</g>
<!-- Node18&#45;&gt;Node10 -->
<g id="edge24" class="edge"><title>Node18&#45;&gt;Node10</title>
<path fill="none" stroke="midnightblue" d="M629.495,-185.389C622.852,-158.516 601.452,-71.9404 592.027,-33.8152"/>
<polygon fill="midnightblue" stroke="midnightblue" points="595.314,-32.5264 589.517,-23.6585 588.519,-34.2062 595.314,-32.5264"/>
</g>
<!-- Node19 -->
<g id="node19" class="node"><title>Node19</title>
<polygon fill="white" stroke="#bfbfbf" points="632.5,-130.5 632.5,-148.5 684.5,-148.5 684.5,-130.5 632.5,-130.5"/>
<text text-anchor="middle" x="658.5" y="-137.3" font-family="Helvetica,sans-Serif" font-size="9.00">iostream</text>
</g>
<!-- Node18&#45;&gt;Node19 -->
<g id="edge22" class="edge"><title>Node18&#45;&gt;Node19</title>
<path fill="none" stroke="midnightblue" d="M635.719,-185.219C639.466,-177.864 645.061,-166.88 649.769,-157.639"/>
<polygon fill="midnightblue" stroke="midnightblue" points="652.979,-159.049 654.399,-148.55 646.741,-155.871 652.979,-159.049"/>
</g>
<!-- Node20 -->
<g id="node20" class="node"><title>Node20</title>
<polygon fill="white" stroke="#bfbfbf" points="702.5,-130.5 702.5,-148.5 752.5,-148.5 752.5,-130.5 702.5,-130.5"/>
<text text-anchor="middle" x="727.5" y="-137.3" font-family="Helvetica,sans-Serif" font-size="9.00">iomanip</text>
</g>
<!-- Node18&#45;&gt;Node20 -->
<g id="edge23" class="edge"><title>Node18&#45;&gt;Node20</title>
<path fill="none" stroke="midnightblue" d="M646.08,-185.45C661.446,-176.968 685.881,-163.477 703.978,-153.486"/>
<polygon fill="midnightblue" stroke="midnightblue" points="705.72,-156.523 712.782,-148.625 702.336,-150.394 705.72,-156.523"/>
</g>
</g>
</svg>
