<?xml version="1.0" encoding="UTF-8" standalone="no"?>
<!DOCTYPE svg PUBLIC "-//W3C//DTD SVG 1.1//EN"
 "http://www.w3.org/Graphics/SVG/1.1/DTD/svg11.dtd">
<!-- Generated by graphviz version 2.38.0 (20140413.2041)
 -->
<!-- Title: stencil.h Pages: 1 -->
<svg width="610pt" height="212pt"
 viewBox="0.00 0.00 610.00 212.00" xmlns="http://www.w3.org/2000/svg" xmlns:xlink="http://www.w3.org/1999/xlink">
<g id="graph0" class="graph" transform="scale(1 1) rotate(0) translate(4 208)">
<title>stencil.h</title>
<polygon fill="white" stroke="none" points="-4,4 -4,-208 606,-208 606,4 -4,4"/>
<!-- Node1 -->
<g id="node1" class="node"><title>Node1</title>
<polygon fill="#bfbfbf" stroke="black" points="185.5,-185.5 185.5,-203.5 235.5,-203.5 235.5,-185.5 185.5,-185.5"/>
<text text-anchor="middle" x="210.5" y="-192.3" font-family="Helvetica,sans-Serif" font-size="9.00">stencil.h</text>
</g>
<!-- Node2 -->
<g id="node2" class="node"><title>Node2</title>
<polygon fill="white" stroke="#bfbfbf" points="0,-5.5 0,-23.5 41,-23.5 41,-5.5 0,-5.5"/>
<text text-anchor="middle" x="20.5" y="-12.3" font-family="Helvetica,sans-Serif" font-size="9.00">cmath</text>
</g>
<!-- Node1&#45;&gt;Node2 -->
<g id="edge1" class="edge"><title>Node1&#45;&gt;Node2</title>
<path fill="none" stroke="midnightblue" d="M199.922,-185.231C188.868,-176.487 171.13,-162.163 156.5,-149 110.782,-107.864 59.7529,-56.0813 35.2296,-30.801"/>
<polygon fill="midnightblue" stroke="midnightblue" points="37.7065,-28.3275 28.2391,-23.5715 32.6742,-33.1934 37.7065,-28.3275"/>
</g>
<!-- Node3 -->
<g id="node3" class="node"><title>Node3</title>
<polygon fill="white" stroke="#bfbfbf" points="165.5,-130.5 165.5,-148.5 207.5,-148.5 207.5,-130.5 165.5,-130.5"/>
<text text-anchor="middle" x="186.5" y="-137.3" font-family="Helvetica,sans-Serif" font-size="9.00">climits</text>
</g>
<!-- Node1&#45;&gt;Node3 -->
<g id="edge2" class="edge"><title>Node1&#45;&gt;Node3</title>
<path fill="none" stroke="midnightblue" d="M206.75,-185.219C203.455,-177.942 198.551,-167.113 194.395,-157.934"/>
<polygon fill="midnightblue" stroke="midnightblue" points="197.459,-156.215 190.145,-148.55 191.082,-159.103 197.459,-156.215"/>
</g>
<!-- Node4 -->
<g id="node4" class="node"><title>Node4</title>
<g id="a_node4"><a xlink:href="util_8h.html" target="_top" xlink:title="Mappel/util.h">
<polygon fill="white" stroke="black" points="201,-70.5 201,-88.5 270,-88.5 270,-70.5 201,-70.5"/>
<text text-anchor="middle" x="235.5" y="-77.3" font-family="Helvetica,sans-Serif" font-size="9.00">Mappel/util.h</text>
</a>
</g>
</g>
<!-- Node1&#45;&gt;Node4 -->
<g id="edge3" class="edge"><title>Node1&#45;&gt;Node4</title>
<path fill="none" stroke="midnightblue" d="M212.298,-185.373C216.298,-167.293 226.014,-123.379 231.52,-98.4889"/>
<polygon fill="midnightblue" stroke="midnightblue" points="234.975,-99.073 233.718,-88.553 228.141,-97.5609 234.975,-99.073"/>
</g>
<!-- Node13 -->
<g id="node13" class="node"><title>Node13</title>
<g id="a_node13"><a xlink:href="rng_8h.html" target="_top" xlink:title="Random number generation usign sfmt. ">
<polygon fill="white" stroke="black" points="277,-130.5 277,-148.5 348,-148.5 348,-130.5 277,-130.5"/>
<text text-anchor="middle" x="312.5" y="-137.3" font-family="Helvetica,sans-Serif" font-size="9.00">Mappel/rng.h</text>
</a>
</g>
</g>
<!-- Node1&#45;&gt;Node13 -->
<g id="edge13" class="edge"><title>Node1&#45;&gt;Node13</title>
<path fill="none" stroke="midnightblue" d="M225.992,-185.45C242.392,-176.929 268.518,-163.353 287.772,-153.349"/>
<polygon fill="midnightblue" stroke="midnightblue" points="289.603,-156.342 296.863,-148.625 286.375,-150.13 289.603,-156.342"/>
</g>
<!-- Node4&#45;&gt;Node2 -->
<g id="edge5" class="edge"><title>Node4&#45;&gt;Node2</title>
<path fill="none" stroke="midnightblue" d="M200.661,-71.1548C162.864,-62.7431 101.019,-47.6828 49.5,-29 48.2959,-28.5634 47.0735,-28.0958 45.8457,-27.6065"/>
<polygon fill="midnightblue" stroke="midnightblue" points="47.1141,-24.3418 36.5467,-23.5804 44.3328,-30.7655 47.1141,-24.3418"/>
</g>
<!-- Node5 -->
<g id="node5" class="node"><title>Node5</title>
<polygon fill="white" stroke="#bfbfbf" points="59,-5.5 59,-23.5 102,-23.5 102,-5.5 59,-5.5"/>
<text text-anchor="middle" x="80.5" y="-12.3" font-family="Helvetica,sans-Serif" font-size="9.00">cstdint</text>
</g>
<!-- Node4&#45;&gt;Node5 -->
<g id="edge4" class="edge"><title>Node4&#45;&gt;Node5</title>
<path fill="none" stroke="midnightblue" d="M214.797,-70.4612C190.113,-60.8247 147.653,-44.0839 111.5,-29 110.471,-28.5705 109.423,-28.1305 108.366,-27.6837"/>
<polygon fill="midnightblue" stroke="midnightblue" points="109.389,-24.3141 98.8191,-23.5892 106.63,-30.7474 109.389,-24.3141"/>
</g>
<!-- Node6 -->
<g id="node6" class="node"><title>Node6</title>
<polygon fill="white" stroke="#bfbfbf" points="120.5,-5.5 120.5,-23.5 170.5,-23.5 170.5,-5.5 120.5,-5.5"/>
<text text-anchor="middle" x="145.5" y="-12.3" font-family="Helvetica,sans-Serif" font-size="9.00">memory</text>
</g>
<!-- Node4&#45;&gt;Node6 -->
<g id="edge6" class="edge"><title>Node4&#45;&gt;Node6</title>
<path fill="none" stroke="midnightblue" d="M223.734,-70.2639C208.965,-59.9254 183.404,-42.0329 165.532,-29.5222"/>
<polygon fill="midnightblue" stroke="midnightblue" points="167.184,-26.4063 156.984,-23.539 163.169,-32.141 167.184,-26.4063"/>
</g>
<!-- Node7 -->
<g id="node7" class="node"><title>Node7</title>
<polygon fill="white" stroke="#bfbfbf" points="188.5,-5.5 188.5,-23.5 226.5,-23.5 226.5,-5.5 188.5,-5.5"/>
<text text-anchor="middle" x="207.5" y="-12.3" font-family="Helvetica,sans-Serif" font-size="9.00">utility</text>
</g>
<!-- Node4&#45;&gt;Node7 -->
<g id="edge7" class="edge"><title>Node4&#45;&gt;Node7</title>
<path fill="none" stroke="midnightblue" d="M231.839,-70.2639C227.624,-60.779 220.583,-44.9361 215.155,-32.724"/>
<polygon fill="midnightblue" stroke="midnightblue" points="218.333,-31.2556 211.073,-23.539 211.936,-34.0986 218.333,-31.2556"/>
</g>
<!-- Node8 -->
<g id="node8" class="node"><title>Node8</title>
<polygon fill="white" stroke="#bfbfbf" points="245,-5.5 245,-23.5 284,-23.5 284,-5.5 245,-5.5"/>
<text text-anchor="middle" x="264.5" y="-12.3" font-family="Helvetica,sans-Serif" font-size="9.00">string</text>
</g>
<!-- Node4&#45;&gt;Node8 -->
<g id="edge8" class="edge"><title>Node4&#45;&gt;Node8</title>
<path fill="none" stroke="midnightblue" d="M239.291,-70.2639C243.657,-60.779 250.95,-44.9361 256.572,-32.724"/>
<polygon fill="midnightblue" stroke="midnightblue" points="259.797,-34.0863 260.8,-23.539 253.439,-31.1593 259.797,-34.0863"/>
</g>
<!-- Node9 -->
<g id="node9" class="node"><title>Node9</title>
<polygon fill="white" stroke="#bfbfbf" points="302,-5.5 302,-23.5 337,-23.5 337,-5.5 302,-5.5"/>
<text text-anchor="middle" x="319.5" y="-12.3" font-family="Helvetica,sans-Serif" font-size="9.00">map</text>
</g>
<!-- Node4&#45;&gt;Node9 -->
<g id="edge9" class="edge"><title>Node4&#45;&gt;Node9</title>
<path fill="none" stroke="midnightblue" d="M246.482,-70.2639C260.14,-60.0202 283.686,-42.3606 300.343,-29.8679"/>
<polygon fill="midnightblue" stroke="midnightblue" points="302.881,-32.339 308.781,-23.539 298.681,-26.739 302.881,-32.339"/>
</g>
<!-- Node10 -->
<g id="node10" class="node"><title>Node10</title>
<polygon fill="white" stroke="#bfbfbf" points="355,-5.5 355,-23.5 404,-23.5 404,-5.5 355,-5.5"/>
<text text-anchor="middle" x="379.5" y="-12.3" font-family="Helvetica,sans-Serif" font-size="9.00">sstream</text>
</g>
<!-- Node4&#45;&gt;Node10 -->
<g id="edge10" class="edge"><title>Node4&#45;&gt;Node10</title>
<path fill="none" stroke="midnightblue" d="M254.031,-70.3928C278.764,-59.5718 322.784,-40.3134 351.556,-27.7256"/>
<polygon fill="midnightblue" stroke="midnightblue" points="353.282,-30.7909 361.04,-23.5761 350.476,-24.3778 353.282,-30.7909"/>
</g>
<!-- Node11 -->
<g id="node11" class="node"><title>Node11</title>
<polygon fill="white" stroke="#bfbfbf" points="422,-5.5 422,-23.5 477,-23.5 477,-5.5 422,-5.5"/>
<text text-anchor="middle" x="449.5" y="-12.3" font-family="Helvetica,sans-Serif" font-size="9.00">armadillo</text>
</g>
<!-- Node4&#45;&gt;Node11 -->
<g id="edge11" class="edge"><title>Node4&#45;&gt;Node11</title>
<path fill="none" stroke="midnightblue" d="M261.048,-70.4949C267.086,-68.6491 273.51,-66.7229 279.5,-65 338.764,-47.9531 354.784,-47.8483 413.5,-29 415.407,-28.3879 417.361,-27.7339 419.325,-27.0562"/>
<polygon fill="midnightblue" stroke="midnightblue" points="420.834,-30.233 429.059,-23.5546 418.465,-23.6463 420.834,-30.233"/>
</g>
<!-- Node12 -->
<g id="node12" class="node"><title>Node12</title>
<polygon fill="white" stroke="#bfbfbf" points="495,-0.5 495,-28.5 602,-28.5 602,-0.5 495,-0.5"/>
<text text-anchor="start" x="503" y="-17.3" font-family="Helvetica,sans-Serif" font-size="9.00">BacktraceException</text>
<text text-anchor="middle" x="548.5" y="-7.3" font-family="Helvetica,sans-Serif" font-size="9.00">/BacktraceException.h</text>
</g>
<!-- Node4&#45;&gt;Node12 -->
<g id="edge12" class="edge"><title>Node4&#45;&gt;Node12</title>
<path fill="none" stroke="midnightblue" d="M260.018,-70.3819C266.324,-68.4585 273.128,-66.5253 279.5,-65 367.211,-44.0049 393.103,-46.7161 484.775,-29.2759"/>
<polygon fill="midnightblue" stroke="midnightblue" points="485.606,-32.6802 494.76,-27.3467 484.278,-25.8073 485.606,-32.6802"/>
</g>
<!-- Node13&#45;&gt;Node4 -->
<g id="edge15" class="edge"><title>Node13&#45;&gt;Node4</title>
<path fill="none" stroke="midnightblue" d="M301.793,-130.435C289.634,-121.276 269.555,-106.152 254.675,-94.9437"/>
<polygon fill="midnightblue" stroke="midnightblue" points="256.708,-92.0927 246.614,-88.8718 252.496,-97.684 256.708,-92.0927"/>
</g>
<!-- Node14 -->
<g id="node14" class="node"><title>Node14</title>
<polygon fill="white" stroke="#bfbfbf" points="288.5,-70.5 288.5,-88.5 336.5,-88.5 336.5,-70.5 288.5,-70.5"/>
<text text-anchor="middle" x="312.5" y="-77.3" font-family="Helvetica,sans-Serif" font-size="9.00">random</text>
</g>
<!-- Node13&#45;&gt;Node14 -->
<g id="edge14" class="edge"><title>Node13&#45;&gt;Node14</title>
<path fill="none" stroke="midnightblue" d="M312.5,-130.435C312.5,-122.389 312.5,-109.739 312.5,-99.1846"/>
<polygon fill="midnightblue" stroke="midnightblue" points="316,-98.8717 312.5,-88.8718 309,-98.8718 316,-98.8717"/>
</g>
<!-- Node15 -->
<g id="node15" class="node"><title>Node15</title>
<polygon fill="white" stroke="#bfbfbf" points="355,-70.5 355,-88.5 452,-88.5 452,-70.5 355,-70.5"/>
<text text-anchor="middle" x="403.5" y="-77.3" font-family="Helvetica,sans-Serif" font-size="9.00">trng/lcg64_shift.hpp</text>
</g>
<!-- Node13&#45;&gt;Node15 -->
<g id="edge16" class="edge"><title>Node13&#45;&gt;Node15</title>
<path fill="none" stroke="midnightblue" d="M325.153,-130.435C339.875,-121.052 364.421,-105.408 382.119,-94.1277"/>
<polygon fill="midnightblue" stroke="midnightblue" points="384.109,-97.0094 390.661,-88.6831 380.347,-91.1064 384.109,-97.0094"/>
</g>
<!-- Node16 -->
<g id="node16" class="node"><title>Node16</title>
<polygon fill="white" stroke="#bfbfbf" points="469.5,-65.5 469.5,-93.5 581.5,-93.5 581.5,-65.5 469.5,-65.5"/>
<text text-anchor="start" x="477.5" y="-82.3" font-family="Helvetica,sans-Serif" font-size="9.00">ParallelRngManager</text>
<text text-anchor="middle" x="525.5" y="-72.3" font-family="Helvetica,sans-Serif" font-size="9.00">/ParallelRngManager.h</text>
</g>
<!-- Node13&#45;&gt;Node16 -->
<g id="edge17" class="edge"><title>Node13&#45;&gt;Node16</title>
<path fill="none" stroke="midnightblue" d="M342.117,-130.435C374.537,-121.607 427.31,-107.237 467.939,-96.1738"/>
<polygon fill="midnightblue" stroke="midnightblue" points="468.994,-99.514 477.724,-93.5096 467.155,-92.7599 468.994,-99.514"/>
</g>
</g>
</svg>
