<?xml version="1.0" encoding="UTF-8" standalone="no"?>
<!DOCTYPE svg PUBLIC "-//W3C//DTD SVG 1.1//EN"
 "http://www.w3.org/Graphics/SVG/1.1/DTD/svg11.dtd">
<!-- Generated by graphviz version 2.38.0 (20140413.2041)
 -->
<!-- Title: mappel::ArraySizeError Pages: 1 -->
<svg width="120pt" height="82pt"
 viewBox="0.00 0.00 120.00 82.00" xmlns="http://www.w3.org/2000/svg" xmlns:xlink="http://www.w3.org/1999/xlink">
<g id="graph0" class="graph" transform="scale(1 1) rotate(0) translate(4 78)">
<title>mappel::ArraySizeError</title>
<polygon fill="white" stroke="none" points="-4,4 -4,-78 116,-78 116,4 -4,4"/>
<!-- Node1 -->
<g id="node1" class="node"><title>Node1</title>
<polygon fill="#bfbfbf" stroke="black" points="-7.10543e-15,-0.5 -7.10543e-15,-18.5 112,-18.5 112,-0.5 -7.10543e-15,-0.5"/>
<text text-anchor="middle" x="56" y="-7.3" font-family="Helvetica,sans-Serif" font-size="9.00">mappel::ArraySizeError</text>
</g>
<!-- Node2 -->
<g id="node2" class="node"><title>Node2</title>
<polygon fill="white" stroke="#bfbfbf" points="22,-55.5 22,-73.5 90,-73.5 90,-55.5 22,-55.5"/>
<text text-anchor="middle" x="56" y="-62.3" font-family="Helvetica,sans-Serif" font-size="9.00">MappelError</text>
</g>
<!-- Node2&#45;&gt;Node1 -->
<g id="edge1" class="edge"><title>Node2&#45;&gt;Node1</title>
<path fill="none" stroke="midnightblue" d="M56,-45.1746C56,-36.0945 56,-25.5949 56,-18.5496"/>
<polygon fill="midnightblue" stroke="midnightblue" points="52.5001,-45.2187 56,-55.2188 59.5001,-45.2188 52.5001,-45.2187"/>
</g>
</g>
</svg>
