<?xml version="1.0" encoding="UTF-8" standalone="no"?>
<!DOCTYPE svg PUBLIC "-//W3C//DTD SVG 1.1//EN"
 "http://www.w3.org/Graphics/SVG/1.1/DTD/svg11.dtd">
<!-- Generated by graphviz version 2.38.0 (20140413.2041)
 -->
<!-- Title: mappel::LogicalError Pages: 1 -->
<svg width="110pt" height="82pt"
 viewBox="0.00 0.00 110.00 82.00" xmlns="http://www.w3.org/2000/svg" xmlns:xlink="http://www.w3.org/1999/xlink">
<g id="graph0" class="graph" transform="scale(1 1) rotate(0) translate(4 78)">
<title>mappel::LogicalError</title>
<polygon fill="white" stroke="none" points="-4,4 -4,-78 106,-78 106,4 -4,4"/>
<!-- Node1 -->
<g id="node1" class="node"><title>Node1</title>
<polygon fill="#bfbfbf" stroke="black" points="-7.10543e-15,-0.5 -7.10543e-15,-18.5 102,-18.5 102,-0.5 -7.10543e-15,-0.5"/>
<text text-anchor="middle" x="51" y="-7.3" font-family="Helvetica,sans-Serif" font-size="9.00">mappel::LogicalError</text>
</g>
<!-- Node2 -->
<g id="node2" class="node"><title>Node2</title>
<polygon fill="white" stroke="#bfbfbf" points="17,-55.5 17,-73.5 85,-73.5 85,-55.5 17,-55.5"/>
<text text-anchor="middle" x="51" y="-62.3" font-family="Helvetica,sans-Serif" font-size="9.00">MappelError</text>
</g>
<!-- Node2&#45;&gt;Node1 -->
<g id="edge1" class="edge"><title>Node2&#45;&gt;Node1</title>
<path fill="none" stroke="midnightblue" d="M51,-45.1746C51,-36.0945 51,-25.5949 51,-18.5496"/>
<polygon fill="midnightblue" stroke="midnightblue" points="47.5001,-45.2187 51,-55.2188 54.5001,-45.2188 47.5001,-45.2187"/>
</g>
</g>
</svg>
