<?xml version="1.0" encoding="UTF-8" standalone="no"?>
<!DOCTYPE svg PUBLIC "-//W3C//DTD SVG 1.1//EN"
 "http://www.w3.org/Graphics/SVG/1.1/DTD/svg11.dtd">
<!-- Generated by graphviz version 2.38.0 (20140413.2041)
 -->
<!-- Title: util.h Pages: 1 -->
<svg width="610pt" height="92pt"
 viewBox="0.00 0.00 610.00 92.00" xmlns="http://www.w3.org/2000/svg" xmlns:xlink="http://www.w3.org/1999/xlink">
<g id="graph0" class="graph" transform="scale(1 1) rotate(0) translate(4 88)">
<title>util.h</title>
<polygon fill="white" stroke="none" points="-4,4 -4,-88 606,-88 606,4 -4,4"/>
<!-- Node1 -->
<g id="node1" class="node"><title>Node1</title>
<polygon fill="#bfbfbf" stroke="black" points="246.5,-65.5 246.5,-83.5 282.5,-83.5 282.5,-65.5 246.5,-65.5"/>
<text text-anchor="middle" x="264.5" y="-72.3" font-family="Helvetica,sans-Serif" font-size="9.00">util.h</text>
</g>
<!-- Node2 -->
<g id="node2" class="node"><title>Node2</title>
<polygon fill="white" stroke="#bfbfbf" points="0,-5.5 0,-23.5 43,-23.5 43,-5.5 0,-5.5"/>
<text text-anchor="middle" x="21.5" y="-12.3" font-family="Helvetica,sans-Serif" font-size="9.00">cstdint</text>
</g>
<!-- Node1&#45;&gt;Node2 -->
<g id="edge1" class="edge"><title>Node1&#45;&gt;Node2</title>
<path fill="none" stroke="midnightblue" d="M246.487,-71.086C209.363,-65.8186 121.914,-51.8982 51.5,-29 50.0743,-28.5364 48.6255,-28.0259 47.1734,-27.483"/>
<polygon fill="midnightblue" stroke="midnightblue" points="48.3296,-24.1736 37.7511,-23.5841 45.6531,-30.6418 48.3296,-24.1736"/>
</g>
<!-- Node3 -->
<g id="node3" class="node"><title>Node3</title>
<polygon fill="white" stroke="#bfbfbf" points="61,-5.5 61,-23.5 102,-23.5 102,-5.5 61,-5.5"/>
<text text-anchor="middle" x="81.5" y="-12.3" font-family="Helvetica,sans-Serif" font-size="9.00">cmath</text>
</g>
<!-- Node1&#45;&gt;Node3 -->
<g id="edge2" class="edge"><title>Node1&#45;&gt;Node3</title>
<path fill="none" stroke="midnightblue" d="M246.334,-69.0952C217.407,-61.8856 159.263,-46.5945 111.5,-29 110.294,-28.5558 109.069,-28.0854 107.836,-27.5968"/>
<polygon fill="midnightblue" stroke="midnightblue" points="109.036,-24.3042 98.4625,-23.6294 106.307,-30.7505 109.036,-24.3042"/>
</g>
<!-- Node4 -->
<g id="node4" class="node"><title>Node4</title>
<polygon fill="white" stroke="#bfbfbf" points="120.5,-5.5 120.5,-23.5 170.5,-23.5 170.5,-5.5 120.5,-5.5"/>
<text text-anchor="middle" x="145.5" y="-12.3" font-family="Helvetica,sans-Serif" font-size="9.00">memory</text>
</g>
<!-- Node1&#45;&gt;Node4 -->
<g id="edge3" class="edge"><title>Node1&#45;&gt;Node4</title>
<path fill="none" stroke="midnightblue" d="M247.954,-65.4353C228.172,-55.7939 194.827,-39.5418 171.57,-28.2065"/>
<polygon fill="midnightblue" stroke="midnightblue" points="172.812,-24.9182 162.29,-23.6831 169.745,-31.2107 172.812,-24.9182"/>
</g>
<!-- Node5 -->
<g id="node5" class="node"><title>Node5</title>
<polygon fill="white" stroke="#bfbfbf" points="188.5,-5.5 188.5,-23.5 226.5,-23.5 226.5,-5.5 188.5,-5.5"/>
<text text-anchor="middle" x="207.5" y="-12.3" font-family="Helvetica,sans-Serif" font-size="9.00">utility</text>
</g>
<!-- Node1&#45;&gt;Node5 -->
<g id="edge4" class="edge"><title>Node1&#45;&gt;Node5</title>
<path fill="none" stroke="midnightblue" d="M256.574,-65.4353C247.91,-56.6187 233.813,-42.2743 222.946,-31.2165"/>
<polygon fill="midnightblue" stroke="midnightblue" points="225.233,-28.5508 215.727,-23.8718 220.24,-33.4573 225.233,-28.5508"/>
</g>
<!-- Node6 -->
<g id="node6" class="node"><title>Node6</title>
<polygon fill="white" stroke="#bfbfbf" points="245,-5.5 245,-23.5 284,-23.5 284,-5.5 245,-5.5"/>
<text text-anchor="middle" x="264.5" y="-12.3" font-family="Helvetica,sans-Serif" font-size="9.00">string</text>
</g>
<!-- Node1&#45;&gt;Node6 -->
<g id="edge5" class="edge"><title>Node1&#45;&gt;Node6</title>
<path fill="none" stroke="midnightblue" d="M264.5,-65.4353C264.5,-57.3891 264.5,-44.7388 264.5,-34.1846"/>
<polygon fill="midnightblue" stroke="midnightblue" points="268,-33.8717 264.5,-23.8718 261,-33.8718 268,-33.8717"/>
</g>
<!-- Node7 -->
<g id="node7" class="node"><title>Node7</title>
<polygon fill="white" stroke="#bfbfbf" points="302,-5.5 302,-23.5 337,-23.5 337,-5.5 302,-5.5"/>
<text text-anchor="middle" x="319.5" y="-12.3" font-family="Helvetica,sans-Serif" font-size="9.00">map</text>
</g>
<!-- Node1&#45;&gt;Node7 -->
<g id="edge6" class="edge"><title>Node1&#45;&gt;Node7</title>
<path fill="none" stroke="midnightblue" d="M272.148,-65.4353C280.508,-56.6187 294.111,-42.2743 304.596,-31.2165"/>
<polygon fill="midnightblue" stroke="midnightblue" points="307.22,-33.5364 311.561,-23.8718 302.141,-28.7197 307.22,-33.5364"/>
</g>
<!-- Node8 -->
<g id="node8" class="node"><title>Node8</title>
<polygon fill="white" stroke="#bfbfbf" points="355,-5.5 355,-23.5 404,-23.5 404,-5.5 355,-5.5"/>
<text text-anchor="middle" x="379.5" y="-12.3" font-family="Helvetica,sans-Serif" font-size="9.00">sstream</text>
</g>
<!-- Node1&#45;&gt;Node8 -->
<g id="edge7" class="edge"><title>Node1&#45;&gt;Node8</title>
<path fill="none" stroke="midnightblue" d="M280.49,-65.4353C299.607,-55.7939 331.831,-39.5418 354.306,-28.2065"/>
<polygon fill="midnightblue" stroke="midnightblue" points="355.922,-31.3114 363.275,-23.6831 352.77,-25.0613 355.922,-31.3114"/>
</g>
<!-- Node9 -->
<g id="node9" class="node"><title>Node9</title>
<polygon fill="white" stroke="#bfbfbf" points="422,-5.5 422,-23.5 477,-23.5 477,-5.5 422,-5.5"/>
<text text-anchor="middle" x="449.5" y="-12.3" font-family="Helvetica,sans-Serif" font-size="9.00">armadillo</text>
</g>
<!-- Node1&#45;&gt;Node9 -->
<g id="edge8" class="edge"><title>Node1&#45;&gt;Node9</title>
<path fill="none" stroke="midnightblue" d="M282.515,-68.5508C310.655,-60.723 366.674,-44.7518 413.5,-29 415.351,-28.3775 417.248,-27.721 419.158,-27.0464"/>
<polygon fill="midnightblue" stroke="midnightblue" points="420.445,-30.3028 428.647,-23.5963 418.053,-23.7241 420.445,-30.3028"/>
</g>
<!-- Node10 -->
<g id="node10" class="node"><title>Node10</title>
<polygon fill="white" stroke="#bfbfbf" points="495,-0.5 495,-28.5 602,-28.5 602,-0.5 495,-0.5"/>
<text text-anchor="start" x="503" y="-17.3" font-family="Helvetica,sans-Serif" font-size="9.00">BacktraceException</text>
<text text-anchor="middle" x="548.5" y="-7.3" font-family="Helvetica,sans-Serif" font-size="9.00">/BacktraceException.h</text>
</g>
<!-- Node1&#45;&gt;Node10 -->
<g id="edge9" class="edge"><title>Node1&#45;&gt;Node10</title>
<path fill="none" stroke="midnightblue" d="M282.65,-69.9676C319.077,-62.8556 403.916,-46.1794 484.891,-29.3186"/>
<polygon fill="midnightblue" stroke="midnightblue" points="485.669,-32.7317 494.743,-27.2622 484.239,-25.8793 485.669,-32.7317"/>
</g>
</g>
</svg>
