<?xml version="1.0" encoding="UTF-8" standalone="no"?>
<!DOCTYPE svg PUBLIC "-//W3C//DTD SVG 1.1//EN"
 "http://www.w3.org/Graphics/SVG/1.1/DTD/svg11.dtd">
<!-- Generated by graphviz version 2.38.0 (20140413.2041)
 -->
<!-- Title: util.cpp Pages: 1 -->
<svg width="610pt" height="147pt"
 viewBox="0.00 0.00 610.00 147.00" xmlns="http://www.w3.org/2000/svg" xmlns:xlink="http://www.w3.org/1999/xlink">
<g id="graph0" class="graph" transform="scale(1 1) rotate(0) translate(4 143)">
<title>util.cpp</title>
<polygon fill="white" stroke="none" points="-4,4 -4,-143 606,-143 606,4 -4,4"/>
<!-- Node1 -->
<g id="node1" class="node"><title>Node1</title>
<polygon fill="#bfbfbf" stroke="black" points="136.5,-120.5 136.5,-138.5 182.5,-138.5 182.5,-120.5 136.5,-120.5"/>
<text text-anchor="middle" x="159.5" y="-127.3" font-family="Helvetica,sans-Serif" font-size="9.00">util.cpp</text>
</g>
<!-- Node2 -->
<g id="node2" class="node"><title>Node2</title>
<polygon fill="white" stroke="#bfbfbf" points="41,-65.5 41,-83.5 90,-83.5 90,-65.5 41,-65.5"/>
<text text-anchor="middle" x="65.5" y="-72.3" font-family="Helvetica,sans-Serif" font-size="9.00">sched.h</text>
</g>
<!-- Node1&#45;&gt;Node2 -->
<g id="edge1" class="edge"><title>Node1&#45;&gt;Node2</title>
<path fill="none" stroke="midnightblue" d="M145.223,-120.45C130.316,-112.045 106.69,-98.7241 89.021,-88.7618"/>
<polygon fill="midnightblue" stroke="midnightblue" points="90.3408,-85.488 79.9109,-83.6253 86.9027,-91.5856 90.3408,-85.488"/>
</g>
<!-- Node3 -->
<g id="node3" class="node"><title>Node3</title>
<polygon fill="white" stroke="#bfbfbf" points="108,-65.5 108,-83.5 151,-83.5 151,-65.5 108,-65.5"/>
<text text-anchor="middle" x="129.5" y="-72.3" font-family="Helvetica,sans-Serif" font-size="9.00">cctype</text>
</g>
<!-- Node1&#45;&gt;Node3 -->
<g id="edge2" class="edge"><title>Node1&#45;&gt;Node3</title>
<path fill="none" stroke="midnightblue" d="M154.812,-120.219C150.605,-112.786 144.3,-101.646 139.035,-92.3446"/>
<polygon fill="midnightblue" stroke="midnightblue" points="142.028,-90.528 134.056,-83.5496 135.936,-93.9763 142.028,-90.528"/>
</g>
<!-- Node4 -->
<g id="node4" class="node"><title>Node4</title>
<polygon fill="white" stroke="#bfbfbf" points="169.5,-65.5 169.5,-83.5 211.5,-83.5 211.5,-65.5 169.5,-65.5"/>
<text text-anchor="middle" x="190.5" y="-72.3" font-family="Helvetica,sans-Serif" font-size="9.00">omp.h</text>
</g>
<!-- Node1&#45;&gt;Node4 -->
<g id="edge3" class="edge"><title>Node1&#45;&gt;Node4</title>
<path fill="none" stroke="midnightblue" d="M164.344,-120.219C168.691,-112.786 175.207,-101.646 180.647,-92.3446"/>
<polygon fill="midnightblue" stroke="midnightblue" points="183.764,-93.9486 185.792,-83.5496 177.722,-90.4143 183.764,-93.9486"/>
</g>
<!-- Node5 -->
<g id="node5" class="node"><title>Node5</title>
<g id="a_node5"><a xlink:href="util_8h.html" target="_top" xlink:title="Mappel/util.h">
<polygon fill="white" stroke="black" points="230,-65.5 230,-83.5 299,-83.5 299,-65.5 230,-65.5"/>
<text text-anchor="middle" x="264.5" y="-72.3" font-family="Helvetica,sans-Serif" font-size="9.00">Mappel/util.h</text>
</a>
</g>
</g>
<!-- Node1&#45;&gt;Node5 -->
<g id="edge4" class="edge"><title>Node1&#45;&gt;Node5</title>
<path fill="none" stroke="midnightblue" d="M175.447,-120.45C192.407,-111.89 219.471,-98.2291 239.316,-88.2119"/>
<polygon fill="midnightblue" stroke="midnightblue" points="241.053,-91.256 248.403,-83.6253 237.898,-85.007 241.053,-91.256"/>
</g>
<!-- Node6 -->
<g id="node6" class="node"><title>Node6</title>
<polygon fill="white" stroke="#bfbfbf" points="0,-5.5 0,-23.5 43,-23.5 43,-5.5 0,-5.5"/>
<text text-anchor="middle" x="21.5" y="-12.3" font-family="Helvetica,sans-Serif" font-size="9.00">cstdint</text>
</g>
<!-- Node5&#45;&gt;Node6 -->
<g id="edge5" class="edge"><title>Node5&#45;&gt;Node6</title>
<path fill="none" stroke="midnightblue" d="M229.631,-66.6458C173.641,-55.5753 68.2504,-34.4471 51.5,-29 50.0743,-28.5364 48.6255,-28.0259 47.1734,-27.483"/>
<polygon fill="midnightblue" stroke="midnightblue" points="48.3296,-24.1736 37.7511,-23.5841 45.6531,-30.6418 48.3296,-24.1736"/>
</g>
<!-- Node7 -->
<g id="node7" class="node"><title>Node7</title>
<polygon fill="white" stroke="#bfbfbf" points="61,-5.5 61,-23.5 102,-23.5 102,-5.5 61,-5.5"/>
<text text-anchor="middle" x="81.5" y="-12.3" font-family="Helvetica,sans-Serif" font-size="9.00">cmath</text>
</g>
<!-- Node5&#45;&gt;Node7 -->
<g id="edge6" class="edge"><title>Node5&#45;&gt;Node7</title>
<path fill="none" stroke="midnightblue" d="M232.136,-65.4946C200.874,-57.4333 152.384,-44.0605 111.5,-29 110.294,-28.5558 109.069,-28.0854 107.836,-27.5968"/>
<polygon fill="midnightblue" stroke="midnightblue" points="109.036,-24.3042 98.4625,-23.6294 106.307,-30.7505 109.036,-24.3042"/>
</g>
<!-- Node8 -->
<g id="node8" class="node"><title>Node8</title>
<polygon fill="white" stroke="#bfbfbf" points="120.5,-5.5 120.5,-23.5 170.5,-23.5 170.5,-5.5 120.5,-5.5"/>
<text text-anchor="middle" x="145.5" y="-12.3" font-family="Helvetica,sans-Serif" font-size="9.00">memory</text>
</g>
<!-- Node5&#45;&gt;Node8 -->
<g id="edge7" class="edge"><title>Node5&#45;&gt;Node8</title>
<path fill="none" stroke="midnightblue" d="M247.954,-65.4353C228.172,-55.7939 194.827,-39.5418 171.57,-28.2065"/>
<polygon fill="midnightblue" stroke="midnightblue" points="172.812,-24.9182 162.29,-23.6831 169.745,-31.2107 172.812,-24.9182"/>
</g>
<!-- Node9 -->
<g id="node9" class="node"><title>Node9</title>
<polygon fill="white" stroke="#bfbfbf" points="188.5,-5.5 188.5,-23.5 226.5,-23.5 226.5,-5.5 188.5,-5.5"/>
<text text-anchor="middle" x="207.5" y="-12.3" font-family="Helvetica,sans-Serif" font-size="9.00">utility</text>
</g>
<!-- Node5&#45;&gt;Node9 -->
<g id="edge8" class="edge"><title>Node5&#45;&gt;Node9</title>
<path fill="none" stroke="midnightblue" d="M256.574,-65.4353C247.91,-56.6187 233.813,-42.2743 222.946,-31.2165"/>
<polygon fill="midnightblue" stroke="midnightblue" points="225.233,-28.5508 215.727,-23.8718 220.24,-33.4573 225.233,-28.5508"/>
</g>
<!-- Node10 -->
<g id="node10" class="node"><title>Node10</title>
<polygon fill="white" stroke="#bfbfbf" points="245,-5.5 245,-23.5 284,-23.5 284,-5.5 245,-5.5"/>
<text text-anchor="middle" x="264.5" y="-12.3" font-family="Helvetica,sans-Serif" font-size="9.00">string</text>
</g>
<!-- Node5&#45;&gt;Node10 -->
<g id="edge9" class="edge"><title>Node5&#45;&gt;Node10</title>
<path fill="none" stroke="midnightblue" d="M264.5,-65.4353C264.5,-57.3891 264.5,-44.7388 264.5,-34.1846"/>
<polygon fill="midnightblue" stroke="midnightblue" points="268,-33.8717 264.5,-23.8718 261,-33.8718 268,-33.8717"/>
</g>
<!-- Node11 -->
<g id="node11" class="node"><title>Node11</title>
<polygon fill="white" stroke="#bfbfbf" points="302,-5.5 302,-23.5 337,-23.5 337,-5.5 302,-5.5"/>
<text text-anchor="middle" x="319.5" y="-12.3" font-family="Helvetica,sans-Serif" font-size="9.00">map</text>
</g>
<!-- Node5&#45;&gt;Node11 -->
<g id="edge10" class="edge"><title>Node5&#45;&gt;Node11</title>
<path fill="none" stroke="midnightblue" d="M272.148,-65.4353C280.508,-56.6187 294.111,-42.2743 304.596,-31.2165"/>
<polygon fill="midnightblue" stroke="midnightblue" points="307.22,-33.5364 311.561,-23.8718 302.141,-28.7197 307.22,-33.5364"/>
</g>
<!-- Node12 -->
<g id="node12" class="node"><title>Node12</title>
<polygon fill="white" stroke="#bfbfbf" points="355,-5.5 355,-23.5 404,-23.5 404,-5.5 355,-5.5"/>
<text text-anchor="middle" x="379.5" y="-12.3" font-family="Helvetica,sans-Serif" font-size="9.00">sstream</text>
</g>
<!-- Node5&#45;&gt;Node12 -->
<g id="edge11" class="edge"><title>Node5&#45;&gt;Node12</title>
<path fill="none" stroke="midnightblue" d="M280.49,-65.4353C299.607,-55.7939 331.831,-39.5418 354.306,-28.2065"/>
<polygon fill="midnightblue" stroke="midnightblue" points="355.922,-31.3114 363.275,-23.6831 352.77,-25.0613 355.922,-31.3114"/>
</g>
<!-- Node13 -->
<g id="node13" class="node"><title>Node13</title>
<polygon fill="white" stroke="#bfbfbf" points="422,-5.5 422,-23.5 477,-23.5 477,-5.5 422,-5.5"/>
<text text-anchor="middle" x="449.5" y="-12.3" font-family="Helvetica,sans-Serif" font-size="9.00">armadillo</text>
</g>
<!-- Node5&#45;&gt;Node13 -->
<g id="edge12" class="edge"><title>Node5&#45;&gt;Node13</title>
<path fill="none" stroke="midnightblue" d="M293.527,-65.4682C323.691,-56.9733 372.175,-42.9012 413.5,-29 415.351,-28.3775 417.248,-27.721 419.158,-27.0464"/>
<polygon fill="midnightblue" stroke="midnightblue" points="420.445,-30.3028 428.647,-23.5963 418.053,-23.7241 420.445,-30.3028"/>
</g>
<!-- Node14 -->
<g id="node14" class="node"><title>Node14</title>
<polygon fill="white" stroke="#bfbfbf" points="495,-0.5 495,-28.5 602,-28.5 602,-0.5 495,-0.5"/>
<text text-anchor="start" x="503" y="-17.3" font-family="Helvetica,sans-Serif" font-size="9.00">BacktraceException</text>
<text text-anchor="middle" x="548.5" y="-7.3" font-family="Helvetica,sans-Serif" font-size="9.00">/BacktraceException.h</text>
</g>
<!-- Node5&#45;&gt;Node14 -->
<g id="edge13" class="edge"><title>Node5&#45;&gt;Node14</title>
<path fill="none" stroke="midnightblue" d="M299.144,-66.74C340.892,-58.5535 413.429,-44.2007 484.698,-29.359"/>
<polygon fill="midnightblue" stroke="midnightblue" points="485.669,-32.7319 494.743,-27.2622 484.239,-25.8796 485.669,-32.7319"/>
</g>
</g>
</svg>
